<?xml version="1.0" encoding="us-ascii" standalone="no"?><svg xmlns="http://www.w3.org/2000/svg" xmlns:xlink="http://www.w3.org/1999/xlink" contentStyleType="text/css" height="345px" preserveAspectRatio="none" style="width:1110px;height:345px;background:#FFFFFF;" version="1.1" viewBox="0 0 1110 345" width="1110px" zoomAndPan="magnify"><defs/><g><text fill="#000000" font-family="sans-serif" font-size="14" font-weight="bold" lengthAdjust="spacing" textLength="1082" x="10" y="29.5332">E Commerce Platform - Create Product - Buying And Merchandising - Buying And Merchandising App - Create Purchase Order - Sequence - Container level</text><rect fill="#FFFFFF" height="294.6797" style="stroke:#181818;stroke-width:0.5;" width="305.5" x="551" y="44.6094"/><text fill="#000000" font-family="sans-serif" font-size="13" font-weight="bold" lengthAdjust="spacing" textLength="96" x="655.75" y="58.1045">Buying Service</text><rect fill="none" height="141.7578" style="stroke:#000000;stroke-width:1.5;" width="573" x="299.5" y="144.9219"/><rect fill="none" height="79.0547" style="stroke:#000000;stroke-width:1.5;" width="317.5" x="545" y="200.625"/><line style="stroke:#181818;stroke-width:0.5;stroke-dasharray:5.0,5.0;" x1="257.5" x2="257.5" y1="97.5703" y2="303.6797"/><line style="stroke:#181818;stroke-width:0.5;stroke-dasharray:5.0,5.0;" x1="414.5" x2="414.5" y1="97.5703" y2="303.6797"/><line style="stroke:#181818;stroke-width:0.5;stroke-dasharray:5.0,5.0;" x1="572" x2="572" y1="97.5703" y2="303.6797"/><line style="stroke:#181818;stroke-width:0.5;stroke-dasharray:5.0,5.0;" x1="722.5" x2="722.5" y1="97.5703" y2="303.6797"/><line style="stroke:#181818;stroke-width:0.5;stroke-dasharray:5.0,5.0;" x1="811.5" x2="811.5" y1="97.5703" y2="303.6797"/><rect fill="#E2E2F0" height="31.6094" rx="2.5" ry="2.5" style="stroke:#181818;stroke-width:0.5;" width="65" x="225.5" y="64.9609"/><text fill="#000000" font-family="sans-serif" font-size="14" lengthAdjust="spacing" textLength="51" x="232.5" y="86.4941">External</text><rect fill="#E2E2F0" height="31.6094" rx="2.5" ry="2.5" style="stroke:#181818;stroke-width:0.5;" width="65" x="225.5" y="302.6797"/><text fill="#000000" font-family="sans-serif" font-size="14" lengthAdjust="spacing" textLength="51" x="232.5" y="324.2129">External</text><rect fill="#E2E2F0" height="31.6094" rx="2.5" ry="2.5" style="stroke:#181818;stroke-width:0.5;" width="211" x="309.5" y="64.9609"/><text fill="#000000" font-family="sans-serif" font-size="14" lengthAdjust="spacing" textLength="197" x="316.5" y="86.4941">Buying And Merchandising App</text><rect fill="#E2E2F0" height="31.6094" rx="2.5" ry="2.5" style="stroke:#181818;stroke-width:0.5;" width="211" x="309.5" y="302.6797"/><text fill="#000000" font-family="sans-serif" font-size="14" lengthAdjust="spacing" textLength="197" x="316.5" y="324.2129">Buying And Merchandising App</text><rect fill="#E2E2F0" height="31.6094" rx="2.5" ry="2.5" style="stroke:#181818;stroke-width:0.5;" width="34" x="555" y="64.9609"/><text fill="#000000" font-family="sans-serif" font-size="14" lengthAdjust="spacing" textLength="20" x="562" y="86.4941">Api</text><rect fill="#E2E2F0" height="31.6094" rx="2.5" ry="2.5" style="stroke:#181818;stroke-width:0.5;" width="34" x="555" y="302.6797"/><text fill="#000000" font-family="sans-serif" font-size="14" lengthAdjust="spacing" textLength="20" x="562" y="324.2129">Api</text><rect fill="#E2E2F0" height="31.6094" rx="2.5" ry="2.5" style="stroke:#181818;stroke-width:0.5;" width="75" x="685.5" y="64.9609"/><text fill="#000000" font-family="sans-serif" font-size="14" lengthAdjust="spacing" textLength="61" x="692.5" y="86.4941">Database</text><rect fill="#E2E2F0" height="31.6094" rx="2.5" ry="2.5" style="stroke:#181818;stroke-width:0.5;" width="75" x="685.5" y="302.6797"/><text fill="#000000" font-family="sans-serif" font-size="14" lengthAdjust="spacing" textLength="61" x="692.5" y="324.2129">Database</text><rect fill="#E2E2F0" height="31.6094" rx="2.5" ry="2.5" style="stroke:#181818;stroke-width:0.5;" width="82" x="770.5" y="64.9609"/><text fill="#000000" font-family="sans-serif" font-size="14" lengthAdjust="spacing" textLength="68" x="777.5" y="86.4941">Messaging</text><rect fill="#E2E2F0" height="31.6094" rx="2.5" ry="2.5" style="stroke:#181818;stroke-width:0.5;" width="82" x="770.5" y="302.6797"/><text fill="#000000" font-family="sans-serif" font-size="14" lengthAdjust="spacing" textLength="68" x="777.5" y="324.2129">Messaging</text><polygon fill="#181818" points="403,125.9219,413,129.9219,403,133.9219,407,129.9219" style="stroke:#181818;stroke-width:1.0;"/><line style="stroke:#181818;stroke-width:1.0;" x1="258" x2="409" y1="129.9219" y2="129.9219"/><text fill="#000000" font-family="sans-serif" font-size="13" lengthAdjust="spacing" textLength="133" x="265" y="125.0654">Create Purchase Order</text><path d="M299.5,144.9219 L489.5,144.9219 L489.5,153.2734 L479.5,163.2734 L299.5,163.2734 L299.5,144.9219 " fill="#EEEEEE" style="stroke:#000000;stroke-width:1.5;"/><rect fill="none" height="141.7578" style="stroke:#000000;stroke-width:1.5;" width="573" x="299.5" y="144.9219"/><text fill="#000000" font-family="sans-serif" font-size="13" font-weight="bold" lengthAdjust="spacing" textLength="145" x="314.5" y="159.417">Create Purchase Order</text><polygon fill="#181818" points="560,181.625,570,185.625,560,189.625,564,185.625" style="stroke:#181818;stroke-width:1.0;"/><line style="stroke:#181818;stroke-width:1.0;" x1="415" x2="566" y1="185.625" y2="185.625"/><text fill="#000000" font-family="sans-serif" font-size="13" lengthAdjust="spacing" textLength="133" x="422" y="180.7686">Create Purchase Order</text><path d="M545,200.625 L735,200.625 L735,208.9766 L725,218.9766 L545,218.9766 L545,200.625 " fill="#EEEEEE" style="stroke:#000000;stroke-width:1.5;"/><rect fill="none" height="79.0547" style="stroke:#000000;stroke-width:1.5;" width="317.5" x="545" y="200.625"/><text fill="#000000" font-family="sans-serif" font-size="13" font-weight="bold" lengthAdjust="spacing" textLength="145" x="560" y="215.1201">Create Purchase Order</text><polygon fill="#181818" points="711,237.3281,721,241.3281,711,245.3281,715,241.3281" style="stroke:#181818;stroke-width:1.0;"/><line style="stroke:#181818;stroke-width:1.0;" x1="572" x2="717" y1="241.3281" y2="241.3281"/><text fill="#000000" font-family="sans-serif" font-size="13" lengthAdjust="spacing" textLength="127" x="579" y="236.4717">Insert Purchase Order</text><polygon fill="#181818" points="799.5,267.6797,809.5,271.6797,799.5,275.6797,803.5,271.6797" style="stroke:#181818;stroke-width:1.0;"/><line style="stroke:#181818;stroke-width:1.0;" x1="572" x2="805.5" y1="271.6797" y2="271.6797"/><text fill="#000000" font-family="sans-serif" font-size="13" lengthAdjust="spacing" textLength="210" x="579" y="266.8232">Send Purchase Order Created Event</text><!--SRC=[tLKzRuCm4DtzAqvq3bEd3fKefLA6g9KOEZjm8PR0flP1ad_V8mHK2eaw94Gg4eFVVRntvpkP5EK84OIcAD0c21-vf8sn1ImWj2Y94MlIAY46Ngg3qXa4EeKLEs-bJfLha0kce2n_fAeQaqDujobQncFygb0pBRiOJL9fXdEiCHUYb9PKeagf2RneJsYrp3sG3iB7fURZMsvsVcmsj9CMuuCZB9pVERRdOP9B8e-9ewuDNHVyLlYf1NwRWEC7uICDqsvC8iJQx7iTCTfQ9UZ1m-TM4GhWRw0tADNrPPrO_RxVpcUUCVch9Bdckvf5GKSsbh52vsJ6KRFewDa4yf3mPGaX_Zvji7Y- -GZ1q_GoYSoQgZnZkxceQnS-FQJth_sChXdAxpQ4Ux3K3Ytzqphx3UH2usO9VxqPBLiAKOsQcYqz_k8R]--></g></svg>