<?xml version="1.0" encoding="us-ascii" standalone="no"?><svg xmlns="http://www.w3.org/2000/svg" xmlns:xlink="http://www.w3.org/1999/xlink" contentStyleType="text/css" height="414px" preserveAspectRatio="none" style="width:1110px;height:414px;background:#FFFFFF;" version="1.1" viewBox="0 0 1110 414" width="1110px" zoomAndPan="magnify"><defs/><g><text fill="#000000" font-family="sans-serif" font-size="14" font-weight="bold" lengthAdjust="spacing" textLength="1082" x="10" y="29.5332">E Commerce Platform - Create Product - Buying And Merchandising - Buying And Merchandising App - Create Purchase Order - Sequence - Container level</text><rect fill="#FFFFFF" height="356.6797" style="stroke:#181818;stroke-width:0.5;" width="307.5" x="550" y="44.6094"/><text fill="#000000" font-family="sans-serif" font-size="13" font-weight="bold" lengthAdjust="spacing" textLength="96" x="655.75" y="58.1045">Buying Service</text><rect fill="none" height="141.7578" style="stroke:#000000;stroke-width:1.5;" width="575" x="298.5" y="175.9219"/><rect fill="none" height="79.0547" style="stroke:#000000;stroke-width:1.5;" width="319.5" x="544" y="231.625"/><line style="stroke:#181818;stroke-width:0.5;stroke-dasharray:5.0,5.0;" x1="256.5" x2="256.5" y1="128.5703" y2="334.6797"/><line style="stroke:#181818;stroke-width:0.5;stroke-dasharray:5.0,5.0;" x1="413.5" x2="413.5" y1="128.5703" y2="334.6797"/><line style="stroke:#181818;stroke-width:0.5;stroke-dasharray:5.0,5.0;" x1="571" x2="571" y1="128.5703" y2="334.6797"/><line style="stroke:#181818;stroke-width:0.5;stroke-dasharray:5.0,5.0;" x1="721.5" x2="721.5" y1="128.5703" y2="334.6797"/><line style="stroke:#181818;stroke-width:0.5;stroke-dasharray:5.0,5.0;" x1="809.5" x2="809.5" y1="128.5703" y2="334.6797"/><rect fill="#E2E2F0" height="31.6094" rx="2.5" ry="2.5" style="stroke:#181818;stroke-width:0.5;" width="65" x="224.5" y="95.9609"/><text fill="#000000" font-family="sans-serif" font-size="14" lengthAdjust="spacing" textLength="51" x="231.5" y="117.4941">External</text><rect fill="#E2E2F0" height="31.6094" rx="2.5" ry="2.5" style="stroke:#181818;stroke-width:0.5;" width="65" x="224.5" y="333.6797"/><text fill="#000000" font-family="sans-serif" font-size="14" lengthAdjust="spacing" textLength="51" x="231.5" y="355.2129">External</text><rect fill="#E2E2F0" height="31.6094" rx="2.5" ry="2.5" style="stroke:#181818;stroke-width:0.5;" width="211" x="308.5" y="95.9609"/><text fill="#000000" font-family="sans-serif" font-size="14" lengthAdjust="spacing" textLength="197" x="315.5" y="117.4941">Buying And Merchandising App</text><rect fill="#E2E2F0" height="31.6094" rx="2.5" ry="2.5" style="stroke:#181818;stroke-width:0.5;" width="211" x="308.5" y="333.6797"/><text fill="#000000" font-family="sans-serif" font-size="14" lengthAdjust="spacing" textLength="197" x="315.5" y="355.2129">Buying And Merchandising App</text><rect fill="#E2E2F0" height="31.6094" rx="2.5" ry="2.5" style="stroke:#181818;stroke-width:0.5;" width="34" x="554" y="95.9609"/><text fill="#000000" font-family="sans-serif" font-size="14" lengthAdjust="spacing" textLength="20" x="561" y="117.4941">Api</text><rect fill="#E2E2F0" height="31.6094" rx="2.5" ry="2.5" style="stroke:#181818;stroke-width:0.5;" width="34" x="554" y="333.6797"/><text fill="#000000" font-family="sans-serif" font-size="14" lengthAdjust="spacing" textLength="20" x="561" y="355.2129">Api</text><text fill="#000000" font-family="sans-serif" font-size="14" lengthAdjust="spacing" textLength="61" x="688.5" y="125.4941">Database</text><path d="M704,74.9609 C704,64.9609 722,64.9609 722,64.9609 C722,64.9609 740,64.9609 740,74.9609 L740,100.9609 C740,110.9609 722,110.9609 722,110.9609 C722,110.9609 704,110.9609 704,100.9609 L704,74.9609 " fill="#E2E2F0" style="stroke:#181818;stroke-width:1.5;"/><path d="M704,74.9609 C704,84.9609 722,84.9609 722,84.9609 C722,84.9609 740,84.9609 740,74.9609 " fill="none" style="stroke:#181818;stroke-width:1.5;"/><text fill="#000000" font-family="sans-serif" font-size="14" lengthAdjust="spacing" textLength="61" x="688.5" y="348.2129">Database</text><path d="M704,361.2891 C704,351.2891 722,351.2891 722,351.2891 C722,351.2891 740,351.2891 740,361.2891 L740,387.2891 C740,397.2891 722,397.2891 722,397.2891 C722,397.2891 704,397.2891 704,387.2891 L704,361.2891 " fill="#E2E2F0" style="stroke:#181818;stroke-width:1.5;"/><path d="M704,361.2891 C704,371.2891 722,371.2891 722,371.2891 C722,371.2891 740,371.2891 740,361.2891 " fill="none" style="stroke:#181818;stroke-width:1.5;"/><path d="M770.5,100.9609 L848.5,100.9609 C853.5,100.9609 853.5,114.7656 853.5,114.7656 C853.5,114.7656 853.5,128.5703 848.5,128.5703 L770.5,128.5703 C765.5,128.5703 765.5,114.7656 765.5,114.7656 C765.5,114.7656 765.5,100.9609 770.5,100.9609 " fill="#E2E2F0" style="stroke:#181818;stroke-width:0.5;"/><path d="M848.5,100.9609 C843.5,100.9609 843.5,114.7656 843.5,114.7656 C843.5,128.5703 848.5,128.5703 848.5,128.5703 " fill="none" style="stroke:#181818;stroke-width:0.5;"/><text fill="#000000" font-family="sans-serif" font-size="14" lengthAdjust="spacing" textLength="68" x="770.5" y="120.4941">Messaging</text><path d="M770.5,333.6797 L848.5,333.6797 C853.5,333.6797 853.5,347.4844 853.5,347.4844 C853.5,347.4844 853.5,361.2891 848.5,361.2891 L770.5,361.2891 C765.5,361.2891 765.5,347.4844 765.5,347.4844 C765.5,347.4844 765.5,333.6797 770.5,333.6797 " fill="#E2E2F0" style="stroke:#181818;stroke-width:0.5;"/><path d="M848.5,333.6797 C843.5,333.6797 843.5,347.4844 843.5,347.4844 C843.5,361.2891 848.5,361.2891 848.5,361.2891 " fill="none" style="stroke:#181818;stroke-width:0.5;"/><text fill="#000000" font-family="sans-serif" font-size="14" lengthAdjust="spacing" textLength="68" x="770.5" y="353.2129">Messaging</text><polygon fill="#181818" points="402,156.9219,412,160.9219,402,164.9219,406,160.9219" style="stroke:#181818;stroke-width:1.0;"/><line style="stroke:#181818;stroke-width:1.0;" x1="257" x2="408" y1="160.9219" y2="160.9219"/><text fill="#000000" font-family="sans-serif" font-size="13" lengthAdjust="spacing" textLength="133" x="264" y="156.0654">Create Purchase Order</text><path d="M298.5,175.9219 L488.5,175.9219 L488.5,184.2734 L478.5,194.2734 L298.5,194.2734 L298.5,175.9219 " fill="#EEEEEE" style="stroke:#000000;stroke-width:1.5;"/><rect fill="none" height="141.7578" style="stroke:#000000;stroke-width:1.5;" width="575" x="298.5" y="175.9219"/><text fill="#000000" font-family="sans-serif" font-size="13" font-weight="bold" lengthAdjust="spacing" textLength="145" x="313.5" y="190.417">Create Purchase Order</text><polygon fill="#181818" points="559,212.625,569,216.625,559,220.625,563,216.625" style="stroke:#181818;stroke-width:1.0;"/><line style="stroke:#181818;stroke-width:1.0;" x1="414" x2="565" y1="216.625" y2="216.625"/><text fill="#000000" font-family="sans-serif" font-size="13" lengthAdjust="spacing" textLength="133" x="421" y="211.7686">Create Purchase Order</text><path d="M544,231.625 L734,231.625 L734,239.9766 L724,249.9766 L544,249.9766 L544,231.625 " fill="#EEEEEE" style="stroke:#000000;stroke-width:1.5;"/><rect fill="none" height="79.0547" style="stroke:#000000;stroke-width:1.5;" width="319.5" x="544" y="231.625"/><text fill="#000000" font-family="sans-serif" font-size="13" font-weight="bold" lengthAdjust="spacing" textLength="145" x="559" y="246.1201">Create Purchase Order</text><polygon fill="#181818" points="710,268.3281,720,272.3281,710,276.3281,714,272.3281" style="stroke:#181818;stroke-width:1.0;"/><line style="stroke:#181818;stroke-width:1.0;" x1="571" x2="716" y1="272.3281" y2="272.3281"/><text fill="#000000" font-family="sans-serif" font-size="13" lengthAdjust="spacing" textLength="127" x="578" y="267.4717">Insert Purchase Order</text><polygon fill="#181818" points="797.5,298.6797,807.5,302.6797,797.5,306.6797,801.5,302.6797" style="stroke:#181818;stroke-width:1.0;"/><line style="stroke:#181818;stroke-width:1.0;" x1="571" x2="803.5" y1="302.6797" y2="302.6797"/><text fill="#000000" font-family="sans-serif" font-size="13" lengthAdjust="spacing" textLength="210" x="578" y="297.8232">Send Purchase Order Created Event</text><!--SRC=[tPLDRuCm38Rl-HKMEvVJJZjCOen9FLIRn67d55mQ2HAM6Dh- -vbFZOrMExHC6X8ISHo_ZnrRaA8S8OBG50NQ1E4jbxGpje0LX1ObiSMQj4g83K_LIUaC0ft2XfttKgVADPOBMq5PVWbLDLiEuTMcQDaUuqU5ccNPnMYIIhCvnnfp8KffIIMgb9h0Yuw4LilS0-aWl5zhNhxavk37PaS7QJ4-ESB2-ODZjvu6kGJP1ew6CWnLy3lmlWH-5u3FJux_O9XtOn4XjkOuSiHeQvMW1tVlUqKeW9y9Rr2gwsFrglvOR-UpJYkUIfBRvdgyv_vh4Vb1h6NWVgWOO8FEoOpz5o4OrGHoR_0T2I5-tsImUhnvvy33_0o9p9ggFBDtSwXh9pxVct-V-nck1T8VPeDhiDOEBVtJFCS9v4JZPWY__IewjHIY6ZKrKzg-uXC0]--></g></svg>