<?xml version="1.0" encoding="us-ascii" standalone="no"?><svg xmlns="http://www.w3.org/2000/svg" xmlns:xlink="http://www.w3.org/1999/xlink" contentStyleType="text/css" height="414px" preserveAspectRatio="none" style="width:1110px;height:414px;background:#FFFFFF;" version="1.1" viewBox="0 0 1110 414" width="1110px" zoomAndPan="magnify"><defs/><g><text fill="#000000" font-family="sans-serif" font-size="14" font-weight="bold" lengthAdjust="spacing" textLength="1082" x="10" y="29.5332">E Commerce Platform - Create Product - Buying And Merchandising - Buying And Merchandising App - Create Purchase Order - Sequence - Container level</text><rect fill="#FFFFFF" height="356.6797" style="stroke:#181818;stroke-width:0.5;" width="301.5" x="553" y="44.6094"/><text fill="#000000" font-family="sans-serif" font-size="13" font-weight="bold" lengthAdjust="spacing" textLength="96" x="655.75" y="58.1045">Buying Service</text><rect fill="none" height="141.7578" style="stroke:#000000;stroke-width:1.5;" width="569" x="301.5" y="175.9219"/><rect fill="none" height="79.0547" style="stroke:#000000;stroke-width:1.5;" width="313.5" x="547" y="231.625"/><line style="stroke:#181818;stroke-width:0.5;stroke-dasharray:5.0,5.0;" x1="259.5" x2="259.5" y1="128.5703" y2="334.6797"/><line style="stroke:#181818;stroke-width:0.5;stroke-dasharray:5.0,5.0;" x1="416.5" x2="416.5" y1="128.5703" y2="334.6797"/><line style="stroke:#181818;stroke-width:0.5;stroke-dasharray:5.0,5.0;" x1="574" x2="574" y1="128.5703" y2="334.6797"/><line style="stroke:#181818;stroke-width:0.5;stroke-dasharray:5.0,5.0;" x1="724.5" x2="724.5" y1="128.5703" y2="334.6797"/><line style="stroke:#181818;stroke-width:0.5;stroke-dasharray:5.0,5.0;" x1="809.5" x2="809.5" y1="128.5703" y2="334.6797"/><rect fill="#E2E2F0" height="31.6094" rx="2.5" ry="2.5" style="stroke:#181818;stroke-width:0.5;" width="65" x="227.5" y="95.9609"/><text fill="#000000" font-family="sans-serif" font-size="14" lengthAdjust="spacing" textLength="51" x="234.5" y="117.4941">External</text><rect fill="#E2E2F0" height="31.6094" rx="2.5" ry="2.5" style="stroke:#181818;stroke-width:0.5;" width="65" x="227.5" y="333.6797"/><text fill="#000000" font-family="sans-serif" font-size="14" lengthAdjust="spacing" textLength="51" x="234.5" y="355.2129">External</text><rect fill="#E2E2F0" height="31.6094" rx="2.5" ry="2.5" style="stroke:#181818;stroke-width:0.5;" width="211" x="311.5" y="95.9609"/><text fill="#000000" font-family="sans-serif" font-size="14" lengthAdjust="spacing" textLength="197" x="318.5" y="117.4941">Buying And Merchandising App</text><rect fill="#E2E2F0" height="31.6094" rx="2.5" ry="2.5" style="stroke:#181818;stroke-width:0.5;" width="211" x="311.5" y="333.6797"/><text fill="#000000" font-family="sans-serif" font-size="14" lengthAdjust="spacing" textLength="197" x="318.5" y="355.2129">Buying And Merchandising App</text><rect fill="#E2E2F0" height="31.6094" rx="2.5" ry="2.5" style="stroke:#181818;stroke-width:0.5;" width="34" x="557" y="95.9609"/><text fill="#000000" font-family="sans-serif" font-size="14" lengthAdjust="spacing" textLength="20" x="564" y="117.4941">Api</text><rect fill="#E2E2F0" height="31.6094" rx="2.5" ry="2.5" style="stroke:#181818;stroke-width:0.5;" width="34" x="557" y="333.6797"/><text fill="#000000" font-family="sans-serif" font-size="14" lengthAdjust="spacing" textLength="20" x="564" y="355.2129">Api</text><text fill="#000000" font-family="sans-serif" font-size="14" lengthAdjust="spacing" textLength="61" x="691.5" y="125.4941">Database</text><path d="M707,74.9609 C707,64.9609 725,64.9609 725,64.9609 C725,64.9609 743,64.9609 743,74.9609 L743,100.9609 C743,110.9609 725,110.9609 725,110.9609 C725,110.9609 707,110.9609 707,100.9609 L707,74.9609 " fill="#E2E2F0" style="stroke:#181818;stroke-width:1.5;"/><path d="M707,74.9609 C707,84.9609 725,84.9609 725,84.9609 C725,84.9609 743,84.9609 743,74.9609 " fill="none" style="stroke:#181818;stroke-width:1.5;"/><text fill="#000000" font-family="sans-serif" font-size="14" lengthAdjust="spacing" textLength="61" x="691.5" y="348.2129">Database</text><path d="M707,361.2891 C707,351.2891 725,351.2891 725,351.2891 C725,351.2891 743,351.2891 743,361.2891 L743,387.2891 C743,397.2891 725,397.2891 725,397.2891 C725,397.2891 707,397.2891 707,387.2891 L707,361.2891 " fill="#E2E2F0" style="stroke:#181818;stroke-width:1.5;"/><path d="M707,361.2891 C707,371.2891 725,371.2891 725,371.2891 C725,371.2891 743,371.2891 743,361.2891 " fill="none" style="stroke:#181818;stroke-width:1.5;"/><rect fill="#E2E2F0" height="31.6094" rx="2.5" ry="2.5" style="stroke:#181818;stroke-width:0.5;" width="82" x="768.5" y="95.9609"/><text fill="#000000" font-family="sans-serif" font-size="14" lengthAdjust="spacing" textLength="68" x="775.5" y="117.4941">Messaging</text><rect fill="#E2E2F0" height="31.6094" rx="2.5" ry="2.5" style="stroke:#181818;stroke-width:0.5;" width="82" x="768.5" y="333.6797"/><text fill="#000000" font-family="sans-serif" font-size="14" lengthAdjust="spacing" textLength="68" x="775.5" y="355.2129">Messaging</text><polygon fill="#181818" points="405,156.9219,415,160.9219,405,164.9219,409,160.9219" style="stroke:#181818;stroke-width:1.0;"/><line style="stroke:#181818;stroke-width:1.0;" x1="260" x2="411" y1="160.9219" y2="160.9219"/><text fill="#000000" font-family="sans-serif" font-size="13" lengthAdjust="spacing" textLength="133" x="267" y="156.0654">Create Purchase Order</text><path d="M301.5,175.9219 L491.5,175.9219 L491.5,184.2734 L481.5,194.2734 L301.5,194.2734 L301.5,175.9219 " fill="#EEEEEE" style="stroke:#000000;stroke-width:1.5;"/><rect fill="none" height="141.7578" style="stroke:#000000;stroke-width:1.5;" width="569" x="301.5" y="175.9219"/><text fill="#000000" font-family="sans-serif" font-size="13" font-weight="bold" lengthAdjust="spacing" textLength="145" x="316.5" y="190.417">Create Purchase Order</text><polygon fill="#181818" points="562,212.625,572,216.625,562,220.625,566,216.625" style="stroke:#181818;stroke-width:1.0;"/><line style="stroke:#181818;stroke-width:1.0;" x1="417" x2="568" y1="216.625" y2="216.625"/><text fill="#000000" font-family="sans-serif" font-size="13" lengthAdjust="spacing" textLength="133" x="424" y="211.7686">Create Purchase Order</text><path d="M547,231.625 L737,231.625 L737,239.9766 L727,249.9766 L547,249.9766 L547,231.625 " fill="#EEEEEE" style="stroke:#000000;stroke-width:1.5;"/><rect fill="none" height="79.0547" style="stroke:#000000;stroke-width:1.5;" width="313.5" x="547" y="231.625"/><text fill="#000000" font-family="sans-serif" font-size="13" font-weight="bold" lengthAdjust="spacing" textLength="145" x="562" y="246.1201">Create Purchase Order</text><polygon fill="#181818" points="713,268.3281,723,272.3281,713,276.3281,717,272.3281" style="stroke:#181818;stroke-width:1.0;"/><line style="stroke:#181818;stroke-width:1.0;" x1="574" x2="719" y1="272.3281" y2="272.3281"/><text fill="#000000" font-family="sans-serif" font-size="13" lengthAdjust="spacing" textLength="127" x="581" y="267.4717">Insert Purchase Order</text><polygon fill="#181818" points="797.5,298.6797,807.5,302.6797,797.5,306.6797,801.5,302.6797" style="stroke:#181818;stroke-width:1.0;"/><line style="stroke:#181818;stroke-width:1.0;" x1="574" x2="803.5" y1="302.6797" y2="302.6797"/><text fill="#000000" font-family="sans-serif" font-size="13" lengthAdjust="spacing" textLength="210" x="581" y="297.8232">Send Purchase Order Created Event</text><!--SRC=[tLLBQuD04BxlhnZiEPvwwg5WhOKSGWiUUjxen2pehjqTJVBlEpwfZGazv04L17TUtpVVpY0foX4Y24rHe4qGFd996sCBM41eKH9Rh4chXDZmKXsKpY3GAQmuU2jrgbnZEUCAol97gQfnEOHtcw9bUunV5Mg6vH2ZIIhDvXnhp8KefIMLg59g0Y_Q4rejSm-aW_1ngVdubfkT7viDxQJ5-E082-SFWTrvMkGSoRPmDCWmgE1tn7i9_Au0vq_IZpZCXp6846kp7td4Q6kLe0SFdrj5A82V2T-WL9UdrQFwezxEPvmMF9KarytrUA_zrqtW1x1Z0LRedCmuwoOyHZI1F25yKqA8luyQB9wlFZ_mDBz98hEcAa_uhaxgqetFJ-ZzUp_1wmRj3nl26YorGql_jCzn0xdHk5d2Np-C3Ys5g4PDpPQsh_W6]--></g></svg>