<?xml version="1.0" encoding="us-ascii" standalone="no"?><svg xmlns="http://www.w3.org/2000/svg" xmlns:xlink="http://www.w3.org/1999/xlink" contentStyleType="text/css" height="940px" preserveAspectRatio="none" style="width:718px;height:940px;background:#FFFFFF;" version="1.1" viewBox="0 0 718 940" width="718px" zoomAndPan="magnify"><defs/><g><text fill="#000000" font-family="sans-serif" font-size="14" font-weight="bold" lengthAdjust="spacing" textLength="690" x="10" y="29.5332">Dot Net E Shop - Basket Api - Grpc - Basket Service - Update Basket - Sequence - Component level</text><rect fill="#FFFFFF" height="889.9531" style="stroke:#181818;stroke-width:0.5;" width="116" x="104" y="44.6094"/><text fill="#000000" font-family="sans-serif" font-size="13" font-weight="bold" lengthAdjust="spacing" textLength="30" x="147" y="58.1045">Grpc</text><rect fill="#FFFFFF" height="889.9531" style="stroke:#181818;stroke-width:0.5;" width="363" x="297.5" y="44.6094"/><text fill="#000000" font-family="sans-serif" font-size="13" font-weight="bold" lengthAdjust="spacing" textLength="29" x="464.5" y="58.1045">Data</text><rect fill="none" height="737.0313" style="stroke:#000000;stroke-width:1.5;" width="598.5" x="88" y="144.9219"/><rect fill="none" height="61.7031" style="stroke:#000000;stroke-width:1.5;" width="246" x="98" y="170.2734"/><rect fill="none" height="61.7031" style="stroke:#000000;stroke-width:1.5;" width="207" x="98" y="289.3281"/><rect fill="none" height="284.8125" style="stroke:#000000;stroke-width:1.5;" width="395" x="281.5" y="395.3828"/><rect fill="none" height="135.4063" style="stroke:#000000;stroke-width:1.5;" width="375" x="291.5" y="537.7891"/><rect fill="none" height="61.7031" style="stroke:#000000;stroke-width:1.5;" width="254" x="98" y="694.1953"/><rect fill="none" height="61.7031" style="stroke:#000000;stroke-width:1.5;" width="272" x="98" y="813.25"/><line style="stroke:#181818;stroke-width:0.5;stroke-dasharray:5.0,5.0;" x1="51.5" x2="51.5" y1="97.5703" y2="898.9531"/><line style="stroke:#181818;stroke-width:0.5;stroke-dasharray:5.0,5.0;" x1="162" x2="162" y1="97.5703" y2="898.9531"/><line style="stroke:#181818;stroke-width:0.5;stroke-dasharray:5.0,5.0;" x1="385.5" x2="385.5" y1="97.5703" y2="898.9531"/><line style="stroke:#181818;stroke-width:0.5;stroke-dasharray:5.0,5.0;" x1="598.5" x2="598.5" y1="97.5703" y2="898.9531"/><rect fill="#E2E2F0" height="31.6094" rx="2.5" ry="2.5" style="stroke:#181818;stroke-width:0.5;" width="65" x="19.5" y="64.9609"/><text fill="#000000" font-family="sans-serif" font-size="14" lengthAdjust="spacing" textLength="51" x="26.5" y="86.4941">External</text><rect fill="#E2E2F0" height="31.6094" rx="2.5" ry="2.5" style="stroke:#181818;stroke-width:0.5;" width="65" x="19.5" y="897.9531"/><text fill="#000000" font-family="sans-serif" font-size="14" lengthAdjust="spacing" textLength="51" x="26.5" y="919.4863">External</text><rect fill="#E2E2F0" height="31.6094" rx="2.5" ry="2.5" style="stroke:#181818;stroke-width:0.5;" width="108" x="108" y="64.9609"/><text fill="#000000" font-family="sans-serif" font-size="14" lengthAdjust="spacing" textLength="94" x="115" y="86.4941">Basket Service</text><rect fill="#E2E2F0" height="31.6094" rx="2.5" ry="2.5" style="stroke:#181818;stroke-width:0.5;" width="108" x="108" y="897.9531"/><text fill="#000000" font-family="sans-serif" font-size="14" lengthAdjust="spacing" textLength="94" x="115" y="919.4863">Basket Service</text><rect fill="#E2E2F0" height="31.6094" rx="2.5" ry="2.5" style="stroke:#181818;stroke-width:0.5;" width="169" x="301.5" y="64.9609"/><text fill="#000000" font-family="sans-serif" font-size="14" lengthAdjust="spacing" textLength="155" x="308.5" y="86.4941">Redis Basket Repository</text><rect fill="#E2E2F0" height="31.6094" rx="2.5" ry="2.5" style="stroke:#181818;stroke-width:0.5;" width="169" x="301.5" y="897.9531"/><text fill="#000000" font-family="sans-serif" font-size="14" lengthAdjust="spacing" textLength="155" x="308.5" y="919.4863">Redis Basket Repository</text><rect fill="#E2E2F0" height="31.6094" rx="2.5" ry="2.5" style="stroke:#181818;stroke-width:0.5;" width="115" x="541.5" y="64.9609"/><text fill="#000000" font-family="sans-serif" font-size="14" lengthAdjust="spacing" textLength="101" x="548.5" y="86.4941">Redis Database</text><rect fill="#E2E2F0" height="31.6094" rx="2.5" ry="2.5" style="stroke:#181818;stroke-width:0.5;" width="115" x="541.5" y="897.9531"/><text fill="#000000" font-family="sans-serif" font-size="14" lengthAdjust="spacing" textLength="101" x="548.5" y="919.4863">Redis Database</text><polygon fill="#181818" points="150,125.9219,160,129.9219,150,133.9219,154,129.9219" style="stroke:#181818;stroke-width:1.0;"/><line style="stroke:#181818;stroke-width:1.0;" x1="52" x2="156" y1="129.9219" y2="129.9219"/><text fill="#000000" font-family="sans-serif" font-size="13" lengthAdjust="spacing" textLength="86" x="59" y="125.0654">Update Basket</text><path d="M88,144.9219 L224,144.9219 L224,153.2734 L214,163.2734 L88,163.2734 L88,144.9219 " fill="#EEEEEE" style="stroke:#000000;stroke-width:1.5;"/><rect fill="none" height="737.0313" style="stroke:#000000;stroke-width:1.5;" width="598.5" x="88" y="144.9219"/><text fill="#000000" font-family="sans-serif" font-size="13" font-weight="bold" lengthAdjust="spacing" textLength="91" x="103" y="159.417">Update Basket</text><path d="M98,170.2734 L159,170.2734 L159,178.625 L149,188.625 L98,188.625 L98,170.2734 " fill="#EEEEEE" style="stroke:#000000;stroke-width:1.5;"/><rect fill="none" height="61.7031" style="stroke:#000000;stroke-width:1.5;" width="246" x="98" y="170.2734"/><text fill="#000000" font-family="sans-serif" font-size="13" font-weight="bold" lengthAdjust="spacing" textLength="16" x="113" y="184.7686">alt</text><text fill="#000000" font-family="sans-serif" font-size="11" font-weight="bold" lengthAdjust="spacing" textLength="165" x="174" y="183.6924">[string.IsNullOrEmpty(userId)]</text><line style="stroke:#181818;stroke-width:1.0;" x1="162" x2="204" y1="210.9766" y2="210.9766"/><line style="stroke:#181818;stroke-width:1.0;" x1="204" x2="204" y1="210.9766" y2="223.9766"/><line style="stroke:#181818;stroke-width:1.0;" x1="163" x2="204" y1="223.9766" y2="223.9766"/><polygon fill="#181818" points="173,219.9766,163,223.9766,173,227.9766,169,223.9766" style="stroke:#181818;stroke-width:1.0;"/><text fill="#000000" font-family="sans-serif" font-size="13" lengthAdjust="spacing" textLength="142" x="169" y="206.1201">Throw Not Authenticated</text><line style="stroke:#181818;stroke-width:1.0;" x1="162" x2="204" y1="261.3281" y2="261.3281"/><line style="stroke:#181818;stroke-width:1.0;" x1="204" x2="204" y1="261.3281" y2="274.3281"/><line style="stroke:#181818;stroke-width:1.0;" x1="163" x2="204" y1="274.3281" y2="274.3281"/><polygon fill="#181818" points="173,270.3281,163,274.3281,173,278.3281,169,274.3281" style="stroke:#181818;stroke-width:1.0;"/><text fill="#000000" font-family="sans-serif" font-size="13" lengthAdjust="spacing" textLength="148" x="169" y="256.4717">Map To Customer Basket</text><path d="M98,289.3281 L300,289.3281 L300,297.6797 L290,307.6797 L98,307.6797 L98,289.3281 " fill="#EEEEEE" style="stroke:#000000;stroke-width:1.5;"/><rect fill="none" height="61.7031" style="stroke:#000000;stroke-width:1.5;" width="207" x="98" y="289.3281"/><text fill="#000000" font-family="sans-serif" font-size="13" font-weight="bold" lengthAdjust="spacing" textLength="157" x="113" y="303.8232">Map To Customer Basket</text><line style="stroke:#181818;stroke-width:1.0;" x1="162" x2="204" y1="330.0313" y2="330.0313"/><line style="stroke:#181818;stroke-width:1.0;" x1="204" x2="204" y1="330.0313" y2="343.0313"/><line style="stroke:#181818;stroke-width:1.0;" x1="163" x2="204" y1="343.0313" y2="343.0313"/><polygon fill="#181818" points="173,339.0313,163,343.0313,173,347.0313,169,343.0313" style="stroke:#181818;stroke-width:1.0;"/><text fill="#000000" font-family="sans-serif" font-size="13" lengthAdjust="spacing" textLength="103" x="169" y="325.1748">Return (response)</text><polygon fill="#181818" points="374,376.3828,384,380.3828,374,384.3828,378,380.3828" style="stroke:#181818;stroke-width:1.0;"/><line style="stroke:#181818;stroke-width:1.0;" x1="162" x2="380" y1="380.3828" y2="380.3828"/><text fill="#000000" font-family="sans-serif" font-size="13" lengthAdjust="spacing" textLength="127" x="169" y="375.5264">Update Basket Async</text><path d="M281.5,395.3828 L458.5,395.3828 L458.5,403.7344 L448.5,413.7344 L281.5,413.7344 L281.5,395.3828 " fill="#EEEEEE" style="stroke:#000000;stroke-width:1.5;"/><rect fill="none" height="284.8125" style="stroke:#000000;stroke-width:1.5;" width="395" x="281.5" y="395.3828"/><text fill="#000000" font-family="sans-serif" font-size="13" font-weight="bold" lengthAdjust="spacing" textLength="132" x="296.5" y="409.8779">Update Basket Async</text><line style="stroke:#181818;stroke-width:1.0;" x1="386" x2="428" y1="436.0859" y2="436.0859"/><line style="stroke:#181818;stroke-width:1.0;" x1="428" x2="428" y1="436.0859" y2="449.0859"/><line style="stroke:#181818;stroke-width:1.0;" x1="387" x2="428" y1="449.0859" y2="449.0859"/><polygon fill="#181818" points="397,445.0859,387,449.0859,397,453.0859,393,449.0859" style="stroke:#181818;stroke-width:1.0;"/><text fill="#000000" font-family="sans-serif" font-size="13" lengthAdjust="spacing" textLength="93" x="393" y="431.2295">Get Basket Key</text><polygon fill="#181818" points="587,475.4375,597,479.4375,587,483.4375,591,479.4375" style="stroke:#181818;stroke-width:1.0;"/><line style="stroke:#181818;stroke-width:1.0;" x1="386" x2="593" y1="479.4375" y2="479.4375"/><text fill="#000000" font-family="sans-serif" font-size="13" lengthAdjust="spacing" textLength="99" x="393" y="474.5811">String Set Async</text><line style="stroke:#181818;stroke-width:1.0;" x1="386" x2="428" y1="509.7891" y2="509.7891"/><line style="stroke:#181818;stroke-width:1.0;" x1="428" x2="428" y1="509.7891" y2="522.7891"/><line style="stroke:#181818;stroke-width:1.0;" x1="387" x2="428" y1="522.7891" y2="522.7891"/><polygon fill="#181818" points="397,518.7891,387,522.7891,397,526.7891,393,522.7891" style="stroke:#181818;stroke-width:1.0;"/><text fill="#000000" font-family="sans-serif" font-size="13" lengthAdjust="spacing" textLength="107" x="393" y="504.9326">Get Basket Async</text><path d="M291.5,537.7891 L445.5,537.7891 L445.5,546.1406 L435.5,556.1406 L291.5,556.1406 L291.5,537.7891 " fill="#EEEEEE" style="stroke:#000000;stroke-width:1.5;"/><rect fill="none" height="135.4063" style="stroke:#000000;stroke-width:1.5;" width="375" x="291.5" y="537.7891"/><text fill="#000000" font-family="sans-serif" font-size="13" font-weight="bold" lengthAdjust="spacing" textLength="109" x="306.5" y="552.2842">Get Basket Async</text><line style="stroke:#181818;stroke-width:1.0;" x1="386" x2="428" y1="578.4922" y2="578.4922"/><line style="stroke:#181818;stroke-width:1.0;" x1="428" x2="428" y1="578.4922" y2="591.4922"/><line style="stroke:#181818;stroke-width:1.0;" x1="387" x2="428" y1="591.4922" y2="591.4922"/><polygon fill="#181818" points="397,587.4922,387,591.4922,397,595.4922,393,591.4922" style="stroke:#181818;stroke-width:1.0;"/><text fill="#000000" font-family="sans-serif" font-size="13" lengthAdjust="spacing" textLength="93" x="393" y="573.6357">Get Basket Key</text><polygon fill="#181818" points="587,617.8438,597,621.8438,587,625.8438,591,621.8438" style="stroke:#181818;stroke-width:1.0;"/><line style="stroke:#181818;stroke-width:1.0;" x1="386" x2="593" y1="621.8438" y2="621.8438"/><text fill="#000000" font-family="sans-serif" font-size="13" lengthAdjust="spacing" textLength="139" x="393" y="616.9873">String Get Lease Async</text><line style="stroke:#181818;stroke-width:1.0;" x1="386" x2="428" y1="652.1953" y2="652.1953"/><line style="stroke:#181818;stroke-width:1.0;" x1="428" x2="428" y1="652.1953" y2="665.1953"/><line style="stroke:#181818;stroke-width:1.0;" x1="387" x2="428" y1="665.1953" y2="665.1953"/><polygon fill="#181818" points="397,661.1953,387,665.1953,397,669.1953,393,665.1953" style="stroke:#181818;stroke-width:1.0;"/><text fill="#000000" font-family="sans-serif" font-size="13" lengthAdjust="spacing" textLength="199" x="393" y="647.3389">Return (JsonSerializer.Deserialize)</text><path d="M98,694.1953 L159,694.1953 L159,702.5469 L149,712.5469 L98,712.5469 L98,694.1953 " fill="#EEEEEE" style="stroke:#000000;stroke-width:1.5;"/><rect fill="none" height="61.7031" style="stroke:#000000;stroke-width:1.5;" width="254" x="98" y="694.1953"/><text fill="#000000" font-family="sans-serif" font-size="13" font-weight="bold" lengthAdjust="spacing" textLength="16" x="113" y="708.6904">alt</text><text fill="#000000" font-family="sans-serif" font-size="11" font-weight="bold" lengthAdjust="spacing" textLength="98" x="174" y="707.6143">[response is null]</text><line style="stroke:#181818;stroke-width:1.0;" x1="162" x2="204" y1="734.8984" y2="734.8984"/><line style="stroke:#181818;stroke-width:1.0;" x1="204" x2="204" y1="734.8984" y2="747.8984"/><line style="stroke:#181818;stroke-width:1.0;" x1="163" x2="204" y1="747.8984" y2="747.8984"/><polygon fill="#181818" points="173,743.8984,163,747.8984,173,751.8984,169,747.8984" style="stroke:#181818;stroke-width:1.0;"/><text fill="#000000" font-family="sans-serif" font-size="13" lengthAdjust="spacing" textLength="171" x="169" y="730.042">Throw Basket Does Not Exist</text><line style="stroke:#181818;stroke-width:1.0;" x1="162" x2="204" y1="785.25" y2="785.25"/><line style="stroke:#181818;stroke-width:1.0;" x1="204" x2="204" y1="785.25" y2="798.25"/><line style="stroke:#181818;stroke-width:1.0;" x1="163" x2="204" y1="798.25" y2="798.25"/><polygon fill="#181818" points="173,794.25,163,798.25,173,802.25,169,798.25" style="stroke:#181818;stroke-width:1.0;"/><text fill="#000000" font-family="sans-serif" font-size="13" lengthAdjust="spacing" textLength="210" x="169" y="780.3936">Map To Customer Basket Response</text><path d="M98,813.25 L365,813.25 L365,821.6016 L355,831.6016 L98,831.6016 L98,813.25 " fill="#EEEEEE" style="stroke:#000000;stroke-width:1.5;"/><rect fill="none" height="61.7031" style="stroke:#000000;stroke-width:1.5;" width="272" x="98" y="813.25"/><text fill="#000000" font-family="sans-serif" font-size="13" font-weight="bold" lengthAdjust="spacing" textLength="222" x="113" y="827.7451">Map To Customer Basket Response</text><line style="stroke:#181818;stroke-width:1.0;" x1="162" x2="204" y1="853.9531" y2="853.9531"/><line style="stroke:#181818;stroke-width:1.0;" x1="204" x2="204" y1="853.9531" y2="866.9531"/><line style="stroke:#181818;stroke-width:1.0;" x1="163" x2="204" y1="866.9531" y2="866.9531"/><polygon fill="#181818" points="173,862.9531,163,866.9531,173,870.9531,169,866.9531" style="stroke:#181818;stroke-width:1.0;"/><text fill="#000000" font-family="sans-serif" font-size="13" lengthAdjust="spacing" textLength="103" x="169" y="849.0967">Return (response)</text><!--SRC=[xLPBRzim3BxhLn3PfJt4fvrs690bNf4zCY3kiBDgSuqmHz94kadswqVPSHstor0CoL0FCs30V5ZyFf6Yo8PBX9bZM2132jdAUHZ36qtVH9vu8y9Ly7cdop3ScHn5yTaNch7LZyNolK9RcwPkxPr5or3Y7PPAUHtOvCPhKOtIBMEmkXo19fY-d5iHtvPkasJkAszqm6n7Z6jAMiT6Lkh6RM7KOHl1YoyhmwX0diOOiVRKlS1z2dLueIxCqyZxKVZ6NG8bKsTP6uk1aXWXkUVNEksNL6WB423g0D9CipuEQOc5eNOFb-WT6NPXzsVOOgX3RFNYZMUtz34CyUSRJNZ2qEsItRRSVwYdvnt6hq-S9dZLBrvr6rpb7-XqoK0SZBrDvhIeol9JIDUUTnSLOPWNb-h4cCx1ydeLt0OMShmd5Q_4nUJ2i8Xf60ByZzh3jODfHUpM6FhPEc8S0AqbSXKiN0GaSI6yV2xvU5B_U7XuO48xc__g2EqjPu9nJe9N0dxFuJtkdZs3jiyAygpkM7B5_HkxVrXRZzJ_2-ll5rOay06ZQh0vQDllEt9MkgNHfVc18PaXjKBJaECRXu2sJOCCILRcWE5S_FjAcpcaUWX8juPus9U_PA_9nc-dWCvhiED0VDLF]--></g></svg>