<?xml version="1.0" encoding="us-ascii" standalone="no"?><svg xmlns="http://www.w3.org/2000/svg" xmlns:xlink="http://www.w3.org/1999/xlink" contentStyleType="text/css" height="225px" preserveAspectRatio="none" style="width:553px;height:225px;background:#FFFFFF;" version="1.1" viewBox="0 0 553 225" width="553px" zoomAndPan="magnify"><defs/><g><text fill="#000000" font-family="sans-serif" font-size="14" font-weight="bold" lengthAdjust="spacing" textLength="525" x="10" y="29.5332">ECommercePlatform - PIM App - Update Product - Sequence - Context level</text><rect fill="none" height="48.7031" style="stroke:#000000;stroke-width:1.5;" width="224" x="210.25" y="123.5703"/><line style="stroke:#181818;stroke-width:0.5;stroke-dasharray:5.0,5.0;" x1="138.75" x2="138.75" y1="76.2188" y2="189.2734"/><line style="stroke:#181818;stroke-width:0.5;stroke-dasharray:5.0,5.0;" x1="253.25" x2="253.25" y1="76.2188" y2="189.2734"/><line style="stroke:#181818;stroke-width:0.5;stroke-dasharray:5.0,5.0;" x1="367.25" x2="367.25" y1="76.2188" y2="189.2734"/><rect fill="#E2E2F0" height="31.6094" rx="2.5" ry="2.5" style="stroke:#181818;stroke-width:0.5;" width="65" x="106.75" y="43.6094"/><text fill="#000000" font-family="sans-serif" font-size="14" lengthAdjust="spacing" textLength="51" x="113.75" y="65.1426">External</text><rect fill="#E2E2F0" height="31.6094" rx="2.5" ry="2.5" style="stroke:#181818;stroke-width:0.5;" width="65" x="106.75" y="188.2734"/><text fill="#000000" font-family="sans-serif" font-size="14" lengthAdjust="spacing" textLength="51" x="113.75" y="209.8066">External</text><rect fill="#E2E2F0" height="31.6094" rx="2.5" ry="2.5" style="stroke:#181818;stroke-width:0.5;" width="66" x="220.25" y="43.6094"/><text fill="#000000" font-family="sans-serif" font-size="14" lengthAdjust="spacing" textLength="52" x="227.25" y="65.1426">PIM App</text><rect fill="#E2E2F0" height="31.6094" rx="2.5" ry="2.5" style="stroke:#181818;stroke-width:0.5;" width="66" x="220.25" y="188.2734"/><text fill="#000000" font-family="sans-serif" font-size="14" lengthAdjust="spacing" textLength="52" x="227.25" y="209.8066">PIM App</text><rect fill="#E2E2F0" height="31.6094" rx="2.5" ry="2.5" style="stroke:#181818;stroke-width:0.5;" width="114" x="310.25" y="43.6094"/><text fill="#000000" font-family="sans-serif" font-size="14" lengthAdjust="spacing" textLength="100" x="317.25" y="65.1426">Product Service</text><rect fill="#E2E2F0" height="31.6094" rx="2.5" ry="2.5" style="stroke:#181818;stroke-width:0.5;" width="114" x="310.25" y="188.2734"/><text fill="#000000" font-family="sans-serif" font-size="14" lengthAdjust="spacing" textLength="100" x="317.25" y="209.8066">Product Service</text><polygon fill="#181818" points="241.25,104.5703,251.25,108.5703,241.25,112.5703,245.25,108.5703" style="stroke:#181818;stroke-width:1.0;"/><line style="stroke:#181818;stroke-width:1.0;" x1="139.25" x2="247.25" y1="108.5703" y2="108.5703"/><text fill="#000000" font-family="sans-serif" font-size="13" lengthAdjust="spacing" textLength="90" x="146.25" y="103.7139">Update Product</text><path d="M210.25,123.5703 L353.25,123.5703 L353.25,131.9219 L343.25,141.9219 L210.25,141.9219 L210.25,123.5703 " fill="#EEEEEE" style="stroke:#000000;stroke-width:1.5;"/><rect fill="none" height="48.7031" style="stroke:#000000;stroke-width:1.5;" width="224" x="210.25" y="123.5703"/><text fill="#000000" font-family="sans-serif" font-size="13" font-weight="bold" lengthAdjust="spacing" textLength="98" x="225.25" y="138.0654">Update Product</text><polygon fill="#181818" points="355.25,160.2734,365.25,164.2734,355.25,168.2734,359.25,164.2734" style="stroke:#181818;stroke-width:1.0;"/><line style="stroke:#181818;stroke-width:1.0;" x1="253.25" x2="361.25" y1="164.2734" y2="164.2734"/><text fill="#000000" font-family="sans-serif" font-size="13" lengthAdjust="spacing" textLength="90" x="260.25" y="159.417">Update Product</text><!--SRC=[ZP3BQiD034Nt-Wer-sJLLHU5O5B8ec0m_G0nlWc6ULMMy_Zx3ecxYBsPdIIkZixCMrOv1s4lzpGPZm4cKOXiC0y-D2a4g4FhnKv90s-vFNxpFkTI_UHU3DngwYTdPT3XTq9qA6MJek5cx7619ygYDhWXIpJU76u6ZU8tB2CtxyUIr2-VhhikdUmgYku-6iAu-my- -rV8hF5Wh3HNf98kuGLXzkwWby6XblJScfU8wlrv-rbjoX-BtwMpfYalXzMukjClJrih8FP4Vm00]--></g></svg>