<?xml version="1.0" encoding="us-ascii" standalone="no"?><svg xmlns="http://www.w3.org/2000/svg" xmlns:xlink="http://www.w3.org/1999/xlink" contentStyleType="text/css" height="377px" preserveAspectRatio="none" style="width:589px;height:377px;background:#FFFFFF;" version="1.1" viewBox="0 0 589 377" width="589px" zoomAndPan="magnify"><defs/><g><text fill="#000000" font-family="sans-serif" font-size="14" font-weight="bold" lengthAdjust="spacing" textLength="561" x="10" y="29.5332">ECommercePlatform - Storefront App - View Basket - Sequence - Container level</text><rect fill="#FFFFFF" height="327.0313" style="stroke:#181818;stroke-width:0.5;" width="159.5" x="346.5" y="44.6094"/><text fill="#000000" font-family="sans-serif" font-size="13" font-weight="bold" lengthAdjust="spacing" textLength="94" x="379.25" y="58.1045">Basket Service</text><rect fill="none" height="174.1094" style="stroke:#000000;stroke-width:1.5;" width="420.5" x="111.5" y="144.9219"/><rect fill="none" height="111.4063" style="stroke:#000000;stroke-width:1.5;" width="294.5" x="227.5" y="200.625"/><rect fill="none" height="48.7031" style="stroke:#000000;stroke-width:1.5;" width="171.5" x="340.5" y="256.3281"/><line style="stroke:#181818;stroke-width:0.5;stroke-dasharray:5.0,5.0;" x1="77" x2="77" y1="97.5703" y2="336.0313"/><line style="stroke:#181818;stroke-width:0.5;stroke-dasharray:5.0,5.0;" x1="174.5" x2="174.5" y1="97.5703" y2="336.0313"/><line style="stroke:#181818;stroke-width:0.5;stroke-dasharray:5.0,5.0;" x1="286.5" x2="286.5" y1="97.5703" y2="336.0313"/><line style="stroke:#181818;stroke-width:0.5;stroke-dasharray:5.0,5.0;" x1="367.5" x2="367.5" y1="97.5703" y2="336.0313"/><line style="stroke:#181818;stroke-width:0.5;stroke-dasharray:5.0,5.0;" x1="464" x2="464" y1="97.5703" y2="336.0313"/><rect fill="#E2E2F0" height="31.6094" rx="2.5" ry="2.5" style="stroke:#181818;stroke-width:0.5;" width="65" x="45" y="64.9609"/><text fill="#000000" font-family="sans-serif" font-size="14" lengthAdjust="spacing" textLength="51" x="52" y="86.4941">External</text><rect fill="#E2E2F0" height="31.6094" rx="2.5" ry="2.5" style="stroke:#181818;stroke-width:0.5;" width="65" x="45" y="335.0313"/><text fill="#000000" font-family="sans-serif" font-size="14" lengthAdjust="spacing" textLength="51" x="52" y="356.5645">External</text><rect fill="#E2E2F0" height="31.6094" rx="2.5" ry="2.5" style="stroke:#181818;stroke-width:0.5;" width="106" x="121.5" y="64.9609"/><text fill="#000000" font-family="sans-serif" font-size="14" lengthAdjust="spacing" textLength="92" x="128.5" y="86.4941">Storefront App</text><rect fill="#E2E2F0" height="31.6094" rx="2.5" ry="2.5" style="stroke:#181818;stroke-width:0.5;" width="106" x="121.5" y="335.0313"/><text fill="#000000" font-family="sans-serif" font-size="14" lengthAdjust="spacing" textLength="92" x="128.5" y="356.5645">Storefront App</text><rect fill="#E2E2F0" height="31.6094" rx="2.5" ry="2.5" style="stroke:#181818;stroke-width:0.5;" width="98" x="237.5" y="64.9609"/><text fill="#000000" font-family="sans-serif" font-size="14" lengthAdjust="spacing" textLength="84" x="244.5" y="86.4941">Storefront Bff</text><rect fill="#E2E2F0" height="31.6094" rx="2.5" ry="2.5" style="stroke:#181818;stroke-width:0.5;" width="98" x="237.5" y="335.0313"/><text fill="#000000" font-family="sans-serif" font-size="14" lengthAdjust="spacing" textLength="84" x="244.5" y="356.5645">Storefront Bff</text><rect fill="#E2E2F0" height="31.6094" rx="2.5" ry="2.5" style="stroke:#181818;stroke-width:0.5;" width="34" x="350.5" y="64.9609"/><text fill="#000000" font-family="sans-serif" font-size="14" lengthAdjust="spacing" textLength="20" x="357.5" y="86.4941">Api</text><rect fill="#E2E2F0" height="31.6094" rx="2.5" ry="2.5" style="stroke:#181818;stroke-width:0.5;" width="34" x="350.5" y="335.0313"/><text fill="#000000" font-family="sans-serif" font-size="14" lengthAdjust="spacing" textLength="20" x="357.5" y="356.5645">Api</text><rect fill="#E2E2F0" height="31.6094" rx="2.5" ry="2.5" style="stroke:#181818;stroke-width:0.5;" width="75" x="427" y="64.9609"/><text fill="#000000" font-family="sans-serif" font-size="14" lengthAdjust="spacing" textLength="61" x="434" y="86.4941">Database</text><rect fill="#E2E2F0" height="31.6094" rx="2.5" ry="2.5" style="stroke:#181818;stroke-width:0.5;" width="75" x="427" y="335.0313"/><text fill="#000000" font-family="sans-serif" font-size="14" lengthAdjust="spacing" textLength="61" x="434" y="356.5645">Database</text><polygon fill="#181818" points="162.5,125.9219,172.5,129.9219,162.5,133.9219,166.5,129.9219" style="stroke:#181818;stroke-width:1.0;"/><line style="stroke:#181818;stroke-width:1.0;" x1="77.5" x2="168.5" y1="129.9219" y2="129.9219"/><text fill="#000000" font-family="sans-serif" font-size="13" lengthAdjust="spacing" textLength="73" x="84.5" y="125.0654">View Basket</text><path d="M111.5,144.9219 L234.5,144.9219 L234.5,153.2734 L224.5,163.2734 L111.5,163.2734 L111.5,144.9219 " fill="#EEEEEE" style="stroke:#000000;stroke-width:1.5;"/><rect fill="none" height="174.1094" style="stroke:#000000;stroke-width:1.5;" width="420.5" x="111.5" y="144.9219"/><text fill="#000000" font-family="sans-serif" font-size="13" font-weight="bold" lengthAdjust="spacing" textLength="78" x="126.5" y="159.417">View Basket</text><polygon fill="#181818" points="274.5,181.625,284.5,185.625,274.5,189.625,278.5,185.625" style="stroke:#181818;stroke-width:1.0;"/><line style="stroke:#181818;stroke-width:1.0;" x1="174.5" x2="280.5" y1="185.625" y2="185.625"/><text fill="#000000" font-family="sans-serif" font-size="13" lengthAdjust="spacing" textLength="66" x="181.5" y="180.7686">Get Basket</text><path d="M227.5,200.625 L340.5,200.625 L340.5,208.9766 L330.5,218.9766 L227.5,218.9766 L227.5,200.625 " fill="#EEEEEE" style="stroke:#000000;stroke-width:1.5;"/><rect fill="none" height="111.4063" style="stroke:#000000;stroke-width:1.5;" width="294.5" x="227.5" y="200.625"/><text fill="#000000" font-family="sans-serif" font-size="13" font-weight="bold" lengthAdjust="spacing" textLength="68" x="242.5" y="215.1201">Get Basket</text><polygon fill="#181818" points="355.5,237.3281,365.5,241.3281,355.5,245.3281,359.5,241.3281" style="stroke:#181818;stroke-width:1.0;"/><line style="stroke:#181818;stroke-width:1.0;" x1="286.5" x2="361.5" y1="241.3281" y2="241.3281"/><text fill="#000000" font-family="sans-serif" font-size="13" lengthAdjust="spacing" textLength="57" x="293.5" y="236.4717">Get Items</text><path d="M340.5,256.3281 L445.5,256.3281 L445.5,264.6797 L435.5,274.6797 L340.5,274.6797 L340.5,256.3281 " fill="#EEEEEE" style="stroke:#000000;stroke-width:1.5;"/><rect fill="none" height="48.7031" style="stroke:#000000;stroke-width:1.5;" width="171.5" x="340.5" y="256.3281"/><text fill="#000000" font-family="sans-serif" font-size="13" font-weight="bold" lengthAdjust="spacing" textLength="60" x="355.5" y="270.8232">Get Items</text><polygon fill="#181818" points="452.5,293.0313,462.5,297.0313,452.5,301.0313,456.5,297.0313" style="stroke:#181818;stroke-width:1.0;"/><line style="stroke:#181818;stroke-width:1.0;" x1="367.5" x2="458.5" y1="297.0313" y2="297.0313"/><text fill="#000000" font-family="sans-serif" font-size="13" lengthAdjust="spacing" textLength="73" x="374.5" y="292.1748">Select Items</text><!--SRC=[fP9DJyCm343l_XMcdDSJ9mv8snXeDwHASFQAEoBI92JkFluz7ct7gWcqQfKYrMxyyXhx9aHQruIMzhuHJ3KBEG8G8vPnCVTrpR7a5qjI-LZZ10lnaQledU0q14sy6jxYZD8do-4pVpNiIjRNkUuXupYYvGrRW41HJ6a2QMsss0b7HpP3IZY_MpeDdwpVveMlP4kHYtqIhbFURspZ8MGeyuCwSpu3_XPfpP-yMLMDvcaDmChlCElke-2uCILdUFlsOOG1zHaSE0tcmbDQOWVCZtURSaMSSnz9Q4M9huNt763tZlfd071vht3oCBOTU7ywJx2ElWc3p5ZUI0Nje2eyQ-i61YU9iRIB1FvhRkUpF6myqMdZAz7NoVN3eOO5MovxAPsLuu9l]--></g></svg>