<?xml version="1.0" encoding="us-ascii" standalone="no"?><svg xmlns="http://www.w3.org/2000/svg" xmlns:xlink="http://www.w3.org/1999/xlink" contentStyleType="text/css" height="553px" preserveAspectRatio="none" style="width:792px;height:553px;background:#FFFFFF;" version="1.1" viewBox="0 0 792 553" width="792px" zoomAndPan="magnify"><defs/><g><text fill="#000000" font-family="sans-serif" font-size="14" font-weight="bold" lengthAdjust="spacing" textLength="764" x="10" y="29.5332">dotnet - eShop - Architecture - Basket Api - Grpc - Basket Service - Get Basket - Sequence - Component level</text><rect fill="#FFFFFF" height="502.4375" style="stroke:#181818;stroke-width:0.5;" width="116" x="139.25" y="44.6094"/><text fill="#000000" font-family="sans-serif" font-size="13" font-weight="bold" lengthAdjust="spacing" textLength="30" x="182.25" y="58.1045">Grpc</text><rect fill="#FFFFFF" height="502.4375" style="stroke:#181818;stroke-width:0.5;" width="363" x="332.75" y="44.6094"/><text fill="#000000" font-family="sans-serif" font-size="13" font-weight="bold" lengthAdjust="spacing" textLength="29" x="499.75" y="58.1045">Data</text><rect fill="none" height="349.5156" style="stroke:#000000;stroke-width:1.5;" width="598.5" x="113.25" y="144.9219"/><rect fill="none" height="135.4063" style="stroke:#000000;stroke-width:1.5;" width="375" x="326.75" y="200.625"/><rect fill="none" height="137.4063" style="stroke:#000000;stroke-width:1.5;" width="303" x="123.25" y="350.0313"/><rect fill="none" height="61.7031" style="stroke:#000000;stroke-width:1.5;" width="272" x="133.25" y="418.7344"/><line style="stroke:#181818;stroke-width:0.5;stroke-dasharray:5.0,5.0;" x1="100.25" x2="100.25" y1="97.5703" y2="511.4375"/><line style="stroke:#181818;stroke-width:0.5;stroke-dasharray:5.0,5.0;" x1="197.25" x2="197.25" y1="97.5703" y2="511.4375"/><line style="stroke:#181818;stroke-width:0.5;stroke-dasharray:5.0,5.0;" x1="420.75" x2="420.75" y1="97.5703" y2="511.4375"/><line style="stroke:#181818;stroke-width:0.5;stroke-dasharray:5.0,5.0;" x1="633.75" x2="633.75" y1="97.5703" y2="511.4375"/><rect fill="#E2E2F0" height="31.6094" rx="2.5" ry="2.5" style="stroke:#181818;stroke-width:0.5;" width="65" x="68.25" y="64.9609"/><text fill="#000000" font-family="sans-serif" font-size="14" lengthAdjust="spacing" textLength="51" x="75.25" y="86.4941">External</text><rect fill="#E2E2F0" height="31.6094" rx="2.5" ry="2.5" style="stroke:#181818;stroke-width:0.5;" width="65" x="68.25" y="510.4375"/><text fill="#000000" font-family="sans-serif" font-size="14" lengthAdjust="spacing" textLength="51" x="75.25" y="531.9707">External</text><rect fill="#E2E2F0" height="31.6094" rx="2.5" ry="2.5" style="stroke:#181818;stroke-width:0.5;" width="108" x="143.25" y="64.9609"/><text fill="#000000" font-family="sans-serif" font-size="14" lengthAdjust="spacing" textLength="94" x="150.25" y="86.4941">Basket Service</text><rect fill="#E2E2F0" height="31.6094" rx="2.5" ry="2.5" style="stroke:#181818;stroke-width:0.5;" width="108" x="143.25" y="510.4375"/><text fill="#000000" font-family="sans-serif" font-size="14" lengthAdjust="spacing" textLength="94" x="150.25" y="531.9707">Basket Service</text><rect fill="#E2E2F0" height="31.6094" rx="2.5" ry="2.5" style="stroke:#181818;stroke-width:0.5;" width="169" x="336.75" y="64.9609"/><text fill="#000000" font-family="sans-serif" font-size="14" lengthAdjust="spacing" textLength="155" x="343.75" y="86.4941">Redis Basket Repository</text><rect fill="#E2E2F0" height="31.6094" rx="2.5" ry="2.5" style="stroke:#181818;stroke-width:0.5;" width="169" x="336.75" y="510.4375"/><text fill="#000000" font-family="sans-serif" font-size="14" lengthAdjust="spacing" textLength="155" x="343.75" y="531.9707">Redis Basket Repository</text><rect fill="#E2E2F0" height="31.6094" rx="2.5" ry="2.5" style="stroke:#181818;stroke-width:0.5;" width="115" x="576.75" y="64.9609"/><text fill="#000000" font-family="sans-serif" font-size="14" lengthAdjust="spacing" textLength="101" x="583.75" y="86.4941">Redis Database</text><rect fill="#E2E2F0" height="31.6094" rx="2.5" ry="2.5" style="stroke:#181818;stroke-width:0.5;" width="115" x="576.75" y="510.4375"/><text fill="#000000" font-family="sans-serif" font-size="14" lengthAdjust="spacing" textLength="101" x="583.75" y="531.9707">Redis Database</text><polygon fill="#181818" points="185.25,125.9219,195.25,129.9219,185.25,133.9219,189.25,129.9219" style="stroke:#181818;stroke-width:1.0;"/><line style="stroke:#181818;stroke-width:1.0;" x1="100.75" x2="191.25" y1="129.9219" y2="129.9219"/><text fill="#000000" font-family="sans-serif" font-size="13" lengthAdjust="spacing" textLength="66" x="107.75" y="125.0654">Get Basket</text><path d="M113.25,144.9219 L226.25,144.9219 L226.25,153.2734 L216.25,163.2734 L113.25,163.2734 L113.25,144.9219 " fill="#EEEEEE" style="stroke:#000000;stroke-width:1.5;"/><rect fill="none" height="349.5156" style="stroke:#000000;stroke-width:1.5;" width="598.5" x="113.25" y="144.9219"/><text fill="#000000" font-family="sans-serif" font-size="13" font-weight="bold" lengthAdjust="spacing" textLength="68" x="128.25" y="159.417">Get Basket</text><polygon fill="#181818" points="409.25,181.625,419.25,185.625,409.25,189.625,413.25,185.625" style="stroke:#181818;stroke-width:1.0;"/><line style="stroke:#181818;stroke-width:1.0;" x1="197.25" x2="415.25" y1="185.625" y2="185.625"/><text fill="#000000" font-family="sans-serif" font-size="13" lengthAdjust="spacing" textLength="107" x="204.25" y="180.7686">Get Basket Async</text><path d="M326.75,200.625 L480.75,200.625 L480.75,208.9766 L470.75,218.9766 L326.75,218.9766 L326.75,200.625 " fill="#EEEEEE" style="stroke:#000000;stroke-width:1.5;"/><rect fill="none" height="135.4063" style="stroke:#000000;stroke-width:1.5;" width="375" x="326.75" y="200.625"/><text fill="#000000" font-family="sans-serif" font-size="13" font-weight="bold" lengthAdjust="spacing" textLength="109" x="341.75" y="215.1201">Get Basket Async</text><polygon fill="#181818" points="622.25,237.3281,632.25,241.3281,622.25,245.3281,626.25,241.3281" style="stroke:#181818;stroke-width:1.0;"/><line style="stroke:#181818;stroke-width:1.0;" x1="421.25" x2="628.25" y1="241.3281" y2="241.3281"/><text fill="#000000" font-family="sans-serif" font-size="13" lengthAdjust="spacing" textLength="139" x="428.25" y="236.4717">String Get Lease Async</text><line style="stroke:#181818;stroke-width:1.0;" x1="421.25" x2="463.25" y1="271.6797" y2="271.6797"/><line style="stroke:#181818;stroke-width:1.0;" x1="463.25" x2="463.25" y1="271.6797" y2="284.6797"/><line style="stroke:#181818;stroke-width:1.0;" x1="422.25" x2="463.25" y1="284.6797" y2="284.6797"/><polygon fill="#181818" points="432.25,280.6797,422.25,284.6797,432.25,288.6797,428.25,284.6797" style="stroke:#181818;stroke-width:1.0;"/><text fill="#000000" font-family="sans-serif" font-size="13" lengthAdjust="spacing" textLength="93" x="428.25" y="266.8232">Get Basket Key</text><line style="stroke:#181818;stroke-width:1.0;" x1="421.25" x2="463.25" y1="315.0313" y2="315.0313"/><line style="stroke:#181818;stroke-width:1.0;" x1="463.25" x2="463.25" y1="315.0313" y2="328.0313"/><line style="stroke:#181818;stroke-width:1.0;" x1="422.25" x2="463.25" y1="328.0313" y2="328.0313"/><polygon fill="#181818" points="432.25,324.0313,422.25,328.0313,432.25,332.0313,428.25,328.0313" style="stroke:#181818;stroke-width:1.0;"/><text fill="#000000" font-family="sans-serif" font-size="13" lengthAdjust="spacing" textLength="199" x="428.25" y="310.1748">Return (JsonSerializer.Deserialize)</text><path d="M123.25,350.0313 L184.25,350.0313 L184.25,358.3828 L174.25,368.3828 L123.25,368.3828 L123.25,350.0313 " fill="#EEEEEE" style="stroke:#000000;stroke-width:1.5;"/><rect fill="none" height="137.4063" style="stroke:#000000;stroke-width:1.5;" width="303" x="123.25" y="350.0313"/><text fill="#000000" font-family="sans-serif" font-size="13" font-weight="bold" lengthAdjust="spacing" textLength="16" x="138.25" y="364.5264">alt</text><text fill="#000000" font-family="sans-serif" font-size="11" font-weight="bold" lengthAdjust="spacing" textLength="88" x="199.25" y="363.4502">[data is not null]</text><line style="stroke:#181818;stroke-width:1.0;" x1="197.25" x2="239.25" y1="390.7344" y2="390.7344"/><line style="stroke:#181818;stroke-width:1.0;" x1="239.25" x2="239.25" y1="390.7344" y2="403.7344"/><line style="stroke:#181818;stroke-width:1.0;" x1="198.25" x2="239.25" y1="403.7344" y2="403.7344"/><polygon fill="#181818" points="208.25,399.7344,198.25,403.7344,208.25,407.7344,204.25,403.7344" style="stroke:#181818;stroke-width:1.0;"/><text fill="#000000" font-family="sans-serif" font-size="13" lengthAdjust="spacing" textLength="210" x="204.25" y="385.8779">Map To Customer Basket Response</text><path d="M133.25,418.7344 L400.25,418.7344 L400.25,427.0859 L390.25,437.0859 L133.25,437.0859 L133.25,418.7344 " fill="#EEEEEE" style="stroke:#000000;stroke-width:1.5;"/><rect fill="none" height="61.7031" style="stroke:#000000;stroke-width:1.5;" width="272" x="133.25" y="418.7344"/><text fill="#000000" font-family="sans-serif" font-size="13" font-weight="bold" lengthAdjust="spacing" textLength="222" x="148.25" y="433.2295">Map To Customer Basket Response</text><line style="stroke:#181818;stroke-width:1.0;" x1="197.25" x2="239.25" y1="459.4375" y2="459.4375"/><line style="stroke:#181818;stroke-width:1.0;" x1="239.25" x2="239.25" y1="459.4375" y2="472.4375"/><line style="stroke:#181818;stroke-width:1.0;" x1="198.25" x2="239.25" y1="472.4375" y2="472.4375"/><polygon fill="#181818" points="208.25,468.4375,198.25,472.4375,208.25,476.4375,204.25,472.4375" style="stroke:#181818;stroke-width:1.0;"/><text fill="#000000" font-family="sans-serif" font-size="13" lengthAdjust="spacing" textLength="103" x="204.25" y="454.5811">Return (response)</text><!--SRC=[tLLDJyCm3BtdLvXnWSDwuiG1QOmFyNLPaJYRpeo8D0c9EoY_7hTTQQS9c0H3GAMgzQkJzvxZf5i-u2n7C5YwWY7cn6XHATPi2AQEBJ4CWT9xv-Kv2jczPigu22JX8SO7-JxoMeBJuBCEIodCTLObdKgq08S2FnPaQtpiSkyiMGP3Sp9AUGoiC-rHeC7nCrEmQ0Q04SPxPrR24-EUajJTyHC6Iil8bCUaJMnYfMxTCmmwOGFOlgaaAv2h-LW9NOANY9Vrr_HD6PAw24c_12jYci52cuoTPTIMGamglkJDRPkq851afo2oL4_W4JA-Bt12KntRYax8kwZPXV8xb5R4VQKrLPFP4Rsdg1fyYv4s9gGbw4hszgBMxn0O7cnqGM6_r_5g5bpX-y16gRzkRQqEMB88erZQRCNe0luHEHkotVQRs4qvQ3khxLrI1VrzTnylwWML_ytTX6HE2pldqLdPC1gDVg6G755iWztgG55e6AOo9yYPPXs3BOpvxTlsinFf2ZrSEnWNaLrEeVjxH1aX9sgpUp_B-kD5Q1iWBFmqoztUwXK0]--></g></svg>