<?xml version="1.0" encoding="us-ascii" standalone="no"?><svg xmlns="http://www.w3.org/2000/svg" xmlns:xlink="http://www.w3.org/1999/xlink" contentStyleType="text/css" height="383px" preserveAspectRatio="none" style="width:603px;height:383px;background:#FFFFFF;" version="1.1" viewBox="0 0 603 383" width="603px" zoomAndPan="magnify"><defs/><g><text fill="#000000" font-family="sans-serif" font-size="14" font-weight="bold" lengthAdjust="spacing" textLength="575" x="10" y="29.5332">Big Bank Plc - Internet Banking - Mobile App - Sign In - Sequence - Container level</text><rect fill="#FFFFFF" height="326.3281" style="stroke:#181818;stroke-width:0.5;" width="317.5" x="164.25" y="44.6094"/><text fill="#000000" font-family="sans-serif" font-size="13" font-weight="bold" lengthAdjust="spacing" textLength="105" x="270.5" y="58.1045">Internet Banking</text><rect fill="none" height="111.4063" style="stroke:#000000;stroke-width:1.5;" width="339.5" x="158.25" y="175.9219"/><rect fill="none" height="48.7031" style="stroke:#000000;stroke-width:1.5;" width="235.5" x="252.25" y="231.625"/><line style="stroke:#181818;stroke-width:0.5;stroke-dasharray:5.0,5.0;" x1="125.25" x2="125.25" y1="128.5703" y2="304.3281"/><line style="stroke:#181818;stroke-width:0.5;stroke-dasharray:5.0,5.0;" x1="210.25" x2="210.25" y1="128.5703" y2="304.3281"/><line style="stroke:#181818;stroke-width:0.5;stroke-dasharray:5.0,5.0;" x1="316.25" x2="316.25" y1="128.5703" y2="304.3281"/><line style="stroke:#181818;stroke-width:0.5;stroke-dasharray:5.0,5.0;" x1="443.75" x2="443.75" y1="128.5703" y2="304.3281"/><rect fill="#E2E2F0" height="31.6094" rx="2.5" ry="2.5" style="stroke:#181818;stroke-width:0.5;" width="65" x="93.25" y="95.9609"/><text fill="#000000" font-family="sans-serif" font-size="14" lengthAdjust="spacing" textLength="51" x="100.25" y="117.4941">External</text><rect fill="#E2E2F0" height="31.6094" rx="2.5" ry="2.5" style="stroke:#181818;stroke-width:0.5;" width="65" x="93.25" y="303.3281"/><text fill="#000000" font-family="sans-serif" font-size="14" lengthAdjust="spacing" textLength="51" x="100.25" y="324.8613">External</text><rect fill="#E2E2F0" height="31.6094" rx="2.5" ry="2.5" style="stroke:#181818;stroke-width:0.5;" width="84" x="168.25" y="95.9609"/><text fill="#000000" font-family="sans-serif" font-size="14" lengthAdjust="spacing" textLength="70" x="175.25" y="117.4941">Mobile App</text><rect fill="#E2E2F0" height="31.6094" rx="2.5" ry="2.5" style="stroke:#181818;stroke-width:0.5;" width="84" x="168.25" y="303.3281"/><text fill="#000000" font-family="sans-serif" font-size="14" lengthAdjust="spacing" textLength="70" x="175.25" y="324.8613">Mobile App</text><rect fill="#E2E2F0" height="31.6094" rx="2.5" ry="2.5" style="stroke:#181818;stroke-width:0.5;" width="108" x="262.25" y="95.9609"/><text fill="#000000" font-family="sans-serif" font-size="14" lengthAdjust="spacing" textLength="94" x="269.25" y="117.4941">API Application</text><rect fill="#E2E2F0" height="31.6094" rx="2.5" ry="2.5" style="stroke:#181818;stroke-width:0.5;" width="108" x="262.25" y="303.3281"/><text fill="#000000" font-family="sans-serif" font-size="14" lengthAdjust="spacing" textLength="94" x="269.25" y="324.8613">API Application</text><text fill="#000000" font-family="sans-serif" font-size="14" lengthAdjust="spacing" textLength="61" x="410.75" y="125.4941">Database</text><path d="M426.25,74.9609 C426.25,64.9609 444.25,64.9609 444.25,64.9609 C444.25,64.9609 462.25,64.9609 462.25,74.9609 L462.25,100.9609 C462.25,110.9609 444.25,110.9609 444.25,110.9609 C444.25,110.9609 426.25,110.9609 426.25,100.9609 L426.25,74.9609 " fill="#E2E2F0" style="stroke:#181818;stroke-width:1.5;"/><path d="M426.25,74.9609 C426.25,84.9609 444.25,84.9609 444.25,84.9609 C444.25,84.9609 462.25,84.9609 462.25,74.9609 " fill="none" style="stroke:#181818;stroke-width:1.5;"/><text fill="#000000" font-family="sans-serif" font-size="14" lengthAdjust="spacing" textLength="61" x="410.75" y="317.8613">Database</text><path d="M426.25,330.9375 C426.25,320.9375 444.25,320.9375 444.25,320.9375 C444.25,320.9375 462.25,320.9375 462.25,330.9375 L462.25,356.9375 C462.25,366.9375 444.25,366.9375 444.25,366.9375 C444.25,366.9375 426.25,366.9375 426.25,356.9375 L426.25,330.9375 " fill="#E2E2F0" style="stroke:#181818;stroke-width:1.5;"/><path d="M426.25,330.9375 C426.25,340.9375 444.25,340.9375 444.25,340.9375 C444.25,340.9375 462.25,340.9375 462.25,330.9375 " fill="none" style="stroke:#181818;stroke-width:1.5;"/><polygon fill="#181818" points="198.25,156.9219,208.25,160.9219,198.25,164.9219,202.25,160.9219" style="stroke:#181818;stroke-width:1.0;"/><line style="stroke:#181818;stroke-width:1.0;" x1="125.75" x2="204.25" y1="160.9219" y2="160.9219"/><text fill="#000000" font-family="sans-serif" font-size="13" lengthAdjust="spacing" textLength="40" x="132.75" y="156.0654">Sign In</text><path d="M158.25,175.9219 L248.25,175.9219 L248.25,184.2734 L238.25,194.2734 L158.25,194.2734 L158.25,175.9219 " fill="#EEEEEE" style="stroke:#000000;stroke-width:1.5;"/><rect fill="none" height="111.4063" style="stroke:#000000;stroke-width:1.5;" width="339.5" x="158.25" y="175.9219"/><text fill="#000000" font-family="sans-serif" font-size="13" font-weight="bold" lengthAdjust="spacing" textLength="45" x="173.25" y="190.417">Sign In</text><polygon fill="#181818" points="304.25,212.625,314.25,216.625,304.25,220.625,308.25,216.625" style="stroke:#181818;stroke-width:1.0;"/><line style="stroke:#181818;stroke-width:1.0;" x1="210.25" x2="310.25" y1="216.625" y2="216.625"/><text fill="#000000" font-family="sans-serif" font-size="13" lengthAdjust="spacing" textLength="40" x="217.25" y="211.7686">Sign In</text><path d="M252.25,231.625 L342.25,231.625 L342.25,239.9766 L332.25,249.9766 L252.25,249.9766 L252.25,231.625 " fill="#EEEEEE" style="stroke:#000000;stroke-width:1.5;"/><rect fill="none" height="48.7031" style="stroke:#000000;stroke-width:1.5;" width="235.5" x="252.25" y="231.625"/><text fill="#000000" font-family="sans-serif" font-size="13" font-weight="bold" lengthAdjust="spacing" textLength="45" x="267.25" y="246.1201">Sign In</text><polygon fill="#181818" points="432.25,268.3281,442.25,272.3281,432.25,276.3281,436.25,272.3281" style="stroke:#181818;stroke-width:1.0;"/><line style="stroke:#181818;stroke-width:1.0;" x1="316.25" x2="438.25" y1="272.3281" y2="272.3281"/><text fill="#000000" font-family="sans-serif" font-size="13" lengthAdjust="spacing" textLength="104" x="323.25" y="267.4717">Authenticate User</text><!--SRC=[hPB1Ri8m38RlVWghEzFJJZiW5RP972OXLTFEQV5AjE2Kn1tixUSKoWPS9hf8aUp8-VxVJiIA8vpP1cU6Ft3fQfpWWeK2a_HdbXizUl6LrSAYRJKfRSDQb2BQTiGrQJZtBCOo1NJqIGwWDK5iRLl3WjdJFY6Doz14dD_t2i_Ex_BIlylE12g_ej0cvaFX8GUe_1wpIqCPthsjhH2WhZET7v-zaZQMhcXRLq83yuZCJ_vZVe0euvfVB1S9xcnjn7eU8QAaNw1UQMN4L2OIPe_7Q0H_G03n2dMA0F3tkUDaEdPs-33y4sY2xzfJDfPxixNpYV-plmlupIQ7PrDxHIThOab8mjT88Jrbl-4R]--></g></svg>