<?xml version="1.0" encoding="us-ascii" standalone="no"?><svg xmlns="http://www.w3.org/2000/svg" xmlns:xlink="http://www.w3.org/1999/xlink" contentStyleType="text/css" height="363px" preserveAspectRatio="none" style="width:633px;height:363px;background:#FFFFFF;" version="1.1" viewBox="0 0 633 363" width="633px" zoomAndPan="magnify"><defs/><g><text fill="#000000" font-family="sans-serif" font-size="14" font-weight="bold" lengthAdjust="spacing" textLength="605" x="10" y="29.5332">Trader X Example - TraderX - Web Client - Create Account - Sequence - Container level</text><rect fill="#FFFFFF" height="313.3828" style="stroke:#181818;stroke-width:0.5;" width="339" x="183.5" y="44.6094"/><text fill="#000000" font-family="sans-serif" font-size="13" font-weight="bold" lengthAdjust="spacing" textLength="51" x="327.5" y="58.1045">TraderX</text><rect fill="none" height="144.1094" style="stroke:#000000;stroke-width:1.5;" width="361" x="177.5" y="161.2734"/><rect fill="none" height="65.0547" style="stroke:#000000;stroke-width:1.5;" width="230.5" x="298" y="233.3281"/><line style="stroke:#181818;stroke-width:0.5;stroke-dasharray:5.0,5.0;" x1="114.5" x2="114.5" y1="97.5703" y2="322.3828"/><line style="stroke:#181818;stroke-width:0.5;stroke-dasharray:5.0,5.0;" x1="228.5" x2="228.5" y1="97.5703" y2="322.3828"/><line style="stroke:#181818;stroke-width:0.5;stroke-dasharray:5.0,5.0;" x1="343" x2="343" y1="97.5703" y2="322.3828"/><line style="stroke:#181818;stroke-width:0.5;stroke-dasharray:5.0,5.0;" x1="456.5" x2="456.5" y1="97.5703" y2="322.3828"/><rect fill="#E2E2F0" height="31.6094" rx="2.5" ry="2.5" style="stroke:#181818;stroke-width:0.5;" width="65" x="82.5" y="64.9609"/><text fill="#000000" font-family="sans-serif" font-size="14" lengthAdjust="spacing" textLength="51" x="89.5" y="86.4941">External</text><rect fill="#E2E2F0" height="31.6094" rx="2.5" ry="2.5" style="stroke:#181818;stroke-width:0.5;" width="65" x="82.5" y="321.3828"/><text fill="#000000" font-family="sans-serif" font-size="14" lengthAdjust="spacing" textLength="51" x="89.5" y="342.916">External</text><rect fill="#E2E2F0" height="31.6094" rx="2.5" ry="2.5" style="stroke:#181818;stroke-width:0.5;" width="83" x="187.5" y="64.9609"/><text fill="#000000" font-family="sans-serif" font-size="14" lengthAdjust="spacing" textLength="69" x="194.5" y="86.4941">Web Client</text><rect fill="#E2E2F0" height="31.6094" rx="2.5" ry="2.5" style="stroke:#181818;stroke-width:0.5;" width="83" x="187.5" y="321.3828"/><text fill="#000000" font-family="sans-serif" font-size="14" lengthAdjust="spacing" textLength="69" x="194.5" y="342.916">Web Client</text><rect fill="#E2E2F0" height="31.6094" rx="2.5" ry="2.5" style="stroke:#181818;stroke-width:0.5;" width="70" x="308" y="64.9609"/><text fill="#000000" font-family="sans-serif" font-size="14" lengthAdjust="spacing" textLength="56" x="315" y="86.4941">Web GUI</text><rect fill="#E2E2F0" height="31.6094" rx="2.5" ry="2.5" style="stroke:#181818;stroke-width:0.5;" width="70" x="308" y="321.3828"/><text fill="#000000" font-family="sans-serif" font-size="14" lengthAdjust="spacing" textLength="56" x="315" y="342.916">Web GUI</text><rect fill="#E2E2F0" height="31.6094" rx="2.5" ry="2.5" style="stroke:#181818;stroke-width:0.5;" width="123" x="395.5" y="64.9609"/><text fill="#000000" font-family="sans-serif" font-size="14" lengthAdjust="spacing" textLength="109" x="402.5" y="86.4941">Accounts Service</text><rect fill="#E2E2F0" height="31.6094" rx="2.5" ry="2.5" style="stroke:#181818;stroke-width:0.5;" width="123" x="395.5" y="321.3828"/><text fill="#000000" font-family="sans-serif" font-size="14" lengthAdjust="spacing" textLength="109" x="402.5" y="342.916">Accounts Service</text><polygon fill="#181818" points="217,142.2734,227,146.2734,217,150.2734,221,146.2734" style="stroke:#181818;stroke-width:1.0;"/><line style="stroke:#181818;stroke-width:1.0;" x1="115" x2="223" y1="146.2734" y2="146.2734"/><text fill="#000000" font-family="sans-serif" font-size="13" lengthAdjust="spacing" textLength="90" x="122" y="125.0654">Create Account</text><text fill="#000000" font-family="sans-serif" font-size="13" lengthAdjust="spacing" textLength="49" x="122" y="141.417">[HTTPS]</text><path d="M177.5,161.2734 L319.5,161.2734 L319.5,169.625 L309.5,179.625 L177.5,179.625 L177.5,161.2734 " fill="#EEEEEE" style="stroke:#000000;stroke-width:1.5;"/><rect fill="none" height="144.1094" style="stroke:#000000;stroke-width:1.5;" width="361" x="177.5" y="161.2734"/><text fill="#000000" font-family="sans-serif" font-size="13" font-weight="bold" lengthAdjust="spacing" textLength="97" x="192.5" y="175.7686">Create Account</text><polygon fill="#181818" points="331,214.3281,341,218.3281,331,222.3281,335,218.3281" style="stroke:#181818;stroke-width:1.0;"/><line style="stroke:#181818;stroke-width:1.0;" x1="229" x2="337" y1="218.3281" y2="218.3281"/><text fill="#000000" font-family="sans-serif" font-size="13" lengthAdjust="spacing" textLength="90" x="236" y="197.1201">Create Account</text><text fill="#000000" font-family="sans-serif" font-size="13" lengthAdjust="spacing" textLength="49" x="236" y="213.4717">[HTTPS]</text><path d="M298,233.3281 L440,233.3281 L440,241.6797 L430,251.6797 L298,251.6797 L298,233.3281 " fill="#EEEEEE" style="stroke:#000000;stroke-width:1.5;"/><rect fill="none" height="65.0547" style="stroke:#000000;stroke-width:1.5;" width="230.5" x="298" y="233.3281"/><text fill="#000000" font-family="sans-serif" font-size="13" font-weight="bold" lengthAdjust="spacing" textLength="97" x="313" y="247.8232">Create Account</text><polygon fill="#181818" points="445,286.3828,455,290.3828,445,294.3828,449,290.3828" style="stroke:#181818;stroke-width:1.0;"/><line style="stroke:#181818;stroke-width:1.0;" x1="343" x2="451" y1="290.3828" y2="290.3828"/><text fill="#000000" font-family="sans-serif" font-size="13" lengthAdjust="spacing" textLength="90" x="350" y="269.1748">Create Account</text><text fill="#000000" font-family="sans-serif" font-size="13" lengthAdjust="spacing" textLength="49" x="350" y="285.5264">[HTTPS]</text><!--SRC=[lPB1JiCm38RlVWghdDSJ9mv8g1gm6rABDcbmo383aRAa9ExMlJrUbssYGmXr4fKYrOxz-U_lic5BM0Mrf80p7BTgLKjYb58pUPlI0WjhoB44HI35X7TQ-wPBbFJPaDExbi8xLiO9oDAQB42j0XjjQYMLsRXb2axP35N4udhY9BotVfEN_eqtAb2vZKohc1yAzp70mhUO9JaPNaq_31EWFD_m9vNTW5IVlkTiHhhEZv9ZBe1z_y_iX-V9SB0qdrEJXr4i36kZQI3-W4aK8BT4iGm0_cuoZculSGnlUl_5Yvi_LjLJ-GhlmJTrxnOk6JLKgQpWNsJkvWpIsDlZBs9bmzs1Bm00]--></g></svg>