<?xml version="1.0" encoding="us-ascii" standalone="no"?><svg xmlns="http://www.w3.org/2000/svg" xmlns:xlink="http://www.w3.org/1999/xlink" contentStyleType="text/css" height="384px" preserveAspectRatio="none" style="width:513px;height:384px;background:#FFFFFF;" version="1.1" viewBox="0 0 513 384" width="513px" zoomAndPan="magnify"><defs/><g><text fill="#000000" font-family="sans-serif" font-size="14" font-weight="bold" lengthAdjust="spacing" textLength="294" x="102" y="24.5332">Fraud Service - C4 Static - Container level</text><!--cluster ECommercePlatform.SoftwareSystems.FraudService--><g id="cluster_ECommercePlatform.SoftwareSystems.FraudService"><rect fill="none" height="223" rx="2.5" ry="2.5" style="stroke:#444444;stroke-width:1.0;stroke-dasharray:7.0,7.0;" width="232" x="14" y="42.6094"/><text fill="#444444" font-family="sans-serif" font-size="16" font-weight="bold" lengthAdjust="spacing" textLength="106" x="77" y="61.2188">Fraud Service</text><text fill="#444444" font-family="sans-serif" font-size="12" font-weight="bold" lengthAdjust="spacing" textLength="51" x="104.5" y="77.1914">[System]</text></g><!--cluster ECommercePlatform.SoftwareSystems.OrderService--><g id="cluster_ECommercePlatform.SoftwareSystems.OrderService"><rect fill="none" height="94" rx="2.5" ry="2.5" style="stroke:#444444;stroke-width:1.0;stroke-dasharray:7.0,7.0;" width="120" x="387" y="171.6094"/><text fill="#444444" font-family="sans-serif" font-size="16" font-weight="bold" lengthAdjust="spacing" textLength="104" x="395" y="190.2188">Order Service</text><text fill="#444444" font-family="sans-serif" font-size="12" font-weight="bold" lengthAdjust="spacing" textLength="51" x="421.5" y="206.1914">[System]</text></g><!--entity ECommercePlatform.SoftwareSystems.FraudEngine--><g id="elem_ECommercePlatform.SoftwareSystems.FraudEngine"><rect fill="#1168BD" height="40.125" rx="2.5" ry="2.5" style="stroke:#3C7FC0;stroke-width:0.5;" width="123" x="254.5" y="217.6094"/><text fill="#FFFFFF" font-family="sans-serif" font-size="16" font-weight="bold" lengthAdjust="spacing" textLength="45" x="264.5" y="244.2188">Fraud</text><text fill="#FFFFFF" font-family="sans-serif" font-size="16" font-weight="bold" lengthAdjust="spacing" textLength="4" x="309.5" y="244.2188">&#160;</text><text fill="#FFFFFF" font-family="sans-serif" font-size="16" font-weight="bold" lengthAdjust="spacing" textLength="54" x="313.5" y="244.2188">Engine</text></g><!--entity ECommercePlatform.SoftwareSystems.FraudService.Containers.Api--><g id="elem_ECommercePlatform.SoftwareSystems.FraudService.Containers.Api"><rect fill="#438DD5" height="40.125" rx="2.5" ry="2.5" style="stroke:#3C7FC0;stroke-width:0.5;" width="45" x="22.5" y="88.6094"/><text fill="#FFFFFF" font-family="sans-serif" font-size="16" font-weight="bold" lengthAdjust="spacing" textLength="25" x="32.5" y="115.2188">Api</text></g><!--entity ECommercePlatform.SoftwareSystems.FraudService.Containers.Database--><g id="elem_ECommercePlatform.SoftwareSystems.FraudService.Containers.Database"><rect fill="#438DD5" height="40.125" rx="2.5" ry="2.5" style="stroke:#3C7FC0;stroke-width:0.5;" width="92" x="22" y="217.6094"/><text fill="#FFFFFF" font-family="sans-serif" font-size="16" font-weight="bold" lengthAdjust="spacing" textLength="72" x="32" y="244.2188">Database</text></g><!--entity ECommercePlatform.SoftwareSystems.FraudService.Containers.Messaging--><g id="elem_ECommercePlatform.SoftwareSystems.FraudService.Containers.Messaging"><rect fill="#438DD5" height="40.125" rx="2.5" ry="2.5" style="stroke:#3C7FC0;stroke-width:0.5;" width="103" x="132.5" y="217.6094"/><text fill="#FFFFFF" font-family="sans-serif" font-size="16" font-weight="bold" lengthAdjust="spacing" textLength="83" x="142.5" y="244.2188">Messaging</text></g><!--entity ECommercePlatform.SoftwareSystems.FraudService.Containers.MessageHandler--><g id="elem_ECommercePlatform.SoftwareSystems.FraudService.Containers.MessageHandler"><rect fill="#438DD5" height="40.125" rx="2.5" ry="2.5" style="stroke:#3C7FC0;stroke-width:0.5;" width="152" x="86" y="88.6094"/><text fill="#FFFFFF" font-family="sans-serif" font-size="16" font-weight="bold" lengthAdjust="spacing" textLength="68" x="96" y="115.2188">Message</text><text fill="#FFFFFF" font-family="sans-serif" font-size="16" font-weight="bold" lengthAdjust="spacing" textLength="4" x="164" y="115.2188">&#160;</text><text fill="#FFFFFF" font-family="sans-serif" font-size="16" font-weight="bold" lengthAdjust="spacing" textLength="60" x="168" y="115.2188">Handler</text></g><!--entity ECommercePlatform.SoftwareSystems.OrderService.Containers.Messaging--><g id="elem_ECommercePlatform.SoftwareSystems.OrderService.Containers.Messaging"><rect fill="#438DD5" height="40.125" rx="2.5" ry="2.5" style="stroke:#3C7FC0;stroke-width:0.5;" width="103" x="395.5" y="217.6094"/><text fill="#FFFFFF" font-family="sans-serif" font-size="16" font-weight="bold" lengthAdjust="spacing" textLength="83" x="405.5" y="244.2188">Messaging</text></g><polygon fill="none" points="59.8633,217.5069,59.7208,208.9641,54.1387,211.1642,59.8633,217.5069" style="stroke:#666666;stroke-width:1.0;"/><path d="M44.3824,128.8111 C44.2249,134.5367 44.0781,140.8265 44,146.6094 C43.8979,154.1642 42.8051,156.1489 44,163.6094 C47.0171,182.4469 51.2187,195.5746 56.9297,210.0642 " fill="none" style="stroke:#666666;stroke-width:1.0;"/><text fill="#666666" font-family="sans-serif" font-size="12" font-weight="bold" lengthAdjust="spacing" textLength="29" x="45" y="160.0664">Uses</text><polygon fill="none" points="170.6051,217.3879,168.1371,209.2081,163.3671,212.8478,170.6051,217.3879" style="stroke:#666666;stroke-width:1.0;"/><path d="M60.4724,128.8307 C71.7033,142.3444 86.2368,158.8333 94,163.6094 C105.3878,170.6154 111.5539,164.6991 123,171.6094 C142.3429,183.2871 154.6104,196.4266 165.7521,211.0279 " fill="none" style="stroke:#666666;stroke-width:1.0;"/><text fill="#666666" font-family="sans-serif" font-size="12" font-weight="bold" lengthAdjust="spacing" textLength="29" x="95" y="160.0664">Uses</text><polygon fill="none" points="433.8928,217.3807,431.5045,209.1773,426.6994,212.7704,433.8928,217.3807" style="stroke:#666666;stroke-width:1.0;"/><path d="M238.1226,119.7688 C283.8141,128.4077 341.6693,143.9956 387,171.6094 C406.1488,183.2741 418.1805,196.3686 429.1019,210.9738 " fill="none" style="stroke:#666666;stroke-width:1.0;"/><text fill="#666666" font-family="sans-serif" font-size="12" font-weight="bold" lengthAdjust="spacing" textLength="29" x="371" y="160.0664">Uses</text><polygon fill="none" points="84.63,217.3673,92.1173,213.2515,87.5649,209.3432,84.63,217.3673" style="stroke:#666666;stroke-width:1.0;"/><path d="M151.209,128.7922 C145.0611,139.3142 137.0057,152.4503 129,163.6094 C121.3943,174.2109 105.1519,193.4634 89.8411,211.2973 " fill="none" style="stroke:#666666;stroke-width:1.0;"/><text fill="#666666" font-family="sans-serif" font-size="12" font-weight="bold" lengthAdjust="spacing" textLength="29" x="141" y="160.0664">Uses</text><polygon fill="none" points="298.4837,217.2492,295.2099,209.3573,290.8279,213.4559,298.4837,217.2492" style="stroke:#666666;stroke-width:1.0;"/><path d="M195.3861,128.7576 C204.2447,134.2232 213.6608,140.3911 222,146.6094 C250.9799,168.2186 274.9889,192.1299 293.0189,211.4066 " fill="none" style="stroke:#666666;stroke-width:1.0;"/><text fill="#666666" font-family="sans-serif" font-size="12" font-weight="bold" lengthAdjust="spacing" textLength="29" x="243" y="160.0664">Uses</text><polygon fill="none" points="186.5357,217.267,190.2909,209.5925,184.3187,209.0157,186.5357,217.267" style="stroke:#666666;stroke-width:1.0;"/><path d="M175.2924,128.7751 C178.4313,134.289 181.3445,140.4768 183,146.6094 C189.3939,170.2943 189.0905,190.8155 187.3048,209.3041 " fill="none" style="stroke:#666666;stroke-width:1.0;"/><text fill="#666666" font-family="sans-serif" font-size="12" font-weight="bold" lengthAdjust="spacing" textLength="29" x="188" y="160.0664">Uses</text><rect fill="none" height="17.6094" style="stroke:none;stroke-width:1.0;" width="182" x="299" y="286.6094"/><text fill="#000000" font-family="sans-serif" font-size="14" font-weight="bold" lengthAdjust="spacing" textLength="53" x="299" y="301.1426">Legend</text><text fill="#FFFFFF" font-family="sans-serif" font-size="14" lengthAdjust="spacing" textLength="4" x="352" y="301.1426">&#160;</text><rect fill="#1168BD" height="17.6094" style="stroke:none;stroke-width:1.0;" width="182" x="299" y="304.2188"/><text fill="#3C7FC0" font-family="sans-serif" font-size="14" lengthAdjust="spacing" textLength="14" x="303" y="318.752">&#9647;</text><text fill="#FFFFFF" font-family="sans-serif" font-size="14" lengthAdjust="spacing" textLength="4" x="317" y="318.752">&#160;</text><text fill="#FFFFFF" font-family="sans-serif" font-size="14" lengthAdjust="spacing" textLength="44" x="325" y="318.752">system</text><text fill="#FFFFFF" font-family="sans-serif" font-size="14" lengthAdjust="spacing" textLength="4" x="373" y="318.752">&#160;</text><rect fill="#438DD5" height="17.6094" style="stroke:none;stroke-width:1.0;" width="182" x="299" y="321.8281"/><text fill="#3C7FC0" font-family="sans-serif" font-size="14" lengthAdjust="spacing" textLength="14" x="303" y="336.3613">&#9647;</text><text fill="#FFFFFF" font-family="sans-serif" font-size="14" lengthAdjust="spacing" textLength="4" x="317" y="336.3613">&#160;</text><text fill="#FFFFFF" font-family="sans-serif" font-size="14" lengthAdjust="spacing" textLength="59" x="325" y="336.3613">container</text><text fill="#FFFFFF" font-family="sans-serif" font-size="14" lengthAdjust="spacing" textLength="4" x="388" y="336.3613">&#160;</text><rect fill="none" height="17.6094" style="stroke:none;stroke-width:1.0;" width="182" x="299" y="339.4375"/><text fill="#444444" font-family="sans-serif" font-size="14" lengthAdjust="spacing" textLength="14" x="303" y="353.9707">&#9647;</text><text fill="#FFFFFF" font-family="sans-serif" font-size="14" lengthAdjust="spacing" textLength="4" x="317" y="353.9707">&#160;</text><text fill="#444444" font-family="sans-serif" font-size="14" lengthAdjust="spacing" textLength="108" x="325" y="353.9707">system boundary</text><text fill="#444444" font-family="sans-serif" font-size="10" lengthAdjust="spacing" textLength="40" x="437" y="354.8496">(dashed)</text><text fill="#FFFFFF" font-family="sans-serif" font-size="14" lengthAdjust="spacing" textLength="4" x="477" y="353.9707">&#160;</text><line style="stroke:none;stroke-width:1.0;" x1="299" x2="481" y1="286.6094" y2="286.6094"/><line style="stroke:none;stroke-width:1.0;" x1="299" x2="481" y1="304.2188" y2="304.2188"/><line style="stroke:none;stroke-width:1.0;" x1="299" x2="481" y1="321.8281" y2="321.8281"/><line style="stroke:none;stroke-width:1.0;" x1="299" x2="481" y1="339.4375" y2="339.4375"/><line style="stroke:none;stroke-width:1.0;" x1="299" x2="481" y1="357.0469" y2="357.0469"/><line style="stroke:none;stroke-width:1.0;" x1="299" x2="299" y1="286.6094" y2="357.0469"/><line style="stroke:none;stroke-width:1.0;" x1="481" x2="481" y1="286.6094" y2="357.0469"/><!--SRC=[pLLHRvim47xtht3P7eBKyPIdIdr82LqdTI4ALDMaIkWA1qKpDhATP6ZgVvy95CXKgJHDro50ljFnVUVlFekJKa9M06LGYRMcga0D7CX9pcEsJf0wpbrxnrDrvquZLt0DEKVfbEk24J9B4ezXWLo7a4siU9fpZJ9bOdl6yXJZAcPund5hdTBFzvahc93dcKJa9auDLfFvbEwkkaR81EL-dNg0H6npdfrRby0KMlOuslW1U8R9a5h8EZM2koiyb5nY8JRxv1AJ4SnDrJEqDUyAsSiwQ_obznLaPcA3ZFqor42x7guJfSThKYC01thqWCrUUpGJctq6L_vjjFHMWR-8blugNCs-XHERNCz- -3TX5FhBQExVBao6g9yvBq52GMiCNPL8Iy6gEY14vveXlPImJcY0SfF7IBzGTqe33JgFw_MJcId33Hetaw1I6eleGgnv0hAQUAue2fGnBXdeLCZ22KIgjo2ngLJE3h-5FwNM7frbqz-4cgiZUYMWqtsed5cP6tppDX9QkyS-6lOSDDo3gZVmj7m7bk-e56J6qmQsMxyR3ru1JnZAZWnfcnbGFXuoShy-hFt8T-6RHZu4V8rWZstpOxNok07eNTg4BHOnn_UjxZoA0MyKAjFFXxOp5Fue_VnjoUDuueDQ-rT3FB2ppkN_cJpFJAxzrrrxNxt5V6B_0G00]--></g></svg>