<?xml version="1.0" encoding="us-ascii" standalone="no"?><svg xmlns="http://www.w3.org/2000/svg" xmlns:xlink="http://www.w3.org/1999/xlink" contentStyleType="text/css" height="427px" preserveAspectRatio="none" style="width:721px;height:427px;background:#FFFFFF;" version="1.1" viewBox="0 0 721 427" width="721px" zoomAndPan="magnify"><defs/><g><text fill="#000000" font-family="sans-serif" font-size="14" font-weight="bold" lengthAdjust="spacing" textLength="693" x="10" y="29.5332">DotNetEShop - Catalog Api - Api - Catalog Api - Get Item Picture By Id - Sequence - Component level</text><rect fill="#FFFFFF" height="377.0313" style="stroke:#181818;stroke-width:0.5;" width="95" x="246.25" y="44.6094"/><text fill="#000000" font-family="sans-serif" font-size="13" font-weight="bold" lengthAdjust="spacing" textLength="21" x="283.25" y="58.1045">Api</text><rect fill="none" height="224.1094" style="stroke:#000000;stroke-width:1.5;" width="370.5" x="230.25" y="144.9219"/><rect fill="none" height="61.7031" style="stroke:#000000;stroke-width:1.5;" width="261.5" x="240.25" y="170.2734"/><line style="stroke:#181818;stroke-width:0.5;stroke-dasharray:5.0,5.0;" x1="140.25" x2="140.25" y1="97.5703" y2="386.0313"/><line style="stroke:#181818;stroke-width:0.5;stroke-dasharray:5.0,5.0;" x1="293.25" x2="293.25" y1="97.5703" y2="386.0313"/><rect fill="#E2E2F0" height="31.6094" rx="2.5" ry="2.5" style="stroke:#181818;stroke-width:0.5;" width="65" x="108.25" y="64.9609"/><text fill="#000000" font-family="sans-serif" font-size="14" lengthAdjust="spacing" textLength="51" x="115.25" y="86.4941">External</text><rect fill="#E2E2F0" height="31.6094" rx="2.5" ry="2.5" style="stroke:#181818;stroke-width:0.5;" width="65" x="108.25" y="385.0313"/><text fill="#000000" font-family="sans-serif" font-size="14" lengthAdjust="spacing" textLength="51" x="115.25" y="406.5645">External</text><rect fill="#E2E2F0" height="31.6094" rx="2.5" ry="2.5" style="stroke:#181818;stroke-width:0.5;" width="87" x="250.25" y="64.9609"/><text fill="#000000" font-family="sans-serif" font-size="14" lengthAdjust="spacing" textLength="73" x="257.25" y="86.4941">Catalog Api</text><rect fill="#E2E2F0" height="31.6094" rx="2.5" ry="2.5" style="stroke:#181818;stroke-width:0.5;" width="87" x="250.25" y="385.0313"/><text fill="#000000" font-family="sans-serif" font-size="14" lengthAdjust="spacing" textLength="73" x="257.25" y="406.5645">Catalog Api</text><polygon fill="#181818" points="281.75,125.9219,291.75,129.9219,281.75,133.9219,285.75,129.9219" style="stroke:#181818;stroke-width:1.0;"/><line style="stroke:#181818;stroke-width:1.0;" x1="140.75" x2="287.75" y1="129.9219" y2="129.9219"/><text fill="#000000" font-family="sans-serif" font-size="13" lengthAdjust="spacing" textLength="129" x="147.75" y="125.0654">Get Item Picture By Id</text><path d="M230.25,144.9219 L414.25,144.9219 L414.25,153.2734 L404.25,163.2734 L230.25,163.2734 L230.25,144.9219 " fill="#EEEEEE" style="stroke:#000000;stroke-width:1.5;"/><rect fill="none" height="224.1094" style="stroke:#000000;stroke-width:1.5;" width="370.5" x="230.25" y="144.9219"/><text fill="#000000" font-family="sans-serif" font-size="13" font-weight="bold" lengthAdjust="spacing" textLength="139" x="245.25" y="159.417">Get Item Picture By Id</text><path d="M240.25,170.2734 L301.25,170.2734 L301.25,178.625 L291.25,188.625 L240.25,188.625 L240.25,170.2734 " fill="#EEEEEE" style="stroke:#000000;stroke-width:1.5;"/><rect fill="none" height="61.7031" style="stroke:#000000;stroke-width:1.5;" width="261.5" x="240.25" y="170.2734"/><text fill="#000000" font-family="sans-serif" font-size="13" font-weight="bold" lengthAdjust="spacing" textLength="16" x="255.25" y="184.7686">alt</text><text fill="#000000" font-family="sans-serif" font-size="11" font-weight="bold" lengthAdjust="spacing" textLength="69" x="316.25" y="183.6924">[item is null]</text><line style="stroke:#181818;stroke-width:1.0;" x1="293.75" x2="335.75" y1="210.9766" y2="210.9766"/><line style="stroke:#181818;stroke-width:1.0;" x1="335.75" x2="335.75" y1="210.9766" y2="223.9766"/><line style="stroke:#181818;stroke-width:1.0;" x1="294.75" x2="335.75" y1="223.9766" y2="223.9766"/><polygon fill="#181818" points="304.75,219.9766,294.75,223.9766,304.75,227.9766,300.75,223.9766" style="stroke:#181818;stroke-width:1.0;"/><text fill="#000000" font-family="sans-serif" font-size="13" lengthAdjust="spacing" textLength="189" x="300.75" y="206.1201">Return (TypedResults.NotFound)</text><line style="stroke:#181818;stroke-width:1.0;" x1="293.75" x2="335.75" y1="261.3281" y2="261.3281"/><line style="stroke:#181818;stroke-width:1.0;" x1="335.75" x2="335.75" y1="261.3281" y2="274.3281"/><line style="stroke:#181818;stroke-width:1.0;" x1="294.75" x2="335.75" y1="274.3281" y2="274.3281"/><polygon fill="#181818" points="304.75,270.3281,294.75,274.3281,304.75,278.3281,300.75,274.3281" style="stroke:#181818;stroke-width:1.0;"/><text fill="#000000" font-family="sans-serif" font-size="13" lengthAdjust="spacing" textLength="77" x="300.75" y="256.4717">Get Full Path</text><line style="stroke:#181818;stroke-width:1.0;" x1="293.75" x2="335.75" y1="304.6797" y2="304.6797"/><line style="stroke:#181818;stroke-width:1.0;" x1="335.75" x2="335.75" y1="304.6797" y2="317.6797"/><line style="stroke:#181818;stroke-width:1.0;" x1="294.75" x2="335.75" y1="317.6797" y2="317.6797"/><polygon fill="#181818" points="304.75,313.6797,294.75,317.6797,304.75,321.6797,300.75,317.6797" style="stroke:#181818;stroke-width:1.0;"/><text fill="#000000" font-family="sans-serif" font-size="13" lengthAdjust="spacing" textLength="288" x="300.75" y="299.8232">Get Image Mime Type From Image File Extension</text><line style="stroke:#181818;stroke-width:1.0;" x1="293.75" x2="335.75" y1="348.0313" y2="348.0313"/><line style="stroke:#181818;stroke-width:1.0;" x1="335.75" x2="335.75" y1="348.0313" y2="361.0313"/><line style="stroke:#181818;stroke-width:1.0;" x1="294.75" x2="335.75" y1="361.0313" y2="361.0313"/><polygon fill="#181818" points="304.75,357.0313,294.75,361.0313,304.75,365.0313,300.75,361.0313" style="stroke:#181818;stroke-width:1.0;"/><text fill="#000000" font-family="sans-serif" font-size="13" lengthAdjust="spacing" textLength="204" x="300.75" y="343.1748">Return (TypedResults.PhysicalFile)</text><!--SRC=[rLInJiCm4Dtz5QUmmD1CJ0n8K1gKWQfga9XDSYIMd3jZNsZpzzXA4Ise4aE7ui7olNlMlUSxMOnOX0UM9SgYwjZ13EPQjEKMxfo9qRGVOeyeK0hsi3Ar31xXVeIoYOaAtmUa6jCDxXqJae353xHAEUt5rCRf26MBhQ0dRJFG0URN9SMmiBp9AtwJZVPOZI4M2FaNSOgLUkKjP7jgChXuwOoWWhYcx4_qeF31rLXxp_glsZjkfEPp9j66q8Ty2dVczaaAgO6eG7qVrD-jmUpsb6BWvaYNLEjvSCUIsWgO19i0D5YhJYdfv0xN6AKJN3wF3firXi56nfAbu86QgzI6yzQVcb34LuQLbkxyfPQzRX6UJ8-GNXmAp_qEB4pyHj90Kp1C_t1gLjqOJArjCZ9DZle4]--></g></svg>