<?xml version="1.0" encoding="us-ascii" standalone="no"?><svg xmlns="http://www.w3.org/2000/svg" xmlns:xlink="http://www.w3.org/1999/xlink" contentStyleType="text/css" height="351px" preserveAspectRatio="none" style="width:971px;height:351px;background:#FFFFFF;" version="1.1" viewBox="0 0 971 351" width="971px" zoomAndPan="magnify"><defs/><g><text fill="#000000" font-family="sans-serif" font-size="14" font-weight="bold" lengthAdjust="spacing" textLength="943" x="10" y="29.5332">E Commerce Platform - Create Product - Price Management - Pricing Service - Api - Update Product Prices - Sequence - Container level</text><rect fill="#FFFFFF" height="293.9766" style="stroke:#181818;stroke-width:0.5;" width="311.5" x="404" y="44.6094"/><text fill="#000000" font-family="sans-serif" font-size="13" font-weight="bold" lengthAdjust="spacing" textLength="97" x="511.25" y="58.1045">Pricing Service</text><rect fill="none" height="79.0547" style="stroke:#000000;stroke-width:1.5;" width="323.5" x="398" y="175.9219"/><line style="stroke:#181818;stroke-width:0.5;stroke-dasharray:5.0,5.0;" x1="269.5" x2="269.5" y1="128.5703" y2="271.9766"/><line style="stroke:#181818;stroke-width:0.5;stroke-dasharray:5.0,5.0;" x1="425" x2="425" y1="128.5703" y2="271.9766"/><line style="stroke:#181818;stroke-width:0.5;stroke-dasharray:5.0,5.0;" x1="579.5" x2="579.5" y1="128.5703" y2="271.9766"/><line style="stroke:#181818;stroke-width:0.5;stroke-dasharray:5.0,5.0;" x1="667.5" x2="667.5" y1="128.5703" y2="271.9766"/><rect fill="#E2E2F0" height="31.6094" rx="2.5" ry="2.5" style="stroke:#181818;stroke-width:0.5;" width="65" x="237.5" y="95.9609"/><text fill="#000000" font-family="sans-serif" font-size="14" lengthAdjust="spacing" textLength="51" x="244.5" y="117.4941">External</text><rect fill="#E2E2F0" height="31.6094" rx="2.5" ry="2.5" style="stroke:#181818;stroke-width:0.5;" width="65" x="237.5" y="270.9766"/><text fill="#000000" font-family="sans-serif" font-size="14" lengthAdjust="spacing" textLength="51" x="244.5" y="292.5098">External</text><rect fill="#E2E2F0" height="31.6094" rx="2.5" ry="2.5" style="stroke:#181818;stroke-width:0.5;" width="34" x="408" y="95.9609"/><text fill="#000000" font-family="sans-serif" font-size="14" lengthAdjust="spacing" textLength="20" x="415" y="117.4941">Api</text><rect fill="#E2E2F0" height="31.6094" rx="2.5" ry="2.5" style="stroke:#181818;stroke-width:0.5;" width="34" x="408" y="270.9766"/><text fill="#000000" font-family="sans-serif" font-size="14" lengthAdjust="spacing" textLength="20" x="415" y="292.5098">Api</text><text fill="#000000" font-family="sans-serif" font-size="14" lengthAdjust="spacing" textLength="61" x="546.5" y="125.4941">Database</text><path d="M562,74.9609 C562,64.9609 580,64.9609 580,64.9609 C580,64.9609 598,64.9609 598,74.9609 L598,100.9609 C598,110.9609 580,110.9609 580,110.9609 C580,110.9609 562,110.9609 562,100.9609 L562,74.9609 " fill="#E2E2F0" style="stroke:#181818;stroke-width:1.5;"/><path d="M562,74.9609 C562,84.9609 580,84.9609 580,84.9609 C580,84.9609 598,84.9609 598,74.9609 " fill="none" style="stroke:#181818;stroke-width:1.5;"/><text fill="#000000" font-family="sans-serif" font-size="14" lengthAdjust="spacing" textLength="61" x="546.5" y="285.5098">Database</text><path d="M562,298.5859 C562,288.5859 580,288.5859 580,288.5859 C580,288.5859 598,288.5859 598,298.5859 L598,324.5859 C598,334.5859 580,334.5859 580,334.5859 C580,334.5859 562,334.5859 562,324.5859 L562,298.5859 " fill="#E2E2F0" style="stroke:#181818;stroke-width:1.5;"/><path d="M562,298.5859 C562,308.5859 580,308.5859 580,308.5859 C580,308.5859 598,308.5859 598,298.5859 " fill="none" style="stroke:#181818;stroke-width:1.5;"/><path d="M628.5,100.9609 L706.5,100.9609 C711.5,100.9609 711.5,114.7656 711.5,114.7656 C711.5,114.7656 711.5,128.5703 706.5,128.5703 L628.5,128.5703 C623.5,128.5703 623.5,114.7656 623.5,114.7656 C623.5,114.7656 623.5,100.9609 628.5,100.9609 " fill="#E2E2F0" style="stroke:#181818;stroke-width:0.5;"/><path d="M706.5,100.9609 C701.5,100.9609 701.5,114.7656 701.5,114.7656 C701.5,128.5703 706.5,128.5703 706.5,128.5703 " fill="none" style="stroke:#181818;stroke-width:0.5;"/><text fill="#000000" font-family="sans-serif" font-size="14" lengthAdjust="spacing" textLength="68" x="628.5" y="120.4941">Messaging</text><path d="M628.5,270.9766 L706.5,270.9766 C711.5,270.9766 711.5,284.7813 711.5,284.7813 C711.5,284.7813 711.5,298.5859 706.5,298.5859 L628.5,298.5859 C623.5,298.5859 623.5,284.7813 623.5,284.7813 C623.5,284.7813 623.5,270.9766 628.5,270.9766 " fill="#E2E2F0" style="stroke:#181818;stroke-width:0.5;"/><path d="M706.5,270.9766 C701.5,270.9766 701.5,284.7813 701.5,284.7813 C701.5,298.5859 706.5,298.5859 706.5,298.5859 " fill="none" style="stroke:#181818;stroke-width:0.5;"/><text fill="#000000" font-family="sans-serif" font-size="14" lengthAdjust="spacing" textLength="68" x="628.5" y="290.5098">Messaging</text><polygon fill="#181818" points="413,156.9219,423,160.9219,413,164.9219,417,160.9219" style="stroke:#181818;stroke-width:1.0;"/><line style="stroke:#181818;stroke-width:1.0;" x1="270" x2="419" y1="160.9219" y2="160.9219"/><text fill="#000000" font-family="sans-serif" font-size="13" lengthAdjust="spacing" textLength="131" x="277" y="156.0654">Update Product Prices</text><path d="M398,175.9219 L584,175.9219 L584,184.2734 L574,194.2734 L398,194.2734 L398,175.9219 " fill="#EEEEEE" style="stroke:#000000;stroke-width:1.5;"/><rect fill="none" height="79.0547" style="stroke:#000000;stroke-width:1.5;" width="323.5" x="398" y="175.9219"/><text fill="#000000" font-family="sans-serif" font-size="13" font-weight="bold" lengthAdjust="spacing" textLength="141" x="413" y="190.417">Update Product Prices</text><polygon fill="#181818" points="568,212.625,578,216.625,568,220.625,572,216.625" style="stroke:#181818;stroke-width:1.0;"/><line style="stroke:#181818;stroke-width:1.0;" x1="425" x2="574" y1="216.625" y2="216.625"/><text fill="#000000" font-family="sans-serif" font-size="13" lengthAdjust="spacing" textLength="131" x="432" y="211.7686">Update Product Prices</text><polygon fill="#181818" points="655.5,242.9766,665.5,246.9766,655.5,250.9766,659.5,246.9766" style="stroke:#181818;stroke-width:1.0;"/><line style="stroke:#181818;stroke-width:1.0;" x1="425" x2="661.5" y1="246.9766" y2="246.9766"/><text fill="#000000" font-family="sans-serif" font-size="13" lengthAdjust="spacing" textLength="204" x="432" y="242.1201">Send Product Price Changed Event</text><!--SRC=[rPB1JiCm38RlVWghdDiJ9mv8g1I9mwH95UBihLuNAKrAadRZxN6pPZ1W4fSUo25A7CUVVzj11SrOOMcxZjsMSQqfxAphCCVICGMnEDiCso26jLFYiI93BNTiaacP5cjsu_IOuqElP7_fcwz_uqylzfhV1ZRHiRGca3BiKFF86g0d5oHQJn8vguw1dI6T8NaiRv-DN9-qFHIrtOK3EQxVVU3E5ydnT0VOs2DctzBAyEPrhm83ohh0IBQHKAK29Ft5IVqie8W2FfN_o686phpYhCqNGeXOgGTjo3DcZ_DfON32HBfKVH3qYhsdLlmNPfyvmAP1QGa0_Bs9cDylsn2y-tr0eNLswA-yBPlHefBJA5pL_O-rdKTDnDNJj5r8mt9FfkK6gr72JjC8y040]--></g></svg>