<?xml version="1.0" encoding="us-ascii" standalone="no"?><svg xmlns="http://www.w3.org/2000/svg" xmlns:xlink="http://www.w3.org/1999/xlink" contentStyleType="text/css" height="432px" preserveAspectRatio="none" style="width:690px;height:432px;background:#FFFFFF;" version="1.1" viewBox="0 0 690 432" width="690px" zoomAndPan="magnify"><defs/><g><text fill="#000000" font-family="sans-serif" font-size="14" font-weight="bold" lengthAdjust="spacing" textLength="662" x="10" y="29.5332">Big Bank Plc - Internet Banking - Single-Page Application - Sign In - Sequence - Container level</text><rect fill="#FFFFFF" height="375.3828" style="stroke:#181818;stroke-width:0.5;" width="397.5" x="167.75" y="44.6094"/><text fill="#000000" font-family="sans-serif" font-size="13" font-weight="bold" lengthAdjust="spacing" textLength="105" x="314" y="58.1045">Internet Banking</text><rect fill="none" height="144.1094" style="stroke:#000000;stroke-width:1.5;" width="419.5" x="161.75" y="192.2734"/><rect fill="none" height="65.0547" style="stroke:#000000;stroke-width:1.5;" width="235.5" x="335.75" y="264.3281"/><line style="stroke:#181818;stroke-width:0.5;stroke-dasharray:5.0,5.0;" x1="128.75" x2="128.75" y1="128.5703" y2="353.3828"/><line style="stroke:#181818;stroke-width:0.5;stroke-dasharray:5.0,5.0;" x1="253.75" x2="253.75" y1="128.5703" y2="353.3828"/><line style="stroke:#181818;stroke-width:0.5;stroke-dasharray:5.0,5.0;" x1="399.75" x2="399.75" y1="128.5703" y2="353.3828"/><line style="stroke:#181818;stroke-width:0.5;stroke-dasharray:5.0,5.0;" x1="527.25" x2="527.25" y1="128.5703" y2="353.3828"/><rect fill="#E2E2F0" height="31.6094" rx="2.5" ry="2.5" style="stroke:#181818;stroke-width:0.5;" width="65" x="96.75" y="95.9609"/><text fill="#000000" font-family="sans-serif" font-size="14" lengthAdjust="spacing" textLength="51" x="103.75" y="117.4941">External</text><rect fill="#E2E2F0" height="31.6094" rx="2.5" ry="2.5" style="stroke:#181818;stroke-width:0.5;" width="65" x="96.75" y="352.3828"/><text fill="#000000" font-family="sans-serif" font-size="14" lengthAdjust="spacing" textLength="51" x="103.75" y="373.916">External</text><rect fill="#E2E2F0" height="31.6094" rx="2.5" ry="2.5" style="stroke:#181818;stroke-width:0.5;" width="164" x="171.75" y="95.9609"/><text fill="#000000" font-family="sans-serif" font-size="14" lengthAdjust="spacing" textLength="150" x="178.75" y="117.4941">Single-Page Application</text><rect fill="#E2E2F0" height="31.6094" rx="2.5" ry="2.5" style="stroke:#181818;stroke-width:0.5;" width="164" x="171.75" y="352.3828"/><text fill="#000000" font-family="sans-serif" font-size="14" lengthAdjust="spacing" textLength="150" x="178.75" y="373.916">Single-Page Application</text><rect fill="#E2E2F0" height="31.6094" rx="2.5" ry="2.5" style="stroke:#181818;stroke-width:0.5;" width="108" x="345.75" y="95.9609"/><text fill="#000000" font-family="sans-serif" font-size="14" lengthAdjust="spacing" textLength="94" x="352.75" y="117.4941">API Application</text><rect fill="#E2E2F0" height="31.6094" rx="2.5" ry="2.5" style="stroke:#181818;stroke-width:0.5;" width="108" x="345.75" y="352.3828"/><text fill="#000000" font-family="sans-serif" font-size="14" lengthAdjust="spacing" textLength="94" x="352.75" y="373.916">API Application</text><text fill="#000000" font-family="sans-serif" font-size="14" lengthAdjust="spacing" textLength="61" x="494.25" y="125.4941">Database</text><path d="M509.75,74.9609 C509.75,64.9609 527.75,64.9609 527.75,64.9609 C527.75,64.9609 545.75,64.9609 545.75,74.9609 L545.75,100.9609 C545.75,110.9609 527.75,110.9609 527.75,110.9609 C527.75,110.9609 509.75,110.9609 509.75,100.9609 L509.75,74.9609 " fill="#E2E2F0" style="stroke:#181818;stroke-width:1.5;"/><path d="M509.75,74.9609 C509.75,84.9609 527.75,84.9609 527.75,84.9609 C527.75,84.9609 545.75,84.9609 545.75,74.9609 " fill="none" style="stroke:#181818;stroke-width:1.5;"/><text fill="#000000" font-family="sans-serif" font-size="14" lengthAdjust="spacing" textLength="61" x="494.25" y="366.916">Database</text><path d="M509.75,379.9922 C509.75,369.9922 527.75,369.9922 527.75,369.9922 C527.75,369.9922 545.75,369.9922 545.75,379.9922 L545.75,405.9922 C545.75,415.9922 527.75,415.9922 527.75,415.9922 C527.75,415.9922 509.75,415.9922 509.75,405.9922 L509.75,379.9922 " fill="#E2E2F0" style="stroke:#181818;stroke-width:1.5;"/><path d="M509.75,379.9922 C509.75,389.9922 527.75,389.9922 527.75,389.9922 C527.75,389.9922 545.75,389.9922 545.75,379.9922 " fill="none" style="stroke:#181818;stroke-width:1.5;"/><polygon fill="#181818" points="241.75,173.2734,251.75,177.2734,241.75,181.2734,245.75,177.2734" style="stroke:#181818;stroke-width:1.0;"/><line style="stroke:#181818;stroke-width:1.0;" x1="129.25" x2="247.75" y1="177.2734" y2="177.2734"/><text fill="#000000" font-family="sans-serif" font-size="13" lengthAdjust="spacing" textLength="40" x="136.25" y="156.0654">Sign In</text><text fill="#000000" font-family="sans-serif" font-size="13" lengthAdjust="spacing" textLength="49" x="136.25" y="172.417">[HTTPS]</text><path d="M161.75,192.2734 L251.75,192.2734 L251.75,200.625 L241.75,210.625 L161.75,210.625 L161.75,192.2734 " fill="#EEEEEE" style="stroke:#000000;stroke-width:1.5;"/><rect fill="none" height="144.1094" style="stroke:#000000;stroke-width:1.5;" width="419.5" x="161.75" y="192.2734"/><text fill="#000000" font-family="sans-serif" font-size="13" font-weight="bold" lengthAdjust="spacing" textLength="45" x="176.75" y="206.7686">Sign In</text><polygon fill="#181818" points="387.75,245.3281,397.75,249.3281,387.75,253.3281,391.75,249.3281" style="stroke:#181818;stroke-width:1.0;"/><line style="stroke:#181818;stroke-width:1.0;" x1="253.75" x2="393.75" y1="249.3281" y2="249.3281"/><text fill="#000000" font-family="sans-serif" font-size="13" lengthAdjust="spacing" textLength="40" x="260.75" y="228.1201">Sign In</text><text fill="#000000" font-family="sans-serif" font-size="13" lengthAdjust="spacing" textLength="49" x="260.75" y="244.4717">[HTTPS]</text><path d="M335.75,264.3281 L425.75,264.3281 L425.75,272.6797 L415.75,282.6797 L335.75,282.6797 L335.75,264.3281 " fill="#EEEEEE" style="stroke:#000000;stroke-width:1.5;"/><rect fill="none" height="65.0547" style="stroke:#000000;stroke-width:1.5;" width="235.5" x="335.75" y="264.3281"/><text fill="#000000" font-family="sans-serif" font-size="13" font-weight="bold" lengthAdjust="spacing" textLength="45" x="350.75" y="278.8232">Sign In</text><polygon fill="#181818" points="515.75,317.3828,525.75,321.3828,515.75,325.3828,519.75,321.3828" style="stroke:#181818;stroke-width:1.0;"/><line style="stroke:#181818;stroke-width:1.0;" x1="399.75" x2="521.75" y1="321.3828" y2="321.3828"/><text fill="#000000" font-family="sans-serif" font-size="13" lengthAdjust="spacing" textLength="104" x="406.75" y="300.1748">Authenticate User</text><text fill="#000000" font-family="sans-serif" font-size="13" lengthAdjust="spacing" textLength="83" x="406.75" y="316.5264">[TCP/IP, SQL]</text><!--SRC=[jPB1JeD048Rl-nGJl0fUF7ameQYHn0C6Z0VjOKf7kd4TS1biVNiNsZMsZKbJSHEomy3ytpyxAreCmKHNC45-XSoK44BAGfP9XfpcogLojnaACwm8ugOnkaJHDGzVAdOLVKJl7N59Bang5jHC5Wnza56gGIkwr0soG72zwlNH180j9ES3xiRKooYlNsI9blBFLkYjZVoFwtUbPlKAWbrt0PmyBhIG0hUsEB-O7h2kvRxUDRn7zO2DVlJTJ1kj5Nj1fxSFZBDq991J-Y4qaEOeECEM8BZQH7_GznAAU0xkM9LIXmy2miinpWyk_ELvvgVReiZogQfitJK-hSQ07ErrUmJ_PNQ7ShHRFr3dC-vaGIoz9C53IzOvBfBiBCrE8R-_c_Op7nxr1G00]--></g></svg>