<?xml version="1.0" encoding="us-ascii" standalone="no"?><svg xmlns="http://www.w3.org/2000/svg" xmlns:xlink="http://www.w3.org/1999/xlink" contentStyleType="text/css" height="414px" preserveAspectRatio="none" style="width:713px;height:414px;background:#FFFFFF;" version="1.1" viewBox="0 0 713 414" width="713px" zoomAndPan="magnify"><defs/><g><text fill="#000000" font-family="sans-serif" font-size="14" font-weight="bold" lengthAdjust="spacing" textLength="685" x="10" y="29.5332">Dot Net E Shop - Catalog Api - Api - Catalog Api - Get Items By Name - Sequence - Component level</text><rect fill="#FFFFFF" height="364.0313" style="stroke:#181818;stroke-width:0.5;" width="95" x="261" y="44.6094"/><text fill="#000000" font-family="sans-serif" font-size="13" font-weight="bold" lengthAdjust="spacing" textLength="21" x="298" y="58.1045">Api</text><rect fill="#FFFFFF" height="364.0313" style="stroke:#181818;stroke-width:0.5;" width="123" x="435" y="44.6094"/><text fill="#000000" font-family="sans-serif" font-size="13" font-weight="bold" lengthAdjust="spacing" textLength="84" x="454.5" y="58.1045">Infrastructure</text><rect fill="none" height="211.1094" style="stroke:#000000;stroke-width:1.5;" width="319" x="245" y="144.9219"/><rect fill="none" height="61.7031" style="stroke:#000000;stroke-width:1.5;" width="202" x="255" y="243.9766"/><line style="stroke:#181818;stroke-width:0.5;stroke-dasharray:5.0,5.0;" x1="169" x2="169" y1="97.5703" y2="373.0313"/><line style="stroke:#181818;stroke-width:0.5;stroke-dasharray:5.0,5.0;" x1="308" x2="308" y1="97.5703" y2="373.0313"/><line style="stroke:#181818;stroke-width:0.5;stroke-dasharray:5.0,5.0;" x1="496" x2="496" y1="97.5703" y2="373.0313"/><rect fill="#E2E2F0" height="31.6094" rx="2.5" ry="2.5" style="stroke:#181818;stroke-width:0.5;" width="65" x="137" y="64.9609"/><text fill="#000000" font-family="sans-serif" font-size="14" lengthAdjust="spacing" textLength="51" x="144" y="86.4941">External</text><rect fill="#E2E2F0" height="31.6094" rx="2.5" ry="2.5" style="stroke:#181818;stroke-width:0.5;" width="65" x="137" y="372.0313"/><text fill="#000000" font-family="sans-serif" font-size="14" lengthAdjust="spacing" textLength="51" x="144" y="393.5645">External</text><rect fill="#E2E2F0" height="31.6094" rx="2.5" ry="2.5" style="stroke:#181818;stroke-width:0.5;" width="87" x="265" y="64.9609"/><text fill="#000000" font-family="sans-serif" font-size="14" lengthAdjust="spacing" textLength="73" x="272" y="86.4941">Catalog Api</text><rect fill="#E2E2F0" height="31.6094" rx="2.5" ry="2.5" style="stroke:#181818;stroke-width:0.5;" width="87" x="265" y="372.0313"/><text fill="#000000" font-family="sans-serif" font-size="14" lengthAdjust="spacing" textLength="73" x="272" y="393.5645">Catalog Api</text><rect fill="#E2E2F0" height="31.6094" rx="2.5" ry="2.5" style="stroke:#181818;stroke-width:0.5;" width="115" x="439" y="64.9609"/><text fill="#000000" font-family="sans-serif" font-size="14" lengthAdjust="spacing" textLength="101" x="446" y="86.4941">Catalog Context</text><rect fill="#E2E2F0" height="31.6094" rx="2.5" ry="2.5" style="stroke:#181818;stroke-width:0.5;" width="115" x="439" y="372.0313"/><text fill="#000000" font-family="sans-serif" font-size="14" lengthAdjust="spacing" textLength="101" x="446" y="393.5645">Catalog Context</text><polygon fill="#181818" points="296.5,125.9219,306.5,129.9219,296.5,133.9219,300.5,129.9219" style="stroke:#181818;stroke-width:1.0;"/><line style="stroke:#181818;stroke-width:1.0;" x1="169.5" x2="302.5" y1="129.9219" y2="129.9219"/><text fill="#000000" font-family="sans-serif" font-size="13" lengthAdjust="spacing" textLength="115" x="176.5" y="125.0654">Get Items By Name</text><path d="M245,144.9219 L411,144.9219 L411,153.2734 L401,163.2734 L245,163.2734 L245,144.9219 " fill="#EEEEEE" style="stroke:#000000;stroke-width:1.5;"/><rect fill="none" height="211.1094" style="stroke:#000000;stroke-width:1.5;" width="319" x="245" y="144.9219"/><text fill="#000000" font-family="sans-serif" font-size="13" font-weight="bold" lengthAdjust="spacing" textLength="121" x="260" y="159.417">Get Items By Name</text><polygon fill="#181818" points="484.5,181.625,494.5,185.625,484.5,189.625,488.5,185.625" style="stroke:#181818;stroke-width:1.0;"/><line style="stroke:#181818;stroke-width:1.0;" x1="308.5" x2="490.5" y1="185.625" y2="185.625"/><text fill="#000000" font-family="sans-serif" font-size="13" lengthAdjust="spacing" textLength="164" x="315.5" y="180.7686">Catalog Items To List Async</text><line style="stroke:#181818;stroke-width:1.0;" x1="308.5" x2="350.5" y1="215.9766" y2="215.9766"/><line style="stroke:#181818;stroke-width:1.0;" x1="350.5" x2="350.5" y1="215.9766" y2="228.9766"/><line style="stroke:#181818;stroke-width:1.0;" x1="309.5" x2="350.5" y1="228.9766" y2="228.9766"/><polygon fill="#181818" points="319.5,224.9766,309.5,228.9766,319.5,232.9766,315.5,228.9766" style="stroke:#181818;stroke-width:1.0;"/><text fill="#000000" font-family="sans-serif" font-size="13" lengthAdjust="spacing" textLength="136" x="315.5" y="211.1201">Change Uri Placeholder</text><path d="M255,243.9766 L452,243.9766 L452,252.3281 L442,262.3281 L255,262.3281 L255,243.9766 " fill="#EEEEEE" style="stroke:#000000;stroke-width:1.5;"/><rect fill="none" height="61.7031" style="stroke:#000000;stroke-width:1.5;" width="202" x="255" y="243.9766"/><text fill="#000000" font-family="sans-serif" font-size="13" font-weight="bold" lengthAdjust="spacing" textLength="152" x="270" y="258.4717">Change Uri Placeholder</text><line style="stroke:#181818;stroke-width:1.0;" x1="308.5" x2="350.5" y1="284.6797" y2="284.6797"/><line style="stroke:#181818;stroke-width:1.0;" x1="350.5" x2="350.5" y1="284.6797" y2="297.6797"/><line style="stroke:#181818;stroke-width:1.0;" x1="309.5" x2="350.5" y1="297.6797" y2="297.6797"/><polygon fill="#181818" points="319.5,293.6797,309.5,297.6797,319.5,301.6797,315.5,297.6797" style="stroke:#181818;stroke-width:1.0;"/><text fill="#000000" font-family="sans-serif" font-size="13" lengthAdjust="spacing" textLength="82" x="315.5" y="279.8232">Return (items)</text><line style="stroke:#181818;stroke-width:1.0;" x1="308.5" x2="350.5" y1="335.0313" y2="335.0313"/><line style="stroke:#181818;stroke-width:1.0;" x1="350.5" x2="350.5" y1="335.0313" y2="348.0313"/><line style="stroke:#181818;stroke-width:1.0;" x1="309.5" x2="350.5" y1="348.0313" y2="348.0313"/><polygon fill="#181818" points="319.5,344.0313,309.5,348.0313,319.5,352.0313,315.5,348.0313" style="stroke:#181818;stroke-width:1.0;"/><text fill="#000000" font-family="sans-serif" font-size="13" lengthAdjust="spacing" textLength="150" x="315.5" y="330.1748">Return (TypedResults.Ok)</text><!--SRC=[rLAnJiCm4Dtz5QUmmD1CJ0n89HHK2HNK536RvDfOkBQnBxJvUovA2WrjeQeg0Huit_Eptti-aoADS6q9HaWmWBIm3dgGI9BQpg3l55VDtCLkcJuad0Uugc0avyXOYgybcgnU9dRkh453eF4DjH1EUbAPSfAXQB0az4Rg26I0v7nekBpHTX6dTaeBwJ6jGdrtl28sjH3FTWdHcf48JfuAHIY0HxFx5Uq8TuwoDWVdt8CwzOPsosLgd5X3KXdq8MxADjmwIQ39WHs8DIz3C_Koa2ypAZt-RAlMmIKTQAshjiLbU_sdqu-5sBy9qBiyvhF1nUPN4ZDlIxS5FwRkGJ7sVM9EjUffas1YuKu5WdweJFRxERvhHr98CqDuz0eUjComi3f7t_Pan-QV3ZH6RfQ1KrMVFwi__V_mEwaSvcCCfMR6_KlZNBm3]--></g></svg>