<?xml version="1.0" encoding="us-ascii" standalone="no"?><svg xmlns="http://www.w3.org/2000/svg" xmlns:xlink="http://www.w3.org/1999/xlink" contentStyleType="text/css" height="475px" preserveAspectRatio="none" style="width:395px;height:475px;background:#FFFFFF;" version="1.1" viewBox="0 0 395 475" width="395px" zoomAndPan="magnify"><defs/><g><text fill="#000000" font-family="sans-serif" font-size="14" font-weight="bold" lengthAdjust="spacing" textLength="367" x="10" y="24.5332">TraderXExample - People Search - C4 - Context level</text><!--entity TraderXExample.Actors.Trader--><g id="elem_TraderXExample.Actors.Trader"><ellipse cx="197" cy="67.1094" fill="#08427B" rx="16" ry="16" style="stroke:#073B6F;stroke-width:0.5;"/><path d="M197,87.1094 C201,87.1094 204,87.1094 208,83.1094 C216,83.1094 224,91.1094 224,99.1094 L224,103.1094 C224,107.1094 220,111.1094 216,111.1094 L178,111.1094 C174,111.1094 170,107.1094 170,103.1094 L170,99.1094 C170,91.1094 178,83.1094 186,83.1094 C190,87.1094 193,87.1094 197,87.1094 " fill="#08427B" style="stroke:#073B6F;stroke-width:0.5;"/><text fill="#08427B" font-family="sans-serif" font-size="16" font-weight="bold" lengthAdjust="spacing" textLength="50" x="172" y="128.2188">Trader</text></g><!--entity TraderXExample.SoftwareSystems.TraderX--><g id="elem_TraderXExample.SoftwareSystems.TraderX"><rect fill="#1168BD" height="75.3438" rx="2.5" ry="2.5" style="stroke:#3C7FC0;stroke-width:0.5;" width="81" x="156.5" y="199.6094"/><text fill="#FFFFFF" font-family="sans-serif" font-size="16" font-weight="bold" lengthAdjust="spacing" textLength="61" x="166.5" y="226.2188">TraderX</text><text fill="#FFFFFF" font-family="sans-serif" font-size="14" lengthAdjust="spacing" textLength="4" x="195" y="244.2676">&#160;</text><text fill="#FFFFFF" font-family="sans-serif" font-size="14" lengthAdjust="spacing" textLength="51" x="171.5" y="261.877">TraderX</text></g><!--entity TraderXExample.SoftwareSystems.UserDirectory--><g id="elem_TraderXExample.SoftwareSystems.UserDirectory"><rect fill="#1168BD" height="40.125" rx="2.5" ry="2.5" style="stroke:#3C7FC0;stroke-width:0.5;" width="130" x="132" y="342.6094"/><text fill="#FFFFFF" font-family="sans-serif" font-size="16" font-weight="bold" lengthAdjust="spacing" textLength="36" x="142" y="369.2188">User</text><text fill="#FFFFFF" font-family="sans-serif" font-size="16" font-weight="bold" lengthAdjust="spacing" textLength="4" x="178" y="369.2188">&#160;</text><text fill="#FFFFFF" font-family="sans-serif" font-size="16" font-weight="bold" lengthAdjust="spacing" textLength="70" x="182" y="369.2188">Directory</text></g><polygon fill="none" points="197,199.4709,200,191.4709,194,191.4709,197,199.4709" style="stroke:#666666;stroke-width:1.0;"/><path d="M197,131.8392 C197,152.9843 197,170.8113 197,191.4709 " fill="none" style="stroke:#666666;stroke-width:1.0;"/><text fill="#666666" font-family="sans-serif" font-size="12" font-weight="bold" lengthAdjust="spacing" textLength="152" x="198" y="163.0664">Type Ahead People Search</text><text fill="#666666" font-family="sans-serif" font-size="12" font-weight="bold" lengthAdjust="spacing" textLength="46" x="251" y="178.1602">[HTTPS]</text><polygon fill="none" points="197,342.3845,200,334.3845,194,334.3845,197,342.3845" style="stroke:#666666;stroke-width:1.0;"/><path d="M197,274.8291 C197,297.013 197,316.3851 197,334.3845 " fill="none" style="stroke:#666666;stroke-width:1.0;"/><text fill="#666666" font-family="sans-serif" font-size="12" font-weight="bold" lengthAdjust="spacing" textLength="107" x="198" y="306.0664">Select People Data</text><text fill="#666666" font-family="sans-serif" font-size="12" font-weight="bold" lengthAdjust="spacing" textLength="39" x="232" y="321.1602">[LDAP]</text><rect fill="none" height="17.6094" style="stroke:none;stroke-width:1.0;" width="78" x="166" y="395.6094"/><text fill="#000000" font-family="sans-serif" font-size="14" font-weight="bold" lengthAdjust="spacing" textLength="53" x="166" y="410.1426">Legend</text><text fill="#FFFFFF" font-family="sans-serif" font-size="14" lengthAdjust="spacing" textLength="4" x="219" y="410.1426">&#160;</text><rect fill="#08427B" height="17.6094" style="stroke:none;stroke-width:1.0;" width="78" x="166" y="413.2188"/><text fill="#073B6F" font-family="sans-serif" font-size="14" lengthAdjust="spacing" textLength="14" x="170" y="427.752">&#9647;</text><text fill="#FFFFFF" font-family="sans-serif" font-size="14" lengthAdjust="spacing" textLength="4" x="184" y="427.752">&#160;</text><text fill="#FFFFFF" font-family="sans-serif" font-size="14" lengthAdjust="spacing" textLength="44" x="192" y="427.752">person</text><text fill="#FFFFFF" font-family="sans-serif" font-size="14" lengthAdjust="spacing" textLength="4" x="240" y="427.752">&#160;</text><rect fill="#1168BD" height="17.6094" style="stroke:none;stroke-width:1.0;" width="78" x="166" y="430.8281"/><text fill="#3C7FC0" font-family="sans-serif" font-size="14" lengthAdjust="spacing" textLength="14" x="170" y="445.3613">&#9647;</text><text fill="#FFFFFF" font-family="sans-serif" font-size="14" lengthAdjust="spacing" textLength="4" x="184" y="445.3613">&#160;</text><text fill="#FFFFFF" font-family="sans-serif" font-size="14" lengthAdjust="spacing" textLength="44" x="192" y="445.3613">system</text><text fill="#FFFFFF" font-family="sans-serif" font-size="14" lengthAdjust="spacing" textLength="4" x="240" y="445.3613">&#160;</text><line style="stroke:none;stroke-width:1.0;" x1="166" x2="244" y1="395.6094" y2="395.6094"/><line style="stroke:none;stroke-width:1.0;" x1="166" x2="244" y1="413.2188" y2="413.2188"/><line style="stroke:none;stroke-width:1.0;" x1="166" x2="244" y1="430.8281" y2="430.8281"/><line style="stroke:none;stroke-width:1.0;" x1="166" x2="244" y1="448.4375" y2="448.4375"/><line style="stroke:none;stroke-width:1.0;" x1="166" x2="166" y1="395.6094" y2="448.4375"/><line style="stroke:none;stroke-width:1.0;" x1="244" x2="244" y1="395.6094" y2="448.4375"/><!--SRC=[dL9TZvim47pdL_XefGlIbQSyHSe32hHNAGeeSBfKJOMsi7oenaQsSpd-VUqZbq2LAhG8eTrbTsPsxBjMGDa0eT3nWoAoGGKChBkQPVIG8t7T_UdDvdA_cgShpXI-AhSzDDIol3mFA3R8L0BbpCxcjVuh2igF2reNc7KPnGN3e_r0FluiLvnoiIm58jDveP7woeVYxJ4zNEGendsoWfmVQrOkxSz09ThEDDgi0bPYFgJcmfGcS9yR_vTSOCDVnkG2ymdCVTSLMiExHNhRPtCyOmTfpN1GSMv33Roxm9rDkU3rfGc00pykWFsk5pITwptZn_0vZO9j76xIADmcM-zhCdEijVSjV4hI98nIFtpUw8ebVzMi1G4DCHYgQv6qd7OciInLAuea4Q2jtGMlqBGw_KGYv2Q84KHMwNmrDv_-KXEABwXlTOH2SZORpxfUfhYGRbzz87OVw8riVJfn9nKsVux4l5174DZ_VP_TdOTtzY2S2l8aKVYrG2Edq_Cc9-V2IO-bZ-F60jEr6cEz2Y4VkxTdtn-J98f_l9qgb79vtmgkUCRfebAgbVVEDHb_9Vh7lMEaEdwNv8C2BMZjUz4rFJI7LiivtQvry2NO-3FdDm00]--></g></svg>