<?xml version="1.0" encoding="us-ascii" standalone="no"?><svg xmlns="http://www.w3.org/2000/svg" xmlns:xlink="http://www.w3.org/1999/xlink" contentStyleType="text/css" height="475px" preserveAspectRatio="none" style="width:297px;height:475px;background:#FFFFFF;" version="1.1" viewBox="0 0 297 475" width="297px" zoomAndPan="magnify"><defs/><g><text fill="#000000" font-family="sans-serif" font-size="14" font-weight="bold" lengthAdjust="spacing" textLength="245" x="10" y="24.5332">People Search - C4 - Context level)</text><!--entity TraderX.Actors.Trader--><g id="elem_TraderX.Actors.Trader"><ellipse cx="136" cy="67.1094" fill="#08427B" rx="16" ry="16" style="stroke:#073B6F;stroke-width:0.5;"/><path d="M136,87.1094 C140,87.1094 143,87.1094 147,83.1094 C155,83.1094 163,91.1094 163,99.1094 L163,103.1094 C163,107.1094 159,111.1094 155,111.1094 L117,111.1094 C113,111.1094 109,107.1094 109,103.1094 L109,99.1094 C109,91.1094 117,83.1094 125,83.1094 C129,87.1094 132,87.1094 136,87.1094 " fill="#08427B" style="stroke:#073B6F;stroke-width:0.5;"/><text fill="#08427B" font-family="sans-serif" font-size="16" font-weight="bold" lengthAdjust="spacing" textLength="50" x="111" y="128.2188">Trader</text></g><!--entity TraderX.SoftwareSystems.TraderX--><g id="elem_TraderX.SoftwareSystems.TraderX"><rect fill="#1168BD" height="75.3438" rx="2.5" ry="2.5" style="stroke:#3C7FC0;stroke-width:0.5;" width="81" x="95.5" y="199.6094"/><text fill="#FFFFFF" font-family="sans-serif" font-size="16" font-weight="bold" lengthAdjust="spacing" textLength="61" x="105.5" y="226.2188">TraderX</text><text fill="#FFFFFF" font-family="sans-serif" font-size="14" lengthAdjust="spacing" textLength="4" x="134" y="244.2676">&#160;</text><text fill="#FFFFFF" font-family="sans-serif" font-size="14" lengthAdjust="spacing" textLength="51" x="110.5" y="261.877">TraderX</text></g><!--entity TraderX.SoftwareSystems.UserDirectory--><g id="elem_TraderX.SoftwareSystems.UserDirectory"><rect fill="#1168BD" height="40.125" rx="2.5" ry="2.5" style="stroke:#3C7FC0;stroke-width:0.5;" width="130" x="71" y="342.6094"/><text fill="#FFFFFF" font-family="sans-serif" font-size="16" font-weight="bold" lengthAdjust="spacing" textLength="36" x="81" y="369.2188">User</text><text fill="#FFFFFF" font-family="sans-serif" font-size="16" font-weight="bold" lengthAdjust="spacing" textLength="4" x="117" y="369.2188">&#160;</text><text fill="#FFFFFF" font-family="sans-serif" font-size="16" font-weight="bold" lengthAdjust="spacing" textLength="70" x="121" y="369.2188">Directory</text></g><polygon fill="none" points="136,199.4709,139,191.4709,133,191.4709,136,199.4709" style="stroke:#666666;stroke-width:1.0;"/><path d="M136,131.8392 C136,152.9843 136,170.8113 136,191.4709 " fill="none" style="stroke:#666666;stroke-width:1.0;"/><text fill="#666666" font-family="sans-serif" font-size="12" font-weight="bold" lengthAdjust="spacing" textLength="152" x="137" y="163.0664">Type Ahead People Search</text><text fill="#666666" font-family="sans-serif" font-size="12" font-weight="bold" lengthAdjust="spacing" textLength="46" x="190" y="178.1602">[HTTPS]</text><polygon fill="none" points="136,342.3845,139,334.3845,133,334.3845,136,342.3845" style="stroke:#666666;stroke-width:1.0;"/><path d="M136,274.8291 C136,297.013 136,316.3851 136,334.3845 " fill="none" style="stroke:#666666;stroke-width:1.0;"/><text fill="#666666" font-family="sans-serif" font-size="12" font-weight="bold" lengthAdjust="spacing" textLength="107" x="137" y="306.0664">Select People Data</text><text fill="#666666" font-family="sans-serif" font-size="12" font-weight="bold" lengthAdjust="spacing" textLength="39" x="171" y="321.1602">[LDAP]</text><rect fill="none" height="17.6094" style="stroke:none;stroke-width:1.0;" width="78" x="105" y="395.6094"/><text fill="#000000" font-family="sans-serif" font-size="14" font-weight="bold" lengthAdjust="spacing" textLength="53" x="105" y="410.1426">Legend</text><text fill="#FFFFFF" font-family="sans-serif" font-size="14" lengthAdjust="spacing" textLength="4" x="158" y="410.1426">&#160;</text><rect fill="#08427B" height="17.6094" style="stroke:none;stroke-width:1.0;" width="78" x="105" y="413.2188"/><text fill="#073B6F" font-family="sans-serif" font-size="14" lengthAdjust="spacing" textLength="14" x="109" y="427.752">&#9647;</text><text fill="#FFFFFF" font-family="sans-serif" font-size="14" lengthAdjust="spacing" textLength="4" x="123" y="427.752">&#160;</text><text fill="#FFFFFF" font-family="sans-serif" font-size="14" lengthAdjust="spacing" textLength="44" x="131" y="427.752">person</text><text fill="#FFFFFF" font-family="sans-serif" font-size="14" lengthAdjust="spacing" textLength="4" x="179" y="427.752">&#160;</text><rect fill="#1168BD" height="17.6094" style="stroke:none;stroke-width:1.0;" width="78" x="105" y="430.8281"/><text fill="#3C7FC0" font-family="sans-serif" font-size="14" lengthAdjust="spacing" textLength="14" x="109" y="445.3613">&#9647;</text><text fill="#FFFFFF" font-family="sans-serif" font-size="14" lengthAdjust="spacing" textLength="4" x="123" y="445.3613">&#160;</text><text fill="#FFFFFF" font-family="sans-serif" font-size="14" lengthAdjust="spacing" textLength="44" x="131" y="445.3613">system</text><text fill="#FFFFFF" font-family="sans-serif" font-size="14" lengthAdjust="spacing" textLength="4" x="179" y="445.3613">&#160;</text><line style="stroke:none;stroke-width:1.0;" x1="105" x2="183" y1="395.6094" y2="395.6094"/><line style="stroke:none;stroke-width:1.0;" x1="105" x2="183" y1="413.2188" y2="413.2188"/><line style="stroke:none;stroke-width:1.0;" x1="105" x2="183" y1="430.8281" y2="430.8281"/><line style="stroke:none;stroke-width:1.0;" x1="105" x2="183" y1="448.4375" y2="448.4375"/><line style="stroke:none;stroke-width:1.0;" x1="105" x2="105" y1="395.6094" y2="448.4375"/><line style="stroke:none;stroke-width:1.0;" x1="183" x2="183" y1="395.6094" y2="448.4375"/><!--SRC=[ZLBHRgCm47pdArnQgK5gUSfJfJoWaBkU50KKg9hJvOJsy0PGZOrifpd-_kpI4b1J7GXXxsXdPppugf5Gr40OjEAeYQfH0mVdgk8vEr8alh-tRpvN- -KyMmgkyQ_scsFD72UWTCMmHgvJA6Qkqg3nWUF9lICtVugbO48k2ed8JNqmp0wvFhmzjaT8YdBSfqgWubJnOk5-0wRGzIxBv2Nm0kbGIaWBJT3g6wUAIQp5wrXC8fsWr7LTaB4wMsIVSxFnZXDX5SS1udsc3h8uq_j3dlaTT670u7pd0PttCzlKndVo63rdyMgRH9iiZhRfDlYHpZnd7VoCdj8iZU8iZ9ut1d7KIyKRa50JEqEt3P96iDOMZgChpP34A1gp90WoByazMSxjfxjZXE4hCZCdHga4dwKIJAmxFyYraChloZlYTXjZtJMn9gtIMFUzYJZe4qZiu0_IhcVjtC7sl-mdXJAi95e3hI7QclJ0kmF79FkLrmcsR4f1YK37sUpvhySqZPFVRxy82hMuRQJG8XVieTIwKRVUIFXBXQbdIv2P_OU943GO2-imY2yvO1GQO-3zSgnNtrURSERz0m00]--></g></svg>