<?xml version="1.0" encoding="us-ascii" standalone="no"?><svg xmlns="http://www.w3.org/2000/svg" xmlns:xlink="http://www.w3.org/1999/xlink" contentStyleType="text/css" height="475px" preserveAspectRatio="none" style="width:316px;height:475px;background:#FFFFFF;" version="1.1" viewBox="0 0 316 475" width="316px" zoomAndPan="magnify"><defs/><g><text fill="#000000" font-family="sans-serif" font-size="14" font-weight="bold" lengthAdjust="spacing" textLength="288" x="10" y="24.5332">People Search - C4 Static - Context level)</text><!--entity TraderX.Actors.Trader--><g id="elem_TraderX.Actors.Trader"><ellipse cx="157.5" cy="67.1094" fill="#08427B" rx="16" ry="16" style="stroke:#073B6F;stroke-width:0.5;"/><path d="M157.5,87.1094 C161.5,87.1094 164.5,87.1094 168.5,83.1094 C176.5,83.1094 184.5,91.1094 184.5,99.1094 L184.5,103.1094 C184.5,107.1094 180.5,111.1094 176.5,111.1094 L138.5,111.1094 C134.5,111.1094 130.5,107.1094 130.5,103.1094 L130.5,99.1094 C130.5,91.1094 138.5,83.1094 146.5,83.1094 C150.5,87.1094 153.5,87.1094 157.5,87.1094 " fill="#08427B" style="stroke:#073B6F;stroke-width:0.5;"/><text fill="#08427B" font-family="sans-serif" font-size="16" font-weight="bold" lengthAdjust="spacing" textLength="50" x="132.5" y="128.2188">Trader</text></g><!--entity TraderX.SoftwareSystems.TraderX--><g id="elem_TraderX.SoftwareSystems.TraderX"><rect fill="#1168BD" height="75.3438" rx="2.5" ry="2.5" style="stroke:#3C7FC0;stroke-width:0.5;" width="81" x="117" y="199.6094"/><text fill="#FFFFFF" font-family="sans-serif" font-size="16" font-weight="bold" lengthAdjust="spacing" textLength="61" x="127" y="226.2188">TraderX</text><text fill="#FFFFFF" font-family="sans-serif" font-size="14" lengthAdjust="spacing" textLength="4" x="155.5" y="244.2676">&#160;</text><text fill="#FFFFFF" font-family="sans-serif" font-size="14" lengthAdjust="spacing" textLength="51" x="132" y="261.877">TraderX</text></g><!--entity TraderX.SoftwareSystems.UserDirectory--><g id="elem_TraderX.SoftwareSystems.UserDirectory"><rect fill="#1168BD" height="40.125" rx="2.5" ry="2.5" style="stroke:#3C7FC0;stroke-width:0.5;" width="130" x="92.5" y="342.6094"/><text fill="#FFFFFF" font-family="sans-serif" font-size="16" font-weight="bold" lengthAdjust="spacing" textLength="36" x="102.5" y="369.2188">User</text><text fill="#FFFFFF" font-family="sans-serif" font-size="16" font-weight="bold" lengthAdjust="spacing" textLength="4" x="138.5" y="369.2188">&#160;</text><text fill="#FFFFFF" font-family="sans-serif" font-size="16" font-weight="bold" lengthAdjust="spacing" textLength="70" x="142.5" y="369.2188">Directory</text></g><polygon fill="none" points="157.5,199.4709,160.5,191.4709,154.5,191.4709,157.5,199.4709" style="stroke:#666666;stroke-width:1.0;"/><path d="M157.5,131.8392 C157.5,152.9843 157.5,170.8113 157.5,191.4709 " fill="none" style="stroke:#666666;stroke-width:1.0;"/><text fill="#666666" font-family="sans-serif" font-size="12" font-weight="bold" lengthAdjust="spacing" textLength="29" x="167" y="163.0664">Uses</text><text fill="#666666" font-family="sans-serif" font-size="12" font-weight="bold" lengthAdjust="spacing" textLength="46" x="158.5" y="178.1602">[HTTPS]</text><polygon fill="none" points="157.5,342.3845,160.5,334.3845,154.5,334.3845,157.5,342.3845" style="stroke:#666666;stroke-width:1.0;"/><path d="M157.5,274.8291 C157.5,297.013 157.5,316.3851 157.5,334.3845 " fill="none" style="stroke:#666666;stroke-width:1.0;"/><text fill="#666666" font-family="sans-serif" font-size="12" font-weight="bold" lengthAdjust="spacing" textLength="29" x="163.5" y="306.0664">Uses</text><text fill="#666666" font-family="sans-serif" font-size="12" font-weight="bold" lengthAdjust="spacing" textLength="39" x="158.5" y="321.1602">[LDAP]</text><rect fill="none" height="17.6094" style="stroke:none;stroke-width:1.0;" width="78" x="126.5" y="395.6094"/><text fill="#000000" font-family="sans-serif" font-size="14" font-weight="bold" lengthAdjust="spacing" textLength="53" x="126.5" y="410.1426">Legend</text><text fill="#FFFFFF" font-family="sans-serif" font-size="14" lengthAdjust="spacing" textLength="4" x="179.5" y="410.1426">&#160;</text><rect fill="#08427B" height="17.6094" style="stroke:none;stroke-width:1.0;" width="78" x="126.5" y="413.2188"/><text fill="#073B6F" font-family="sans-serif" font-size="14" lengthAdjust="spacing" textLength="14" x="130.5" y="427.752">&#9647;</text><text fill="#FFFFFF" font-family="sans-serif" font-size="14" lengthAdjust="spacing" textLength="4" x="144.5" y="427.752">&#160;</text><text fill="#FFFFFF" font-family="sans-serif" font-size="14" lengthAdjust="spacing" textLength="44" x="152.5" y="427.752">person</text><text fill="#FFFFFF" font-family="sans-serif" font-size="14" lengthAdjust="spacing" textLength="4" x="200.5" y="427.752">&#160;</text><rect fill="#1168BD" height="17.6094" style="stroke:none;stroke-width:1.0;" width="78" x="126.5" y="430.8281"/><text fill="#3C7FC0" font-family="sans-serif" font-size="14" lengthAdjust="spacing" textLength="14" x="130.5" y="445.3613">&#9647;</text><text fill="#FFFFFF" font-family="sans-serif" font-size="14" lengthAdjust="spacing" textLength="4" x="144.5" y="445.3613">&#160;</text><text fill="#FFFFFF" font-family="sans-serif" font-size="14" lengthAdjust="spacing" textLength="44" x="152.5" y="445.3613">system</text><text fill="#FFFFFF" font-family="sans-serif" font-size="14" lengthAdjust="spacing" textLength="4" x="200.5" y="445.3613">&#160;</text><line style="stroke:none;stroke-width:1.0;" x1="126.5" x2="204.5" y1="395.6094" y2="395.6094"/><line style="stroke:none;stroke-width:1.0;" x1="126.5" x2="204.5" y1="413.2188" y2="413.2188"/><line style="stroke:none;stroke-width:1.0;" x1="126.5" x2="204.5" y1="430.8281" y2="430.8281"/><line style="stroke:none;stroke-width:1.0;" x1="126.5" x2="204.5" y1="448.4375" y2="448.4375"/><line style="stroke:none;stroke-width:1.0;" x1="126.5" x2="126.5" y1="395.6094" y2="448.4375"/><line style="stroke:none;stroke-width:1.0;" x1="204.5" x2="204.5" y1="395.6094" y2="448.4375"/><!--SRC=[bLBHQjj047pNLrpKGYn8zUIdW1-4xJO5OmbB8Ivr45jfBOkUxewzSrpzVU-YH9Q9GnmXqEsmipCxkYj5K3N0EBHoRvXkq800xweM1T-NoC9muzvYh3VJSJwLmk0_4wfzmpqlAiivnmQ5oQ0Q-Tg0mLk11_-6VVrJJIMNDAa8KTXwQvaTycNx_BWUIINIQP_UGIaFjQWc_dVW6ltWl4on0r5XEPIIvA0BjFh6IyK86_bqAaPONg3KTPsHSJehv6zpS_6U9i9hWGCaU4iTP76azqiU-HrqPi1Wl-E0plkHRMlhExsB7_9alahZPPx4gsmL_Sn6WRU8ViNtMPx5IJwB7vOMyVJVMYWWQ9YROLg5J4dUkiBpJ6quiWIbifyKWOeT-yQcOvPQGtNXpjrLOnoVaDjn2PAMOfGHs7JNOLGOIJhioXlcTmUxWM_JJLjjiEbxKxar1o3iu5VIkcUj_S7nG_QzHfhLXCv0QuckPZtmui2p0R_dzMDRTgJUYDztMPQaZyz_1IezkLOaZImalzqPe_HrS2BoxhHFxE545xCeEQV9Ir1MykK6BEO_vilPAFWF]--></g></svg>