<?xml version="1.0" encoding="us-ascii" standalone="no"?><svg xmlns="http://www.w3.org/2000/svg" xmlns:xlink="http://www.w3.org/1999/xlink" contentStyleType="text/css" height="432px" preserveAspectRatio="none" style="width:603px;height:432px;background:#FFFFFF;" version="1.1" viewBox="0 0 603 432" width="603px" zoomAndPan="magnify"><defs/><g><text fill="#000000" font-family="sans-serif" font-size="14" font-weight="bold" lengthAdjust="spacing" textLength="575" x="10" y="29.5332">Big Bank Plc - Internet Banking - Mobile App - Sign In - Sequence - Container level</text><rect fill="#FFFFFF" height="375.3828" style="stroke:#181818;stroke-width:0.5;" width="317.5" x="164.25" y="44.6094"/><text fill="#000000" font-family="sans-serif" font-size="13" font-weight="bold" lengthAdjust="spacing" textLength="105" x="270.5" y="58.1045">Internet Banking</text><rect fill="none" height="144.1094" style="stroke:#000000;stroke-width:1.5;" width="339.5" x="158.25" y="192.2734"/><rect fill="none" height="65.0547" style="stroke:#000000;stroke-width:1.5;" width="235.5" x="252.25" y="264.3281"/><line style="stroke:#181818;stroke-width:0.5;stroke-dasharray:5.0,5.0;" x1="125.25" x2="125.25" y1="128.5703" y2="353.3828"/><line style="stroke:#181818;stroke-width:0.5;stroke-dasharray:5.0,5.0;" x1="210.25" x2="210.25" y1="128.5703" y2="353.3828"/><line style="stroke:#181818;stroke-width:0.5;stroke-dasharray:5.0,5.0;" x1="316.25" x2="316.25" y1="128.5703" y2="353.3828"/><line style="stroke:#181818;stroke-width:0.5;stroke-dasharray:5.0,5.0;" x1="443.75" x2="443.75" y1="128.5703" y2="353.3828"/><rect fill="#E2E2F0" height="31.6094" rx="2.5" ry="2.5" style="stroke:#181818;stroke-width:0.5;" width="65" x="93.25" y="95.9609"/><text fill="#000000" font-family="sans-serif" font-size="14" lengthAdjust="spacing" textLength="51" x="100.25" y="117.4941">External</text><rect fill="#E2E2F0" height="31.6094" rx="2.5" ry="2.5" style="stroke:#181818;stroke-width:0.5;" width="65" x="93.25" y="352.3828"/><text fill="#000000" font-family="sans-serif" font-size="14" lengthAdjust="spacing" textLength="51" x="100.25" y="373.916">External</text><rect fill="#E2E2F0" height="31.6094" rx="2.5" ry="2.5" style="stroke:#181818;stroke-width:0.5;" width="84" x="168.25" y="95.9609"/><text fill="#000000" font-family="sans-serif" font-size="14" lengthAdjust="spacing" textLength="70" x="175.25" y="117.4941">Mobile App</text><rect fill="#E2E2F0" height="31.6094" rx="2.5" ry="2.5" style="stroke:#181818;stroke-width:0.5;" width="84" x="168.25" y="352.3828"/><text fill="#000000" font-family="sans-serif" font-size="14" lengthAdjust="spacing" textLength="70" x="175.25" y="373.916">Mobile App</text><rect fill="#E2E2F0" height="31.6094" rx="2.5" ry="2.5" style="stroke:#181818;stroke-width:0.5;" width="108" x="262.25" y="95.9609"/><text fill="#000000" font-family="sans-serif" font-size="14" lengthAdjust="spacing" textLength="94" x="269.25" y="117.4941">API Application</text><rect fill="#E2E2F0" height="31.6094" rx="2.5" ry="2.5" style="stroke:#181818;stroke-width:0.5;" width="108" x="262.25" y="352.3828"/><text fill="#000000" font-family="sans-serif" font-size="14" lengthAdjust="spacing" textLength="94" x="269.25" y="373.916">API Application</text><text fill="#000000" font-family="sans-serif" font-size="14" lengthAdjust="spacing" textLength="61" x="410.75" y="125.4941">Database</text><path d="M426.25,74.9609 C426.25,64.9609 444.25,64.9609 444.25,64.9609 C444.25,64.9609 462.25,64.9609 462.25,74.9609 L462.25,100.9609 C462.25,110.9609 444.25,110.9609 444.25,110.9609 C444.25,110.9609 426.25,110.9609 426.25,100.9609 L426.25,74.9609 " fill="#E2E2F0" style="stroke:#181818;stroke-width:1.5;"/><path d="M426.25,74.9609 C426.25,84.9609 444.25,84.9609 444.25,84.9609 C444.25,84.9609 462.25,84.9609 462.25,74.9609 " fill="none" style="stroke:#181818;stroke-width:1.5;"/><text fill="#000000" font-family="sans-serif" font-size="14" lengthAdjust="spacing" textLength="61" x="410.75" y="366.916">Database</text><path d="M426.25,379.9922 C426.25,369.9922 444.25,369.9922 444.25,369.9922 C444.25,369.9922 462.25,369.9922 462.25,379.9922 L462.25,405.9922 C462.25,415.9922 444.25,415.9922 444.25,415.9922 C444.25,415.9922 426.25,415.9922 426.25,405.9922 L426.25,379.9922 " fill="#E2E2F0" style="stroke:#181818;stroke-width:1.5;"/><path d="M426.25,379.9922 C426.25,389.9922 444.25,389.9922 444.25,389.9922 C444.25,389.9922 462.25,389.9922 462.25,379.9922 " fill="none" style="stroke:#181818;stroke-width:1.5;"/><polygon fill="#181818" points="198.25,173.2734,208.25,177.2734,198.25,181.2734,202.25,177.2734" style="stroke:#181818;stroke-width:1.0;"/><line style="stroke:#181818;stroke-width:1.0;" x1="125.75" x2="204.25" y1="177.2734" y2="177.2734"/><text fill="#000000" font-family="sans-serif" font-size="13" lengthAdjust="spacing" textLength="40" x="132.75" y="156.0654">Sign In</text><text fill="#000000" font-family="sans-serif" font-size="13" lengthAdjust="spacing" textLength="49" x="132.75" y="172.417">[HTTPS]</text><path d="M158.25,192.2734 L248.25,192.2734 L248.25,200.625 L238.25,210.625 L158.25,210.625 L158.25,192.2734 " fill="#EEEEEE" style="stroke:#000000;stroke-width:1.5;"/><rect fill="none" height="144.1094" style="stroke:#000000;stroke-width:1.5;" width="339.5" x="158.25" y="192.2734"/><text fill="#000000" font-family="sans-serif" font-size="13" font-weight="bold" lengthAdjust="spacing" textLength="45" x="173.25" y="206.7686">Sign In</text><polygon fill="#181818" points="304.25,245.3281,314.25,249.3281,304.25,253.3281,308.25,249.3281" style="stroke:#181818;stroke-width:1.0;"/><line style="stroke:#181818;stroke-width:1.0;" x1="210.25" x2="310.25" y1="249.3281" y2="249.3281"/><text fill="#000000" font-family="sans-serif" font-size="13" lengthAdjust="spacing" textLength="40" x="217.25" y="228.1201">Sign In</text><text fill="#000000" font-family="sans-serif" font-size="13" lengthAdjust="spacing" textLength="49" x="217.25" y="244.4717">[HTTPS]</text><path d="M252.25,264.3281 L342.25,264.3281 L342.25,272.6797 L332.25,282.6797 L252.25,282.6797 L252.25,264.3281 " fill="#EEEEEE" style="stroke:#000000;stroke-width:1.5;"/><rect fill="none" height="65.0547" style="stroke:#000000;stroke-width:1.5;" width="235.5" x="252.25" y="264.3281"/><text fill="#000000" font-family="sans-serif" font-size="13" font-weight="bold" lengthAdjust="spacing" textLength="45" x="267.25" y="278.8232">Sign In</text><polygon fill="#181818" points="432.25,317.3828,442.25,321.3828,432.25,325.3828,436.25,321.3828" style="stroke:#181818;stroke-width:1.0;"/><line style="stroke:#181818;stroke-width:1.0;" x1="316.25" x2="438.25" y1="321.3828" y2="321.3828"/><text fill="#000000" font-family="sans-serif" font-size="13" lengthAdjust="spacing" textLength="104" x="323.25" y="300.1748">Authenticate User</text><text fill="#000000" font-family="sans-serif" font-size="13" lengthAdjust="spacing" textLength="83" x="323.25" y="316.5264">[TCP/IP, SQL]</text><!--SRC=[jP9DJyCm38Rl-HLMkR9ouSG1gIiWAe5Kr28Ei4FQcIuYEALrsVZtkDq2-xYWLKIAP5lEyxvnmeOjmjHKCDNq1gajOG89CJQ4FDGCLLAwTuMHngYk9SbCHTBKH_ZH8PKeOUo8jI5imE8dMgLgtR0fJQs98RXUzKXj0z0jnEU3merrop1phxpK3MPVBUDx6_h6TQvKuLOGx1iAuEHfOHWLoDhH-VKvACd5-YDohGCXpzmWmn__RRY62EEG7wL93xUcr6mSZH0HqXPeK9fhreLk4OAhJJI2xn4AQGuoHQNKt-SEaykniuCB_qzUwFaspzDifgh6TRKlgx42HtlS7Vr_6TrJETgjVqZn6NMyGE8UYV3OOYEEypWzIz9Jo1xkPlrR3rjz0m00]--></g></svg>