<?xml version="1.0" encoding="us-ascii" standalone="no"?><svg xmlns="http://www.w3.org/2000/svg" xmlns:xlink="http://www.w3.org/1999/xlink" contentStyleType="text/css" height="254.375px" preserveAspectRatio="none" style="width:400px;height:254px;background:#FFFFFF;" version="1.1" viewBox="0 0 400 254" width="400px" zoomAndPan="magnify"><defs/><g><text fill="#000000" font-family="sans-serif" font-size="8.75" font-weight="bold" lengthAdjust="spacing" textLength="320" x="40.9375" y="18.4583">Internet Banking - Mobile App - View Customer Details - CONTAINER level</text><rect fill="#FFFFFF" height="223.3643" style="stroke:#181818;stroke-width:0.3125;" width="167.5" x="92.1875" y="27.8809"/><text fill="#000000" font-family="sans-serif" font-size="8.125" font-weight="bold" lengthAdjust="spacing" textLength="65.625" x="143.125" y="36.3153">Internet Banking</text><rect fill="none" height="127.7881" style="stroke:#000000;stroke-width:0.9375;" width="307.8125" x="88.4375" y="90.5762"/><rect fill="none" height="30.4395" style="stroke:#000000;stroke-width:0.9375;" width="206.5625" x="183.4375" y="125.3906"/><rect fill="none" height="30.4395" style="stroke:#000000;stroke-width:0.9375;" width="206.5625" x="183.4375" y="183.5498"/><line style="stroke:#181818;stroke-width:0.3125;stroke-dasharray:5.0,5.0;" x1="23.125" x2="23.125" y1="60.9814" y2="228.9893"/><line style="stroke:#181818;stroke-width:0.3125;stroke-dasharray:5.0,5.0;" x1="120.9375" x2="120.9375" y1="60.9814" y2="228.9893"/><line style="stroke:#181818;stroke-width:0.3125;stroke-dasharray:5.0,5.0;" x1="223.4375" x2="223.4375" y1="60.9814" y2="228.9893"/><line style="stroke:#181818;stroke-width:0.3125;stroke-dasharray:5.0,5.0;" x1="325.625" x2="325.625" y1="60.9814" y2="228.9893"/><rect fill="#E2E2F0" height="19.7559" rx="1.5625" ry="1.5625" style="stroke:#181818;stroke-width:0.3125;" width="40.625" x="3.125" y="40.6006"/><text fill="#000000" font-family="sans-serif" font-size="8.75" lengthAdjust="spacing" textLength="31.875" x="7.5" y="54.0588">External</text><rect fill="#E2E2F0" height="19.7559" rx="1.5625" ry="1.5625" style="stroke:#181818;stroke-width:0.3125;" width="40.625" x="3.125" y="228.3643"/><text fill="#000000" font-family="sans-serif" font-size="8.75" lengthAdjust="spacing" textLength="31.875" x="7.5" y="241.8225">External</text><rect fill="#E2E2F0" height="19.7559" rx="1.5625" ry="1.5625" style="stroke:#181818;stroke-width:0.3125;" width="52.5" x="94.6875" y="40.6006"/><text fill="#000000" font-family="sans-serif" font-size="8.75" lengthAdjust="spacing" textLength="43.75" x="99.0625" y="54.0588">Mobile App</text><rect fill="#E2E2F0" height="19.7559" rx="1.5625" ry="1.5625" style="stroke:#181818;stroke-width:0.3125;" width="52.5" x="94.6875" y="228.3643"/><text fill="#000000" font-family="sans-serif" font-size="8.75" lengthAdjust="spacing" textLength="43.75" x="99.0625" y="241.8225">Mobile App</text><rect fill="#E2E2F0" height="19.7559" rx="1.5625" ry="1.5625" style="stroke:#181818;stroke-width:0.3125;" width="67.5" x="189.6875" y="40.6006"/><text fill="#000000" font-family="sans-serif" font-size="8.75" lengthAdjust="spacing" textLength="58.75" x="194.0625" y="54.0588">API Application</text><rect fill="#E2E2F0" height="19.7559" rx="1.5625" ry="1.5625" style="stroke:#181818;stroke-width:0.3125;" width="67.5" x="189.6875" y="228.3643"/><text fill="#000000" font-family="sans-serif" font-size="8.75" lengthAdjust="spacing" textLength="58.75" x="194.0625" y="241.8225">API Application</text><rect fill="#E2E2F0" height="19.7559" rx="1.5625" ry="1.5625" style="stroke:#181818;stroke-width:0.3125;" width="115.625" x="268.125" y="40.6006"/><text fill="#000000" font-family="sans-serif" font-size="8.75" lengthAdjust="spacing" textLength="106.875" x="272.5" y="54.0588">Mainframe Banking System</text><rect fill="#E2E2F0" height="19.7559" rx="1.5625" ry="1.5625" style="stroke:#181818;stroke-width:0.3125;" width="115.625" x="268.125" y="228.3643"/><text fill="#000000" font-family="sans-serif" font-size="8.75" lengthAdjust="spacing" textLength="106.875" x="272.5" y="241.8225">Mainframe Banking System</text><polygon fill="#181818" points="113.4375,78.7012,119.6875,81.2012,113.4375,83.7012,115.9375,81.2012" style="stroke:#181818;stroke-width:0.625;"/><line style="stroke:#181818;stroke-width:0.625;" x1="23.4375" x2="117.1875" y1="81.2012" y2="81.2012"/><text fill="#000000" font-family="sans-serif" font-size="8.125" lengthAdjust="spacing" textLength="82.5" x="27.8125" y="78.1659">View Customer Details</text><path d="M88.4375,90.5762 L205.9375,90.5762 L205.9375,95.7959 L199.6875,102.0459 L88.4375,102.0459 L88.4375,90.5762 " fill="#EEEEEE" style="stroke:#000000;stroke-width:0.9375;"/><rect fill="none" height="127.7881" style="stroke:#000000;stroke-width:0.9375;" width="307.8125" x="88.4375" y="90.5762"/><text fill="#000000" font-family="sans-serif" font-size="8.125" font-weight="bold" lengthAdjust="spacing" textLength="89.375" x="97.8125" y="99.6356">View Customer Details</text><polygon fill="#181818" points="215.9375,113.5156,222.1875,116.0156,215.9375,118.5156,218.4375,116.0156" style="stroke:#181818;stroke-width:0.625;"/><line style="stroke:#181818;stroke-width:0.625;" x1="120.9375" x2="219.6875" y1="116.0156" y2="116.0156"/><text fill="#000000" font-family="sans-serif" font-size="8.125" lengthAdjust="spacing" textLength="50.625" x="125.3125" y="112.9803">Get Customer</text><path d="M183.4375,125.3906 L265.3125,125.3906 L265.3125,130.6104 L259.0625,136.8604 L183.4375,136.8604 L183.4375,125.3906 " fill="#EEEEEE" style="stroke:#000000;stroke-width:0.9375;"/><rect fill="none" height="30.4395" style="stroke:#000000;stroke-width:0.9375;" width="206.5625" x="183.4375" y="125.3906"/><text fill="#000000" font-family="sans-serif" font-size="8.125" font-weight="bold" lengthAdjust="spacing" textLength="53.75" x="192.8125" y="134.4501">Get Customer</text><polygon fill="#181818" points="318.4375,148.3301,324.6875,150.8301,318.4375,153.3301,320.9375,150.8301" style="stroke:#181818;stroke-width:0.625;"/><line style="stroke:#181818;stroke-width:0.625;" x1="223.4375" x2="322.1875" y1="150.8301" y2="150.8301"/><text fill="#000000" font-family="sans-serif" font-size="8.125" lengthAdjust="spacing" textLength="50.625" x="227.8125" y="147.7948">Get Customer</text><polygon fill="#181818" points="215.9375,171.6748,222.1875,174.1748,215.9375,176.6748,218.4375,174.1748" style="stroke:#181818;stroke-width:0.625;"/><line style="stroke:#181818;stroke-width:0.625;" x1="120.9375" x2="219.6875" y1="174.1748" y2="174.1748"/><text fill="#000000" font-family="sans-serif" font-size="8.125" lengthAdjust="spacing" textLength="87.5" x="125.3125" y="171.1395">Get Customer Accounts</text><path d="M183.4375,183.5498 L303.4375,183.5498 L303.4375,188.7695 L297.1875,195.0195 L183.4375,195.0195 L183.4375,183.5498 " fill="#EEEEEE" style="stroke:#000000;stroke-width:0.9375;"/><rect fill="none" height="30.4395" style="stroke:#000000;stroke-width:0.9375;" width="206.5625" x="183.4375" y="183.5498"/><text fill="#000000" font-family="sans-serif" font-size="8.125" font-weight="bold" lengthAdjust="spacing" textLength="91.875" x="192.8125" y="192.6093">Get Customer Accounts</text><polygon fill="#181818" points="318.4375,206.4893,324.6875,208.9893,318.4375,211.4893,320.9375,208.9893" style="stroke:#181818;stroke-width:0.625;"/><line style="stroke:#181818;stroke-width:0.625;" x1="223.4375" x2="322.1875" y1="208.9893" y2="208.9893"/><text fill="#000000" font-family="sans-serif" font-size="8.125" lengthAdjust="spacing" textLength="87.5" x="227.8125" y="205.954">Get Customer Accounts</text><!--SRC=[pP8zJyCm48Pt_ueZp8qO40C3KXeAoj1IKGIpcrw3XMDRzeMs_vvBsxJqWmyHXaRAOFlkUL-_vpFdPL5Aq79XAu9G8aaZHNXJnaalIvWu1LSNGf0YZP0PGc-Ge2iDbnJGWRuTApv9dEF5iy8Pf5KWMwA7MuOf7NW_VHWy9TcWzmWQtr4BmN1IkNBI44IzUKsLEW8P8BrSYjnfEuj7TaepwN6q28HbY9l2rLg8iPr3jEyfWlENLqKeWByTdQtLfL9N5NNBKES7GWrpZOnJQ_Wg1ds8Ln1c7FAJOLR3jSebAMjQY33f4qYWcG3VTI-sFXTFUKQucSQA_9Fkfc_TrgJv- -IXSzCsFRW-_bX4uMtblZXhg_bdsxlpOE_t_DuQUslBErl_8lEztUDZtFV6J-T4OuCapsrbA1p9RtjsAa5k7TM9rh_u0000]--></g></svg>