<?xml version="1.0" encoding="us-ascii" standalone="no"?><svg xmlns="http://www.w3.org/2000/svg" xmlns:xlink="http://www.w3.org/1999/xlink" contentStyleType="text/css" height="225px" preserveAspectRatio="none" style="width:538px;height:225px;background:#FFFFFF;" version="1.1" viewBox="0 0 538 225" width="538px" zoomAndPan="magnify"><defs/><g><text fill="#000000" font-family="sans-serif" font-size="14" font-weight="bold" lengthAdjust="spacing" textLength="510" x="10" y="29.5332">Buying And Merchandising App - Delete Purchase Order - CONTEXT level</text><rect fill="none" height="48.7031" style="stroke:#000000;stroke-width:1.5;" width="349" x="125" y="123.5703"/><line style="stroke:#181818;stroke-width:0.5;stroke-dasharray:5.0,5.0;" x1="84" x2="84" y1="76.2188" y2="189.2734"/><line style="stroke:#181818;stroke-width:0.5;stroke-dasharray:5.0,5.0;" x1="240" x2="240" y1="76.2188" y2="189.2734"/><line style="stroke:#181818;stroke-width:0.5;stroke-dasharray:5.0,5.0;" x1="410" x2="410" y1="76.2188" y2="189.2734"/><rect fill="#E2E2F0" height="31.6094" rx="2.5" ry="2.5" style="stroke:#181818;stroke-width:0.5;" width="65" x="52" y="43.6094"/><text fill="#000000" font-family="sans-serif" font-size="14" lengthAdjust="spacing" textLength="51" x="59" y="65.1426">External</text><rect fill="#E2E2F0" height="31.6094" rx="2.5" ry="2.5" style="stroke:#181818;stroke-width:0.5;" width="65" x="52" y="188.2734"/><text fill="#000000" font-family="sans-serif" font-size="14" lengthAdjust="spacing" textLength="51" x="59" y="209.8066">External</text><rect fill="#E2E2F0" height="31.6094" rx="2.5" ry="2.5" style="stroke:#181818;stroke-width:0.5;" width="211" x="135" y="43.6094"/><text fill="#000000" font-family="sans-serif" font-size="14" lengthAdjust="spacing" textLength="197" x="142" y="65.1426">Buying And Merchandising App</text><rect fill="#E2E2F0" height="31.6094" rx="2.5" ry="2.5" style="stroke:#181818;stroke-width:0.5;" width="211" x="135" y="188.2734"/><text fill="#000000" font-family="sans-serif" font-size="14" lengthAdjust="spacing" textLength="197" x="142" y="209.8066">Buying And Merchandising App</text><rect fill="#E2E2F0" height="31.6094" rx="2.5" ry="2.5" style="stroke:#181818;stroke-width:0.5;" width="108" x="356" y="43.6094"/><text fill="#000000" font-family="sans-serif" font-size="14" lengthAdjust="spacing" textLength="94" x="363" y="65.1426">Buying Service</text><rect fill="#E2E2F0" height="31.6094" rx="2.5" ry="2.5" style="stroke:#181818;stroke-width:0.5;" width="108" x="356" y="188.2734"/><text fill="#000000" font-family="sans-serif" font-size="14" lengthAdjust="spacing" textLength="94" x="363" y="209.8066">Buying Service</text><polygon fill="#181818" points="228.5,104.5703,238.5,108.5703,228.5,112.5703,232.5,108.5703" style="stroke:#181818;stroke-width:1.0;"/><line style="stroke:#181818;stroke-width:1.0;" x1="84.5" x2="234.5" y1="108.5703" y2="108.5703"/><text fill="#000000" font-family="sans-serif" font-size="13" lengthAdjust="spacing" textLength="132" x="91.5" y="103.7139">Delete Purchase Order</text><path d="M125,123.5703 L314,123.5703 L314,131.9219 L304,141.9219 L125,141.9219 L125,123.5703 " fill="#EEEEEE" style="stroke:#000000;stroke-width:1.5;"/><rect fill="none" height="48.7031" style="stroke:#000000;stroke-width:1.5;" width="349" x="125" y="123.5703"/><text fill="#000000" font-family="sans-serif" font-size="13" font-weight="bold" lengthAdjust="spacing" textLength="144" x="140" y="138.0654">Delete Purchase Order</text><polygon fill="#181818" points="398,160.2734,408,164.2734,398,168.2734,402,164.2734" style="stroke:#181818;stroke-width:1.0;"/><line style="stroke:#181818;stroke-width:1.0;" x1="240.5" x2="404" y1="164.2734" y2="164.2734"/><text fill="#000000" font-family="sans-serif" font-size="13" lengthAdjust="spacing" textLength="132" x="247.5" y="159.417">Delete Purchase Order</text><!--SRC=[fP6zRi9G38LtFuNB3bEd3aXjcaeCb4XXw6eb9htI_PEl4yZRznRe41Mg8aRxs9-FxOSer3b2IsFe5PDZ9Ky0QjGollIZyHq- -nRNBCqd-TQaOoP6dEChMrR6gl-M4kD6MfQSBpRls_9ZYvO7jW2HH4rZ8dd5MNbG5azsXfImU5pv7BxPi5_KOQTx4gx7fEpIugVm54yXV_awWiiYE9SLhYpfBeZxXJyXCc42oFqN9zKiWsdu9lQv1-3_M-9yUOzrVBhy4kWazF6ATi-y6-oUht7L8liMu0i0]--></g></svg>