<?xml version="1.0" encoding="us-ascii" standalone="no"?><svg xmlns="http://www.w3.org/2000/svg" xmlns:xlink="http://www.w3.org/1999/xlink" contentStyleType="text/css" height="535px" preserveAspectRatio="none" style="width:599px;height:535px;background:#FFFFFF;" version="1.1" viewBox="0 0 599 535" width="599px" zoomAndPan="magnify"><defs/><g><text fill="#000000" font-family="sans-serif" font-size="14" font-weight="bold" lengthAdjust="spacing" textLength="333" x="134.5" y="29.5332">Create New Account - Sequence - Context level</text><rect fill="none" height="48.7031" style="stroke:#000000;stroke-width:1.5;" width="288" x="10" y="93.2188"/><rect fill="none" height="139.7578" style="stroke:#000000;stroke-width:1.5;" width="470" x="10" y="155.9219"/><rect fill="none" height="109.4063" style="stroke:#000000;stroke-width:1.5;" width="583" x="10" y="309.6797"/><rect fill="none" height="48.7031" style="stroke:#000000;stroke-width:1.5;" width="583" x="10" y="433.0859"/><line style="stroke:#181818;stroke-width:0.5;stroke-dasharray:5.0,5.0;" x1="57" x2="57" y1="76.2188" y2="498.7891"/><line style="stroke:#181818;stroke-width:0.5;stroke-dasharray:5.0,5.0;" x1="213" x2="213" y1="76.2188" y2="498.7891"/><line style="stroke:#181818;stroke-width:0.5;stroke-dasharray:5.0,5.0;" x1="377" x2="377" y1="76.2188" y2="498.7891"/><line style="stroke:#181818;stroke-width:0.5;stroke-dasharray:5.0,5.0;" x1="531" x2="531" y1="76.2188" y2="498.7891"/><rect fill="#E2E2F0" height="31.6094" rx="2.5" ry="2.5" style="stroke:#181818;stroke-width:0.5;" width="75" x="20" y="43.6094"/><text fill="#000000" font-family="sans-serif" font-size="14" lengthAdjust="spacing" textLength="61" x="27" y="65.1426">Customer</text><rect fill="#E2E2F0" height="31.6094" rx="2.5" ry="2.5" style="stroke:#181818;stroke-width:0.5;" width="75" x="20" y="497.7891"/><text fill="#000000" font-family="sans-serif" font-size="14" lengthAdjust="spacing" textLength="61" x="27" y="519.3223">Customer</text><rect fill="#E2E2F0" height="31.6094" rx="2.5" ry="2.5" style="stroke:#181818;stroke-width:0.5;" width="117" x="155" y="43.6094"/><text fill="#000000" font-family="sans-serif" font-size="14" lengthAdjust="spacing" textLength="103" x="162" y="65.1426">Internet Banking</text><rect fill="#E2E2F0" height="31.6094" rx="2.5" ry="2.5" style="stroke:#181818;stroke-width:0.5;" width="117" x="155" y="497.7891"/><text fill="#000000" font-family="sans-serif" font-size="14" lengthAdjust="spacing" textLength="103" x="162" y="519.3223">Internet Banking</text><rect fill="#E2E2F0" height="31.6094" rx="2.5" ry="2.5" style="stroke:#181818;stroke-width:0.5;" width="185" x="285" y="43.6094"/><text fill="#000000" font-family="sans-serif" font-size="14" lengthAdjust="spacing" textLength="171" x="292" y="65.1426">Mainframe Banking System</text><rect fill="#E2E2F0" height="31.6094" rx="2.5" ry="2.5" style="stroke:#181818;stroke-width:0.5;" width="185" x="285" y="497.7891"/><text fill="#000000" font-family="sans-serif" font-size="14" lengthAdjust="spacing" textLength="171" x="292" y="519.3223">Mainframe Banking System</text><rect fill="#E2E2F0" height="31.6094" rx="2.5" ry="2.5" style="stroke:#181818;stroke-width:0.5;" width="103" x="480" y="43.6094"/><text fill="#000000" font-family="sans-serif" font-size="14" lengthAdjust="spacing" textLength="89" x="487" y="65.1426">E-Mail System</text><rect fill="#E2E2F0" height="31.6094" rx="2.5" ry="2.5" style="stroke:#181818;stroke-width:0.5;" width="103" x="480" y="497.7891"/><text fill="#000000" font-family="sans-serif" font-size="14" lengthAdjust="spacing" textLength="89" x="487" y="519.3223">E-Mail System</text><path d="M10,93.2188 L293,93.2188 L293,101.5703 L283,111.5703 L10,111.5703 L10,93.2188 " fill="#EEEEEE" style="stroke:#000000;stroke-width:1.5;"/><rect fill="none" height="48.7031" style="stroke:#000000;stroke-width:1.5;" width="288" x="10" y="93.2188"/><text fill="#000000" font-family="sans-serif" font-size="13" font-weight="bold" lengthAdjust="spacing" textLength="238" x="25" y="107.7139">Customer - Go to Online Banking URL</text><polygon fill="#181818" points="201.5,129.9219,211.5,133.9219,201.5,137.9219,205.5,133.9219" style="stroke:#181818;stroke-width:1.0;"/><line style="stroke:#181818;stroke-width:1.0;" x1="57.5" x2="207.5" y1="133.9219" y2="133.9219"/><text fill="#000000" font-family="sans-serif" font-size="13" lengthAdjust="spacing" textLength="49" x="64.5" y="129.0654">Navigate</text><path d="M10,155.9219 L314,155.9219 L314,164.2734 L304,174.2734 L10,174.2734 L10,155.9219 " fill="#EEEEEE" style="stroke:#000000;stroke-width:1.5;"/><rect fill="none" height="139.7578" style="stroke:#000000;stroke-width:1.5;" width="470" x="10" y="155.9219"/><text fill="#000000" font-family="sans-serif" font-size="13" font-weight="bold" lengthAdjust="spacing" textLength="259" x="25" y="170.417">Customer - Sign In and View Home Page</text><polygon fill="#181818" points="201.5,192.625,211.5,196.625,201.5,200.625,205.5,196.625" style="stroke:#181818;stroke-width:1.0;"/><line style="stroke:#181818;stroke-width:1.0;" x1="57.5" x2="207.5" y1="196.625" y2="196.625"/><text fill="#000000" font-family="sans-serif" font-size="13" lengthAdjust="spacing" textLength="40" x="64.5" y="191.7686">Sign In</text><polygon fill="#181818" points="201.5,222.9766,211.5,226.9766,201.5,230.9766,205.5,226.9766" style="stroke:#181818;stroke-width:1.0;"/><line style="stroke:#181818;stroke-width:1.0;" x1="57.5" x2="207.5" y1="226.9766" y2="226.9766"/><text fill="#000000" font-family="sans-serif" font-size="13" lengthAdjust="spacing" textLength="132" x="64.5" y="222.1201">View Customer Details</text><polygon fill="#181818" points="365.5,253.3281,375.5,257.3281,365.5,261.3281,369.5,257.3281" style="stroke:#181818;stroke-width:1.0;"/><line style="stroke:#181818;stroke-width:1.0;" x1="213.5" x2="371.5" y1="257.3281" y2="257.3281"/><text fill="#000000" font-family="sans-serif" font-size="13" lengthAdjust="spacing" textLength="81" x="220.5" y="252.4717">Get Customer</text><polygon fill="#181818" points="365.5,283.6797,375.5,287.6797,365.5,291.6797,369.5,287.6797" style="stroke:#181818;stroke-width:1.0;"/><line style="stroke:#181818;stroke-width:1.0;" x1="213.5" x2="371.5" y1="287.6797" y2="287.6797"/><text fill="#000000" font-family="sans-serif" font-size="13" lengthAdjust="spacing" textLength="140" x="220.5" y="282.8232">Get Customer Accounts</text><path d="M10,309.6797 L256,309.6797 L256,318.0313 L246,328.0313 L10,328.0313 L10,309.6797 " fill="#EEEEEE" style="stroke:#000000;stroke-width:1.5;"/><rect fill="none" height="109.4063" style="stroke:#000000;stroke-width:1.5;" width="583" x="10" y="309.6797"/><text fill="#000000" font-family="sans-serif" font-size="13" font-weight="bold" lengthAdjust="spacing" textLength="201" x="25" y="324.1748">Customer - Create New Account</text><polygon fill="#181818" points="201.5,346.3828,211.5,350.3828,201.5,354.3828,205.5,350.3828" style="stroke:#181818;stroke-width:1.0;"/><line style="stroke:#181818;stroke-width:1.0;" x1="57.5" x2="207.5" y1="350.3828" y2="350.3828"/><text fill="#000000" font-family="sans-serif" font-size="13" lengthAdjust="spacing" textLength="90" x="64.5" y="345.5264">Create Account</text><polygon fill="#181818" points="365.5,376.7344,375.5,380.7344,365.5,384.7344,369.5,380.7344" style="stroke:#181818;stroke-width:1.0;"/><line style="stroke:#181818;stroke-width:1.0;" x1="213.5" x2="371.5" y1="380.7344" y2="380.7344"/><text fill="#000000" font-family="sans-serif" font-size="13" lengthAdjust="spacing" textLength="90" x="220.5" y="375.8779">Create Account</text><polygon fill="#181818" points="519.5,407.0859,529.5,411.0859,519.5,415.0859,523.5,411.0859" style="stroke:#181818;stroke-width:1.0;"/><line style="stroke:#181818;stroke-width:1.0;" x1="213.5" x2="525.5" y1="411.0859" y2="411.0859"/><text fill="#000000" font-family="sans-serif" font-size="13" lengthAdjust="spacing" textLength="269" x="220.5" y="406.2295">Send New Account Created Notification E-Mail</text><path d="M10,433.0859 L438,433.0859 L438,441.4375 L428,451.4375 L10,451.4375 L10,433.0859 " fill="#EEEEEE" style="stroke:#000000;stroke-width:1.5;"/><rect fill="none" height="48.7031" style="stroke:#000000;stroke-width:1.5;" width="583" x="10" y="433.0859"/><text fill="#000000" font-family="sans-serif" font-size="13" font-weight="bold" lengthAdjust="spacing" textLength="383" x="25" y="447.5811">Customer - Receive New Account Created Notification E-Mail</text><polygon fill="#181818" points="519.5,469.7891,529.5,473.7891,519.5,477.7891,523.5,473.7891" style="stroke:#181818;stroke-width:1.0;"/><line style="stroke:#181818;stroke-width:1.0;" x1="57.5" x2="525.5" y1="473.7891" y2="473.7891"/><text fill="#000000" font-family="sans-serif" font-size="13" lengthAdjust="spacing" textLength="284" x="64.5" y="468.9326">Receive New Account Created Notification E-Mail</text><!--SRC=[lLJ1Ji904BtlLupSuGCyc00I954aD7gVB4CpSRjRTwSWV-_MjcYrAXZmrko-UU_jcvbUv1xJ3C7WpXK28ID1Yqe9Yo4OUq8XcDCMXbgxmWhq8Q7dWgoc-3bsLkX5mD26Z58vUc7DEKPSRrm4SHdv7c204QSZj4yBemT3BSw7GNFTBff5Fcz9e4IpJJyN9sujM_IKx89G5WODleQtoUwGxTfZHWqRL6M_aUxhwhBglCqzwKUKEP1mKc9h5fLwL-JGF3-6E7KW3kwjOVlkz65vgxuF3VfNHwG2bp373QUnbOhiwgk3X5CBCmjeL_38iTatyG8McD8fFTGgfwHyCxkllewpooQe8oX-5kmUXAWxZHEw7-3_bMiMCNItykl6dZBlchs3-KmlFvVWXuqi9pD6sVh9LRBnp0clMQEmir2jV7ViIzB46pgOvCyzQHi_LhRqhbu1]--></g></svg>