<?xml version="1.0" encoding="us-ascii" standalone="no"?><svg xmlns="http://www.w3.org/2000/svg" xmlns:xlink="http://www.w3.org/1999/xlink" contentStyleType="text/css" height="768px" preserveAspectRatio="none" style="width:704px;height:768px;background:#FFFFFF;" version="1.1" viewBox="0 0 704 768" width="704px" zoomAndPan="magnify"><defs/><g><text fill="#000000" font-family="sans-serif" font-size="14" font-weight="bold" lengthAdjust="spacing" textLength="294" x="192" y="24.5332">Create New Account - C4 - Container level</text><!--cluster BigBankPlc.SoftwareSystems.InternetBanking--><g id="cluster_BigBankPlc.SoftwareSystems.InternetBanking"><rect fill="none" height="466" rx="2.5" ry="2.5" style="stroke:#444444;stroke-width:1.0;stroke-dasharray:7.0,7.0;" width="171" x="332.5" y="166.6094"/><text fill="#444444" font-family="sans-serif" font-size="16" font-weight="bold" lengthAdjust="spacing" textLength="126" x="355" y="185.2188">Internet Banking</text><text fill="#444444" font-family="sans-serif" font-size="12" font-weight="bold" lengthAdjust="spacing" textLength="51" x="392.5" y="201.1914">[System]</text></g><!--entity BigBankPlc.Actors.Customer--><g id="elem_BigBankPlc.Actors.Customer"><ellipse cx="191.5" cy="59.1094" fill="#08427B" rx="16" ry="16" style="stroke:#073B6F;stroke-width:0.5;"/><path d="M191.5,79.1094 C195.5,79.1094 198.5,79.1094 202.5,75.1094 C210.5,75.1094 218.5,83.1094 218.5,91.1094 L218.5,95.1094 C218.5,99.1094 214.5,103.1094 210.5,103.1094 L172.5,103.1094 C168.5,103.1094 164.5,99.1094 164.5,95.1094 L164.5,91.1094 C164.5,83.1094 172.5,75.1094 180.5,75.1094 C184.5,79.1094 187.5,79.1094 191.5,79.1094 " fill="#08427B" style="stroke:#073B6F;stroke-width:0.5;"/><text fill="#08427B" font-family="sans-serif" font-size="16" font-weight="bold" lengthAdjust="spacing" textLength="75" x="154" y="120.2188">Customer</text></g><!--entity BigBankPlc.SoftwareSystems.MainframeBankingSystem--><g id="elem_BigBankPlc.SoftwareSystems.MainframeBankingSystem"><rect fill="#999999" height="60.25" rx="2.5" ry="2.5" style="stroke:#8A8A8A;stroke-width:0.5;" width="167" x="512" y="570.1094"/><text fill="#FFFFFF" font-family="sans-serif" font-size="16" font-weight="bold" lengthAdjust="spacing" textLength="79" x="522" y="596.7188">Mainframe</text><text fill="#FFFFFF" font-family="sans-serif" font-size="16" font-weight="bold" lengthAdjust="spacing" textLength="4" x="601" y="596.7188">&#160;</text><text fill="#FFFFFF" font-family="sans-serif" font-size="16" font-weight="bold" lengthAdjust="spacing" textLength="64" x="605" y="596.7188">Banking</text><text fill="#FFFFFF" font-family="sans-serif" font-size="16" font-weight="bold" lengthAdjust="spacing" textLength="57" x="567" y="616.8438">System</text></g><!--entity BigBankPlc.SoftwareSystems.EMailSystem--><g id="elem_BigBankPlc.SoftwareSystems.EMailSystem"><rect fill="#999999" height="40.125" rx="2.5" ry="2.5" style="stroke:#8A8A8A;stroke-width:0.5;" width="127" x="6" y="580.1094"/><text fill="#FFFFFF" font-family="sans-serif" font-size="16" font-weight="bold" lengthAdjust="spacing" textLength="46" x="16" y="606.7188">E-Mail</text><text fill="#FFFFFF" font-family="sans-serif" font-size="16" font-weight="bold" lengthAdjust="spacing" textLength="4" x="62" y="606.7188">&#160;</text><text fill="#FFFFFF" font-family="sans-serif" font-size="16" font-weight="bold" lengthAdjust="spacing" textLength="57" x="66" y="606.7188">System</text></g><!--entity BigBankPlc.SoftwareSystems.InternetBanking.Containers.WebApplication--><g id="elem_BigBankPlc.SoftwareSystems.InternetBanking.Containers.WebApplication"><rect fill="#438DD5" height="40.125" rx="2.5" ry="2.5" style="stroke:#3C7FC0;stroke-width:0.5;" width="144" x="340.5" y="212.6094"/><text fill="#FFFFFF" font-family="sans-serif" font-size="16" font-weight="bold" lengthAdjust="spacing" textLength="34" x="350.5" y="239.2188">Web</text><text fill="#FFFFFF" font-family="sans-serif" font-size="16" font-weight="bold" lengthAdjust="spacing" textLength="4" x="384.5" y="239.2188">&#160;</text><text fill="#FFFFFF" font-family="sans-serif" font-size="16" font-weight="bold" lengthAdjust="spacing" textLength="86" x="388.5" y="239.2188">Application</text></g><!--entity BigBankPlc.SoftwareSystems.InternetBanking.Containers.SinglePageApp--><g id="elem_BigBankPlc.SoftwareSystems.InternetBanking.Containers.SinglePageApp"><rect fill="#438DD5" height="40.125" rx="2.5" ry="2.5" style="stroke:#3C7FC0;stroke-width:0.5;" width="147" x="341" y="309.1094"/><text fill="#FFFFFF" font-family="sans-serif" font-size="16" font-weight="bold" lengthAdjust="spacing" textLength="92" x="351" y="335.7188">Single-Page</text><text fill="#FFFFFF" font-family="sans-serif" font-size="16" font-weight="bold" lengthAdjust="spacing" textLength="4" x="443" y="335.7188">&#160;</text><text fill="#FFFFFF" font-family="sans-serif" font-size="16" font-weight="bold" lengthAdjust="spacing" textLength="31" x="447" y="335.7188">App</text></g><!--entity BigBankPlc.SoftwareSystems.InternetBanking.Containers.APIApplication--><g id="elem_BigBankPlc.SoftwareSystems.InternetBanking.Containers.APIApplication"><rect fill="#438DD5" height="40.125" rx="2.5" ry="2.5" style="stroke:#3C7FC0;stroke-width:0.5;" width="136" x="340.5" y="447.1094"/><text fill="#FFFFFF" font-family="sans-serif" font-size="16" font-weight="bold" lengthAdjust="spacing" textLength="26" x="350.5" y="473.7188">API</text><text fill="#FFFFFF" font-family="sans-serif" font-size="16" font-weight="bold" lengthAdjust="spacing" textLength="4" x="376.5" y="473.7188">&#160;</text><text fill="#FFFFFF" font-family="sans-serif" font-size="16" font-weight="bold" lengthAdjust="spacing" textLength="86" x="380.5" y="473.7188">Application</text></g><!--entity BigBankPlc.SoftwareSystems.InternetBanking.Containers.Database--><g id="elem_BigBankPlc.SoftwareSystems.InternetBanking.Containers.Database"><path d="M345.5,585.6094 C345.5,575.6094 391.5,575.6094 391.5,575.6094 C391.5,575.6094 437.5,575.6094 437.5,585.6094 L437.5,614.7344 C437.5,624.7344 391.5,624.7344 391.5,624.7344 C391.5,624.7344 345.5,624.7344 345.5,614.7344 L345.5,585.6094 " fill="#438DD5" style="stroke:#3C7FC0;stroke-width:0.5;"/><path d="M345.5,585.6094 C345.5,595.6094 391.5,595.6094 391.5,595.6094 C391.5,595.6094 437.5,595.6094 437.5,585.6094 " fill="none" style="stroke:#3C7FC0;stroke-width:0.5;"/><text fill="#FFFFFF" font-family="sans-serif" font-size="16" font-weight="bold" lengthAdjust="spacing" textLength="72" x="355.5" y="616.2188">Database</text></g><polygon fill="none" points="388.503,212.4645,384.0537,205.1704,380.3547,209.8945,388.503,212.4645" style="stroke:#666666;stroke-width:1.0;"/><path d="M229.0818,105.7281 C256.5192,121.8341 294.3757,144.7317 326.5,166.6094 C348.0017,181.2527 365.2092,194.2252 382.2042,207.5325 " fill="none" style="stroke:#666666;stroke-width:1.0;"/><text fill="#666666" font-family="sans-serif" font-size="12" font-weight="bold" lengthAdjust="spacing" textLength="49" x="313.5" y="155.0664">Navigate</text><polygon fill="none" points="414.0959,309.0143,416.9259,300.9526,410.9273,301.0796,414.0959,309.0143" style="stroke:#666666;stroke-width:1.0;"/><path d="M412.9047,252.7329 C413.2517,269.1282 413.5798,284.629 413.9266,301.0161 " fill="none" style="stroke:#666666;stroke-width:1.0;"/><text fill="#666666" font-family="sans-serif" font-size="12" font-weight="bold" lengthAdjust="spacing" textLength="84" x="415.5" y="287.5664">Load And Start</text><polygon fill="none" points="340.9022,312.6145,333.8238,307.8296,332.4228,313.6637,340.9022,312.6145" style="stroke:#666666;stroke-width:1.0;"/><path d="M181.889,123.8841 C175.2022,161.7789 171.9357,218.4772 200.5,256.1094 C217.949,279.0976 278.3477,297.5936 333.1233,310.7466 " fill="none" style="stroke:#666666;stroke-width:1.0;"/><text fill="#666666" font-family="sans-serif" font-size="12" font-weight="bold" lengthAdjust="spacing" textLength="38" x="247" y="222.5664">Sign In</text><text fill="#666666" font-family="sans-serif" font-size="12" font-weight="bold" lengthAdjust="spacing" textLength="129" x="201.5" y="237.6602">View Customer Details</text><text fill="#666666" font-family="sans-serif" font-size="12" font-weight="bold" lengthAdjust="spacing" textLength="88" x="222" y="252.7539">Create Account</text><polygon fill="none" points="409.3426,447.01,412.6923,439.15,406.6981,438.8856,409.3426,447.01" style="stroke:#666666;stroke-width:1.0;"/><path d="M413.6531,349.3064 C412.5096,375.2262 410.8365,413.1483 409.6952,439.0178 " fill="none" style="stroke:#666666;stroke-width:1.0;"/><text fill="#666666" font-family="sans-serif" font-size="12" font-weight="bold" lengthAdjust="spacing" textLength="38" x="463" y="380.5664">Sign In</text><text fill="#666666" font-family="sans-serif" font-size="12" font-weight="bold" lengthAdjust="spacing" textLength="78" x="443" y="395.6602">Get Customer</text><text fill="#666666" font-family="sans-serif" font-size="12" font-weight="bold" lengthAdjust="spacing" textLength="135" x="414.5" y="410.7539">Get Customer Accounts</text><text fill="#666666" font-family="sans-serif" font-size="12" font-weight="bold" lengthAdjust="spacing" textLength="88" x="438" y="425.8477">Create Account</text><polygon fill="none" points="394.5501,575.6053,398.5547,568.0579,392.6046,567.2858,394.5501,575.6053" style="stroke:#666666;stroke-width:1.0;"/><path d="M406.0281,487.1579 C402.9891,510.5754 398.8619,542.3797 395.5797,567.6718 " fill="none" style="stroke:#666666;stroke-width:1.0;"/><text fill="#666666" font-family="sans-serif" font-size="12" font-weight="bold" lengthAdjust="spacing" textLength="102" x="404.5" y="533.5664">Authenticate User</text><polygon fill="none" points="575.3668,569.6884,572.9738,561.4863,568.1707,565.0822,575.3668,569.6884" style="stroke:#666666;stroke-width:1.0;"/><path d="M476.7672,487.1961 C488.8588,492.0671 500.9444,497.9929 511.5,505.1094 C537.0873,522.3601 555.1763,542.7198 570.5722,563.2843 " fill="none" style="stroke:#666666;stroke-width:1.0;"/><text fill="#666666" font-family="sans-serif" font-size="12" font-weight="bold" lengthAdjust="spacing" textLength="78" x="590" y="518.5664">Get Customer</text><text fill="#666666" font-family="sans-serif" font-size="12" font-weight="bold" lengthAdjust="spacing" textLength="135" x="561.5" y="533.6602">Get Customer Accounts</text><text fill="#666666" font-family="sans-serif" font-size="12" font-weight="bold" lengthAdjust="spacing" textLength="88" x="585" y="548.7539">Create Account</text><polygon fill="none" points="76.8158,579.995,82.7412,573.8396,77.2327,571.4612,76.8158,579.995" style="stroke:#666666;stroke-width:1.0;"/><path d="M340.4991,470.9665 C270.5146,475.0024 167.1063,484.3481 133.5,505.1094 C105.1144,522.6454 89.4863,550.6496 79.9869,572.6504 " fill="none" style="stroke:#666666;stroke-width:1.0;"/><text fill="#666666" font-family="sans-serif" font-size="12" font-weight="bold" lengthAdjust="spacing" textLength="259" x="134.5" y="533.5664">Send New Account Created Notification E-Mail</text><polygon fill="none" points="63.6903,579.7812,64.4232,571.2687,58.6452,572.8858,63.6903,579.7812" style="stroke:#666666;stroke-width:1.0;"/><path d="M153.9014,101.7168 C110.6426,124.8826 45.5,169.9964 45.5,231.6094 C45.5,231.6094 45.5,231.6094 45.5,468.1094 C45.5,508.3409 54.4313,546.6975 61.5342,572.0772 " fill="none" style="stroke:#666666;stroke-width:1.0;"/><text fill="#666666" font-family="sans-serif" font-size="12" font-weight="bold" lengthAdjust="spacing" textLength="275" x="46.5" y="334.0664">Receive New Account Created Notification E-Mail</text><rect fill="none" height="17.6094" style="stroke:none;stroke-width:1.0;" width="182" x="479" y="653.6094"/><text fill="#000000" font-family="sans-serif" font-size="14" font-weight="bold" lengthAdjust="spacing" textLength="53" x="479" y="668.1426">Legend</text><text fill="#FFFFFF" font-family="sans-serif" font-size="14" lengthAdjust="spacing" textLength="4" x="532" y="668.1426">&#160;</text><rect fill="#08427B" height="17.6094" style="stroke:none;stroke-width:1.0;" width="182" x="479" y="671.2188"/><text fill="#073B6F" font-family="sans-serif" font-size="14" lengthAdjust="spacing" textLength="14" x="483" y="685.752">&#9647;</text><text fill="#FFFFFF" font-family="sans-serif" font-size="14" lengthAdjust="spacing" textLength="4" x="497" y="685.752">&#160;</text><text fill="#FFFFFF" font-family="sans-serif" font-size="14" lengthAdjust="spacing" textLength="44" x="505" y="685.752">person</text><text fill="#FFFFFF" font-family="sans-serif" font-size="14" lengthAdjust="spacing" textLength="4" x="553" y="685.752">&#160;</text><rect fill="#438DD5" height="17.6094" style="stroke:none;stroke-width:1.0;" width="182" x="479" y="688.8281"/><text fill="#3C7FC0" font-family="sans-serif" font-size="14" lengthAdjust="spacing" textLength="14" x="483" y="703.3613">&#9647;</text><text fill="#FFFFFF" font-family="sans-serif" font-size="14" lengthAdjust="spacing" textLength="4" x="497" y="703.3613">&#160;</text><text fill="#FFFFFF" font-family="sans-serif" font-size="14" lengthAdjust="spacing" textLength="59" x="505" y="703.3613">container</text><text fill="#FFFFFF" font-family="sans-serif" font-size="14" lengthAdjust="spacing" textLength="4" x="568" y="703.3613">&#160;</text><rect fill="#999999" height="17.6094" style="stroke:none;stroke-width:1.0;" width="182" x="479" y="706.4375"/><text fill="#8A8A8A" font-family="sans-serif" font-size="14" lengthAdjust="spacing" textLength="14" x="483" y="720.9707">&#9647;</text><text fill="#FFFFFF" font-family="sans-serif" font-size="14" lengthAdjust="spacing" textLength="4" x="497" y="720.9707">&#160;</text><text fill="#FFFFFF" font-family="sans-serif" font-size="14" lengthAdjust="spacing" textLength="102" x="505" y="720.9707">external_system</text><text fill="#FFFFFF" font-family="sans-serif" font-size="14" lengthAdjust="spacing" textLength="4" x="611" y="720.9707">&#160;</text><rect fill="none" height="17.6094" style="stroke:none;stroke-width:1.0;" width="182" x="479" y="724.0469"/><text fill="#444444" font-family="sans-serif" font-size="14" lengthAdjust="spacing" textLength="14" x="483" y="738.5801">&#9647;</text><text fill="#FFFFFF" font-family="sans-serif" font-size="14" lengthAdjust="spacing" textLength="4" x="497" y="738.5801">&#160;</text><text fill="#444444" font-family="sans-serif" font-size="14" lengthAdjust="spacing" textLength="108" x="505" y="738.5801">system boundary</text><text fill="#444444" font-family="sans-serif" font-size="10" lengthAdjust="spacing" textLength="40" x="617" y="739.459">(dashed)</text><text fill="#FFFFFF" font-family="sans-serif" font-size="14" lengthAdjust="spacing" textLength="4" x="657" y="738.5801">&#160;</text><line style="stroke:none;stroke-width:1.0;" x1="479" x2="661" y1="653.6094" y2="653.6094"/><line style="stroke:none;stroke-width:1.0;" x1="479" x2="661" y1="671.2188" y2="671.2188"/><line style="stroke:none;stroke-width:1.0;" x1="479" x2="661" y1="688.8281" y2="688.8281"/><line style="stroke:none;stroke-width:1.0;" x1="479" x2="661" y1="706.4375" y2="706.4375"/><line style="stroke:none;stroke-width:1.0;" x1="479" x2="661" y1="724.0469" y2="724.0469"/><line style="stroke:none;stroke-width:1.0;" x1="479" x2="661" y1="741.6563" y2="741.6563"/><line style="stroke:none;stroke-width:1.0;" x1="479" x2="479" y1="653.6094" y2="741.6563"/><line style="stroke:none;stroke-width:1.0;" x1="661" x2="661" y1="653.6094" y2="741.6563"/><!--SRC=[pLPDRzf04BtxLspS7a1AVCgfKWuEk2bI2XOcYIeXeSKUd5NMkzRk0a5L_tjdum_ia4QaM5KHGfxddVTcnZDZpd95qumIJdToROZEm511dJCcOhvEW7ZUt7xZIpqVN2u6KXZA12WlNsVSSVma2JXa8CoCfZrN6shWYu2jUqu-BzE1v59TfGf0eBr2tmBvj7hvs3DI9Q3Qv_GZJUIMYVJA_Kgv1hV_japyI4KAILDAAWiTeLKVF5PCGIOtRJ45oH5AnQatPApE5FXXtGmyctP5E5QyWVGFNHkrsBlNIUxz2-WDWaP-Uu8YzhqtsXXtz6toi0Y3QJGPByB9T3RrHxDUtxdrVqpkPelP95mC9mzZH1pzn4HE5Ss8vJ2x74Wk-SuQZcEOuK062b2UZ65B_3YMQs781HbSsf-grGY73M2lXQ2q5BrhbbvJyHJosFDZ8vNs1cjjP0RgdBZL9URXsXf7EsqWMrmZSKBLhkaSoPNPKWN54UsDX065KThx-A2Ge4982RbzyjCX-Ab3-m2VLpjfxm6MVfvp5bF393vW5m7IG5wYBpBeGYv2cqD8Kq0Df2ti2mjOrOxL_73KJWw1Ov8RBlzIS4WDNLADZUvMbmsDNrKF1C_cFO7loBR2LeLIeS2HexvHjG4fRfNynx47oC9hok32ccqU1-VntTxkgDN6TCDI73cKVALu0citVNahQK9yaP38K6KE0-oe98VZa0eo4dDnpt0BLUnaY2z2nlLSb2kgN4ydrUsLT4S3LYTmWxkgYhzjLT5tcyxhI4wUNtzj7l6zQmc1t6dSu_yel3zE_tzSqlPEYG07f_aQBO92J1gsAlb8iNbE6wssxXHYO1luW7Jv3-8sk0d6mrx_Dm00]--></g></svg>