<?xml version="1.0" encoding="us-ascii" standalone="no"?><svg xmlns="http://www.w3.org/2000/svg" xmlns:xlink="http://www.w3.org/1999/xlink" contentStyleType="text/css" height="448px" preserveAspectRatio="none" style="width:356px;height:448px;background:#FFFFFF;" version="1.1" viewBox="0 0 356 448" width="356px" zoomAndPan="magnify"><defs/><g><text fill="#000000" font-family="sans-serif" font-size="14" font-weight="bold" lengthAdjust="spacing" textLength="328" x="10" y="24.5332">Create New Account - C4 Static - Context level)</text><!--entity BigBankPlc.Actors.Customer--><g id="elem_BigBankPlc.Actors.Customer"><ellipse cx="242" cy="67.1094" fill="#08427B" rx="16" ry="16" style="stroke:#073B6F;stroke-width:0.5;"/><path d="M242,87.1094 C246,87.1094 249,87.1094 253,83.1094 C261,83.1094 269,91.1094 269,99.1094 L269,103.1094 C269,107.1094 265,111.1094 261,111.1094 L223,111.1094 C219,111.1094 215,107.1094 215,103.1094 L215,99.1094 C215,91.1094 223,83.1094 231,83.1094 C235,87.1094 238,87.1094 242,87.1094 " fill="#08427B" style="stroke:#073B6F;stroke-width:0.5;"/><text fill="#08427B" font-family="sans-serif" font-size="16" font-weight="bold" lengthAdjust="spacing" textLength="75" x="204.5" y="128.2188">Customer</text></g><!--entity BigBankPlc.SoftwareSystems.InternetBanking--><g id="elem_BigBankPlc.SoftwareSystems.InternetBanking"><rect fill="#1168BD" height="40.125" rx="2.5" ry="2.5" style="stroke:#3C7FC0;stroke-width:0.5;" width="146" x="88" y="184.6094"/><text fill="#FFFFFF" font-family="sans-serif" font-size="16" font-weight="bold" lengthAdjust="spacing" textLength="58" x="98" y="211.2188">Internet</text><text fill="#FFFFFF" font-family="sans-serif" font-size="16" font-weight="bold" lengthAdjust="spacing" textLength="4" x="156" y="211.2188">&#160;</text><text fill="#FFFFFF" font-family="sans-serif" font-size="16" font-weight="bold" lengthAdjust="spacing" textLength="64" x="160" y="211.2188">Banking</text></g><!--entity BigBankPlc.SoftwareSystems.MainframeBankingSystem--><g id="elem_BigBankPlc.SoftwareSystems.MainframeBankingSystem"><rect fill="#999999" height="60.25" rx="2.5" ry="2.5" style="stroke:#8A8A8A;stroke-width:0.5;" width="167" x="21.5" y="277.6094"/><text fill="#FFFFFF" font-family="sans-serif" font-size="16" font-weight="bold" lengthAdjust="spacing" textLength="79" x="31.5" y="304.2188">Mainframe</text><text fill="#FFFFFF" font-family="sans-serif" font-size="16" font-weight="bold" lengthAdjust="spacing" textLength="4" x="110.5" y="304.2188">&#160;</text><text fill="#FFFFFF" font-family="sans-serif" font-size="16" font-weight="bold" lengthAdjust="spacing" textLength="64" x="114.5" y="304.2188">Banking</text><text fill="#FFFFFF" font-family="sans-serif" font-size="16" font-weight="bold" lengthAdjust="spacing" textLength="57" x="76.5" y="324.3438">System</text></g><!--entity BigBankPlc.SoftwareSystems.EMailSystem--><g id="elem_BigBankPlc.SoftwareSystems.EMailSystem"><rect fill="#999999" height="40.125" rx="2.5" ry="2.5" style="stroke:#8A8A8A;stroke-width:0.5;" width="127" x="206.5" y="287.6094"/><text fill="#FFFFFF" font-family="sans-serif" font-size="16" font-weight="bold" lengthAdjust="spacing" textLength="46" x="216.5" y="314.2188">E-Mail</text><text fill="#FFFFFF" font-family="sans-serif" font-size="16" font-weight="bold" lengthAdjust="spacing" textLength="4" x="262.5" y="314.2188">&#160;</text><text fill="#FFFFFF" font-family="sans-serif" font-size="16" font-weight="bold" lengthAdjust="spacing" textLength="57" x="266.5" y="314.2188">System</text></g><polygon fill="none" points="174.9374,184.424,182.0664,179.7148,177.2121,176.1884,174.9374,184.424" style="stroke:#666666;stroke-width:1.0;"/><path d="M213.2144,131.7341 C200.2093,149.636 190.143,163.4928 179.6393,177.9516 " fill="none" style="stroke:#666666;stroke-width:1.0;"/><text fill="#666666" font-family="sans-serif" font-size="12" font-weight="bold" lengthAdjust="spacing" textLength="29" x="201" y="163.0664">Uses</text><polygon fill="none" points="120.7585,277.5639,127.2234,271.9778,121.9562,269.1042,120.7585,277.5639" style="stroke:#666666;stroke-width:1.0;"/><path d="M150.0429,224.7806 C146.7916,230.5054 143.2355,236.8024 140,242.6094 C133.6512,254.0041 130.5767,259.567 124.5898,270.541 " fill="none" style="stroke:#666666;stroke-width:1.0;"/><text fill="#666666" font-family="sans-serif" font-size="12" font-weight="bold" lengthAdjust="spacing" textLength="29" x="141" y="256.0664">Uses</text><polygon fill="none" points="249.3187,287.4459,245.4896,279.808,241.4115,284.2091,249.3187,287.4459" style="stroke:#666666;stroke-width:1.0;"/><path d="M181.7586,224.8444 C201.1539,242.8162 224.0803,264.06 243.4506,282.0085 " fill="none" style="stroke:#666666;stroke-width:1.0;"/><text fill="#666666" font-family="sans-serif" font-size="12" font-weight="bold" lengthAdjust="spacing" textLength="29" x="220" y="256.0664">Uses</text><polygon fill="none" points="267.4991,287.4509,269.4384,279.1299,263.4889,279.9065,267.4991,287.4509" style="stroke:#666666;stroke-width:1.0;"/><path d="M247.1683,131.702 C253.2045,177.9438 261.9075,244.6147 266.4636,279.5182 " fill="none" style="stroke:#666666;stroke-width:1.0;"/><text fill="#666666" font-family="sans-serif" font-size="12" font-weight="bold" lengthAdjust="spacing" textLength="29" x="260" y="209.5664">Uses</text><rect fill="none" height="17.6094" style="stroke:none;stroke-width:1.0;" width="136" x="179.5" y="350.6094"/><text fill="#000000" font-family="sans-serif" font-size="14" font-weight="bold" lengthAdjust="spacing" textLength="53" x="179.5" y="365.1426">Legend</text><text fill="#FFFFFF" font-family="sans-serif" font-size="14" lengthAdjust="spacing" textLength="4" x="232.5" y="365.1426">&#160;</text><rect fill="#08427B" height="17.6094" style="stroke:none;stroke-width:1.0;" width="136" x="179.5" y="368.2188"/><text fill="#073B6F" font-family="sans-serif" font-size="14" lengthAdjust="spacing" textLength="14" x="183.5" y="382.752">&#9647;</text><text fill="#FFFFFF" font-family="sans-serif" font-size="14" lengthAdjust="spacing" textLength="4" x="197.5" y="382.752">&#160;</text><text fill="#FFFFFF" font-family="sans-serif" font-size="14" lengthAdjust="spacing" textLength="44" x="205.5" y="382.752">person</text><text fill="#FFFFFF" font-family="sans-serif" font-size="14" lengthAdjust="spacing" textLength="4" x="253.5" y="382.752">&#160;</text><rect fill="#1168BD" height="17.6094" style="stroke:none;stroke-width:1.0;" width="136" x="179.5" y="385.8281"/><text fill="#3C7FC0" font-family="sans-serif" font-size="14" lengthAdjust="spacing" textLength="14" x="183.5" y="400.3613">&#9647;</text><text fill="#FFFFFF" font-family="sans-serif" font-size="14" lengthAdjust="spacing" textLength="4" x="197.5" y="400.3613">&#160;</text><text fill="#FFFFFF" font-family="sans-serif" font-size="14" lengthAdjust="spacing" textLength="44" x="205.5" y="400.3613">system</text><text fill="#FFFFFF" font-family="sans-serif" font-size="14" lengthAdjust="spacing" textLength="4" x="253.5" y="400.3613">&#160;</text><rect fill="#999999" height="17.6094" style="stroke:none;stroke-width:1.0;" width="136" x="179.5" y="403.4375"/><text fill="#8A8A8A" font-family="sans-serif" font-size="14" lengthAdjust="spacing" textLength="14" x="183.5" y="417.9707">&#9647;</text><text fill="#FFFFFF" font-family="sans-serif" font-size="14" lengthAdjust="spacing" textLength="4" x="197.5" y="417.9707">&#160;</text><text fill="#FFFFFF" font-family="sans-serif" font-size="14" lengthAdjust="spacing" textLength="102" x="205.5" y="417.9707">external_system</text><text fill="#FFFFFF" font-family="sans-serif" font-size="14" lengthAdjust="spacing" textLength="4" x="311.5" y="417.9707">&#160;</text><line style="stroke:none;stroke-width:1.0;" x1="179.5" x2="315.5" y1="350.6094" y2="350.6094"/><line style="stroke:none;stroke-width:1.0;" x1="179.5" x2="315.5" y1="368.2188" y2="368.2188"/><line style="stroke:none;stroke-width:1.0;" x1="179.5" x2="315.5" y1="385.8281" y2="385.8281"/><line style="stroke:none;stroke-width:1.0;" x1="179.5" x2="315.5" y1="403.4375" y2="403.4375"/><line style="stroke:none;stroke-width:1.0;" x1="179.5" x2="315.5" y1="421.0469" y2="421.0469"/><line style="stroke:none;stroke-width:1.0;" x1="179.5" x2="179.5" y1="350.6094" y2="421.0469"/><line style="stroke:none;stroke-width:1.0;" x1="315.5" x2="315.5" y1="350.6094" y2="421.0469"/><!--SRC=[hLDDJuD04BtpArRqq2RAgISJ3uYeJMeX1MDCJCWAKoHTTidkqjf_xwpq0vHeQoGSTZxUUpDluQIID2yfONGjQarK2PfoQfqKF6Lr1iHnNioRZjIBDqeymJMyQwUgIsPPRfRv34hWEgRvm5QQQhZaiBBFoTbhxWacv5Kk0JZ6SqGscTFvvsDwXCn0TllK6yt4gk3vbNrBcG9xs2-Jlb6UGzQM4jAa3j3QDHug9g4KowwOXEm0fQQhHyRep81zzytOstM45HnQcU5tQCkBFNotv1xVf7e8Mllj2PhPzsYCSUxeFdXAGdyM1TCa36Rnp1t7Ww4rSP-3npY9Wp2v2PwccB7Kek0LbRGaXaElAo2LO6iJM9OkD0FYIK1vCeKLSTDKr5oJ2-ADI8HJ5QavDzyROR04XfmXI2NuuBh8hobVX2nrt5GBgHolLbgK8C-9lJtYDZOw7QsLXh8DYSHShwY4fgASCMf8dD3KyP8GjisGJQf3bVZl-YUw1rhmEQuD6t2JHuPTOKjBcj9Hx3woi1sbVs72Be-5T_kZGqTPyQX08UaNpbznV_7d_wMwPlNp7sDFBz_cdvZuT_xqPZ3y0000]--></g></svg>