<?xml version="1.0" encoding="us-ascii" standalone="no"?><svg xmlns="http://www.w3.org/2000/svg" xmlns:xlink="http://www.w3.org/1999/xlink" contentStyleType="text/css" height="523px" preserveAspectRatio="none" style="width:819px;height:523px;background:#FFFFFF;" version="1.1" viewBox="0 0 819 523" width="819px" zoomAndPan="magnify"><defs/><g><text fill="#000000" font-family="sans-serif" font-size="14" font-weight="bold" lengthAdjust="spacing" textLength="285" x="85.5" y="24.5332">Create New Account - C4 - Context level)</text><!--entity BigBankPlc.Actors.Customer--><g id="elem_BigBankPlc.Actors.Customer"><ellipse cx="419.5" cy="67.1094" fill="#08427B" rx="16" ry="16" style="stroke:#073B6F;stroke-width:0.5;"/><path d="M419.5,87.1094 C423.5,87.1094 426.5,87.1094 430.5,83.1094 C438.5,83.1094 446.5,91.1094 446.5,99.1094 L446.5,103.1094 C446.5,107.1094 442.5,111.1094 438.5,111.1094 L400.5,111.1094 C396.5,111.1094 392.5,107.1094 392.5,103.1094 L392.5,99.1094 C392.5,91.1094 400.5,83.1094 408.5,83.1094 C412.5,87.1094 415.5,87.1094 419.5,87.1094 " fill="#08427B" style="stroke:#073B6F;stroke-width:0.5;"/><text fill="#08427B" font-family="sans-serif" font-size="16" font-weight="bold" lengthAdjust="spacing" textLength="75" x="382" y="128.2188">Customer</text></g><!--entity BigBankPlc.SoftwareSystems.InternetBanking--><g id="elem_BigBankPlc.SoftwareSystems.InternetBanking"><rect fill="#1168BD" height="40.125" rx="2.5" ry="2.5" style="stroke:#3C7FC0;stroke-width:0.5;" width="146" x="176.5" y="229.6094"/><text fill="#FFFFFF" font-family="sans-serif" font-size="16" font-weight="bold" lengthAdjust="spacing" textLength="58" x="186.5" y="256.2188">Internet</text><text fill="#FFFFFF" font-family="sans-serif" font-size="16" font-weight="bold" lengthAdjust="spacing" textLength="4" x="244.5" y="256.2188">&#160;</text><text fill="#FFFFFF" font-family="sans-serif" font-size="16" font-weight="bold" lengthAdjust="spacing" textLength="64" x="248.5" y="256.2188">Banking</text></g><!--entity BigBankPlc.SoftwareSystems.MainframeBankingSystem--><g id="elem_BigBankPlc.SoftwareSystems.MainframeBankingSystem"><rect fill="#999999" height="60.25" rx="2.5" ry="2.5" style="stroke:#8A8A8A;stroke-width:0.5;" width="167" x="6" y="352.6094"/><text fill="#FFFFFF" font-family="sans-serif" font-size="16" font-weight="bold" lengthAdjust="spacing" textLength="79" x="16" y="379.2188">Mainframe</text><text fill="#FFFFFF" font-family="sans-serif" font-size="16" font-weight="bold" lengthAdjust="spacing" textLength="4" x="95" y="379.2188">&#160;</text><text fill="#FFFFFF" font-family="sans-serif" font-size="16" font-weight="bold" lengthAdjust="spacing" textLength="64" x="99" y="379.2188">Banking</text><text fill="#FFFFFF" font-family="sans-serif" font-size="16" font-weight="bold" lengthAdjust="spacing" textLength="57" x="61" y="399.3438">System</text></g><!--entity BigBankPlc.SoftwareSystems.EMailSystem--><g id="elem_BigBankPlc.SoftwareSystems.EMailSystem"><rect fill="#999999" height="40.125" rx="2.5" ry="2.5" style="stroke:#8A8A8A;stroke-width:0.5;" width="127" x="326" y="362.6094"/><text fill="#FFFFFF" font-family="sans-serif" font-size="16" font-weight="bold" lengthAdjust="spacing" textLength="46" x="336" y="389.2188">E-Mail</text><text fill="#FFFFFF" font-family="sans-serif" font-size="16" font-weight="bold" lengthAdjust="spacing" textLength="4" x="382" y="389.2188">&#160;</text><text fill="#FFFFFF" font-family="sans-serif" font-size="16" font-weight="bold" lengthAdjust="spacing" textLength="57" x="386" y="389.2188">System</text></g><polygon fill="none" points="270.5639,229.2182,278.4815,226.007,274.4177,221.5927,270.5639,229.2182" style="stroke:#666666;stroke-width:1.0;"/><path d="M381.7715,126.8418 C347.5348,158.3597 304.1813,198.2704 276.4496,223.7999 " fill="none" style="stroke:#666666;stroke-width:1.0;"/><text fill="#666666" font-family="sans-serif" font-size="12" font-weight="bold" lengthAdjust="spacing" textLength="49" x="396.5" y="163.0664">Navigate</text><text fill="#666666" font-family="sans-serif" font-size="12" font-weight="bold" lengthAdjust="spacing" textLength="38" x="402" y="178.1602">Sign In</text><text fill="#666666" font-family="sans-serif" font-size="12" font-weight="bold" lengthAdjust="spacing" textLength="129" x="356.5" y="193.2539">View Customer Details</text><text fill="#666666" font-family="sans-serif" font-size="12" font-weight="bold" lengthAdjust="spacing" textLength="88" x="377" y="208.3477">Create Account</text><polygon fill="none" points="84.5303,352.3002,86.8461,344.0761,80.8674,344.5812,84.5303,352.3002" style="stroke:#666666;stroke-width:1.0;"/><path d="M176.4367,260.5748 C143.7014,266.5958 110.0811,275.4835 99.5,287.6094 C84.2857,305.0449 82.1238,323.8183 83.8567,344.3286 " fill="none" style="stroke:#666666;stroke-width:1.0;"/><text fill="#666666" font-family="sans-serif" font-size="12" font-weight="bold" lengthAdjust="spacing" textLength="78" x="129" y="301.0664">Get Customer</text><text fill="#666666" font-family="sans-serif" font-size="12" font-weight="bold" lengthAdjust="spacing" textLength="135" x="100.5" y="316.1602">Get Customer Accounts</text><text fill="#666666" font-family="sans-serif" font-size="12" font-weight="bold" lengthAdjust="spacing" textLength="88" x="124" y="331.2539">Create Account</text><polygon fill="none" points="325.839,376.2636,318.6292,371.679,317.3925,377.5502,325.839,376.2636" style="stroke:#666666;stroke-width:1.0;"/><path d="M243.8728,269.9182 C239.749,288.339 236.9555,315.967 250.5,334.6094 C267.8691,358.5158 290.209,368.7582 318.0108,374.6146 " fill="none" style="stroke:#666666;stroke-width:1.0;"/><text fill="#666666" font-family="sans-serif" font-size="12" font-weight="bold" lengthAdjust="spacing" textLength="259" x="251.5" y="316.0664">Send New Account Created Notification E-Mail</text><polygon fill="none" points="453.0069,372.2571,461.5313,372.8364,459.8103,367.0885,453.0069,372.2571" style="stroke:#666666;stroke-width:1.0;"/><path d="M457.3031,114.536 C469.8001,123.8291 482.5323,135.711 490.5,149.6094 C531.656,221.3993 558.3292,266.3845 511.5,334.6094 C498.077,354.1652 482.9476,363.2925 460.6708,369.9625 " fill="none" style="stroke:#666666;stroke-width:1.0;"/><text fill="#666666" font-family="sans-serif" font-size="12" font-weight="bold" lengthAdjust="spacing" textLength="275" x="536.5" y="254.5664">Receive New Account Created Notification E-Mail</text><rect fill="none" height="17.6094" style="stroke:none;stroke-width:1.0;" width="136" x="303" y="425.6094"/><text fill="#000000" font-family="sans-serif" font-size="14" font-weight="bold" lengthAdjust="spacing" textLength="53" x="303" y="440.1426">Legend</text><text fill="#FFFFFF" font-family="sans-serif" font-size="14" lengthAdjust="spacing" textLength="4" x="356" y="440.1426">&#160;</text><rect fill="#08427B" height="17.6094" style="stroke:none;stroke-width:1.0;" width="136" x="303" y="443.2188"/><text fill="#073B6F" font-family="sans-serif" font-size="14" lengthAdjust="spacing" textLength="14" x="307" y="457.752">&#9647;</text><text fill="#FFFFFF" font-family="sans-serif" font-size="14" lengthAdjust="spacing" textLength="4" x="321" y="457.752">&#160;</text><text fill="#FFFFFF" font-family="sans-serif" font-size="14" lengthAdjust="spacing" textLength="44" x="329" y="457.752">person</text><text fill="#FFFFFF" font-family="sans-serif" font-size="14" lengthAdjust="spacing" textLength="4" x="377" y="457.752">&#160;</text><rect fill="#1168BD" height="17.6094" style="stroke:none;stroke-width:1.0;" width="136" x="303" y="460.8281"/><text fill="#3C7FC0" font-family="sans-serif" font-size="14" lengthAdjust="spacing" textLength="14" x="307" y="475.3613">&#9647;</text><text fill="#FFFFFF" font-family="sans-serif" font-size="14" lengthAdjust="spacing" textLength="4" x="321" y="475.3613">&#160;</text><text fill="#FFFFFF" font-family="sans-serif" font-size="14" lengthAdjust="spacing" textLength="44" x="329" y="475.3613">system</text><text fill="#FFFFFF" font-family="sans-serif" font-size="14" lengthAdjust="spacing" textLength="4" x="377" y="475.3613">&#160;</text><rect fill="#999999" height="17.6094" style="stroke:none;stroke-width:1.0;" width="136" x="303" y="478.4375"/><text fill="#8A8A8A" font-family="sans-serif" font-size="14" lengthAdjust="spacing" textLength="14" x="307" y="492.9707">&#9647;</text><text fill="#FFFFFF" font-family="sans-serif" font-size="14" lengthAdjust="spacing" textLength="4" x="321" y="492.9707">&#160;</text><text fill="#FFFFFF" font-family="sans-serif" font-size="14" lengthAdjust="spacing" textLength="102" x="329" y="492.9707">external_system</text><text fill="#FFFFFF" font-family="sans-serif" font-size="14" lengthAdjust="spacing" textLength="4" x="435" y="492.9707">&#160;</text><line style="stroke:none;stroke-width:1.0;" x1="303" x2="439" y1="425.6094" y2="425.6094"/><line style="stroke:none;stroke-width:1.0;" x1="303" x2="439" y1="443.2188" y2="443.2188"/><line style="stroke:none;stroke-width:1.0;" x1="303" x2="439" y1="460.8281" y2="460.8281"/><line style="stroke:none;stroke-width:1.0;" x1="303" x2="439" y1="478.4375" y2="478.4375"/><line style="stroke:none;stroke-width:1.0;" x1="303" x2="439" y1="496.0469" y2="496.0469"/><line style="stroke:none;stroke-width:1.0;" x1="303" x2="303" y1="425.6094" y2="496.0469"/><line style="stroke:none;stroke-width:1.0;" x1="439" x2="439" y1="425.6094" y2="496.0469"/><!--SRC=[jLJHRjem57tFLxZP7a1gyyJJf3xGa7L87K64hPeKAVAIczIgSuri1yhVxsP981ceWqb3276FVSyvliV9pKRpekHCyhsgB3CbM8xSkH6OoYe3vdbn_Kqd9lOdYQ_GmflrDbKf7MUQPO644j2kUJ5oZUKMFY7it5lsyMVXAwdqVQ41aEgSEXlaG_xxK-zHEWCzt6TUUAPs0ejxzpEN1jpnUPdqXMC1MLzAwHgwGEkmyL8n3QNQ3iKqP1SeDRlEoDGwAv2dSwl7Evo850WzP7pQsfl5iVrmo6D_0vqXw9tlID1uFtPJJRwZB-5piWnMKRX8bk5glPhErwEnypJz4NvR9-jmcSp2vmKXZdaLkE6QbwpciFiDi8sI-xfm72ki1EPh87csW1sRfgcgqB8xva_gd-QYCGbRa4Is16qKZXv4yS3nTIbJRvfQfOtdLyQg4lGjSxk_T0oNHXpjZOMotnAftEwuXcR5U7FIq6IjNgTqgAr3M0iDg9BWpRv7zvKBpEcyq3OtE34S5ZfQrYnTnHuGYpnG1dTrEUHnADHt9tJLA1PyAmfA9yP85CZc6EDtGK5rT6n6RmeXJOnjYcs2PEGF7t_L-fUPFb98dPKO-rLdv3yx6-OH0MQ3Uzn84wQio4NAhL38cjHEVLoJr51t1Ic8BLmXtJx2Jy5Zi9YDnhy0]--></g></svg>