<?xml version="1.0" encoding="us-ascii" standalone="no"?><svg xmlns="http://www.w3.org/2000/svg" xmlns:xlink="http://www.w3.org/1999/xlink" contentStyleType="text/css" height="521px" preserveAspectRatio="none" style="width:492px;height:521px;background:#FFFFFF;" version="1.1" viewBox="0 0 492 521" width="492px" zoomAndPan="magnify"><defs/><g><rect fill="none" height="470.7266" style="stroke:#444444;stroke-width:0.5;" width="110" x="169" y="44.6094"/><text fill="#444444" font-family="sans-serif" font-size="13" font-weight="bold" lengthAdjust="spacing" textLength="74" x="187" y="58.1045">Catalog Api</text><text fill="#444444" font-family="sans-serif" font-size="12" font-weight="bold" lengthAdjust="spacing" textLength="51" x="198.5" y="73.418">[System]</text><rect fill="none" height="434.2813" style="stroke:#444444;stroke-width:0.5;" width="110" x="169" y="81.0547"/><text fill="#444444" font-family="sans-serif" font-size="13" font-weight="bold" lengthAdjust="spacing" textLength="21" x="213.5" y="94.5498">Api</text><text fill="#444444" font-family="sans-serif" font-size="12" font-weight="bold" lengthAdjust="spacing" textLength="63" x="192.5" y="109.8633">[Container]</text><text fill="#000000" font-family="sans-serif" font-size="14" font-weight="bold" lengthAdjust="spacing" textLength="459" x="15" y="29.5332">Catalog Api - Api - Catalog Api - Get Item By Id - COMPONENT level</text><rect fill="#FFFFFF" height="277.5234" style="stroke:#FFFFFF;stroke-width:1.0;" width="247" x="189" y="207.8125"/><rect fill="#FFFFFF" height="85.5391" style="stroke:#FFFFFF;stroke-width:1.0;" width="203" x="208" y="240.1641"/><rect fill="#FFFFFF" height="85.5391" style="stroke:#FFFFFF;stroke-width:1.0;" width="187" x="208" y="343.7031"/><line style="stroke:#666666;stroke-width:0.5;stroke-dasharray:5.0,5.0;" x1="104" x2="104" y1="166.7188" y2="509.3359"/><line style="stroke:#666666;stroke-width:0.5;stroke-dasharray:5.0,5.0;" x1="224" x2="224" y1="166.7188" y2="509.3359"/><rect fill="#999999" height="49.2188" rx="2.5" ry="2.5" style="stroke:#8A8A8A;stroke-width:0.5;" width="118" x="45" y="116.5"/><text fill="#FFFFFF" font-family="sans-serif" font-size="12" font-style="italic" lengthAdjust="spacing" textLength="104" x="52" y="135.957">&#171;external_system&#187;</text><text fill="#FFFFFF" font-family="sans-serif" font-size="16" font-weight="bold" lengthAdjust="spacing" textLength="63" x="72.5" y="155.2031">External</text><rect fill="#85BBF0" height="49.2188" rx="2.5" ry="2.5" style="stroke:#78A8D8;stroke-width:0.5;" width="102" x="173" y="116.5"/><text fill="#000000" font-family="sans-serif" font-size="12" font-style="italic" lengthAdjust="spacing" textLength="76" x="186" y="135.957">&#171;component&#187;</text><text fill="#000000" font-family="sans-serif" font-size="16" font-weight="bold" lengthAdjust="spacing" textLength="88" x="180" y="155.2031">Catalog Api</text><polygon fill="#666666" points="212,191.8125,222,195.8125,212,199.8125,216,195.8125" style="stroke:#666666;stroke-width:1.0;"/><line style="stroke:#666666;stroke-width:1.0;" x1="104" x2="218" y1="195.8125" y2="195.8125"/><text fill="#666666" font-family="sans-serif" font-size="12" font-weight="bold" lengthAdjust="spacing" textLength="19" x="125.5" y="191.1758">Get</text><text fill="#666666" font-family="sans-serif" font-size="12" font-weight="bold" lengthAdjust="spacing" textLength="3" x="144.5" y="191.1758">&#160;</text><text fill="#666666" font-family="sans-serif" font-size="12" font-weight="bold" lengthAdjust="spacing" textLength="25" x="147.5" y="191.1758">Item</text><text fill="#666666" font-family="sans-serif" font-size="12" font-weight="bold" lengthAdjust="spacing" textLength="3" x="172.5" y="191.1758">&#160;</text><text fill="#666666" font-family="sans-serif" font-size="12" font-weight="bold" lengthAdjust="spacing" textLength="14" x="175.5" y="191.1758">By</text><text fill="#666666" font-family="sans-serif" font-size="12" font-weight="bold" lengthAdjust="spacing" textLength="3" x="189.5" y="191.1758">&#160;</text><text fill="#666666" font-family="sans-serif" font-size="12" font-weight="bold" lengthAdjust="spacing" textLength="10" x="192.5" y="191.1758">Id</text><path d="M189,207.8125 L324,207.8125 L324,216.1641 L314,226.1641 L189,226.1641 L189,207.8125 " fill="#444444" style="stroke:#444444;stroke-width:1.5;"/><rect fill="none" height="277.5234" style="stroke:#444444;stroke-width:1.5;" width="247" x="189" y="207.8125"/><text fill="#FFFFFF" font-family="sans-serif" font-size="13" font-weight="bold" lengthAdjust="spacing" textLength="90" x="204" y="222.3076">Get Item By Id</text><path d="M208,240.1641 L269,240.1641 L269,248.5156 L259,258.5156 L208,258.5156 L208,240.1641 " fill="#444444" style="stroke:#444444;stroke-width:1.5;"/><rect fill="none" height="85.5391" style="stroke:#444444;stroke-width:1.5;" width="203" x="208" y="240.1641"/><text fill="#FFFFFF" font-family="sans-serif" font-size="13" font-weight="bold" lengthAdjust="spacing" textLength="16" x="223" y="254.6592">alt</text><text fill="#444444" font-family="sans-serif" font-size="11" font-weight="bold" lengthAdjust="spacing" textLength="42" x="284" y="253.583">[id &lt;= 0]</text><line style="stroke:#666666;stroke-width:1.0;" x1="224" x2="266" y1="304.7031" y2="304.7031"/><line style="stroke:#666666;stroke-width:1.0;" x1="266" x2="266" y1="304.7031" y2="317.7031"/><line style="stroke:#666666;stroke-width:1.0;" x1="225" x2="266" y1="317.7031" y2="317.7031"/><polygon fill="#666666" points="235,313.7031,225,317.7031,235,321.7031,231,317.7031" style="stroke:#666666;stroke-width:1.0;"/><text fill="#666666" font-family="sans-serif" font-size="12" font-weight="bold" lengthAdjust="spacing" textLength="33" x="293" y="284.9727">Retun</text><text fill="#666666" font-family="sans-serif" font-size="12" font-weight="bold" lengthAdjust="spacing" textLength="157" x="231" y="300.0664">(TypedResults.BadRequest)</text><path d="M208,343.7031 L269,343.7031 L269,352.0547 L259,362.0547 L208,362.0547 L208,343.7031 " fill="#444444" style="stroke:#444444;stroke-width:1.5;"/><rect fill="none" height="85.5391" style="stroke:#444444;stroke-width:1.5;" width="187" x="208" y="343.7031"/><text fill="#FFFFFF" font-family="sans-serif" font-size="13" font-weight="bold" lengthAdjust="spacing" textLength="16" x="223" y="358.1982">alt</text><text fill="#444444" font-family="sans-serif" font-size="11" font-weight="bold" lengthAdjust="spacing" textLength="71" x="284" y="357.1221">[item == null]</text><line style="stroke:#666666;stroke-width:1.0;" x1="224" x2="266" y1="408.2422" y2="408.2422"/><line style="stroke:#666666;stroke-width:1.0;" x1="266" x2="266" y1="408.2422" y2="421.2422"/><line style="stroke:#666666;stroke-width:1.0;" x1="225" x2="266" y1="421.2422" y2="421.2422"/><polygon fill="#666666" points="235,417.2422,225,421.2422,235,425.2422,231,421.2422" style="stroke:#666666;stroke-width:1.0;"/><text fill="#666666" font-family="sans-serif" font-size="12" font-weight="bold" lengthAdjust="spacing" textLength="33" x="285" y="388.5117">Retun</text><text fill="#666666" font-family="sans-serif" font-size="12" font-weight="bold" lengthAdjust="spacing" textLength="141" x="231" y="403.6055">(TypedResults.NotFound)</text><line style="stroke:#666666;stroke-width:1.0;" x1="224" x2="266" y1="464.3359" y2="464.3359"/><line style="stroke:#666666;stroke-width:1.0;" x1="266" x2="266" y1="464.3359" y2="477.3359"/><line style="stroke:#666666;stroke-width:1.0;" x1="225" x2="266" y1="477.3359" y2="477.3359"/><polygon fill="#666666" points="235,473.3359,225,477.3359,235,481.3359,231,477.3359" style="stroke:#666666;stroke-width:1.0;"/><text fill="#666666" font-family="sans-serif" font-size="12" font-weight="bold" lengthAdjust="spacing" textLength="33" x="231" y="459.6992">Retun</text><text fill="#666666" font-family="sans-serif" font-size="12" font-weight="bold" lengthAdjust="spacing" textLength="3" x="264" y="459.6992">&#160;</text><text fill="#666666" font-family="sans-serif" font-size="12" font-weight="bold" lengthAdjust="spacing" textLength="104" x="267" y="459.6992">(TypedResults.Ok)</text><!--SRC=[tPD1Jy8m5CVl-nGFJYFHnWD7ES02XeDW64SIqcnFMEnUQ_igxjlREOOYniGe5vPbQVkMN_-_xgrZhDoK4fIij6Tm9R8a6NKAofJF4OHOVNzdVRTA-kiKdprIXiBuKaKH5wmG4ibIwGqCJG7N- -VnsXqoJ1bB65KmpUlo_FvXFXlFbg3m1GCfhLoehyUl72VzAJ7QYT8xaUf7tacBJTc9K4TBKZNpA-Ys2zqmxlOEd97sb4jRnRbcGXQORhKHGvjj2yQClSKJz3vn21nGd-87AeGhIZInB0Zjt-3Ym76YsUjZZqINHXCI_mTP76W_kDMdrfnSAxKUKnwVJAC5gbzzc7CA77TJoBwnsfilJHP9nL3aS3k0c_VqPqnqJja5iYU8bvN1V87Eg_32I8PX-14Tzu8zqbwsTXyCWBnIbsOyqpofExBrlJ2z-LCh5hq1]--></g></svg>