<?xml version="1.0" encoding="us-ascii" standalone="no"?><svg xmlns="http://www.w3.org/2000/svg" xmlns:xlink="http://www.w3.org/1999/xlink" contentStyleType="text/css" height="416px" preserveAspectRatio="none" style="width:487px;height:416px;background:#FFFFFF;" version="1.1" viewBox="0 0 487 416" width="487px" zoomAndPan="magnify"><defs/><g><text fill="#000000" font-family="sans-serif" font-size="14" font-weight="bold" lengthAdjust="spacing" textLength="459" x="10" y="29.5332">Catalog Api - Api - Catalog Api - Get Item By Id - COMPONENT level</text><rect fill="#FFFFFF" height="366.0313" style="stroke:#181818;stroke-width:0.5;" width="95" x="145.75" y="44.6094"/><text fill="#000000" font-family="sans-serif" font-size="13" font-weight="bold" lengthAdjust="spacing" textLength="21" x="182.75" y="58.1045">Api</text><rect fill="none" height="213.1094" style="stroke:#000000;stroke-width:1.5;" width="292.5" x="129.75" y="144.9219"/><rect fill="none" height="61.7031" style="stroke:#000000;stroke-width:1.5;" width="272.5" x="139.75" y="170.2734"/><rect fill="none" height="61.7031" style="stroke:#000000;stroke-width:1.5;" width="257.5" x="139.75" y="245.9766"/><line style="stroke:#181818;stroke-width:0.5;stroke-dasharray:5.0,5.0;" x1="84.75" x2="84.75" y1="97.5703" y2="375.0313"/><line style="stroke:#181818;stroke-width:0.5;stroke-dasharray:5.0,5.0;" x1="192.75" x2="192.75" y1="97.5703" y2="375.0313"/><rect fill="#E2E2F0" height="31.6094" rx="2.5" ry="2.5" style="stroke:#181818;stroke-width:0.5;" width="65" x="52.75" y="64.9609"/><text fill="#000000" font-family="sans-serif" font-size="14" lengthAdjust="spacing" textLength="51" x="59.75" y="86.4941">External</text><rect fill="#E2E2F0" height="31.6094" rx="2.5" ry="2.5" style="stroke:#181818;stroke-width:0.5;" width="65" x="52.75" y="374.0313"/><text fill="#000000" font-family="sans-serif" font-size="14" lengthAdjust="spacing" textLength="51" x="59.75" y="395.5645">External</text><rect fill="#E2E2F0" height="31.6094" rx="2.5" ry="2.5" style="stroke:#181818;stroke-width:0.5;" width="87" x="149.75" y="64.9609"/><text fill="#000000" font-family="sans-serif" font-size="14" lengthAdjust="spacing" textLength="73" x="156.75" y="86.4941">Catalog Api</text><rect fill="#E2E2F0" height="31.6094" rx="2.5" ry="2.5" style="stroke:#181818;stroke-width:0.5;" width="87" x="149.75" y="374.0313"/><text fill="#000000" font-family="sans-serif" font-size="14" lengthAdjust="spacing" textLength="73" x="156.75" y="395.5645">Catalog Api</text><polygon fill="#181818" points="181.25,125.9219,191.25,129.9219,181.25,133.9219,185.25,129.9219" style="stroke:#181818;stroke-width:1.0;"/><line style="stroke:#181818;stroke-width:1.0;" x1="85.25" x2="187.25" y1="129.9219" y2="129.9219"/><text fill="#000000" font-family="sans-serif" font-size="13" lengthAdjust="spacing" textLength="84" x="92.25" y="125.0654">Get Item By Id</text><path d="M129.75,144.9219 L264.75,144.9219 L264.75,153.2734 L254.75,163.2734 L129.75,163.2734 L129.75,144.9219 " fill="#EEEEEE" style="stroke:#000000;stroke-width:1.5;"/><rect fill="none" height="213.1094" style="stroke:#000000;stroke-width:1.5;" width="292.5" x="129.75" y="144.9219"/><text fill="#000000" font-family="sans-serif" font-size="13" font-weight="bold" lengthAdjust="spacing" textLength="90" x="144.75" y="159.417">Get Item By Id</text><path d="M139.75,170.2734 L200.75,170.2734 L200.75,178.625 L190.75,188.625 L139.75,188.625 L139.75,170.2734 " fill="#EEEEEE" style="stroke:#000000;stroke-width:1.5;"/><rect fill="none" height="61.7031" style="stroke:#000000;stroke-width:1.5;" width="272.5" x="139.75" y="170.2734"/><text fill="#000000" font-family="sans-serif" font-size="13" font-weight="bold" lengthAdjust="spacing" textLength="16" x="154.75" y="184.7686">alt</text><text fill="#000000" font-family="sans-serif" font-size="11" font-weight="bold" lengthAdjust="spacing" textLength="42" x="215.75" y="183.6924">[id &lt;= 0]</text><line style="stroke:#181818;stroke-width:1.0;" x1="193.25" x2="235.25" y1="210.9766" y2="210.9766"/><line style="stroke:#181818;stroke-width:1.0;" x1="235.25" x2="235.25" y1="210.9766" y2="223.9766"/><line style="stroke:#181818;stroke-width:1.0;" x1="194.25" x2="235.25" y1="223.9766" y2="223.9766"/><polygon fill="#181818" points="204.25,219.9766,194.25,223.9766,204.25,227.9766,200.25,223.9766" style="stroke:#181818;stroke-width:1.0;"/><text fill="#000000" font-family="sans-serif" font-size="13" lengthAdjust="spacing" textLength="200" x="200.25" y="206.1201">Retun (TypedResults.BadRequest)</text><path d="M139.75,245.9766 L200.75,245.9766 L200.75,254.3281 L190.75,264.3281 L139.75,264.3281 L139.75,245.9766 " fill="#EEEEEE" style="stroke:#000000;stroke-width:1.5;"/><rect fill="none" height="61.7031" style="stroke:#000000;stroke-width:1.5;" width="257.5" x="139.75" y="245.9766"/><text fill="#000000" font-family="sans-serif" font-size="13" font-weight="bold" lengthAdjust="spacing" textLength="16" x="154.75" y="260.4717">alt</text><text fill="#000000" font-family="sans-serif" font-size="11" font-weight="bold" lengthAdjust="spacing" textLength="71" x="215.75" y="259.3955">[item == null]</text><line style="stroke:#181818;stroke-width:1.0;" x1="193.25" x2="235.25" y1="286.6797" y2="286.6797"/><line style="stroke:#181818;stroke-width:1.0;" x1="235.25" x2="235.25" y1="286.6797" y2="299.6797"/><line style="stroke:#181818;stroke-width:1.0;" x1="194.25" x2="235.25" y1="299.6797" y2="299.6797"/><polygon fill="#181818" points="204.25,295.6797,194.25,299.6797,204.25,303.6797,200.25,299.6797" style="stroke:#181818;stroke-width:1.0;"/><text fill="#000000" font-family="sans-serif" font-size="13" lengthAdjust="spacing" textLength="185" x="200.25" y="281.8232">Retun (TypedResults.NotFound)</text><line style="stroke:#181818;stroke-width:1.0;" x1="193.25" x2="235.25" y1="337.0313" y2="337.0313"/><line style="stroke:#181818;stroke-width:1.0;" x1="235.25" x2="235.25" y1="337.0313" y2="350.0313"/><line style="stroke:#181818;stroke-width:1.0;" x1="194.25" x2="235.25" y1="350.0313" y2="350.0313"/><polygon fill="#181818" points="204.25,346.0313,194.25,350.0313,204.25,354.0313,200.25,350.0313" style="stroke:#181818;stroke-width:1.0;"/><text fill="#000000" font-family="sans-serif" font-size="13" lengthAdjust="spacing" textLength="146" x="200.25" y="332.1748">Retun (TypedResults.Ok)</text><!--SRC=[tP4zJyCm48Rt-nL7M61enC24A59RjQW32MehCH_DqLeujh7FjFdtE4eH_LXOkjI3vVjuVU-ZktAULZMXfiP6mL2pa240KQ8PHoIaxGe7Jc5lTn_cdbbmAbpZiC5frPRBbzUo61SBrFpD6i2H5xLKZenWDjuAUqCwGmeukf-Q54wqtUHp-o4RyZnlGlejvB-DNGpmRhUOxOtEyFfjhOG1q-cgnzc3mGVIDBkoObXodg-jomT-sQgM4ZsVEDafap0VMIEa3FkGTs7jh64Z-qt0fiBa1_uUy7zGx3sTpne-7AqBLjv6TvmaBQWgVEpZ7PpFovb1PopHuCsYSLpDE4IT6eQKdb-HWzoso-b0M-v-7qtK-h9e2oiJ6qtLiLuKMldPGS4F]--></g></svg>