<?xml version="1.0" encoding="us-ascii" standalone="no"?><svg xmlns="http://www.w3.org/2000/svg" xmlns:xlink="http://www.w3.org/1999/xlink" contentStyleType="text/css" height="260px" preserveAspectRatio="none" style="width:304px;height:260px;background:#FFFFFF;" version="1.1" viewBox="0 0 304 260" width="304.375px" zoomAndPan="magnify"><defs/><g><text fill="#000000" font-family="sans-serif" font-size="8.75" font-weight="bold" lengthAdjust="spacing" textLength="286.875" x="6.25" y="18.4583">Catalog Api - Api - Catalog Api - Get Item By Id - COMPONENT level</text><rect fill="#FFFFFF" height="228.7695" style="stroke:#181818;stroke-width:0.3125;" width="59.375" x="91.0938" y="27.8809"/><text fill="#000000" font-family="sans-serif" font-size="8.125" font-weight="bold" lengthAdjust="spacing" textLength="13.125" x="114.2188" y="36.3153">Api</text><rect fill="none" height="133.1934" style="stroke:#000000;stroke-width:0.9375;" width="182.8125" x="81.0938" y="90.5762"/><rect fill="none" height="38.5645" style="stroke:#000000;stroke-width:0.9375;" width="170.3125" x="87.3438" y="106.4209"/><rect fill="none" height="38.5645" style="stroke:#000000;stroke-width:0.9375;" width="160.9375" x="87.3438" y="153.7354"/><line style="stroke:#181818;stroke-width:0.3125;stroke-dasharray:5.0,5.0;" x1="52.9688" x2="52.9688" y1="60.9814" y2="234.3945"/><line style="stroke:#181818;stroke-width:0.3125;stroke-dasharray:5.0,5.0;" x1="120.4688" x2="120.4688" y1="60.9814" y2="234.3945"/><rect fill="#E2E2F0" height="19.7559" rx="1.5625" ry="1.5625" style="stroke:#181818;stroke-width:0.3125;" width="40.625" x="32.9688" y="40.6006"/><text fill="#000000" font-family="sans-serif" font-size="8.75" lengthAdjust="spacing" textLength="31.875" x="37.3438" y="54.0588">External</text><rect fill="#E2E2F0" height="19.7559" rx="1.5625" ry="1.5625" style="stroke:#181818;stroke-width:0.3125;" width="40.625" x="32.9688" y="233.7695"/><text fill="#000000" font-family="sans-serif" font-size="8.75" lengthAdjust="spacing" textLength="31.875" x="37.3438" y="247.2278">External</text><rect fill="#E2E2F0" height="19.7559" rx="1.5625" ry="1.5625" style="stroke:#181818;stroke-width:0.3125;" width="54.375" x="93.5938" y="40.6006"/><text fill="#000000" font-family="sans-serif" font-size="8.75" lengthAdjust="spacing" textLength="45.625" x="97.9688" y="54.0588">Catalog Api</text><rect fill="#E2E2F0" height="19.7559" rx="1.5625" ry="1.5625" style="stroke:#181818;stroke-width:0.3125;" width="54.375" x="93.5938" y="233.7695"/><text fill="#000000" font-family="sans-serif" font-size="8.75" lengthAdjust="spacing" textLength="45.625" x="97.9688" y="247.2278">Catalog Api</text><polygon fill="#181818" points="113.2813,78.7012,119.5313,81.2012,113.2813,83.7012,115.7813,81.2012" style="stroke:#181818;stroke-width:0.625;"/><line style="stroke:#181818;stroke-width:0.625;" x1="53.2813" x2="117.0313" y1="81.2012" y2="81.2012"/><text fill="#000000" font-family="sans-serif" font-size="8.125" lengthAdjust="spacing" textLength="52.5" x="57.6563" y="78.1659">Get Item By Id</text><path d="M81.0938,90.5762 L165.4688,90.5762 L165.4688,95.7959 L159.2188,102.0459 L81.0938,102.0459 L81.0938,90.5762 " fill="#EEEEEE" style="stroke:#000000;stroke-width:0.9375;"/><rect fill="none" height="133.1934" style="stroke:#000000;stroke-width:0.9375;" width="182.8125" x="81.0938" y="90.5762"/><text fill="#000000" font-family="sans-serif" font-size="8.125" font-weight="bold" lengthAdjust="spacing" textLength="56.25" x="90.4688" y="99.6356">Get Item By Id</text><path d="M87.3438,106.4209 L125.4688,106.4209 L125.4688,111.6406 L119.2188,117.8906 L87.3438,117.8906 L87.3438,106.4209 " fill="#EEEEEE" style="stroke:#000000;stroke-width:0.9375;"/><rect fill="none" height="38.5645" style="stroke:#000000;stroke-width:0.9375;" width="170.3125" x="87.3438" y="106.4209"/><text fill="#000000" font-family="sans-serif" font-size="8.125" font-weight="bold" lengthAdjust="spacing" textLength="10" x="96.7188" y="115.4803">alt</text><text fill="#000000" font-family="sans-serif" font-size="6.875" font-weight="bold" lengthAdjust="spacing" textLength="26.25" x="134.8438" y="114.8077">[id &lt;= 0]</text><line style="stroke:#181818;stroke-width:0.625;" x1="120.7813" x2="147.0313" y1="131.8604" y2="131.8604"/><line style="stroke:#181818;stroke-width:0.625;" x1="147.0313" x2="147.0313" y1="131.8604" y2="139.9854"/><line style="stroke:#181818;stroke-width:0.625;" x1="121.4063" x2="147.0313" y1="139.9854" y2="139.9854"/><polygon fill="#181818" points="127.6563,137.4854,121.4063,139.9854,127.6563,142.4854,125.1563,139.9854" style="stroke:#181818;stroke-width:0.625;"/><text fill="#000000" font-family="sans-serif" font-size="8.125" lengthAdjust="spacing" textLength="125" x="125.1563" y="128.8251">Retun (TypedResults.BadRequest)</text><path d="M87.3438,153.7354 L125.4688,153.7354 L125.4688,158.9551 L119.2188,165.2051 L87.3438,165.2051 L87.3438,153.7354 " fill="#EEEEEE" style="stroke:#000000;stroke-width:0.9375;"/><rect fill="none" height="38.5645" style="stroke:#000000;stroke-width:0.9375;" width="160.9375" x="87.3438" y="153.7354"/><text fill="#000000" font-family="sans-serif" font-size="8.125" font-weight="bold" lengthAdjust="spacing" textLength="10" x="96.7188" y="162.7948">alt</text><text fill="#000000" font-family="sans-serif" font-size="6.875" font-weight="bold" lengthAdjust="spacing" textLength="44.375" x="134.8438" y="162.1222">[item == null]</text><line style="stroke:#181818;stroke-width:0.625;" x1="120.7813" x2="147.0313" y1="179.1748" y2="179.1748"/><line style="stroke:#181818;stroke-width:0.625;" x1="147.0313" x2="147.0313" y1="179.1748" y2="187.2998"/><line style="stroke:#181818;stroke-width:0.625;" x1="121.4063" x2="147.0313" y1="187.2998" y2="187.2998"/><polygon fill="#181818" points="127.6563,184.7998,121.4063,187.2998,127.6563,189.7998,125.1563,187.2998" style="stroke:#181818;stroke-width:0.625;"/><text fill="#000000" font-family="sans-serif" font-size="8.125" lengthAdjust="spacing" textLength="115.625" x="125.1563" y="176.1395">Retun (TypedResults.NotFound)</text><line style="stroke:#181818;stroke-width:0.625;" x1="120.7813" x2="147.0313" y1="210.6445" y2="210.6445"/><line style="stroke:#181818;stroke-width:0.625;" x1="147.0313" x2="147.0313" y1="210.6445" y2="218.7695"/><line style="stroke:#181818;stroke-width:0.625;" x1="121.4063" x2="147.0313" y1="218.7695" y2="218.7695"/><polygon fill="#181818" points="127.6563,216.2695,121.4063,218.7695,127.6563,221.2695,125.1563,218.7695" style="stroke:#181818;stroke-width:0.625;"/><text fill="#000000" font-family="sans-serif" font-size="8.125" lengthAdjust="spacing" textLength="91.25" x="125.1563" y="207.6093">Retun (TypedResults.Ok)</text><!--SRC=[tL6nRW8n3Dtp5UvrQGTE35M7gbG211L3eGAapYxdGaJEIHEdS7_Vd8wgS5swi90Xif_zxFVaA-TnNI8Oh6mK22K9CggmrUpGOmc5qt3VLKgq688X2XgxXdv2EuV_57icWObG2OCA9aLTdhsypgQZwH8CVP5HAiqLlT8EMI0RxOKyeya00mpl9fpIiR6xV64_P8UU5bL8qqB-qzZaIhtRFMH7gpEuVjje8GNfDTKsUhBuX9fs5rQO9AV5nhgyxrSrQoNHqnyb1sOYvaFBWfh9Xxn9IsUPM8wR5741IO_w3TJ_ZKBdwNpIuA5rBhNsDhesY4P05_3OWwuwdvOp6vsJH8QRPUMec5E89ZKCC8MVaOBSriTfZDQ-UptWQCnbkPrQ6Tl8HUFregpDjeqfzGq0]--></g></svg>