<?xml version="1.0" encoding="us-ascii" standalone="no"?><svg xmlns="http://www.w3.org/2000/svg" xmlns:xlink="http://www.w3.org/1999/xlink" contentStyleType="text/css" height="521px" preserveAspectRatio="none" style="width:588px;height:521px;background:#FFFFFF;" version="1.1" viewBox="0 0 588 521" width="588px" zoomAndPan="magnify"><defs/><g><rect fill="none" height="470.7266" style="stroke:#444444;stroke-width:0.5;" width="110" x="217" y="44.6094"/><text fill="#444444" font-family="sans-serif" font-size="13" font-weight="bold" lengthAdjust="spacing" textLength="74" x="235" y="58.1045">Catalog Api</text><text fill="#444444" font-family="sans-serif" font-size="12" font-weight="bold" lengthAdjust="spacing" textLength="51" x="246.5" y="73.418">[System]</text><rect fill="none" height="434.2813" style="stroke:#444444;stroke-width:0.5;" width="110" x="217" y="81.0547"/><text fill="#444444" font-family="sans-serif" font-size="13" font-weight="bold" lengthAdjust="spacing" textLength="21" x="261.5" y="94.5498">Api</text><text fill="#444444" font-family="sans-serif" font-size="12" font-weight="bold" lengthAdjust="spacing" textLength="63" x="240.5" y="109.8633">[Container]</text><text fill="#000000" font-family="sans-serif" font-size="14" font-weight="bold" lengthAdjust="spacing" textLength="555" x="15" y="29.5332">Catalog Api - Api - Catalog Api - Get Item By Id - C4 Sequence - Component level</text><rect fill="#FFFFFF" height="277.5234" style="stroke:#FFFFFF;stroke-width:1.0;" width="247" x="237" y="207.8125"/><rect fill="#FFFFFF" height="85.5391" style="stroke:#FFFFFF;stroke-width:1.0;" width="203" x="256" y="240.1641"/><rect fill="#FFFFFF" height="85.5391" style="stroke:#FFFFFF;stroke-width:1.0;" width="187" x="256" y="343.7031"/><line style="stroke:#666666;stroke-width:0.5;stroke-dasharray:5.0,5.0;" x1="152" x2="152" y1="166.7188" y2="509.3359"/><line style="stroke:#666666;stroke-width:0.5;stroke-dasharray:5.0,5.0;" x1="272" x2="272" y1="166.7188" y2="509.3359"/><rect fill="#999999" height="49.2188" rx="2.5" ry="2.5" style="stroke:#8A8A8A;stroke-width:0.5;" width="118" x="93" y="116.5"/><text fill="#FFFFFF" font-family="sans-serif" font-size="12" font-style="italic" lengthAdjust="spacing" textLength="104" x="100" y="135.957">&#171;external_system&#187;</text><text fill="#FFFFFF" font-family="sans-serif" font-size="16" font-weight="bold" lengthAdjust="spacing" textLength="63" x="120.5" y="155.2031">External</text><rect fill="#85BBF0" height="49.2188" rx="2.5" ry="2.5" style="stroke:#78A8D8;stroke-width:0.5;" width="102" x="221" y="116.5"/><text fill="#000000" font-family="sans-serif" font-size="12" font-style="italic" lengthAdjust="spacing" textLength="76" x="234" y="135.957">&#171;component&#187;</text><text fill="#000000" font-family="sans-serif" font-size="16" font-weight="bold" lengthAdjust="spacing" textLength="88" x="228" y="155.2031">Catalog Api</text><polygon fill="#666666" points="260,191.8125,270,195.8125,260,199.8125,264,195.8125" style="stroke:#666666;stroke-width:1.0;"/><line style="stroke:#666666;stroke-width:1.0;" x1="152" x2="266" y1="195.8125" y2="195.8125"/><text fill="#666666" font-family="sans-serif" font-size="12" font-weight="bold" lengthAdjust="spacing" textLength="19" x="173.5" y="191.1758">Get</text><text fill="#666666" font-family="sans-serif" font-size="12" font-weight="bold" lengthAdjust="spacing" textLength="3" x="192.5" y="191.1758">&#160;</text><text fill="#666666" font-family="sans-serif" font-size="12" font-weight="bold" lengthAdjust="spacing" textLength="25" x="195.5" y="191.1758">Item</text><text fill="#666666" font-family="sans-serif" font-size="12" font-weight="bold" lengthAdjust="spacing" textLength="3" x="220.5" y="191.1758">&#160;</text><text fill="#666666" font-family="sans-serif" font-size="12" font-weight="bold" lengthAdjust="spacing" textLength="14" x="223.5" y="191.1758">By</text><text fill="#666666" font-family="sans-serif" font-size="12" font-weight="bold" lengthAdjust="spacing" textLength="3" x="237.5" y="191.1758">&#160;</text><text fill="#666666" font-family="sans-serif" font-size="12" font-weight="bold" lengthAdjust="spacing" textLength="10" x="240.5" y="191.1758">Id</text><path d="M237,207.8125 L372,207.8125 L372,216.1641 L362,226.1641 L237,226.1641 L237,207.8125 " fill="#444444" style="stroke:#444444;stroke-width:1.5;"/><rect fill="none" height="277.5234" style="stroke:#444444;stroke-width:1.5;" width="247" x="237" y="207.8125"/><text fill="#FFFFFF" font-family="sans-serif" font-size="13" font-weight="bold" lengthAdjust="spacing" textLength="90" x="252" y="222.3076">Get Item By Id</text><path d="M256,240.1641 L317,240.1641 L317,248.5156 L307,258.5156 L256,258.5156 L256,240.1641 " fill="#444444" style="stroke:#444444;stroke-width:1.5;"/><rect fill="none" height="85.5391" style="stroke:#444444;stroke-width:1.5;" width="203" x="256" y="240.1641"/><text fill="#FFFFFF" font-family="sans-serif" font-size="13" font-weight="bold" lengthAdjust="spacing" textLength="16" x="271" y="254.6592">alt</text><text fill="#444444" font-family="sans-serif" font-size="11" font-weight="bold" lengthAdjust="spacing" textLength="42" x="332" y="253.583">[id &lt;= 0]</text><line style="stroke:#666666;stroke-width:1.0;" x1="272" x2="314" y1="304.7031" y2="304.7031"/><line style="stroke:#666666;stroke-width:1.0;" x1="314" x2="314" y1="304.7031" y2="317.7031"/><line style="stroke:#666666;stroke-width:1.0;" x1="273" x2="314" y1="317.7031" y2="317.7031"/><polygon fill="#666666" points="283,313.7031,273,317.7031,283,321.7031,279,317.7031" style="stroke:#666666;stroke-width:1.0;"/><text fill="#666666" font-family="sans-serif" font-size="12" font-weight="bold" lengthAdjust="spacing" textLength="33" x="341" y="284.9727">Retun</text><text fill="#666666" font-family="sans-serif" font-size="12" font-weight="bold" lengthAdjust="spacing" textLength="157" x="279" y="300.0664">(TypedResults.BadRequest)</text><path d="M256,343.7031 L317,343.7031 L317,352.0547 L307,362.0547 L256,362.0547 L256,343.7031 " fill="#444444" style="stroke:#444444;stroke-width:1.5;"/><rect fill="none" height="85.5391" style="stroke:#444444;stroke-width:1.5;" width="187" x="256" y="343.7031"/><text fill="#FFFFFF" font-family="sans-serif" font-size="13" font-weight="bold" lengthAdjust="spacing" textLength="16" x="271" y="358.1982">alt</text><text fill="#444444" font-family="sans-serif" font-size="11" font-weight="bold" lengthAdjust="spacing" textLength="71" x="332" y="357.1221">[item == null]</text><line style="stroke:#666666;stroke-width:1.0;" x1="272" x2="314" y1="408.2422" y2="408.2422"/><line style="stroke:#666666;stroke-width:1.0;" x1="314" x2="314" y1="408.2422" y2="421.2422"/><line style="stroke:#666666;stroke-width:1.0;" x1="273" x2="314" y1="421.2422" y2="421.2422"/><polygon fill="#666666" points="283,417.2422,273,421.2422,283,425.2422,279,421.2422" style="stroke:#666666;stroke-width:1.0;"/><text fill="#666666" font-family="sans-serif" font-size="12" font-weight="bold" lengthAdjust="spacing" textLength="33" x="333" y="388.5117">Retun</text><text fill="#666666" font-family="sans-serif" font-size="12" font-weight="bold" lengthAdjust="spacing" textLength="141" x="279" y="403.6055">(TypedResults.NotFound)</text><line style="stroke:#666666;stroke-width:1.0;" x1="272" x2="314" y1="464.3359" y2="464.3359"/><line style="stroke:#666666;stroke-width:1.0;" x1="314" x2="314" y1="464.3359" y2="477.3359"/><line style="stroke:#666666;stroke-width:1.0;" x1="273" x2="314" y1="477.3359" y2="477.3359"/><polygon fill="#666666" points="283,473.3359,273,477.3359,283,481.3359,279,477.3359" style="stroke:#666666;stroke-width:1.0;"/><text fill="#666666" font-family="sans-serif" font-size="12" font-weight="bold" lengthAdjust="spacing" textLength="33" x="279" y="459.6992">Retun</text><text fill="#666666" font-family="sans-serif" font-size="12" font-weight="bold" lengthAdjust="spacing" textLength="3" x="312" y="459.6992">&#160;</text><text fill="#666666" font-family="sans-serif" font-size="12" font-weight="bold" lengthAdjust="spacing" textLength="104" x="315" y="459.6992">(TypedResults.Ok)</text><!--SRC=[tPF1JiCm38RlVGflfqw2Y4EFxB1L6ze5f9NZf2bglQqYTKBYCFhsf7GjZ24a1BkiYgeuZlxyd-CCZ9NRIeAIjVOChaAM9AD1IRdo1O8Gg-z7dhXLcgmpVFP8EGhZAnL5NB92I2LBfRSmCILS7_x7QtV8i62iO5h3ecZI2NHIJQGhemc9GU4B1jsiTc7tUlRASPeiYD7EbTwBJ6zuBossQIT27Yr9rSPNCEmMXc4-7FKwK-sfaBQE2ys4B33RQICcDj-LZ3bxYoVI1__1Vf3w11DK8NnHgebbIMZ_9Yvw7IVQipxEwAlo7ygYL_k1hQbQMxaEQZsZ8Zu9eoMgNrtCEG6EUojutrhjpPUMYwHYA0ku7SFDk_ipEZedx1BP4yIFjS5YYSwhi64gmpIy9SUZG8zqW6tOnsCWhzIb4TzhdZSTsV5U6Dx3KmSMlG40]--></g></svg>