<?xml version="1.0" encoding="us-ascii" standalone="no"?><svg xmlns="http://www.w3.org/2000/svg" xmlns:xlink="http://www.w3.org/1999/xlink" contentStyleType="text/css" height="414px" preserveAspectRatio="none" style="width:652px;height:414px;background:#FFFFFF;" version="1.1" viewBox="0 0 652 414" width="652px" zoomAndPan="magnify"><defs/><g><text fill="#000000" font-family="sans-serif" font-size="14" font-weight="bold" lengthAdjust="spacing" textLength="553" x="51" y="29.5332">Internet Banking - Mobile App - Change Password - Sequence - Container level</text><rect fill="#FFFFFF" height="356.6797" style="stroke:#181818;stroke-width:0.5;" width="369.5" x="120.5" y="44.6094"/><text fill="#000000" font-family="sans-serif" font-size="13" font-weight="bold" lengthAdjust="spacing" textLength="105" x="252.75" y="58.1045">Internet Banking</text><rect fill="none" height="141.7578" style="stroke:#000000;stroke-width:1.5;" width="531.5" x="114.5" y="175.9219"/><rect fill="none" height="79.0547" style="stroke:#000000;stroke-width:1.5;" width="404.5" x="231.5" y="231.625"/><line style="stroke:#181818;stroke-width:0.5;stroke-dasharray:5.0,5.0;" x1="37" x2="37" y1="128.5703" y2="334.6797"/><line style="stroke:#181818;stroke-width:0.5;stroke-dasharray:5.0,5.0;" x1="166.5" x2="166.5" y1="128.5703" y2="334.6797"/><line style="stroke:#181818;stroke-width:0.5;stroke-dasharray:5.0,5.0;" x1="295.5" x2="295.5" y1="128.5703" y2="334.6797"/><line style="stroke:#181818;stroke-width:0.5;stroke-dasharray:5.0,5.0;" x1="452" x2="452" y1="128.5703" y2="334.6797"/><line style="stroke:#181818;stroke-width:0.5;stroke-dasharray:5.0,5.0;" x1="574" x2="574" y1="128.5703" y2="334.6797"/><rect fill="#E2E2F0" height="31.6094" rx="2.5" ry="2.5" style="stroke:#181818;stroke-width:0.5;" width="65" x="5" y="95.9609"/><text fill="#000000" font-family="sans-serif" font-size="14" lengthAdjust="spacing" textLength="51" x="12" y="117.4941">External</text><rect fill="#E2E2F0" height="31.6094" rx="2.5" ry="2.5" style="stroke:#181818;stroke-width:0.5;" width="65" x="5" y="333.6797"/><text fill="#000000" font-family="sans-serif" font-size="14" lengthAdjust="spacing" textLength="51" x="12" y="355.2129">External</text><rect fill="#E2E2F0" height="31.6094" rx="2.5" ry="2.5" style="stroke:#181818;stroke-width:0.5;" width="84" x="124.5" y="95.9609"/><text fill="#000000" font-family="sans-serif" font-size="14" lengthAdjust="spacing" textLength="70" x="131.5" y="117.4941">Mobile App</text><rect fill="#E2E2F0" height="31.6094" rx="2.5" ry="2.5" style="stroke:#181818;stroke-width:0.5;" width="84" x="124.5" y="333.6797"/><text fill="#000000" font-family="sans-serif" font-size="14" lengthAdjust="spacing" textLength="70" x="131.5" y="355.2129">Mobile App</text><rect fill="#E2E2F0" height="31.6094" rx="2.5" ry="2.5" style="stroke:#181818;stroke-width:0.5;" width="108" x="241.5" y="95.9609"/><text fill="#000000" font-family="sans-serif" font-size="14" lengthAdjust="spacing" textLength="94" x="248.5" y="117.4941">API Application</text><rect fill="#E2E2F0" height="31.6094" rx="2.5" ry="2.5" style="stroke:#181818;stroke-width:0.5;" width="108" x="241.5" y="333.6797"/><text fill="#000000" font-family="sans-serif" font-size="14" lengthAdjust="spacing" textLength="94" x="248.5" y="355.2129">API Application</text><text fill="#000000" font-family="sans-serif" font-size="14" lengthAdjust="spacing" textLength="61" x="419" y="125.4941">Database</text><path d="M434.5,74.9609 C434.5,64.9609 452.5,64.9609 452.5,64.9609 C452.5,64.9609 470.5,64.9609 470.5,74.9609 L470.5,100.9609 C470.5,110.9609 452.5,110.9609 452.5,110.9609 C452.5,110.9609 434.5,110.9609 434.5,100.9609 L434.5,74.9609 " fill="#E2E2F0" style="stroke:#181818;stroke-width:1.5;"/><path d="M434.5,74.9609 C434.5,84.9609 452.5,84.9609 452.5,84.9609 C452.5,84.9609 470.5,84.9609 470.5,74.9609 " fill="none" style="stroke:#181818;stroke-width:1.5;"/><text fill="#000000" font-family="sans-serif" font-size="14" lengthAdjust="spacing" textLength="61" x="419" y="348.2129">Database</text><path d="M434.5,361.2891 C434.5,351.2891 452.5,351.2891 452.5,351.2891 C452.5,351.2891 470.5,351.2891 470.5,361.2891 L470.5,387.2891 C470.5,397.2891 452.5,397.2891 452.5,397.2891 C452.5,397.2891 434.5,397.2891 434.5,387.2891 L434.5,361.2891 " fill="#E2E2F0" style="stroke:#181818;stroke-width:1.5;"/><path d="M434.5,361.2891 C434.5,371.2891 452.5,371.2891 452.5,371.2891 C452.5,371.2891 470.5,371.2891 470.5,361.2891 " fill="none" style="stroke:#181818;stroke-width:1.5;"/><rect fill="#E2E2F0" height="31.6094" rx="2.5" ry="2.5" style="stroke:#181818;stroke-width:0.5;" width="103" x="523" y="95.9609"/><text fill="#000000" font-family="sans-serif" font-size="14" lengthAdjust="spacing" textLength="89" x="530" y="117.4941">E-Mail System</text><rect fill="#E2E2F0" height="31.6094" rx="2.5" ry="2.5" style="stroke:#181818;stroke-width:0.5;" width="103" x="523" y="333.6797"/><text fill="#000000" font-family="sans-serif" font-size="14" lengthAdjust="spacing" textLength="89" x="530" y="355.2129">E-Mail System</text><polygon fill="#181818" points="154.5,156.9219,164.5,160.9219,154.5,164.9219,158.5,160.9219" style="stroke:#181818;stroke-width:1.0;"/><line style="stroke:#181818;stroke-width:1.0;" x1="37.5" x2="160.5" y1="160.9219" y2="160.9219"/><text fill="#000000" font-family="sans-serif" font-size="13" lengthAdjust="spacing" textLength="105" x="44.5" y="156.0654">Change Password</text><path d="M114.5,175.9219 L273.5,175.9219 L273.5,184.2734 L263.5,194.2734 L114.5,194.2734 L114.5,175.9219 " fill="#EEEEEE" style="stroke:#000000;stroke-width:1.5;"/><rect fill="none" height="141.7578" style="stroke:#000000;stroke-width:1.5;" width="531.5" x="114.5" y="175.9219"/><text fill="#000000" font-family="sans-serif" font-size="13" font-weight="bold" lengthAdjust="spacing" textLength="114" x="129.5" y="190.417">Change Password</text><polygon fill="#181818" points="283.5,212.625,293.5,216.625,283.5,220.625,287.5,216.625" style="stroke:#181818;stroke-width:1.0;"/><line style="stroke:#181818;stroke-width:1.0;" x1="166.5" x2="289.5" y1="216.625" y2="216.625"/><text fill="#000000" font-family="sans-serif" font-size="13" lengthAdjust="spacing" textLength="105" x="173.5" y="211.7686">Change Password</text><path d="M231.5,231.625 L390.5,231.625 L390.5,239.9766 L380.5,249.9766 L231.5,249.9766 L231.5,231.625 " fill="#EEEEEE" style="stroke:#000000;stroke-width:1.5;"/><rect fill="none" height="79.0547" style="stroke:#000000;stroke-width:1.5;" width="404.5" x="231.5" y="231.625"/><text fill="#000000" font-family="sans-serif" font-size="13" font-weight="bold" lengthAdjust="spacing" textLength="114" x="246.5" y="246.1201">Change Password</text><polygon fill="#181818" points="440.5,268.3281,450.5,272.3281,440.5,276.3281,444.5,272.3281" style="stroke:#181818;stroke-width:1.0;"/><line style="stroke:#181818;stroke-width:1.0;" x1="295.5" x2="446.5" y1="272.3281" y2="272.3281"/><text fill="#000000" font-family="sans-serif" font-size="13" lengthAdjust="spacing" textLength="133" x="302.5" y="267.4717">Update User Password</text><polygon fill="#181818" points="562.5,298.6797,572.5,302.6797,562.5,306.6797,566.5,302.6797" style="stroke:#181818;stroke-width:1.0;"/><line style="stroke:#181818;stroke-width:1.0;" x1="295.5" x2="568.5" y1="302.6797" y2="302.6797"/><text fill="#000000" font-family="sans-serif" font-size="13" lengthAdjust="spacing" textLength="255" x="302.5" y="297.8232">Send Password Changed Notification E-Mail</text><!--SRC=[lPJDRi8m48JlVefjUYQdddge19HA7AYG8jJpaYp1gh5TUzF0szTE28LmQ4NKHeeK_-IRaMUIE-kmt24eF9YAmU-8KQCGB5aHp3MJqyGmGVqkTGaZM9Yr32jZQyDWkaLT4YpH-zgu8inaz56HpYak6iqeDJbGz4bA28kEPIujQePajezeL0cWX-b3e_IYJ9rcPiCrEieEdcddqsvZEnPYRVQGz8qbSF-sbKm2mdMXy-stKPh8ChwoLFcLKCSy8jEJVv-saC2uve-NymXNCaUMHWyG2QGpKADK8ECQFK7oV7mQmEyGWdG1uHJxWOmMA1Mqe9zaPd5lbyZlquFHqz04uB7VEb4wKzchsQ4wDrkzpF6F_VR4RZRTbIFONTbGEuAL3r_kVxexwrHmaSMMdduixM4Ly6fORZfSszXOv-OMNm00]--></g></svg>