<?xml version="1.0" encoding="us-ascii" standalone="no"?><svg xmlns="http://www.w3.org/2000/svg" xmlns:xlink="http://www.w3.org/1999/xlink" contentStyleType="text/css" height="558px" preserveAspectRatio="none" style="width:667px;height:558px;background:#FFFFFF;" version="1.1" viewBox="0 0 667 558" width="667px" zoomAndPan="magnify"><defs/><g><text fill="#000000" font-family="sans-serif" font-size="14" font-weight="bold" lengthAdjust="spacing" textLength="589" x="40.5" y="29.5332">Trader X Example - TraderX - Web Client - Cancel Trade - Sequence - Container level</text><rect fill="#FFFFFF" height="501.1406" style="stroke:#181818;stroke-width:0.5;" width="543" x="92" y="44.6094"/><text fill="#000000" font-family="sans-serif" font-size="13" font-weight="bold" lengthAdjust="spacing" textLength="51" x="338" y="58.1045">TraderX</text><rect fill="none" height="269.8672" style="stroke:#000000;stroke-width:1.5;" width="575" x="86" y="192.2734"/><rect fill="none" height="190.8125" style="stroke:#000000;stroke-width:1.5;" width="458.5" x="192.5" y="264.3281"/><rect fill="none" height="111.7578" style="stroke:#000000;stroke-width:1.5;" width="368.5" x="272.5" y="336.3828"/><line style="stroke:#181818;stroke-width:0.5;stroke-dasharray:5.0,5.0;" x1="37" x2="37" y1="128.5703" y2="479.1406"/><line style="stroke:#181818;stroke-width:0.5;stroke-dasharray:5.0,5.0;" x1="137" x2="137" y1="128.5703" y2="479.1406"/><line style="stroke:#181818;stroke-width:0.5;stroke-dasharray:5.0,5.0;" x1="237.5" x2="237.5" y1="128.5703" y2="479.1406"/><line style="stroke:#181818;stroke-width:0.5;stroke-dasharray:5.0,5.0;" x1="342.5" x2="342.5" y1="128.5703" y2="479.1406"/><line style="stroke:#181818;stroke-width:0.5;stroke-dasharray:5.0,5.0;" x1="486" x2="486" y1="128.5703" y2="479.1406"/><line style="stroke:#181818;stroke-width:0.5;stroke-dasharray:5.0,5.0;" x1="583" x2="583" y1="128.5703" y2="479.1406"/><rect fill="#E2E2F0" height="31.6094" rx="2.5" ry="2.5" style="stroke:#181818;stroke-width:0.5;" width="65" x="5" y="95.9609"/><text fill="#000000" font-family="sans-serif" font-size="14" lengthAdjust="spacing" textLength="51" x="12" y="117.4941">External</text><rect fill="#E2E2F0" height="31.6094" rx="2.5" ry="2.5" style="stroke:#181818;stroke-width:0.5;" width="65" x="5" y="478.1406"/><text fill="#000000" font-family="sans-serif" font-size="14" lengthAdjust="spacing" textLength="51" x="12" y="499.6738">External</text><rect fill="#E2E2F0" height="31.6094" rx="2.5" ry="2.5" style="stroke:#181818;stroke-width:0.5;" width="83" x="96" y="95.9609"/><text fill="#000000" font-family="sans-serif" font-size="14" lengthAdjust="spacing" textLength="69" x="103" y="117.4941">Web Client</text><rect fill="#E2E2F0" height="31.6094" rx="2.5" ry="2.5" style="stroke:#181818;stroke-width:0.5;" width="83" x="96" y="478.1406"/><text fill="#000000" font-family="sans-serif" font-size="14" lengthAdjust="spacing" textLength="69" x="103" y="499.6738">Web Client</text><rect fill="#E2E2F0" height="31.6094" rx="2.5" ry="2.5" style="stroke:#181818;stroke-width:0.5;" width="70" x="202.5" y="95.9609"/><text fill="#000000" font-family="sans-serif" font-size="14" lengthAdjust="spacing" textLength="56" x="209.5" y="117.4941">Web GUI</text><rect fill="#E2E2F0" height="31.6094" rx="2.5" ry="2.5" style="stroke:#181818;stroke-width:0.5;" width="70" x="202.5" y="478.1406"/><text fill="#000000" font-family="sans-serif" font-size="14" lengthAdjust="spacing" textLength="56" x="209.5" y="499.6738">Web GUI</text><rect fill="#E2E2F0" height="31.6094" rx="2.5" ry="2.5" style="stroke:#181818;stroke-width:0.5;" width="121" x="282.5" y="95.9609"/><text fill="#000000" font-family="sans-serif" font-size="14" lengthAdjust="spacing" textLength="107" x="289.5" y="117.4941">Trading Services</text><rect fill="#E2E2F0" height="31.6094" rx="2.5" ry="2.5" style="stroke:#181818;stroke-width:0.5;" width="121" x="282.5" y="478.1406"/><text fill="#000000" font-family="sans-serif" font-size="14" lengthAdjust="spacing" textLength="107" x="289.5" y="499.6738">Trading Services</text><text fill="#000000" font-family="sans-serif" font-size="14" lengthAdjust="spacing" textLength="74" x="446" y="125.4941">TraderX DB</text><path d="M468,74.9609 C468,64.9609 486,64.9609 486,64.9609 C486,64.9609 504,64.9609 504,74.9609 L504,100.9609 C504,110.9609 486,110.9609 486,110.9609 C486,110.9609 468,110.9609 468,100.9609 L468,74.9609 " fill="#E2E2F0" style="stroke:#181818;stroke-width:1.5;"/><path d="M468,74.9609 C468,84.9609 486,84.9609 486,84.9609 C486,84.9609 504,84.9609 504,74.9609 " fill="none" style="stroke:#181818;stroke-width:1.5;"/><text fill="#000000" font-family="sans-serif" font-size="14" lengthAdjust="spacing" textLength="74" x="446" y="492.6738">TraderX DB</text><path d="M468,505.75 C468,495.75 486,495.75 486,495.75 C486,495.75 504,495.75 504,505.75 L504,531.75 C504,541.75 486,541.75 486,541.75 C486,541.75 468,541.75 468,531.75 L468,505.75 " fill="#E2E2F0" style="stroke:#181818;stroke-width:1.5;"/><path d="M468,505.75 C468,515.75 486,515.75 486,515.75 C486,515.75 504,515.75 504,505.75 " fill="none" style="stroke:#181818;stroke-width:1.5;"/><path d="M541,100.9609 L626,100.9609 C631,100.9609 631,114.7656 631,114.7656 C631,114.7656 631,128.5703 626,128.5703 L541,128.5703 C536,128.5703 536,114.7656 536,114.7656 C536,114.7656 536,100.9609 541,100.9609 " fill="#E2E2F0" style="stroke:#181818;stroke-width:0.5;"/><path d="M626,100.9609 C621,100.9609 621,114.7656 621,114.7656 C621,128.5703 626,128.5703 626,128.5703 " fill="none" style="stroke:#181818;stroke-width:0.5;"/><text fill="#000000" font-family="sans-serif" font-size="14" lengthAdjust="spacing" textLength="75" x="541" y="120.4941">Trade Feed</text><path d="M541,478.1406 L626,478.1406 C631,478.1406 631,491.9453 631,491.9453 C631,491.9453 631,505.75 626,505.75 L541,505.75 C536,505.75 536,491.9453 536,491.9453 C536,491.9453 536,478.1406 541,478.1406 " fill="#E2E2F0" style="stroke:#181818;stroke-width:0.5;"/><path d="M626,478.1406 C621,478.1406 621,491.9453 621,491.9453 C621,505.75 626,505.75 626,505.75 " fill="none" style="stroke:#181818;stroke-width:0.5;"/><text fill="#000000" font-family="sans-serif" font-size="14" lengthAdjust="spacing" textLength="75" x="541" y="497.6738">Trade Feed</text><polygon fill="#181818" points="125.5,173.2734,135.5,177.2734,125.5,181.2734,129.5,177.2734" style="stroke:#181818;stroke-width:1.0;"/><line style="stroke:#181818;stroke-width:1.0;" x1="37.5" x2="131.5" y1="177.2734" y2="177.2734"/><text fill="#000000" font-family="sans-serif" font-size="13" lengthAdjust="spacing" textLength="76" x="44.5" y="156.0654">Cancel Trade</text><text fill="#000000" font-family="sans-serif" font-size="13" lengthAdjust="spacing" textLength="49" x="44.5" y="172.417">[HTTPS]</text><path d="M86,192.2734 L216,192.2734 L216,200.625 L206,210.625 L86,210.625 L86,192.2734 " fill="#EEEEEE" style="stroke:#000000;stroke-width:1.5;"/><rect fill="none" height="269.8672" style="stroke:#000000;stroke-width:1.5;" width="575" x="86" y="192.2734"/><text fill="#000000" font-family="sans-serif" font-size="13" font-weight="bold" lengthAdjust="spacing" textLength="85" x="101" y="206.7686">Cancel Trade</text><polygon fill="#181818" points="225.5,245.3281,235.5,249.3281,225.5,253.3281,229.5,249.3281" style="stroke:#181818;stroke-width:1.0;"/><line style="stroke:#181818;stroke-width:1.0;" x1="137.5" x2="231.5" y1="249.3281" y2="249.3281"/><text fill="#000000" font-family="sans-serif" font-size="13" lengthAdjust="spacing" textLength="76" x="144.5" y="228.1201">Cancel Trade</text><text fill="#000000" font-family="sans-serif" font-size="13" lengthAdjust="spacing" textLength="49" x="144.5" y="244.4717">[HTTPS]</text><path d="M192.5,264.3281 L322.5,264.3281 L322.5,272.6797 L312.5,282.6797 L192.5,282.6797 L192.5,264.3281 " fill="#EEEEEE" style="stroke:#000000;stroke-width:1.5;"/><rect fill="none" height="190.8125" style="stroke:#000000;stroke-width:1.5;" width="458.5" x="192.5" y="264.3281"/><text fill="#000000" font-family="sans-serif" font-size="13" font-weight="bold" lengthAdjust="spacing" textLength="85" x="207.5" y="278.8232">Cancel Trade</text><polygon fill="#181818" points="331,317.3828,341,321.3828,331,325.3828,335,321.3828" style="stroke:#181818;stroke-width:1.0;"/><line style="stroke:#181818;stroke-width:1.0;" x1="237.5" x2="337" y1="321.3828" y2="321.3828"/><text fill="#000000" font-family="sans-serif" font-size="13" lengthAdjust="spacing" textLength="76" x="244.5" y="300.1748">Cancel Trade</text><text fill="#000000" font-family="sans-serif" font-size="13" lengthAdjust="spacing" textLength="49" x="244.5" y="316.5264">[HTTPS]</text><path d="M272.5,336.3828 L402.5,336.3828 L402.5,344.7344 L392.5,354.7344 L272.5,354.7344 L272.5,336.3828 " fill="#EEEEEE" style="stroke:#000000;stroke-width:1.5;"/><rect fill="none" height="111.7578" style="stroke:#000000;stroke-width:1.5;" width="368.5" x="272.5" y="336.3828"/><text fill="#000000" font-family="sans-serif" font-size="13" font-weight="bold" lengthAdjust="spacing" textLength="85" x="287.5" y="350.8779">Cancel Trade</text><polygon fill="#181818" points="474,389.4375,484,393.4375,474,397.4375,478,393.4375" style="stroke:#181818;stroke-width:1.0;"/><line style="stroke:#181818;stroke-width:1.0;" x1="343" x2="480" y1="393.4375" y2="393.4375"/><text fill="#000000" font-family="sans-serif" font-size="13" lengthAdjust="spacing" textLength="119" x="350" y="372.2295">Update Trade Status</text><text fill="#000000" font-family="sans-serif" font-size="13" lengthAdjust="spacing" textLength="41" x="350" y="388.5811">[JDBC]</text><polygon fill="#181818" points="571.5,436.1406,581.5,440.1406,571.5,444.1406,575.5,440.1406" style="stroke:#181818;stroke-width:1.0;"/><line style="stroke:#181818;stroke-width:1.0;" x1="343" x2="577.5" y1="440.1406" y2="440.1406"/><text fill="#000000" font-family="sans-serif" font-size="13" lengthAdjust="spacing" textLength="143" x="350" y="418.9326">Send Updates To Trades</text><text fill="#000000" font-family="sans-serif" font-size="13" lengthAdjust="spacing" textLength="62" x="350" y="435.2842">[SocketIO]</text><!--SRC=[nPHDRy8m38Rl-HLMTwQddNROWG8RksnIG21j74BhiMWXwP8KsB-VqmOcFWvJAxHAbMexVlqqiUEbLmWJAmgqC8VXJgnBSlIYQqvVCrn2fYHgJqOcT8wgYPB9yQj2yeI8qLv8JJ8ADwWOAuNrCfUbeCHakFDejL0920VPxLYJEL9cctBpxhV28lzs7jSktIziRCQMPWT9X4dWPlOXFJAWvqZ-bx4k4DV7lpch4SFf0Tcb9D3aNzP-c8xR2rFokMfOAlMATj1kP8wkfNoKsQlKTGhXnL8uFEmR3FeTvCarwDV2TDRLNXL6Y4KNrP3FK1T09ymO-tjFGE- -om73tL4Jl-dNnydaXI_OofggF8gnBcNQKbAtN1qnr6Z5Tz9krmKzBTQQkEvWOfsMD1hnjWFkXQyS8JyD-jdYN_72A10U3zFGCD9KcKOj47AJVw8VFo_2l1nUzWC0]--></g></svg>