<?xml version="1.0" encoding="us-ascii" standalone="no"?><svg xmlns="http://www.w3.org/2000/svg" xmlns:xlink="http://www.w3.org/1999/xlink" contentStyleType="text/css" height="489px" preserveAspectRatio="none" style="width:799px;height:489px;background:#FFFFFF;" version="1.1" viewBox="0 0 799 489" width="799px" zoomAndPan="magnify"><defs/><g><text fill="#000000" font-family="sans-serif" font-size="14" font-weight="bold" lengthAdjust="spacing" textLength="771" x="10" y="29.5332">Big Bank Plc - Internet Banking - Single-Page Application - View Customer Details - Sequence - Container level</text><rect fill="#FFFFFF" height="439.1406" style="stroke:#181818;stroke-width:0.5;" width="308" x="181.5" y="44.6094"/><text fill="#000000" font-family="sans-serif" font-size="13" font-weight="bold" lengthAdjust="spacing" textLength="105" x="283" y="58.1045">Internet Banking</text><rect fill="none" height="269.8672" style="stroke:#000000;stroke-width:1.5;" width="532.5" x="175.5" y="161.2734"/><rect fill="none" height="65.0547" style="stroke:#000000;stroke-width:1.5;" width="330.5" x="367.5" y="233.3281"/><rect fill="none" height="65.0547" style="stroke:#000000;stroke-width:1.5;" width="330.5" x="367.5" y="359.0859"/><line style="stroke:#181818;stroke-width:0.5;stroke-dasharray:5.0,5.0;" x1="111" x2="111" y1="97.5703" y2="448.1406"/><line style="stroke:#181818;stroke-width:0.5;stroke-dasharray:5.0,5.0;" x1="267.5" x2="267.5" y1="97.5703" y2="448.1406"/><line style="stroke:#181818;stroke-width:0.5;stroke-dasharray:5.0,5.0;" x1="431.5" x2="431.5" y1="97.5703" y2="448.1406"/><line style="stroke:#181818;stroke-width:0.5;stroke-dasharray:5.0,5.0;" x1="595" x2="595" y1="97.5703" y2="448.1406"/><rect fill="#E2E2F0" height="31.6094" rx="2.5" ry="2.5" style="stroke:#181818;stroke-width:0.5;" width="65" x="79" y="64.9609"/><text fill="#000000" font-family="sans-serif" font-size="14" lengthAdjust="spacing" textLength="51" x="86" y="86.4941">External</text><rect fill="#E2E2F0" height="31.6094" rx="2.5" ry="2.5" style="stroke:#181818;stroke-width:0.5;" width="65" x="79" y="447.1406"/><text fill="#000000" font-family="sans-serif" font-size="14" lengthAdjust="spacing" textLength="51" x="86" y="468.6738">External</text><rect fill="#E2E2F0" height="31.6094" rx="2.5" ry="2.5" style="stroke:#181818;stroke-width:0.5;" width="164" x="185.5" y="64.9609"/><text fill="#000000" font-family="sans-serif" font-size="14" lengthAdjust="spacing" textLength="150" x="192.5" y="86.4941">Single-Page Application</text><rect fill="#E2E2F0" height="31.6094" rx="2.5" ry="2.5" style="stroke:#181818;stroke-width:0.5;" width="164" x="185.5" y="447.1406"/><text fill="#000000" font-family="sans-serif" font-size="14" lengthAdjust="spacing" textLength="150" x="192.5" y="468.6738">Single-Page Application</text><rect fill="#E2E2F0" height="31.6094" rx="2.5" ry="2.5" style="stroke:#181818;stroke-width:0.5;" width="108" x="377.5" y="64.9609"/><text fill="#000000" font-family="sans-serif" font-size="14" lengthAdjust="spacing" textLength="94" x="384.5" y="86.4941">API Application</text><rect fill="#E2E2F0" height="31.6094" rx="2.5" ry="2.5" style="stroke:#181818;stroke-width:0.5;" width="108" x="377.5" y="447.1406"/><text fill="#000000" font-family="sans-serif" font-size="14" lengthAdjust="spacing" textLength="94" x="384.5" y="468.6738">API Application</text><rect fill="#E2E2F0" height="31.6094" rx="2.5" ry="2.5" style="stroke:#181818;stroke-width:0.5;" width="185" x="503" y="64.9609"/><text fill="#000000" font-family="sans-serif" font-size="14" lengthAdjust="spacing" textLength="171" x="510" y="86.4941">Mainframe Banking System</text><rect fill="#E2E2F0" height="31.6094" rx="2.5" ry="2.5" style="stroke:#181818;stroke-width:0.5;" width="185" x="503" y="447.1406"/><text fill="#000000" font-family="sans-serif" font-size="14" lengthAdjust="spacing" textLength="171" x="510" y="468.6738">Mainframe Banking System</text><polygon fill="#181818" points="255.5,142.2734,265.5,146.2734,255.5,150.2734,259.5,146.2734" style="stroke:#181818;stroke-width:1.0;"/><line style="stroke:#181818;stroke-width:1.0;" x1="111.5" x2="261.5" y1="146.2734" y2="146.2734"/><text fill="#000000" font-family="sans-serif" font-size="13" lengthAdjust="spacing" textLength="132" x="118.5" y="125.0654">View Customer Details</text><text fill="#000000" font-family="sans-serif" font-size="13" lengthAdjust="spacing" textLength="49" x="118.5" y="141.417">[HTTPS]</text><path d="M175.5,161.2734 L363.5,161.2734 L363.5,169.625 L353.5,179.625 L175.5,179.625 L175.5,161.2734 " fill="#EEEEEE" style="stroke:#000000;stroke-width:1.5;"/><rect fill="none" height="269.8672" style="stroke:#000000;stroke-width:1.5;" width="532.5" x="175.5" y="161.2734"/><text fill="#000000" font-family="sans-serif" font-size="13" font-weight="bold" lengthAdjust="spacing" textLength="143" x="190.5" y="175.7686">View Customer Details</text><polygon fill="#181818" points="419.5,214.3281,429.5,218.3281,419.5,222.3281,423.5,218.3281" style="stroke:#181818;stroke-width:1.0;"/><line style="stroke:#181818;stroke-width:1.0;" x1="267.5" x2="425.5" y1="218.3281" y2="218.3281"/><text fill="#000000" font-family="sans-serif" font-size="13" lengthAdjust="spacing" textLength="81" x="274.5" y="197.1201">Get Customer</text><text fill="#000000" font-family="sans-serif" font-size="13" lengthAdjust="spacing" textLength="49" x="274.5" y="213.4717">[HTTPS]</text><path d="M367.5,233.3281 L498.5,233.3281 L498.5,241.6797 L488.5,251.6797 L367.5,251.6797 L367.5,233.3281 " fill="#EEEEEE" style="stroke:#000000;stroke-width:1.5;"/><rect fill="none" height="65.0547" style="stroke:#000000;stroke-width:1.5;" width="330.5" x="367.5" y="233.3281"/><text fill="#000000" font-family="sans-serif" font-size="13" font-weight="bold" lengthAdjust="spacing" textLength="86" x="382.5" y="247.8232">Get Customer</text><polygon fill="#181818" points="583.5,286.3828,593.5,290.3828,583.5,294.3828,587.5,290.3828" style="stroke:#181818;stroke-width:1.0;"/><line style="stroke:#181818;stroke-width:1.0;" x1="431.5" x2="589.5" y1="290.3828" y2="290.3828"/><text fill="#000000" font-family="sans-serif" font-size="13" lengthAdjust="spacing" textLength="81" x="438.5" y="269.1748">Get Customer</text><text fill="#000000" font-family="sans-serif" font-size="13" lengthAdjust="spacing" textLength="78" x="438.5" y="285.5264">[XML/HTTPS]</text><polygon fill="#181818" points="419.5,340.0859,429.5,344.0859,419.5,348.0859,423.5,344.0859" style="stroke:#181818;stroke-width:1.0;"/><line style="stroke:#181818;stroke-width:1.0;" x1="267.5" x2="425.5" y1="344.0859" y2="344.0859"/><text fill="#000000" font-family="sans-serif" font-size="13" lengthAdjust="spacing" textLength="140" x="274.5" y="322.8779">Get Customer Accounts</text><text fill="#000000" font-family="sans-serif" font-size="13" lengthAdjust="spacing" textLength="49" x="274.5" y="339.2295">[HTTPS]</text><path d="M367.5,359.0859 L559.5,359.0859 L559.5,367.4375 L549.5,377.4375 L367.5,377.4375 L367.5,359.0859 " fill="#EEEEEE" style="stroke:#000000;stroke-width:1.5;"/><rect fill="none" height="65.0547" style="stroke:#000000;stroke-width:1.5;" width="330.5" x="367.5" y="359.0859"/><text fill="#000000" font-family="sans-serif" font-size="13" font-weight="bold" lengthAdjust="spacing" textLength="147" x="382.5" y="373.5811">Get Customer Accounts</text><polygon fill="#181818" points="583.5,412.1406,593.5,416.1406,583.5,420.1406,587.5,416.1406" style="stroke:#181818;stroke-width:1.0;"/><line style="stroke:#181818;stroke-width:1.0;" x1="431.5" x2="589.5" y1="416.1406" y2="416.1406"/><text fill="#000000" font-family="sans-serif" font-size="13" lengthAdjust="spacing" textLength="140" x="438.5" y="394.9326">Get Customer Accounts</text><text fill="#000000" font-family="sans-serif" font-size="13" lengthAdjust="spacing" textLength="78" x="438.5" y="411.2842">[XML/HTTPS]</text><!--SRC=[pL9DJuD04BtlhvZWkNZnvC6anQycDY6XKHFriCKfRjpk8Zj8_VSEK4XBiHh3eII4PNRclJTlXXHfX8bAO2BDEuGwXX5C3M5caAgOCWc78lve78KoGHYdgLQn96KDtzmhB2387TaLPd2999LsPGL-v6XYv6DW3KSDNslyH2r4AZDIiKgb8V2krYMRr1v81y5PHNwjRU57Tac5p33wSeGhvpU9zRyG2xi6hwlLWvE7DqKeW9yTdXzQg6ZPWBAUszzZRGWs-7xRZFDhn1AGyVO9n-5q8296sW8IQ5w1c-_uEEFaPIPNs8wjHlwDjwtRb3Ns_dqKCBeOma4uxr-cP_DqEv-7qOj8Cfkd_KbY207_xcDtGDp83Mza8x6hV_jE3C9tM7V_WFT5FixkJZT2USEEs50Onx7D3Rb3phP9HsFnjkoEr-KhlW40]--></g></svg>