<?xml version="1.0" encoding="us-ascii" standalone="no"?><svg xmlns="http://www.w3.org/2000/svg" xmlns:xlink="http://www.w3.org/1999/xlink" contentStyleType="text/css" height="407px" preserveAspectRatio="none" style="width:919px;height:407px;background:#FFFFFF;" version="1.1" viewBox="0 0 919 407" width="919px" zoomAndPan="magnify"><defs/><g><text fill="#000000" font-family="sans-serif" font-size="14" font-weight="bold" lengthAdjust="spacing" textLength="891" x="10" y="29.5332">ECommercePlatform - Product Service - Message Handler - Handle Purchase Order Created Event - Sequence - Container level</text><rect fill="#FFFFFF" height="357.3828" style="stroke:#181818;stroke-width:0.5;" width="316.5" x="348.5" y="44.6094"/><text fill="#000000" font-family="sans-serif" font-size="13" font-weight="bold" lengthAdjust="spacing" textLength="101" x="456.25" y="58.1045">Product Service</text><rect fill="#FFFFFF" height="357.3828" style="stroke:#181818;stroke-width:0.5;" width="102" x="667" y="44.6094"/><text fill="#000000" font-family="sans-serif" font-size="13" font-weight="bold" lengthAdjust="spacing" textLength="96" x="670" y="58.1045">Buying Service</text><rect fill="none" height="204.4609" style="stroke:#000000;stroke-width:1.5;" width="446.5" x="322.5" y="144.9219"/><rect fill="none" height="141.7578" style="stroke:#000000;stroke-width:1.5;" width="348.5" x="332.5" y="200.625"/><rect fill="none" height="79.0547" style="stroke:#000000;stroke-width:1.5;" width="328.5" x="342.5" y="256.3281"/><line style="stroke:#181818;stroke-width:0.5;stroke-dasharray:5.0,5.0;" x1="170" x2="170" y1="97.5703" y2="366.3828"/><line style="stroke:#181818;stroke-width:0.5;stroke-dasharray:5.0,5.0;" x1="414.5" x2="414.5" y1="97.5703" y2="366.3828"/><line style="stroke:#181818;stroke-width:0.5;stroke-dasharray:5.0,5.0;" x1="531" x2="531" y1="97.5703" y2="366.3828"/><line style="stroke:#181818;stroke-width:0.5;stroke-dasharray:5.0,5.0;" x1="620" x2="620" y1="97.5703" y2="366.3828"/><line style="stroke:#181818;stroke-width:0.5;stroke-dasharray:5.0,5.0;" x1="718" x2="718" y1="97.5703" y2="366.3828"/><rect fill="#E2E2F0" height="31.6094" rx="2.5" ry="2.5" style="stroke:#181818;stroke-width:0.5;" width="65" x="138" y="64.9609"/><text fill="#000000" font-family="sans-serif" font-size="14" lengthAdjust="spacing" textLength="51" x="145" y="86.4941">External</text><rect fill="#E2E2F0" height="31.6094" rx="2.5" ry="2.5" style="stroke:#181818;stroke-width:0.5;" width="65" x="138" y="365.3828"/><text fill="#000000" font-family="sans-serif" font-size="14" lengthAdjust="spacing" textLength="51" x="145" y="386.916">External</text><rect fill="#E2E2F0" height="31.6094" rx="2.5" ry="2.5" style="stroke:#181818;stroke-width:0.5;" width="124" x="352.5" y="64.9609"/><text fill="#000000" font-family="sans-serif" font-size="14" lengthAdjust="spacing" textLength="110" x="359.5" y="86.4941">Message Handler</text><rect fill="#E2E2F0" height="31.6094" rx="2.5" ry="2.5" style="stroke:#181818;stroke-width:0.5;" width="124" x="352.5" y="365.3828"/><text fill="#000000" font-family="sans-serif" font-size="14" lengthAdjust="spacing" textLength="110" x="359.5" y="386.916">Message Handler</text><rect fill="#E2E2F0" height="31.6094" rx="2.5" ry="2.5" style="stroke:#181818;stroke-width:0.5;" width="75" x="494" y="64.9609"/><text fill="#000000" font-family="sans-serif" font-size="14" lengthAdjust="spacing" textLength="61" x="501" y="86.4941">Database</text><rect fill="#E2E2F0" height="31.6094" rx="2.5" ry="2.5" style="stroke:#181818;stroke-width:0.5;" width="75" x="494" y="365.3828"/><text fill="#000000" font-family="sans-serif" font-size="14" lengthAdjust="spacing" textLength="61" x="501" y="386.916">Database</text><rect fill="#E2E2F0" height="31.6094" rx="2.5" ry="2.5" style="stroke:#181818;stroke-width:0.5;" width="82" x="579" y="64.9609"/><text fill="#000000" font-family="sans-serif" font-size="14" lengthAdjust="spacing" textLength="68" x="586" y="86.4941">Messaging</text><rect fill="#E2E2F0" height="31.6094" rx="2.5" ry="2.5" style="stroke:#181818;stroke-width:0.5;" width="82" x="579" y="365.3828"/><text fill="#000000" font-family="sans-serif" font-size="14" lengthAdjust="spacing" textLength="68" x="586" y="386.916">Messaging</text><rect fill="#E2E2F0" height="31.6094" rx="2.5" ry="2.5" style="stroke:#181818;stroke-width:0.5;" width="82" x="677" y="64.9609"/><text fill="#000000" font-family="sans-serif" font-size="14" lengthAdjust="spacing" textLength="68" x="684" y="86.4941">Messaging</text><rect fill="#E2E2F0" height="31.6094" rx="2.5" ry="2.5" style="stroke:#181818;stroke-width:0.5;" width="82" x="677" y="365.3828"/><text fill="#000000" font-family="sans-serif" font-size="14" lengthAdjust="spacing" textLength="68" x="684" y="386.916">Messaging</text><polygon fill="#181818" points="402.5,125.9219,412.5,129.9219,402.5,133.9219,406.5,129.9219" style="stroke:#181818;stroke-width:1.0;"/><line style="stroke:#181818;stroke-width:1.0;" x1="170.5" x2="408.5" y1="129.9219" y2="129.9219"/><text fill="#000000" font-family="sans-serif" font-size="13" lengthAdjust="spacing" textLength="220" x="177.5" y="125.0654">Handle Purchase Order Created Event</text><path d="M322.5,144.9219 L608.5,144.9219 L608.5,153.2734 L598.5,163.2734 L322.5,163.2734 L322.5,144.9219 " fill="#EEEEEE" style="stroke:#000000;stroke-width:1.5;"/><rect fill="none" height="204.4609" style="stroke:#000000;stroke-width:1.5;" width="446.5" x="322.5" y="144.9219"/><text fill="#000000" font-family="sans-serif" font-size="13" font-weight="bold" lengthAdjust="spacing" textLength="241" x="337.5" y="159.417">Handle Purchase Order Created Event</text><polygon fill="#181818" points="706,181.625,716,185.625,706,189.625,710,185.625" style="stroke:#181818;stroke-width:1.0;"/><line style="stroke:#181818;stroke-width:1.0;" x1="414.5" x2="712" y1="185.625" y2="185.625"/><text fill="#000000" font-family="sans-serif" font-size="13" lengthAdjust="spacing" textLength="225" x="421.5" y="180.7686">Receive Purchase Order Created Event</text><path d="M332.5,200.625 L405.5,200.625 L405.5,208.9766 L395.5,218.9766 L332.5,218.9766 L332.5,200.625 " fill="#EEEEEE" style="stroke:#000000;stroke-width:1.5;"/><rect fill="none" height="141.7578" style="stroke:#000000;stroke-width:1.5;" width="348.5" x="332.5" y="200.625"/><text fill="#000000" font-family="sans-serif" font-size="13" font-weight="bold" lengthAdjust="spacing" textLength="28" x="347.5" y="215.1201">loop</text><text fill="#000000" font-family="sans-serif" font-size="11" font-weight="bold" lengthAdjust="spacing" textLength="204" x="420.5" y="214.0439">[For each Product in Purchase Order]</text><polygon fill="#181818" points="519.5,237.3281,529.5,241.3281,519.5,245.3281,523.5,241.3281" style="stroke:#181818;stroke-width:1.0;"/><line style="stroke:#181818;stroke-width:1.0;" x1="414.5" x2="525.5" y1="241.3281" y2="241.3281"/><text fill="#000000" font-family="sans-serif" font-size="13" lengthAdjust="spacing" textLength="93" x="421.5" y="236.4717">Select Products</text><path d="M342.5,256.3281 L403.5,256.3281 L403.5,264.6797 L393.5,274.6797 L342.5,274.6797 L342.5,256.3281 " fill="#EEEEEE" style="stroke:#000000;stroke-width:1.5;"/><rect fill="none" height="79.0547" style="stroke:#000000;stroke-width:1.5;" width="328.5" x="342.5" y="256.3281"/><text fill="#000000" font-family="sans-serif" font-size="13" font-weight="bold" lengthAdjust="spacing" textLength="16" x="357.5" y="270.8232">alt</text><text fill="#000000" font-family="sans-serif" font-size="11" font-weight="bold" lengthAdjust="spacing" textLength="109" x="418.5" y="269.7471">[Product Not Found]</text><polygon fill="#181818" points="519.5,293.0313,529.5,297.0313,519.5,301.0313,523.5,297.0313" style="stroke:#181818;stroke-width:1.0;"/><line style="stroke:#181818;stroke-width:1.0;" x1="414.5" x2="525.5" y1="297.0313" y2="297.0313"/><text fill="#000000" font-family="sans-serif" font-size="13" lengthAdjust="spacing" textLength="81" x="421.5" y="292.1748">Insert Product</text><polygon fill="#181818" points="608,323.3828,618,327.3828,608,331.3828,612,327.3828" style="stroke:#181818;stroke-width:1.0;"/><line style="stroke:#181818;stroke-width:1.0;" x1="414.5" x2="614" y1="327.3828" y2="327.3828"/><text fill="#000000" font-family="sans-serif" font-size="13" lengthAdjust="spacing" textLength="164" x="421.5" y="322.5264">Send Product Created Event</text><!--SRC=[pLInJiCm4Dtz5KUOcuc9WO7GYWv0HGRcQt9DBJbsi2zf-_SSRHhHLgYMg50ZHOelB-_UUpdxfl5OrGW6Dwvb23KnMbIADHk2SURgcdn1CuEySBw64SoyAzk28IVVwOAaya8XO4NmZBOqvAMoUu9Pwuib1e8tNqezyuHC9OmxiYoed3vRibkAp5b6RGLag2EZL8EUTQ4R56GoNZDvYoO1393TJQqi9yQjqjmjU8MUyarWgaEw1-xMIitT6f8ZmGdSVYmramAv3jeS-TXsEqdWf6TFtxEdWvEGzdmztMc_9sISIpn_RhGd-isIjjM5p0YJ8bk21AlwU1_RZLHZqusNikEDL18_531wkE1FXVkOMLULTsqJXRoWj2YZvrCMY-zKaExEA3VEDJ1n7WYBvN1AQ7lqrRyxFBzjn65EXaHjZmqApR20LyVYgxNbTKgVsa1-K7j56dzEKFwzLVU17iwDl1bkzGK0]--></g></svg>