<?xml version="1.0" encoding="us-ascii" standalone="no"?><svg xmlns="http://www.w3.org/2000/svg" xmlns:xlink="http://www.w3.org/1999/xlink" contentStyleType="text/css" height="410px" preserveAspectRatio="none" style="width:699px;height:410px;background:#FFFFFF;" version="1.1" viewBox="0 0 699 410" width="699px" zoomAndPan="magnify"><defs/><g><text fill="#000000" font-family="sans-serif" font-size="14" font-weight="bold" lengthAdjust="spacing" textLength="671" x="10" y="29.5332">Big Bank Plc - Internet Banking - Single-Page App - Create Account - Sequence - Container level</text><rect fill="#FFFFFF" height="360.0859" style="stroke:#181818;stroke-width:0.5;" width="246" x="99.75" y="44.6094"/><text fill="#000000" font-family="sans-serif" font-size="13" font-weight="bold" lengthAdjust="spacing" textLength="105" x="170.25" y="58.1045">Internet Banking</text><rect fill="none" height="190.8125" style="stroke:#000000;stroke-width:1.5;" width="576" x="93.75" y="161.2734"/><rect fill="none" height="111.7578" style="stroke:#000000;stroke-width:1.5;" width="436" x="223.75" y="233.3281"/><line style="stroke:#181818;stroke-width:0.5;stroke-dasharray:5.0,5.0;" x1="49.25" x2="49.25" y1="97.5703" y2="369.0859"/><line style="stroke:#181818;stroke-width:0.5;stroke-dasharray:5.0,5.0;" x1="163.75" x2="163.75" y1="97.5703" y2="369.0859"/><line style="stroke:#181818;stroke-width:0.5;stroke-dasharray:5.0,5.0;" x1="287.75" x2="287.75" y1="97.5703" y2="369.0859"/><line style="stroke:#181818;stroke-width:0.5;stroke-dasharray:5.0,5.0;" x1="443.75" x2="443.75" y1="97.5703" y2="369.0859"/><line style="stroke:#181818;stroke-width:0.5;stroke-dasharray:5.0,5.0;" x1="597.75" x2="597.75" y1="97.5703" y2="369.0859"/><rect fill="#E2E2F0" height="31.6094" rx="2.5" ry="2.5" style="stroke:#181818;stroke-width:0.5;" width="65" x="17.25" y="64.9609"/><text fill="#000000" font-family="sans-serif" font-size="14" lengthAdjust="spacing" textLength="51" x="24.25" y="86.4941">External</text><rect fill="#E2E2F0" height="31.6094" rx="2.5" ry="2.5" style="stroke:#181818;stroke-width:0.5;" width="65" x="17.25" y="368.0859"/><text fill="#000000" font-family="sans-serif" font-size="14" lengthAdjust="spacing" textLength="51" x="24.25" y="389.6191">External</text><rect fill="#E2E2F0" height="31.6094" rx="2.5" ry="2.5" style="stroke:#181818;stroke-width:0.5;" width="120" x="103.75" y="64.9609"/><text fill="#000000" font-family="sans-serif" font-size="14" lengthAdjust="spacing" textLength="106" x="110.75" y="86.4941">Single-Page App</text><rect fill="#E2E2F0" height="31.6094" rx="2.5" ry="2.5" style="stroke:#181818;stroke-width:0.5;" width="120" x="103.75" y="368.0859"/><text fill="#000000" font-family="sans-serif" font-size="14" lengthAdjust="spacing" textLength="106" x="110.75" y="389.6191">Single-Page App</text><rect fill="#E2E2F0" height="31.6094" rx="2.5" ry="2.5" style="stroke:#181818;stroke-width:0.5;" width="108" x="233.75" y="64.9609"/><text fill="#000000" font-family="sans-serif" font-size="14" lengthAdjust="spacing" textLength="94" x="240.75" y="86.4941">API Application</text><rect fill="#E2E2F0" height="31.6094" rx="2.5" ry="2.5" style="stroke:#181818;stroke-width:0.5;" width="108" x="233.75" y="368.0859"/><text fill="#000000" font-family="sans-serif" font-size="14" lengthAdjust="spacing" textLength="94" x="240.75" y="389.6191">API Application</text><rect fill="#E2E2F0" height="31.6094" rx="2.5" ry="2.5" style="stroke:#181818;stroke-width:0.5;" width="185" x="351.75" y="64.9609"/><text fill="#000000" font-family="sans-serif" font-size="14" lengthAdjust="spacing" textLength="171" x="358.75" y="86.4941">Mainframe Banking System</text><rect fill="#E2E2F0" height="31.6094" rx="2.5" ry="2.5" style="stroke:#181818;stroke-width:0.5;" width="185" x="351.75" y="368.0859"/><text fill="#000000" font-family="sans-serif" font-size="14" lengthAdjust="spacing" textLength="171" x="358.75" y="389.6191">Mainframe Banking System</text><rect fill="#E2E2F0" height="31.6094" rx="2.5" ry="2.5" style="stroke:#181818;stroke-width:0.5;" width="103" x="546.75" y="64.9609"/><text fill="#000000" font-family="sans-serif" font-size="14" lengthAdjust="spacing" textLength="89" x="553.75" y="86.4941">E-Mail System</text><rect fill="#E2E2F0" height="31.6094" rx="2.5" ry="2.5" style="stroke:#181818;stroke-width:0.5;" width="103" x="546.75" y="368.0859"/><text fill="#000000" font-family="sans-serif" font-size="14" lengthAdjust="spacing" textLength="89" x="553.75" y="389.6191">E-Mail System</text><polygon fill="#181818" points="151.75,142.2734,161.75,146.2734,151.75,150.2734,155.75,146.2734" style="stroke:#181818;stroke-width:1.0;"/><line style="stroke:#181818;stroke-width:1.0;" x1="49.75" x2="157.75" y1="146.2734" y2="146.2734"/><text fill="#000000" font-family="sans-serif" font-size="13" lengthAdjust="spacing" textLength="90" x="56.75" y="125.0654">Create Account</text><text fill="#000000" font-family="sans-serif" font-size="13" lengthAdjust="spacing" textLength="49" x="56.75" y="141.417">[HTTPS]</text><path d="M93.75,161.2734 L235.75,161.2734 L235.75,169.625 L225.75,179.625 L93.75,179.625 L93.75,161.2734 " fill="#EEEEEE" style="stroke:#000000;stroke-width:1.5;"/><rect fill="none" height="190.8125" style="stroke:#000000;stroke-width:1.5;" width="576" x="93.75" y="161.2734"/><text fill="#000000" font-family="sans-serif" font-size="13" font-weight="bold" lengthAdjust="spacing" textLength="97" x="108.75" y="175.7686">Create Account</text><polygon fill="#181818" points="275.75,214.3281,285.75,218.3281,275.75,222.3281,279.75,218.3281" style="stroke:#181818;stroke-width:1.0;"/><line style="stroke:#181818;stroke-width:1.0;" x1="163.75" x2="281.75" y1="218.3281" y2="218.3281"/><text fill="#000000" font-family="sans-serif" font-size="13" lengthAdjust="spacing" textLength="90" x="170.75" y="197.1201">Create Account</text><text fill="#000000" font-family="sans-serif" font-size="13" lengthAdjust="spacing" textLength="49" x="170.75" y="213.4717">[HTTPS]</text><path d="M223.75,233.3281 L365.75,233.3281 L365.75,241.6797 L355.75,251.6797 L223.75,251.6797 L223.75,233.3281 " fill="#EEEEEE" style="stroke:#000000;stroke-width:1.5;"/><rect fill="none" height="111.7578" style="stroke:#000000;stroke-width:1.5;" width="436" x="223.75" y="233.3281"/><text fill="#000000" font-family="sans-serif" font-size="13" font-weight="bold" lengthAdjust="spacing" textLength="97" x="238.75" y="247.8232">Create Account</text><polygon fill="#181818" points="432.25,286.3828,442.25,290.3828,432.25,294.3828,436.25,290.3828" style="stroke:#181818;stroke-width:1.0;"/><line style="stroke:#181818;stroke-width:1.0;" x1="287.75" x2="438.25" y1="290.3828" y2="290.3828"/><text fill="#000000" font-family="sans-serif" font-size="13" lengthAdjust="spacing" textLength="90" x="294.75" y="269.1748">Create Account</text><text fill="#000000" font-family="sans-serif" font-size="13" lengthAdjust="spacing" textLength="49" x="294.75" y="285.5264">[TCP/IP]</text><polygon fill="#181818" points="586.25,333.0859,596.25,337.0859,586.25,341.0859,590.25,337.0859" style="stroke:#181818;stroke-width:1.0;"/><line style="stroke:#181818;stroke-width:1.0;" x1="287.75" x2="592.25" y1="337.0859" y2="337.0859"/><text fill="#000000" font-family="sans-serif" font-size="13" lengthAdjust="spacing" textLength="269" x="294.75" y="315.8779">Send New Account Created Notification E-Mail</text><text fill="#000000" font-family="sans-serif" font-size="13" lengthAdjust="spacing" textLength="44" x="294.75" y="332.2295">[SMTP]</text><!--SRC=[lLJ1JiCm3BtdAwnoRhbmue2qJKFqC5IfbJZ03g5u9I9BIkhHyVSuxLfjtSGcc5QfgkBOxptdEIL56c6i2XXBym69pY64s10wWzJ4b2aubF97OvZ80c5KbXoPE9J4YpotAqC-1JzNQ7BqUzQGL0OTQFn2BKGf7QbSbP8pW-dQmqiTWAnWSjEmtMjRHwbTK2qTfjyLuRAAkiHsBSIhNKCm51V0rTEx8XJ0pmxFG7D3nvtwEkvpZwq3tk16VHDLr29v8CRP9nebiIVGAfUahFa74IDj0GaqRy1D3yvlniaB9vVO-zCY7-FjwpPbcsFTzIRaB7qYuDJdTkQSRYI4T-Vm0Mu7C_XYdX-oB4dded1sLGvsnJae_wnyrzZBI1zm_gxzy70S4ffDakiucLz2rDQ0iPBKNuT7hFj_JYkDOvRKeaDi9vXrfhECLN9DyueV]--></g></svg>