<?xml version="1.0" encoding="us-ascii" standalone="no"?><svg xmlns="http://www.w3.org/2000/svg" xmlns:xlink="http://www.w3.org/1999/xlink" contentStyleType="text/css" height="258.75px" preserveAspectRatio="none" style="width:298px;height:258px;background:#FFFFFF;" version="1.1" viewBox="0 0 298 258" width="298.75px" zoomAndPan="magnify"><defs/><g><text fill="#000000" font-family="sans-serif" font-size="8.75" font-weight="bold" lengthAdjust="spacing" textLength="281.25" x="6.25" y="18.4583">Catalog Api - Api - Catalog Api - Get All Items - COMPONENT level</text><rect fill="#FFFFFF" height="227.5195" style="stroke:#181818;stroke-width:0.3125;" width="59.375" x="77.5" y="27.8809"/><text fill="#000000" font-family="sans-serif" font-size="8.125" font-weight="bold" lengthAdjust="spacing" textLength="13.125" x="100.625" y="36.3153">Api</text><rect fill="#FFFFFF" height="227.5195" style="stroke:#181818;stroke-width:0.3125;" width="76.875" x="186.25" y="27.8809"/><text fill="#000000" font-family="sans-serif" font-size="8.125" font-weight="bold" lengthAdjust="spacing" textLength="52.5" x="198.4375" y="36.3153">Infrastructure</text><rect fill="none" height="131.9434" style="stroke:#000000;stroke-width:0.9375;" width="199.375" x="67.5" y="90.5762"/><rect fill="none" height="38.5645" style="stroke:#000000;stroke-width:0.9375;" width="126.25" x="73.75" y="152.4854"/><line style="stroke:#181818;stroke-width:0.3125;stroke-dasharray:5.0,5.0;" x1="44.375" x2="44.375" y1="60.9814" y2="233.1445"/><line style="stroke:#181818;stroke-width:0.3125;stroke-dasharray:5.0,5.0;" x1="106.875" x2="106.875" y1="60.9814" y2="233.1445"/><line style="stroke:#181818;stroke-width:0.3125;stroke-dasharray:5.0,5.0;" x1="224.375" x2="224.375" y1="60.9814" y2="233.1445"/><rect fill="#E2E2F0" height="19.7559" rx="1.5625" ry="1.5625" style="stroke:#181818;stroke-width:0.3125;" width="40.625" x="24.375" y="40.6006"/><text fill="#000000" font-family="sans-serif" font-size="8.75" lengthAdjust="spacing" textLength="31.875" x="28.75" y="54.0588">External</text><rect fill="#E2E2F0" height="19.7559" rx="1.5625" ry="1.5625" style="stroke:#181818;stroke-width:0.3125;" width="40.625" x="24.375" y="232.5195"/><text fill="#000000" font-family="sans-serif" font-size="8.75" lengthAdjust="spacing" textLength="31.875" x="28.75" y="245.9778">External</text><rect fill="#E2E2F0" height="19.7559" rx="1.5625" ry="1.5625" style="stroke:#181818;stroke-width:0.3125;" width="54.375" x="80" y="40.6006"/><text fill="#000000" font-family="sans-serif" font-size="8.75" lengthAdjust="spacing" textLength="45.625" x="84.375" y="54.0588">Catalog Api</text><rect fill="#E2E2F0" height="19.7559" rx="1.5625" ry="1.5625" style="stroke:#181818;stroke-width:0.3125;" width="54.375" x="80" y="232.5195"/><text fill="#000000" font-family="sans-serif" font-size="8.75" lengthAdjust="spacing" textLength="45.625" x="84.375" y="245.9778">Catalog Api</text><rect fill="#E2E2F0" height="19.7559" rx="1.5625" ry="1.5625" style="stroke:#181818;stroke-width:0.3125;" width="71.875" x="188.75" y="40.6006"/><text fill="#000000" font-family="sans-serif" font-size="8.75" lengthAdjust="spacing" textLength="63.125" x="193.125" y="54.0588">Catalog Context</text><rect fill="#E2E2F0" height="19.7559" rx="1.5625" ry="1.5625" style="stroke:#181818;stroke-width:0.3125;" width="71.875" x="188.75" y="232.5195"/><text fill="#000000" font-family="sans-serif" font-size="8.75" lengthAdjust="spacing" textLength="63.125" x="193.125" y="245.9778">Catalog Context</text><polygon fill="#181818" points="99.6875,78.7012,105.9375,81.2012,99.6875,83.7012,102.1875,81.2012" style="stroke:#181818;stroke-width:0.625;"/><line style="stroke:#181818;stroke-width:0.625;" x1="44.6875" x2="103.4375" y1="81.2012" y2="81.2012"/><text fill="#000000" font-family="sans-serif" font-size="8.125" lengthAdjust="spacing" textLength="47.5" x="49.0625" y="78.1659">Get All Items</text><path d="M67.5,90.5762 L146.25,90.5762 L146.25,95.7959 L140,102.0459 L67.5,102.0459 L67.5,90.5762 " fill="#EEEEEE" style="stroke:#000000;stroke-width:0.9375;"/><rect fill="none" height="131.9434" style="stroke:#000000;stroke-width:0.9375;" width="199.375" x="67.5" y="90.5762"/><text fill="#000000" font-family="sans-serif" font-size="8.125" font-weight="bold" lengthAdjust="spacing" textLength="50.625" x="76.875" y="99.6356">Get All Items</text><polygon fill="#181818" points="217.1875,113.5156,223.4375,116.0156,217.1875,118.5156,219.6875,116.0156" style="stroke:#181818;stroke-width:0.625;"/><line style="stroke:#181818;stroke-width:0.625;" x1="107.1875" x2="220.9375" y1="116.0156" y2="116.0156"/><text fill="#000000" font-family="sans-serif" font-size="8.125" lengthAdjust="spacing" textLength="102.5" x="111.5625" y="112.9803">Catalog Items To List Async</text><line style="stroke:#181818;stroke-width:0.625;" x1="107.1875" x2="133.4375" y1="134.9854" y2="134.9854"/><line style="stroke:#181818;stroke-width:0.625;" x1="133.4375" x2="133.4375" y1="134.9854" y2="143.1104"/><line style="stroke:#181818;stroke-width:0.625;" x1="107.8125" x2="133.4375" y1="143.1104" y2="143.1104"/><polygon fill="#181818" points="114.0625,140.6104,107.8125,143.1104,114.0625,145.6104,111.5625,143.1104" style="stroke:#181818;stroke-width:0.625;"/><text fill="#000000" font-family="sans-serif" font-size="8.125" lengthAdjust="spacing" textLength="85" x="111.5625" y="131.9501">Change Uri Placeholder</text><path d="M73.75,152.4854 L196.875,152.4854 L196.875,157.7051 L190.625,163.9551 L73.75,163.9551 L73.75,152.4854 " fill="#EEEEEE" style="stroke:#000000;stroke-width:0.9375;"/><rect fill="none" height="38.5645" style="stroke:#000000;stroke-width:0.9375;" width="126.25" x="73.75" y="152.4854"/><text fill="#000000" font-family="sans-serif" font-size="8.125" font-weight="bold" lengthAdjust="spacing" textLength="95" x="83.125" y="161.5448">Change Uri Placeholder</text><line style="stroke:#181818;stroke-width:0.625;" x1="107.1875" x2="133.4375" y1="177.9248" y2="177.9248"/><line style="stroke:#181818;stroke-width:0.625;" x1="133.4375" x2="133.4375" y1="177.9248" y2="186.0498"/><line style="stroke:#181818;stroke-width:0.625;" x1="107.8125" x2="133.4375" y1="186.0498" y2="186.0498"/><polygon fill="#181818" points="114.0625,183.5498,107.8125,186.0498,114.0625,188.5498,111.5625,186.0498" style="stroke:#181818;stroke-width:0.625;"/><text fill="#000000" font-family="sans-serif" font-size="8.125" lengthAdjust="spacing" textLength="48.75" x="111.5625" y="174.8895">Retun (items)</text><line style="stroke:#181818;stroke-width:0.625;" x1="107.1875" x2="133.4375" y1="209.3945" y2="209.3945"/><line style="stroke:#181818;stroke-width:0.625;" x1="133.4375" x2="133.4375" y1="209.3945" y2="217.5195"/><line style="stroke:#181818;stroke-width:0.625;" x1="107.8125" x2="133.4375" y1="217.5195" y2="217.5195"/><polygon fill="#181818" points="114.0625,215.0195,107.8125,217.5195,114.0625,220.0195,111.5625,217.5195" style="stroke:#181818;stroke-width:0.625;"/><text fill="#000000" font-family="sans-serif" font-size="8.125" lengthAdjust="spacing" textLength="91.25" x="111.5625" y="206.3593">Retun (TypedResults.Ok)</text><!--SRC=[rLCzJyCm4DtzAuwmmD280J4m85LHGPMWhTeYvYEv9bOTEx8ljFdtE2H0Kxuwj1Br4Fa-djzxEVkai9Zc20ehKpAud1Wr2hUKka2BEII5XAiB8LYo8eYGKPaK-ZxRQx_Tt1qnz9M28LFkwkhuOJ8U3KPpKFH2IWX_BCjO5gWPWi6QoMfK0Q23w7AeVNYhp2gScGMlqDAiSlL1uNjZ4mlnRDOGR307SFgKIIO1VZNLxMo7k0Frt8bXJHpIB3D5sBTnZOgvjFH5IOlqm30ocb5giYvimhmmcZHlDWdI2NWzOaFPK2yiEhRb6yFV8ciUMlDUX7Qvlz7Sadtg_jY8tGS4lPl3_LAuxjuoaLfJ5bkvmx7lmTgkG_1Et-z0yvxc1kwbypvTfUF_xV6tyKKPwfJWqKgOA8mfCoeXsyxnX-BHcfqIbnhEP0q_hr_JqLkPLmKbKtAbyWtZPMDAl080]--></g></svg>