<?xml version="1.0" encoding="us-ascii" standalone="no"?><svg xmlns="http://www.w3.org/2000/svg" xmlns:xlink="http://www.w3.org/1999/xlink" contentStyleType="text/css" height="437px" preserveAspectRatio="none" style="width:604px;height:437px;background:#FFFFFF;" version="1.1" viewBox="0 0 604 437" width="604px" zoomAndPan="magnify"><defs/><g><text fill="#000000" font-family="sans-serif" font-size="14" font-weight="bold" lengthAdjust="spacing" textLength="474" x="66.5" y="29.5332">E Commerce Platform - Process Payment - Sequence - Context level</text><rect fill="none" height="141.7578" style="stroke:#000000;stroke-width:1.5;" width="588" x="10" y="136.5703"/><rect fill="none" height="48.7031" style="stroke:#000000;stroke-width:1.5;" width="568" x="20" y="222.625"/><rect fill="none" height="48.7031" style="stroke:#000000;stroke-width:1.5;" width="369" x="20" y="335.6797"/><line style="stroke:#181818;stroke-width:0.5;stroke-dasharray:5.0,5.0;" x1="90" x2="90" y1="76.2188" y2="401.3828"/><line style="stroke:#181818;stroke-width:0.5;stroke-dasharray:5.0,5.0;" x1="328" x2="328" y1="76.2188" y2="401.3828"/><line style="stroke:#181818;stroke-width:0.5;stroke-dasharray:5.0,5.0;" x1="515" x2="515" y1="76.2188" y2="401.3828"/><rect fill="#E2E2F0" height="31.6094" rx="2.5" ry="2.5" style="stroke:#181818;stroke-width:0.5;" width="120" x="30" y="43.6094"/><text fill="#000000" font-family="sans-serif" font-size="14" lengthAdjust="spacing" textLength="106" x="37" y="65.1426">Payment Service</text><rect fill="#E2E2F0" height="31.6094" rx="2.5" ry="2.5" style="stroke:#181818;stroke-width:0.5;" width="120" x="30" y="400.3828"/><text fill="#000000" font-family="sans-serif" font-size="14" lengthAdjust="spacing" textLength="106" x="37" y="421.916">Payment Service</text><rect fill="#E2E2F0" height="31.6094" rx="2.5" ry="2.5" style="stroke:#181818;stroke-width:0.5;" width="102" x="277" y="43.6094"/><text fill="#000000" font-family="sans-serif" font-size="14" lengthAdjust="spacing" textLength="88" x="284" y="65.1426">Order Service</text><rect fill="#E2E2F0" height="31.6094" rx="2.5" ry="2.5" style="stroke:#181818;stroke-width:0.5;" width="102" x="277" y="400.3828"/><text fill="#000000" font-family="sans-serif" font-size="14" lengthAdjust="spacing" textLength="88" x="284" y="421.916">Order Service</text><rect fill="#E2E2F0" height="31.6094" rx="2.5" ry="2.5" style="stroke:#181818;stroke-width:0.5;" width="126" x="452" y="43.6094"/><text fill="#000000" font-family="sans-serif" font-size="14" lengthAdjust="spacing" textLength="112" x="459" y="65.1426">Payment Provider</text><rect fill="#E2E2F0" height="31.6094" rx="2.5" ry="2.5" style="stroke:#181818;stroke-width:0.5;" width="126" x="452" y="400.3828"/><text fill="#000000" font-family="sans-serif" font-size="14" lengthAdjust="spacing" textLength="112" x="459" y="421.916">Payment Provider</text><line style="stroke:#181818;stroke-width:1.0;" x1="90" x2="132" y1="108.5703" y2="108.5703"/><line style="stroke:#181818;stroke-width:1.0;" x1="132" x2="132" y1="108.5703" y2="121.5703"/><line style="stroke:#181818;stroke-width:1.0;" x1="91" x2="132" y1="121.5703" y2="121.5703"/><polygon fill="#181818" points="101,117.5703,91,121.5703,101,125.5703,97,121.5703" style="stroke:#181818;stroke-width:1.0;"/><text fill="#000000" font-family="sans-serif" font-size="13" lengthAdjust="spacing" textLength="209" x="97" y="103.7139">Handle Order Status Changed Event</text><path d="M10,136.5703 L283,136.5703 L283,144.9219 L273,154.9219 L10,154.9219 L10,136.5703 " fill="#EEEEEE" style="stroke:#000000;stroke-width:1.5;"/><rect fill="none" height="141.7578" style="stroke:#000000;stroke-width:1.5;" width="588" x="10" y="136.5703"/><text fill="#000000" font-family="sans-serif" font-size="13" font-weight="bold" lengthAdjust="spacing" textLength="228" x="25" y="151.0654">Handle Order Status Changed Event</text><polygon fill="#181818" points="316,173.2734,326,177.2734,316,181.2734,320,177.2734" style="stroke:#181818;stroke-width:1.0;"/><line style="stroke:#181818;stroke-width:1.0;" x1="90" x2="322" y1="177.2734" y2="177.2734"/><text fill="#000000" font-family="sans-serif" font-size="13" lengthAdjust="spacing" textLength="214" x="97" y="172.417">Receive Order Status Changed Event</text><polygon fill="#181818" points="503,203.625,513,207.625,503,211.625,507,207.625" style="stroke:#181818;stroke-width:1.0;"/><line style="stroke:#181818;stroke-width:1.0;" x1="90" x2="509" y1="207.625" y2="207.625"/><text fill="#000000" font-family="sans-serif" font-size="13" lengthAdjust="spacing" textLength="104" x="97" y="202.7686">Process Payment</text><path d="M20,222.625 L174,222.625 L174,230.9766 L164,240.9766 L20,240.9766 L20,222.625 " fill="#EEEEEE" style="stroke:#000000;stroke-width:1.5;"/><rect fill="none" height="48.7031" style="stroke:#000000;stroke-width:1.5;" width="568" x="20" y="222.625"/><text fill="#000000" font-family="sans-serif" font-size="13" font-weight="bold" lengthAdjust="spacing" textLength="109" x="35" y="237.1201">Process Payment</text><polygon fill="#181818" points="101,259.3281,91,263.3281,101,267.3281,97,263.3281" style="stroke:#181818;stroke-width:1.0;"/><line style="stroke:#181818;stroke-width:1.0;" x1="95" x2="514" y1="263.3281" y2="263.3281"/><text fill="#000000" font-family="sans-serif" font-size="13" lengthAdjust="spacing" textLength="160" x="107" y="258.4717">Post Payment Result Event</text><line style="stroke:#181818;stroke-width:1.0;" x1="328" x2="370" y1="307.6797" y2="307.6797"/><line style="stroke:#181818;stroke-width:1.0;" x1="370" x2="370" y1="307.6797" y2="320.6797"/><line style="stroke:#181818;stroke-width:1.0;" x1="329" x2="370" y1="320.6797" y2="320.6797"/><polygon fill="#181818" points="339,316.6797,329,320.6797,339,324.6797,335,320.6797" style="stroke:#181818;stroke-width:1.0;"/><text fill="#000000" font-family="sans-serif" font-size="13" lengthAdjust="spacing" textLength="173" x="335" y="302.8232">Handle Payment Result Event</text><path d="M20,335.6797 L252,335.6797 L252,344.0313 L242,354.0313 L20,354.0313 L20,335.6797 " fill="#EEEEEE" style="stroke:#000000;stroke-width:1.5;"/><rect fill="none" height="48.7031" style="stroke:#000000;stroke-width:1.5;" width="369" x="20" y="335.6797"/><text fill="#000000" font-family="sans-serif" font-size="13" font-weight="bold" lengthAdjust="spacing" textLength="187" x="35" y="350.1748">Handle Payment Result Event</text><polygon fill="#181818" points="101,372.3828,91,376.3828,101,380.3828,97,376.3828" style="stroke:#181818;stroke-width:1.0;"/><line style="stroke:#181818;stroke-width:1.0;" x1="95" x2="327" y1="376.3828" y2="376.3828"/><text fill="#000000" font-family="sans-serif" font-size="13" lengthAdjust="spacing" textLength="178" x="107" y="371.5264">Receive Payment Result Event</text><!--SRC=[nLJBJiCm4BpdArQz9n_0WKiRmGKHDLzW9TDWoOzWRrBwzvZ8Hce9WYef77AnPtTsPiTXoGfKqjPg3TU0AYNuO9scd2fd6tXFbJXf60udDLu7c83AGu5Xl34fZ51PrWl7if6z2BXDAgZXHjbWGy9JcHWIGR63aYDS4T6-gEs1ZyAXFdc6zkaYTZcdU7Ojt0y43p1mWh635gOjff8dOKI7ZxPVwARxMRAa9nWooW1QA2YroRB5fb1-lznPkgF7O538GNIL1G-UjY_2T6Yf70CqwvmT-b_WRYHfmIw3l3qQX1d-OUvhCn66lNXsqVdBqnMeLifEPJr__YFsy8FYw2bCEtthhlC6-OYndXLn5lnPn1_8ktuhAVBVBYPx1m00]--></g></svg>