<?xml version="1.0" encoding="us-ascii" standalone="no"?><svg xmlns="http://www.w3.org/2000/svg" xmlns:xlink="http://www.w3.org/1999/xlink" contentStyleType="text/css" height="838px" preserveAspectRatio="none" style="width:1379px;height:838px;background:#FFFFFF;" version="1.1" viewBox="0 0 1379 838" width="1379px" zoomAndPan="magnify"><defs/><g><text fill="#000000" font-family="sans-serif" font-size="14" font-weight="bold" lengthAdjust="spacing" textLength="488" x="441.75" y="29.5332">E Commerce Platform - Process Payment - Sequence - Container level</text><rect fill="#FFFFFF" height="780.8984" style="stroke:#181818;stroke-width:0.5;" width="677" x="26" y="44.6094"/><text fill="#000000" font-family="sans-serif" font-size="13" font-weight="bold" lengthAdjust="spacing" textLength="108" x="310.5" y="58.1045">Payment Service</text><rect fill="#FFFFFF" height="780.8984" style="stroke:#181818;stroke-width:0.5;" width="495.5" x="705" y="44.6094"/><text fill="#000000" font-family="sans-serif" font-size="13" font-weight="bold" lengthAdjust="spacing" textLength="88" x="908.75" y="58.1045">Order Service</text><rect fill="none" height="297.5156" style="stroke:#000000;stroke-width:1.5;" width="1352.5" x="10" y="233.2734"/><rect fill="none" height="234.8125" style="stroke:#000000;stroke-width:1.5;" width="1332.5" x="20" y="288.9766"/><rect fill="none" height="141.7578" style="stroke:#000000;stroke-width:1.5;" width="1081" x="261.5" y="375.0313"/><rect fill="none" height="79.0547" style="stroke:#000000;stroke-width:1.5;" width="437.5" x="271.5" y="430.7344"/><rect fill="none" height="109.4063" style="stroke:#000000;stroke-width:1.5;" width="605.5" x="601" y="632.4922"/><line style="stroke:#181818;stroke-width:0.5;stroke-dasharray:5.0,5.0;" x1="92" x2="92" y1="128.5703" y2="758.8984"/><line style="stroke:#181818;stroke-width:0.5;stroke-dasharray:5.0,5.0;" x1="314.5" x2="314.5" y1="128.5703" y2="758.8984"/><line style="stroke:#181818;stroke-width:0.5;stroke-dasharray:5.0,5.0;" x1="468" x2="468" y1="128.5703" y2="758.8984"/><line style="stroke:#181818;stroke-width:0.5;stroke-dasharray:5.0,5.0;" x1="655" x2="655" y1="128.5703" y2="758.8984"/><line style="stroke:#181818;stroke-width:0.5;stroke-dasharray:5.0,5.0;" x1="753" x2="753" y1="128.5703" y2="758.8984"/><line style="stroke:#181818;stroke-width:0.5;stroke-dasharray:5.0,5.0;" x1="976" x2="976" y1="128.5703" y2="758.8984"/><line style="stroke:#181818;stroke-width:0.5;stroke-dasharray:5.0,5.0;" x1="1162.5" x2="1162.5" y1="128.5703" y2="758.8984"/><line style="stroke:#181818;stroke-width:0.5;stroke-dasharray:5.0,5.0;" x1="1269.5" x2="1269.5" y1="128.5703" y2="758.8984"/><rect fill="#E2E2F0" height="31.6094" rx="2.5" ry="2.5" style="stroke:#181818;stroke-width:0.5;" width="124" x="30" y="95.9609"/><text fill="#000000" font-family="sans-serif" font-size="14" lengthAdjust="spacing" textLength="110" x="37" y="117.4941">Message Handler</text><rect fill="#E2E2F0" height="31.6094" rx="2.5" ry="2.5" style="stroke:#181818;stroke-width:0.5;" width="124" x="30" y="757.8984"/><text fill="#000000" font-family="sans-serif" font-size="14" lengthAdjust="spacing" textLength="110" x="37" y="779.4316">Message Handler</text><text fill="#000000" font-family="sans-serif" font-size="14" lengthAdjust="spacing" textLength="61" x="281.5" y="125.4941">Database</text><path d="M297,74.9609 C297,64.9609 315,64.9609 315,64.9609 C315,64.9609 333,64.9609 333,74.9609 L333,100.9609 C333,110.9609 315,110.9609 315,110.9609 C315,110.9609 297,110.9609 297,100.9609 L297,74.9609 " fill="#E2E2F0" style="stroke:#181818;stroke-width:1.5;"/><path d="M297,74.9609 C297,84.9609 315,84.9609 315,84.9609 C315,84.9609 333,84.9609 333,74.9609 " fill="none" style="stroke:#181818;stroke-width:1.5;"/><text fill="#000000" font-family="sans-serif" font-size="14" lengthAdjust="spacing" textLength="61" x="281.5" y="772.4316">Database</text><path d="M297,785.5078 C297,775.5078 315,775.5078 315,775.5078 C315,775.5078 333,775.5078 333,785.5078 L333,811.5078 C333,821.5078 315,821.5078 315,821.5078 C315,821.5078 297,821.5078 297,811.5078 L297,785.5078 " fill="#E2E2F0" style="stroke:#181818;stroke-width:1.5;"/><path d="M297,785.5078 C297,795.5078 315,795.5078 315,795.5078 C315,795.5078 333,795.5078 333,785.5078 " fill="none" style="stroke:#181818;stroke-width:1.5;"/><rect fill="#E2E2F0" height="31.6094" rx="2.5" ry="2.5" style="stroke:#181818;stroke-width:0.5;" width="34" x="451" y="95.9609"/><text fill="#000000" font-family="sans-serif" font-size="14" lengthAdjust="spacing" textLength="20" x="458" y="117.4941">Api</text><rect fill="#E2E2F0" height="31.6094" rx="2.5" ry="2.5" style="stroke:#181818;stroke-width:0.5;" width="34" x="451" y="757.8984"/><text fill="#000000" font-family="sans-serif" font-size="14" lengthAdjust="spacing" textLength="20" x="458" y="779.4316">Api</text><path d="M616,100.9609 L694,100.9609 C699,100.9609 699,114.7656 699,114.7656 C699,114.7656 699,128.5703 694,128.5703 L616,128.5703 C611,128.5703 611,114.7656 611,114.7656 C611,114.7656 611,100.9609 616,100.9609 " fill="#E2E2F0" style="stroke:#181818;stroke-width:0.5;"/><path d="M694,100.9609 C689,100.9609 689,114.7656 689,114.7656 C689,128.5703 694,128.5703 694,128.5703 " fill="none" style="stroke:#181818;stroke-width:0.5;"/><text fill="#000000" font-family="sans-serif" font-size="14" lengthAdjust="spacing" textLength="68" x="616" y="120.4941">Messaging</text><path d="M616,757.8984 L694,757.8984 C699,757.8984 699,771.7031 699,771.7031 C699,771.7031 699,785.5078 694,785.5078 L616,785.5078 C611,785.5078 611,771.7031 611,771.7031 C611,771.7031 611,757.8984 616,757.8984 " fill="#E2E2F0" style="stroke:#181818;stroke-width:0.5;"/><path d="M694,757.8984 C689,757.8984 689,771.7031 689,771.7031 C689,785.5078 694,785.5078 694,785.5078 " fill="none" style="stroke:#181818;stroke-width:0.5;"/><text fill="#000000" font-family="sans-serif" font-size="14" lengthAdjust="spacing" textLength="68" x="616" y="777.4316">Messaging</text><path d="M714,100.9609 L792,100.9609 C797,100.9609 797,114.7656 797,114.7656 C797,114.7656 797,128.5703 792,128.5703 L714,128.5703 C709,128.5703 709,114.7656 709,114.7656 C709,114.7656 709,100.9609 714,100.9609 " fill="#E2E2F0" style="stroke:#181818;stroke-width:0.5;"/><path d="M792,100.9609 C787,100.9609 787,114.7656 787,114.7656 C787,128.5703 792,128.5703 792,128.5703 " fill="none" style="stroke:#181818;stroke-width:0.5;"/><text fill="#000000" font-family="sans-serif" font-size="14" lengthAdjust="spacing" textLength="68" x="714" y="120.4941">Messaging</text><path d="M714,757.8984 L792,757.8984 C797,757.8984 797,771.7031 797,771.7031 C797,771.7031 797,785.5078 792,785.5078 L714,785.5078 C709,785.5078 709,771.7031 709,771.7031 C709,771.7031 709,757.8984 714,757.8984 " fill="#E2E2F0" style="stroke:#181818;stroke-width:0.5;"/><path d="M792,757.8984 C787,757.8984 787,771.7031 787,771.7031 C787,785.5078 792,785.5078 792,785.5078 " fill="none" style="stroke:#181818;stroke-width:0.5;"/><text fill="#000000" font-family="sans-serif" font-size="14" lengthAdjust="spacing" textLength="68" x="714" y="777.4316">Messaging</text><rect fill="#E2E2F0" height="31.6094" rx="2.5" ry="2.5" style="stroke:#181818;stroke-width:0.5;" width="124" x="914" y="95.9609"/><text fill="#000000" font-family="sans-serif" font-size="14" lengthAdjust="spacing" textLength="110" x="921" y="117.4941">Message Handler</text><rect fill="#E2E2F0" height="31.6094" rx="2.5" ry="2.5" style="stroke:#181818;stroke-width:0.5;" width="124" x="914" y="757.8984"/><text fill="#000000" font-family="sans-serif" font-size="14" lengthAdjust="spacing" textLength="110" x="921" y="779.4316">Message Handler</text><text fill="#000000" font-family="sans-serif" font-size="14" lengthAdjust="spacing" textLength="61" x="1129.5" y="125.4941">Database</text><path d="M1145,74.9609 C1145,64.9609 1163,64.9609 1163,64.9609 C1163,64.9609 1181,64.9609 1181,74.9609 L1181,100.9609 C1181,110.9609 1163,110.9609 1163,110.9609 C1163,110.9609 1145,110.9609 1145,100.9609 L1145,74.9609 " fill="#E2E2F0" style="stroke:#181818;stroke-width:1.5;"/><path d="M1145,74.9609 C1145,84.9609 1163,84.9609 1163,84.9609 C1163,84.9609 1181,84.9609 1181,74.9609 " fill="none" style="stroke:#181818;stroke-width:1.5;"/><text fill="#000000" font-family="sans-serif" font-size="14" lengthAdjust="spacing" textLength="61" x="1129.5" y="772.4316">Database</text><path d="M1145,785.5078 C1145,775.5078 1163,775.5078 1163,775.5078 C1163,775.5078 1181,775.5078 1181,785.5078 L1181,811.5078 C1181,821.5078 1163,821.5078 1163,821.5078 C1163,821.5078 1145,821.5078 1145,811.5078 L1145,785.5078 " fill="#E2E2F0" style="stroke:#181818;stroke-width:1.5;"/><path d="M1145,785.5078 C1145,795.5078 1163,795.5078 1163,795.5078 C1163,795.5078 1181,795.5078 1181,785.5078 " fill="none" style="stroke:#181818;stroke-width:1.5;"/><rect fill="#E2E2F0" height="31.6094" rx="2.5" ry="2.5" style="stroke:#181818;stroke-width:0.5;" width="126" x="1206.5" y="95.9609"/><text fill="#000000" font-family="sans-serif" font-size="14" lengthAdjust="spacing" textLength="112" x="1213.5" y="117.4941">Payment Provider</text><rect fill="#E2E2F0" height="31.6094" rx="2.5" ry="2.5" style="stroke:#181818;stroke-width:0.5;" width="126" x="1206.5" y="757.8984"/><text fill="#000000" font-family="sans-serif" font-size="14" lengthAdjust="spacing" textLength="112" x="1213.5" y="779.4316">Payment Provider</text><rect fill="#EEEEEE" height="3" style="stroke:#EEEEEE;stroke-width:1.0;" width="1372.5" x="0" y="159.7461"/><line style="stroke:#000000;stroke-width:1.0;" x1="0" x2="1372.5" y1="159.7461" y2="159.7461"/><line style="stroke:#000000;stroke-width:1.0;" x1="0" x2="1372.5" y1="162.7461" y2="162.7461"/><rect fill="#EEEEEE" height="24.3516" style="stroke:#000000;stroke-width:2.0;" width="351" x="510.75" y="148.5703"/><text fill="#000000" font-family="sans-serif" font-size="13" font-weight="bold" lengthAdjust="spacing" textLength="333" x="516.75" y="166.0654">Message Handler - HandleOrderStatusChangedEvent</text><line style="stroke:#181818;stroke-width:1.0;" x1="92" x2="134" y1="205.2734" y2="205.2734"/><line style="stroke:#181818;stroke-width:1.0;" x1="134" x2="134" y1="205.2734" y2="218.2734"/><line style="stroke:#181818;stroke-width:1.0;" x1="93" x2="134" y1="218.2734" y2="218.2734"/><polygon fill="#181818" points="103,214.2734,93,218.2734,103,222.2734,99,218.2734" style="stroke:#181818;stroke-width:1.0;"/><text fill="#000000" font-family="sans-serif" font-size="13" lengthAdjust="spacing" textLength="209" x="99" y="200.417">Handle Order Status Changed Event</text><path d="M10,233.2734 L283,233.2734 L283,241.625 L273,251.625 L10,251.625 L10,233.2734 " fill="#EEEEEE" style="stroke:#000000;stroke-width:1.5;"/><rect fill="none" height="297.5156" style="stroke:#000000;stroke-width:1.5;" width="1352.5" x="10" y="233.2734"/><text fill="#000000" font-family="sans-serif" font-size="13" font-weight="bold" lengthAdjust="spacing" textLength="228" x="25" y="247.7686">Handle Order Status Changed Event</text><polygon fill="#181818" points="741,269.9766,751,273.9766,741,277.9766,745,273.9766" style="stroke:#181818;stroke-width:1.0;"/><line style="stroke:#181818;stroke-width:1.0;" x1="92" x2="747" y1="273.9766" y2="273.9766"/><text fill="#000000" font-family="sans-serif" font-size="13" lengthAdjust="spacing" textLength="214" x="99" y="269.1201">Receive Order Status Changed Event</text><path d="M20,288.9766 L81,288.9766 L81,297.3281 L71,307.3281 L20,307.3281 L20,288.9766 " fill="#EEEEEE" style="stroke:#000000;stroke-width:1.5;"/><rect fill="none" height="234.8125" style="stroke:#000000;stroke-width:1.5;" width="1332.5" x="20" y="288.9766"/><text fill="#000000" font-family="sans-serif" font-size="13" font-weight="bold" lengthAdjust="spacing" textLength="16" x="35" y="303.4717">alt</text><text fill="#000000" font-family="sans-serif" font-size="11" font-weight="bold" lengthAdjust="spacing" textLength="196" x="96" y="302.3955">[Order Status is 'Pending Payment']</text><polygon fill="#181818" points="303,325.6797,313,329.6797,303,333.6797,307,329.6797" style="stroke:#181818;stroke-width:1.0;"/><line style="stroke:#181818;stroke-width:1.0;" x1="92" x2="309" y1="329.6797" y2="329.6797"/><text fill="#000000" font-family="sans-serif" font-size="13" lengthAdjust="spacing" textLength="68" x="99" y="324.8232">Insert Order</text><polygon fill="#181818" points="1257.5,356.0313,1267.5,360.0313,1257.5,364.0313,1261.5,360.0313" style="stroke:#181818;stroke-width:1.0;"/><line style="stroke:#181818;stroke-width:1.0;" x1="92" x2="1263.5" y1="360.0313" y2="360.0313"/><text fill="#000000" font-family="sans-serif" font-size="13" lengthAdjust="spacing" textLength="104" x="99" y="355.1748">Process Payment</text><path d="M261.5,375.0313 L415.5,375.0313 L415.5,383.3828 L405.5,393.3828 L261.5,393.3828 L261.5,375.0313 " fill="#EEEEEE" style="stroke:#000000;stroke-width:1.5;"/><rect fill="none" height="141.7578" style="stroke:#000000;stroke-width:1.5;" width="1081" x="261.5" y="375.0313"/><text fill="#000000" font-family="sans-serif" font-size="13" font-weight="bold" lengthAdjust="spacing" textLength="109" x="276.5" y="389.5264">Process Payment</text><polygon fill="#181818" points="479,411.7344,469,415.7344,479,419.7344,475,415.7344" style="stroke:#181818;stroke-width:1.0;"/><line style="stroke:#181818;stroke-width:1.0;" x1="473" x2="1268.5" y1="415.7344" y2="415.7344"/><text fill="#000000" font-family="sans-serif" font-size="13" lengthAdjust="spacing" textLength="160" x="485" y="410.8779">Post Payment Result Event</text><path d="M271.5,430.7344 L485.5,430.7344 L485.5,439.0859 L475.5,449.0859 L271.5,449.0859 L271.5,430.7344 " fill="#EEEEEE" style="stroke:#000000;stroke-width:1.5;"/><rect fill="none" height="79.0547" style="stroke:#000000;stroke-width:1.5;" width="437.5" x="271.5" y="430.7344"/><text fill="#000000" font-family="sans-serif" font-size="13" font-weight="bold" lengthAdjust="spacing" textLength="169" x="286.5" y="445.2295">Post Payment Result Event</text><polygon fill="#181818" points="326,467.4375,316,471.4375,326,475.4375,322,471.4375" style="stroke:#181818;stroke-width:1.0;"/><line style="stroke:#181818;stroke-width:1.0;" x1="320" x2="467" y1="471.4375" y2="471.4375"/><text fill="#000000" font-family="sans-serif" font-size="13" lengthAdjust="spacing" textLength="129" x="332" y="466.5811">Insert Payment Result</text><polygon fill="#181818" points="643,497.7891,653,501.7891,643,505.7891,647,501.7891" style="stroke:#181818;stroke-width:1.0;"/><line style="stroke:#181818;stroke-width:1.0;" x1="468" x2="649" y1="501.7891" y2="501.7891"/><text fill="#000000" font-family="sans-serif" font-size="13" lengthAdjust="spacing" textLength="163" x="475" y="496.9326">Send Payment Result Event</text><rect fill="#EEEEEE" height="3" style="stroke:#EEEEEE;stroke-width:1.0;" width="1372.5" x="0" y="558.9648"/><line style="stroke:#000000;stroke-width:1.0;" x1="0" x2="1372.5" y1="558.9648" y2="558.9648"/><line style="stroke:#000000;stroke-width:1.0;" x1="0" x2="1372.5" y1="561.9648" y2="561.9648"/><rect fill="#EEEEEE" height="24.3516" style="stroke:#000000;stroke-width:2.0;" width="314" x="529.25" y="547.7891"/><text fill="#000000" font-family="sans-serif" font-size="13" font-weight="bold" lengthAdjust="spacing" textLength="296" x="535.25" y="565.2842">Message Handler - HandlePaymentResultEvent</text><line style="stroke:#181818;stroke-width:1.0;" x1="976" x2="1018" y1="604.4922" y2="604.4922"/><line style="stroke:#181818;stroke-width:1.0;" x1="1018" x2="1018" y1="604.4922" y2="617.4922"/><line style="stroke:#181818;stroke-width:1.0;" x1="977" x2="1018" y1="617.4922" y2="617.4922"/><polygon fill="#181818" points="987,613.4922,977,617.4922,987,621.4922,983,617.4922" style="stroke:#181818;stroke-width:1.0;"/><text fill="#000000" font-family="sans-serif" font-size="13" lengthAdjust="spacing" textLength="173" x="983" y="599.6357">Handle Payment Result Event</text><path d="M601,632.4922 L833,632.4922 L833,640.8438 L823,650.8438 L601,650.8438 L601,632.4922 " fill="#EEEEEE" style="stroke:#000000;stroke-width:1.5;"/><rect fill="none" height="109.4063" style="stroke:#000000;stroke-width:1.5;" width="605.5" x="601" y="632.4922"/><text fill="#000000" font-family="sans-serif" font-size="13" font-weight="bold" lengthAdjust="spacing" textLength="187" x="616" y="646.9873">Handle Payment Result Event</text><polygon fill="#181818" points="666,669.1953,656,673.1953,666,677.1953,662,673.1953" style="stroke:#181818;stroke-width:1.0;"/><line style="stroke:#181818;stroke-width:1.0;" x1="660" x2="975" y1="673.1953" y2="673.1953"/><text fill="#000000" font-family="sans-serif" font-size="13" lengthAdjust="spacing" textLength="178" x="672" y="668.3389">Receive Payment Result Event</text><polygon fill="#181818" points="1151,699.5469,1161,703.5469,1151,707.5469,1155,703.5469" style="stroke:#181818;stroke-width:1.0;"/><line style="stroke:#181818;stroke-width:1.0;" x1="976" x2="1157" y1="703.5469" y2="703.5469"/><text fill="#000000" font-family="sans-serif" font-size="13" lengthAdjust="spacing" textLength="119" x="983" y="698.6904">Update Order Status</text><polygon fill="#181818" points="764,729.8984,754,733.8984,764,737.8984,760,733.8984" style="stroke:#181818;stroke-width:1.0;"/><line style="stroke:#181818;stroke-width:1.0;" x1="758" x2="975" y1="733.8984" y2="733.8984"/><text fill="#000000" font-family="sans-serif" font-size="13" lengthAdjust="spacing" textLength="199" x="770" y="729.042">Send Order Status Changed Event</text><!--SRC=[tLR1JiCm3BtdAwnouBH-0DAG49k00sAYGfnDQqQaDYr9Mk3lSRjaMZUeq4XXKAbILIVsU_Pp72jjJZ27yx8eIAS4YnpjOwaBcC12boaP0mjyAqXP_fFGSqsALqruWx8e5Md8gQ5S2F5GlaBaroQa6vbI14VtJzAI07ugr5QciaAsHzVi6PS4bwYod7G4Q63kKNWGyOnosP2EdLiJ9-MZVK5DoPknL1XlSE7YDIeJkm3EVmSWGuiFQ0YYcViA7zPxtcLyLidmuTXf5udhKfFFgbJBiVB9hWMf3BZOlkGtEcCLV5JmBuAw80w0bcPKSB7YpjyrAYvU2sK7OcSV1BYds8BYs4zuWI2iHRWkLIyTlacvmHkPVRlvl1iXfbFOIZMV5Akl5LIBjZRdJwYMbCsR5iDqAaPiUvYSZdcgm8bZ1wu9EdxW24B7K2nrMLTVMFVZQGZTTvoDMqg98G_HnDpspTB0yOA5sdfmX8x_b2Pyjp7_AsL8Etw7oy4tB0FUcl5EhDj_0uGAdNGUV2tyqjZr_UIMJCtYskowp-t1mOolgZwFmsUmUJ0axIJwi11iwBq3CyJjNsqV61-Z3F8VE4Dtnyg0j8TM_6fA0Yd6ZvB38nZuaiPSxog-8VQdvZ-IzSO9C70lQ7jVl0C0]--></g></svg>