<?xml version="1.0" encoding="us-ascii" standalone="no"?><svg xmlns="http://www.w3.org/2000/svg" xmlns:xlink="http://www.w3.org/1999/xlink" contentStyleType="text/css" height="553px" preserveAspectRatio="none" style="width:693px;height:553px;background:#FFFFFF;" version="1.1" viewBox="0 0 693 553" width="693px" zoomAndPan="magnify"><defs/><g><text fill="#000000" font-family="sans-serif" font-size="14" font-weight="bold" lengthAdjust="spacing" textLength="665" x="10" y="29.5332">Dot Net E Shop - Basket Api - Grpc - Basket Service - Get Basket - Sequence - Component level</text><rect fill="#FFFFFF" height="502.4375" style="stroke:#181818;stroke-width:0.5;" width="116" x="89.75" y="44.6094"/><text fill="#000000" font-family="sans-serif" font-size="13" font-weight="bold" lengthAdjust="spacing" textLength="30" x="132.75" y="58.1045">Grpc</text><rect fill="#FFFFFF" height="502.4375" style="stroke:#181818;stroke-width:0.5;" width="363" x="283.25" y="44.6094"/><text fill="#000000" font-family="sans-serif" font-size="13" font-weight="bold" lengthAdjust="spacing" textLength="29" x="450.25" y="58.1045">Data</text><rect fill="none" height="349.5156" style="stroke:#000000;stroke-width:1.5;" width="598.5" x="63.75" y="144.9219"/><rect fill="none" height="135.4063" style="stroke:#000000;stroke-width:1.5;" width="375" x="277.25" y="200.625"/><rect fill="none" height="137.4063" style="stroke:#000000;stroke-width:1.5;" width="303" x="73.75" y="350.0313"/><rect fill="none" height="61.7031" style="stroke:#000000;stroke-width:1.5;" width="272" x="83.75" y="418.7344"/><line style="stroke:#181818;stroke-width:0.5;stroke-dasharray:5.0,5.0;" x1="50.75" x2="50.75" y1="97.5703" y2="511.4375"/><line style="stroke:#181818;stroke-width:0.5;stroke-dasharray:5.0,5.0;" x1="147.75" x2="147.75" y1="97.5703" y2="511.4375"/><line style="stroke:#181818;stroke-width:0.5;stroke-dasharray:5.0,5.0;" x1="371.25" x2="371.25" y1="97.5703" y2="511.4375"/><line style="stroke:#181818;stroke-width:0.5;stroke-dasharray:5.0,5.0;" x1="584.25" x2="584.25" y1="97.5703" y2="511.4375"/><rect fill="#E2E2F0" height="31.6094" rx="2.5" ry="2.5" style="stroke:#181818;stroke-width:0.5;" width="65" x="18.75" y="64.9609"/><text fill="#000000" font-family="sans-serif" font-size="14" lengthAdjust="spacing" textLength="51" x="25.75" y="86.4941">External</text><rect fill="#E2E2F0" height="31.6094" rx="2.5" ry="2.5" style="stroke:#181818;stroke-width:0.5;" width="65" x="18.75" y="510.4375"/><text fill="#000000" font-family="sans-serif" font-size="14" lengthAdjust="spacing" textLength="51" x="25.75" y="531.9707">External</text><rect fill="#E2E2F0" height="31.6094" rx="2.5" ry="2.5" style="stroke:#181818;stroke-width:0.5;" width="108" x="93.75" y="64.9609"/><text fill="#000000" font-family="sans-serif" font-size="14" lengthAdjust="spacing" textLength="94" x="100.75" y="86.4941">Basket Service</text><rect fill="#E2E2F0" height="31.6094" rx="2.5" ry="2.5" style="stroke:#181818;stroke-width:0.5;" width="108" x="93.75" y="510.4375"/><text fill="#000000" font-family="sans-serif" font-size="14" lengthAdjust="spacing" textLength="94" x="100.75" y="531.9707">Basket Service</text><rect fill="#E2E2F0" height="31.6094" rx="2.5" ry="2.5" style="stroke:#181818;stroke-width:0.5;" width="169" x="287.25" y="64.9609"/><text fill="#000000" font-family="sans-serif" font-size="14" lengthAdjust="spacing" textLength="155" x="294.25" y="86.4941">Redis Basket Repository</text><rect fill="#E2E2F0" height="31.6094" rx="2.5" ry="2.5" style="stroke:#181818;stroke-width:0.5;" width="169" x="287.25" y="510.4375"/><text fill="#000000" font-family="sans-serif" font-size="14" lengthAdjust="spacing" textLength="155" x="294.25" y="531.9707">Redis Basket Repository</text><rect fill="#E2E2F0" height="31.6094" rx="2.5" ry="2.5" style="stroke:#181818;stroke-width:0.5;" width="115" x="527.25" y="64.9609"/><text fill="#000000" font-family="sans-serif" font-size="14" lengthAdjust="spacing" textLength="101" x="534.25" y="86.4941">Redis Database</text><rect fill="#E2E2F0" height="31.6094" rx="2.5" ry="2.5" style="stroke:#181818;stroke-width:0.5;" width="115" x="527.25" y="510.4375"/><text fill="#000000" font-family="sans-serif" font-size="14" lengthAdjust="spacing" textLength="101" x="534.25" y="531.9707">Redis Database</text><polygon fill="#181818" points="135.75,125.9219,145.75,129.9219,135.75,133.9219,139.75,129.9219" style="stroke:#181818;stroke-width:1.0;"/><line style="stroke:#181818;stroke-width:1.0;" x1="51.25" x2="141.75" y1="129.9219" y2="129.9219"/><text fill="#000000" font-family="sans-serif" font-size="13" lengthAdjust="spacing" textLength="66" x="58.25" y="125.0654">Get Basket</text><path d="M63.75,144.9219 L176.75,144.9219 L176.75,153.2734 L166.75,163.2734 L63.75,163.2734 L63.75,144.9219 " fill="#EEEEEE" style="stroke:#000000;stroke-width:1.5;"/><rect fill="none" height="349.5156" style="stroke:#000000;stroke-width:1.5;" width="598.5" x="63.75" y="144.9219"/><text fill="#000000" font-family="sans-serif" font-size="13" font-weight="bold" lengthAdjust="spacing" textLength="68" x="78.75" y="159.417">Get Basket</text><polygon fill="#181818" points="359.75,181.625,369.75,185.625,359.75,189.625,363.75,185.625" style="stroke:#181818;stroke-width:1.0;"/><line style="stroke:#181818;stroke-width:1.0;" x1="147.75" x2="365.75" y1="185.625" y2="185.625"/><text fill="#000000" font-family="sans-serif" font-size="13" lengthAdjust="spacing" textLength="107" x="154.75" y="180.7686">Get Basket Async</text><path d="M277.25,200.625 L431.25,200.625 L431.25,208.9766 L421.25,218.9766 L277.25,218.9766 L277.25,200.625 " fill="#EEEEEE" style="stroke:#000000;stroke-width:1.5;"/><rect fill="none" height="135.4063" style="stroke:#000000;stroke-width:1.5;" width="375" x="277.25" y="200.625"/><text fill="#000000" font-family="sans-serif" font-size="13" font-weight="bold" lengthAdjust="spacing" textLength="109" x="292.25" y="215.1201">Get Basket Async</text><line style="stroke:#181818;stroke-width:1.0;" x1="371.75" x2="413.75" y1="241.3281" y2="241.3281"/><line style="stroke:#181818;stroke-width:1.0;" x1="413.75" x2="413.75" y1="241.3281" y2="254.3281"/><line style="stroke:#181818;stroke-width:1.0;" x1="372.75" x2="413.75" y1="254.3281" y2="254.3281"/><polygon fill="#181818" points="382.75,250.3281,372.75,254.3281,382.75,258.3281,378.75,254.3281" style="stroke:#181818;stroke-width:1.0;"/><text fill="#000000" font-family="sans-serif" font-size="13" lengthAdjust="spacing" textLength="93" x="378.75" y="236.4717">Get Basket Key</text><polygon fill="#181818" points="572.75,280.6797,582.75,284.6797,572.75,288.6797,576.75,284.6797" style="stroke:#181818;stroke-width:1.0;"/><line style="stroke:#181818;stroke-width:1.0;" x1="371.75" x2="578.75" y1="284.6797" y2="284.6797"/><text fill="#000000" font-family="sans-serif" font-size="13" lengthAdjust="spacing" textLength="139" x="378.75" y="279.8232">String Get Lease Async</text><line style="stroke:#181818;stroke-width:1.0;" x1="371.75" x2="413.75" y1="315.0313" y2="315.0313"/><line style="stroke:#181818;stroke-width:1.0;" x1="413.75" x2="413.75" y1="315.0313" y2="328.0313"/><line style="stroke:#181818;stroke-width:1.0;" x1="372.75" x2="413.75" y1="328.0313" y2="328.0313"/><polygon fill="#181818" points="382.75,324.0313,372.75,328.0313,382.75,332.0313,378.75,328.0313" style="stroke:#181818;stroke-width:1.0;"/><text fill="#000000" font-family="sans-serif" font-size="13" lengthAdjust="spacing" textLength="199" x="378.75" y="310.1748">Return (JsonSerializer.Deserialize)</text><path d="M73.75,350.0313 L134.75,350.0313 L134.75,358.3828 L124.75,368.3828 L73.75,368.3828 L73.75,350.0313 " fill="#EEEEEE" style="stroke:#000000;stroke-width:1.5;"/><rect fill="none" height="137.4063" style="stroke:#000000;stroke-width:1.5;" width="303" x="73.75" y="350.0313"/><text fill="#000000" font-family="sans-serif" font-size="13" font-weight="bold" lengthAdjust="spacing" textLength="16" x="88.75" y="364.5264">alt</text><text fill="#000000" font-family="sans-serif" font-size="11" font-weight="bold" lengthAdjust="spacing" textLength="88" x="149.75" y="363.4502">[data is not null]</text><line style="stroke:#181818;stroke-width:1.0;" x1="147.75" x2="189.75" y1="390.7344" y2="390.7344"/><line style="stroke:#181818;stroke-width:1.0;" x1="189.75" x2="189.75" y1="390.7344" y2="403.7344"/><line style="stroke:#181818;stroke-width:1.0;" x1="148.75" x2="189.75" y1="403.7344" y2="403.7344"/><polygon fill="#181818" points="158.75,399.7344,148.75,403.7344,158.75,407.7344,154.75,403.7344" style="stroke:#181818;stroke-width:1.0;"/><text fill="#000000" font-family="sans-serif" font-size="13" lengthAdjust="spacing" textLength="210" x="154.75" y="385.8779">Map To Customer Basket Response</text><path d="M83.75,418.7344 L350.75,418.7344 L350.75,427.0859 L340.75,437.0859 L83.75,437.0859 L83.75,418.7344 " fill="#EEEEEE" style="stroke:#000000;stroke-width:1.5;"/><rect fill="none" height="61.7031" style="stroke:#000000;stroke-width:1.5;" width="272" x="83.75" y="418.7344"/><text fill="#000000" font-family="sans-serif" font-size="13" font-weight="bold" lengthAdjust="spacing" textLength="222" x="98.75" y="433.2295">Map To Customer Basket Response</text><line style="stroke:#181818;stroke-width:1.0;" x1="147.75" x2="189.75" y1="459.4375" y2="459.4375"/><line style="stroke:#181818;stroke-width:1.0;" x1="189.75" x2="189.75" y1="459.4375" y2="472.4375"/><line style="stroke:#181818;stroke-width:1.0;" x1="148.75" x2="189.75" y1="472.4375" y2="472.4375"/><polygon fill="#181818" points="158.75,468.4375,148.75,472.4375,158.75,476.4375,154.75,472.4375" style="stroke:#181818;stroke-width:1.0;"/><text fill="#000000" font-family="sans-serif" font-size="13" lengthAdjust="spacing" textLength="103" x="154.75" y="454.5811">Return (response)</text><!--SRC=[rLLDRy8m3BtdLrZTPJlGqquxJ6A5JViyq4ax1_0WMaYon0MwNp-NKbg440Yn2IfLgbyTl_Vgn2L56g5Z2TwGe0lfs3femPqCNnotdUBWmRj1ZQNefsg01SxH4cmn_9sXMU29dJXhq11edA8MmabFQg2SP2ZgpWczaJe26I2vVZGStcixYrFxIJFfCSq3uIJ4LM8P2z6tSuXgOH5SV8mLeG2-ofU5q3LuZNXT_uAUVRFjRc5wWxvCPw8uiOQaCkX3N334AtzLqhAaG3C45Y8QaZgIv7P9FHogK7t37ZeR55cV7wQje6fgMnGlC-lIspGKY_iou16fgvBrPrazYFtx3gtR8xS9RXexLuoypLmJE3BP8VBtwkIQ3MY7t0msp2pXFnBmJzQUCJzv1zLUP-KfUML62mClM41dsuCUKkODN3u5QtWxAwdL3_guWw4AheeZBQGc679Du3bY-4zYCgrFuHZjcWAlqi6xXIGBP2VewpaSU0NFhV8qxSew0wDL8_rISzcswXQ_]--></g></svg>