<?xml version="1.0" encoding="us-ascii" standalone="no"?><svg xmlns="http://www.w3.org/2000/svg" xmlns:xlink="http://www.w3.org/1999/xlink" contentStyleType="text/css" height="383px" preserveAspectRatio="none" style="width:672px;height:383px;background:#FFFFFF;" version="1.1" viewBox="0 0 672 383" width="672px" zoomAndPan="magnify"><defs/><g><text fill="#000000" font-family="sans-serif" font-size="14" font-weight="bold" lengthAdjust="spacing" textLength="644" x="10" y="29.5332">To Do App Example - To Do App - Web App - Mark Task As Done - Sequence - Container level</text><rect fill="#FFFFFF" height="326.3281" style="stroke:#181818;stroke-width:0.5;" width="313.5" x="231" y="44.6094"/><text fill="#000000" font-family="sans-serif" font-size="13" font-weight="bold" lengthAdjust="spacing" textLength="66" x="354.75" y="58.1045">To Do App</text><rect fill="none" height="111.4063" style="stroke:#000000;stroke-width:1.5;" width="335.5" x="225" y="175.9219"/><rect fill="none" height="48.7031" style="stroke:#000000;stroke-width:1.5;" width="184" x="366.5" y="231.625"/><line style="stroke:#181818;stroke-width:0.5;stroke-dasharray:5.0,5.0;" x1="131.5" x2="131.5" y1="128.5703" y2="304.3281"/><line style="stroke:#181818;stroke-width:0.5;stroke-dasharray:5.0,5.0;" x1="271" x2="271" y1="128.5703" y2="304.3281"/><line style="stroke:#181818;stroke-width:0.5;stroke-dasharray:5.0,5.0;" x1="409.5" x2="409.5" y1="128.5703" y2="304.3281"/><line style="stroke:#181818;stroke-width:0.5;stroke-dasharray:5.0,5.0;" x1="506.5" x2="506.5" y1="128.5703" y2="304.3281"/><rect fill="#E2E2F0" height="31.6094" rx="2.5" ry="2.5" style="stroke:#181818;stroke-width:0.5;" width="65" x="99.5" y="95.9609"/><text fill="#000000" font-family="sans-serif" font-size="14" lengthAdjust="spacing" textLength="51" x="106.5" y="117.4941">External</text><rect fill="#E2E2F0" height="31.6094" rx="2.5" ry="2.5" style="stroke:#181818;stroke-width:0.5;" width="65" x="99.5" y="303.3281"/><text fill="#000000" font-family="sans-serif" font-size="14" lengthAdjust="spacing" textLength="51" x="106.5" y="324.8613">External</text><rect fill="#E2E2F0" height="31.6094" rx="2.5" ry="2.5" style="stroke:#181818;stroke-width:0.5;" width="72" x="235" y="95.9609"/><text fill="#000000" font-family="sans-serif" font-size="14" lengthAdjust="spacing" textLength="58" x="242" y="117.4941">Web App</text><rect fill="#E2E2F0" height="31.6094" rx="2.5" ry="2.5" style="stroke:#181818;stroke-width:0.5;" width="72" x="235" y="303.3281"/><text fill="#000000" font-family="sans-serif" font-size="14" lengthAdjust="spacing" textLength="58" x="242" y="324.8613">Web App</text><rect fill="#E2E2F0" height="31.6094" rx="2.5" ry="2.5" style="stroke:#181818;stroke-width:0.5;" width="67" x="376.5" y="95.9609"/><text fill="#000000" font-family="sans-serif" font-size="14" lengthAdjust="spacing" textLength="53" x="383.5" y="117.4941">Web Api</text><rect fill="#E2E2F0" height="31.6094" rx="2.5" ry="2.5" style="stroke:#181818;stroke-width:0.5;" width="67" x="376.5" y="303.3281"/><text fill="#000000" font-family="sans-serif" font-size="14" lengthAdjust="spacing" textLength="53" x="383.5" y="324.8613">Web Api</text><text fill="#000000" font-family="sans-serif" font-size="14" lengthAdjust="spacing" textLength="61" x="473.5" y="125.4941">Database</text><path d="M489,74.9609 C489,64.9609 507,64.9609 507,64.9609 C507,64.9609 525,64.9609 525,74.9609 L525,100.9609 C525,110.9609 507,110.9609 507,110.9609 C507,110.9609 489,110.9609 489,100.9609 L489,74.9609 " fill="#E2E2F0" style="stroke:#181818;stroke-width:1.5;"/><path d="M489,74.9609 C489,84.9609 507,84.9609 507,84.9609 C507,84.9609 525,84.9609 525,74.9609 " fill="none" style="stroke:#181818;stroke-width:1.5;"/><text fill="#000000" font-family="sans-serif" font-size="14" lengthAdjust="spacing" textLength="61" x="473.5" y="317.8613">Database</text><path d="M489,330.9375 C489,320.9375 507,320.9375 507,320.9375 C507,320.9375 525,320.9375 525,330.9375 L525,356.9375 C525,366.9375 507,366.9375 507,366.9375 C507,366.9375 489,366.9375 489,356.9375 L489,330.9375 " fill="#E2E2F0" style="stroke:#181818;stroke-width:1.5;"/><path d="M489,330.9375 C489,340.9375 507,340.9375 507,340.9375 C507,340.9375 525,340.9375 525,330.9375 " fill="none" style="stroke:#181818;stroke-width:1.5;"/><polygon fill="#181818" points="259,156.9219,269,160.9219,259,164.9219,263,160.9219" style="stroke:#181818;stroke-width:1.0;"/><line style="stroke:#181818;stroke-width:1.0;" x1="132" x2="265" y1="160.9219" y2="160.9219"/><text fill="#000000" font-family="sans-serif" font-size="13" lengthAdjust="spacing" textLength="115" x="139" y="156.0654">Mark Task As Done</text><path d="M225,175.9219 L390,175.9219 L390,184.2734 L380,194.2734 L225,194.2734 L225,175.9219 " fill="#EEEEEE" style="stroke:#000000;stroke-width:1.5;"/><rect fill="none" height="111.4063" style="stroke:#000000;stroke-width:1.5;" width="335.5" x="225" y="175.9219"/><text fill="#000000" font-family="sans-serif" font-size="13" font-weight="bold" lengthAdjust="spacing" textLength="120" x="240" y="190.417">Mark Task As Done</text><polygon fill="#181818" points="398,212.625,408,216.625,398,220.625,402,216.625" style="stroke:#181818;stroke-width:1.0;"/><line style="stroke:#181818;stroke-width:1.0;" x1="271" x2="404" y1="216.625" y2="216.625"/><text fill="#000000" font-family="sans-serif" font-size="13" lengthAdjust="spacing" textLength="115" x="278" y="211.7686">Mark Task As Done</text><path d="M366.5,231.625 L531.5,231.625 L531.5,239.9766 L521.5,249.9766 L366.5,249.9766 L366.5,231.625 " fill="#EEEEEE" style="stroke:#000000;stroke-width:1.5;"/><rect fill="none" height="48.7031" style="stroke:#000000;stroke-width:1.5;" width="184" x="366.5" y="231.625"/><text fill="#000000" font-family="sans-serif" font-size="13" font-weight="bold" lengthAdjust="spacing" textLength="120" x="381.5" y="246.1201">Mark Task As Done</text><polygon fill="#181818" points="495,268.3281,505,272.3281,495,276.3281,499,272.3281" style="stroke:#181818;stroke-width:1.0;"/><line style="stroke:#181818;stroke-width:1.0;" x1="410" x2="501" y1="272.3281" y2="272.3281"/><text fill="#000000" font-family="sans-serif" font-size="13" lengthAdjust="spacing" textLength="73" x="417" y="267.4717">Update Task</text><!--SRC=[lLB1JiCm3BtxAwnmRa-SE21Dwv0uxDIYdTtDGBGi2Kd6oj_ZbdG23IGK9295if_jvnV7IIV3s3bi72wynzL01oz8zGchSCDzjjOKzjXHtECYIjoEcIs_7DbkHtFfR29jEQ3XLpO0daBIM-t99bIh8N6mP1HInENrlHNtphXJtRh7TAB0xLjCV8ZrdFZX0_HkG7KMfF1gywmJ0yhvqY3hdFWxrpYnyuCkMkHmVLOSQwaMv2TM_HTMFR7kA55FaL4rsIhadCk1xGvbE03m-t5YTLiy7Bovt01u2kxely6BcvGBrFyXK9S9d3zD93vuMGMUn8nVE5ru1m00]--></g></svg>