<?xml version="1.0" encoding="us-ascii" standalone="no"?><svg xmlns="http://www.w3.org/2000/svg" xmlns:xlink="http://www.w3.org/1999/xlink" contentStyleType="text/css" height="396px" preserveAspectRatio="none" style="width:890px;height:396px;background:#FFFFFF;" version="1.1" viewBox="0 0 890 396" width="890px" zoomAndPan="magnify"><defs/><g><text fill="#000000" font-family="sans-serif" font-size="14" font-weight="bold" lengthAdjust="spacing" textLength="420" x="169" y="24.5332">ECommercePlatform - Product Service - C4 - Container level</text><!--cluster ECommercePlatform.SoftwareSystems.ProductService--><g id="cluster_ECommercePlatform.SoftwareSystems.ProductService"><rect fill="none" height="253" rx="2.5" ry="2.5" style="stroke:#444444;stroke-width:1.0;stroke-dasharray:7.0,7.0;" width="613" x="14" y="42.6094"/><text fill="#444444" font-family="sans-serif" font-size="16" font-weight="bold" lengthAdjust="spacing" textLength="122" x="259.5" y="61.2188">Product Service</text><text fill="#444444" font-family="sans-serif" font-size="12" font-weight="bold" lengthAdjust="spacing" textLength="51" x="295" y="77.1914">[System]</text></g><!--cluster ECommercePlatform.SoftwareSystems.BuyingService--><g id="cluster_ECommercePlatform.SoftwareSystems.BuyingService"><rect fill="none" height="94" rx="2.5" ry="2.5" style="stroke:#444444;stroke-width:1.0;stroke-dasharray:7.0,7.0;" width="132" x="635" y="201.6094"/><text fill="#444444" font-family="sans-serif" font-size="16" font-weight="bold" lengthAdjust="spacing" textLength="116" x="643" y="220.2188">Buying Service</text><text fill="#444444" font-family="sans-serif" font-size="12" font-weight="bold" lengthAdjust="spacing" textLength="51" x="675.5" y="236.1914">[System]</text></g><!--entity ECommercePlatform.SoftwareSystems.ProductService.Containers.Api--><g id="elem_ECommercePlatform.SoftwareSystems.ProductService.Containers.Api"><rect fill="#438DD5" height="40.125" rx="2.5" ry="2.5" style="stroke:#3C7FC0;stroke-width:0.5;" width="45" x="78.5" y="88.6094"/><text fill="#FFFFFF" font-family="sans-serif" font-size="16" font-weight="bold" lengthAdjust="spacing" textLength="25" x="88.5" y="115.2188">Api</text></g><!--entity ECommercePlatform.SoftwareSystems.ProductService.Containers.Database--><g id="elem_ECommercePlatform.SoftwareSystems.ProductService.Containers.Database"><rect fill="#438DD5" height="40.125" rx="2.5" ry="2.5" style="stroke:#3C7FC0;stroke-width:0.5;" width="92" x="159" y="247.6094"/><text fill="#FFFFFF" font-family="sans-serif" font-size="16" font-weight="bold" lengthAdjust="spacing" textLength="72" x="169" y="274.2188">Database</text></g><!--entity ECommercePlatform.SoftwareSystems.ProductService.Containers.Messaging--><g id="elem_ECommercePlatform.SoftwareSystems.ProductService.Containers.Messaging"><rect fill="#438DD5" height="40.125" rx="2.5" ry="2.5" style="stroke:#3C7FC0;stroke-width:0.5;" width="103" x="337.5" y="247.6094"/><text fill="#FFFFFF" font-family="sans-serif" font-size="16" font-weight="bold" lengthAdjust="spacing" textLength="83" x="347.5" y="274.2188">Messaging</text></g><!--entity ECommercePlatform.SoftwareSystems.ProductService.Containers.MessageHandler--><g id="elem_ECommercePlatform.SoftwareSystems.ProductService.Containers.MessageHandler"><rect fill="#438DD5" height="40.125" rx="2.5" ry="2.5" style="stroke:#3C7FC0;stroke-width:0.5;" width="152" x="382" y="88.6094"/><text fill="#FFFFFF" font-family="sans-serif" font-size="16" font-weight="bold" lengthAdjust="spacing" textLength="68" x="392" y="115.2188">Message</text><text fill="#FFFFFF" font-family="sans-serif" font-size="16" font-weight="bold" lengthAdjust="spacing" textLength="4" x="460" y="115.2188">&#160;</text><text fill="#FFFFFF" font-family="sans-serif" font-size="16" font-weight="bold" lengthAdjust="spacing" textLength="60" x="464" y="115.2188">Handler</text></g><!--entity ECommercePlatform.SoftwareSystems.BuyingService.Containers.Messaging--><g id="elem_ECommercePlatform.SoftwareSystems.BuyingService.Containers.Messaging"><rect fill="#438DD5" height="40.125" rx="2.5" ry="2.5" style="stroke:#3C7FC0;stroke-width:0.5;" width="103" x="643.5" y="247.6094"/><text fill="#FFFFFF" font-family="sans-serif" font-size="16" font-weight="bold" lengthAdjust="spacing" textLength="83" x="653.5" y="274.2188">Messaging</text></g><polygon fill="none" points="158.9496,260.0063,151.7494,255.4066,150.5004,261.2751,158.9496,260.0063" style="stroke:#666666;stroke-width:1.0;"/><path d="M78.251,117.1831 C64.818,122.9654 48.9332,132.397 41,146.6094 C30.8188,164.8491 29.6223,176.091 41,193.6094 C66.887,233.468 112.3048,250.0784 151.1249,258.3409 " fill="none" style="stroke:#666666;stroke-width:1.0;"/><text fill="#666666" font-family="sans-serif" font-size="12" font-weight="bold" lengthAdjust="spacing" textLength="91" x="42" y="160.0664">Select Products</text><text fill="#666666" font-family="sans-serif" font-size="12" font-weight="bold" lengthAdjust="spacing" textLength="88" x="43.5" y="175.1602">Update Product</text><text fill="#666666" font-family="sans-serif" font-size="12" font-weight="bold" lengthAdjust="spacing" textLength="84" x="45.5" y="190.2539">Delete Product</text><polygon fill="none" points="359.6089,247.5793,354.3201,240.869,351.2119,246.0011,359.6089,247.5793" style="stroke:#666666;stroke-width:1.0;"/><path d="M120.5028,128.9574 C125.3172,134.3749 130.1825,140.4692 134,146.6094 C145.8965,165.7439 134.8025,180.3238 153,193.6094 C172.2579,207.6691 237.0241,195.2336 260,201.6094 C296.2476,211.668 327.4633,228.1108 352.766,243.4351 " fill="none" style="stroke:#666666;stroke-width:1.0;"/><text fill="#666666" font-family="sans-serif" font-size="12" font-weight="bold" lengthAdjust="spacing" textLength="161" x="154" y="167.5664">Send Product Updated Event</text><text fill="#666666" font-family="sans-serif" font-size="12" font-weight="bold" lengthAdjust="spacing" textLength="157" x="156" y="182.6602">Send Product Deleted Event</text><polygon fill="none" points="687.7952,247.5061,687.4994,238.9672,681.9577,241.2672,687.7952,247.5061" style="stroke:#666666;stroke-width:1.0;"/><path d="M534.3511,115.6648 C561.9794,120.7693 592.2041,130.0025 616,146.6094 C652.6128,172.1611 673.5819,213.2603 684.7285,240.1172 " fill="none" style="stroke:#666666;stroke-width:1.0;"/><text fill="#666666" font-family="sans-serif" font-size="12" font-weight="bold" lengthAdjust="spacing" textLength="221" x="660" y="167.5664">Receive Purchase Order Created Event</text><text fill="#666666" font-family="sans-serif" font-size="12" font-weight="bold" lengthAdjust="spacing" textLength="223" x="659" y="182.6602">Receive Purchase Order Updated Event</text><polygon fill="none" points="247.9674,247.5505,256.449,246.5199,253.68,241.197,247.9674,247.5505" style="stroke:#666666;stroke-width:1.0;"/><path d="M381.8701,122.3537 C366.2978,127.7908 351.0181,135.5465 339,146.6094 C322.4229,161.8689 334.4231,176.2996 320,193.6094 C300.6232,216.8642 278.9703,231.4222 255.0645,243.8584 " fill="none" style="stroke:#666666;stroke-width:1.0;"/><text fill="#666666" font-family="sans-serif" font-size="12" font-weight="bold" lengthAdjust="spacing" textLength="91" x="340" y="167.5664">Select Products</text><text fill="#666666" font-family="sans-serif" font-size="12" font-weight="bold" lengthAdjust="spacing" textLength="81" x="345" y="182.6602">Insert Product</text><polygon fill="none" points="403.7553,247.4299,410.8827,242.7182,406.0271,239.1935,403.7553,247.4299" style="stroke:#666666;stroke-width:1.0;"/><path d="M454.7542,128.8663 C451.405,146.2751 445.3411,172.3557 436,193.6094 C427.4486,213.0663 418.7588,226.7614 408.4549,240.9558 " fill="none" style="stroke:#666666;stroke-width:1.0;"/><text fill="#666666" font-family="sans-serif" font-size="12" font-weight="bold" lengthAdjust="spacing" textLength="159" x="452" y="175.0664">Send Product Created Event</text><rect fill="none" height="17.6094" style="stroke:none;stroke-width:1.0;" width="182" x="559" y="316.6094"/><text fill="#000000" font-family="sans-serif" font-size="14" font-weight="bold" lengthAdjust="spacing" textLength="53" x="559" y="331.1426">Legend</text><text fill="#FFFFFF" font-family="sans-serif" font-size="14" lengthAdjust="spacing" textLength="4" x="612" y="331.1426">&#160;</text><rect fill="#438DD5" height="17.6094" style="stroke:none;stroke-width:1.0;" width="182" x="559" y="334.2188"/><text fill="#3C7FC0" font-family="sans-serif" font-size="14" lengthAdjust="spacing" textLength="14" x="563" y="348.752">&#9647;</text><text fill="#FFFFFF" font-family="sans-serif" font-size="14" lengthAdjust="spacing" textLength="4" x="577" y="348.752">&#160;</text><text fill="#FFFFFF" font-family="sans-serif" font-size="14" lengthAdjust="spacing" textLength="59" x="585" y="348.752">container</text><text fill="#FFFFFF" font-family="sans-serif" font-size="14" lengthAdjust="spacing" textLength="4" x="648" y="348.752">&#160;</text><rect fill="none" height="17.6094" style="stroke:none;stroke-width:1.0;" width="182" x="559" y="351.8281"/><text fill="#444444" font-family="sans-serif" font-size="14" lengthAdjust="spacing" textLength="14" x="563" y="366.3613">&#9647;</text><text fill="#FFFFFF" font-family="sans-serif" font-size="14" lengthAdjust="spacing" textLength="4" x="577" y="366.3613">&#160;</text><text fill="#444444" font-family="sans-serif" font-size="14" lengthAdjust="spacing" textLength="108" x="585" y="366.3613">system boundary</text><text fill="#444444" font-family="sans-serif" font-size="10" lengthAdjust="spacing" textLength="40" x="697" y="367.2402">(dashed)</text><text fill="#FFFFFF" font-family="sans-serif" font-size="14" lengthAdjust="spacing" textLength="4" x="737" y="366.3613">&#160;</text><line style="stroke:none;stroke-width:1.0;" x1="559" x2="741" y1="316.6094" y2="316.6094"/><line style="stroke:none;stroke-width:1.0;" x1="559" x2="741" y1="334.2188" y2="334.2188"/><line style="stroke:none;stroke-width:1.0;" x1="559" x2="741" y1="351.8281" y2="351.8281"/><line style="stroke:none;stroke-width:1.0;" x1="559" x2="741" y1="369.4375" y2="369.4375"/><line style="stroke:none;stroke-width:1.0;" x1="559" x2="559" y1="316.6094" y2="369.4375"/><line style="stroke:none;stroke-width:1.0;" x1="741" x2="741" y1="316.6094" y2="369.4375"/><!--SRC=[nLPDRvj04BtpApQq1oEbd7oAb8E3QHCf3PPn55MoX3RicA0kksXtiOkg_lSE0VEHDehZ40NPY1d6x-sRUR0-oHLDCaeuBMLXYCx0K46jarJ4l610N7VTVEAfNdlJo9F2q5I0SlCYuvOrOypda84mAvfCx7YQ2WDgm-NkZASRYCkOmvc0dNrAFjyddkHIdISAG62yGQmwysdpU5GrKZ5GmphzG9dSfI8vjxzIhi5s3gED7wX8WFMffQfI1t2tXSUIAyZaTaYkW1t0N5VzXxRYNG9_kSy6VfbX1pbEh9TnNeRgzQw3QvlIuTMf0m1x_UW0QwqT6iQeCxmCxgA5lmo3csWHB5VBsTLgubZNin_1xIfQ1Oje7jpTOCRIFrEHKqKpKc6OCWUIIrvMWMMPr70WlYUp35GC2qxDHggCV24B9LaH6nA2sgOnOCQRLgUzjmc7BQ2vhR3K1hBeGXQ2KLLE_W5pGxanEwgWhjHk0zqWdnBx2PVjaDyMmQCbUpMes_vKkxCyHGuyOr_jnwyp8lgS6dfFTILZV_akFDz1QvgWsH6ulNv79hYaWd5GBHsG9jCZ_NFC-2-A4fVUJR-EtpJy0UHhkeO2y95ykxr6Sb087F0vQ6hrMjpcZ1hO9zPYZWLTZ08-VFNz3eSWMFlYg9VEYB_5JM0j1lTg6Ssz4LGyjUn8Zbb23EaMsrqeVDTh846r1H5FGL_PCrK3_H-YyJZBNGaDoeneiJ4N_gpR1ZEf_WZKE-Ir_ys_cK-Slm00]--></g></svg>