<?xml version="1.0" encoding="us-ascii" standalone="no"?><svg xmlns="http://www.w3.org/2000/svg" xmlns:xlink="http://www.w3.org/1999/xlink" contentStyleType="text/css" height="351px" preserveAspectRatio="none" style="width:1154px;height:351px;background:#FFFFFF;" version="1.1" viewBox="0 0 1154 351" width="1154px" zoomAndPan="magnify"><defs/><g><text fill="#000000" font-family="sans-serif" font-size="14" font-weight="bold" lengthAdjust="spacing" textLength="1126" x="10" y="29.5332">E Commerce Platform - Generate Demand - Search And Browse - Search Service - Message Handler - Handle Product Deleted Event - Sequence - Container level</text><rect fill="#FFFFFF" height="293.9766" style="stroke:#181818;stroke-width:0.5;" width="213.5" x="489" y="44.6094"/><text fill="#000000" font-family="sans-serif" font-size="13" font-weight="bold" lengthAdjust="spacing" textLength="97" x="547.25" y="58.1045">Search Service</text><rect fill="#FFFFFF" height="293.9766" style="stroke:#181818;stroke-width:0.5;" width="107" x="709" y="44.6094"/><text fill="#000000" font-family="sans-serif" font-size="13" font-weight="bold" lengthAdjust="spacing" textLength="101" x="712" y="58.1045">Product Service</text><rect fill="none" height="79.0547" style="stroke:#000000;stroke-width:1.5;" width="333.5" x="483" y="175.9219"/><line style="stroke:#181818;stroke-width:0.5;stroke-dasharray:5.0,5.0;" x1="357.5" x2="357.5" y1="128.5703" y2="271.9766"/><line style="stroke:#181818;stroke-width:0.5;stroke-dasharray:5.0,5.0;" x1="555" x2="555" y1="128.5703" y2="271.9766"/><line style="stroke:#181818;stroke-width:0.5;stroke-dasharray:5.0,5.0;" x1="664.5" x2="664.5" y1="128.5703" y2="271.9766"/><line style="stroke:#181818;stroke-width:0.5;stroke-dasharray:5.0,5.0;" x1="762.5" x2="762.5" y1="128.5703" y2="271.9766"/><rect fill="#E2E2F0" height="31.6094" rx="2.5" ry="2.5" style="stroke:#181818;stroke-width:0.5;" width="65" x="325.5" y="95.9609"/><text fill="#000000" font-family="sans-serif" font-size="14" lengthAdjust="spacing" textLength="51" x="332.5" y="117.4941">External</text><rect fill="#E2E2F0" height="31.6094" rx="2.5" ry="2.5" style="stroke:#181818;stroke-width:0.5;" width="65" x="325.5" y="270.9766"/><text fill="#000000" font-family="sans-serif" font-size="14" lengthAdjust="spacing" textLength="51" x="332.5" y="292.5098">External</text><rect fill="#E2E2F0" height="31.6094" rx="2.5" ry="2.5" style="stroke:#181818;stroke-width:0.5;" width="124" x="493" y="95.9609"/><text fill="#000000" font-family="sans-serif" font-size="14" lengthAdjust="spacing" textLength="110" x="500" y="117.4941">Message Handler</text><rect fill="#E2E2F0" height="31.6094" rx="2.5" ry="2.5" style="stroke:#181818;stroke-width:0.5;" width="124" x="493" y="270.9766"/><text fill="#000000" font-family="sans-serif" font-size="14" lengthAdjust="spacing" textLength="110" x="500" y="292.5098">Message Handler</text><text fill="#000000" font-family="sans-serif" font-size="14" lengthAdjust="spacing" textLength="61" x="631.5" y="125.4941">Database</text><path d="M647,74.9609 C647,64.9609 665,64.9609 665,64.9609 C665,64.9609 683,64.9609 683,74.9609 L683,100.9609 C683,110.9609 665,110.9609 665,110.9609 C665,110.9609 647,110.9609 647,100.9609 L647,74.9609 " fill="#E2E2F0" style="stroke:#181818;stroke-width:1.5;"/><path d="M647,74.9609 C647,84.9609 665,84.9609 665,84.9609 C665,84.9609 683,84.9609 683,74.9609 " fill="none" style="stroke:#181818;stroke-width:1.5;"/><text fill="#000000" font-family="sans-serif" font-size="14" lengthAdjust="spacing" textLength="61" x="631.5" y="285.5098">Database</text><path d="M647,298.5859 C647,288.5859 665,288.5859 665,288.5859 C665,288.5859 683,288.5859 683,298.5859 L683,324.5859 C683,334.5859 665,334.5859 665,334.5859 C665,334.5859 647,334.5859 647,324.5859 L647,298.5859 " fill="#E2E2F0" style="stroke:#181818;stroke-width:1.5;"/><path d="M647,298.5859 C647,308.5859 665,308.5859 665,308.5859 C665,308.5859 683,308.5859 683,298.5859 " fill="none" style="stroke:#181818;stroke-width:1.5;"/><path d="M723.5,100.9609 L801.5,100.9609 C806.5,100.9609 806.5,114.7656 806.5,114.7656 C806.5,114.7656 806.5,128.5703 801.5,128.5703 L723.5,128.5703 C718.5,128.5703 718.5,114.7656 718.5,114.7656 C718.5,114.7656 718.5,100.9609 723.5,100.9609 " fill="#E2E2F0" style="stroke:#181818;stroke-width:0.5;"/><path d="M801.5,100.9609 C796.5,100.9609 796.5,114.7656 796.5,114.7656 C796.5,128.5703 801.5,128.5703 801.5,128.5703 " fill="none" style="stroke:#181818;stroke-width:0.5;"/><text fill="#000000" font-family="sans-serif" font-size="14" lengthAdjust="spacing" textLength="68" x="723.5" y="120.4941">Messaging</text><path d="M723.5,270.9766 L801.5,270.9766 C806.5,270.9766 806.5,284.7813 806.5,284.7813 C806.5,284.7813 806.5,298.5859 801.5,298.5859 L723.5,298.5859 C718.5,298.5859 718.5,284.7813 718.5,284.7813 C718.5,284.7813 718.5,270.9766 723.5,270.9766 " fill="#E2E2F0" style="stroke:#181818;stroke-width:0.5;"/><path d="M801.5,270.9766 C796.5,270.9766 796.5,284.7813 796.5,284.7813 C796.5,298.5859 801.5,298.5859 801.5,298.5859 " fill="none" style="stroke:#181818;stroke-width:0.5;"/><text fill="#000000" font-family="sans-serif" font-size="14" lengthAdjust="spacing" textLength="68" x="723.5" y="290.5098">Messaging</text><polygon fill="#181818" points="543,156.9219,553,160.9219,543,164.9219,547,160.9219" style="stroke:#181818;stroke-width:1.0;"/><line style="stroke:#181818;stroke-width:1.0;" x1="358" x2="549" y1="160.9219" y2="160.9219"/><text fill="#000000" font-family="sans-serif" font-size="13" lengthAdjust="spacing" textLength="173" x="365" y="156.0654">Handle Product Deleted Event</text><path d="M483,175.9219 L718,175.9219 L718,184.2734 L708,194.2734 L483,194.2734 L483,175.9219 " fill="#EEEEEE" style="stroke:#000000;stroke-width:1.5;"/><rect fill="none" height="79.0547" style="stroke:#000000;stroke-width:1.5;" width="333.5" x="483" y="175.9219"/><text fill="#000000" font-family="sans-serif" font-size="13" font-weight="bold" lengthAdjust="spacing" textLength="190" x="498" y="190.417">Handle Product Deleted Event</text><polygon fill="#181818" points="750.5,212.625,760.5,216.625,750.5,220.625,754.5,216.625" style="stroke:#181818;stroke-width:1.0;"/><line style="stroke:#181818;stroke-width:1.0;" x1="555" x2="756.5" y1="216.625" y2="216.625"/><text fill="#000000" font-family="sans-serif" font-size="13" lengthAdjust="spacing" textLength="178" x="562" y="211.7686">Receive Product Deleted Event</text><polygon fill="#181818" points="653,242.9766,663,246.9766,653,250.9766,657,246.9766" style="stroke:#181818;stroke-width:1.0;"/><line style="stroke:#181818;stroke-width:1.0;" x1="555" x2="659" y1="246.9766" y2="246.9766"/><text fill="#000000" font-family="sans-serif" font-size="13" lengthAdjust="spacing" textLength="86" x="562" y="242.1201">Delete Product</text><!--SRC=[pPCzJyCm48Pt_ufJc9k9YG49qW0TAbLaOBucrzQIOnVdafP_ppMnWT8FCL14biHd-zxtdhkmPaEGG-Rgcdn9C3F82-Th6C4ZMVB816EgqLOIAGXzkO8xMTnxjsdeCrQGxtIv2qofQN19y2Ht37c935ymywvgIvPqXfWgo3kot6TuRSdsTpDd6RN8Wg6EZ59hzAnBlKOvcUHR9c_H980DPDSJAyi7upPfuHQyGK_5MyDKDsayEAoLchij9Fj64xXwMMac1VBigNpptulbaK_4aqOu0vjqI2vW1Yu7ZeRze9r-bDcaGIs8zMugP9oZm4t6uUl27gAC8ccii5A1M6pOCMJIifOYB6sN9oncdiHWI9I6zyJkzf2rirEqKdqjWt1WDnm-oKn4lnZ- -JZ0wFRF-WatPuTVBRrhr-UF_9dLerWksp_1yqmbwUv_5l_R_vUKEvGNgztDhrBl]--></g></svg>