<?xml version="1.0" encoding="us-ascii" standalone="no"?><svg xmlns="http://www.w3.org/2000/svg" xmlns:xlink="http://www.w3.org/1999/xlink" contentStyleType="text/css" height="383px" preserveAspectRatio="none" style="width:807px;height:383px;background:#FFFFFF;" version="1.1" viewBox="0 0 807 383" width="807px" zoomAndPan="magnify"><defs/><g><text fill="#000000" font-family="sans-serif" font-size="14" font-weight="bold" lengthAdjust="spacing" textLength="779" x="10" y="29.5332">E Commerce Platform - Generate Demand - Storefront - Storefront Bff - Get Basket - Sequence - Container level</text><rect fill="#FFFFFF" height="326.3281" style="stroke:#181818;stroke-width:0.5;" width="155.5" x="403.75" y="44.6094"/><text fill="#000000" font-family="sans-serif" font-size="13" font-weight="bold" lengthAdjust="spacing" textLength="94" x="434.5" y="58.1045">Basket Service</text><rect fill="none" height="111.4063" style="stroke:#000000;stroke-width:1.5;" width="290.5" x="284.75" y="175.9219"/><rect fill="none" height="48.7031" style="stroke:#000000;stroke-width:1.5;" width="167.5" x="397.75" y="231.625"/><line style="stroke:#181818;stroke-width:0.5;stroke-dasharray:5.0,5.0;" x1="251.75" x2="251.75" y1="128.5703" y2="304.3281"/><line style="stroke:#181818;stroke-width:0.5;stroke-dasharray:5.0,5.0;" x1="343.75" x2="343.75" y1="128.5703" y2="304.3281"/><line style="stroke:#181818;stroke-width:0.5;stroke-dasharray:5.0,5.0;" x1="424.75" x2="424.75" y1="128.5703" y2="304.3281"/><line style="stroke:#181818;stroke-width:0.5;stroke-dasharray:5.0,5.0;" x1="521.25" x2="521.25" y1="128.5703" y2="304.3281"/><rect fill="#E2E2F0" height="31.6094" rx="2.5" ry="2.5" style="stroke:#181818;stroke-width:0.5;" width="65" x="219.75" y="95.9609"/><text fill="#000000" font-family="sans-serif" font-size="14" lengthAdjust="spacing" textLength="51" x="226.75" y="117.4941">External</text><rect fill="#E2E2F0" height="31.6094" rx="2.5" ry="2.5" style="stroke:#181818;stroke-width:0.5;" width="65" x="219.75" y="303.3281"/><text fill="#000000" font-family="sans-serif" font-size="14" lengthAdjust="spacing" textLength="51" x="226.75" y="324.8613">External</text><rect fill="#E2E2F0" height="31.6094" rx="2.5" ry="2.5" style="stroke:#181818;stroke-width:0.5;" width="98" x="294.75" y="95.9609"/><text fill="#000000" font-family="sans-serif" font-size="14" lengthAdjust="spacing" textLength="84" x="301.75" y="117.4941">Storefront Bff</text><rect fill="#E2E2F0" height="31.6094" rx="2.5" ry="2.5" style="stroke:#181818;stroke-width:0.5;" width="98" x="294.75" y="303.3281"/><text fill="#000000" font-family="sans-serif" font-size="14" lengthAdjust="spacing" textLength="84" x="301.75" y="324.8613">Storefront Bff</text><rect fill="#E2E2F0" height="31.6094" rx="2.5" ry="2.5" style="stroke:#181818;stroke-width:0.5;" width="34" x="407.75" y="95.9609"/><text fill="#000000" font-family="sans-serif" font-size="14" lengthAdjust="spacing" textLength="20" x="414.75" y="117.4941">Api</text><rect fill="#E2E2F0" height="31.6094" rx="2.5" ry="2.5" style="stroke:#181818;stroke-width:0.5;" width="34" x="407.75" y="303.3281"/><text fill="#000000" font-family="sans-serif" font-size="14" lengthAdjust="spacing" textLength="20" x="414.75" y="324.8613">Api</text><text fill="#000000" font-family="sans-serif" font-size="14" lengthAdjust="spacing" textLength="61" x="488.25" y="125.4941">Database</text><path d="M503.75,74.9609 C503.75,64.9609 521.75,64.9609 521.75,64.9609 C521.75,64.9609 539.75,64.9609 539.75,74.9609 L539.75,100.9609 C539.75,110.9609 521.75,110.9609 521.75,110.9609 C521.75,110.9609 503.75,110.9609 503.75,100.9609 L503.75,74.9609 " fill="#E2E2F0" style="stroke:#181818;stroke-width:1.5;"/><path d="M503.75,74.9609 C503.75,84.9609 521.75,84.9609 521.75,84.9609 C521.75,84.9609 539.75,84.9609 539.75,74.9609 " fill="none" style="stroke:#181818;stroke-width:1.5;"/><text fill="#000000" font-family="sans-serif" font-size="14" lengthAdjust="spacing" textLength="61" x="488.25" y="317.8613">Database</text><path d="M503.75,330.9375 C503.75,320.9375 521.75,320.9375 521.75,320.9375 C521.75,320.9375 539.75,320.9375 539.75,330.9375 L539.75,356.9375 C539.75,366.9375 521.75,366.9375 521.75,366.9375 C521.75,366.9375 503.75,366.9375 503.75,356.9375 L503.75,330.9375 " fill="#E2E2F0" style="stroke:#181818;stroke-width:1.5;"/><path d="M503.75,330.9375 C503.75,340.9375 521.75,340.9375 521.75,340.9375 C521.75,340.9375 539.75,340.9375 539.75,330.9375 " fill="none" style="stroke:#181818;stroke-width:1.5;"/><polygon fill="#181818" points="331.75,156.9219,341.75,160.9219,331.75,164.9219,335.75,160.9219" style="stroke:#181818;stroke-width:1.0;"/><line style="stroke:#181818;stroke-width:1.0;" x1="252.25" x2="337.75" y1="160.9219" y2="160.9219"/><text fill="#000000" font-family="sans-serif" font-size="13" lengthAdjust="spacing" textLength="66" x="259.25" y="156.0654">Get Basket</text><path d="M284.75,175.9219 L397.75,175.9219 L397.75,184.2734 L387.75,194.2734 L284.75,194.2734 L284.75,175.9219 " fill="#EEEEEE" style="stroke:#000000;stroke-width:1.5;"/><rect fill="none" height="111.4063" style="stroke:#000000;stroke-width:1.5;" width="290.5" x="284.75" y="175.9219"/><text fill="#000000" font-family="sans-serif" font-size="13" font-weight="bold" lengthAdjust="spacing" textLength="68" x="299.75" y="190.417">Get Basket</text><polygon fill="#181818" points="412.75,212.625,422.75,216.625,412.75,220.625,416.75,216.625" style="stroke:#181818;stroke-width:1.0;"/><line style="stroke:#181818;stroke-width:1.0;" x1="343.75" x2="418.75" y1="216.625" y2="216.625"/><text fill="#000000" font-family="sans-serif" font-size="13" lengthAdjust="spacing" textLength="57" x="350.75" y="211.7686">Get Items</text><path d="M397.75,231.625 L502.75,231.625 L502.75,239.9766 L492.75,249.9766 L397.75,249.9766 L397.75,231.625 " fill="#EEEEEE" style="stroke:#000000;stroke-width:1.5;"/><rect fill="none" height="48.7031" style="stroke:#000000;stroke-width:1.5;" width="167.5" x="397.75" y="231.625"/><text fill="#000000" font-family="sans-serif" font-size="13" font-weight="bold" lengthAdjust="spacing" textLength="60" x="412.75" y="246.1201">Get Items</text><polygon fill="#181818" points="509.75,268.3281,519.75,272.3281,509.75,276.3281,513.75,272.3281" style="stroke:#181818;stroke-width:1.0;"/><line style="stroke:#181818;stroke-width:1.0;" x1="424.75" x2="515.75" y1="272.3281" y2="272.3281"/><text fill="#000000" font-family="sans-serif" font-size="13" lengthAdjust="spacing" textLength="73" x="431.75" y="267.4717">Select Items</text><!--SRC=[jL9BJyCm3BxdLrZbt9muSK22hKox8VN0sUjSY4YJadWF_ZscRLYhNIgqHeeKEyxtYCs6BK41Azyq52g2LujS-z103Xjo5909rjIWsqkcP1-e3jxnD7YkwwvUJXW_gRkbhmCv0Sm5sp4QmG9BHx9AjHZOLAP5UPeLPwRWq6Q04LRtMoVXY_KdNVgQJnYe_8vCJTIfi8-d85Cj7LIHB2L7EldfxUZBcokgovMWARNpPyW6PoM5ewaeWxkt3yEaGDP4obDhvl7tW5VSVNgWqNz_5xK0TsnxPDnX9CZMmsaPleIkI7elNw2KcjyUo1zlrm5u6CsMUW_-q8uJj-EP8_eVRHlqRtyBH_BxU1729OoaUH0t9LcgaW4PZswh7m00]--></g></svg>