<?xml version="1.0" encoding="us-ascii" standalone="no"?><svg xmlns="http://www.w3.org/2000/svg" xmlns:xlink="http://www.w3.org/1999/xlink" contentStyleType="text/css" height="314px" preserveAspectRatio="none" style="width:807px;height:314px;background:#FFFFFF;" version="1.1" viewBox="0 0 807 314" width="807px" zoomAndPan="magnify"><defs/><g><text fill="#000000" font-family="sans-serif" font-size="14" font-weight="bold" lengthAdjust="spacing" textLength="779" x="10" y="29.5332">E Commerce Platform - Generate Demand - Storefront - Storefront Bff - Get Basket - Sequence - Container level</text><rect fill="#FFFFFF" height="264.3281" style="stroke:#181818;stroke-width:0.5;" width="159.5" x="401.75" y="44.6094"/><text fill="#000000" font-family="sans-serif" font-size="13" font-weight="bold" lengthAdjust="spacing" textLength="94" x="434.5" y="58.1045">Basket Service</text><rect fill="none" height="111.4063" style="stroke:#000000;stroke-width:1.5;" width="294.5" x="282.75" y="144.9219"/><rect fill="none" height="48.7031" style="stroke:#000000;stroke-width:1.5;" width="171.5" x="395.75" y="200.625"/><line style="stroke:#181818;stroke-width:0.5;stroke-dasharray:5.0,5.0;" x1="249.75" x2="249.75" y1="97.5703" y2="273.3281"/><line style="stroke:#181818;stroke-width:0.5;stroke-dasharray:5.0,5.0;" x1="341.75" x2="341.75" y1="97.5703" y2="273.3281"/><line style="stroke:#181818;stroke-width:0.5;stroke-dasharray:5.0,5.0;" x1="422.75" x2="422.75" y1="97.5703" y2="273.3281"/><line style="stroke:#181818;stroke-width:0.5;stroke-dasharray:5.0,5.0;" x1="519.25" x2="519.25" y1="97.5703" y2="273.3281"/><rect fill="#E2E2F0" height="31.6094" rx="2.5" ry="2.5" style="stroke:#181818;stroke-width:0.5;" width="65" x="217.75" y="64.9609"/><text fill="#000000" font-family="sans-serif" font-size="14" lengthAdjust="spacing" textLength="51" x="224.75" y="86.4941">External</text><rect fill="#E2E2F0" height="31.6094" rx="2.5" ry="2.5" style="stroke:#181818;stroke-width:0.5;" width="65" x="217.75" y="272.3281"/><text fill="#000000" font-family="sans-serif" font-size="14" lengthAdjust="spacing" textLength="51" x="224.75" y="293.8613">External</text><rect fill="#E2E2F0" height="31.6094" rx="2.5" ry="2.5" style="stroke:#181818;stroke-width:0.5;" width="98" x="292.75" y="64.9609"/><text fill="#000000" font-family="sans-serif" font-size="14" lengthAdjust="spacing" textLength="84" x="299.75" y="86.4941">Storefront Bff</text><rect fill="#E2E2F0" height="31.6094" rx="2.5" ry="2.5" style="stroke:#181818;stroke-width:0.5;" width="98" x="292.75" y="272.3281"/><text fill="#000000" font-family="sans-serif" font-size="14" lengthAdjust="spacing" textLength="84" x="299.75" y="293.8613">Storefront Bff</text><rect fill="#E2E2F0" height="31.6094" rx="2.5" ry="2.5" style="stroke:#181818;stroke-width:0.5;" width="34" x="405.75" y="64.9609"/><text fill="#000000" font-family="sans-serif" font-size="14" lengthAdjust="spacing" textLength="20" x="412.75" y="86.4941">Api</text><rect fill="#E2E2F0" height="31.6094" rx="2.5" ry="2.5" style="stroke:#181818;stroke-width:0.5;" width="34" x="405.75" y="272.3281"/><text fill="#000000" font-family="sans-serif" font-size="14" lengthAdjust="spacing" textLength="20" x="412.75" y="293.8613">Api</text><rect fill="#E2E2F0" height="31.6094" rx="2.5" ry="2.5" style="stroke:#181818;stroke-width:0.5;" width="75" x="482.25" y="64.9609"/><text fill="#000000" font-family="sans-serif" font-size="14" lengthAdjust="spacing" textLength="61" x="489.25" y="86.4941">Database</text><rect fill="#E2E2F0" height="31.6094" rx="2.5" ry="2.5" style="stroke:#181818;stroke-width:0.5;" width="75" x="482.25" y="272.3281"/><text fill="#000000" font-family="sans-serif" font-size="14" lengthAdjust="spacing" textLength="61" x="489.25" y="293.8613">Database</text><polygon fill="#181818" points="329.75,125.9219,339.75,129.9219,329.75,133.9219,333.75,129.9219" style="stroke:#181818;stroke-width:1.0;"/><line style="stroke:#181818;stroke-width:1.0;" x1="250.25" x2="335.75" y1="129.9219" y2="129.9219"/><text fill="#000000" font-family="sans-serif" font-size="13" lengthAdjust="spacing" textLength="66" x="257.25" y="125.0654">Get Basket</text><path d="M282.75,144.9219 L395.75,144.9219 L395.75,153.2734 L385.75,163.2734 L282.75,163.2734 L282.75,144.9219 " fill="#EEEEEE" style="stroke:#000000;stroke-width:1.5;"/><rect fill="none" height="111.4063" style="stroke:#000000;stroke-width:1.5;" width="294.5" x="282.75" y="144.9219"/><text fill="#000000" font-family="sans-serif" font-size="13" font-weight="bold" lengthAdjust="spacing" textLength="68" x="297.75" y="159.417">Get Basket</text><polygon fill="#181818" points="410.75,181.625,420.75,185.625,410.75,189.625,414.75,185.625" style="stroke:#181818;stroke-width:1.0;"/><line style="stroke:#181818;stroke-width:1.0;" x1="341.75" x2="416.75" y1="185.625" y2="185.625"/><text fill="#000000" font-family="sans-serif" font-size="13" lengthAdjust="spacing" textLength="57" x="348.75" y="180.7686">Get Items</text><path d="M395.75,200.625 L500.75,200.625 L500.75,208.9766 L490.75,218.9766 L395.75,218.9766 L395.75,200.625 " fill="#EEEEEE" style="stroke:#000000;stroke-width:1.5;"/><rect fill="none" height="48.7031" style="stroke:#000000;stroke-width:1.5;" width="171.5" x="395.75" y="200.625"/><text fill="#000000" font-family="sans-serif" font-size="13" font-weight="bold" lengthAdjust="spacing" textLength="60" x="410.75" y="215.1201">Get Items</text><polygon fill="#181818" points="507.75,237.3281,517.75,241.3281,507.75,245.3281,511.75,241.3281" style="stroke:#181818;stroke-width:1.0;"/><line style="stroke:#181818;stroke-width:1.0;" x1="422.75" x2="513.75" y1="241.3281" y2="241.3281"/><text fill="#000000" font-family="sans-serif" font-size="13" lengthAdjust="spacing" textLength="73" x="429.75" y="236.4717">Select Items</text><!--SRC=[jL8xJyGm3DxpAwmoDnCJ0nBS5NGRKWTcNt4X8arAudlmxp5jmxNgKg5hf4YnutoFs6pO4XImyKr3eI9uiSYr3mtay4oE0ZB1bXfqRv8fsGUgWtSy3HxhkgkN4yPFwcxfwq1E07F1Ten6iC3IaQnIBGOsbMbHdcR5cIauj1bWXCtjpaduPFr9bxxc4mOgloDJ4tKgxECfo5HB1rKaIycHJdvwE_hoPaPrkH8qfVR-3DdWhAHmD1LbSFFwOPWKo9f8UMZDCluUSCRTfmSQ_VTtKGlmd6sBZ7kCj0vbGbSaxPTVK4ejxn3azzTh0joDnakz1tzenudhyImH_O_E3VftluKZ-Nsy2k4QHj8yY9kIB5N9W8n7jzKF]--></g></svg>