<?xml version="1.0" encoding="us-ascii" standalone="no"?><svg xmlns="http://www.w3.org/2000/svg" xmlns:xlink="http://www.w3.org/1999/xlink" contentStyleType="text/css" height="383px" preserveAspectRatio="none" style="width:869px;height:383px;background:#FFFFFF;" version="1.1" viewBox="0 0 869 383" width="869px" zoomAndPan="magnify"><defs/><g><text fill="#000000" font-family="sans-serif" font-size="14" font-weight="bold" lengthAdjust="spacing" textLength="841" x="10" y="29.5332">E Commerce Platform - Deliver - Customer Management - CRM App - View High Risk Orders - Sequence - Container level</text><rect fill="#FFFFFF" height="326.3281" style="stroke:#181818;stroke-width:0.5;" width="222.5" x="466.5" y="44.6094"/><text fill="#000000" font-family="sans-serif" font-size="13" font-weight="bold" lengthAdjust="spacing" textLength="89" x="533.25" y="58.1045">Fraud Service</text><rect fill="none" height="111.4063" style="stroke:#000000;stroke-width:1.5;" width="412.5" x="292.5" y="175.9219"/><rect fill="none" height="48.7031" style="stroke:#000000;stroke-width:1.5;" width="234.5" x="460.5" y="231.625"/><line style="stroke:#181818;stroke-width:0.5;stroke-dasharray:5.0,5.0;" x1="184" x2="184" y1="128.5703" y2="304.3281"/><line style="stroke:#181818;stroke-width:0.5;stroke-dasharray:5.0,5.0;" x1="339.5" x2="339.5" y1="128.5703" y2="304.3281"/><line style="stroke:#181818;stroke-width:0.5;stroke-dasharray:5.0,5.0;" x1="487.5" x2="487.5" y1="128.5703" y2="304.3281"/><line style="stroke:#181818;stroke-width:0.5;stroke-dasharray:5.0,5.0;" x1="651" x2="651" y1="128.5703" y2="304.3281"/><rect fill="#E2E2F0" height="31.6094" rx="2.5" ry="2.5" style="stroke:#181818;stroke-width:0.5;" width="65" x="152" y="95.9609"/><text fill="#000000" font-family="sans-serif" font-size="14" lengthAdjust="spacing" textLength="51" x="159" y="117.4941">External</text><rect fill="#E2E2F0" height="31.6094" rx="2.5" ry="2.5" style="stroke:#181818;stroke-width:0.5;" width="65" x="152" y="303.3281"/><text fill="#000000" font-family="sans-serif" font-size="14" lengthAdjust="spacing" textLength="51" x="159" y="324.8613">External</text><rect fill="#E2E2F0" height="31.6094" rx="2.5" ry="2.5" style="stroke:#181818;stroke-width:0.5;" width="74" x="302.5" y="95.9609"/><text fill="#000000" font-family="sans-serif" font-size="14" lengthAdjust="spacing" textLength="60" x="309.5" y="117.4941">CRM App</text><rect fill="#E2E2F0" height="31.6094" rx="2.5" ry="2.5" style="stroke:#181818;stroke-width:0.5;" width="74" x="302.5" y="303.3281"/><text fill="#000000" font-family="sans-serif" font-size="14" lengthAdjust="spacing" textLength="60" x="309.5" y="324.8613">CRM App</text><rect fill="#E2E2F0" height="31.6094" rx="2.5" ry="2.5" style="stroke:#181818;stroke-width:0.5;" width="34" x="470.5" y="95.9609"/><text fill="#000000" font-family="sans-serif" font-size="14" lengthAdjust="spacing" textLength="20" x="477.5" y="117.4941">Api</text><rect fill="#E2E2F0" height="31.6094" rx="2.5" ry="2.5" style="stroke:#181818;stroke-width:0.5;" width="34" x="470.5" y="303.3281"/><text fill="#000000" font-family="sans-serif" font-size="14" lengthAdjust="spacing" textLength="20" x="477.5" y="324.8613">Api</text><text fill="#000000" font-family="sans-serif" font-size="14" lengthAdjust="spacing" textLength="61" x="618" y="125.4941">Database</text><path d="M633.5,74.9609 C633.5,64.9609 651.5,64.9609 651.5,64.9609 C651.5,64.9609 669.5,64.9609 669.5,74.9609 L669.5,100.9609 C669.5,110.9609 651.5,110.9609 651.5,110.9609 C651.5,110.9609 633.5,110.9609 633.5,100.9609 L633.5,74.9609 " fill="#E2E2F0" style="stroke:#181818;stroke-width:1.5;"/><path d="M633.5,74.9609 C633.5,84.9609 651.5,84.9609 651.5,84.9609 C651.5,84.9609 669.5,84.9609 669.5,74.9609 " fill="none" style="stroke:#181818;stroke-width:1.5;"/><text fill="#000000" font-family="sans-serif" font-size="14" lengthAdjust="spacing" textLength="61" x="618" y="317.8613">Database</text><path d="M633.5,330.9375 C633.5,320.9375 651.5,320.9375 651.5,320.9375 C651.5,320.9375 669.5,320.9375 669.5,330.9375 L669.5,356.9375 C669.5,366.9375 651.5,366.9375 651.5,366.9375 C651.5,366.9375 633.5,366.9375 633.5,356.9375 L633.5,330.9375 " fill="#E2E2F0" style="stroke:#181818;stroke-width:1.5;"/><path d="M633.5,330.9375 C633.5,340.9375 651.5,340.9375 651.5,340.9375 C651.5,340.9375 669.5,340.9375 669.5,330.9375 " fill="none" style="stroke:#181818;stroke-width:1.5;"/><polygon fill="#181818" points="327.5,156.9219,337.5,160.9219,327.5,164.9219,331.5,160.9219" style="stroke:#181818;stroke-width:1.0;"/><line style="stroke:#181818;stroke-width:1.0;" x1="184.5" x2="333.5" y1="160.9219" y2="160.9219"/><text fill="#000000" font-family="sans-serif" font-size="13" lengthAdjust="spacing" textLength="131" x="191.5" y="156.0654">View High Risk Orders</text><path d="M292.5,175.9219 L478.5,175.9219 L478.5,184.2734 L468.5,194.2734 L292.5,194.2734 L292.5,175.9219 " fill="#EEEEEE" style="stroke:#000000;stroke-width:1.5;"/><rect fill="none" height="111.4063" style="stroke:#000000;stroke-width:1.5;" width="412.5" x="292.5" y="175.9219"/><text fill="#000000" font-family="sans-serif" font-size="13" font-weight="bold" lengthAdjust="spacing" textLength="141" x="307.5" y="190.417">View High Risk Orders</text><polygon fill="#181818" points="475.5,212.625,485.5,216.625,475.5,220.625,479.5,216.625" style="stroke:#181818;stroke-width:1.0;"/><line style="stroke:#181818;stroke-width:1.0;" x1="339.5" x2="481.5" y1="216.625" y2="216.625"/><text fill="#000000" font-family="sans-serif" font-size="13" lengthAdjust="spacing" textLength="124" x="346.5" y="211.7686">Get High Risk Orders</text><path d="M460.5,231.625 L636.5,231.625 L636.5,239.9766 L626.5,249.9766 L460.5,249.9766 L460.5,231.625 " fill="#EEEEEE" style="stroke:#000000;stroke-width:1.5;"/><rect fill="none" height="48.7031" style="stroke:#000000;stroke-width:1.5;" width="234.5" x="460.5" y="231.625"/><text fill="#000000" font-family="sans-serif" font-size="13" font-weight="bold" lengthAdjust="spacing" textLength="131" x="475.5" y="246.1201">Get High Risk Orders</text><polygon fill="#181818" points="639.5,268.3281,649.5,272.3281,639.5,276.3281,643.5,272.3281" style="stroke:#181818;stroke-width:1.0;"/><line style="stroke:#181818;stroke-width:1.0;" x1="487.5" x2="645.5" y1="272.3281" y2="272.3281"/><text fill="#000000" font-family="sans-serif" font-size="13" lengthAdjust="spacing" textLength="140" x="494.5" y="267.4717">Select High Risk Orders</text><!--SRC=[jP9DJyCm38Rl-HLMEQydJXoGfdq0XmcqId3sMg-BI9EGkDluzvZIWYQwWRGrKYGdZjxNZsFMR0XcC75LHI4dU3B8QnSg6C6KZDvIa6XIHtQIXmLQBAaYov-tomMClPVeMTCExdMvWQMEh_0O2WfHxZDwgycAgZnsbb5RqJ2q9QEKny0wrnv5AvdjcO95am16c5m_M3dEZTkbcLlp3WDbxv6fYcdtyEjyADBMqsZCEg2E9srfqexb1-MNYGY9Zb8hjuTa7h0kX2HiTKu9NBriD9C2MGVcOw__C6w4JhWs-TOd_MvNJ4MviIkGSOMH89csqK26dRmYMu3qG2dr_o-1qUqbcWyt_KEbok1gVoHt2T-JvP_nXG9qHtoCfpSrJ1s307OZ8vGP6SfxQ6IOcgq-0000]--></g></svg>