<?xml version="1.0" encoding="us-ascii" standalone="no"?><svg xmlns="http://www.w3.org/2000/svg" xmlns:xlink="http://www.w3.org/1999/xlink" contentStyleType="text/css" height="711px" preserveAspectRatio="none" style="width:1045px;height:711px;background:#FFFFFF;" version="1.1" viewBox="0 0 1045 711" width="1045px" zoomAndPan="magnify"><defs/><g><text fill="#000000" font-family="sans-serif" font-size="14" font-weight="bold" lengthAdjust="spacing" textLength="457" x="290" y="29.5332">E Commerce Platform - Fraud Check - Sequence - Container level</text><rect fill="#FFFFFF" height="653.4922" style="stroke:#181818;stroke-width:0.5;" width="376.5" x="16" y="44.6094"/><text fill="#000000" font-family="sans-serif" font-size="13" font-weight="bold" lengthAdjust="spacing" textLength="89" x="159.75" y="58.1045">Fraud Service</text><rect fill="#FFFFFF" height="653.4922" style="stroke:#181818;stroke-width:0.5;" width="517.5" x="394.5" y="44.6094"/><text fill="#000000" font-family="sans-serif" font-size="13" font-weight="bold" lengthAdjust="spacing" textLength="88" x="609.25" y="58.1045">Order Service</text><rect fill="none" height="170.1094" style="stroke:#000000;stroke-width:1.5;" width="1018" x="10" y="233.2734"/><rect fill="none" height="109.4063" style="stroke:#000000;stroke-width:1.5;" width="627.5" x="290.5" y="505.0859"/><line style="stroke:#181818;stroke-width:0.5;stroke-dasharray:5.0,5.0;" x1="82" x2="82" y1="128.5703" y2="631.4922"/><line style="stroke:#181818;stroke-width:0.5;stroke-dasharray:5.0,5.0;" x1="256.5" x2="256.5" y1="128.5703" y2="631.4922"/><line style="stroke:#181818;stroke-width:0.5;stroke-dasharray:5.0,5.0;" x1="344.5" x2="344.5" y1="128.5703" y2="631.4922"/><line style="stroke:#181818;stroke-width:0.5;stroke-dasharray:5.0,5.0;" x1="442.5" x2="442.5" y1="128.5703" y2="631.4922"/><line style="stroke:#181818;stroke-width:0.5;stroke-dasharray:5.0,5.0;" x1="665.5" x2="665.5" y1="128.5703" y2="631.4922"/><line style="stroke:#181818;stroke-width:0.5;stroke-dasharray:5.0,5.0;" x1="874" x2="874" y1="128.5703" y2="631.4922"/><line style="stroke:#181818;stroke-width:0.5;stroke-dasharray:5.0,5.0;" x1="968" x2="968" y1="128.5703" y2="631.4922"/><rect fill="#E2E2F0" height="31.6094" rx="2.5" ry="2.5" style="stroke:#181818;stroke-width:0.5;" width="124" x="20" y="95.9609"/><text fill="#000000" font-family="sans-serif" font-size="14" lengthAdjust="spacing" textLength="110" x="27" y="117.4941">Message Handler</text><rect fill="#E2E2F0" height="31.6094" rx="2.5" ry="2.5" style="stroke:#181818;stroke-width:0.5;" width="124" x="20" y="630.4922"/><text fill="#000000" font-family="sans-serif" font-size="14" lengthAdjust="spacing" textLength="110" x="27" y="652.0254">Message Handler</text><text fill="#000000" font-family="sans-serif" font-size="14" lengthAdjust="spacing" textLength="61" x="223.5" y="125.4941">Database</text><path d="M239,74.9609 C239,64.9609 257,64.9609 257,64.9609 C257,64.9609 275,64.9609 275,74.9609 L275,100.9609 C275,110.9609 257,110.9609 257,110.9609 C257,110.9609 239,110.9609 239,100.9609 L239,74.9609 " fill="#E2E2F0" style="stroke:#181818;stroke-width:1.5;"/><path d="M239,74.9609 C239,84.9609 257,84.9609 257,84.9609 C257,84.9609 275,84.9609 275,74.9609 " fill="none" style="stroke:#181818;stroke-width:1.5;"/><text fill="#000000" font-family="sans-serif" font-size="14" lengthAdjust="spacing" textLength="61" x="223.5" y="645.0254">Database</text><path d="M239,658.1016 C239,648.1016 257,648.1016 257,648.1016 C257,648.1016 275,648.1016 275,658.1016 L275,684.1016 C275,694.1016 257,694.1016 257,694.1016 C257,694.1016 239,694.1016 239,684.1016 L239,658.1016 " fill="#E2E2F0" style="stroke:#181818;stroke-width:1.5;"/><path d="M239,658.1016 C239,668.1016 257,668.1016 257,668.1016 C257,668.1016 275,668.1016 275,658.1016 " fill="none" style="stroke:#181818;stroke-width:1.5;"/><path d="M305.5,100.9609 L383.5,100.9609 C388.5,100.9609 388.5,114.7656 388.5,114.7656 C388.5,114.7656 388.5,128.5703 383.5,128.5703 L305.5,128.5703 C300.5,128.5703 300.5,114.7656 300.5,114.7656 C300.5,114.7656 300.5,100.9609 305.5,100.9609 " fill="#E2E2F0" style="stroke:#181818;stroke-width:0.5;"/><path d="M383.5,100.9609 C378.5,100.9609 378.5,114.7656 378.5,114.7656 C378.5,128.5703 383.5,128.5703 383.5,128.5703 " fill="none" style="stroke:#181818;stroke-width:0.5;"/><text fill="#000000" font-family="sans-serif" font-size="14" lengthAdjust="spacing" textLength="68" x="305.5" y="120.4941">Messaging</text><path d="M305.5,630.4922 L383.5,630.4922 C388.5,630.4922 388.5,644.2969 388.5,644.2969 C388.5,644.2969 388.5,658.1016 383.5,658.1016 L305.5,658.1016 C300.5,658.1016 300.5,644.2969 300.5,644.2969 C300.5,644.2969 300.5,630.4922 305.5,630.4922 " fill="#E2E2F0" style="stroke:#181818;stroke-width:0.5;"/><path d="M383.5,630.4922 C378.5,630.4922 378.5,644.2969 378.5,644.2969 C378.5,658.1016 383.5,658.1016 383.5,658.1016 " fill="none" style="stroke:#181818;stroke-width:0.5;"/><text fill="#000000" font-family="sans-serif" font-size="14" lengthAdjust="spacing" textLength="68" x="305.5" y="650.0254">Messaging</text><path d="M403.5,100.9609 L481.5,100.9609 C486.5,100.9609 486.5,114.7656 486.5,114.7656 C486.5,114.7656 486.5,128.5703 481.5,128.5703 L403.5,128.5703 C398.5,128.5703 398.5,114.7656 398.5,114.7656 C398.5,114.7656 398.5,100.9609 403.5,100.9609 " fill="#E2E2F0" style="stroke:#181818;stroke-width:0.5;"/><path d="M481.5,100.9609 C476.5,100.9609 476.5,114.7656 476.5,114.7656 C476.5,128.5703 481.5,128.5703 481.5,128.5703 " fill="none" style="stroke:#181818;stroke-width:0.5;"/><text fill="#000000" font-family="sans-serif" font-size="14" lengthAdjust="spacing" textLength="68" x="403.5" y="120.4941">Messaging</text><path d="M403.5,630.4922 L481.5,630.4922 C486.5,630.4922 486.5,644.2969 486.5,644.2969 C486.5,644.2969 486.5,658.1016 481.5,658.1016 L403.5,658.1016 C398.5,658.1016 398.5,644.2969 398.5,644.2969 C398.5,644.2969 398.5,630.4922 403.5,630.4922 " fill="#E2E2F0" style="stroke:#181818;stroke-width:0.5;"/><path d="M481.5,630.4922 C476.5,630.4922 476.5,644.2969 476.5,644.2969 C476.5,658.1016 481.5,658.1016 481.5,658.1016 " fill="none" style="stroke:#181818;stroke-width:0.5;"/><text fill="#000000" font-family="sans-serif" font-size="14" lengthAdjust="spacing" textLength="68" x="403.5" y="650.0254">Messaging</text><rect fill="#E2E2F0" height="31.6094" rx="2.5" ry="2.5" style="stroke:#181818;stroke-width:0.5;" width="124" x="603.5" y="95.9609"/><text fill="#000000" font-family="sans-serif" font-size="14" lengthAdjust="spacing" textLength="110" x="610.5" y="117.4941">Message Handler</text><rect fill="#E2E2F0" height="31.6094" rx="2.5" ry="2.5" style="stroke:#181818;stroke-width:0.5;" width="124" x="603.5" y="630.4922"/><text fill="#000000" font-family="sans-serif" font-size="14" lengthAdjust="spacing" textLength="110" x="610.5" y="652.0254">Message Handler</text><text fill="#000000" font-family="sans-serif" font-size="14" lengthAdjust="spacing" textLength="61" x="841" y="125.4941">Database</text><path d="M856.5,74.9609 C856.5,64.9609 874.5,64.9609 874.5,64.9609 C874.5,64.9609 892.5,64.9609 892.5,74.9609 L892.5,100.9609 C892.5,110.9609 874.5,110.9609 874.5,110.9609 C874.5,110.9609 856.5,110.9609 856.5,100.9609 L856.5,74.9609 " fill="#E2E2F0" style="stroke:#181818;stroke-width:1.5;"/><path d="M856.5,74.9609 C856.5,84.9609 874.5,84.9609 874.5,84.9609 C874.5,84.9609 892.5,84.9609 892.5,74.9609 " fill="none" style="stroke:#181818;stroke-width:1.5;"/><text fill="#000000" font-family="sans-serif" font-size="14" lengthAdjust="spacing" textLength="61" x="841" y="645.0254">Database</text><path d="M856.5,658.1016 C856.5,648.1016 874.5,648.1016 874.5,648.1016 C874.5,648.1016 892.5,648.1016 892.5,658.1016 L892.5,684.1016 C892.5,694.1016 874.5,694.1016 874.5,694.1016 C874.5,694.1016 856.5,694.1016 856.5,684.1016 L856.5,658.1016 " fill="#E2E2F0" style="stroke:#181818;stroke-width:1.5;"/><path d="M856.5,658.1016 C856.5,668.1016 874.5,668.1016 874.5,668.1016 C874.5,668.1016 892.5,668.1016 892.5,658.1016 " fill="none" style="stroke:#181818;stroke-width:1.5;"/><rect fill="#E2E2F0" height="31.6094" rx="2.5" ry="2.5" style="stroke:#181818;stroke-width:0.5;" width="100" x="918" y="95.9609"/><text fill="#000000" font-family="sans-serif" font-size="14" lengthAdjust="spacing" textLength="86" x="925" y="117.4941">Fraud Engine</text><rect fill="#E2E2F0" height="31.6094" rx="2.5" ry="2.5" style="stroke:#181818;stroke-width:0.5;" width="100" x="918" y="630.4922"/><text fill="#000000" font-family="sans-serif" font-size="14" lengthAdjust="spacing" textLength="86" x="925" y="652.0254">Fraud Engine</text><rect fill="#EEEEEE" height="3" style="stroke:#EEEEEE;stroke-width:1.0;" width="1038" x="0" y="159.7461"/><line style="stroke:#000000;stroke-width:1.0;" x1="0" x2="1038" y1="159.7461" y2="159.7461"/><line style="stroke:#000000;stroke-width:1.0;" x1="0" x2="1038" y1="162.7461" y2="162.7461"/><rect fill="#EEEEEE" height="24.3516" style="stroke:#000000;stroke-width:2.0;" width="305" x="366.5" y="148.5703"/><text fill="#000000" font-family="sans-serif" font-size="13" font-weight="bold" lengthAdjust="spacing" textLength="287" x="372.5" y="166.0654">Message Handler - HandleOrderCreatedEvent</text><line style="stroke:#181818;stroke-width:1.0;" x1="82" x2="124" y1="205.2734" y2="205.2734"/><line style="stroke:#181818;stroke-width:1.0;" x1="124" x2="124" y1="205.2734" y2="218.2734"/><line style="stroke:#181818;stroke-width:1.0;" x1="83" x2="124" y1="218.2734" y2="218.2734"/><polygon fill="#181818" points="93,214.2734,83,218.2734,93,222.2734,89,218.2734" style="stroke:#181818;stroke-width:1.0;"/><text fill="#000000" font-family="sans-serif" font-size="13" lengthAdjust="spacing" textLength="161" x="89" y="200.417">Handle Order Created Event</text><path d="M10,233.2734 L233,233.2734 L233,241.625 L223,251.625 L10,251.625 L10,233.2734 " fill="#EEEEEE" style="stroke:#000000;stroke-width:1.5;"/><rect fill="none" height="170.1094" style="stroke:#000000;stroke-width:1.5;" width="1018" x="10" y="233.2734"/><text fill="#000000" font-family="sans-serif" font-size="13" font-weight="bold" lengthAdjust="spacing" textLength="178" x="25" y="247.7686">Handle Order Created Event</text><polygon fill="#181818" points="430.5,269.9766,440.5,273.9766,430.5,277.9766,434.5,273.9766" style="stroke:#181818;stroke-width:1.0;"/><line style="stroke:#181818;stroke-width:1.0;" x1="82" x2="436.5" y1="273.9766" y2="273.9766"/><text fill="#000000" font-family="sans-serif" font-size="13" lengthAdjust="spacing" textLength="166" x="89" y="269.1201">Receive Order Created Event</text><polygon fill="#181818" points="245,300.3281,255,304.3281,245,308.3281,249,304.3281" style="stroke:#181818;stroke-width:1.0;"/><line style="stroke:#181818;stroke-width:1.0;" x1="82" x2="251" y1="304.3281" y2="304.3281"/><text fill="#000000" font-family="sans-serif" font-size="13" lengthAdjust="spacing" textLength="68" x="89" y="299.4717">Insert Order</text><polygon fill="#181818" points="956,330.6797,966,334.6797,956,338.6797,960,334.6797" style="stroke:#181818;stroke-width:1.0;"/><line style="stroke:#181818;stroke-width:1.0;" x1="82" x2="962" y1="334.6797" y2="334.6797"/><text fill="#000000" font-family="sans-serif" font-size="13" lengthAdjust="spacing" textLength="140" x="89" y="329.8232">Get Fraud Check Result</text><polygon fill="#181818" points="245,361.0313,255,365.0313,245,369.0313,249,365.0313" style="stroke:#181818;stroke-width:1.0;"/><line style="stroke:#181818;stroke-width:1.0;" x1="82" x2="251" y1="365.0313" y2="365.0313"/><text fill="#000000" font-family="sans-serif" font-size="13" lengthAdjust="spacing" textLength="151" x="89" y="360.1748">Insert Fraud Check Result</text><polygon fill="#181818" points="332.5,391.3828,342.5,395.3828,332.5,399.3828,336.5,395.3828" style="stroke:#181818;stroke-width:1.0;"/><line style="stroke:#181818;stroke-width:1.0;" x1="82" x2="338.5" y1="395.3828" y2="395.3828"/><text fill="#000000" font-family="sans-serif" font-size="13" lengthAdjust="spacing" textLength="185" x="89" y="390.5264">Send Fraud Check Result Event</text><rect fill="#EEEEEE" height="3" style="stroke:#EEEEEE;stroke-width:1.0;" width="1038" x="0" y="431.5586"/><line style="stroke:#000000;stroke-width:1.0;" x1="0" x2="1038" y1="431.5586" y2="431.5586"/><line style="stroke:#000000;stroke-width:1.0;" x1="0" x2="1038" y1="434.5586" y2="434.5586"/><rect fill="#EEEEEE" height="24.3516" style="stroke:#000000;stroke-width:2.0;" width="334" x="352" y="420.3828"/><text fill="#000000" font-family="sans-serif" font-size="13" font-weight="bold" lengthAdjust="spacing" textLength="316" x="358" y="437.8779">Message Handler - HandleFraudCheckResultEvent</text><line style="stroke:#181818;stroke-width:1.0;" x1="665.5" x2="707.5" y1="477.0859" y2="477.0859"/><line style="stroke:#181818;stroke-width:1.0;" x1="707.5" x2="707.5" y1="477.0859" y2="490.0859"/><line style="stroke:#181818;stroke-width:1.0;" x1="666.5" x2="707.5" y1="490.0859" y2="490.0859"/><polygon fill="#181818" points="676.5,486.0859,666.5,490.0859,676.5,494.0859,672.5,490.0859" style="stroke:#181818;stroke-width:1.0;"/><text fill="#000000" font-family="sans-serif" font-size="13" lengthAdjust="spacing" textLength="195" x="672.5" y="472.2295">Handle Fraud Check Result Event</text><path d="M290.5,505.0859 L546.5,505.0859 L546.5,513.4375 L536.5,523.4375 L290.5,523.4375 L290.5,505.0859 " fill="#EEEEEE" style="stroke:#000000;stroke-width:1.5;"/><rect fill="none" height="109.4063" style="stroke:#000000;stroke-width:1.5;" width="627.5" x="290.5" y="505.0859"/><text fill="#000000" font-family="sans-serif" font-size="13" font-weight="bold" lengthAdjust="spacing" textLength="211" x="305.5" y="519.5811">Handle Fraud Check Result Event</text><polygon fill="#181818" points="355.5,541.7891,345.5,545.7891,355.5,549.7891,351.5,545.7891" style="stroke:#181818;stroke-width:1.0;"/><line style="stroke:#181818;stroke-width:1.0;" x1="349.5" x2="664.5" y1="545.7891" y2="545.7891"/><text fill="#000000" font-family="sans-serif" font-size="13" lengthAdjust="spacing" textLength="200" x="361.5" y="540.9326">Receive Fraud Check Result Event</text><polygon fill="#181818" points="862.5,572.1406,872.5,576.1406,862.5,580.1406,866.5,576.1406" style="stroke:#181818;stroke-width:1.0;"/><line style="stroke:#181818;stroke-width:1.0;" x1="665.5" x2="868.5" y1="576.1406" y2="576.1406"/><text fill="#000000" font-family="sans-serif" font-size="13" lengthAdjust="spacing" textLength="119" x="672.5" y="571.2842">Update Order Status</text><polygon fill="#181818" points="453.5,602.4922,443.5,606.4922,453.5,610.4922,449.5,606.4922" style="stroke:#181818;stroke-width:1.0;"/><line style="stroke:#181818;stroke-width:1.0;" x1="447.5" x2="664.5" y1="606.4922" y2="606.4922"/><text fill="#000000" font-family="sans-serif" font-size="13" lengthAdjust="spacing" textLength="199" x="459.5" y="601.6357">Send Order Status Changed Event</text><!--SRC=[tLPDKuCm4BtdL-pWkVm0P_3IOlNGqIdZU4vXYnaXO19G_xtR19ZMMiRfWAtb52QRtVVsuoL6c0mXX6cHvwXYXCUCctMXSfZ0hU9L0jCNZ5_fByAt2YLPJCXO6YuaAiYmnemnjYe-m7Fs4QfQnEZ1rVEBCCY0lf8h8s9HScd0Mw3MF4MuupB9K7d0DOHj_3QyFyDCrAXywtJ19Pt8KHe_AjRcdIkCFhN1NBlz9gRV0TD-4wK9Ob4atF0LrmZUh5cD5BjrRwDIrYfiMGkPZigN_3EK2L0zsgeyg8GAzLDLVebiZXI06vnXJidqhRyUW7Q_5-2H7J4eZkCQOo08NNzqfTf9XvkZK5Ao1kbGvucn881lcQPPTYkBTAgGk2LXJPuW2DZOGmcJcz477wuRXk3ceE48bYHBLL6LVGQdIS7G4qT9M6ACXFkCI0ubiaJkNcfKnd7x3spSG1BmEPgTMtQ9kiekfo0NGsrxagADQEypQsQ9Dljqrfwpnzof7gqTvRhx0xtPLzw3oTgHtuDM9qtDa9tJQl1vCXtuRKDydqfwMBLNJcIugVG5zVcM6cmpfBfocNPtwqOFs1S0]--></g></svg>