<?xml version="1.0" encoding="us-ascii" standalone="no"?><svg xmlns="http://www.w3.org/2000/svg" xmlns:xlink="http://www.w3.org/1999/xlink" contentStyleType="text/css" height="252px" preserveAspectRatio="none" style="width:904px;height:252px;background:#FFFFFF;" version="1.1" viewBox="0 0 904 252" width="904px" zoomAndPan="magnify"><defs/><g><text fill="#000000" font-family="sans-serif" font-size="14" font-weight="bold" lengthAdjust="spacing" textLength="876" x="10" y="29.5332">E Commerce Platform - Deliver - Fraud Management - Fraud Service - Api - Get High Risk Orders - Sequence - Container level</text><rect fill="#FFFFFF" height="201.625" style="stroke:#181818;stroke-width:0.5;" width="226.5" x="409.5" y="44.6094"/><text fill="#000000" font-family="sans-serif" font-size="13" font-weight="bold" lengthAdjust="spacing" textLength="89" x="478.25" y="58.1045">Fraud Service</text><rect fill="none" height="48.7031" style="stroke:#000000;stroke-width:1.5;" width="238.5" x="403.5" y="144.9219"/><line style="stroke:#181818;stroke-width:0.5;stroke-dasharray:5.0,5.0;" x1="282" x2="282" y1="97.5703" y2="210.625"/><line style="stroke:#181818;stroke-width:0.5;stroke-dasharray:5.0,5.0;" x1="430.5" x2="430.5" y1="97.5703" y2="210.625"/><line style="stroke:#181818;stroke-width:0.5;stroke-dasharray:5.0,5.0;" x1="594" x2="594" y1="97.5703" y2="210.625"/><rect fill="#E2E2F0" height="31.6094" rx="2.5" ry="2.5" style="stroke:#181818;stroke-width:0.5;" width="65" x="250" y="64.9609"/><text fill="#000000" font-family="sans-serif" font-size="14" lengthAdjust="spacing" textLength="51" x="257" y="86.4941">External</text><rect fill="#E2E2F0" height="31.6094" rx="2.5" ry="2.5" style="stroke:#181818;stroke-width:0.5;" width="65" x="250" y="209.625"/><text fill="#000000" font-family="sans-serif" font-size="14" lengthAdjust="spacing" textLength="51" x="257" y="231.1582">External</text><rect fill="#E2E2F0" height="31.6094" rx="2.5" ry="2.5" style="stroke:#181818;stroke-width:0.5;" width="34" x="413.5" y="64.9609"/><text fill="#000000" font-family="sans-serif" font-size="14" lengthAdjust="spacing" textLength="20" x="420.5" y="86.4941">Api</text><rect fill="#E2E2F0" height="31.6094" rx="2.5" ry="2.5" style="stroke:#181818;stroke-width:0.5;" width="34" x="413.5" y="209.625"/><text fill="#000000" font-family="sans-serif" font-size="14" lengthAdjust="spacing" textLength="20" x="420.5" y="231.1582">Api</text><rect fill="#E2E2F0" height="31.6094" rx="2.5" ry="2.5" style="stroke:#181818;stroke-width:0.5;" width="75" x="557" y="64.9609"/><text fill="#000000" font-family="sans-serif" font-size="14" lengthAdjust="spacing" textLength="61" x="564" y="86.4941">Database</text><rect fill="#E2E2F0" height="31.6094" rx="2.5" ry="2.5" style="stroke:#181818;stroke-width:0.5;" width="75" x="557" y="209.625"/><text fill="#000000" font-family="sans-serif" font-size="14" lengthAdjust="spacing" textLength="61" x="564" y="231.1582">Database</text><polygon fill="#181818" points="418.5,125.9219,428.5,129.9219,418.5,133.9219,422.5,129.9219" style="stroke:#181818;stroke-width:1.0;"/><line style="stroke:#181818;stroke-width:1.0;" x1="282.5" x2="424.5" y1="129.9219" y2="129.9219"/><text fill="#000000" font-family="sans-serif" font-size="13" lengthAdjust="spacing" textLength="124" x="289.5" y="125.0654">Get High Risk Orders</text><path d="M403.5,144.9219 L579.5,144.9219 L579.5,153.2734 L569.5,163.2734 L403.5,163.2734 L403.5,144.9219 " fill="#EEEEEE" style="stroke:#000000;stroke-width:1.5;"/><rect fill="none" height="48.7031" style="stroke:#000000;stroke-width:1.5;" width="238.5" x="403.5" y="144.9219"/><text fill="#000000" font-family="sans-serif" font-size="13" font-weight="bold" lengthAdjust="spacing" textLength="131" x="418.5" y="159.417">Get High Risk Orders</text><polygon fill="#181818" points="582.5,181.625,592.5,185.625,582.5,189.625,586.5,185.625" style="stroke:#181818;stroke-width:1.0;"/><line style="stroke:#181818;stroke-width:1.0;" x1="430.5" x2="588.5" y1="185.625" y2="185.625"/><text fill="#000000" font-family="sans-serif" font-size="13" lengthAdjust="spacing" textLength="140" x="437.5" y="180.7686">Select High Risk Orders</text><!--SRC=[jL8zJyCm4DtlLvp274zC34WeJO41WSZ0V4skhOLZ1_kIbd_FAJH5LJEmn8Fb-_1xzvujLXnZYKLeMuuruviZsOROOeuhTdRWgATrfBx15_AquvQzd5CLny7ghHmVEglx8mi-sTqUtstwnDVOS4oQhlYhPp_s5S4BMQ-mZWTs01r5iRNjI66pyYWSFRaCAM5n- -mrNBjmC5NOoe4YLzz9k4rcQloD0JRXYDd5J1dUVEojCA2k2n8TTSGl9z6JPdDIR4QWFxbNx6Fzn6FEYf9Hv6kw5GbjAF52d1Cyi6zGRG20_nk7-VqoDk3Tx5-0NGnzDrzQPev514wUgygA7TSpQlGr07u0]--></g></svg>