<?xml version="1.0" encoding="us-ascii" standalone="no"?><svg xmlns="http://www.w3.org/2000/svg" xmlns:xlink="http://www.w3.org/1999/xlink" contentStyleType="text/css" height="414px" preserveAspectRatio="none" style="width:552px;height:414px;background:#FFFFFF;" version="1.1" viewBox="0 0 552 414" width="552px" zoomAndPan="magnify"><defs/><g><text fill="#000000" font-family="sans-serif" font-size="14" font-weight="bold" lengthAdjust="spacing" textLength="524" x="10" y="29.5332">Catalog Api - Api - Catalog Api - Get All Items - Sequence - Component level</text><rect fill="#FFFFFF" height="364.0313" style="stroke:#181818;stroke-width:0.5;" width="95" x="161" y="44.6094"/><text fill="#000000" font-family="sans-serif" font-size="13" font-weight="bold" lengthAdjust="spacing" textLength="21" x="198" y="58.1045">Api</text><rect fill="#FFFFFF" height="364.0313" style="stroke:#181818;stroke-width:0.5;" width="123" x="335" y="44.6094"/><text fill="#000000" font-family="sans-serif" font-size="13" font-weight="bold" lengthAdjust="spacing" textLength="84" x="354.5" y="58.1045">Infrastructure</text><rect fill="none" height="211.1094" style="stroke:#000000;stroke-width:1.5;" width="319" x="145" y="144.9219"/><rect fill="none" height="61.7031" style="stroke:#000000;stroke-width:1.5;" width="202" x="155" y="243.9766"/><line style="stroke:#181818;stroke-width:0.5;stroke-dasharray:5.0,5.0;" x1="108" x2="108" y1="97.5703" y2="373.0313"/><line style="stroke:#181818;stroke-width:0.5;stroke-dasharray:5.0,5.0;" x1="208" x2="208" y1="97.5703" y2="373.0313"/><line style="stroke:#181818;stroke-width:0.5;stroke-dasharray:5.0,5.0;" x1="396" x2="396" y1="97.5703" y2="373.0313"/><rect fill="#E2E2F0" height="31.6094" rx="2.5" ry="2.5" style="stroke:#181818;stroke-width:0.5;" width="65" x="76" y="64.9609"/><text fill="#000000" font-family="sans-serif" font-size="14" lengthAdjust="spacing" textLength="51" x="83" y="86.4941">External</text><rect fill="#E2E2F0" height="31.6094" rx="2.5" ry="2.5" style="stroke:#181818;stroke-width:0.5;" width="65" x="76" y="372.0313"/><text fill="#000000" font-family="sans-serif" font-size="14" lengthAdjust="spacing" textLength="51" x="83" y="393.5645">External</text><rect fill="#E2E2F0" height="31.6094" rx="2.5" ry="2.5" style="stroke:#181818;stroke-width:0.5;" width="87" x="165" y="64.9609"/><text fill="#000000" font-family="sans-serif" font-size="14" lengthAdjust="spacing" textLength="73" x="172" y="86.4941">Catalog Api</text><rect fill="#E2E2F0" height="31.6094" rx="2.5" ry="2.5" style="stroke:#181818;stroke-width:0.5;" width="87" x="165" y="372.0313"/><text fill="#000000" font-family="sans-serif" font-size="14" lengthAdjust="spacing" textLength="73" x="172" y="393.5645">Catalog Api</text><rect fill="#E2E2F0" height="31.6094" rx="2.5" ry="2.5" style="stroke:#181818;stroke-width:0.5;" width="115" x="339" y="64.9609"/><text fill="#000000" font-family="sans-serif" font-size="14" lengthAdjust="spacing" textLength="101" x="346" y="86.4941">Catalog Context</text><rect fill="#E2E2F0" height="31.6094" rx="2.5" ry="2.5" style="stroke:#181818;stroke-width:0.5;" width="115" x="339" y="372.0313"/><text fill="#000000" font-family="sans-serif" font-size="14" lengthAdjust="spacing" textLength="101" x="346" y="393.5645">Catalog Context</text><polygon fill="#181818" points="196.5,125.9219,206.5,129.9219,196.5,133.9219,200.5,129.9219" style="stroke:#181818;stroke-width:1.0;"/><line style="stroke:#181818;stroke-width:1.0;" x1="108.5" x2="202.5" y1="129.9219" y2="129.9219"/><text fill="#000000" font-family="sans-serif" font-size="13" lengthAdjust="spacing" textLength="76" x="115.5" y="125.0654">Get All Items</text><path d="M145,144.9219 L271,144.9219 L271,153.2734 L261,163.2734 L145,163.2734 L145,144.9219 " fill="#EEEEEE" style="stroke:#000000;stroke-width:1.5;"/><rect fill="none" height="211.1094" style="stroke:#000000;stroke-width:1.5;" width="319" x="145" y="144.9219"/><text fill="#000000" font-family="sans-serif" font-size="13" font-weight="bold" lengthAdjust="spacing" textLength="81" x="160" y="159.417">Get All Items</text><polygon fill="#181818" points="384.5,181.625,394.5,185.625,384.5,189.625,388.5,185.625" style="stroke:#181818;stroke-width:1.0;"/><line style="stroke:#181818;stroke-width:1.0;" x1="208.5" x2="390.5" y1="185.625" y2="185.625"/><text fill="#000000" font-family="sans-serif" font-size="13" lengthAdjust="spacing" textLength="164" x="215.5" y="180.7686">Catalog Items To List Async</text><line style="stroke:#181818;stroke-width:1.0;" x1="208.5" x2="250.5" y1="215.9766" y2="215.9766"/><line style="stroke:#181818;stroke-width:1.0;" x1="250.5" x2="250.5" y1="215.9766" y2="228.9766"/><line style="stroke:#181818;stroke-width:1.0;" x1="209.5" x2="250.5" y1="228.9766" y2="228.9766"/><polygon fill="#181818" points="219.5,224.9766,209.5,228.9766,219.5,232.9766,215.5,228.9766" style="stroke:#181818;stroke-width:1.0;"/><text fill="#000000" font-family="sans-serif" font-size="13" lengthAdjust="spacing" textLength="136" x="215.5" y="211.1201">Change Uri Placeholder</text><path d="M155,243.9766 L352,243.9766 L352,252.3281 L342,262.3281 L155,262.3281 L155,243.9766 " fill="#EEEEEE" style="stroke:#000000;stroke-width:1.5;"/><rect fill="none" height="61.7031" style="stroke:#000000;stroke-width:1.5;" width="202" x="155" y="243.9766"/><text fill="#000000" font-family="sans-serif" font-size="13" font-weight="bold" lengthAdjust="spacing" textLength="152" x="170" y="258.4717">Change Uri Placeholder</text><line style="stroke:#181818;stroke-width:1.0;" x1="208.5" x2="250.5" y1="284.6797" y2="284.6797"/><line style="stroke:#181818;stroke-width:1.0;" x1="250.5" x2="250.5" y1="284.6797" y2="297.6797"/><line style="stroke:#181818;stroke-width:1.0;" x1="209.5" x2="250.5" y1="297.6797" y2="297.6797"/><polygon fill="#181818" points="219.5,293.6797,209.5,297.6797,219.5,301.6797,215.5,297.6797" style="stroke:#181818;stroke-width:1.0;"/><text fill="#000000" font-family="sans-serif" font-size="13" lengthAdjust="spacing" textLength="78" x="215.5" y="279.8232">Retun (items)</text><line style="stroke:#181818;stroke-width:1.0;" x1="208.5" x2="250.5" y1="335.0313" y2="335.0313"/><line style="stroke:#181818;stroke-width:1.0;" x1="250.5" x2="250.5" y1="335.0313" y2="348.0313"/><line style="stroke:#181818;stroke-width:1.0;" x1="209.5" x2="250.5" y1="348.0313" y2="348.0313"/><polygon fill="#181818" points="219.5,344.0313,209.5,348.0313,219.5,352.0313,215.5,348.0313" style="stroke:#181818;stroke-width:1.0;"/><text fill="#000000" font-family="sans-serif" font-size="13" lengthAdjust="spacing" textLength="146" x="215.5" y="330.1748">Retun (TypedResults.Ok)</text><!--SRC=[rLEnJiCm4Dtz5KTOO6Wc9WQaAW9K2GdK534VoJMnS6nZNsZpzpWaXQPGwD1Ar8FbEz_pUyzddrY7HOMWi34rWw-8KQCGB5aH9CYeJ05ZAs7KpyFSBJ6CbO89K-L3dD9hJJgZjj1KrcZI38hUI0bXqR7CfCMGYgwNJ4wZYW0z91SJ7S8RPHPnQkQyG4TfuzipurLX5mlnR9OGhOc8uFIfb4m2mkXsDxC3uW4qSEU6DN5CQMbiF7PPYyguTlHDIOyCm3Wncb5gSZxkmjxgUf4WdKFG8zQKJVJSeMTNVp3yBRBbeINlHUYG-mVDFTcNxi-5sBr1CBewt9N2vV31YSAPscxa3iU-1skxDY4uNRs1xclD3Dn97tpwHcV_s-DlxKjAr0N1evFme32ZqgYSND_7BPj7QtPAN6iuaotylFrDHszbrbZAf-Hh5GhkNpfJuXq0]--></g></svg>