<?xml version="1.0" encoding="us-ascii" standalone="no"?><svg xmlns="http://www.w3.org/2000/svg" xmlns:xlink="http://www.w3.org/1999/xlink" contentStyleType="text/css" height="414px" preserveAspectRatio="none" style="width:769px;height:414px;background:#FFFFFF;" version="1.1" viewBox="0 0 769 414" width="769px" zoomAndPan="magnify"><defs/><g><text fill="#000000" font-family="sans-serif" font-size="14" font-weight="bold" lengthAdjust="spacing" textLength="741" x="10" y="29.5332">dotnet - eShop - Architecture - Catalog Api - Api - Catalog Api - Get All Items - Sequence - Component level</text><rect fill="#FFFFFF" height="364.0313" style="stroke:#181818;stroke-width:0.5;" width="95" x="269.5" y="44.6094"/><text fill="#000000" font-family="sans-serif" font-size="13" font-weight="bold" lengthAdjust="spacing" textLength="21" x="306.5" y="58.1045">Api</text><rect fill="#FFFFFF" height="364.0313" style="stroke:#181818;stroke-width:0.5;" width="123" x="443.5" y="44.6094"/><text fill="#000000" font-family="sans-serif" font-size="13" font-weight="bold" lengthAdjust="spacing" textLength="84" x="463" y="58.1045">Infrastructure</text><rect fill="none" height="211.1094" style="stroke:#000000;stroke-width:1.5;" width="319" x="253.5" y="144.9219"/><rect fill="none" height="61.7031" style="stroke:#000000;stroke-width:1.5;" width="202" x="263.5" y="243.9766"/><line style="stroke:#181818;stroke-width:0.5;stroke-dasharray:5.0,5.0;" x1="216.5" x2="216.5" y1="97.5703" y2="373.0313"/><line style="stroke:#181818;stroke-width:0.5;stroke-dasharray:5.0,5.0;" x1="316.5" x2="316.5" y1="97.5703" y2="373.0313"/><line style="stroke:#181818;stroke-width:0.5;stroke-dasharray:5.0,5.0;" x1="504.5" x2="504.5" y1="97.5703" y2="373.0313"/><rect fill="#E2E2F0" height="31.6094" rx="2.5" ry="2.5" style="stroke:#181818;stroke-width:0.5;" width="65" x="184.5" y="64.9609"/><text fill="#000000" font-family="sans-serif" font-size="14" lengthAdjust="spacing" textLength="51" x="191.5" y="86.4941">External</text><rect fill="#E2E2F0" height="31.6094" rx="2.5" ry="2.5" style="stroke:#181818;stroke-width:0.5;" width="65" x="184.5" y="372.0313"/><text fill="#000000" font-family="sans-serif" font-size="14" lengthAdjust="spacing" textLength="51" x="191.5" y="393.5645">External</text><rect fill="#E2E2F0" height="31.6094" rx="2.5" ry="2.5" style="stroke:#181818;stroke-width:0.5;" width="87" x="273.5" y="64.9609"/><text fill="#000000" font-family="sans-serif" font-size="14" lengthAdjust="spacing" textLength="73" x="280.5" y="86.4941">Catalog Api</text><rect fill="#E2E2F0" height="31.6094" rx="2.5" ry="2.5" style="stroke:#181818;stroke-width:0.5;" width="87" x="273.5" y="372.0313"/><text fill="#000000" font-family="sans-serif" font-size="14" lengthAdjust="spacing" textLength="73" x="280.5" y="393.5645">Catalog Api</text><rect fill="#E2E2F0" height="31.6094" rx="2.5" ry="2.5" style="stroke:#181818;stroke-width:0.5;" width="115" x="447.5" y="64.9609"/><text fill="#000000" font-family="sans-serif" font-size="14" lengthAdjust="spacing" textLength="101" x="454.5" y="86.4941">Catalog Context</text><rect fill="#E2E2F0" height="31.6094" rx="2.5" ry="2.5" style="stroke:#181818;stroke-width:0.5;" width="115" x="447.5" y="372.0313"/><text fill="#000000" font-family="sans-serif" font-size="14" lengthAdjust="spacing" textLength="101" x="454.5" y="393.5645">Catalog Context</text><polygon fill="#181818" points="305,125.9219,315,129.9219,305,133.9219,309,129.9219" style="stroke:#181818;stroke-width:1.0;"/><line style="stroke:#181818;stroke-width:1.0;" x1="217" x2="311" y1="129.9219" y2="129.9219"/><text fill="#000000" font-family="sans-serif" font-size="13" lengthAdjust="spacing" textLength="76" x="224" y="125.0654">Get All Items</text><path d="M253.5,144.9219 L379.5,144.9219 L379.5,153.2734 L369.5,163.2734 L253.5,163.2734 L253.5,144.9219 " fill="#EEEEEE" style="stroke:#000000;stroke-width:1.5;"/><rect fill="none" height="211.1094" style="stroke:#000000;stroke-width:1.5;" width="319" x="253.5" y="144.9219"/><text fill="#000000" font-family="sans-serif" font-size="13" font-weight="bold" lengthAdjust="spacing" textLength="81" x="268.5" y="159.417">Get All Items</text><polygon fill="#181818" points="493,181.625,503,185.625,493,189.625,497,185.625" style="stroke:#181818;stroke-width:1.0;"/><line style="stroke:#181818;stroke-width:1.0;" x1="317" x2="499" y1="185.625" y2="185.625"/><text fill="#000000" font-family="sans-serif" font-size="13" lengthAdjust="spacing" textLength="164" x="324" y="180.7686">Catalog Items To List Async</text><line style="stroke:#181818;stroke-width:1.0;" x1="317" x2="359" y1="215.9766" y2="215.9766"/><line style="stroke:#181818;stroke-width:1.0;" x1="359" x2="359" y1="215.9766" y2="228.9766"/><line style="stroke:#181818;stroke-width:1.0;" x1="318" x2="359" y1="228.9766" y2="228.9766"/><polygon fill="#181818" points="328,224.9766,318,228.9766,328,232.9766,324,228.9766" style="stroke:#181818;stroke-width:1.0;"/><text fill="#000000" font-family="sans-serif" font-size="13" lengthAdjust="spacing" textLength="136" x="324" y="211.1201">Change Uri Placeholder</text><path d="M263.5,243.9766 L460.5,243.9766 L460.5,252.3281 L450.5,262.3281 L263.5,262.3281 L263.5,243.9766 " fill="#EEEEEE" style="stroke:#000000;stroke-width:1.5;"/><rect fill="none" height="61.7031" style="stroke:#000000;stroke-width:1.5;" width="202" x="263.5" y="243.9766"/><text fill="#000000" font-family="sans-serif" font-size="13" font-weight="bold" lengthAdjust="spacing" textLength="152" x="278.5" y="258.4717">Change Uri Placeholder</text><line style="stroke:#181818;stroke-width:1.0;" x1="317" x2="359" y1="284.6797" y2="284.6797"/><line style="stroke:#181818;stroke-width:1.0;" x1="359" x2="359" y1="284.6797" y2="297.6797"/><line style="stroke:#181818;stroke-width:1.0;" x1="318" x2="359" y1="297.6797" y2="297.6797"/><polygon fill="#181818" points="328,293.6797,318,297.6797,328,301.6797,324,297.6797" style="stroke:#181818;stroke-width:1.0;"/><text fill="#000000" font-family="sans-serif" font-size="13" lengthAdjust="spacing" textLength="82" x="324" y="279.8232">Return (items)</text><line style="stroke:#181818;stroke-width:1.0;" x1="317" x2="359" y1="335.0313" y2="335.0313"/><line style="stroke:#181818;stroke-width:1.0;" x1="359" x2="359" y1="335.0313" y2="348.0313"/><line style="stroke:#181818;stroke-width:1.0;" x1="318" x2="359" y1="348.0313" y2="348.0313"/><polygon fill="#181818" points="328,344.0313,318,348.0313,328,352.0313,324,348.0313" style="stroke:#181818;stroke-width:1.0;"/><text fill="#000000" font-family="sans-serif" font-size="13" lengthAdjust="spacing" textLength="150" x="324" y="330.1748">Return (TypedResults.Ok)</text><!--SRC=[rLCzJyCm4DtzAqvXWQ6Pc1YGgWXG9IHGKyHiacjYuTh6lj3sttFvA2G5IeTMeXcIt9sVttjtDYdI2BabWmGZmBIqZhzZdvMACAFA8uU99Abj0MEdwcBp7kRk63xM6YQ4Yy1nYcyLcgm1suMp1Ws1ndVKGZZfIMNAIKv5Doj2RwIEG0P8BYU6mrjjbt5gvxIK7jDrgFUCDmlRM8WNkuAe9oA2i-TQim1-skfsTa0yW39tsuEuwK3Sz_zDIOTaO9nOGr8Pz25kmyvgVv50amFh4Jrb4pFtCf2l6eQ_HTOykAA321ro_w2v8_lI_VaZzXyGZAwFrrAu6XuuKNXRkQtSyTWFO6tV8R3JpHbehzRCmhqAx3EiJVQ_FUuQNr9AKo0yUGMFMcPOMfsZx-RuI_5apKwHDp9mhchyHNsTJj_BREqmdsAeDAzuU6rTYGy0]--></g></svg>