<?xml version="1.0" encoding="us-ascii" standalone="no"?><svg xmlns="http://www.w3.org/2000/svg" xmlns:xlink="http://www.w3.org/1999/xlink" contentStyleType="text/css" height="414px" preserveAspectRatio="none" style="width:812px;height:414px;background:#FFFFFF;" version="1.1" viewBox="0 0 812 414" width="812px" zoomAndPan="magnify"><defs/><g><text fill="#000000" font-family="sans-serif" font-size="14" font-weight="bold" lengthAdjust="spacing" textLength="784" x="10" y="29.5332">dotnet - eShop - Architecture - Catalog Api - Api - Catalog Api - Get Items By Name - Sequence - Component level</text><rect fill="#FFFFFF" height="364.0313" style="stroke:#181818;stroke-width:0.5;" width="95" x="310.5" y="44.6094"/><text fill="#000000" font-family="sans-serif" font-size="13" font-weight="bold" lengthAdjust="spacing" textLength="21" x="347.5" y="58.1045">Api</text><rect fill="#FFFFFF" height="364.0313" style="stroke:#181818;stroke-width:0.5;" width="123" x="484.5" y="44.6094"/><text fill="#000000" font-family="sans-serif" font-size="13" font-weight="bold" lengthAdjust="spacing" textLength="84" x="504" y="58.1045">Infrastructure</text><rect fill="none" height="211.1094" style="stroke:#000000;stroke-width:1.5;" width="319" x="294.5" y="144.9219"/><rect fill="none" height="61.7031" style="stroke:#000000;stroke-width:1.5;" width="202" x="304.5" y="243.9766"/><line style="stroke:#181818;stroke-width:0.5;stroke-dasharray:5.0,5.0;" x1="218.5" x2="218.5" y1="97.5703" y2="373.0313"/><line style="stroke:#181818;stroke-width:0.5;stroke-dasharray:5.0,5.0;" x1="357.5" x2="357.5" y1="97.5703" y2="373.0313"/><line style="stroke:#181818;stroke-width:0.5;stroke-dasharray:5.0,5.0;" x1="545.5" x2="545.5" y1="97.5703" y2="373.0313"/><rect fill="#E2E2F0" height="31.6094" rx="2.5" ry="2.5" style="stroke:#181818;stroke-width:0.5;" width="65" x="186.5" y="64.9609"/><text fill="#000000" font-family="sans-serif" font-size="14" lengthAdjust="spacing" textLength="51" x="193.5" y="86.4941">External</text><rect fill="#E2E2F0" height="31.6094" rx="2.5" ry="2.5" style="stroke:#181818;stroke-width:0.5;" width="65" x="186.5" y="372.0313"/><text fill="#000000" font-family="sans-serif" font-size="14" lengthAdjust="spacing" textLength="51" x="193.5" y="393.5645">External</text><rect fill="#E2E2F0" height="31.6094" rx="2.5" ry="2.5" style="stroke:#181818;stroke-width:0.5;" width="87" x="314.5" y="64.9609"/><text fill="#000000" font-family="sans-serif" font-size="14" lengthAdjust="spacing" textLength="73" x="321.5" y="86.4941">Catalog Api</text><rect fill="#E2E2F0" height="31.6094" rx="2.5" ry="2.5" style="stroke:#181818;stroke-width:0.5;" width="87" x="314.5" y="372.0313"/><text fill="#000000" font-family="sans-serif" font-size="14" lengthAdjust="spacing" textLength="73" x="321.5" y="393.5645">Catalog Api</text><rect fill="#E2E2F0" height="31.6094" rx="2.5" ry="2.5" style="stroke:#181818;stroke-width:0.5;" width="115" x="488.5" y="64.9609"/><text fill="#000000" font-family="sans-serif" font-size="14" lengthAdjust="spacing" textLength="101" x="495.5" y="86.4941">Catalog Context</text><rect fill="#E2E2F0" height="31.6094" rx="2.5" ry="2.5" style="stroke:#181818;stroke-width:0.5;" width="115" x="488.5" y="372.0313"/><text fill="#000000" font-family="sans-serif" font-size="14" lengthAdjust="spacing" textLength="101" x="495.5" y="393.5645">Catalog Context</text><polygon fill="#181818" points="346,125.9219,356,129.9219,346,133.9219,350,129.9219" style="stroke:#181818;stroke-width:1.0;"/><line style="stroke:#181818;stroke-width:1.0;" x1="219" x2="352" y1="129.9219" y2="129.9219"/><text fill="#000000" font-family="sans-serif" font-size="13" lengthAdjust="spacing" textLength="115" x="226" y="125.0654">Get Items By Name</text><path d="M294.5,144.9219 L460.5,144.9219 L460.5,153.2734 L450.5,163.2734 L294.5,163.2734 L294.5,144.9219 " fill="#EEEEEE" style="stroke:#000000;stroke-width:1.5;"/><rect fill="none" height="211.1094" style="stroke:#000000;stroke-width:1.5;" width="319" x="294.5" y="144.9219"/><text fill="#000000" font-family="sans-serif" font-size="13" font-weight="bold" lengthAdjust="spacing" textLength="121" x="309.5" y="159.417">Get Items By Name</text><polygon fill="#181818" points="534,181.625,544,185.625,534,189.625,538,185.625" style="stroke:#181818;stroke-width:1.0;"/><line style="stroke:#181818;stroke-width:1.0;" x1="358" x2="540" y1="185.625" y2="185.625"/><text fill="#000000" font-family="sans-serif" font-size="13" lengthAdjust="spacing" textLength="164" x="365" y="180.7686">Catalog Items To List Async</text><line style="stroke:#181818;stroke-width:1.0;" x1="358" x2="400" y1="215.9766" y2="215.9766"/><line style="stroke:#181818;stroke-width:1.0;" x1="400" x2="400" y1="215.9766" y2="228.9766"/><line style="stroke:#181818;stroke-width:1.0;" x1="359" x2="400" y1="228.9766" y2="228.9766"/><polygon fill="#181818" points="369,224.9766,359,228.9766,369,232.9766,365,228.9766" style="stroke:#181818;stroke-width:1.0;"/><text fill="#000000" font-family="sans-serif" font-size="13" lengthAdjust="spacing" textLength="136" x="365" y="211.1201">Change Uri Placeholder</text><path d="M304.5,243.9766 L501.5,243.9766 L501.5,252.3281 L491.5,262.3281 L304.5,262.3281 L304.5,243.9766 " fill="#EEEEEE" style="stroke:#000000;stroke-width:1.5;"/><rect fill="none" height="61.7031" style="stroke:#000000;stroke-width:1.5;" width="202" x="304.5" y="243.9766"/><text fill="#000000" font-family="sans-serif" font-size="13" font-weight="bold" lengthAdjust="spacing" textLength="152" x="319.5" y="258.4717">Change Uri Placeholder</text><line style="stroke:#181818;stroke-width:1.0;" x1="358" x2="400" y1="284.6797" y2="284.6797"/><line style="stroke:#181818;stroke-width:1.0;" x1="400" x2="400" y1="284.6797" y2="297.6797"/><line style="stroke:#181818;stroke-width:1.0;" x1="359" x2="400" y1="297.6797" y2="297.6797"/><polygon fill="#181818" points="369,293.6797,359,297.6797,369,301.6797,365,297.6797" style="stroke:#181818;stroke-width:1.0;"/><text fill="#000000" font-family="sans-serif" font-size="13" lengthAdjust="spacing" textLength="82" x="365" y="279.8232">Return (items)</text><line style="stroke:#181818;stroke-width:1.0;" x1="358" x2="400" y1="335.0313" y2="335.0313"/><line style="stroke:#181818;stroke-width:1.0;" x1="400" x2="400" y1="335.0313" y2="348.0313"/><line style="stroke:#181818;stroke-width:1.0;" x1="359" x2="400" y1="348.0313" y2="348.0313"/><polygon fill="#181818" points="369,344.0313,359,348.0313,369,352.0313,365,348.0313" style="stroke:#181818;stroke-width:1.0;"/><text fill="#000000" font-family="sans-serif" font-size="13" lengthAdjust="spacing" textLength="150" x="365" y="330.1748">Return (TypedResults.Ok)</text><!--SRC=[rLCzJyCm4DtzAuwmmD1CJ0n89G9K2G5gYfYFv4Wi73lO5zhyUvoFGaeBT6WbcY79VRoxz-xiez9YLY0eh4t5u0fYr2W4IrO4gM5D32EWE3Ub_uvjaakcX2jBteoGKPaCngLiWkrxrNVZuHEcmi5b3NTODAYOtYhIILl05ANHf1aKlPCIeaJBCf4bUbTmjM2o6bK0w20wcsXlNYip3sFpmdEq5DUkgHqk4pjRY6UpW610983ZfuQt0FzqqU_UbSOhKD-xcqFOJY4Spc2DIO_qm30ocb5giYxip5xgC4cGJi7p4GDc4_rYqR6jsWv_aspwq89tGdIrzmREVRCltfy_Oli5mUXYVoE5y_L39p9hgdA3VtyiTY1nssLunSkpqAcR6RYLZc7iQftyRus_hJ7AKMS4ZrR2WyA4SgDIilqkVmWUhDWf-K8QJcI3FsskrU5hcTKbfLDobV8Pzw-TAl41]--></g></svg>