<?xml version="1.0" encoding="us-ascii" standalone="no"?><svg xmlns="http://www.w3.org/2000/svg" xmlns:xlink="http://www.w3.org/1999/xlink" contentStyleType="text/css" height="364px" preserveAspectRatio="none" style="width:882px;height:364px;background:#FFFFFF;" version="1.1" viewBox="0 0 882 364" width="882px" zoomAndPan="magnify"><defs/><g><text fill="#000000" font-family="sans-serif" font-size="14" font-weight="bold" lengthAdjust="spacing" textLength="854" x="10" y="29.5332">E Commerce Platform - Generate Demand - Storefront - Storefront App - Add Product To Basket - Sequence - Context level</text><rect fill="none" height="187.1094" style="stroke:#000000;stroke-width:1.5;" width="397" x="300.75" y="123.5703"/><rect fill="none" height="124.4063" style="stroke:#000000;stroke-width:1.5;" width="262" x="425.75" y="179.2734"/><rect fill="none" height="61.7031" style="stroke:#000000;stroke-width:1.5;" width="144" x="533.75" y="234.9766"/><line style="stroke:#181818;stroke-width:0.5;stroke-dasharray:5.0,5.0;" x1="204.25" x2="204.25" y1="76.2188" y2="327.6797"/><line style="stroke:#181818;stroke-width:0.5;stroke-dasharray:5.0,5.0;" x1="363.75" x2="363.75" y1="76.2188" y2="327.6797"/><line style="stroke:#181818;stroke-width:0.5;stroke-dasharray:5.0,5.0;" x1="484.75" x2="484.75" y1="76.2188" y2="327.6797"/><line style="stroke:#181818;stroke-width:0.5;stroke-dasharray:5.0,5.0;" x1="597.75" x2="597.75" y1="76.2188" y2="327.6797"/><rect fill="#E2E2F0" height="31.6094" rx="2.5" ry="2.5" style="stroke:#181818;stroke-width:0.5;" width="65" x="172.25" y="43.6094"/><text fill="#000000" font-family="sans-serif" font-size="14" lengthAdjust="spacing" textLength="51" x="179.25" y="65.1426">External</text><rect fill="#E2E2F0" height="31.6094" rx="2.5" ry="2.5" style="stroke:#181818;stroke-width:0.5;" width="65" x="172.25" y="326.6797"/><text fill="#000000" font-family="sans-serif" font-size="14" lengthAdjust="spacing" textLength="51" x="179.25" y="348.2129">External</text><rect fill="#E2E2F0" height="31.6094" rx="2.5" ry="2.5" style="stroke:#181818;stroke-width:0.5;" width="106" x="310.75" y="43.6094"/><text fill="#000000" font-family="sans-serif" font-size="14" lengthAdjust="spacing" textLength="92" x="317.75" y="65.1426">Storefront App</text><rect fill="#E2E2F0" height="31.6094" rx="2.5" ry="2.5" style="stroke:#181818;stroke-width:0.5;" width="106" x="310.75" y="326.6797"/><text fill="#000000" font-family="sans-serif" font-size="14" lengthAdjust="spacing" textLength="92" x="317.75" y="348.2129">Storefront App</text><rect fill="#E2E2F0" height="31.6094" rx="2.5" ry="2.5" style="stroke:#181818;stroke-width:0.5;" width="98" x="435.75" y="43.6094"/><text fill="#000000" font-family="sans-serif" font-size="14" lengthAdjust="spacing" textLength="84" x="442.75" y="65.1426">Storefront Bff</text><rect fill="#E2E2F0" height="31.6094" rx="2.5" ry="2.5" style="stroke:#181818;stroke-width:0.5;" width="98" x="435.75" y="326.6797"/><text fill="#000000" font-family="sans-serif" font-size="14" lengthAdjust="spacing" textLength="84" x="442.75" y="348.2129">Storefront Bff</text><rect fill="#E2E2F0" height="31.6094" rx="2.5" ry="2.5" style="stroke:#181818;stroke-width:0.5;" width="108" x="543.75" y="43.6094"/><text fill="#000000" font-family="sans-serif" font-size="14" lengthAdjust="spacing" textLength="94" x="550.75" y="65.1426">Basket Service</text><rect fill="#E2E2F0" height="31.6094" rx="2.5" ry="2.5" style="stroke:#181818;stroke-width:0.5;" width="108" x="543.75" y="326.6797"/><text fill="#000000" font-family="sans-serif" font-size="14" lengthAdjust="spacing" textLength="94" x="550.75" y="348.2129">Basket Service</text><polygon fill="#181818" points="351.75,104.5703,361.75,108.5703,351.75,112.5703,355.75,108.5703" style="stroke:#181818;stroke-width:1.0;"/><line style="stroke:#181818;stroke-width:1.0;" x1="204.75" x2="357.75" y1="108.5703" y2="108.5703"/><text fill="#000000" font-family="sans-serif" font-size="13" lengthAdjust="spacing" textLength="135" x="211.75" y="103.7139">Add Product To Basket</text><path d="M300.75,123.5703 L489.75,123.5703 L489.75,131.9219 L479.75,141.9219 L300.75,141.9219 L300.75,123.5703 " fill="#EEEEEE" style="stroke:#000000;stroke-width:1.5;"/><rect fill="none" height="187.1094" style="stroke:#000000;stroke-width:1.5;" width="397" x="300.75" y="123.5703"/><text fill="#000000" font-family="sans-serif" font-size="13" font-weight="bold" lengthAdjust="spacing" textLength="144" x="315.75" y="138.0654">Add Product To Basket</text><polygon fill="#181818" points="472.75,160.2734,482.75,164.2734,472.75,168.2734,476.75,164.2734" style="stroke:#181818;stroke-width:1.0;"/><line style="stroke:#181818;stroke-width:1.0;" x1="363.75" x2="478.75" y1="164.2734" y2="164.2734"/><text fill="#000000" font-family="sans-serif" font-size="13" lengthAdjust="spacing" textLength="97" x="370.75" y="159.417">Add Basket Item</text><path d="M425.75,179.2734 L573.75,179.2734 L573.75,187.625 L563.75,197.625 L425.75,197.625 L425.75,179.2734 " fill="#EEEEEE" style="stroke:#000000;stroke-width:1.5;"/><rect fill="none" height="124.4063" style="stroke:#000000;stroke-width:1.5;" width="262" x="425.75" y="179.2734"/><text fill="#000000" font-family="sans-serif" font-size="13" font-weight="bold" lengthAdjust="spacing" textLength="103" x="440.75" y="193.7686">Add Basket Item</text><polygon fill="#181818" points="585.75,215.9766,595.75,219.9766,585.75,223.9766,589.75,219.9766" style="stroke:#181818;stroke-width:1.0;"/><line style="stroke:#181818;stroke-width:1.0;" x1="484.75" x2="591.75" y1="219.9766" y2="219.9766"/><text fill="#000000" font-family="sans-serif" font-size="13" lengthAdjust="spacing" textLength="52" x="491.75" y="215.1201">Add Item</text><path d="M533.75,234.9766 L635.75,234.9766 L635.75,243.3281 L625.75,253.3281 L533.75,253.3281 L533.75,234.9766 " fill="#EEEEEE" style="stroke:#000000;stroke-width:1.5;"/><rect fill="none" height="61.7031" style="stroke:#000000;stroke-width:1.5;" width="144" x="533.75" y="234.9766"/><text fill="#000000" font-family="sans-serif" font-size="13" font-weight="bold" lengthAdjust="spacing" textLength="57" x="548.75" y="249.4717">Add Item</text><line style="stroke:#181818;stroke-width:1.0;" x1="597.75" x2="639.75" y1="275.6797" y2="275.6797"/><line style="stroke:#181818;stroke-width:1.0;" x1="639.75" x2="639.75" y1="275.6797" y2="288.6797"/><line style="stroke:#181818;stroke-width:1.0;" x1="598.75" x2="639.75" y1="288.6797" y2="288.6797"/><polygon fill="#181818" points="608.75,284.6797,598.75,288.6797,608.75,292.6797,604.75,288.6797" style="stroke:#181818;stroke-width:1.0;"/><text fill="#000000" font-family="sans-serif" font-size="13" lengthAdjust="spacing" textLength="61" x="604.75" y="270.8232">Insert Item</text><!--SRC=[hL8xJyCm4DxzAqxTauc90Qaj0MMh5Fw0bPnHX5-zNDhoxp6DGmYbaWSF7kxXxt5ttBD6g63lZ45g4GvQid9ae81Nj4YI4PxHIDk5JCEEK96pl0wsteV4jklWGAuRMuOt1pivVE2r4OyZse1T11hBU67GU48jX9V4VTjx6J0srOMHhDGRa0Fi7-hGII_QdSl6AJvBmkPpO3H3EJTEyHfaBUeALStUPclbR6poLIv_RgYMKa2xoxHJAYDJG5ipnK4sIAU-nJIcwSyDovIEI4AaJncAfto3XCV_RqMyanlzdLe-zcnMmgQYbRYY-liU5nE_i_aOK-Idh3zA_wCvJMmIVaQXjHsGuYJHTZzFV040]--></g></svg>