<?xml version="1.0" encoding="us-ascii" standalone="no"?><svg xmlns="http://www.w3.org/2000/svg" xmlns:xlink="http://www.w3.org/1999/xlink" contentStyleType="text/css" height="351px" preserveAspectRatio="none" style="width:882px;height:351px;background:#FFFFFF;" version="1.1" viewBox="0 0 882 351" width="882px" zoomAndPan="magnify"><defs/><g><text fill="#000000" font-family="sans-serif" font-size="14" font-weight="bold" lengthAdjust="spacing" textLength="854" x="10" y="29.5332">E Commerce Platform - Generate Demand - Storefront - Storefront App - Add Product To Basket - Sequence - Context level</text><rect fill="none" height="174.1094" style="stroke:#000000;stroke-width:1.5;" width="503" x="247.75" y="123.5703"/><rect fill="none" height="111.4063" style="stroke:#000000;stroke-width:1.5;" width="368" x="372.75" y="179.2734"/><rect fill="none" height="48.7031" style="stroke:#000000;stroke-width:1.5;" width="250" x="480.75" y="234.9766"/><line style="stroke:#181818;stroke-width:0.5;stroke-dasharray:5.0,5.0;" x1="151.25" x2="151.25" y1="76.2188" y2="314.6797"/><line style="stroke:#181818;stroke-width:0.5;stroke-dasharray:5.0,5.0;" x1="310.75" x2="310.75" y1="76.2188" y2="314.6797"/><line style="stroke:#181818;stroke-width:0.5;stroke-dasharray:5.0,5.0;" x1="431.75" x2="431.75" y1="76.2188" y2="314.6797"/><line style="stroke:#181818;stroke-width:0.5;stroke-dasharray:5.0,5.0;" x1="544.75" x2="544.75" y1="76.2188" y2="314.6797"/><line style="stroke:#181818;stroke-width:0.5;stroke-dasharray:5.0,5.0;" x1="664.75" x2="664.75" y1="76.2188" y2="314.6797"/><rect fill="#E2E2F0" height="31.6094" rx="2.5" ry="2.5" style="stroke:#181818;stroke-width:0.5;" width="65" x="119.25" y="43.6094"/><text fill="#000000" font-family="sans-serif" font-size="14" lengthAdjust="spacing" textLength="51" x="126.25" y="65.1426">External</text><rect fill="#E2E2F0" height="31.6094" rx="2.5" ry="2.5" style="stroke:#181818;stroke-width:0.5;" width="65" x="119.25" y="313.6797"/><text fill="#000000" font-family="sans-serif" font-size="14" lengthAdjust="spacing" textLength="51" x="126.25" y="335.2129">External</text><rect fill="#E2E2F0" height="31.6094" rx="2.5" ry="2.5" style="stroke:#181818;stroke-width:0.5;" width="106" x="257.75" y="43.6094"/><text fill="#000000" font-family="sans-serif" font-size="14" lengthAdjust="spacing" textLength="92" x="264.75" y="65.1426">Storefront App</text><rect fill="#E2E2F0" height="31.6094" rx="2.5" ry="2.5" style="stroke:#181818;stroke-width:0.5;" width="106" x="257.75" y="313.6797"/><text fill="#000000" font-family="sans-serif" font-size="14" lengthAdjust="spacing" textLength="92" x="264.75" y="335.2129">Storefront App</text><rect fill="#E2E2F0" height="31.6094" rx="2.5" ry="2.5" style="stroke:#181818;stroke-width:0.5;" width="98" x="382.75" y="43.6094"/><text fill="#000000" font-family="sans-serif" font-size="14" lengthAdjust="spacing" textLength="84" x="389.75" y="65.1426">Storefront Bff</text><rect fill="#E2E2F0" height="31.6094" rx="2.5" ry="2.5" style="stroke:#181818;stroke-width:0.5;" width="98" x="382.75" y="313.6797"/><text fill="#000000" font-family="sans-serif" font-size="14" lengthAdjust="spacing" textLength="84" x="389.75" y="335.2129">Storefront Bff</text><rect fill="#E2E2F0" height="31.6094" rx="2.5" ry="2.5" style="stroke:#181818;stroke-width:0.5;" width="108" x="490.75" y="43.6094"/><text fill="#000000" font-family="sans-serif" font-size="14" lengthAdjust="spacing" textLength="94" x="497.75" y="65.1426">Basket Service</text><rect fill="#E2E2F0" height="31.6094" rx="2.5" ry="2.5" style="stroke:#181818;stroke-width:0.5;" width="108" x="490.75" y="313.6797"/><text fill="#000000" font-family="sans-serif" font-size="14" lengthAdjust="spacing" textLength="94" x="497.75" y="335.2129">Basket Service</text><rect fill="#E2E2F0" height="31.6094" rx="2.5" ry="2.5" style="stroke:#181818;stroke-width:0.5;" width="112" x="608.75" y="43.6094"/><text fill="#000000" font-family="sans-serif" font-size="14" lengthAdjust="spacing" textLength="98" x="615.75" y="65.1426">..BasketService</text><rect fill="#E2E2F0" height="31.6094" rx="2.5" ry="2.5" style="stroke:#181818;stroke-width:0.5;" width="112" x="608.75" y="313.6797"/><text fill="#000000" font-family="sans-serif" font-size="14" lengthAdjust="spacing" textLength="98" x="615.75" y="335.2129">..BasketService</text><polygon fill="#181818" points="298.75,104.5703,308.75,108.5703,298.75,112.5703,302.75,108.5703" style="stroke:#181818;stroke-width:1.0;"/><line style="stroke:#181818;stroke-width:1.0;" x1="151.75" x2="304.75" y1="108.5703" y2="108.5703"/><text fill="#000000" font-family="sans-serif" font-size="13" lengthAdjust="spacing" textLength="135" x="158.75" y="103.7139">Add Product To Basket</text><path d="M247.75,123.5703 L436.75,123.5703 L436.75,131.9219 L426.75,141.9219 L247.75,141.9219 L247.75,123.5703 " fill="#EEEEEE" style="stroke:#000000;stroke-width:1.5;"/><rect fill="none" height="174.1094" style="stroke:#000000;stroke-width:1.5;" width="503" x="247.75" y="123.5703"/><text fill="#000000" font-family="sans-serif" font-size="13" font-weight="bold" lengthAdjust="spacing" textLength="144" x="262.75" y="138.0654">Add Product To Basket</text><polygon fill="#181818" points="419.75,160.2734,429.75,164.2734,419.75,168.2734,423.75,164.2734" style="stroke:#181818;stroke-width:1.0;"/><line style="stroke:#181818;stroke-width:1.0;" x1="310.75" x2="425.75" y1="164.2734" y2="164.2734"/><text fill="#000000" font-family="sans-serif" font-size="13" lengthAdjust="spacing" textLength="97" x="317.75" y="159.417">Add Basket Item</text><path d="M372.75,179.2734 L520.75,179.2734 L520.75,187.625 L510.75,197.625 L372.75,197.625 L372.75,179.2734 " fill="#EEEEEE" style="stroke:#000000;stroke-width:1.5;"/><rect fill="none" height="111.4063" style="stroke:#000000;stroke-width:1.5;" width="368" x="372.75" y="179.2734"/><text fill="#000000" font-family="sans-serif" font-size="13" font-weight="bold" lengthAdjust="spacing" textLength="103" x="387.75" y="193.7686">Add Basket Item</text><polygon fill="#181818" points="652.75,215.9766,662.75,219.9766,652.75,223.9766,656.75,219.9766" style="stroke:#181818;stroke-width:1.0;"/><line style="stroke:#181818;stroke-width:1.0;" x1="431.75" x2="658.75" y1="219.9766" y2="219.9766"/><text fill="#000000" font-family="sans-serif" font-size="13" lengthAdjust="spacing" textLength="52" x="438.75" y="215.1201">Add Item</text><path d="M480.75,234.9766 L582.75,234.9766 L582.75,243.3281 L572.75,253.3281 L480.75,253.3281 L480.75,234.9766 " fill="#EEEEEE" style="stroke:#000000;stroke-width:1.5;"/><rect fill="none" height="48.7031" style="stroke:#000000;stroke-width:1.5;" width="250" x="480.75" y="234.9766"/><text fill="#000000" font-family="sans-serif" font-size="13" font-weight="bold" lengthAdjust="spacing" textLength="57" x="495.75" y="249.4717">Add Item</text><polygon fill="#181818" points="555.75,271.6797,545.75,275.6797,555.75,279.6797,551.75,275.6797" style="stroke:#181818;stroke-width:1.0;"/><line style="stroke:#181818;stroke-width:1.0;" x1="549.75" x2="663.75" y1="275.6797" y2="275.6797"/><text fill="#000000" font-family="sans-serif" font-size="13" lengthAdjust="spacing" textLength="61" x="561.75" y="270.8232">Insert Item</text><!--SRC=[hPB1ReCm38RlUGghTpZjjCEajcCJjqhi1I9Y9hIGCCUqtTlNXJ16kqeSEEHWn_a__tQuPekGmTut3LA9SB2QAqyD9F2E3aapmYissXd95Em9A_AEvy6sRIMnDGOEv4rNCdnusEdmXNqXVdVeH3iHZ6CyCrWyebMgrSHrMRTQD3RPcP6SjXlG0VPFkLJIc_MdjF0LdpHXyHCOcv2EXKCy5vatrKjbexVHMZeQ6tobqvixr7GbQWz9kwfQaIHgSr8SP85qh4jSHXhUt566T5HIQlcK8NbPRv3m_FzVKP_ak_R1tNhqrQp8fgALkABy-Xyd4t-pwn6b_NI-oDZ43RqFRokNU5_oTmIPku0KtQ4plqTT0000]--></g></svg>