<?xml version="1.0" encoding="us-ascii" standalone="no"?><svg xmlns="http://www.w3.org/2000/svg" xmlns:xlink="http://www.w3.org/1999/xlink" contentStyleType="text/css" height="414px" preserveAspectRatio="none" style="width:797px;height:414px;background:#FFFFFF;" version="1.1" viewBox="0 0 797 414" width="797px" zoomAndPan="magnify"><defs/><g><text fill="#000000" font-family="sans-serif" font-size="14" font-weight="bold" lengthAdjust="spacing" textLength="769" x="10" y="29.5332">E Commerce Platform - Deliver - Payments - Payment Provider - Process Payment - Sequence - Container level</text><rect fill="#FFFFFF" height="356.6797" style="stroke:#181818;stroke-width:0.5;" width="309.5" x="391.5" y="44.6094"/><text fill="#000000" font-family="sans-serif" font-size="13" font-weight="bold" lengthAdjust="spacing" textLength="108" x="492.25" y="58.1045">Payment Service</text><rect fill="none" height="141.7578" style="stroke:#000000;stroke-width:1.5;" width="561.5" x="155.5" y="175.9219"/><rect fill="none" height="79.0547" style="stroke:#000000;stroke-width:1.5;" width="321.5" x="385.5" y="231.625"/><line style="stroke:#181818;stroke-width:0.5;stroke-dasharray:5.0,5.0;" x1="100" x2="100" y1="128.5703" y2="334.6797"/><line style="stroke:#181818;stroke-width:0.5;stroke-dasharray:5.0,5.0;" x1="228.5" x2="228.5" y1="128.5703" y2="334.6797"/><line style="stroke:#181818;stroke-width:0.5;stroke-dasharray:5.0,5.0;" x1="412.5" x2="412.5" y1="128.5703" y2="334.6797"/><line style="stroke:#181818;stroke-width:0.5;stroke-dasharray:5.0,5.0;" x1="565" x2="565" y1="128.5703" y2="334.6797"/><line style="stroke:#181818;stroke-width:0.5;stroke-dasharray:5.0,5.0;" x1="653" x2="653" y1="128.5703" y2="334.6797"/><rect fill="#E2E2F0" height="31.6094" rx="2.5" ry="2.5" style="stroke:#181818;stroke-width:0.5;" width="65" x="68" y="95.9609"/><text fill="#000000" font-family="sans-serif" font-size="14" lengthAdjust="spacing" textLength="51" x="75" y="117.4941">External</text><rect fill="#E2E2F0" height="31.6094" rx="2.5" ry="2.5" style="stroke:#181818;stroke-width:0.5;" width="65" x="68" y="333.6797"/><text fill="#000000" font-family="sans-serif" font-size="14" lengthAdjust="spacing" textLength="51" x="75" y="355.2129">External</text><rect fill="#E2E2F0" height="31.6094" rx="2.5" ry="2.5" style="stroke:#181818;stroke-width:0.5;" width="126" x="165.5" y="95.9609"/><text fill="#000000" font-family="sans-serif" font-size="14" lengthAdjust="spacing" textLength="112" x="172.5" y="117.4941">Payment Provider</text><rect fill="#E2E2F0" height="31.6094" rx="2.5" ry="2.5" style="stroke:#181818;stroke-width:0.5;" width="126" x="165.5" y="333.6797"/><text fill="#000000" font-family="sans-serif" font-size="14" lengthAdjust="spacing" textLength="112" x="172.5" y="355.2129">Payment Provider</text><rect fill="#E2E2F0" height="31.6094" rx="2.5" ry="2.5" style="stroke:#181818;stroke-width:0.5;" width="34" x="395.5" y="95.9609"/><text fill="#000000" font-family="sans-serif" font-size="14" lengthAdjust="spacing" textLength="20" x="402.5" y="117.4941">Api</text><rect fill="#E2E2F0" height="31.6094" rx="2.5" ry="2.5" style="stroke:#181818;stroke-width:0.5;" width="34" x="395.5" y="333.6797"/><text fill="#000000" font-family="sans-serif" font-size="14" lengthAdjust="spacing" textLength="20" x="402.5" y="355.2129">Api</text><text fill="#000000" font-family="sans-serif" font-size="14" lengthAdjust="spacing" textLength="61" x="532" y="125.4941">Database</text><path d="M547.5,74.9609 C547.5,64.9609 565.5,64.9609 565.5,64.9609 C565.5,64.9609 583.5,64.9609 583.5,74.9609 L583.5,100.9609 C583.5,110.9609 565.5,110.9609 565.5,110.9609 C565.5,110.9609 547.5,110.9609 547.5,100.9609 L547.5,74.9609 " fill="#E2E2F0" style="stroke:#181818;stroke-width:1.5;"/><path d="M547.5,74.9609 C547.5,84.9609 565.5,84.9609 565.5,84.9609 C565.5,84.9609 583.5,84.9609 583.5,74.9609 " fill="none" style="stroke:#181818;stroke-width:1.5;"/><text fill="#000000" font-family="sans-serif" font-size="14" lengthAdjust="spacing" textLength="61" x="532" y="348.2129">Database</text><path d="M547.5,361.2891 C547.5,351.2891 565.5,351.2891 565.5,351.2891 C565.5,351.2891 583.5,351.2891 583.5,361.2891 L583.5,387.2891 C583.5,397.2891 565.5,397.2891 565.5,397.2891 C565.5,397.2891 547.5,397.2891 547.5,387.2891 L547.5,361.2891 " fill="#E2E2F0" style="stroke:#181818;stroke-width:1.5;"/><path d="M547.5,361.2891 C547.5,371.2891 565.5,371.2891 565.5,371.2891 C565.5,371.2891 583.5,371.2891 583.5,361.2891 " fill="none" style="stroke:#181818;stroke-width:1.5;"/><path d="M614,100.9609 L692,100.9609 C697,100.9609 697,114.7656 697,114.7656 C697,114.7656 697,128.5703 692,128.5703 L614,128.5703 C609,128.5703 609,114.7656 609,114.7656 C609,114.7656 609,100.9609 614,100.9609 " fill="#E2E2F0" style="stroke:#181818;stroke-width:0.5;"/><path d="M692,100.9609 C687,100.9609 687,114.7656 687,114.7656 C687,128.5703 692,128.5703 692,128.5703 " fill="none" style="stroke:#181818;stroke-width:0.5;"/><text fill="#000000" font-family="sans-serif" font-size="14" lengthAdjust="spacing" textLength="68" x="614" y="120.4941">Messaging</text><path d="M614,333.6797 L692,333.6797 C697,333.6797 697,347.4844 697,347.4844 C697,347.4844 697,361.2891 692,361.2891 L614,361.2891 C609,361.2891 609,347.4844 609,347.4844 C609,347.4844 609,333.6797 614,333.6797 " fill="#E2E2F0" style="stroke:#181818;stroke-width:0.5;"/><path d="M692,333.6797 C687,333.6797 687,347.4844 687,347.4844 C687,361.2891 692,361.2891 692,361.2891 " fill="none" style="stroke:#181818;stroke-width:0.5;"/><text fill="#000000" font-family="sans-serif" font-size="14" lengthAdjust="spacing" textLength="68" x="614" y="353.2129">Messaging</text><polygon fill="#181818" points="216.5,156.9219,226.5,160.9219,216.5,164.9219,220.5,160.9219" style="stroke:#181818;stroke-width:1.0;"/><line style="stroke:#181818;stroke-width:1.0;" x1="100.5" x2="222.5" y1="160.9219" y2="160.9219"/><text fill="#000000" font-family="sans-serif" font-size="13" lengthAdjust="spacing" textLength="104" x="107.5" y="156.0654">Process Payment</text><path d="M155.5,175.9219 L309.5,175.9219 L309.5,184.2734 L299.5,194.2734 L155.5,194.2734 L155.5,175.9219 " fill="#EEEEEE" style="stroke:#000000;stroke-width:1.5;"/><rect fill="none" height="141.7578" style="stroke:#000000;stroke-width:1.5;" width="561.5" x="155.5" y="175.9219"/><text fill="#000000" font-family="sans-serif" font-size="13" font-weight="bold" lengthAdjust="spacing" textLength="109" x="170.5" y="190.417">Process Payment</text><polygon fill="#181818" points="400.5,212.625,410.5,216.625,400.5,220.625,404.5,216.625" style="stroke:#181818;stroke-width:1.0;"/><line style="stroke:#181818;stroke-width:1.0;" x1="228.5" x2="406.5" y1="216.625" y2="216.625"/><text fill="#000000" font-family="sans-serif" font-size="13" lengthAdjust="spacing" textLength="160" x="235.5" y="211.7686">Post Payment Result Event</text><path d="M385.5,231.625 L599.5,231.625 L599.5,239.9766 L589.5,249.9766 L385.5,249.9766 L385.5,231.625 " fill="#EEEEEE" style="stroke:#000000;stroke-width:1.5;"/><rect fill="none" height="79.0547" style="stroke:#000000;stroke-width:1.5;" width="321.5" x="385.5" y="231.625"/><text fill="#000000" font-family="sans-serif" font-size="13" font-weight="bold" lengthAdjust="spacing" textLength="169" x="400.5" y="246.1201">Post Payment Result Event</text><polygon fill="#181818" points="553.5,268.3281,563.5,272.3281,553.5,276.3281,557.5,272.3281" style="stroke:#181818;stroke-width:1.0;"/><line style="stroke:#181818;stroke-width:1.0;" x1="412.5" x2="559.5" y1="272.3281" y2="272.3281"/><text fill="#000000" font-family="sans-serif" font-size="13" lengthAdjust="spacing" textLength="129" x="419.5" y="267.4717">Insert Payment Result</text><polygon fill="#181818" points="641,298.6797,651,302.6797,641,306.6797,645,302.6797" style="stroke:#181818;stroke-width:1.0;"/><line style="stroke:#181818;stroke-width:1.0;" x1="412.5" x2="647" y1="302.6797" y2="302.6797"/><text fill="#000000" font-family="sans-serif" font-size="13" lengthAdjust="spacing" textLength="163" x="419.5" y="297.8232">Send Payment Result Event</text><!--SRC=[pLCzRuCm4DtzAqvqXgbJXqfLGgKCbL0PEZjmIIqPcze7IVvzBmIJXgHIfNWe4jAPExqFtuCKQOGS5hPfq5K8XPQqiQw159QeLO-Egq8U6ZJapoKKplQgFdMThT3xgPL2YLyT6aPB6TYGL8O7DVQeXMYb8rMfLl9aaky9dP4w0UbXyRWoV7pLTfULTaCxwR0yUCB6Ps7mTBu4cKiQmFBWA1ZAHZjPC7F5CJO2Z11hkp-Zb-XwLM423n-VYb00FnSoNbfr9_D8aKrtvZC67PXgIN8jFKAo7AluN05v8EG5TipsnekLMsMsyUacQ86c1hvh8SJV8m3fSuGTmzCylMBhRDTUVOr0TPVWsz4uohUUfZ_l7Nsd2VB-Xv5V-z75n3OOyiWkLyQZc_lu_mwcYBE5yfZoculWnl2ARm00]--></g></svg>