<?xml version="1.0" encoding="us-ascii" standalone="no"?><svg xmlns="http://www.w3.org/2000/svg" xmlns:xlink="http://www.w3.org/1999/xlink" contentStyleType="text/css" height="351px" preserveAspectRatio="none" style="width:1155px;height:351px;background:#FFFFFF;" version="1.1" viewBox="0 0 1155 351" width="1155px" zoomAndPan="magnify"><defs/><g><text fill="#000000" font-family="sans-serif" font-size="14" font-weight="bold" lengthAdjust="spacing" textLength="1127" x="10" y="29.5332">E Commerce Platform - Generate Demand - Search And Browse - Search Service - Message Handler - Handle Product Created Event - Sequence - Container level</text><rect fill="#FFFFFF" height="293.9766" style="stroke:#181818;stroke-width:0.5;" width="209" x="489.5" y="44.6094"/><text fill="#000000" font-family="sans-serif" font-size="13" font-weight="bold" lengthAdjust="spacing" textLength="97" x="545.5" y="58.1045">Search Service</text><rect fill="#FFFFFF" height="293.9766" style="stroke:#181818;stroke-width:0.5;" width="107" x="710.5" y="44.6094"/><text fill="#000000" font-family="sans-serif" font-size="13" font-weight="bold" lengthAdjust="spacing" textLength="101" x="713.5" y="58.1045">Product Service</text><rect fill="none" height="79.0547" style="stroke:#000000;stroke-width:1.5;" width="334.5" x="483.5" y="175.9219"/><line style="stroke:#181818;stroke-width:0.5;stroke-dasharray:5.0,5.0;" x1="357" x2="357" y1="128.5703" y2="271.9766"/><line style="stroke:#181818;stroke-width:0.5;stroke-dasharray:5.0,5.0;" x1="555.5" x2="555.5" y1="128.5703" y2="271.9766"/><line style="stroke:#181818;stroke-width:0.5;stroke-dasharray:5.0,5.0;" x1="660.5" x2="660.5" y1="128.5703" y2="271.9766"/><line style="stroke:#181818;stroke-width:0.5;stroke-dasharray:5.0,5.0;" x1="764" x2="764" y1="128.5703" y2="271.9766"/><rect fill="#E2E2F0" height="31.6094" rx="2.5" ry="2.5" style="stroke:#181818;stroke-width:0.5;" width="65" x="325" y="95.9609"/><text fill="#000000" font-family="sans-serif" font-size="14" lengthAdjust="spacing" textLength="51" x="332" y="117.4941">External</text><rect fill="#E2E2F0" height="31.6094" rx="2.5" ry="2.5" style="stroke:#181818;stroke-width:0.5;" width="65" x="325" y="270.9766"/><text fill="#000000" font-family="sans-serif" font-size="14" lengthAdjust="spacing" textLength="51" x="332" y="292.5098">External</text><rect fill="#E2E2F0" height="31.6094" rx="2.5" ry="2.5" style="stroke:#181818;stroke-width:0.5;" width="124" x="493.5" y="95.9609"/><text fill="#000000" font-family="sans-serif" font-size="14" lengthAdjust="spacing" textLength="110" x="500.5" y="117.4941">Message Handler</text><rect fill="#E2E2F0" height="31.6094" rx="2.5" ry="2.5" style="stroke:#181818;stroke-width:0.5;" width="124" x="493.5" y="270.9766"/><text fill="#000000" font-family="sans-serif" font-size="14" lengthAdjust="spacing" textLength="110" x="500.5" y="292.5098">Message Handler</text><text fill="#000000" font-family="sans-serif" font-size="14" lengthAdjust="spacing" textLength="61" x="627.5" y="125.4941">Database</text><path d="M643,74.9609 C643,64.9609 661,64.9609 661,64.9609 C661,64.9609 679,64.9609 679,74.9609 L679,100.9609 C679,110.9609 661,110.9609 661,110.9609 C661,110.9609 643,110.9609 643,100.9609 L643,74.9609 " fill="#E2E2F0" style="stroke:#181818;stroke-width:1.5;"/><path d="M643,74.9609 C643,84.9609 661,84.9609 661,84.9609 C661,84.9609 679,84.9609 679,74.9609 " fill="none" style="stroke:#181818;stroke-width:1.5;"/><text fill="#000000" font-family="sans-serif" font-size="14" lengthAdjust="spacing" textLength="61" x="627.5" y="285.5098">Database</text><path d="M643,298.5859 C643,288.5859 661,288.5859 661,288.5859 C661,288.5859 679,288.5859 679,298.5859 L679,324.5859 C679,334.5859 661,334.5859 661,334.5859 C661,334.5859 643,334.5859 643,324.5859 L643,298.5859 " fill="#E2E2F0" style="stroke:#181818;stroke-width:1.5;"/><path d="M643,298.5859 C643,308.5859 661,308.5859 661,308.5859 C661,308.5859 679,308.5859 679,298.5859 " fill="none" style="stroke:#181818;stroke-width:1.5;"/><path d="M725,100.9609 L803,100.9609 C808,100.9609 808,114.7656 808,114.7656 C808,114.7656 808,128.5703 803,128.5703 L725,128.5703 C720,128.5703 720,114.7656 720,114.7656 C720,114.7656 720,100.9609 725,100.9609 " fill="#E2E2F0" style="stroke:#181818;stroke-width:0.5;"/><path d="M803,100.9609 C798,100.9609 798,114.7656 798,114.7656 C798,128.5703 803,128.5703 803,128.5703 " fill="none" style="stroke:#181818;stroke-width:0.5;"/><text fill="#000000" font-family="sans-serif" font-size="14" lengthAdjust="spacing" textLength="68" x="725" y="120.4941">Messaging</text><path d="M725,270.9766 L803,270.9766 C808,270.9766 808,284.7813 808,284.7813 C808,284.7813 808,298.5859 803,298.5859 L725,298.5859 C720,298.5859 720,284.7813 720,284.7813 C720,284.7813 720,270.9766 725,270.9766 " fill="#E2E2F0" style="stroke:#181818;stroke-width:0.5;"/><path d="M803,270.9766 C798,270.9766 798,284.7813 798,284.7813 C798,298.5859 803,298.5859 803,298.5859 " fill="none" style="stroke:#181818;stroke-width:0.5;"/><text fill="#000000" font-family="sans-serif" font-size="14" lengthAdjust="spacing" textLength="68" x="725" y="290.5098">Messaging</text><polygon fill="#181818" points="543.5,156.9219,553.5,160.9219,543.5,164.9219,547.5,160.9219" style="stroke:#181818;stroke-width:1.0;"/><line style="stroke:#181818;stroke-width:1.0;" x1="357.5" x2="549.5" y1="160.9219" y2="160.9219"/><text fill="#000000" font-family="sans-serif" font-size="13" lengthAdjust="spacing" textLength="174" x="364.5" y="156.0654">Handle Product Created Event</text><path d="M483.5,175.9219 L719.5,175.9219 L719.5,184.2734 L709.5,194.2734 L483.5,194.2734 L483.5,175.9219 " fill="#EEEEEE" style="stroke:#000000;stroke-width:1.5;"/><rect fill="none" height="79.0547" style="stroke:#000000;stroke-width:1.5;" width="334.5" x="483.5" y="175.9219"/><text fill="#000000" font-family="sans-serif" font-size="13" font-weight="bold" lengthAdjust="spacing" textLength="191" x="498.5" y="190.417">Handle Product Created Event</text><polygon fill="#181818" points="752,212.625,762,216.625,752,220.625,756,216.625" style="stroke:#181818;stroke-width:1.0;"/><line style="stroke:#181818;stroke-width:1.0;" x1="555.5" x2="758" y1="216.625" y2="216.625"/><text fill="#000000" font-family="sans-serif" font-size="13" lengthAdjust="spacing" textLength="179" x="562.5" y="211.7686">Receive Product Created Event</text><polygon fill="#181818" points="649,242.9766,659,246.9766,649,250.9766,653,246.9766" style="stroke:#181818;stroke-width:1.0;"/><line style="stroke:#181818;stroke-width:1.0;" x1="555.5" x2="655" y1="246.9766" y2="246.9766"/><text fill="#000000" font-family="sans-serif" font-size="13" lengthAdjust="spacing" textLength="81" x="562.5" y="242.1201">Insert Product</text><!--SRC=[pPCzJyCm48Pt_ufJc9k9YG49qW0TAbLaOBucrzPIOXVxafP_ppMnWT8FCL14biHd-zxtdhkmvfeWXyms3RcIO5OZBwnhO0IFPCWX4uofGLD9f21qvGhkP77lxCRJPwmWr-bo5vYIzxWaU98xDJc935ymSxPgIuRCaMIj8E_8S9_XjINJtysiOTGY2pLrL2krHiUwr6kKaqc-PN86wmJGGtOzCR9ygEqcBUo2D-YeUFDCZK_ZmM6jrDnk8Tatci3LoqepAP1dJ-MR_ruiZtmYdZJ26TYaGt81Ct0vS3Ji1-tqeqoV1hKWrhkfa76E0ZSPXwyBUuWoYgInmae5Oh5Xnv19orgAiBHPdh0uz3eaIiDxOdPxoDgQAHgflf51EB0R3fza9g9V3Fzy761q-sVzX9kpmw-MphRhyqV-pEfHB9Vjd-1vff9qzp-B_-t_IygT64-EOxMx-LNg7G00]--></g></svg>