<?xml version="1.0" encoding="us-ascii" standalone="no"?><svg xmlns="http://www.w3.org/2000/svg" xmlns:xlink="http://www.w3.org/1999/xlink" contentStyleType="text/css" height="351px" preserveAspectRatio="none" style="width:606px;height:351px;background:#FFFFFF;" version="1.1" viewBox="0 0 606 351" width="606px" zoomAndPan="magnify"><defs/><g><text fill="#000000" font-family="sans-serif" font-size="14" font-weight="bold" lengthAdjust="spacing" textLength="578" x="10" y="29.5332">Internet Banking - API Application - Change Password - Sequence - Container level</text><rect fill="#FFFFFF" height="293.9766" style="stroke:#181818;stroke-width:0.5;" width="252.5" x="149.5" y="44.6094"/><text fill="#000000" font-family="sans-serif" font-size="13" font-weight="bold" lengthAdjust="spacing" textLength="105" x="223.25" y="58.1045">Internet Banking</text><rect fill="none" height="79.0547" style="stroke:#000000;stroke-width:1.5;" width="404.5" x="143.5" y="175.9219"/><line style="stroke:#181818;stroke-width:0.5;stroke-dasharray:5.0,5.0;" x1="78" x2="78" y1="128.5703" y2="271.9766"/><line style="stroke:#181818;stroke-width:0.5;stroke-dasharray:5.0,5.0;" x1="207.5" x2="207.5" y1="128.5703" y2="271.9766"/><line style="stroke:#181818;stroke-width:0.5;stroke-dasharray:5.0,5.0;" x1="364" x2="364" y1="128.5703" y2="271.9766"/><line style="stroke:#181818;stroke-width:0.5;stroke-dasharray:5.0,5.0;" x1="486" x2="486" y1="128.5703" y2="271.9766"/><rect fill="#E2E2F0" height="31.6094" rx="2.5" ry="2.5" style="stroke:#181818;stroke-width:0.5;" width="65" x="46" y="95.9609"/><text fill="#000000" font-family="sans-serif" font-size="14" lengthAdjust="spacing" textLength="51" x="53" y="117.4941">External</text><rect fill="#E2E2F0" height="31.6094" rx="2.5" ry="2.5" style="stroke:#181818;stroke-width:0.5;" width="65" x="46" y="270.9766"/><text fill="#000000" font-family="sans-serif" font-size="14" lengthAdjust="spacing" textLength="51" x="53" y="292.5098">External</text><rect fill="#E2E2F0" height="31.6094" rx="2.5" ry="2.5" style="stroke:#181818;stroke-width:0.5;" width="108" x="153.5" y="95.9609"/><text fill="#000000" font-family="sans-serif" font-size="14" lengthAdjust="spacing" textLength="94" x="160.5" y="117.4941">API Application</text><rect fill="#E2E2F0" height="31.6094" rx="2.5" ry="2.5" style="stroke:#181818;stroke-width:0.5;" width="108" x="153.5" y="270.9766"/><text fill="#000000" font-family="sans-serif" font-size="14" lengthAdjust="spacing" textLength="94" x="160.5" y="292.5098">API Application</text><text fill="#000000" font-family="sans-serif" font-size="14" lengthAdjust="spacing" textLength="61" x="331" y="125.4941">Database</text><path d="M346.5,74.9609 C346.5,64.9609 364.5,64.9609 364.5,64.9609 C364.5,64.9609 382.5,64.9609 382.5,74.9609 L382.5,100.9609 C382.5,110.9609 364.5,110.9609 364.5,110.9609 C364.5,110.9609 346.5,110.9609 346.5,100.9609 L346.5,74.9609 " fill="#E2E2F0" style="stroke:#181818;stroke-width:1.5;"/><path d="M346.5,74.9609 C346.5,84.9609 364.5,84.9609 364.5,84.9609 C364.5,84.9609 382.5,84.9609 382.5,74.9609 " fill="none" style="stroke:#181818;stroke-width:1.5;"/><text fill="#000000" font-family="sans-serif" font-size="14" lengthAdjust="spacing" textLength="61" x="331" y="285.5098">Database</text><path d="M346.5,298.5859 C346.5,288.5859 364.5,288.5859 364.5,288.5859 C364.5,288.5859 382.5,288.5859 382.5,298.5859 L382.5,324.5859 C382.5,334.5859 364.5,334.5859 364.5,334.5859 C364.5,334.5859 346.5,334.5859 346.5,324.5859 L346.5,298.5859 " fill="#E2E2F0" style="stroke:#181818;stroke-width:1.5;"/><path d="M346.5,298.5859 C346.5,308.5859 364.5,308.5859 364.5,308.5859 C364.5,308.5859 382.5,308.5859 382.5,298.5859 " fill="none" style="stroke:#181818;stroke-width:1.5;"/><rect fill="#E2E2F0" height="31.6094" rx="2.5" ry="2.5" style="stroke:#181818;stroke-width:0.5;" width="103" x="435" y="95.9609"/><text fill="#000000" font-family="sans-serif" font-size="14" lengthAdjust="spacing" textLength="89" x="442" y="117.4941">E-Mail System</text><rect fill="#E2E2F0" height="31.6094" rx="2.5" ry="2.5" style="stroke:#181818;stroke-width:0.5;" width="103" x="435" y="270.9766"/><text fill="#000000" font-family="sans-serif" font-size="14" lengthAdjust="spacing" textLength="89" x="442" y="292.5098">E-Mail System</text><polygon fill="#181818" points="195.5,156.9219,205.5,160.9219,195.5,164.9219,199.5,160.9219" style="stroke:#181818;stroke-width:1.0;"/><line style="stroke:#181818;stroke-width:1.0;" x1="78.5" x2="201.5" y1="160.9219" y2="160.9219"/><text fill="#000000" font-family="sans-serif" font-size="13" lengthAdjust="spacing" textLength="105" x="85.5" y="156.0654">Change Password</text><path d="M143.5,175.9219 L302.5,175.9219 L302.5,184.2734 L292.5,194.2734 L143.5,194.2734 L143.5,175.9219 " fill="#EEEEEE" style="stroke:#000000;stroke-width:1.5;"/><rect fill="none" height="79.0547" style="stroke:#000000;stroke-width:1.5;" width="404.5" x="143.5" y="175.9219"/><text fill="#000000" font-family="sans-serif" font-size="13" font-weight="bold" lengthAdjust="spacing" textLength="114" x="158.5" y="190.417">Change Password</text><polygon fill="#181818" points="352.5,212.625,362.5,216.625,352.5,220.625,356.5,216.625" style="stroke:#181818;stroke-width:1.0;"/><line style="stroke:#181818;stroke-width:1.0;" x1="207.5" x2="358.5" y1="216.625" y2="216.625"/><text fill="#000000" font-family="sans-serif" font-size="13" lengthAdjust="spacing" textLength="133" x="214.5" y="211.7686">Update User Password</text><polygon fill="#181818" points="474.5,242.9766,484.5,246.9766,474.5,250.9766,478.5,246.9766" style="stroke:#181818;stroke-width:1.0;"/><line style="stroke:#181818;stroke-width:1.0;" x1="207.5" x2="480.5" y1="246.9766" y2="246.9766"/><text fill="#000000" font-family="sans-serif" font-size="13" lengthAdjust="spacing" textLength="255" x="214.5" y="242.1201">Send Password Changed Notification E-Mail</text><!--SRC=[lPCnJyCm48Lt_ueZpCd4n83KbY9r04MAAkPhSaqj7DlO5zB-U-oagKewWA0YKtonl_Vyxd9Z7TODWiA3QHbyGumQXM39Yc2bcPmcXZdgDwbhI66Mhs1chP8biZGwL1Oxr3L1ZjvtnbMXKj1xIxga-D5eHgd9WQ8FKa9OT2nBQL4p9CjzvADA03qixdgv9sMwh31Rxj1HSV1CZS_6ZSDQY8tPGp9rby3jwquo2GZF5vs9wLvkBkjuBbVbXTe8FdApqoLy5aXde5wfGiODUeBayVZs1_w84AGh2BUS1fO-erGmWBwJMSQzOs8_JnVIXwk40_VJqH2rCwszg5v5xDUcnyI3tRKDlIHO-p2k_-dkh571HH5RV_gRXh0gU34ijoDk68Cu8q9y0W00]--></g></svg>