<?xml version="1.0" encoding="us-ascii" standalone="no"?><svg xmlns="http://www.w3.org/2000/svg" xmlns:xlink="http://www.w3.org/1999/xlink" contentStyleType="text/css" height="377px" preserveAspectRatio="none" style="width:689px;height:377px;background:#FFFFFF;" version="1.1" viewBox="0 0 689 377" width="689px" zoomAndPan="magnify"><defs/><g><text fill="#000000" font-family="sans-serif" font-size="14" font-weight="bold" lengthAdjust="spacing" textLength="661" x="10" y="29.5332">Pricing Service - Message Handler - Handle Purchase Order Updated Event - CONTAINER level</text><rect fill="#FFFFFF" height="327.0313" style="stroke:#181818;stroke-width:0.5;" width="224.5" x="257.75" y="44.6094"/><text fill="#000000" font-family="sans-serif" font-size="13" font-weight="bold" lengthAdjust="spacing" textLength="97" x="321.5" y="58.1045">Pricing Service</text><rect fill="#FFFFFF" height="327.0313" style="stroke:#181818;stroke-width:0.5;" width="102" x="530.75" y="44.6094"/><text fill="#000000" font-family="sans-serif" font-size="13" font-weight="bold" lengthAdjust="spacing" textLength="96" x="533.75" y="58.1045">Buying Service</text><rect fill="none" height="174.1094" style="stroke:#000000;stroke-width:1.5;" width="401" x="231.75" y="144.9219"/><rect fill="none" height="111.4063" style="stroke:#000000;stroke-width:1.5;" width="297" x="241.75" y="200.625"/><rect fill="none" height="48.7031" style="stroke:#000000;stroke-width:1.5;" width="236.5" x="251.75" y="256.3281"/><line style="stroke:#181818;stroke-width:0.5;stroke-dasharray:5.0,5.0;" x1="76.25" x2="76.25" y1="97.5703" y2="336.0313"/><line style="stroke:#181818;stroke-width:0.5;stroke-dasharray:5.0,5.0;" x1="323.75" x2="323.75" y1="97.5703" y2="336.0313"/><line style="stroke:#181818;stroke-width:0.5;stroke-dasharray:5.0,5.0;" x1="440.25" x2="440.25" y1="97.5703" y2="336.0313"/><line style="stroke:#181818;stroke-width:0.5;stroke-dasharray:5.0,5.0;" x1="581.75" x2="581.75" y1="97.5703" y2="336.0313"/><rect fill="#E2E2F0" height="31.6094" rx="2.5" ry="2.5" style="stroke:#181818;stroke-width:0.5;" width="65" x="44.25" y="64.9609"/><text fill="#000000" font-family="sans-serif" font-size="14" lengthAdjust="spacing" textLength="51" x="51.25" y="86.4941">External</text><rect fill="#E2E2F0" height="31.6094" rx="2.5" ry="2.5" style="stroke:#181818;stroke-width:0.5;" width="65" x="44.25" y="335.0313"/><text fill="#000000" font-family="sans-serif" font-size="14" lengthAdjust="spacing" textLength="51" x="51.25" y="356.5645">External</text><rect fill="#E2E2F0" height="31.6094" rx="2.5" ry="2.5" style="stroke:#181818;stroke-width:0.5;" width="124" x="261.75" y="64.9609"/><text fill="#000000" font-family="sans-serif" font-size="14" lengthAdjust="spacing" textLength="110" x="268.75" y="86.4941">Message Handler</text><rect fill="#E2E2F0" height="31.6094" rx="2.5" ry="2.5" style="stroke:#181818;stroke-width:0.5;" width="124" x="261.75" y="335.0313"/><text fill="#000000" font-family="sans-serif" font-size="14" lengthAdjust="spacing" textLength="110" x="268.75" y="356.5645">Message Handler</text><rect fill="#E2E2F0" height="31.6094" rx="2.5" ry="2.5" style="stroke:#181818;stroke-width:0.5;" width="75" x="403.25" y="64.9609"/><text fill="#000000" font-family="sans-serif" font-size="14" lengthAdjust="spacing" textLength="61" x="410.25" y="86.4941">Database</text><rect fill="#E2E2F0" height="31.6094" rx="2.5" ry="2.5" style="stroke:#181818;stroke-width:0.5;" width="75" x="403.25" y="335.0313"/><text fill="#000000" font-family="sans-serif" font-size="14" lengthAdjust="spacing" textLength="61" x="410.25" y="356.5645">Database</text><rect fill="#E2E2F0" height="31.6094" rx="2.5" ry="2.5" style="stroke:#181818;stroke-width:0.5;" width="82" x="540.75" y="64.9609"/><text fill="#000000" font-family="sans-serif" font-size="14" lengthAdjust="spacing" textLength="68" x="547.75" y="86.4941">Messaging</text><rect fill="#E2E2F0" height="31.6094" rx="2.5" ry="2.5" style="stroke:#181818;stroke-width:0.5;" width="82" x="540.75" y="335.0313"/><text fill="#000000" font-family="sans-serif" font-size="14" lengthAdjust="spacing" textLength="68" x="547.75" y="356.5645">Messaging</text><polygon fill="#181818" points="311.75,125.9219,321.75,129.9219,311.75,133.9219,315.75,129.9219" style="stroke:#181818;stroke-width:1.0;"/><line style="stroke:#181818;stroke-width:1.0;" x1="76.75" x2="317.75" y1="129.9219" y2="129.9219"/><text fill="#000000" font-family="sans-serif" font-size="13" lengthAdjust="spacing" textLength="223" x="83.75" y="125.0654">Handle Purchase Order Updated Event</text><path d="M231.75,144.9219 L520.75,144.9219 L520.75,153.2734 L510.75,163.2734 L231.75,163.2734 L231.75,144.9219 " fill="#EEEEEE" style="stroke:#000000;stroke-width:1.5;"/><rect fill="none" height="174.1094" style="stroke:#000000;stroke-width:1.5;" width="401" x="231.75" y="144.9219"/><text fill="#000000" font-family="sans-serif" font-size="13" font-weight="bold" lengthAdjust="spacing" textLength="244" x="246.75" y="159.417">Handle Purchase Order Updated Event</text><polygon fill="#181818" points="569.75,181.625,579.75,185.625,569.75,189.625,573.75,185.625" style="stroke:#181818;stroke-width:1.0;"/><line style="stroke:#181818;stroke-width:1.0;" x1="323.75" x2="575.75" y1="185.625" y2="185.625"/><text fill="#000000" font-family="sans-serif" font-size="13" lengthAdjust="spacing" textLength="228" x="330.75" y="180.7686">Receive Purchase Order Updated Event</text><path d="M241.75,200.625 L314.75,200.625 L314.75,208.9766 L304.75,218.9766 L241.75,218.9766 L241.75,200.625 " fill="#EEEEEE" style="stroke:#000000;stroke-width:1.5;"/><rect fill="none" height="111.4063" style="stroke:#000000;stroke-width:1.5;" width="297" x="241.75" y="200.625"/><text fill="#000000" font-family="sans-serif" font-size="13" font-weight="bold" lengthAdjust="spacing" textLength="28" x="256.75" y="215.1201">loop</text><text fill="#000000" font-family="sans-serif" font-size="11" font-weight="bold" lengthAdjust="spacing" textLength="204" x="329.75" y="214.0439">[For each Product in Purchase Order]</text><polygon fill="#181818" points="428.75,237.3281,438.75,241.3281,428.75,245.3281,432.75,241.3281" style="stroke:#181818;stroke-width:1.0;"/><line style="stroke:#181818;stroke-width:1.0;" x1="323.75" x2="434.75" y1="241.3281" y2="241.3281"/><text fill="#000000" font-family="sans-serif" font-size="13" lengthAdjust="spacing" textLength="93" x="330.75" y="236.4717">Select Products</text><path d="M251.75,256.3281 L312.75,256.3281 L312.75,264.6797 L302.75,274.6797 L251.75,274.6797 L251.75,256.3281 " fill="#EEEEEE" style="stroke:#000000;stroke-width:1.5;"/><rect fill="none" height="48.7031" style="stroke:#000000;stroke-width:1.5;" width="236.5" x="251.75" y="256.3281"/><text fill="#000000" font-family="sans-serif" font-size="13" font-weight="bold" lengthAdjust="spacing" textLength="16" x="266.75" y="270.8232">alt</text><text fill="#000000" font-family="sans-serif" font-size="11" font-weight="bold" lengthAdjust="spacing" textLength="109" x="327.75" y="269.7471">[Product Not Found]</text><polygon fill="#181818" points="428.75,293.0313,438.75,297.0313,428.75,301.0313,432.75,297.0313" style="stroke:#181818;stroke-width:1.0;"/><line style="stroke:#181818;stroke-width:1.0;" x1="323.75" x2="434.75" y1="297.0313" y2="297.0313"/><text fill="#000000" font-family="sans-serif" font-size="13" lengthAdjust="spacing" textLength="81" x="330.75" y="292.1748">Insert Product</text><!--SRC=[pPF1JiCm38RlUGfJpkk94mSaA9tOWMrQGPozrkiYfKcLkDtszXZMJR09hHCJebAaEd5-Vx-JNDKUomh1uCOr3A4YHejAiMP3CFKwrxQ4Z7ohSu81F5C8M18yeIqCUPdP_i6qyVaI0y745pB_MXV8L43QacN9IYRZb_lHE9s1ePQCKZLw5l4QPJbArqpUeea00oGt8olXqBXLdBa5hz1JjWbCLOXtYTjOgRbRGtH06S7rsr8pAP3lMva3-CzgQUAgYdnEKuEySBuwgjd9T-fnuYoZjkH3tEbrSiVr7f5nBZtvTQ6Ta29RW7XMdVE7PdE6SKdjIRBL_T6nh7qXwNzUCBYxOB_Xji_TKwLtJTqhyu9elOoUxh9Od55EkZr1RfohOUWy4EPBURMkQ786RGzs_Rd3qpTQ76PaI6Wxwg3Gx0COEnPVZIt-9_h81l9xseytiH_g7G00]--></g></svg>