<?xml version="1.0" encoding="us-ascii" standalone="no"?><svg xmlns="http://www.w3.org/2000/svg" xmlns:xlink="http://www.w3.org/1999/xlink" contentStyleType="text/css" height="507px" preserveAspectRatio="none" style="width:833px;height:507px;background:#FFFFFF;" version="1.1" viewBox="0 0 833 507" width="833px" zoomAndPan="magnify"><defs/><g><text fill="#000000" font-family="sans-serif" font-size="14" font-weight="bold" lengthAdjust="spacing" textLength="580" x="128" y="29.5332">TraderXExample - TraderX - Web Client - Create Trade - Sequence - Container level</text><rect fill="#FFFFFF" height="449.7344" style="stroke:#181818;stroke-width:0.5;" width="711" x="90" y="44.6094"/><text fill="#000000" font-family="sans-serif" font-size="13" font-weight="bold" lengthAdjust="spacing" textLength="51" x="420" y="58.1045">TraderX</text><rect fill="none" height="234.8125" style="stroke:#000000;stroke-width:1.5;" width="743" x="84" y="175.9219"/><rect fill="none" height="172.1094" style="stroke:#000000;stroke-width:1.5;" width="628.5" x="188.5" y="231.625"/><rect fill="none" height="79.0547" style="stroke:#000000;stroke-width:1.5;" width="363.5" x="443.5" y="317.6797"/><line style="stroke:#181818;stroke-width:0.5;stroke-dasharray:5.0,5.0;" x1="37" x2="37" y1="128.5703" y2="427.7344"/><line style="stroke:#181818;stroke-width:0.5;stroke-dasharray:5.0,5.0;" x1="135" x2="135" y1="128.5703" y2="427.7344"/><line style="stroke:#181818;stroke-width:0.5;stroke-dasharray:5.0,5.0;" x1="233.5" x2="233.5" y1="128.5703" y2="427.7344"/><line style="stroke:#181818;stroke-width:0.5;stroke-dasharray:5.0,5.0;" x1="360.5" x2="360.5" y1="128.5703" y2="427.7344"/><line style="stroke:#181818;stroke-width:0.5;stroke-dasharray:5.0,5.0;" x1="513.5" x2="513.5" y1="128.5703" y2="427.7344"/><line style="stroke:#181818;stroke-width:0.5;stroke-dasharray:5.0,5.0;" x1="658" x2="658" y1="128.5703" y2="427.7344"/><line style="stroke:#181818;stroke-width:0.5;stroke-dasharray:5.0,5.0;" x1="752" x2="752" y1="128.5703" y2="427.7344"/><rect fill="#E2E2F0" height="31.6094" rx="2.5" ry="2.5" style="stroke:#181818;stroke-width:0.5;" width="65" x="5" y="95.9609"/><text fill="#000000" font-family="sans-serif" font-size="14" lengthAdjust="spacing" textLength="51" x="12" y="117.4941">External</text><rect fill="#E2E2F0" height="31.6094" rx="2.5" ry="2.5" style="stroke:#181818;stroke-width:0.5;" width="65" x="5" y="426.7344"/><text fill="#000000" font-family="sans-serif" font-size="14" lengthAdjust="spacing" textLength="51" x="12" y="448.2676">External</text><rect fill="#E2E2F0" height="31.6094" rx="2.5" ry="2.5" style="stroke:#181818;stroke-width:0.5;" width="83" x="94" y="95.9609"/><text fill="#000000" font-family="sans-serif" font-size="14" lengthAdjust="spacing" textLength="69" x="101" y="117.4941">Web Client</text><rect fill="#E2E2F0" height="31.6094" rx="2.5" ry="2.5" style="stroke:#181818;stroke-width:0.5;" width="83" x="94" y="426.7344"/><text fill="#000000" font-family="sans-serif" font-size="14" lengthAdjust="spacing" textLength="69" x="101" y="448.2676">Web Client</text><rect fill="#E2E2F0" height="31.6094" rx="2.5" ry="2.5" style="stroke:#181818;stroke-width:0.5;" width="70" x="198.5" y="95.9609"/><text fill="#000000" font-family="sans-serif" font-size="14" lengthAdjust="spacing" textLength="56" x="205.5" y="117.4941">Web GUI</text><rect fill="#E2E2F0" height="31.6094" rx="2.5" ry="2.5" style="stroke:#181818;stroke-width:0.5;" width="70" x="198.5" y="426.7344"/><text fill="#000000" font-family="sans-serif" font-size="14" lengthAdjust="spacing" textLength="56" x="205.5" y="448.2676">Web GUI</text><rect fill="#E2E2F0" height="31.6094" rx="2.5" ry="2.5" style="stroke:#181818;stroke-width:0.5;" width="165" x="278.5" y="95.9609"/><text fill="#000000" font-family="sans-serif" font-size="14" lengthAdjust="spacing" textLength="151" x="285.5" y="117.4941">Reference Data Service</text><rect fill="#E2E2F0" height="31.6094" rx="2.5" ry="2.5" style="stroke:#181818;stroke-width:0.5;" width="165" x="278.5" y="426.7344"/><text fill="#000000" font-family="sans-serif" font-size="14" lengthAdjust="spacing" textLength="151" x="285.5" y="448.2676">Reference Data Service</text><rect fill="#E2E2F0" height="31.6094" rx="2.5" ry="2.5" style="stroke:#181818;stroke-width:0.5;" width="121" x="453.5" y="95.9609"/><text fill="#000000" font-family="sans-serif" font-size="14" lengthAdjust="spacing" textLength="107" x="460.5" y="117.4941">Trading Services</text><rect fill="#E2E2F0" height="31.6094" rx="2.5" ry="2.5" style="stroke:#181818;stroke-width:0.5;" width="121" x="453.5" y="426.7344"/><text fill="#000000" font-family="sans-serif" font-size="14" lengthAdjust="spacing" textLength="107" x="460.5" y="448.2676">Trading Services</text><text fill="#000000" font-family="sans-serif" font-size="14" lengthAdjust="spacing" textLength="74" x="618" y="125.4941">TraderX DB</text><path d="M640,74.9609 C640,64.9609 658,64.9609 658,64.9609 C658,64.9609 676,64.9609 676,74.9609 L676,100.9609 C676,110.9609 658,110.9609 658,110.9609 C658,110.9609 640,110.9609 640,100.9609 L640,74.9609 " fill="#E2E2F0" style="stroke:#181818;stroke-width:1.5;"/><path d="M640,74.9609 C640,84.9609 658,84.9609 658,84.9609 C658,84.9609 676,84.9609 676,74.9609 " fill="none" style="stroke:#181818;stroke-width:1.5;"/><text fill="#000000" font-family="sans-serif" font-size="14" lengthAdjust="spacing" textLength="74" x="618" y="441.2676">TraderX DB</text><path d="M640,454.3438 C640,444.3438 658,444.3438 658,444.3438 C658,444.3438 676,444.3438 676,454.3438 L676,480.3438 C676,490.3438 658,490.3438 658,490.3438 C658,490.3438 640,490.3438 640,480.3438 L640,454.3438 " fill="#E2E2F0" style="stroke:#181818;stroke-width:1.5;"/><path d="M640,454.3438 C640,464.3438 658,464.3438 658,464.3438 C658,464.3438 676,464.3438 676,454.3438 " fill="none" style="stroke:#181818;stroke-width:1.5;"/><rect fill="#E2E2F0" height="31.6094" rx="2.5" ry="2.5" style="stroke:#181818;stroke-width:0.5;" width="89" x="708" y="95.9609"/><text fill="#000000" font-family="sans-serif" font-size="14" lengthAdjust="spacing" textLength="75" x="715" y="117.4941">Trade Feed</text><rect fill="#E2E2F0" height="31.6094" rx="2.5" ry="2.5" style="stroke:#181818;stroke-width:0.5;" width="89" x="708" y="426.7344"/><text fill="#000000" font-family="sans-serif" font-size="14" lengthAdjust="spacing" textLength="75" x="715" y="448.2676">Trade Feed</text><polygon fill="#181818" points="123.5,156.9219,133.5,160.9219,123.5,164.9219,127.5,160.9219" style="stroke:#181818;stroke-width:1.0;"/><line style="stroke:#181818;stroke-width:1.0;" x1="37.5" x2="129.5" y1="160.9219" y2="160.9219"/><text fill="#000000" font-family="sans-serif" font-size="13" lengthAdjust="spacing" textLength="74" x="44.5" y="156.0654">Create Trade</text><path d="M84,175.9219 L212,175.9219 L212,184.2734 L202,194.2734 L84,194.2734 L84,175.9219 " fill="#EEEEEE" style="stroke:#000000;stroke-width:1.5;"/><rect fill="none" height="234.8125" style="stroke:#000000;stroke-width:1.5;" width="743" x="84" y="175.9219"/><text fill="#000000" font-family="sans-serif" font-size="13" font-weight="bold" lengthAdjust="spacing" textLength="83" x="99" y="190.417">Create Trade</text><polygon fill="#181818" points="221.5,212.625,231.5,216.625,221.5,220.625,225.5,216.625" style="stroke:#181818;stroke-width:1.0;"/><line style="stroke:#181818;stroke-width:1.0;" x1="135.5" x2="227.5" y1="216.625" y2="216.625"/><text fill="#000000" font-family="sans-serif" font-size="13" lengthAdjust="spacing" textLength="74" x="142.5" y="211.7686">Create Trade</text><path d="M188.5,231.625 L316.5,231.625 L316.5,239.9766 L306.5,249.9766 L188.5,249.9766 L188.5,231.625 " fill="#EEEEEE" style="stroke:#000000;stroke-width:1.5;"/><rect fill="none" height="172.1094" style="stroke:#000000;stroke-width:1.5;" width="628.5" x="188.5" y="231.625"/><text fill="#000000" font-family="sans-serif" font-size="13" font-weight="bold" lengthAdjust="spacing" textLength="83" x="203.5" y="246.1201">Create Trade</text><polygon fill="#181818" points="349,268.3281,359,272.3281,349,276.3281,353,272.3281" style="stroke:#181818;stroke-width:1.0;"/><line style="stroke:#181818;stroke-width:1.0;" x1="233.5" x2="355" y1="272.3281" y2="272.3281"/><text fill="#000000" font-family="sans-serif" font-size="13" lengthAdjust="spacing" textLength="83" x="240.5" y="267.4717">Get Securities</text><polygon fill="#181818" points="502,298.6797,512,302.6797,502,306.6797,506,302.6797" style="stroke:#181818;stroke-width:1.0;"/><line style="stroke:#181818;stroke-width:1.0;" x1="233.5" x2="508" y1="302.6797" y2="302.6797"/><text fill="#000000" font-family="sans-serif" font-size="13" lengthAdjust="spacing" textLength="74" x="240.5" y="297.8232">Create Trade</text><path d="M443.5,317.6797 L571.5,317.6797 L571.5,326.0313 L561.5,336.0313 L443.5,336.0313 L443.5,317.6797 " fill="#EEEEEE" style="stroke:#000000;stroke-width:1.5;"/><rect fill="none" height="79.0547" style="stroke:#000000;stroke-width:1.5;" width="363.5" x="443.5" y="317.6797"/><text fill="#000000" font-family="sans-serif" font-size="13" font-weight="bold" lengthAdjust="spacing" textLength="83" x="458.5" y="332.1748">Create Trade</text><polygon fill="#181818" points="646,354.3828,656,358.3828,646,362.3828,650,358.3828" style="stroke:#181818;stroke-width:1.0;"/><line style="stroke:#181818;stroke-width:1.0;" x1="514" x2="652" y1="358.3828" y2="358.3828"/><text fill="#000000" font-family="sans-serif" font-size="13" lengthAdjust="spacing" textLength="120" x="521" y="353.5264">Insert Trade Request</text><polygon fill="#181818" points="740.5,384.7344,750.5,388.7344,740.5,392.7344,744.5,388.7344" style="stroke:#181818;stroke-width:1.0;"/><line style="stroke:#181818;stroke-width:1.0;" x1="514" x2="746.5" y1="388.7344" y2="388.7344"/><text fill="#000000" font-family="sans-serif" font-size="13" lengthAdjust="spacing" textLength="118" x="521" y="383.8779">Send Trade Request</text><!--SRC=[nLInReCm4Dtz5ISwXwbJXmw1968DhTBLm2MrH0orZuJ-VSy4g4WOAb0Q92JVuNll-NXdKfGZl1cPeVbOrV9OShZe4hpQOG91hb0J1u51IUrs3cFygb2dRXaKcgJIQ2374-P2bDAGIbKfkT1RrOH6ozm3QI5uZZI7wxmu-t6nfxCq67zRmgFrkusNM8YagC5hnNZmjFjKX0Bu6S3_Qcm8XgUvuMW_-xrawpF0fNuSU_CUJGVcublKBUxHDAqB9Kbkf3cf52UIz60EguMwfNI5IXywBZkHh8NfK1gUZ7aJQR7_LH0kPy1pAboE7m1XZPZDmNRr0dK6R2qXnD_D28lNESw2by7qY8CfgdAOceC-LHoxyrxA7FGaMMD-Pf4R93PlMXb5YettlvgkR7-NdbrpJ1RQ311BZBH5G-rrlNMNjQM7wdB3nxfYDtz3LPpfN_43]--></g></svg>