<?xml version="1.0" encoding="us-ascii" standalone="no"?><svg xmlns="http://www.w3.org/2000/svg" xmlns:xlink="http://www.w3.org/1999/xlink" contentStyleType="text/css" height="897px" preserveAspectRatio="none" style="width:2123px;height:897px;background:#FFFFFF;" version="1.1" viewBox="0 0 2123 897" width="2123px" zoomAndPan="magnify"><defs/><g><text fill="#000000" font-family="sans-serif" font-size="14" font-weight="bold" lengthAdjust="spacing" textLength="280" x="772.5" y="24.5332">ECommercePlatform - C4 - Context level</text><!--entity ECommercePlatform.SoftwareSystems.BuyingAndMerchandisingApp--><g id="elem_ECommercePlatform.SoftwareSystems.BuyingAndMerchandisingApp"><rect fill="#1168BD" height="60.25" rx="2.5" ry="2.5" style="stroke:#3C7FC0;stroke-width:0.5;" width="168" x="6" y="386.6094"/><text fill="#FFFFFF" font-family="sans-serif" font-size="16" font-weight="bold" lengthAdjust="spacing" textLength="55" x="45" y="413.2188">Buying</text><text fill="#FFFFFF" font-family="sans-serif" font-size="16" font-weight="bold" lengthAdjust="spacing" textLength="4" x="100" y="413.2188">&#160;</text><text fill="#FFFFFF" font-family="sans-serif" font-size="16" font-weight="bold" lengthAdjust="spacing" textLength="31" x="104" y="413.2188">And</text><text fill="#FFFFFF" font-family="sans-serif" font-size="16" font-weight="bold" lengthAdjust="spacing" textLength="113" x="16" y="433.3438">Merchandising</text><text fill="#FFFFFF" font-family="sans-serif" font-size="16" font-weight="bold" lengthAdjust="spacing" textLength="4" x="129" y="433.3438">&#160;</text><text fill="#FFFFFF" font-family="sans-serif" font-size="16" font-weight="bold" lengthAdjust="spacing" textLength="31" x="133" y="433.3438">App</text></g><!--entity ECommercePlatform.SoftwareSystems.BuyingService--><g id="elem_ECommercePlatform.SoftwareSystems.BuyingService"><rect fill="#1168BD" height="40.125" rx="2.5" ry="2.5" style="stroke:#3C7FC0;stroke-width:0.5;" width="136" x="371" y="659.6094"/><text fill="#FFFFFF" font-family="sans-serif" font-size="16" font-weight="bold" lengthAdjust="spacing" textLength="55" x="381" y="686.2188">Buying</text><text fill="#FFFFFF" font-family="sans-serif" font-size="16" font-weight="bold" lengthAdjust="spacing" textLength="4" x="436" y="686.2188">&#160;</text><text fill="#FFFFFF" font-family="sans-serif" font-size="16" font-weight="bold" lengthAdjust="spacing" textLength="57" x="440" y="686.2188">Service</text></g><!--entity ECommercePlatform.SoftwareSystems.PricingService--><g id="elem_ECommercePlatform.SoftwareSystems.PricingService"><rect fill="#1168BD" height="40.125" rx="2.5" ry="2.5" style="stroke:#3C7FC0;stroke-width:0.5;" width="135" x="228.5" y="540.6094"/><text fill="#FFFFFF" font-family="sans-serif" font-size="16" font-weight="bold" lengthAdjust="spacing" textLength="54" x="238.5" y="567.2188">Pricing</text><text fill="#FFFFFF" font-family="sans-serif" font-size="16" font-weight="bold" lengthAdjust="spacing" textLength="4" x="292.5" y="567.2188">&#160;</text><text fill="#FFFFFF" font-family="sans-serif" font-size="16" font-weight="bold" lengthAdjust="spacing" textLength="57" x="296.5" y="567.2188">Service</text></g><!--entity ECommercePlatform.SoftwareSystems.CRMApp--><g id="elem_ECommercePlatform.SoftwareSystems.CRMApp"><rect fill="#1168BD" height="40.125" rx="2.5" ry="2.5" style="stroke:#3C7FC0;stroke-width:0.5;" width="92" x="1040" y="396.6094"/><text fill="#FFFFFF" font-family="sans-serif" font-size="16" font-weight="bold" lengthAdjust="spacing" textLength="37" x="1050" y="423.2188">CRM</text><text fill="#FFFFFF" font-family="sans-serif" font-size="16" font-weight="bold" lengthAdjust="spacing" textLength="4" x="1087" y="423.2188">&#160;</text><text fill="#FFFFFF" font-family="sans-serif" font-size="16" font-weight="bold" lengthAdjust="spacing" textLength="31" x="1091" y="423.2188">App</text></g><!--entity ECommercePlatform.SoftwareSystems.FraudService--><g id="elem_ECommercePlatform.SoftwareSystems.FraudService"><rect fill="#1168BD" height="40.125" rx="2.5" ry="2.5" style="stroke:#3C7FC0;stroke-width:0.5;" width="126" x="1164" y="540.6094"/><text fill="#FFFFFF" font-family="sans-serif" font-size="16" font-weight="bold" lengthAdjust="spacing" textLength="45" x="1174" y="567.2188">Fraud</text><text fill="#FFFFFF" font-family="sans-serif" font-size="16" font-weight="bold" lengthAdjust="spacing" textLength="4" x="1219" y="567.2188">&#160;</text><text fill="#FFFFFF" font-family="sans-serif" font-size="16" font-weight="bold" lengthAdjust="spacing" textLength="57" x="1223" y="567.2188">Service</text></g><!--entity ECommercePlatform.SoftwareSystems.FraudEngine--><g id="elem_ECommercePlatform.SoftwareSystems.FraudEngine"><rect fill="#1168BD" height="40.125" rx="2.5" ry="2.5" style="stroke:#3C7FC0;stroke-width:0.5;" width="123" x="1165.5" y="659.6094"/><text fill="#FFFFFF" font-family="sans-serif" font-size="16" font-weight="bold" lengthAdjust="spacing" textLength="45" x="1175.5" y="686.2188">Fraud</text><text fill="#FFFFFF" font-family="sans-serif" font-size="16" font-weight="bold" lengthAdjust="spacing" textLength="4" x="1220.5" y="686.2188">&#160;</text><text fill="#FFFFFF" font-family="sans-serif" font-size="16" font-weight="bold" lengthAdjust="spacing" textLength="54" x="1224.5" y="686.2188">Engine</text></g><!--entity ECommercePlatform.SoftwareSystems.PaymentProvider--><g id="elem_ECommercePlatform.SoftwareSystems.PaymentProvider"><rect fill="#1168BD" height="40.125" rx="2.5" ry="2.5" style="stroke:#3C7FC0;stroke-width:0.5;" width="156" x="1670" y="659.6094"/><text fill="#FFFFFF" font-family="sans-serif" font-size="16" font-weight="bold" lengthAdjust="spacing" textLength="67" x="1680" y="686.2188">Payment</text><text fill="#FFFFFF" font-family="sans-serif" font-size="16" font-weight="bold" lengthAdjust="spacing" textLength="4" x="1747" y="686.2188">&#160;</text><text fill="#FFFFFF" font-family="sans-serif" font-size="16" font-weight="bold" lengthAdjust="spacing" textLength="65" x="1751" y="686.2188">Provider</text></g><!--entity ECommercePlatform.SoftwareSystems.PIMApp--><g id="elem_ECommercePlatform.SoftwareSystems.PIMApp"><rect fill="#1168BD" height="40.125" rx="2.5" ry="2.5" style="stroke:#3C7FC0;stroke-width:0.5;" width="83" x="786.5" y="396.6094"/><text fill="#FFFFFF" font-family="sans-serif" font-size="16" font-weight="bold" lengthAdjust="spacing" textLength="28" x="796.5" y="423.2188">PIM</text><text fill="#FFFFFF" font-family="sans-serif" font-size="16" font-weight="bold" lengthAdjust="spacing" textLength="4" x="824.5" y="423.2188">&#160;</text><text fill="#FFFFFF" font-family="sans-serif" font-size="16" font-weight="bold" lengthAdjust="spacing" textLength="31" x="828.5" y="423.2188">App</text></g><!--entity ECommercePlatform.SoftwareSystems.ProductService--><g id="elem_ECommercePlatform.SoftwareSystems.ProductService"><rect fill="#1168BD" height="40.125" rx="2.5" ry="2.5" style="stroke:#3C7FC0;stroke-width:0.5;" width="142" x="603" y="540.6094"/><text fill="#FFFFFF" font-family="sans-serif" font-size="16" font-weight="bold" lengthAdjust="spacing" textLength="61" x="613" y="567.2188">Product</text><text fill="#FFFFFF" font-family="sans-serif" font-size="16" font-weight="bold" lengthAdjust="spacing" textLength="4" x="674" y="567.2188">&#160;</text><text fill="#FFFFFF" font-family="sans-serif" font-size="16" font-weight="bold" lengthAdjust="spacing" textLength="57" x="678" y="567.2188">Service</text></g><!--entity ECommercePlatform.SoftwareSystems.StorefrontApp--><g id="elem_ECommercePlatform.SoftwareSystems.StorefrontApp"><rect fill="#1168BD" height="40.125" rx="2.5" ry="2.5" style="stroke:#3C7FC0;stroke-width:0.5;" width="132" x="757" y="50.6094"/><text fill="#FFFFFF" font-family="sans-serif" font-size="16" font-weight="bold" lengthAdjust="spacing" textLength="77" x="767" y="77.2188">Storefront</text><text fill="#FFFFFF" font-family="sans-serif" font-size="16" font-weight="bold" lengthAdjust="spacing" textLength="4" x="844" y="77.2188">&#160;</text><text fill="#FFFFFF" font-family="sans-serif" font-size="16" font-weight="bold" lengthAdjust="spacing" textLength="31" x="848" y="77.2188">App</text></g><!--entity ECommercePlatform.SoftwareSystems.StorefrontBff--><g id="elem_ECommercePlatform.SoftwareSystems.StorefrontBff"><rect fill="#1168BD" height="40.125" rx="2.5" ry="2.5" style="stroke:#3C7FC0;stroke-width:0.5;" width="123" x="761.5" y="233.6094"/><text fill="#FFFFFF" font-family="sans-serif" font-size="16" font-weight="bold" lengthAdjust="spacing" textLength="77" x="771.5" y="260.2188">Storefront</text><text fill="#FFFFFF" font-family="sans-serif" font-size="16" font-weight="bold" lengthAdjust="spacing" textLength="4" x="848.5" y="260.2188">&#160;</text><text fill="#FFFFFF" font-family="sans-serif" font-size="16" font-weight="bold" lengthAdjust="spacing" textLength="22" x="852.5" y="260.2188">Bff</text></g><!--entity ECommercePlatform.SoftwareSystems.SearchService--><g id="elem_ECommercePlatform.SoftwareSystems.SearchService"><rect fill="#1168BD" height="40.125" rx="2.5" ry="2.5" style="stroke:#3C7FC0;stroke-width:0.5;" width="135" x="430.5" y="396.6094"/><text fill="#FFFFFF" font-family="sans-serif" font-size="16" font-weight="bold" lengthAdjust="spacing" textLength="54" x="440.5" y="423.2188">Search</text><text fill="#FFFFFF" font-family="sans-serif" font-size="16" font-weight="bold" lengthAdjust="spacing" textLength="4" x="494.5" y="423.2188">&#160;</text><text fill="#FFFFFF" font-family="sans-serif" font-size="16" font-weight="bold" lengthAdjust="spacing" textLength="57" x="498.5" y="423.2188">Service</text></g><!--entity ECommercePlatform.SoftwareSystems.BasketService--><g id="elem_ECommercePlatform.SoftwareSystems.BasketService"><rect fill="#1168BD" height="40.125" rx="2.5" ry="2.5" style="stroke:#3C7FC0;stroke-width:0.5;" width="134" x="888" y="396.6094"/><text fill="#FFFFFF" font-family="sans-serif" font-size="16" font-weight="bold" lengthAdjust="spacing" textLength="53" x="898" y="423.2188">Basket</text><text fill="#FFFFFF" font-family="sans-serif" font-size="16" font-weight="bold" lengthAdjust="spacing" textLength="4" x="951" y="423.2188">&#160;</text><text fill="#FFFFFF" font-family="sans-serif" font-size="16" font-weight="bold" lengthAdjust="spacing" textLength="57" x="955" y="423.2188">Service</text></g><!--entity ECommercePlatform.SoftwareSystems.OrderService--><g id="elem_ECommercePlatform.SoftwareSystems.OrderService"><rect fill="#1168BD" height="40.125" rx="2.5" ry="2.5" style="stroke:#3C7FC0;stroke-width:0.5;" width="124" x="1476" y="396.6094"/><text fill="#FFFFFF" font-family="sans-serif" font-size="16" font-weight="bold" lengthAdjust="spacing" textLength="43" x="1486" y="423.2188">Order</text><text fill="#FFFFFF" font-family="sans-serif" font-size="16" font-weight="bold" lengthAdjust="spacing" textLength="4" x="1529" y="423.2188">&#160;</text><text fill="#FFFFFF" font-family="sans-serif" font-size="16" font-weight="bold" lengthAdjust="spacing" textLength="57" x="1533" y="423.2188">Service</text></g><!--entity ECommercePlatform.SoftwareSystems.WMS--><g id="elem_ECommercePlatform.SoftwareSystems.WMS"><rect fill="#1168BD" height="40.125" rx="2.5" ry="2.5" style="stroke:#3C7FC0;stroke-width:0.5;" width="59" x="1626.5" y="782.6094"/><text fill="#FFFFFF" font-family="sans-serif" font-size="16" font-weight="bold" lengthAdjust="spacing" textLength="39" x="1636.5" y="809.2188">WMS</text></g><!--entity ECommercePlatform.SoftwareSystems.FulfilmentService--><g id="elem_ECommercePlatform.SoftwareSystems.FulfilmentService"><rect fill="#1168BD" height="40.125" rx="2.5" ry="2.5" style="stroke:#3C7FC0;stroke-width:0.5;" width="156" x="1649" y="233.6094"/><text fill="#FFFFFF" font-family="sans-serif" font-size="16" font-weight="bold" lengthAdjust="spacing" textLength="75" x="1659" y="260.2188">Fulfilment</text><text fill="#FFFFFF" font-family="sans-serif" font-size="16" font-weight="bold" lengthAdjust="spacing" textLength="4" x="1734" y="260.2188">&#160;</text><text fill="#FFFFFF" font-family="sans-serif" font-size="16" font-weight="bold" lengthAdjust="spacing" textLength="57" x="1738" y="260.2188">Service</text></g><!--entity ECommercePlatform.SoftwareSystems.PaymentService--><g id="elem_ECommercePlatform.SoftwareSystems.PaymentService"><rect fill="#1168BD" height="40.125" rx="2.5" ry="2.5" style="stroke:#3C7FC0;stroke-width:0.5;" width="148" x="1674" y="540.6094"/><text fill="#FFFFFF" font-family="sans-serif" font-size="16" font-weight="bold" lengthAdjust="spacing" textLength="67" x="1684" y="567.2188">Payment</text><text fill="#FFFFFF" font-family="sans-serif" font-size="16" font-weight="bold" lengthAdjust="spacing" textLength="4" x="1751" y="567.2188">&#160;</text><text fill="#FFFFFF" font-family="sans-serif" font-size="16" font-weight="bold" lengthAdjust="spacing" textLength="57" x="1755" y="567.2188">Service</text></g><polygon fill="none" points="370.9063,671.8428,363.306,667.9396,362.6135,673.8995,370.9063,671.8428" style="stroke:#666666;stroke-width:1.0;"/><path d="M78.4181,446.6693 C65.5102,484.3414 50.4232,550.1128 83,591.6094 C118.1135,636.3373 269.81,660.0962 362.9597,670.9195 " fill="none" style="stroke:#666666;stroke-width:1.0;"/><text fill="#666666" font-family="sans-serif" font-size="12" font-weight="bold" lengthAdjust="spacing" textLength="120" x="91" y="543.0664">Get Purchase Orders</text><text fill="#666666" font-family="sans-serif" font-size="12" font-weight="bold" lengthAdjust="spacing" textLength="132" x="85" y="558.1602">Create Purchase Order</text><text fill="#666666" font-family="sans-serif" font-size="12" font-weight="bold" lengthAdjust="spacing" textLength="134" x="84" y="573.2539">Update Purchase Order</text><text fill="#666666" font-family="sans-serif" font-size="12" font-weight="bold" lengthAdjust="spacing" textLength="130" x="86" y="588.3477">Delete Purchase Order</text><polygon fill="none" points="247.3835,540.5131,240.8676,534.9866,238.8404,540.6337,247.3835,540.5131" style="stroke:#666666;stroke-width:1.0;"/><path d="M94.3888,446.9467 C99.0965,468.0232 108.6907,495.4614 128,511.6094 C157.9559,536.6609 176.4545,518.8729 214,529.6094 C224.9311,532.7352 228.9658,533.9014 239.854,537.8101 " fill="none" style="stroke:#666666;stroke-width:1.0;"/><text fill="#666666" font-family="sans-serif" font-size="12" font-weight="bold" lengthAdjust="spacing" textLength="107" x="139.5" y="485.5664">Get Product Prices</text><text fill="#666666" font-family="sans-serif" font-size="12" font-weight="bold" lengthAdjust="spacing" textLength="128" x="129" y="500.6602">Update Product Prices</text><polygon fill="none" points="1163.8774,553.9909,1156.2732,550.0952,1155.5866,556.0558,1163.8774,553.9909" style="stroke:#666666;stroke-width:1.0;"/><path d="M1050.2399,436.641 C1034.3512,445.9138 1018.2644,456.7332 1014,464.6094 C1004.0544,482.9787 1000.9535,495.2957 1014,511.6094 C1032.5257,534.7745 1100.0562,546.6399 1155.9299,553.0755 " fill="none" style="stroke:#666666;stroke-width:1.0;"/><text fill="#666666" font-family="sans-serif" font-size="12" font-weight="bold" lengthAdjust="spacing" textLength="118" x="1050.5" y="485.5664">Get High Risk Orders</text><text fill="#666666" font-family="sans-serif" font-size="12" font-weight="bold" lengthAdjust="spacing" textLength="189" x="1015" y="500.6602">Update Order Fraud Check Result</text><polygon fill="none" points="694.9319,540.3085,702.8469,537.091,698.7796,532.68,694.9319,540.3085" style="stroke:#666666;stroke-width:1.0;"/><path d="M807.2309,436.7601 C777.8389,463.8618 730.2936,507.7022 700.8133,534.8855 " fill="none" style="stroke:#666666;stroke-width:1.0;"/><text fill="#666666" font-family="sans-serif" font-size="12" font-weight="bold" lengthAdjust="spacing" textLength="74" x="782" y="478.0664">Get Products</text><text fill="#666666" font-family="sans-serif" font-size="12" font-weight="bold" lengthAdjust="spacing" textLength="88" x="775" y="493.1602">Update Product</text><text fill="#666666" font-family="sans-serif" font-size="12" font-weight="bold" lengthAdjust="spacing" textLength="84" x="777" y="508.2539">Delete Product</text><polygon fill="none" points="823,233.5647,826,225.5647,820,225.5647,823,233.5647" style="stroke:#666666;stroke-width:1.0;"/><path d="M823,90.6374 C823,125.4 823,190.7898 823,225.5647 " fill="none" style="stroke:#666666;stroke-width:1.0;"/><text fill="#666666" font-family="sans-serif" font-size="12" font-weight="bold" lengthAdjust="spacing" textLength="74" x="842.5" y="122.0664">Get Products</text><text fill="#666666" font-family="sans-serif" font-size="12" font-weight="bold" lengthAdjust="spacing" textLength="96" x="831.5" y="137.1602">Search Products</text><text fill="#666666" font-family="sans-serif" font-size="12" font-weight="bold" lengthAdjust="spacing" textLength="62" x="848.5" y="152.2539">Get Basket</text><text fill="#666666" font-family="sans-serif" font-size="12" font-weight="bold" lengthAdjust="spacing" textLength="93" x="833" y="167.3477">Add Basket Item</text><text fill="#666666" font-family="sans-serif" font-size="12" font-weight="bold" lengthAdjust="spacing" textLength="111" x="824" y="182.4414">Update Basket Item</text><text fill="#666666" font-family="sans-serif" font-size="12" font-weight="bold" lengthAdjust="spacing" textLength="107" x="826" y="197.5352">Delete Basket Item</text><text fill="#666666" font-family="sans-serif" font-size="12" font-weight="bold" lengthAdjust="spacing" textLength="54" x="852.5" y="212.6289">Checkout</text><polygon fill="none" points="675.5642,540.5732,679.2536,532.8668,673.2766,532.3411,675.5642,540.5732" style="stroke:#666666;stroke-width:1.0;"/><path d="M798.008,273.7401 C769.5028,297.0637 723.8917,339.2725 701,386.6094 C687.9644,413.5652 679.7035,493.5119 676.2651,532.6039 " fill="none" style="stroke:#666666;stroke-width:1.0;"/><text fill="#666666" font-family="sans-serif" font-size="12" font-weight="bold" lengthAdjust="spacing" textLength="74" x="702" y="421.5664">Get Products</text><polygon fill="none" points="504.8558,396.3955,510.5868,390.0587,505.007,387.8528,504.8558,396.3955" style="stroke:#666666;stroke-width:1.0;"/><path d="M761.4086,258.3154 C699.5277,263.0287 609.2579,272.9049 580,291.6094 C540.6411,316.7714 518.888,360.8997 507.7969,388.9557 " fill="none" style="stroke:#666666;stroke-width:1.0;"/><text fill="#666666" font-family="sans-serif" font-size="12" font-weight="bold" lengthAdjust="spacing" textLength="96" x="581" y="335.0664">Search Products</text><polygon fill="none" points="939.3599,396.5332,936.6077,388.4446,931.9678,392.2487,939.3599,396.5332" style="stroke:#666666;stroke-width:1.0;"/><path d="M838.6605,273.7104 C864.0651,304.6963 908.8963,359.3768 934.2877,390.3467 " fill="none" style="stroke:#666666;stroke-width:1.0;"/><text fill="#666666" font-family="sans-serif" font-size="12" font-weight="bold" lengthAdjust="spacing" textLength="54" x="929.5" y="305.0664">Get Items</text><text fill="#666666" font-family="sans-serif" font-size="12" font-weight="bold" lengthAdjust="spacing" textLength="50" x="931.5" y="320.1602">Add Item</text><text fill="#666666" font-family="sans-serif" font-size="12" font-weight="bold" lengthAdjust="spacing" textLength="68" x="922.5" y="335.2539">Update Item</text><text fill="#666666" font-family="sans-serif" font-size="12" font-weight="bold" lengthAdjust="spacing" textLength="64" x="924.5" y="350.3477">Delete Item</text><text fill="#666666" font-family="sans-serif" font-size="12" font-weight="bold" lengthAdjust="spacing" textLength="79" x="917" y="365.4414">Delete Basket</text><polygon fill="none" points="1475.6771,400.7495,1468.5862,395.9829,1467.2005,401.8207,1475.6771,400.7495" style="stroke:#666666;stroke-width:1.0;"/><path d="M884.8542,267.1187 C919.1204,274.136 962.4621,283.1557 1001,291.6094 C1173.2004,329.3834 1367.9121,375.1686 1467.8934,398.9018 " fill="none" style="stroke:#666666;stroke-width:1.0;"/><text fill="#666666" font-family="sans-serif" font-size="12" font-weight="bold" lengthAdjust="spacing" textLength="74" x="1335" y="335.0664">Create Order</text><polygon fill="none" points="1626.4804,798.6744,1618.8165,794.8976,1618.2229,800.8682,1626.4804,798.6744" style="stroke:#666666;stroke-width:1.0;"/><path d="M507.039,687.3741 C735.5504,710.0938 1461.9892,782.3199 1618.5197,797.8829 " fill="none" style="stroke:#666666;stroke-width:1.0;"/><text fill="#666666" font-family="sans-serif" font-size="12" font-weight="bold" lengthAdjust="spacing" textLength="132" x="1265" y="731.0664">Create Purchase Order</text><text fill="#666666" font-family="sans-serif" font-size="12" font-weight="bold" lengthAdjust="spacing" textLength="134" x="1264" y="746.1602">Update Purchase Order</text><text fill="#666666" font-family="sans-serif" font-size="12" font-weight="bold" lengthAdjust="spacing" textLength="130" x="1266" y="761.2539">Delete Purchase Order</text><polygon fill="none" points="1481.0272,436.7102,1472.5182,437.4829,1475.1244,442.8873,1481.0272,436.7102" style="stroke:#666666;stroke-width:1.0;"/><path d="M1290.3766,558.4559 C1332.204,554.5199 1385.7699,543.0025 1422,511.6094 C1439.028,496.8547 1425.6109,481.0662 1441,464.6094 C1451.9919,452.8549 1459.3395,447.1687 1473.8213,440.1851 " fill="none" style="stroke:#666666;stroke-width:1.0;"/><text fill="#666666" font-family="sans-serif" font-size="12" font-weight="bold" lengthAdjust="spacing" textLength="163" x="1442" y="493.0664">Receive Order Created Event</text><polygon fill="none" points="1227,659.5591,1230,651.5591,1224,651.5591,1227,659.5591" style="stroke:#666666;stroke-width:1.0;"/><path d="M1227,580.6678 C1227,602.4247 1227,629.8056 1227,651.5591 " fill="none" style="stroke:#666666;stroke-width:1.0;"/><text fill="#666666" font-family="sans-serif" font-size="12" font-weight="bold" lengthAdjust="spacing" textLength="132" x="1228" y="630.5664">Get Fraud Check Result</text><polygon fill="none" points="1600.2812,413.6057,1608.5949,415.5764,1607.8408,409.624,1600.2812,413.6057" style="stroke:#666666;stroke-width:1.0;"/><path d="M1728.9576,273.8276 C1730.3905,298.9064 1728.8774,342.6448 1705,368.6094 C1678.4957,397.4304 1643.7815,408.0947 1608.2178,412.6002 " fill="none" style="stroke:#666666;stroke-width:1.0;"/><text fill="#666666" font-family="sans-serif" font-size="12" font-weight="bold" lengthAdjust="spacing" textLength="208" x="1731" y="335.0664">Receive Order Status Changed Event</text><polygon fill="none" points="1685.5152,799.0409,1693.7647,801.2647,1693.1928,795.292,1685.5152,799.0409" style="stroke:#666666;stroke-width:1.0;"/><path d="M1805.0851,259.6809 C1901.5293,270.6689 2053,305.4596 2053,415.6094 C2053,415.6094 2053,415.6094 2053,680.6094 C2053,757.4368 1785.4845,789.4681 1693.4788,798.2783 " fill="none" style="stroke:#666666;stroke-width:1.0;"/><text fill="#666666" font-family="sans-serif" font-size="12" font-weight="bold" lengthAdjust="spacing" textLength="61" x="2054" y="565.5664">Ship Order</text><polygon fill="none" points="1219.5193,540.3354,1219.9209,531.8008,1214.2101,533.6412,1219.5193,540.3354" style="stroke:#666666;stroke-width:1.0;"/><path d="M1475.8446,417.7155 C1393.756,419.3305 1255.8389,427.6501 1224,464.6094 C1206.1219,485.3627 1210.237,511.5319 1217.0655,532.721 " fill="none" style="stroke:#666666;stroke-width:1.0;"/><text fill="#666666" font-family="sans-serif" font-size="12" font-weight="bold" lengthAdjust="spacing" textLength="192" x="1225" y="493.0664">Receive Fraud Check Result Event</text><polygon fill="none" points="1809.9835,540.5965,1818.4537,539.4761,1815.6285,534.1829,1809.9835,540.5965" style="stroke:#666666;stroke-width:1.0;"/><path d="M1600.088,418.0344 C1680.0324,420.0528 1812.349,428.8733 1843,464.6094 C1856.5994,480.465 1853.9446,493.8172 1843,511.6094 C1835.2545,524.2009 1830.1302,529.8432 1817.0411,536.8295 " fill="none" style="stroke:#666666;stroke-width:1.0;"/><text fill="#666666" font-family="sans-serif" font-size="12" font-weight="bold" lengthAdjust="spacing" textLength="171" x="1854" y="493.0664">Receive Payment Result Event</text><polygon fill="none" points="1648.9031,259.7242,1640.6348,257.5713,1641.258,263.5389,1648.9031,259.7242" style="stroke:#666666;stroke-width:1.0;"/><path d="M1530.5373,396.3215 C1521.5785,369.5698 1510.5949,321.1666 1535,291.6094 C1549.6163,273.9074 1594.4232,265.4134 1640.9464,260.5551 " fill="none" style="stroke:#666666;stroke-width:1.0;"/><text fill="#666666" font-family="sans-serif" font-size="12" font-weight="bold" lengthAdjust="spacing" textLength="164" x="1536" y="335.0664">Receive Order Shipped Event</text><polygon fill="none" points="1576.5509,436.7684,1581.7729,443.5309,1584.9318,438.4298,1576.5509,436.7684" style="stroke:#666666;stroke-width:1.0;"/><path d="M1674.476,540.6043 C1657.9553,533.6177 1641.6067,524.2064 1629,511.6094 C1613.0619,495.6835 1624.3127,482.0105 1610,464.6094 C1600.8967,453.5418 1595.2974,448.3774 1583.3523,440.9803 " fill="none" style="stroke:#666666;stroke-width:1.0;"/><text fill="#666666" font-family="sans-serif" font-size="12" font-weight="bold" lengthAdjust="spacing" textLength="208" x="1630" y="493.0664">Receive Order Status Changed Event</text><polygon fill="none" points="1748,659.5591,1751,651.5591,1745,651.5591,1748,659.5591" style="stroke:#666666;stroke-width:1.0;"/><path d="M1748,580.6678 C1748,602.4247 1748,629.8056 1748,651.5591 " fill="none" style="stroke:#666666;stroke-width:1.0;"/><text fill="#666666" font-family="sans-serif" font-size="12" font-weight="bold" lengthAdjust="spacing" textLength="101" x="1749" y="630.5664">Process Payment</text><polygon fill="none" points="382.3457,659.4989,376.4049,653.3582,373.8321,658.7786,382.3457,659.4989" style="stroke:#666666;stroke-width:1.0;"/><path d="M305.6322,580.7041 C315.4465,598.515 332.1644,624.7944 353,641.6094 C361.7275,648.6527 364.7708,651.1567 375.1185,656.0684 " fill="none" style="stroke:#666666;stroke-width:1.0;"/><text fill="#666666" font-family="sans-serif" font-size="12" font-weight="bold" lengthAdjust="spacing" textLength="221" x="355" y="623.0664">Receive Purchase Order Created Event</text><text fill="#666666" font-family="sans-serif" font-size="12" font-weight="bold" lengthAdjust="spacing" textLength="223" x="354" y="638.1602">Receive Purchase Order Updated Event</text><polygon fill="none" points="507.2929,666.662,515.7758,667.6819,514.3548,661.8527,507.2929,666.662" style="stroke:#666666;stroke-width:1.0;"/><path d="M655.9507,580.8795 C637.8778,599.0761 608.445,625.8581 578,641.6094 C556.1531,652.9123 538.3122,659.1002 515.0653,664.7673 " fill="none" style="stroke:#666666;stroke-width:1.0;"/><text fill="#666666" font-family="sans-serif" font-size="12" font-weight="bold" lengthAdjust="spacing" textLength="221" x="626" y="623.0664">Receive Purchase Order Created Event</text><text fill="#666666" font-family="sans-serif" font-size="12" font-weight="bold" lengthAdjust="spacing" textLength="223" x="625" y="638.1602">Receive Purchase Order Updated Event</text><polygon fill="none" points="281.4122,540.4422,279.4558,532.1252,274.4694,535.4624,281.4122,540.4422" style="stroke:#666666;stroke-width:1.0;"/><path d="M430.4936,422.2098 C370.4449,427.875 289.1046,439.9595 269,464.6094 C251.1188,486.5333 263.0543,513.0124 276.9626,533.7938 " fill="none" style="stroke:#666666;stroke-width:1.0;"/><text fill="#666666" font-family="sans-serif" font-size="12" font-weight="bold" lengthAdjust="spacing" textLength="213" x="270" y="493.0664">Receive Product Price Changed Event</text><polygon fill="none" points="602.8448,548.9512,595.5351,544.5275,594.4288,550.4246,602.8448,548.9512" style="stroke:#666666;stroke-width:1.0;"/><path d="M492.0559,436.7143 C486.8942,457.3991 482.5564,490.2843 499,511.6094 C512.0335,528.5119 552.4341,539.4939 594.9819,547.4761 " fill="none" style="stroke:#666666;stroke-width:1.0;"/><text fill="#666666" font-family="sans-serif" font-size="12" font-weight="bold" lengthAdjust="spacing" textLength="175" x="501" y="478.0664">Receive Product Created Event</text><text fill="#666666" font-family="sans-serif" font-size="12" font-weight="bold" lengthAdjust="spacing" textLength="177" x="500" y="493.1602">Receive Product Updated Event</text><text fill="#666666" font-family="sans-serif" font-size="12" font-weight="bold" lengthAdjust="spacing" textLength="173" x="502" y="508.2539">Receive Product Deleted Event</text><rect fill="none" height="17.6094" style="stroke:none;stroke-width:1.0;" width="78" x="1730" y="835.6094"/><text fill="#000000" font-family="sans-serif" font-size="14" font-weight="bold" lengthAdjust="spacing" textLength="53" x="1730" y="850.1426">Legend</text><text fill="#FFFFFF" font-family="sans-serif" font-size="14" lengthAdjust="spacing" textLength="4" x="1783" y="850.1426">&#160;</text><rect fill="#1168BD" height="17.6094" style="stroke:none;stroke-width:1.0;" width="78" x="1730" y="853.2188"/><text fill="#3C7FC0" font-family="sans-serif" font-size="14" lengthAdjust="spacing" textLength="14" x="1734" y="867.752">&#9647;</text><text fill="#FFFFFF" font-family="sans-serif" font-size="14" lengthAdjust="spacing" textLength="4" x="1748" y="867.752">&#160;</text><text fill="#FFFFFF" font-family="sans-serif" font-size="14" lengthAdjust="spacing" textLength="44" x="1756" y="867.752">system</text><text fill="#FFFFFF" font-family="sans-serif" font-size="14" lengthAdjust="spacing" textLength="4" x="1804" y="867.752">&#160;</text><line style="stroke:none;stroke-width:1.0;" x1="1730" x2="1808" y1="835.6094" y2="835.6094"/><line style="stroke:none;stroke-width:1.0;" x1="1730" x2="1808" y1="853.2188" y2="853.2188"/><line style="stroke:none;stroke-width:1.0;" x1="1730" x2="1808" y1="870.8281" y2="870.8281"/><line style="stroke:none;stroke-width:1.0;" x1="1730" x2="1730" y1="835.6094" y2="870.8281"/><line style="stroke:none;stroke-width:1.0;" x1="1808" x2="1808" y1="835.6094" y2="870.8281"/><!--SRC=[rLXDR-8m4BtpAxpi7a3gSkgfKW-KqW-fBOXGLIiX8MyoG5JdGxP3bt-_upWaSQ1gx8gkjWU4nyxCcpUJvw7VKaxN4IMCxf9C4X61f37jV0jZdsK1aC5WCV3FnM9qlXmbiOG_Sf1c4UjqXa4mPX11BETqtUlwvo7kyXLBtYvOk09_vpEuYE6jUqP-_5wF4fRmopK7Y76zGa_QydsL_wap2G-0c-V4XWR9MnYlBxitb0dezjk5zJSqNaDG3vrmPMeHkppe6fn3b6pDu1o25f7rgIDXLTmPi8zvLkKn6MHX33LB_sDNDUugToKfbJzjQk6mnaVbKETQUSCrvkdTJLwMq_7CcpmjfvFPV3Qyd_VwdOVXhydpV3cVJ9VNavSdj7J4QnYdbDE8A1zobm994xPJYqv7Xf816O-IA0BkmvHHkKfuH7wIqRdwq7rC66m16zdR2GbHx-3um4jMyeroq0V4u2hROLc6SV28nv2b81HgdQPdfAlt26uIOvVWDcRUnIfQnl60RqCVAj-5mTRRb8U-uQumkFeRpHvrolZ59RiRJhEWGfClNR7a3u_ZDLQzTAMNrYpHdNgjfppPXlX2AfgqXUnDrXxl2vxmYmjF63V8V5clMsvmvSgJ2OSLnzxNiAgr2xhgwIkbOtLlQB3s1XJVcIfLlNRDz8gALwWHfzUktYPAe2jd-TBLrykZXq_WftMZPsmLCjMFjJUdj3bBWsxnMeiLFM_www2-VquUxJNl5WispPGV0IJdN2pY4GSgeM5VnCzfSCny3GmEp9ZE5sHpeBbvEiNxgpP1LB0DSsjyUncs5bm5vIvSRyWi5AybjGKOtTrQI4SRy5_934J6P6jOUzLpqBSQHmViLDNKwzPu6gfdBsmcgaAOAeFQrlgoY74IAhwJU_HLvc3OYZmCMyuqJjyEMUKWFqdswSA-e-kd3zoy0cuBheMkab4Ueov7YdGwb8shfP0t5vqgdRIzWxvIIaq1igPb1Zw4sxqsQU0uvctneZeP17EmLDtp2KqySdb_aWHFKfa9H9F_LBFbmWMExXfl4wQMnJVpiBwjzdaVqc-PjIsEWzbeZsG_8tq9YcDpNwCLi2IfTGyqi_kN_MYFvSYFDPxWy2JsnMaVkp6esG-gPLiOscZAr29-vvIMMsl26fVvVm6wCGeupD0bdFh0xDXp3cWQ0rGJpNlS5Ti6QOVR-eAjiYZ-5VOmlXq_NVVwVm40]--></g></svg>