<?xml version="1.0" encoding="us-ascii" standalone="no"?><svg xmlns="http://www.w3.org/2000/svg" xmlns:xlink="http://www.w3.org/1999/xlink" contentStyleType="text/css" height="383px" preserveAspectRatio="none" style="width:862px;height:383px;background:#FFFFFF;" version="1.1" viewBox="0 0 862 383" width="862px" zoomAndPan="magnify"><defs/><g><text fill="#000000" font-family="sans-serif" font-size="14" font-weight="bold" lengthAdjust="spacing" textLength="834" x="10" y="29.5332">E Commerce Platform - Generate Demand - Storefront - Storefront Bff - Delete Basket Item - Sequence - Container level</text><rect fill="#FFFFFF" height="326.3281" style="stroke:#181818;stroke-width:0.5;" width="148.5" x="461" y="44.6094"/><text fill="#000000" font-family="sans-serif" font-size="13" font-weight="bold" lengthAdjust="spacing" textLength="94" x="488.25" y="58.1045">Basket Service</text><rect fill="none" height="111.4063" style="stroke:#000000;stroke-width:1.5;" width="292.5" x="333" y="175.9219"/><rect fill="none" height="48.7031" style="stroke:#000000;stroke-width:1.5;" width="160.5" x="455" y="231.625"/><line style="stroke:#181818;stroke-width:0.5;stroke-dasharray:5.0,5.0;" x1="256.5" x2="256.5" y1="128.5703" y2="304.3281"/><line style="stroke:#181818;stroke-width:0.5;stroke-dasharray:5.0,5.0;" x1="392" x2="392" y1="128.5703" y2="304.3281"/><line style="stroke:#181818;stroke-width:0.5;stroke-dasharray:5.0,5.0;" x1="482" x2="482" y1="128.5703" y2="304.3281"/><line style="stroke:#181818;stroke-width:0.5;stroke-dasharray:5.0,5.0;" x1="571.5" x2="571.5" y1="128.5703" y2="304.3281"/><rect fill="#E2E2F0" height="31.6094" rx="2.5" ry="2.5" style="stroke:#181818;stroke-width:0.5;" width="65" x="224.5" y="95.9609"/><text fill="#000000" font-family="sans-serif" font-size="14" lengthAdjust="spacing" textLength="51" x="231.5" y="117.4941">External</text><rect fill="#E2E2F0" height="31.6094" rx="2.5" ry="2.5" style="stroke:#181818;stroke-width:0.5;" width="65" x="224.5" y="303.3281"/><text fill="#000000" font-family="sans-serif" font-size="14" lengthAdjust="spacing" textLength="51" x="231.5" y="324.8613">External</text><rect fill="#E2E2F0" height="31.6094" rx="2.5" ry="2.5" style="stroke:#181818;stroke-width:0.5;" width="98" x="343" y="95.9609"/><text fill="#000000" font-family="sans-serif" font-size="14" lengthAdjust="spacing" textLength="84" x="350" y="117.4941">Storefront Bff</text><rect fill="#E2E2F0" height="31.6094" rx="2.5" ry="2.5" style="stroke:#181818;stroke-width:0.5;" width="98" x="343" y="303.3281"/><text fill="#000000" font-family="sans-serif" font-size="14" lengthAdjust="spacing" textLength="84" x="350" y="324.8613">Storefront Bff</text><rect fill="#E2E2F0" height="31.6094" rx="2.5" ry="2.5" style="stroke:#181818;stroke-width:0.5;" width="34" x="465" y="95.9609"/><text fill="#000000" font-family="sans-serif" font-size="14" lengthAdjust="spacing" textLength="20" x="472" y="117.4941">Api</text><rect fill="#E2E2F0" height="31.6094" rx="2.5" ry="2.5" style="stroke:#181818;stroke-width:0.5;" width="34" x="465" y="303.3281"/><text fill="#000000" font-family="sans-serif" font-size="14" lengthAdjust="spacing" textLength="20" x="472" y="324.8613">Api</text><text fill="#000000" font-family="sans-serif" font-size="14" lengthAdjust="spacing" textLength="61" x="538.5" y="125.4941">Database</text><path d="M554,74.9609 C554,64.9609 572,64.9609 572,64.9609 C572,64.9609 590,64.9609 590,74.9609 L590,100.9609 C590,110.9609 572,110.9609 572,110.9609 C572,110.9609 554,110.9609 554,100.9609 L554,74.9609 " fill="#E2E2F0" style="stroke:#181818;stroke-width:1.5;"/><path d="M554,74.9609 C554,84.9609 572,84.9609 572,84.9609 C572,84.9609 590,84.9609 590,74.9609 " fill="none" style="stroke:#181818;stroke-width:1.5;"/><text fill="#000000" font-family="sans-serif" font-size="14" lengthAdjust="spacing" textLength="61" x="538.5" y="317.8613">Database</text><path d="M554,330.9375 C554,320.9375 572,320.9375 572,320.9375 C572,320.9375 590,320.9375 590,330.9375 L590,356.9375 C590,366.9375 572,366.9375 572,366.9375 C572,366.9375 554,366.9375 554,356.9375 L554,330.9375 " fill="#E2E2F0" style="stroke:#181818;stroke-width:1.5;"/><path d="M554,330.9375 C554,340.9375 572,340.9375 572,340.9375 C572,340.9375 590,340.9375 590,330.9375 " fill="none" style="stroke:#181818;stroke-width:1.5;"/><polygon fill="#181818" points="380,156.9219,390,160.9219,380,164.9219,384,160.9219" style="stroke:#181818;stroke-width:1.0;"/><line style="stroke:#181818;stroke-width:1.0;" x1="257" x2="386" y1="160.9219" y2="160.9219"/><text fill="#000000" font-family="sans-serif" font-size="13" lengthAdjust="spacing" textLength="111" x="264" y="156.0654">Delete Basket Item</text><path d="M333,175.9219 L497,175.9219 L497,184.2734 L487,194.2734 L333,194.2734 L333,175.9219 " fill="#EEEEEE" style="stroke:#000000;stroke-width:1.5;"/><rect fill="none" height="111.4063" style="stroke:#000000;stroke-width:1.5;" width="292.5" x="333" y="175.9219"/><text fill="#000000" font-family="sans-serif" font-size="13" font-weight="bold" lengthAdjust="spacing" textLength="119" x="348" y="190.417">Delete Basket Item</text><polygon fill="#181818" points="470,212.625,480,216.625,470,220.625,474,216.625" style="stroke:#181818;stroke-width:1.0;"/><line style="stroke:#181818;stroke-width:1.0;" x1="392" x2="476" y1="216.625" y2="216.625"/><text fill="#000000" font-family="sans-serif" font-size="13" lengthAdjust="spacing" textLength="66" x="399" y="211.7686">Delete Item</text><path d="M455,231.625 L573,231.625 L573,239.9766 L563,249.9766 L455,249.9766 L455,231.625 " fill="#EEEEEE" style="stroke:#000000;stroke-width:1.5;"/><rect fill="none" height="48.7031" style="stroke:#000000;stroke-width:1.5;" width="160.5" x="455" y="231.625"/><text fill="#000000" font-family="sans-serif" font-size="13" font-weight="bold" lengthAdjust="spacing" textLength="73" x="470" y="246.1201">Delete Item</text><polygon fill="#181818" points="560,268.3281,570,272.3281,560,276.3281,564,272.3281" style="stroke:#181818;stroke-width:1.0;"/><line style="stroke:#181818;stroke-width:1.0;" x1="482" x2="566" y1="272.3281" y2="272.3281"/><text fill="#000000" font-family="sans-serif" font-size="13" lengthAdjust="spacing" textLength="66" x="489" y="267.4717">Delete Item</text><!--SRC=[jP8zJyCm48Pt_ufJcEE9YG69DW5rGyh0V4qlOE7OmRv-yEyvya4KqY6gsaYHShRpl7xiOyEM88UrhsiA9S6hHQvyg2655t8Ka0aogj7jPAHW7wWAtl6qM5ML36HaILQlC7uImuRf5rBGrvwSW5F9S8n6c63fG5Qf1WERqZGeY2G_CGM7DW6CiBxVE2cVhJ_gmbTyn435TnHarCF2hfv2fdjgKVcWDfZfmQlJqkC_iwXnIcXARVq9abwle70m9ILmz_PXc1J8CzdAKsEMvNV0MNOttCVelxEBMi1jsWuPjnW9agp_katUG5SaFI17e9HQVZsGFbxl1k3XJ8-fz-3tpRc9w-KkaRZW6aUVkSWoWqj2Ro4pzCW_8-cOzbK_]--></g></svg>