<?xml version="1.0" encoding="us-ascii" standalone="no"?><svg xmlns="http://www.w3.org/2000/svg" xmlns:xlink="http://www.w3.org/1999/xlink" contentStyleType="text/css" height="383px" preserveAspectRatio="none" style="width:602px;height:383px;background:#FFFFFF;" version="1.1" viewBox="0 0 602 383" width="602px" zoomAndPan="magnify"><defs/><g><text fill="#000000" font-family="sans-serif" font-size="14" font-weight="bold" lengthAdjust="spacing" textLength="574" x="10" y="29.5332">To Do App Example - To Do App - Web App - Add Task - Sequence - Container level</text><rect fill="#FFFFFF" height="326.3281" style="stroke:#181818;stroke-width:0.5;" width="245" x="200.25" y="44.6094"/><text fill="#000000" font-family="sans-serif" font-size="13" font-weight="bold" lengthAdjust="spacing" textLength="66" x="289.75" y="58.1045">To Do App</text><rect fill="none" height="111.4063" style="stroke:#000000;stroke-width:1.5;" width="267" x="194.25" y="175.9219"/><rect fill="none" height="48.7031" style="stroke:#000000;stroke-width:1.5;" width="175" x="276.25" y="231.625"/><line style="stroke:#181818;stroke-width:0.5;stroke-dasharray:5.0,5.0;" x1="160.75" x2="160.75" y1="128.5703" y2="304.3281"/><line style="stroke:#181818;stroke-width:0.5;stroke-dasharray:5.0,5.0;" x1="240.25" x2="240.25" y1="128.5703" y2="304.3281"/><line style="stroke:#181818;stroke-width:0.5;stroke-dasharray:5.0,5.0;" x1="319.25" x2="319.25" y1="128.5703" y2="304.3281"/><line style="stroke:#181818;stroke-width:0.5;stroke-dasharray:5.0,5.0;" x1="407.25" x2="407.25" y1="128.5703" y2="304.3281"/><rect fill="#E2E2F0" height="31.6094" rx="2.5" ry="2.5" style="stroke:#181818;stroke-width:0.5;" width="65" x="128.75" y="95.9609"/><text fill="#000000" font-family="sans-serif" font-size="14" lengthAdjust="spacing" textLength="51" x="135.75" y="117.4941">External</text><rect fill="#E2E2F0" height="31.6094" rx="2.5" ry="2.5" style="stroke:#181818;stroke-width:0.5;" width="65" x="128.75" y="303.3281"/><text fill="#000000" font-family="sans-serif" font-size="14" lengthAdjust="spacing" textLength="51" x="135.75" y="324.8613">External</text><rect fill="#E2E2F0" height="31.6094" rx="2.5" ry="2.5" style="stroke:#181818;stroke-width:0.5;" width="72" x="204.25" y="95.9609"/><text fill="#000000" font-family="sans-serif" font-size="14" lengthAdjust="spacing" textLength="58" x="211.25" y="117.4941">Web App</text><rect fill="#E2E2F0" height="31.6094" rx="2.5" ry="2.5" style="stroke:#181818;stroke-width:0.5;" width="72" x="204.25" y="303.3281"/><text fill="#000000" font-family="sans-serif" font-size="14" lengthAdjust="spacing" textLength="58" x="211.25" y="324.8613">Web App</text><rect fill="#E2E2F0" height="31.6094" rx="2.5" ry="2.5" style="stroke:#181818;stroke-width:0.5;" width="67" x="286.25" y="95.9609"/><text fill="#000000" font-family="sans-serif" font-size="14" lengthAdjust="spacing" textLength="53" x="293.25" y="117.4941">Web Api</text><rect fill="#E2E2F0" height="31.6094" rx="2.5" ry="2.5" style="stroke:#181818;stroke-width:0.5;" width="67" x="286.25" y="303.3281"/><text fill="#000000" font-family="sans-serif" font-size="14" lengthAdjust="spacing" textLength="53" x="293.25" y="324.8613">Web Api</text><text fill="#000000" font-family="sans-serif" font-size="14" lengthAdjust="spacing" textLength="61" x="374.25" y="125.4941">Database</text><path d="M389.75,74.9609 C389.75,64.9609 407.75,64.9609 407.75,64.9609 C407.75,64.9609 425.75,64.9609 425.75,74.9609 L425.75,100.9609 C425.75,110.9609 407.75,110.9609 407.75,110.9609 C407.75,110.9609 389.75,110.9609 389.75,100.9609 L389.75,74.9609 " fill="#E2E2F0" style="stroke:#181818;stroke-width:1.5;"/><path d="M389.75,74.9609 C389.75,84.9609 407.75,84.9609 407.75,84.9609 C407.75,84.9609 425.75,84.9609 425.75,74.9609 " fill="none" style="stroke:#181818;stroke-width:1.5;"/><text fill="#000000" font-family="sans-serif" font-size="14" lengthAdjust="spacing" textLength="61" x="374.25" y="317.8613">Database</text><path d="M389.75,330.9375 C389.75,320.9375 407.75,320.9375 407.75,320.9375 C407.75,320.9375 425.75,320.9375 425.75,330.9375 L425.75,356.9375 C425.75,366.9375 407.75,366.9375 407.75,366.9375 C407.75,366.9375 389.75,366.9375 389.75,356.9375 L389.75,330.9375 " fill="#E2E2F0" style="stroke:#181818;stroke-width:1.5;"/><path d="M389.75,330.9375 C389.75,340.9375 407.75,340.9375 407.75,340.9375 C407.75,340.9375 425.75,340.9375 425.75,330.9375 " fill="none" style="stroke:#181818;stroke-width:1.5;"/><polygon fill="#181818" points="228.25,156.9219,238.25,160.9219,228.25,164.9219,232.25,160.9219" style="stroke:#181818;stroke-width:1.0;"/><line style="stroke:#181818;stroke-width:1.0;" x1="161.25" x2="234.25" y1="160.9219" y2="160.9219"/><text fill="#000000" font-family="sans-serif" font-size="13" lengthAdjust="spacing" textLength="55" x="168.25" y="156.0654">Add Task</text><path d="M194.25,175.9219 L297.25,175.9219 L297.25,184.2734 L287.25,194.2734 L194.25,194.2734 L194.25,175.9219 " fill="#EEEEEE" style="stroke:#000000;stroke-width:1.5;"/><rect fill="none" height="111.4063" style="stroke:#000000;stroke-width:1.5;" width="267" x="194.25" y="175.9219"/><text fill="#000000" font-family="sans-serif" font-size="13" font-weight="bold" lengthAdjust="spacing" textLength="58" x="209.25" y="190.417">Add Task</text><polygon fill="#181818" points="307.75,212.625,317.75,216.625,307.75,220.625,311.75,216.625" style="stroke:#181818;stroke-width:1.0;"/><line style="stroke:#181818;stroke-width:1.0;" x1="240.25" x2="313.75" y1="216.625" y2="216.625"/><text fill="#000000" font-family="sans-serif" font-size="13" lengthAdjust="spacing" textLength="55" x="247.25" y="211.7686">Add Task</text><path d="M276.25,231.625 L379.25,231.625 L379.25,239.9766 L369.25,249.9766 L276.25,249.9766 L276.25,231.625 " fill="#EEEEEE" style="stroke:#000000;stroke-width:1.5;"/><rect fill="none" height="48.7031" style="stroke:#000000;stroke-width:1.5;" width="175" x="276.25" y="231.625"/><text fill="#000000" font-family="sans-serif" font-size="13" font-weight="bold" lengthAdjust="spacing" textLength="58" x="291.25" y="246.1201">Add Task</text><polygon fill="#181818" points="395.75,268.3281,405.75,272.3281,395.75,276.3281,399.75,272.3281" style="stroke:#181818;stroke-width:1.0;"/><line style="stroke:#181818;stroke-width:1.0;" x1="319.75" x2="401.75" y1="272.3281" y2="272.3281"/><text fill="#000000" font-family="sans-serif" font-size="13" lengthAdjust="spacing" textLength="64" x="326.75" y="267.4717">Insert Task</text><!--SRC=[hP71JiCm38RlVWehExSdJXoGfdL8ExVIpkvg829BGkAnxkq9NLf020a58aMo7Vlt5rkq6CREOUDmxJrkHphw5Aa-nIhSSv-jzJ1WH_4vcIs_dDWUtdCtpWffom4Dlx81y1H47xGdAwYset2mP1HInCtDpYRtthXptRe7ELFWzXA5Zx6U4wy-GEz6L0k7mjN-IGi3flEbGSQRz3lNk6JdVtnhaP_hXJZMgJf5VbBLVr7La-f0GZr5HjLagr1pBWUs0wRX0C3lnudLNV5my7PPF3m6T_8VRh5aEOx-VnnTXZCl907jREGWLuYqdkd26m00]--></g></svg>