<?xml version="1.0" encoding="us-ascii" standalone="no"?><svg xmlns="http://www.w3.org/2000/svg" xmlns:xlink="http://www.w3.org/1999/xlink" contentStyleType="text/css" height="388px" preserveAspectRatio="none" style="width:678px;height:388px;background:#FFFFFF;" version="1.1" viewBox="0 0 678 388" width="678px" zoomAndPan="magnify"><defs/><g><text fill="#000000" font-family="sans-serif" font-size="14" font-weight="bold" lengthAdjust="spacing" textLength="506" x="87.75" y="29.5332">TraderXExample - TraderX - Web GUI - Start - Sequence - Container level</text><rect fill="#FFFFFF" height="338.0313" style="stroke:#181818;stroke-width:0.5;" width="377.5" x="76" y="44.6094"/><text fill="#000000" font-family="sans-serif" font-size="13" font-weight="bold" lengthAdjust="spacing" textLength="51" x="239.25" y="58.1045">TraderX</text><rect fill="none" height="185.1094" style="stroke:#000000;stroke-width:1.5;" width="602.5" x="70" y="144.9219"/><rect fill="none" height="61.7031" style="stroke:#000000;stroke-width:1.5;" width="306" x="356.5" y="261.3281"/><line style="stroke:#181818;stroke-width:0.5;stroke-dasharray:5.0,5.0;" x1="37" x2="37" y1="97.5703" y2="347.0313"/><line style="stroke:#181818;stroke-width:0.5;stroke-dasharray:5.0,5.0;" x1="115" x2="115" y1="97.5703" y2="347.0313"/><line style="stroke:#181818;stroke-width:0.5;stroke-dasharray:5.0,5.0;" x1="311.5" x2="311.5" y1="97.5703" y2="347.0313"/><line style="stroke:#181818;stroke-width:0.5;stroke-dasharray:5.0,5.0;" x1="407.5" x2="407.5" y1="97.5703" y2="347.0313"/><rect fill="#E2E2F0" height="31.6094" rx="2.5" ry="2.5" style="stroke:#181818;stroke-width:0.5;" width="65" x="5" y="64.9609"/><text fill="#000000" font-family="sans-serif" font-size="14" lengthAdjust="spacing" textLength="51" x="12" y="86.4941">External</text><rect fill="#E2E2F0" height="31.6094" rx="2.5" ry="2.5" style="stroke:#181818;stroke-width:0.5;" width="65" x="5" y="346.0313"/><text fill="#000000" font-family="sans-serif" font-size="14" lengthAdjust="spacing" textLength="51" x="12" y="367.5645">External</text><rect fill="#E2E2F0" height="31.6094" rx="2.5" ry="2.5" style="stroke:#181818;stroke-width:0.5;" width="70" x="80" y="64.9609"/><text fill="#000000" font-family="sans-serif" font-size="14" lengthAdjust="spacing" textLength="56" x="87" y="86.4941">Web GUI</text><rect fill="#E2E2F0" height="31.6094" rx="2.5" ry="2.5" style="stroke:#181818;stroke-width:0.5;" width="70" x="80" y="346.0313"/><text fill="#000000" font-family="sans-serif" font-size="14" lengthAdjust="spacing" textLength="56" x="87" y="367.5645">Web GUI</text><rect fill="#E2E2F0" height="31.6094" rx="2.5" ry="2.5" style="stroke:#181818;stroke-width:0.5;" width="89" x="267.5" y="64.9609"/><text fill="#000000" font-family="sans-serif" font-size="14" lengthAdjust="spacing" textLength="75" x="274.5" y="86.4941">Trade Feed</text><rect fill="#E2E2F0" height="31.6094" rx="2.5" ry="2.5" style="stroke:#181818;stroke-width:0.5;" width="89" x="267.5" y="346.0313"/><text fill="#000000" font-family="sans-serif" font-size="14" lengthAdjust="spacing" textLength="75" x="274.5" y="367.5645">Trade Feed</text><rect fill="#E2E2F0" height="31.6094" rx="2.5" ry="2.5" style="stroke:#181818;stroke-width:0.5;" width="83" x="366.5" y="64.9609"/><text fill="#000000" font-family="sans-serif" font-size="14" lengthAdjust="spacing" textLength="69" x="373.5" y="86.4941">Web Client</text><rect fill="#E2E2F0" height="31.6094" rx="2.5" ry="2.5" style="stroke:#181818;stroke-width:0.5;" width="83" x="366.5" y="346.0313"/><text fill="#000000" font-family="sans-serif" font-size="14" lengthAdjust="spacing" textLength="69" x="373.5" y="367.5645">Web Client</text><polygon fill="#181818" points="103,125.9219,113,129.9219,103,133.9219,107,129.9219" style="stroke:#181818;stroke-width:1.0;"/><line style="stroke:#181818;stroke-width:1.0;" x1="37.5" x2="109" y1="129.9219" y2="129.9219"/><text fill="#000000" font-family="sans-serif" font-size="13" lengthAdjust="spacing" textLength="28" x="44.5" y="125.0654">Start</text><path d="M70,144.9219 L145,144.9219 L145,153.2734 L135,163.2734 L70,163.2734 L70,144.9219 " fill="#EEEEEE" style="stroke:#000000;stroke-width:1.5;"/><rect fill="none" height="185.1094" style="stroke:#000000;stroke-width:1.5;" width="602.5" x="70" y="144.9219"/><text fill="#000000" font-family="sans-serif" font-size="13" font-weight="bold" lengthAdjust="spacing" textLength="30" x="85" y="159.417">Start</text><polygon fill="#181818" points="300,181.625,310,185.625,300,189.625,304,185.625" style="stroke:#181818;stroke-width:1.0;"/><line style="stroke:#181818;stroke-width:1.0;" x1="115" x2="306" y1="185.625" y2="185.625"/><text fill="#000000" font-family="sans-serif" font-size="13" lengthAdjust="spacing" textLength="158" x="122" y="180.7686">Receive Updates To Trades</text><polygon fill="#181818" points="300,211.9766,310,215.9766,300,219.9766,304,215.9766" style="stroke:#181818;stroke-width:1.0;"/><line style="stroke:#181818;stroke-width:1.0;" x1="115" x2="306" y1="215.9766" y2="215.9766"/><text fill="#000000" font-family="sans-serif" font-size="13" lengthAdjust="spacing" textLength="173" x="122" y="211.1201">Receive Updates To Positions</text><polygon fill="#181818" points="396,242.3281,406,246.3281,396,250.3281,400,246.3281" style="stroke:#181818;stroke-width:1.0;"/><line style="stroke:#181818;stroke-width:1.0;" x1="115" x2="402" y1="246.3281" y2="246.3281"/><text fill="#000000" font-family="sans-serif" font-size="13" lengthAdjust="spacing" textLength="238" x="122" y="241.4717">Send Trade And Position Status Updates</text><path d="M356.5,261.3281 L657.5,261.3281 L657.5,269.6797 L647.5,279.6797 L356.5,279.6797 L356.5,261.3281 " fill="#EEEEEE" style="stroke:#000000;stroke-width:1.5;"/><rect fill="none" height="61.7031" style="stroke:#000000;stroke-width:1.5;" width="306" x="356.5" y="261.3281"/><text fill="#000000" font-family="sans-serif" font-size="13" font-weight="bold" lengthAdjust="spacing" textLength="256" x="371.5" y="275.8232">Send Trade And Position Status Updates</text><line style="stroke:#181818;stroke-width:1.0;" x1="408" x2="450" y1="302.0313" y2="302.0313"/><line style="stroke:#181818;stroke-width:1.0;" x1="450" x2="450" y1="302.0313" y2="315.0313"/><line style="stroke:#181818;stroke-width:1.0;" x1="409" x2="450" y1="315.0313" y2="315.0313"/><polygon fill="#181818" points="419,311.0313,409,315.0313,419,319.0313,415,315.0313" style="stroke:#181818;stroke-width:1.0;"/><text fill="#000000" font-family="sans-serif" font-size="13" lengthAdjust="spacing" textLength="229" x="415" y="297.1748">Update Trade And Position Status View</text><!--SRC=[pPF1QiCm38RlVWgHdPlJJZiCHcX7RsLPrrtTHDiChftPIfEz_UGu3fIEKL8O2vX8jlJdiwIG8etmx6IDxdNPoqF3xY9jiBN3FJnkrsoL91s5DtwsQAeGLbX3KXbqeF68MeY6GrIb6ca8icLFw8pK6KWFnUtQiBlIjijB-qQTT5X-USA3prDWz8NOsnwo4I63czs78XJ0pudyI3QedrxWx0FZSJxn-fopEVbSTGY55M8zKtZO2la_4nTQeQ7vq35VeAc1ooI4kBomiBYVNIYuY_qNxywspMZF5fi5CXMMMPwmGdL4s3Qr9EHIsYZe_nVJndf5ofg_nfhc9BGjZ4gSwWUs4b9e8RK-qQQ-NXPy3T7L5ueGlr2-AEp23p8iyGq0]--></g></svg>