<?xml version="1.0" encoding="us-ascii" standalone="no"?><svg xmlns="http://www.w3.org/2000/svg" xmlns:xlink="http://www.w3.org/1999/xlink" contentStyleType="text/css" height="345px" preserveAspectRatio="none" style="width:1105px;height:345px;background:#FFFFFF;" version="1.1" viewBox="0 0 1105 345" width="1105px" zoomAndPan="magnify"><defs/><g><text fill="#000000" font-family="sans-serif" font-size="14" font-weight="bold" lengthAdjust="spacing" textLength="1077" x="10" y="29.5332">E Commerce Platform - Create Product - Buying And Merchandising - Buying And Merchandising App - Update Product Prices - Sequence - Container level</text><rect fill="#FFFFFF" height="294.6797" style="stroke:#181818;stroke-width:0.5;" width="309.5" x="544.5" y="44.6094"/><text fill="#000000" font-family="sans-serif" font-size="13" font-weight="bold" lengthAdjust="spacing" textLength="97" x="650.75" y="58.1045">Pricing Service</text><rect fill="none" height="141.7578" style="stroke:#000000;stroke-width:1.5;" width="575" x="295" y="144.9219"/><rect fill="none" height="79.0547" style="stroke:#000000;stroke-width:1.5;" width="321.5" x="538.5" y="200.625"/><line style="stroke:#181818;stroke-width:0.5;stroke-dasharray:5.0,5.0;" x1="255" x2="255" y1="97.5703" y2="303.6797"/><line style="stroke:#181818;stroke-width:0.5;stroke-dasharray:5.0,5.0;" x1="410" x2="410" y1="97.5703" y2="303.6797"/><line style="stroke:#181818;stroke-width:0.5;stroke-dasharray:5.0,5.0;" x1="565.5" x2="565.5" y1="97.5703" y2="303.6797"/><line style="stroke:#181818;stroke-width:0.5;stroke-dasharray:5.0,5.0;" x1="720" x2="720" y1="97.5703" y2="303.6797"/><line style="stroke:#181818;stroke-width:0.5;stroke-dasharray:5.0,5.0;" x1="809" x2="809" y1="97.5703" y2="303.6797"/><rect fill="#E2E2F0" height="31.6094" rx="2.5" ry="2.5" style="stroke:#181818;stroke-width:0.5;" width="65" x="223" y="64.9609"/><text fill="#000000" font-family="sans-serif" font-size="14" lengthAdjust="spacing" textLength="51" x="230" y="86.4941">External</text><rect fill="#E2E2F0" height="31.6094" rx="2.5" ry="2.5" style="stroke:#181818;stroke-width:0.5;" width="65" x="223" y="302.6797"/><text fill="#000000" font-family="sans-serif" font-size="14" lengthAdjust="spacing" textLength="51" x="230" y="324.2129">External</text><rect fill="#E2E2F0" height="31.6094" rx="2.5" ry="2.5" style="stroke:#181818;stroke-width:0.5;" width="211" x="305" y="64.9609"/><text fill="#000000" font-family="sans-serif" font-size="14" lengthAdjust="spacing" textLength="197" x="312" y="86.4941">Buying And Merchandising App</text><rect fill="#E2E2F0" height="31.6094" rx="2.5" ry="2.5" style="stroke:#181818;stroke-width:0.5;" width="211" x="305" y="302.6797"/><text fill="#000000" font-family="sans-serif" font-size="14" lengthAdjust="spacing" textLength="197" x="312" y="324.2129">Buying And Merchandising App</text><rect fill="#E2E2F0" height="31.6094" rx="2.5" ry="2.5" style="stroke:#181818;stroke-width:0.5;" width="34" x="548.5" y="64.9609"/><text fill="#000000" font-family="sans-serif" font-size="14" lengthAdjust="spacing" textLength="20" x="555.5" y="86.4941">Api</text><rect fill="#E2E2F0" height="31.6094" rx="2.5" ry="2.5" style="stroke:#181818;stroke-width:0.5;" width="34" x="548.5" y="302.6797"/><text fill="#000000" font-family="sans-serif" font-size="14" lengthAdjust="spacing" textLength="20" x="555.5" y="324.2129">Api</text><rect fill="#E2E2F0" height="31.6094" rx="2.5" ry="2.5" style="stroke:#181818;stroke-width:0.5;" width="75" x="683" y="64.9609"/><text fill="#000000" font-family="sans-serif" font-size="14" lengthAdjust="spacing" textLength="61" x="690" y="86.4941">Database</text><rect fill="#E2E2F0" height="31.6094" rx="2.5" ry="2.5" style="stroke:#181818;stroke-width:0.5;" width="75" x="683" y="302.6797"/><text fill="#000000" font-family="sans-serif" font-size="14" lengthAdjust="spacing" textLength="61" x="690" y="324.2129">Database</text><rect fill="#E2E2F0" height="31.6094" rx="2.5" ry="2.5" style="stroke:#181818;stroke-width:0.5;" width="82" x="768" y="64.9609"/><text fill="#000000" font-family="sans-serif" font-size="14" lengthAdjust="spacing" textLength="68" x="775" y="86.4941">Messaging</text><rect fill="#E2E2F0" height="31.6094" rx="2.5" ry="2.5" style="stroke:#181818;stroke-width:0.5;" width="82" x="768" y="302.6797"/><text fill="#000000" font-family="sans-serif" font-size="14" lengthAdjust="spacing" textLength="68" x="775" y="324.2129">Messaging</text><polygon fill="#181818" points="398.5,125.9219,408.5,129.9219,398.5,133.9219,402.5,129.9219" style="stroke:#181818;stroke-width:1.0;"/><line style="stroke:#181818;stroke-width:1.0;" x1="255.5" x2="404.5" y1="129.9219" y2="129.9219"/><text fill="#000000" font-family="sans-serif" font-size="13" lengthAdjust="spacing" textLength="131" x="262.5" y="125.0654">Update Product Prices</text><path d="M295,144.9219 L481,144.9219 L481,153.2734 L471,163.2734 L295,163.2734 L295,144.9219 " fill="#EEEEEE" style="stroke:#000000;stroke-width:1.5;"/><rect fill="none" height="141.7578" style="stroke:#000000;stroke-width:1.5;" width="575" x="295" y="144.9219"/><text fill="#000000" font-family="sans-serif" font-size="13" font-weight="bold" lengthAdjust="spacing" textLength="141" x="310" y="159.417">Update Product Prices</text><polygon fill="#181818" points="553.5,181.625,563.5,185.625,553.5,189.625,557.5,185.625" style="stroke:#181818;stroke-width:1.0;"/><line style="stroke:#181818;stroke-width:1.0;" x1="410.5" x2="559.5" y1="185.625" y2="185.625"/><text fill="#000000" font-family="sans-serif" font-size="13" lengthAdjust="spacing" textLength="131" x="417.5" y="180.7686">Update Product Prices</text><path d="M538.5,200.625 L724.5,200.625 L724.5,208.9766 L714.5,218.9766 L538.5,218.9766 L538.5,200.625 " fill="#EEEEEE" style="stroke:#000000;stroke-width:1.5;"/><rect fill="none" height="79.0547" style="stroke:#000000;stroke-width:1.5;" width="321.5" x="538.5" y="200.625"/><text fill="#000000" font-family="sans-serif" font-size="13" font-weight="bold" lengthAdjust="spacing" textLength="141" x="553.5" y="215.1201">Update Product Prices</text><polygon fill="#181818" points="708.5,237.3281,718.5,241.3281,708.5,245.3281,712.5,241.3281" style="stroke:#181818;stroke-width:1.0;"/><line style="stroke:#181818;stroke-width:1.0;" x1="565.5" x2="714.5" y1="241.3281" y2="241.3281"/><text fill="#000000" font-family="sans-serif" font-size="13" lengthAdjust="spacing" textLength="131" x="572.5" y="236.4717">Update Product Prices</text><polygon fill="#181818" points="797,267.6797,807,271.6797,797,275.6797,801,271.6797" style="stroke:#181818;stroke-width:1.0;"/><line style="stroke:#181818;stroke-width:1.0;" x1="565.5" x2="803" y1="271.6797" y2="271.6797"/><text fill="#000000" font-family="sans-serif" font-size="13" lengthAdjust="spacing" textLength="204" x="572.5" y="266.8232">Send Product Price Changed Event</text><!--SRC=[rLDBQyCm3BxxLuZit9nssc7GPHdi42Y4iREQgAaXiJrRwUFVJscRif2s54eE2_XWITRtYCIQQu8K4jiqv0k2HOsyihw16IIUa2NYRTaMB86tTgzD1NDJGYR5QpIb3btaHchkdAI_NFctrSBhWeB4S_ffoGYie5d3g0rvg6b3jL8EFUj2EpGCKRfZyWRh2310ylnfvFfHsssSsnLlqLE-3qnDYFl2uttOv1R9G-Eqjw5t8JvwSE8T7nl8-y7p4OVBPGAYrDBk8EhaTx0v-OqO4S7JzrepAP1lG7Zkz5sy3dvcQB2YXWoF29q0JtZnsUeG2y8OzXqPbnXeOkmUPamWen2mabSJCpZZA9APa7-ZbBf_k63sEld4mClbtL6LjwsxafkSr1t27nh9ILG_ncXIoVqcNDNzZxMTTqp4vTsQ3QH18eDLKGdfHjfsQtWuwXS0]--></g></svg>