<?xml version="1.0" encoding="us-ascii" standalone="no"?><svg xmlns="http://www.w3.org/2000/svg" xmlns:xlink="http://www.w3.org/1999/xlink" contentStyleType="text/css" height="414px" preserveAspectRatio="none" style="width:1105px;height:414px;background:#FFFFFF;" version="1.1" viewBox="0 0 1105 414" width="1105px" zoomAndPan="magnify"><defs/><g><text fill="#000000" font-family="sans-serif" font-size="14" font-weight="bold" lengthAdjust="spacing" textLength="1077" x="10" y="29.5332">E Commerce Platform - Create Product - Buying And Merchandising - Buying And Merchandising App - Update Product Prices - Sequence - Container level</text><rect fill="#FFFFFF" height="356.6797" style="stroke:#181818;stroke-width:0.5;" width="311.5" x="543.5" y="44.6094"/><text fill="#000000" font-family="sans-serif" font-size="13" font-weight="bold" lengthAdjust="spacing" textLength="97" x="650.75" y="58.1045">Pricing Service</text><rect fill="none" height="141.7578" style="stroke:#000000;stroke-width:1.5;" width="577" x="294" y="175.9219"/><rect fill="none" height="79.0547" style="stroke:#000000;stroke-width:1.5;" width="323.5" x="537.5" y="231.625"/><line style="stroke:#181818;stroke-width:0.5;stroke-dasharray:5.0,5.0;" x1="254" x2="254" y1="128.5703" y2="334.6797"/><line style="stroke:#181818;stroke-width:0.5;stroke-dasharray:5.0,5.0;" x1="409" x2="409" y1="128.5703" y2="334.6797"/><line style="stroke:#181818;stroke-width:0.5;stroke-dasharray:5.0,5.0;" x1="564.5" x2="564.5" y1="128.5703" y2="334.6797"/><line style="stroke:#181818;stroke-width:0.5;stroke-dasharray:5.0,5.0;" x1="719" x2="719" y1="128.5703" y2="334.6797"/><line style="stroke:#181818;stroke-width:0.5;stroke-dasharray:5.0,5.0;" x1="807" x2="807" y1="128.5703" y2="334.6797"/><rect fill="#E2E2F0" height="31.6094" rx="2.5" ry="2.5" style="stroke:#181818;stroke-width:0.5;" width="65" x="222" y="95.9609"/><text fill="#000000" font-family="sans-serif" font-size="14" lengthAdjust="spacing" textLength="51" x="229" y="117.4941">External</text><rect fill="#E2E2F0" height="31.6094" rx="2.5" ry="2.5" style="stroke:#181818;stroke-width:0.5;" width="65" x="222" y="333.6797"/><text fill="#000000" font-family="sans-serif" font-size="14" lengthAdjust="spacing" textLength="51" x="229" y="355.2129">External</text><rect fill="#E2E2F0" height="31.6094" rx="2.5" ry="2.5" style="stroke:#181818;stroke-width:0.5;" width="211" x="304" y="95.9609"/><text fill="#000000" font-family="sans-serif" font-size="14" lengthAdjust="spacing" textLength="197" x="311" y="117.4941">Buying And Merchandising App</text><rect fill="#E2E2F0" height="31.6094" rx="2.5" ry="2.5" style="stroke:#181818;stroke-width:0.5;" width="211" x="304" y="333.6797"/><text fill="#000000" font-family="sans-serif" font-size="14" lengthAdjust="spacing" textLength="197" x="311" y="355.2129">Buying And Merchandising App</text><rect fill="#E2E2F0" height="31.6094" rx="2.5" ry="2.5" style="stroke:#181818;stroke-width:0.5;" width="34" x="547.5" y="95.9609"/><text fill="#000000" font-family="sans-serif" font-size="14" lengthAdjust="spacing" textLength="20" x="554.5" y="117.4941">Api</text><rect fill="#E2E2F0" height="31.6094" rx="2.5" ry="2.5" style="stroke:#181818;stroke-width:0.5;" width="34" x="547.5" y="333.6797"/><text fill="#000000" font-family="sans-serif" font-size="14" lengthAdjust="spacing" textLength="20" x="554.5" y="355.2129">Api</text><text fill="#000000" font-family="sans-serif" font-size="14" lengthAdjust="spacing" textLength="61" x="686" y="125.4941">Database</text><path d="M701.5,74.9609 C701.5,64.9609 719.5,64.9609 719.5,64.9609 C719.5,64.9609 737.5,64.9609 737.5,74.9609 L737.5,100.9609 C737.5,110.9609 719.5,110.9609 719.5,110.9609 C719.5,110.9609 701.5,110.9609 701.5,100.9609 L701.5,74.9609 " fill="#E2E2F0" style="stroke:#181818;stroke-width:1.5;"/><path d="M701.5,74.9609 C701.5,84.9609 719.5,84.9609 719.5,84.9609 C719.5,84.9609 737.5,84.9609 737.5,74.9609 " fill="none" style="stroke:#181818;stroke-width:1.5;"/><text fill="#000000" font-family="sans-serif" font-size="14" lengthAdjust="spacing" textLength="61" x="686" y="348.2129">Database</text><path d="M701.5,361.2891 C701.5,351.2891 719.5,351.2891 719.5,351.2891 C719.5,351.2891 737.5,351.2891 737.5,361.2891 L737.5,387.2891 C737.5,397.2891 719.5,397.2891 719.5,397.2891 C719.5,397.2891 701.5,397.2891 701.5,387.2891 L701.5,361.2891 " fill="#E2E2F0" style="stroke:#181818;stroke-width:1.5;"/><path d="M701.5,361.2891 C701.5,371.2891 719.5,371.2891 719.5,371.2891 C719.5,371.2891 737.5,371.2891 737.5,361.2891 " fill="none" style="stroke:#181818;stroke-width:1.5;"/><path d="M768,100.9609 L846,100.9609 C851,100.9609 851,114.7656 851,114.7656 C851,114.7656 851,128.5703 846,128.5703 L768,128.5703 C763,128.5703 763,114.7656 763,114.7656 C763,114.7656 763,100.9609 768,100.9609 " fill="#E2E2F0" style="stroke:#181818;stroke-width:0.5;"/><path d="M846,100.9609 C841,100.9609 841,114.7656 841,114.7656 C841,128.5703 846,128.5703 846,128.5703 " fill="none" style="stroke:#181818;stroke-width:0.5;"/><text fill="#000000" font-family="sans-serif" font-size="14" lengthAdjust="spacing" textLength="68" x="768" y="120.4941">Messaging</text><path d="M768,333.6797 L846,333.6797 C851,333.6797 851,347.4844 851,347.4844 C851,347.4844 851,361.2891 846,361.2891 L768,361.2891 C763,361.2891 763,347.4844 763,347.4844 C763,347.4844 763,333.6797 768,333.6797 " fill="#E2E2F0" style="stroke:#181818;stroke-width:0.5;"/><path d="M846,333.6797 C841,333.6797 841,347.4844 841,347.4844 C841,361.2891 846,361.2891 846,361.2891 " fill="none" style="stroke:#181818;stroke-width:0.5;"/><text fill="#000000" font-family="sans-serif" font-size="14" lengthAdjust="spacing" textLength="68" x="768" y="353.2129">Messaging</text><polygon fill="#181818" points="397.5,156.9219,407.5,160.9219,397.5,164.9219,401.5,160.9219" style="stroke:#181818;stroke-width:1.0;"/><line style="stroke:#181818;stroke-width:1.0;" x1="254.5" x2="403.5" y1="160.9219" y2="160.9219"/><text fill="#000000" font-family="sans-serif" font-size="13" lengthAdjust="spacing" textLength="131" x="261.5" y="156.0654">Update Product Prices</text><path d="M294,175.9219 L480,175.9219 L480,184.2734 L470,194.2734 L294,194.2734 L294,175.9219 " fill="#EEEEEE" style="stroke:#000000;stroke-width:1.5;"/><rect fill="none" height="141.7578" style="stroke:#000000;stroke-width:1.5;" width="577" x="294" y="175.9219"/><text fill="#000000" font-family="sans-serif" font-size="13" font-weight="bold" lengthAdjust="spacing" textLength="141" x="309" y="190.417">Update Product Prices</text><polygon fill="#181818" points="552.5,212.625,562.5,216.625,552.5,220.625,556.5,216.625" style="stroke:#181818;stroke-width:1.0;"/><line style="stroke:#181818;stroke-width:1.0;" x1="409.5" x2="558.5" y1="216.625" y2="216.625"/><text fill="#000000" font-family="sans-serif" font-size="13" lengthAdjust="spacing" textLength="131" x="416.5" y="211.7686">Update Product Prices</text><path d="M537.5,231.625 L723.5,231.625 L723.5,239.9766 L713.5,249.9766 L537.5,249.9766 L537.5,231.625 " fill="#EEEEEE" style="stroke:#000000;stroke-width:1.5;"/><rect fill="none" height="79.0547" style="stroke:#000000;stroke-width:1.5;" width="323.5" x="537.5" y="231.625"/><text fill="#000000" font-family="sans-serif" font-size="13" font-weight="bold" lengthAdjust="spacing" textLength="141" x="552.5" y="246.1201">Update Product Prices</text><polygon fill="#181818" points="707.5,268.3281,717.5,272.3281,707.5,276.3281,711.5,272.3281" style="stroke:#181818;stroke-width:1.0;"/><line style="stroke:#181818;stroke-width:1.0;" x1="564.5" x2="713.5" y1="272.3281" y2="272.3281"/><text fill="#000000" font-family="sans-serif" font-size="13" lengthAdjust="spacing" textLength="131" x="571.5" y="267.4717">Update Product Prices</text><polygon fill="#181818" points="795,298.6797,805,302.6797,795,306.6797,799,302.6797" style="stroke:#181818;stroke-width:1.0;"/><line style="stroke:#181818;stroke-width:1.0;" x1="564.5" x2="801" y1="302.6797" y2="302.6797"/><text fill="#000000" font-family="sans-serif" font-size="13" lengthAdjust="spacing" textLength="204" x="571.5" y="297.8232">Send Product Price Changed Event</text><!--SRC=[rPDDQyCm38Rl_XKYEpUddNOOT5a6EnGAOUoi9cfgI6pFLlhnxwUaILde1uMImmA1MBRrlAyYiUQA88N4rZNvd61P8Q-jhs46YITaYNXRD3bBuAqvQ5F2t1ImaCCRD8KERUJ6rjmvsVvonTzKIwzp2XBFwASX8rYXMSEe3NceQ4kLKWuzwrmxD0nHkcVo1gi8C43o_6ba-L7PNPpPDU_GKtO8J7M8XuF7zJZ9BP5TudGemr25-5Y3NdTyJ23tHzVFD5m-9X2bLdOFKMk_nMRajrA829w-Dvf9WJmZmNEdxzBLrNE11akgoV2Pe1xOy-9JgKCiX0uhlmTN60YYz_vhOl20wUZI18sW5nG2bd9-OlQ9eqXQGNw9Kkh-deBPw-ID0Y-NHqQLtZRkojxaekum_b0dJkBwCKMJMXvcuAhlV-pjD6DYBcl7R6GD4cciaWf8jvAs7SFkLRy0]--></g></svg>