<?xml version="1.0" encoding="us-ascii" standalone="no"?><svg xmlns="http://www.w3.org/2000/svg" xmlns:xlink="http://www.w3.org/1999/xlink" contentStyleType="text/css" height="414px" preserveAspectRatio="none" style="width:1105px;height:414px;background:#FFFFFF;" version="1.1" viewBox="0 0 1105 414" width="1105px" zoomAndPan="magnify"><defs/><g><text fill="#000000" font-family="sans-serif" font-size="14" font-weight="bold" lengthAdjust="spacing" textLength="1077" x="10" y="29.5332">E Commerce Platform - Create Product - Buying And Merchandising - Buying And Merchandising App - Update Product Prices - Sequence - Container level</text><rect fill="#FFFFFF" height="356.6797" style="stroke:#181818;stroke-width:0.5;" width="305.5" x="546.5" y="44.6094"/><text fill="#000000" font-family="sans-serif" font-size="13" font-weight="bold" lengthAdjust="spacing" textLength="97" x="650.75" y="58.1045">Pricing Service</text><rect fill="none" height="141.7578" style="stroke:#000000;stroke-width:1.5;" width="571" x="297" y="175.9219"/><rect fill="none" height="79.0547" style="stroke:#000000;stroke-width:1.5;" width="317.5" x="540.5" y="231.625"/><line style="stroke:#181818;stroke-width:0.5;stroke-dasharray:5.0,5.0;" x1="257" x2="257" y1="128.5703" y2="334.6797"/><line style="stroke:#181818;stroke-width:0.5;stroke-dasharray:5.0,5.0;" x1="412" x2="412" y1="128.5703" y2="334.6797"/><line style="stroke:#181818;stroke-width:0.5;stroke-dasharray:5.0,5.0;" x1="567.5" x2="567.5" y1="128.5703" y2="334.6797"/><line style="stroke:#181818;stroke-width:0.5;stroke-dasharray:5.0,5.0;" x1="722" x2="722" y1="128.5703" y2="334.6797"/><line style="stroke:#181818;stroke-width:0.5;stroke-dasharray:5.0,5.0;" x1="807" x2="807" y1="128.5703" y2="334.6797"/><rect fill="#E2E2F0" height="31.6094" rx="2.5" ry="2.5" style="stroke:#181818;stroke-width:0.5;" width="65" x="225" y="95.9609"/><text fill="#000000" font-family="sans-serif" font-size="14" lengthAdjust="spacing" textLength="51" x="232" y="117.4941">External</text><rect fill="#E2E2F0" height="31.6094" rx="2.5" ry="2.5" style="stroke:#181818;stroke-width:0.5;" width="65" x="225" y="333.6797"/><text fill="#000000" font-family="sans-serif" font-size="14" lengthAdjust="spacing" textLength="51" x="232" y="355.2129">External</text><rect fill="#E2E2F0" height="31.6094" rx="2.5" ry="2.5" style="stroke:#181818;stroke-width:0.5;" width="211" x="307" y="95.9609"/><text fill="#000000" font-family="sans-serif" font-size="14" lengthAdjust="spacing" textLength="197" x="314" y="117.4941">Buying And Merchandising App</text><rect fill="#E2E2F0" height="31.6094" rx="2.5" ry="2.5" style="stroke:#181818;stroke-width:0.5;" width="211" x="307" y="333.6797"/><text fill="#000000" font-family="sans-serif" font-size="14" lengthAdjust="spacing" textLength="197" x="314" y="355.2129">Buying And Merchandising App</text><rect fill="#E2E2F0" height="31.6094" rx="2.5" ry="2.5" style="stroke:#181818;stroke-width:0.5;" width="34" x="550.5" y="95.9609"/><text fill="#000000" font-family="sans-serif" font-size="14" lengthAdjust="spacing" textLength="20" x="557.5" y="117.4941">Api</text><rect fill="#E2E2F0" height="31.6094" rx="2.5" ry="2.5" style="stroke:#181818;stroke-width:0.5;" width="34" x="550.5" y="333.6797"/><text fill="#000000" font-family="sans-serif" font-size="14" lengthAdjust="spacing" textLength="20" x="557.5" y="355.2129">Api</text><text fill="#000000" font-family="sans-serif" font-size="14" lengthAdjust="spacing" textLength="61" x="689" y="125.4941">Database</text><path d="M704.5,74.9609 C704.5,64.9609 722.5,64.9609 722.5,64.9609 C722.5,64.9609 740.5,64.9609 740.5,74.9609 L740.5,100.9609 C740.5,110.9609 722.5,110.9609 722.5,110.9609 C722.5,110.9609 704.5,110.9609 704.5,100.9609 L704.5,74.9609 " fill="#E2E2F0" style="stroke:#181818;stroke-width:1.5;"/><path d="M704.5,74.9609 C704.5,84.9609 722.5,84.9609 722.5,84.9609 C722.5,84.9609 740.5,84.9609 740.5,74.9609 " fill="none" style="stroke:#181818;stroke-width:1.5;"/><text fill="#000000" font-family="sans-serif" font-size="14" lengthAdjust="spacing" textLength="61" x="689" y="348.2129">Database</text><path d="M704.5,361.2891 C704.5,351.2891 722.5,351.2891 722.5,351.2891 C722.5,351.2891 740.5,351.2891 740.5,361.2891 L740.5,387.2891 C740.5,397.2891 722.5,397.2891 722.5,397.2891 C722.5,397.2891 704.5,397.2891 704.5,387.2891 L704.5,361.2891 " fill="#E2E2F0" style="stroke:#181818;stroke-width:1.5;"/><path d="M704.5,361.2891 C704.5,371.2891 722.5,371.2891 722.5,371.2891 C722.5,371.2891 740.5,371.2891 740.5,361.2891 " fill="none" style="stroke:#181818;stroke-width:1.5;"/><rect fill="#E2E2F0" height="31.6094" rx="2.5" ry="2.5" style="stroke:#181818;stroke-width:0.5;" width="82" x="766" y="95.9609"/><text fill="#000000" font-family="sans-serif" font-size="14" lengthAdjust="spacing" textLength="68" x="773" y="117.4941">Messaging</text><rect fill="#E2E2F0" height="31.6094" rx="2.5" ry="2.5" style="stroke:#181818;stroke-width:0.5;" width="82" x="766" y="333.6797"/><text fill="#000000" font-family="sans-serif" font-size="14" lengthAdjust="spacing" textLength="68" x="773" y="355.2129">Messaging</text><polygon fill="#181818" points="400.5,156.9219,410.5,160.9219,400.5,164.9219,404.5,160.9219" style="stroke:#181818;stroke-width:1.0;"/><line style="stroke:#181818;stroke-width:1.0;" x1="257.5" x2="406.5" y1="160.9219" y2="160.9219"/><text fill="#000000" font-family="sans-serif" font-size="13" lengthAdjust="spacing" textLength="131" x="264.5" y="156.0654">Update Product Prices</text><path d="M297,175.9219 L483,175.9219 L483,184.2734 L473,194.2734 L297,194.2734 L297,175.9219 " fill="#EEEEEE" style="stroke:#000000;stroke-width:1.5;"/><rect fill="none" height="141.7578" style="stroke:#000000;stroke-width:1.5;" width="571" x="297" y="175.9219"/><text fill="#000000" font-family="sans-serif" font-size="13" font-weight="bold" lengthAdjust="spacing" textLength="141" x="312" y="190.417">Update Product Prices</text><polygon fill="#181818" points="555.5,212.625,565.5,216.625,555.5,220.625,559.5,216.625" style="stroke:#181818;stroke-width:1.0;"/><line style="stroke:#181818;stroke-width:1.0;" x1="412.5" x2="561.5" y1="216.625" y2="216.625"/><text fill="#000000" font-family="sans-serif" font-size="13" lengthAdjust="spacing" textLength="131" x="419.5" y="211.7686">Update Product Prices</text><path d="M540.5,231.625 L726.5,231.625 L726.5,239.9766 L716.5,249.9766 L540.5,249.9766 L540.5,231.625 " fill="#EEEEEE" style="stroke:#000000;stroke-width:1.5;"/><rect fill="none" height="79.0547" style="stroke:#000000;stroke-width:1.5;" width="317.5" x="540.5" y="231.625"/><text fill="#000000" font-family="sans-serif" font-size="13" font-weight="bold" lengthAdjust="spacing" textLength="141" x="555.5" y="246.1201">Update Product Prices</text><polygon fill="#181818" points="710.5,268.3281,720.5,272.3281,710.5,276.3281,714.5,272.3281" style="stroke:#181818;stroke-width:1.0;"/><line style="stroke:#181818;stroke-width:1.0;" x1="567.5" x2="716.5" y1="272.3281" y2="272.3281"/><text fill="#000000" font-family="sans-serif" font-size="13" lengthAdjust="spacing" textLength="131" x="574.5" y="267.4717">Update Product Prices</text><polygon fill="#181818" points="795,298.6797,805,302.6797,795,306.6797,799,302.6797" style="stroke:#181818;stroke-width:1.0;"/><line style="stroke:#181818;stroke-width:1.0;" x1="567.5" x2="801" y1="302.6797" y2="302.6797"/><text fill="#000000" font-family="sans-serif" font-size="13" lengthAdjust="spacing" textLength="204" x="574.5" y="297.8232">Send Product Price Changed Event</text><!--SRC=[rLDBQyCm3BxxLuZit9nssc7GPHdiK2Y4iREQgAaXiJrRwUFVJqcJij07XPB30ePOh-_xP8arLmGf9BQkoUS4omfvRNqDCqWy8Ol5swB9MGnlpK6R4kQcW8K4Rz0KEhIM6wwvS-B-SiNVKaklSmfYp-Yd8IEmWcODepRaeQ8jLKevzAnpxT0mHEcUoHki8i00oVEdaUj7PNTnPjUyGq_P8J3L8Hu2Z_TnaLiakyBfq8QX2_6n1ptl-5X0yaVfPnmkXmc8KYkxXwYLty9cvBVIY0YUlZUQIO5y8y9pf-_YrVLpWGPBgidm6Q4UiCUBJwqEiI1qiF8ykC904BttVnC33p3deXSK0fQIDJ634uuY6GXv6ANK_PC5izV9nmLUBY-EAhrjt1NVvAJk4FxGF4wY-Z56aqeUDk6gxd-ixRHZ8Yvhrsma3H8Ph98AIBTIjbt3xgXV]--></g></svg>