<?xml version="1.0" encoding="us-ascii" standalone="no"?><svg xmlns="http://www.w3.org/2000/svg" xmlns:xlink="http://www.w3.org/1999/xlink" contentStyleType="text/css" height="414px" preserveAspectRatio="none" style="width:937px;height:414px;background:#FFFFFF;" version="1.1" viewBox="0 0 937 414" width="937px" zoomAndPan="magnify"><defs/><g><text fill="#000000" font-family="sans-serif" font-size="14" font-weight="bold" lengthAdjust="spacing" textLength="909" x="10" y="29.5332">E Commerce Platform - Create Product - Product Information Management - PIM App - Delete Product - Sequence - Container level</text><rect fill="#FFFFFF" height="356.6797" style="stroke:#181818;stroke-width:0.5;" width="266.5" x="437" y="44.6094"/><text fill="#000000" font-family="sans-serif" font-size="13" font-weight="bold" lengthAdjust="spacing" textLength="101" x="519.75" y="58.1045">Product Service</text><rect fill="none" height="141.7578" style="stroke:#000000;stroke-width:1.5;" width="414.5" x="305" y="175.9219"/><rect fill="none" height="79.0547" style="stroke:#000000;stroke-width:1.5;" width="278.5" x="431" y="231.625"/><line style="stroke:#181818;stroke-width:0.5;stroke-dasharray:5.0,5.0;" x1="237.5" x2="237.5" y1="128.5703" y2="334.6797"/><line style="stroke:#181818;stroke-width:0.5;stroke-dasharray:5.0,5.0;" x1="348" x2="348" y1="128.5703" y2="334.6797"/><line style="stroke:#181818;stroke-width:0.5;stroke-dasharray:5.0,5.0;" x1="458" x2="458" y1="128.5703" y2="334.6797"/><line style="stroke:#181818;stroke-width:0.5;stroke-dasharray:5.0,5.0;" x1="567.5" x2="567.5" y1="128.5703" y2="334.6797"/><line style="stroke:#181818;stroke-width:0.5;stroke-dasharray:5.0,5.0;" x1="655.5" x2="655.5" y1="128.5703" y2="334.6797"/><rect fill="#E2E2F0" height="31.6094" rx="2.5" ry="2.5" style="stroke:#181818;stroke-width:0.5;" width="65" x="205.5" y="95.9609"/><text fill="#000000" font-family="sans-serif" font-size="14" lengthAdjust="spacing" textLength="51" x="212.5" y="117.4941">External</text><rect fill="#E2E2F0" height="31.6094" rx="2.5" ry="2.5" style="stroke:#181818;stroke-width:0.5;" width="65" x="205.5" y="333.6797"/><text fill="#000000" font-family="sans-serif" font-size="14" lengthAdjust="spacing" textLength="51" x="212.5" y="355.2129">External</text><rect fill="#E2E2F0" height="31.6094" rx="2.5" ry="2.5" style="stroke:#181818;stroke-width:0.5;" width="66" x="315" y="95.9609"/><text fill="#000000" font-family="sans-serif" font-size="14" lengthAdjust="spacing" textLength="52" x="322" y="117.4941">PIM App</text><rect fill="#E2E2F0" height="31.6094" rx="2.5" ry="2.5" style="stroke:#181818;stroke-width:0.5;" width="66" x="315" y="333.6797"/><text fill="#000000" font-family="sans-serif" font-size="14" lengthAdjust="spacing" textLength="52" x="322" y="355.2129">PIM App</text><rect fill="#E2E2F0" height="31.6094" rx="2.5" ry="2.5" style="stroke:#181818;stroke-width:0.5;" width="34" x="441" y="95.9609"/><text fill="#000000" font-family="sans-serif" font-size="14" lengthAdjust="spacing" textLength="20" x="448" y="117.4941">Api</text><rect fill="#E2E2F0" height="31.6094" rx="2.5" ry="2.5" style="stroke:#181818;stroke-width:0.5;" width="34" x="441" y="333.6797"/><text fill="#000000" font-family="sans-serif" font-size="14" lengthAdjust="spacing" textLength="20" x="448" y="355.2129">Api</text><text fill="#000000" font-family="sans-serif" font-size="14" lengthAdjust="spacing" textLength="61" x="534.5" y="125.4941">Database</text><path d="M550,74.9609 C550,64.9609 568,64.9609 568,64.9609 C568,64.9609 586,64.9609 586,74.9609 L586,100.9609 C586,110.9609 568,110.9609 568,110.9609 C568,110.9609 550,110.9609 550,100.9609 L550,74.9609 " fill="#E2E2F0" style="stroke:#181818;stroke-width:1.5;"/><path d="M550,74.9609 C550,84.9609 568,84.9609 568,84.9609 C568,84.9609 586,84.9609 586,74.9609 " fill="none" style="stroke:#181818;stroke-width:1.5;"/><text fill="#000000" font-family="sans-serif" font-size="14" lengthAdjust="spacing" textLength="61" x="534.5" y="348.2129">Database</text><path d="M550,361.2891 C550,351.2891 568,351.2891 568,351.2891 C568,351.2891 586,351.2891 586,361.2891 L586,387.2891 C586,397.2891 568,397.2891 568,397.2891 C568,397.2891 550,397.2891 550,387.2891 L550,361.2891 " fill="#E2E2F0" style="stroke:#181818;stroke-width:1.5;"/><path d="M550,361.2891 C550,371.2891 568,371.2891 568,371.2891 C568,371.2891 586,371.2891 586,361.2891 " fill="none" style="stroke:#181818;stroke-width:1.5;"/><path d="M616.5,100.9609 L694.5,100.9609 C699.5,100.9609 699.5,114.7656 699.5,114.7656 C699.5,114.7656 699.5,128.5703 694.5,128.5703 L616.5,128.5703 C611.5,128.5703 611.5,114.7656 611.5,114.7656 C611.5,114.7656 611.5,100.9609 616.5,100.9609 " fill="#E2E2F0" style="stroke:#181818;stroke-width:0.5;"/><path d="M694.5,100.9609 C689.5,100.9609 689.5,114.7656 689.5,114.7656 C689.5,128.5703 694.5,128.5703 694.5,128.5703 " fill="none" style="stroke:#181818;stroke-width:0.5;"/><text fill="#000000" font-family="sans-serif" font-size="14" lengthAdjust="spacing" textLength="68" x="616.5" y="120.4941">Messaging</text><path d="M616.5,333.6797 L694.5,333.6797 C699.5,333.6797 699.5,347.4844 699.5,347.4844 C699.5,347.4844 699.5,361.2891 694.5,361.2891 L616.5,361.2891 C611.5,361.2891 611.5,347.4844 611.5,347.4844 C611.5,347.4844 611.5,333.6797 616.5,333.6797 " fill="#E2E2F0" style="stroke:#181818;stroke-width:0.5;"/><path d="M694.5,333.6797 C689.5,333.6797 689.5,347.4844 689.5,347.4844 C689.5,361.2891 694.5,361.2891 694.5,361.2891 " fill="none" style="stroke:#181818;stroke-width:0.5;"/><text fill="#000000" font-family="sans-serif" font-size="14" lengthAdjust="spacing" textLength="68" x="616.5" y="353.2129">Messaging</text><polygon fill="#181818" points="336,156.9219,346,160.9219,336,164.9219,340,160.9219" style="stroke:#181818;stroke-width:1.0;"/><line style="stroke:#181818;stroke-width:1.0;" x1="238" x2="342" y1="160.9219" y2="160.9219"/><text fill="#000000" font-family="sans-serif" font-size="13" lengthAdjust="spacing" textLength="86" x="245" y="156.0654">Delete Product</text><path d="M305,175.9219 L444,175.9219 L444,184.2734 L434,194.2734 L305,194.2734 L305,175.9219 " fill="#EEEEEE" style="stroke:#000000;stroke-width:1.5;"/><rect fill="none" height="141.7578" style="stroke:#000000;stroke-width:1.5;" width="414.5" x="305" y="175.9219"/><text fill="#000000" font-family="sans-serif" font-size="13" font-weight="bold" lengthAdjust="spacing" textLength="94" x="320" y="190.417">Delete Product</text><polygon fill="#181818" points="446,212.625,456,216.625,446,220.625,450,216.625" style="stroke:#181818;stroke-width:1.0;"/><line style="stroke:#181818;stroke-width:1.0;" x1="348" x2="452" y1="216.625" y2="216.625"/><text fill="#000000" font-family="sans-serif" font-size="13" lengthAdjust="spacing" textLength="86" x="355" y="211.7686">Delete Product</text><path d="M431,231.625 L570,231.625 L570,239.9766 L560,249.9766 L431,249.9766 L431,231.625 " fill="#EEEEEE" style="stroke:#000000;stroke-width:1.5;"/><rect fill="none" height="79.0547" style="stroke:#000000;stroke-width:1.5;" width="278.5" x="431" y="231.625"/><text fill="#000000" font-family="sans-serif" font-size="13" font-weight="bold" lengthAdjust="spacing" textLength="94" x="446" y="246.1201">Delete Product</text><polygon fill="#181818" points="556,268.3281,566,272.3281,556,276.3281,560,272.3281" style="stroke:#181818;stroke-width:1.0;"/><line style="stroke:#181818;stroke-width:1.0;" x1="458" x2="562" y1="272.3281" y2="272.3281"/><text fill="#000000" font-family="sans-serif" font-size="13" lengthAdjust="spacing" textLength="86" x="465" y="267.4717">Delete Product</text><polygon fill="#181818" points="643.5,298.6797,653.5,302.6797,643.5,306.6797,647.5,302.6797" style="stroke:#181818;stroke-width:1.0;"/><line style="stroke:#181818;stroke-width:1.0;" x1="458" x2="649.5" y1="302.6797" y2="302.6797"/><text fill="#000000" font-family="sans-serif" font-size="13" lengthAdjust="spacing" textLength="163" x="465" y="297.8232">Send Product Deleted Event</text><!--SRC=[tLHBQyCm3BxxLuZit9nssc5GqWnwA0nos5bDrCpWsAcjjDs_d_9mjxPGTbWxM2145ihti2MpPaEGG-QQXdn9y6gGDyutC8FC4x9alAkwaYKHewNjAv2rix12YpKrP8U2vGhcRIlHWWoT_5lGjYCh18BhBAEsvC7GZenIBNhMfMvHG9BymEGjcWGmGFQujB9yCMwV5cx3U_HKV0Ic9gInS5oVWan21emyUelMqj7Of2sTljzCVNcw81LWmLLgxGx2ChahoEzqIGaylBrh9WNodCYPj_e6KiRYYJmzxcf8XMxGK27Z6WD1ifYYUwg8d8CKEVnETAme1AorhUyfv4Ygo5OW9wUK-dbZmUpv5Yq4JsSpechlklOyUGlcNpTqhH7_nETLGVUp7oVWSW_-fTtZd8dVeX-rU3-EvYl8TmBO3-7mgay0]--></g></svg>