<?xml version="1.0" encoding="us-ascii" standalone="no"?><svg xmlns="http://www.w3.org/2000/svg" xmlns:xlink="http://www.w3.org/1999/xlink" contentStyleType="text/css" height="414px" preserveAspectRatio="none" style="width:937px;height:414px;background:#FFFFFF;" version="1.1" viewBox="0 0 937 414" width="937px" zoomAndPan="magnify"><defs/><g><text fill="#000000" font-family="sans-serif" font-size="14" font-weight="bold" lengthAdjust="spacing" textLength="909" x="10" y="29.5332">E Commerce Platform - Create Product - Product Information Management - PIM App - Delete Product - Sequence - Container level</text><rect fill="#FFFFFF" height="356.6797" style="stroke:#181818;stroke-width:0.5;" width="260.5" x="440" y="44.6094"/><text fill="#000000" font-family="sans-serif" font-size="13" font-weight="bold" lengthAdjust="spacing" textLength="101" x="519.75" y="58.1045">Product Service</text><rect fill="none" height="141.7578" style="stroke:#000000;stroke-width:1.5;" width="408.5" x="308" y="175.9219"/><rect fill="none" height="79.0547" style="stroke:#000000;stroke-width:1.5;" width="272.5" x="434" y="231.625"/><line style="stroke:#181818;stroke-width:0.5;stroke-dasharray:5.0,5.0;" x1="240.5" x2="240.5" y1="128.5703" y2="334.6797"/><line style="stroke:#181818;stroke-width:0.5;stroke-dasharray:5.0,5.0;" x1="351" x2="351" y1="128.5703" y2="334.6797"/><line style="stroke:#181818;stroke-width:0.5;stroke-dasharray:5.0,5.0;" x1="461" x2="461" y1="128.5703" y2="334.6797"/><line style="stroke:#181818;stroke-width:0.5;stroke-dasharray:5.0,5.0;" x1="570.5" x2="570.5" y1="128.5703" y2="334.6797"/><line style="stroke:#181818;stroke-width:0.5;stroke-dasharray:5.0,5.0;" x1="655.5" x2="655.5" y1="128.5703" y2="334.6797"/><rect fill="#E2E2F0" height="31.6094" rx="2.5" ry="2.5" style="stroke:#181818;stroke-width:0.5;" width="65" x="208.5" y="95.9609"/><text fill="#000000" font-family="sans-serif" font-size="14" lengthAdjust="spacing" textLength="51" x="215.5" y="117.4941">External</text><rect fill="#E2E2F0" height="31.6094" rx="2.5" ry="2.5" style="stroke:#181818;stroke-width:0.5;" width="65" x="208.5" y="333.6797"/><text fill="#000000" font-family="sans-serif" font-size="14" lengthAdjust="spacing" textLength="51" x="215.5" y="355.2129">External</text><rect fill="#E2E2F0" height="31.6094" rx="2.5" ry="2.5" style="stroke:#181818;stroke-width:0.5;" width="66" x="318" y="95.9609"/><text fill="#000000" font-family="sans-serif" font-size="14" lengthAdjust="spacing" textLength="52" x="325" y="117.4941">PIM App</text><rect fill="#E2E2F0" height="31.6094" rx="2.5" ry="2.5" style="stroke:#181818;stroke-width:0.5;" width="66" x="318" y="333.6797"/><text fill="#000000" font-family="sans-serif" font-size="14" lengthAdjust="spacing" textLength="52" x="325" y="355.2129">PIM App</text><rect fill="#E2E2F0" height="31.6094" rx="2.5" ry="2.5" style="stroke:#181818;stroke-width:0.5;" width="34" x="444" y="95.9609"/><text fill="#000000" font-family="sans-serif" font-size="14" lengthAdjust="spacing" textLength="20" x="451" y="117.4941">Api</text><rect fill="#E2E2F0" height="31.6094" rx="2.5" ry="2.5" style="stroke:#181818;stroke-width:0.5;" width="34" x="444" y="333.6797"/><text fill="#000000" font-family="sans-serif" font-size="14" lengthAdjust="spacing" textLength="20" x="451" y="355.2129">Api</text><text fill="#000000" font-family="sans-serif" font-size="14" lengthAdjust="spacing" textLength="61" x="537.5" y="125.4941">Database</text><path d="M553,74.9609 C553,64.9609 571,64.9609 571,64.9609 C571,64.9609 589,64.9609 589,74.9609 L589,100.9609 C589,110.9609 571,110.9609 571,110.9609 C571,110.9609 553,110.9609 553,100.9609 L553,74.9609 " fill="#E2E2F0" style="stroke:#181818;stroke-width:1.5;"/><path d="M553,74.9609 C553,84.9609 571,84.9609 571,84.9609 C571,84.9609 589,84.9609 589,74.9609 " fill="none" style="stroke:#181818;stroke-width:1.5;"/><text fill="#000000" font-family="sans-serif" font-size="14" lengthAdjust="spacing" textLength="61" x="537.5" y="348.2129">Database</text><path d="M553,361.2891 C553,351.2891 571,351.2891 571,351.2891 C571,351.2891 589,351.2891 589,361.2891 L589,387.2891 C589,397.2891 571,397.2891 571,397.2891 C571,397.2891 553,397.2891 553,387.2891 L553,361.2891 " fill="#E2E2F0" style="stroke:#181818;stroke-width:1.5;"/><path d="M553,361.2891 C553,371.2891 571,371.2891 571,371.2891 C571,371.2891 589,371.2891 589,361.2891 " fill="none" style="stroke:#181818;stroke-width:1.5;"/><rect fill="#E2E2F0" height="31.6094" rx="2.5" ry="2.5" style="stroke:#181818;stroke-width:0.5;" width="82" x="614.5" y="95.9609"/><text fill="#000000" font-family="sans-serif" font-size="14" lengthAdjust="spacing" textLength="68" x="621.5" y="117.4941">Messaging</text><rect fill="#E2E2F0" height="31.6094" rx="2.5" ry="2.5" style="stroke:#181818;stroke-width:0.5;" width="82" x="614.5" y="333.6797"/><text fill="#000000" font-family="sans-serif" font-size="14" lengthAdjust="spacing" textLength="68" x="621.5" y="355.2129">Messaging</text><polygon fill="#181818" points="339,156.9219,349,160.9219,339,164.9219,343,160.9219" style="stroke:#181818;stroke-width:1.0;"/><line style="stroke:#181818;stroke-width:1.0;" x1="241" x2="345" y1="160.9219" y2="160.9219"/><text fill="#000000" font-family="sans-serif" font-size="13" lengthAdjust="spacing" textLength="86" x="248" y="156.0654">Delete Product</text><path d="M308,175.9219 L447,175.9219 L447,184.2734 L437,194.2734 L308,194.2734 L308,175.9219 " fill="#EEEEEE" style="stroke:#000000;stroke-width:1.5;"/><rect fill="none" height="141.7578" style="stroke:#000000;stroke-width:1.5;" width="408.5" x="308" y="175.9219"/><text fill="#000000" font-family="sans-serif" font-size="13" font-weight="bold" lengthAdjust="spacing" textLength="94" x="323" y="190.417">Delete Product</text><polygon fill="#181818" points="449,212.625,459,216.625,449,220.625,453,216.625" style="stroke:#181818;stroke-width:1.0;"/><line style="stroke:#181818;stroke-width:1.0;" x1="351" x2="455" y1="216.625" y2="216.625"/><text fill="#000000" font-family="sans-serif" font-size="13" lengthAdjust="spacing" textLength="86" x="358" y="211.7686">Delete Product</text><path d="M434,231.625 L573,231.625 L573,239.9766 L563,249.9766 L434,249.9766 L434,231.625 " fill="#EEEEEE" style="stroke:#000000;stroke-width:1.5;"/><rect fill="none" height="79.0547" style="stroke:#000000;stroke-width:1.5;" width="272.5" x="434" y="231.625"/><text fill="#000000" font-family="sans-serif" font-size="13" font-weight="bold" lengthAdjust="spacing" textLength="94" x="449" y="246.1201">Delete Product</text><polygon fill="#181818" points="559,268.3281,569,272.3281,559,276.3281,563,272.3281" style="stroke:#181818;stroke-width:1.0;"/><line style="stroke:#181818;stroke-width:1.0;" x1="461" x2="565" y1="272.3281" y2="272.3281"/><text fill="#000000" font-family="sans-serif" font-size="13" lengthAdjust="spacing" textLength="86" x="468" y="267.4717">Delete Product</text><polygon fill="#181818" points="643.5,298.6797,653.5,302.6797,643.5,306.6797,647.5,302.6797" style="stroke:#181818;stroke-width:1.0;"/><line style="stroke:#181818;stroke-width:1.0;" x1="461" x2="649.5" y1="302.6797" y2="302.6797"/><text fill="#000000" font-family="sans-serif" font-size="13" lengthAdjust="spacing" textLength="163" x="468" y="297.8232">Send Product Deleted Event</text><!--SRC=[tLHBQyCm3BxxLuZit9nssc5GqWnw20nos5bDrCpWsAcjFlRlfppShIsK7TOE5WYHXV8z52cisH3aaBcs9LyHl1hajVCjp23pX2mPx-fjnPA8qTBs5SZQMIZGOaCjsQ5WMS2ywoHQaA6JTqlQRCaAWU0wowWjUJ2q8wDKXvvrfJiKa2G_C7cB9W4Ca3qkhHnVZDkdfLlp7ZsL7u6f3Mai7C-d89EG0IEFtgArT3GsQKkdvpTJNvukI0LOS9LQkOEmJEvAyZjTKG8FR- -QIO5S9tBcdRw1bB5u8a-FNGsfq0qQQcHSOI185bDqJnMHyx8T1OM0ZRRDFUKSIHNP6kJxAQL-FbumUxx58C7JsQQenhjjTvwy1VEl6xesZd_YywgW-zcFUt3PWtzfzxXduhViLot-9KVpDUGx0UoNSBZL9m00]--></g></svg>