<?xml version="1.0" encoding="us-ascii" standalone="no"?><svg xmlns="http://www.w3.org/2000/svg" xmlns:xlink="http://www.w3.org/1999/xlink" contentStyleType="text/css" height="351px" preserveAspectRatio="none" style="width:1158px;height:351px;background:#FFFFFF;" version="1.1" viewBox="0 0 1158 351" width="1158px" zoomAndPan="magnify"><defs/><g><text fill="#000000" font-family="sans-serif" font-size="14" font-weight="bold" lengthAdjust="spacing" textLength="1130" x="10" y="29.5332">E Commerce Platform - Generate Demand - Search And Browse - Search Service - Message Handler - Handle Product Updated Event - Sequence - Container level</text><rect fill="#FFFFFF" height="293.9766" style="stroke:#181818;stroke-width:0.5;" width="217.5" x="491" y="44.6094"/><text fill="#000000" font-family="sans-serif" font-size="13" font-weight="bold" lengthAdjust="spacing" textLength="97" x="551.25" y="58.1045">Search Service</text><rect fill="#FFFFFF" height="293.9766" style="stroke:#181818;stroke-width:0.5;" width="107" x="715" y="44.6094"/><text fill="#000000" font-family="sans-serif" font-size="13" font-weight="bold" lengthAdjust="spacing" textLength="101" x="718" y="58.1045">Product Service</text><rect fill="none" height="79.0547" style="stroke:#000000;stroke-width:1.5;" width="337.5" x="485" y="175.9219"/><line style="stroke:#181818;stroke-width:0.5;stroke-dasharray:5.0,5.0;" x1="355.5" x2="355.5" y1="128.5703" y2="271.9766"/><line style="stroke:#181818;stroke-width:0.5;stroke-dasharray:5.0,5.0;" x1="557" x2="557" y1="128.5703" y2="271.9766"/><line style="stroke:#181818;stroke-width:0.5;stroke-dasharray:5.0,5.0;" x1="670.5" x2="670.5" y1="128.5703" y2="271.9766"/><line style="stroke:#181818;stroke-width:0.5;stroke-dasharray:5.0,5.0;" x1="768.5" x2="768.5" y1="128.5703" y2="271.9766"/><rect fill="#E2E2F0" height="31.6094" rx="2.5" ry="2.5" style="stroke:#181818;stroke-width:0.5;" width="65" x="323.5" y="95.9609"/><text fill="#000000" font-family="sans-serif" font-size="14" lengthAdjust="spacing" textLength="51" x="330.5" y="117.4941">External</text><rect fill="#E2E2F0" height="31.6094" rx="2.5" ry="2.5" style="stroke:#181818;stroke-width:0.5;" width="65" x="323.5" y="270.9766"/><text fill="#000000" font-family="sans-serif" font-size="14" lengthAdjust="spacing" textLength="51" x="330.5" y="292.5098">External</text><rect fill="#E2E2F0" height="31.6094" rx="2.5" ry="2.5" style="stroke:#181818;stroke-width:0.5;" width="124" x="495" y="95.9609"/><text fill="#000000" font-family="sans-serif" font-size="14" lengthAdjust="spacing" textLength="110" x="502" y="117.4941">Message Handler</text><rect fill="#E2E2F0" height="31.6094" rx="2.5" ry="2.5" style="stroke:#181818;stroke-width:0.5;" width="124" x="495" y="270.9766"/><text fill="#000000" font-family="sans-serif" font-size="14" lengthAdjust="spacing" textLength="110" x="502" y="292.5098">Message Handler</text><text fill="#000000" font-family="sans-serif" font-size="14" lengthAdjust="spacing" textLength="61" x="637.5" y="125.4941">Database</text><path d="M653,74.9609 C653,64.9609 671,64.9609 671,64.9609 C671,64.9609 689,64.9609 689,74.9609 L689,100.9609 C689,110.9609 671,110.9609 671,110.9609 C671,110.9609 653,110.9609 653,100.9609 L653,74.9609 " fill="#E2E2F0" style="stroke:#181818;stroke-width:1.5;"/><path d="M653,74.9609 C653,84.9609 671,84.9609 671,84.9609 C671,84.9609 689,84.9609 689,74.9609 " fill="none" style="stroke:#181818;stroke-width:1.5;"/><text fill="#000000" font-family="sans-serif" font-size="14" lengthAdjust="spacing" textLength="61" x="637.5" y="285.5098">Database</text><path d="M653,298.5859 C653,288.5859 671,288.5859 671,288.5859 C671,288.5859 689,288.5859 689,298.5859 L689,324.5859 C689,334.5859 671,334.5859 671,334.5859 C671,334.5859 653,334.5859 653,324.5859 L653,298.5859 " fill="#E2E2F0" style="stroke:#181818;stroke-width:1.5;"/><path d="M653,298.5859 C653,308.5859 671,308.5859 671,308.5859 C671,308.5859 689,308.5859 689,298.5859 " fill="none" style="stroke:#181818;stroke-width:1.5;"/><path d="M729.5,100.9609 L807.5,100.9609 C812.5,100.9609 812.5,114.7656 812.5,114.7656 C812.5,114.7656 812.5,128.5703 807.5,128.5703 L729.5,128.5703 C724.5,128.5703 724.5,114.7656 724.5,114.7656 C724.5,114.7656 724.5,100.9609 729.5,100.9609 " fill="#E2E2F0" style="stroke:#181818;stroke-width:0.5;"/><path d="M807.5,100.9609 C802.5,100.9609 802.5,114.7656 802.5,114.7656 C802.5,128.5703 807.5,128.5703 807.5,128.5703 " fill="none" style="stroke:#181818;stroke-width:0.5;"/><text fill="#000000" font-family="sans-serif" font-size="14" lengthAdjust="spacing" textLength="68" x="729.5" y="120.4941">Messaging</text><path d="M729.5,270.9766 L807.5,270.9766 C812.5,270.9766 812.5,284.7813 812.5,284.7813 C812.5,284.7813 812.5,298.5859 807.5,298.5859 L729.5,298.5859 C724.5,298.5859 724.5,284.7813 724.5,284.7813 C724.5,284.7813 724.5,270.9766 729.5,270.9766 " fill="#E2E2F0" style="stroke:#181818;stroke-width:0.5;"/><path d="M807.5,270.9766 C802.5,270.9766 802.5,284.7813 802.5,284.7813 C802.5,298.5859 807.5,298.5859 807.5,298.5859 " fill="none" style="stroke:#181818;stroke-width:0.5;"/><text fill="#000000" font-family="sans-serif" font-size="14" lengthAdjust="spacing" textLength="68" x="729.5" y="290.5098">Messaging</text><polygon fill="#181818" points="545,156.9219,555,160.9219,545,164.9219,549,160.9219" style="stroke:#181818;stroke-width:1.0;"/><line style="stroke:#181818;stroke-width:1.0;" x1="356" x2="551" y1="160.9219" y2="160.9219"/><text fill="#000000" font-family="sans-serif" font-size="13" lengthAdjust="spacing" textLength="177" x="363" y="156.0654">Handle Product Updated Event</text><path d="M485,175.9219 L724,175.9219 L724,184.2734 L714,194.2734 L485,194.2734 L485,175.9219 " fill="#EEEEEE" style="stroke:#000000;stroke-width:1.5;"/><rect fill="none" height="79.0547" style="stroke:#000000;stroke-width:1.5;" width="337.5" x="485" y="175.9219"/><text fill="#000000" font-family="sans-serif" font-size="13" font-weight="bold" lengthAdjust="spacing" textLength="194" x="500" y="190.417">Handle Product Updated Event</text><polygon fill="#181818" points="756.5,212.625,766.5,216.625,756.5,220.625,760.5,216.625" style="stroke:#181818;stroke-width:1.0;"/><line style="stroke:#181818;stroke-width:1.0;" x1="557" x2="762.5" y1="216.625" y2="216.625"/><text fill="#000000" font-family="sans-serif" font-size="13" lengthAdjust="spacing" textLength="182" x="564" y="211.7686">Receive Product Updated Event</text><polygon fill="#181818" points="659,242.9766,669,246.9766,659,250.9766,663,246.9766" style="stroke:#181818;stroke-width:1.0;"/><line style="stroke:#181818;stroke-width:1.0;" x1="557" x2="665" y1="246.9766" y2="246.9766"/><text fill="#000000" font-family="sans-serif" font-size="13" lengthAdjust="spacing" textLength="90" x="564" y="242.1201">Update Product</text><!--SRC=[pPDDJyCm38Rl-HLMEIydJXoGe2kmmwI92d7sMc-Bb2ObJRlnx_7Q11Zx40SsqKiR9_7x-h7hbTS46QIsgiWL13EDVc5T1IDu94CEFS6OAZGbHt92LwpWZXVtpguR-ehbv3fLR0DJQXfS4Zpn7KsE8yCNp9mjsyB3IrrorXAoZeplCxorPFgxgJKU5Sk2fewq43KwhmfL8vzCieqdPr0dW0sarnF3omTjrpAt2xz6H_bxuwbgP3muh8MOsmqakqOJk7fTAKy2-DbH-U6_5yiYduX7HZW36paaPp03bpr7mtxGbfzbDZAe1R7U3TF1EJBSP1o-pkmXoWZYnZ8h4OZ5XXr2nYrhAS9IPdd4Okg83OP4ChmdPhk7NbapHSFLLpm8UtR3uQFCMFIRuT-F0unkBzPFk3av_6BfR5kVFd8ngmUndBT_ZEUP2bBT_op-h_ylBdSeBrQxdLyXFW00]--></g></svg>