<?xml version="1.0" encoding="us-ascii" standalone="no"?><svg xmlns="http://www.w3.org/2000/svg" xmlns:xlink="http://www.w3.org/1999/xlink" contentStyleType="text/css" height="351px" preserveAspectRatio="none" style="width:1158px;height:351px;background:#FFFFFF;" version="1.1" viewBox="0 0 1158 351" width="1158px" zoomAndPan="magnify"><defs/><g><text fill="#000000" font-family="sans-serif" font-size="14" font-weight="bold" lengthAdjust="spacing" textLength="1130" x="10" y="29.5332">E Commerce Platform - Generate Demand - Search And Browse - Search Service - Message Handler - Handle Product Updated Event - Sequence - Container level</text><rect fill="#FFFFFF" height="293.9766" style="stroke:#181818;stroke-width:0.5;" width="217.5" x="491" y="44.6094"/><text fill="#000000" font-family="sans-serif" font-size="13" font-weight="bold" lengthAdjust="spacing" textLength="97" x="551.25" y="58.1045">Search Service</text><rect fill="#FFFFFF" height="293.9766" style="stroke:#181818;stroke-width:0.5;" width="107" x="718" y="44.6094"/><text fill="#000000" font-family="sans-serif" font-size="13" font-weight="bold" lengthAdjust="spacing" textLength="101" x="721" y="58.1045">Product Service</text><rect fill="none" height="79.0547" style="stroke:#000000;stroke-width:1.5;" width="337.5" x="485" y="175.9219"/><line style="stroke:#181818;stroke-width:0.5;stroke-dasharray:5.0,5.0;" x1="355.5" x2="355.5" y1="128.5703" y2="271.9766"/><line style="stroke:#181818;stroke-width:0.5;stroke-dasharray:5.0,5.0;" x1="557" x2="557" y1="128.5703" y2="271.9766"/><line style="stroke:#181818;stroke-width:0.5;stroke-dasharray:5.0,5.0;" x1="670.5" x2="670.5" y1="128.5703" y2="271.9766"/><line style="stroke:#181818;stroke-width:0.5;stroke-dasharray:5.0,5.0;" x1="771.5" x2="771.5" y1="128.5703" y2="271.9766"/><rect fill="#E2E2F0" height="31.6094" rx="2.5" ry="2.5" style="stroke:#181818;stroke-width:0.5;" width="65" x="323.5" y="95.9609"/><text fill="#000000" font-family="sans-serif" font-size="14" lengthAdjust="spacing" textLength="51" x="330.5" y="117.4941">External</text><rect fill="#E2E2F0" height="31.6094" rx="2.5" ry="2.5" style="stroke:#181818;stroke-width:0.5;" width="65" x="323.5" y="270.9766"/><text fill="#000000" font-family="sans-serif" font-size="14" lengthAdjust="spacing" textLength="51" x="330.5" y="292.5098">External</text><rect fill="#E2E2F0" height="31.6094" rx="2.5" ry="2.5" style="stroke:#181818;stroke-width:0.5;" width="124" x="495" y="95.9609"/><text fill="#000000" font-family="sans-serif" font-size="14" lengthAdjust="spacing" textLength="110" x="502" y="117.4941">Message Handler</text><rect fill="#E2E2F0" height="31.6094" rx="2.5" ry="2.5" style="stroke:#181818;stroke-width:0.5;" width="124" x="495" y="270.9766"/><text fill="#000000" font-family="sans-serif" font-size="14" lengthAdjust="spacing" textLength="110" x="502" y="292.5098">Message Handler</text><text fill="#000000" font-family="sans-serif" font-size="14" lengthAdjust="spacing" textLength="61" x="637.5" y="125.4941">Database</text><path d="M653,74.9609 C653,64.9609 671,64.9609 671,64.9609 C671,64.9609 689,64.9609 689,74.9609 L689,100.9609 C689,110.9609 671,110.9609 671,110.9609 C671,110.9609 653,110.9609 653,100.9609 L653,74.9609 " fill="#E2E2F0" style="stroke:#181818;stroke-width:1.5;"/><path d="M653,74.9609 C653,84.9609 671,84.9609 671,84.9609 C671,84.9609 689,84.9609 689,74.9609 " fill="none" style="stroke:#181818;stroke-width:1.5;"/><text fill="#000000" font-family="sans-serif" font-size="14" lengthAdjust="spacing" textLength="61" x="637.5" y="285.5098">Database</text><path d="M653,298.5859 C653,288.5859 671,288.5859 671,288.5859 C671,288.5859 689,288.5859 689,298.5859 L689,324.5859 C689,334.5859 671,334.5859 671,334.5859 C671,334.5859 653,334.5859 653,324.5859 L653,298.5859 " fill="#E2E2F0" style="stroke:#181818;stroke-width:1.5;"/><path d="M653,298.5859 C653,308.5859 671,308.5859 671,308.5859 C671,308.5859 689,308.5859 689,298.5859 " fill="none" style="stroke:#181818;stroke-width:1.5;"/><rect fill="#E2E2F0" height="31.6094" rx="2.5" ry="2.5" style="stroke:#181818;stroke-width:0.5;" width="82" x="730.5" y="95.9609"/><text fill="#000000" font-family="sans-serif" font-size="14" lengthAdjust="spacing" textLength="68" x="737.5" y="117.4941">Messaging</text><rect fill="#E2E2F0" height="31.6094" rx="2.5" ry="2.5" style="stroke:#181818;stroke-width:0.5;" width="82" x="730.5" y="270.9766"/><text fill="#000000" font-family="sans-serif" font-size="14" lengthAdjust="spacing" textLength="68" x="737.5" y="292.5098">Messaging</text><polygon fill="#181818" points="545,156.9219,555,160.9219,545,164.9219,549,160.9219" style="stroke:#181818;stroke-width:1.0;"/><line style="stroke:#181818;stroke-width:1.0;" x1="356" x2="551" y1="160.9219" y2="160.9219"/><text fill="#000000" font-family="sans-serif" font-size="13" lengthAdjust="spacing" textLength="177" x="363" y="156.0654">Handle Product Updated Event</text><path d="M485,175.9219 L724,175.9219 L724,184.2734 L714,194.2734 L485,194.2734 L485,175.9219 " fill="#EEEEEE" style="stroke:#000000;stroke-width:1.5;"/><rect fill="none" height="79.0547" style="stroke:#000000;stroke-width:1.5;" width="337.5" x="485" y="175.9219"/><text fill="#000000" font-family="sans-serif" font-size="13" font-weight="bold" lengthAdjust="spacing" textLength="194" x="500" y="190.417">Handle Product Updated Event</text><polygon fill="#181818" points="759.5,212.625,769.5,216.625,759.5,220.625,763.5,216.625" style="stroke:#181818;stroke-width:1.0;"/><line style="stroke:#181818;stroke-width:1.0;" x1="557" x2="765.5" y1="216.625" y2="216.625"/><text fill="#000000" font-family="sans-serif" font-size="13" lengthAdjust="spacing" textLength="182" x="564" y="211.7686">Receive Product Updated Event</text><polygon fill="#181818" points="659,242.9766,669,246.9766,659,250.9766,663,246.9766" style="stroke:#181818;stroke-width:1.0;"/><line style="stroke:#181818;stroke-width:1.0;" x1="557" x2="665" y1="246.9766" y2="246.9766"/><text fill="#000000" font-family="sans-serif" font-size="13" lengthAdjust="spacing" textLength="90" x="564" y="242.1201">Update Product</text><!--SRC=[pPEnJiCm48PtFyKfpFN4n804QO0EbIeYn7nDhgcbn0wscvQtvnexG2cjEj2ABB7Fzlt_VMTxvMk235BJD6GBWbcDVc5i0oDu94qMFS6O6jGbHt92MopXZYVtrgmTVSLoifqgje4fEOSLmHEVgSbo98nWPasvAZoyj2LdBI7hIFi-mzkAT7ysDTgZObcegQDQY1QjLuLgaNScsSQJrLWdW0xIwudcwKDjrZ8t2xz6I_cxyzGuEMmCSo7cPWF9hj44hbwNofC0_dPKVlZlnRA1pu173d026ncICvZ0PSzHM8_QyhDC9wDQ5ElTC1sS8yDDnd5qPW-3Z21kBBCIaTZGi1EHALqTC9fQOfindOp_YTwkeLT6Jr4pWuQlmvxfkFaWEHRzPllqIm6Zsujr5MwEFW5HMRDgZs-vcDLViPotVupdcGfItVyi_gzV6PSRoXkgtTvV8Ju0]--></g></svg>