<?xml version="1.0" encoding="us-ascii" standalone="no"?><svg xmlns="http://www.w3.org/2000/svg" xmlns:xlink="http://www.w3.org/1999/xlink" contentStyleType="text/css" height="729px" preserveAspectRatio="none" style="width:595px;height:729px;background:#FFFFFF;" version="1.1" viewBox="0 0 595 729" width="595px" zoomAndPan="magnify"><defs/><g><text fill="#000000" font-family="sans-serif" font-size="14" font-weight="bold" lengthAdjust="spacing" textLength="433" x="77" y="29.5332">Big Bank Plc - Create New Account - Sequence - Context level</text><rect fill="none" height="111.7578" style="stroke:#000000;stroke-width:1.5;" width="335" x="130" y="272.9766"/><rect fill="none" height="111.7578" style="stroke:#000000;stroke-width:1.5;" width="448" x="130" y="473.4375"/><line style="stroke:#181818;stroke-width:0.5;stroke-dasharray:5.0,5.0;" x1="42" x2="42" y1="76.2188" y2="693.25"/><line style="stroke:#181818;stroke-width:0.5;stroke-dasharray:5.0,5.0;" x1="198" x2="198" y1="76.2188" y2="693.25"/><line style="stroke:#181818;stroke-width:0.5;stroke-dasharray:5.0,5.0;" x1="362" x2="362" y1="76.2188" y2="693.25"/><line style="stroke:#181818;stroke-width:0.5;stroke-dasharray:5.0,5.0;" x1="516" x2="516" y1="76.2188" y2="693.25"/><rect fill="#E2E2F0" height="31.6094" rx="2.5" ry="2.5" style="stroke:#181818;stroke-width:0.5;" width="75" x="5" y="43.6094"/><text fill="#000000" font-family="sans-serif" font-size="14" lengthAdjust="spacing" textLength="61" x="12" y="65.1426">Customer</text><rect fill="#E2E2F0" height="31.6094" rx="2.5" ry="2.5" style="stroke:#181818;stroke-width:0.5;" width="75" x="5" y="692.25"/><text fill="#000000" font-family="sans-serif" font-size="14" lengthAdjust="spacing" textLength="61" x="12" y="713.7832">Customer</text><rect fill="#E2E2F0" height="31.6094" rx="2.5" ry="2.5" style="stroke:#181818;stroke-width:0.5;" width="117" x="140" y="43.6094"/><text fill="#000000" font-family="sans-serif" font-size="14" lengthAdjust="spacing" textLength="103" x="147" y="65.1426">Internet Banking</text><rect fill="#E2E2F0" height="31.6094" rx="2.5" ry="2.5" style="stroke:#181818;stroke-width:0.5;" width="117" x="140" y="692.25"/><text fill="#000000" font-family="sans-serif" font-size="14" lengthAdjust="spacing" textLength="103" x="147" y="713.7832">Internet Banking</text><rect fill="#E2E2F0" height="31.6094" rx="2.5" ry="2.5" style="stroke:#181818;stroke-width:0.5;" width="185" x="270" y="43.6094"/><text fill="#000000" font-family="sans-serif" font-size="14" lengthAdjust="spacing" textLength="171" x="277" y="65.1426">Mainframe Banking System</text><rect fill="#E2E2F0" height="31.6094" rx="2.5" ry="2.5" style="stroke:#181818;stroke-width:0.5;" width="185" x="270" y="692.25"/><text fill="#000000" font-family="sans-serif" font-size="14" lengthAdjust="spacing" textLength="171" x="277" y="713.7832">Mainframe Banking System</text><rect fill="#E2E2F0" height="31.6094" rx="2.5" ry="2.5" style="stroke:#181818;stroke-width:0.5;" width="103" x="465" y="43.6094"/><text fill="#000000" font-family="sans-serif" font-size="14" lengthAdjust="spacing" textLength="89" x="472" y="65.1426">E-Mail System</text><rect fill="#E2E2F0" height="31.6094" rx="2.5" ry="2.5" style="stroke:#181818;stroke-width:0.5;" width="103" x="465" y="692.25"/><text fill="#000000" font-family="sans-serif" font-size="14" lengthAdjust="spacing" textLength="89" x="472" y="713.7832">E-Mail System</text><rect fill="#EEEEEE" height="3" style="stroke:#EEEEEE;stroke-width:1.0;" width="588" x="0" y="107.3945"/><line style="stroke:#000000;stroke-width:1.0;" x1="0" x2="588" y1="107.3945" y2="107.3945"/><line style="stroke:#000000;stroke-width:1.0;" x1="0" x2="588" y1="110.3945" y2="110.3945"/><rect fill="#EEEEEE" height="24.3516" style="stroke:#000000;stroke-width:2.0;" width="256" x="166" y="96.2188"/><text fill="#000000" font-family="sans-serif" font-size="13" font-weight="bold" lengthAdjust="spacing" textLength="238" x="172" y="113.7139">Customer - Go to Online Banking URL</text><polygon fill="#181818" points="186.5,148.9219,196.5,152.9219,186.5,156.9219,190.5,152.9219" style="stroke:#181818;stroke-width:1.0;"/><line style="stroke:#181818;stroke-width:1.0;" x1="42.5" x2="192.5" y1="152.9219" y2="152.9219"/><text fill="#000000" font-family="sans-serif" font-size="13" lengthAdjust="spacing" textLength="49" x="49.5" y="148.0654">Navigate</text><rect fill="#EEEEEE" height="3" style="stroke:#EEEEEE;stroke-width:1.0;" width="588" x="0" y="182.0977"/><line style="stroke:#000000;stroke-width:1.0;" x1="0" x2="588" y1="182.0977" y2="182.0977"/><line style="stroke:#000000;stroke-width:1.0;" x1="0" x2="588" y1="185.0977" y2="185.0977"/><rect fill="#EEEEEE" height="24.3516" style="stroke:#000000;stroke-width:2.0;" width="277" x="155.5" y="170.9219"/><text fill="#000000" font-family="sans-serif" font-size="13" font-weight="bold" lengthAdjust="spacing" textLength="259" x="161.5" y="188.417">Customer - Sign In and View Home Page</text><polygon fill="#181818" points="186.5,223.625,196.5,227.625,186.5,231.625,190.5,227.625" style="stroke:#181818;stroke-width:1.0;"/><line style="stroke:#181818;stroke-width:1.0;" x1="42.5" x2="192.5" y1="227.625" y2="227.625"/><text fill="#000000" font-family="sans-serif" font-size="13" lengthAdjust="spacing" textLength="40" x="49.5" y="222.7686">Sign In</text><polygon fill="#181818" points="186.5,253.9766,196.5,257.9766,186.5,261.9766,190.5,257.9766" style="stroke:#181818;stroke-width:1.0;"/><line style="stroke:#181818;stroke-width:1.0;" x1="42.5" x2="192.5" y1="257.9766" y2="257.9766"/><text fill="#000000" font-family="sans-serif" font-size="13" lengthAdjust="spacing" textLength="132" x="49.5" y="253.1201">View Customer Details</text><path d="M130,272.9766 L318,272.9766 L318,281.3281 L308,291.3281 L130,291.3281 L130,272.9766 " fill="#EEEEEE" style="stroke:#000000;stroke-width:1.5;"/><rect fill="none" height="111.7578" style="stroke:#000000;stroke-width:1.5;" width="335" x="130" y="272.9766"/><text fill="#000000" font-family="sans-serif" font-size="13" font-weight="bold" lengthAdjust="spacing" textLength="143" x="145" y="287.4717">View Customer Details</text><polygon fill="#181818" points="350.5,326.0313,360.5,330.0313,350.5,334.0313,354.5,330.0313" style="stroke:#181818;stroke-width:1.0;"/><line style="stroke:#181818;stroke-width:1.0;" x1="198.5" x2="356.5" y1="330.0313" y2="330.0313"/><text fill="#000000" font-family="sans-serif" font-size="13" lengthAdjust="spacing" textLength="81" x="205.5" y="308.8232">Get Customer</text><text fill="#000000" font-family="sans-serif" font-size="13" lengthAdjust="spacing" textLength="78" x="205.5" y="325.1748">[XML/HTTPS]</text><polygon fill="#181818" points="350.5,372.7344,360.5,376.7344,350.5,380.7344,354.5,376.7344" style="stroke:#181818;stroke-width:1.0;"/><line style="stroke:#181818;stroke-width:1.0;" x1="198.5" x2="356.5" y1="376.7344" y2="376.7344"/><text fill="#000000" font-family="sans-serif" font-size="13" lengthAdjust="spacing" textLength="140" x="205.5" y="355.5264">Get Customer Accounts</text><text fill="#000000" font-family="sans-serif" font-size="13" lengthAdjust="spacing" textLength="78" x="205.5" y="371.8779">[XML/HTTPS]</text><rect fill="#EEEEEE" height="3" style="stroke:#EEEEEE;stroke-width:1.0;" width="588" x="0" y="412.9102"/><line style="stroke:#000000;stroke-width:1.0;" x1="0" x2="588" y1="412.9102" y2="412.9102"/><line style="stroke:#000000;stroke-width:1.0;" x1="0" x2="588" y1="415.9102" y2="415.9102"/><rect fill="#EEEEEE" height="24.3516" style="stroke:#000000;stroke-width:2.0;" width="219" x="184.5" y="401.7344"/><text fill="#000000" font-family="sans-serif" font-size="13" font-weight="bold" lengthAdjust="spacing" textLength="201" x="190.5" y="419.2295">Customer - Create New Account</text><polygon fill="#181818" points="186.5,454.4375,196.5,458.4375,186.5,462.4375,190.5,458.4375" style="stroke:#181818;stroke-width:1.0;"/><line style="stroke:#181818;stroke-width:1.0;" x1="42.5" x2="192.5" y1="458.4375" y2="458.4375"/><text fill="#000000" font-family="sans-serif" font-size="13" lengthAdjust="spacing" textLength="90" x="49.5" y="453.5811">Create Account</text><path d="M130,473.4375 L272,473.4375 L272,481.7891 L262,491.7891 L130,491.7891 L130,473.4375 " fill="#EEEEEE" style="stroke:#000000;stroke-width:1.5;"/><rect fill="none" height="111.7578" style="stroke:#000000;stroke-width:1.5;" width="448" x="130" y="473.4375"/><text fill="#000000" font-family="sans-serif" font-size="13" font-weight="bold" lengthAdjust="spacing" textLength="97" x="145" y="487.9326">Create Account</text><polygon fill="#181818" points="350.5,526.4922,360.5,530.4922,350.5,534.4922,354.5,530.4922" style="stroke:#181818;stroke-width:1.0;"/><line style="stroke:#181818;stroke-width:1.0;" x1="198.5" x2="356.5" y1="530.4922" y2="530.4922"/><text fill="#000000" font-family="sans-serif" font-size="13" lengthAdjust="spacing" textLength="90" x="205.5" y="509.2842">Create Account</text><text fill="#000000" font-family="sans-serif" font-size="13" lengthAdjust="spacing" textLength="78" x="205.5" y="525.6357">[XML/HTTPS]</text><polygon fill="#181818" points="504.5,573.1953,514.5,577.1953,504.5,581.1953,508.5,577.1953" style="stroke:#181818;stroke-width:1.0;"/><line style="stroke:#181818;stroke-width:1.0;" x1="198.5" x2="510.5" y1="577.1953" y2="577.1953"/><text fill="#000000" font-family="sans-serif" font-size="13" lengthAdjust="spacing" textLength="269" x="205.5" y="555.9873">Send New Account Created Notification E-Mail</text><text fill="#000000" font-family="sans-serif" font-size="13" lengthAdjust="spacing" textLength="44" x="205.5" y="572.3389">[SMTP]</text><rect fill="#EEEEEE" height="3" style="stroke:#EEEEEE;stroke-width:1.0;" width="588" x="0" y="613.3711"/><line style="stroke:#000000;stroke-width:1.0;" x1="0" x2="588" y1="613.3711" y2="613.3711"/><line style="stroke:#000000;stroke-width:1.0;" x1="0" x2="588" y1="616.3711" y2="616.3711"/><rect fill="#EEEEEE" height="24.3516" style="stroke:#000000;stroke-width:2.0;" width="401" x="93.5" y="602.1953"/><text fill="#000000" font-family="sans-serif" font-size="13" font-weight="bold" lengthAdjust="spacing" textLength="383" x="99.5" y="619.6904">Customer - Receive New Account Created Notification E-Mail</text><polygon fill="#181818" points="504.5,671.25,514.5,675.25,504.5,679.25,508.5,675.25" style="stroke:#181818;stroke-width:1.0;"/><line style="stroke:#181818;stroke-width:1.0;" x1="42.5" x2="510.5" y1="675.25" y2="675.25"/><text fill="#000000" font-family="sans-serif" font-size="13" lengthAdjust="spacing" textLength="284" x="49.5" y="654.042">Receive New Account Created Notification E-Mail</text><text fill="#000000" font-family="sans-serif" font-size="13" lengthAdjust="spacing" textLength="43" x="49.5" y="670.3936">[POP3]</text><!--SRC=[lLHDJy904BttLqouWmTl9ZK19432HqFHc2Y7pJ8q6yiiRgUW_zufj6WRK8dWTJxUU_DcTjbmZD0o4RGKlK0GQwX3sw5YX15keAcrJOab6E9hYgGnorjYV6E8SOsnvwsKOwFDIabThPqcR9VeQg2I33U35TH6KxDrIQD8bvlwWkS8UIl2K5Hj3ks2DyfX-9umBfD6KP-Nby66oj32gIKMQB1h-mbqtvUtxU9bx4vTgk9V0dQosXp5ytqePXS7knROmfXYGvyoxoS3y7tlk6bGlpt15RY1aLgRI5PPOGzDHD0dK3I71oDRxaa20XNXcVbpedD2RlNkk- -GnUF4YvnDLqTo9y1_B-RmWOYchbnkGVjCJu_3mLLlEWt2sJzp5wyrAOj0cbSEuC03F-_YSu8SF5zF9NXvRyg45zhCbrUUNRoONV9rfq5Ybit2QCN64ko-4H4K3gV1eGLDKADPus-H_hIzyW0dCiiCmJYudddU1m00]--></g></svg>