<?xml version="1.0" encoding="us-ascii" standalone="no"?><svg xmlns="http://www.w3.org/2000/svg" xmlns:xlink="http://www.w3.org/1999/xlink" contentStyleType="text/css" height="1316px" preserveAspectRatio="none" style="width:982px;height:1316px;background:#FFFFFF;" version="1.1" viewBox="0 0 982 1316" width="982px" zoomAndPan="magnify"><defs/><g><text fill="#000000" font-family="sans-serif" font-size="14" font-weight="bold" lengthAdjust="spacing" textLength="447" x="269.25" y="29.5332">Big Bank Plc - Create New Account - Sequence - Container level</text><rect fill="#FFFFFF" height="1259.3359" style="stroke:#181818;stroke-width:0.5;" width="541.5" x="101" y="44.6094"/><text fill="#000000" font-family="sans-serif" font-size="13" font-weight="bold" lengthAdjust="spacing" textLength="105" x="319.25" y="58.1045">Internet Banking</text><rect fill="none" height="144.1094" style="stroke:#000000;stroke-width:1.5;" width="405" x="10" y="145.5703"/><rect fill="none" height="65.0547" style="stroke:#000000;stroke-width:1.5;" width="310" x="95" y="217.625"/><rect fill="none" height="553.7344" style="stroke:#000000;stroke-width:1.5;" width="853.5" x="10" y="303.6797"/><rect fill="none" height="144.1094" style="stroke:#000000;stroke-width:1.5;" width="437.5" x="221" y="375.7344"/><rect fill="none" height="65.0547" style="stroke:#000000;stroke-width:1.5;" width="235.5" x="413" y="447.7891"/><rect fill="none" height="269.8672" style="stroke:#000000;stroke-width:1.5;" width="632.5" x="221" y="580.5469"/><rect fill="none" height="65.0547" style="stroke:#000000;stroke-width:1.5;" width="430.5" x="413" y="652.6016"/><rect fill="none" height="65.0547" style="stroke:#000000;stroke-width:1.5;" width="430.5" x="413" y="778.3594"/><rect fill="none" height="269.8672" style="stroke:#000000;stroke-width:1.5;" width="966.5" x="10" y="871.4141"/><rect fill="none" height="190.8125" style="stroke:#000000;stroke-width:1.5;" width="745.5" x="221" y="943.4688"/><rect fill="none" height="111.7578" style="stroke:#000000;stroke-width:1.5;" width="543.5" x="413" y="1015.5234"/><rect fill="none" height="65.0547" style="stroke:#000000;stroke-width:1.5;" width="946.5" x="10" y="1155.2813"/><line style="stroke:#181818;stroke-width:0.5;stroke-dasharray:5.0,5.0;" x1="57" x2="57" y1="128.5703" y2="1237.3359"/><line style="stroke:#181818;stroke-width:0.5;stroke-dasharray:5.0,5.0;" x1="163" x2="163" y1="128.5703" y2="1237.3359"/><line style="stroke:#181818;stroke-width:0.5;stroke-dasharray:5.0,5.0;" x1="313" x2="313" y1="128.5703" y2="1237.3359"/><line style="stroke:#181818;stroke-width:0.5;stroke-dasharray:5.0,5.0;" x1="477" x2="477" y1="128.5703" y2="1237.3359"/><line style="stroke:#181818;stroke-width:0.5;stroke-dasharray:5.0,5.0;" x1="604.5" x2="604.5" y1="128.5703" y2="1237.3359"/><line style="stroke:#181818;stroke-width:0.5;stroke-dasharray:5.0,5.0;" x1="740.5" x2="740.5" y1="128.5703" y2="1237.3359"/><line style="stroke:#181818;stroke-width:0.5;stroke-dasharray:5.0,5.0;" x1="894.5" x2="894.5" y1="128.5703" y2="1237.3359"/><rect fill="#E2E2F0" height="31.6094" rx="2.5" ry="2.5" style="stroke:#181818;stroke-width:0.5;" width="75" x="20" y="95.9609"/><text fill="#000000" font-family="sans-serif" font-size="14" lengthAdjust="spacing" textLength="61" x="27" y="117.4941">Customer</text><rect fill="#E2E2F0" height="31.6094" rx="2.5" ry="2.5" style="stroke:#181818;stroke-width:0.5;" width="75" x="20" y="1236.3359"/><text fill="#000000" font-family="sans-serif" font-size="14" lengthAdjust="spacing" textLength="61" x="27" y="1257.8691">Customer</text><rect fill="#E2E2F0" height="31.6094" rx="2.5" ry="2.5" style="stroke:#181818;stroke-width:0.5;" width="116" x="105" y="95.9609"/><text fill="#000000" font-family="sans-serif" font-size="14" lengthAdjust="spacing" textLength="102" x="112" y="117.4941">Web Application</text><rect fill="#E2E2F0" height="31.6094" rx="2.5" ry="2.5" style="stroke:#181818;stroke-width:0.5;" width="116" x="105" y="1236.3359"/><text fill="#000000" font-family="sans-serif" font-size="14" lengthAdjust="spacing" textLength="102" x="112" y="1257.8691">Web Application</text><rect fill="#E2E2F0" height="31.6094" rx="2.5" ry="2.5" style="stroke:#181818;stroke-width:0.5;" width="164" x="231" y="95.9609"/><text fill="#000000" font-family="sans-serif" font-size="14" lengthAdjust="spacing" textLength="150" x="238" y="117.4941">Single-Page Application</text><rect fill="#E2E2F0" height="31.6094" rx="2.5" ry="2.5" style="stroke:#181818;stroke-width:0.5;" width="164" x="231" y="1236.3359"/><text fill="#000000" font-family="sans-serif" font-size="14" lengthAdjust="spacing" textLength="150" x="238" y="1257.8691">Single-Page Application</text><rect fill="#E2E2F0" height="31.6094" rx="2.5" ry="2.5" style="stroke:#181818;stroke-width:0.5;" width="108" x="423" y="95.9609"/><text fill="#000000" font-family="sans-serif" font-size="14" lengthAdjust="spacing" textLength="94" x="430" y="117.4941">API Application</text><rect fill="#E2E2F0" height="31.6094" rx="2.5" ry="2.5" style="stroke:#181818;stroke-width:0.5;" width="108" x="423" y="1236.3359"/><text fill="#000000" font-family="sans-serif" font-size="14" lengthAdjust="spacing" textLength="94" x="430" y="1257.8691">API Application</text><text fill="#000000" font-family="sans-serif" font-size="14" lengthAdjust="spacing" textLength="61" x="571.5" y="125.4941">Database</text><path d="M587,74.9609 C587,64.9609 605,64.9609 605,64.9609 C605,64.9609 623,64.9609 623,74.9609 L623,100.9609 C623,110.9609 605,110.9609 605,110.9609 C605,110.9609 587,110.9609 587,100.9609 L587,74.9609 " fill="#E2E2F0" style="stroke:#181818;stroke-width:1.5;"/><path d="M587,74.9609 C587,84.9609 605,84.9609 605,84.9609 C605,84.9609 623,84.9609 623,74.9609 " fill="none" style="stroke:#181818;stroke-width:1.5;"/><text fill="#000000" font-family="sans-serif" font-size="14" lengthAdjust="spacing" textLength="61" x="571.5" y="1250.8691">Database</text><path d="M587,1263.9453 C587,1253.9453 605,1253.9453 605,1253.9453 C605,1253.9453 623,1253.9453 623,1263.9453 L623,1289.9453 C623,1299.9453 605,1299.9453 605,1299.9453 C605,1299.9453 587,1299.9453 587,1289.9453 L587,1263.9453 " fill="#E2E2F0" style="stroke:#181818;stroke-width:1.5;"/><path d="M587,1263.9453 C587,1273.9453 605,1273.9453 605,1273.9453 C605,1273.9453 623,1273.9453 623,1263.9453 " fill="none" style="stroke:#181818;stroke-width:1.5;"/><rect fill="#E2E2F0" height="31.6094" rx="2.5" ry="2.5" style="stroke:#181818;stroke-width:0.5;" width="185" x="648.5" y="95.9609"/><text fill="#000000" font-family="sans-serif" font-size="14" lengthAdjust="spacing" textLength="171" x="655.5" y="117.4941">Mainframe Banking System</text><rect fill="#E2E2F0" height="31.6094" rx="2.5" ry="2.5" style="stroke:#181818;stroke-width:0.5;" width="185" x="648.5" y="1236.3359"/><text fill="#000000" font-family="sans-serif" font-size="14" lengthAdjust="spacing" textLength="171" x="655.5" y="1257.8691">Mainframe Banking System</text><rect fill="#E2E2F0" height="31.6094" rx="2.5" ry="2.5" style="stroke:#181818;stroke-width:0.5;" width="103" x="843.5" y="95.9609"/><text fill="#000000" font-family="sans-serif" font-size="14" lengthAdjust="spacing" textLength="89" x="850.5" y="117.4941">E-Mail System</text><rect fill="#E2E2F0" height="31.6094" rx="2.5" ry="2.5" style="stroke:#181818;stroke-width:0.5;" width="103" x="843.5" y="1236.3359"/><text fill="#000000" font-family="sans-serif" font-size="14" lengthAdjust="spacing" textLength="89" x="850.5" y="1257.8691">E-Mail System</text><path d="M10,145.5703 L293,145.5703 L293,153.9219 L283,163.9219 L10,163.9219 L10,145.5703 " fill="#EEEEEE" style="stroke:#000000;stroke-width:1.5;"/><rect fill="none" height="144.1094" style="stroke:#000000;stroke-width:1.5;" width="405" x="10" y="145.5703"/><text fill="#000000" font-family="sans-serif" font-size="13" font-weight="bold" lengthAdjust="spacing" textLength="238" x="25" y="160.0654">Customer - Go to Online Banking URL</text><polygon fill="#181818" points="151,198.625,161,202.625,151,206.625,155,202.625" style="stroke:#181818;stroke-width:1.0;"/><line style="stroke:#181818;stroke-width:1.0;" x1="57.5" x2="157" y1="202.625" y2="202.625"/><text fill="#000000" font-family="sans-serif" font-size="13" lengthAdjust="spacing" textLength="49" x="64.5" y="181.417">Navigate</text><text fill="#000000" font-family="sans-serif" font-size="13" lengthAdjust="spacing" textLength="49" x="64.5" y="197.7686">[HTTPS]</text><path d="M95,217.625 L196,217.625 L196,225.9766 L186,235.9766 L95,235.9766 L95,217.625 " fill="#EEEEEE" style="stroke:#000000;stroke-width:1.5;"/><rect fill="none" height="65.0547" style="stroke:#000000;stroke-width:1.5;" width="310" x="95" y="217.625"/><text fill="#000000" font-family="sans-serif" font-size="13" font-weight="bold" lengthAdjust="spacing" textLength="56" x="110" y="232.1201">Navigate</text><polygon fill="#181818" points="301,270.6797,311,274.6797,301,278.6797,305,274.6797" style="stroke:#181818;stroke-width:1.0;"/><line style="stroke:#181818;stroke-width:1.0;" x1="163" x2="307" y1="274.6797" y2="274.6797"/><text fill="#000000" font-family="sans-serif" font-size="13" lengthAdjust="spacing" textLength="87" x="170" y="253.4717">Load And Start</text><text fill="#000000" font-family="sans-serif" font-size="13" lengthAdjust="spacing" textLength="49" x="170" y="269.8232">[HTTPS]</text><path d="M10,303.6797 L314,303.6797 L314,312.0313 L304,322.0313 L10,322.0313 L10,303.6797 " fill="#EEEEEE" style="stroke:#000000;stroke-width:1.5;"/><rect fill="none" height="553.7344" style="stroke:#000000;stroke-width:1.5;" width="853.5" x="10" y="303.6797"/><text fill="#000000" font-family="sans-serif" font-size="13" font-weight="bold" lengthAdjust="spacing" textLength="259" x="25" y="318.1748">Customer - Sign In and View Home Page</text><polygon fill="#181818" points="301,356.7344,311,360.7344,301,364.7344,305,360.7344" style="stroke:#181818;stroke-width:1.0;"/><line style="stroke:#181818;stroke-width:1.0;" x1="57.5" x2="307" y1="360.7344" y2="360.7344"/><text fill="#000000" font-family="sans-serif" font-size="13" lengthAdjust="spacing" textLength="40" x="64.5" y="339.5264">Sign In</text><text fill="#000000" font-family="sans-serif" font-size="13" lengthAdjust="spacing" textLength="49" x="64.5" y="355.8779">[HTTPS]</text><path d="M221,375.7344 L311,375.7344 L311,384.0859 L301,394.0859 L221,394.0859 L221,375.7344 " fill="#EEEEEE" style="stroke:#000000;stroke-width:1.5;"/><rect fill="none" height="144.1094" style="stroke:#000000;stroke-width:1.5;" width="437.5" x="221" y="375.7344"/><text fill="#000000" font-family="sans-serif" font-size="13" font-weight="bold" lengthAdjust="spacing" textLength="45" x="236" y="390.2295">Sign In</text><polygon fill="#181818" points="465,428.7891,475,432.7891,465,436.7891,469,432.7891" style="stroke:#181818;stroke-width:1.0;"/><line style="stroke:#181818;stroke-width:1.0;" x1="313" x2="471" y1="432.7891" y2="432.7891"/><text fill="#000000" font-family="sans-serif" font-size="13" lengthAdjust="spacing" textLength="40" x="320" y="411.5811">Sign In</text><text fill="#000000" font-family="sans-serif" font-size="13" lengthAdjust="spacing" textLength="49" x="320" y="427.9326">[HTTPS]</text><path d="M413,447.7891 L503,447.7891 L503,456.1406 L493,466.1406 L413,466.1406 L413,447.7891 " fill="#EEEEEE" style="stroke:#000000;stroke-width:1.5;"/><rect fill="none" height="65.0547" style="stroke:#000000;stroke-width:1.5;" width="235.5" x="413" y="447.7891"/><text fill="#000000" font-family="sans-serif" font-size="13" font-weight="bold" lengthAdjust="spacing" textLength="45" x="428" y="462.2842">Sign In</text><polygon fill="#181818" points="593,500.8438,603,504.8438,593,508.8438,597,504.8438" style="stroke:#181818;stroke-width:1.0;"/><line style="stroke:#181818;stroke-width:1.0;" x1="477" x2="599" y1="504.8438" y2="504.8438"/><text fill="#000000" font-family="sans-serif" font-size="13" lengthAdjust="spacing" textLength="104" x="484" y="483.6357">Authenticate User</text><text fill="#000000" font-family="sans-serif" font-size="13" lengthAdjust="spacing" textLength="83" x="484" y="499.9873">[TCP/IP, SQL]</text><polygon fill="#181818" points="301,561.5469,311,565.5469,301,569.5469,305,565.5469" style="stroke:#181818;stroke-width:1.0;"/><line style="stroke:#181818;stroke-width:1.0;" x1="57.5" x2="307" y1="565.5469" y2="565.5469"/><text fill="#000000" font-family="sans-serif" font-size="13" lengthAdjust="spacing" textLength="132" x="64.5" y="544.3389">View Customer Details</text><text fill="#000000" font-family="sans-serif" font-size="13" lengthAdjust="spacing" textLength="49" x="64.5" y="560.6904">[HTTPS]</text><path d="M221,580.5469 L409,580.5469 L409,588.8984 L399,598.8984 L221,598.8984 L221,580.5469 " fill="#EEEEEE" style="stroke:#000000;stroke-width:1.5;"/><rect fill="none" height="269.8672" style="stroke:#000000;stroke-width:1.5;" width="632.5" x="221" y="580.5469"/><text fill="#000000" font-family="sans-serif" font-size="13" font-weight="bold" lengthAdjust="spacing" textLength="143" x="236" y="595.042">View Customer Details</text><polygon fill="#181818" points="465,633.6016,475,637.6016,465,641.6016,469,637.6016" style="stroke:#181818;stroke-width:1.0;"/><line style="stroke:#181818;stroke-width:1.0;" x1="313" x2="471" y1="637.6016" y2="637.6016"/><text fill="#000000" font-family="sans-serif" font-size="13" lengthAdjust="spacing" textLength="81" x="320" y="616.3936">Get Customer</text><text fill="#000000" font-family="sans-serif" font-size="13" lengthAdjust="spacing" textLength="49" x="320" y="632.7451">[HTTPS]</text><path d="M413,652.6016 L544,652.6016 L544,660.9531 L534,670.9531 L413,670.9531 L413,652.6016 " fill="#EEEEEE" style="stroke:#000000;stroke-width:1.5;"/><rect fill="none" height="65.0547" style="stroke:#000000;stroke-width:1.5;" width="430.5" x="413" y="652.6016"/><text fill="#000000" font-family="sans-serif" font-size="13" font-weight="bold" lengthAdjust="spacing" textLength="86" x="428" y="667.0967">Get Customer</text><polygon fill="#181818" points="729,705.6563,739,709.6563,729,713.6563,733,709.6563" style="stroke:#181818;stroke-width:1.0;"/><line style="stroke:#181818;stroke-width:1.0;" x1="477" x2="735" y1="709.6563" y2="709.6563"/><text fill="#000000" font-family="sans-serif" font-size="13" lengthAdjust="spacing" textLength="81" x="484" y="688.4482">Get Customer</text><text fill="#000000" font-family="sans-serif" font-size="13" lengthAdjust="spacing" textLength="78" x="484" y="704.7998">[XML/HTTPS]</text><polygon fill="#181818" points="465,759.3594,475,763.3594,465,767.3594,469,763.3594" style="stroke:#181818;stroke-width:1.0;"/><line style="stroke:#181818;stroke-width:1.0;" x1="313" x2="471" y1="763.3594" y2="763.3594"/><text fill="#000000" font-family="sans-serif" font-size="13" lengthAdjust="spacing" textLength="140" x="320" y="742.1514">Get Customer Accounts</text><text fill="#000000" font-family="sans-serif" font-size="13" lengthAdjust="spacing" textLength="49" x="320" y="758.5029">[HTTPS]</text><path d="M413,778.3594 L605,778.3594 L605,786.7109 L595,796.7109 L413,796.7109 L413,778.3594 " fill="#EEEEEE" style="stroke:#000000;stroke-width:1.5;"/><rect fill="none" height="65.0547" style="stroke:#000000;stroke-width:1.5;" width="430.5" x="413" y="778.3594"/><text fill="#000000" font-family="sans-serif" font-size="13" font-weight="bold" lengthAdjust="spacing" textLength="147" x="428" y="792.8545">Get Customer Accounts</text><polygon fill="#181818" points="729,831.4141,739,835.4141,729,839.4141,733,835.4141" style="stroke:#181818;stroke-width:1.0;"/><line style="stroke:#181818;stroke-width:1.0;" x1="477" x2="735" y1="835.4141" y2="835.4141"/><text fill="#000000" font-family="sans-serif" font-size="13" lengthAdjust="spacing" textLength="140" x="484" y="814.2061">Get Customer Accounts</text><text fill="#000000" font-family="sans-serif" font-size="13" lengthAdjust="spacing" textLength="78" x="484" y="830.5576">[XML/HTTPS]</text><path d="M10,871.4141 L256,871.4141 L256,879.7656 L246,889.7656 L10,889.7656 L10,871.4141 " fill="#EEEEEE" style="stroke:#000000;stroke-width:1.5;"/><rect fill="none" height="269.8672" style="stroke:#000000;stroke-width:1.5;" width="966.5" x="10" y="871.4141"/><text fill="#000000" font-family="sans-serif" font-size="13" font-weight="bold" lengthAdjust="spacing" textLength="201" x="25" y="885.9092">Customer - Create New Account</text><polygon fill="#181818" points="301,924.4688,311,928.4688,301,932.4688,305,928.4688" style="stroke:#181818;stroke-width:1.0;"/><line style="stroke:#181818;stroke-width:1.0;" x1="57.5" x2="307" y1="928.4688" y2="928.4688"/><text fill="#000000" font-family="sans-serif" font-size="13" lengthAdjust="spacing" textLength="90" x="64.5" y="907.2607">Create Account</text><text fill="#000000" font-family="sans-serif" font-size="13" lengthAdjust="spacing" textLength="49" x="64.5" y="923.6123">[HTTPS]</text><path d="M221,943.4688 L363,943.4688 L363,951.8203 L353,961.8203 L221,961.8203 L221,943.4688 " fill="#EEEEEE" style="stroke:#000000;stroke-width:1.5;"/><rect fill="none" height="190.8125" style="stroke:#000000;stroke-width:1.5;" width="745.5" x="221" y="943.4688"/><text fill="#000000" font-family="sans-serif" font-size="13" font-weight="bold" lengthAdjust="spacing" textLength="97" x="236" y="957.9639">Create Account</text><polygon fill="#181818" points="465,996.5234,475,1000.5234,465,1004.5234,469,1000.5234" style="stroke:#181818;stroke-width:1.0;"/><line style="stroke:#181818;stroke-width:1.0;" x1="313" x2="471" y1="1000.5234" y2="1000.5234"/><text fill="#000000" font-family="sans-serif" font-size="13" lengthAdjust="spacing" textLength="90" x="320" y="979.3154">Create Account</text><text fill="#000000" font-family="sans-serif" font-size="13" lengthAdjust="spacing" textLength="49" x="320" y="995.667">[HTTPS]</text><path d="M413,1015.5234 L555,1015.5234 L555,1023.875 L545,1033.875 L413,1033.875 L413,1015.5234 " fill="#EEEEEE" style="stroke:#000000;stroke-width:1.5;"/><rect fill="none" height="111.7578" style="stroke:#000000;stroke-width:1.5;" width="543.5" x="413" y="1015.5234"/><text fill="#000000" font-family="sans-serif" font-size="13" font-weight="bold" lengthAdjust="spacing" textLength="97" x="428" y="1030.0186">Create Account</text><polygon fill="#181818" points="729,1068.5781,739,1072.5781,729,1076.5781,733,1072.5781" style="stroke:#181818;stroke-width:1.0;"/><line style="stroke:#181818;stroke-width:1.0;" x1="477" x2="735" y1="1072.5781" y2="1072.5781"/><text fill="#000000" font-family="sans-serif" font-size="13" lengthAdjust="spacing" textLength="90" x="484" y="1051.3701">Create Account</text><text fill="#000000" font-family="sans-serif" font-size="13" lengthAdjust="spacing" textLength="78" x="484" y="1067.7217">[XML/HTTPS]</text><polygon fill="#181818" points="883,1115.2813,893,1119.2813,883,1123.2813,887,1119.2813" style="stroke:#181818;stroke-width:1.0;"/><line style="stroke:#181818;stroke-width:1.0;" x1="477" x2="889" y1="1119.2813" y2="1119.2813"/><text fill="#000000" font-family="sans-serif" font-size="13" lengthAdjust="spacing" textLength="269" x="484" y="1098.0732">Send New Account Created Notification E-Mail</text><text fill="#000000" font-family="sans-serif" font-size="13" lengthAdjust="spacing" textLength="44" x="484" y="1114.4248">[SMTP]</text><path d="M10,1155.2813 L438,1155.2813 L438,1163.6328 L428,1173.6328 L10,1173.6328 L10,1155.2813 " fill="#EEEEEE" style="stroke:#000000;stroke-width:1.5;"/><rect fill="none" height="65.0547" style="stroke:#000000;stroke-width:1.5;" width="946.5" x="10" y="1155.2813"/><text fill="#000000" font-family="sans-serif" font-size="13" font-weight="bold" lengthAdjust="spacing" textLength="383" x="25" y="1169.7764">Customer - Receive New Account Created Notification E-Mail</text><polygon fill="#181818" points="883,1208.3359,893,1212.3359,883,1216.3359,887,1212.3359" style="stroke:#181818;stroke-width:1.0;"/><line style="stroke:#181818;stroke-width:1.0;" x1="57.5" x2="889" y1="1212.3359" y2="1212.3359"/><text fill="#000000" font-family="sans-serif" font-size="13" lengthAdjust="spacing" textLength="284" x="64.5" y="1191.1279">Receive New Account Created Notification E-Mail</text><text fill="#000000" font-family="sans-serif" font-size="13" lengthAdjust="spacing" textLength="43" x="64.5" y="1207.4795">[POP3]</text><!--SRC=[pPTHJzim4CVV_IbEtUiQ7dZRmwHG45Hg8IDb86rxSDDhi9RQcUEKxTllqiGXSM105w9MgbJPbz_zVVUtunfX4eGJ4SC9bpyXI28OmqGZDmYN-01-5AbS6XeCyLUECi9YNad3XKGD2MunOIpbseX8f9mYHvCyCsg3UWGyAyW5cBYU7ncbCyzECxPKls4qbGQrHBFBBsGyWW-tzy8W0_gqkBUu13zD4n5n8vHqyQ5QcmUkCVoJ6TnadWLNNAyMdNb4Qe2wcKAAJt0Sy1XxobWI2o3nkWdzODfJ8YAvIrjnmvSyGnYTLh_-WsyH3EKAg85Ex-SKjjPyWxQTK39VobW_LprMZhVPPsEAIbu9F2jYAmgBjSfJiCOZ0vyhC0gkP4ABgfNUNC_OytQ5yUTUt0QVu99lHKmRxBlyTh5O1E6FIg0TPxtasLjlowiaTwRu2dngTsYe7O-YoG6xRwUweOWbJ2LmUkQhe4FaWYQW0BvBVLszLNgtkjKmwoF9tbhRs_Ezn3fPzbPhDplfz7DpZz8KI8IR33KfNao2esdm4S8liqSt3D7XdQbgx2bIN9Av9NmowC2wVqxlFIlHrT-S6y87Jn_1NP5tyzbHumGut8BQkqlshyhMGGTJugPifzRFdhZT2ziW-x1AMwLqozoUFJ2Z322z7sjqX3OyCO2knZsgU5iLjxxctu9I7Oqf8zQMM5xKI6euNmGlEFSQ8nHRV2rqVrkt5_B6jBIMu2euBjV2_W80]--></g></svg>