<?xml version="1.0" encoding="us-ascii" standalone="no"?><svg xmlns="http://www.w3.org/2000/svg" xmlns:xlink="http://www.w3.org/1999/xlink" contentStyleType="text/css" height="1364px" preserveAspectRatio="none" style="width:968px;height:1364px;background:#FFFFFF;" version="1.1" viewBox="0 0 968 1364" width="968px" zoomAndPan="magnify"><defs/><g><text fill="#000000" font-family="sans-serif" font-size="14" font-weight="bold" lengthAdjust="spacing" textLength="447" x="256.75" y="29.5332">Big Bank Plc - Create New Account - Sequence - Container level</text><rect fill="#FFFFFF" height="1307.3359" style="stroke:#181818;stroke-width:0.5;" width="541.5" x="86" y="44.6094"/><text fill="#000000" font-family="sans-serif" font-size="13" font-weight="bold" lengthAdjust="spacing" textLength="105" x="304.25" y="58.1045">Internet Banking</text><rect fill="none" height="65.0547" style="stroke:#000000;stroke-width:1.5;" width="310" x="80" y="236.625"/><rect fill="none" height="144.1094" style="stroke:#000000;stroke-width:1.5;" width="437.5" x="206" y="406.7344"/><rect fill="none" height="65.0547" style="stroke:#000000;stroke-width:1.5;" width="235.5" x="398" y="478.7891"/><rect fill="none" height="269.8672" style="stroke:#000000;stroke-width:1.5;" width="632.5" x="206" y="611.5469"/><rect fill="none" height="65.0547" style="stroke:#000000;stroke-width:1.5;" width="430.5" x="398" y="683.6016"/><rect fill="none" height="65.0547" style="stroke:#000000;stroke-width:1.5;" width="430.5" x="398" y="809.3594"/><rect fill="none" height="190.8125" style="stroke:#000000;stroke-width:1.5;" width="745.5" x="206" y="986.4688"/><rect fill="none" height="111.7578" style="stroke:#000000;stroke-width:1.5;" width="543.5" x="398" y="1058.5234"/><line style="stroke:#181818;stroke-width:0.5;stroke-dasharray:5.0,5.0;" x1="42" x2="42" y1="128.5703" y2="1285.3359"/><line style="stroke:#181818;stroke-width:0.5;stroke-dasharray:5.0,5.0;" x1="148" x2="148" y1="128.5703" y2="1285.3359"/><line style="stroke:#181818;stroke-width:0.5;stroke-dasharray:5.0,5.0;" x1="298" x2="298" y1="128.5703" y2="1285.3359"/><line style="stroke:#181818;stroke-width:0.5;stroke-dasharray:5.0,5.0;" x1="462" x2="462" y1="128.5703" y2="1285.3359"/><line style="stroke:#181818;stroke-width:0.5;stroke-dasharray:5.0,5.0;" x1="589.5" x2="589.5" y1="128.5703" y2="1285.3359"/><line style="stroke:#181818;stroke-width:0.5;stroke-dasharray:5.0,5.0;" x1="725.5" x2="725.5" y1="128.5703" y2="1285.3359"/><line style="stroke:#181818;stroke-width:0.5;stroke-dasharray:5.0,5.0;" x1="879.5" x2="879.5" y1="128.5703" y2="1285.3359"/><rect fill="#E2E2F0" height="31.6094" rx="2.5" ry="2.5" style="stroke:#181818;stroke-width:0.5;" width="75" x="5" y="95.9609"/><text fill="#000000" font-family="sans-serif" font-size="14" lengthAdjust="spacing" textLength="61" x="12" y="117.4941">Customer</text><rect fill="#E2E2F0" height="31.6094" rx="2.5" ry="2.5" style="stroke:#181818;stroke-width:0.5;" width="75" x="5" y="1284.3359"/><text fill="#000000" font-family="sans-serif" font-size="14" lengthAdjust="spacing" textLength="61" x="12" y="1305.8691">Customer</text><rect fill="#E2E2F0" height="31.6094" rx="2.5" ry="2.5" style="stroke:#181818;stroke-width:0.5;" width="116" x="90" y="95.9609"/><text fill="#000000" font-family="sans-serif" font-size="14" lengthAdjust="spacing" textLength="102" x="97" y="117.4941">Web Application</text><rect fill="#E2E2F0" height="31.6094" rx="2.5" ry="2.5" style="stroke:#181818;stroke-width:0.5;" width="116" x="90" y="1284.3359"/><text fill="#000000" font-family="sans-serif" font-size="14" lengthAdjust="spacing" textLength="102" x="97" y="1305.8691">Web Application</text><rect fill="#E2E2F0" height="31.6094" rx="2.5" ry="2.5" style="stroke:#181818;stroke-width:0.5;" width="164" x="216" y="95.9609"/><text fill="#000000" font-family="sans-serif" font-size="14" lengthAdjust="spacing" textLength="150" x="223" y="117.4941">Single-Page Application</text><rect fill="#E2E2F0" height="31.6094" rx="2.5" ry="2.5" style="stroke:#181818;stroke-width:0.5;" width="164" x="216" y="1284.3359"/><text fill="#000000" font-family="sans-serif" font-size="14" lengthAdjust="spacing" textLength="150" x="223" y="1305.8691">Single-Page Application</text><rect fill="#E2E2F0" height="31.6094" rx="2.5" ry="2.5" style="stroke:#181818;stroke-width:0.5;" width="108" x="408" y="95.9609"/><text fill="#000000" font-family="sans-serif" font-size="14" lengthAdjust="spacing" textLength="94" x="415" y="117.4941">API Application</text><rect fill="#E2E2F0" height="31.6094" rx="2.5" ry="2.5" style="stroke:#181818;stroke-width:0.5;" width="108" x="408" y="1284.3359"/><text fill="#000000" font-family="sans-serif" font-size="14" lengthAdjust="spacing" textLength="94" x="415" y="1305.8691">API Application</text><text fill="#000000" font-family="sans-serif" font-size="14" lengthAdjust="spacing" textLength="61" x="556.5" y="125.4941">Database</text><path d="M572,74.9609 C572,64.9609 590,64.9609 590,64.9609 C590,64.9609 608,64.9609 608,74.9609 L608,100.9609 C608,110.9609 590,110.9609 590,110.9609 C590,110.9609 572,110.9609 572,100.9609 L572,74.9609 " fill="#E2E2F0" style="stroke:#181818;stroke-width:1.5;"/><path d="M572,74.9609 C572,84.9609 590,84.9609 590,84.9609 C590,84.9609 608,84.9609 608,74.9609 " fill="none" style="stroke:#181818;stroke-width:1.5;"/><text fill="#000000" font-family="sans-serif" font-size="14" lengthAdjust="spacing" textLength="61" x="556.5" y="1298.8691">Database</text><path d="M572,1311.9453 C572,1301.9453 590,1301.9453 590,1301.9453 C590,1301.9453 608,1301.9453 608,1311.9453 L608,1337.9453 C608,1347.9453 590,1347.9453 590,1347.9453 C590,1347.9453 572,1347.9453 572,1337.9453 L572,1311.9453 " fill="#E2E2F0" style="stroke:#181818;stroke-width:1.5;"/><path d="M572,1311.9453 C572,1321.9453 590,1321.9453 590,1321.9453 C590,1321.9453 608,1321.9453 608,1311.9453 " fill="none" style="stroke:#181818;stroke-width:1.5;"/><rect fill="#E2E2F0" height="31.6094" rx="2.5" ry="2.5" style="stroke:#181818;stroke-width:0.5;" width="185" x="633.5" y="95.9609"/><text fill="#000000" font-family="sans-serif" font-size="14" lengthAdjust="spacing" textLength="171" x="640.5" y="117.4941">Mainframe Banking System</text><rect fill="#E2E2F0" height="31.6094" rx="2.5" ry="2.5" style="stroke:#181818;stroke-width:0.5;" width="185" x="633.5" y="1284.3359"/><text fill="#000000" font-family="sans-serif" font-size="14" lengthAdjust="spacing" textLength="171" x="640.5" y="1305.8691">Mainframe Banking System</text><rect fill="#E2E2F0" height="31.6094" rx="2.5" ry="2.5" style="stroke:#181818;stroke-width:0.5;" width="103" x="828.5" y="95.9609"/><text fill="#000000" font-family="sans-serif" font-size="14" lengthAdjust="spacing" textLength="89" x="835.5" y="117.4941">E-Mail System</text><rect fill="#E2E2F0" height="31.6094" rx="2.5" ry="2.5" style="stroke:#181818;stroke-width:0.5;" width="103" x="828.5" y="1284.3359"/><text fill="#000000" font-family="sans-serif" font-size="14" lengthAdjust="spacing" textLength="89" x="835.5" y="1305.8691">E-Mail System</text><rect fill="#EEEEEE" height="3" style="stroke:#EEEEEE;stroke-width:1.0;" width="961.5" x="0" y="159.7461"/><line style="stroke:#000000;stroke-width:1.0;" x1="0" x2="961.5" y1="159.7461" y2="159.7461"/><line style="stroke:#000000;stroke-width:1.0;" x1="0" x2="961.5" y1="162.7461" y2="162.7461"/><rect fill="#EEEEEE" height="24.3516" style="stroke:#000000;stroke-width:2.0;" width="256" x="352.75" y="148.5703"/><text fill="#000000" font-family="sans-serif" font-size="13" font-weight="bold" lengthAdjust="spacing" textLength="238" x="358.75" y="166.0654">Customer - Go to Online Banking URL</text><polygon fill="#181818" points="136,217.625,146,221.625,136,225.625,140,221.625" style="stroke:#181818;stroke-width:1.0;"/><line style="stroke:#181818;stroke-width:1.0;" x1="42.5" x2="142" y1="221.625" y2="221.625"/><text fill="#000000" font-family="sans-serif" font-size="13" lengthAdjust="spacing" textLength="49" x="49.5" y="200.417">Navigate</text><text fill="#000000" font-family="sans-serif" font-size="13" lengthAdjust="spacing" textLength="49" x="49.5" y="216.7686">[HTTPS]</text><path d="M80,236.625 L181,236.625 L181,244.9766 L171,254.9766 L80,254.9766 L80,236.625 " fill="#EEEEEE" style="stroke:#000000;stroke-width:1.5;"/><rect fill="none" height="65.0547" style="stroke:#000000;stroke-width:1.5;" width="310" x="80" y="236.625"/><text fill="#000000" font-family="sans-serif" font-size="13" font-weight="bold" lengthAdjust="spacing" textLength="56" x="95" y="251.1201">Navigate</text><polygon fill="#181818" points="286,289.6797,296,293.6797,286,297.6797,290,293.6797" style="stroke:#181818;stroke-width:1.0;"/><line style="stroke:#181818;stroke-width:1.0;" x1="148" x2="292" y1="293.6797" y2="293.6797"/><text fill="#000000" font-family="sans-serif" font-size="13" lengthAdjust="spacing" textLength="87" x="155" y="272.4717">Load And Start</text><text fill="#000000" font-family="sans-serif" font-size="13" lengthAdjust="spacing" textLength="49" x="155" y="288.8232">[HTTPS]</text><rect fill="#EEEEEE" height="3" style="stroke:#EEEEEE;stroke-width:1.0;" width="961.5" x="0" y="329.8555"/><line style="stroke:#000000;stroke-width:1.0;" x1="0" x2="961.5" y1="329.8555" y2="329.8555"/><line style="stroke:#000000;stroke-width:1.0;" x1="0" x2="961.5" y1="332.8555" y2="332.8555"/><rect fill="#EEEEEE" height="24.3516" style="stroke:#000000;stroke-width:2.0;" width="277" x="342.25" y="318.6797"/><text fill="#000000" font-family="sans-serif" font-size="13" font-weight="bold" lengthAdjust="spacing" textLength="259" x="348.25" y="336.1748">Customer - Sign In and View Home Page</text><polygon fill="#181818" points="286,387.7344,296,391.7344,286,395.7344,290,391.7344" style="stroke:#181818;stroke-width:1.0;"/><line style="stroke:#181818;stroke-width:1.0;" x1="42.5" x2="292" y1="391.7344" y2="391.7344"/><text fill="#000000" font-family="sans-serif" font-size="13" lengthAdjust="spacing" textLength="40" x="49.5" y="370.5264">Sign In</text><text fill="#000000" font-family="sans-serif" font-size="13" lengthAdjust="spacing" textLength="49" x="49.5" y="386.8779">[HTTPS]</text><path d="M206,406.7344 L296,406.7344 L296,415.0859 L286,425.0859 L206,425.0859 L206,406.7344 " fill="#EEEEEE" style="stroke:#000000;stroke-width:1.5;"/><rect fill="none" height="144.1094" style="stroke:#000000;stroke-width:1.5;" width="437.5" x="206" y="406.7344"/><text fill="#000000" font-family="sans-serif" font-size="13" font-weight="bold" lengthAdjust="spacing" textLength="45" x="221" y="421.2295">Sign In</text><polygon fill="#181818" points="450,459.7891,460,463.7891,450,467.7891,454,463.7891" style="stroke:#181818;stroke-width:1.0;"/><line style="stroke:#181818;stroke-width:1.0;" x1="298" x2="456" y1="463.7891" y2="463.7891"/><text fill="#000000" font-family="sans-serif" font-size="13" lengthAdjust="spacing" textLength="40" x="305" y="442.5811">Sign In</text><text fill="#000000" font-family="sans-serif" font-size="13" lengthAdjust="spacing" textLength="49" x="305" y="458.9326">[HTTPS]</text><path d="M398,478.7891 L488,478.7891 L488,487.1406 L478,497.1406 L398,497.1406 L398,478.7891 " fill="#EEEEEE" style="stroke:#000000;stroke-width:1.5;"/><rect fill="none" height="65.0547" style="stroke:#000000;stroke-width:1.5;" width="235.5" x="398" y="478.7891"/><text fill="#000000" font-family="sans-serif" font-size="13" font-weight="bold" lengthAdjust="spacing" textLength="45" x="413" y="493.2842">Sign In</text><polygon fill="#181818" points="578,531.8438,588,535.8438,578,539.8438,582,535.8438" style="stroke:#181818;stroke-width:1.0;"/><line style="stroke:#181818;stroke-width:1.0;" x1="462" x2="584" y1="535.8438" y2="535.8438"/><text fill="#000000" font-family="sans-serif" font-size="13" lengthAdjust="spacing" textLength="104" x="469" y="514.6357">Authenticate User</text><text fill="#000000" font-family="sans-serif" font-size="13" lengthAdjust="spacing" textLength="83" x="469" y="530.9873">[TCP/IP, SQL]</text><polygon fill="#181818" points="286,592.5469,296,596.5469,286,600.5469,290,596.5469" style="stroke:#181818;stroke-width:1.0;"/><line style="stroke:#181818;stroke-width:1.0;" x1="42.5" x2="292" y1="596.5469" y2="596.5469"/><text fill="#000000" font-family="sans-serif" font-size="13" lengthAdjust="spacing" textLength="132" x="49.5" y="575.3389">View Customer Details</text><text fill="#000000" font-family="sans-serif" font-size="13" lengthAdjust="spacing" textLength="49" x="49.5" y="591.6904">[HTTPS]</text><path d="M206,611.5469 L394,611.5469 L394,619.8984 L384,629.8984 L206,629.8984 L206,611.5469 " fill="#EEEEEE" style="stroke:#000000;stroke-width:1.5;"/><rect fill="none" height="269.8672" style="stroke:#000000;stroke-width:1.5;" width="632.5" x="206" y="611.5469"/><text fill="#000000" font-family="sans-serif" font-size="13" font-weight="bold" lengthAdjust="spacing" textLength="143" x="221" y="626.042">View Customer Details</text><polygon fill="#181818" points="450,664.6016,460,668.6016,450,672.6016,454,668.6016" style="stroke:#181818;stroke-width:1.0;"/><line style="stroke:#181818;stroke-width:1.0;" x1="298" x2="456" y1="668.6016" y2="668.6016"/><text fill="#000000" font-family="sans-serif" font-size="13" lengthAdjust="spacing" textLength="81" x="305" y="647.3936">Get Customer</text><text fill="#000000" font-family="sans-serif" font-size="13" lengthAdjust="spacing" textLength="49" x="305" y="663.7451">[HTTPS]</text><path d="M398,683.6016 L529,683.6016 L529,691.9531 L519,701.9531 L398,701.9531 L398,683.6016 " fill="#EEEEEE" style="stroke:#000000;stroke-width:1.5;"/><rect fill="none" height="65.0547" style="stroke:#000000;stroke-width:1.5;" width="430.5" x="398" y="683.6016"/><text fill="#000000" font-family="sans-serif" font-size="13" font-weight="bold" lengthAdjust="spacing" textLength="86" x="413" y="698.0967">Get Customer</text><polygon fill="#181818" points="714,736.6563,724,740.6563,714,744.6563,718,740.6563" style="stroke:#181818;stroke-width:1.0;"/><line style="stroke:#181818;stroke-width:1.0;" x1="462" x2="720" y1="740.6563" y2="740.6563"/><text fill="#000000" font-family="sans-serif" font-size="13" lengthAdjust="spacing" textLength="81" x="469" y="719.4482">Get Customer</text><text fill="#000000" font-family="sans-serif" font-size="13" lengthAdjust="spacing" textLength="78" x="469" y="735.7998">[XML/HTTPS]</text><polygon fill="#181818" points="450,790.3594,460,794.3594,450,798.3594,454,794.3594" style="stroke:#181818;stroke-width:1.0;"/><line style="stroke:#181818;stroke-width:1.0;" x1="298" x2="456" y1="794.3594" y2="794.3594"/><text fill="#000000" font-family="sans-serif" font-size="13" lengthAdjust="spacing" textLength="140" x="305" y="773.1514">Get Customer Accounts</text><text fill="#000000" font-family="sans-serif" font-size="13" lengthAdjust="spacing" textLength="49" x="305" y="789.5029">[HTTPS]</text><path d="M398,809.3594 L590,809.3594 L590,817.7109 L580,827.7109 L398,827.7109 L398,809.3594 " fill="#EEEEEE" style="stroke:#000000;stroke-width:1.5;"/><rect fill="none" height="65.0547" style="stroke:#000000;stroke-width:1.5;" width="430.5" x="398" y="809.3594"/><text fill="#000000" font-family="sans-serif" font-size="13" font-weight="bold" lengthAdjust="spacing" textLength="147" x="413" y="823.8545">Get Customer Accounts</text><polygon fill="#181818" points="714,862.4141,724,866.4141,714,870.4141,718,866.4141" style="stroke:#181818;stroke-width:1.0;"/><line style="stroke:#181818;stroke-width:1.0;" x1="462" x2="720" y1="866.4141" y2="866.4141"/><text fill="#000000" font-family="sans-serif" font-size="13" lengthAdjust="spacing" textLength="140" x="469" y="845.2061">Get Customer Accounts</text><text fill="#000000" font-family="sans-serif" font-size="13" lengthAdjust="spacing" textLength="78" x="469" y="861.5576">[XML/HTTPS]</text><rect fill="#EEEEEE" height="3" style="stroke:#EEEEEE;stroke-width:1.0;" width="961.5" x="0" y="909.5898"/><line style="stroke:#000000;stroke-width:1.0;" x1="0" x2="961.5" y1="909.5898" y2="909.5898"/><line style="stroke:#000000;stroke-width:1.0;" x1="0" x2="961.5" y1="912.5898" y2="912.5898"/><rect fill="#EEEEEE" height="24.3516" style="stroke:#000000;stroke-width:2.0;" width="219" x="371.25" y="898.4141"/><text fill="#000000" font-family="sans-serif" font-size="13" font-weight="bold" lengthAdjust="spacing" textLength="201" x="377.25" y="915.9092">Customer - Create New Account</text><polygon fill="#181818" points="286,967.4688,296,971.4688,286,975.4688,290,971.4688" style="stroke:#181818;stroke-width:1.0;"/><line style="stroke:#181818;stroke-width:1.0;" x1="42.5" x2="292" y1="971.4688" y2="971.4688"/><text fill="#000000" font-family="sans-serif" font-size="13" lengthAdjust="spacing" textLength="90" x="49.5" y="950.2607">Create Account</text><text fill="#000000" font-family="sans-serif" font-size="13" lengthAdjust="spacing" textLength="49" x="49.5" y="966.6123">[HTTPS]</text><path d="M206,986.4688 L348,986.4688 L348,994.8203 L338,1004.8203 L206,1004.8203 L206,986.4688 " fill="#EEEEEE" style="stroke:#000000;stroke-width:1.5;"/><rect fill="none" height="190.8125" style="stroke:#000000;stroke-width:1.5;" width="745.5" x="206" y="986.4688"/><text fill="#000000" font-family="sans-serif" font-size="13" font-weight="bold" lengthAdjust="spacing" textLength="97" x="221" y="1000.9639">Create Account</text><polygon fill="#181818" points="450,1039.5234,460,1043.5234,450,1047.5234,454,1043.5234" style="stroke:#181818;stroke-width:1.0;"/><line style="stroke:#181818;stroke-width:1.0;" x1="298" x2="456" y1="1043.5234" y2="1043.5234"/><text fill="#000000" font-family="sans-serif" font-size="13" lengthAdjust="spacing" textLength="90" x="305" y="1022.3154">Create Account</text><text fill="#000000" font-family="sans-serif" font-size="13" lengthAdjust="spacing" textLength="49" x="305" y="1038.667">[HTTPS]</text><path d="M398,1058.5234 L540,1058.5234 L540,1066.875 L530,1076.875 L398,1076.875 L398,1058.5234 " fill="#EEEEEE" style="stroke:#000000;stroke-width:1.5;"/><rect fill="none" height="111.7578" style="stroke:#000000;stroke-width:1.5;" width="543.5" x="398" y="1058.5234"/><text fill="#000000" font-family="sans-serif" font-size="13" font-weight="bold" lengthAdjust="spacing" textLength="97" x="413" y="1073.0186">Create Account</text><polygon fill="#181818" points="714,1111.5781,724,1115.5781,714,1119.5781,718,1115.5781" style="stroke:#181818;stroke-width:1.0;"/><line style="stroke:#181818;stroke-width:1.0;" x1="462" x2="720" y1="1115.5781" y2="1115.5781"/><text fill="#000000" font-family="sans-serif" font-size="13" lengthAdjust="spacing" textLength="90" x="469" y="1094.3701">Create Account</text><text fill="#000000" font-family="sans-serif" font-size="13" lengthAdjust="spacing" textLength="78" x="469" y="1110.7217">[XML/HTTPS]</text><polygon fill="#181818" points="868,1158.2813,878,1162.2813,868,1166.2813,872,1162.2813" style="stroke:#181818;stroke-width:1.0;"/><line style="stroke:#181818;stroke-width:1.0;" x1="462" x2="874" y1="1162.2813" y2="1162.2813"/><text fill="#000000" font-family="sans-serif" font-size="13" lengthAdjust="spacing" textLength="269" x="469" y="1141.0732">Send New Account Created Notification E-Mail</text><text fill="#000000" font-family="sans-serif" font-size="13" lengthAdjust="spacing" textLength="44" x="469" y="1157.4248">[SMTP]</text><rect fill="#EEEEEE" height="3" style="stroke:#EEEEEE;stroke-width:1.0;" width="961.5" x="0" y="1205.457"/><line style="stroke:#000000;stroke-width:1.0;" x1="0" x2="961.5" y1="1205.457" y2="1205.457"/><line style="stroke:#000000;stroke-width:1.0;" x1="0" x2="961.5" y1="1208.457" y2="1208.457"/><rect fill="#EEEEEE" height="24.3516" style="stroke:#000000;stroke-width:2.0;" width="401" x="280.25" y="1194.2813"/><text fill="#000000" font-family="sans-serif" font-size="13" font-weight="bold" lengthAdjust="spacing" textLength="383" x="286.25" y="1211.7764">Customer - Receive New Account Created Notification E-Mail</text><polygon fill="#181818" points="868,1263.3359,878,1267.3359,868,1271.3359,872,1267.3359" style="stroke:#181818;stroke-width:1.0;"/><line style="stroke:#181818;stroke-width:1.0;" x1="42.5" x2="874" y1="1267.3359" y2="1267.3359"/><text fill="#000000" font-family="sans-serif" font-size="13" lengthAdjust="spacing" textLength="284" x="49.5" y="1246.1279">Receive New Account Created Notification E-Mail</text><text fill="#000000" font-family="sans-serif" font-size="13" lengthAdjust="spacing" textLength="43" x="49.5" y="1262.4795">[POP3]</text><!--SRC=[pPRVRvim4CVV_LUSsEj27_OsAPDeMhMHafQLTAsqzS4X5sgDsCoOTFllTuGV0vDkNKfH8Y55zl6vh- - -DZR2n0Yd8e9JBh-37uSmWeb6RX2ky0cyC5IPD3GOu8yCPOZvl9A62uaQOjnYp5Z2jH6XI3X5EfCiDMg3sW6UvkGSJ5pN2utIgLjDCxPKFy6PIeDQejdb5p9ouDtTep38W7ujxXqkmKkIM8JS22LjVA3Mvebh37wb1ZUfMu5BhbkBJbqYDK3TJ075npZoUOGzPIo8EP1utOIUF-qf4P7ifQsuuKkU8ZXdvRzNy2i4Gxa2Qg3L-pc5hJNVODLEA9Z_obY_LxvMZBVPvoEAYby8FCzZImeRZw5o7RdtGe5HS2rZMb4jy_Pc1kCnUzwkCFhKYzlW8rpnhOXeWtsJNoyN2pzuO95MMLAFirxo7AotvLMIErDy1HwrEp3KZZ-YoG5MPGCHIPXAu1JyHT3fSKaJiDj6RrHRMskfmAviESpwI7AmrlRMV2knLfQ3rLORdNHwcNb4QN8amcsAcXGl9lx9r7yFmUTPuOJy6QB3Er_Ls3Eak3YrIxWtwCYwVq7Vl4gYhRyvDuGFzX-_NP7tyzb9O_SVRq6hUqlwjyhMGKTJugPigzRTqtRFBMsWKxRCN6QrIzoUFJAJ322z7rjqX3RyC82knlqf_rBbjxscqGfrDAQCM5V4ue96KeFvmd_EjJSOejZYIsclidHx4V-PcTRXN_iV7XZx3G00]--></g></svg>