<?xml version="1.0" encoding="us-ascii" standalone="no"?><svg xmlns="http://www.w3.org/2000/svg" xmlns:xlink="http://www.w3.org/1999/xlink" contentStyleType="text/css" height="681px" preserveAspectRatio="none" style="width:609px;height:681px;background:#FFFFFF;" version="1.1" viewBox="0 0 609 681" width="609px" zoomAndPan="magnify"><defs/><g><text fill="#000000" font-family="sans-serif" font-size="14" font-weight="bold" lengthAdjust="spacing" textLength="433" x="89.5" y="29.5332">Big Bank Plc - Create New Account - Sequence - Context level</text><rect fill="none" height="48.7031" style="stroke:#000000;stroke-width:1.5;" width="288" x="10" y="93.2188"/><rect fill="none" height="204.8125" style="stroke:#000000;stroke-width:1.5;" width="480" x="10" y="155.9219"/><rect fill="none" height="111.7578" style="stroke:#000000;stroke-width:1.5;" width="335" x="145" y="241.9766"/><rect fill="none" height="174.4609" style="stroke:#000000;stroke-width:1.5;" width="593" x="10" y="374.7344"/><rect fill="none" height="111.7578" style="stroke:#000000;stroke-width:1.5;" width="448" x="145" y="430.4375"/><rect fill="none" height="65.0547" style="stroke:#000000;stroke-width:1.5;" width="583" x="10" y="563.1953"/><line style="stroke:#181818;stroke-width:0.5;stroke-dasharray:5.0,5.0;" x1="57" x2="57" y1="76.2188" y2="645.25"/><line style="stroke:#181818;stroke-width:0.5;stroke-dasharray:5.0,5.0;" x1="213" x2="213" y1="76.2188" y2="645.25"/><line style="stroke:#181818;stroke-width:0.5;stroke-dasharray:5.0,5.0;" x1="377" x2="377" y1="76.2188" y2="645.25"/><line style="stroke:#181818;stroke-width:0.5;stroke-dasharray:5.0,5.0;" x1="531" x2="531" y1="76.2188" y2="645.25"/><rect fill="#E2E2F0" height="31.6094" rx="2.5" ry="2.5" style="stroke:#181818;stroke-width:0.5;" width="75" x="20" y="43.6094"/><text fill="#000000" font-family="sans-serif" font-size="14" lengthAdjust="spacing" textLength="61" x="27" y="65.1426">Customer</text><rect fill="#E2E2F0" height="31.6094" rx="2.5" ry="2.5" style="stroke:#181818;stroke-width:0.5;" width="75" x="20" y="644.25"/><text fill="#000000" font-family="sans-serif" font-size="14" lengthAdjust="spacing" textLength="61" x="27" y="665.7832">Customer</text><rect fill="#E2E2F0" height="31.6094" rx="2.5" ry="2.5" style="stroke:#181818;stroke-width:0.5;" width="117" x="155" y="43.6094"/><text fill="#000000" font-family="sans-serif" font-size="14" lengthAdjust="spacing" textLength="103" x="162" y="65.1426">Internet Banking</text><rect fill="#E2E2F0" height="31.6094" rx="2.5" ry="2.5" style="stroke:#181818;stroke-width:0.5;" width="117" x="155" y="644.25"/><text fill="#000000" font-family="sans-serif" font-size="14" lengthAdjust="spacing" textLength="103" x="162" y="665.7832">Internet Banking</text><rect fill="#E2E2F0" height="31.6094" rx="2.5" ry="2.5" style="stroke:#181818;stroke-width:0.5;" width="185" x="285" y="43.6094"/><text fill="#000000" font-family="sans-serif" font-size="14" lengthAdjust="spacing" textLength="171" x="292" y="65.1426">Mainframe Banking System</text><rect fill="#E2E2F0" height="31.6094" rx="2.5" ry="2.5" style="stroke:#181818;stroke-width:0.5;" width="185" x="285" y="644.25"/><text fill="#000000" font-family="sans-serif" font-size="14" lengthAdjust="spacing" textLength="171" x="292" y="665.7832">Mainframe Banking System</text><rect fill="#E2E2F0" height="31.6094" rx="2.5" ry="2.5" style="stroke:#181818;stroke-width:0.5;" width="103" x="480" y="43.6094"/><text fill="#000000" font-family="sans-serif" font-size="14" lengthAdjust="spacing" textLength="89" x="487" y="65.1426">E-Mail System</text><rect fill="#E2E2F0" height="31.6094" rx="2.5" ry="2.5" style="stroke:#181818;stroke-width:0.5;" width="103" x="480" y="644.25"/><text fill="#000000" font-family="sans-serif" font-size="14" lengthAdjust="spacing" textLength="89" x="487" y="665.7832">E-Mail System</text><path d="M10,93.2188 L293,93.2188 L293,101.5703 L283,111.5703 L10,111.5703 L10,93.2188 " fill="#EEEEEE" style="stroke:#000000;stroke-width:1.5;"/><rect fill="none" height="48.7031" style="stroke:#000000;stroke-width:1.5;" width="288" x="10" y="93.2188"/><text fill="#000000" font-family="sans-serif" font-size="13" font-weight="bold" lengthAdjust="spacing" textLength="238" x="25" y="107.7139">Customer - Go to Online Banking URL</text><polygon fill="#181818" points="201.5,129.9219,211.5,133.9219,201.5,137.9219,205.5,133.9219" style="stroke:#181818;stroke-width:1.0;"/><line style="stroke:#181818;stroke-width:1.0;" x1="57.5" x2="207.5" y1="133.9219" y2="133.9219"/><text fill="#000000" font-family="sans-serif" font-size="13" lengthAdjust="spacing" textLength="49" x="64.5" y="129.0654">Navigate</text><path d="M10,155.9219 L314,155.9219 L314,164.2734 L304,174.2734 L10,174.2734 L10,155.9219 " fill="#EEEEEE" style="stroke:#000000;stroke-width:1.5;"/><rect fill="none" height="204.8125" style="stroke:#000000;stroke-width:1.5;" width="480" x="10" y="155.9219"/><text fill="#000000" font-family="sans-serif" font-size="13" font-weight="bold" lengthAdjust="spacing" textLength="259" x="25" y="170.417">Customer - Sign In and View Home Page</text><polygon fill="#181818" points="201.5,192.625,211.5,196.625,201.5,200.625,205.5,196.625" style="stroke:#181818;stroke-width:1.0;"/><line style="stroke:#181818;stroke-width:1.0;" x1="57.5" x2="207.5" y1="196.625" y2="196.625"/><text fill="#000000" font-family="sans-serif" font-size="13" lengthAdjust="spacing" textLength="40" x="64.5" y="191.7686">Sign In</text><polygon fill="#181818" points="201.5,222.9766,211.5,226.9766,201.5,230.9766,205.5,226.9766" style="stroke:#181818;stroke-width:1.0;"/><line style="stroke:#181818;stroke-width:1.0;" x1="57.5" x2="207.5" y1="226.9766" y2="226.9766"/><text fill="#000000" font-family="sans-serif" font-size="13" lengthAdjust="spacing" textLength="132" x="64.5" y="222.1201">View Customer Details</text><path d="M145,241.9766 L333,241.9766 L333,250.3281 L323,260.3281 L145,260.3281 L145,241.9766 " fill="#EEEEEE" style="stroke:#000000;stroke-width:1.5;"/><rect fill="none" height="111.7578" style="stroke:#000000;stroke-width:1.5;" width="335" x="145" y="241.9766"/><text fill="#000000" font-family="sans-serif" font-size="13" font-weight="bold" lengthAdjust="spacing" textLength="143" x="160" y="256.4717">View Customer Details</text><polygon fill="#181818" points="365.5,295.0313,375.5,299.0313,365.5,303.0313,369.5,299.0313" style="stroke:#181818;stroke-width:1.0;"/><line style="stroke:#181818;stroke-width:1.0;" x1="213.5" x2="371.5" y1="299.0313" y2="299.0313"/><text fill="#000000" font-family="sans-serif" font-size="13" lengthAdjust="spacing" textLength="81" x="220.5" y="277.8232">Get Customer</text><text fill="#000000" font-family="sans-serif" font-size="13" lengthAdjust="spacing" textLength="78" x="220.5" y="294.1748">[XML/HTTPS]</text><polygon fill="#181818" points="365.5,341.7344,375.5,345.7344,365.5,349.7344,369.5,345.7344" style="stroke:#181818;stroke-width:1.0;"/><line style="stroke:#181818;stroke-width:1.0;" x1="213.5" x2="371.5" y1="345.7344" y2="345.7344"/><text fill="#000000" font-family="sans-serif" font-size="13" lengthAdjust="spacing" textLength="140" x="220.5" y="324.5264">Get Customer Accounts</text><text fill="#000000" font-family="sans-serif" font-size="13" lengthAdjust="spacing" textLength="78" x="220.5" y="340.8779">[XML/HTTPS]</text><path d="M10,374.7344 L256,374.7344 L256,383.0859 L246,393.0859 L10,393.0859 L10,374.7344 " fill="#EEEEEE" style="stroke:#000000;stroke-width:1.5;"/><rect fill="none" height="174.4609" style="stroke:#000000;stroke-width:1.5;" width="593" x="10" y="374.7344"/><text fill="#000000" font-family="sans-serif" font-size="13" font-weight="bold" lengthAdjust="spacing" textLength="201" x="25" y="389.2295">Customer - Create New Account</text><polygon fill="#181818" points="201.5,411.4375,211.5,415.4375,201.5,419.4375,205.5,415.4375" style="stroke:#181818;stroke-width:1.0;"/><line style="stroke:#181818;stroke-width:1.0;" x1="57.5" x2="207.5" y1="415.4375" y2="415.4375"/><text fill="#000000" font-family="sans-serif" font-size="13" lengthAdjust="spacing" textLength="90" x="64.5" y="410.5811">Create Account</text><path d="M145,430.4375 L287,430.4375 L287,438.7891 L277,448.7891 L145,448.7891 L145,430.4375 " fill="#EEEEEE" style="stroke:#000000;stroke-width:1.5;"/><rect fill="none" height="111.7578" style="stroke:#000000;stroke-width:1.5;" width="448" x="145" y="430.4375"/><text fill="#000000" font-family="sans-serif" font-size="13" font-weight="bold" lengthAdjust="spacing" textLength="97" x="160" y="444.9326">Create Account</text><polygon fill="#181818" points="365.5,483.4922,375.5,487.4922,365.5,491.4922,369.5,487.4922" style="stroke:#181818;stroke-width:1.0;"/><line style="stroke:#181818;stroke-width:1.0;" x1="213.5" x2="371.5" y1="487.4922" y2="487.4922"/><text fill="#000000" font-family="sans-serif" font-size="13" lengthAdjust="spacing" textLength="90" x="220.5" y="466.2842">Create Account</text><text fill="#000000" font-family="sans-serif" font-size="13" lengthAdjust="spacing" textLength="78" x="220.5" y="482.6357">[XML/HTTPS]</text><polygon fill="#181818" points="519.5,530.1953,529.5,534.1953,519.5,538.1953,523.5,534.1953" style="stroke:#181818;stroke-width:1.0;"/><line style="stroke:#181818;stroke-width:1.0;" x1="213.5" x2="525.5" y1="534.1953" y2="534.1953"/><text fill="#000000" font-family="sans-serif" font-size="13" lengthAdjust="spacing" textLength="269" x="220.5" y="512.9873">Send New Account Created Notification E-Mail</text><text fill="#000000" font-family="sans-serif" font-size="13" lengthAdjust="spacing" textLength="44" x="220.5" y="529.3389">[SMTP]</text><path d="M10,563.1953 L438,563.1953 L438,571.5469 L428,581.5469 L10,581.5469 L10,563.1953 " fill="#EEEEEE" style="stroke:#000000;stroke-width:1.5;"/><rect fill="none" height="65.0547" style="stroke:#000000;stroke-width:1.5;" width="583" x="10" y="563.1953"/><text fill="#000000" font-family="sans-serif" font-size="13" font-weight="bold" lengthAdjust="spacing" textLength="383" x="25" y="577.6904">Customer - Receive New Account Created Notification E-Mail</text><polygon fill="#181818" points="519.5,616.25,529.5,620.25,519.5,624.25,523.5,620.25" style="stroke:#181818;stroke-width:1.0;"/><line style="stroke:#181818;stroke-width:1.0;" x1="57.5" x2="525.5" y1="620.25" y2="620.25"/><text fill="#000000" font-family="sans-serif" font-size="13" lengthAdjust="spacing" textLength="284" x="64.5" y="599.042">Receive New Account Created Notification E-Mail</text><text fill="#000000" font-family="sans-serif" font-size="13" lengthAdjust="spacing" textLength="43" x="64.5" y="615.3936">[POP3]</text><!--SRC=[lPHBJy904CVl_HGJxk31cmSJG28aF1gAnaGzR9QXsLXcSJi5_VPEQOkk8881h_FupNyUksmuGMYP65gANY1CDDIXxL0nmX1NqDJQPiHYZF0rGzAO-oqnlZ4akCGa21RAiT5ceIIkrivIjdDqDL1fpisnGcqqDLkNDYgtdzGJdYFajGX3yVVaoCvufHn6xodZF6rKyMMu3nieGpEdvbZHe4Zx3Rh9AzCAky_kr2KgEH3OoMDBIX0xcosWQb-6U6k1BOmeCVIfz6xS3tuU6jIlZvWANC5GBKqigmoGfjiA8XCJz0WKJU7UoBAxue1GnNXA3MMLKoBNOZVPDyWovxJiRxVl2Fn-CRkFH3JTolLMPP_eyM7Gl-XE9c7q_C-rgnUR-YBo0zXv1Djl_PIRAkaLkQpk6yy_7x_WcRRpvRNdLo_3zZxGGeFOB9kPqOgD9IY-4n4K3IRXdYMDKQDPug70ls_GR-B8ij97E0elYpw23m00]--></g></svg>