<?xml version="1.0" encoding="us-ascii" standalone="no"?><svg xmlns="http://www.w3.org/2000/svg" xmlns:xlink="http://www.w3.org/1999/xlink" contentStyleType="text/css" height="1316px" preserveAspectRatio="none" style="width:960px;height:1316px;background:#FFFFFF;" version="1.1" viewBox="0 0 960 1316" width="960px" zoomAndPan="magnify"><defs/><g><text fill="#000000" font-family="sans-serif" font-size="14" font-weight="bold" lengthAdjust="spacing" textLength="447" x="258.25" y="29.5332">Big Bank Plc - Create New Account - Sequence - Container level</text><rect fill="#FFFFFF" height="1259.3359" style="stroke:#181818;stroke-width:0.5;" width="519.5" x="101" y="44.6094"/><text fill="#000000" font-family="sans-serif" font-size="13" font-weight="bold" lengthAdjust="spacing" textLength="105" x="308.25" y="58.1045">Internet Banking</text><rect fill="none" height="144.1094" style="stroke:#000000;stroke-width:1.5;" width="361" x="10" y="145.5703"/><rect fill="none" height="65.0547" style="stroke:#000000;stroke-width:1.5;" width="266" x="95" y="217.625"/><rect fill="none" height="553.7344" style="stroke:#000000;stroke-width:1.5;" width="831.5" x="10" y="303.6797"/><rect fill="none" height="144.1094" style="stroke:#000000;stroke-width:1.5;" width="415.5" x="221" y="375.7344"/><rect fill="none" height="65.0547" style="stroke:#000000;stroke-width:1.5;" width="235.5" x="391" y="447.7891"/><rect fill="none" height="269.8672" style="stroke:#000000;stroke-width:1.5;" width="610.5" x="221" y="580.5469"/><rect fill="none" height="65.0547" style="stroke:#000000;stroke-width:1.5;" width="430.5" x="391" y="652.6016"/><rect fill="none" height="65.0547" style="stroke:#000000;stroke-width:1.5;" width="430.5" x="391" y="778.3594"/><rect fill="none" height="269.8672" style="stroke:#000000;stroke-width:1.5;" width="944.5" x="10" y="871.4141"/><rect fill="none" height="190.8125" style="stroke:#000000;stroke-width:1.5;" width="723.5" x="221" y="943.4688"/><rect fill="none" height="111.7578" style="stroke:#000000;stroke-width:1.5;" width="543.5" x="391" y="1015.5234"/><rect fill="none" height="65.0547" style="stroke:#000000;stroke-width:1.5;" width="924.5" x="10" y="1155.2813"/><line style="stroke:#181818;stroke-width:0.5;stroke-dasharray:5.0,5.0;" x1="57" x2="57" y1="128.5703" y2="1237.3359"/><line style="stroke:#181818;stroke-width:0.5;stroke-dasharray:5.0,5.0;" x1="163" x2="163" y1="128.5703" y2="1237.3359"/><line style="stroke:#181818;stroke-width:0.5;stroke-dasharray:5.0,5.0;" x1="291" x2="291" y1="128.5703" y2="1237.3359"/><line style="stroke:#181818;stroke-width:0.5;stroke-dasharray:5.0,5.0;" x1="455" x2="455" y1="128.5703" y2="1237.3359"/><line style="stroke:#181818;stroke-width:0.5;stroke-dasharray:5.0,5.0;" x1="582.5" x2="582.5" y1="128.5703" y2="1237.3359"/><line style="stroke:#181818;stroke-width:0.5;stroke-dasharray:5.0,5.0;" x1="718.5" x2="718.5" y1="128.5703" y2="1237.3359"/><line style="stroke:#181818;stroke-width:0.5;stroke-dasharray:5.0,5.0;" x1="872.5" x2="872.5" y1="128.5703" y2="1237.3359"/><rect fill="#E2E2F0" height="31.6094" rx="2.5" ry="2.5" style="stroke:#181818;stroke-width:0.5;" width="75" x="20" y="95.9609"/><text fill="#000000" font-family="sans-serif" font-size="14" lengthAdjust="spacing" textLength="61" x="27" y="117.4941">Customer</text><rect fill="#E2E2F0" height="31.6094" rx="2.5" ry="2.5" style="stroke:#181818;stroke-width:0.5;" width="75" x="20" y="1236.3359"/><text fill="#000000" font-family="sans-serif" font-size="14" lengthAdjust="spacing" textLength="61" x="27" y="1257.8691">Customer</text><rect fill="#E2E2F0" height="31.6094" rx="2.5" ry="2.5" style="stroke:#181818;stroke-width:0.5;" width="116" x="105" y="95.9609"/><text fill="#000000" font-family="sans-serif" font-size="14" lengthAdjust="spacing" textLength="102" x="112" y="117.4941">Web Application</text><rect fill="#E2E2F0" height="31.6094" rx="2.5" ry="2.5" style="stroke:#181818;stroke-width:0.5;" width="116" x="105" y="1236.3359"/><text fill="#000000" font-family="sans-serif" font-size="14" lengthAdjust="spacing" textLength="102" x="112" y="1257.8691">Web Application</text><rect fill="#E2E2F0" height="31.6094" rx="2.5" ry="2.5" style="stroke:#181818;stroke-width:0.5;" width="120" x="231" y="95.9609"/><text fill="#000000" font-family="sans-serif" font-size="14" lengthAdjust="spacing" textLength="106" x="238" y="117.4941">Single-Page App</text><rect fill="#E2E2F0" height="31.6094" rx="2.5" ry="2.5" style="stroke:#181818;stroke-width:0.5;" width="120" x="231" y="1236.3359"/><text fill="#000000" font-family="sans-serif" font-size="14" lengthAdjust="spacing" textLength="106" x="238" y="1257.8691">Single-Page App</text><rect fill="#E2E2F0" height="31.6094" rx="2.5" ry="2.5" style="stroke:#181818;stroke-width:0.5;" width="108" x="401" y="95.9609"/><text fill="#000000" font-family="sans-serif" font-size="14" lengthAdjust="spacing" textLength="94" x="408" y="117.4941">API Application</text><rect fill="#E2E2F0" height="31.6094" rx="2.5" ry="2.5" style="stroke:#181818;stroke-width:0.5;" width="108" x="401" y="1236.3359"/><text fill="#000000" font-family="sans-serif" font-size="14" lengthAdjust="spacing" textLength="94" x="408" y="1257.8691">API Application</text><text fill="#000000" font-family="sans-serif" font-size="14" lengthAdjust="spacing" textLength="61" x="549.5" y="125.4941">Database</text><path d="M565,74.9609 C565,64.9609 583,64.9609 583,64.9609 C583,64.9609 601,64.9609 601,74.9609 L601,100.9609 C601,110.9609 583,110.9609 583,110.9609 C583,110.9609 565,110.9609 565,100.9609 L565,74.9609 " fill="#E2E2F0" style="stroke:#181818;stroke-width:1.5;"/><path d="M565,74.9609 C565,84.9609 583,84.9609 583,84.9609 C583,84.9609 601,84.9609 601,74.9609 " fill="none" style="stroke:#181818;stroke-width:1.5;"/><text fill="#000000" font-family="sans-serif" font-size="14" lengthAdjust="spacing" textLength="61" x="549.5" y="1250.8691">Database</text><path d="M565,1263.9453 C565,1253.9453 583,1253.9453 583,1253.9453 C583,1253.9453 601,1253.9453 601,1263.9453 L601,1289.9453 C601,1299.9453 583,1299.9453 583,1299.9453 C583,1299.9453 565,1299.9453 565,1289.9453 L565,1263.9453 " fill="#E2E2F0" style="stroke:#181818;stroke-width:1.5;"/><path d="M565,1263.9453 C565,1273.9453 583,1273.9453 583,1273.9453 C583,1273.9453 601,1273.9453 601,1263.9453 " fill="none" style="stroke:#181818;stroke-width:1.5;"/><rect fill="#E2E2F0" height="31.6094" rx="2.5" ry="2.5" style="stroke:#181818;stroke-width:0.5;" width="185" x="626.5" y="95.9609"/><text fill="#000000" font-family="sans-serif" font-size="14" lengthAdjust="spacing" textLength="171" x="633.5" y="117.4941">Mainframe Banking System</text><rect fill="#E2E2F0" height="31.6094" rx="2.5" ry="2.5" style="stroke:#181818;stroke-width:0.5;" width="185" x="626.5" y="1236.3359"/><text fill="#000000" font-family="sans-serif" font-size="14" lengthAdjust="spacing" textLength="171" x="633.5" y="1257.8691">Mainframe Banking System</text><rect fill="#E2E2F0" height="31.6094" rx="2.5" ry="2.5" style="stroke:#181818;stroke-width:0.5;" width="103" x="821.5" y="95.9609"/><text fill="#000000" font-family="sans-serif" font-size="14" lengthAdjust="spacing" textLength="89" x="828.5" y="117.4941">E-Mail System</text><rect fill="#E2E2F0" height="31.6094" rx="2.5" ry="2.5" style="stroke:#181818;stroke-width:0.5;" width="103" x="821.5" y="1236.3359"/><text fill="#000000" font-family="sans-serif" font-size="14" lengthAdjust="spacing" textLength="89" x="828.5" y="1257.8691">E-Mail System</text><path d="M10,145.5703 L293,145.5703 L293,153.9219 L283,163.9219 L10,163.9219 L10,145.5703 " fill="#EEEEEE" style="stroke:#000000;stroke-width:1.5;"/><rect fill="none" height="144.1094" style="stroke:#000000;stroke-width:1.5;" width="361" x="10" y="145.5703"/><text fill="#000000" font-family="sans-serif" font-size="13" font-weight="bold" lengthAdjust="spacing" textLength="238" x="25" y="160.0654">Customer - Go to Online Banking URL</text><polygon fill="#181818" points="151,198.625,161,202.625,151,206.625,155,202.625" style="stroke:#181818;stroke-width:1.0;"/><line style="stroke:#181818;stroke-width:1.0;" x1="57.5" x2="157" y1="202.625" y2="202.625"/><text fill="#000000" font-family="sans-serif" font-size="13" lengthAdjust="spacing" textLength="49" x="64.5" y="181.417">Navigate</text><text fill="#000000" font-family="sans-serif" font-size="13" lengthAdjust="spacing" textLength="49" x="64.5" y="197.7686">[HTTPS]</text><path d="M95,217.625 L196,217.625 L196,225.9766 L186,235.9766 L95,235.9766 L95,217.625 " fill="#EEEEEE" style="stroke:#000000;stroke-width:1.5;"/><rect fill="none" height="65.0547" style="stroke:#000000;stroke-width:1.5;" width="266" x="95" y="217.625"/><text fill="#000000" font-family="sans-serif" font-size="13" font-weight="bold" lengthAdjust="spacing" textLength="56" x="110" y="232.1201">Navigate</text><polygon fill="#181818" points="279,270.6797,289,274.6797,279,278.6797,283,274.6797" style="stroke:#181818;stroke-width:1.0;"/><line style="stroke:#181818;stroke-width:1.0;" x1="163" x2="285" y1="274.6797" y2="274.6797"/><text fill="#000000" font-family="sans-serif" font-size="13" lengthAdjust="spacing" textLength="87" x="170" y="253.4717">Load And Start</text><text fill="#000000" font-family="sans-serif" font-size="13" lengthAdjust="spacing" textLength="49" x="170" y="269.8232">[HTTPS]</text><path d="M10,303.6797 L314,303.6797 L314,312.0313 L304,322.0313 L10,322.0313 L10,303.6797 " fill="#EEEEEE" style="stroke:#000000;stroke-width:1.5;"/><rect fill="none" height="553.7344" style="stroke:#000000;stroke-width:1.5;" width="831.5" x="10" y="303.6797"/><text fill="#000000" font-family="sans-serif" font-size="13" font-weight="bold" lengthAdjust="spacing" textLength="259" x="25" y="318.1748">Customer - Sign In and View Home Page</text><polygon fill="#181818" points="279,356.7344,289,360.7344,279,364.7344,283,360.7344" style="stroke:#181818;stroke-width:1.0;"/><line style="stroke:#181818;stroke-width:1.0;" x1="57.5" x2="285" y1="360.7344" y2="360.7344"/><text fill="#000000" font-family="sans-serif" font-size="13" lengthAdjust="spacing" textLength="40" x="64.5" y="339.5264">Sign In</text><text fill="#000000" font-family="sans-serif" font-size="13" lengthAdjust="spacing" textLength="49" x="64.5" y="355.8779">[HTTPS]</text><path d="M221,375.7344 L311,375.7344 L311,384.0859 L301,394.0859 L221,394.0859 L221,375.7344 " fill="#EEEEEE" style="stroke:#000000;stroke-width:1.5;"/><rect fill="none" height="144.1094" style="stroke:#000000;stroke-width:1.5;" width="415.5" x="221" y="375.7344"/><text fill="#000000" font-family="sans-serif" font-size="13" font-weight="bold" lengthAdjust="spacing" textLength="45" x="236" y="390.2295">Sign In</text><polygon fill="#181818" points="443,428.7891,453,432.7891,443,436.7891,447,432.7891" style="stroke:#181818;stroke-width:1.0;"/><line style="stroke:#181818;stroke-width:1.0;" x1="291" x2="449" y1="432.7891" y2="432.7891"/><text fill="#000000" font-family="sans-serif" font-size="13" lengthAdjust="spacing" textLength="40" x="298" y="411.5811">Sign In</text><text fill="#000000" font-family="sans-serif" font-size="13" lengthAdjust="spacing" textLength="49" x="298" y="427.9326">[HTTPS]</text><path d="M391,447.7891 L481,447.7891 L481,456.1406 L471,466.1406 L391,466.1406 L391,447.7891 " fill="#EEEEEE" style="stroke:#000000;stroke-width:1.5;"/><rect fill="none" height="65.0547" style="stroke:#000000;stroke-width:1.5;" width="235.5" x="391" y="447.7891"/><text fill="#000000" font-family="sans-serif" font-size="13" font-weight="bold" lengthAdjust="spacing" textLength="45" x="406" y="462.2842">Sign In</text><polygon fill="#181818" points="571,500.8438,581,504.8438,571,508.8438,575,504.8438" style="stroke:#181818;stroke-width:1.0;"/><line style="stroke:#181818;stroke-width:1.0;" x1="455" x2="577" y1="504.8438" y2="504.8438"/><text fill="#000000" font-family="sans-serif" font-size="13" lengthAdjust="spacing" textLength="104" x="462" y="483.6357">Authenticate User</text><text fill="#000000" font-family="sans-serif" font-size="13" lengthAdjust="spacing" textLength="83" x="462" y="499.9873">[TCP/IP, SQL]</text><polygon fill="#181818" points="279,561.5469,289,565.5469,279,569.5469,283,565.5469" style="stroke:#181818;stroke-width:1.0;"/><line style="stroke:#181818;stroke-width:1.0;" x1="57.5" x2="285" y1="565.5469" y2="565.5469"/><text fill="#000000" font-family="sans-serif" font-size="13" lengthAdjust="spacing" textLength="132" x="64.5" y="544.3389">View Customer Details</text><text fill="#000000" font-family="sans-serif" font-size="13" lengthAdjust="spacing" textLength="49" x="64.5" y="560.6904">[HTTPS]</text><path d="M221,580.5469 L409,580.5469 L409,588.8984 L399,598.8984 L221,598.8984 L221,580.5469 " fill="#EEEEEE" style="stroke:#000000;stroke-width:1.5;"/><rect fill="none" height="269.8672" style="stroke:#000000;stroke-width:1.5;" width="610.5" x="221" y="580.5469"/><text fill="#000000" font-family="sans-serif" font-size="13" font-weight="bold" lengthAdjust="spacing" textLength="143" x="236" y="595.042">View Customer Details</text><polygon fill="#181818" points="443,633.6016,453,637.6016,443,641.6016,447,637.6016" style="stroke:#181818;stroke-width:1.0;"/><line style="stroke:#181818;stroke-width:1.0;" x1="291" x2="449" y1="637.6016" y2="637.6016"/><text fill="#000000" font-family="sans-serif" font-size="13" lengthAdjust="spacing" textLength="81" x="298" y="616.3936">Get Customer</text><text fill="#000000" font-family="sans-serif" font-size="13" lengthAdjust="spacing" textLength="49" x="298" y="632.7451">[HTTPS]</text><path d="M391,652.6016 L522,652.6016 L522,660.9531 L512,670.9531 L391,670.9531 L391,652.6016 " fill="#EEEEEE" style="stroke:#000000;stroke-width:1.5;"/><rect fill="none" height="65.0547" style="stroke:#000000;stroke-width:1.5;" width="430.5" x="391" y="652.6016"/><text fill="#000000" font-family="sans-serif" font-size="13" font-weight="bold" lengthAdjust="spacing" textLength="86" x="406" y="667.0967">Get Customer</text><polygon fill="#181818" points="707,705.6563,717,709.6563,707,713.6563,711,709.6563" style="stroke:#181818;stroke-width:1.0;"/><line style="stroke:#181818;stroke-width:1.0;" x1="455" x2="713" y1="709.6563" y2="709.6563"/><text fill="#000000" font-family="sans-serif" font-size="13" lengthAdjust="spacing" textLength="81" x="462" y="688.4482">Get Customer</text><text fill="#000000" font-family="sans-serif" font-size="13" lengthAdjust="spacing" textLength="49" x="462" y="704.7998">[TCP/IP]</text><polygon fill="#181818" points="443,759.3594,453,763.3594,443,767.3594,447,763.3594" style="stroke:#181818;stroke-width:1.0;"/><line style="stroke:#181818;stroke-width:1.0;" x1="291" x2="449" y1="763.3594" y2="763.3594"/><text fill="#000000" font-family="sans-serif" font-size="13" lengthAdjust="spacing" textLength="140" x="298" y="742.1514">Get Customer Accounts</text><text fill="#000000" font-family="sans-serif" font-size="13" lengthAdjust="spacing" textLength="49" x="298" y="758.5029">[HTTPS]</text><path d="M391,778.3594 L583,778.3594 L583,786.7109 L573,796.7109 L391,796.7109 L391,778.3594 " fill="#EEEEEE" style="stroke:#000000;stroke-width:1.5;"/><rect fill="none" height="65.0547" style="stroke:#000000;stroke-width:1.5;" width="430.5" x="391" y="778.3594"/><text fill="#000000" font-family="sans-serif" font-size="13" font-weight="bold" lengthAdjust="spacing" textLength="147" x="406" y="792.8545">Get Customer Accounts</text><polygon fill="#181818" points="707,831.4141,717,835.4141,707,839.4141,711,835.4141" style="stroke:#181818;stroke-width:1.0;"/><line style="stroke:#181818;stroke-width:1.0;" x1="455" x2="713" y1="835.4141" y2="835.4141"/><text fill="#000000" font-family="sans-serif" font-size="13" lengthAdjust="spacing" textLength="140" x="462" y="814.2061">Get Customer Accounts</text><text fill="#000000" font-family="sans-serif" font-size="13" lengthAdjust="spacing" textLength="49" x="462" y="830.5576">[TCP/IP]</text><path d="M10,871.4141 L256,871.4141 L256,879.7656 L246,889.7656 L10,889.7656 L10,871.4141 " fill="#EEEEEE" style="stroke:#000000;stroke-width:1.5;"/><rect fill="none" height="269.8672" style="stroke:#000000;stroke-width:1.5;" width="944.5" x="10" y="871.4141"/><text fill="#000000" font-family="sans-serif" font-size="13" font-weight="bold" lengthAdjust="spacing" textLength="201" x="25" y="885.9092">Customer - Create New Account</text><polygon fill="#181818" points="279,924.4688,289,928.4688,279,932.4688,283,928.4688" style="stroke:#181818;stroke-width:1.0;"/><line style="stroke:#181818;stroke-width:1.0;" x1="57.5" x2="285" y1="928.4688" y2="928.4688"/><text fill="#000000" font-family="sans-serif" font-size="13" lengthAdjust="spacing" textLength="90" x="64.5" y="907.2607">Create Account</text><text fill="#000000" font-family="sans-serif" font-size="13" lengthAdjust="spacing" textLength="49" x="64.5" y="923.6123">[HTTPS]</text><path d="M221,943.4688 L363,943.4688 L363,951.8203 L353,961.8203 L221,961.8203 L221,943.4688 " fill="#EEEEEE" style="stroke:#000000;stroke-width:1.5;"/><rect fill="none" height="190.8125" style="stroke:#000000;stroke-width:1.5;" width="723.5" x="221" y="943.4688"/><text fill="#000000" font-family="sans-serif" font-size="13" font-weight="bold" lengthAdjust="spacing" textLength="97" x="236" y="957.9639">Create Account</text><polygon fill="#181818" points="443,996.5234,453,1000.5234,443,1004.5234,447,1000.5234" style="stroke:#181818;stroke-width:1.0;"/><line style="stroke:#181818;stroke-width:1.0;" x1="291" x2="449" y1="1000.5234" y2="1000.5234"/><text fill="#000000" font-family="sans-serif" font-size="13" lengthAdjust="spacing" textLength="90" x="298" y="979.3154">Create Account</text><text fill="#000000" font-family="sans-serif" font-size="13" lengthAdjust="spacing" textLength="49" x="298" y="995.667">[HTTPS]</text><path d="M391,1015.5234 L533,1015.5234 L533,1023.875 L523,1033.875 L391,1033.875 L391,1015.5234 " fill="#EEEEEE" style="stroke:#000000;stroke-width:1.5;"/><rect fill="none" height="111.7578" style="stroke:#000000;stroke-width:1.5;" width="543.5" x="391" y="1015.5234"/><text fill="#000000" font-family="sans-serif" font-size="13" font-weight="bold" lengthAdjust="spacing" textLength="97" x="406" y="1030.0186">Create Account</text><polygon fill="#181818" points="707,1068.5781,717,1072.5781,707,1076.5781,711,1072.5781" style="stroke:#181818;stroke-width:1.0;"/><line style="stroke:#181818;stroke-width:1.0;" x1="455" x2="713" y1="1072.5781" y2="1072.5781"/><text fill="#000000" font-family="sans-serif" font-size="13" lengthAdjust="spacing" textLength="90" x="462" y="1051.3701">Create Account</text><text fill="#000000" font-family="sans-serif" font-size="13" lengthAdjust="spacing" textLength="49" x="462" y="1067.7217">[TCP/IP]</text><polygon fill="#181818" points="861,1115.2813,871,1119.2813,861,1123.2813,865,1119.2813" style="stroke:#181818;stroke-width:1.0;"/><line style="stroke:#181818;stroke-width:1.0;" x1="455" x2="867" y1="1119.2813" y2="1119.2813"/><text fill="#000000" font-family="sans-serif" font-size="13" lengthAdjust="spacing" textLength="269" x="462" y="1098.0732">Send New Account Created Notification E-Mail</text><text fill="#000000" font-family="sans-serif" font-size="13" lengthAdjust="spacing" textLength="44" x="462" y="1114.4248">[SMTP]</text><path d="M10,1155.2813 L438,1155.2813 L438,1163.6328 L428,1173.6328 L10,1173.6328 L10,1155.2813 " fill="#EEEEEE" style="stroke:#000000;stroke-width:1.5;"/><rect fill="none" height="65.0547" style="stroke:#000000;stroke-width:1.5;" width="924.5" x="10" y="1155.2813"/><text fill="#000000" font-family="sans-serif" font-size="13" font-weight="bold" lengthAdjust="spacing" textLength="383" x="25" y="1169.7764">Customer - Receive New Account Created Notification E-Mail</text><polygon fill="#181818" points="861,1208.3359,871,1212.3359,861,1216.3359,865,1212.3359" style="stroke:#181818;stroke-width:1.0;"/><line style="stroke:#181818;stroke-width:1.0;" x1="57.5" x2="867" y1="1212.3359" y2="1212.3359"/><text fill="#000000" font-family="sans-serif" font-size="13" lengthAdjust="spacing" textLength="284" x="64.5" y="1191.1279">Receive New Account Created Notification E-Mail</text><text fill="#000000" font-family="sans-serif" font-size="13" lengthAdjust="spacing" textLength="43" x="64.5" y="1207.4795">[POP3]</text><!--SRC=[pLTDKzim4BthL-ouryOzzDP3PqnW83C1N1pAWN9Gd8tHr95SMGxjl-ygjem_eD1WFF5CPZpIwhstkq-oOeH94Ov40aTS_eGmZM42KutS85pW0mHnh0ffQ332NmNA6EsyaeOBYHfIt6BAMCQr4R78E4Lwqo8tQeFQ0vvRP0jCk7uG6wLptqqpjbI_mPj9WrgYsV4BcNZmuUPU66H0Jmlt1fSGP5agOcw4abtuIAtD0zSO_SaDRdBV0LUuVYqwzmcf0THdYYW-nKd84xICRs0gaImGuVI9Wd0sK4g4r4rfnGrVyXp1EwxUte3l81ZA5L3ZEZq_fx2rvXjqROGIyoN6Ubsrh1nlOvzCA2fz9U29ZQrGMA9LaO4p71dtL85HS2bJIgfMUdqrPy_R52PV1t4PV84BlXK9RQmVylPiiGYZkqgW6sU3yEojj-LLaZjNV0K1jJior8v7qUI0tQzNtKWa4cOIEAtvBkZmEAC9i83lKj-kteg-Mzrgc0r1ihVMzlPyBx4TbhtLkirEEeF2tACq5XBXEaTDYXVJyDCi_0ZHj_cZ6yReyCvKDUmnKboQTqluPD21TV-KldTEObT_SsuC7pnz1FT5bbs_wpRxmAhfBYpvlyfQ1nrCVPkocuL-zgpjNz56sO4LRKNPhN5xzi1SCeBqONpH4-eCCOAenlN9VgJiPQ_vBw2KHcFAYBL3BEzdf3CwNxnasokCKMpnjQ3xUxgTo7_IKYxXPVYvp8Nz1G00]--></g></svg>