<?xml version="1.0" encoding="us-ascii" standalone="no"?><svg xmlns="http://www.w3.org/2000/svg" xmlns:xlink="http://www.w3.org/1999/xlink" contentStyleType="text/css" height="377px" preserveAspectRatio="none" style="width:591px;height:377px;background:#FFFFFF;" version="1.1" viewBox="0 0 591 377" width="591px" zoomAndPan="magnify"><defs/><g><text fill="#000000" font-family="sans-serif" font-size="14" font-weight="bold" lengthAdjust="spacing" textLength="437" x="78.5" y="29.5332">Storefront App - Search Products - Sequence - Container level</text><rect fill="#FFFFFF" height="327.0313" style="stroke:#181818;stroke-width:0.5;" width="179.5" x="379.5" y="44.6094"/><text fill="#000000" font-family="sans-serif" font-size="13" font-weight="bold" lengthAdjust="spacing" textLength="97" x="420.75" y="58.1045">Search Service</text><rect fill="none" height="174.1094" style="stroke:#000000;stroke-width:1.5;" width="489.5" x="95.5" y="144.9219"/><rect fill="none" height="111.4063" style="stroke:#000000;stroke-width:1.5;" width="354.5" x="220.5" y="200.625"/><rect fill="none" height="48.7031" style="stroke:#000000;stroke-width:1.5;" width="191.5" x="373.5" y="256.3281"/><line style="stroke:#181818;stroke-width:0.5;stroke-dasharray:5.0,5.0;" x1="37" x2="37" y1="97.5703" y2="336.0313"/><line style="stroke:#181818;stroke-width:0.5;stroke-dasharray:5.0,5.0;" x1="158.5" x2="158.5" y1="97.5703" y2="336.0313"/><line style="stroke:#181818;stroke-width:0.5;stroke-dasharray:5.0,5.0;" x1="279.5" x2="279.5" y1="97.5703" y2="336.0313"/><line style="stroke:#181818;stroke-width:0.5;stroke-dasharray:5.0,5.0;" x1="400.5" x2="400.5" y1="97.5703" y2="336.0313"/><line style="stroke:#181818;stroke-width:0.5;stroke-dasharray:5.0,5.0;" x1="517" x2="517" y1="97.5703" y2="336.0313"/><rect fill="#E2E2F0" height="31.6094" rx="2.5" ry="2.5" style="stroke:#181818;stroke-width:0.5;" width="65" x="5" y="64.9609"/><text fill="#000000" font-family="sans-serif" font-size="14" lengthAdjust="spacing" textLength="51" x="12" y="86.4941">External</text><rect fill="#E2E2F0" height="31.6094" rx="2.5" ry="2.5" style="stroke:#181818;stroke-width:0.5;" width="65" x="5" y="335.0313"/><text fill="#000000" font-family="sans-serif" font-size="14" lengthAdjust="spacing" textLength="51" x="12" y="356.5645">External</text><rect fill="#E2E2F0" height="31.6094" rx="2.5" ry="2.5" style="stroke:#181818;stroke-width:0.5;" width="106" x="105.5" y="64.9609"/><text fill="#000000" font-family="sans-serif" font-size="14" lengthAdjust="spacing" textLength="92" x="112.5" y="86.4941">Storefront App</text><rect fill="#E2E2F0" height="31.6094" rx="2.5" ry="2.5" style="stroke:#181818;stroke-width:0.5;" width="106" x="105.5" y="335.0313"/><text fill="#000000" font-family="sans-serif" font-size="14" lengthAdjust="spacing" textLength="92" x="112.5" y="356.5645">Storefront App</text><rect fill="#E2E2F0" height="31.6094" rx="2.5" ry="2.5" style="stroke:#181818;stroke-width:0.5;" width="98" x="230.5" y="64.9609"/><text fill="#000000" font-family="sans-serif" font-size="14" lengthAdjust="spacing" textLength="84" x="237.5" y="86.4941">Storefront Bff</text><rect fill="#E2E2F0" height="31.6094" rx="2.5" ry="2.5" style="stroke:#181818;stroke-width:0.5;" width="98" x="230.5" y="335.0313"/><text fill="#000000" font-family="sans-serif" font-size="14" lengthAdjust="spacing" textLength="84" x="237.5" y="356.5645">Storefront Bff</text><rect fill="#E2E2F0" height="31.6094" rx="2.5" ry="2.5" style="stroke:#181818;stroke-width:0.5;" width="34" x="383.5" y="64.9609"/><text fill="#000000" font-family="sans-serif" font-size="14" lengthAdjust="spacing" textLength="20" x="390.5" y="86.4941">Api</text><rect fill="#E2E2F0" height="31.6094" rx="2.5" ry="2.5" style="stroke:#181818;stroke-width:0.5;" width="34" x="383.5" y="335.0313"/><text fill="#000000" font-family="sans-serif" font-size="14" lengthAdjust="spacing" textLength="20" x="390.5" y="356.5645">Api</text><rect fill="#E2E2F0" height="31.6094" rx="2.5" ry="2.5" style="stroke:#181818;stroke-width:0.5;" width="75" x="480" y="64.9609"/><text fill="#000000" font-family="sans-serif" font-size="14" lengthAdjust="spacing" textLength="61" x="487" y="86.4941">Database</text><rect fill="#E2E2F0" height="31.6094" rx="2.5" ry="2.5" style="stroke:#181818;stroke-width:0.5;" width="75" x="480" y="335.0313"/><text fill="#000000" font-family="sans-serif" font-size="14" lengthAdjust="spacing" textLength="61" x="487" y="356.5645">Database</text><polygon fill="#181818" points="146.5,125.9219,156.5,129.9219,146.5,133.9219,150.5,129.9219" style="stroke:#181818;stroke-width:1.0;"/><line style="stroke:#181818;stroke-width:1.0;" x1="37.5" x2="152.5" y1="129.9219" y2="129.9219"/><text fill="#000000" font-family="sans-serif" font-size="13" lengthAdjust="spacing" textLength="97" x="44.5" y="125.0654">Search Products</text><path d="M95.5,144.9219 L244.5,144.9219 L244.5,153.2734 L234.5,163.2734 L95.5,163.2734 L95.5,144.9219 " fill="#EEEEEE" style="stroke:#000000;stroke-width:1.5;"/><rect fill="none" height="174.1094" style="stroke:#000000;stroke-width:1.5;" width="489.5" x="95.5" y="144.9219"/><text fill="#000000" font-family="sans-serif" font-size="13" font-weight="bold" lengthAdjust="spacing" textLength="104" x="110.5" y="159.417">Search Products</text><polygon fill="#181818" points="267.5,181.625,277.5,185.625,267.5,189.625,271.5,185.625" style="stroke:#181818;stroke-width:1.0;"/><line style="stroke:#181818;stroke-width:1.0;" x1="158.5" x2="273.5" y1="185.625" y2="185.625"/><text fill="#000000" font-family="sans-serif" font-size="13" lengthAdjust="spacing" textLength="97" x="165.5" y="180.7686">Search Products</text><path d="M220.5,200.625 L369.5,200.625 L369.5,208.9766 L359.5,218.9766 L220.5,218.9766 L220.5,200.625 " fill="#EEEEEE" style="stroke:#000000;stroke-width:1.5;"/><rect fill="none" height="111.4063" style="stroke:#000000;stroke-width:1.5;" width="354.5" x="220.5" y="200.625"/><text fill="#000000" font-family="sans-serif" font-size="13" font-weight="bold" lengthAdjust="spacing" textLength="104" x="235.5" y="215.1201">Search Products</text><polygon fill="#181818" points="388.5,237.3281,398.5,241.3281,388.5,245.3281,392.5,241.3281" style="stroke:#181818;stroke-width:1.0;"/><line style="stroke:#181818;stroke-width:1.0;" x1="279.5" x2="394.5" y1="241.3281" y2="241.3281"/><text fill="#000000" font-family="sans-serif" font-size="13" lengthAdjust="spacing" textLength="97" x="286.5" y="236.4717">Search Products</text><path d="M373.5,256.3281 L522.5,256.3281 L522.5,264.6797 L512.5,274.6797 L373.5,274.6797 L373.5,256.3281 " fill="#EEEEEE" style="stroke:#000000;stroke-width:1.5;"/><rect fill="none" height="48.7031" style="stroke:#000000;stroke-width:1.5;" width="191.5" x="373.5" y="256.3281"/><text fill="#000000" font-family="sans-serif" font-size="13" font-weight="bold" lengthAdjust="spacing" textLength="104" x="388.5" y="270.8232">Search Products</text><polygon fill="#181818" points="505.5,293.0313,515.5,297.0313,505.5,301.0313,509.5,297.0313" style="stroke:#181818;stroke-width:1.0;"/><line style="stroke:#181818;stroke-width:1.0;" x1="400.5" x2="511.5" y1="297.0313" y2="297.0313"/><text fill="#000000" font-family="sans-serif" font-size="13" lengthAdjust="spacing" textLength="93" x="407.5" y="292.1748">Select Products</text><!--SRC=[jP9DJyCm38Rl_XLcdDSJ9mv8emo9swGUE7kPkqLAa-2u-_ZtX8vk6XFJga6aIB5bFtvZ-ouABHj2HxlGAgQ6bJm1g5N7M6aGhYLunKcCECQAISmAPn8MhT7KUJvQzeRpiynnP3qBEbwp0uWaQesDbFD7qwsoU78Zf8JbmvlFvgiBcw8AjMv8kDebvIOLVU3UFeMS2kfGqp8q3OlXcIEjWpHdm6DIplcLzrpNWtav1s0UjXcqRqp5ihQ6HtZ_lhBAWFcS59n4UssLZlWDB0wzJKL6d7DVI6bEYM-5znnWly3yCm2uVbOuVXew3dpykLEmbD36C-zGxa0fUPB_8kMBUvsK2-F-IsMNojmcj5-TJgrZeqTTUPaE5pu1]--></g></svg>