<?xml version="1.0" encoding="us-ascii" standalone="no"?><svg xmlns="http://www.w3.org/2000/svg" xmlns:xlink="http://www.w3.org/1999/xlink" contentStyleType="text/css" height="274px" preserveAspectRatio="none" style="width:664px;height:274px;background:#FFFFFF;" version="1.1" viewBox="0 0 664 274" width="664px" zoomAndPan="magnify"><defs/><g><text fill="#000000" font-family="sans-serif" font-size="14" font-weight="bold" lengthAdjust="spacing" textLength="636" x="10" y="29.5332">Trader X Example - TraderX - TraderX DB - Save Position State - Sequence - Container level</text><rect fill="#FFFFFF" height="217.2734" style="stroke:#181818;stroke-width:0.5;" width="88" x="349.75" y="44.6094"/><text fill="#000000" font-family="sans-serif" font-size="13" font-weight="bold" lengthAdjust="spacing" textLength="51" x="368.25" y="58.1045">TraderX</text><line style="stroke:#181818;stroke-width:0.5;stroke-dasharray:5.0,5.0;" x1="255.25" x2="255.25" y1="128.5703" y2="195.2734"/><line style="stroke:#181818;stroke-width:0.5;stroke-dasharray:5.0,5.0;" x1="393.75" x2="393.75" y1="128.5703" y2="195.2734"/><rect fill="#E2E2F0" height="31.6094" rx="2.5" ry="2.5" style="stroke:#181818;stroke-width:0.5;" width="65" x="223.25" y="95.9609"/><text fill="#000000" font-family="sans-serif" font-size="14" lengthAdjust="spacing" textLength="51" x="230.25" y="117.4941">External</text><rect fill="#E2E2F0" height="31.6094" rx="2.5" ry="2.5" style="stroke:#181818;stroke-width:0.5;" width="65" x="223.25" y="194.2734"/><text fill="#000000" font-family="sans-serif" font-size="14" lengthAdjust="spacing" textLength="51" x="230.25" y="215.8066">External</text><text fill="#000000" font-family="sans-serif" font-size="14" lengthAdjust="spacing" textLength="74" x="353.75" y="125.4941">TraderX DB</text><path d="M375.75,74.9609 C375.75,64.9609 393.75,64.9609 393.75,64.9609 C393.75,64.9609 411.75,64.9609 411.75,74.9609 L411.75,100.9609 C411.75,110.9609 393.75,110.9609 393.75,110.9609 C393.75,110.9609 375.75,110.9609 375.75,100.9609 L375.75,74.9609 " fill="#E2E2F0" style="stroke:#181818;stroke-width:1.5;"/><path d="M375.75,74.9609 C375.75,84.9609 393.75,84.9609 393.75,84.9609 C393.75,84.9609 411.75,84.9609 411.75,74.9609 " fill="none" style="stroke:#181818;stroke-width:1.5;"/><text fill="#000000" font-family="sans-serif" font-size="14" lengthAdjust="spacing" textLength="74" x="353.75" y="208.8066">TraderX DB</text><path d="M375.75,221.8828 C375.75,211.8828 393.75,211.8828 393.75,211.8828 C393.75,211.8828 411.75,211.8828 411.75,221.8828 L411.75,247.8828 C411.75,257.8828 393.75,257.8828 393.75,257.8828 C393.75,257.8828 375.75,257.8828 375.75,247.8828 L375.75,221.8828 " fill="#E2E2F0" style="stroke:#181818;stroke-width:1.5;"/><path d="M375.75,221.8828 C375.75,231.8828 393.75,231.8828 393.75,231.8828 C393.75,231.8828 411.75,231.8828 411.75,221.8828 " fill="none" style="stroke:#181818;stroke-width:1.5;"/><polygon fill="#181818" points="381.75,173.2734,391.75,177.2734,381.75,181.2734,385.75,177.2734" style="stroke:#181818;stroke-width:1.0;"/><line style="stroke:#181818;stroke-width:1.0;" x1="255.75" x2="387.75" y1="177.2734" y2="177.2734"/><text fill="#000000" font-family="sans-serif" font-size="13" lengthAdjust="spacing" textLength="114" x="262.75" y="156.0654">Save Position State</text><text fill="#000000" font-family="sans-serif" font-size="13" lengthAdjust="spacing" textLength="41" x="262.75" y="172.417">[JDBC]</text><!--SRC=[fL2nRi903Dtz5LQOoTIf0qCIAfMfqY61L1WCSTMJ3b-uCv3-FGUzHaWm8DNJUy-MtxFLgcES1sevu1AdFUsw98opjBn1JPM8eIFZXuzMhHSqIdePDhm_i6mliFQYP2LjStna1z1HKBkr7ObYCUsLWv0ha2BMB- -Iw9lpfzBuBprHOFCJbNUn_1lyvG0RtsEHanGuMdnRPS1KBIbjAFBGJJclspFD5zqPv7Ovv1safWAM5fCZ03oV4SUJ_tZYwwFVhkHprbJr6k0C]--></g></svg>