<?xml version="1.0" encoding="us-ascii" standalone="no"?><svg xmlns="http://www.w3.org/2000/svg" xmlns:xlink="http://www.w3.org/1999/xlink" contentStyleType="text/css" height="414px" preserveAspectRatio="none" style="width:683px;height:414px;background:#FFFFFF;" version="1.1" viewBox="0 0 683 414" width="683px" zoomAndPan="magnify"><defs/><g><text fill="#000000" font-family="sans-serif" font-size="14" font-weight="bold" lengthAdjust="spacing" textLength="655" x="10" y="29.5332">DotNetEShop - Catalog Api - Api - Catalog Api - Get Items By Ids - Sequence - Component level</text><rect fill="#FFFFFF" height="364.0313" style="stroke:#181818;stroke-width:0.5;" width="95" x="237.5" y="44.6094"/><text fill="#000000" font-family="sans-serif" font-size="13" font-weight="bold" lengthAdjust="spacing" textLength="21" x="274.5" y="58.1045">Api</text><rect fill="#FFFFFF" height="364.0313" style="stroke:#181818;stroke-width:0.5;" width="123" x="411.5" y="44.6094"/><text fill="#000000" font-family="sans-serif" font-size="13" font-weight="bold" lengthAdjust="spacing" textLength="84" x="431" y="58.1045">Infrastructure</text><rect fill="none" height="211.1094" style="stroke:#000000;stroke-width:1.5;" width="319" x="221.5" y="144.9219"/><rect fill="none" height="61.7031" style="stroke:#000000;stroke-width:1.5;" width="202" x="231.5" y="243.9766"/><line style="stroke:#181818;stroke-width:0.5;stroke-dasharray:5.0,5.0;" x1="162.5" x2="162.5" y1="97.5703" y2="373.0313"/><line style="stroke:#181818;stroke-width:0.5;stroke-dasharray:5.0,5.0;" x1="284.5" x2="284.5" y1="97.5703" y2="373.0313"/><line style="stroke:#181818;stroke-width:0.5;stroke-dasharray:5.0,5.0;" x1="472.5" x2="472.5" y1="97.5703" y2="373.0313"/><rect fill="#E2E2F0" height="31.6094" rx="2.5" ry="2.5" style="stroke:#181818;stroke-width:0.5;" width="65" x="130.5" y="64.9609"/><text fill="#000000" font-family="sans-serif" font-size="14" lengthAdjust="spacing" textLength="51" x="137.5" y="86.4941">External</text><rect fill="#E2E2F0" height="31.6094" rx="2.5" ry="2.5" style="stroke:#181818;stroke-width:0.5;" width="65" x="130.5" y="372.0313"/><text fill="#000000" font-family="sans-serif" font-size="14" lengthAdjust="spacing" textLength="51" x="137.5" y="393.5645">External</text><rect fill="#E2E2F0" height="31.6094" rx="2.5" ry="2.5" style="stroke:#181818;stroke-width:0.5;" width="87" x="241.5" y="64.9609"/><text fill="#000000" font-family="sans-serif" font-size="14" lengthAdjust="spacing" textLength="73" x="248.5" y="86.4941">Catalog Api</text><rect fill="#E2E2F0" height="31.6094" rx="2.5" ry="2.5" style="stroke:#181818;stroke-width:0.5;" width="87" x="241.5" y="372.0313"/><text fill="#000000" font-family="sans-serif" font-size="14" lengthAdjust="spacing" textLength="73" x="248.5" y="393.5645">Catalog Api</text><rect fill="#E2E2F0" height="31.6094" rx="2.5" ry="2.5" style="stroke:#181818;stroke-width:0.5;" width="115" x="415.5" y="64.9609"/><text fill="#000000" font-family="sans-serif" font-size="14" lengthAdjust="spacing" textLength="101" x="422.5" y="86.4941">Catalog Context</text><rect fill="#E2E2F0" height="31.6094" rx="2.5" ry="2.5" style="stroke:#181818;stroke-width:0.5;" width="115" x="415.5" y="372.0313"/><text fill="#000000" font-family="sans-serif" font-size="14" lengthAdjust="spacing" textLength="101" x="422.5" y="393.5645">Catalog Context</text><polygon fill="#181818" points="273,125.9219,283,129.9219,273,133.9219,277,129.9219" style="stroke:#181818;stroke-width:1.0;"/><line style="stroke:#181818;stroke-width:1.0;" x1="163" x2="279" y1="129.9219" y2="129.9219"/><text fill="#000000" font-family="sans-serif" font-size="13" lengthAdjust="spacing" textLength="98" x="170" y="125.0654">Get Items By Ids</text><path d="M221.5,144.9219 L368.5,144.9219 L368.5,153.2734 L358.5,163.2734 L221.5,163.2734 L221.5,144.9219 " fill="#EEEEEE" style="stroke:#000000;stroke-width:1.5;"/><rect fill="none" height="211.1094" style="stroke:#000000;stroke-width:1.5;" width="319" x="221.5" y="144.9219"/><text fill="#000000" font-family="sans-serif" font-size="13" font-weight="bold" lengthAdjust="spacing" textLength="102" x="236.5" y="159.417">Get Items By Ids</text><polygon fill="#181818" points="461,181.625,471,185.625,461,189.625,465,185.625" style="stroke:#181818;stroke-width:1.0;"/><line style="stroke:#181818;stroke-width:1.0;" x1="285" x2="467" y1="185.625" y2="185.625"/><text fill="#000000" font-family="sans-serif" font-size="13" lengthAdjust="spacing" textLength="164" x="292" y="180.7686">Catalog Items To List Async</text><line style="stroke:#181818;stroke-width:1.0;" x1="285" x2="327" y1="215.9766" y2="215.9766"/><line style="stroke:#181818;stroke-width:1.0;" x1="327" x2="327" y1="215.9766" y2="228.9766"/><line style="stroke:#181818;stroke-width:1.0;" x1="286" x2="327" y1="228.9766" y2="228.9766"/><polygon fill="#181818" points="296,224.9766,286,228.9766,296,232.9766,292,228.9766" style="stroke:#181818;stroke-width:1.0;"/><text fill="#000000" font-family="sans-serif" font-size="13" lengthAdjust="spacing" textLength="136" x="292" y="211.1201">Change Uri Placeholder</text><path d="M231.5,243.9766 L428.5,243.9766 L428.5,252.3281 L418.5,262.3281 L231.5,262.3281 L231.5,243.9766 " fill="#EEEEEE" style="stroke:#000000;stroke-width:1.5;"/><rect fill="none" height="61.7031" style="stroke:#000000;stroke-width:1.5;" width="202" x="231.5" y="243.9766"/><text fill="#000000" font-family="sans-serif" font-size="13" font-weight="bold" lengthAdjust="spacing" textLength="152" x="246.5" y="258.4717">Change Uri Placeholder</text><line style="stroke:#181818;stroke-width:1.0;" x1="285" x2="327" y1="284.6797" y2="284.6797"/><line style="stroke:#181818;stroke-width:1.0;" x1="327" x2="327" y1="284.6797" y2="297.6797"/><line style="stroke:#181818;stroke-width:1.0;" x1="286" x2="327" y1="297.6797" y2="297.6797"/><polygon fill="#181818" points="296,293.6797,286,297.6797,296,301.6797,292,297.6797" style="stroke:#181818;stroke-width:1.0;"/><text fill="#000000" font-family="sans-serif" font-size="13" lengthAdjust="spacing" textLength="82" x="292" y="279.8232">Return (items)</text><line style="stroke:#181818;stroke-width:1.0;" x1="285" x2="327" y1="335.0313" y2="335.0313"/><line style="stroke:#181818;stroke-width:1.0;" x1="327" x2="327" y1="335.0313" y2="348.0313"/><line style="stroke:#181818;stroke-width:1.0;" x1="286" x2="327" y1="348.0313" y2="348.0313"/><polygon fill="#181818" points="296,344.0313,286,348.0313,296,352.0313,292,348.0313" style="stroke:#181818;stroke-width:1.0;"/><text fill="#000000" font-family="sans-serif" font-size="13" lengthAdjust="spacing" textLength="150" x="292" y="330.1748">Return (TypedResults.Ok)</text><!--SRC=[rLAnJiCm5Dpz5KzXWQ6Pc1YGIYWe4WBK536Rv3MnS6rZlz3axt6K519IeAeg0Huil_FPT-Td4YGHBZNT8isIGXkOGCI9Ivt3r0XVjVCGkqQ2c73buAA6E7CUIl2bH9LYmzKhenKg0eclA1apt998XU4U2cOLeLLS1i0THAUnykMLrEimqKjQSuj9xPghmmsnhHbxqXK4FHy173qMWf217-tkPtGWF3ZgjNkXHzeTrrF3I2lYGg5rOLjsuVeaXYe3xu3rlCHgQRaZMwPKMlpPLgE35UrfRQYsnMLt_OVJzmNRlGamEJ_aiy7Pw2UntEhIZE53gkuLOjS7zfas7Mq3B3JS24SmTRLAVp_7Tys82gvoX0Shu5xo50ijCxHTIxxO_DE1vkYRfU1ODETFcY__F_mkQeFP75qfFUFkkNNEtW00]--></g></svg>