<?xml version="1.0" encoding="us-ascii" standalone="no"?><svg xmlns="http://www.w3.org/2000/svg" xmlns:xlink="http://www.w3.org/1999/xlink" contentStyleType="text/css" height="488px" preserveAspectRatio="none" style="width:925px;height:488px;background:#FFFFFF;" version="1.1" viewBox="0 0 925 488" width="925px" zoomAndPan="magnify"><defs/><g><text fill="#000000" font-family="sans-serif" font-size="14" font-weight="bold" lengthAdjust="spacing" textLength="897" x="10" y="29.5332">dotnet - eShop - Architecture - Basket Api - Data - Redis Basket Repository - Update Basket Async - Sequence - Component level</text><rect fill="#FFFFFF" height="437.7344" style="stroke:#181818;stroke-width:0.5;" width="363" x="314.5" y="44.6094"/><text fill="#000000" font-family="sans-serif" font-size="13" font-weight="bold" lengthAdjust="spacing" textLength="29" x="481.5" y="58.1045">Data</text><rect fill="none" height="284.8125" style="stroke:#000000;stroke-width:1.5;" width="395" x="298.5" y="144.9219"/><rect fill="none" height="135.4063" style="stroke:#000000;stroke-width:1.5;" width="375" x="308.5" y="287.3281"/><line style="stroke:#181818;stroke-width:0.5;stroke-dasharray:5.0,5.0;" x1="251.5" x2="251.5" y1="97.5703" y2="446.7344"/><line style="stroke:#181818;stroke-width:0.5;stroke-dasharray:5.0,5.0;" x1="402.5" x2="402.5" y1="97.5703" y2="446.7344"/><line style="stroke:#181818;stroke-width:0.5;stroke-dasharray:5.0,5.0;" x1="615.5" x2="615.5" y1="97.5703" y2="446.7344"/><rect fill="#E2E2F0" height="31.6094" rx="2.5" ry="2.5" style="stroke:#181818;stroke-width:0.5;" width="65" x="219.5" y="64.9609"/><text fill="#000000" font-family="sans-serif" font-size="14" lengthAdjust="spacing" textLength="51" x="226.5" y="86.4941">External</text><rect fill="#E2E2F0" height="31.6094" rx="2.5" ry="2.5" style="stroke:#181818;stroke-width:0.5;" width="65" x="219.5" y="445.7344"/><text fill="#000000" font-family="sans-serif" font-size="14" lengthAdjust="spacing" textLength="51" x="226.5" y="467.2676">External</text><rect fill="#E2E2F0" height="31.6094" rx="2.5" ry="2.5" style="stroke:#181818;stroke-width:0.5;" width="169" x="318.5" y="64.9609"/><text fill="#000000" font-family="sans-serif" font-size="14" lengthAdjust="spacing" textLength="155" x="325.5" y="86.4941">Redis Basket Repository</text><rect fill="#E2E2F0" height="31.6094" rx="2.5" ry="2.5" style="stroke:#181818;stroke-width:0.5;" width="169" x="318.5" y="445.7344"/><text fill="#000000" font-family="sans-serif" font-size="14" lengthAdjust="spacing" textLength="155" x="325.5" y="467.2676">Redis Basket Repository</text><rect fill="#E2E2F0" height="31.6094" rx="2.5" ry="2.5" style="stroke:#181818;stroke-width:0.5;" width="115" x="558.5" y="64.9609"/><text fill="#000000" font-family="sans-serif" font-size="14" lengthAdjust="spacing" textLength="101" x="565.5" y="86.4941">Redis Database</text><rect fill="#E2E2F0" height="31.6094" rx="2.5" ry="2.5" style="stroke:#181818;stroke-width:0.5;" width="115" x="558.5" y="445.7344"/><text fill="#000000" font-family="sans-serif" font-size="14" lengthAdjust="spacing" textLength="101" x="565.5" y="467.2676">Redis Database</text><polygon fill="#181818" points="391,125.9219,401,129.9219,391,133.9219,395,129.9219" style="stroke:#181818;stroke-width:1.0;"/><line style="stroke:#181818;stroke-width:1.0;" x1="252" x2="397" y1="129.9219" y2="129.9219"/><text fill="#000000" font-family="sans-serif" font-size="13" lengthAdjust="spacing" textLength="127" x="259" y="125.0654">Update Basket Async</text><path d="M298.5,144.9219 L475.5,144.9219 L475.5,153.2734 L465.5,163.2734 L298.5,163.2734 L298.5,144.9219 " fill="#EEEEEE" style="stroke:#000000;stroke-width:1.5;"/><rect fill="none" height="284.8125" style="stroke:#000000;stroke-width:1.5;" width="395" x="298.5" y="144.9219"/><text fill="#000000" font-family="sans-serif" font-size="13" font-weight="bold" lengthAdjust="spacing" textLength="132" x="313.5" y="159.417">Update Basket Async</text><polygon fill="#181818" points="604,181.625,614,185.625,604,189.625,608,185.625" style="stroke:#181818;stroke-width:1.0;"/><line style="stroke:#181818;stroke-width:1.0;" x1="403" x2="610" y1="185.625" y2="185.625"/><text fill="#000000" font-family="sans-serif" font-size="13" lengthAdjust="spacing" textLength="99" x="410" y="180.7686">String Set Async</text><line style="stroke:#181818;stroke-width:1.0;" x1="403" x2="445" y1="215.9766" y2="215.9766"/><line style="stroke:#181818;stroke-width:1.0;" x1="445" x2="445" y1="215.9766" y2="228.9766"/><line style="stroke:#181818;stroke-width:1.0;" x1="404" x2="445" y1="228.9766" y2="228.9766"/><polygon fill="#181818" points="414,224.9766,404,228.9766,414,232.9766,410,228.9766" style="stroke:#181818;stroke-width:1.0;"/><text fill="#000000" font-family="sans-serif" font-size="13" lengthAdjust="spacing" textLength="93" x="410" y="211.1201">Get Basket Key</text><line style="stroke:#181818;stroke-width:1.0;" x1="403" x2="445" y1="259.3281" y2="259.3281"/><line style="stroke:#181818;stroke-width:1.0;" x1="445" x2="445" y1="259.3281" y2="272.3281"/><line style="stroke:#181818;stroke-width:1.0;" x1="404" x2="445" y1="272.3281" y2="272.3281"/><polygon fill="#181818" points="414,268.3281,404,272.3281,414,276.3281,410,272.3281" style="stroke:#181818;stroke-width:1.0;"/><text fill="#000000" font-family="sans-serif" font-size="13" lengthAdjust="spacing" textLength="107" x="410" y="254.4717">Get Basket Async</text><path d="M308.5,287.3281 L462.5,287.3281 L462.5,295.6797 L452.5,305.6797 L308.5,305.6797 L308.5,287.3281 " fill="#EEEEEE" style="stroke:#000000;stroke-width:1.5;"/><rect fill="none" height="135.4063" style="stroke:#000000;stroke-width:1.5;" width="375" x="308.5" y="287.3281"/><text fill="#000000" font-family="sans-serif" font-size="13" font-weight="bold" lengthAdjust="spacing" textLength="109" x="323.5" y="301.8232">Get Basket Async</text><polygon fill="#181818" points="604,324.0313,614,328.0313,604,332.0313,608,328.0313" style="stroke:#181818;stroke-width:1.0;"/><line style="stroke:#181818;stroke-width:1.0;" x1="403" x2="610" y1="328.0313" y2="328.0313"/><text fill="#000000" font-family="sans-serif" font-size="13" lengthAdjust="spacing" textLength="139" x="410" y="323.1748">String Get Lease Async</text><line style="stroke:#181818;stroke-width:1.0;" x1="403" x2="445" y1="358.3828" y2="358.3828"/><line style="stroke:#181818;stroke-width:1.0;" x1="445" x2="445" y1="358.3828" y2="371.3828"/><line style="stroke:#181818;stroke-width:1.0;" x1="404" x2="445" y1="371.3828" y2="371.3828"/><polygon fill="#181818" points="414,367.3828,404,371.3828,414,375.3828,410,371.3828" style="stroke:#181818;stroke-width:1.0;"/><text fill="#000000" font-family="sans-serif" font-size="13" lengthAdjust="spacing" textLength="93" x="410" y="353.5264">Get Basket Key</text><line style="stroke:#181818;stroke-width:1.0;" x1="403" x2="445" y1="401.7344" y2="401.7344"/><line style="stroke:#181818;stroke-width:1.0;" x1="445" x2="445" y1="401.7344" y2="414.7344"/><line style="stroke:#181818;stroke-width:1.0;" x1="404" x2="445" y1="414.7344" y2="414.7344"/><polygon fill="#181818" points="414,410.7344,404,414.7344,414,418.7344,410,414.7344" style="stroke:#181818;stroke-width:1.0;"/><text fill="#000000" font-family="sans-serif" font-size="13" lengthAdjust="spacing" textLength="199" x="410" y="396.8779">Return (JsonSerializer.Deserialize)</text><!--SRC=[xLLDJyCm3BtdLrZb0eVbn8a3qjW0yN5QXJXdhTaYkYGa7blvzJWjNJUjaxXi4XMLgjHsdFUUxQYagK38BHaa602cS-ju7VfihWapMdfayqQ5TuuFdMPZh4ZnCi5SXoOoGMU39kjBZhouN15kaa9fClQc-B54ayNZHdRXh453KE0d5a8uvKbdsYbs9RThGczKaO0ACBfyC6pU5NObK_j6A-KnBGFX8iXcOsqBCRLhI5gg2PozHX42-Ac3aVgEUmVuWAAAHrqXMTL7RbTdZrMTp_XoP0qfRT076O7bHdQG5LIzimKwn2WcJrN0en5f00IQ7BXGelqGlsy03AvFKYQuwfemCVDswJeZ9o5r9F5DQrXqIbwR6T-ZFkZgQEez2_lfsnEMFLQtFQzxxduDQvJtZD7rFx9_Jjq4-Km3vu_1cXIzLeN-GY_761hZ8luegbTy0m00]--></g></svg>