<?xml version="1.0" encoding="us-ascii" standalone="no"?><svg xmlns="http://www.w3.org/2000/svg" xmlns:xlink="http://www.w3.org/1999/xlink" contentStyleType="text/css" height="433px" preserveAspectRatio="none" style="width:702px;height:433px;background:#FFFFFF;" version="1.1" viewBox="0 0 702 433" width="702px" zoomAndPan="magnify"><defs/><g><text fill="#000000" font-family="sans-serif" font-size="14" font-weight="bold" lengthAdjust="spacing" textLength="674" x="10" y="29.5332">DotNetEShop - Basket Api - Grpc - Basket Service - Delete Basket - Sequence - Component level</text><rect fill="#FFFFFF" height="383.3828" style="stroke:#181818;stroke-width:0.5;" width="116" x="163.5" y="44.6094"/><text fill="#000000" font-family="sans-serif" font-size="13" font-weight="bold" lengthAdjust="spacing" textLength="30" x="206.5" y="58.1045">Grpc</text><rect fill="#FFFFFF" height="383.3828" style="stroke:#181818;stroke-width:0.5;" width="302" x="289" y="44.6094"/><text fill="#000000" font-family="sans-serif" font-size="13" font-weight="bold" lengthAdjust="spacing" textLength="29" x="425.5" y="58.1045">Data</text><rect fill="none" height="230.4609" style="stroke:#000000;stroke-width:1.5;" width="459.5" x="147.5" y="144.9219"/><rect fill="none" height="61.7031" style="stroke:#000000;stroke-width:1.5;" width="246" x="157.5" y="170.2734"/><rect fill="none" height="92.0547" style="stroke:#000000;stroke-width:1.5;" width="314" x="283" y="276.3281"/><line style="stroke:#181818;stroke-width:0.5;stroke-dasharray:5.0,5.0;" x1="115" x2="115" y1="97.5703" y2="392.3828"/><line style="stroke:#181818;stroke-width:0.5;stroke-dasharray:5.0,5.0;" x1="221.5" x2="221.5" y1="97.5703" y2="392.3828"/><line style="stroke:#181818;stroke-width:0.5;stroke-dasharray:5.0,5.0;" x1="377" x2="377" y1="97.5703" y2="392.3828"/><line style="stroke:#181818;stroke-width:0.5;stroke-dasharray:5.0,5.0;" x1="529" x2="529" y1="97.5703" y2="392.3828"/><rect fill="#E2E2F0" height="31.6094" rx="2.5" ry="2.5" style="stroke:#181818;stroke-width:0.5;" width="65" x="83" y="64.9609"/><text fill="#000000" font-family="sans-serif" font-size="14" lengthAdjust="spacing" textLength="51" x="90" y="86.4941">External</text><rect fill="#E2E2F0" height="31.6094" rx="2.5" ry="2.5" style="stroke:#181818;stroke-width:0.5;" width="65" x="83" y="391.3828"/><text fill="#000000" font-family="sans-serif" font-size="14" lengthAdjust="spacing" textLength="51" x="90" y="412.916">External</text><rect fill="#E2E2F0" height="31.6094" rx="2.5" ry="2.5" style="stroke:#181818;stroke-width:0.5;" width="108" x="167.5" y="64.9609"/><text fill="#000000" font-family="sans-serif" font-size="14" lengthAdjust="spacing" textLength="94" x="174.5" y="86.4941">Basket Service</text><rect fill="#E2E2F0" height="31.6094" rx="2.5" ry="2.5" style="stroke:#181818;stroke-width:0.5;" width="108" x="167.5" y="391.3828"/><text fill="#000000" font-family="sans-serif" font-size="14" lengthAdjust="spacing" textLength="94" x="174.5" y="412.916">Basket Service</text><rect fill="#E2E2F0" height="31.6094" rx="2.5" ry="2.5" style="stroke:#181818;stroke-width:0.5;" width="169" x="293" y="64.9609"/><text fill="#000000" font-family="sans-serif" font-size="14" lengthAdjust="spacing" textLength="155" x="300" y="86.4941">Redis Basket Repository</text><rect fill="#E2E2F0" height="31.6094" rx="2.5" ry="2.5" style="stroke:#181818;stroke-width:0.5;" width="169" x="293" y="391.3828"/><text fill="#000000" font-family="sans-serif" font-size="14" lengthAdjust="spacing" textLength="155" x="300" y="412.916">Redis Basket Repository</text><rect fill="#E2E2F0" height="31.6094" rx="2.5" ry="2.5" style="stroke:#181818;stroke-width:0.5;" width="115" x="472" y="64.9609"/><text fill="#000000" font-family="sans-serif" font-size="14" lengthAdjust="spacing" textLength="101" x="479" y="86.4941">Redis Database</text><rect fill="#E2E2F0" height="31.6094" rx="2.5" ry="2.5" style="stroke:#181818;stroke-width:0.5;" width="115" x="472" y="391.3828"/><text fill="#000000" font-family="sans-serif" font-size="14" lengthAdjust="spacing" textLength="101" x="479" y="412.916">Redis Database</text><polygon fill="#181818" points="209.5,125.9219,219.5,129.9219,209.5,133.9219,213.5,129.9219" style="stroke:#181818;stroke-width:1.0;"/><line style="stroke:#181818;stroke-width:1.0;" x1="115.5" x2="215.5" y1="129.9219" y2="129.9219"/><text fill="#000000" font-family="sans-serif" font-size="13" lengthAdjust="spacing" textLength="82" x="122.5" y="125.0654">Delete Basket</text><path d="M147.5,144.9219 L279.5,144.9219 L279.5,153.2734 L269.5,163.2734 L147.5,163.2734 L147.5,144.9219 " fill="#EEEEEE" style="stroke:#000000;stroke-width:1.5;"/><rect fill="none" height="230.4609" style="stroke:#000000;stroke-width:1.5;" width="459.5" x="147.5" y="144.9219"/><text fill="#000000" font-family="sans-serif" font-size="13" font-weight="bold" lengthAdjust="spacing" textLength="87" x="162.5" y="159.417">Delete Basket</text><path d="M157.5,170.2734 L218.5,170.2734 L218.5,178.625 L208.5,188.625 L157.5,188.625 L157.5,170.2734 " fill="#EEEEEE" style="stroke:#000000;stroke-width:1.5;"/><rect fill="none" height="61.7031" style="stroke:#000000;stroke-width:1.5;" width="246" x="157.5" y="170.2734"/><text fill="#000000" font-family="sans-serif" font-size="13" font-weight="bold" lengthAdjust="spacing" textLength="16" x="172.5" y="184.7686">alt</text><text fill="#000000" font-family="sans-serif" font-size="11" font-weight="bold" lengthAdjust="spacing" textLength="165" x="233.5" y="183.6924">[string.IsNullOrEmpty(userId)]</text><line style="stroke:#181818;stroke-width:1.0;" x1="221.5" x2="263.5" y1="210.9766" y2="210.9766"/><line style="stroke:#181818;stroke-width:1.0;" x1="263.5" x2="263.5" y1="210.9766" y2="223.9766"/><line style="stroke:#181818;stroke-width:1.0;" x1="222.5" x2="263.5" y1="223.9766" y2="223.9766"/><polygon fill="#181818" points="232.5,219.9766,222.5,223.9766,232.5,227.9766,228.5,223.9766" style="stroke:#181818;stroke-width:1.0;"/><text fill="#000000" font-family="sans-serif" font-size="13" lengthAdjust="spacing" textLength="142" x="228.5" y="206.1201">Throw Not Authenticated</text><polygon fill="#181818" points="365.5,257.3281,375.5,261.3281,365.5,265.3281,369.5,261.3281" style="stroke:#181818;stroke-width:1.0;"/><line style="stroke:#181818;stroke-width:1.0;" x1="221.5" x2="371.5" y1="261.3281" y2="261.3281"/><text fill="#000000" font-family="sans-serif" font-size="13" lengthAdjust="spacing" textLength="123" x="228.5" y="256.4717">Delete Basket Async</text><path d="M283,276.3281 L456,276.3281 L456,284.6797 L446,294.6797 L283,294.6797 L283,276.3281 " fill="#EEEEEE" style="stroke:#000000;stroke-width:1.5;"/><rect fill="none" height="92.0547" style="stroke:#000000;stroke-width:1.5;" width="314" x="283" y="276.3281"/><text fill="#000000" font-family="sans-serif" font-size="13" font-weight="bold" lengthAdjust="spacing" textLength="128" x="298" y="290.8232">Delete Basket Async</text><line style="stroke:#181818;stroke-width:1.0;" x1="377.5" x2="419.5" y1="317.0313" y2="317.0313"/><line style="stroke:#181818;stroke-width:1.0;" x1="419.5" x2="419.5" y1="317.0313" y2="330.0313"/><line style="stroke:#181818;stroke-width:1.0;" x1="378.5" x2="419.5" y1="330.0313" y2="330.0313"/><polygon fill="#181818" points="388.5,326.0313,378.5,330.0313,388.5,334.0313,384.5,330.0313" style="stroke:#181818;stroke-width:1.0;"/><text fill="#000000" font-family="sans-serif" font-size="13" lengthAdjust="spacing" textLength="93" x="384.5" y="312.1748">Get Basket Key</text><polygon fill="#181818" points="517.5,356.3828,527.5,360.3828,517.5,364.3828,521.5,360.3828" style="stroke:#181818;stroke-width:1.0;"/><line style="stroke:#181818;stroke-width:1.0;" x1="377.5" x2="523.5" y1="360.3828" y2="360.3828"/><text fill="#000000" font-family="sans-serif" font-size="13" lengthAdjust="spacing" textLength="105" x="384.5" y="355.5264">Key Delete Async</text><!--SRC=[pPDHQy8m4CVVyocExcLxi4zxsiF0gHCPEB23FSVsPiDYaYLNjTz-YJNMRXDaA5WeD7VN-__-kOG4IOIXfYdIA2krWHuySVU917qZ_69iJTx6ChGhaQCF354YOOptVEQhGhLD3VJIQ8MAGE8A9ME6MnAvCDo7aj66q2ek4-0E1lSJvPVFKg_JJ7_GcblCQaUuT6aiRDQCpVK6afOjWPltKX0oy4-J3AoTS4UuQs4hV-3xbtnJxeNIWLR4XKBhqg2Gxlt5ebrBXge03y8Ea8QS-76a6HR2nJsSeT5EaBRr_zY2r27RjdbJsRO-nX1-ddE7PvIEBTjjsN-mq-SElSSpZmaUkeUNBQokp8yObmIEh52BTEAcbPIlThGqLDzM3ksak6DdPhg4oxVIwZLCjRyk5PM-HEISi0XZk0Ryayxhps51tzKg_sjakyo5C2vfSEpXTnvUiBvw1_5UUtAF6uVGx7uuMk5btm00]--></g></svg>