<?xml version="1.0" encoding="us-ascii" standalone="no"?><svg xmlns="http://www.w3.org/2000/svg" xmlns:xlink="http://www.w3.org/1999/xlink" contentStyleType="text/css" height="383px" preserveAspectRatio="none" style="width:1104px;height:383px;background:#FFFFFF;" version="1.1" viewBox="0 0 1104 383" width="1104px" zoomAndPan="magnify"><defs/><g><text fill="#000000" font-family="sans-serif" font-size="14" font-weight="bold" lengthAdjust="spacing" textLength="1076" x="10" y="29.5332">E Commerce Platform - Create Product - Buying And Merchandising - Buying And Merchandising App - View Purchase Orders - Sequence - Container level</text><rect fill="#FFFFFF" height="326.3281" style="stroke:#181818;stroke-width:0.5;" width="214.5" x="587" y="44.6094"/><text fill="#000000" font-family="sans-serif" font-size="13" font-weight="bold" lengthAdjust="spacing" textLength="96" x="646.25" y="58.1045">Buying Service</text><rect fill="none" height="111.4063" style="stroke:#000000;stroke-width:1.5;" width="472" x="345.5" y="175.9219"/><rect fill="none" height="48.7031" style="stroke:#000000;stroke-width:1.5;" width="226.5" x="581" y="231.625"/><line style="stroke:#181818;stroke-width:0.5;stroke-dasharray:5.0,5.0;" x1="306.5" x2="306.5" y1="128.5703" y2="304.3281"/><line style="stroke:#181818;stroke-width:0.5;stroke-dasharray:5.0,5.0;" x1="460.5" x2="460.5" y1="128.5703" y2="304.3281"/><line style="stroke:#181818;stroke-width:0.5;stroke-dasharray:5.0,5.0;" x1="608" x2="608" y1="128.5703" y2="304.3281"/><line style="stroke:#181818;stroke-width:0.5;stroke-dasharray:5.0,5.0;" x1="763.5" x2="763.5" y1="128.5703" y2="304.3281"/><rect fill="#E2E2F0" height="31.6094" rx="2.5" ry="2.5" style="stroke:#181818;stroke-width:0.5;" width="65" x="274.5" y="95.9609"/><text fill="#000000" font-family="sans-serif" font-size="14" lengthAdjust="spacing" textLength="51" x="281.5" y="117.4941">External</text><rect fill="#E2E2F0" height="31.6094" rx="2.5" ry="2.5" style="stroke:#181818;stroke-width:0.5;" width="65" x="274.5" y="303.3281"/><text fill="#000000" font-family="sans-serif" font-size="14" lengthAdjust="spacing" textLength="51" x="281.5" y="324.8613">External</text><rect fill="#E2E2F0" height="31.6094" rx="2.5" ry="2.5" style="stroke:#181818;stroke-width:0.5;" width="211" x="355.5" y="95.9609"/><text fill="#000000" font-family="sans-serif" font-size="14" lengthAdjust="spacing" textLength="197" x="362.5" y="117.4941">Buying And Merchandising App</text><rect fill="#E2E2F0" height="31.6094" rx="2.5" ry="2.5" style="stroke:#181818;stroke-width:0.5;" width="211" x="355.5" y="303.3281"/><text fill="#000000" font-family="sans-serif" font-size="14" lengthAdjust="spacing" textLength="197" x="362.5" y="324.8613">Buying And Merchandising App</text><rect fill="#E2E2F0" height="31.6094" rx="2.5" ry="2.5" style="stroke:#181818;stroke-width:0.5;" width="34" x="591" y="95.9609"/><text fill="#000000" font-family="sans-serif" font-size="14" lengthAdjust="spacing" textLength="20" x="598" y="117.4941">Api</text><rect fill="#E2E2F0" height="31.6094" rx="2.5" ry="2.5" style="stroke:#181818;stroke-width:0.5;" width="34" x="591" y="303.3281"/><text fill="#000000" font-family="sans-serif" font-size="14" lengthAdjust="spacing" textLength="20" x="598" y="324.8613">Api</text><text fill="#000000" font-family="sans-serif" font-size="14" lengthAdjust="spacing" textLength="61" x="730.5" y="125.4941">Database</text><path d="M746,74.9609 C746,64.9609 764,64.9609 764,64.9609 C764,64.9609 782,64.9609 782,74.9609 L782,100.9609 C782,110.9609 764,110.9609 764,110.9609 C764,110.9609 746,110.9609 746,100.9609 L746,74.9609 " fill="#E2E2F0" style="stroke:#181818;stroke-width:1.5;"/><path d="M746,74.9609 C746,84.9609 764,84.9609 764,84.9609 C764,84.9609 782,84.9609 782,74.9609 " fill="none" style="stroke:#181818;stroke-width:1.5;"/><text fill="#000000" font-family="sans-serif" font-size="14" lengthAdjust="spacing" textLength="61" x="730.5" y="317.8613">Database</text><path d="M746,330.9375 C746,320.9375 764,320.9375 764,320.9375 C764,320.9375 782,320.9375 782,330.9375 L782,356.9375 C782,366.9375 764,366.9375 764,366.9375 C764,366.9375 746,366.9375 746,356.9375 L746,330.9375 " fill="#E2E2F0" style="stroke:#181818;stroke-width:1.5;"/><path d="M746,330.9375 C746,340.9375 764,340.9375 764,340.9375 C764,340.9375 782,340.9375 782,330.9375 " fill="none" style="stroke:#181818;stroke-width:1.5;"/><polygon fill="#181818" points="449,156.9219,459,160.9219,449,164.9219,453,160.9219" style="stroke:#181818;stroke-width:1.0;"/><line style="stroke:#181818;stroke-width:1.0;" x1="307" x2="455" y1="160.9219" y2="160.9219"/><text fill="#000000" font-family="sans-serif" font-size="13" lengthAdjust="spacing" textLength="130" x="314" y="156.0654">View Purchase Orders</text><path d="M345.5,175.9219 L531.5,175.9219 L531.5,184.2734 L521.5,194.2734 L345.5,194.2734 L345.5,175.9219 " fill="#EEEEEE" style="stroke:#000000;stroke-width:1.5;"/><rect fill="none" height="111.4063" style="stroke:#000000;stroke-width:1.5;" width="472" x="345.5" y="175.9219"/><text fill="#000000" font-family="sans-serif" font-size="13" font-weight="bold" lengthAdjust="spacing" textLength="141" x="360.5" y="190.417">View Purchase Orders</text><polygon fill="#181818" points="596,212.625,606,216.625,596,220.625,600,216.625" style="stroke:#181818;stroke-width:1.0;"/><line style="stroke:#181818;stroke-width:1.0;" x1="461" x2="602" y1="216.625" y2="216.625"/><text fill="#000000" font-family="sans-serif" font-size="13" lengthAdjust="spacing" textLength="123" x="468" y="211.7686">Get Purchase Orders</text><path d="M581,231.625 L757,231.625 L757,239.9766 L747,249.9766 L581,249.9766 L581,231.625 " fill="#EEEEEE" style="stroke:#000000;stroke-width:1.5;"/><rect fill="none" height="48.7031" style="stroke:#000000;stroke-width:1.5;" width="226.5" x="581" y="231.625"/><text fill="#000000" font-family="sans-serif" font-size="13" font-weight="bold" lengthAdjust="spacing" textLength="131" x="596" y="246.1201">Get Purchase Orders</text><polygon fill="#181818" points="752,268.3281,762,272.3281,752,276.3281,756,272.3281" style="stroke:#181818;stroke-width:1.0;"/><line style="stroke:#181818;stroke-width:1.0;" x1="608" x2="758" y1="272.3281" y2="272.3281"/><text fill="#000000" font-family="sans-serif" font-size="13" lengthAdjust="spacing" textLength="132" x="615" y="267.4717">Select Purchase Order</text><!--SRC=[lL9BQyCm3BxxLuZit9nssc6GPLtPOQmGsCvkehO6n_PifMd__PHN8LjMTcWJCCIIhEyXaIADi8JKbYNw766j9MsjBs41gKT97F6sg7BYm5DrKcO7YIdWZOltqXGgD94BgSGvJdyeh65TDOc0yEuBz8736NvLQ1YLmQmXgGnwq7X0BOIJdbIkd3G4qV98w8tK4SW0wVshuUkBjdMSsItLqcDs2eHbY8V2xZvkSebZstWvk32O47SMz0x4NGD-Fth-YyDq6OC8iR77CuyC_K7b6C7TvruH2k1ln3TnwlgqUjJux7U86QS5BoJ9JJEVwBd_cmL-01F8Ws63X13_dp0i7cy-DdYOt5-nyxPoqwcRKxgsxEcrOEKhf3-4JsNcu3I3z64bMN-66lEVGfjLRO_u1W00]--></g></svg>