<?xml version="1.0" encoding="us-ascii" standalone="no"?><svg xmlns="http://www.w3.org/2000/svg" xmlns:xlink="http://www.w3.org/1999/xlink" contentStyleType="text/css" height="1359px" preserveAspectRatio="none" style="width:1327px;height:1359px;background:#FFFFFF;" version="1.1" viewBox="0 0 1327 1359" width="1327px" zoomAndPan="magnify"><defs/><g><text fill="#000000" font-family="sans-serif" font-size="14" font-weight="bold" lengthAdjust="spacing" textLength="319" x="505.75" y="29.5332">Execute Trades - Sequence - Container level)</text><rect fill="#FFFFFF" height="1302.2266" style="stroke:#181818;stroke-width:0.5;" width="1072.5" x="233" y="44.6094"/><text fill="#000000" font-family="sans-serif" font-size="13" font-weight="bold" lengthAdjust="spacing" textLength="51" x="743.75" y="58.1045">TraderX</text><rect fill="none" height="297.5156" style="stroke:#000000;stroke-width:1.5;" width="1004" x="140" y="145.5703"/><rect fill="none" height="234.8125" style="stroke:#000000;stroke-width:1.5;" width="907" x="227" y="201.2734"/><rect fill="none" height="172.1094" style="stroke:#000000;stroke-width:1.5;" width="628.5" x="495.5" y="256.9766"/><rect fill="none" height="79.0547" style="stroke:#000000;stroke-width:1.5;" width="363.5" x="750.5" y="343.0313"/><rect fill="none" height="263.1641" style="stroke:#000000;stroke-width:1.5;" width="1311.5" x="10" y="457.0859"/><rect fill="none" height="200.4609" style="stroke:#000000;stroke-width:1.5;" width="396.5" x="915" y="512.7891"/><rect fill="none" height="247.8125" style="stroke:#000000;stroke-width:1.5;" width="1114" x="10" y="734.25"/><rect fill="none" height="185.1094" style="stroke:#000000;stroke-width:1.5;" width="897" x="217" y="789.9531"/><rect fill="none" height="61.7031" style="stroke:#000000;stroke-width:1.5;" width="306" x="227" y="906.3594"/><rect fill="none" height="267.1641" style="stroke:#000000;stroke-width:1.5;" width="1004" x="140" y="996.0625"/><rect fill="none" height="204.4609" style="stroke:#000000;stroke-width:1.5;" width="907" x="227" y="1051.7656"/><rect fill="none" height="141.7578" style="stroke:#000000;stroke-width:1.5;" width="628.5" x="495.5" y="1107.4688"/><rect fill="none" height="79.0547" style="stroke:#000000;stroke-width:1.5;" width="363.5" x="750.5" y="1163.1719"/><line style="stroke:#181818;stroke-width:0.5;stroke-dasharray:5.0,5.0;" x1="80" x2="80" y1="128.5703" y2="1280.2266"/><line style="stroke:#181818;stroke-width:0.5;stroke-dasharray:5.0,5.0;" x1="178" x2="178" y1="128.5703" y2="1280.2266"/><line style="stroke:#181818;stroke-width:0.5;stroke-dasharray:5.0,5.0;" x1="278" x2="278" y1="128.5703" y2="1280.2266"/><line style="stroke:#181818;stroke-width:0.5;stroke-dasharray:5.0,5.0;" x1="540.5" x2="540.5" y1="128.5703" y2="1280.2266"/><line style="stroke:#181818;stroke-width:0.5;stroke-dasharray:5.0,5.0;" x1="667.5" x2="667.5" y1="128.5703" y2="1280.2266"/><line style="stroke:#181818;stroke-width:0.5;stroke-dasharray:5.0,5.0;" x1="820.5" x2="820.5" y1="128.5703" y2="1280.2266"/><line style="stroke:#181818;stroke-width:0.5;stroke-dasharray:5.0,5.0;" x1="965" x2="965" y1="128.5703" y2="1280.2266"/><line style="stroke:#181818;stroke-width:0.5;stroke-dasharray:5.0,5.0;" x1="1059" x2="1059" y1="128.5703" y2="1280.2266"/><line style="stroke:#181818;stroke-width:0.5;stroke-dasharray:5.0,5.0;" x1="1241.5" x2="1241.5" y1="128.5703" y2="1280.2266"/><rect fill="#E2E2F0" height="31.6094" rx="2.5" ry="2.5" style="stroke:#181818;stroke-width:0.5;" width="120" x="20" y="95.9609"/><text fill="#000000" font-family="sans-serif" font-size="14" lengthAdjust="spacing" textLength="106" x="27" y="117.4941">External Process</text><rect fill="#E2E2F0" height="31.6094" rx="2.5" ry="2.5" style="stroke:#181818;stroke-width:0.5;" width="120" x="20" y="1279.2266"/><text fill="#000000" font-family="sans-serif" font-size="14" lengthAdjust="spacing" textLength="106" x="27" y="1300.7598">External Process</text><rect fill="#E2E2F0" height="31.6094" rx="2.5" ry="2.5" style="stroke:#181818;stroke-width:0.5;" width="57" x="150" y="95.9609"/><text fill="#000000" font-family="sans-serif" font-size="14" lengthAdjust="spacing" textLength="43" x="157" y="117.4941">Trader</text><rect fill="#E2E2F0" height="31.6094" rx="2.5" ry="2.5" style="stroke:#181818;stroke-width:0.5;" width="57" x="150" y="1279.2266"/><text fill="#000000" font-family="sans-serif" font-size="14" lengthAdjust="spacing" textLength="43" x="157" y="1300.7598">Trader</text><rect fill="#E2E2F0" height="31.6094" rx="2.5" ry="2.5" style="stroke:#181818;stroke-width:0.5;" width="83" x="237" y="95.9609"/><text fill="#000000" font-family="sans-serif" font-size="14" lengthAdjust="spacing" textLength="69" x="244" y="117.4941">Web Client</text><rect fill="#E2E2F0" height="31.6094" rx="2.5" ry="2.5" style="stroke:#181818;stroke-width:0.5;" width="83" x="237" y="1279.2266"/><text fill="#000000" font-family="sans-serif" font-size="14" lengthAdjust="spacing" textLength="69" x="244" y="1300.7598">Web Client</text><rect fill="#E2E2F0" height="31.6094" rx="2.5" ry="2.5" style="stroke:#181818;stroke-width:0.5;" width="70" x="505.5" y="95.9609"/><text fill="#000000" font-family="sans-serif" font-size="14" lengthAdjust="spacing" textLength="56" x="512.5" y="117.4941">Web GUI</text><rect fill="#E2E2F0" height="31.6094" rx="2.5" ry="2.5" style="stroke:#181818;stroke-width:0.5;" width="70" x="505.5" y="1279.2266"/><text fill="#000000" font-family="sans-serif" font-size="14" lengthAdjust="spacing" textLength="56" x="512.5" y="1300.7598">Web GUI</text><rect fill="#E2E2F0" height="31.6094" rx="2.5" ry="2.5" style="stroke:#181818;stroke-width:0.5;" width="165" x="585.5" y="95.9609"/><text fill="#000000" font-family="sans-serif" font-size="14" lengthAdjust="spacing" textLength="151" x="592.5" y="117.4941">Reference Data Service</text><rect fill="#E2E2F0" height="31.6094" rx="2.5" ry="2.5" style="stroke:#181818;stroke-width:0.5;" width="165" x="585.5" y="1279.2266"/><text fill="#000000" font-family="sans-serif" font-size="14" lengthAdjust="spacing" textLength="151" x="592.5" y="1300.7598">Reference Data Service</text><rect fill="#E2E2F0" height="31.6094" rx="2.5" ry="2.5" style="stroke:#181818;stroke-width:0.5;" width="121" x="760.5" y="95.9609"/><text fill="#000000" font-family="sans-serif" font-size="14" lengthAdjust="spacing" textLength="107" x="767.5" y="117.4941">Trading Services</text><rect fill="#E2E2F0" height="31.6094" rx="2.5" ry="2.5" style="stroke:#181818;stroke-width:0.5;" width="121" x="760.5" y="1279.2266"/><text fill="#000000" font-family="sans-serif" font-size="14" lengthAdjust="spacing" textLength="107" x="767.5" y="1300.7598">Trading Services</text><text fill="#000000" font-family="sans-serif" font-size="14" lengthAdjust="spacing" textLength="74" x="925" y="125.4941">TraderX DB</text><path d="M947,74.9609 C947,64.9609 965,64.9609 965,64.9609 C965,64.9609 983,64.9609 983,74.9609 L983,100.9609 C983,110.9609 965,110.9609 965,110.9609 C965,110.9609 947,110.9609 947,100.9609 L947,74.9609 " fill="#E2E2F0" style="stroke:#181818;stroke-width:1.5;"/><path d="M947,74.9609 C947,84.9609 965,84.9609 965,84.9609 C965,84.9609 983,84.9609 983,74.9609 " fill="none" style="stroke:#181818;stroke-width:1.5;"/><text fill="#000000" font-family="sans-serif" font-size="14" lengthAdjust="spacing" textLength="74" x="925" y="1293.7598">TraderX DB</text><path d="M947,1306.8359 C947,1296.8359 965,1296.8359 965,1296.8359 C965,1296.8359 983,1296.8359 983,1306.8359 L983,1332.8359 C983,1342.8359 965,1342.8359 965,1342.8359 C965,1342.8359 947,1342.8359 947,1332.8359 L947,1306.8359 " fill="#E2E2F0" style="stroke:#181818;stroke-width:1.5;"/><path d="M947,1306.8359 C947,1316.8359 965,1316.8359 965,1316.8359 C965,1316.8359 983,1316.8359 983,1306.8359 " fill="none" style="stroke:#181818;stroke-width:1.5;"/><rect fill="#E2E2F0" height="31.6094" rx="2.5" ry="2.5" style="stroke:#181818;stroke-width:0.5;" width="89" x="1015" y="95.9609"/><text fill="#000000" font-family="sans-serif" font-size="14" lengthAdjust="spacing" textLength="75" x="1022" y="117.4941">Trade Feed</text><rect fill="#E2E2F0" height="31.6094" rx="2.5" ry="2.5" style="stroke:#181818;stroke-width:0.5;" width="89" x="1015" y="1279.2266"/><text fill="#000000" font-family="sans-serif" font-size="14" lengthAdjust="spacing" textLength="75" x="1022" y="1300.7598">Trade Feed</text><rect fill="#E2E2F0" height="31.6094" rx="2.5" ry="2.5" style="stroke:#181818;stroke-width:0.5;" width="120" x="1181.5" y="95.9609"/><text fill="#000000" font-family="sans-serif" font-size="14" lengthAdjust="spacing" textLength="106" x="1188.5" y="117.4941">Trade Processor</text><rect fill="#E2E2F0" height="31.6094" rx="2.5" ry="2.5" style="stroke:#181818;stroke-width:0.5;" width="120" x="1181.5" y="1279.2266"/><text fill="#000000" font-family="sans-serif" font-size="14" lengthAdjust="spacing" textLength="106" x="1188.5" y="1300.7598">Trade Processor</text><path d="M140,145.5703 L377,145.5703 L377,153.9219 L367,163.9219 L140,163.9219 L140,145.5703 " fill="#EEEEEE" style="stroke:#000000;stroke-width:1.5;"/><rect fill="none" height="297.5156" style="stroke:#000000;stroke-width:1.5;" width="1004" x="140" y="145.5703"/><text fill="#000000" font-family="sans-serif" font-size="13" font-weight="bold" lengthAdjust="spacing" textLength="192" x="155" y="160.0654">Trader - Create Trade Request</text><polygon fill="#181818" points="266.5,182.2734,276.5,186.2734,266.5,190.2734,270.5,186.2734" style="stroke:#181818;stroke-width:1.0;"/><line style="stroke:#181818;stroke-width:1.0;" x1="178.5" x2="272.5" y1="186.2734" y2="186.2734"/><text fill="#000000" font-family="sans-serif" font-size="13" lengthAdjust="spacing" textLength="74" x="185.5" y="181.417">Create Trade</text><path d="M227,201.2734 L355,201.2734 L355,209.625 L345,219.625 L227,219.625 L227,201.2734 " fill="#EEEEEE" style="stroke:#000000;stroke-width:1.5;"/><rect fill="none" height="234.8125" style="stroke:#000000;stroke-width:1.5;" width="907" x="227" y="201.2734"/><text fill="#000000" font-family="sans-serif" font-size="13" font-weight="bold" lengthAdjust="spacing" textLength="83" x="242" y="215.7686">Create Trade</text><polygon fill="#181818" points="528.5,237.9766,538.5,241.9766,528.5,245.9766,532.5,241.9766" style="stroke:#181818;stroke-width:1.0;"/><line style="stroke:#181818;stroke-width:1.0;" x1="278.5" x2="534.5" y1="241.9766" y2="241.9766"/><text fill="#000000" font-family="sans-serif" font-size="13" lengthAdjust="spacing" textLength="74" x="285.5" y="237.1201">Create Trade</text><path d="M495.5,256.9766 L623.5,256.9766 L623.5,265.3281 L613.5,275.3281 L495.5,275.3281 L495.5,256.9766 " fill="#EEEEEE" style="stroke:#000000;stroke-width:1.5;"/><rect fill="none" height="172.1094" style="stroke:#000000;stroke-width:1.5;" width="628.5" x="495.5" y="256.9766"/><text fill="#000000" font-family="sans-serif" font-size="13" font-weight="bold" lengthAdjust="spacing" textLength="83" x="510.5" y="271.4717">Create Trade</text><polygon fill="#181818" points="656,293.6797,666,297.6797,656,301.6797,660,297.6797" style="stroke:#181818;stroke-width:1.0;"/><line style="stroke:#181818;stroke-width:1.0;" x1="540.5" x2="662" y1="297.6797" y2="297.6797"/><text fill="#000000" font-family="sans-serif" font-size="13" lengthAdjust="spacing" textLength="83" x="547.5" y="292.8232">Get Securities</text><polygon fill="#181818" points="809,324.0313,819,328.0313,809,332.0313,813,328.0313" style="stroke:#181818;stroke-width:1.0;"/><line style="stroke:#181818;stroke-width:1.0;" x1="540.5" x2="815" y1="328.0313" y2="328.0313"/><text fill="#000000" font-family="sans-serif" font-size="13" lengthAdjust="spacing" textLength="74" x="547.5" y="323.1748">Create Trade</text><path d="M750.5,343.0313 L878.5,343.0313 L878.5,351.3828 L868.5,361.3828 L750.5,361.3828 L750.5,343.0313 " fill="#EEEEEE" style="stroke:#000000;stroke-width:1.5;"/><rect fill="none" height="79.0547" style="stroke:#000000;stroke-width:1.5;" width="363.5" x="750.5" y="343.0313"/><text fill="#000000" font-family="sans-serif" font-size="13" font-weight="bold" lengthAdjust="spacing" textLength="83" x="765.5" y="357.5264">Create Trade</text><polygon fill="#181818" points="953,379.7344,963,383.7344,953,387.7344,957,383.7344" style="stroke:#181818;stroke-width:1.0;"/><line style="stroke:#181818;stroke-width:1.0;" x1="821" x2="959" y1="383.7344" y2="383.7344"/><text fill="#000000" font-family="sans-serif" font-size="13" lengthAdjust="spacing" textLength="120" x="828" y="378.8779">Insert Trade Request</text><polygon fill="#181818" points="1047.5,410.0859,1057.5,414.0859,1047.5,418.0859,1051.5,414.0859" style="stroke:#181818;stroke-width:1.0;"/><line style="stroke:#181818;stroke-width:1.0;" x1="821" x2="1053.5" y1="414.0859" y2="414.0859"/><text fill="#000000" font-family="sans-serif" font-size="13" lengthAdjust="spacing" textLength="118" x="828" y="409.2295">Send Trade Request</text><path d="M10,457.0859 L318,457.0859 L318,465.4375 L308,475.4375 L10,475.4375 L10,457.0859 " fill="#EEEEEE" style="stroke:#000000;stroke-width:1.5;"/><rect fill="none" height="263.1641" style="stroke:#000000;stroke-width:1.5;" width="1311.5" x="10" y="457.0859"/><text fill="#000000" font-family="sans-serif" font-size="13" font-weight="bold" lengthAdjust="spacing" textLength="263" x="25" y="471.5811">External Process - Process Trade Request</text><polygon fill="#181818" points="1229.5,493.7891,1239.5,497.7891,1229.5,501.7891,1233.5,497.7891" style="stroke:#181818;stroke-width:1.0;"/><line style="stroke:#181818;stroke-width:1.0;" x1="80" x2="1235.5" y1="497.7891" y2="497.7891"/><text fill="#000000" font-family="sans-serif" font-size="13" lengthAdjust="spacing" textLength="28" x="87" y="492.9326">Start</text><path d="M915,512.7891 L990,512.7891 L990,521.1406 L980,531.1406 L915,531.1406 L915,512.7891 " fill="#EEEEEE" style="stroke:#000000;stroke-width:1.5;"/><rect fill="none" height="200.4609" style="stroke:#000000;stroke-width:1.5;" width="396.5" x="915" y="512.7891"/><text fill="#000000" font-family="sans-serif" font-size="13" font-weight="bold" lengthAdjust="spacing" textLength="30" x="930" y="527.2842">Start</text><polygon fill="#181818" points="1070.5,549.4922,1060.5,553.4922,1070.5,557.4922,1066.5,553.4922" style="stroke:#181818;stroke-width:1.0;"/><line style="stroke:#181818;stroke-width:1.0;" x1="1064.5" x2="1240.5" y1="553.4922" y2="553.4922"/><text fill="#000000" font-family="sans-serif" font-size="13" lengthAdjust="spacing" textLength="133" x="1076.5" y="548.6357">Receive Trade Request</text><polygon fill="#181818" points="976,579.8438,966,583.8438,976,587.8438,972,583.8438" style="stroke:#181818;stroke-width:1.0;"/><line style="stroke:#181818;stroke-width:1.0;" x1="970" x2="1240.5" y1="583.8438" y2="583.8438"/><text fill="#000000" font-family="sans-serif" font-size="13" lengthAdjust="spacing" textLength="141" x="982" y="578.9873">Select Current Positions</text><polygon fill="#181818" points="976,610.1953,966,614.1953,976,618.1953,972,614.1953" style="stroke:#181818;stroke-width:1.0;"/><line style="stroke:#181818;stroke-width:1.0;" x1="970" x2="1240.5" y1="614.1953" y2="614.1953"/><text fill="#000000" font-family="sans-serif" font-size="13" lengthAdjust="spacing" textLength="99" x="982" y="609.3389">Save Trade State</text><polygon fill="#181818" points="976,640.5469,966,644.5469,976,648.5469,972,644.5469" style="stroke:#181818;stroke-width:1.0;"/><line style="stroke:#181818;stroke-width:1.0;" x1="970" x2="1240.5" y1="644.5469" y2="644.5469"/><text fill="#000000" font-family="sans-serif" font-size="13" lengthAdjust="spacing" textLength="114" x="982" y="639.6904">Save Position State</text><polygon fill="#181818" points="1070.5,670.8984,1060.5,674.8984,1070.5,678.8984,1066.5,674.8984" style="stroke:#181818;stroke-width:1.0;"/><line style="stroke:#181818;stroke-width:1.0;" x1="1064.5" x2="1240.5" y1="674.8984" y2="674.8984"/><text fill="#000000" font-family="sans-serif" font-size="13" lengthAdjust="spacing" textLength="143" x="1076.5" y="670.042">Send Updates To Trades</text><polygon fill="#181818" points="1070.5,701.25,1060.5,705.25,1070.5,709.25,1066.5,705.25" style="stroke:#181818;stroke-width:1.0;"/><line style="stroke:#181818;stroke-width:1.0;" x1="1064.5" x2="1240.5" y1="705.25" y2="705.25"/><text fill="#000000" font-family="sans-serif" font-size="13" lengthAdjust="spacing" textLength="158" x="1076.5" y="700.3936">Send Updates To Positions</text><path d="M10,734.25 L295,734.25 L295,742.6016 L285,752.6016 L10,752.6016 L10,734.25 " fill="#EEEEEE" style="stroke:#000000;stroke-width:1.5;"/><rect fill="none" height="247.8125" style="stroke:#000000;stroke-width:1.5;" width="1114" x="10" y="734.25"/><text fill="#000000" font-family="sans-serif" font-size="13" font-weight="bold" lengthAdjust="spacing" textLength="240" x="25" y="748.7451">External Process - Refresh Web Client</text><polygon fill="#181818" points="528.5,770.9531,538.5,774.9531,528.5,778.9531,532.5,774.9531" style="stroke:#181818;stroke-width:1.0;"/><line style="stroke:#181818;stroke-width:1.0;" x1="80" x2="534.5" y1="774.9531" y2="774.9531"/><text fill="#000000" font-family="sans-serif" font-size="13" lengthAdjust="spacing" textLength="28" x="87" y="770.0967">Start</text><path d="M217,789.9531 L292,789.9531 L292,798.3047 L282,808.3047 L217,808.3047 L217,789.9531 " fill="#EEEEEE" style="stroke:#000000;stroke-width:1.5;"/><rect fill="none" height="185.1094" style="stroke:#000000;stroke-width:1.5;" width="897" x="217" y="789.9531"/><text fill="#000000" font-family="sans-serif" font-size="13" font-weight="bold" lengthAdjust="spacing" textLength="30" x="232" y="804.4482">Start</text><polygon fill="#181818" points="1047.5,826.6563,1057.5,830.6563,1047.5,834.6563,1051.5,830.6563" style="stroke:#181818;stroke-width:1.0;"/><line style="stroke:#181818;stroke-width:1.0;" x1="540.5" x2="1053.5" y1="830.6563" y2="830.6563"/><text fill="#000000" font-family="sans-serif" font-size="13" lengthAdjust="spacing" textLength="158" x="547.5" y="825.7998">Receive Updates To Trades</text><polygon fill="#181818" points="1047.5,857.0078,1057.5,861.0078,1047.5,865.0078,1051.5,861.0078" style="stroke:#181818;stroke-width:1.0;"/><line style="stroke:#181818;stroke-width:1.0;" x1="540.5" x2="1053.5" y1="861.0078" y2="861.0078"/><text fill="#000000" font-family="sans-serif" font-size="13" lengthAdjust="spacing" textLength="173" x="547.5" y="856.1514">Receive Updates To Positions</text><polygon fill="#181818" points="289.5,887.3594,279.5,891.3594,289.5,895.3594,285.5,891.3594" style="stroke:#181818;stroke-width:1.0;"/><line style="stroke:#181818;stroke-width:1.0;" x1="283.5" x2="539.5" y1="891.3594" y2="891.3594"/><text fill="#000000" font-family="sans-serif" font-size="13" lengthAdjust="spacing" textLength="238" x="295.5" y="886.5029">Send Trade And Position Status Updates</text><path d="M227,906.3594 L528,906.3594 L528,914.7109 L518,924.7109 L227,924.7109 L227,906.3594 " fill="#EEEEEE" style="stroke:#000000;stroke-width:1.5;"/><rect fill="none" height="61.7031" style="stroke:#000000;stroke-width:1.5;" width="306" x="227" y="906.3594"/><text fill="#000000" font-family="sans-serif" font-size="13" font-weight="bold" lengthAdjust="spacing" textLength="256" x="242" y="920.8545">Send Trade And Position Status Updates</text><line style="stroke:#181818;stroke-width:1.0;" x1="278.5" x2="320.5" y1="947.0625" y2="947.0625"/><line style="stroke:#181818;stroke-width:1.0;" x1="320.5" x2="320.5" y1="947.0625" y2="960.0625"/><line style="stroke:#181818;stroke-width:1.0;" x1="279.5" x2="320.5" y1="960.0625" y2="960.0625"/><polygon fill="#181818" points="289.5,956.0625,279.5,960.0625,289.5,964.0625,285.5,960.0625" style="stroke:#181818;stroke-width:1.0;"/><text fill="#000000" font-family="sans-serif" font-size="13" lengthAdjust="spacing" textLength="229" x="285.5" y="942.2061">Update Trade And Position Status View</text><path d="M140,996.0625 L324,996.0625 L324,1004.4141 L314,1014.4141 L140,1014.4141 L140,996.0625 " fill="#EEEEEE" style="stroke:#000000;stroke-width:1.5;"/><rect fill="none" height="267.1641" style="stroke:#000000;stroke-width:1.5;" width="1004" x="140" y="996.0625"/><text fill="#000000" font-family="sans-serif" font-size="13" font-weight="bold" lengthAdjust="spacing" textLength="139" x="155" y="1010.5576">Trader - Cancel Trade</text><polygon fill="#181818" points="266.5,1032.7656,276.5,1036.7656,266.5,1040.7656,270.5,1036.7656" style="stroke:#181818;stroke-width:1.0;"/><line style="stroke:#181818;stroke-width:1.0;" x1="178.5" x2="272.5" y1="1036.7656" y2="1036.7656"/><text fill="#000000" font-family="sans-serif" font-size="13" lengthAdjust="spacing" textLength="76" x="185.5" y="1031.9092">Cancel Trade</text><path d="M227,1051.7656 L357,1051.7656 L357,1060.1172 L347,1070.1172 L227,1070.1172 L227,1051.7656 " fill="#EEEEEE" style="stroke:#000000;stroke-width:1.5;"/><rect fill="none" height="204.4609" style="stroke:#000000;stroke-width:1.5;" width="907" x="227" y="1051.7656"/><text fill="#000000" font-family="sans-serif" font-size="13" font-weight="bold" lengthAdjust="spacing" textLength="85" x="242" y="1066.2607">Cancel Trade</text><polygon fill="#181818" points="528.5,1088.4688,538.5,1092.4688,528.5,1096.4688,532.5,1092.4688" style="stroke:#181818;stroke-width:1.0;"/><line style="stroke:#181818;stroke-width:1.0;" x1="278.5" x2="534.5" y1="1092.4688" y2="1092.4688"/><text fill="#000000" font-family="sans-serif" font-size="13" lengthAdjust="spacing" textLength="76" x="285.5" y="1087.6123">Cancel Trade</text><path d="M495.5,1107.4688 L625.5,1107.4688 L625.5,1115.8203 L615.5,1125.8203 L495.5,1125.8203 L495.5,1107.4688 " fill="#EEEEEE" style="stroke:#000000;stroke-width:1.5;"/><rect fill="none" height="141.7578" style="stroke:#000000;stroke-width:1.5;" width="628.5" x="495.5" y="1107.4688"/><text fill="#000000" font-family="sans-serif" font-size="13" font-weight="bold" lengthAdjust="spacing" textLength="85" x="510.5" y="1121.9639">Cancel Trade</text><polygon fill="#181818" points="809,1144.1719,819,1148.1719,809,1152.1719,813,1148.1719" style="stroke:#181818;stroke-width:1.0;"/><line style="stroke:#181818;stroke-width:1.0;" x1="540.5" x2="815" y1="1148.1719" y2="1148.1719"/><text fill="#000000" font-family="sans-serif" font-size="13" lengthAdjust="spacing" textLength="76" x="547.5" y="1143.3154">Cancel Trade</text><path d="M750.5,1163.1719 L880.5,1163.1719 L880.5,1171.5234 L870.5,1181.5234 L750.5,1181.5234 L750.5,1163.1719 " fill="#EEEEEE" style="stroke:#000000;stroke-width:1.5;"/><rect fill="none" height="79.0547" style="stroke:#000000;stroke-width:1.5;" width="363.5" x="750.5" y="1163.1719"/><text fill="#000000" font-family="sans-serif" font-size="13" font-weight="bold" lengthAdjust="spacing" textLength="85" x="765.5" y="1177.667">Cancel Trade</text><polygon fill="#181818" points="953,1199.875,963,1203.875,953,1207.875,957,1203.875" style="stroke:#181818;stroke-width:1.0;"/><line style="stroke:#181818;stroke-width:1.0;" x1="821" x2="959" y1="1203.875" y2="1203.875"/><text fill="#000000" font-family="sans-serif" font-size="13" lengthAdjust="spacing" textLength="119" x="828" y="1199.0186">Update Trade Status</text><polygon fill="#181818" points="1047.5,1230.2266,1057.5,1234.2266,1047.5,1238.2266,1051.5,1234.2266" style="stroke:#181818;stroke-width:1.0;"/><line style="stroke:#181818;stroke-width:1.0;" x1="821" x2="1053.5" y1="1234.2266" y2="1234.2266"/><text fill="#000000" font-family="sans-serif" font-size="13" lengthAdjust="spacing" textLength="143" x="828" y="1229.3701">Send Updates To Trades</text><!--SRC=[pLR1Rk8m4BtxAsRPqnxA1-nXfHRQghSAsYrN4wRKKh2pzeJIlzynYGC9QNTZKYWIaXDvthoCvtdUjypAvKf2AjzCJk1MI59B8KXHYd2zmIGdX0Sh5-ZW0gRu9qUT82z7HfDK6YsakCRqXn2PjAGIbKbDCBZU45ejKxYt9a7d1Y1TWMDdmyk4Z7N3iAVSKWSezhQ55Oz2pCqcR9iDuFlJYo8KmByQpXFEOPGgr5J3cffdUfKMfs-ES1L0PyFgizoG8ul0Tj3Rnxi8H8uwX9lWCzfjNSUI95VPhbM2NT4h50zIOXpcye5ABqCIrpLB6H_2jmaMd70k7LR70UEh65n-DRvgfunmWxY80lM1xu6MhMTi578LBL0lWFjH2B6q9izA92yJYp8e22PUFev4QqF3nQ-exeIVjIGbWTghADZETBYrU-VYCRiHQLC1qxf5ufPFSgj8STT-Dek6IlgjInEyExMjq9ZKdNPewPtkF0qJhqvcClKAglFWDxL_KRJcO66DXTM78ciCcnYgbTmzN-BBfAHKhEFHugismGJL6eyxmEEOb9qqnHGJWb5khRyyxerZeHdjpaD6LZNXio4y7ubGXtFms5VMOyOpcWNwO4epzoMexBhadnhdQzsYUu6TdUjNuDNyEahOqREYAUYZpkipM4G9Eeh8lh7PcmgNlAgfANU1NpYj_zjy6ZDKVKAHzWDUlnM-jiovdOEKR6RIXalepJdkWvUkf2tVIPnZhrnwyMpzCUhFizKQgkYXCrgsmukgQTl4Nm00]--></g></svg>