<?xml version="1.0" encoding="us-ascii" standalone="no"?><svg xmlns="http://www.w3.org/2000/svg" xmlns:xlink="http://www.w3.org/1999/xlink" contentStyleType="text/css" height="383px" preserveAspectRatio="none" style="width:388px;height:383px;background:#FFFFFF;" version="1.1" viewBox="0 0 388 383" width="388px" zoomAndPan="magnify"><defs/><g><text fill="#000000" font-family="sans-serif" font-size="14" font-weight="bold" lengthAdjust="spacing" textLength="300" x="45.5" y="29.5332">Execute Trades - Sequence - Context level</text><rect fill="none" height="48.7031" style="stroke:#000000;stroke-width:1.5;" width="242" x="140" y="93.2188"/><rect fill="none" height="48.7031" style="stroke:#000000;stroke-width:1.5;" width="313" x="10" y="155.9219"/><rect fill="none" height="48.7031" style="stroke:#000000;stroke-width:1.5;" width="311" x="10" y="218.625"/><rect fill="none" height="48.7031" style="stroke:#000000;stroke-width:1.5;" width="189" x="140" y="281.3281"/><line style="stroke:#181818;stroke-width:0.5;stroke-dasharray:5.0,5.0;" x1="80" x2="80" y1="76.2188" y2="347.0313"/><line style="stroke:#181818;stroke-width:0.5;stroke-dasharray:5.0,5.0;" x1="178" x2="178" y1="76.2188" y2="347.0313"/><line style="stroke:#181818;stroke-width:0.5;stroke-dasharray:5.0,5.0;" x1="278" x2="278" y1="76.2188" y2="347.0313"/><rect fill="#E2E2F0" height="31.6094" rx="2.5" ry="2.5" style="stroke:#181818;stroke-width:0.5;" width="120" x="20" y="43.6094"/><text fill="#000000" font-family="sans-serif" font-size="14" lengthAdjust="spacing" textLength="106" x="27" y="65.1426">External Process</text><rect fill="#E2E2F0" height="31.6094" rx="2.5" ry="2.5" style="stroke:#181818;stroke-width:0.5;" width="120" x="20" y="346.0313"/><text fill="#000000" font-family="sans-serif" font-size="14" lengthAdjust="spacing" textLength="106" x="27" y="367.5645">External Process</text><rect fill="#E2E2F0" height="31.6094" rx="2.5" ry="2.5" style="stroke:#181818;stroke-width:0.5;" width="57" x="150" y="43.6094"/><text fill="#000000" font-family="sans-serif" font-size="14" lengthAdjust="spacing" textLength="43" x="157" y="65.1426">Trader</text><rect fill="#E2E2F0" height="31.6094" rx="2.5" ry="2.5" style="stroke:#181818;stroke-width:0.5;" width="57" x="150" y="346.0313"/><text fill="#000000" font-family="sans-serif" font-size="14" lengthAdjust="spacing" textLength="43" x="157" y="367.5645">Trader</text><rect fill="#E2E2F0" height="31.6094" rx="2.5" ry="2.5" style="stroke:#181818;stroke-width:0.5;" width="65" x="246" y="43.6094"/><text fill="#000000" font-family="sans-serif" font-size="14" lengthAdjust="spacing" textLength="51" x="253" y="65.1426">TraderX</text><rect fill="#E2E2F0" height="31.6094" rx="2.5" ry="2.5" style="stroke:#181818;stroke-width:0.5;" width="65" x="246" y="346.0313"/><text fill="#000000" font-family="sans-serif" font-size="14" lengthAdjust="spacing" textLength="51" x="253" y="367.5645">TraderX</text><path d="M140,93.2188 L377,93.2188 L377,101.5703 L367,111.5703 L140,111.5703 L140,93.2188 " fill="#EEEEEE" style="stroke:#000000;stroke-width:1.5;"/><rect fill="none" height="48.7031" style="stroke:#000000;stroke-width:1.5;" width="242" x="140" y="93.2188"/><text fill="#000000" font-family="sans-serif" font-size="13" font-weight="bold" lengthAdjust="spacing" textLength="192" x="155" y="107.7139">Trader - Create Trade Request</text><polygon fill="#181818" points="266.5,129.9219,276.5,133.9219,266.5,137.9219,270.5,133.9219" style="stroke:#181818;stroke-width:1.0;"/><line style="stroke:#181818;stroke-width:1.0;" x1="178.5" x2="272.5" y1="133.9219" y2="133.9219"/><text fill="#000000" font-family="sans-serif" font-size="13" lengthAdjust="spacing" textLength="74" x="185.5" y="129.0654">Create Trade</text><path d="M10,155.9219 L318,155.9219 L318,164.2734 L308,174.2734 L10,174.2734 L10,155.9219 " fill="#EEEEEE" style="stroke:#000000;stroke-width:1.5;"/><rect fill="none" height="48.7031" style="stroke:#000000;stroke-width:1.5;" width="313" x="10" y="155.9219"/><text fill="#000000" font-family="sans-serif" font-size="13" font-weight="bold" lengthAdjust="spacing" textLength="263" x="25" y="170.417">External Process - Process Trade Request</text><polygon fill="#181818" points="266.5,192.625,276.5,196.625,266.5,200.625,270.5,196.625" style="stroke:#181818;stroke-width:1.0;"/><line style="stroke:#181818;stroke-width:1.0;" x1="80" x2="272.5" y1="196.625" y2="196.625"/><text fill="#000000" font-family="sans-serif" font-size="13" lengthAdjust="spacing" textLength="28" x="87" y="191.7686">Start</text><path d="M10,218.625 L295,218.625 L295,226.9766 L285,236.9766 L10,236.9766 L10,218.625 " fill="#EEEEEE" style="stroke:#000000;stroke-width:1.5;"/><rect fill="none" height="48.7031" style="stroke:#000000;stroke-width:1.5;" width="311" x="10" y="218.625"/><text fill="#000000" font-family="sans-serif" font-size="13" font-weight="bold" lengthAdjust="spacing" textLength="240" x="25" y="233.1201">External Process - Refresh Web Client</text><polygon fill="#181818" points="266.5,255.3281,276.5,259.3281,266.5,263.3281,270.5,259.3281" style="stroke:#181818;stroke-width:1.0;"/><line style="stroke:#181818;stroke-width:1.0;" x1="80" x2="272.5" y1="259.3281" y2="259.3281"/><text fill="#000000" font-family="sans-serif" font-size="13" lengthAdjust="spacing" textLength="28" x="87" y="254.4717">Start</text><path d="M140,281.3281 L324,281.3281 L324,289.6797 L314,299.6797 L140,299.6797 L140,281.3281 " fill="#EEEEEE" style="stroke:#000000;stroke-width:1.5;"/><rect fill="none" height="48.7031" style="stroke:#000000;stroke-width:1.5;" width="189" x="140" y="281.3281"/><text fill="#000000" font-family="sans-serif" font-size="13" font-weight="bold" lengthAdjust="spacing" textLength="139" x="155" y="295.8232">Trader - Cancel Trade</text><polygon fill="#181818" points="266.5,318.0313,276.5,322.0313,266.5,326.0313,270.5,322.0313" style="stroke:#181818;stroke-width:1.0;"/><line style="stroke:#181818;stroke-width:1.0;" x1="178.5" x2="272.5" y1="322.0313" y2="322.0313"/><text fill="#000000" font-family="sans-serif" font-size="13" lengthAdjust="spacing" textLength="76" x="185.5" y="317.1748">Cancel Trade</text><!--SRC=[jPB1QiD034Jl-nLgxia7z10e8VSI1-AhkfcaXlMk8ycjy_UriKthOD92oKqBetaxWvuguNF95FYQQYCjOHpPEIiiWBODV6sWlV0HIalASAaHFTfnawAXCGhuG72kOh725nL7eyMsCKZaGA-IF5GNnDgRIBvwyPP4LwDca4mDUktSMl-SK-SJUPPEzic2xAg6SjpBdJjBggj1riKGy9YGTbqyDJVBfENwDtTwdlWvnEF0kssa9O_JNVHDIt_xGsPjE_VXEvm4-au7lD4c58YF8N_NpEtLXA6M_zJxqwVZk2y0]--></g></svg>