<?xml version="1.0" encoding="us-ascii" standalone="no"?><svg xmlns="http://www.w3.org/2000/svg" xmlns:xlink="http://www.w3.org/1999/xlink" contentStyleType="text/css" height="367px" preserveAspectRatio="none" style="width:318px;height:367px;background:#FFFFFF;" version="1.1" viewBox="0 0 318 367" width="318px" zoomAndPan="magnify"><defs/><g><text fill="#000000" font-family="sans-serif" font-size="14" font-weight="bold" lengthAdjust="spacing" textLength="290" x="10" y="24.5332">Execute Trades - C4 Static - Context level</text><!--entity TraderX.Actors.Trader--><g id="elem_TraderX.Actors.Trader"><ellipse cx="74.25" cy="67.1094" fill="#08427B" rx="16" ry="16" style="stroke:#073B6F;stroke-width:0.5;"/><path d="M74.25,87.1094 C78.25,87.1094 81.25,87.1094 85.25,83.1094 C93.25,83.1094 101.25,91.1094 101.25,99.1094 L101.25,103.1094 C101.25,107.1094 97.25,111.1094 93.25,111.1094 L55.25,111.1094 C51.25,111.1094 47.25,107.1094 47.25,103.1094 L47.25,99.1094 C47.25,91.1094 55.25,83.1094 63.25,83.1094 C67.25,87.1094 70.25,87.1094 74.25,87.1094 " fill="#08427B" style="stroke:#073B6F;stroke-width:0.5;"/><text fill="#08427B" font-family="sans-serif" font-size="16" font-weight="bold" lengthAdjust="spacing" textLength="50" x="49.25" y="128.2188">Trader</text></g><!--entity TraderX.SoftwareSystems.TraderX--><g id="elem_TraderX.SoftwareSystems.TraderX"><rect fill="#1168BD" height="75.3438" rx="2.5" ry="2.5" style="stroke:#3C7FC0;stroke-width:0.5;" width="81" x="93.75" y="199.6094"/><text fill="#FFFFFF" font-family="sans-serif" font-size="16" font-weight="bold" lengthAdjust="spacing" textLength="61" x="103.75" y="226.2188">TraderX</text><text fill="#FFFFFF" font-family="sans-serif" font-size="14" lengthAdjust="spacing" textLength="4" x="132.25" y="244.2676">&#160;</text><text fill="#FFFFFF" font-family="sans-serif" font-size="14" lengthAdjust="spacing" textLength="51" x="108.75" y="261.877">TraderX</text></g><!--entity TraderX.Actors.ExternalProcess--><g id="elem_TraderX.Actors.ExternalProcess"><rect fill="#1168BD" height="40.125" rx="2.5" ry="2.5" style="stroke:#3C7FC0;stroke-width:0.5;" width="150" x="120.25" y="71.1094"/><text fill="#FFFFFF" font-family="sans-serif" font-size="16" font-weight="bold" lengthAdjust="spacing" textLength="63" x="130.25" y="97.7188">External</text><text fill="#FFFFFF" font-family="sans-serif" font-size="16" font-weight="bold" lengthAdjust="spacing" textLength="4" x="193.25" y="97.7188">&#160;</text><text fill="#FFFFFF" font-family="sans-serif" font-size="16" font-weight="bold" lengthAdjust="spacing" textLength="63" x="197.25" y="97.7188">Process</text></g><polygon fill="none" points="118.984,199.4709,118.6763,190.9324,113.1378,193.2401,118.984,199.4709" style="stroke:#666666;stroke-width:1.0;"/><path d="M90.8041,131.8392 C99.6145,152.9843 107.2989,171.4267 115.907,192.0863 " fill="none" style="stroke:#666666;stroke-width:1.0;"/><text fill="#666666" font-family="sans-serif" font-size="12" font-weight="bold" lengthAdjust="spacing" textLength="29" x="121.75" y="163.0664">Uses</text><text fill="#666666" font-family="sans-serif" font-size="12" font-weight="bold" lengthAdjust="spacing" textLength="46" x="113.25" y="178.1602">[HTTPS]</text><polygon fill="none" points="155.4493,199.6007,161.8305,193.9191,156.5213,191.1242,155.4493,199.6007" style="stroke:#666666;stroke-width:1.0;"/><path d="M189.6327,111.3275 C184.0209,129.7012 174.7374,158.0186 164.25,181.6094 C161.6175,187.531 162.2977,186.5915 159.1759,192.5217 " fill="none" style="stroke:#666666;stroke-width:1.0;"/><text fill="#666666" font-family="sans-serif" font-size="12" font-weight="bold" lengthAdjust="spacing" textLength="29" x="178.25" y="170.5664">Uses</text><rect fill="none" height="17.6094" style="stroke:none;stroke-width:1.0;" width="78" x="174.25" y="287.6094"/><text fill="#000000" font-family="sans-serif" font-size="14" font-weight="bold" lengthAdjust="spacing" textLength="53" x="174.25" y="302.1426">Legend</text><text fill="#FFFFFF" font-family="sans-serif" font-size="14" lengthAdjust="spacing" textLength="4" x="227.25" y="302.1426">&#160;</text><rect fill="#08427B" height="17.6094" style="stroke:none;stroke-width:1.0;" width="78" x="174.25" y="305.2188"/><text fill="#073B6F" font-family="sans-serif" font-size="14" lengthAdjust="spacing" textLength="14" x="178.25" y="319.752">&#9647;</text><text fill="#FFFFFF" font-family="sans-serif" font-size="14" lengthAdjust="spacing" textLength="4" x="192.25" y="319.752">&#160;</text><text fill="#FFFFFF" font-family="sans-serif" font-size="14" lengthAdjust="spacing" textLength="44" x="200.25" y="319.752">person</text><text fill="#FFFFFF" font-family="sans-serif" font-size="14" lengthAdjust="spacing" textLength="4" x="248.25" y="319.752">&#160;</text><rect fill="#1168BD" height="17.6094" style="stroke:none;stroke-width:1.0;" width="78" x="174.25" y="322.8281"/><text fill="#3C7FC0" font-family="sans-serif" font-size="14" lengthAdjust="spacing" textLength="14" x="178.25" y="337.3613">&#9647;</text><text fill="#FFFFFF" font-family="sans-serif" font-size="14" lengthAdjust="spacing" textLength="4" x="192.25" y="337.3613">&#160;</text><text fill="#FFFFFF" font-family="sans-serif" font-size="14" lengthAdjust="spacing" textLength="44" x="200.25" y="337.3613">system</text><text fill="#FFFFFF" font-family="sans-serif" font-size="14" lengthAdjust="spacing" textLength="4" x="248.25" y="337.3613">&#160;</text><line style="stroke:none;stroke-width:1.0;" x1="174.25" x2="252.25" y1="287.6094" y2="287.6094"/><line style="stroke:none;stroke-width:1.0;" x1="174.25" x2="252.25" y1="305.2188" y2="305.2188"/><line style="stroke:none;stroke-width:1.0;" x1="174.25" x2="252.25" y1="322.8281" y2="322.8281"/><line style="stroke:none;stroke-width:1.0;" x1="174.25" x2="252.25" y1="340.4375" y2="340.4375"/><line style="stroke:none;stroke-width:1.0;" x1="174.25" x2="174.25" y1="287.6094" y2="340.4375"/><line style="stroke:none;stroke-width:1.0;" x1="252.25" x2="252.25" y1="287.6094" y2="340.4375"/><!--SRC=[ZLB1Rk8m4BtdAzpiIYLIDoTEbJWWchOhLIGYgQ0ggyXDXX2jOqVZeS3Vhuqf1C6gH3budjwRzsRicnPvrN0c-5QjYEa6Y4lktTIo4AiIM1ZExL_qzNpKpqTA4cmeR5UDyBnXMKO26f2KyQhdQ-84znBM_Xtx-L6Db50ug110cdfXb0xviTXzbgEm13pbwIKlrRgMrS1_v4A37rosAPPSLb1shHHQw0gl0_5QCuH6VPwQ8PHNE3dM1HlhCm5nlZUxtjEDY5f21mdEfPrT7EM78Ozw1rreq9dlsC1bFwfDRNAdp_4qJw996e_p99vaa-7lh1TuByEt-3NBipZ97-Bfs22U_blBbYDlcEr1snPOgyJM5fv7DGbWqGQA5G7Ba9UWsIyswhFK9AeBUtPlZGdu1FFO4a2jP6z7nLauB4YX3brvntntC1FuPhlfLXCq1swg5hJc20x-4iqEgfdVEPwfzqxHXW0b5mcg0hGsYY-4xQ6zkMTs-x-OtoTwrQ3dylqvovBqp-v2UAK7joqgKeKIzqkYLjy6bqpE4bxdPYExQts9dgBnGo_u1m00]--></g></svg>