<?xml version="1.0" encoding="us-ascii" standalone="no"?><svg xmlns="http://www.w3.org/2000/svg" xmlns:xlink="http://www.w3.org/1999/xlink" contentStyleType="text/css" height="382px" preserveAspectRatio="none" style="width:275px;height:382px;background:#FFFFFF;" version="1.1" viewBox="0 0 275 382" width="275px" zoomAndPan="magnify"><defs/><g><text fill="#000000" font-family="sans-serif" font-size="14" font-weight="bold" lengthAdjust="spacing" textLength="247" x="10" y="24.5332">Execute Trades - C4 - Context level</text><!--entity TraderX.Actors.Trader--><g id="elem_TraderX.Actors.Trader"><ellipse cx="52.75" cy="67.1094" fill="#08427B" rx="16" ry="16" style="stroke:#073B6F;stroke-width:0.5;"/><path d="M52.75,87.1094 C56.75,87.1094 59.75,87.1094 63.75,83.1094 C71.75,83.1094 79.75,91.1094 79.75,99.1094 L79.75,103.1094 C79.75,107.1094 75.75,111.1094 71.75,111.1094 L33.75,111.1094 C29.75,111.1094 25.75,107.1094 25.75,103.1094 L25.75,99.1094 C25.75,91.1094 33.75,83.1094 41.75,83.1094 C45.75,87.1094 48.75,87.1094 52.75,87.1094 " fill="#08427B" style="stroke:#073B6F;stroke-width:0.5;"/><text fill="#08427B" font-family="sans-serif" font-size="16" font-weight="bold" lengthAdjust="spacing" textLength="50" x="27.75" y="128.2188">Trader</text></g><!--entity TraderX.SoftwareSystems.TraderX--><g id="elem_TraderX.SoftwareSystems.TraderX"><rect fill="#1168BD" height="75.3438" rx="2.5" ry="2.5" style="stroke:#3C7FC0;stroke-width:0.5;" width="81" x="72.25" y="214.6094"/><text fill="#FFFFFF" font-family="sans-serif" font-size="16" font-weight="bold" lengthAdjust="spacing" textLength="61" x="82.25" y="241.2188">TraderX</text><text fill="#FFFFFF" font-family="sans-serif" font-size="14" lengthAdjust="spacing" textLength="4" x="110.75" y="259.2676">&#160;</text><text fill="#FFFFFF" font-family="sans-serif" font-size="14" lengthAdjust="spacing" textLength="51" x="87.25" y="276.877">TraderX</text></g><!--entity TraderX.Actors.ExternalProcess--><g id="elem_TraderX.Actors.ExternalProcess"><rect fill="#1168BD" height="40.125" rx="2.5" ry="2.5" style="stroke:#3C7FC0;stroke-width:0.5;" width="150" x="98.75" y="71.1094"/><text fill="#FFFFFF" font-family="sans-serif" font-size="16" font-weight="bold" lengthAdjust="spacing" textLength="63" x="108.75" y="97.7188">External</text><text fill="#FFFFFF" font-family="sans-serif" font-size="16" font-weight="bold" lengthAdjust="spacing" textLength="4" x="171.75" y="97.7188">&#160;</text><text fill="#FFFFFF" font-family="sans-serif" font-size="16" font-weight="bold" lengthAdjust="spacing" textLength="63" x="175.75" y="97.7188">Process</text></g><polygon fill="none" points="84.2938,214.4513,82.594,206.0781,77.5075,209.2604,84.2938,214.4513" style="stroke:#666666;stroke-width:1.0;"/><path d="M57.3027,131.9621 C60.5328,151.9515 65.9187,176.1892 74.75,196.6094 C77.3598,202.644 76.4483,201.9111 80.0507,207.6692 " fill="none" style="stroke:#666666;stroke-width:1.0;"/><text fill="#666666" font-family="sans-serif" font-size="12" font-weight="bold" lengthAdjust="spacing" textLength="74" x="76.25" y="163.0664">Create Trade</text><text fill="#666666" font-family="sans-serif" font-size="12" font-weight="bold" lengthAdjust="spacing" textLength="75" x="75.75" y="178.1602">Cancel Trade</text><text fill="#666666" font-family="sans-serif" font-size="12" font-weight="bold" lengthAdjust="spacing" textLength="46" x="90.25" y="193.2539">[HTTPS]</text><polygon fill="none" points="141.971,214.5169,148.8127,209.3991,143.7605,206.1624,141.971,214.5169" style="stroke:#666666;stroke-width:1.0;"/><path d="M172.0983,111.3293 C169.7115,132.8612 164.1392,168.4367 151.75,196.6094 C149.0803,202.6802 149.9816,202.0133 146.2866,207.7807 " fill="none" style="stroke:#666666;stroke-width:1.0;"/><text fill="#666666" font-family="sans-serif" font-size="12" font-weight="bold" lengthAdjust="spacing" textLength="28" x="166.75" y="178.0664">Start</text><rect fill="none" height="17.6094" style="stroke:none;stroke-width:1.0;" width="78" x="152.75" y="302.6094"/><text fill="#000000" font-family="sans-serif" font-size="14" font-weight="bold" lengthAdjust="spacing" textLength="53" x="152.75" y="317.1426">Legend</text><text fill="#FFFFFF" font-family="sans-serif" font-size="14" lengthAdjust="spacing" textLength="4" x="205.75" y="317.1426">&#160;</text><rect fill="#08427B" height="17.6094" style="stroke:none;stroke-width:1.0;" width="78" x="152.75" y="320.2188"/><text fill="#073B6F" font-family="sans-serif" font-size="14" lengthAdjust="spacing" textLength="14" x="156.75" y="334.752">&#9647;</text><text fill="#FFFFFF" font-family="sans-serif" font-size="14" lengthAdjust="spacing" textLength="4" x="170.75" y="334.752">&#160;</text><text fill="#FFFFFF" font-family="sans-serif" font-size="14" lengthAdjust="spacing" textLength="44" x="178.75" y="334.752">person</text><text fill="#FFFFFF" font-family="sans-serif" font-size="14" lengthAdjust="spacing" textLength="4" x="226.75" y="334.752">&#160;</text><rect fill="#1168BD" height="17.6094" style="stroke:none;stroke-width:1.0;" width="78" x="152.75" y="337.8281"/><text fill="#3C7FC0" font-family="sans-serif" font-size="14" lengthAdjust="spacing" textLength="14" x="156.75" y="352.3613">&#9647;</text><text fill="#FFFFFF" font-family="sans-serif" font-size="14" lengthAdjust="spacing" textLength="4" x="170.75" y="352.3613">&#160;</text><text fill="#FFFFFF" font-family="sans-serif" font-size="14" lengthAdjust="spacing" textLength="44" x="178.75" y="352.3613">system</text><text fill="#FFFFFF" font-family="sans-serif" font-size="14" lengthAdjust="spacing" textLength="4" x="226.75" y="352.3613">&#160;</text><line style="stroke:none;stroke-width:1.0;" x1="152.75" x2="230.75" y1="302.6094" y2="302.6094"/><line style="stroke:none;stroke-width:1.0;" x1="152.75" x2="230.75" y1="320.2188" y2="320.2188"/><line style="stroke:none;stroke-width:1.0;" x1="152.75" x2="230.75" y1="337.8281" y2="337.8281"/><line style="stroke:none;stroke-width:1.0;" x1="152.75" x2="230.75" y1="355.4375" y2="355.4375"/><line style="stroke:none;stroke-width:1.0;" x1="152.75" x2="152.75" y1="302.6094" y2="355.4375"/><line style="stroke:none;stroke-width:1.0;" x1="230.75" x2="230.75" y1="302.6094" y2="355.4375"/><!--SRC=[ZL9TQzj047pNhxYeXLYGwibF0JyOHMaAmHAMIbpg8ZRIMXOztOczTMp_-vuiVyZO9HQ7k1rsTkRcxguXA6iG4hPwnSBKoA30kQjKBbS52j-VjoiVcdamp0Aj63ViDwjQEiwuA4A9DIfEeHouXe7nKU7QVH1Vtyj0IqsZaX2LhHUMsI5V5hklxT5K89ttcIKKUbsfSkG-WpJeUjTbyYMe4ek-bAOMka7hs7Yh666jFyx528iRbBgkApAjpXJbPMvjlEU9o4fX3_4kgRqiJlJZ8K_y3heoe7U-qu3E-ubjQ-ixUOdUiZYS9j4aYwDfEXt_I0UUyph-5VrCipIAiwVeRM8Hn_ojL0C4jMXdyBP1qMYvRGl7uOebYd23-OfHf0G56l5D1CFsrpqo8V43xIkBaOnMWrqFpVnnpfgCtvKFmkqsrhfhOqssXh4-zYPwmMiWxE03QNPapTpUzeAzLmetZAH0ngHpDCOo3eZOGtjnnuRwFvkVEme8uH35N0MWSfI7wlTBciR9dztzG6b6zmrfrhcMZqlcnjnxrwGlV7_k8M4WRa_INVDh-3sSF0syVm00]--></g></svg>