<?xml version="1.0" encoding="us-ascii" standalone="no"?><svg xmlns="http://www.w3.org/2000/svg" xmlns:xlink="http://www.w3.org/1999/xlink" contentStyleType="text/css" height="318px" preserveAspectRatio="none" style="width:924px;height:318px;background:#FFFFFF;" version="1.1" viewBox="0 0 924 318" width="924px" zoomAndPan="magnify"><defs/><g><text fill="#000000" font-family="sans-serif" font-size="14" font-weight="bold" lengthAdjust="spacing" textLength="896" x="10" y="29.5332">ECommercePlatform - Deliver - CustomerManagement - CRM App - Update Order Fraud Check Result - Sequence - Context level</text><rect fill="none" height="141.7578" style="stroke:#000000;stroke-width:1.5;" width="428" x="344.75" y="123.5703"/><rect fill="none" height="79.0547" style="stroke:#000000;stroke-width:1.5;" width="334" x="428.75" y="179.2734"/><line style="stroke:#181818;stroke-width:0.5;stroke-dasharray:5.0,5.0;" x1="171.25" x2="171.25" y1="76.2188" y2="282.3281"/><line style="stroke:#181818;stroke-width:0.5;stroke-dasharray:5.0,5.0;" x1="391.75" x2="391.75" y1="76.2188" y2="282.3281"/><line style="stroke:#181818;stroke-width:0.5;stroke-dasharray:5.0,5.0;" x1="489.75" x2="489.75" y1="76.2188" y2="282.3281"/><line style="stroke:#181818;stroke-width:0.5;stroke-dasharray:5.0,5.0;" x1="698.75" x2="698.75" y1="76.2188" y2="282.3281"/><rect fill="#E2E2F0" height="31.6094" rx="2.5" ry="2.5" style="stroke:#181818;stroke-width:0.5;" width="65" x="139.25" y="43.6094"/><text fill="#000000" font-family="sans-serif" font-size="14" lengthAdjust="spacing" textLength="51" x="146.25" y="65.1426">External</text><rect fill="#E2E2F0" height="31.6094" rx="2.5" ry="2.5" style="stroke:#181818;stroke-width:0.5;" width="65" x="139.25" y="281.3281"/><text fill="#000000" font-family="sans-serif" font-size="14" lengthAdjust="spacing" textLength="51" x="146.25" y="302.8613">External</text><rect fill="#E2E2F0" height="31.6094" rx="2.5" ry="2.5" style="stroke:#181818;stroke-width:0.5;" width="74" x="354.75" y="43.6094"/><text fill="#000000" font-family="sans-serif" font-size="14" lengthAdjust="spacing" textLength="60" x="361.75" y="65.1426">CRM App</text><rect fill="#E2E2F0" height="31.6094" rx="2.5" ry="2.5" style="stroke:#181818;stroke-width:0.5;" width="74" x="354.75" y="281.3281"/><text fill="#000000" font-family="sans-serif" font-size="14" lengthAdjust="spacing" textLength="60" x="361.75" y="302.8613">CRM App</text><rect fill="#E2E2F0" height="31.6094" rx="2.5" ry="2.5" style="stroke:#181818;stroke-width:0.5;" width="103" x="438.75" y="43.6094"/><text fill="#000000" font-family="sans-serif" font-size="14" lengthAdjust="spacing" textLength="89" x="445.75" y="65.1426">Fraud Service</text><rect fill="#E2E2F0" height="31.6094" rx="2.5" ry="2.5" style="stroke:#181818;stroke-width:0.5;" width="103" x="438.75" y="281.3281"/><text fill="#000000" font-family="sans-serif" font-size="14" lengthAdjust="spacing" textLength="89" x="445.75" y="302.8613">Fraud Service</text><rect fill="#E2E2F0" height="31.6094" rx="2.5" ry="2.5" style="stroke:#181818;stroke-width:0.5;" width="107" x="645.75" y="43.6094"/><text fill="#000000" font-family="sans-serif" font-size="14" lengthAdjust="spacing" textLength="93" x="652.75" y="65.1426">..FraudService</text><rect fill="#E2E2F0" height="31.6094" rx="2.5" ry="2.5" style="stroke:#181818;stroke-width:0.5;" width="107" x="645.75" y="281.3281"/><text fill="#000000" font-family="sans-serif" font-size="14" lengthAdjust="spacing" textLength="93" x="652.75" y="302.8613">..FraudService</text><polygon fill="#181818" points="379.75,104.5703,389.75,108.5703,379.75,112.5703,383.75,108.5703" style="stroke:#181818;stroke-width:1.0;"/><line style="stroke:#181818;stroke-width:1.0;" x1="171.75" x2="385.75" y1="108.5703" y2="108.5703"/><text fill="#000000" font-family="sans-serif" font-size="13" lengthAdjust="spacing" textLength="196" x="178.75" y="103.7139">Update Order Fraud Check Result</text><path d="M344.75,123.5703 L601.75,123.5703 L601.75,131.9219 L591.75,141.9219 L344.75,141.9219 L344.75,123.5703 " fill="#EEEEEE" style="stroke:#000000;stroke-width:1.5;"/><rect fill="none" height="141.7578" style="stroke:#000000;stroke-width:1.5;" width="428" x="344.75" y="123.5703"/><text fill="#000000" font-family="sans-serif" font-size="13" font-weight="bold" lengthAdjust="spacing" textLength="212" x="359.75" y="138.0654">Update Order Fraud Check Result</text><polygon fill="#181818" points="687.25,160.2734,697.25,164.2734,687.25,168.2734,691.25,164.2734" style="stroke:#181818;stroke-width:1.0;"/><line style="stroke:#181818;stroke-width:1.0;" x1="391.75" x2="693.25" y1="164.2734" y2="164.2734"/><text fill="#000000" font-family="sans-serif" font-size="13" lengthAdjust="spacing" textLength="196" x="398.75" y="159.417">Update Order Fraud Check Result</text><path d="M428.75,179.2734 L685.75,179.2734 L685.75,187.625 L675.75,197.625 L428.75,197.625 L428.75,179.2734 " fill="#EEEEEE" style="stroke:#000000;stroke-width:1.5;"/><rect fill="none" height="79.0547" style="stroke:#000000;stroke-width:1.5;" width="334" x="428.75" y="179.2734"/><text fill="#000000" font-family="sans-serif" font-size="13" font-weight="bold" lengthAdjust="spacing" textLength="212" x="443.75" y="193.7686">Update Order Fraud Check Result</text><polygon fill="#181818" points="501.25,215.9766,491.25,219.9766,501.25,223.9766,497.25,219.9766" style="stroke:#181818;stroke-width:1.0;"/><line style="stroke:#181818;stroke-width:1.0;" x1="495.25" x2="698.25" y1="219.9766" y2="219.9766"/><text fill="#000000" font-family="sans-serif" font-size="13" lengthAdjust="spacing" textLength="160" x="507.25" y="215.1201">Update Fraud Check Result</text><polygon fill="#181818" points="501.25,246.3281,491.25,250.3281,501.25,254.3281,497.25,250.3281" style="stroke:#181818;stroke-width:1.0;"/><line style="stroke:#181818;stroke-width:1.0;" x1="495.25" x2="698.25" y1="250.3281" y2="250.3281"/><text fill="#000000" font-family="sans-serif" font-size="13" lengthAdjust="spacing" textLength="185" x="507.25" y="245.4717">Send Fraud Check Result Event</text><!--SRC=[lPF1JiCm38RlUGfhz_N4YGCIAft4OHfQnGD4xRzHaIOXSRlnzhXT4If5AqWLXqXE_EUpVqVXYWqeIrrT8nHuCfeFBjIqfWUOgaMGA6qYEqbljTL7rB3S7UwtTE-zHC- -r0pQXLBKcw2Raj8N5A-qHsnCfytnri0MwAuvopWp6RGmIdaTk2eghuMvoiwCOBLPaOwKtZoACcoCEoMvE_191-JlaL77v5DusOyXGryzOs8h6KmbKqkJ8W8IpXX-SPSZj5M1cHAzzWg_pmyefNvlbzPtInYZsxc7KyVW6Z-hMg8NiPIC1h9OTz-mLsVtbnVxQl1_Y-QmvK-VB6lbif9alzG7]--></g></svg>