<?xml version="1.0" encoding="us-ascii" standalone="no"?><svg xmlns="http://www.w3.org/2000/svg" xmlns:xlink="http://www.w3.org/1999/xlink" contentStyleType="text/css" height="479px" preserveAspectRatio="none" style="width:601px;height:479px;background:#FFFFFF;" version="1.1" viewBox="0 0 601 479" width="601px" zoomAndPan="magnify"><defs/><g><text fill="#000000" font-family="sans-serif" font-size="14" font-weight="bold" lengthAdjust="spacing" textLength="573" x="10" y="29.5332">Trader X Example - TraderX - Web GUI - Cancel Trade - Sequence - Container level</text><rect fill="#FFFFFF" height="422.0859" style="stroke:#181818;stroke-width:0.5;" width="436.5" x="115" y="44.6094"/><text fill="#000000" font-family="sans-serif" font-size="13" font-weight="bold" lengthAdjust="spacing" textLength="51" x="307.75" y="58.1045">TraderX</text><rect fill="none" height="190.8125" style="stroke:#000000;stroke-width:1.5;" width="458.5" x="109" y="192.2734"/><rect fill="none" height="111.7578" style="stroke:#000000;stroke-width:1.5;" width="368.5" x="189" y="264.3281"/><line style="stroke:#181818;stroke-width:0.5;stroke-dasharray:5.0,5.0;" x1="53.5" x2="53.5" y1="128.5703" y2="400.0859"/><line style="stroke:#181818;stroke-width:0.5;stroke-dasharray:5.0,5.0;" x1="154" x2="154" y1="128.5703" y2="400.0859"/><line style="stroke:#181818;stroke-width:0.5;stroke-dasharray:5.0,5.0;" x1="259" x2="259" y1="128.5703" y2="400.0859"/><line style="stroke:#181818;stroke-width:0.5;stroke-dasharray:5.0,5.0;" x1="402.5" x2="402.5" y1="128.5703" y2="400.0859"/><line style="stroke:#181818;stroke-width:0.5;stroke-dasharray:5.0,5.0;" x1="499.5" x2="499.5" y1="128.5703" y2="400.0859"/><rect fill="#E2E2F0" height="31.6094" rx="2.5" ry="2.5" style="stroke:#181818;stroke-width:0.5;" width="65" x="21.5" y="95.9609"/><text fill="#000000" font-family="sans-serif" font-size="14" lengthAdjust="spacing" textLength="51" x="28.5" y="117.4941">External</text><rect fill="#E2E2F0" height="31.6094" rx="2.5" ry="2.5" style="stroke:#181818;stroke-width:0.5;" width="65" x="21.5" y="399.0859"/><text fill="#000000" font-family="sans-serif" font-size="14" lengthAdjust="spacing" textLength="51" x="28.5" y="420.6191">External</text><rect fill="#E2E2F0" height="31.6094" rx="2.5" ry="2.5" style="stroke:#181818;stroke-width:0.5;" width="70" x="119" y="95.9609"/><text fill="#000000" font-family="sans-serif" font-size="14" lengthAdjust="spacing" textLength="56" x="126" y="117.4941">Web GUI</text><rect fill="#E2E2F0" height="31.6094" rx="2.5" ry="2.5" style="stroke:#181818;stroke-width:0.5;" width="70" x="119" y="399.0859"/><text fill="#000000" font-family="sans-serif" font-size="14" lengthAdjust="spacing" textLength="56" x="126" y="420.6191">Web GUI</text><rect fill="#E2E2F0" height="31.6094" rx="2.5" ry="2.5" style="stroke:#181818;stroke-width:0.5;" width="121" x="199" y="95.9609"/><text fill="#000000" font-family="sans-serif" font-size="14" lengthAdjust="spacing" textLength="107" x="206" y="117.4941">Trading Services</text><rect fill="#E2E2F0" height="31.6094" rx="2.5" ry="2.5" style="stroke:#181818;stroke-width:0.5;" width="121" x="199" y="399.0859"/><text fill="#000000" font-family="sans-serif" font-size="14" lengthAdjust="spacing" textLength="107" x="206" y="420.6191">Trading Services</text><text fill="#000000" font-family="sans-serif" font-size="14" lengthAdjust="spacing" textLength="74" x="362.5" y="125.4941">TraderX DB</text><path d="M384.5,74.9609 C384.5,64.9609 402.5,64.9609 402.5,64.9609 C402.5,64.9609 420.5,64.9609 420.5,74.9609 L420.5,100.9609 C420.5,110.9609 402.5,110.9609 402.5,110.9609 C402.5,110.9609 384.5,110.9609 384.5,100.9609 L384.5,74.9609 " fill="#E2E2F0" style="stroke:#181818;stroke-width:1.5;"/><path d="M384.5,74.9609 C384.5,84.9609 402.5,84.9609 402.5,84.9609 C402.5,84.9609 420.5,84.9609 420.5,74.9609 " fill="none" style="stroke:#181818;stroke-width:1.5;"/><text fill="#000000" font-family="sans-serif" font-size="14" lengthAdjust="spacing" textLength="74" x="362.5" y="413.6191">TraderX DB</text><path d="M384.5,426.6953 C384.5,416.6953 402.5,416.6953 402.5,416.6953 C402.5,416.6953 420.5,416.6953 420.5,426.6953 L420.5,452.6953 C420.5,462.6953 402.5,462.6953 402.5,462.6953 C402.5,462.6953 384.5,462.6953 384.5,452.6953 L384.5,426.6953 " fill="#E2E2F0" style="stroke:#181818;stroke-width:1.5;"/><path d="M384.5,426.6953 C384.5,436.6953 402.5,436.6953 402.5,436.6953 C402.5,436.6953 420.5,436.6953 420.5,426.6953 " fill="none" style="stroke:#181818;stroke-width:1.5;"/><path d="M457.5,100.9609 L542.5,100.9609 C547.5,100.9609 547.5,114.7656 547.5,114.7656 C547.5,114.7656 547.5,128.5703 542.5,128.5703 L457.5,128.5703 C452.5,128.5703 452.5,114.7656 452.5,114.7656 C452.5,114.7656 452.5,100.9609 457.5,100.9609 " fill="#E2E2F0" style="stroke:#181818;stroke-width:0.5;"/><path d="M542.5,100.9609 C537.5,100.9609 537.5,114.7656 537.5,114.7656 C537.5,128.5703 542.5,128.5703 542.5,128.5703 " fill="none" style="stroke:#181818;stroke-width:0.5;"/><text fill="#000000" font-family="sans-serif" font-size="14" lengthAdjust="spacing" textLength="75" x="457.5" y="120.4941">Trade Feed</text><path d="M457.5,399.0859 L542.5,399.0859 C547.5,399.0859 547.5,412.8906 547.5,412.8906 C547.5,412.8906 547.5,426.6953 542.5,426.6953 L457.5,426.6953 C452.5,426.6953 452.5,412.8906 452.5,412.8906 C452.5,412.8906 452.5,399.0859 457.5,399.0859 " fill="#E2E2F0" style="stroke:#181818;stroke-width:0.5;"/><path d="M542.5,399.0859 C537.5,399.0859 537.5,412.8906 537.5,412.8906 C537.5,426.6953 542.5,426.6953 542.5,426.6953 " fill="none" style="stroke:#181818;stroke-width:0.5;"/><text fill="#000000" font-family="sans-serif" font-size="14" lengthAdjust="spacing" textLength="75" x="457.5" y="418.6191">Trade Feed</text><polygon fill="#181818" points="142,173.2734,152,177.2734,142,181.2734,146,177.2734" style="stroke:#181818;stroke-width:1.0;"/><line style="stroke:#181818;stroke-width:1.0;" x1="54" x2="148" y1="177.2734" y2="177.2734"/><text fill="#000000" font-family="sans-serif" font-size="13" lengthAdjust="spacing" textLength="76" x="61" y="156.0654">Cancel Trade</text><text fill="#000000" font-family="sans-serif" font-size="13" lengthAdjust="spacing" textLength="49" x="61" y="172.417">[HTTPS]</text><path d="M109,192.2734 L239,192.2734 L239,200.625 L229,210.625 L109,210.625 L109,192.2734 " fill="#EEEEEE" style="stroke:#000000;stroke-width:1.5;"/><rect fill="none" height="190.8125" style="stroke:#000000;stroke-width:1.5;" width="458.5" x="109" y="192.2734"/><text fill="#000000" font-family="sans-serif" font-size="13" font-weight="bold" lengthAdjust="spacing" textLength="85" x="124" y="206.7686">Cancel Trade</text><polygon fill="#181818" points="247.5,245.3281,257.5,249.3281,247.5,253.3281,251.5,249.3281" style="stroke:#181818;stroke-width:1.0;"/><line style="stroke:#181818;stroke-width:1.0;" x1="154" x2="253.5" y1="249.3281" y2="249.3281"/><text fill="#000000" font-family="sans-serif" font-size="13" lengthAdjust="spacing" textLength="76" x="161" y="228.1201">Cancel Trade</text><text fill="#000000" font-family="sans-serif" font-size="13" lengthAdjust="spacing" textLength="49" x="161" y="244.4717">[HTTPS]</text><path d="M189,264.3281 L319,264.3281 L319,272.6797 L309,282.6797 L189,282.6797 L189,264.3281 " fill="#EEEEEE" style="stroke:#000000;stroke-width:1.5;"/><rect fill="none" height="111.7578" style="stroke:#000000;stroke-width:1.5;" width="368.5" x="189" y="264.3281"/><text fill="#000000" font-family="sans-serif" font-size="13" font-weight="bold" lengthAdjust="spacing" textLength="85" x="204" y="278.8232">Cancel Trade</text><polygon fill="#181818" points="390.5,317.3828,400.5,321.3828,390.5,325.3828,394.5,321.3828" style="stroke:#181818;stroke-width:1.0;"/><line style="stroke:#181818;stroke-width:1.0;" x1="259.5" x2="396.5" y1="321.3828" y2="321.3828"/><text fill="#000000" font-family="sans-serif" font-size="13" lengthAdjust="spacing" textLength="119" x="266.5" y="300.1748">Update Trade Status</text><text fill="#000000" font-family="sans-serif" font-size="13" lengthAdjust="spacing" textLength="41" x="266.5" y="316.5264">[JDBC]</text><polygon fill="#181818" points="488,364.0859,498,368.0859,488,372.0859,492,368.0859" style="stroke:#181818;stroke-width:1.0;"/><line style="stroke:#181818;stroke-width:1.0;" x1="259.5" x2="494" y1="368.0859" y2="368.0859"/><text fill="#000000" font-family="sans-serif" font-size="13" lengthAdjust="spacing" textLength="143" x="266.5" y="346.8779">Send Updates To Trades</text><text fill="#000000" font-family="sans-serif" font-size="13" lengthAdjust="spacing" textLength="62" x="266.5" y="363.2295">[SocketIO]</text><!--SRC=[nPDDJyCm38Rl-HLMEQydJXmuT1ymBY2bqoR13bbhHaINbCJTnh_7QRD9sowe4w9IfCIE7x-HtvAc2Y5tgaG72nZlrQRcm2265hoRumeUPbFU3PKfiEfIV9JurI17GiOQKjemey8jLaBKof4kTAqCGJBU4pgZgWIKX-7jrF1nKjbTAkqxxPH3-Uq9DpuzNEpEGgpi7fAe986R-OSc5C3V2JuAREdnSdp7HOEOJezwVShLN7n93LUrMVChtLONw7lY8-P0QVkKYjHAUJo-3KRP5NWEZR8MpFDe3bIO89RNK4EzG5C2Jq48yVkvmU2-znpWxiHbR-RrCSzVv5AidMtgavpetQENlhD1_gtGysQz5RVUOAspcaqNVtIGfAZnBFbfb0sN_oelc8pboU2pJYFxrNQqe53QuXDf-hmCJcoN-040]--></g></svg>