<?xml version="1.0" encoding="us-ascii" standalone="no"?><svg xmlns="http://www.w3.org/2000/svg" xmlns:xlink="http://www.w3.org/1999/xlink" contentStyleType="text/css" height="479px" preserveAspectRatio="none" style="width:601px;height:479px;background:#FFFFFF;" version="1.1" viewBox="0 0 601 479" width="601px" zoomAndPan="magnify"><defs/><g><text fill="#000000" font-family="sans-serif" font-size="14" font-weight="bold" lengthAdjust="spacing" textLength="573" x="10" y="29.5332">Trader X Example - TraderX - Web GUI - Cancel Trade - Sequence - Container level</text><rect fill="#FFFFFF" height="422.0859" style="stroke:#181818;stroke-width:0.5;" width="430.5" x="118" y="44.6094"/><text fill="#000000" font-family="sans-serif" font-size="13" font-weight="bold" lengthAdjust="spacing" textLength="51" x="307.75" y="58.1045">TraderX</text><rect fill="none" height="190.8125" style="stroke:#000000;stroke-width:1.5;" width="452.5" x="112" y="192.2734"/><rect fill="none" height="111.7578" style="stroke:#000000;stroke-width:1.5;" width="362.5" x="192" y="264.3281"/><line style="stroke:#181818;stroke-width:0.5;stroke-dasharray:5.0,5.0;" x1="56.5" x2="56.5" y1="128.5703" y2="400.0859"/><line style="stroke:#181818;stroke-width:0.5;stroke-dasharray:5.0,5.0;" x1="157" x2="157" y1="128.5703" y2="400.0859"/><line style="stroke:#181818;stroke-width:0.5;stroke-dasharray:5.0,5.0;" x1="262" x2="262" y1="128.5703" y2="400.0859"/><line style="stroke:#181818;stroke-width:0.5;stroke-dasharray:5.0,5.0;" x1="405.5" x2="405.5" y1="128.5703" y2="400.0859"/><line style="stroke:#181818;stroke-width:0.5;stroke-dasharray:5.0,5.0;" x1="499.5" x2="499.5" y1="128.5703" y2="400.0859"/><rect fill="#E2E2F0" height="31.6094" rx="2.5" ry="2.5" style="stroke:#181818;stroke-width:0.5;" width="65" x="24.5" y="95.9609"/><text fill="#000000" font-family="sans-serif" font-size="14" lengthAdjust="spacing" textLength="51" x="31.5" y="117.4941">External</text><rect fill="#E2E2F0" height="31.6094" rx="2.5" ry="2.5" style="stroke:#181818;stroke-width:0.5;" width="65" x="24.5" y="399.0859"/><text fill="#000000" font-family="sans-serif" font-size="14" lengthAdjust="spacing" textLength="51" x="31.5" y="420.6191">External</text><rect fill="#E2E2F0" height="31.6094" rx="2.5" ry="2.5" style="stroke:#181818;stroke-width:0.5;" width="70" x="122" y="95.9609"/><text fill="#000000" font-family="sans-serif" font-size="14" lengthAdjust="spacing" textLength="56" x="129" y="117.4941">Web GUI</text><rect fill="#E2E2F0" height="31.6094" rx="2.5" ry="2.5" style="stroke:#181818;stroke-width:0.5;" width="70" x="122" y="399.0859"/><text fill="#000000" font-family="sans-serif" font-size="14" lengthAdjust="spacing" textLength="56" x="129" y="420.6191">Web GUI</text><rect fill="#E2E2F0" height="31.6094" rx="2.5" ry="2.5" style="stroke:#181818;stroke-width:0.5;" width="121" x="202" y="95.9609"/><text fill="#000000" font-family="sans-serif" font-size="14" lengthAdjust="spacing" textLength="107" x="209" y="117.4941">Trading Services</text><rect fill="#E2E2F0" height="31.6094" rx="2.5" ry="2.5" style="stroke:#181818;stroke-width:0.5;" width="121" x="202" y="399.0859"/><text fill="#000000" font-family="sans-serif" font-size="14" lengthAdjust="spacing" textLength="107" x="209" y="420.6191">Trading Services</text><text fill="#000000" font-family="sans-serif" font-size="14" lengthAdjust="spacing" textLength="74" x="365.5" y="125.4941">TraderX DB</text><path d="M387.5,74.9609 C387.5,64.9609 405.5,64.9609 405.5,64.9609 C405.5,64.9609 423.5,64.9609 423.5,74.9609 L423.5,100.9609 C423.5,110.9609 405.5,110.9609 405.5,110.9609 C405.5,110.9609 387.5,110.9609 387.5,100.9609 L387.5,74.9609 " fill="#E2E2F0" style="stroke:#181818;stroke-width:1.5;"/><path d="M387.5,74.9609 C387.5,84.9609 405.5,84.9609 405.5,84.9609 C405.5,84.9609 423.5,84.9609 423.5,74.9609 " fill="none" style="stroke:#181818;stroke-width:1.5;"/><text fill="#000000" font-family="sans-serif" font-size="14" lengthAdjust="spacing" textLength="74" x="365.5" y="413.6191">TraderX DB</text><path d="M387.5,426.6953 C387.5,416.6953 405.5,416.6953 405.5,416.6953 C405.5,416.6953 423.5,416.6953 423.5,426.6953 L423.5,452.6953 C423.5,462.6953 405.5,462.6953 405.5,462.6953 C405.5,462.6953 387.5,462.6953 387.5,452.6953 L387.5,426.6953 " fill="#E2E2F0" style="stroke:#181818;stroke-width:1.5;"/><path d="M387.5,426.6953 C387.5,436.6953 405.5,436.6953 405.5,436.6953 C405.5,436.6953 423.5,436.6953 423.5,426.6953 " fill="none" style="stroke:#181818;stroke-width:1.5;"/><rect fill="#E2E2F0" height="31.6094" rx="2.5" ry="2.5" style="stroke:#181818;stroke-width:0.5;" width="89" x="455.5" y="95.9609"/><text fill="#000000" font-family="sans-serif" font-size="14" lengthAdjust="spacing" textLength="75" x="462.5" y="117.4941">Trade Feed</text><rect fill="#E2E2F0" height="31.6094" rx="2.5" ry="2.5" style="stroke:#181818;stroke-width:0.5;" width="89" x="455.5" y="399.0859"/><text fill="#000000" font-family="sans-serif" font-size="14" lengthAdjust="spacing" textLength="75" x="462.5" y="420.6191">Trade Feed</text><polygon fill="#181818" points="145,173.2734,155,177.2734,145,181.2734,149,177.2734" style="stroke:#181818;stroke-width:1.0;"/><line style="stroke:#181818;stroke-width:1.0;" x1="57" x2="151" y1="177.2734" y2="177.2734"/><text fill="#000000" font-family="sans-serif" font-size="13" lengthAdjust="spacing" textLength="76" x="64" y="156.0654">Cancel Trade</text><text fill="#000000" font-family="sans-serif" font-size="13" lengthAdjust="spacing" textLength="49" x="64" y="172.417">[HTTPS]</text><path d="M112,192.2734 L242,192.2734 L242,200.625 L232,210.625 L112,210.625 L112,192.2734 " fill="#EEEEEE" style="stroke:#000000;stroke-width:1.5;"/><rect fill="none" height="190.8125" style="stroke:#000000;stroke-width:1.5;" width="452.5" x="112" y="192.2734"/><text fill="#000000" font-family="sans-serif" font-size="13" font-weight="bold" lengthAdjust="spacing" textLength="85" x="127" y="206.7686">Cancel Trade</text><polygon fill="#181818" points="250.5,245.3281,260.5,249.3281,250.5,253.3281,254.5,249.3281" style="stroke:#181818;stroke-width:1.0;"/><line style="stroke:#181818;stroke-width:1.0;" x1="157" x2="256.5" y1="249.3281" y2="249.3281"/><text fill="#000000" font-family="sans-serif" font-size="13" lengthAdjust="spacing" textLength="76" x="164" y="228.1201">Cancel Trade</text><text fill="#000000" font-family="sans-serif" font-size="13" lengthAdjust="spacing" textLength="49" x="164" y="244.4717">[HTTPS]</text><path d="M192,264.3281 L322,264.3281 L322,272.6797 L312,282.6797 L192,282.6797 L192,264.3281 " fill="#EEEEEE" style="stroke:#000000;stroke-width:1.5;"/><rect fill="none" height="111.7578" style="stroke:#000000;stroke-width:1.5;" width="362.5" x="192" y="264.3281"/><text fill="#000000" font-family="sans-serif" font-size="13" font-weight="bold" lengthAdjust="spacing" textLength="85" x="207" y="278.8232">Cancel Trade</text><polygon fill="#181818" points="393.5,317.3828,403.5,321.3828,393.5,325.3828,397.5,321.3828" style="stroke:#181818;stroke-width:1.0;"/><line style="stroke:#181818;stroke-width:1.0;" x1="262.5" x2="399.5" y1="321.3828" y2="321.3828"/><text fill="#000000" font-family="sans-serif" font-size="13" lengthAdjust="spacing" textLength="119" x="269.5" y="300.1748">Update Trade Status</text><text fill="#000000" font-family="sans-serif" font-size="13" lengthAdjust="spacing" textLength="41" x="269.5" y="316.5264">[JDBC]</text><polygon fill="#181818" points="488,364.0859,498,368.0859,488,372.0859,492,368.0859" style="stroke:#181818;stroke-width:1.0;"/><line style="stroke:#181818;stroke-width:1.0;" x1="262.5" x2="494" y1="368.0859" y2="368.0859"/><text fill="#000000" font-family="sans-serif" font-size="13" lengthAdjust="spacing" textLength="143" x="269.5" y="346.8779">Send Updates To Trades</text><text fill="#000000" font-family="sans-serif" font-size="13" lengthAdjust="spacing" textLength="62" x="269.5" y="363.2295">[SocketIO]</text><!--SRC=[nPDDJyCm38Rl-HLMEQydJXmuT1ymBY2bqoR13bvhHaINb2JxuD_ZjDcaRHocJeXAaH8xUVrOVkkLhmXoYoLPcC5mXwkQ0xqOcl5kIWjuc8nvrqTTKDMc-2ZfQqqS2HcZFIhD6XLjg1AYHkjLeMhK7fBXpfFLM2M03lgtOyt7KMMsgJJlVekMvBVpj7Bf_c9x5c9XTf14aWHkfX_Aam3-ZkGZOACUByS-pWh4T7hWTIc_viVdgk6gqalkqcvKGQwZV9JPgpHrIlIuG4U7tc2GNI7FeK7sUmC48wBo6ktmNf0kWMSXXBXyUj2xxpmDk3losfj-VSpp5paNIslMzL5ETAxHYUzad7yBUbgiCt7Z46QTr6oz-Bk3zEZNZf6V1bb__gzumMIC9uFFMaRsgsdL0g4qnIVvyVCyEB5PuWS0]--></g></svg>