<?xml version="1.0" encoding="us-ascii" standalone="no"?><svg xmlns="http://www.w3.org/2000/svg" xmlns:xlink="http://www.w3.org/1999/xlink" contentStyleType="text/css" height="414px" preserveAspectRatio="none" style="width:601px;height:414px;background:#FFFFFF;" version="1.1" viewBox="0 0 601 414" width="601px" zoomAndPan="magnify"><defs/><g><text fill="#000000" font-family="sans-serif" font-size="14" font-weight="bold" lengthAdjust="spacing" textLength="573" x="10" y="29.5332">Trader X Example - TraderX - Web GUI - Cancel Trade - Sequence - Container level</text><rect fill="#FFFFFF" height="356.6797" style="stroke:#181818;stroke-width:0.5;" width="430.5" x="118" y="44.6094"/><text fill="#000000" font-family="sans-serif" font-size="13" font-weight="bold" lengthAdjust="spacing" textLength="51" x="307.75" y="58.1045">TraderX</text><rect fill="none" height="141.7578" style="stroke:#000000;stroke-width:1.5;" width="452.5" x="112" y="175.9219"/><rect fill="none" height="79.0547" style="stroke:#000000;stroke-width:1.5;" width="362.5" x="192" y="231.625"/><line style="stroke:#181818;stroke-width:0.5;stroke-dasharray:5.0,5.0;" x1="56.5" x2="56.5" y1="128.5703" y2="334.6797"/><line style="stroke:#181818;stroke-width:0.5;stroke-dasharray:5.0,5.0;" x1="157" x2="157" y1="128.5703" y2="334.6797"/><line style="stroke:#181818;stroke-width:0.5;stroke-dasharray:5.0,5.0;" x1="262" x2="262" y1="128.5703" y2="334.6797"/><line style="stroke:#181818;stroke-width:0.5;stroke-dasharray:5.0,5.0;" x1="405.5" x2="405.5" y1="128.5703" y2="334.6797"/><line style="stroke:#181818;stroke-width:0.5;stroke-dasharray:5.0,5.0;" x1="499.5" x2="499.5" y1="128.5703" y2="334.6797"/><rect fill="#E2E2F0" height="31.6094" rx="2.5" ry="2.5" style="stroke:#181818;stroke-width:0.5;" width="65" x="24.5" y="95.9609"/><text fill="#000000" font-family="sans-serif" font-size="14" lengthAdjust="spacing" textLength="51" x="31.5" y="117.4941">External</text><rect fill="#E2E2F0" height="31.6094" rx="2.5" ry="2.5" style="stroke:#181818;stroke-width:0.5;" width="65" x="24.5" y="333.6797"/><text fill="#000000" font-family="sans-serif" font-size="14" lengthAdjust="spacing" textLength="51" x="31.5" y="355.2129">External</text><rect fill="#E2E2F0" height="31.6094" rx="2.5" ry="2.5" style="stroke:#181818;stroke-width:0.5;" width="70" x="122" y="95.9609"/><text fill="#000000" font-family="sans-serif" font-size="14" lengthAdjust="spacing" textLength="56" x="129" y="117.4941">Web GUI</text><rect fill="#E2E2F0" height="31.6094" rx="2.5" ry="2.5" style="stroke:#181818;stroke-width:0.5;" width="70" x="122" y="333.6797"/><text fill="#000000" font-family="sans-serif" font-size="14" lengthAdjust="spacing" textLength="56" x="129" y="355.2129">Web GUI</text><rect fill="#E2E2F0" height="31.6094" rx="2.5" ry="2.5" style="stroke:#181818;stroke-width:0.5;" width="121" x="202" y="95.9609"/><text fill="#000000" font-family="sans-serif" font-size="14" lengthAdjust="spacing" textLength="107" x="209" y="117.4941">Trading Services</text><rect fill="#E2E2F0" height="31.6094" rx="2.5" ry="2.5" style="stroke:#181818;stroke-width:0.5;" width="121" x="202" y="333.6797"/><text fill="#000000" font-family="sans-serif" font-size="14" lengthAdjust="spacing" textLength="107" x="209" y="355.2129">Trading Services</text><text fill="#000000" font-family="sans-serif" font-size="14" lengthAdjust="spacing" textLength="74" x="365.5" y="125.4941">TraderX DB</text><path d="M387.5,74.9609 C387.5,64.9609 405.5,64.9609 405.5,64.9609 C405.5,64.9609 423.5,64.9609 423.5,74.9609 L423.5,100.9609 C423.5,110.9609 405.5,110.9609 405.5,110.9609 C405.5,110.9609 387.5,110.9609 387.5,100.9609 L387.5,74.9609 " fill="#E2E2F0" style="stroke:#181818;stroke-width:1.5;"/><path d="M387.5,74.9609 C387.5,84.9609 405.5,84.9609 405.5,84.9609 C405.5,84.9609 423.5,84.9609 423.5,74.9609 " fill="none" style="stroke:#181818;stroke-width:1.5;"/><text fill="#000000" font-family="sans-serif" font-size="14" lengthAdjust="spacing" textLength="74" x="365.5" y="348.2129">TraderX DB</text><path d="M387.5,361.2891 C387.5,351.2891 405.5,351.2891 405.5,351.2891 C405.5,351.2891 423.5,351.2891 423.5,361.2891 L423.5,387.2891 C423.5,397.2891 405.5,397.2891 405.5,397.2891 C405.5,397.2891 387.5,397.2891 387.5,387.2891 L387.5,361.2891 " fill="#E2E2F0" style="stroke:#181818;stroke-width:1.5;"/><path d="M387.5,361.2891 C387.5,371.2891 405.5,371.2891 405.5,371.2891 C405.5,371.2891 423.5,371.2891 423.5,361.2891 " fill="none" style="stroke:#181818;stroke-width:1.5;"/><rect fill="#E2E2F0" height="31.6094" rx="2.5" ry="2.5" style="stroke:#181818;stroke-width:0.5;" width="89" x="455.5" y="95.9609"/><text fill="#000000" font-family="sans-serif" font-size="14" lengthAdjust="spacing" textLength="75" x="462.5" y="117.4941">Trade Feed</text><rect fill="#E2E2F0" height="31.6094" rx="2.5" ry="2.5" style="stroke:#181818;stroke-width:0.5;" width="89" x="455.5" y="333.6797"/><text fill="#000000" font-family="sans-serif" font-size="14" lengthAdjust="spacing" textLength="75" x="462.5" y="355.2129">Trade Feed</text><polygon fill="#181818" points="145,156.9219,155,160.9219,145,164.9219,149,160.9219" style="stroke:#181818;stroke-width:1.0;"/><line style="stroke:#181818;stroke-width:1.0;" x1="57" x2="151" y1="160.9219" y2="160.9219"/><text fill="#000000" font-family="sans-serif" font-size="13" lengthAdjust="spacing" textLength="76" x="64" y="156.0654">Cancel Trade</text><path d="M112,175.9219 L242,175.9219 L242,184.2734 L232,194.2734 L112,194.2734 L112,175.9219 " fill="#EEEEEE" style="stroke:#000000;stroke-width:1.5;"/><rect fill="none" height="141.7578" style="stroke:#000000;stroke-width:1.5;" width="452.5" x="112" y="175.9219"/><text fill="#000000" font-family="sans-serif" font-size="13" font-weight="bold" lengthAdjust="spacing" textLength="85" x="127" y="190.417">Cancel Trade</text><polygon fill="#181818" points="250.5,212.625,260.5,216.625,250.5,220.625,254.5,216.625" style="stroke:#181818;stroke-width:1.0;"/><line style="stroke:#181818;stroke-width:1.0;" x1="157" x2="256.5" y1="216.625" y2="216.625"/><text fill="#000000" font-family="sans-serif" font-size="13" lengthAdjust="spacing" textLength="76" x="164" y="211.7686">Cancel Trade</text><path d="M192,231.625 L322,231.625 L322,239.9766 L312,249.9766 L192,249.9766 L192,231.625 " fill="#EEEEEE" style="stroke:#000000;stroke-width:1.5;"/><rect fill="none" height="79.0547" style="stroke:#000000;stroke-width:1.5;" width="362.5" x="192" y="231.625"/><text fill="#000000" font-family="sans-serif" font-size="13" font-weight="bold" lengthAdjust="spacing" textLength="85" x="207" y="246.1201">Cancel Trade</text><polygon fill="#181818" points="393.5,268.3281,403.5,272.3281,393.5,276.3281,397.5,272.3281" style="stroke:#181818;stroke-width:1.0;"/><line style="stroke:#181818;stroke-width:1.0;" x1="262.5" x2="399.5" y1="272.3281" y2="272.3281"/><text fill="#000000" font-family="sans-serif" font-size="13" lengthAdjust="spacing" textLength="119" x="269.5" y="267.4717">Update Trade Status</text><polygon fill="#181818" points="488,298.6797,498,302.6797,488,306.6797,492,302.6797" style="stroke:#181818;stroke-width:1.0;"/><line style="stroke:#181818;stroke-width:1.0;" x1="262.5" x2="494" y1="302.6797" y2="302.6797"/><text fill="#000000" font-family="sans-serif" font-size="13" lengthAdjust="spacing" textLength="143" x="269.5" y="297.8232">Send Updates To Trades</text><!--SRC=[nLCzRy8m4DtzAqxfJAPE31tugfXJ1EibkL9Bnaxj2wJ_lkV4804Tgg2gbYpvljwzqpspPaFmvh4c3pjOTdXen359hfsyjbJ2wsOjhpdQYimG4hEWpvR44oFECceh68QEP9HgqBEkT8EM8LjsJDwYoG03p9_NLioLSQUySEzyGa_5Ls0wXFoSEDXAbQw3B379u6dxePaKoBc2JmHxz9ISvhXhaCBvXM_8fLgAxr5ZghPxcT8VTKLX97o2EQFqVMfaB37GPJPOp1w05zTYzlC012kY-X7iMA_8rY2xK4hzVdimUHcz3PXUQKtjlMkRQzTew56qRhRu9_nkUumcskj1A6uQ4Lhwt50mSXl-bLQKaj0gefe6Rg9ADw25gB7-gcy0]--></g></svg>