<?xml version="1.0" encoding="us-ascii" standalone="no"?><svg xmlns="http://www.w3.org/2000/svg" xmlns:xlink="http://www.w3.org/1999/xlink" contentStyleType="text/css" height="400px" preserveAspectRatio="none" style="width:660px;height:400px;background:#FFFFFF;" version="1.1" viewBox="0 0 660 400" width="660px" zoomAndPan="magnify"><defs/><g><text fill="#000000" font-family="sans-serif" font-size="14" font-weight="bold" lengthAdjust="spacing" textLength="632" x="10" y="29.5332">Trader X Example - TraderX - Trading Services - Cancel Trade - Sequence - Container level</text><rect fill="#FFFFFF" height="343.0313" style="stroke:#181818;stroke-width:0.5;" width="350.5" x="181.25" y="44.6094"/><text fill="#000000" font-family="sans-serif" font-size="13" font-weight="bold" lengthAdjust="spacing" textLength="51" x="331" y="58.1045">TraderX</text><rect fill="none" height="111.7578" style="stroke:#000000;stroke-width:1.5;" width="362.5" x="175.25" y="192.2734"/><line style="stroke:#181818;stroke-width:0.5;stroke-dasharray:5.0,5.0;" x1="142.25" x2="142.25" y1="128.5703" y2="321.0313"/><line style="stroke:#181818;stroke-width:0.5;stroke-dasharray:5.0,5.0;" x1="245.25" x2="245.25" y1="128.5703" y2="321.0313"/><line style="stroke:#181818;stroke-width:0.5;stroke-dasharray:5.0,5.0;" x1="388.75" x2="388.75" y1="128.5703" y2="321.0313"/><line style="stroke:#181818;stroke-width:0.5;stroke-dasharray:5.0,5.0;" x1="482.75" x2="482.75" y1="128.5703" y2="321.0313"/><rect fill="#E2E2F0" height="31.6094" rx="2.5" ry="2.5" style="stroke:#181818;stroke-width:0.5;" width="65" x="110.25" y="95.9609"/><text fill="#000000" font-family="sans-serif" font-size="14" lengthAdjust="spacing" textLength="51" x="117.25" y="117.4941">External</text><rect fill="#E2E2F0" height="31.6094" rx="2.5" ry="2.5" style="stroke:#181818;stroke-width:0.5;" width="65" x="110.25" y="320.0313"/><text fill="#000000" font-family="sans-serif" font-size="14" lengthAdjust="spacing" textLength="51" x="117.25" y="341.5645">External</text><rect fill="#E2E2F0" height="31.6094" rx="2.5" ry="2.5" style="stroke:#181818;stroke-width:0.5;" width="121" x="185.25" y="95.9609"/><text fill="#000000" font-family="sans-serif" font-size="14" lengthAdjust="spacing" textLength="107" x="192.25" y="117.4941">Trading Services</text><rect fill="#E2E2F0" height="31.6094" rx="2.5" ry="2.5" style="stroke:#181818;stroke-width:0.5;" width="121" x="185.25" y="320.0313"/><text fill="#000000" font-family="sans-serif" font-size="14" lengthAdjust="spacing" textLength="107" x="192.25" y="341.5645">Trading Services</text><text fill="#000000" font-family="sans-serif" font-size="14" lengthAdjust="spacing" textLength="74" x="348.75" y="125.4941">TraderX DB</text><path d="M370.75,74.9609 C370.75,64.9609 388.75,64.9609 388.75,64.9609 C388.75,64.9609 406.75,64.9609 406.75,74.9609 L406.75,100.9609 C406.75,110.9609 388.75,110.9609 388.75,110.9609 C388.75,110.9609 370.75,110.9609 370.75,100.9609 L370.75,74.9609 " fill="#E2E2F0" style="stroke:#181818;stroke-width:1.5;"/><path d="M370.75,74.9609 C370.75,84.9609 388.75,84.9609 388.75,84.9609 C388.75,84.9609 406.75,84.9609 406.75,74.9609 " fill="none" style="stroke:#181818;stroke-width:1.5;"/><text fill="#000000" font-family="sans-serif" font-size="14" lengthAdjust="spacing" textLength="74" x="348.75" y="334.5645">TraderX DB</text><path d="M370.75,347.6406 C370.75,337.6406 388.75,337.6406 388.75,337.6406 C388.75,337.6406 406.75,337.6406 406.75,347.6406 L406.75,373.6406 C406.75,383.6406 388.75,383.6406 388.75,383.6406 C388.75,383.6406 370.75,383.6406 370.75,373.6406 L370.75,347.6406 " fill="#E2E2F0" style="stroke:#181818;stroke-width:1.5;"/><path d="M370.75,347.6406 C370.75,357.6406 388.75,357.6406 388.75,357.6406 C388.75,357.6406 406.75,357.6406 406.75,347.6406 " fill="none" style="stroke:#181818;stroke-width:1.5;"/><rect fill="#E2E2F0" height="31.6094" rx="2.5" ry="2.5" style="stroke:#181818;stroke-width:0.5;" width="89" x="438.75" y="95.9609"/><text fill="#000000" font-family="sans-serif" font-size="14" lengthAdjust="spacing" textLength="75" x="445.75" y="117.4941">Trade Feed</text><rect fill="#E2E2F0" height="31.6094" rx="2.5" ry="2.5" style="stroke:#181818;stroke-width:0.5;" width="89" x="438.75" y="320.0313"/><text fill="#000000" font-family="sans-serif" font-size="14" lengthAdjust="spacing" textLength="75" x="445.75" y="341.5645">Trade Feed</text><polygon fill="#181818" points="233.75,173.2734,243.75,177.2734,233.75,181.2734,237.75,177.2734" style="stroke:#181818;stroke-width:1.0;"/><line style="stroke:#181818;stroke-width:1.0;" x1="142.75" x2="239.75" y1="177.2734" y2="177.2734"/><text fill="#000000" font-family="sans-serif" font-size="13" lengthAdjust="spacing" textLength="76" x="149.75" y="156.0654">Cancel Trade</text><text fill="#000000" font-family="sans-serif" font-size="13" lengthAdjust="spacing" textLength="49" x="149.75" y="172.417">[HTTPS]</text><path d="M175.25,192.2734 L305.25,192.2734 L305.25,200.625 L295.25,210.625 L175.25,210.625 L175.25,192.2734 " fill="#EEEEEE" style="stroke:#000000;stroke-width:1.5;"/><rect fill="none" height="111.7578" style="stroke:#000000;stroke-width:1.5;" width="362.5" x="175.25" y="192.2734"/><text fill="#000000" font-family="sans-serif" font-size="13" font-weight="bold" lengthAdjust="spacing" textLength="85" x="190.25" y="206.7686">Cancel Trade</text><polygon fill="#181818" points="376.75,245.3281,386.75,249.3281,376.75,253.3281,380.75,249.3281" style="stroke:#181818;stroke-width:1.0;"/><line style="stroke:#181818;stroke-width:1.0;" x1="245.75" x2="382.75" y1="249.3281" y2="249.3281"/><text fill="#000000" font-family="sans-serif" font-size="13" lengthAdjust="spacing" textLength="119" x="252.75" y="228.1201">Update Trade Status</text><text fill="#000000" font-family="sans-serif" font-size="13" lengthAdjust="spacing" textLength="41" x="252.75" y="244.4717">[JDBC]</text><polygon fill="#181818" points="471.25,292.0313,481.25,296.0313,471.25,300.0313,475.25,296.0313" style="stroke:#181818;stroke-width:1.0;"/><line style="stroke:#181818;stroke-width:1.0;" x1="245.75" x2="477.25" y1="296.0313" y2="296.0313"/><text fill="#000000" font-family="sans-serif" font-size="13" lengthAdjust="spacing" textLength="143" x="252.75" y="274.8232">Send Updates To Trades</text><text fill="#000000" font-family="sans-serif" font-size="13" lengthAdjust="spacing" textLength="62" x="252.75" y="291.1748">[SocketIO]</text><!--SRC=[nPEnJiD038PtFuKLvdPYOc1eqegoW7H5L88ERcBAYVGkN9msl3rESwrKO41a8DFvzztlx-oBM2aP5u4A3hZ4QKlRIeLHb9PnPTq63OUTpRbMAIMNSzdlqT3mUyEgT1dlXAnJiv9tN09K5CJcjY8dc4nRuU2eJ91gJ2_dJiDPwVTZurzaJu7DHosyhSV7ZNqCiFOj9X4fmOl7LoiCgD-P_LVIGvbuAjxiMwMO7f_0UqbjZYw7EWK9hQdc4mLcam7sAcMJdo_0E6CkXdXtvu5TWTer0FXzdt5qFRnTU7NsF9xTqyrYSMzMi0c-gSvoCBpOduaF4r3MXqf76_y0D4BIr8fycqtIrR_YTKDKFDFDiMVKz-1xjuxG-FoDPNwtwYODy0a0]--></g></svg>