<?xml version="1.0" encoding="us-ascii" standalone="no"?><svg xmlns="http://www.w3.org/2000/svg" xmlns:xlink="http://www.w3.org/1999/xlink" contentStyleType="text/css" height="414px" preserveAspectRatio="none" style="width:1109px;height:414px;background:#FFFFFF;" version="1.1" viewBox="0 0 1109 414" width="1109px" zoomAndPan="magnify"><defs/><g><text fill="#000000" font-family="sans-serif" font-size="14" font-weight="bold" lengthAdjust="spacing" textLength="1081" x="10" y="29.5332">E Commerce Platform - Create Product - Buying And Merchandising - Buying And Merchandising App - Delete Purchase Order - Sequence - Container level</text><rect fill="#FFFFFF" height="356.6797" style="stroke:#181818;stroke-width:0.5;" width="312.5" x="546" y="44.6094"/><text fill="#000000" font-family="sans-serif" font-size="13" font-weight="bold" lengthAdjust="spacing" textLength="96" x="654.25" y="58.1045">Buying Service</text><rect fill="none" height="141.7578" style="stroke:#000000;stroke-width:1.5;" width="579" x="295.5" y="175.9219"/><rect fill="none" height="79.0547" style="stroke:#000000;stroke-width:1.5;" width="324.5" x="540" y="231.625"/><line style="stroke:#181818;stroke-width:0.5;stroke-dasharray:5.0,5.0;" x1="254.5" x2="254.5" y1="128.5703" y2="334.6797"/><line style="stroke:#181818;stroke-width:0.5;stroke-dasharray:5.0,5.0;" x1="410.5" x2="410.5" y1="128.5703" y2="334.6797"/><line style="stroke:#181818;stroke-width:0.5;stroke-dasharray:5.0,5.0;" x1="567" x2="567" y1="128.5703" y2="334.6797"/><line style="stroke:#181818;stroke-width:0.5;stroke-dasharray:5.0,5.0;" x1="722.5" x2="722.5" y1="128.5703" y2="334.6797"/><line style="stroke:#181818;stroke-width:0.5;stroke-dasharray:5.0,5.0;" x1="810.5" x2="810.5" y1="128.5703" y2="334.6797"/><rect fill="#E2E2F0" height="31.6094" rx="2.5" ry="2.5" style="stroke:#181818;stroke-width:0.5;" width="65" x="222.5" y="95.9609"/><text fill="#000000" font-family="sans-serif" font-size="14" lengthAdjust="spacing" textLength="51" x="229.5" y="117.4941">External</text><rect fill="#E2E2F0" height="31.6094" rx="2.5" ry="2.5" style="stroke:#181818;stroke-width:0.5;" width="65" x="222.5" y="333.6797"/><text fill="#000000" font-family="sans-serif" font-size="14" lengthAdjust="spacing" textLength="51" x="229.5" y="355.2129">External</text><rect fill="#E2E2F0" height="31.6094" rx="2.5" ry="2.5" style="stroke:#181818;stroke-width:0.5;" width="211" x="305.5" y="95.9609"/><text fill="#000000" font-family="sans-serif" font-size="14" lengthAdjust="spacing" textLength="197" x="312.5" y="117.4941">Buying And Merchandising App</text><rect fill="#E2E2F0" height="31.6094" rx="2.5" ry="2.5" style="stroke:#181818;stroke-width:0.5;" width="211" x="305.5" y="333.6797"/><text fill="#000000" font-family="sans-serif" font-size="14" lengthAdjust="spacing" textLength="197" x="312.5" y="355.2129">Buying And Merchandising App</text><rect fill="#E2E2F0" height="31.6094" rx="2.5" ry="2.5" style="stroke:#181818;stroke-width:0.5;" width="34" x="550" y="95.9609"/><text fill="#000000" font-family="sans-serif" font-size="14" lengthAdjust="spacing" textLength="20" x="557" y="117.4941">Api</text><rect fill="#E2E2F0" height="31.6094" rx="2.5" ry="2.5" style="stroke:#181818;stroke-width:0.5;" width="34" x="550" y="333.6797"/><text fill="#000000" font-family="sans-serif" font-size="14" lengthAdjust="spacing" textLength="20" x="557" y="355.2129">Api</text><text fill="#000000" font-family="sans-serif" font-size="14" lengthAdjust="spacing" textLength="61" x="689.5" y="125.4941">Database</text><path d="M705,74.9609 C705,64.9609 723,64.9609 723,64.9609 C723,64.9609 741,64.9609 741,74.9609 L741,100.9609 C741,110.9609 723,110.9609 723,110.9609 C723,110.9609 705,110.9609 705,100.9609 L705,74.9609 " fill="#E2E2F0" style="stroke:#181818;stroke-width:1.5;"/><path d="M705,74.9609 C705,84.9609 723,84.9609 723,84.9609 C723,84.9609 741,84.9609 741,74.9609 " fill="none" style="stroke:#181818;stroke-width:1.5;"/><text fill="#000000" font-family="sans-serif" font-size="14" lengthAdjust="spacing" textLength="61" x="689.5" y="348.2129">Database</text><path d="M705,361.2891 C705,351.2891 723,351.2891 723,351.2891 C723,351.2891 741,351.2891 741,361.2891 L741,387.2891 C741,397.2891 723,397.2891 723,397.2891 C723,397.2891 705,397.2891 705,387.2891 L705,361.2891 " fill="#E2E2F0" style="stroke:#181818;stroke-width:1.5;"/><path d="M705,361.2891 C705,371.2891 723,371.2891 723,371.2891 C723,371.2891 741,371.2891 741,361.2891 " fill="none" style="stroke:#181818;stroke-width:1.5;"/><path d="M771.5,100.9609 L849.5,100.9609 C854.5,100.9609 854.5,114.7656 854.5,114.7656 C854.5,114.7656 854.5,128.5703 849.5,128.5703 L771.5,128.5703 C766.5,128.5703 766.5,114.7656 766.5,114.7656 C766.5,114.7656 766.5,100.9609 771.5,100.9609 " fill="#E2E2F0" style="stroke:#181818;stroke-width:0.5;"/><path d="M849.5,100.9609 C844.5,100.9609 844.5,114.7656 844.5,114.7656 C844.5,128.5703 849.5,128.5703 849.5,128.5703 " fill="none" style="stroke:#181818;stroke-width:0.5;"/><text fill="#000000" font-family="sans-serif" font-size="14" lengthAdjust="spacing" textLength="68" x="771.5" y="120.4941">Messaging</text><path d="M771.5,333.6797 L849.5,333.6797 C854.5,333.6797 854.5,347.4844 854.5,347.4844 C854.5,347.4844 854.5,361.2891 849.5,361.2891 L771.5,361.2891 C766.5,361.2891 766.5,347.4844 766.5,347.4844 C766.5,347.4844 766.5,333.6797 771.5,333.6797 " fill="#E2E2F0" style="stroke:#181818;stroke-width:0.5;"/><path d="M849.5,333.6797 C844.5,333.6797 844.5,347.4844 844.5,347.4844 C844.5,361.2891 849.5,361.2891 849.5,361.2891 " fill="none" style="stroke:#181818;stroke-width:0.5;"/><text fill="#000000" font-family="sans-serif" font-size="14" lengthAdjust="spacing" textLength="68" x="771.5" y="353.2129">Messaging</text><polygon fill="#181818" points="399,156.9219,409,160.9219,399,164.9219,403,160.9219" style="stroke:#181818;stroke-width:1.0;"/><line style="stroke:#181818;stroke-width:1.0;" x1="255" x2="405" y1="160.9219" y2="160.9219"/><text fill="#000000" font-family="sans-serif" font-size="13" lengthAdjust="spacing" textLength="132" x="262" y="156.0654">Delete Purchase Order</text><path d="M295.5,175.9219 L484.5,175.9219 L484.5,184.2734 L474.5,194.2734 L295.5,194.2734 L295.5,175.9219 " fill="#EEEEEE" style="stroke:#000000;stroke-width:1.5;"/><rect fill="none" height="141.7578" style="stroke:#000000;stroke-width:1.5;" width="579" x="295.5" y="175.9219"/><text fill="#000000" font-family="sans-serif" font-size="13" font-weight="bold" lengthAdjust="spacing" textLength="144" x="310.5" y="190.417">Delete Purchase Order</text><polygon fill="#181818" points="555,212.625,565,216.625,555,220.625,559,216.625" style="stroke:#181818;stroke-width:1.0;"/><line style="stroke:#181818;stroke-width:1.0;" x1="411" x2="561" y1="216.625" y2="216.625"/><text fill="#000000" font-family="sans-serif" font-size="13" lengthAdjust="spacing" textLength="132" x="418" y="211.7686">Delete Purchase Order</text><path d="M540,231.625 L729,231.625 L729,239.9766 L719,249.9766 L540,249.9766 L540,231.625 " fill="#EEEEEE" style="stroke:#000000;stroke-width:1.5;"/><rect fill="none" height="79.0547" style="stroke:#000000;stroke-width:1.5;" width="324.5" x="540" y="231.625"/><text fill="#000000" font-family="sans-serif" font-size="13" font-weight="bold" lengthAdjust="spacing" textLength="144" x="555" y="246.1201">Delete Purchase Order</text><polygon fill="#181818" points="711,268.3281,721,272.3281,711,276.3281,715,272.3281" style="stroke:#181818;stroke-width:1.0;"/><line style="stroke:#181818;stroke-width:1.0;" x1="567" x2="717" y1="272.3281" y2="272.3281"/><text fill="#000000" font-family="sans-serif" font-size="13" lengthAdjust="spacing" textLength="132" x="574" y="267.4717">Delete Purchase Order</text><polygon fill="#181818" points="798.5,298.6797,808.5,302.6797,798.5,306.6797,802.5,302.6797" style="stroke:#181818;stroke-width:1.0;"/><line style="stroke:#181818;stroke-width:1.0;" x1="567" x2="804.5" y1="302.6797" y2="302.6797"/><text fill="#000000" font-family="sans-serif" font-size="13" lengthAdjust="spacing" textLength="209" x="574" y="297.8232">Send Purchase Order Deleted Event</text><!--SRC=[tLLDQyCm3BtxLuZit9nssc6GfHdiK3R8OMStKLE3OsUsqez_F-KJigLbXxQ36WAs9Ekz9qk456c4169RbkWoX0yjQMDT2Gk87KfYYxDvdH4RNkgZCWL49eSL1s-boPLlB6TSKLMnUuaQcrHru_88xov7n_OKlseq3Cjerf1KXiqQTwY5gAGZbQbA6e8WEH0w8tK0qaFy-6Ru-AhjFapjXlRIONhqXAKFXy3kF4roZcIRE1dAC5GXx6hGbo3i4l3zoVLV7ER364I8jJsCF59qEvLX00-VMqKeWDU4RrIfozFgKSEntZvad1OyboJNpVC4otvt4_W1hEN0_L0pWHLwBmkElmc34KqWzmQ_aH3Yxqq6Y-UhTmuypS-GA9ojgnE-gvEwjF3vtln_xITutK3-C1idQt0dEiS9PA5fCuG_VXMT-1oI7HfgfhJzn3S0]--></g></svg>