<?xml version="1.0" encoding="us-ascii" standalone="no"?><svg xmlns="http://www.w3.org/2000/svg" xmlns:xlink="http://www.w3.org/1999/xlink" contentStyleType="text/css" height="443px" preserveAspectRatio="none" style="width:745px;height:443px;background:#FFFFFF;" version="1.1" viewBox="0 0 745 443" width="745px" zoomAndPan="magnify"><defs/><g><text fill="#000000" font-family="sans-serif" font-size="14" font-weight="bold" lengthAdjust="spacing" textLength="684" x="32.25" y="29.5332">Trader X Example - TraderX - Web Client - Type Ahead People Search - Sequence - Container level</text><rect fill="#FFFFFF" height="392.4375" style="stroke:#181818;stroke-width:0.5;" width="406" x="174" y="44.6094"/><text fill="#000000" font-family="sans-serif" font-size="13" font-weight="bold" lengthAdjust="spacing" textLength="51" x="351.5" y="58.1045">TraderX</text><rect fill="none" height="223.1641" style="stroke:#000000;stroke-width:1.5;" width="571.5" x="168" y="161.2734"/><rect fill="none" height="144.1094" style="stroke:#000000;stroke-width:1.5;" width="373" x="356.5" y="233.3281"/><rect fill="none" height="65.0547" style="stroke:#000000;stroke-width:1.5;" width="262.5" x="457" y="305.3828"/><line style="stroke:#181818;stroke-width:0.5;stroke-dasharray:5.0,5.0;" x1="37" x2="37" y1="97.5703" y2="401.4375"/><line style="stroke:#181818;stroke-width:0.5;stroke-dasharray:5.0,5.0;" x1="219" x2="219" y1="97.5703" y2="401.4375"/><line style="stroke:#181818;stroke-width:0.5;stroke-dasharray:5.0,5.0;" x1="401.5" x2="401.5" y1="97.5703" y2="401.4375"/><line style="stroke:#181818;stroke-width:0.5;stroke-dasharray:5.0,5.0;" x1="521" x2="521" y1="97.5703" y2="401.4375"/><line style="stroke:#181818;stroke-width:0.5;stroke-dasharray:5.0,5.0;" x1="657.5" x2="657.5" y1="97.5703" y2="401.4375"/><rect fill="#E2E2F0" height="31.6094" rx="2.5" ry="2.5" style="stroke:#181818;stroke-width:0.5;" width="65" x="5" y="64.9609"/><text fill="#000000" font-family="sans-serif" font-size="14" lengthAdjust="spacing" textLength="51" x="12" y="86.4941">External</text><rect fill="#E2E2F0" height="31.6094" rx="2.5" ry="2.5" style="stroke:#181818;stroke-width:0.5;" width="65" x="5" y="400.4375"/><text fill="#000000" font-family="sans-serif" font-size="14" lengthAdjust="spacing" textLength="51" x="12" y="421.9707">External</text><rect fill="#E2E2F0" height="31.6094" rx="2.5" ry="2.5" style="stroke:#181818;stroke-width:0.5;" width="83" x="178" y="64.9609"/><text fill="#000000" font-family="sans-serif" font-size="14" lengthAdjust="spacing" textLength="69" x="185" y="86.4941">Web Client</text><rect fill="#E2E2F0" height="31.6094" rx="2.5" ry="2.5" style="stroke:#181818;stroke-width:0.5;" width="83" x="178" y="400.4375"/><text fill="#000000" font-family="sans-serif" font-size="14" lengthAdjust="spacing" textLength="69" x="185" y="421.9707">Web Client</text><rect fill="#E2E2F0" height="31.6094" rx="2.5" ry="2.5" style="stroke:#181818;stroke-width:0.5;" width="70" x="366.5" y="64.9609"/><text fill="#000000" font-family="sans-serif" font-size="14" lengthAdjust="spacing" textLength="56" x="373.5" y="86.4941">Web GUI</text><rect fill="#E2E2F0" height="31.6094" rx="2.5" ry="2.5" style="stroke:#181818;stroke-width:0.5;" width="70" x="366.5" y="400.4375"/><text fill="#000000" font-family="sans-serif" font-size="14" lengthAdjust="spacing" textLength="56" x="373.5" y="421.9707">Web GUI</text><rect fill="#E2E2F0" height="31.6094" rx="2.5" ry="2.5" style="stroke:#181818;stroke-width:0.5;" width="109" x="467" y="64.9609"/><text fill="#000000" font-family="sans-serif" font-size="14" lengthAdjust="spacing" textLength="95" x="474" y="86.4941">People Service</text><rect fill="#E2E2F0" height="31.6094" rx="2.5" ry="2.5" style="stroke:#181818;stroke-width:0.5;" width="109" x="467" y="400.4375"/><text fill="#000000" font-family="sans-serif" font-size="14" lengthAdjust="spacing" textLength="95" x="474" y="421.9707">People Service</text><rect fill="#E2E2F0" height="31.6094" rx="2.5" ry="2.5" style="stroke:#181818;stroke-width:0.5;" width="104" x="605.5" y="64.9609"/><text fill="#000000" font-family="sans-serif" font-size="14" lengthAdjust="spacing" textLength="90" x="612.5" y="86.4941">User Directory</text><rect fill="#E2E2F0" height="31.6094" rx="2.5" ry="2.5" style="stroke:#181818;stroke-width:0.5;" width="104" x="605.5" y="400.4375"/><text fill="#000000" font-family="sans-serif" font-size="14" lengthAdjust="spacing" textLength="90" x="612.5" y="421.9707">User Directory</text><polygon fill="#181818" points="207.5,142.2734,217.5,146.2734,207.5,150.2734,211.5,146.2734" style="stroke:#181818;stroke-width:1.0;"/><line style="stroke:#181818;stroke-width:1.0;" x1="37.5" x2="213.5" y1="146.2734" y2="146.2734"/><text fill="#000000" font-family="sans-serif" font-size="13" lengthAdjust="spacing" textLength="158" x="44.5" y="125.0654">Type Ahead People Search</text><text fill="#000000" font-family="sans-serif" font-size="13" lengthAdjust="spacing" textLength="49" x="44.5" y="141.417">[HTTPS]</text><path d="M168,161.2734 L387,161.2734 L387,169.625 L377,179.625 L168,179.625 L168,161.2734 " fill="#EEEEEE" style="stroke:#000000;stroke-width:1.5;"/><rect fill="none" height="223.1641" style="stroke:#000000;stroke-width:1.5;" width="571.5" x="168" y="161.2734"/><text fill="#000000" font-family="sans-serif" font-size="13" font-weight="bold" lengthAdjust="spacing" textLength="174" x="183" y="175.7686">Type Ahead People Search</text><polygon fill="#181818" points="389.5,214.3281,399.5,218.3281,389.5,222.3281,393.5,218.3281" style="stroke:#181818;stroke-width:1.0;"/><line style="stroke:#181818;stroke-width:1.0;" x1="219.5" x2="395.5" y1="218.3281" y2="218.3281"/><text fill="#000000" font-family="sans-serif" font-size="13" lengthAdjust="spacing" textLength="158" x="226.5" y="197.1201">Type Ahead People Search</text><text fill="#000000" font-family="sans-serif" font-size="13" lengthAdjust="spacing" textLength="49" x="226.5" y="213.4717">[HTTPS]</text><path d="M356.5,233.3281 L575.5,233.3281 L575.5,241.6797 L565.5,251.6797 L356.5,251.6797 L356.5,233.3281 " fill="#EEEEEE" style="stroke:#000000;stroke-width:1.5;"/><rect fill="none" height="144.1094" style="stroke:#000000;stroke-width:1.5;" width="373" x="356.5" y="233.3281"/><text fill="#000000" font-family="sans-serif" font-size="13" font-weight="bold" lengthAdjust="spacing" textLength="174" x="371.5" y="247.8232">Type Ahead People Search</text><polygon fill="#181818" points="509.5,286.3828,519.5,290.3828,509.5,294.3828,513.5,290.3828" style="stroke:#181818;stroke-width:1.0;"/><line style="stroke:#181818;stroke-width:1.0;" x1="401.5" x2="515.5" y1="290.3828" y2="290.3828"/><text fill="#000000" font-family="sans-serif" font-size="13" lengthAdjust="spacing" textLength="96" x="408.5" y="269.1748">Get People Data</text><text fill="#000000" font-family="sans-serif" font-size="13" lengthAdjust="spacing" textLength="49" x="408.5" y="285.5264">[HTTPS]</text><path d="M457,305.3828 L606,305.3828 L606,313.7344 L596,323.7344 L457,323.7344 L457,305.3828 " fill="#EEEEEE" style="stroke:#000000;stroke-width:1.5;"/><rect fill="none" height="65.0547" style="stroke:#000000;stroke-width:1.5;" width="262.5" x="457" y="305.3828"/><text fill="#000000" font-family="sans-serif" font-size="13" font-weight="bold" lengthAdjust="spacing" textLength="104" x="472" y="319.8779">Get People Data</text><polygon fill="#181818" points="645.5,358.4375,655.5,362.4375,645.5,366.4375,649.5,362.4375" style="stroke:#181818;stroke-width:1.0;"/><line style="stroke:#181818;stroke-width:1.0;" x1="521.5" x2="651.5" y1="362.4375" y2="362.4375"/><text fill="#000000" font-family="sans-serif" font-size="13" lengthAdjust="spacing" textLength="112" x="528.5" y="341.2295">Select People Data</text><text fill="#000000" font-family="sans-serif" font-size="13" lengthAdjust="spacing" textLength="42" x="528.5" y="357.5811">[LDAP]</text><!--SRC=[nP9DRuCm38Rl-HKMEvVJJZjCgg3hAks015KhRJsau8r8QS92siA_dpCeK-cgLN0OKgJ47wyVR5jX9K9YU8O6rZ2h-AuWmwGrhUcsmYq4Kg2opbmN2DCSUGOHQXSQ8pTfJguOF_UeKfSSQ6MvK2GfyO2IiO8RAr9HS1BnPfL5exZqW9SGt2yKFP-aFlgnVhT7RZ2kIukxqZy5Dc_6jhe2hmNpu6wL2uiCw3kJ_-7zBj36jtzsKQDr-nrowPD0a_-xzdov62vCoPUgNIVDGQGuKBmHQJKOgWoeNRtEBqiQIIWCfbQR-fP2BgDBOEpsQS7aSKphuU7gghsfr-SaYU8D-p1wNroDOsFA3wMd-VuRkgizYFjiTGX_ZlR44tBB-zGzDnjRy6_cioqam1WbtNkCB-4qshZ5xmxx0W00]--></g></svg>