<?xml version="1.0" encoding="us-ascii" standalone="no"?><svg xmlns="http://www.w3.org/2000/svg" xmlns:xlink="http://www.w3.org/1999/xlink" contentStyleType="text/css" height="351px" preserveAspectRatio="none" style="width:924px;height:351px;background:#FFFFFF;" version="1.1" viewBox="0 0 924 351" width="924px" zoomAndPan="magnify"><defs/><g><text fill="#000000" font-family="sans-serif" font-size="14" font-weight="bold" lengthAdjust="spacing" textLength="896" x="10" y="29.5332">E Commerce Platform - Generate Demand - Order Management - Order Service - Api - Create Order - Sequence - Container level</text><rect fill="#FFFFFF" height="293.9766" style="stroke:#181818;stroke-width:0.5;" width="242.5" x="386.5" y="44.6094"/><text fill="#000000" font-family="sans-serif" font-size="13" font-weight="bold" lengthAdjust="spacing" textLength="88" x="463.75" y="58.1045">Order Service</text><rect fill="none" height="79.0547" style="stroke:#000000;stroke-width:1.5;" width="254.5" x="380.5" y="175.9219"/><line style="stroke:#181818;stroke-width:0.5;stroke-dasharray:5.0,5.0;" x1="309" x2="309" y1="128.5703" y2="271.9766"/><line style="stroke:#181818;stroke-width:0.5;stroke-dasharray:5.0,5.0;" x1="407.5" x2="407.5" y1="128.5703" y2="271.9766"/><line style="stroke:#181818;stroke-width:0.5;stroke-dasharray:5.0,5.0;" x1="499" x2="499" y1="128.5703" y2="271.9766"/><line style="stroke:#181818;stroke-width:0.5;stroke-dasharray:5.0,5.0;" x1="584" x2="584" y1="128.5703" y2="271.9766"/><rect fill="#E2E2F0" height="31.6094" rx="2.5" ry="2.5" style="stroke:#181818;stroke-width:0.5;" width="65" x="277" y="95.9609"/><text fill="#000000" font-family="sans-serif" font-size="14" lengthAdjust="spacing" textLength="51" x="284" y="117.4941">External</text><rect fill="#E2E2F0" height="31.6094" rx="2.5" ry="2.5" style="stroke:#181818;stroke-width:0.5;" width="65" x="277" y="270.9766"/><text fill="#000000" font-family="sans-serif" font-size="14" lengthAdjust="spacing" textLength="51" x="284" y="292.5098">External</text><rect fill="#E2E2F0" height="31.6094" rx="2.5" ry="2.5" style="stroke:#181818;stroke-width:0.5;" width="34" x="390.5" y="95.9609"/><text fill="#000000" font-family="sans-serif" font-size="14" lengthAdjust="spacing" textLength="20" x="397.5" y="117.4941">Api</text><rect fill="#E2E2F0" height="31.6094" rx="2.5" ry="2.5" style="stroke:#181818;stroke-width:0.5;" width="34" x="390.5" y="270.9766"/><text fill="#000000" font-family="sans-serif" font-size="14" lengthAdjust="spacing" textLength="20" x="397.5" y="292.5098">Api</text><text fill="#000000" font-family="sans-serif" font-size="14" lengthAdjust="spacing" textLength="61" x="466" y="125.4941">Database</text><path d="M481.5,74.9609 C481.5,64.9609 499.5,64.9609 499.5,64.9609 C499.5,64.9609 517.5,64.9609 517.5,74.9609 L517.5,100.9609 C517.5,110.9609 499.5,110.9609 499.5,110.9609 C499.5,110.9609 481.5,110.9609 481.5,100.9609 L481.5,74.9609 " fill="#E2E2F0" style="stroke:#181818;stroke-width:1.5;"/><path d="M481.5,74.9609 C481.5,84.9609 499.5,84.9609 499.5,84.9609 C499.5,84.9609 517.5,84.9609 517.5,74.9609 " fill="none" style="stroke:#181818;stroke-width:1.5;"/><text fill="#000000" font-family="sans-serif" font-size="14" lengthAdjust="spacing" textLength="61" x="466" y="285.5098">Database</text><path d="M481.5,298.5859 C481.5,288.5859 499.5,288.5859 499.5,288.5859 C499.5,288.5859 517.5,288.5859 517.5,298.5859 L517.5,324.5859 C517.5,334.5859 499.5,334.5859 499.5,334.5859 C499.5,334.5859 481.5,334.5859 481.5,324.5859 L481.5,298.5859 " fill="#E2E2F0" style="stroke:#181818;stroke-width:1.5;"/><path d="M481.5,298.5859 C481.5,308.5859 499.5,308.5859 499.5,308.5859 C499.5,308.5859 517.5,308.5859 517.5,298.5859 " fill="none" style="stroke:#181818;stroke-width:1.5;"/><rect fill="#E2E2F0" height="31.6094" rx="2.5" ry="2.5" style="stroke:#181818;stroke-width:0.5;" width="82" x="543" y="95.9609"/><text fill="#000000" font-family="sans-serif" font-size="14" lengthAdjust="spacing" textLength="68" x="550" y="117.4941">Messaging</text><rect fill="#E2E2F0" height="31.6094" rx="2.5" ry="2.5" style="stroke:#181818;stroke-width:0.5;" width="82" x="543" y="270.9766"/><text fill="#000000" font-family="sans-serif" font-size="14" lengthAdjust="spacing" textLength="68" x="550" y="292.5098">Messaging</text><polygon fill="#181818" points="395.5,156.9219,405.5,160.9219,395.5,164.9219,399.5,160.9219" style="stroke:#181818;stroke-width:1.0;"/><line style="stroke:#181818;stroke-width:1.0;" x1="309.5" x2="401.5" y1="160.9219" y2="160.9219"/><text fill="#000000" font-family="sans-serif" font-size="13" lengthAdjust="spacing" textLength="74" x="316.5" y="156.0654">Create Order</text><path d="M380.5,175.9219 L507.5,175.9219 L507.5,184.2734 L497.5,194.2734 L380.5,194.2734 L380.5,175.9219 " fill="#EEEEEE" style="stroke:#000000;stroke-width:1.5;"/><rect fill="none" height="79.0547" style="stroke:#000000;stroke-width:1.5;" width="254.5" x="380.5" y="175.9219"/><text fill="#000000" font-family="sans-serif" font-size="13" font-weight="bold" lengthAdjust="spacing" textLength="82" x="395.5" y="190.417">Create Order</text><polygon fill="#181818" points="487.5,212.625,497.5,216.625,487.5,220.625,491.5,216.625" style="stroke:#181818;stroke-width:1.0;"/><line style="stroke:#181818;stroke-width:1.0;" x1="407.5" x2="493.5" y1="216.625" y2="216.625"/><text fill="#000000" font-family="sans-serif" font-size="13" lengthAdjust="spacing" textLength="68" x="414.5" y="211.7686">Insert Order</text><polygon fill="#181818" points="572,242.9766,582,246.9766,572,250.9766,576,246.9766" style="stroke:#181818;stroke-width:1.0;"/><line style="stroke:#181818;stroke-width:1.0;" x1="407.5" x2="578" y1="246.9766" y2="246.9766"/><text fill="#000000" font-family="sans-serif" font-size="13" lengthAdjust="spacing" textLength="151" x="414.5" y="242.1201">Send Order Created Event</text><!--SRC=[rPEnReCm48PtFyM9pdZgbA5IHMYL8MebXiwNSA6Mi4tj2qdVlWV4L2XB5uOoMFQTVVzz-Wyst1AKK7XhAHm9tblaamyMSdWbHm6PO4iMNIsHjr1JW3qwRCYIupbKKUYDlCxXkJEo5e66XrCob_JNcToOBxnZD58OMkgfLQh3mEPeEfHoMNbb2WxR3312yRXpSdnf_KLN_iGN35HzHoORTReudPKw-2jaYruoUFZuD4mAv5k8I8jZ_J919sQTY2TWFTRxfRrhOipVvFGC5hK8ZAerCXum4cJRssvTtQHoZxod6B4nhbctWLb6aSoBUAAK-hkBa3-jwWbi5dEfck3FtJAqgloQUCbwOTovI87_Ez0yIa9K3TCq_ToJMpMKlHGRfaof7m00]--></g></svg>