<?xml version="1.0" encoding="us-ascii" standalone="no"?><svg xmlns="http://www.w3.org/2000/svg" xmlns:xlink="http://www.w3.org/1999/xlink" contentStyleType="text/css" height="312px" preserveAspectRatio="none" style="width:872px;height:312px;background:#FFFFFF;" version="1.1" viewBox="0 0 872 312" width="872px" zoomAndPan="magnify"><defs/><g><text fill="#000000" font-family="sans-serif" font-size="14" font-weight="bold" lengthAdjust="spacing" textLength="844" x="10" y="29.5332">ECommercePlatform - Order Service - Message Handler - Handle Fraud Check Result Event - Sequence - Container level</text><rect fill="#FFFFFF" height="262.3281" style="stroke:#181818;stroke-width:0.5;" width="342.5" x="301.25" y="44.6094"/><text fill="#000000" font-family="sans-serif" font-size="13" font-weight="bold" lengthAdjust="spacing" textLength="88" x="428.5" y="58.1045">Order Service</text><rect fill="#FFFFFF" height="262.3281" style="stroke:#181818;stroke-width:0.5;" width="95" x="645.75" y="44.6094"/><text fill="#000000" font-family="sans-serif" font-size="13" font-weight="bold" lengthAdjust="spacing" textLength="89" x="648.75" y="58.1045">Fraud Service</text><rect fill="none" height="109.4063" style="stroke:#000000;stroke-width:1.5;" width="449" x="295.25" y="144.9219"/><line style="stroke:#181818;stroke-width:0.5;stroke-dasharray:5.0,5.0;" x1="147.75" x2="147.75" y1="97.5703" y2="271.3281"/><line style="stroke:#181818;stroke-width:0.5;stroke-dasharray:5.0,5.0;" x1="367.25" x2="367.25" y1="97.5703" y2="271.3281"/><line style="stroke:#181818;stroke-width:0.5;stroke-dasharray:5.0,5.0;" x1="509.75" x2="509.75" y1="97.5703" y2="271.3281"/><line style="stroke:#181818;stroke-width:0.5;stroke-dasharray:5.0,5.0;" x1="598.75" x2="598.75" y1="97.5703" y2="271.3281"/><line style="stroke:#181818;stroke-width:0.5;stroke-dasharray:5.0,5.0;" x1="693.25" x2="693.25" y1="97.5703" y2="271.3281"/><rect fill="#E2E2F0" height="31.6094" rx="2.5" ry="2.5" style="stroke:#181818;stroke-width:0.5;" width="65" x="115.75" y="64.9609"/><text fill="#000000" font-family="sans-serif" font-size="14" lengthAdjust="spacing" textLength="51" x="122.75" y="86.4941">External</text><rect fill="#E2E2F0" height="31.6094" rx="2.5" ry="2.5" style="stroke:#181818;stroke-width:0.5;" width="65" x="115.75" y="270.3281"/><text fill="#000000" font-family="sans-serif" font-size="14" lengthAdjust="spacing" textLength="51" x="122.75" y="291.8613">External</text><rect fill="#E2E2F0" height="31.6094" rx="2.5" ry="2.5" style="stroke:#181818;stroke-width:0.5;" width="124" x="305.25" y="64.9609"/><text fill="#000000" font-family="sans-serif" font-size="14" lengthAdjust="spacing" textLength="110" x="312.25" y="86.4941">Message Handler</text><rect fill="#E2E2F0" height="31.6094" rx="2.5" ry="2.5" style="stroke:#181818;stroke-width:0.5;" width="124" x="305.25" y="270.3281"/><text fill="#000000" font-family="sans-serif" font-size="14" lengthAdjust="spacing" textLength="110" x="312.25" y="291.8613">Message Handler</text><rect fill="#E2E2F0" height="31.6094" rx="2.5" ry="2.5" style="stroke:#181818;stroke-width:0.5;" width="75" x="472.75" y="64.9609"/><text fill="#000000" font-family="sans-serif" font-size="14" lengthAdjust="spacing" textLength="61" x="479.75" y="86.4941">Database</text><rect fill="#E2E2F0" height="31.6094" rx="2.5" ry="2.5" style="stroke:#181818;stroke-width:0.5;" width="75" x="472.75" y="270.3281"/><text fill="#000000" font-family="sans-serif" font-size="14" lengthAdjust="spacing" textLength="61" x="479.75" y="291.8613">Database</text><rect fill="#E2E2F0" height="31.6094" rx="2.5" ry="2.5" style="stroke:#181818;stroke-width:0.5;" width="82" x="557.75" y="64.9609"/><text fill="#000000" font-family="sans-serif" font-size="14" lengthAdjust="spacing" textLength="68" x="564.75" y="86.4941">Messaging</text><rect fill="#E2E2F0" height="31.6094" rx="2.5" ry="2.5" style="stroke:#181818;stroke-width:0.5;" width="82" x="557.75" y="270.3281"/><text fill="#000000" font-family="sans-serif" font-size="14" lengthAdjust="spacing" textLength="68" x="564.75" y="291.8613">Messaging</text><rect fill="#E2E2F0" height="31.6094" rx="2.5" ry="2.5" style="stroke:#181818;stroke-width:0.5;" width="82" x="652.25" y="64.9609"/><text fill="#000000" font-family="sans-serif" font-size="14" lengthAdjust="spacing" textLength="68" x="659.25" y="86.4941">Messaging</text><rect fill="#E2E2F0" height="31.6094" rx="2.5" ry="2.5" style="stroke:#181818;stroke-width:0.5;" width="82" x="652.25" y="270.3281"/><text fill="#000000" font-family="sans-serif" font-size="14" lengthAdjust="spacing" textLength="68" x="659.25" y="291.8613">Messaging</text><polygon fill="#181818" points="355.25,125.9219,365.25,129.9219,355.25,133.9219,359.25,129.9219" style="stroke:#181818;stroke-width:1.0;"/><line style="stroke:#181818;stroke-width:1.0;" x1="148.25" x2="361.25" y1="129.9219" y2="129.9219"/><text fill="#000000" font-family="sans-serif" font-size="13" lengthAdjust="spacing" textLength="195" x="155.25" y="125.0654">Handle Fraud Check Result Event</text><path d="M295.25,144.9219 L551.25,144.9219 L551.25,153.2734 L541.25,163.2734 L295.25,163.2734 L295.25,144.9219 " fill="#EEEEEE" style="stroke:#000000;stroke-width:1.5;"/><rect fill="none" height="109.4063" style="stroke:#000000;stroke-width:1.5;" width="449" x="295.25" y="144.9219"/><text fill="#000000" font-family="sans-serif" font-size="13" font-weight="bold" lengthAdjust="spacing" textLength="211" x="310.25" y="159.417">Handle Fraud Check Result Event</text><polygon fill="#181818" points="681.25,181.625,691.25,185.625,681.25,189.625,685.25,185.625" style="stroke:#181818;stroke-width:1.0;"/><line style="stroke:#181818;stroke-width:1.0;" x1="367.25" x2="687.25" y1="185.625" y2="185.625"/><text fill="#000000" font-family="sans-serif" font-size="13" lengthAdjust="spacing" textLength="200" x="374.25" y="180.7686">Receive Fraud Check Result Event</text><polygon fill="#181818" points="498.25,211.9766,508.25,215.9766,498.25,219.9766,502.25,215.9766" style="stroke:#181818;stroke-width:1.0;"/><line style="stroke:#181818;stroke-width:1.0;" x1="367.25" x2="504.25" y1="215.9766" y2="215.9766"/><text fill="#000000" font-family="sans-serif" font-size="13" lengthAdjust="spacing" textLength="119" x="374.25" y="211.1201">Update Order Status</text><polygon fill="#181818" points="586.75,242.3281,596.75,246.3281,586.75,250.3281,590.75,246.3281" style="stroke:#181818;stroke-width:1.0;"/><line style="stroke:#181818;stroke-width:1.0;" x1="367.25" x2="592.75" y1="246.3281" y2="246.3281"/><text fill="#000000" font-family="sans-serif" font-size="13" lengthAdjust="spacing" textLength="199" x="374.25" y="241.4717">Send Order Status Changed Event</text><!--SRC=[pLIzJiCm4Dxz5ASm9nCJ0qj81GC2DKBCr-IQMdNiO5_IylOSQO9QAfH8TAWddtp-_dmoQpO4MUhgcdn1hmPvxNmDCRpuaZpav3jTaDJF509M18zeIoCdyR23XSUsX7H3nHQM55h3a7LaMJfo-cZ9zjTJPncrbOk6EZ9ADUXP5xf1wOooFPEtQ2B00EdjavLoOTmkoTsQT-Wf_mnCTKZ6naEjrChj8JgH6i7D-qOpAP1rGlBBGSzrvloCiGSVi9CV5o4Pq0QmSxO7P5nXe7_IZ31_sT6skeWHmL5aIv10rH3huM5dnZfVHmyxKyVyKO3u_cAF2NTJiwqgxzfcikjYWcQPcmnMV2sf8DrTZUIfgHV5Rqs9JEDtnCXjk1AHnxdctpDxh56oHLjHESGgnqfz0G00]--></g></svg>