<?xml version="1.0" encoding="us-ascii" standalone="no"?><svg xmlns="http://www.w3.org/2000/svg" xmlns:xlink="http://www.w3.org/1999/xlink" contentStyleType="text/css" height="314px" preserveAspectRatio="none" style="width:688px;height:314px;background:#FFFFFF;" version="1.1" viewBox="0 0 688 314" width="688px" zoomAndPan="magnify"><defs/><g><text fill="#000000" font-family="sans-serif" font-size="14" font-weight="bold" lengthAdjust="spacing" textLength="579" x="56" y="29.5332">Internet Banking - Single-Page App - View Account Transactions - CONTAINER level</text><rect fill="#FFFFFF" height="264.3281" style="stroke:#181818;stroke-width:0.5;" width="297" x="155.5" y="44.6094"/><text fill="#000000" font-family="sans-serif" font-size="13" font-weight="bold" lengthAdjust="spacing" textLength="105" x="251.5" y="58.1045">Internet Banking</text><rect fill="none" height="111.4063" style="stroke:#000000;stroke-width:1.5;" width="532.5" x="149.5" y="144.9219"/><rect fill="none" height="48.7031" style="stroke:#000000;stroke-width:1.5;" width="341.5" x="330.5" y="200.625"/><line style="stroke:#181818;stroke-width:0.5;stroke-dasharray:5.0,5.0;" x1="37" x2="37" y1="97.5703" y2="273.3281"/><line style="stroke:#181818;stroke-width:0.5;stroke-dasharray:5.0,5.0;" x1="219.5" x2="219.5" y1="97.5703" y2="273.3281"/><line style="stroke:#181818;stroke-width:0.5;stroke-dasharray:5.0,5.0;" x1="394.5" x2="394.5" y1="97.5703" y2="273.3281"/><line style="stroke:#181818;stroke-width:0.5;stroke-dasharray:5.0,5.0;" x1="569" x2="569" y1="97.5703" y2="273.3281"/><rect fill="#E2E2F0" height="31.6094" rx="2.5" ry="2.5" style="stroke:#181818;stroke-width:0.5;" width="65" x="5" y="64.9609"/><text fill="#000000" font-family="sans-serif" font-size="14" lengthAdjust="spacing" textLength="51" x="12" y="86.4941">External</text><rect fill="#E2E2F0" height="31.6094" rx="2.5" ry="2.5" style="stroke:#181818;stroke-width:0.5;" width="65" x="5" y="272.3281"/><text fill="#000000" font-family="sans-serif" font-size="14" lengthAdjust="spacing" textLength="51" x="12" y="293.8613">External</text><rect fill="#E2E2F0" height="31.6094" rx="2.5" ry="2.5" style="stroke:#181818;stroke-width:0.5;" width="120" x="159.5" y="64.9609"/><text fill="#000000" font-family="sans-serif" font-size="14" lengthAdjust="spacing" textLength="106" x="166.5" y="86.4941">Single-Page App</text><rect fill="#E2E2F0" height="31.6094" rx="2.5" ry="2.5" style="stroke:#181818;stroke-width:0.5;" width="120" x="159.5" y="272.3281"/><text fill="#000000" font-family="sans-serif" font-size="14" lengthAdjust="spacing" textLength="106" x="166.5" y="293.8613">Single-Page App</text><rect fill="#E2E2F0" height="31.6094" rx="2.5" ry="2.5" style="stroke:#181818;stroke-width:0.5;" width="108" x="340.5" y="64.9609"/><text fill="#000000" font-family="sans-serif" font-size="14" lengthAdjust="spacing" textLength="94" x="347.5" y="86.4941">API Application</text><rect fill="#E2E2F0" height="31.6094" rx="2.5" ry="2.5" style="stroke:#181818;stroke-width:0.5;" width="108" x="340.5" y="272.3281"/><text fill="#000000" font-family="sans-serif" font-size="14" lengthAdjust="spacing" textLength="94" x="347.5" y="293.8613">API Application</text><rect fill="#E2E2F0" height="31.6094" rx="2.5" ry="2.5" style="stroke:#181818;stroke-width:0.5;" width="185" x="477" y="64.9609"/><text fill="#000000" font-family="sans-serif" font-size="14" lengthAdjust="spacing" textLength="171" x="484" y="86.4941">Mainframe Banking System</text><rect fill="#E2E2F0" height="31.6094" rx="2.5" ry="2.5" style="stroke:#181818;stroke-width:0.5;" width="185" x="477" y="272.3281"/><text fill="#000000" font-family="sans-serif" font-size="14" lengthAdjust="spacing" textLength="171" x="484" y="293.8613">Mainframe Banking System</text><polygon fill="#181818" points="207.5,125.9219,217.5,129.9219,207.5,133.9219,211.5,129.9219" style="stroke:#181818;stroke-width:1.0;"/><line style="stroke:#181818;stroke-width:1.0;" x1="37.5" x2="213.5" y1="129.9219" y2="129.9219"/><text fill="#000000" font-family="sans-serif" font-size="13" lengthAdjust="spacing" textLength="158" x="44.5" y="125.0654">View Account Transactions</text><path d="M149.5,144.9219 L365.5,144.9219 L365.5,153.2734 L355.5,163.2734 L149.5,163.2734 L149.5,144.9219 " fill="#EEEEEE" style="stroke:#000000;stroke-width:1.5;"/><rect fill="none" height="111.4063" style="stroke:#000000;stroke-width:1.5;" width="532.5" x="149.5" y="144.9219"/><text fill="#000000" font-family="sans-serif" font-size="13" font-weight="bold" lengthAdjust="spacing" textLength="171" x="164.5" y="159.417">View Account Transactions</text><polygon fill="#181818" points="382.5,181.625,392.5,185.625,382.5,189.625,386.5,185.625" style="stroke:#181818;stroke-width:1.0;"/><line style="stroke:#181818;stroke-width:1.0;" x1="219.5" x2="388.5" y1="185.625" y2="185.625"/><text fill="#000000" font-family="sans-serif" font-size="13" lengthAdjust="spacing" textLength="151" x="226.5" y="180.7686">Get Account Transactions</text><path d="M330.5,200.625 L536.5,200.625 L536.5,208.9766 L526.5,218.9766 L330.5,218.9766 L330.5,200.625 " fill="#EEEEEE" style="stroke:#000000;stroke-width:1.5;"/><rect fill="none" height="48.7031" style="stroke:#000000;stroke-width:1.5;" width="341.5" x="330.5" y="200.625"/><text fill="#000000" font-family="sans-serif" font-size="13" font-weight="bold" lengthAdjust="spacing" textLength="161" x="345.5" y="215.1201">Get Account Transactions</text><polygon fill="#181818" points="557.5,237.3281,567.5,241.3281,557.5,245.3281,561.5,241.3281" style="stroke:#181818;stroke-width:1.0;"/><line style="stroke:#181818;stroke-width:1.0;" x1="394.5" x2="563.5" y1="241.3281" y2="241.3281"/><text fill="#000000" font-family="sans-serif" font-size="13" lengthAdjust="spacing" textLength="151" x="401.5" y="236.4717">Get Account Transactions</text><!--SRC=[hP9DJyCm38Rl-HMcdDSJ9mv8tJHG3uoAJd0smIiHQL8bBjt-FUcsJgnZ1K4ZLL5g-ttyTL4vB4e4ZHjRC_YI60qAmOerGMgOd266APftPGgOG1ukJPCC2uAagiAV9qKD95BQsZ0i7HgFafKrFjXc3ujbaYxcZw3fWxGG5JfMKbKOVAFvkfL77G5wc5rjQRVQDd5kLzoWetpZcKeVTuwxjn0lTWrHFxa8Bf_V59E0S8uulPotkAagshXConDQ9xpNZMVMC2f3piSxfLOew9o2aYnj0Lf9R3lm3r1G-Y8aoBn2ABhNl_lWl79Oqc4-E-MVk8UuVLZNrj-F02OtOtGGhizlZoYShQi1-nZyFvTnF9zGnrrOn84opff7mG-NyVsuXt8EwxRzn2S0]--></g></svg>