<?xml version="1.0" encoding="us-ascii" standalone="no"?><svg xmlns="http://www.w3.org/2000/svg" xmlns:xlink="http://www.w3.org/1999/xlink" contentStyleType="text/css" height="196.25px" preserveAspectRatio="none" style="width:430px;height:196px;background:#FFFFFF;" version="1.1" viewBox="0 0 430 196" width="430px" zoomAndPan="magnify"><defs/><g><text fill="#000000" font-family="sans-serif" font-size="8.75" font-weight="bold" lengthAdjust="spacing" textLength="361.875" x="35" y="18.4583">Internet Banking - Single-Page App - View Account Transactions - CONTAINER level</text><rect fill="#FFFFFF" height="165.2051" style="stroke:#181818;stroke-width:0.3125;" width="185.625" x="97.1875" y="27.8809"/><text fill="#000000" font-family="sans-serif" font-size="8.125" font-weight="bold" lengthAdjust="spacing" textLength="65.625" x="157.1875" y="36.3153">Internet Banking</text><rect fill="none" height="69.6289" style="stroke:#000000;stroke-width:0.9375;" width="332.8125" x="93.4375" y="90.5762"/><rect fill="none" height="30.4395" style="stroke:#000000;stroke-width:0.9375;" width="213.4375" x="206.5625" y="125.3906"/><line style="stroke:#181818;stroke-width:0.3125;stroke-dasharray:5.0,5.0;" x1="23.125" x2="23.125" y1="60.9814" y2="170.8301"/><line style="stroke:#181818;stroke-width:0.3125;stroke-dasharray:5.0,5.0;" x1="137.1875" x2="137.1875" y1="60.9814" y2="170.8301"/><line style="stroke:#181818;stroke-width:0.3125;stroke-dasharray:5.0,5.0;" x1="246.5625" x2="246.5625" y1="60.9814" y2="170.8301"/><line style="stroke:#181818;stroke-width:0.3125;stroke-dasharray:5.0,5.0;" x1="355.625" x2="355.625" y1="60.9814" y2="170.8301"/><rect fill="#E2E2F0" height="19.7559" rx="1.5625" ry="1.5625" style="stroke:#181818;stroke-width:0.3125;" width="40.625" x="3.125" y="40.6006"/><text fill="#000000" font-family="sans-serif" font-size="8.75" lengthAdjust="spacing" textLength="31.875" x="7.5" y="54.0588">External</text><rect fill="#E2E2F0" height="19.7559" rx="1.5625" ry="1.5625" style="stroke:#181818;stroke-width:0.3125;" width="40.625" x="3.125" y="170.2051"/><text fill="#000000" font-family="sans-serif" font-size="8.75" lengthAdjust="spacing" textLength="31.875" x="7.5" y="183.6633">External</text><rect fill="#E2E2F0" height="19.7559" rx="1.5625" ry="1.5625" style="stroke:#181818;stroke-width:0.3125;" width="75" x="99.6875" y="40.6006"/><text fill="#000000" font-family="sans-serif" font-size="8.75" lengthAdjust="spacing" textLength="66.25" x="104.0625" y="54.0588">Single-Page App</text><rect fill="#E2E2F0" height="19.7559" rx="1.5625" ry="1.5625" style="stroke:#181818;stroke-width:0.3125;" width="75" x="99.6875" y="170.2051"/><text fill="#000000" font-family="sans-serif" font-size="8.75" lengthAdjust="spacing" textLength="66.25" x="104.0625" y="183.6633">Single-Page App</text><rect fill="#E2E2F0" height="19.7559" rx="1.5625" ry="1.5625" style="stroke:#181818;stroke-width:0.3125;" width="67.5" x="212.8125" y="40.6006"/><text fill="#000000" font-family="sans-serif" font-size="8.75" lengthAdjust="spacing" textLength="58.75" x="217.1875" y="54.0588">API Application</text><rect fill="#E2E2F0" height="19.7559" rx="1.5625" ry="1.5625" style="stroke:#181818;stroke-width:0.3125;" width="67.5" x="212.8125" y="170.2051"/><text fill="#000000" font-family="sans-serif" font-size="8.75" lengthAdjust="spacing" textLength="58.75" x="217.1875" y="183.6633">API Application</text><rect fill="#E2E2F0" height="19.7559" rx="1.5625" ry="1.5625" style="stroke:#181818;stroke-width:0.3125;" width="115.625" x="298.125" y="40.6006"/><text fill="#000000" font-family="sans-serif" font-size="8.75" lengthAdjust="spacing" textLength="106.875" x="302.5" y="54.0588">Mainframe Banking System</text><rect fill="#E2E2F0" height="19.7559" rx="1.5625" ry="1.5625" style="stroke:#181818;stroke-width:0.3125;" width="115.625" x="298.125" y="170.2051"/><text fill="#000000" font-family="sans-serif" font-size="8.75" lengthAdjust="spacing" textLength="106.875" x="302.5" y="183.6633">Mainframe Banking System</text><polygon fill="#181818" points="129.6875,78.7012,135.9375,81.2012,129.6875,83.7012,132.1875,81.2012" style="stroke:#181818;stroke-width:0.625;"/><line style="stroke:#181818;stroke-width:0.625;" x1="23.4375" x2="133.4375" y1="81.2012" y2="81.2012"/><text fill="#000000" font-family="sans-serif" font-size="8.125" lengthAdjust="spacing" textLength="98.75" x="27.8125" y="78.1659">View Account Transactions</text><path d="M93.4375,90.5762 L228.4375,90.5762 L228.4375,95.7959 L222.1875,102.0459 L93.4375,102.0459 L93.4375,90.5762 " fill="#EEEEEE" style="stroke:#000000;stroke-width:0.9375;"/><rect fill="none" height="69.6289" style="stroke:#000000;stroke-width:0.9375;" width="332.8125" x="93.4375" y="90.5762"/><text fill="#000000" font-family="sans-serif" font-size="8.125" font-weight="bold" lengthAdjust="spacing" textLength="106.875" x="102.8125" y="99.6356">View Account Transactions</text><polygon fill="#181818" points="239.0625,113.5156,245.3125,116.0156,239.0625,118.5156,241.5625,116.0156" style="stroke:#181818;stroke-width:0.625;"/><line style="stroke:#181818;stroke-width:0.625;" x1="137.1875" x2="242.8125" y1="116.0156" y2="116.0156"/><text fill="#000000" font-family="sans-serif" font-size="8.125" lengthAdjust="spacing" textLength="94.375" x="141.5625" y="112.9803">Get Account Transactions</text><path d="M206.5625,125.3906 L335.3125,125.3906 L335.3125,130.6104 L329.0625,136.8604 L206.5625,136.8604 L206.5625,125.3906 " fill="#EEEEEE" style="stroke:#000000;stroke-width:0.9375;"/><rect fill="none" height="30.4395" style="stroke:#000000;stroke-width:0.9375;" width="213.4375" x="206.5625" y="125.3906"/><text fill="#000000" font-family="sans-serif" font-size="8.125" font-weight="bold" lengthAdjust="spacing" textLength="100.625" x="215.9375" y="134.4501">Get Account Transactions</text><polygon fill="#181818" points="348.4375,148.3301,354.6875,150.8301,348.4375,153.3301,350.9375,150.8301" style="stroke:#181818;stroke-width:0.625;"/><line style="stroke:#181818;stroke-width:0.625;" x1="246.5625" x2="352.1875" y1="150.8301" y2="150.8301"/><text fill="#000000" font-family="sans-serif" font-size="8.125" lengthAdjust="spacing" textLength="94.375" x="250.9375" y="147.7948">Get Account Transactions</text><!--SRC=[hP9BJyCm3CVl-HIcd5TnG1mu87NJG3imAZR1sNHUYKYJAF7ezkrnzn9x5GIBL4MfxV_FhmiViAmG32xSZ25Mn6XHnGzjFGQiOE8rt5mfnPeDmS0o1KiCNRJYKa87Hd8PwkHO4cJUovyNJJLaHU5cbc4Sq4OiM3iRnTPx6ewpmR3_38O-oIWb5DQ5zYY-IN_UoAD902FqhfUqU-FgTEIcN6EWqI8oLJ7TEAxUIhsvEIJxoILm-VgkcHJ8sU7ivRp4TNNPnEMcEA1jXDUwQSzPHcqfn7Ibr0Y9pY4eomSDmEW2cmxy0oHAtuGKsGb8qNlzUnJdgKoDjlDPAV_4tSQjmpPj_Vq8e7DtZWx2xUdjKMLmCzzYFmV_psNipaVgU915R2dZfFai-FOoZe-xBMTPj-MdlW00]--></g></svg>