<?xml version="1.0" encoding="us-ascii" standalone="no"?><svg xmlns="http://www.w3.org/2000/svg" xmlns:xlink="http://www.w3.org/1999/xlink" contentStyleType="text/css" height="363px" preserveAspectRatio="none" style="width:696px;height:363px;background:#FFFFFF;" version="1.1" viewBox="0 0 696 363" width="696px" zoomAndPan="magnify"><defs/><g><text fill="#000000" font-family="sans-serif" font-size="14" font-weight="bold" lengthAdjust="spacing" textLength="668" x="10" y="29.5332">Trader X Example - TraderX - Web GUI - Type Ahead People Search - Sequence - Container level</text><rect fill="#FFFFFF" height="313.3828" style="stroke:#181818;stroke-width:0.5;" width="217.5" x="246.25" y="44.6094"/><text fill="#000000" font-family="sans-serif" font-size="13" font-weight="bold" lengthAdjust="spacing" textLength="51" x="329.5" y="58.1045">TraderX</text><rect fill="none" height="144.1094" style="stroke:#000000;stroke-width:1.5;" width="373" x="240.25" y="161.2734"/><rect fill="none" height="65.0547" style="stroke:#000000;stroke-width:1.5;" width="262.5" x="340.75" y="233.3281"/><line style="stroke:#181818;stroke-width:0.5;stroke-dasharray:5.0,5.0;" x1="102.75" x2="102.75" y1="97.5703" y2="322.3828"/><line style="stroke:#181818;stroke-width:0.5;stroke-dasharray:5.0,5.0;" x1="285.25" x2="285.25" y1="97.5703" y2="322.3828"/><line style="stroke:#181818;stroke-width:0.5;stroke-dasharray:5.0,5.0;" x1="404.75" x2="404.75" y1="97.5703" y2="322.3828"/><line style="stroke:#181818;stroke-width:0.5;stroke-dasharray:5.0,5.0;" x1="541.25" x2="541.25" y1="97.5703" y2="322.3828"/><rect fill="#E2E2F0" height="31.6094" rx="2.5" ry="2.5" style="stroke:#181818;stroke-width:0.5;" width="65" x="70.75" y="64.9609"/><text fill="#000000" font-family="sans-serif" font-size="14" lengthAdjust="spacing" textLength="51" x="77.75" y="86.4941">External</text><rect fill="#E2E2F0" height="31.6094" rx="2.5" ry="2.5" style="stroke:#181818;stroke-width:0.5;" width="65" x="70.75" y="321.3828"/><text fill="#000000" font-family="sans-serif" font-size="14" lengthAdjust="spacing" textLength="51" x="77.75" y="342.916">External</text><rect fill="#E2E2F0" height="31.6094" rx="2.5" ry="2.5" style="stroke:#181818;stroke-width:0.5;" width="70" x="250.25" y="64.9609"/><text fill="#000000" font-family="sans-serif" font-size="14" lengthAdjust="spacing" textLength="56" x="257.25" y="86.4941">Web GUI</text><rect fill="#E2E2F0" height="31.6094" rx="2.5" ry="2.5" style="stroke:#181818;stroke-width:0.5;" width="70" x="250.25" y="321.3828"/><text fill="#000000" font-family="sans-serif" font-size="14" lengthAdjust="spacing" textLength="56" x="257.25" y="342.916">Web GUI</text><rect fill="#E2E2F0" height="31.6094" rx="2.5" ry="2.5" style="stroke:#181818;stroke-width:0.5;" width="109" x="350.75" y="64.9609"/><text fill="#000000" font-family="sans-serif" font-size="14" lengthAdjust="spacing" textLength="95" x="357.75" y="86.4941">People Service</text><rect fill="#E2E2F0" height="31.6094" rx="2.5" ry="2.5" style="stroke:#181818;stroke-width:0.5;" width="109" x="350.75" y="321.3828"/><text fill="#000000" font-family="sans-serif" font-size="14" lengthAdjust="spacing" textLength="95" x="357.75" y="342.916">People Service</text><rect fill="#E2E2F0" height="31.6094" rx="2.5" ry="2.5" style="stroke:#181818;stroke-width:0.5;" width="104" x="489.25" y="64.9609"/><text fill="#000000" font-family="sans-serif" font-size="14" lengthAdjust="spacing" textLength="90" x="496.25" y="86.4941">User Directory</text><rect fill="#E2E2F0" height="31.6094" rx="2.5" ry="2.5" style="stroke:#181818;stroke-width:0.5;" width="104" x="489.25" y="321.3828"/><text fill="#000000" font-family="sans-serif" font-size="14" lengthAdjust="spacing" textLength="90" x="496.25" y="342.916">User Directory</text><polygon fill="#181818" points="273.25,142.2734,283.25,146.2734,273.25,150.2734,277.25,146.2734" style="stroke:#181818;stroke-width:1.0;"/><line style="stroke:#181818;stroke-width:1.0;" x1="103.25" x2="279.25" y1="146.2734" y2="146.2734"/><text fill="#000000" font-family="sans-serif" font-size="13" lengthAdjust="spacing" textLength="158" x="110.25" y="125.0654">Type Ahead People Search</text><text fill="#000000" font-family="sans-serif" font-size="13" lengthAdjust="spacing" textLength="49" x="110.25" y="141.417">[HTTPS]</text><path d="M240.25,161.2734 L459.25,161.2734 L459.25,169.625 L449.25,179.625 L240.25,179.625 L240.25,161.2734 " fill="#EEEEEE" style="stroke:#000000;stroke-width:1.5;"/><rect fill="none" height="144.1094" style="stroke:#000000;stroke-width:1.5;" width="373" x="240.25" y="161.2734"/><text fill="#000000" font-family="sans-serif" font-size="13" font-weight="bold" lengthAdjust="spacing" textLength="174" x="255.25" y="175.7686">Type Ahead People Search</text><polygon fill="#181818" points="393.25,214.3281,403.25,218.3281,393.25,222.3281,397.25,218.3281" style="stroke:#181818;stroke-width:1.0;"/><line style="stroke:#181818;stroke-width:1.0;" x1="285.25" x2="399.25" y1="218.3281" y2="218.3281"/><text fill="#000000" font-family="sans-serif" font-size="13" lengthAdjust="spacing" textLength="96" x="292.25" y="197.1201">Get People Data</text><text fill="#000000" font-family="sans-serif" font-size="13" lengthAdjust="spacing" textLength="49" x="292.25" y="213.4717">[HTTPS]</text><path d="M340.75,233.3281 L489.75,233.3281 L489.75,241.6797 L479.75,251.6797 L340.75,251.6797 L340.75,233.3281 " fill="#EEEEEE" style="stroke:#000000;stroke-width:1.5;"/><rect fill="none" height="65.0547" style="stroke:#000000;stroke-width:1.5;" width="262.5" x="340.75" y="233.3281"/><text fill="#000000" font-family="sans-serif" font-size="13" font-weight="bold" lengthAdjust="spacing" textLength="104" x="355.75" y="247.8232">Get People Data</text><polygon fill="#181818" points="529.25,286.3828,539.25,290.3828,529.25,294.3828,533.25,290.3828" style="stroke:#181818;stroke-width:1.0;"/><line style="stroke:#181818;stroke-width:1.0;" x1="405.25" x2="535.25" y1="290.3828" y2="290.3828"/><text fill="#000000" font-family="sans-serif" font-size="13" lengthAdjust="spacing" textLength="112" x="412.25" y="269.1748">Select People Data</text><text fill="#000000" font-family="sans-serif" font-size="13" lengthAdjust="spacing" textLength="42" x="412.25" y="285.5264">[LDAP]</text><!--SRC=[fLB1Ri8m3BtdAwpkJ4yxxJ09KSQGTgZK8f0s3g4rQwIGTAc1zk_dGa1g4Hhg8aLARB_dvvUG8esGEfcZWnLCQxahEJ3oeHMVbhY1sMBUnfeIOLoWp256szObA5rMS2h1dpsQh4LEh26f3FDfFA0MefIELAPAQGY2QKteZDG1o0ecptF3rpTjZs5YjtIK3fEc8jnLuQNmV1TYOsi8lAe0dfQ58XJ0gqFlnPxOVR6VwQQ1JuTNlLN8Q0RVibwdTGULuK3oCudd46Xou95wxYmgjYrI3ZEohdcaKOku0eHut54OlGvs25xk_eKly_cUfd6o5j_ExikxTM9mxq6wE-Qp_1dIHKyaIVPLzzBYlmt_rjnvHnQOeEPpJ-D7D8xNxTSvRV4B]--></g></svg>