<?xml version="1.0" encoding="us-ascii" standalone="no"?><svg xmlns="http://www.w3.org/2000/svg" xmlns:xlink="http://www.w3.org/1999/xlink" contentStyleType="text/css" height="427px" preserveAspectRatio="none" style="width:541px;height:427px;background:#FFFFFF;" version="1.1" viewBox="0 0 541 427" width="541px" zoomAndPan="magnify"><defs/><g><text fill="#000000" font-family="sans-serif" font-size="14" font-weight="bold" lengthAdjust="spacing" textLength="513" x="10" y="29.5332">Catalog Api - Api - Catalog Api - Get Item Picture By Id - COMPONENT level</text><rect fill="#FFFFFF" height="377.0313" style="stroke:#181818;stroke-width:0.5;" width="95" x="156.25" y="44.6094"/><text fill="#000000" font-family="sans-serif" font-size="13" font-weight="bold" lengthAdjust="spacing" textLength="21" x="193.25" y="58.1045">Api</text><rect fill="none" height="224.1094" style="stroke:#000000;stroke-width:1.5;" width="370.5" x="140.25" y="144.9219"/><rect fill="none" height="61.7031" style="stroke:#000000;stroke-width:1.5;" width="257.5" x="150.25" y="170.2734"/><line style="stroke:#181818;stroke-width:0.5;stroke-dasharray:5.0,5.0;" x1="50.25" x2="50.25" y1="97.5703" y2="386.0313"/><line style="stroke:#181818;stroke-width:0.5;stroke-dasharray:5.0,5.0;" x1="203.25" x2="203.25" y1="97.5703" y2="386.0313"/><rect fill="#E2E2F0" height="31.6094" rx="2.5" ry="2.5" style="stroke:#181818;stroke-width:0.5;" width="65" x="18.25" y="64.9609"/><text fill="#000000" font-family="sans-serif" font-size="14" lengthAdjust="spacing" textLength="51" x="25.25" y="86.4941">External</text><rect fill="#E2E2F0" height="31.6094" rx="2.5" ry="2.5" style="stroke:#181818;stroke-width:0.5;" width="65" x="18.25" y="385.0313"/><text fill="#000000" font-family="sans-serif" font-size="14" lengthAdjust="spacing" textLength="51" x="25.25" y="406.5645">External</text><rect fill="#E2E2F0" height="31.6094" rx="2.5" ry="2.5" style="stroke:#181818;stroke-width:0.5;" width="87" x="160.25" y="64.9609"/><text fill="#000000" font-family="sans-serif" font-size="14" lengthAdjust="spacing" textLength="73" x="167.25" y="86.4941">Catalog Api</text><rect fill="#E2E2F0" height="31.6094" rx="2.5" ry="2.5" style="stroke:#181818;stroke-width:0.5;" width="87" x="160.25" y="385.0313"/><text fill="#000000" font-family="sans-serif" font-size="14" lengthAdjust="spacing" textLength="73" x="167.25" y="406.5645">Catalog Api</text><polygon fill="#181818" points="191.75,125.9219,201.75,129.9219,191.75,133.9219,195.75,129.9219" style="stroke:#181818;stroke-width:1.0;"/><line style="stroke:#181818;stroke-width:1.0;" x1="50.75" x2="197.75" y1="129.9219" y2="129.9219"/><text fill="#000000" font-family="sans-serif" font-size="13" lengthAdjust="spacing" textLength="129" x="57.75" y="125.0654">Get Item Picture By Id</text><path d="M140.25,144.9219 L324.25,144.9219 L324.25,153.2734 L314.25,163.2734 L140.25,163.2734 L140.25,144.9219 " fill="#EEEEEE" style="stroke:#000000;stroke-width:1.5;"/><rect fill="none" height="224.1094" style="stroke:#000000;stroke-width:1.5;" width="370.5" x="140.25" y="144.9219"/><text fill="#000000" font-family="sans-serif" font-size="13" font-weight="bold" lengthAdjust="spacing" textLength="139" x="155.25" y="159.417">Get Item Picture By Id</text><path d="M150.25,170.2734 L211.25,170.2734 L211.25,178.625 L201.25,188.625 L150.25,188.625 L150.25,170.2734 " fill="#EEEEEE" style="stroke:#000000;stroke-width:1.5;"/><rect fill="none" height="61.7031" style="stroke:#000000;stroke-width:1.5;" width="257.5" x="150.25" y="170.2734"/><text fill="#000000" font-family="sans-serif" font-size="13" font-weight="bold" lengthAdjust="spacing" textLength="16" x="165.25" y="184.7686">alt</text><text fill="#000000" font-family="sans-serif" font-size="11" font-weight="bold" lengthAdjust="spacing" textLength="69" x="226.25" y="183.6924">[item is null]</text><line style="stroke:#181818;stroke-width:1.0;" x1="203.75" x2="245.75" y1="210.9766" y2="210.9766"/><line style="stroke:#181818;stroke-width:1.0;" x1="245.75" x2="245.75" y1="210.9766" y2="223.9766"/><line style="stroke:#181818;stroke-width:1.0;" x1="204.75" x2="245.75" y1="223.9766" y2="223.9766"/><polygon fill="#181818" points="214.75,219.9766,204.75,223.9766,214.75,227.9766,210.75,223.9766" style="stroke:#181818;stroke-width:1.0;"/><text fill="#000000" font-family="sans-serif" font-size="13" lengthAdjust="spacing" textLength="185" x="210.75" y="206.1201">Retun (TypedResults.NotFound)</text><line style="stroke:#181818;stroke-width:1.0;" x1="203.75" x2="245.75" y1="261.3281" y2="261.3281"/><line style="stroke:#181818;stroke-width:1.0;" x1="245.75" x2="245.75" y1="261.3281" y2="274.3281"/><line style="stroke:#181818;stroke-width:1.0;" x1="204.75" x2="245.75" y1="274.3281" y2="274.3281"/><polygon fill="#181818" points="214.75,270.3281,204.75,274.3281,214.75,278.3281,210.75,274.3281" style="stroke:#181818;stroke-width:1.0;"/><text fill="#000000" font-family="sans-serif" font-size="13" lengthAdjust="spacing" textLength="77" x="210.75" y="256.4717">Get Full Path</text><line style="stroke:#181818;stroke-width:1.0;" x1="203.75" x2="245.75" y1="304.6797" y2="304.6797"/><line style="stroke:#181818;stroke-width:1.0;" x1="245.75" x2="245.75" y1="304.6797" y2="317.6797"/><line style="stroke:#181818;stroke-width:1.0;" x1="204.75" x2="245.75" y1="317.6797" y2="317.6797"/><polygon fill="#181818" points="214.75,313.6797,204.75,317.6797,214.75,321.6797,210.75,317.6797" style="stroke:#181818;stroke-width:1.0;"/><text fill="#000000" font-family="sans-serif" font-size="13" lengthAdjust="spacing" textLength="288" x="210.75" y="299.8232">Get Image Mime Type From Image File Extension</text><line style="stroke:#181818;stroke-width:1.0;" x1="203.75" x2="245.75" y1="348.0313" y2="348.0313"/><line style="stroke:#181818;stroke-width:1.0;" x1="245.75" x2="245.75" y1="348.0313" y2="361.0313"/><line style="stroke:#181818;stroke-width:1.0;" x1="204.75" x2="245.75" y1="361.0313" y2="361.0313"/><polygon fill="#181818" points="214.75,357.0313,204.75,361.0313,214.75,365.0313,210.75,361.0313" style="stroke:#181818;stroke-width:1.0;"/><text fill="#000000" font-family="sans-serif" font-size="13" lengthAdjust="spacing" textLength="200" x="210.75" y="343.1748">Retun (TypedResults.PhysicalFile)</text><!--SRC=[tLGzJyCm4DtzAuwmmD1CJ0n8fMfGXhPHMudvI8x4ahzaNsZpxx594Iq8YQL3yM3vldplwPrzvJos6a7XO7k6e8dHe10iMH7Ca57P5gPEmkImd_gUYA5aqb39cdjFy3X0sQIqrQ9QBUVBBIXw8oM4Gy-obWuDGpRVCtc3AWCCCBihJJGBPNVvnhxo3ZrjXX1l3VbducWByMBta1r1oE3wkPDC0k8Qez-z9urFIcFlnh8XpcdJMPTFVPsgFeZyG7AeZ8Nvp1f6QSY7V3IriuOC7oS9CWr4FEBh8FvE52OFvuC6zx_89bflU_TR41M3J6uPmFHAYVC1F3FxDN5lu6OxE6hM57eL4vQM2zkRvZRfTRdKadP550SgvEwoQPGQMuA5r0H9AIYyrGTd8UFdb5wC2TAQ_pM8LJS4MQDA7CTX5Ey0]--></g></svg>