<?xml version="1.0" encoding="us-ascii" standalone="no"?><svg xmlns="http://www.w3.org/2000/svg" xmlns:xlink="http://www.w3.org/1999/xlink" contentStyleType="text/css" height="266.875px" preserveAspectRatio="none" style="width:338px;height:266px;background:#FFFFFF;" version="1.1" viewBox="0 0 338 266" width="338.125px" zoomAndPan="magnify"><defs/><g><text fill="#000000" font-family="sans-serif" font-size="8.75" font-weight="bold" lengthAdjust="spacing" textLength="320.625" x="6.25" y="18.4583">Catalog Api - Api - Catalog Api - Get Item Picture By Id - COMPONENT level</text><rect fill="#FFFFFF" height="235.6445" style="stroke:#181818;stroke-width:0.3125;" width="59.375" x="97.6563" y="27.8809"/><text fill="#000000" font-family="sans-serif" font-size="8.125" font-weight="bold" lengthAdjust="spacing" textLength="13.125" x="120.7813" y="36.3153">Api</text><rect fill="none" height="140.0684" style="stroke:#000000;stroke-width:0.9375;" width="231.5625" x="87.6563" y="90.5762"/><rect fill="none" height="38.5645" style="stroke:#000000;stroke-width:0.9375;" width="160.9375" x="93.9063" y="106.4209"/><line style="stroke:#181818;stroke-width:0.3125;stroke-dasharray:5.0,5.0;" x1="31.4063" x2="31.4063" y1="60.9814" y2="241.2695"/><line style="stroke:#181818;stroke-width:0.3125;stroke-dasharray:5.0,5.0;" x1="127.0313" x2="127.0313" y1="60.9814" y2="241.2695"/><rect fill="#E2E2F0" height="19.7559" rx="1.5625" ry="1.5625" style="stroke:#181818;stroke-width:0.3125;" width="40.625" x="11.4063" y="40.6006"/><text fill="#000000" font-family="sans-serif" font-size="8.75" lengthAdjust="spacing" textLength="31.875" x="15.7813" y="54.0588">External</text><rect fill="#E2E2F0" height="19.7559" rx="1.5625" ry="1.5625" style="stroke:#181818;stroke-width:0.3125;" width="40.625" x="11.4063" y="240.6445"/><text fill="#000000" font-family="sans-serif" font-size="8.75" lengthAdjust="spacing" textLength="31.875" x="15.7813" y="254.1028">External</text><rect fill="#E2E2F0" height="19.7559" rx="1.5625" ry="1.5625" style="stroke:#181818;stroke-width:0.3125;" width="54.375" x="100.1563" y="40.6006"/><text fill="#000000" font-family="sans-serif" font-size="8.75" lengthAdjust="spacing" textLength="45.625" x="104.5313" y="54.0588">Catalog Api</text><rect fill="#E2E2F0" height="19.7559" rx="1.5625" ry="1.5625" style="stroke:#181818;stroke-width:0.3125;" width="54.375" x="100.1563" y="240.6445"/><text fill="#000000" font-family="sans-serif" font-size="8.75" lengthAdjust="spacing" textLength="45.625" x="104.5313" y="254.1028">Catalog Api</text><polygon fill="#181818" points="119.8438,78.7012,126.0938,81.2012,119.8438,83.7012,122.3438,81.2012" style="stroke:#181818;stroke-width:0.625;"/><line style="stroke:#181818;stroke-width:0.625;" x1="31.7188" x2="123.5938" y1="81.2012" y2="81.2012"/><text fill="#000000" font-family="sans-serif" font-size="8.125" lengthAdjust="spacing" textLength="80.625" x="36.0938" y="78.1659">Get Item Picture By Id</text><path d="M87.6563,90.5762 L202.6563,90.5762 L202.6563,95.7959 L196.4063,102.0459 L87.6563,102.0459 L87.6563,90.5762 " fill="#EEEEEE" style="stroke:#000000;stroke-width:0.9375;"/><rect fill="none" height="140.0684" style="stroke:#000000;stroke-width:0.9375;" width="231.5625" x="87.6563" y="90.5762"/><text fill="#000000" font-family="sans-serif" font-size="8.125" font-weight="bold" lengthAdjust="spacing" textLength="86.875" x="97.0313" y="99.6356">Get Item Picture By Id</text><path d="M93.9063,106.4209 L132.0313,106.4209 L132.0313,111.6406 L125.7813,117.8906 L93.9063,117.8906 L93.9063,106.4209 " fill="#EEEEEE" style="stroke:#000000;stroke-width:0.9375;"/><rect fill="none" height="38.5645" style="stroke:#000000;stroke-width:0.9375;" width="160.9375" x="93.9063" y="106.4209"/><text fill="#000000" font-family="sans-serif" font-size="8.125" font-weight="bold" lengthAdjust="spacing" textLength="10" x="103.2813" y="115.4803">alt</text><text fill="#000000" font-family="sans-serif" font-size="6.875" font-weight="bold" lengthAdjust="spacing" textLength="43.125" x="141.4063" y="114.8077">[item is null]</text><line style="stroke:#181818;stroke-width:0.625;" x1="127.3438" x2="153.5938" y1="131.8604" y2="131.8604"/><line style="stroke:#181818;stroke-width:0.625;" x1="153.5938" x2="153.5938" y1="131.8604" y2="139.9854"/><line style="stroke:#181818;stroke-width:0.625;" x1="127.9688" x2="153.5938" y1="139.9854" y2="139.9854"/><polygon fill="#181818" points="134.2188,137.4854,127.9688,139.9854,134.2188,142.4854,131.7188,139.9854" style="stroke:#181818;stroke-width:0.625;"/><text fill="#000000" font-family="sans-serif" font-size="8.125" lengthAdjust="spacing" textLength="115.625" x="131.7188" y="128.8251">Retun (TypedResults.NotFound)</text><line style="stroke:#181818;stroke-width:0.625;" x1="127.3438" x2="153.5938" y1="163.3301" y2="163.3301"/><line style="stroke:#181818;stroke-width:0.625;" x1="153.5938" x2="153.5938" y1="163.3301" y2="171.4551"/><line style="stroke:#181818;stroke-width:0.625;" x1="127.9688" x2="153.5938" y1="171.4551" y2="171.4551"/><polygon fill="#181818" points="134.2188,168.9551,127.9688,171.4551,134.2188,173.9551,131.7188,171.4551" style="stroke:#181818;stroke-width:0.625;"/><text fill="#000000" font-family="sans-serif" font-size="8.125" lengthAdjust="spacing" textLength="48.125" x="131.7188" y="160.2948">Get Full Path</text><line style="stroke:#181818;stroke-width:0.625;" x1="127.3438" x2="153.5938" y1="190.4248" y2="190.4248"/><line style="stroke:#181818;stroke-width:0.625;" x1="153.5938" x2="153.5938" y1="190.4248" y2="198.5498"/><line style="stroke:#181818;stroke-width:0.625;" x1="127.9688" x2="153.5938" y1="198.5498" y2="198.5498"/><polygon fill="#181818" points="134.2188,196.0498,127.9688,198.5498,134.2188,201.0498,131.7188,198.5498" style="stroke:#181818;stroke-width:0.625;"/><text fill="#000000" font-family="sans-serif" font-size="8.125" lengthAdjust="spacing" textLength="180" x="131.7188" y="187.3895">Get Image Mime Type From Image File Extension</text><line style="stroke:#181818;stroke-width:0.625;" x1="127.3438" x2="153.5938" y1="217.5195" y2="217.5195"/><line style="stroke:#181818;stroke-width:0.625;" x1="153.5938" x2="153.5938" y1="217.5195" y2="225.6445"/><line style="stroke:#181818;stroke-width:0.625;" x1="127.9688" x2="153.5938" y1="225.6445" y2="225.6445"/><polygon fill="#181818" points="134.2188,223.1445,127.9688,225.6445,134.2188,228.1445,131.7188,225.6445" style="stroke:#181818;stroke-width:0.625;"/><text fill="#000000" font-family="sans-serif" font-size="8.125" lengthAdjust="spacing" textLength="125" x="131.7188" y="214.4843">Retun (TypedResults.PhysicalFile)</text><!--SRC=[tLGzJyCm4DtzAuwmmD280J4m89MgGHdQHcqbvYCv4Wj_oRxGvj_Za29QK2MM3iM3vNk-Ex-dP_l2UQmrWiBEjWn14wD14TwaSUXHG-KatDq8mP8LmGGPbQrX7D7HRZx4deWXPz9Go99RJ_3OGLxrQOjPiPXFvsjGz4vAYDYVPIaT6ePakcNo1bK2661ocviOPifkqfLzvGrwMdKXTWtfL-8G2_5Yjv3iKKZWyhcHJ0BY67P_eWS77vJ6iolBXZYbLMDTElPbN_Kfv1UJNMKiJ2VMC4f3FgH3g9qrP7W_IP2f8F8HtmlnTw4mUZWTDRW_OfkelMtTiKrK3BA7PG3JAYLEH_34wfV4hO6hTUUeMb9eLKoOMyviQwhhtg_pbTPxbqLpe41kpbj6hh4cc4bDq3i5cRTw1sOoVaxzYp51MlE_BcBHT46Mg7gDmsKK7m00]--></g></svg>