<?xml version="1.0" encoding="us-ascii" standalone="no"?><svg xmlns="http://www.w3.org/2000/svg" xmlns:xlink="http://www.w3.org/1999/xlink" contentStyleType="text/css" height="551px" preserveAspectRatio="none" style="width:742px;height:551px;background:#FFFFFF;" version="1.1" viewBox="0 0 742 551" width="742px" zoomAndPan="magnify"><defs/><g><text fill="#000000" font-family="sans-serif" font-size="14" font-weight="bold" lengthAdjust="spacing" textLength="403" x="151" y="24.5332">ECommercePlatform - Storefront Bff - C4 - Container level</text><!--cluster ECommercePlatform.SoftwareSystems.ProductService--><g id="cluster_ECommercePlatform.SoftwareSystems.ProductService"><rect fill="none" height="247" rx="2.5" ry="2.5" style="stroke:#444444;stroke-width:1.0;stroke-dasharray:7.0,7.0;" width="138" x="14" y="185.6094"/><text fill="#444444" font-family="sans-serif" font-size="16" font-weight="bold" lengthAdjust="spacing" textLength="122" x="22" y="204.2188">Product Service</text><text fill="#444444" font-family="sans-serif" font-size="12" font-weight="bold" lengthAdjust="spacing" textLength="51" x="57.5" y="220.1914">[System]</text></g><!--cluster ECommercePlatform.SoftwareSystems.SearchService--><g id="cluster_ECommercePlatform.SoftwareSystems.SearchService"><rect fill="none" height="247" rx="2.5" ry="2.5" style="stroke:#444444;stroke-width:1.0;stroke-dasharray:7.0,7.0;" width="131" x="160" y="185.6094"/><text fill="#444444" font-family="sans-serif" font-size="16" font-weight="bold" lengthAdjust="spacing" textLength="115" x="168" y="204.2188">Search Service</text><text fill="#444444" font-family="sans-serif" font-size="12" font-weight="bold" lengthAdjust="spacing" textLength="51" x="200" y="220.1914">[System]</text></g><!--cluster ECommercePlatform.SoftwareSystems.BasketService--><g id="cluster_ECommercePlatform.SoftwareSystems.BasketService"><rect fill="none" height="247" rx="2.5" ry="2.5" style="stroke:#444444;stroke-width:1.0;stroke-dasharray:7.0,7.0;" width="130" x="299" y="185.6094"/><text fill="#444444" font-family="sans-serif" font-size="16" font-weight="bold" lengthAdjust="spacing" textLength="114" x="307" y="204.2188">Basket Service</text><text fill="#444444" font-family="sans-serif" font-size="12" font-weight="bold" lengthAdjust="spacing" textLength="51" x="338.5" y="220.1914">[System]</text></g><!--cluster ECommercePlatform.SoftwareSystems.OrderService--><g id="cluster_ECommercePlatform.SoftwareSystems.OrderService"><rect fill="none" height="247" rx="2.5" ry="2.5" style="stroke:#444444;stroke-width:1.0;stroke-dasharray:7.0,7.0;" width="277" x="437" y="185.6094"/><text fill="#444444" font-family="sans-serif" font-size="16" font-weight="bold" lengthAdjust="spacing" textLength="104" x="523.5" y="204.2188">Order Service</text><text fill="#444444" font-family="sans-serif" font-size="12" font-weight="bold" lengthAdjust="spacing" textLength="51" x="550" y="220.1914">[System]</text></g><!--entity ECommercePlatform.SoftwareSystems.StorefrontBff--><g id="elem_ECommercePlatform.SoftwareSystems.StorefrontBff"><rect fill="#1168BD" height="40.125" rx="2.5" ry="2.5" style="stroke:#3C7FC0;stroke-width:0.5;" width="123" x="206.5" y="42.6094"/><text fill="#FFFFFF" font-family="sans-serif" font-size="16" font-weight="bold" lengthAdjust="spacing" textLength="77" x="216.5" y="69.2188">Storefront</text><text fill="#FFFFFF" font-family="sans-serif" font-size="16" font-weight="bold" lengthAdjust="spacing" textLength="4" x="293.5" y="69.2188">&#160;</text><text fill="#FFFFFF" font-family="sans-serif" font-size="16" font-weight="bold" lengthAdjust="spacing" textLength="22" x="297.5" y="69.2188">Bff</text></g><!--entity ECommercePlatform.SoftwareSystems.ProductService.Containers.Api--><g id="elem_ECommercePlatform.SoftwareSystems.ProductService.Containers.Api"><rect fill="#438DD5" height="40.125" rx="2.5" ry="2.5" style="stroke:#3C7FC0;stroke-width:0.5;" width="45" x="44.5" y="231.6094"/><text fill="#FFFFFF" font-family="sans-serif" font-size="16" font-weight="bold" lengthAdjust="spacing" textLength="25" x="54.5" y="258.2188">Api</text></g><!--entity ECommercePlatform.SoftwareSystems.ProductService.Containers.Database--><g id="elem_ECommercePlatform.SoftwareSystems.ProductService.Containers.Database"><rect fill="#438DD5" height="40.125" rx="2.5" ry="2.5" style="stroke:#3C7FC0;stroke-width:0.5;" width="92" x="22" y="384.6094"/><text fill="#FFFFFF" font-family="sans-serif" font-size="16" font-weight="bold" lengthAdjust="spacing" textLength="72" x="32" y="411.2188">Database</text></g><!--entity ECommercePlatform.SoftwareSystems.SearchService.Containers.Api--><g id="elem_ECommercePlatform.SoftwareSystems.SearchService.Containers.Api"><rect fill="#438DD5" height="40.125" rx="2.5" ry="2.5" style="stroke:#3C7FC0;stroke-width:0.5;" width="45" x="179.5" y="231.6094"/><text fill="#FFFFFF" font-family="sans-serif" font-size="16" font-weight="bold" lengthAdjust="spacing" textLength="25" x="189.5" y="258.2188">Api</text></g><!--entity ECommercePlatform.SoftwareSystems.SearchService.Containers.Database--><g id="elem_ECommercePlatform.SoftwareSystems.SearchService.Containers.Database"><rect fill="#438DD5" height="40.125" rx="2.5" ry="2.5" style="stroke:#3C7FC0;stroke-width:0.5;" width="92" x="168" y="384.6094"/><text fill="#FFFFFF" font-family="sans-serif" font-size="16" font-weight="bold" lengthAdjust="spacing" textLength="72" x="178" y="411.2188">Database</text></g><!--entity ECommercePlatform.SoftwareSystems.BasketService.Containers.Api--><g id="elem_ECommercePlatform.SoftwareSystems.BasketService.Containers.Api"><rect fill="#438DD5" height="40.125" rx="2.5" ry="2.5" style="stroke:#3C7FC0;stroke-width:0.5;" width="45" x="312.5" y="231.6094"/><text fill="#FFFFFF" font-family="sans-serif" font-size="16" font-weight="bold" lengthAdjust="spacing" textLength="25" x="322.5" y="258.2188">Api</text></g><!--entity ECommercePlatform.SoftwareSystems.BasketService.Containers.Database--><g id="elem_ECommercePlatform.SoftwareSystems.BasketService.Containers.Database"><rect fill="#438DD5" height="40.125" rx="2.5" ry="2.5" style="stroke:#3C7FC0;stroke-width:0.5;" width="92" x="307" y="384.6094"/><text fill="#FFFFFF" font-family="sans-serif" font-size="16" font-weight="bold" lengthAdjust="spacing" textLength="72" x="317" y="411.2188">Database</text></g><!--entity ECommercePlatform.SoftwareSystems.OrderService.Containers.Api--><g id="elem_ECommercePlatform.SoftwareSystems.OrderService.Containers.Api"><rect fill="#438DD5" height="40.125" rx="2.5" ry="2.5" style="stroke:#3C7FC0;stroke-width:0.5;" width="45" x="445.5" y="231.6094"/><text fill="#FFFFFF" font-family="sans-serif" font-size="16" font-weight="bold" lengthAdjust="spacing" textLength="25" x="455.5" y="258.2188">Api</text></g><!--entity ECommercePlatform.SoftwareSystems.OrderService.Containers.Database--><g id="elem_ECommercePlatform.SoftwareSystems.OrderService.Containers.Database"><rect fill="#438DD5" height="40.125" rx="2.5" ry="2.5" style="stroke:#3C7FC0;stroke-width:0.5;" width="92" x="445" y="384.6094"/><text fill="#FFFFFF" font-family="sans-serif" font-size="16" font-weight="bold" lengthAdjust="spacing" textLength="72" x="455" y="411.2188">Database</text></g><!--entity ECommercePlatform.SoftwareSystems.OrderService.Containers.Messaging--><g id="elem_ECommercePlatform.SoftwareSystems.OrderService.Containers.Messaging"><rect fill="#438DD5" height="40.125" rx="2.5" ry="2.5" style="stroke:#3C7FC0;stroke-width:0.5;" width="103" x="555.5" y="384.6094"/><text fill="#FFFFFF" font-family="sans-serif" font-size="16" font-weight="bold" lengthAdjust="spacing" textLength="83" x="565.5" y="411.2188">Messaging</text></g><polygon fill="none" points="67.4217,231.3815,70.8628,223.5611,64.8721,223.2268,67.4217,231.3815" style="stroke:#666666;stroke-width:1.0;"/><path d="M206.4161,72.2434 C170.0074,78.5153 128.4573,88.0931 115,100.6094 C77.56,135.4314 69.6512,191.4307 67.8675,223.394 " fill="none" style="stroke:#666666;stroke-width:1.0;"/><text fill="#666666" font-family="sans-serif" font-size="12" font-weight="bold" lengthAdjust="spacing" textLength="74" x="116" y="144.0664">Get Products</text><polygon fill="none" points="64.9133,384.4554,66.7949,376.1211,60.8509,376.9389,64.9133,384.4554" style="stroke:#666666;stroke-width:1.0;"/><path d="M64.5303,271.7812 C63.9002,277.506 63.313,283.8029 63,289.6094 C61.1582,323.782 60.7033,332.4643 63,366.6094 C63.3915,372.43 63.0353,370.8057 63.8229,376.53 " fill="none" style="stroke:#666666;stroke-width:1.0;"/><text fill="#666666" font-family="sans-serif" font-size="12" font-weight="bold" lengthAdjust="spacing" textLength="91" x="64" y="333.0664">Select Products</text><polygon fill="none" points="198.199,231.5392,199.8619,223.1586,193.9413,224.1316,198.199,231.5392" style="stroke:#666666;stroke-width:1.0;"/><path d="M228.7654,82.6562 C222.1458,87.5967 216.1006,93.5582 212,100.6094 C187.8577,142.1227 191.9565,193.5568 196.9016,223.6451 " fill="none" style="stroke:#666666;stroke-width:1.0;"/><text fill="#666666" font-family="sans-serif" font-size="12" font-weight="bold" lengthAdjust="spacing" textLength="96" x="213" y="144.0664">Search Products</text><polygon fill="none" points="206.4781,384.3034,206.8362,375.7669,201.1349,377.6363,206.4781,384.3034" style="stroke:#666666;stroke-width:1.0;"/><path d="M200.1902,271.7124 C198.4496,294.4723 196.7765,333.5718 202,366.6094 C202.9281,372.4791 202.1435,371.0837 203.9856,376.7016 " fill="none" style="stroke:#666666;stroke-width:1.0;"/><text fill="#666666" font-family="sans-serif" font-size="12" font-weight="bold" lengthAdjust="spacing" textLength="91" x="203" y="333.0664">Select Products</text><polygon fill="none" points="335.7822,231.2781,338.8805,223.3156,332.881,223.2417,335.7822,231.2781" style="stroke:#666666;stroke-width:1.0;"/><path d="M295.3421,82.7867 C300.9841,87.9593 306.3204,93.9827 310,100.6094 C333.4538,142.8483 336.2496,193.3496 335.8808,223.2787 " fill="none" style="stroke:#666666;stroke-width:1.0;"/><text fill="#666666" font-family="sans-serif" font-size="12" font-weight="bold" lengthAdjust="spacing" textLength="54" x="346.5" y="114.0664">Get Items</text><text fill="#666666" font-family="sans-serif" font-size="12" font-weight="bold" lengthAdjust="spacing" textLength="50" x="348.5" y="129.1602">Add Item</text><text fill="#666666" font-family="sans-serif" font-size="12" font-weight="bold" lengthAdjust="spacing" textLength="68" x="339.5" y="144.2539">Update Item</text><text fill="#666666" font-family="sans-serif" font-size="12" font-weight="bold" lengthAdjust="spacing" textLength="64" x="341.5" y="159.3477">Delete Item</text><text fill="#666666" font-family="sans-serif" font-size="12" font-weight="bold" lengthAdjust="spacing" textLength="79" x="334" y="174.4414">Delete Basket</text><polygon fill="none" points="350.6819,384.1634,352.7139,375.8646,346.7561,376.5748,350.6819,384.1634" style="stroke:#666666;stroke-width:1.0;"/><path d="M337.2797,271.7336 C340.7232,300.6204 346.2691,347.1443 349.735,376.2197 " fill="none" style="stroke:#666666;stroke-width:1.0;"/><text fill="#666666" font-family="sans-serif" font-size="12" font-weight="bold" lengthAdjust="spacing" textLength="71" x="354" y="303.0664">Select Items</text><text fill="#666666" font-family="sans-serif" font-size="12" font-weight="bold" lengthAdjust="spacing" textLength="61" x="359" y="318.1602">Insert Item</text><text fill="#666666" font-family="sans-serif" font-size="12" font-weight="bold" lengthAdjust="spacing" textLength="68" x="355.5" y="333.2539">Update Item</text><text fill="#666666" font-family="sans-serif" font-size="12" font-weight="bold" lengthAdjust="spacing" textLength="64" x="357.5" y="348.3477">Delete Item</text><text fill="#666666" font-family="sans-serif" font-size="12" font-weight="bold" lengthAdjust="spacing" textLength="79" x="350" y="363.4414">Delete Basket</text><polygon fill="none" points="467.2814,231.3808,469.7072,223.1884,463.7223,223.6133,467.2814,231.3808" style="stroke:#666666;stroke-width:1.0;"/><path d="M329.6241,65.3079 C359.6253,69.204 394.2511,78.6863 418,100.6094 C455.7182,135.4278 464.4451,191.4365 466.7147,223.4008 " fill="none" style="stroke:#666666;stroke-width:1.0;"/><text fill="#666666" font-family="sans-serif" font-size="12" font-weight="bold" lengthAdjust="spacing" textLength="74" x="459" y="144.0664">Create Order</text><polygon fill="none" points="473.6176,384.5464,471.3519,376.3083,466.4937,379.8293,473.6176,384.5464" style="stroke:#666666;stroke-width:1.0;"/><path d="M463.4155,271.7249 C458.7516,294.8324 453.5631,334.6014 464,366.6094 C466.0708,372.96 464.9948,372.6491 468.9228,378.0688 " fill="none" style="stroke:#666666;stroke-width:1.0;"/><text fill="#666666" font-family="sans-serif" font-size="12" font-weight="bold" lengthAdjust="spacing" textLength="69" x="465" y="333.0664">Insert Order</text><polygon fill="none" points="596.3148,384.203,595.0259,375.7568,589.79,378.6869,596.3148,384.203" style="stroke:#666666;stroke-width:1.0;"/><path d="M490.6332,261.6294 C504.5599,267.9721 522.1418,277.4853 535,289.6094 C550.4986,304.2231 576.4444,348.696 592.408,377.2218 " fill="none" style="stroke:#666666;stroke-width:1.0;"/><text fill="#666666" font-family="sans-serif" font-size="12" font-weight="bold" lengthAdjust="spacing" textLength="147" x="587" y="333.0664">Send Order Created Event</text><rect fill="none" height="17.6094" style="stroke:none;stroke-width:1.0;" width="182" x="506" y="453.6094"/><text fill="#000000" font-family="sans-serif" font-size="14" font-weight="bold" lengthAdjust="spacing" textLength="53" x="506" y="468.1426">Legend</text><text fill="#FFFFFF" font-family="sans-serif" font-size="14" lengthAdjust="spacing" textLength="4" x="559" y="468.1426">&#160;</text><rect fill="#1168BD" height="17.6094" style="stroke:none;stroke-width:1.0;" width="182" x="506" y="471.2188"/><text fill="#3C7FC0" font-family="sans-serif" font-size="14" lengthAdjust="spacing" textLength="14" x="510" y="485.752">&#9647;</text><text fill="#FFFFFF" font-family="sans-serif" font-size="14" lengthAdjust="spacing" textLength="4" x="524" y="485.752">&#160;</text><text fill="#FFFFFF" font-family="sans-serif" font-size="14" lengthAdjust="spacing" textLength="44" x="532" y="485.752">system</text><text fill="#FFFFFF" font-family="sans-serif" font-size="14" lengthAdjust="spacing" textLength="4" x="580" y="485.752">&#160;</text><rect fill="#438DD5" height="17.6094" style="stroke:none;stroke-width:1.0;" width="182" x="506" y="488.8281"/><text fill="#3C7FC0" font-family="sans-serif" font-size="14" lengthAdjust="spacing" textLength="14" x="510" y="503.3613">&#9647;</text><text fill="#FFFFFF" font-family="sans-serif" font-size="14" lengthAdjust="spacing" textLength="4" x="524" y="503.3613">&#160;</text><text fill="#FFFFFF" font-family="sans-serif" font-size="14" lengthAdjust="spacing" textLength="59" x="532" y="503.3613">container</text><text fill="#FFFFFF" font-family="sans-serif" font-size="14" lengthAdjust="spacing" textLength="4" x="595" y="503.3613">&#160;</text><rect fill="none" height="17.6094" style="stroke:none;stroke-width:1.0;" width="182" x="506" y="506.4375"/><text fill="#444444" font-family="sans-serif" font-size="14" lengthAdjust="spacing" textLength="14" x="510" y="520.9707">&#9647;</text><text fill="#FFFFFF" font-family="sans-serif" font-size="14" lengthAdjust="spacing" textLength="4" x="524" y="520.9707">&#160;</text><text fill="#444444" font-family="sans-serif" font-size="14" lengthAdjust="spacing" textLength="108" x="532" y="520.9707">system boundary</text><text fill="#444444" font-family="sans-serif" font-size="10" lengthAdjust="spacing" textLength="40" x="644" y="521.8496">(dashed)</text><text fill="#FFFFFF" font-family="sans-serif" font-size="14" lengthAdjust="spacing" textLength="4" x="684" y="520.9707">&#160;</text><line style="stroke:none;stroke-width:1.0;" x1="506" x2="688" y1="453.6094" y2="453.6094"/><line style="stroke:none;stroke-width:1.0;" x1="506" x2="688" y1="471.2188" y2="471.2188"/><line style="stroke:none;stroke-width:1.0;" x1="506" x2="688" y1="488.8281" y2="488.8281"/><line style="stroke:none;stroke-width:1.0;" x1="506" x2="688" y1="506.4375" y2="506.4375"/><line style="stroke:none;stroke-width:1.0;" x1="506" x2="688" y1="524.0469" y2="524.0469"/><line style="stroke:none;stroke-width:1.0;" x1="506" x2="506" y1="453.6094" y2="524.0469"/><line style="stroke:none;stroke-width:1.0;" x1="688" x2="688" y1="453.6094" y2="524.0469"/><!--SRC=[pLVHRjem57tFLxZP7a3QyiHJfJv0O1rIHn2XgYeXHMvo4w8wTcGR69hsxxDnIf9jG81qMeGYtwlBkUSUMmTpatESP1WHl6KhYKG64bDitQGq9Ai8aECiYa_O4mkt5xYCIfnIu4w-oeXbzQDeH203AkSuwTXXBwKIU4pOvfQaCOJRaC0jXOtz2NryILn66BzBE01LSQomJEP3l7jq3UCHy7gTMEA8RLAQtDbVC15WTvkr3PUO9X1LMpEkKmrwxmilRSuXO-jwSmvHWywcwYzjTTyPaDCwI_WkwmeIjMELJFSqL4Mx4culIebdKWq0AtgKW6RM4at5Qax_g_SKJ4Sptvi4Ksysd_N7yqxNUkW_Uu_pOEvDWw7tD54PIxocDCSSPqXZo6qEA6TagmFBagaaW4OkopBW8Km9bZ7Z6VgCVCaun5nj11h4iKguFVrwEzg8m1hKsVQtGaBM-GF1yLaiDvY3AH1EYJVGssdNyTN8jju-KnqCs8f6c6yRu4uvYrQXz86lqr3fRXS9L6JiBlfX8VNigPyDwko_Afn-dgeUwhrZR5YtXpx44hzWeSTuMrRw_Bn47nym3vUbF2Q-IfqQPDlY70H_1sq6MBn2vUYO-2fjQf1jQtCG_1sqyRJRbjBimgkKgGAsBSmXxEEwjDNb6mY14_Kxf63twxh-olVFzyZhVUfUdUQYHYWYpLYS06t9ttmW45x0xcoDJhXLuOVdypWAsuxF_JEDJhYMFaPZNRYWwWwpMoxeOnvX2KKmL4n_3mneOzB7ERHZZeMWnInZAe3BTnhdx3quxeyk1qrlLzIOmr78LboraF2_e5MrOHzeP5WXero4HclrPqJVCStT-M5qFveCEzrV]--></g></svg>