<?xml version="1.0" encoding="us-ascii" standalone="no"?><svg xmlns="http://www.w3.org/2000/svg" xmlns:xlink="http://www.w3.org/1999/xlink" contentStyleType="text/css" height="489px" preserveAspectRatio="none" style="width:750px;height:489px;background:#FFFFFF;" version="1.1" viewBox="0 0 750 489" width="750px" zoomAndPan="magnify"><defs/><g><text fill="#000000" font-family="sans-serif" font-size="14" font-weight="bold" lengthAdjust="spacing" textLength="722" x="10" y="29.5332">Trader X Example - TraderX - Web Client - View Trade Status And Positions - Sequence - Container level</text><rect fill="#FFFFFF" height="439.1406" style="stroke:#181818;stroke-width:0.5;" width="470" x="227" y="44.6094"/><text fill="#000000" font-family="sans-serif" font-size="13" font-weight="bold" lengthAdjust="spacing" textLength="51" x="436.5" y="58.1045">TraderX</text><rect fill="none" height="269.8672" style="stroke:#000000;stroke-width:1.5;" width="492" x="221" y="161.2734"/><rect fill="none" height="65.0547" style="stroke:#000000;stroke-width:1.5;" width="290.5" x="412.5" y="233.3281"/><rect fill="none" height="65.0547" style="stroke:#000000;stroke-width:1.5;" width="290.5" x="412.5" y="359.0859"/><line style="stroke:#181818;stroke-width:0.5;stroke-dasharray:5.0,5.0;" x1="57" x2="57" y1="97.5703" y2="448.1406"/><line style="stroke:#181818;stroke-width:0.5;stroke-dasharray:5.0,5.0;" x1="272" x2="272" y1="97.5703" y2="448.1406"/><line style="stroke:#181818;stroke-width:0.5;stroke-dasharray:5.0,5.0;" x1="457.5" x2="457.5" y1="97.5703" y2="448.1406"/><line style="stroke:#181818;stroke-width:0.5;stroke-dasharray:5.0,5.0;" x1="635" x2="635" y1="97.5703" y2="448.1406"/><rect fill="#E2E2F0" height="31.6094" rx="2.5" ry="2.5" style="stroke:#181818;stroke-width:0.5;" width="65" x="25" y="64.9609"/><text fill="#000000" font-family="sans-serif" font-size="14" lengthAdjust="spacing" textLength="51" x="32" y="86.4941">External</text><rect fill="#E2E2F0" height="31.6094" rx="2.5" ry="2.5" style="stroke:#181818;stroke-width:0.5;" width="65" x="25" y="447.1406"/><text fill="#000000" font-family="sans-serif" font-size="14" lengthAdjust="spacing" textLength="51" x="32" y="468.6738">External</text><rect fill="#E2E2F0" height="31.6094" rx="2.5" ry="2.5" style="stroke:#181818;stroke-width:0.5;" width="83" x="231" y="64.9609"/><text fill="#000000" font-family="sans-serif" font-size="14" lengthAdjust="spacing" textLength="69" x="238" y="86.4941">Web Client</text><rect fill="#E2E2F0" height="31.6094" rx="2.5" ry="2.5" style="stroke:#181818;stroke-width:0.5;" width="83" x="231" y="447.1406"/><text fill="#000000" font-family="sans-serif" font-size="14" lengthAdjust="spacing" textLength="69" x="238" y="468.6738">Web Client</text><rect fill="#E2E2F0" height="31.6094" rx="2.5" ry="2.5" style="stroke:#181818;stroke-width:0.5;" width="70" x="422.5" y="64.9609"/><text fill="#000000" font-family="sans-serif" font-size="14" lengthAdjust="spacing" textLength="56" x="429.5" y="86.4941">Web GUI</text><rect fill="#E2E2F0" height="31.6094" rx="2.5" ry="2.5" style="stroke:#181818;stroke-width:0.5;" width="70" x="422.5" y="447.1406"/><text fill="#000000" font-family="sans-serif" font-size="14" lengthAdjust="spacing" textLength="56" x="429.5" y="468.6738">Web GUI</text><rect fill="#E2E2F0" height="31.6094" rx="2.5" ry="2.5" style="stroke:#181818;stroke-width:0.5;" width="115" x="578" y="64.9609"/><text fill="#000000" font-family="sans-serif" font-size="14" lengthAdjust="spacing" textLength="101" x="585" y="86.4941">Position Service</text><rect fill="#E2E2F0" height="31.6094" rx="2.5" ry="2.5" style="stroke:#181818;stroke-width:0.5;" width="115" x="578" y="447.1406"/><text fill="#000000" font-family="sans-serif" font-size="14" lengthAdjust="spacing" textLength="101" x="585" y="468.6738">Position Service</text><polygon fill="#181818" points="260.5,142.2734,270.5,146.2734,260.5,150.2734,264.5,146.2734" style="stroke:#181818;stroke-width:1.0;"/><line style="stroke:#181818;stroke-width:1.0;" x1="57.5" x2="266.5" y1="146.2734" y2="146.2734"/><text fill="#000000" font-family="sans-serif" font-size="13" lengthAdjust="spacing" textLength="191" x="64.5" y="125.0654">View Trade Status And Positions</text><text fill="#000000" font-family="sans-serif" font-size="13" lengthAdjust="spacing" textLength="49" x="64.5" y="141.417">[HTTPS]</text><path d="M221,161.2734 L472,161.2734 L472,169.625 L462,179.625 L221,179.625 L221,161.2734 " fill="#EEEEEE" style="stroke:#000000;stroke-width:1.5;"/><rect fill="none" height="269.8672" style="stroke:#000000;stroke-width:1.5;" width="492" x="221" y="161.2734"/><text fill="#000000" font-family="sans-serif" font-size="13" font-weight="bold" lengthAdjust="spacing" textLength="206" x="236" y="175.7686">View Trade Status And Positions</text><polygon fill="#181818" points="445.5,214.3281,455.5,218.3281,445.5,222.3281,449.5,218.3281" style="stroke:#181818;stroke-width:1.0;"/><line style="stroke:#181818;stroke-width:1.0;" x1="272.5" x2="451.5" y1="218.3281" y2="218.3281"/><text fill="#000000" font-family="sans-serif" font-size="13" lengthAdjust="spacing" textLength="146" x="279.5" y="197.1201">Load Trades For Account</text><text fill="#000000" font-family="sans-serif" font-size="13" lengthAdjust="spacing" textLength="49" x="279.5" y="213.4717">[HTTPS]</text><path d="M412.5,233.3281 L616.5,233.3281 L616.5,241.6797 L606.5,251.6797 L412.5,251.6797 L412.5,233.3281 " fill="#EEEEEE" style="stroke:#000000;stroke-width:1.5;"/><rect fill="none" height="65.0547" style="stroke:#000000;stroke-width:1.5;" width="290.5" x="412.5" y="233.3281"/><text fill="#000000" font-family="sans-serif" font-size="13" font-weight="bold" lengthAdjust="spacing" textLength="159" x="427.5" y="247.8232">Load Trades For Account</text><polygon fill="#181818" points="623.5,286.3828,633.5,290.3828,623.5,294.3828,627.5,290.3828" style="stroke:#181818;stroke-width:1.0;"/><line style="stroke:#181818;stroke-width:1.0;" x1="457.5" x2="629.5" y1="290.3828" y2="290.3828"/><text fill="#000000" font-family="sans-serif" font-size="13" lengthAdjust="spacing" textLength="139" x="464.5" y="269.1748">Get Trades For Account</text><text fill="#000000" font-family="sans-serif" font-size="13" lengthAdjust="spacing" textLength="49" x="464.5" y="285.5264">[HTTPS]</text><polygon fill="#181818" points="445.5,340.0859,455.5,344.0859,445.5,348.0859,449.5,344.0859" style="stroke:#181818;stroke-width:1.0;"/><line style="stroke:#181818;stroke-width:1.0;" x1="272.5" x2="451.5" y1="344.0859" y2="344.0859"/><text fill="#000000" font-family="sans-serif" font-size="13" lengthAdjust="spacing" textLength="161" x="279.5" y="322.8779">Load Positions For Account</text><text fill="#000000" font-family="sans-serif" font-size="13" lengthAdjust="spacing" textLength="49" x="279.5" y="339.2295">[HTTPS]</text><path d="M412.5,359.0859 L630.5,359.0859 L630.5,367.4375 L620.5,377.4375 L412.5,377.4375 L412.5,359.0859 " fill="#EEEEEE" style="stroke:#000000;stroke-width:1.5;"/><rect fill="none" height="65.0547" style="stroke:#000000;stroke-width:1.5;" width="290.5" x="412.5" y="359.0859"/><text fill="#000000" font-family="sans-serif" font-size="13" font-weight="bold" lengthAdjust="spacing" textLength="173" x="427.5" y="373.5811">Load Positions For Account</text><polygon fill="#181818" points="623.5,412.1406,633.5,416.1406,623.5,420.1406,627.5,416.1406" style="stroke:#181818;stroke-width:1.0;"/><line style="stroke:#181818;stroke-width:1.0;" x1="457.5" x2="629.5" y1="416.1406" y2="416.1406"/><text fill="#000000" font-family="sans-serif" font-size="13" lengthAdjust="spacing" textLength="154" x="464.5" y="394.9326">Get Positions For Account</text><text fill="#000000" font-family="sans-serif" font-size="13" lengthAdjust="spacing" textLength="49" x="464.5" y="411.2842">[HTTPS]</text><!--SRC=[pLJ1JiCm3BtxAwnoNa-SE21DqpOcSPZKmIO1Xwmr4AbBIk9ku-znQSh4DbRK7I1IfJXvVdv-ZigQSyAPKnavNE1mgrQ57FJ2qK9sSrhY8DTaM89xJPlw3XDMN7hicmodrclMrdX19FHMaaahZe4rhBGHvfpMb0CKoh5ETQ64AnfkcPnHUOJAu-1oOYGSvNOJ9_QPDyfHykwPLZvkW7KCiBHRZ8A-22_chve9KDOt-ftipm817neyg16kuo_9FXQ2Elyuz_XkqfrOaWzP6nV5GhVMANMaRsW22v0CI2m3WD-RZBthSnp3gxQ7ycWURcQpQV84BywMHHiSpX7JjHSPaZHoQrLMvtiSMOVzDBMbuVq6Ve11vygTLE_DNkIFYK-gbzVnr-Rk_Xvj_Xv5_WkBMtgeNAu- -000]--></g></svg>