<?xml version="1.0" encoding="us-ascii" standalone="no"?><svg xmlns="http://www.w3.org/2000/svg" xmlns:xlink="http://www.w3.org/1999/xlink" contentStyleType="text/css" height="450px" preserveAspectRatio="none" style="width:783px;height:450px;background:#FFFFFF;" version="1.1" viewBox="0 0 783 450" width="783px" zoomAndPan="magnify"><defs/><g><text fill="#000000" font-family="sans-serif" font-size="14" font-weight="bold" lengthAdjust="spacing" textLength="755" x="10" y="29.5332">E Commerce Platform - Generate Demand - Storefront - Storefront Bff - Checkout - Sequence - Context level</text><rect fill="none" height="273.8125" style="stroke:#000000;stroke-width:1.5;" width="445" x="195.5" y="123.5703"/><rect fill="none" height="105.0547" style="stroke:#000000;stroke-width:1.5;" width="231" x="303.5" y="179.2734"/><rect fill="none" height="61.7031" style="stroke:#000000;stroke-width:1.5;" width="165" x="465.5" y="328.6797"/><line style="stroke:#181818;stroke-width:0.5;stroke-dasharray:5.0,5.0;" x1="162.5" x2="162.5" y1="76.2188" y2="414.3828"/><line style="stroke:#181818;stroke-width:0.5;stroke-dasharray:5.0,5.0;" x1="254.5" x2="254.5" y1="76.2188" y2="414.3828"/><line style="stroke:#181818;stroke-width:0.5;stroke-dasharray:5.0,5.0;" x1="364.5" x2="364.5" y1="76.2188" y2="414.3828"/><line style="stroke:#181818;stroke-width:0.5;stroke-dasharray:5.0,5.0;" x1="529.5" x2="529.5" y1="76.2188" y2="414.3828"/><rect fill="#E2E2F0" height="31.6094" rx="2.5" ry="2.5" style="stroke:#181818;stroke-width:0.5;" width="65" x="130.5" y="43.6094"/><text fill="#000000" font-family="sans-serif" font-size="14" lengthAdjust="spacing" textLength="51" x="137.5" y="65.1426">External</text><rect fill="#E2E2F0" height="31.6094" rx="2.5" ry="2.5" style="stroke:#181818;stroke-width:0.5;" width="65" x="130.5" y="413.3828"/><text fill="#000000" font-family="sans-serif" font-size="14" lengthAdjust="spacing" textLength="51" x="137.5" y="434.916">External</text><rect fill="#E2E2F0" height="31.6094" rx="2.5" ry="2.5" style="stroke:#181818;stroke-width:0.5;" width="98" x="205.5" y="43.6094"/><text fill="#000000" font-family="sans-serif" font-size="14" lengthAdjust="spacing" textLength="84" x="212.5" y="65.1426">Storefront Bff</text><rect fill="#E2E2F0" height="31.6094" rx="2.5" ry="2.5" style="stroke:#181818;stroke-width:0.5;" width="98" x="205.5" y="413.3828"/><text fill="#000000" font-family="sans-serif" font-size="14" lengthAdjust="spacing" textLength="84" x="212.5" y="434.916">Storefront Bff</text><rect fill="#E2E2F0" height="31.6094" rx="2.5" ry="2.5" style="stroke:#181818;stroke-width:0.5;" width="102" x="313.5" y="43.6094"/><text fill="#000000" font-family="sans-serif" font-size="14" lengthAdjust="spacing" textLength="88" x="320.5" y="65.1426">Order Service</text><rect fill="#E2E2F0" height="31.6094" rx="2.5" ry="2.5" style="stroke:#181818;stroke-width:0.5;" width="102" x="313.5" y="413.3828"/><text fill="#000000" font-family="sans-serif" font-size="14" lengthAdjust="spacing" textLength="88" x="320.5" y="434.916">Order Service</text><rect fill="#E2E2F0" height="31.6094" rx="2.5" ry="2.5" style="stroke:#181818;stroke-width:0.5;" width="108" x="475.5" y="43.6094"/><text fill="#000000" font-family="sans-serif" font-size="14" lengthAdjust="spacing" textLength="94" x="482.5" y="65.1426">Basket Service</text><rect fill="#E2E2F0" height="31.6094" rx="2.5" ry="2.5" style="stroke:#181818;stroke-width:0.5;" width="108" x="475.5" y="413.3828"/><text fill="#000000" font-family="sans-serif" font-size="14" lengthAdjust="spacing" textLength="94" x="482.5" y="434.916">Basket Service</text><polygon fill="#181818" points="242.5,104.5703,252.5,108.5703,242.5,112.5703,246.5,108.5703" style="stroke:#181818;stroke-width:1.0;"/><line style="stroke:#181818;stroke-width:1.0;" x1="163" x2="248.5" y1="108.5703" y2="108.5703"/><text fill="#000000" font-family="sans-serif" font-size="13" lengthAdjust="spacing" textLength="55" x="170" y="103.7139">Checkout</text><path d="M195.5,123.5703 L299.5,123.5703 L299.5,131.9219 L289.5,141.9219 L195.5,141.9219 L195.5,123.5703 " fill="#EEEEEE" style="stroke:#000000;stroke-width:1.5;"/><rect fill="none" height="273.8125" style="stroke:#000000;stroke-width:1.5;" width="445" x="195.5" y="123.5703"/><text fill="#000000" font-family="sans-serif" font-size="13" font-weight="bold" lengthAdjust="spacing" textLength="59" x="210.5" y="138.0654">Checkout</text><polygon fill="#181818" points="352.5,160.2734,362.5,164.2734,352.5,168.2734,356.5,164.2734" style="stroke:#181818;stroke-width:1.0;"/><line style="stroke:#181818;stroke-width:1.0;" x1="254.5" x2="358.5" y1="164.2734" y2="164.2734"/><text fill="#000000" font-family="sans-serif" font-size="13" lengthAdjust="spacing" textLength="74" x="261.5" y="159.417">Create Order</text><path d="M303.5,179.2734 L430.5,179.2734 L430.5,187.625 L420.5,197.625 L303.5,197.625 L303.5,179.2734 " fill="#EEEEEE" style="stroke:#000000;stroke-width:1.5;"/><rect fill="none" height="105.0547" style="stroke:#000000;stroke-width:1.5;" width="231" x="303.5" y="179.2734"/><text fill="#000000" font-family="sans-serif" font-size="13" font-weight="bold" lengthAdjust="spacing" textLength="82" x="318.5" y="193.7686">Create Order</text><line style="stroke:#181818;stroke-width:1.0;" x1="364.5" x2="406.5" y1="219.9766" y2="219.9766"/><line style="stroke:#181818;stroke-width:1.0;" x1="406.5" x2="406.5" y1="219.9766" y2="232.9766"/><line style="stroke:#181818;stroke-width:1.0;" x1="365.5" x2="406.5" y1="232.9766" y2="232.9766"/><polygon fill="#181818" points="375.5,228.9766,365.5,232.9766,375.5,236.9766,371.5,232.9766" style="stroke:#181818;stroke-width:1.0;"/><text fill="#000000" font-family="sans-serif" font-size="13" lengthAdjust="spacing" textLength="68" x="371.5" y="215.1201">Insert Order</text><line style="stroke:#181818;stroke-width:1.0;" x1="364.5" x2="406.5" y1="263.3281" y2="263.3281"/><line style="stroke:#181818;stroke-width:1.0;" x1="406.5" x2="406.5" y1="263.3281" y2="276.3281"/><line style="stroke:#181818;stroke-width:1.0;" x1="365.5" x2="406.5" y1="276.3281" y2="276.3281"/><polygon fill="#181818" points="375.5,272.3281,365.5,276.3281,375.5,280.3281,371.5,276.3281" style="stroke:#181818;stroke-width:1.0;"/><text fill="#000000" font-family="sans-serif" font-size="13" lengthAdjust="spacing" textLength="151" x="371.5" y="258.4717">Send Order Created Event</text><polygon fill="#181818" points="517.5,309.6797,527.5,313.6797,517.5,317.6797,521.5,313.6797" style="stroke:#181818;stroke-width:1.0;"/><line style="stroke:#181818;stroke-width:1.0;" x1="254.5" x2="523.5" y1="313.6797" y2="313.6797"/><text fill="#000000" font-family="sans-serif" font-size="13" lengthAdjust="spacing" textLength="82" x="261.5" y="308.8232">Delete Basket</text><path d="M465.5,328.6797 L597.5,328.6797 L597.5,337.0313 L587.5,347.0313 L465.5,347.0313 L465.5,328.6797 " fill="#EEEEEE" style="stroke:#000000;stroke-width:1.5;"/><rect fill="none" height="61.7031" style="stroke:#000000;stroke-width:1.5;" width="165" x="465.5" y="328.6797"/><text fill="#000000" font-family="sans-serif" font-size="13" font-weight="bold" lengthAdjust="spacing" textLength="87" x="480.5" y="343.1748">Delete Basket</text><line style="stroke:#181818;stroke-width:1.0;" x1="529.5" x2="571.5" y1="369.3828" y2="369.3828"/><line style="stroke:#181818;stroke-width:1.0;" x1="571.5" x2="571.5" y1="369.3828" y2="382.3828"/><line style="stroke:#181818;stroke-width:1.0;" x1="530.5" x2="571.5" y1="382.3828" y2="382.3828"/><polygon fill="#181818" points="540.5,378.3828,530.5,382.3828,540.5,386.3828,536.5,382.3828" style="stroke:#181818;stroke-width:1.0;"/><text fill="#000000" font-family="sans-serif" font-size="13" lengthAdjust="spacing" textLength="82" x="536.5" y="364.5264">Delete Basket</text><!--SRC=[rLGzRuD03Dtv5QViOUhKeKC8hJ94hSGlEC4ZHJdkg34a_VSrN2X5wK0aKga3Wvy_thFFXWisKB6AN5c2KgWtepbtLAgrUe45QORQejGs4oHXHyZ9MPuQcpmN87f7UdHDxyD70olb19K0d5aPj311K6dY8YqgBMch-CmWgyrAwLf53pk9f6VZJc7YSZvfGl9PCyew70AzFIqorT6NYeTsXcx2eHVVIZZcN56DBgasPNgb32IzKLkac4VKf-orrGUK-8MjzrygJiaskZw2RsFpELSa7XvOWlc3LkkdvMQf7hyt93YGQwhHN8vZZk1RtgGJJUYEe4S7uJ-XPVdkqC3ErY3-BseJoA_6NveVSwRYLl82mVzuKUQSaoZUma2smSEN3PbYop3TJN8tsUuBlW00]--></g></svg>