<?xml version="1.0" encoding="us-ascii" standalone="no"?><svg xmlns="http://www.w3.org/2000/svg" xmlns:xlink="http://www.w3.org/1999/xlink" contentStyleType="text/css" height="507px" preserveAspectRatio="none" style="width:797px;height:507px;background:#FFFFFF;" version="1.1" viewBox="0 0 797 507" width="797px" zoomAndPan="magnify"><defs/><g><text fill="#000000" font-family="sans-serif" font-size="14" font-weight="bold" lengthAdjust="spacing" textLength="769" x="10" y="29.5332">E Commerce Platform - Generate Demand - Storefront - Storefront Bff - Checkout - Sequence - Container level</text><rect fill="#FFFFFF" height="449.7344" style="stroke:#181818;stroke-width:0.5;" width="248.5" x="277.5" y="44.6094"/><text fill="#000000" font-family="sans-serif" font-size="13" font-weight="bold" lengthAdjust="spacing" textLength="88" x="357.75" y="58.1045">Order Service</text><rect fill="#FFFFFF" height="449.7344" style="stroke:#181818;stroke-width:0.5;" width="164.5" x="528" y="44.6094"/><text fill="#000000" font-family="sans-serif" font-size="13" font-weight="bold" lengthAdjust="spacing" textLength="94" x="563.25" y="58.1045">Basket Service</text><rect fill="none" height="234.8125" style="stroke:#000000;stroke-width:1.5;" width="567" x="141.5" y="175.9219"/><rect fill="none" height="79.0547" style="stroke:#000000;stroke-width:1.5;" width="260.5" x="271.5" y="231.625"/><rect fill="none" height="48.7031" style="stroke:#000000;stroke-width:1.5;" width="176.5" x="522" y="355.0313"/><line style="stroke:#181818;stroke-width:0.5;stroke-dasharray:5.0,5.0;" x1="108.5" x2="108.5" y1="128.5703" y2="427.7344"/><line style="stroke:#181818;stroke-width:0.5;stroke-dasharray:5.0,5.0;" x1="200.5" x2="200.5" y1="128.5703" y2="427.7344"/><line style="stroke:#181818;stroke-width:0.5;stroke-dasharray:5.0,5.0;" x1="298.5" x2="298.5" y1="128.5703" y2="427.7344"/><line style="stroke:#181818;stroke-width:0.5;stroke-dasharray:5.0,5.0;" x1="390" x2="390" y1="128.5703" y2="427.7344"/><line style="stroke:#181818;stroke-width:0.5;stroke-dasharray:5.0,5.0;" x1="478" x2="478" y1="128.5703" y2="427.7344"/><line style="stroke:#181818;stroke-width:0.5;stroke-dasharray:5.0,5.0;" x1="549" x2="549" y1="128.5703" y2="427.7344"/><line style="stroke:#181818;stroke-width:0.5;stroke-dasharray:5.0,5.0;" x1="654.5" x2="654.5" y1="128.5703" y2="427.7344"/><rect fill="#E2E2F0" height="31.6094" rx="2.5" ry="2.5" style="stroke:#181818;stroke-width:0.5;" width="65" x="76.5" y="95.9609"/><text fill="#000000" font-family="sans-serif" font-size="14" lengthAdjust="spacing" textLength="51" x="83.5" y="117.4941">External</text><rect fill="#E2E2F0" height="31.6094" rx="2.5" ry="2.5" style="stroke:#181818;stroke-width:0.5;" width="65" x="76.5" y="426.7344"/><text fill="#000000" font-family="sans-serif" font-size="14" lengthAdjust="spacing" textLength="51" x="83.5" y="448.2676">External</text><rect fill="#E2E2F0" height="31.6094" rx="2.5" ry="2.5" style="stroke:#181818;stroke-width:0.5;" width="98" x="151.5" y="95.9609"/><text fill="#000000" font-family="sans-serif" font-size="14" lengthAdjust="spacing" textLength="84" x="158.5" y="117.4941">Storefront Bff</text><rect fill="#E2E2F0" height="31.6094" rx="2.5" ry="2.5" style="stroke:#181818;stroke-width:0.5;" width="98" x="151.5" y="426.7344"/><text fill="#000000" font-family="sans-serif" font-size="14" lengthAdjust="spacing" textLength="84" x="158.5" y="448.2676">Storefront Bff</text><rect fill="#E2E2F0" height="31.6094" rx="2.5" ry="2.5" style="stroke:#181818;stroke-width:0.5;" width="34" x="281.5" y="95.9609"/><text fill="#000000" font-family="sans-serif" font-size="14" lengthAdjust="spacing" textLength="20" x="288.5" y="117.4941">Api</text><rect fill="#E2E2F0" height="31.6094" rx="2.5" ry="2.5" style="stroke:#181818;stroke-width:0.5;" width="34" x="281.5" y="426.7344"/><text fill="#000000" font-family="sans-serif" font-size="14" lengthAdjust="spacing" textLength="20" x="288.5" y="448.2676">Api</text><text fill="#000000" font-family="sans-serif" font-size="14" lengthAdjust="spacing" textLength="61" x="357" y="125.4941">Database</text><path d="M372.5,74.9609 C372.5,64.9609 390.5,64.9609 390.5,64.9609 C390.5,64.9609 408.5,64.9609 408.5,74.9609 L408.5,100.9609 C408.5,110.9609 390.5,110.9609 390.5,110.9609 C390.5,110.9609 372.5,110.9609 372.5,100.9609 L372.5,74.9609 " fill="#E2E2F0" style="stroke:#181818;stroke-width:1.5;"/><path d="M372.5,74.9609 C372.5,84.9609 390.5,84.9609 390.5,84.9609 C390.5,84.9609 408.5,84.9609 408.5,74.9609 " fill="none" style="stroke:#181818;stroke-width:1.5;"/><text fill="#000000" font-family="sans-serif" font-size="14" lengthAdjust="spacing" textLength="61" x="357" y="441.2676">Database</text><path d="M372.5,454.3438 C372.5,444.3438 390.5,444.3438 390.5,444.3438 C390.5,444.3438 408.5,444.3438 408.5,454.3438 L408.5,480.3438 C408.5,490.3438 390.5,490.3438 390.5,490.3438 C390.5,490.3438 372.5,490.3438 372.5,480.3438 L372.5,454.3438 " fill="#E2E2F0" style="stroke:#181818;stroke-width:1.5;"/><path d="M372.5,454.3438 C372.5,464.3438 390.5,464.3438 390.5,464.3438 C390.5,464.3438 408.5,464.3438 408.5,454.3438 " fill="none" style="stroke:#181818;stroke-width:1.5;"/><path d="M439,100.9609 L517,100.9609 C522,100.9609 522,114.7656 522,114.7656 C522,114.7656 522,128.5703 517,128.5703 L439,128.5703 C434,128.5703 434,114.7656 434,114.7656 C434,114.7656 434,100.9609 439,100.9609 " fill="#E2E2F0" style="stroke:#181818;stroke-width:0.5;"/><path d="M517,100.9609 C512,100.9609 512,114.7656 512,114.7656 C512,128.5703 517,128.5703 517,128.5703 " fill="none" style="stroke:#181818;stroke-width:0.5;"/><text fill="#000000" font-family="sans-serif" font-size="14" lengthAdjust="spacing" textLength="68" x="439" y="120.4941">Messaging</text><path d="M439,426.7344 L517,426.7344 C522,426.7344 522,440.5391 522,440.5391 C522,440.5391 522,454.3438 517,454.3438 L439,454.3438 C434,454.3438 434,440.5391 434,440.5391 C434,440.5391 434,426.7344 439,426.7344 " fill="#E2E2F0" style="stroke:#181818;stroke-width:0.5;"/><path d="M517,426.7344 C512,426.7344 512,440.5391 512,440.5391 C512,454.3438 517,454.3438 517,454.3438 " fill="none" style="stroke:#181818;stroke-width:0.5;"/><text fill="#000000" font-family="sans-serif" font-size="14" lengthAdjust="spacing" textLength="68" x="439" y="446.2676">Messaging</text><rect fill="#E2E2F0" height="31.6094" rx="2.5" ry="2.5" style="stroke:#181818;stroke-width:0.5;" width="34" x="532" y="95.9609"/><text fill="#000000" font-family="sans-serif" font-size="14" lengthAdjust="spacing" textLength="20" x="539" y="117.4941">Api</text><rect fill="#E2E2F0" height="31.6094" rx="2.5" ry="2.5" style="stroke:#181818;stroke-width:0.5;" width="34" x="532" y="426.7344"/><text fill="#000000" font-family="sans-serif" font-size="14" lengthAdjust="spacing" textLength="20" x="539" y="448.2676">Api</text><text fill="#000000" font-family="sans-serif" font-size="14" lengthAdjust="spacing" textLength="61" x="621.5" y="125.4941">Database</text><path d="M637,74.9609 C637,64.9609 655,64.9609 655,64.9609 C655,64.9609 673,64.9609 673,74.9609 L673,100.9609 C673,110.9609 655,110.9609 655,110.9609 C655,110.9609 637,110.9609 637,100.9609 L637,74.9609 " fill="#E2E2F0" style="stroke:#181818;stroke-width:1.5;"/><path d="M637,74.9609 C637,84.9609 655,84.9609 655,84.9609 C655,84.9609 673,84.9609 673,74.9609 " fill="none" style="stroke:#181818;stroke-width:1.5;"/><text fill="#000000" font-family="sans-serif" font-size="14" lengthAdjust="spacing" textLength="61" x="621.5" y="441.2676">Database</text><path d="M637,454.3438 C637,444.3438 655,444.3438 655,444.3438 C655,444.3438 673,444.3438 673,454.3438 L673,480.3438 C673,490.3438 655,490.3438 655,490.3438 C655,490.3438 637,490.3438 637,480.3438 L637,454.3438 " fill="#E2E2F0" style="stroke:#181818;stroke-width:1.5;"/><path d="M637,454.3438 C637,464.3438 655,464.3438 655,464.3438 C655,464.3438 673,464.3438 673,454.3438 " fill="none" style="stroke:#181818;stroke-width:1.5;"/><polygon fill="#181818" points="188.5,156.9219,198.5,160.9219,188.5,164.9219,192.5,160.9219" style="stroke:#181818;stroke-width:1.0;"/><line style="stroke:#181818;stroke-width:1.0;" x1="109" x2="194.5" y1="160.9219" y2="160.9219"/><text fill="#000000" font-family="sans-serif" font-size="13" lengthAdjust="spacing" textLength="55" x="116" y="156.0654">Checkout</text><path d="M141.5,175.9219 L245.5,175.9219 L245.5,184.2734 L235.5,194.2734 L141.5,194.2734 L141.5,175.9219 " fill="#EEEEEE" style="stroke:#000000;stroke-width:1.5;"/><rect fill="none" height="234.8125" style="stroke:#000000;stroke-width:1.5;" width="567" x="141.5" y="175.9219"/><text fill="#000000" font-family="sans-serif" font-size="13" font-weight="bold" lengthAdjust="spacing" textLength="59" x="156.5" y="190.417">Checkout</text><polygon fill="#181818" points="286.5,212.625,296.5,216.625,286.5,220.625,290.5,216.625" style="stroke:#181818;stroke-width:1.0;"/><line style="stroke:#181818;stroke-width:1.0;" x1="200.5" x2="292.5" y1="216.625" y2="216.625"/><text fill="#000000" font-family="sans-serif" font-size="13" lengthAdjust="spacing" textLength="74" x="207.5" y="211.7686">Create Order</text><path d="M271.5,231.625 L398.5,231.625 L398.5,239.9766 L388.5,249.9766 L271.5,249.9766 L271.5,231.625 " fill="#EEEEEE" style="stroke:#000000;stroke-width:1.5;"/><rect fill="none" height="79.0547" style="stroke:#000000;stroke-width:1.5;" width="260.5" x="271.5" y="231.625"/><text fill="#000000" font-family="sans-serif" font-size="13" font-weight="bold" lengthAdjust="spacing" textLength="82" x="286.5" y="246.1201">Create Order</text><polygon fill="#181818" points="378.5,268.3281,388.5,272.3281,378.5,276.3281,382.5,272.3281" style="stroke:#181818;stroke-width:1.0;"/><line style="stroke:#181818;stroke-width:1.0;" x1="298.5" x2="384.5" y1="272.3281" y2="272.3281"/><text fill="#000000" font-family="sans-serif" font-size="13" lengthAdjust="spacing" textLength="68" x="305.5" y="267.4717">Insert Order</text><polygon fill="#181818" points="466,298.6797,476,302.6797,466,306.6797,470,302.6797" style="stroke:#181818;stroke-width:1.0;"/><line style="stroke:#181818;stroke-width:1.0;" x1="298.5" x2="472" y1="302.6797" y2="302.6797"/><text fill="#000000" font-family="sans-serif" font-size="13" lengthAdjust="spacing" textLength="151" x="305.5" y="297.8232">Send Order Created Event</text><polygon fill="#181818" points="537,336.0313,547,340.0313,537,344.0313,541,340.0313" style="stroke:#181818;stroke-width:1.0;"/><line style="stroke:#181818;stroke-width:1.0;" x1="200.5" x2="543" y1="340.0313" y2="340.0313"/><text fill="#000000" font-family="sans-serif" font-size="13" lengthAdjust="spacing" textLength="82" x="207.5" y="335.1748">Delete Basket</text><path d="M522,355.0313 L654,355.0313 L654,363.3828 L644,373.3828 L522,373.3828 L522,355.0313 " fill="#EEEEEE" style="stroke:#000000;stroke-width:1.5;"/><rect fill="none" height="48.7031" style="stroke:#000000;stroke-width:1.5;" width="176.5" x="522" y="355.0313"/><text fill="#000000" font-family="sans-serif" font-size="13" font-weight="bold" lengthAdjust="spacing" textLength="87" x="537" y="369.5264">Delete Basket</text><polygon fill="#181818" points="643,391.7344,653,395.7344,643,399.7344,647,395.7344" style="stroke:#181818;stroke-width:1.0;"/><line style="stroke:#181818;stroke-width:1.0;" x1="549" x2="649" y1="395.7344" y2="395.7344"/><text fill="#000000" font-family="sans-serif" font-size="13" lengthAdjust="spacing" textLength="82" x="556" y="390.8779">Delete Basket</text><!--SRC=[rLHDRuCm3BtdLrZiN4uxxJ1fRTdKGxL977PsmT2eaB0ajDs_d_akwWxTLYOL2GaxZfyVpxQJBYC8OA7pd4n4y9QXIxJ9OGOlfCYW8rXIZYfcJ-YqeSHevSR6F4dOiTXIjDDbVKOV9IbEnruEGCcP8ACzPK8KQ9oCP85yqGkEZep2p0EqiBXVAJQVCttmGvsu0neAFwsZtFfTO6EFaumhgLC57Q6EZz-nQSZumvqpgE68imcnqKVmNatC348oUncH1tVlM-b803-ZIfuAUHbydM-D2bFAwPiQwlCMpkz_eVKPe4QDqU46BO6tRB-cnUrGQd3MjcJaDLcBgLJfjD0zZ21kGbP3j9hCqUx8NL6K9k5POOrx0Z5-YjUBCFo8oqS6Pe_NcmfuwATTf4QNnM1U3-EIWlymHnK7GzL-guCw7gUkIU6dfDTr2dDSAKl6tJgXVWamex1g_sOXDsh54EmvMJKM_zn-lzWOJ6196N6FDL5jturzam1FGUYaqSOCAYsgLtm1]--></g></svg>