<?xml version="1.0" encoding="us-ascii" standalone="no"?><svg xmlns="http://www.w3.org/2000/svg" xmlns:xlink="http://www.w3.org/1999/xlink" contentStyleType="text/css" height="507px" preserveAspectRatio="none" style="width:797px;height:507px;background:#FFFFFF;" version="1.1" viewBox="0 0 797 507" width="797px" zoomAndPan="magnify"><defs/><g><text fill="#000000" font-family="sans-serif" font-size="14" font-weight="bold" lengthAdjust="spacing" textLength="769" x="10" y="29.5332">E Commerce Platform - Generate Demand - Storefront - Storefront Bff - Checkout - Sequence - Container level</text><rect fill="#FFFFFF" height="449.7344" style="stroke:#181818;stroke-width:0.5;" width="242.5" x="280.5" y="44.6094"/><text fill="#000000" font-family="sans-serif" font-size="13" font-weight="bold" lengthAdjust="spacing" textLength="88" x="357.75" y="58.1045">Order Service</text><rect fill="#FFFFFF" height="449.7344" style="stroke:#181818;stroke-width:0.5;" width="164.5" x="525" y="44.6094"/><text fill="#000000" font-family="sans-serif" font-size="13" font-weight="bold" lengthAdjust="spacing" textLength="94" x="560.25" y="58.1045">Basket Service</text><rect fill="none" height="234.8125" style="stroke:#000000;stroke-width:1.5;" width="561" x="144.5" y="175.9219"/><rect fill="none" height="79.0547" style="stroke:#000000;stroke-width:1.5;" width="254.5" x="274.5" y="231.625"/><rect fill="none" height="48.7031" style="stroke:#000000;stroke-width:1.5;" width="176.5" x="519" y="355.0313"/><line style="stroke:#181818;stroke-width:0.5;stroke-dasharray:5.0,5.0;" x1="111.5" x2="111.5" y1="128.5703" y2="427.7344"/><line style="stroke:#181818;stroke-width:0.5;stroke-dasharray:5.0,5.0;" x1="203.5" x2="203.5" y1="128.5703" y2="427.7344"/><line style="stroke:#181818;stroke-width:0.5;stroke-dasharray:5.0,5.0;" x1="301.5" x2="301.5" y1="128.5703" y2="427.7344"/><line style="stroke:#181818;stroke-width:0.5;stroke-dasharray:5.0,5.0;" x1="393" x2="393" y1="128.5703" y2="427.7344"/><line style="stroke:#181818;stroke-width:0.5;stroke-dasharray:5.0,5.0;" x1="478" x2="478" y1="128.5703" y2="427.7344"/><line style="stroke:#181818;stroke-width:0.5;stroke-dasharray:5.0,5.0;" x1="546" x2="546" y1="128.5703" y2="427.7344"/><line style="stroke:#181818;stroke-width:0.5;stroke-dasharray:5.0,5.0;" x1="651.5" x2="651.5" y1="128.5703" y2="427.7344"/><rect fill="#E2E2F0" height="31.6094" rx="2.5" ry="2.5" style="stroke:#181818;stroke-width:0.5;" width="65" x="79.5" y="95.9609"/><text fill="#000000" font-family="sans-serif" font-size="14" lengthAdjust="spacing" textLength="51" x="86.5" y="117.4941">External</text><rect fill="#E2E2F0" height="31.6094" rx="2.5" ry="2.5" style="stroke:#181818;stroke-width:0.5;" width="65" x="79.5" y="426.7344"/><text fill="#000000" font-family="sans-serif" font-size="14" lengthAdjust="spacing" textLength="51" x="86.5" y="448.2676">External</text><rect fill="#E2E2F0" height="31.6094" rx="2.5" ry="2.5" style="stroke:#181818;stroke-width:0.5;" width="98" x="154.5" y="95.9609"/><text fill="#000000" font-family="sans-serif" font-size="14" lengthAdjust="spacing" textLength="84" x="161.5" y="117.4941">Storefront Bff</text><rect fill="#E2E2F0" height="31.6094" rx="2.5" ry="2.5" style="stroke:#181818;stroke-width:0.5;" width="98" x="154.5" y="426.7344"/><text fill="#000000" font-family="sans-serif" font-size="14" lengthAdjust="spacing" textLength="84" x="161.5" y="448.2676">Storefront Bff</text><rect fill="#E2E2F0" height="31.6094" rx="2.5" ry="2.5" style="stroke:#181818;stroke-width:0.5;" width="34" x="284.5" y="95.9609"/><text fill="#000000" font-family="sans-serif" font-size="14" lengthAdjust="spacing" textLength="20" x="291.5" y="117.4941">Api</text><rect fill="#E2E2F0" height="31.6094" rx="2.5" ry="2.5" style="stroke:#181818;stroke-width:0.5;" width="34" x="284.5" y="426.7344"/><text fill="#000000" font-family="sans-serif" font-size="14" lengthAdjust="spacing" textLength="20" x="291.5" y="448.2676">Api</text><text fill="#000000" font-family="sans-serif" font-size="14" lengthAdjust="spacing" textLength="61" x="360" y="125.4941">Database</text><path d="M375.5,74.9609 C375.5,64.9609 393.5,64.9609 393.5,64.9609 C393.5,64.9609 411.5,64.9609 411.5,74.9609 L411.5,100.9609 C411.5,110.9609 393.5,110.9609 393.5,110.9609 C393.5,110.9609 375.5,110.9609 375.5,100.9609 L375.5,74.9609 " fill="#E2E2F0" style="stroke:#181818;stroke-width:1.5;"/><path d="M375.5,74.9609 C375.5,84.9609 393.5,84.9609 393.5,84.9609 C393.5,84.9609 411.5,84.9609 411.5,74.9609 " fill="none" style="stroke:#181818;stroke-width:1.5;"/><text fill="#000000" font-family="sans-serif" font-size="14" lengthAdjust="spacing" textLength="61" x="360" y="441.2676">Database</text><path d="M375.5,454.3438 C375.5,444.3438 393.5,444.3438 393.5,444.3438 C393.5,444.3438 411.5,444.3438 411.5,454.3438 L411.5,480.3438 C411.5,490.3438 393.5,490.3438 393.5,490.3438 C393.5,490.3438 375.5,490.3438 375.5,480.3438 L375.5,454.3438 " fill="#E2E2F0" style="stroke:#181818;stroke-width:1.5;"/><path d="M375.5,454.3438 C375.5,464.3438 393.5,464.3438 393.5,464.3438 C393.5,464.3438 411.5,464.3438 411.5,454.3438 " fill="none" style="stroke:#181818;stroke-width:1.5;"/><rect fill="#E2E2F0" height="31.6094" rx="2.5" ry="2.5" style="stroke:#181818;stroke-width:0.5;" width="82" x="437" y="95.9609"/><text fill="#000000" font-family="sans-serif" font-size="14" lengthAdjust="spacing" textLength="68" x="444" y="117.4941">Messaging</text><rect fill="#E2E2F0" height="31.6094" rx="2.5" ry="2.5" style="stroke:#181818;stroke-width:0.5;" width="82" x="437" y="426.7344"/><text fill="#000000" font-family="sans-serif" font-size="14" lengthAdjust="spacing" textLength="68" x="444" y="448.2676">Messaging</text><rect fill="#E2E2F0" height="31.6094" rx="2.5" ry="2.5" style="stroke:#181818;stroke-width:0.5;" width="34" x="529" y="95.9609"/><text fill="#000000" font-family="sans-serif" font-size="14" lengthAdjust="spacing" textLength="20" x="536" y="117.4941">Api</text><rect fill="#E2E2F0" height="31.6094" rx="2.5" ry="2.5" style="stroke:#181818;stroke-width:0.5;" width="34" x="529" y="426.7344"/><text fill="#000000" font-family="sans-serif" font-size="14" lengthAdjust="spacing" textLength="20" x="536" y="448.2676">Api</text><text fill="#000000" font-family="sans-serif" font-size="14" lengthAdjust="spacing" textLength="61" x="618.5" y="125.4941">Database</text><path d="M634,74.9609 C634,64.9609 652,64.9609 652,64.9609 C652,64.9609 670,64.9609 670,74.9609 L670,100.9609 C670,110.9609 652,110.9609 652,110.9609 C652,110.9609 634,110.9609 634,100.9609 L634,74.9609 " fill="#E2E2F0" style="stroke:#181818;stroke-width:1.5;"/><path d="M634,74.9609 C634,84.9609 652,84.9609 652,84.9609 C652,84.9609 670,84.9609 670,74.9609 " fill="none" style="stroke:#181818;stroke-width:1.5;"/><text fill="#000000" font-family="sans-serif" font-size="14" lengthAdjust="spacing" textLength="61" x="618.5" y="441.2676">Database</text><path d="M634,454.3438 C634,444.3438 652,444.3438 652,444.3438 C652,444.3438 670,444.3438 670,454.3438 L670,480.3438 C670,490.3438 652,490.3438 652,490.3438 C652,490.3438 634,490.3438 634,480.3438 L634,454.3438 " fill="#E2E2F0" style="stroke:#181818;stroke-width:1.5;"/><path d="M634,454.3438 C634,464.3438 652,464.3438 652,464.3438 C652,464.3438 670,464.3438 670,454.3438 " fill="none" style="stroke:#181818;stroke-width:1.5;"/><polygon fill="#181818" points="191.5,156.9219,201.5,160.9219,191.5,164.9219,195.5,160.9219" style="stroke:#181818;stroke-width:1.0;"/><line style="stroke:#181818;stroke-width:1.0;" x1="112" x2="197.5" y1="160.9219" y2="160.9219"/><text fill="#000000" font-family="sans-serif" font-size="13" lengthAdjust="spacing" textLength="55" x="119" y="156.0654">Checkout</text><path d="M144.5,175.9219 L248.5,175.9219 L248.5,184.2734 L238.5,194.2734 L144.5,194.2734 L144.5,175.9219 " fill="#EEEEEE" style="stroke:#000000;stroke-width:1.5;"/><rect fill="none" height="234.8125" style="stroke:#000000;stroke-width:1.5;" width="561" x="144.5" y="175.9219"/><text fill="#000000" font-family="sans-serif" font-size="13" font-weight="bold" lengthAdjust="spacing" textLength="59" x="159.5" y="190.417">Checkout</text><polygon fill="#181818" points="289.5,212.625,299.5,216.625,289.5,220.625,293.5,216.625" style="stroke:#181818;stroke-width:1.0;"/><line style="stroke:#181818;stroke-width:1.0;" x1="203.5" x2="295.5" y1="216.625" y2="216.625"/><text fill="#000000" font-family="sans-serif" font-size="13" lengthAdjust="spacing" textLength="74" x="210.5" y="211.7686">Create Order</text><path d="M274.5,231.625 L401.5,231.625 L401.5,239.9766 L391.5,249.9766 L274.5,249.9766 L274.5,231.625 " fill="#EEEEEE" style="stroke:#000000;stroke-width:1.5;"/><rect fill="none" height="79.0547" style="stroke:#000000;stroke-width:1.5;" width="254.5" x="274.5" y="231.625"/><text fill="#000000" font-family="sans-serif" font-size="13" font-weight="bold" lengthAdjust="spacing" textLength="82" x="289.5" y="246.1201">Create Order</text><polygon fill="#181818" points="381.5,268.3281,391.5,272.3281,381.5,276.3281,385.5,272.3281" style="stroke:#181818;stroke-width:1.0;"/><line style="stroke:#181818;stroke-width:1.0;" x1="301.5" x2="387.5" y1="272.3281" y2="272.3281"/><text fill="#000000" font-family="sans-serif" font-size="13" lengthAdjust="spacing" textLength="68" x="308.5" y="267.4717">Insert Order</text><polygon fill="#181818" points="466,298.6797,476,302.6797,466,306.6797,470,302.6797" style="stroke:#181818;stroke-width:1.0;"/><line style="stroke:#181818;stroke-width:1.0;" x1="301.5" x2="472" y1="302.6797" y2="302.6797"/><text fill="#000000" font-family="sans-serif" font-size="13" lengthAdjust="spacing" textLength="151" x="308.5" y="297.8232">Send Order Created Event</text><polygon fill="#181818" points="534,336.0313,544,340.0313,534,344.0313,538,340.0313" style="stroke:#181818;stroke-width:1.0;"/><line style="stroke:#181818;stroke-width:1.0;" x1="203.5" x2="540" y1="340.0313" y2="340.0313"/><text fill="#000000" font-family="sans-serif" font-size="13" lengthAdjust="spacing" textLength="82" x="210.5" y="335.1748">Delete Basket</text><path d="M519,355.0313 L651,355.0313 L651,363.3828 L641,373.3828 L519,373.3828 L519,355.0313 " fill="#EEEEEE" style="stroke:#000000;stroke-width:1.5;"/><rect fill="none" height="48.7031" style="stroke:#000000;stroke-width:1.5;" width="176.5" x="519" y="355.0313"/><text fill="#000000" font-family="sans-serif" font-size="13" font-weight="bold" lengthAdjust="spacing" textLength="87" x="534" y="369.5264">Delete Basket</text><polygon fill="#181818" points="640,391.7344,650,395.7344,640,399.7344,644,395.7344" style="stroke:#181818;stroke-width:1.0;"/><line style="stroke:#181818;stroke-width:1.0;" x1="546" x2="646" y1="395.7344" y2="395.7344"/><text fill="#000000" font-family="sans-serif" font-size="13" lengthAdjust="spacing" textLength="82" x="553" y="390.8779">Delete Basket</text><!--SRC=[rLGxJyCm4DxzAqvXRYOc1YJQ1jIX0Ya3ypMv1Ak97MptmR_dycvKXW8r4f4YvSxdxxilzt3I5GGHB7HPaaa8NWfqcJObpE2951bq14igKQNiYPqsb1cjtDIOPnax5c-KRFMkEQFt7Ic6Ooy7e6GaA6XFXH0L6YSJMI5V3AAZ8wEm200jB6vNYit7GX_2M6VkW8RY3-kej64VsDfJa6ac3LJK2-hrXBsQLamutZcZ6eyOJOYDFaBmR59M49FPouG2k7bzauu4y3F9vA6Ibz4tU6jKc5D9N-JGd7TquV0BRSW43MkA3ZTe2O9bz-MNjsSvbxmcQp6NAlURm40ZY5kHQoAwoipHRibTiJGju5bYhTj3IRxBDvHY_16N3mxCxgyt6t0tpBp8ZTvLetazZaiI_iKqrHeCrLkk2UfrdBgyqlkKrtSAQrmfIyRzTq734c15STt-xLfkgvL2j6UmUYp-kFr-i35Om98AuXvhexg-c_gy4FiGTD9eKmLrBUfNV080]--></g></svg>