<?xml version="1.0" encoding="us-ascii" standalone="no"?><svg xmlns="http://www.w3.org/2000/svg" xmlns:xlink="http://www.w3.org/1999/xlink" contentStyleType="text/css" height="377px" preserveAspectRatio="none" style="width:640px;height:377px;background:#FFFFFF;" version="1.1" viewBox="0 0 640 377" width="640px" zoomAndPan="magnify"><defs/><g><text fill="#000000" font-family="sans-serif" font-size="14" font-weight="bold" lengthAdjust="spacing" textLength="612" x="10" y="29.5332">ECommercePlatform - Storefront App - Update Basket Item - Sequence - Container level</text><rect fill="#FFFFFF" height="327.0313" style="stroke:#181818;stroke-width:0.5;" width="156.5" x="414.5" y="44.6094"/><text fill="#000000" font-family="sans-serif" font-size="13" font-weight="bold" lengthAdjust="spacing" textLength="94" x="445.75" y="58.1045">Basket Service</text><rect fill="none" height="174.1094" style="stroke:#000000;stroke-width:1.5;" width="457.5" x="139.5" y="144.9219"/><rect fill="none" height="111.4063" style="stroke:#000000;stroke-width:1.5;" width="304.5" x="282.5" y="200.625"/><rect fill="none" height="48.7031" style="stroke:#000000;stroke-width:1.5;" width="168.5" x="408.5" y="256.3281"/><line style="stroke:#181818;stroke-width:0.5;stroke-dasharray:5.0,5.0;" x1="63" x2="63" y1="97.5703" y2="336.0313"/><line style="stroke:#181818;stroke-width:0.5;stroke-dasharray:5.0,5.0;" x1="202.5" x2="202.5" y1="97.5703" y2="336.0313"/><line style="stroke:#181818;stroke-width:0.5;stroke-dasharray:5.0,5.0;" x1="341.5" x2="341.5" y1="97.5703" y2="336.0313"/><line style="stroke:#181818;stroke-width:0.5;stroke-dasharray:5.0,5.0;" x1="435.5" x2="435.5" y1="97.5703" y2="336.0313"/><line style="stroke:#181818;stroke-width:0.5;stroke-dasharray:5.0,5.0;" x1="529" x2="529" y1="97.5703" y2="336.0313"/><rect fill="#E2E2F0" height="31.6094" rx="2.5" ry="2.5" style="stroke:#181818;stroke-width:0.5;" width="65" x="31" y="64.9609"/><text fill="#000000" font-family="sans-serif" font-size="14" lengthAdjust="spacing" textLength="51" x="38" y="86.4941">External</text><rect fill="#E2E2F0" height="31.6094" rx="2.5" ry="2.5" style="stroke:#181818;stroke-width:0.5;" width="65" x="31" y="335.0313"/><text fill="#000000" font-family="sans-serif" font-size="14" lengthAdjust="spacing" textLength="51" x="38" y="356.5645">External</text><rect fill="#E2E2F0" height="31.6094" rx="2.5" ry="2.5" style="stroke:#181818;stroke-width:0.5;" width="106" x="149.5" y="64.9609"/><text fill="#000000" font-family="sans-serif" font-size="14" lengthAdjust="spacing" textLength="92" x="156.5" y="86.4941">Storefront App</text><rect fill="#E2E2F0" height="31.6094" rx="2.5" ry="2.5" style="stroke:#181818;stroke-width:0.5;" width="106" x="149.5" y="335.0313"/><text fill="#000000" font-family="sans-serif" font-size="14" lengthAdjust="spacing" textLength="92" x="156.5" y="356.5645">Storefront App</text><rect fill="#E2E2F0" height="31.6094" rx="2.5" ry="2.5" style="stroke:#181818;stroke-width:0.5;" width="98" x="292.5" y="64.9609"/><text fill="#000000" font-family="sans-serif" font-size="14" lengthAdjust="spacing" textLength="84" x="299.5" y="86.4941">Storefront Bff</text><rect fill="#E2E2F0" height="31.6094" rx="2.5" ry="2.5" style="stroke:#181818;stroke-width:0.5;" width="98" x="292.5" y="335.0313"/><text fill="#000000" font-family="sans-serif" font-size="14" lengthAdjust="spacing" textLength="84" x="299.5" y="356.5645">Storefront Bff</text><rect fill="#E2E2F0" height="31.6094" rx="2.5" ry="2.5" style="stroke:#181818;stroke-width:0.5;" width="34" x="418.5" y="64.9609"/><text fill="#000000" font-family="sans-serif" font-size="14" lengthAdjust="spacing" textLength="20" x="425.5" y="86.4941">Api</text><rect fill="#E2E2F0" height="31.6094" rx="2.5" ry="2.5" style="stroke:#181818;stroke-width:0.5;" width="34" x="418.5" y="335.0313"/><text fill="#000000" font-family="sans-serif" font-size="14" lengthAdjust="spacing" textLength="20" x="425.5" y="356.5645">Api</text><rect fill="#E2E2F0" height="31.6094" rx="2.5" ry="2.5" style="stroke:#181818;stroke-width:0.5;" width="75" x="492" y="64.9609"/><text fill="#000000" font-family="sans-serif" font-size="14" lengthAdjust="spacing" textLength="61" x="499" y="86.4941">Database</text><rect fill="#E2E2F0" height="31.6094" rx="2.5" ry="2.5" style="stroke:#181818;stroke-width:0.5;" width="75" x="492" y="335.0313"/><text fill="#000000" font-family="sans-serif" font-size="14" lengthAdjust="spacing" textLength="61" x="499" y="356.5645">Database</text><polygon fill="#181818" points="190.5,125.9219,200.5,129.9219,190.5,133.9219,194.5,129.9219" style="stroke:#181818;stroke-width:1.0;"/><line style="stroke:#181818;stroke-width:1.0;" x1="63.5" x2="196.5" y1="129.9219" y2="129.9219"/><text fill="#000000" font-family="sans-serif" font-size="13" lengthAdjust="spacing" textLength="115" x="70.5" y="125.0654">Update Basket Item</text><path d="M139.5,144.9219 L307.5,144.9219 L307.5,153.2734 L297.5,163.2734 L139.5,163.2734 L139.5,144.9219 " fill="#EEEEEE" style="stroke:#000000;stroke-width:1.5;"/><rect fill="none" height="174.1094" style="stroke:#000000;stroke-width:1.5;" width="457.5" x="139.5" y="144.9219"/><text fill="#000000" font-family="sans-serif" font-size="13" font-weight="bold" lengthAdjust="spacing" textLength="123" x="154.5" y="159.417">Update Basket Item</text><polygon fill="#181818" points="329.5,181.625,339.5,185.625,329.5,189.625,333.5,185.625" style="stroke:#181818;stroke-width:1.0;"/><line style="stroke:#181818;stroke-width:1.0;" x1="202.5" x2="335.5" y1="185.625" y2="185.625"/><text fill="#000000" font-family="sans-serif" font-size="13" lengthAdjust="spacing" textLength="115" x="209.5" y="180.7686">Update Basket Item</text><path d="M282.5,200.625 L450.5,200.625 L450.5,208.9766 L440.5,218.9766 L282.5,218.9766 L282.5,200.625 " fill="#EEEEEE" style="stroke:#000000;stroke-width:1.5;"/><rect fill="none" height="111.4063" style="stroke:#000000;stroke-width:1.5;" width="304.5" x="282.5" y="200.625"/><text fill="#000000" font-family="sans-serif" font-size="13" font-weight="bold" lengthAdjust="spacing" textLength="123" x="297.5" y="215.1201">Update Basket Item</text><polygon fill="#181818" points="423.5,237.3281,433.5,241.3281,423.5,245.3281,427.5,241.3281" style="stroke:#181818;stroke-width:1.0;"/><line style="stroke:#181818;stroke-width:1.0;" x1="341.5" x2="429.5" y1="241.3281" y2="241.3281"/><text fill="#000000" font-family="sans-serif" font-size="13" lengthAdjust="spacing" textLength="70" x="348.5" y="236.4717">Update Item</text><path d="M408.5,256.3281 L530.5,256.3281 L530.5,264.6797 L520.5,274.6797 L408.5,274.6797 L408.5,256.3281 " fill="#EEEEEE" style="stroke:#000000;stroke-width:1.5;"/><rect fill="none" height="48.7031" style="stroke:#000000;stroke-width:1.5;" width="168.5" x="408.5" y="256.3281"/><text fill="#000000" font-family="sans-serif" font-size="13" font-weight="bold" lengthAdjust="spacing" textLength="77" x="423.5" y="270.8232">Update Item</text><polygon fill="#181818" points="517.5,293.0313,527.5,297.0313,517.5,301.0313,521.5,297.0313" style="stroke:#181818;stroke-width:1.0;"/><line style="stroke:#181818;stroke-width:1.0;" x1="435.5" x2="523.5" y1="297.0313" y2="297.0313"/><text fill="#000000" font-family="sans-serif" font-size="13" lengthAdjust="spacing" textLength="70" x="442.5" y="292.1748">Update Item</text><!--SRC=[jP9DRy8m343l_XLMTwQddNQO11sJk25Lqywck5kqDCaIyx5_FmyeY9MXLcYHAYMD_V8IMunOncdXcuPZnNDBKllOu0XByP7hw9tWE0JzyHAM98mJIXyiE1FUHV7dYbt5EYqqb8pZY9RNR042HJ6L2QI8RBeLZeviXfImk9yvNJvRlybBNyk68fTVIP4fRmFtwtF8kTCErL7l04z9clCdRrBNWtcQ0x3mMymEZr9oN9kACxnxVJV2W3hE3Xm7q_EKFV40p8zlct95TBbF9BIWnBV2MmwmMwBU303wrmf7ZqFBWGyNsWhUeb-5Inj3wGE5j9x_AFH3xoLqhVGdlwvOJwEh-Di4s_RvPQdDTFpW6m00]--></g></svg>