<?xml version="1.0" encoding="us-ascii" standalone="no"?><svg xmlns="http://www.w3.org/2000/svg" xmlns:xlink="http://www.w3.org/1999/xlink" contentStyleType="text/css" height="489px" preserveAspectRatio="none" style="width:748px;height:489px;background:#FFFFFF;" version="1.1" viewBox="0 0 748 489" width="748px" zoomAndPan="magnify"><defs/><g><text fill="#000000" font-family="sans-serif" font-size="14" font-weight="bold" lengthAdjust="spacing" textLength="720" x="10" y="29.5332">Big Bank Plc - Internet Banking - Single-Page App - View Customer Details - Sequence - Container level</text><rect fill="#FFFFFF" height="439.1406" style="stroke:#181818;stroke-width:0.5;" width="286" x="178" y="44.6094"/><text fill="#000000" font-family="sans-serif" font-size="13" font-weight="bold" lengthAdjust="spacing" textLength="105" x="268.5" y="58.1045">Internet Banking</text><rect fill="none" height="269.8672" style="stroke:#000000;stroke-width:1.5;" width="510.5" x="172" y="161.2734"/><rect fill="none" height="65.0547" style="stroke:#000000;stroke-width:1.5;" width="330.5" x="342" y="233.3281"/><rect fill="none" height="65.0547" style="stroke:#000000;stroke-width:1.5;" width="330.5" x="342" y="359.0859"/><line style="stroke:#181818;stroke-width:0.5;stroke-dasharray:5.0,5.0;" x1="85.5" x2="85.5" y1="97.5703" y2="448.1406"/><line style="stroke:#181818;stroke-width:0.5;stroke-dasharray:5.0,5.0;" x1="242" x2="242" y1="97.5703" y2="448.1406"/><line style="stroke:#181818;stroke-width:0.5;stroke-dasharray:5.0,5.0;" x1="406" x2="406" y1="97.5703" y2="448.1406"/><line style="stroke:#181818;stroke-width:0.5;stroke-dasharray:5.0,5.0;" x1="569.5" x2="569.5" y1="97.5703" y2="448.1406"/><rect fill="#E2E2F0" height="31.6094" rx="2.5" ry="2.5" style="stroke:#181818;stroke-width:0.5;" width="65" x="53.5" y="64.9609"/><text fill="#000000" font-family="sans-serif" font-size="14" lengthAdjust="spacing" textLength="51" x="60.5" y="86.4941">External</text><rect fill="#E2E2F0" height="31.6094" rx="2.5" ry="2.5" style="stroke:#181818;stroke-width:0.5;" width="65" x="53.5" y="447.1406"/><text fill="#000000" font-family="sans-serif" font-size="14" lengthAdjust="spacing" textLength="51" x="60.5" y="468.6738">External</text><rect fill="#E2E2F0" height="31.6094" rx="2.5" ry="2.5" style="stroke:#181818;stroke-width:0.5;" width="120" x="182" y="64.9609"/><text fill="#000000" font-family="sans-serif" font-size="14" lengthAdjust="spacing" textLength="106" x="189" y="86.4941">Single-Page App</text><rect fill="#E2E2F0" height="31.6094" rx="2.5" ry="2.5" style="stroke:#181818;stroke-width:0.5;" width="120" x="182" y="447.1406"/><text fill="#000000" font-family="sans-serif" font-size="14" lengthAdjust="spacing" textLength="106" x="189" y="468.6738">Single-Page App</text><rect fill="#E2E2F0" height="31.6094" rx="2.5" ry="2.5" style="stroke:#181818;stroke-width:0.5;" width="108" x="352" y="64.9609"/><text fill="#000000" font-family="sans-serif" font-size="14" lengthAdjust="spacing" textLength="94" x="359" y="86.4941">API Application</text><rect fill="#E2E2F0" height="31.6094" rx="2.5" ry="2.5" style="stroke:#181818;stroke-width:0.5;" width="108" x="352" y="447.1406"/><text fill="#000000" font-family="sans-serif" font-size="14" lengthAdjust="spacing" textLength="94" x="359" y="468.6738">API Application</text><rect fill="#E2E2F0" height="31.6094" rx="2.5" ry="2.5" style="stroke:#181818;stroke-width:0.5;" width="185" x="477.5" y="64.9609"/><text fill="#000000" font-family="sans-serif" font-size="14" lengthAdjust="spacing" textLength="171" x="484.5" y="86.4941">Mainframe Banking System</text><rect fill="#E2E2F0" height="31.6094" rx="2.5" ry="2.5" style="stroke:#181818;stroke-width:0.5;" width="185" x="477.5" y="447.1406"/><text fill="#000000" font-family="sans-serif" font-size="14" lengthAdjust="spacing" textLength="171" x="484.5" y="468.6738">Mainframe Banking System</text><polygon fill="#181818" points="230,142.2734,240,146.2734,230,150.2734,234,146.2734" style="stroke:#181818;stroke-width:1.0;"/><line style="stroke:#181818;stroke-width:1.0;" x1="86" x2="236" y1="146.2734" y2="146.2734"/><text fill="#000000" font-family="sans-serif" font-size="13" lengthAdjust="spacing" textLength="132" x="93" y="125.0654">View Customer Details</text><text fill="#000000" font-family="sans-serif" font-size="13" lengthAdjust="spacing" textLength="49" x="93" y="141.417">[HTTPS]</text><path d="M172,161.2734 L360,161.2734 L360,169.625 L350,179.625 L172,179.625 L172,161.2734 " fill="#EEEEEE" style="stroke:#000000;stroke-width:1.5;"/><rect fill="none" height="269.8672" style="stroke:#000000;stroke-width:1.5;" width="510.5" x="172" y="161.2734"/><text fill="#000000" font-family="sans-serif" font-size="13" font-weight="bold" lengthAdjust="spacing" textLength="143" x="187" y="175.7686">View Customer Details</text><polygon fill="#181818" points="394,214.3281,404,218.3281,394,222.3281,398,218.3281" style="stroke:#181818;stroke-width:1.0;"/><line style="stroke:#181818;stroke-width:1.0;" x1="242" x2="400" y1="218.3281" y2="218.3281"/><text fill="#000000" font-family="sans-serif" font-size="13" lengthAdjust="spacing" textLength="81" x="249" y="197.1201">Get Customer</text><text fill="#000000" font-family="sans-serif" font-size="13" lengthAdjust="spacing" textLength="49" x="249" y="213.4717">[HTTPS]</text><path d="M342,233.3281 L473,233.3281 L473,241.6797 L463,251.6797 L342,251.6797 L342,233.3281 " fill="#EEEEEE" style="stroke:#000000;stroke-width:1.5;"/><rect fill="none" height="65.0547" style="stroke:#000000;stroke-width:1.5;" width="330.5" x="342" y="233.3281"/><text fill="#000000" font-family="sans-serif" font-size="13" font-weight="bold" lengthAdjust="spacing" textLength="86" x="357" y="247.8232">Get Customer</text><polygon fill="#181818" points="558,286.3828,568,290.3828,558,294.3828,562,290.3828" style="stroke:#181818;stroke-width:1.0;"/><line style="stroke:#181818;stroke-width:1.0;" x1="406" x2="564" y1="290.3828" y2="290.3828"/><text fill="#000000" font-family="sans-serif" font-size="13" lengthAdjust="spacing" textLength="81" x="413" y="269.1748">Get Customer</text><text fill="#000000" font-family="sans-serif" font-size="13" lengthAdjust="spacing" textLength="49" x="413" y="285.5264">[TCP/IP]</text><polygon fill="#181818" points="394,340.0859,404,344.0859,394,348.0859,398,344.0859" style="stroke:#181818;stroke-width:1.0;"/><line style="stroke:#181818;stroke-width:1.0;" x1="242" x2="400" y1="344.0859" y2="344.0859"/><text fill="#000000" font-family="sans-serif" font-size="13" lengthAdjust="spacing" textLength="140" x="249" y="322.8779">Get Customer Accounts</text><text fill="#000000" font-family="sans-serif" font-size="13" lengthAdjust="spacing" textLength="49" x="249" y="339.2295">[HTTPS]</text><path d="M342,359.0859 L534,359.0859 L534,367.4375 L524,377.4375 L342,377.4375 L342,359.0859 " fill="#EEEEEE" style="stroke:#000000;stroke-width:1.5;"/><rect fill="none" height="65.0547" style="stroke:#000000;stroke-width:1.5;" width="330.5" x="342" y="359.0859"/><text fill="#000000" font-family="sans-serif" font-size="13" font-weight="bold" lengthAdjust="spacing" textLength="147" x="357" y="373.5811">Get Customer Accounts</text><polygon fill="#181818" points="558,412.1406,568,416.1406,558,420.1406,562,416.1406" style="stroke:#181818;stroke-width:1.0;"/><line style="stroke:#181818;stroke-width:1.0;" x1="406" x2="564" y1="416.1406" y2="416.1406"/><text fill="#000000" font-family="sans-serif" font-size="13" lengthAdjust="spacing" textLength="140" x="413" y="394.9326">Get Customer Accounts</text><text fill="#000000" font-family="sans-serif" font-size="13" lengthAdjust="spacing" textLength="49" x="413" y="411.2842">[TCP/IP]</text><!--SRC=[pL9DJuD04BtlhvZWkNZnvC6anQyUJ4XezA0zh7IA6xUxo0vI_xspRI6KacgKGqa8o-pCUs_U32dI21ELmKIQTuXr2YEO6iB286rYocGSIlYZSHJB366SvnnvL5X1L3goAopW6aagxNmcVfHeKkHZP0r73Lzh_4GjH2uBKgdAfI48RjQUHUe0f8FeOaDwgsqL9dP9bImm-NA4AnVMYTj_8Lxj6eAknW3EdjuKeG1-zdWwqZTqtB2lutOFs6hW7MxODE72BP87Ofn3ed4yzGHQfPAKDVyWOgGMa42p06wwuzy39oyBkS9cJ5ladtYRkbrPRUllHm2Zgo4SXCl-9Nenp_UpMPpCHLROCkzF4aC8-7CV-mFYHkvu4sk9NVtjEp48tt7T_GC-53cBulDfFFVhTS9kmZXDRMd87RErIJePVzkosqRxLtm3]--></g></svg>