<?xml version="1.0" encoding="us-ascii" standalone="no"?><svg xmlns="http://www.w3.org/2000/svg" xmlns:xlink="http://www.w3.org/1999/xlink" contentStyleType="text/css" height="377px" preserveAspectRatio="none" style="width:1187px;height:377px;background:#FFFFFF;" version="1.1" viewBox="0 0 1187 377" width="1187px" zoomAndPan="magnify"><defs/><g><text fill="#000000" font-family="sans-serif" font-size="14" font-weight="bold" lengthAdjust="spacing" textLength="1159" x="10" y="29.5332">E Commerce Platform - Create Product - Price Management - Pricing Service - Message Handler - Handle Purchase Order Updated Event - Sequence - Container level</text><rect fill="#FFFFFF" height="327.0313" style="stroke:#181818;stroke-width:0.5;" width="224.5" x="506.75" y="44.6094"/><text fill="#000000" font-family="sans-serif" font-size="13" font-weight="bold" lengthAdjust="spacing" textLength="97" x="570.5" y="58.1045">Pricing Service</text><rect fill="#FFFFFF" height="327.0313" style="stroke:#181818;stroke-width:0.5;" width="102" x="779.75" y="44.6094"/><text fill="#000000" font-family="sans-serif" font-size="13" font-weight="bold" lengthAdjust="spacing" textLength="96" x="782.75" y="58.1045">Buying Service</text><rect fill="none" height="174.1094" style="stroke:#000000;stroke-width:1.5;" width="401" x="480.75" y="144.9219"/><rect fill="none" height="111.4063" style="stroke:#000000;stroke-width:1.5;" width="297" x="490.75" y="200.625"/><rect fill="none" height="48.7031" style="stroke:#000000;stroke-width:1.5;" width="236.5" x="500.75" y="256.3281"/><line style="stroke:#181818;stroke-width:0.5;stroke-dasharray:5.0,5.0;" x1="325.25" x2="325.25" y1="97.5703" y2="336.0313"/><line style="stroke:#181818;stroke-width:0.5;stroke-dasharray:5.0,5.0;" x1="572.75" x2="572.75" y1="97.5703" y2="336.0313"/><line style="stroke:#181818;stroke-width:0.5;stroke-dasharray:5.0,5.0;" x1="689.25" x2="689.25" y1="97.5703" y2="336.0313"/><line style="stroke:#181818;stroke-width:0.5;stroke-dasharray:5.0,5.0;" x1="830.75" x2="830.75" y1="97.5703" y2="336.0313"/><rect fill="#E2E2F0" height="31.6094" rx="2.5" ry="2.5" style="stroke:#181818;stroke-width:0.5;" width="65" x="293.25" y="64.9609"/><text fill="#000000" font-family="sans-serif" font-size="14" lengthAdjust="spacing" textLength="51" x="300.25" y="86.4941">External</text><rect fill="#E2E2F0" height="31.6094" rx="2.5" ry="2.5" style="stroke:#181818;stroke-width:0.5;" width="65" x="293.25" y="335.0313"/><text fill="#000000" font-family="sans-serif" font-size="14" lengthAdjust="spacing" textLength="51" x="300.25" y="356.5645">External</text><rect fill="#E2E2F0" height="31.6094" rx="2.5" ry="2.5" style="stroke:#181818;stroke-width:0.5;" width="124" x="510.75" y="64.9609"/><text fill="#000000" font-family="sans-serif" font-size="14" lengthAdjust="spacing" textLength="110" x="517.75" y="86.4941">Message Handler</text><rect fill="#E2E2F0" height="31.6094" rx="2.5" ry="2.5" style="stroke:#181818;stroke-width:0.5;" width="124" x="510.75" y="335.0313"/><text fill="#000000" font-family="sans-serif" font-size="14" lengthAdjust="spacing" textLength="110" x="517.75" y="356.5645">Message Handler</text><rect fill="#E2E2F0" height="31.6094" rx="2.5" ry="2.5" style="stroke:#181818;stroke-width:0.5;" width="75" x="652.25" y="64.9609"/><text fill="#000000" font-family="sans-serif" font-size="14" lengthAdjust="spacing" textLength="61" x="659.25" y="86.4941">Database</text><rect fill="#E2E2F0" height="31.6094" rx="2.5" ry="2.5" style="stroke:#181818;stroke-width:0.5;" width="75" x="652.25" y="335.0313"/><text fill="#000000" font-family="sans-serif" font-size="14" lengthAdjust="spacing" textLength="61" x="659.25" y="356.5645">Database</text><rect fill="#E2E2F0" height="31.6094" rx="2.5" ry="2.5" style="stroke:#181818;stroke-width:0.5;" width="82" x="789.75" y="64.9609"/><text fill="#000000" font-family="sans-serif" font-size="14" lengthAdjust="spacing" textLength="68" x="796.75" y="86.4941">Messaging</text><rect fill="#E2E2F0" height="31.6094" rx="2.5" ry="2.5" style="stroke:#181818;stroke-width:0.5;" width="82" x="789.75" y="335.0313"/><text fill="#000000" font-family="sans-serif" font-size="14" lengthAdjust="spacing" textLength="68" x="796.75" y="356.5645">Messaging</text><polygon fill="#181818" points="560.75,125.9219,570.75,129.9219,560.75,133.9219,564.75,129.9219" style="stroke:#181818;stroke-width:1.0;"/><line style="stroke:#181818;stroke-width:1.0;" x1="325.75" x2="566.75" y1="129.9219" y2="129.9219"/><text fill="#000000" font-family="sans-serif" font-size="13" lengthAdjust="spacing" textLength="223" x="332.75" y="125.0654">Handle Purchase Order Updated Event</text><path d="M480.75,144.9219 L769.75,144.9219 L769.75,153.2734 L759.75,163.2734 L480.75,163.2734 L480.75,144.9219 " fill="#EEEEEE" style="stroke:#000000;stroke-width:1.5;"/><rect fill="none" height="174.1094" style="stroke:#000000;stroke-width:1.5;" width="401" x="480.75" y="144.9219"/><text fill="#000000" font-family="sans-serif" font-size="13" font-weight="bold" lengthAdjust="spacing" textLength="244" x="495.75" y="159.417">Handle Purchase Order Updated Event</text><polygon fill="#181818" points="818.75,181.625,828.75,185.625,818.75,189.625,822.75,185.625" style="stroke:#181818;stroke-width:1.0;"/><line style="stroke:#181818;stroke-width:1.0;" x1="572.75" x2="824.75" y1="185.625" y2="185.625"/><text fill="#000000" font-family="sans-serif" font-size="13" lengthAdjust="spacing" textLength="228" x="579.75" y="180.7686">Receive Purchase Order Updated Event</text><path d="M490.75,200.625 L563.75,200.625 L563.75,208.9766 L553.75,218.9766 L490.75,218.9766 L490.75,200.625 " fill="#EEEEEE" style="stroke:#000000;stroke-width:1.5;"/><rect fill="none" height="111.4063" style="stroke:#000000;stroke-width:1.5;" width="297" x="490.75" y="200.625"/><text fill="#000000" font-family="sans-serif" font-size="13" font-weight="bold" lengthAdjust="spacing" textLength="28" x="505.75" y="215.1201">loop</text><text fill="#000000" font-family="sans-serif" font-size="11" font-weight="bold" lengthAdjust="spacing" textLength="204" x="578.75" y="214.0439">[For each Product in Purchase Order]</text><polygon fill="#181818" points="677.75,237.3281,687.75,241.3281,677.75,245.3281,681.75,241.3281" style="stroke:#181818;stroke-width:1.0;"/><line style="stroke:#181818;stroke-width:1.0;" x1="572.75" x2="683.75" y1="241.3281" y2="241.3281"/><text fill="#000000" font-family="sans-serif" font-size="13" lengthAdjust="spacing" textLength="93" x="579.75" y="236.4717">Select Products</text><path d="M500.75,256.3281 L561.75,256.3281 L561.75,264.6797 L551.75,274.6797 L500.75,274.6797 L500.75,256.3281 " fill="#EEEEEE" style="stroke:#000000;stroke-width:1.5;"/><rect fill="none" height="48.7031" style="stroke:#000000;stroke-width:1.5;" width="236.5" x="500.75" y="256.3281"/><text fill="#000000" font-family="sans-serif" font-size="13" font-weight="bold" lengthAdjust="spacing" textLength="16" x="515.75" y="270.8232">alt</text><text fill="#000000" font-family="sans-serif" font-size="11" font-weight="bold" lengthAdjust="spacing" textLength="109" x="576.75" y="269.7471">[Product Not Found]</text><polygon fill="#181818" points="677.75,293.0313,687.75,297.0313,677.75,301.0313,681.75,297.0313" style="stroke:#181818;stroke-width:1.0;"/><line style="stroke:#181818;stroke-width:1.0;" x1="572.75" x2="683.75" y1="297.0313" y2="297.0313"/><text fill="#000000" font-family="sans-serif" font-size="13" lengthAdjust="spacing" textLength="81" x="579.75" y="292.1748">Insert Product</text><!--SRC=[tPHDJyCm38Rl-HLMEQydJXoGe7HYXy54XJXxZRT5IfEIfDtsx_7M3s0JeWYO49KgrOxhz_MJfa45JP12Oek2N4umqnWMrXKmWiGH1iuuAwiyS6Bc55TCqU2I2Z9TIfabPEJgtU88fkGzhyCj6gd9SQPvWbdbyXLwWdidEVzOIkuk8QsRJXazLsJsBH9h0Yh3HPfgqaAKw0BhbCYLKRe9v0pg2D13SZun78wrNSUPNOGrEigsFb3XuwwmYOMOsmr41uOZE7jQgK02-7edSp37NYtjC7MKuePHYoZU0thbS-Ie5M-rutvE7xTghTYncniCE6TulsoZan5a930lqLAxhhPVWCQbWtmsNQ-CdDBkqp1IUOwFx3Pb7qBZjJTsXtyGCBeysOR2nP1J89RELkMWofCP7m3fnxQHAJrGJgh-P7XjRGbZwu0mN_N_9sKEtlfJaBv_9fbEHffuqhQd5wZx0EviO2QLaVzlx8dnvFf9TuUzlyKB]--></g></svg>