<?xml version="1.0" encoding="us-ascii" standalone="no"?><svg xmlns="http://www.w3.org/2000/svg" xmlns:xlink="http://www.w3.org/1999/xlink" contentStyleType="text/css" height="239.375px" preserveAspectRatio="none" style="width:291px;height:239px;background:#FFFFFF;" version="1.1" viewBox="0 0 291 239" width="291.875px" zoomAndPan="magnify"><defs/><g><text fill="#000000" font-family="sans-serif" font-size="8.75" font-weight="bold" lengthAdjust="spacing" textLength="274.375" x="6.25" y="18.4583">Internet Banking - Single-Page App - Sign In - CONTAINER level</text><rect fill="#FFFFFF" height="203.9551" style="stroke:#181818;stroke-width:0.3125;" width="220.9375" x="48.9063" y="27.8809"/><text fill="#000000" font-family="sans-serif" font-size="8.125" font-weight="bold" lengthAdjust="spacing" textLength="65.625" x="126.5625" y="36.3153">Internet Banking</text><rect fill="none" height="69.6289" style="stroke:#000000;stroke-width:0.9375;" width="234.6875" x="45.1563" y="109.9512"/><rect fill="none" height="30.4395" style="stroke:#000000;stroke-width:0.9375;" width="147.1875" x="126.4063" y="144.7656"/><line style="stroke:#181818;stroke-width:0.3125;stroke-dasharray:5.0,5.0;" x1="24.5313" x2="24.5313" y1="80.3564" y2="190.2051"/><line style="stroke:#181818;stroke-width:0.3125;stroke-dasharray:5.0,5.0;" x1="88.9063" x2="88.9063" y1="80.3564" y2="190.2051"/><line style="stroke:#181818;stroke-width:0.3125;stroke-dasharray:5.0,5.0;" x1="166.4063" x2="166.4063" y1="80.3564" y2="190.2051"/><line style="stroke:#181818;stroke-width:0.3125;stroke-dasharray:5.0,5.0;" x1="246.0938" x2="246.0938" y1="80.3564" y2="190.2051"/><rect fill="#E2E2F0" height="19.7559" rx="1.5625" ry="1.5625" style="stroke:#181818;stroke-width:0.3125;" width="40.625" x="4.5313" y="59.9756"/><text fill="#000000" font-family="sans-serif" font-size="8.75" lengthAdjust="spacing" textLength="31.875" x="8.9063" y="73.4338">External</text><rect fill="#E2E2F0" height="19.7559" rx="1.5625" ry="1.5625" style="stroke:#181818;stroke-width:0.3125;" width="40.625" x="4.5313" y="189.5801"/><text fill="#000000" font-family="sans-serif" font-size="8.75" lengthAdjust="spacing" textLength="31.875" x="8.9063" y="203.0383">External</text><rect fill="#E2E2F0" height="19.7559" rx="1.5625" ry="1.5625" style="stroke:#181818;stroke-width:0.3125;" width="75" x="51.4063" y="59.9756"/><text fill="#000000" font-family="sans-serif" font-size="8.75" lengthAdjust="spacing" textLength="66.25" x="55.7813" y="73.4338">Single-Page App</text><rect fill="#E2E2F0" height="19.7559" rx="1.5625" ry="1.5625" style="stroke:#181818;stroke-width:0.3125;" width="75" x="51.4063" y="189.5801"/><text fill="#000000" font-family="sans-serif" font-size="8.75" lengthAdjust="spacing" textLength="66.25" x="55.7813" y="203.0383">Single-Page App</text><rect fill="#E2E2F0" height="19.7559" rx="1.5625" ry="1.5625" style="stroke:#181818;stroke-width:0.3125;" width="67.5" x="132.6563" y="59.9756"/><text fill="#000000" font-family="sans-serif" font-size="8.75" lengthAdjust="spacing" textLength="58.75" x="137.0313" y="73.4338">API Application</text><rect fill="#E2E2F0" height="19.7559" rx="1.5625" ry="1.5625" style="stroke:#181818;stroke-width:0.3125;" width="67.5" x="132.6563" y="189.5801"/><text fill="#000000" font-family="sans-serif" font-size="8.75" lengthAdjust="spacing" textLength="58.75" x="137.0313" y="203.0383">API Application</text><text fill="#000000" font-family="sans-serif" font-size="8.75" lengthAdjust="spacing" textLength="38.125" x="225.4688" y="78.4338">Database</text><path d="M235.1563,46.8506 C235.1563,40.6006 246.4063,40.6006 246.4063,40.6006 C246.4063,40.6006 257.6563,40.6006 257.6563,46.8506 L257.6563,63.1006 C257.6563,69.3506 246.4063,69.3506 246.4063,69.3506 C246.4063,69.3506 235.1563,69.3506 235.1563,63.1006 L235.1563,46.8506 " fill="#E2E2F0" style="stroke:#181818;stroke-width:0.9375;"/><path d="M235.1563,46.8506 C235.1563,53.1006 246.4063,53.1006 246.4063,53.1006 C246.4063,53.1006 257.6563,53.1006 257.6563,46.8506 " fill="none" style="stroke:#181818;stroke-width:0.9375;"/><text fill="#000000" font-family="sans-serif" font-size="8.75" lengthAdjust="spacing" textLength="38.125" x="225.4688" y="198.6633">Database</text><path d="M235.1563,206.8359 C235.1563,200.5859 246.4063,200.5859 246.4063,200.5859 C246.4063,200.5859 257.6563,200.5859 257.6563,206.8359 L257.6563,223.0859 C257.6563,229.3359 246.4063,229.3359 246.4063,229.3359 C246.4063,229.3359 235.1563,229.3359 235.1563,223.0859 L235.1563,206.8359 " fill="#E2E2F0" style="stroke:#181818;stroke-width:0.9375;"/><path d="M235.1563,206.8359 C235.1563,213.0859 246.4063,213.0859 246.4063,213.0859 C246.4063,213.0859 257.6563,213.0859 257.6563,206.8359 " fill="none" style="stroke:#181818;stroke-width:0.9375;"/><polygon fill="#181818" points="81.4063,98.0762,87.6563,100.5762,81.4063,103.0762,83.9063,100.5762" style="stroke:#181818;stroke-width:0.625;"/><line style="stroke:#181818;stroke-width:0.625;" x1="24.8438" x2="85.1563" y1="100.5762" y2="100.5762"/><text fill="#000000" font-family="sans-serif" font-size="8.125" lengthAdjust="spacing" textLength="25" x="29.2188" y="97.5409">Sign In</text><path d="M45.1563,109.9512 L101.4063,109.9512 L101.4063,115.1709 L95.1563,121.4209 L45.1563,121.4209 L45.1563,109.9512 " fill="#EEEEEE" style="stroke:#000000;stroke-width:0.9375;"/><rect fill="none" height="69.6289" style="stroke:#000000;stroke-width:0.9375;" width="234.6875" x="45.1563" y="109.9512"/><text fill="#000000" font-family="sans-serif" font-size="8.125" font-weight="bold" lengthAdjust="spacing" textLength="28.125" x="54.5313" y="119.0106">Sign In</text><polygon fill="#181818" points="158.9063,132.8906,165.1563,135.3906,158.9063,137.8906,161.4063,135.3906" style="stroke:#181818;stroke-width:0.625;"/><line style="stroke:#181818;stroke-width:0.625;" x1="88.9063" x2="162.6563" y1="135.3906" y2="135.3906"/><text fill="#000000" font-family="sans-serif" font-size="8.125" lengthAdjust="spacing" textLength="25" x="93.2813" y="132.3553">Sign In</text><path d="M126.4063,144.7656 L182.6563,144.7656 L182.6563,149.9854 L176.4063,156.2354 L126.4063,156.2354 L126.4063,144.7656 " fill="#EEEEEE" style="stroke:#000000;stroke-width:0.9375;"/><rect fill="none" height="30.4395" style="stroke:#000000;stroke-width:0.9375;" width="147.1875" x="126.4063" y="144.7656"/><text fill="#000000" font-family="sans-serif" font-size="8.125" font-weight="bold" lengthAdjust="spacing" textLength="28.125" x="135.7813" y="153.8251">Sign In</text><polygon fill="#181818" points="238.9063,167.7051,245.1563,170.2051,238.9063,172.7051,241.4063,170.2051" style="stroke:#181818;stroke-width:0.625;"/><line style="stroke:#181818;stroke-width:0.625;" x1="166.4063" x2="242.6563" y1="170.2051" y2="170.2051"/><text fill="#000000" font-family="sans-serif" font-size="8.125" lengthAdjust="spacing" textLength="65" x="170.7813" y="167.1698">Authenticate User</text><!--SRC=[hPB1JiCm38RlVWfJpgqu80uSaBeof5t6H46SlSth8j8aIboslJrfjoAsNT3MI57ioFd-NtPkdAUg9jIqiurWg5d848GlPHnvgd7f53xS0OWIpJWnmjwmu8XCBAamnJ8UcjCPLOovSzrDPM9bZ8hNwNi-cOxVKFCtQu385BLGZenWCjwsCD89Ki3YlcE_QBl9IhkI3NakTq6u3bbVkCy1vdQBoQcL16y_rqeOCAuZdHE7dTn8LUsxcLwSgVNW0pShh15IXdt8zgGM53ddGlbiqWfejI1HrbmX54b_G9tIaeJc51YJvqDq1Rz709ibndO2mFy7WEdJ4Ft3n_wdGELjutwp8TWNMppk_C0UJ-0Nc-p75-tbZQpPI8ja_0Zisv5s6tu0]--></g></svg>