<?xml version="1.0" encoding="us-ascii" standalone="no"?><svg xmlns="http://www.w3.org/2000/svg" xmlns:xlink="http://www.w3.org/1999/xlink" contentStyleType="text/css" height="501px" preserveAspectRatio="none" style="width:792px;height:501px;background:#FFFFFF;" version="1.1" viewBox="0 0 792 501" width="792px" zoomAndPan="magnify"><defs/><g><text fill="#000000" font-family="sans-serif" font-size="14" font-weight="bold" lengthAdjust="spacing" textLength="764" x="10" y="29.5332">ECommercePlatform - GenerateDemand - Storefront - Storefront App - Checkout - Sequence - Container level</text><rect fill="#FFFFFF" height="450.4375" style="stroke:#181818;stroke-width:0.5;" width="246.5" x="327" y="44.6094"/><text fill="#000000" font-family="sans-serif" font-size="13" font-weight="bold" lengthAdjust="spacing" textLength="88" x="406.25" y="58.1045">Order Service</text><rect fill="#FFFFFF" height="450.4375" style="stroke:#181818;stroke-width:0.5;" width="168.5" x="575.5" y="44.6094"/><text fill="#000000" font-family="sans-serif" font-size="13" font-weight="bold" lengthAdjust="spacing" textLength="94" x="612.75" y="58.1045">Basket Service</text><rect fill="none" height="297.5156" style="stroke:#000000;stroke-width:1.5;" width="695" x="75" y="144.9219"/><rect fill="none" height="234.8125" style="stroke:#000000;stroke-width:1.5;" width="569" x="191" y="200.625"/><rect fill="none" height="79.0547" style="stroke:#000000;stroke-width:1.5;" width="258.5" x="321" y="256.3281"/><rect fill="none" height="48.7031" style="stroke:#000000;stroke-width:1.5;" width="180.5" x="569.5" y="379.7344"/><line style="stroke:#181818;stroke-width:0.5;stroke-dasharray:5.0,5.0;" x1="42" x2="42" y1="97.5703" y2="459.4375"/><line style="stroke:#181818;stroke-width:0.5;stroke-dasharray:5.0,5.0;" x1="138" x2="138" y1="97.5703" y2="459.4375"/><line style="stroke:#181818;stroke-width:0.5;stroke-dasharray:5.0,5.0;" x1="250" x2="250" y1="97.5703" y2="459.4375"/><line style="stroke:#181818;stroke-width:0.5;stroke-dasharray:5.0,5.0;" x1="348" x2="348" y1="97.5703" y2="459.4375"/><line style="stroke:#181818;stroke-width:0.5;stroke-dasharray:5.0,5.0;" x1="439.5" x2="439.5" y1="97.5703" y2="459.4375"/><line style="stroke:#181818;stroke-width:0.5;stroke-dasharray:5.0,5.0;" x1="528.5" x2="528.5" y1="97.5703" y2="459.4375"/><line style="stroke:#181818;stroke-width:0.5;stroke-dasharray:5.0,5.0;" x1="596.5" x2="596.5" y1="97.5703" y2="459.4375"/><line style="stroke:#181818;stroke-width:0.5;stroke-dasharray:5.0,5.0;" x1="702" x2="702" y1="97.5703" y2="459.4375"/><rect fill="#E2E2F0" height="31.6094" rx="2.5" ry="2.5" style="stroke:#181818;stroke-width:0.5;" width="65" x="10" y="64.9609"/><text fill="#000000" font-family="sans-serif" font-size="14" lengthAdjust="spacing" textLength="51" x="17" y="86.4941">External</text><rect fill="#E2E2F0" height="31.6094" rx="2.5" ry="2.5" style="stroke:#181818;stroke-width:0.5;" width="65" x="10" y="458.4375"/><text fill="#000000" font-family="sans-serif" font-size="14" lengthAdjust="spacing" textLength="51" x="17" y="479.9707">External</text><rect fill="#E2E2F0" height="31.6094" rx="2.5" ry="2.5" style="stroke:#181818;stroke-width:0.5;" width="106" x="85" y="64.9609"/><text fill="#000000" font-family="sans-serif" font-size="14" lengthAdjust="spacing" textLength="92" x="92" y="86.4941">Storefront App</text><rect fill="#E2E2F0" height="31.6094" rx="2.5" ry="2.5" style="stroke:#181818;stroke-width:0.5;" width="106" x="85" y="458.4375"/><text fill="#000000" font-family="sans-serif" font-size="14" lengthAdjust="spacing" textLength="92" x="92" y="479.9707">Storefront App</text><rect fill="#E2E2F0" height="31.6094" rx="2.5" ry="2.5" style="stroke:#181818;stroke-width:0.5;" width="98" x="201" y="64.9609"/><text fill="#000000" font-family="sans-serif" font-size="14" lengthAdjust="spacing" textLength="84" x="208" y="86.4941">Storefront Bff</text><rect fill="#E2E2F0" height="31.6094" rx="2.5" ry="2.5" style="stroke:#181818;stroke-width:0.5;" width="98" x="201" y="458.4375"/><text fill="#000000" font-family="sans-serif" font-size="14" lengthAdjust="spacing" textLength="84" x="208" y="479.9707">Storefront Bff</text><rect fill="#E2E2F0" height="31.6094" rx="2.5" ry="2.5" style="stroke:#181818;stroke-width:0.5;" width="34" x="331" y="64.9609"/><text fill="#000000" font-family="sans-serif" font-size="14" lengthAdjust="spacing" textLength="20" x="338" y="86.4941">Api</text><rect fill="#E2E2F0" height="31.6094" rx="2.5" ry="2.5" style="stroke:#181818;stroke-width:0.5;" width="34" x="331" y="458.4375"/><text fill="#000000" font-family="sans-serif" font-size="14" lengthAdjust="spacing" textLength="20" x="338" y="479.9707">Api</text><rect fill="#E2E2F0" height="31.6094" rx="2.5" ry="2.5" style="stroke:#181818;stroke-width:0.5;" width="75" x="402.5" y="64.9609"/><text fill="#000000" font-family="sans-serif" font-size="14" lengthAdjust="spacing" textLength="61" x="409.5" y="86.4941">Database</text><rect fill="#E2E2F0" height="31.6094" rx="2.5" ry="2.5" style="stroke:#181818;stroke-width:0.5;" width="75" x="402.5" y="458.4375"/><text fill="#000000" font-family="sans-serif" font-size="14" lengthAdjust="spacing" textLength="61" x="409.5" y="479.9707">Database</text><rect fill="#E2E2F0" height="31.6094" rx="2.5" ry="2.5" style="stroke:#181818;stroke-width:0.5;" width="82" x="487.5" y="64.9609"/><text fill="#000000" font-family="sans-serif" font-size="14" lengthAdjust="spacing" textLength="68" x="494.5" y="86.4941">Messaging</text><rect fill="#E2E2F0" height="31.6094" rx="2.5" ry="2.5" style="stroke:#181818;stroke-width:0.5;" width="82" x="487.5" y="458.4375"/><text fill="#000000" font-family="sans-serif" font-size="14" lengthAdjust="spacing" textLength="68" x="494.5" y="479.9707">Messaging</text><rect fill="#E2E2F0" height="31.6094" rx="2.5" ry="2.5" style="stroke:#181818;stroke-width:0.5;" width="34" x="579.5" y="64.9609"/><text fill="#000000" font-family="sans-serif" font-size="14" lengthAdjust="spacing" textLength="20" x="586.5" y="86.4941">Api</text><rect fill="#E2E2F0" height="31.6094" rx="2.5" ry="2.5" style="stroke:#181818;stroke-width:0.5;" width="34" x="579.5" y="458.4375"/><text fill="#000000" font-family="sans-serif" font-size="14" lengthAdjust="spacing" textLength="20" x="586.5" y="479.9707">Api</text><rect fill="#E2E2F0" height="31.6094" rx="2.5" ry="2.5" style="stroke:#181818;stroke-width:0.5;" width="75" x="665" y="64.9609"/><text fill="#000000" font-family="sans-serif" font-size="14" lengthAdjust="spacing" textLength="61" x="672" y="86.4941">Database</text><rect fill="#E2E2F0" height="31.6094" rx="2.5" ry="2.5" style="stroke:#181818;stroke-width:0.5;" width="75" x="665" y="458.4375"/><text fill="#000000" font-family="sans-serif" font-size="14" lengthAdjust="spacing" textLength="61" x="672" y="479.9707">Database</text><polygon fill="#181818" points="126,125.9219,136,129.9219,126,133.9219,130,129.9219" style="stroke:#181818;stroke-width:1.0;"/><line style="stroke:#181818;stroke-width:1.0;" x1="42.5" x2="132" y1="129.9219" y2="129.9219"/><text fill="#000000" font-family="sans-serif" font-size="13" lengthAdjust="spacing" textLength="55" x="49.5" y="125.0654">Checkout</text><path d="M75,144.9219 L179,144.9219 L179,153.2734 L169,163.2734 L75,163.2734 L75,144.9219 " fill="#EEEEEE" style="stroke:#000000;stroke-width:1.5;"/><rect fill="none" height="297.5156" style="stroke:#000000;stroke-width:1.5;" width="695" x="75" y="144.9219"/><text fill="#000000" font-family="sans-serif" font-size="13" font-weight="bold" lengthAdjust="spacing" textLength="59" x="90" y="159.417">Checkout</text><polygon fill="#181818" points="238,181.625,248,185.625,238,189.625,242,185.625" style="stroke:#181818;stroke-width:1.0;"/><line style="stroke:#181818;stroke-width:1.0;" x1="138" x2="244" y1="185.625" y2="185.625"/><text fill="#000000" font-family="sans-serif" font-size="13" lengthAdjust="spacing" textLength="55" x="145" y="180.7686">Checkout</text><path d="M191,200.625 L295,200.625 L295,208.9766 L285,218.9766 L191,218.9766 L191,200.625 " fill="#EEEEEE" style="stroke:#000000;stroke-width:1.5;"/><rect fill="none" height="234.8125" style="stroke:#000000;stroke-width:1.5;" width="569" x="191" y="200.625"/><text fill="#000000" font-family="sans-serif" font-size="13" font-weight="bold" lengthAdjust="spacing" textLength="59" x="206" y="215.1201">Checkout</text><polygon fill="#181818" points="336,237.3281,346,241.3281,336,245.3281,340,241.3281" style="stroke:#181818;stroke-width:1.0;"/><line style="stroke:#181818;stroke-width:1.0;" x1="250" x2="342" y1="241.3281" y2="241.3281"/><text fill="#000000" font-family="sans-serif" font-size="13" lengthAdjust="spacing" textLength="74" x="257" y="236.4717">Create Order</text><path d="M321,256.3281 L448,256.3281 L448,264.6797 L438,274.6797 L321,274.6797 L321,256.3281 " fill="#EEEEEE" style="stroke:#000000;stroke-width:1.5;"/><rect fill="none" height="79.0547" style="stroke:#000000;stroke-width:1.5;" width="258.5" x="321" y="256.3281"/><text fill="#000000" font-family="sans-serif" font-size="13" font-weight="bold" lengthAdjust="spacing" textLength="82" x="336" y="270.8232">Create Order</text><polygon fill="#181818" points="428,293.0313,438,297.0313,428,301.0313,432,297.0313" style="stroke:#181818;stroke-width:1.0;"/><line style="stroke:#181818;stroke-width:1.0;" x1="348" x2="434" y1="297.0313" y2="297.0313"/><text fill="#000000" font-family="sans-serif" font-size="13" lengthAdjust="spacing" textLength="68" x="355" y="292.1748">Insert Order</text><polygon fill="#181818" points="516.5,323.3828,526.5,327.3828,516.5,331.3828,520.5,327.3828" style="stroke:#181818;stroke-width:1.0;"/><line style="stroke:#181818;stroke-width:1.0;" x1="348" x2="522.5" y1="327.3828" y2="327.3828"/><text fill="#000000" font-family="sans-serif" font-size="13" lengthAdjust="spacing" textLength="151" x="355" y="322.5264">Send Order Created Event</text><polygon fill="#181818" points="584.5,360.7344,594.5,364.7344,584.5,368.7344,588.5,364.7344" style="stroke:#181818;stroke-width:1.0;"/><line style="stroke:#181818;stroke-width:1.0;" x1="250" x2="590.5" y1="364.7344" y2="364.7344"/><text fill="#000000" font-family="sans-serif" font-size="13" lengthAdjust="spacing" textLength="82" x="257" y="359.8779">Delete Basket</text><path d="M569.5,379.7344 L701.5,379.7344 L701.5,388.0859 L691.5,398.0859 L569.5,398.0859 L569.5,379.7344 " fill="#EEEEEE" style="stroke:#000000;stroke-width:1.5;"/><rect fill="none" height="48.7031" style="stroke:#000000;stroke-width:1.5;" width="180.5" x="569.5" y="379.7344"/><text fill="#000000" font-family="sans-serif" font-size="13" font-weight="bold" lengthAdjust="spacing" textLength="87" x="584.5" y="394.2295">Delete Basket</text><polygon fill="#181818" points="690.5,416.4375,700.5,420.4375,690.5,424.4375,694.5,420.4375" style="stroke:#181818;stroke-width:1.0;"/><line style="stroke:#181818;stroke-width:1.0;" x1="596.5" x2="696.5" y1="420.4375" y2="420.4375"/><text fill="#000000" font-family="sans-serif" font-size="13" lengthAdjust="spacing" textLength="82" x="603.5" y="415.5811">Delete Basket</text><!--SRC=[rLKxRuCm4DxzAomwXwbJXqfvjSeGjH93vmivg1LZKzjvzD_tW02nQAMqnPMAn73du_lkyprmmadaoxak2ZGfFajmcJO5d_17L6Z0uG8BK5jo94uRp8nMpZUcPKcE-IkcExslp_1jZoh5oai180Y8IpoWPAm4uqGgIg0Fe-N9eL4W8mwMpszNYim7gOzneZDt18F9ktLOsBWDR6mVnC-aXXh8YNqnSV_DWAe_8hGlcMPPDY8JeJ6sqISUFPajtLM2vY1IZFZDowjmo3WzNYRJKbn7N-EjGK6E1NwIGtr-fekxOjcO28Qi2t2m0OjXgLkM8VyQhOLSg3ni0XqDG-fxAWix5sS6TeTknEeqW8F46dUOgdoNigj6VnVN3ogVt8ytY_oksp4iDtfVzkPu7ACbJ2CTFE6Auvg4Vx44AWq62OhNGQsEIrTG-f3osjOcZIjbqRZ_BgXRNAGegUQr-PiqrThovO70gZd-u_RxmPOZ0GkKI3tMH9txplS58GuXwABHV0LLBTgNVG00]--></g></svg>