<?xml version="1.0" encoding="us-ascii" standalone="no"?><svg xmlns="http://www.w3.org/2000/svg" xmlns:xlink="http://www.w3.org/1999/xlink" contentStyleType="text/css" height="501px" preserveAspectRatio="none" style="width:645px;height:501px;background:#FFFFFF;" version="1.1" viewBox="0 0 645 501" width="645px" zoomAndPan="magnify"><defs/><g><text fill="#000000" font-family="sans-serif" font-size="14" font-weight="bold" lengthAdjust="spacing" textLength="583" x="32.75" y="29.5332">TraderXExample - TraderX - Web Client - View Account - Sequence - Container level</text><rect fill="#FFFFFF" height="450.4375" style="stroke:#181818;stroke-width:0.5;" width="527.5" x="96" y="44.6094"/><text fill="#000000" font-family="sans-serif" font-size="13" font-weight="bold" lengthAdjust="spacing" textLength="51" x="334.25" y="58.1045">TraderX</text><rect fill="none" height="297.5156" style="stroke:#000000;stroke-width:1.5;" width="549.5" x="90" y="144.9219"/><rect fill="none" height="48.7031" style="stroke:#000000;stroke-width:1.5;" width="223" x="281.5" y="200.625"/><rect fill="none" height="48.7031" style="stroke:#000000;stroke-width:1.5;" width="348" x="281.5" y="293.6797"/><rect fill="none" height="48.7031" style="stroke:#000000;stroke-width:1.5;" width="348" x="281.5" y="386.7344"/><line style="stroke:#181818;stroke-width:0.5;stroke-dasharray:5.0,5.0;" x1="37" x2="37" y1="97.5703" y2="459.4375"/><line style="stroke:#181818;stroke-width:0.5;stroke-dasharray:5.0,5.0;" x1="141" x2="141" y1="97.5703" y2="459.4375"/><line style="stroke:#181818;stroke-width:0.5;stroke-dasharray:5.0,5.0;" x1="326.5" x2="326.5" y1="97.5703" y2="459.4375"/><line style="stroke:#181818;stroke-width:0.5;stroke-dasharray:5.0,5.0;" x1="432.5" x2="432.5" y1="97.5703" y2="459.4375"/><line style="stroke:#181818;stroke-width:0.5;stroke-dasharray:5.0,5.0;" x1="561.5" x2="561.5" y1="97.5703" y2="459.4375"/><rect fill="#E2E2F0" height="31.6094" rx="2.5" ry="2.5" style="stroke:#181818;stroke-width:0.5;" width="65" x="5" y="64.9609"/><text fill="#000000" font-family="sans-serif" font-size="14" lengthAdjust="spacing" textLength="51" x="12" y="86.4941">External</text><rect fill="#E2E2F0" height="31.6094" rx="2.5" ry="2.5" style="stroke:#181818;stroke-width:0.5;" width="65" x="5" y="458.4375"/><text fill="#000000" font-family="sans-serif" font-size="14" lengthAdjust="spacing" textLength="51" x="12" y="479.9707">External</text><rect fill="#E2E2F0" height="31.6094" rx="2.5" ry="2.5" style="stroke:#181818;stroke-width:0.5;" width="83" x="100" y="64.9609"/><text fill="#000000" font-family="sans-serif" font-size="14" lengthAdjust="spacing" textLength="69" x="107" y="86.4941">Web Client</text><rect fill="#E2E2F0" height="31.6094" rx="2.5" ry="2.5" style="stroke:#181818;stroke-width:0.5;" width="83" x="100" y="458.4375"/><text fill="#000000" font-family="sans-serif" font-size="14" lengthAdjust="spacing" textLength="69" x="107" y="479.9707">Web Client</text><rect fill="#E2E2F0" height="31.6094" rx="2.5" ry="2.5" style="stroke:#181818;stroke-width:0.5;" width="70" x="291.5" y="64.9609"/><text fill="#000000" font-family="sans-serif" font-size="14" lengthAdjust="spacing" textLength="56" x="298.5" y="86.4941">Web GUI</text><rect fill="#E2E2F0" height="31.6094" rx="2.5" ry="2.5" style="stroke:#181818;stroke-width:0.5;" width="70" x="291.5" y="458.4375"/><text fill="#000000" font-family="sans-serif" font-size="14" lengthAdjust="spacing" textLength="56" x="298.5" y="479.9707">Web GUI</text><rect fill="#E2E2F0" height="31.6094" rx="2.5" ry="2.5" style="stroke:#181818;stroke-width:0.5;" width="123" x="371.5" y="64.9609"/><text fill="#000000" font-family="sans-serif" font-size="14" lengthAdjust="spacing" textLength="109" x="378.5" y="86.4941">Accounts Service</text><rect fill="#E2E2F0" height="31.6094" rx="2.5" ry="2.5" style="stroke:#181818;stroke-width:0.5;" width="123" x="371.5" y="458.4375"/><text fill="#000000" font-family="sans-serif" font-size="14" lengthAdjust="spacing" textLength="109" x="378.5" y="479.9707">Accounts Service</text><rect fill="#E2E2F0" height="31.6094" rx="2.5" ry="2.5" style="stroke:#181818;stroke-width:0.5;" width="115" x="504.5" y="64.9609"/><text fill="#000000" font-family="sans-serif" font-size="14" lengthAdjust="spacing" textLength="101" x="511.5" y="86.4941">Position Service</text><rect fill="#E2E2F0" height="31.6094" rx="2.5" ry="2.5" style="stroke:#181818;stroke-width:0.5;" width="115" x="504.5" y="458.4375"/><text fill="#000000" font-family="sans-serif" font-size="14" lengthAdjust="spacing" textLength="101" x="511.5" y="479.9707">Position Service</text><polygon fill="#181818" points="129.5,125.9219,139.5,129.9219,129.5,133.9219,133.5,129.9219" style="stroke:#181818;stroke-width:1.0;"/><line style="stroke:#181818;stroke-width:1.0;" x1="37.5" x2="135.5" y1="129.9219" y2="129.9219"/><text fill="#000000" font-family="sans-serif" font-size="13" lengthAdjust="spacing" textLength="80" x="44.5" y="125.0654">View Account</text><path d="M90,144.9219 L222,144.9219 L222,153.2734 L212,163.2734 L90,163.2734 L90,144.9219 " fill="#EEEEEE" style="stroke:#000000;stroke-width:1.5;"/><rect fill="none" height="297.5156" style="stroke:#000000;stroke-width:1.5;" width="549.5" x="90" y="144.9219"/><text fill="#000000" font-family="sans-serif" font-size="13" font-weight="bold" lengthAdjust="spacing" textLength="87" x="105" y="159.417">View Account</text><polygon fill="#181818" points="314.5,181.625,324.5,185.625,314.5,189.625,318.5,185.625" style="stroke:#181818;stroke-width:1.0;"/><line style="stroke:#181818;stroke-width:1.0;" x1="141.5" x2="320.5" y1="185.625" y2="185.625"/><text fill="#000000" font-family="sans-serif" font-size="13" lengthAdjust="spacing" textLength="80" x="148.5" y="180.7686">Load Account</text><path d="M281.5,200.625 L413.5,200.625 L413.5,208.9766 L403.5,218.9766 L281.5,218.9766 L281.5,200.625 " fill="#EEEEEE" style="stroke:#000000;stroke-width:1.5;"/><rect fill="none" height="48.7031" style="stroke:#000000;stroke-width:1.5;" width="223" x="281.5" y="200.625"/><text fill="#000000" font-family="sans-serif" font-size="13" font-weight="bold" lengthAdjust="spacing" textLength="87" x="296.5" y="215.1201">Load Account</text><polygon fill="#181818" points="421,237.3281,431,241.3281,421,245.3281,425,241.3281" style="stroke:#181818;stroke-width:1.0;"/><line style="stroke:#181818;stroke-width:1.0;" x1="326.5" x2="427" y1="241.3281" y2="241.3281"/><text fill="#000000" font-family="sans-serif" font-size="13" lengthAdjust="spacing" textLength="80" x="333.5" y="236.4717">Get Accounts</text><polygon fill="#181818" points="314.5,274.6797,324.5,278.6797,314.5,282.6797,318.5,278.6797" style="stroke:#181818;stroke-width:1.0;"/><line style="stroke:#181818;stroke-width:1.0;" x1="141.5" x2="320.5" y1="278.6797" y2="278.6797"/><text fill="#000000" font-family="sans-serif" font-size="13" lengthAdjust="spacing" textLength="146" x="148.5" y="273.8232">Load Trades For Account</text><path d="M281.5,293.6797 L485.5,293.6797 L485.5,302.0313 L475.5,312.0313 L281.5,312.0313 L281.5,293.6797 " fill="#EEEEEE" style="stroke:#000000;stroke-width:1.5;"/><rect fill="none" height="48.7031" style="stroke:#000000;stroke-width:1.5;" width="348" x="281.5" y="293.6797"/><text fill="#000000" font-family="sans-serif" font-size="13" font-weight="bold" lengthAdjust="spacing" textLength="159" x="296.5" y="308.1748">Load Trades For Account</text><polygon fill="#181818" points="550,330.3828,560,334.3828,550,338.3828,554,334.3828" style="stroke:#181818;stroke-width:1.0;"/><line style="stroke:#181818;stroke-width:1.0;" x1="326.5" x2="556" y1="334.3828" y2="334.3828"/><text fill="#000000" font-family="sans-serif" font-size="13" lengthAdjust="spacing" textLength="139" x="333.5" y="329.5264">Get Trades For Account</text><polygon fill="#181818" points="314.5,367.7344,324.5,371.7344,314.5,375.7344,318.5,371.7344" style="stroke:#181818;stroke-width:1.0;"/><line style="stroke:#181818;stroke-width:1.0;" x1="141.5" x2="320.5" y1="371.7344" y2="371.7344"/><text fill="#000000" font-family="sans-serif" font-size="13" lengthAdjust="spacing" textLength="161" x="148.5" y="366.8779">Load Positions For Account</text><path d="M281.5,386.7344 L499.5,386.7344 L499.5,395.0859 L489.5,405.0859 L281.5,405.0859 L281.5,386.7344 " fill="#EEEEEE" style="stroke:#000000;stroke-width:1.5;"/><rect fill="none" height="48.7031" style="stroke:#000000;stroke-width:1.5;" width="348" x="281.5" y="386.7344"/><text fill="#000000" font-family="sans-serif" font-size="13" font-weight="bold" lengthAdjust="spacing" textLength="173" x="296.5" y="401.2295">Load Positions For Account</text><polygon fill="#181818" points="550,423.4375,560,427.4375,550,431.4375,554,427.4375" style="stroke:#181818;stroke-width:1.0;"/><line style="stroke:#181818;stroke-width:1.0;" x1="326.5" x2="556" y1="427.4375" y2="427.4375"/><text fill="#000000" font-family="sans-serif" font-size="13" lengthAdjust="spacing" textLength="154" x="333.5" y="422.5811">Get Positions For Account</text><!--SRC=[pP9HQuCm4CVVyoaEzroVzhI7mf2s5FOmi5ltckfj2wI9Is9rttwdDHjg1aDXhI1ubxl__VnVd70IOMTuZkPbLVDZGU729-XhZmT8f43bA7WMMC5zbkco3LFyA55bJKEYbUD2eG699vIC5TmuaOc2KsMqgXqQnMK4t49okrKKhgMkubI_keeRJ3-jmwEDVU4vPkoWQuWwc0Xkzk_28GDwUl8_ZEs0_j-CPdJ7yJUoZKdWt1_MtZnjfmjJyrYryz2IXUOaCfmexsKwbV6SHss54rhDdEDb_1nKET1g66D_NoOibdCs0tUzsyVUZ2wBVcgE-bGusYwHFMYU3yXwgSdIax06juBuDkWyYssMTschsW8BQsr2hWLE_zV0mNNl30nWNO6LdlLNDyC5rs1ecApnj7dP5m00]--></g></svg>