<?xml version="1.0" encoding="us-ascii" standalone="no"?><svg xmlns="http://www.w3.org/2000/svg" xmlns:xlink="http://www.w3.org/1999/xlink" contentStyleType="text/css" height="258.75px" preserveAspectRatio="none" style="width:314px;height:258px;background:#FFFFFF;" version="1.1" viewBox="0 0 314 258" width="314.375px" zoomAndPan="magnify"><defs/><g><text fill="#000000" font-family="sans-serif" font-size="8.75" font-weight="bold" lengthAdjust="spacing" textLength="296.875" x="6.25" y="18.4583">Catalog Api - Api - Catalog Api - Get Items By Ids - COMPONENT level</text><rect fill="#FFFFFF" height="227.5195" style="stroke:#181818;stroke-width:0.3125;" width="59.375" x="92.1875" y="27.8809"/><text fill="#000000" font-family="sans-serif" font-size="8.125" font-weight="bold" lengthAdjust="spacing" textLength="13.125" x="115.3125" y="36.3153">Api</text><rect fill="#FFFFFF" height="227.5195" style="stroke:#181818;stroke-width:0.3125;" width="76.875" x="200.9375" y="27.8809"/><text fill="#000000" font-family="sans-serif" font-size="8.125" font-weight="bold" lengthAdjust="spacing" textLength="52.5" x="213.125" y="36.3153">Infrastructure</text><rect fill="none" height="131.9434" style="stroke:#000000;stroke-width:0.9375;" width="199.375" x="82.1875" y="90.5762"/><rect fill="none" height="38.5645" style="stroke:#000000;stroke-width:0.9375;" width="126.25" x="88.4375" y="152.4854"/><line style="stroke:#181818;stroke-width:0.3125;stroke-dasharray:5.0,5.0;" x1="45.3125" x2="45.3125" y1="60.9814" y2="233.1445"/><line style="stroke:#181818;stroke-width:0.3125;stroke-dasharray:5.0,5.0;" x1="121.5625" x2="121.5625" y1="60.9814" y2="233.1445"/><line style="stroke:#181818;stroke-width:0.3125;stroke-dasharray:5.0,5.0;" x1="239.0625" x2="239.0625" y1="60.9814" y2="233.1445"/><rect fill="#E2E2F0" height="19.7559" rx="1.5625" ry="1.5625" style="stroke:#181818;stroke-width:0.3125;" width="40.625" x="25.3125" y="40.6006"/><text fill="#000000" font-family="sans-serif" font-size="8.75" lengthAdjust="spacing" textLength="31.875" x="29.6875" y="54.0588">External</text><rect fill="#E2E2F0" height="19.7559" rx="1.5625" ry="1.5625" style="stroke:#181818;stroke-width:0.3125;" width="40.625" x="25.3125" y="232.5195"/><text fill="#000000" font-family="sans-serif" font-size="8.75" lengthAdjust="spacing" textLength="31.875" x="29.6875" y="245.9778">External</text><rect fill="#E2E2F0" height="19.7559" rx="1.5625" ry="1.5625" style="stroke:#181818;stroke-width:0.3125;" width="54.375" x="94.6875" y="40.6006"/><text fill="#000000" font-family="sans-serif" font-size="8.75" lengthAdjust="spacing" textLength="45.625" x="99.0625" y="54.0588">Catalog Api</text><rect fill="#E2E2F0" height="19.7559" rx="1.5625" ry="1.5625" style="stroke:#181818;stroke-width:0.3125;" width="54.375" x="94.6875" y="232.5195"/><text fill="#000000" font-family="sans-serif" font-size="8.75" lengthAdjust="spacing" textLength="45.625" x="99.0625" y="245.9778">Catalog Api</text><rect fill="#E2E2F0" height="19.7559" rx="1.5625" ry="1.5625" style="stroke:#181818;stroke-width:0.3125;" width="71.875" x="203.4375" y="40.6006"/><text fill="#000000" font-family="sans-serif" font-size="8.75" lengthAdjust="spacing" textLength="63.125" x="207.8125" y="54.0588">Catalog Context</text><rect fill="#E2E2F0" height="19.7559" rx="1.5625" ry="1.5625" style="stroke:#181818;stroke-width:0.3125;" width="71.875" x="203.4375" y="232.5195"/><text fill="#000000" font-family="sans-serif" font-size="8.75" lengthAdjust="spacing" textLength="63.125" x="207.8125" y="245.9778">Catalog Context</text><polygon fill="#181818" points="114.375,78.7012,120.625,81.2012,114.375,83.7012,116.875,81.2012" style="stroke:#181818;stroke-width:0.625;"/><line style="stroke:#181818;stroke-width:0.625;" x1="45.625" x2="118.125" y1="81.2012" y2="81.2012"/><text fill="#000000" font-family="sans-serif" font-size="8.125" lengthAdjust="spacing" textLength="61.25" x="50" y="78.1659">Get Items By Ids</text><path d="M82.1875,90.5762 L174.0625,90.5762 L174.0625,95.7959 L167.8125,102.0459 L82.1875,102.0459 L82.1875,90.5762 " fill="#EEEEEE" style="stroke:#000000;stroke-width:0.9375;"/><rect fill="none" height="131.9434" style="stroke:#000000;stroke-width:0.9375;" width="199.375" x="82.1875" y="90.5762"/><text fill="#000000" font-family="sans-serif" font-size="8.125" font-weight="bold" lengthAdjust="spacing" textLength="63.75" x="91.5625" y="99.6356">Get Items By Ids</text><polygon fill="#181818" points="231.875,113.5156,238.125,116.0156,231.875,118.5156,234.375,116.0156" style="stroke:#181818;stroke-width:0.625;"/><line style="stroke:#181818;stroke-width:0.625;" x1="121.875" x2="235.625" y1="116.0156" y2="116.0156"/><text fill="#000000" font-family="sans-serif" font-size="8.125" lengthAdjust="spacing" textLength="102.5" x="126.25" y="112.9803">Catalog Items To List Async</text><line style="stroke:#181818;stroke-width:0.625;" x1="121.875" x2="148.125" y1="134.9854" y2="134.9854"/><line style="stroke:#181818;stroke-width:0.625;" x1="148.125" x2="148.125" y1="134.9854" y2="143.1104"/><line style="stroke:#181818;stroke-width:0.625;" x1="122.5" x2="148.125" y1="143.1104" y2="143.1104"/><polygon fill="#181818" points="128.75,140.6104,122.5,143.1104,128.75,145.6104,126.25,143.1104" style="stroke:#181818;stroke-width:0.625;"/><text fill="#000000" font-family="sans-serif" font-size="8.125" lengthAdjust="spacing" textLength="85" x="126.25" y="131.9501">Change Uri Placeholder</text><path d="M88.4375,152.4854 L211.5625,152.4854 L211.5625,157.7051 L205.3125,163.9551 L88.4375,163.9551 L88.4375,152.4854 " fill="#EEEEEE" style="stroke:#000000;stroke-width:0.9375;"/><rect fill="none" height="38.5645" style="stroke:#000000;stroke-width:0.9375;" width="126.25" x="88.4375" y="152.4854"/><text fill="#000000" font-family="sans-serif" font-size="8.125" font-weight="bold" lengthAdjust="spacing" textLength="95" x="97.8125" y="161.5448">Change Uri Placeholder</text><line style="stroke:#181818;stroke-width:0.625;" x1="121.875" x2="148.125" y1="177.9248" y2="177.9248"/><line style="stroke:#181818;stroke-width:0.625;" x1="148.125" x2="148.125" y1="177.9248" y2="186.0498"/><line style="stroke:#181818;stroke-width:0.625;" x1="122.5" x2="148.125" y1="186.0498" y2="186.0498"/><polygon fill="#181818" points="128.75,183.5498,122.5,186.0498,128.75,188.5498,126.25,186.0498" style="stroke:#181818;stroke-width:0.625;"/><text fill="#000000" font-family="sans-serif" font-size="8.125" lengthAdjust="spacing" textLength="48.75" x="126.25" y="174.8895">Retun (items)</text><line style="stroke:#181818;stroke-width:0.625;" x1="121.875" x2="148.125" y1="209.3945" y2="209.3945"/><line style="stroke:#181818;stroke-width:0.625;" x1="148.125" x2="148.125" y1="209.3945" y2="217.5195"/><line style="stroke:#181818;stroke-width:0.625;" x1="122.5" x2="148.125" y1="217.5195" y2="217.5195"/><polygon fill="#181818" points="128.75,215.0195,122.5,217.5195,128.75,220.0195,126.25,217.5195" style="stroke:#181818;stroke-width:0.625;"/><text fill="#000000" font-family="sans-serif" font-size="8.125" lengthAdjust="spacing" textLength="91.25" x="126.25" y="206.3593">Retun (TypedResults.Ok)</text><!--SRC=[rLDDJm8n4BttLuphHGziF1WF7aoGe25H883nFEuEqD1jctPMs7zlrrsK5JyuG28zD9tflBxtEks9TJZB41GM9cVm6J5g57uXjKM76QHMmjM542nP4NIGKPaPj4EsLS_Dt3qnz9Wo3xS5z59V5WmUXuD-jpy1HQ-aX0WdiqoaHSqGTLTCJgEA03rqBdiwX7VABEEncV8I7OqBNvuNhmkhM8WNiu9eWpo2q-UvP18GHhNxDTiWRa03TsfO4ySqdXiRjrrIeXBE7MqfgP4167UCPfIQd8-hCBD6a-RD8a4wXQ17R2ZhwQb3pov_P_XRPCb3AzwBq2RtDvfhia_T7mknUuEWTNEuAuNhhOScPixaTZjzE0rxCBXhAuBVzKkep4qCF4ZFqFQ5Jlwtnz-Qs9cZdX4yEGb3XGdDZKh9rQtyOVDepOw8SmrdieIVbt_gwArC2alfY7okGi5WKPaIRm00]--></g></svg>