<?xml version="1.0" encoding="us-ascii" standalone="no"?><svg xmlns="http://www.w3.org/2000/svg" xmlns:xlink="http://www.w3.org/1999/xlink" contentStyleType="text/css" height="414px" preserveAspectRatio="none" style="width:503px;height:414px;background:#FFFFFF;" version="1.1" viewBox="0 0 503 414" width="503px" zoomAndPan="magnify"><defs/><g><text fill="#000000" font-family="sans-serif" font-size="14" font-weight="bold" lengthAdjust="spacing" textLength="475" x="10" y="29.5332">Catalog Api - Api - Catalog Api - Get Items By Ids - COMPONENT level</text><rect fill="#FFFFFF" height="364.0313" style="stroke:#181818;stroke-width:0.5;" width="95" x="147.5" y="44.6094"/><text fill="#000000" font-family="sans-serif" font-size="13" font-weight="bold" lengthAdjust="spacing" textLength="21" x="184.5" y="58.1045">Api</text><rect fill="#FFFFFF" height="364.0313" style="stroke:#181818;stroke-width:0.5;" width="123" x="321.5" y="44.6094"/><text fill="#000000" font-family="sans-serif" font-size="13" font-weight="bold" lengthAdjust="spacing" textLength="84" x="341" y="58.1045">Infrastructure</text><rect fill="none" height="211.1094" style="stroke:#000000;stroke-width:1.5;" width="319" x="131.5" y="144.9219"/><rect fill="none" height="61.7031" style="stroke:#000000;stroke-width:1.5;" width="202" x="141.5" y="243.9766"/><line style="stroke:#181818;stroke-width:0.5;stroke-dasharray:5.0,5.0;" x1="72.5" x2="72.5" y1="97.5703" y2="373.0313"/><line style="stroke:#181818;stroke-width:0.5;stroke-dasharray:5.0,5.0;" x1="194.5" x2="194.5" y1="97.5703" y2="373.0313"/><line style="stroke:#181818;stroke-width:0.5;stroke-dasharray:5.0,5.0;" x1="382.5" x2="382.5" y1="97.5703" y2="373.0313"/><rect fill="#E2E2F0" height="31.6094" rx="2.5" ry="2.5" style="stroke:#181818;stroke-width:0.5;" width="65" x="40.5" y="64.9609"/><text fill="#000000" font-family="sans-serif" font-size="14" lengthAdjust="spacing" textLength="51" x="47.5" y="86.4941">External</text><rect fill="#E2E2F0" height="31.6094" rx="2.5" ry="2.5" style="stroke:#181818;stroke-width:0.5;" width="65" x="40.5" y="372.0313"/><text fill="#000000" font-family="sans-serif" font-size="14" lengthAdjust="spacing" textLength="51" x="47.5" y="393.5645">External</text><rect fill="#E2E2F0" height="31.6094" rx="2.5" ry="2.5" style="stroke:#181818;stroke-width:0.5;" width="87" x="151.5" y="64.9609"/><text fill="#000000" font-family="sans-serif" font-size="14" lengthAdjust="spacing" textLength="73" x="158.5" y="86.4941">Catalog Api</text><rect fill="#E2E2F0" height="31.6094" rx="2.5" ry="2.5" style="stroke:#181818;stroke-width:0.5;" width="87" x="151.5" y="372.0313"/><text fill="#000000" font-family="sans-serif" font-size="14" lengthAdjust="spacing" textLength="73" x="158.5" y="393.5645">Catalog Api</text><rect fill="#E2E2F0" height="31.6094" rx="2.5" ry="2.5" style="stroke:#181818;stroke-width:0.5;" width="115" x="325.5" y="64.9609"/><text fill="#000000" font-family="sans-serif" font-size="14" lengthAdjust="spacing" textLength="101" x="332.5" y="86.4941">Catalog Context</text><rect fill="#E2E2F0" height="31.6094" rx="2.5" ry="2.5" style="stroke:#181818;stroke-width:0.5;" width="115" x="325.5" y="372.0313"/><text fill="#000000" font-family="sans-serif" font-size="14" lengthAdjust="spacing" textLength="101" x="332.5" y="393.5645">Catalog Context</text><polygon fill="#181818" points="183,125.9219,193,129.9219,183,133.9219,187,129.9219" style="stroke:#181818;stroke-width:1.0;"/><line style="stroke:#181818;stroke-width:1.0;" x1="73" x2="189" y1="129.9219" y2="129.9219"/><text fill="#000000" font-family="sans-serif" font-size="13" lengthAdjust="spacing" textLength="98" x="80" y="125.0654">Get Items By Ids</text><path d="M131.5,144.9219 L278.5,144.9219 L278.5,153.2734 L268.5,163.2734 L131.5,163.2734 L131.5,144.9219 " fill="#EEEEEE" style="stroke:#000000;stroke-width:1.5;"/><rect fill="none" height="211.1094" style="stroke:#000000;stroke-width:1.5;" width="319" x="131.5" y="144.9219"/><text fill="#000000" font-family="sans-serif" font-size="13" font-weight="bold" lengthAdjust="spacing" textLength="102" x="146.5" y="159.417">Get Items By Ids</text><polygon fill="#181818" points="371,181.625,381,185.625,371,189.625,375,185.625" style="stroke:#181818;stroke-width:1.0;"/><line style="stroke:#181818;stroke-width:1.0;" x1="195" x2="377" y1="185.625" y2="185.625"/><text fill="#000000" font-family="sans-serif" font-size="13" lengthAdjust="spacing" textLength="164" x="202" y="180.7686">Catalog Items To List Async</text><line style="stroke:#181818;stroke-width:1.0;" x1="195" x2="237" y1="215.9766" y2="215.9766"/><line style="stroke:#181818;stroke-width:1.0;" x1="237" x2="237" y1="215.9766" y2="228.9766"/><line style="stroke:#181818;stroke-width:1.0;" x1="196" x2="237" y1="228.9766" y2="228.9766"/><polygon fill="#181818" points="206,224.9766,196,228.9766,206,232.9766,202,228.9766" style="stroke:#181818;stroke-width:1.0;"/><text fill="#000000" font-family="sans-serif" font-size="13" lengthAdjust="spacing" textLength="136" x="202" y="211.1201">Change Uri Placeholder</text><path d="M141.5,243.9766 L338.5,243.9766 L338.5,252.3281 L328.5,262.3281 L141.5,262.3281 L141.5,243.9766 " fill="#EEEEEE" style="stroke:#000000;stroke-width:1.5;"/><rect fill="none" height="61.7031" style="stroke:#000000;stroke-width:1.5;" width="202" x="141.5" y="243.9766"/><text fill="#000000" font-family="sans-serif" font-size="13" font-weight="bold" lengthAdjust="spacing" textLength="152" x="156.5" y="258.4717">Change Uri Placeholder</text><line style="stroke:#181818;stroke-width:1.0;" x1="195" x2="237" y1="284.6797" y2="284.6797"/><line style="stroke:#181818;stroke-width:1.0;" x1="237" x2="237" y1="284.6797" y2="297.6797"/><line style="stroke:#181818;stroke-width:1.0;" x1="196" x2="237" y1="297.6797" y2="297.6797"/><polygon fill="#181818" points="206,293.6797,196,297.6797,206,301.6797,202,297.6797" style="stroke:#181818;stroke-width:1.0;"/><text fill="#000000" font-family="sans-serif" font-size="13" lengthAdjust="spacing" textLength="78" x="202" y="279.8232">Retun (items)</text><line style="stroke:#181818;stroke-width:1.0;" x1="195" x2="237" y1="335.0313" y2="335.0313"/><line style="stroke:#181818;stroke-width:1.0;" x1="237" x2="237" y1="335.0313" y2="348.0313"/><line style="stroke:#181818;stroke-width:1.0;" x1="196" x2="237" y1="348.0313" y2="348.0313"/><polygon fill="#181818" points="206,344.0313,196,348.0313,206,352.0313,202,348.0313" style="stroke:#181818;stroke-width:1.0;"/><text fill="#000000" font-family="sans-serif" font-size="13" lengthAdjust="spacing" textLength="146" x="202" y="330.1748">Retun (TypedResults.Ok)</text><!--SRC=[rLCzJyCm4DtzAuwmmD1CJ0n89Iee4hHLMyHy9DV4mh4j-qARVqz2KcWe7nseH3rOllCzl_Tyzebrc1K82YjJClY263KAmP8LGOICocGmj186tTpFtH93p5HukAuWJdrJCBcVJiQZyG8KlP0Img9ZcKYBcY4OhPcSHXK0UeWkObs7DygimhbPyWeTpIlVd1Tk2jjOY2UpXc2BF83Jnrmo2QX7k_ivsoFkGMlkrB0c3ccU6niENTAW4YuTxIZfa3KmZ8ncb9gS3zkmi4QJvkqYGJg5Me_OKXRhfKFFhdnZ-5ramqDh_XEXVUulD7Ta7xhV5sB_1i7Wwd1N2fSx3qrapfHsDtqu3NzWSDzMr7utBw4rjp1m9pt3q5Sw-TyUVsfYbAFE21wSXAd2X7AZKd9TAx_PF5gpC-9ImvbiuEVDdpfwAulAKZeZNwgwOFBScXAl]--></g></svg>