<?xml version="1.0" encoding="us-ascii" standalone="no"?><svg xmlns="http://www.w3.org/2000/svg" xmlns:xlink="http://www.w3.org/1999/xlink" contentStyleType="text/css" height="383px" preserveAspectRatio="none" style="width:843px;height:383px;background:#FFFFFF;" version="1.1" viewBox="0 0 843 383" width="843px" zoomAndPan="magnify"><defs/><g><text fill="#000000" font-family="sans-serif" font-size="14" font-weight="bold" lengthAdjust="spacing" textLength="815" x="10" y="29.5332">E Commerce Platform - Generate Demand - Storefront - Storefront Bff - Add Basket Item - Sequence - Container level</text><rect fill="#FFFFFF" height="326.3281" style="stroke:#181818;stroke-width:0.5;" width="143.5" x="440" y="44.6094"/><text fill="#000000" font-family="sans-serif" font-size="13" font-weight="bold" lengthAdjust="spacing" textLength="94" x="464.75" y="58.1045">Basket Service</text><rect fill="none" height="111.4063" style="stroke:#000000;stroke-width:1.5;" width="273.5" x="326" y="175.9219"/><rect fill="none" height="48.7031" style="stroke:#000000;stroke-width:1.5;" width="155.5" x="434" y="231.625"/><line style="stroke:#181818;stroke-width:0.5;stroke-dasharray:5.0,5.0;" x1="263.5" x2="263.5" y1="128.5703" y2="304.3281"/><line style="stroke:#181818;stroke-width:0.5;stroke-dasharray:5.0,5.0;" x1="385" x2="385" y1="128.5703" y2="304.3281"/><line style="stroke:#181818;stroke-width:0.5;stroke-dasharray:5.0,5.0;" x1="461" x2="461" y1="128.5703" y2="304.3281"/><line style="stroke:#181818;stroke-width:0.5;stroke-dasharray:5.0,5.0;" x1="545.5" x2="545.5" y1="128.5703" y2="304.3281"/><rect fill="#E2E2F0" height="31.6094" rx="2.5" ry="2.5" style="stroke:#181818;stroke-width:0.5;" width="65" x="231.5" y="95.9609"/><text fill="#000000" font-family="sans-serif" font-size="14" lengthAdjust="spacing" textLength="51" x="238.5" y="117.4941">External</text><rect fill="#E2E2F0" height="31.6094" rx="2.5" ry="2.5" style="stroke:#181818;stroke-width:0.5;" width="65" x="231.5" y="303.3281"/><text fill="#000000" font-family="sans-serif" font-size="14" lengthAdjust="spacing" textLength="51" x="238.5" y="324.8613">External</text><rect fill="#E2E2F0" height="31.6094" rx="2.5" ry="2.5" style="stroke:#181818;stroke-width:0.5;" width="98" x="336" y="95.9609"/><text fill="#000000" font-family="sans-serif" font-size="14" lengthAdjust="spacing" textLength="84" x="343" y="117.4941">Storefront Bff</text><rect fill="#E2E2F0" height="31.6094" rx="2.5" ry="2.5" style="stroke:#181818;stroke-width:0.5;" width="98" x="336" y="303.3281"/><text fill="#000000" font-family="sans-serif" font-size="14" lengthAdjust="spacing" textLength="84" x="343" y="324.8613">Storefront Bff</text><rect fill="#E2E2F0" height="31.6094" rx="2.5" ry="2.5" style="stroke:#181818;stroke-width:0.5;" width="34" x="444" y="95.9609"/><text fill="#000000" font-family="sans-serif" font-size="14" lengthAdjust="spacing" textLength="20" x="451" y="117.4941">Api</text><rect fill="#E2E2F0" height="31.6094" rx="2.5" ry="2.5" style="stroke:#181818;stroke-width:0.5;" width="34" x="444" y="303.3281"/><text fill="#000000" font-family="sans-serif" font-size="14" lengthAdjust="spacing" textLength="20" x="451" y="324.8613">Api</text><text fill="#000000" font-family="sans-serif" font-size="14" lengthAdjust="spacing" textLength="61" x="512.5" y="125.4941">Database</text><path d="M528,74.9609 C528,64.9609 546,64.9609 546,64.9609 C546,64.9609 564,64.9609 564,74.9609 L564,100.9609 C564,110.9609 546,110.9609 546,110.9609 C546,110.9609 528,110.9609 528,100.9609 L528,74.9609 " fill="#E2E2F0" style="stroke:#181818;stroke-width:1.5;"/><path d="M528,74.9609 C528,84.9609 546,84.9609 546,84.9609 C546,84.9609 564,84.9609 564,74.9609 " fill="none" style="stroke:#181818;stroke-width:1.5;"/><text fill="#000000" font-family="sans-serif" font-size="14" lengthAdjust="spacing" textLength="61" x="512.5" y="317.8613">Database</text><path d="M528,330.9375 C528,320.9375 546,320.9375 546,320.9375 C546,320.9375 564,320.9375 564,330.9375 L564,356.9375 C564,366.9375 546,366.9375 546,366.9375 C546,366.9375 528,366.9375 528,356.9375 L528,330.9375 " fill="#E2E2F0" style="stroke:#181818;stroke-width:1.5;"/><path d="M528,330.9375 C528,340.9375 546,340.9375 546,340.9375 C546,340.9375 564,340.9375 564,330.9375 " fill="none" style="stroke:#181818;stroke-width:1.5;"/><polygon fill="#181818" points="373,156.9219,383,160.9219,373,164.9219,377,160.9219" style="stroke:#181818;stroke-width:1.0;"/><line style="stroke:#181818;stroke-width:1.0;" x1="264" x2="379" y1="160.9219" y2="160.9219"/><text fill="#000000" font-family="sans-serif" font-size="13" lengthAdjust="spacing" textLength="97" x="271" y="156.0654">Add Basket Item</text><path d="M326,175.9219 L474,175.9219 L474,184.2734 L464,194.2734 L326,194.2734 L326,175.9219 " fill="#EEEEEE" style="stroke:#000000;stroke-width:1.5;"/><rect fill="none" height="111.4063" style="stroke:#000000;stroke-width:1.5;" width="273.5" x="326" y="175.9219"/><text fill="#000000" font-family="sans-serif" font-size="13" font-weight="bold" lengthAdjust="spacing" textLength="103" x="341" y="190.417">Add Basket Item</text><polygon fill="#181818" points="449,212.625,459,216.625,449,220.625,453,216.625" style="stroke:#181818;stroke-width:1.0;"/><line style="stroke:#181818;stroke-width:1.0;" x1="385" x2="455" y1="216.625" y2="216.625"/><text fill="#000000" font-family="sans-serif" font-size="13" lengthAdjust="spacing" textLength="52" x="392" y="211.7686">Add Item</text><path d="M434,231.625 L536,231.625 L536,239.9766 L526,249.9766 L434,249.9766 L434,231.625 " fill="#EEEEEE" style="stroke:#000000;stroke-width:1.5;"/><rect fill="none" height="48.7031" style="stroke:#000000;stroke-width:1.5;" width="155.5" x="434" y="231.625"/><text fill="#000000" font-family="sans-serif" font-size="13" font-weight="bold" lengthAdjust="spacing" textLength="57" x="449" y="246.1201">Add Item</text><polygon fill="#181818" points="534,268.3281,544,272.3281,534,276.3281,538,272.3281" style="stroke:#181818;stroke-width:1.0;"/><line style="stroke:#181818;stroke-width:1.0;" x1="461" x2="540" y1="272.3281" y2="272.3281"/><text fill="#000000" font-family="sans-serif" font-size="13" lengthAdjust="spacing" textLength="61" x="468" y="267.4717">Insert Item</text><!--SRC=[jP8zRuGm38Rt_0gBpcJgrA7IVT2AhH93Pn-ODYeaDF5zzD_N1T8Jnu9ETqYHi27FwzSs6su8CjYujYLV4hmroBNpBQJmIfOyCi6MMhILP0fsdchlB4-3TLrBObLLiCRmHGmvqn-XeEyzMQ6c8c0PZG2XeGCrIdNesPIcGxcVP2ScRx5900Di7dChuKlZZhfmDH_HK_4J11bq_768fv1fGJqgYxwYBHrD3Pxq-SvCwln9Q4hjt0cIqLv1_c1AIk3X_TCmAP1dKiggCylq1-1CUqYFClg_Tq4Bk5Uha767WI3PZc_tqOjqHR80qWAbrFBnGFfykmd0q-M2gG_lzjqiUpl59ULVCS3HoOM5PRLV8tSF6t4ln4jk0_cnzx8b_L6_]--></g></svg>