<?xml version="1.0" encoding="us-ascii" standalone="no"?><svg xmlns="http://www.w3.org/2000/svg" xmlns:xlink="http://www.w3.org/1999/xlink" contentStyleType="text/css" height="780px" preserveAspectRatio="none" style="width:699px;height:780px;background:#FFFFFF;" version="1.1" viewBox="0 0 699 780" width="699px" zoomAndPan="magnify"><defs/><g><text fill="#000000" font-family="sans-serif" font-size="14" font-weight="bold" lengthAdjust="spacing" textLength="671" x="10" y="29.5332">Catalog Api - Api - Catalog Api - Get Items By Semantic Relevance - Sequence - Component level</text><rect fill="#FFFFFF" height="729.5469" style="stroke:#181818;stroke-width:0.5;" width="95" x="279" y="44.6094"/><text fill="#000000" font-family="sans-serif" font-size="13" font-weight="bold" lengthAdjust="spacing" textLength="21" x="316" y="58.1045">Api</text><rect fill="#FFFFFF" height="729.5469" style="stroke:#181818;stroke-width:0.5;" width="123" x="453" y="44.6094"/><text fill="#000000" font-family="sans-serif" font-size="13" font-weight="bold" lengthAdjust="spacing" textLength="84" x="472.5" y="58.1045">Infrastructure</text><rect fill="none" height="576.625" style="stroke:#000000;stroke-width:1.5;" width="373" x="243" y="144.9219"/><rect fill="none" height="286.8125" style="stroke:#000000;stroke-width:1.5;" width="339" x="253" y="170.2734"/><rect fill="none" height="211.1094" style="stroke:#000000;stroke-width:1.5;" width="319" x="263" y="238.9766"/><rect fill="none" height="61.7031" style="stroke:#000000;stroke-width:1.5;" width="202" x="273" y="338.0313"/><rect fill="none" height="81.0547" style="stroke:#000000;stroke-width:1.5;" width="333" x="273" y="471.0859"/><rect fill="none" height="61.7031" style="stroke:#000000;stroke-width:1.5;" width="202" x="273" y="609.4922"/><line style="stroke:#181818;stroke-width:0.5;stroke-dasharray:5.0,5.0;" x1="103" x2="103" y1="97.5703" y2="738.5469"/><line style="stroke:#181818;stroke-width:0.5;stroke-dasharray:5.0,5.0;" x1="326" x2="326" y1="97.5703" y2="738.5469"/><line style="stroke:#181818;stroke-width:0.5;stroke-dasharray:5.0,5.0;" x1="514" x2="514" y1="97.5703" y2="738.5469"/><rect fill="#E2E2F0" height="31.6094" rx="2.5" ry="2.5" style="stroke:#181818;stroke-width:0.5;" width="65" x="71" y="64.9609"/><text fill="#000000" font-family="sans-serif" font-size="14" lengthAdjust="spacing" textLength="51" x="78" y="86.4941">External</text><rect fill="#E2E2F0" height="31.6094" rx="2.5" ry="2.5" style="stroke:#181818;stroke-width:0.5;" width="65" x="71" y="737.5469"/><text fill="#000000" font-family="sans-serif" font-size="14" lengthAdjust="spacing" textLength="51" x="78" y="759.0801">External</text><rect fill="#E2E2F0" height="31.6094" rx="2.5" ry="2.5" style="stroke:#181818;stroke-width:0.5;" width="87" x="283" y="64.9609"/><text fill="#000000" font-family="sans-serif" font-size="14" lengthAdjust="spacing" textLength="73" x="290" y="86.4941">Catalog Api</text><rect fill="#E2E2F0" height="31.6094" rx="2.5" ry="2.5" style="stroke:#181818;stroke-width:0.5;" width="87" x="283" y="737.5469"/><text fill="#000000" font-family="sans-serif" font-size="14" lengthAdjust="spacing" textLength="73" x="290" y="759.0801">Catalog Api</text><rect fill="#E2E2F0" height="31.6094" rx="2.5" ry="2.5" style="stroke:#181818;stroke-width:0.5;" width="115" x="457" y="64.9609"/><text fill="#000000" font-family="sans-serif" font-size="14" lengthAdjust="spacing" textLength="101" x="464" y="86.4941">Catalog Context</text><rect fill="#E2E2F0" height="31.6094" rx="2.5" ry="2.5" style="stroke:#181818;stroke-width:0.5;" width="115" x="457" y="737.5469"/><text fill="#000000" font-family="sans-serif" font-size="14" lengthAdjust="spacing" textLength="101" x="464" y="759.0801">Catalog Context</text><polygon fill="#181818" points="314.5,125.9219,324.5,129.9219,314.5,133.9219,318.5,129.9219" style="stroke:#181818;stroke-width:1.0;"/><line style="stroke:#181818;stroke-width:1.0;" x1="103.5" x2="320.5" y1="129.9219" y2="129.9219"/><text fill="#000000" font-family="sans-serif" font-size="13" lengthAdjust="spacing" textLength="199" x="110.5" y="125.0654">Get Items By Semantic Relevance</text><path d="M243,144.9219 L503,144.9219 L503,153.2734 L493,163.2734 L243,163.2734 L243,144.9219 " fill="#EEEEEE" style="stroke:#000000;stroke-width:1.5;"/><rect fill="none" height="576.625" style="stroke:#000000;stroke-width:1.5;" width="373" x="243" y="144.9219"/><text fill="#000000" font-family="sans-serif" font-size="13" font-weight="bold" lengthAdjust="spacing" textLength="215" x="258" y="159.417">Get Items By Semantic Relevance</text><path d="M253,170.2734 L314,170.2734 L314,178.625 L304,188.625 L253,188.625 L253,170.2734 " fill="#EEEEEE" style="stroke:#000000;stroke-width:1.5;"/><rect fill="none" height="286.8125" style="stroke:#000000;stroke-width:1.5;" width="339" x="253" y="170.2734"/><text fill="#000000" font-family="sans-serif" font-size="13" font-weight="bold" lengthAdjust="spacing" textLength="16" x="268" y="184.7686">alt</text><text fill="#000000" font-family="sans-serif" font-size="11" font-weight="bold" lengthAdjust="spacing" textLength="170" x="329" y="183.6924">[!services.CatalogAI.IsEnabled]</text><line style="stroke:#181818;stroke-width:1.0;" x1="326.5" x2="368.5" y1="210.9766" y2="210.9766"/><line style="stroke:#181818;stroke-width:1.0;" x1="368.5" x2="368.5" y1="210.9766" y2="223.9766"/><line style="stroke:#181818;stroke-width:1.0;" x1="327.5" x2="368.5" y1="223.9766" y2="223.9766"/><polygon fill="#181818" points="337.5,219.9766,327.5,223.9766,337.5,227.9766,333.5,223.9766" style="stroke:#181818;stroke-width:1.0;"/><text fill="#000000" font-family="sans-serif" font-size="13" lengthAdjust="spacing" textLength="115" x="333.5" y="206.1201">Get Items By Name</text><path d="M263,238.9766 L429,238.9766 L429,247.3281 L419,257.3281 L263,257.3281 L263,238.9766 " fill="#EEEEEE" style="stroke:#000000;stroke-width:1.5;"/><rect fill="none" height="211.1094" style="stroke:#000000;stroke-width:1.5;" width="319" x="263" y="238.9766"/><text fill="#000000" font-family="sans-serif" font-size="13" font-weight="bold" lengthAdjust="spacing" textLength="121" x="278" y="253.4717">Get Items By Name</text><polygon fill="#181818" points="502.5,275.6797,512.5,279.6797,502.5,283.6797,506.5,279.6797" style="stroke:#181818;stroke-width:1.0;"/><line style="stroke:#181818;stroke-width:1.0;" x1="326.5" x2="508.5" y1="279.6797" y2="279.6797"/><text fill="#000000" font-family="sans-serif" font-size="13" lengthAdjust="spacing" textLength="164" x="333.5" y="274.8232">Catalog Items To List Async</text><line style="stroke:#181818;stroke-width:1.0;" x1="326.5" x2="368.5" y1="310.0313" y2="310.0313"/><line style="stroke:#181818;stroke-width:1.0;" x1="368.5" x2="368.5" y1="310.0313" y2="323.0313"/><line style="stroke:#181818;stroke-width:1.0;" x1="327.5" x2="368.5" y1="323.0313" y2="323.0313"/><polygon fill="#181818" points="337.5,319.0313,327.5,323.0313,337.5,327.0313,333.5,323.0313" style="stroke:#181818;stroke-width:1.0;"/><text fill="#000000" font-family="sans-serif" font-size="13" lengthAdjust="spacing" textLength="136" x="333.5" y="305.1748">Change Uri Placeholder</text><path d="M273,338.0313 L470,338.0313 L470,346.3828 L460,356.3828 L273,356.3828 L273,338.0313 " fill="#EEEEEE" style="stroke:#000000;stroke-width:1.5;"/><rect fill="none" height="61.7031" style="stroke:#000000;stroke-width:1.5;" width="202" x="273" y="338.0313"/><text fill="#000000" font-family="sans-serif" font-size="13" font-weight="bold" lengthAdjust="spacing" textLength="152" x="288" y="352.5264">Change Uri Placeholder</text><line style="stroke:#181818;stroke-width:1.0;" x1="326.5" x2="368.5" y1="378.7344" y2="378.7344"/><line style="stroke:#181818;stroke-width:1.0;" x1="368.5" x2="368.5" y1="378.7344" y2="391.7344"/><line style="stroke:#181818;stroke-width:1.0;" x1="327.5" x2="368.5" y1="391.7344" y2="391.7344"/><polygon fill="#181818" points="337.5,387.7344,327.5,391.7344,337.5,395.7344,333.5,391.7344" style="stroke:#181818;stroke-width:1.0;"/><text fill="#000000" font-family="sans-serif" font-size="13" lengthAdjust="spacing" textLength="78" x="333.5" y="373.8779">Retun (items)</text><line style="stroke:#181818;stroke-width:1.0;" x1="326.5" x2="368.5" y1="429.0859" y2="429.0859"/><line style="stroke:#181818;stroke-width:1.0;" x1="368.5" x2="368.5" y1="429.0859" y2="442.0859"/><line style="stroke:#181818;stroke-width:1.0;" x1="327.5" x2="368.5" y1="442.0859" y2="442.0859"/><polygon fill="#181818" points="337.5,438.0859,327.5,442.0859,337.5,446.0859,333.5,442.0859" style="stroke:#181818;stroke-width:1.0;"/><text fill="#000000" font-family="sans-serif" font-size="13" lengthAdjust="spacing" textLength="146" x="333.5" y="424.2295">Retun (TypedResults.Ok)</text><path d="M273,471.0859 L334,471.0859 L334,479.4375 L324,489.4375 L273,489.4375 L273,471.0859 " fill="#EEEEEE" style="stroke:#000000;stroke-width:1.5;"/><rect fill="none" height="81.0547" style="stroke:#000000;stroke-width:1.5;" width="333" x="273" y="471.0859"/><text fill="#000000" font-family="sans-serif" font-size="13" font-weight="bold" lengthAdjust="spacing" textLength="16" x="288" y="485.5811">alt</text><text fill="#000000" font-family="sans-serif" font-size="11" font-weight="bold" lengthAdjust="spacing" textLength="252" x="349" y="484.5049">[services.Logger.IsEnabled(LogLevel.Debug)]</text><polygon fill="#181818" points="502.5,507.7891,512.5,511.7891,502.5,515.7891,506.5,511.7891" style="stroke:#181818;stroke-width:1.0;"/><line style="stroke:#181818;stroke-width:1.0;" x1="326.5" x2="508.5" y1="511.7891" y2="511.7891"/><text fill="#000000" font-family="sans-serif" font-size="13" lengthAdjust="spacing" textLength="164" x="333.5" y="506.9326">Catalog Items To List Async</text><line style="stroke:#000000;stroke-width:1.0;stroke-dasharray:2.0,2.0;" x1="273" x2="606" y1="520.7891" y2="520.7891"/><polygon fill="#181818" points="502.5,540.1406,512.5,544.1406,502.5,548.1406,506.5,544.1406" style="stroke:#181818;stroke-width:1.0;"/><line style="stroke:#181818;stroke-width:1.0;" x1="326.5" x2="508.5" y1="544.1406" y2="544.1406"/><text fill="#000000" font-family="sans-serif" font-size="13" lengthAdjust="spacing" textLength="164" x="333.5" y="539.2842">Catalog Items To List Async</text><line style="stroke:#181818;stroke-width:1.0;" x1="326.5" x2="368.5" y1="581.4922" y2="581.4922"/><line style="stroke:#181818;stroke-width:1.0;" x1="368.5" x2="368.5" y1="581.4922" y2="594.4922"/><line style="stroke:#181818;stroke-width:1.0;" x1="327.5" x2="368.5" y1="594.4922" y2="594.4922"/><polygon fill="#181818" points="337.5,590.4922,327.5,594.4922,337.5,598.4922,333.5,594.4922" style="stroke:#181818;stroke-width:1.0;"/><text fill="#000000" font-family="sans-serif" font-size="13" lengthAdjust="spacing" textLength="136" x="333.5" y="576.6357">Change Uri Placeholder</text><path d="M273,609.4922 L470,609.4922 L470,617.8438 L460,627.8438 L273,627.8438 L273,609.4922 " fill="#EEEEEE" style="stroke:#000000;stroke-width:1.5;"/><rect fill="none" height="61.7031" style="stroke:#000000;stroke-width:1.5;" width="202" x="273" y="609.4922"/><text fill="#000000" font-family="sans-serif" font-size="13" font-weight="bold" lengthAdjust="spacing" textLength="152" x="288" y="623.9873">Change Uri Placeholder</text><line style="stroke:#181818;stroke-width:1.0;" x1="326.5" x2="368.5" y1="650.1953" y2="650.1953"/><line style="stroke:#181818;stroke-width:1.0;" x1="368.5" x2="368.5" y1="650.1953" y2="663.1953"/><line style="stroke:#181818;stroke-width:1.0;" x1="327.5" x2="368.5" y1="663.1953" y2="663.1953"/><polygon fill="#181818" points="337.5,659.1953,327.5,663.1953,337.5,667.1953,333.5,663.1953" style="stroke:#181818;stroke-width:1.0;"/><text fill="#000000" font-family="sans-serif" font-size="13" lengthAdjust="spacing" textLength="78" x="333.5" y="645.3389">Retun (items)</text><line style="stroke:#181818;stroke-width:1.0;" x1="326.5" x2="368.5" y1="700.5469" y2="700.5469"/><line style="stroke:#181818;stroke-width:1.0;" x1="368.5" x2="368.5" y1="700.5469" y2="713.5469"/><line style="stroke:#181818;stroke-width:1.0;" x1="327.5" x2="368.5" y1="713.5469" y2="713.5469"/><polygon fill="#181818" points="337.5,709.5469,327.5,713.5469,337.5,717.5469,333.5,713.5469" style="stroke:#181818;stroke-width:1.0;"/><text fill="#000000" font-family="sans-serif" font-size="13" lengthAdjust="spacing" textLength="146" x="333.5" y="695.6904">Retun (TypedResults.Ok)</text><!--SRC=[xLN1Jjmm4BtxAuRj1Gxar5CFbROfHP5MRRK1zJoRFB8MZftQ4zZyFGu9x2vGBGT0tT98YJpZ6RttPkp9GUEvgfaCTwuL2ZM4BIibMWmePM7ZAfescex7xxRl54APe0xqfQCSDLlH1SrXSCMsG8p8yRl5i4nTtJWBAnItOPHgsCTmtSGicfoi1DwocH07IZzcDfhVZBjESdSXr-oHTw57Iku21rkfXLlHP8FMX3xyMcg1elWCkm-zMy1RgH6xT68X2VAbQvAfB_giGbgFHqp6p9YOfCuAQmiVai4SfMu6ATYI8X-rmIop5vw3-FOMOJV97WShUH6YszXFS1x1rhpl5-hv3QBZpwzNKlgqwmYgohkssHd5HkWWm5_f0ck0BCd2YUM5GQbUJyDR5kWxrq-MvDR_LqjyxccDYkykow3kpD5C1w5fw6onlsrCbsmhqBdNzDDmWQKp9VpOopzixgtOEQIrTAZxzAD-xEozbBEkGJb7Q4qC-74vYEhVVlBS3vwPgohuzTGvZ8vP_xDClcBHLaVlueh21D3xKBhF1_l_GFht1fAw0G00]--></g></svg>