<?xml version="1.0" encoding="us-ascii" standalone="no"?><svg xmlns="http://www.w3.org/2000/svg" xmlns:xlink="http://www.w3.org/1999/xlink" contentStyleType="text/css" height="314px" preserveAspectRatio="none" style="width:1068px;height:314px;background:#FFFFFF;" version="1.1" viewBox="0 0 1068 314" width="1068px" zoomAndPan="magnify"><defs/><g><text fill="#000000" font-family="sans-serif" font-size="14" font-weight="bold" lengthAdjust="spacing" textLength="1040" x="10" y="29.5332">ECommercePlatform - CreateProduct - BuyingAndMerchandising - Buying And Merchandising App - View Product Prices - Sequence - Container level</text><rect fill="#FFFFFF" height="264.3281" style="stroke:#181818;stroke-width:0.5;" width="213.5" x="560.5" y="44.6094"/><text fill="#000000" font-family="sans-serif" font-size="13" font-weight="bold" lengthAdjust="spacing" textLength="97" x="618.75" y="58.1045">Pricing Service</text><rect fill="none" height="111.4063" style="stroke:#000000;stroke-width:1.5;" width="459" x="331" y="144.9219"/><rect fill="none" height="48.7031" style="stroke:#000000;stroke-width:1.5;" width="225.5" x="554.5" y="200.625"/><line style="stroke:#181818;stroke-width:0.5;stroke-dasharray:5.0,5.0;" x1="298" x2="298" y1="97.5703" y2="273.3281"/><line style="stroke:#181818;stroke-width:0.5;stroke-dasharray:5.0,5.0;" x1="446" x2="446" y1="97.5703" y2="273.3281"/><line style="stroke:#181818;stroke-width:0.5;stroke-dasharray:5.0,5.0;" x1="581.5" x2="581.5" y1="97.5703" y2="273.3281"/><line style="stroke:#181818;stroke-width:0.5;stroke-dasharray:5.0,5.0;" x1="732" x2="732" y1="97.5703" y2="273.3281"/><rect fill="#E2E2F0" height="31.6094" rx="2.5" ry="2.5" style="stroke:#181818;stroke-width:0.5;" width="65" x="266" y="64.9609"/><text fill="#000000" font-family="sans-serif" font-size="14" lengthAdjust="spacing" textLength="51" x="273" y="86.4941">External</text><rect fill="#E2E2F0" height="31.6094" rx="2.5" ry="2.5" style="stroke:#181818;stroke-width:0.5;" width="65" x="266" y="272.3281"/><text fill="#000000" font-family="sans-serif" font-size="14" lengthAdjust="spacing" textLength="51" x="273" y="293.8613">External</text><rect fill="#E2E2F0" height="31.6094" rx="2.5" ry="2.5" style="stroke:#181818;stroke-width:0.5;" width="211" x="341" y="64.9609"/><text fill="#000000" font-family="sans-serif" font-size="14" lengthAdjust="spacing" textLength="197" x="348" y="86.4941">Buying And Merchandising App</text><rect fill="#E2E2F0" height="31.6094" rx="2.5" ry="2.5" style="stroke:#181818;stroke-width:0.5;" width="211" x="341" y="272.3281"/><text fill="#000000" font-family="sans-serif" font-size="14" lengthAdjust="spacing" textLength="197" x="348" y="293.8613">Buying And Merchandising App</text><rect fill="#E2E2F0" height="31.6094" rx="2.5" ry="2.5" style="stroke:#181818;stroke-width:0.5;" width="34" x="564.5" y="64.9609"/><text fill="#000000" font-family="sans-serif" font-size="14" lengthAdjust="spacing" textLength="20" x="571.5" y="86.4941">Api</text><rect fill="#E2E2F0" height="31.6094" rx="2.5" ry="2.5" style="stroke:#181818;stroke-width:0.5;" width="34" x="564.5" y="272.3281"/><text fill="#000000" font-family="sans-serif" font-size="14" lengthAdjust="spacing" textLength="20" x="571.5" y="293.8613">Api</text><rect fill="#E2E2F0" height="31.6094" rx="2.5" ry="2.5" style="stroke:#181818;stroke-width:0.5;" width="75" x="695" y="64.9609"/><text fill="#000000" font-family="sans-serif" font-size="14" lengthAdjust="spacing" textLength="61" x="702" y="86.4941">Database</text><rect fill="#E2E2F0" height="31.6094" rx="2.5" ry="2.5" style="stroke:#181818;stroke-width:0.5;" width="75" x="695" y="272.3281"/><text fill="#000000" font-family="sans-serif" font-size="14" lengthAdjust="spacing" textLength="61" x="702" y="293.8613">Database</text><polygon fill="#181818" points="434.5,125.9219,444.5,129.9219,434.5,133.9219,438.5,129.9219" style="stroke:#181818;stroke-width:1.0;"/><line style="stroke:#181818;stroke-width:1.0;" x1="298.5" x2="440.5" y1="129.9219" y2="129.9219"/><text fill="#000000" font-family="sans-serif" font-size="13" lengthAdjust="spacing" textLength="118" x="305.5" y="125.0654">View Product Prices</text><path d="M331,144.9219 L504,144.9219 L504,153.2734 L494,163.2734 L331,163.2734 L331,144.9219 " fill="#EEEEEE" style="stroke:#000000;stroke-width:1.5;"/><rect fill="none" height="111.4063" style="stroke:#000000;stroke-width:1.5;" width="459" x="331" y="144.9219"/><text fill="#000000" font-family="sans-serif" font-size="13" font-weight="bold" lengthAdjust="spacing" textLength="128" x="346" y="159.417">View Product Prices</text><polygon fill="#181818" points="569.5,181.625,579.5,185.625,569.5,189.625,573.5,185.625" style="stroke:#181818;stroke-width:1.0;"/><line style="stroke:#181818;stroke-width:1.0;" x1="446.5" x2="575.5" y1="185.625" y2="185.625"/><text fill="#000000" font-family="sans-serif" font-size="13" lengthAdjust="spacing" textLength="111" x="453.5" y="180.7686">Get Product Prices</text><path d="M554.5,200.625 L717.5,200.625 L717.5,208.9766 L707.5,218.9766 L554.5,218.9766 L554.5,200.625 " fill="#EEEEEE" style="stroke:#000000;stroke-width:1.5;"/><rect fill="none" height="48.7031" style="stroke:#000000;stroke-width:1.5;" width="225.5" x="554.5" y="200.625"/><text fill="#000000" font-family="sans-serif" font-size="13" font-weight="bold" lengthAdjust="spacing" textLength="118" x="569.5" y="215.1201">Get Product Prices</text><polygon fill="#181818" points="720.5,237.3281,730.5,241.3281,720.5,245.3281,724.5,241.3281" style="stroke:#181818;stroke-width:1.0;"/><line style="stroke:#181818;stroke-width:1.0;" x1="581.5" x2="726.5" y1="241.3281" y2="241.3281"/><text fill="#000000" font-family="sans-serif" font-size="13" lengthAdjust="spacing" textLength="127" x="588.5" y="236.4717">Select Product Prices</text><!--SRC=[jL9DQyCm3BtxLuZit9nssc7GTTtOeL08R6SrVMqDZftPIZ_-_TIkAOI4KHW9v20_eVSXYHK7ciz2LI6MM3gMJOWLJMWMmO9b3Ekc5ArVcfFrswbVBxHnntvjazOtW1IXBZIjQuK_BGxKZbb6MoBfQu7l1hx4cIXuOUiHoM4FPqpDKMnfQ_P2sVmeY9vTHfnezlZXjNnpuP0NOIC7ZYXEIL2bl6tyhRj3_f9u6TmB8E_OpuVDzpGCjoc9CQjmfEni_qnR8EurY8mUldPMO4Y_Zk1fRU_ITSbpmPwtgE2b9-XAUENBRr6dN1dwjAyilEA4aRbR6WDTY0PZZBb_ipHv7drTz3HqjcORGrCF8gCBkiFqlsv17Rz3XWqF0EDg6TLiUtpgk813sVEcHtdvpGy0]--></g></svg>