<?xml version="1.0" encoding="us-ascii" standalone="no"?><svg xmlns="http://www.w3.org/2000/svg" xmlns:xlink="http://www.w3.org/1999/xlink" contentStyleType="text/css" height="375px" preserveAspectRatio="none" style="width:692px;height:375px;background:#FFFFFF;" version="1.1" viewBox="0 0 692 375" width="692px" zoomAndPan="magnify"><defs/><g><text fill="#000000" font-family="sans-serif" font-size="14" font-weight="bold" lengthAdjust="spacing" textLength="664" x="10" y="29.5332">Fulfilment Service - Message Handler - Handle Order Status Changed Event - CONTAINER level</text><rect fill="#FFFFFF" height="325.0313" style="stroke:#181818;stroke-width:0.5;" width="250.5" x="226.75" y="44.6094"/><text fill="#000000" font-family="sans-serif" font-size="13" font-weight="bold" lengthAdjust="spacing" textLength="116" x="294" y="58.1045">Fulfilment Service</text><rect fill="#FFFFFF" height="325.0313" style="stroke:#181818;stroke-width:0.5;" width="94" x="485.75" y="44.6094"/><text fill="#000000" font-family="sans-serif" font-size="13" font-weight="bold" lengthAdjust="spacing" textLength="88" x="488.75" y="58.1045">Order Service</text><rect fill="none" height="172.1094" style="stroke:#000000;stroke-width:1.5;" width="442" x="210.75" y="144.9219"/><rect fill="none" height="109.4063" style="stroke:#000000;stroke-width:1.5;" width="422" x="220.75" y="200.625"/><line style="stroke:#181818;stroke-width:0.5;stroke-dasharray:5.0,5.0;" x1="59.25" x2="59.25" y1="97.5703" y2="334.0313"/><line style="stroke:#181818;stroke-width:0.5;stroke-dasharray:5.0,5.0;" x1="292.75" x2="292.75" y1="97.5703" y2="334.0313"/><line style="stroke:#181818;stroke-width:0.5;stroke-dasharray:5.0,5.0;" x1="435.25" x2="435.25" y1="97.5703" y2="334.0313"/><line style="stroke:#181818;stroke-width:0.5;stroke-dasharray:5.0,5.0;" x1="532.75" x2="532.75" y1="97.5703" y2="334.0313"/><line style="stroke:#181818;stroke-width:0.5;stroke-dasharray:5.0,5.0;" x1="608.75" x2="608.75" y1="97.5703" y2="334.0313"/><rect fill="#E2E2F0" height="31.6094" rx="2.5" ry="2.5" style="stroke:#181818;stroke-width:0.5;" width="65" x="27.25" y="64.9609"/><text fill="#000000" font-family="sans-serif" font-size="14" lengthAdjust="spacing" textLength="51" x="34.25" y="86.4941">External</text><rect fill="#E2E2F0" height="31.6094" rx="2.5" ry="2.5" style="stroke:#181818;stroke-width:0.5;" width="65" x="27.25" y="333.0313"/><text fill="#000000" font-family="sans-serif" font-size="14" lengthAdjust="spacing" textLength="51" x="34.25" y="354.5645">External</text><rect fill="#E2E2F0" height="31.6094" rx="2.5" ry="2.5" style="stroke:#181818;stroke-width:0.5;" width="124" x="230.75" y="64.9609"/><text fill="#000000" font-family="sans-serif" font-size="14" lengthAdjust="spacing" textLength="110" x="237.75" y="86.4941">Message Handler</text><rect fill="#E2E2F0" height="31.6094" rx="2.5" ry="2.5" style="stroke:#181818;stroke-width:0.5;" width="124" x="230.75" y="333.0313"/><text fill="#000000" font-family="sans-serif" font-size="14" lengthAdjust="spacing" textLength="110" x="237.75" y="354.5645">Message Handler</text><rect fill="#E2E2F0" height="31.6094" rx="2.5" ry="2.5" style="stroke:#181818;stroke-width:0.5;" width="75" x="398.25" y="64.9609"/><text fill="#000000" font-family="sans-serif" font-size="14" lengthAdjust="spacing" textLength="61" x="405.25" y="86.4941">Database</text><rect fill="#E2E2F0" height="31.6094" rx="2.5" ry="2.5" style="stroke:#181818;stroke-width:0.5;" width="75" x="398.25" y="333.0313"/><text fill="#000000" font-family="sans-serif" font-size="14" lengthAdjust="spacing" textLength="61" x="405.25" y="354.5645">Database</text><rect fill="#E2E2F0" height="31.6094" rx="2.5" ry="2.5" style="stroke:#181818;stroke-width:0.5;" width="82" x="491.75" y="64.9609"/><text fill="#000000" font-family="sans-serif" font-size="14" lengthAdjust="spacing" textLength="68" x="498.75" y="86.4941">Messaging</text><rect fill="#E2E2F0" height="31.6094" rx="2.5" ry="2.5" style="stroke:#181818;stroke-width:0.5;" width="82" x="491.75" y="333.0313"/><text fill="#000000" font-family="sans-serif" font-size="14" lengthAdjust="spacing" textLength="68" x="498.75" y="354.5645">Messaging</text><rect fill="#E2E2F0" height="31.6094" rx="2.5" ry="2.5" style="stroke:#181818;stroke-width:0.5;" width="47" x="585.75" y="64.9609"/><text fill="#000000" font-family="sans-serif" font-size="14" lengthAdjust="spacing" textLength="33" x="592.75" y="86.4941">WMS</text><rect fill="#E2E2F0" height="31.6094" rx="2.5" ry="2.5" style="stroke:#181818;stroke-width:0.5;" width="47" x="585.75" y="333.0313"/><text fill="#000000" font-family="sans-serif" font-size="14" lengthAdjust="spacing" textLength="33" x="592.75" y="354.5645">WMS</text><polygon fill="#181818" points="280.75,125.9219,290.75,129.9219,280.75,133.9219,284.75,129.9219" style="stroke:#181818;stroke-width:1.0;"/><line style="stroke:#181818;stroke-width:1.0;" x1="59.75" x2="286.75" y1="129.9219" y2="129.9219"/><text fill="#000000" font-family="sans-serif" font-size="13" lengthAdjust="spacing" textLength="209" x="66.75" y="125.0654">Handle Order Status Changed Event</text><path d="M210.75,144.9219 L483.75,144.9219 L483.75,153.2734 L473.75,163.2734 L210.75,163.2734 L210.75,144.9219 " fill="#EEEEEE" style="stroke:#000000;stroke-width:1.5;"/><rect fill="none" height="172.1094" style="stroke:#000000;stroke-width:1.5;" width="442" x="210.75" y="144.9219"/><text fill="#000000" font-family="sans-serif" font-size="13" font-weight="bold" lengthAdjust="spacing" textLength="228" x="225.75" y="159.417">Handle Order Status Changed Event</text><polygon fill="#181818" points="520.75,181.625,530.75,185.625,520.75,189.625,524.75,185.625" style="stroke:#181818;stroke-width:1.0;"/><line style="stroke:#181818;stroke-width:1.0;" x1="292.75" x2="526.75" y1="185.625" y2="185.625"/><text fill="#000000" font-family="sans-serif" font-size="13" lengthAdjust="spacing" textLength="214" x="299.75" y="180.7686">Receive Order Status Changed Event</text><path d="M220.75,200.625 L281.75,200.625 L281.75,208.9766 L271.75,218.9766 L220.75,218.9766 L220.75,200.625 " fill="#EEEEEE" style="stroke:#000000;stroke-width:1.5;"/><rect fill="none" height="109.4063" style="stroke:#000000;stroke-width:1.5;" width="422" x="220.75" y="200.625"/><text fill="#000000" font-family="sans-serif" font-size="13" font-weight="bold" lengthAdjust="spacing" textLength="16" x="235.75" y="215.1201">alt</text><text fill="#000000" font-family="sans-serif" font-size="11" font-weight="bold" lengthAdjust="spacing" textLength="201" x="296.75" y="214.0439">[Order Status is 'Pending Shipment']</text><polygon fill="#181818" points="423.75,237.3281,433.75,241.3281,423.75,245.3281,427.75,241.3281" style="stroke:#181818;stroke-width:1.0;"/><line style="stroke:#181818;stroke-width:1.0;" x1="292.75" x2="429.75" y1="241.3281" y2="241.3281"/><text fill="#000000" font-family="sans-serif" font-size="13" lengthAdjust="spacing" textLength="68" x="299.75" y="236.4717">Insert Order</text><polygon fill="#181818" points="597.25,267.6797,607.25,271.6797,597.25,275.6797,601.25,271.6797" style="stroke:#181818;stroke-width:1.0;"/><line style="stroke:#181818;stroke-width:1.0;" x1="292.75" x2="603.25" y1="271.6797" y2="271.6797"/><text fill="#000000" font-family="sans-serif" font-size="13" lengthAdjust="spacing" textLength="62" x="299.75" y="266.8232">Ship Order</text><polygon fill="#181818" points="423.75,298.0313,433.75,302.0313,423.75,306.0313,427.75,302.0313" style="stroke:#181818;stroke-width:1.0;"/><line style="stroke:#181818;stroke-width:1.0;" x1="292.75" x2="429.75" y1="302.0313" y2="302.0313"/><text fill="#000000" font-family="sans-serif" font-size="13" lengthAdjust="spacing" textLength="119" x="299.75" y="297.1748">Update Order Status</text><!--SRC=[nLCxRy8m4DxzAwxfm4IcJXqgLIce33n4MZ4VoH4iENPaNmBy-peGX5BKuW49Iv5yyVbxt9sVAej5YQ3mO6e6LnAZHY5OiY8OrseZLKcQ8INRo8nW25Do3Wk2JzIv8kl_d7OmjxaFKqQk7IHRr0NbC6hQsqD8vhElzybij0H53IaXAhGiCrcXFuv6UoQhKKM0_khBHFjmhCmkJis6TsWfFJYcqiNdn5CinDhi8RgM6S7pQYkP1FZLO_gb_aWuIanPaireeP0tnfPNj1U6ZY1EZ6QKcgoBEyWEyPho0ndNwEWUN6SiGJe7Rrvq9UXg7-PUwY9Gon7sJyiUvwAZnxEQfe4CFbE8y8x3yEs-xOBNs-Ch2clgAY3llig2hDxia3Uuf8naywzoLDm_bWu62z_S5Y7ToggLF7Y4mQ3du4rEj2FRcNY4JZ_8NaLRgiTf2AtLTvKZz-UXVSZ7J_m0]--></g></svg>