<?xml version="1.0" encoding="us-ascii" standalone="no"?><svg xmlns="http://www.w3.org/2000/svg" xmlns:xlink="http://www.w3.org/1999/xlink" contentStyleType="text/css" height="256px" preserveAspectRatio="none" style="width:676px;height:256px;background:#FFFFFF;" version="1.1" viewBox="0 0 676 256" width="676px" zoomAndPan="magnify"><defs/><g><text fill="#000000" font-family="sans-serif" font-size="14" font-weight="bold" lengthAdjust="spacing" textLength="648" x="10" y="29.5332">Fulfilment Service - Message Handler - Handle Order Status Changed Event - CONTEXT level</text><rect fill="none" height="79.0547" style="stroke:#000000;stroke-width:1.5;" width="429" x="213.75" y="123.5703"/><line style="stroke:#181818;stroke-width:0.5;stroke-dasharray:5.0,5.0;" x1="53.25" x2="53.25" y1="76.2188" y2="219.625"/><line style="stroke:#181818;stroke-width:0.5;stroke-dasharray:5.0,5.0;" x1="286.75" x2="286.75" y1="76.2188" y2="219.625"/><line style="stroke:#181818;stroke-width:0.5;stroke-dasharray:5.0,5.0;" x1="524.75" x2="524.75" y1="76.2188" y2="219.625"/><line style="stroke:#181818;stroke-width:0.5;stroke-dasharray:5.0,5.0;" x1="608.75" x2="608.75" y1="76.2188" y2="219.625"/><rect fill="#E2E2F0" height="31.6094" rx="2.5" ry="2.5" style="stroke:#181818;stroke-width:0.5;" width="65" x="21.25" y="43.6094"/><text fill="#000000" font-family="sans-serif" font-size="14" lengthAdjust="spacing" textLength="51" x="28.25" y="65.1426">External</text><rect fill="#E2E2F0" height="31.6094" rx="2.5" ry="2.5" style="stroke:#181818;stroke-width:0.5;" width="65" x="21.25" y="218.625"/><text fill="#000000" font-family="sans-serif" font-size="14" lengthAdjust="spacing" textLength="51" x="28.25" y="240.1582">External</text><rect fill="#E2E2F0" height="31.6094" rx="2.5" ry="2.5" style="stroke:#181818;stroke-width:0.5;" width="126" x="223.75" y="43.6094"/><text fill="#000000" font-family="sans-serif" font-size="14" lengthAdjust="spacing" textLength="112" x="230.75" y="65.1426">Fulfilment Service</text><rect fill="#E2E2F0" height="31.6094" rx="2.5" ry="2.5" style="stroke:#181818;stroke-width:0.5;" width="126" x="223.75" y="218.625"/><text fill="#000000" font-family="sans-serif" font-size="14" lengthAdjust="spacing" textLength="112" x="230.75" y="240.1582">Fulfilment Service</text><rect fill="#E2E2F0" height="31.6094" rx="2.5" ry="2.5" style="stroke:#181818;stroke-width:0.5;" width="102" x="473.75" y="43.6094"/><text fill="#000000" font-family="sans-serif" font-size="14" lengthAdjust="spacing" textLength="88" x="480.75" y="65.1426">Order Service</text><rect fill="#E2E2F0" height="31.6094" rx="2.5" ry="2.5" style="stroke:#181818;stroke-width:0.5;" width="102" x="473.75" y="218.625"/><text fill="#000000" font-family="sans-serif" font-size="14" lengthAdjust="spacing" textLength="88" x="480.75" y="240.1582">Order Service</text><rect fill="#E2E2F0" height="31.6094" rx="2.5" ry="2.5" style="stroke:#181818;stroke-width:0.5;" width="47" x="585.75" y="43.6094"/><text fill="#000000" font-family="sans-serif" font-size="14" lengthAdjust="spacing" textLength="33" x="592.75" y="65.1426">WMS</text><rect fill="#E2E2F0" height="31.6094" rx="2.5" ry="2.5" style="stroke:#181818;stroke-width:0.5;" width="47" x="585.75" y="218.625"/><text fill="#000000" font-family="sans-serif" font-size="14" lengthAdjust="spacing" textLength="33" x="592.75" y="240.1582">WMS</text><polygon fill="#181818" points="274.75,104.5703,284.75,108.5703,274.75,112.5703,278.75,108.5703" style="stroke:#181818;stroke-width:1.0;"/><line style="stroke:#181818;stroke-width:1.0;" x1="53.75" x2="280.75" y1="108.5703" y2="108.5703"/><text fill="#000000" font-family="sans-serif" font-size="13" lengthAdjust="spacing" textLength="209" x="60.75" y="103.7139">Handle Order Status Changed Event</text><path d="M213.75,123.5703 L486.75,123.5703 L486.75,131.9219 L476.75,141.9219 L213.75,141.9219 L213.75,123.5703 " fill="#EEEEEE" style="stroke:#000000;stroke-width:1.5;"/><rect fill="none" height="79.0547" style="stroke:#000000;stroke-width:1.5;" width="429" x="213.75" y="123.5703"/><text fill="#000000" font-family="sans-serif" font-size="13" font-weight="bold" lengthAdjust="spacing" textLength="228" x="228.75" y="138.0654">Handle Order Status Changed Event</text><polygon fill="#181818" points="512.75,160.2734,522.75,164.2734,512.75,168.2734,516.75,164.2734" style="stroke:#181818;stroke-width:1.0;"/><line style="stroke:#181818;stroke-width:1.0;" x1="286.75" x2="518.75" y1="164.2734" y2="164.2734"/><text fill="#000000" font-family="sans-serif" font-size="13" lengthAdjust="spacing" textLength="214" x="293.75" y="159.417">Receive Order Status Changed Event</text><polygon fill="#181818" points="597.25,190.625,607.25,194.625,597.25,198.625,601.25,194.625" style="stroke:#181818;stroke-width:1.0;"/><line style="stroke:#181818;stroke-width:1.0;" x1="286.75" x2="603.25" y1="194.625" y2="194.625"/><text fill="#000000" font-family="sans-serif" font-size="13" lengthAdjust="spacing" textLength="62" x="293.75" y="189.7686">Ship Order</text><!--SRC=[nP4zJyD038Rt-nMcUpenCNI9Ki7G5lKgmMebJdhIVSddfFJVSpH5K1M9q8NjVFRx-BLz5naxXs3n67g1v4ZGer9Yn18iUziQwyWBQEB1r0G5h2Wbx0WUqJUMEF-CBzXmaqCjA7s2Se- -emQguKDTGBbPxwhN7LWQo2eLaSNK9c9Epget8VPePu1PUF_aSxYquJ3NePK3CkbZ4d9f_baunfUGQwydN5K6vuXhUhOeRM1t1VqIddMNtFDKVqAUD3_INbPw8YDNAZLz6L0iRfaL7dw_dkeuz752tItz9zd-li_iU4ircU5_hEIpP0TwR-BONf5lb7e7]--></g></svg>