<?xml version="1.0" encoding="us-ascii" standalone="no"?><svg xmlns="http://www.w3.org/2000/svg" xmlns:xlink="http://www.w3.org/1999/xlink" contentStyleType="text/css" height="375px" preserveAspectRatio="none" style="width:764px;height:375px;background:#FFFFFF;" version="1.1" viewBox="0 0 764 375" width="764px" zoomAndPan="magnify"><defs/><g><text fill="#000000" font-family="sans-serif" font-size="14" font-weight="bold" lengthAdjust="spacing" textLength="736" x="10" y="29.5332">Fulfilment Service - Message Handler - Handle Order Status Changed Event - Sequence - Container level</text><rect fill="#FFFFFF" height="325.0313" style="stroke:#181818;stroke-width:0.5;" width="250.5" x="262.75" y="44.6094"/><text fill="#000000" font-family="sans-serif" font-size="13" font-weight="bold" lengthAdjust="spacing" textLength="116" x="330" y="58.1045">Fulfilment Service</text><rect fill="#FFFFFF" height="325.0313" style="stroke:#181818;stroke-width:0.5;" width="94" x="521.75" y="44.6094"/><text fill="#000000" font-family="sans-serif" font-size="13" font-weight="bold" lengthAdjust="spacing" textLength="88" x="524.75" y="58.1045">Order Service</text><rect fill="none" height="172.1094" style="stroke:#000000;stroke-width:1.5;" width="442" x="246.75" y="144.9219"/><rect fill="none" height="109.4063" style="stroke:#000000;stroke-width:1.5;" width="422" x="256.75" y="200.625"/><line style="stroke:#181818;stroke-width:0.5;stroke-dasharray:5.0,5.0;" x1="95.25" x2="95.25" y1="97.5703" y2="334.0313"/><line style="stroke:#181818;stroke-width:0.5;stroke-dasharray:5.0,5.0;" x1="328.75" x2="328.75" y1="97.5703" y2="334.0313"/><line style="stroke:#181818;stroke-width:0.5;stroke-dasharray:5.0,5.0;" x1="471.25" x2="471.25" y1="97.5703" y2="334.0313"/><line style="stroke:#181818;stroke-width:0.5;stroke-dasharray:5.0,5.0;" x1="568.75" x2="568.75" y1="97.5703" y2="334.0313"/><line style="stroke:#181818;stroke-width:0.5;stroke-dasharray:5.0,5.0;" x1="644.75" x2="644.75" y1="97.5703" y2="334.0313"/><rect fill="#E2E2F0" height="31.6094" rx="2.5" ry="2.5" style="stroke:#181818;stroke-width:0.5;" width="65" x="63.25" y="64.9609"/><text fill="#000000" font-family="sans-serif" font-size="14" lengthAdjust="spacing" textLength="51" x="70.25" y="86.4941">External</text><rect fill="#E2E2F0" height="31.6094" rx="2.5" ry="2.5" style="stroke:#181818;stroke-width:0.5;" width="65" x="63.25" y="333.0313"/><text fill="#000000" font-family="sans-serif" font-size="14" lengthAdjust="spacing" textLength="51" x="70.25" y="354.5645">External</text><rect fill="#E2E2F0" height="31.6094" rx="2.5" ry="2.5" style="stroke:#181818;stroke-width:0.5;" width="124" x="266.75" y="64.9609"/><text fill="#000000" font-family="sans-serif" font-size="14" lengthAdjust="spacing" textLength="110" x="273.75" y="86.4941">Message Handler</text><rect fill="#E2E2F0" height="31.6094" rx="2.5" ry="2.5" style="stroke:#181818;stroke-width:0.5;" width="124" x="266.75" y="333.0313"/><text fill="#000000" font-family="sans-serif" font-size="14" lengthAdjust="spacing" textLength="110" x="273.75" y="354.5645">Message Handler</text><rect fill="#E2E2F0" height="31.6094" rx="2.5" ry="2.5" style="stroke:#181818;stroke-width:0.5;" width="75" x="434.25" y="64.9609"/><text fill="#000000" font-family="sans-serif" font-size="14" lengthAdjust="spacing" textLength="61" x="441.25" y="86.4941">Database</text><rect fill="#E2E2F0" height="31.6094" rx="2.5" ry="2.5" style="stroke:#181818;stroke-width:0.5;" width="75" x="434.25" y="333.0313"/><text fill="#000000" font-family="sans-serif" font-size="14" lengthAdjust="spacing" textLength="61" x="441.25" y="354.5645">Database</text><rect fill="#E2E2F0" height="31.6094" rx="2.5" ry="2.5" style="stroke:#181818;stroke-width:0.5;" width="82" x="527.75" y="64.9609"/><text fill="#000000" font-family="sans-serif" font-size="14" lengthAdjust="spacing" textLength="68" x="534.75" y="86.4941">Messaging</text><rect fill="#E2E2F0" height="31.6094" rx="2.5" ry="2.5" style="stroke:#181818;stroke-width:0.5;" width="82" x="527.75" y="333.0313"/><text fill="#000000" font-family="sans-serif" font-size="14" lengthAdjust="spacing" textLength="68" x="534.75" y="354.5645">Messaging</text><rect fill="#E2E2F0" height="31.6094" rx="2.5" ry="2.5" style="stroke:#181818;stroke-width:0.5;" width="47" x="621.75" y="64.9609"/><text fill="#000000" font-family="sans-serif" font-size="14" lengthAdjust="spacing" textLength="33" x="628.75" y="86.4941">WMS</text><rect fill="#E2E2F0" height="31.6094" rx="2.5" ry="2.5" style="stroke:#181818;stroke-width:0.5;" width="47" x="621.75" y="333.0313"/><text fill="#000000" font-family="sans-serif" font-size="14" lengthAdjust="spacing" textLength="33" x="628.75" y="354.5645">WMS</text><polygon fill="#181818" points="316.75,125.9219,326.75,129.9219,316.75,133.9219,320.75,129.9219" style="stroke:#181818;stroke-width:1.0;"/><line style="stroke:#181818;stroke-width:1.0;" x1="95.75" x2="322.75" y1="129.9219" y2="129.9219"/><text fill="#000000" font-family="sans-serif" font-size="13" lengthAdjust="spacing" textLength="209" x="102.75" y="125.0654">Handle Order Status Changed Event</text><path d="M246.75,144.9219 L519.75,144.9219 L519.75,153.2734 L509.75,163.2734 L246.75,163.2734 L246.75,144.9219 " fill="#EEEEEE" style="stroke:#000000;stroke-width:1.5;"/><rect fill="none" height="172.1094" style="stroke:#000000;stroke-width:1.5;" width="442" x="246.75" y="144.9219"/><text fill="#000000" font-family="sans-serif" font-size="13" font-weight="bold" lengthAdjust="spacing" textLength="228" x="261.75" y="159.417">Handle Order Status Changed Event</text><polygon fill="#181818" points="556.75,181.625,566.75,185.625,556.75,189.625,560.75,185.625" style="stroke:#181818;stroke-width:1.0;"/><line style="stroke:#181818;stroke-width:1.0;" x1="328.75" x2="562.75" y1="185.625" y2="185.625"/><text fill="#000000" font-family="sans-serif" font-size="13" lengthAdjust="spacing" textLength="214" x="335.75" y="180.7686">Receive Order Status Changed Event</text><path d="M256.75,200.625 L317.75,200.625 L317.75,208.9766 L307.75,218.9766 L256.75,218.9766 L256.75,200.625 " fill="#EEEEEE" style="stroke:#000000;stroke-width:1.5;"/><rect fill="none" height="109.4063" style="stroke:#000000;stroke-width:1.5;" width="422" x="256.75" y="200.625"/><text fill="#000000" font-family="sans-serif" font-size="13" font-weight="bold" lengthAdjust="spacing" textLength="16" x="271.75" y="215.1201">alt</text><text fill="#000000" font-family="sans-serif" font-size="11" font-weight="bold" lengthAdjust="spacing" textLength="201" x="332.75" y="214.0439">[Order Status is 'Pending Shipment']</text><polygon fill="#181818" points="459.75,237.3281,469.75,241.3281,459.75,245.3281,463.75,241.3281" style="stroke:#181818;stroke-width:1.0;"/><line style="stroke:#181818;stroke-width:1.0;" x1="328.75" x2="465.75" y1="241.3281" y2="241.3281"/><text fill="#000000" font-family="sans-serif" font-size="13" lengthAdjust="spacing" textLength="68" x="335.75" y="236.4717">Insert Order</text><polygon fill="#181818" points="633.25,267.6797,643.25,271.6797,633.25,275.6797,637.25,271.6797" style="stroke:#181818;stroke-width:1.0;"/><line style="stroke:#181818;stroke-width:1.0;" x1="328.75" x2="639.25" y1="271.6797" y2="271.6797"/><text fill="#000000" font-family="sans-serif" font-size="13" lengthAdjust="spacing" textLength="62" x="335.75" y="266.8232">Ship Order</text><polygon fill="#181818" points="459.75,298.0313,469.75,302.0313,459.75,306.0313,463.75,302.0313" style="stroke:#181818;stroke-width:1.0;"/><line style="stroke:#181818;stroke-width:1.0;" x1="328.75" x2="465.75" y1="302.0313" y2="302.0313"/><text fill="#000000" font-family="sans-serif" font-size="13" lengthAdjust="spacing" textLength="119" x="335.75" y="297.1748">Update Order Status</text><!--SRC=[nLEzRi8m4Dxz5DTqO29JfmvTAAWCgAXHnNmaHx3asAbz2V3slOHGbAAM34X4ifIppz_FtVcXz9WN20OFhc881J5QL8er6u9PPJRQ56GP4lArJWd6iA0GC2TuGviPyh9p_8DtdqcOC78LOB95crC6qxgvFPRxNnNP5c3YBAEsacke9gDKYPvrgakKp6YwP_8MJGGeA4zpA-7Ck5sSk0tlq5Do24n5Y4-9nrYfjTj3TAauWiVLLZCfaA_7zCj8IpYTkA8WdzBI86-SBovepmmTGVpZ9yGTP8TuIVcAZ6iCT0kk4vOYcu6OLrq9kZOCSwzjFb1B2_kdPS4vw-Znh1R9G0R9L6funs7ySjjsmVFrILQvTrKv8E-soWPPlTeXCVX1AUdwN-Lek7-i0uoMqjm68Tdgif4ykeV1GSz1JCvj8D-Pk8TE6MHHqPJgVXg6rkgpp93xyz0yv7QfRm00]--></g></svg>