<?xml version="1.0" encoding="us-ascii" standalone="no"?><svg xmlns="http://www.w3.org/2000/svg" xmlns:xlink="http://www.w3.org/1999/xlink" contentStyleType="text/css" height="476px" preserveAspectRatio="none" style="width:1293px;height:476px;background:#FFFFFF;" version="1.1" viewBox="0 0 1293 476" width="1293px" zoomAndPan="magnify"><defs/><g><text fill="#000000" font-family="sans-serif" font-size="14" font-weight="bold" lengthAdjust="spacing" textLength="1265" x="10" y="29.5332">E Commerce Platform - Create Product - Product Information Management - Product Service - Message Handler - Handle Purchase Order Created Event - Sequence - Container level</text><rect fill="#FFFFFF" height="419.3828" style="stroke:#181818;stroke-width:0.5;" width="312.5" x="537.5" y="44.6094"/><text fill="#000000" font-family="sans-serif" font-size="13" font-weight="bold" lengthAdjust="spacing" textLength="101" x="643.25" y="58.1045">Product Service</text><rect fill="#FFFFFF" height="419.3828" style="stroke:#181818;stroke-width:0.5;" width="102" x="852" y="44.6094"/><text fill="#000000" font-family="sans-serif" font-size="13" font-weight="bold" lengthAdjust="spacing" textLength="96" x="855" y="58.1045">Buying Service</text><rect fill="none" height="204.4609" style="stroke:#000000;stroke-width:1.5;" width="442.5" x="511.5" y="175.9219"/><rect fill="none" height="141.7578" style="stroke:#000000;stroke-width:1.5;" width="344.5" x="521.5" y="231.625"/><rect fill="none" height="79.0547" style="stroke:#000000;stroke-width:1.5;" width="324.5" x="531.5" y="287.3281"/><line style="stroke:#181818;stroke-width:0.5;stroke-dasharray:5.0,5.0;" x1="359" x2="359" y1="128.5703" y2="397.3828"/><line style="stroke:#181818;stroke-width:0.5;stroke-dasharray:5.0,5.0;" x1="603.5" x2="603.5" y1="128.5703" y2="397.3828"/><line style="stroke:#181818;stroke-width:0.5;stroke-dasharray:5.0,5.0;" x1="720" x2="720" y1="128.5703" y2="397.3828"/><line style="stroke:#181818;stroke-width:0.5;stroke-dasharray:5.0,5.0;" x1="805" x2="805" y1="128.5703" y2="397.3828"/><line style="stroke:#181818;stroke-width:0.5;stroke-dasharray:5.0,5.0;" x1="903" x2="903" y1="128.5703" y2="397.3828"/><rect fill="#E2E2F0" height="31.6094" rx="2.5" ry="2.5" style="stroke:#181818;stroke-width:0.5;" width="65" x="327" y="95.9609"/><text fill="#000000" font-family="sans-serif" font-size="14" lengthAdjust="spacing" textLength="51" x="334" y="117.4941">External</text><rect fill="#E2E2F0" height="31.6094" rx="2.5" ry="2.5" style="stroke:#181818;stroke-width:0.5;" width="65" x="327" y="396.3828"/><text fill="#000000" font-family="sans-serif" font-size="14" lengthAdjust="spacing" textLength="51" x="334" y="417.916">External</text><rect fill="#E2E2F0" height="31.6094" rx="2.5" ry="2.5" style="stroke:#181818;stroke-width:0.5;" width="124" x="541.5" y="95.9609"/><text fill="#000000" font-family="sans-serif" font-size="14" lengthAdjust="spacing" textLength="110" x="548.5" y="117.4941">Message Handler</text><rect fill="#E2E2F0" height="31.6094" rx="2.5" ry="2.5" style="stroke:#181818;stroke-width:0.5;" width="124" x="541.5" y="396.3828"/><text fill="#000000" font-family="sans-serif" font-size="14" lengthAdjust="spacing" textLength="110" x="548.5" y="417.916">Message Handler</text><text fill="#000000" font-family="sans-serif" font-size="14" lengthAdjust="spacing" textLength="61" x="687" y="125.4941">Database</text><path d="M702.5,74.9609 C702.5,64.9609 720.5,64.9609 720.5,64.9609 C720.5,64.9609 738.5,64.9609 738.5,74.9609 L738.5,100.9609 C738.5,110.9609 720.5,110.9609 720.5,110.9609 C720.5,110.9609 702.5,110.9609 702.5,100.9609 L702.5,74.9609 " fill="#E2E2F0" style="stroke:#181818;stroke-width:1.5;"/><path d="M702.5,74.9609 C702.5,84.9609 720.5,84.9609 720.5,84.9609 C720.5,84.9609 738.5,84.9609 738.5,74.9609 " fill="none" style="stroke:#181818;stroke-width:1.5;"/><text fill="#000000" font-family="sans-serif" font-size="14" lengthAdjust="spacing" textLength="61" x="687" y="410.916">Database</text><path d="M702.5,423.9922 C702.5,413.9922 720.5,413.9922 720.5,413.9922 C720.5,413.9922 738.5,413.9922 738.5,423.9922 L738.5,449.9922 C738.5,459.9922 720.5,459.9922 720.5,459.9922 C720.5,459.9922 702.5,459.9922 702.5,449.9922 L702.5,423.9922 " fill="#E2E2F0" style="stroke:#181818;stroke-width:1.5;"/><path d="M702.5,423.9922 C702.5,433.9922 720.5,433.9922 720.5,433.9922 C720.5,433.9922 738.5,433.9922 738.5,423.9922 " fill="none" style="stroke:#181818;stroke-width:1.5;"/><rect fill="#E2E2F0" height="31.6094" rx="2.5" ry="2.5" style="stroke:#181818;stroke-width:0.5;" width="82" x="764" y="95.9609"/><text fill="#000000" font-family="sans-serif" font-size="14" lengthAdjust="spacing" textLength="68" x="771" y="117.4941">Messaging</text><rect fill="#E2E2F0" height="31.6094" rx="2.5" ry="2.5" style="stroke:#181818;stroke-width:0.5;" width="82" x="764" y="396.3828"/><text fill="#000000" font-family="sans-serif" font-size="14" lengthAdjust="spacing" textLength="68" x="771" y="417.916">Messaging</text><rect fill="#E2E2F0" height="31.6094" rx="2.5" ry="2.5" style="stroke:#181818;stroke-width:0.5;" width="82" x="862" y="95.9609"/><text fill="#000000" font-family="sans-serif" font-size="14" lengthAdjust="spacing" textLength="68" x="869" y="117.4941">Messaging</text><rect fill="#E2E2F0" height="31.6094" rx="2.5" ry="2.5" style="stroke:#181818;stroke-width:0.5;" width="82" x="862" y="396.3828"/><text fill="#000000" font-family="sans-serif" font-size="14" lengthAdjust="spacing" textLength="68" x="869" y="417.916">Messaging</text><polygon fill="#181818" points="591.5,156.9219,601.5,160.9219,591.5,164.9219,595.5,160.9219" style="stroke:#181818;stroke-width:1.0;"/><line style="stroke:#181818;stroke-width:1.0;" x1="359.5" x2="597.5" y1="160.9219" y2="160.9219"/><text fill="#000000" font-family="sans-serif" font-size="13" lengthAdjust="spacing" textLength="220" x="366.5" y="156.0654">Handle Purchase Order Created Event</text><path d="M511.5,175.9219 L797.5,175.9219 L797.5,184.2734 L787.5,194.2734 L511.5,194.2734 L511.5,175.9219 " fill="#EEEEEE" style="stroke:#000000;stroke-width:1.5;"/><rect fill="none" height="204.4609" style="stroke:#000000;stroke-width:1.5;" width="442.5" x="511.5" y="175.9219"/><text fill="#000000" font-family="sans-serif" font-size="13" font-weight="bold" lengthAdjust="spacing" textLength="241" x="526.5" y="190.417">Handle Purchase Order Created Event</text><polygon fill="#181818" points="891,212.625,901,216.625,891,220.625,895,216.625" style="stroke:#181818;stroke-width:1.0;"/><line style="stroke:#181818;stroke-width:1.0;" x1="603.5" x2="897" y1="216.625" y2="216.625"/><text fill="#000000" font-family="sans-serif" font-size="13" lengthAdjust="spacing" textLength="225" x="610.5" y="211.7686">Receive Purchase Order Created Event</text><path d="M521.5,231.625 L594.5,231.625 L594.5,239.9766 L584.5,249.9766 L521.5,249.9766 L521.5,231.625 " fill="#EEEEEE" style="stroke:#000000;stroke-width:1.5;"/><rect fill="none" height="141.7578" style="stroke:#000000;stroke-width:1.5;" width="344.5" x="521.5" y="231.625"/><text fill="#000000" font-family="sans-serif" font-size="13" font-weight="bold" lengthAdjust="spacing" textLength="28" x="536.5" y="246.1201">loop</text><text fill="#000000" font-family="sans-serif" font-size="11" font-weight="bold" lengthAdjust="spacing" textLength="204" x="609.5" y="245.0439">[For each Product in Purchase Order]</text><polygon fill="#181818" points="708.5,268.3281,718.5,272.3281,708.5,276.3281,712.5,272.3281" style="stroke:#181818;stroke-width:1.0;"/><line style="stroke:#181818;stroke-width:1.0;" x1="603.5" x2="714.5" y1="272.3281" y2="272.3281"/><text fill="#000000" font-family="sans-serif" font-size="13" lengthAdjust="spacing" textLength="93" x="610.5" y="267.4717">Select Products</text><path d="M531.5,287.3281 L592.5,287.3281 L592.5,295.6797 L582.5,305.6797 L531.5,305.6797 L531.5,287.3281 " fill="#EEEEEE" style="stroke:#000000;stroke-width:1.5;"/><rect fill="none" height="79.0547" style="stroke:#000000;stroke-width:1.5;" width="324.5" x="531.5" y="287.3281"/><text fill="#000000" font-family="sans-serif" font-size="13" font-weight="bold" lengthAdjust="spacing" textLength="16" x="546.5" y="301.8232">alt</text><text fill="#000000" font-family="sans-serif" font-size="11" font-weight="bold" lengthAdjust="spacing" textLength="109" x="607.5" y="300.7471">[Product Not Found]</text><polygon fill="#181818" points="708.5,324.0313,718.5,328.0313,708.5,332.0313,712.5,328.0313" style="stroke:#181818;stroke-width:1.0;"/><line style="stroke:#181818;stroke-width:1.0;" x1="603.5" x2="714.5" y1="328.0313" y2="328.0313"/><text fill="#000000" font-family="sans-serif" font-size="13" lengthAdjust="spacing" textLength="81" x="610.5" y="323.1748">Insert Product</text><polygon fill="#181818" points="793,354.3828,803,358.3828,793,362.3828,797,358.3828" style="stroke:#181818;stroke-width:1.0;"/><line style="stroke:#181818;stroke-width:1.0;" x1="603.5" x2="799" y1="358.3828" y2="358.3828"/><text fill="#000000" font-family="sans-serif" font-size="13" lengthAdjust="spacing" textLength="164" x="610.5" y="353.5264">Send Product Created Event</text><!--SRC=[vPGzJyCm48Pt_ufJc9k9YG49IX4T2XKPcA_nqLfopiLs-l7lkJPEA4M838WYY1J5Fh-vZ-TiHnCjmGY6hgh8bmHJY_7P-Ge6CFI4KIpUwRgCOcX7OzufC1h7C476ELN4XuA2_Cg8im5CA0HPXpjaRScBfHd1jFRb0WF1WzTYRs9f6AqQJmMzrCHx5qF74GsBoDAAh59BzD6KPecYp4QRI9xHPe01XkTZbkcjTUkySCznZPwAROXKXRmLDdEbPcu3sL726PmzBKma1VAy2tDKnpxQg8NMCikRAfBJF7qFQBt1-f1U4gT4ygxeaAVGAV8-DOqHPpjusKqQ_MH2RSpFA1cU_pmV2Qg8DKXRLMhkTRqLQz_UziswyNh5UaAx7SpQ19b_oBUHzKot_xw5mULfzXrSz3cvQkvTlUobF4qLFV1zMuC5sIELP5PVaB3EBU7MUI0i5zqTQlZehzzBx9ll5U5Ma2LXaBH1eUqcSE-YqAfP_oSWOmxaEmP_llB3CrJixics-UzFZgnqhte5]--></g></svg>