<?xml version="1.0" encoding="us-ascii" standalone="no"?><svg xmlns="http://www.w3.org/2000/svg" xmlns:xlink="http://www.w3.org/1999/xlink" contentStyleType="text/css" height="476px" preserveAspectRatio="none" style="width:1293px;height:476px;background:#FFFFFF;" version="1.1" viewBox="0 0 1293 476" width="1293px" zoomAndPan="magnify"><defs/><g><text fill="#000000" font-family="sans-serif" font-size="14" font-weight="bold" lengthAdjust="spacing" textLength="1265" x="10" y="29.5332">E Commerce Platform - Create Product - Product Information Management - Product Service - Message Handler - Handle Purchase Order Created Event - Sequence - Container level</text><rect fill="#FFFFFF" height="419.3828" style="stroke:#181818;stroke-width:0.5;" width="318.5" x="533" y="44.6094"/><text fill="#000000" font-family="sans-serif" font-size="13" font-weight="bold" lengthAdjust="spacing" textLength="101" x="641.75" y="58.1045">Product Service</text><rect fill="#FFFFFF" height="419.3828" style="stroke:#181818;stroke-width:0.5;" width="102" x="853.5" y="44.6094"/><text fill="#000000" font-family="sans-serif" font-size="13" font-weight="bold" lengthAdjust="spacing" textLength="96" x="856.5" y="58.1045">Buying Service</text><rect fill="none" height="204.4609" style="stroke:#000000;stroke-width:1.5;" width="451.5" x="507" y="175.9219"/><rect fill="none" height="141.7578" style="stroke:#000000;stroke-width:1.5;" width="350.5" x="517" y="231.625"/><rect fill="none" height="79.0547" style="stroke:#000000;stroke-width:1.5;" width="330.5" x="527" y="287.3281"/><line style="stroke:#181818;stroke-width:0.5;stroke-dasharray:5.0,5.0;" x1="354.5" x2="354.5" y1="128.5703" y2="397.3828"/><line style="stroke:#181818;stroke-width:0.5;stroke-dasharray:5.0,5.0;" x1="599" x2="599" y1="128.5703" y2="397.3828"/><line style="stroke:#181818;stroke-width:0.5;stroke-dasharray:5.0,5.0;" x1="715.5" x2="715.5" y1="128.5703" y2="397.3828"/><line style="stroke:#181818;stroke-width:0.5;stroke-dasharray:5.0,5.0;" x1="803.5" x2="803.5" y1="128.5703" y2="397.3828"/><line style="stroke:#181818;stroke-width:0.5;stroke-dasharray:5.0,5.0;" x1="904.5" x2="904.5" y1="128.5703" y2="397.3828"/><rect fill="#E2E2F0" height="31.6094" rx="2.5" ry="2.5" style="stroke:#181818;stroke-width:0.5;" width="65" x="322.5" y="95.9609"/><text fill="#000000" font-family="sans-serif" font-size="14" lengthAdjust="spacing" textLength="51" x="329.5" y="117.4941">External</text><rect fill="#E2E2F0" height="31.6094" rx="2.5" ry="2.5" style="stroke:#181818;stroke-width:0.5;" width="65" x="322.5" y="396.3828"/><text fill="#000000" font-family="sans-serif" font-size="14" lengthAdjust="spacing" textLength="51" x="329.5" y="417.916">External</text><rect fill="#E2E2F0" height="31.6094" rx="2.5" ry="2.5" style="stroke:#181818;stroke-width:0.5;" width="124" x="537" y="95.9609"/><text fill="#000000" font-family="sans-serif" font-size="14" lengthAdjust="spacing" textLength="110" x="544" y="117.4941">Message Handler</text><rect fill="#E2E2F0" height="31.6094" rx="2.5" ry="2.5" style="stroke:#181818;stroke-width:0.5;" width="124" x="537" y="396.3828"/><text fill="#000000" font-family="sans-serif" font-size="14" lengthAdjust="spacing" textLength="110" x="544" y="417.916">Message Handler</text><text fill="#000000" font-family="sans-serif" font-size="14" lengthAdjust="spacing" textLength="61" x="682.5" y="125.4941">Database</text><path d="M698,74.9609 C698,64.9609 716,64.9609 716,64.9609 C716,64.9609 734,64.9609 734,74.9609 L734,100.9609 C734,110.9609 716,110.9609 716,110.9609 C716,110.9609 698,110.9609 698,100.9609 L698,74.9609 " fill="#E2E2F0" style="stroke:#181818;stroke-width:1.5;"/><path d="M698,74.9609 C698,84.9609 716,84.9609 716,84.9609 C716,84.9609 734,84.9609 734,74.9609 " fill="none" style="stroke:#181818;stroke-width:1.5;"/><text fill="#000000" font-family="sans-serif" font-size="14" lengthAdjust="spacing" textLength="61" x="682.5" y="410.916">Database</text><path d="M698,423.9922 C698,413.9922 716,413.9922 716,413.9922 C716,413.9922 734,413.9922 734,423.9922 L734,449.9922 C734,459.9922 716,459.9922 716,459.9922 C716,459.9922 698,459.9922 698,449.9922 L698,423.9922 " fill="#E2E2F0" style="stroke:#181818;stroke-width:1.5;"/><path d="M698,423.9922 C698,433.9922 716,433.9922 716,433.9922 C716,433.9922 734,433.9922 734,423.9922 " fill="none" style="stroke:#181818;stroke-width:1.5;"/><path d="M764.5,100.9609 L842.5,100.9609 C847.5,100.9609 847.5,114.7656 847.5,114.7656 C847.5,114.7656 847.5,128.5703 842.5,128.5703 L764.5,128.5703 C759.5,128.5703 759.5,114.7656 759.5,114.7656 C759.5,114.7656 759.5,100.9609 764.5,100.9609 " fill="#E2E2F0" style="stroke:#181818;stroke-width:0.5;"/><path d="M842.5,100.9609 C837.5,100.9609 837.5,114.7656 837.5,114.7656 C837.5,128.5703 842.5,128.5703 842.5,128.5703 " fill="none" style="stroke:#181818;stroke-width:0.5;"/><text fill="#000000" font-family="sans-serif" font-size="14" lengthAdjust="spacing" textLength="68" x="764.5" y="120.4941">Messaging</text><path d="M764.5,396.3828 L842.5,396.3828 C847.5,396.3828 847.5,410.1875 847.5,410.1875 C847.5,410.1875 847.5,423.9922 842.5,423.9922 L764.5,423.9922 C759.5,423.9922 759.5,410.1875 759.5,410.1875 C759.5,410.1875 759.5,396.3828 764.5,396.3828 " fill="#E2E2F0" style="stroke:#181818;stroke-width:0.5;"/><path d="M842.5,396.3828 C837.5,396.3828 837.5,410.1875 837.5,410.1875 C837.5,423.9922 842.5,423.9922 842.5,423.9922 " fill="none" style="stroke:#181818;stroke-width:0.5;"/><text fill="#000000" font-family="sans-serif" font-size="14" lengthAdjust="spacing" textLength="68" x="764.5" y="415.916">Messaging</text><path d="M865.5,100.9609 L943.5,100.9609 C948.5,100.9609 948.5,114.7656 948.5,114.7656 C948.5,114.7656 948.5,128.5703 943.5,128.5703 L865.5,128.5703 C860.5,128.5703 860.5,114.7656 860.5,114.7656 C860.5,114.7656 860.5,100.9609 865.5,100.9609 " fill="#E2E2F0" style="stroke:#181818;stroke-width:0.5;"/><path d="M943.5,100.9609 C938.5,100.9609 938.5,114.7656 938.5,114.7656 C938.5,128.5703 943.5,128.5703 943.5,128.5703 " fill="none" style="stroke:#181818;stroke-width:0.5;"/><text fill="#000000" font-family="sans-serif" font-size="14" lengthAdjust="spacing" textLength="68" x="865.5" y="120.4941">Messaging</text><path d="M865.5,396.3828 L943.5,396.3828 C948.5,396.3828 948.5,410.1875 948.5,410.1875 C948.5,410.1875 948.5,423.9922 943.5,423.9922 L865.5,423.9922 C860.5,423.9922 860.5,410.1875 860.5,410.1875 C860.5,410.1875 860.5,396.3828 865.5,396.3828 " fill="#E2E2F0" style="stroke:#181818;stroke-width:0.5;"/><path d="M943.5,396.3828 C938.5,396.3828 938.5,410.1875 938.5,410.1875 C938.5,423.9922 943.5,423.9922 943.5,423.9922 " fill="none" style="stroke:#181818;stroke-width:0.5;"/><text fill="#000000" font-family="sans-serif" font-size="14" lengthAdjust="spacing" textLength="68" x="865.5" y="415.916">Messaging</text><polygon fill="#181818" points="587,156.9219,597,160.9219,587,164.9219,591,160.9219" style="stroke:#181818;stroke-width:1.0;"/><line style="stroke:#181818;stroke-width:1.0;" x1="355" x2="593" y1="160.9219" y2="160.9219"/><text fill="#000000" font-family="sans-serif" font-size="13" lengthAdjust="spacing" textLength="220" x="362" y="156.0654">Handle Purchase Order Created Event</text><path d="M507,175.9219 L793,175.9219 L793,184.2734 L783,194.2734 L507,194.2734 L507,175.9219 " fill="#EEEEEE" style="stroke:#000000;stroke-width:1.5;"/><rect fill="none" height="204.4609" style="stroke:#000000;stroke-width:1.5;" width="451.5" x="507" y="175.9219"/><text fill="#000000" font-family="sans-serif" font-size="13" font-weight="bold" lengthAdjust="spacing" textLength="241" x="522" y="190.417">Handle Purchase Order Created Event</text><polygon fill="#181818" points="892.5,212.625,902.5,216.625,892.5,220.625,896.5,216.625" style="stroke:#181818;stroke-width:1.0;"/><line style="stroke:#181818;stroke-width:1.0;" x1="599" x2="898.5" y1="216.625" y2="216.625"/><text fill="#000000" font-family="sans-serif" font-size="13" lengthAdjust="spacing" textLength="225" x="606" y="211.7686">Receive Purchase Order Created Event</text><path d="M517,231.625 L590,231.625 L590,239.9766 L580,249.9766 L517,249.9766 L517,231.625 " fill="#EEEEEE" style="stroke:#000000;stroke-width:1.5;"/><rect fill="none" height="141.7578" style="stroke:#000000;stroke-width:1.5;" width="350.5" x="517" y="231.625"/><text fill="#000000" font-family="sans-serif" font-size="13" font-weight="bold" lengthAdjust="spacing" textLength="28" x="532" y="246.1201">loop</text><text fill="#000000" font-family="sans-serif" font-size="11" font-weight="bold" lengthAdjust="spacing" textLength="204" x="605" y="245.0439">[For each Product in Purchase Order]</text><polygon fill="#181818" points="704,268.3281,714,272.3281,704,276.3281,708,272.3281" style="stroke:#181818;stroke-width:1.0;"/><line style="stroke:#181818;stroke-width:1.0;" x1="599" x2="710" y1="272.3281" y2="272.3281"/><text fill="#000000" font-family="sans-serif" font-size="13" lengthAdjust="spacing" textLength="93" x="606" y="267.4717">Select Products</text><path d="M527,287.3281 L588,287.3281 L588,295.6797 L578,305.6797 L527,305.6797 L527,287.3281 " fill="#EEEEEE" style="stroke:#000000;stroke-width:1.5;"/><rect fill="none" height="79.0547" style="stroke:#000000;stroke-width:1.5;" width="330.5" x="527" y="287.3281"/><text fill="#000000" font-family="sans-serif" font-size="13" font-weight="bold" lengthAdjust="spacing" textLength="16" x="542" y="301.8232">alt</text><text fill="#000000" font-family="sans-serif" font-size="11" font-weight="bold" lengthAdjust="spacing" textLength="109" x="603" y="300.7471">[Product Not Found]</text><polygon fill="#181818" points="704,324.0313,714,328.0313,704,332.0313,708,328.0313" style="stroke:#181818;stroke-width:1.0;"/><line style="stroke:#181818;stroke-width:1.0;" x1="599" x2="710" y1="328.0313" y2="328.0313"/><text fill="#000000" font-family="sans-serif" font-size="13" lengthAdjust="spacing" textLength="81" x="606" y="323.1748">Insert Product</text><polygon fill="#181818" points="791.5,354.3828,801.5,358.3828,791.5,362.3828,795.5,358.3828" style="stroke:#181818;stroke-width:1.0;"/><line style="stroke:#181818;stroke-width:1.0;" x1="599" x2="797.5" y1="358.3828" y2="358.3828"/><text fill="#000000" font-family="sans-serif" font-size="13" lengthAdjust="spacing" textLength="164" x="606" y="353.5264">Send Product Created Event</text><!--SRC=[vLJ1JiCm3BtdAwnoNa-SE23166A7mKGFdBt6R95IPoJfWB_7MzEo3IGgD344bQh6pglz_1mdccW9HZ1qLKM-99XQZ8_ELp20eIUCul5ErsKKHxiQyng1qJY62JBEgIBU1XJaLqQ23M128SW-t21hIruypGgcjIyN60Zkl1P_aql3QDL4AkYf9jw463gEQ5X0bbPabLgYZwOqInHaDdg9v1bj1XXWU3fcCQ-jUyuBznYVqLFn6Y9L8M-1ZQtKpBr0jaSuWvE7XOcaG9wTD7jrRBADMj5QpVAcYXGqJzyjjTx5-a0lWHEHl2iwv2brohoXfZ7YR2rUTfLMFqcepRcX8csggTN7yFpdbP6aYbY3D5IbjbxMh-BzjAlVujl4ks0zeVMfPMs2s1-ODh2UHFkVLHYS7-UimLcVQLLpx-fbB-HngkWXty4QB9BTKqbczOKIrhabN3iFXEMYkpSDx_trUnKxy5qYkXLaIJH8sA3GTWRSkYXgrQp_ao1Z3kGx3VvyvTipLAploRRvkvCZEzshtW00]--></g></svg>