<?xml version="1.0" encoding="us-ascii" standalone="no"?><svg xmlns="http://www.w3.org/2000/svg" xmlns:xlink="http://www.w3.org/1999/xlink" contentStyleType="text/css" height="282px" preserveAspectRatio="none" style="width:1239px;height:282px;background:#FFFFFF;" version="1.1" viewBox="0 0 1239 282" width="1239px" zoomAndPan="magnify"><defs/><g><text fill="#000000" font-family="sans-serif" font-size="14" font-weight="bold" lengthAdjust="spacing" textLength="1211" x="10" y="29.5332">E Commerce Platform - Create Product - Buying And Merchandising - Buying Service - Message Handler - Handle Purchase Order Deleted Event - Sequence - Container level</text><rect fill="#FFFFFF" height="231.9766" style="stroke:#181818;stroke-width:0.5;" width="362" x="505.75" y="44.6094"/><text fill="#000000" font-family="sans-serif" font-size="13" font-weight="bold" lengthAdjust="spacing" textLength="96" x="638.75" y="58.1045">Buying Service</text><rect fill="none" height="79.0547" style="stroke:#000000;stroke-width:1.5;" width="431" x="499.75" y="144.9219"/><line style="stroke:#181818;stroke-width:0.5;stroke-dasharray:5.0,5.0;" x1="328.25" x2="328.25" y1="97.5703" y2="240.9766"/><line style="stroke:#181818;stroke-width:0.5;stroke-dasharray:5.0,5.0;" x1="571.75" x2="571.75" y1="97.5703" y2="240.9766"/><line style="stroke:#181818;stroke-width:0.5;stroke-dasharray:5.0,5.0;" x1="819.75" x2="819.75" y1="97.5703" y2="240.9766"/><line style="stroke:#181818;stroke-width:0.5;stroke-dasharray:5.0,5.0;" x1="896.75" x2="896.75" y1="97.5703" y2="240.9766"/><rect fill="#E2E2F0" height="31.6094" rx="2.5" ry="2.5" style="stroke:#181818;stroke-width:0.5;" width="65" x="296.25" y="64.9609"/><text fill="#000000" font-family="sans-serif" font-size="14" lengthAdjust="spacing" textLength="51" x="303.25" y="86.4941">External</text><rect fill="#E2E2F0" height="31.6094" rx="2.5" ry="2.5" style="stroke:#181818;stroke-width:0.5;" width="65" x="296.25" y="239.9766"/><text fill="#000000" font-family="sans-serif" font-size="14" lengthAdjust="spacing" textLength="51" x="303.25" y="261.5098">External</text><rect fill="#E2E2F0" height="31.6094" rx="2.5" ry="2.5" style="stroke:#181818;stroke-width:0.5;" width="124" x="509.75" y="64.9609"/><text fill="#000000" font-family="sans-serif" font-size="14" lengthAdjust="spacing" textLength="110" x="516.75" y="86.4941">Message Handler</text><rect fill="#E2E2F0" height="31.6094" rx="2.5" ry="2.5" style="stroke:#181818;stroke-width:0.5;" width="124" x="509.75" y="239.9766"/><text fill="#000000" font-family="sans-serif" font-size="14" lengthAdjust="spacing" textLength="110" x="516.75" y="261.5098">Message Handler</text><path d="M780.75,69.9609 L858.75,69.9609 C863.75,69.9609 863.75,83.7656 863.75,83.7656 C863.75,83.7656 863.75,97.5703 858.75,97.5703 L780.75,97.5703 C775.75,97.5703 775.75,83.7656 775.75,83.7656 C775.75,83.7656 775.75,69.9609 780.75,69.9609 " fill="#E2E2F0" style="stroke:#181818;stroke-width:0.5;"/><path d="M858.75,69.9609 C853.75,69.9609 853.75,83.7656 853.75,83.7656 C853.75,97.5703 858.75,97.5703 858.75,97.5703 " fill="none" style="stroke:#181818;stroke-width:0.5;"/><text fill="#000000" font-family="sans-serif" font-size="14" lengthAdjust="spacing" textLength="68" x="780.75" y="89.4941">Messaging</text><path d="M780.75,239.9766 L858.75,239.9766 C863.75,239.9766 863.75,253.7813 863.75,253.7813 C863.75,253.7813 863.75,267.5859 858.75,267.5859 L780.75,267.5859 C775.75,267.5859 775.75,253.7813 775.75,253.7813 C775.75,253.7813 775.75,239.9766 780.75,239.9766 " fill="#E2E2F0" style="stroke:#181818;stroke-width:0.5;"/><path d="M858.75,239.9766 C853.75,239.9766 853.75,253.7813 853.75,253.7813 C853.75,267.5859 858.75,267.5859 858.75,267.5859 " fill="none" style="stroke:#181818;stroke-width:0.5;"/><text fill="#000000" font-family="sans-serif" font-size="14" lengthAdjust="spacing" textLength="68" x="780.75" y="259.5098">Messaging</text><rect fill="#E2E2F0" height="31.6094" rx="2.5" ry="2.5" style="stroke:#181818;stroke-width:0.5;" width="47" x="873.75" y="64.9609"/><text fill="#000000" font-family="sans-serif" font-size="14" lengthAdjust="spacing" textLength="33" x="880.75" y="86.4941">WMS</text><rect fill="#E2E2F0" height="31.6094" rx="2.5" ry="2.5" style="stroke:#181818;stroke-width:0.5;" width="47" x="873.75" y="239.9766"/><text fill="#000000" font-family="sans-serif" font-size="14" lengthAdjust="spacing" textLength="33" x="880.75" y="261.5098">WMS</text><polygon fill="#181818" points="559.75,125.9219,569.75,129.9219,559.75,133.9219,563.75,129.9219" style="stroke:#181818;stroke-width:1.0;"/><line style="stroke:#181818;stroke-width:1.0;" x1="328.75" x2="565.75" y1="129.9219" y2="129.9219"/><text fill="#000000" font-family="sans-serif" font-size="13" lengthAdjust="spacing" textLength="219" x="335.75" y="125.0654">Handle Purchase Order Deleted Event</text><path d="M499.75,144.9219 L784.75,144.9219 L784.75,153.2734 L774.75,163.2734 L499.75,163.2734 L499.75,144.9219 " fill="#EEEEEE" style="stroke:#000000;stroke-width:1.5;"/><rect fill="none" height="79.0547" style="stroke:#000000;stroke-width:1.5;" width="431" x="499.75" y="144.9219"/><text fill="#000000" font-family="sans-serif" font-size="13" font-weight="bold" lengthAdjust="spacing" textLength="240" x="514.75" y="159.417">Handle Purchase Order Deleted Event</text><polygon fill="#181818" points="807.75,181.625,817.75,185.625,807.75,189.625,811.75,185.625" style="stroke:#181818;stroke-width:1.0;"/><line style="stroke:#181818;stroke-width:1.0;" x1="571.75" x2="813.75" y1="185.625" y2="185.625"/><text fill="#000000" font-family="sans-serif" font-size="13" lengthAdjust="spacing" textLength="224" x="578.75" y="180.7686">Receive Purchase Order Deleted Event</text><polygon fill="#181818" points="885.25,211.9766,895.25,215.9766,885.25,219.9766,889.25,215.9766" style="stroke:#181818;stroke-width:1.0;"/><line style="stroke:#181818;stroke-width:1.0;" x1="571.75" x2="891.25" y1="215.9766" y2="215.9766"/><text fill="#000000" font-family="sans-serif" font-size="13" lengthAdjust="spacing" textLength="132" x="578.75" y="211.1201">Delete Purchase Order</text><!--SRC=[pLCzRuCm4DtzAqvqnbEd39LQIfGEKQCoP7RXI2mPc_g39F- -nrSaY2eneJBXy_EzT-_PNdg5a49YgWfjZd1GmfV6LX13Ob5ugbXJXDnJuItSf3x1govWJ-2pq8LqRUM-bQ5j97M92U2SE27i2AJGKgN_WqDeJpg4JrjG_HqLUYmWRL2t71d-1DHTYyHeBwGcaC865MEri5xciXQ4ZDAhHwk5Ya0uI9u_D2stobnuPaf_4HQpc_DOEJu2-pLZt-OAqLHl14_7i_J8WBu9osoCZYmTpHgzuhrJWr6yxqqkJKnwqDN31WNyFgpZ0-T0sMaYJmAEQkZKYZfeZo4bJhRD4ZZkipzqKAYoGSktGPLILPJi0oiTPcnvR12_hEmxR9RSM7Qo9jIBa2lBNysmzXrju0jpfCp_lmNBxYPDr4kV3TG-1SP-0G00]--></g></svg>