<?xml version="1.0" encoding="us-ascii" standalone="no"?><svg xmlns="http://www.w3.org/2000/svg" xmlns:xlink="http://www.w3.org/1999/xlink" contentStyleType="text/css" height="475px" preserveAspectRatio="none" style="width:311px;height:475px;background:#FFFFFF;" version="1.1" viewBox="0 0 311 475" width="311px" zoomAndPan="magnify"><defs/><g><text fill="#000000" font-family="sans-serif" font-size="14" font-weight="bold" lengthAdjust="spacing" textLength="283" x="10" y="24.5332">People Search - C4 Static - Context level</text><!--entity TraderX.Actors.Trader--><g id="elem_TraderX.Actors.Trader"><ellipse cx="155" cy="67.1094" fill="#08427B" rx="16" ry="16" style="stroke:#073B6F;stroke-width:0.5;"/><path d="M155,87.1094 C159,87.1094 162,87.1094 166,83.1094 C174,83.1094 182,91.1094 182,99.1094 L182,103.1094 C182,107.1094 178,111.1094 174,111.1094 L136,111.1094 C132,111.1094 128,107.1094 128,103.1094 L128,99.1094 C128,91.1094 136,83.1094 144,83.1094 C148,87.1094 151,87.1094 155,87.1094 " fill="#08427B" style="stroke:#073B6F;stroke-width:0.5;"/><text fill="#08427B" font-family="sans-serif" font-size="16" font-weight="bold" lengthAdjust="spacing" textLength="50" x="130" y="128.2188">Trader</text></g><!--entity TraderX.SoftwareSystems.TraderX--><g id="elem_TraderX.SoftwareSystems.TraderX"><rect fill="#1168BD" height="75.3438" rx="2.5" ry="2.5" style="stroke:#3C7FC0;stroke-width:0.5;" width="81" x="114.5" y="199.6094"/><text fill="#FFFFFF" font-family="sans-serif" font-size="16" font-weight="bold" lengthAdjust="spacing" textLength="61" x="124.5" y="226.2188">TraderX</text><text fill="#FFFFFF" font-family="sans-serif" font-size="14" lengthAdjust="spacing" textLength="4" x="153" y="244.2676">&#160;</text><text fill="#FFFFFF" font-family="sans-serif" font-size="14" lengthAdjust="spacing" textLength="51" x="129.5" y="261.877">TraderX</text></g><!--entity TraderX.SoftwareSystems.UserDirectory--><g id="elem_TraderX.SoftwareSystems.UserDirectory"><rect fill="#1168BD" height="40.125" rx="2.5" ry="2.5" style="stroke:#3C7FC0;stroke-width:0.5;" width="130" x="90" y="342.6094"/><text fill="#FFFFFF" font-family="sans-serif" font-size="16" font-weight="bold" lengthAdjust="spacing" textLength="36" x="100" y="369.2188">User</text><text fill="#FFFFFF" font-family="sans-serif" font-size="16" font-weight="bold" lengthAdjust="spacing" textLength="4" x="136" y="369.2188">&#160;</text><text fill="#FFFFFF" font-family="sans-serif" font-size="16" font-weight="bold" lengthAdjust="spacing" textLength="70" x="140" y="369.2188">Directory</text></g><polygon fill="none" points="155,199.4709,158,191.4709,152,191.4709,155,199.4709" style="stroke:#666666;stroke-width:1.0;"/><path d="M155,131.8392 C155,152.9843 155,170.8113 155,191.4709 " fill="none" style="stroke:#666666;stroke-width:1.0;"/><text fill="#666666" font-family="sans-serif" font-size="12" font-weight="bold" lengthAdjust="spacing" textLength="29" x="164.5" y="163.0664">Uses</text><text fill="#666666" font-family="sans-serif" font-size="12" font-weight="bold" lengthAdjust="spacing" textLength="46" x="156" y="178.1602">[HTTPS]</text><polygon fill="none" points="155,342.3845,158,334.3845,152,334.3845,155,342.3845" style="stroke:#666666;stroke-width:1.0;"/><path d="M155,274.8291 C155,297.013 155,316.3851 155,334.3845 " fill="none" style="stroke:#666666;stroke-width:1.0;"/><text fill="#666666" font-family="sans-serif" font-size="12" font-weight="bold" lengthAdjust="spacing" textLength="29" x="161" y="306.0664">Uses</text><text fill="#666666" font-family="sans-serif" font-size="12" font-weight="bold" lengthAdjust="spacing" textLength="39" x="156" y="321.1602">[LDAP]</text><rect fill="none" height="17.6094" style="stroke:none;stroke-width:1.0;" width="78" x="124" y="395.6094"/><text fill="#000000" font-family="sans-serif" font-size="14" font-weight="bold" lengthAdjust="spacing" textLength="53" x="124" y="410.1426">Legend</text><text fill="#FFFFFF" font-family="sans-serif" font-size="14" lengthAdjust="spacing" textLength="4" x="177" y="410.1426">&#160;</text><rect fill="#08427B" height="17.6094" style="stroke:none;stroke-width:1.0;" width="78" x="124" y="413.2188"/><text fill="#073B6F" font-family="sans-serif" font-size="14" lengthAdjust="spacing" textLength="14" x="128" y="427.752">&#9647;</text><text fill="#FFFFFF" font-family="sans-serif" font-size="14" lengthAdjust="spacing" textLength="4" x="142" y="427.752">&#160;</text><text fill="#FFFFFF" font-family="sans-serif" font-size="14" lengthAdjust="spacing" textLength="44" x="150" y="427.752">person</text><text fill="#FFFFFF" font-family="sans-serif" font-size="14" lengthAdjust="spacing" textLength="4" x="198" y="427.752">&#160;</text><rect fill="#1168BD" height="17.6094" style="stroke:none;stroke-width:1.0;" width="78" x="124" y="430.8281"/><text fill="#3C7FC0" font-family="sans-serif" font-size="14" lengthAdjust="spacing" textLength="14" x="128" y="445.3613">&#9647;</text><text fill="#FFFFFF" font-family="sans-serif" font-size="14" lengthAdjust="spacing" textLength="4" x="142" y="445.3613">&#160;</text><text fill="#FFFFFF" font-family="sans-serif" font-size="14" lengthAdjust="spacing" textLength="44" x="150" y="445.3613">system</text><text fill="#FFFFFF" font-family="sans-serif" font-size="14" lengthAdjust="spacing" textLength="4" x="198" y="445.3613">&#160;</text><line style="stroke:none;stroke-width:1.0;" x1="124" x2="202" y1="395.6094" y2="395.6094"/><line style="stroke:none;stroke-width:1.0;" x1="124" x2="202" y1="413.2188" y2="413.2188"/><line style="stroke:none;stroke-width:1.0;" x1="124" x2="202" y1="430.8281" y2="430.8281"/><line style="stroke:none;stroke-width:1.0;" x1="124" x2="202" y1="448.4375" y2="448.4375"/><line style="stroke:none;stroke-width:1.0;" x1="124" x2="124" y1="395.6094" y2="448.4375"/><line style="stroke:none;stroke-width:1.0;" x1="202" x2="202" y1="395.6094" y2="448.4375"/><!--SRC=[dLBVRvim47xdht3ff0QfvIbFaVA0acoT50KKg9gfgP1d3e9cREliDEE_drqoGgHMoOQGkFku-xxxTQEGLWqbdBPoRuXkm511lPjQCBulW8JXzlYoiTxEnlbC2WE_JQZs3VUyg2WM71eG9gFLo6VZslx5ail3XDSbi9Pnc0Wu-FVaoyzg9hd4QOK0mlgbPUgGs_BzSJ4I2y3pEBsZXJpKefhwNodNu0VNoR8T5HKKGsc93hf2km_yNt64HhwTYoCKLoXtKH_8EjqryCjpTkivdo2l1GoGu3BLO7Odkdue9xuEke9mC8yJOTVhYStwji_qCNxEayKwZLTv4g-pTVGz6mNUCleHFsLv5YVvF7vUMSJJlsgXADA6E0xJAY1AyjOvdcTgmu4a89Nzf42HxSW3cOr9QgYfcRExKoOSti3USWAefHXbIEqoDc74Z4GTTkuzyJl3Dk3RPQIjDj3qiQaipO4YTF3Vf4sVjV47viNi9mquhn5S0QrDT3xfWMC5dfttPxLUBijIwgruUSoo97rzNmgjzFHEeJIIIJxP6QFqNN0cyYdRF_JXH9VpAFb8anTKMSdZ0ImNtnQh-IZu0m00]--></g></svg>