<?xml version="1.0" encoding="us-ascii" standalone="no"?><svg xmlns="http://www.w3.org/2000/svg" xmlns:xlink="http://www.w3.org/1999/xlink" contentStyleType="text/css" height="475px" preserveAspectRatio="none" style="width:294px;height:475px;background:#FFFFFF;" version="1.1" viewBox="0 0 294 475" width="294px" zoomAndPan="magnify"><defs/><g><text fill="#000000" font-family="sans-serif" font-size="14" font-weight="bold" lengthAdjust="spacing" textLength="240" x="10" y="24.5332">People Search - C4 - Context level</text><!--entity TraderX.Actors.Trader--><g id="elem_TraderX.Actors.Trader"><ellipse cx="133.5" cy="67.1094" fill="#08427B" rx="16" ry="16" style="stroke:#073B6F;stroke-width:0.5;"/><path d="M133.5,87.1094 C137.5,87.1094 140.5,87.1094 144.5,83.1094 C152.5,83.1094 160.5,91.1094 160.5,99.1094 L160.5,103.1094 C160.5,107.1094 156.5,111.1094 152.5,111.1094 L114.5,111.1094 C110.5,111.1094 106.5,107.1094 106.5,103.1094 L106.5,99.1094 C106.5,91.1094 114.5,83.1094 122.5,83.1094 C126.5,87.1094 129.5,87.1094 133.5,87.1094 " fill="#08427B" style="stroke:#073B6F;stroke-width:0.5;"/><text fill="#08427B" font-family="sans-serif" font-size="16" font-weight="bold" lengthAdjust="spacing" textLength="50" x="108.5" y="128.2188">Trader</text></g><!--entity TraderX.SoftwareSystems.TraderX--><g id="elem_TraderX.SoftwareSystems.TraderX"><rect fill="#1168BD" height="75.3438" rx="2.5" ry="2.5" style="stroke:#3C7FC0;stroke-width:0.5;" width="81" x="93" y="199.6094"/><text fill="#FFFFFF" font-family="sans-serif" font-size="16" font-weight="bold" lengthAdjust="spacing" textLength="61" x="103" y="226.2188">TraderX</text><text fill="#FFFFFF" font-family="sans-serif" font-size="14" lengthAdjust="spacing" textLength="4" x="131.5" y="244.2676">&#160;</text><text fill="#FFFFFF" font-family="sans-serif" font-size="14" lengthAdjust="spacing" textLength="51" x="108" y="261.877">TraderX</text></g><!--entity TraderX.SoftwareSystems.UserDirectory--><g id="elem_TraderX.SoftwareSystems.UserDirectory"><rect fill="#1168BD" height="40.125" rx="2.5" ry="2.5" style="stroke:#3C7FC0;stroke-width:0.5;" width="130" x="68.5" y="342.6094"/><text fill="#FFFFFF" font-family="sans-serif" font-size="16" font-weight="bold" lengthAdjust="spacing" textLength="36" x="78.5" y="369.2188">User</text><text fill="#FFFFFF" font-family="sans-serif" font-size="16" font-weight="bold" lengthAdjust="spacing" textLength="4" x="114.5" y="369.2188">&#160;</text><text fill="#FFFFFF" font-family="sans-serif" font-size="16" font-weight="bold" lengthAdjust="spacing" textLength="70" x="118.5" y="369.2188">Directory</text></g><polygon fill="none" points="133.5,199.4709,136.5,191.4709,130.5,191.4709,133.5,199.4709" style="stroke:#666666;stroke-width:1.0;"/><path d="M133.5,131.8392 C133.5,152.9843 133.5,170.8113 133.5,191.4709 " fill="none" style="stroke:#666666;stroke-width:1.0;"/><text fill="#666666" font-family="sans-serif" font-size="12" font-weight="bold" lengthAdjust="spacing" textLength="152" x="134.5" y="163.0664">Type Ahead People Search</text><text fill="#666666" font-family="sans-serif" font-size="12" font-weight="bold" lengthAdjust="spacing" textLength="46" x="187.5" y="178.1602">[HTTPS]</text><polygon fill="none" points="133.5,342.3845,136.5,334.3845,130.5,334.3845,133.5,342.3845" style="stroke:#666666;stroke-width:1.0;"/><path d="M133.5,274.8291 C133.5,297.013 133.5,316.3851 133.5,334.3845 " fill="none" style="stroke:#666666;stroke-width:1.0;"/><text fill="#666666" font-family="sans-serif" font-size="12" font-weight="bold" lengthAdjust="spacing" textLength="107" x="134.5" y="306.0664">Select People Data</text><text fill="#666666" font-family="sans-serif" font-size="12" font-weight="bold" lengthAdjust="spacing" textLength="39" x="168.5" y="321.1602">[LDAP]</text><rect fill="none" height="17.6094" style="stroke:none;stroke-width:1.0;" width="78" x="102.5" y="395.6094"/><text fill="#000000" font-family="sans-serif" font-size="14" font-weight="bold" lengthAdjust="spacing" textLength="53" x="102.5" y="410.1426">Legend</text><text fill="#FFFFFF" font-family="sans-serif" font-size="14" lengthAdjust="spacing" textLength="4" x="155.5" y="410.1426">&#160;</text><rect fill="#08427B" height="17.6094" style="stroke:none;stroke-width:1.0;" width="78" x="102.5" y="413.2188"/><text fill="#073B6F" font-family="sans-serif" font-size="14" lengthAdjust="spacing" textLength="14" x="106.5" y="427.752">&#9647;</text><text fill="#FFFFFF" font-family="sans-serif" font-size="14" lengthAdjust="spacing" textLength="4" x="120.5" y="427.752">&#160;</text><text fill="#FFFFFF" font-family="sans-serif" font-size="14" lengthAdjust="spacing" textLength="44" x="128.5" y="427.752">person</text><text fill="#FFFFFF" font-family="sans-serif" font-size="14" lengthAdjust="spacing" textLength="4" x="176.5" y="427.752">&#160;</text><rect fill="#1168BD" height="17.6094" style="stroke:none;stroke-width:1.0;" width="78" x="102.5" y="430.8281"/><text fill="#3C7FC0" font-family="sans-serif" font-size="14" lengthAdjust="spacing" textLength="14" x="106.5" y="445.3613">&#9647;</text><text fill="#FFFFFF" font-family="sans-serif" font-size="14" lengthAdjust="spacing" textLength="4" x="120.5" y="445.3613">&#160;</text><text fill="#FFFFFF" font-family="sans-serif" font-size="14" lengthAdjust="spacing" textLength="44" x="128.5" y="445.3613">system</text><text fill="#FFFFFF" font-family="sans-serif" font-size="14" lengthAdjust="spacing" textLength="4" x="176.5" y="445.3613">&#160;</text><line style="stroke:none;stroke-width:1.0;" x1="102.5" x2="180.5" y1="395.6094" y2="395.6094"/><line style="stroke:none;stroke-width:1.0;" x1="102.5" x2="180.5" y1="413.2188" y2="413.2188"/><line style="stroke:none;stroke-width:1.0;" x1="102.5" x2="180.5" y1="430.8281" y2="430.8281"/><line style="stroke:none;stroke-width:1.0;" x1="102.5" x2="180.5" y1="448.4375" y2="448.4375"/><line style="stroke:none;stroke-width:1.0;" x1="102.5" x2="102.5" y1="395.6094" y2="448.4375"/><line style="stroke:none;stroke-width:1.0;" x1="180.5" x2="180.5" y1="395.6094" y2="448.4375"/><!--SRC=[dL9TRwCm47pdLxYqKeFKyfIdI7b08NSzAGeeK3MdomdjmVAX6XlPJdFy-xDBIa1g5NG8WNUzEpEUzKqZeAY1K6ZvKH5Pem86rat5KdhCaBZkuVocStbOpPCLPmh_AhSvrjIol2nRKwoHgHYAcPtEAxqhSifF2rhbcBOfnGN3a_r0xluKAqwvM1O2aUaurqXTvZP_VqmD5ncASPqi8UEdYXLB-njGYROpZJOjWHMO3QcvCAa9t7tX_v8BhFdRc5nWDe6vg_g4rl3ka5xtsOndx22j60uopdMeWNSNkDwK2rwNcW0uyEC2s9trWgPZVSxeANX9mlKk2hP96EpYdVSZdZdMnliPFCT978I97xniTSQIhnLhG41D38Pg6oGDfwq9B4jLYY89aJVw5o68j2IFP3Ktd-uE4uflg2znY49oDei5w2diNIzLN4Yt2n-8tIsqSbjF8MgbmhglZNYkJY2mItyqxVkklJrONkr-bYZyIg0HqEf64vC-SLPWQQE_qZf1bZ79An6oiJK7zkifZiFez_k4e93B-qPmnLDE5wLIZRntHiHVCamzMuHKhpz4-A10IzZuNlYP0ff1emMSxyPc_NszzMVEFm00]--></g></svg>