<?xml version="1.0" encoding="us-ascii" standalone="no"?><svg xmlns="http://www.w3.org/2000/svg" xmlns:xlink="http://www.w3.org/1999/xlink" contentStyleType="text/css" height="650px" preserveAspectRatio="none" style="width:1014px;height:650px;background:#FFFFFF;" version="1.1" viewBox="0 0 1014 650" width="1014px" zoomAndPan="magnify"><defs/><g><text fill="#000000" font-family="sans-serif" font-size="14" font-weight="bold" lengthAdjust="spacing" textLength="326" x="331" y="24.5332">All Software Systems - C4 Static - Context level</text><!--entity ECommercePlatform.SoftwareSystems.BuyingAndMerchandisingApp--><g id="elem_ECommercePlatform.SoftwareSystems.BuyingAndMerchandisingApp"><rect fill="#1168BD" height="60.25" rx="2.5" ry="2.5" style="stroke:#3C7FC0;stroke-width:0.5;" width="168" x="6" y="236.6094"/><text fill="#FFFFFF" font-family="sans-serif" font-size="16" font-weight="bold" lengthAdjust="spacing" textLength="55" x="45" y="263.2188">Buying</text><text fill="#FFFFFF" font-family="sans-serif" font-size="16" font-weight="bold" lengthAdjust="spacing" textLength="4" x="100" y="263.2188">&#160;</text><text fill="#FFFFFF" font-family="sans-serif" font-size="16" font-weight="bold" lengthAdjust="spacing" textLength="31" x="104" y="263.2188">And</text><text fill="#FFFFFF" font-family="sans-serif" font-size="16" font-weight="bold" lengthAdjust="spacing" textLength="113" x="16" y="283.3438">Merchandising</text><text fill="#FFFFFF" font-family="sans-serif" font-size="16" font-weight="bold" lengthAdjust="spacing" textLength="4" x="129" y="283.3438">&#160;</text><text fill="#FFFFFF" font-family="sans-serif" font-size="16" font-weight="bold" lengthAdjust="spacing" textLength="31" x="133" y="283.3438">App</text></g><!--entity ECommercePlatform.SoftwareSystems.BuyingService--><g id="elem_ECommercePlatform.SoftwareSystems.BuyingService"><rect fill="#1168BD" height="40.125" rx="2.5" ry="2.5" style="stroke:#3C7FC0;stroke-width:0.5;" width="136" x="218" y="442.6094"/><text fill="#FFFFFF" font-family="sans-serif" font-size="16" font-weight="bold" lengthAdjust="spacing" textLength="55" x="228" y="469.2188">Buying</text><text fill="#FFFFFF" font-family="sans-serif" font-size="16" font-weight="bold" lengthAdjust="spacing" textLength="4" x="283" y="469.2188">&#160;</text><text fill="#FFFFFF" font-family="sans-serif" font-size="16" font-weight="bold" lengthAdjust="spacing" textLength="57" x="287" y="469.2188">Service</text></g><!--entity ECommercePlatform.SoftwareSystems.PricingService--><g id="elem_ECommercePlatform.SoftwareSystems.PricingService"><rect fill="#1168BD" height="40.125" rx="2.5" ry="2.5" style="stroke:#3C7FC0;stroke-width:0.5;" width="135" x="139.5" y="349.6094"/><text fill="#FFFFFF" font-family="sans-serif" font-size="16" font-weight="bold" lengthAdjust="spacing" textLength="54" x="149.5" y="376.2188">Pricing</text><text fill="#FFFFFF" font-family="sans-serif" font-size="16" font-weight="bold" lengthAdjust="spacing" textLength="4" x="203.5" y="376.2188">&#160;</text><text fill="#FFFFFF" font-family="sans-serif" font-size="16" font-weight="bold" lengthAdjust="spacing" textLength="57" x="207.5" y="376.2188">Service</text></g><!--entity ECommercePlatform.SoftwareSystems.CRMApp--><g id="elem_ECommercePlatform.SoftwareSystems.CRMApp"><rect fill="#1168BD" height="40.125" rx="2.5" ry="2.5" style="stroke:#3C7FC0;stroke-width:0.5;" width="92" x="667" y="246.6094"/><text fill="#FFFFFF" font-family="sans-serif" font-size="16" font-weight="bold" lengthAdjust="spacing" textLength="37" x="677" y="273.2188">CRM</text><text fill="#FFFFFF" font-family="sans-serif" font-size="16" font-weight="bold" lengthAdjust="spacing" textLength="4" x="714" y="273.2188">&#160;</text><text fill="#FFFFFF" font-family="sans-serif" font-size="16" font-weight="bold" lengthAdjust="spacing" textLength="31" x="718" y="273.2188">App</text></g><!--entity ECommercePlatform.SoftwareSystems.FraudService--><g id="elem_ECommercePlatform.SoftwareSystems.FraudService"><rect fill="#1168BD" height="40.125" rx="2.5" ry="2.5" style="stroke:#3C7FC0;stroke-width:0.5;" width="126" x="647" y="349.6094"/><text fill="#FFFFFF" font-family="sans-serif" font-size="16" font-weight="bold" lengthAdjust="spacing" textLength="45" x="657" y="376.2188">Fraud</text><text fill="#FFFFFF" font-family="sans-serif" font-size="16" font-weight="bold" lengthAdjust="spacing" textLength="4" x="702" y="376.2188">&#160;</text><text fill="#FFFFFF" font-family="sans-serif" font-size="16" font-weight="bold" lengthAdjust="spacing" textLength="57" x="706" y="376.2188">Service</text></g><!--entity ECommercePlatform.SoftwareSystems.FraudEngine--><g id="elem_ECommercePlatform.SoftwareSystems.FraudEngine"><rect fill="#1168BD" height="40.125" rx="2.5" ry="2.5" style="stroke:#3C7FC0;stroke-width:0.5;" width="123" x="647.5" y="442.6094"/><text fill="#FFFFFF" font-family="sans-serif" font-size="16" font-weight="bold" lengthAdjust="spacing" textLength="45" x="657.5" y="469.2188">Fraud</text><text fill="#FFFFFF" font-family="sans-serif" font-size="16" font-weight="bold" lengthAdjust="spacing" textLength="4" x="702.5" y="469.2188">&#160;</text><text fill="#FFFFFF" font-family="sans-serif" font-size="16" font-weight="bold" lengthAdjust="spacing" textLength="54" x="706.5" y="469.2188">Engine</text></g><!--entity ECommercePlatform.SoftwareSystems.PaymentProvider--><g id="elem_ECommercePlatform.SoftwareSystems.PaymentProvider"><rect fill="#1168BD" height="40.125" rx="2.5" ry="2.5" style="stroke:#3C7FC0;stroke-width:0.5;" width="156" x="789" y="442.6094"/><text fill="#FFFFFF" font-family="sans-serif" font-size="16" font-weight="bold" lengthAdjust="spacing" textLength="67" x="799" y="469.2188">Payment</text><text fill="#FFFFFF" font-family="sans-serif" font-size="16" font-weight="bold" lengthAdjust="spacing" textLength="4" x="866" y="469.2188">&#160;</text><text fill="#FFFFFF" font-family="sans-serif" font-size="16" font-weight="bold" lengthAdjust="spacing" textLength="65" x="870" y="469.2188">Provider</text></g><!--entity ECommercePlatform.SoftwareSystems.PIMApp--><g id="elem_ECommercePlatform.SoftwareSystems.PIMApp"><rect fill="#1168BD" height="40.125" rx="2.5" ry="2.5" style="stroke:#3C7FC0;stroke-width:0.5;" width="83" x="413.5" y="246.6094"/><text fill="#FFFFFF" font-family="sans-serif" font-size="16" font-weight="bold" lengthAdjust="spacing" textLength="28" x="423.5" y="273.2188">PIM</text><text fill="#FFFFFF" font-family="sans-serif" font-size="16" font-weight="bold" lengthAdjust="spacing" textLength="4" x="451.5" y="273.2188">&#160;</text><text fill="#FFFFFF" font-family="sans-serif" font-size="16" font-weight="bold" lengthAdjust="spacing" textLength="31" x="455.5" y="273.2188">App</text></g><!--entity ECommercePlatform.SoftwareSystems.ProductService--><g id="elem_ECommercePlatform.SoftwareSystems.ProductService"><rect fill="#1168BD" height="40.125" rx="2.5" ry="2.5" style="stroke:#3C7FC0;stroke-width:0.5;" width="142" x="293" y="349.6094"/><text fill="#FFFFFF" font-family="sans-serif" font-size="16" font-weight="bold" lengthAdjust="spacing" textLength="61" x="303" y="376.2188">Product</text><text fill="#FFFFFF" font-family="sans-serif" font-size="16" font-weight="bold" lengthAdjust="spacing" textLength="4" x="364" y="376.2188">&#160;</text><text fill="#FFFFFF" font-family="sans-serif" font-size="16" font-weight="bold" lengthAdjust="spacing" textLength="57" x="368" y="376.2188">Service</text></g><!--entity ECommercePlatform.SoftwareSystems.StorefrontApp--><g id="elem_ECommercePlatform.SoftwareSystems.StorefrontApp"><rect fill="#1168BD" height="40.125" rx="2.5" ry="2.5" style="stroke:#3C7FC0;stroke-width:0.5;" width="132" x="407" y="50.6094"/><text fill="#FFFFFF" font-family="sans-serif" font-size="16" font-weight="bold" lengthAdjust="spacing" textLength="77" x="417" y="77.2188">Storefront</text><text fill="#FFFFFF" font-family="sans-serif" font-size="16" font-weight="bold" lengthAdjust="spacing" textLength="4" x="494" y="77.2188">&#160;</text><text fill="#FFFFFF" font-family="sans-serif" font-size="16" font-weight="bold" lengthAdjust="spacing" textLength="31" x="498" y="77.2188">App</text></g><!--entity ECommercePlatform.SoftwareSystems.StorefrontBff--><g id="elem_ECommercePlatform.SoftwareSystems.StorefrontBff"><rect fill="#1168BD" height="40.125" rx="2.5" ry="2.5" style="stroke:#3C7FC0;stroke-width:0.5;" width="123" x="411.5" y="143.6094"/><text fill="#FFFFFF" font-family="sans-serif" font-size="16" font-weight="bold" lengthAdjust="spacing" textLength="77" x="421.5" y="170.2188">Storefront</text><text fill="#FFFFFF" font-family="sans-serif" font-size="16" font-weight="bold" lengthAdjust="spacing" textLength="4" x="498.5" y="170.2188">&#160;</text><text fill="#FFFFFF" font-family="sans-serif" font-size="16" font-weight="bold" lengthAdjust="spacing" textLength="22" x="502.5" y="170.2188">Bff</text></g><!--entity ECommercePlatform.SoftwareSystems.SearchService--><g id="elem_ECommercePlatform.SoftwareSystems.SearchService"><rect fill="#1168BD" height="40.125" rx="2.5" ry="2.5" style="stroke:#3C7FC0;stroke-width:0.5;" width="135" x="192.5" y="246.6094"/><text fill="#FFFFFF" font-family="sans-serif" font-size="16" font-weight="bold" lengthAdjust="spacing" textLength="54" x="202.5" y="273.2188">Search</text><text fill="#FFFFFF" font-family="sans-serif" font-size="16" font-weight="bold" lengthAdjust="spacing" textLength="4" x="256.5" y="273.2188">&#160;</text><text fill="#FFFFFF" font-family="sans-serif" font-size="16" font-weight="bold" lengthAdjust="spacing" textLength="57" x="260.5" y="273.2188">Service</text></g><!--entity ECommercePlatform.SoftwareSystems.BasketService--><g id="elem_ECommercePlatform.SoftwareSystems.BasketService"><rect fill="#1168BD" height="40.125" rx="2.5" ry="2.5" style="stroke:#3C7FC0;stroke-width:0.5;" width="134" x="515" y="246.6094"/><text fill="#FFFFFF" font-family="sans-serif" font-size="16" font-weight="bold" lengthAdjust="spacing" textLength="53" x="525" y="273.2188">Basket</text><text fill="#FFFFFF" font-family="sans-serif" font-size="16" font-weight="bold" lengthAdjust="spacing" textLength="4" x="578" y="273.2188">&#160;</text><text fill="#FFFFFF" font-family="sans-serif" font-size="16" font-weight="bold" lengthAdjust="spacing" textLength="57" x="582" y="273.2188">Service</text></g><!--entity ECommercePlatform.SoftwareSystems.OrderService--><g id="elem_ECommercePlatform.SoftwareSystems.OrderService"><rect fill="#1168BD" height="40.125" rx="2.5" ry="2.5" style="stroke:#3C7FC0;stroke-width:0.5;" width="124" x="795" y="246.6094"/><text fill="#FFFFFF" font-family="sans-serif" font-size="16" font-weight="bold" lengthAdjust="spacing" textLength="43" x="805" y="273.2188">Order</text><text fill="#FFFFFF" font-family="sans-serif" font-size="16" font-weight="bold" lengthAdjust="spacing" textLength="4" x="848" y="273.2188">&#160;</text><text fill="#FFFFFF" font-family="sans-serif" font-size="16" font-weight="bold" lengthAdjust="spacing" textLength="57" x="852" y="273.2188">Service</text></g><!--entity ECommercePlatform.SoftwareSystems.WMS--><g id="elem_ECommercePlatform.SoftwareSystems.WMS"><rect fill="#1168BD" height="40.125" rx="2.5" ry="2.5" style="stroke:#3C7FC0;stroke-width:0.5;" width="59" x="775.5" y="535.6094"/><text fill="#FFFFFF" font-family="sans-serif" font-size="16" font-weight="bold" lengthAdjust="spacing" textLength="39" x="785.5" y="562.2188">WMS</text></g><!--entity ECommercePlatform.SoftwareSystems.FulfilmentService--><g id="elem_ECommercePlatform.SoftwareSystems.FulfilmentService"><rect fill="#1168BD" height="40.125" rx="2.5" ry="2.5" style="stroke:#3C7FC0;stroke-width:0.5;" width="156" x="833" y="143.6094"/><text fill="#FFFFFF" font-family="sans-serif" font-size="16" font-weight="bold" lengthAdjust="spacing" textLength="75" x="843" y="170.2188">Fulfilment</text><text fill="#FFFFFF" font-family="sans-serif" font-size="16" font-weight="bold" lengthAdjust="spacing" textLength="4" x="918" y="170.2188">&#160;</text><text fill="#FFFFFF" font-family="sans-serif" font-size="16" font-weight="bold" lengthAdjust="spacing" textLength="57" x="922" y="170.2188">Service</text></g><!--entity ECommercePlatform.SoftwareSystems.PaymentService--><g id="elem_ECommercePlatform.SoftwareSystems.PaymentService"><rect fill="#1168BD" height="40.125" rx="2.5" ry="2.5" style="stroke:#3C7FC0;stroke-width:0.5;" width="148" x="792" y="349.6094"/><text fill="#FFFFFF" font-family="sans-serif" font-size="16" font-weight="bold" lengthAdjust="spacing" textLength="67" x="802" y="376.2188">Payment</text><text fill="#FFFFFF" font-family="sans-serif" font-size="16" font-weight="bold" lengthAdjust="spacing" textLength="4" x="869" y="376.2188">&#160;</text><text fill="#FFFFFF" font-family="sans-serif" font-size="16" font-weight="bold" lengthAdjust="spacing" textLength="57" x="873" y="376.2188">Service</text></g><polygon fill="none" points="217.9978,453.644,210.7807,449.0708,209.5533,454.9439,217.9978,453.644" style="stroke:#666666;stroke-width:1.0;"/><path d="M84.0086,296.7341 C80.2324,323.5208 79.2552,363.0042 99,389.6094 C126.7813,427.0435 168.8838,443.3792 210.167,452.0073 " fill="none" style="stroke:#666666;stroke-width:1.0;"/><text fill="#666666" font-family="sans-serif" font-size="12" font-weight="bold" lengthAdjust="spacing" textLength="29" x="100" y="374.5664">Uses</text><polygon fill="none" points="184.6941,349.3538,180.5987,341.8553,176.678,346.3971,184.6941,349.3538" style="stroke:#666666;stroke-width:1.0;"/><path d="M123.8412,296.8228 C143.4132,313.7182 161.4367,329.2769 178.6383,344.1262 " fill="none" style="stroke:#666666;stroke-width:1.0;"/><text fill="#666666" font-family="sans-serif" font-size="12" font-weight="bold" lengthAdjust="spacing" textLength="29" x="164" y="328.0664">Uses</text><polygon fill="none" points="706.9133,349.4554,708.7949,341.1211,702.8509,341.9389,706.9133,349.4554" style="stroke:#666666;stroke-width:1.0;"/><path d="M708.9948,286.7244 C707.4094,295.2212 705.7805,305.372 705,314.6094 C704.3638,322.1381 704.4929,324.0709 705,331.6094 C705.3915,337.43 705.0353,335.8057 705.8229,341.53 " fill="none" style="stroke:#666666;stroke-width:1.0;"/><text fill="#666666" font-family="sans-serif" font-size="12" font-weight="bold" lengthAdjust="spacing" textLength="29" x="706" y="328.0664">Uses</text><polygon fill="none" points="381.1832,349.5379,388.767,345.6026,384.3094,341.5863,381.1832,349.5379" style="stroke:#666666;stroke-width:1.0;"/><path d="M437.4543,287.0832 C421.237,305.0826 402.639,325.7243 386.5382,343.5944 " fill="none" style="stroke:#666666;stroke-width:1.0;"/><text fill="#666666" font-family="sans-serif" font-size="12" font-weight="bold" lengthAdjust="spacing" textLength="29" x="414" y="328.0664">Uses</text><polygon fill="none" points="473,143.3384,476,135.3384,470,135.3384,473,143.3384" style="stroke:#666666;stroke-width:1.0;"/><path d="M473,90.9081 C473,106.3511 473,119.9028 473,135.3384 " fill="none" style="stroke:#666666;stroke-width:1.0;"/><text fill="#666666" font-family="sans-serif" font-size="12" font-weight="bold" lengthAdjust="spacing" textLength="29" x="474" y="122.0664">Uses</text><polygon fill="none" points="360.4641,349.2665,362.2857,340.919,356.3478,341.7795,360.4641,349.2665" style="stroke:#666666;stroke-width:1.0;"/><path d="M431.1946,183.659 C409.9477,195.6655 385.9423,213.3311 373,236.6094 C353.1322,272.344 355.3945,314.2845 359.3168,341.3492 " fill="none" style="stroke:#666666;stroke-width:1.0;"/><text fill="#666666" font-family="sans-serif" font-size="12" font-weight="bold" lengthAdjust="spacing" textLength="29" x="374" y="271.5664">Uses</text><polygon fill="none" points="272.7796,246.5026,279.943,241.8457,275.1146,238.2838,272.7796,246.5026" style="stroke:#666666;stroke-width:1.0;"/><path d="M411.387,170.9514 C381.8854,176.0366 346.9801,185.1812 319,201.6094 C299.9734,212.7806 288.208,225.5882 277.5288,240.0647 " fill="none" style="stroke:#666666;stroke-width:1.0;"/><text fill="#666666" font-family="sans-serif" font-size="12" font-weight="bold" lengthAdjust="spacing" textLength="29" x="320" y="215.0664">Uses</text><polygon fill="none" points="561.3187,246.4459,557.4896,238.808,553.4115,243.2091,561.3187,246.4459" style="stroke:#666666;stroke-width:1.0;"/><path d="M493.7586,183.8444 C513.1539,201.8162 536.0803,223.06 555.4506,241.0085 " fill="none" style="stroke:#666666;stroke-width:1.0;"/><text fill="#666666" font-family="sans-serif" font-size="12" font-weight="bold" lengthAdjust="spacing" textLength="29" x="532" y="215.0664">Uses</text><polygon fill="none" points="800.6992,246.5535,793.9931,241.2593,792.1656,246.9743,800.6992,246.5535" style="stroke:#666666;stroke-width:1.0;"/><path d="M534.6569,178.2282 C594.5859,191.8012 688.0109,213.8512 768,236.6094 C778.6288,239.6334 782.2708,240.6604 793.0793,244.1168 " fill="none" style="stroke:#666666;stroke-width:1.0;"/><text fill="#666666" font-family="sans-serif" font-size="12" font-weight="bold" lengthAdjust="spacing" textLength="29" x="697" y="215.0664">Uses</text><polygon fill="none" points="775.4563,549.4293,768.0947,545.0927,767.0584,551.0026,775.4563,549.4293" style="stroke:#666666;stroke-width:1.0;"/><path d="M354.1168,475.5528 C468.522,495.6123 686.7923,533.8832 767.5766,548.0477 " fill="none" style="stroke:#666666;stroke-width:1.0;"/><text fill="#666666" font-family="sans-serif" font-size="12" font-weight="bold" lengthAdjust="spacing" textLength="29" x="593" y="514.0664">Uses</text><polygon fill="none" points="840.2061,286.7315,832.5608,290.5459,836.9541,294.6324,840.2061,286.7315" style="stroke:#666666;stroke-width:1.0;"/><path d="M757.9366,349.565 C768.8539,344.3869 780.1344,338.3277 790,331.6094 C808.8801,318.7523 821.9808,306.3248 834.7574,292.5892 " fill="none" style="stroke:#666666;stroke-width:1.0;"/><text fill="#666666" font-family="sans-serif" font-size="12" font-weight="bold" lengthAdjust="spacing" textLength="29" x="812" y="328.0664">Uses</text><polygon fill="none" points="709.2118,442.3384,712.2995,434.3719,706.2999,434.306,709.2118,442.3384" style="stroke:#666666;stroke-width:1.0;"/><path d="M709.7879,389.9081 C709.6182,405.3511 709.4693,418.9033 709.2997,434.3389 " fill="none" style="stroke:#666666;stroke-width:1.0;"/><text fill="#666666" font-family="sans-serif" font-size="12" font-weight="bold" lengthAdjust="spacing" textLength="29" x="711" y="421.0664">Uses</text><polygon fill="none" points="871.3446,246.5222,878.4165,241.7276,873.5202,238.2598,871.3446,246.5222" style="stroke:#666666;stroke-width:1.0;"/><path d="M904.3119,183.7984 C900.3665,194.3222 894.9811,207.4582 889,218.6094 C883.8675,228.1784 881.8613,231.6732 875.9684,239.9937 " fill="none" style="stroke:#666666;stroke-width:1.0;"/><text fill="#666666" font-family="sans-serif" font-size="12" font-weight="bold" lengthAdjust="spacing" textLength="29" x="898" y="215.0664">Uses</text><polygon fill="none" points="834.7859,552.1409,843.0859,554.1684,842.3725,548.2109,834.7859,552.1409" style="stroke:#666666;stroke-width:1.0;"/><path d="M933.006,183.9126 C951.863,202.6907 976,233.08 976,265.6094 C976,265.6094 976,265.6094 976,463.6094 C976,526.8328 891.7218,545.3225 842.7292,551.1896 " fill="none" style="stroke:#666666;stroke-width:1.0;"/><text fill="#666666" font-family="sans-serif" font-size="12" font-weight="bold" lengthAdjust="spacing" textLength="29" x="977" y="374.5664">Uses</text><polygon fill="none" points="722.6335,349.5141,729.7643,344.8075,724.9113,341.2793,722.6335,349.5141" style="stroke:#666666;stroke-width:1.0;"/><path d="M804.159,286.6261 C787.5385,293.9645 769.7017,303.3418 755,314.6094 C742.3114,324.3341 735.5295,331.7757 727.3378,343.0434 " fill="none" style="stroke:#666666;stroke-width:1.0;"/><text fill="#666666" font-family="sans-serif" font-size="12" font-weight="bold" lengthAdjust="spacing" textLength="29" x="756" y="328.0664">Uses</text><polygon fill="none" points="887.3845,349.4489,894.8496,345.2928,890.2761,341.4091,887.3845,349.4489" style="stroke:#666666;stroke-width:1.0;"/><path d="M879.4513,286.9436 C886.8267,294.7055 894.1231,304.2675 898,314.6094 C902.5903,326.8542 901.0242,333.3868 892.5628,343.3509 " fill="none" style="stroke:#666666;stroke-width:1.0;"/><text fill="#666666" font-family="sans-serif" font-size="12" font-weight="bold" lengthAdjust="spacing" textLength="29" x="901" y="328.0664">Uses</text><polygon fill="none" points="870.1232,183.7582,861.9298,186.1803,865.5427,190.9706,870.1232,183.7582" style="stroke:#666666;stroke-width:1.0;"/><path d="M851.1325,246.5255 C848.162,233.1518 846.568,215.2941 854,201.6094 C857.8287,194.5594 857.2582,193.4614 863.7362,188.5754 " fill="none" style="stroke:#666666;stroke-width:1.0;"/><text fill="#666666" font-family="sans-serif" font-size="12" font-weight="bold" lengthAdjust="spacing" textLength="29" x="855" y="215.0664">Uses</text><polygon fill="none" points="858.7353,287.0832,856.4572,295.3179,862.4335,294.7853,858.7353,287.0832" style="stroke:#666666;stroke-width:1.0;"/><path d="M864.3006,349.5379 C862.7082,331.6678 861.0493,313.0511 859.4453,295.0516 " fill="none" style="stroke:#666666;stroke-width:1.0;"/><text fill="#666666" font-family="sans-serif" font-size="12" font-weight="bold" lengthAdjust="spacing" textLength="29" x="864" y="328.0664">Uses</text><polygon fill="none" points="866.7882,442.3384,869.7001,434.306,863.7005,434.3719,866.7882,442.3384" style="stroke:#666666;stroke-width:1.0;"/><path d="M866.2121,389.9081 C866.3818,405.3511 866.5307,418.9033 866.7003,434.3389 " fill="none" style="stroke:#666666;stroke-width:1.0;"/><text fill="#666666" font-family="sans-serif" font-size="12" font-weight="bold" lengthAdjust="spacing" textLength="29" x="868" y="421.0664">Uses</text><polygon fill="none" points="269.2703,442.3384,266.2912,434.3306,261.7604,438.264,269.2703,442.3384" style="stroke:#666666;stroke-width:1.0;"/><path d="M223.7539,389.9081 C237.1604,405.3511 250.6256,420.8616 264.0258,436.2973 " fill="none" style="stroke:#666666;stroke-width:1.0;"/><text fill="#666666" font-family="sans-serif" font-size="12" font-weight="bold" lengthAdjust="spacing" textLength="29" x="255" y="421.0664">Uses</text><polygon fill="none" points="302.5179,442.3384,310.0021,438.2168,305.4465,434.312,302.5179,442.3384" style="stroke:#666666;stroke-width:1.0;"/><path d="M347.4582,389.9081 C334.2213,405.3511 320.9548,420.8287 307.7243,436.2644 " fill="none" style="stroke:#666666;stroke-width:1.0;"/><text fill="#666666" font-family="sans-serif" font-size="12" font-weight="bold" lengthAdjust="spacing" textLength="29" x="333" y="421.0664">Uses</text><polygon fill="none" points="217.0078,349.5379,223.3816,343.8479,218.0687,341.06,217.0078,349.5379" style="stroke:#666666;stroke-width:1.0;"/><path d="M249.7811,287.0832 C240.3358,305.0826 230.1025,324.5839 220.7251,342.454 " fill="none" style="stroke:#666666;stroke-width:1.0;"/><text fill="#666666" font-family="sans-serif" font-size="12" font-weight="bold" lengthAdjust="spacing" textLength="29" x="237" y="328.0664">Uses</text><polygon fill="none" points="339.1871,349.2339,334.9104,341.8373,331.1014,346.4733,339.1871,349.2339" style="stroke:#666666;stroke-width:1.0;"/><path d="M276.3884,286.7376 C287.8814,299.8075 303.8419,317.2862 319,331.6094 C325.3222,337.5834 326.2939,338.6406 333.0059,344.1553 " fill="none" style="stroke:#666666;stroke-width:1.0;"/><text fill="#666666" font-family="sans-serif" font-size="12" font-weight="bold" lengthAdjust="spacing" textLength="29" x="320" y="328.0664">Uses</text><rect fill="none" height="17.6094" style="stroke:none;stroke-width:1.0;" width="78" x="893" y="588.6094"/><text fill="#000000" font-family="sans-serif" font-size="14" font-weight="bold" lengthAdjust="spacing" textLength="53" x="893" y="603.1426">Legend</text><text fill="#FFFFFF" font-family="sans-serif" font-size="14" lengthAdjust="spacing" textLength="4" x="946" y="603.1426">&#160;</text><rect fill="#1168BD" height="17.6094" style="stroke:none;stroke-width:1.0;" width="78" x="893" y="606.2188"/><text fill="#3C7FC0" font-family="sans-serif" font-size="14" lengthAdjust="spacing" textLength="14" x="897" y="620.752">&#9647;</text><text fill="#FFFFFF" font-family="sans-serif" font-size="14" lengthAdjust="spacing" textLength="4" x="911" y="620.752">&#160;</text><text fill="#FFFFFF" font-family="sans-serif" font-size="14" lengthAdjust="spacing" textLength="44" x="919" y="620.752">system</text><text fill="#FFFFFF" font-family="sans-serif" font-size="14" lengthAdjust="spacing" textLength="4" x="967" y="620.752">&#160;</text><line style="stroke:none;stroke-width:1.0;" x1="893" x2="971" y1="588.6094" y2="588.6094"/><line style="stroke:none;stroke-width:1.0;" x1="893" x2="971" y1="606.2188" y2="606.2188"/><line style="stroke:none;stroke-width:1.0;" x1="893" x2="971" y1="623.8281" y2="623.8281"/><line style="stroke:none;stroke-width:1.0;" x1="893" x2="893" y1="588.6094" y2="623.8281"/><line style="stroke:none;stroke-width:1.0;" x1="971" x2="971" y1="588.6094" y2="623.8281"/><!--SRC=[lLTDR-8m4BtdLxZi7a3gSk9KgGTAwMwbja64gggq4l8cazIg4qUE0vj_lsCCv8DAnLwb791dRB_d6O-VdOjSqYIbXDDAb8eKAIYQKU-2PI4l8o3ZS5BydatMCv4f-Al6UPbopvj6qPn32fbQqMGu22SCUsNCnVQAinZ2AkHmbS5sS4c-_qbcWWjvdKY03EqOaOpdMxpxwJ52HY3Ruuet6eajovBhmHtb1Gn6vz66RpHB86fI2wbTPt0V1xgIIqZ5faqk8Jg3sOpwW5RpBe5_dcUzFUqCSfP1mpFw7AgHknhkc9GQpxZE06paemOqiTPeQ6ESmI__PRsOBmF_QRtmbwlbz7ur77aFqrV_URLU-OlrhV_oX1wlU6TPJYLDYSPGLGua5xpIXkSffZYGAUSa4B7QKWaag0e5QK5-aDc418eg5kgsgMZ2OGDOqcRGS3uJQGeoX0MdAXOo7HzWzYZZcxB23PfcqICEmtn5hD1sdb-IWUaZs4bQlGIxCGS3t4zBdW3aXeLGO-yTjcWBoS8MtDxXYZTRFfgGiU4ItPsaPLIlPcUwhcKtUPubkFz7A6DQPubM-e0lfDWmF9ewJSP33YvhnFjzdh3XaYVaZSfGDVTjvt3DLQ24X5XYxPjbrRRBwkhPDrhHccZei4O3YcUc3jNOhf7UqE8T6eapjYkQhwMw1jkPhbWlZm7Em7_hGYzvpBYknyR9EVgSfS6KUAF4zZNVnlDGwVzF7kqrxxc00gc_WFb47wse3sfehNjMB0SjSL0DAvwEHjZBW2FRRlBN1NScNLUL-cNhgbQ_R1rLSpXknyddofuLH_kqz1kFBLVxrM57TQhZFSVcGkYmN-qrzgk6jbmdrro_aNrmLTk9VMUv_HQ8FTlfKzcEi7FVzlmswDuPFTDrxeo-dnyET1zVeVkly8Vvp_dJxN3q3m00]--></g></svg>