<?xml version="1.0" encoding="us-ascii" standalone="no"?><svg xmlns="http://www.w3.org/2000/svg" xmlns:xlink="http://www.w3.org/1999/xlink" contentStyleType="text/css" height="258px" preserveAspectRatio="none" style="width:880px;height:258px;background:#FFFFFF;" version="1.1" viewBox="0 0 880 258" width="880px" zoomAndPan="magnify"><defs/><g><text fill="#000000" font-family="sans-serif" font-size="14" font-weight="bold" lengthAdjust="spacing" textLength="852" x="10" y="29.5332">E Commerce Platform - Generate Demand - Basket - Basket Service - Database - Select Items - Sequence - Container level</text><rect fill="#FFFFFF" height="200.9219" style="stroke:#181818;stroke-width:0.5;" width="100" x="434.5" y="44.6094"/><text fill="#000000" font-family="sans-serif" font-size="13" font-weight="bold" lengthAdjust="spacing" textLength="94" x="437.5" y="58.1045">Basket Service</text><line style="stroke:#181818;stroke-width:0.5;stroke-dasharray:5.0,5.0;" x1="374.5" x2="374.5" y1="128.5703" y2="178.9219"/><line style="stroke:#181818;stroke-width:0.5;stroke-dasharray:5.0,5.0;" x1="484" x2="484" y1="128.5703" y2="178.9219"/><rect fill="#E2E2F0" height="31.6094" rx="2.5" ry="2.5" style="stroke:#181818;stroke-width:0.5;" width="65" x="342.5" y="95.9609"/><text fill="#000000" font-family="sans-serif" font-size="14" lengthAdjust="spacing" textLength="51" x="349.5" y="117.4941">External</text><rect fill="#E2E2F0" height="31.6094" rx="2.5" ry="2.5" style="stroke:#181818;stroke-width:0.5;" width="65" x="342.5" y="177.9219"/><text fill="#000000" font-family="sans-serif" font-size="14" lengthAdjust="spacing" textLength="51" x="349.5" y="199.4551">External</text><text fill="#000000" font-family="sans-serif" font-size="14" lengthAdjust="spacing" textLength="61" x="451" y="125.4941">Database</text><path d="M466.5,74.9609 C466.5,64.9609 484.5,64.9609 484.5,64.9609 C484.5,64.9609 502.5,64.9609 502.5,74.9609 L502.5,100.9609 C502.5,110.9609 484.5,110.9609 484.5,110.9609 C484.5,110.9609 466.5,110.9609 466.5,100.9609 L466.5,74.9609 " fill="#E2E2F0" style="stroke:#181818;stroke-width:1.5;"/><path d="M466.5,74.9609 C466.5,84.9609 484.5,84.9609 484.5,84.9609 C484.5,84.9609 502.5,84.9609 502.5,74.9609 " fill="none" style="stroke:#181818;stroke-width:1.5;"/><text fill="#000000" font-family="sans-serif" font-size="14" lengthAdjust="spacing" textLength="61" x="451" y="192.4551">Database</text><path d="M466.5,205.5313 C466.5,195.5313 484.5,195.5313 484.5,195.5313 C484.5,195.5313 502.5,195.5313 502.5,205.5313 L502.5,231.5313 C502.5,241.5313 484.5,241.5313 484.5,241.5313 C484.5,241.5313 466.5,241.5313 466.5,231.5313 L466.5,205.5313 " fill="#E2E2F0" style="stroke:#181818;stroke-width:1.5;"/><path d="M466.5,205.5313 C466.5,215.5313 484.5,215.5313 484.5,215.5313 C484.5,215.5313 502.5,215.5313 502.5,205.5313 " fill="none" style="stroke:#181818;stroke-width:1.5;"/><polygon fill="#181818" points="472.5,156.9219,482.5,160.9219,472.5,164.9219,476.5,160.9219" style="stroke:#181818;stroke-width:1.0;"/><line style="stroke:#181818;stroke-width:1.0;" x1="375" x2="478.5" y1="160.9219" y2="160.9219"/><text fill="#000000" font-family="sans-serif" font-size="13" lengthAdjust="spacing" textLength="73" x="382" y="156.0654">Select Items</text><!--SRC=[jP6zJWCn48JxVOgLgSyL5GK5bmEbGxg2UdEP20l_9FQIXBV7kSEWY8O6LxkhzSnyjZhru87x50Bo17xsehkK0tVyX8Wi2buXIDpMoOEKD-XFCI8VNRtKyKfKDb8kvGYFINcj26Lk3- -8yrAVeegheknnX2VQIrOtkRr4PJES5JcADoo5-zjrhEsZJoSxffsU96FyA1TDsnQNdcYJpcok4nc-UNbr2k9wjYsRQIbdYw4nDsJRW1TUkqZ-ib_6NqRscwdOfaweZrL34T7VCRYx_xz4V7VrAqIV]--></g></svg>