<?xml version="1.0" encoding="us-ascii" standalone="no"?><svg xmlns="http://www.w3.org/2000/svg" xmlns:xlink="http://www.w3.org/1999/xlink" contentStyleType="text/css" height="373px" preserveAspectRatio="none" style="width:749px;height:373px;background:#FFFFFF;" version="1.1" viewBox="0 0 749 373" width="749px" zoomAndPan="magnify"><defs/><g><text fill="#000000" font-family="sans-serif" font-size="14" font-weight="bold" lengthAdjust="spacing" textLength="652" x="50" y="29.5332">Fraud Service - Message Handler - Handle Order Created Event - Sequence - Container level</text><rect fill="#FFFFFF" height="323.0313" style="stroke:#181818;stroke-width:0.5;" width="374.5" x="156.5" y="44.6094"/><text fill="#000000" font-family="sans-serif" font-size="13" font-weight="bold" lengthAdjust="spacing" textLength="89" x="299.25" y="58.1045">Fraud Service</text><rect fill="#FFFFFF" height="323.0313" style="stroke:#181818;stroke-width:0.5;" width="94" x="533" y="44.6094"/><text fill="#000000" font-family="sans-serif" font-size="13" font-weight="bold" lengthAdjust="spacing" textLength="88" x="536" y="58.1045">Order Service</text><rect fill="none" height="170.1094" style="stroke:#000000;stroke-width:1.5;" width="592.5" x="150.5" y="144.9219"/><line style="stroke:#181818;stroke-width:0.5;stroke-dasharray:5.0,5.0;" x1="37" x2="37" y1="97.5703" y2="332.0313"/><line style="stroke:#181818;stroke-width:0.5;stroke-dasharray:5.0,5.0;" x1="222.5" x2="222.5" y1="97.5703" y2="332.0313"/><line style="stroke:#181818;stroke-width:0.5;stroke-dasharray:5.0,5.0;" x1="397" x2="397" y1="97.5703" y2="332.0313"/><line style="stroke:#181818;stroke-width:0.5;stroke-dasharray:5.0,5.0;" x1="486" x2="486" y1="97.5703" y2="332.0313"/><line style="stroke:#181818;stroke-width:0.5;stroke-dasharray:5.0,5.0;" x1="580" x2="580" y1="97.5703" y2="332.0313"/><line style="stroke:#181818;stroke-width:0.5;stroke-dasharray:5.0,5.0;" x1="683" x2="683" y1="97.5703" y2="332.0313"/><rect fill="#E2E2F0" height="31.6094" rx="2.5" ry="2.5" style="stroke:#181818;stroke-width:0.5;" width="65" x="5" y="64.9609"/><text fill="#000000" font-family="sans-serif" font-size="14" lengthAdjust="spacing" textLength="51" x="12" y="86.4941">External</text><rect fill="#E2E2F0" height="31.6094" rx="2.5" ry="2.5" style="stroke:#181818;stroke-width:0.5;" width="65" x="5" y="331.0313"/><text fill="#000000" font-family="sans-serif" font-size="14" lengthAdjust="spacing" textLength="51" x="12" y="352.5645">External</text><rect fill="#E2E2F0" height="31.6094" rx="2.5" ry="2.5" style="stroke:#181818;stroke-width:0.5;" width="124" x="160.5" y="64.9609"/><text fill="#000000" font-family="sans-serif" font-size="14" lengthAdjust="spacing" textLength="110" x="167.5" y="86.4941">Message Handler</text><rect fill="#E2E2F0" height="31.6094" rx="2.5" ry="2.5" style="stroke:#181818;stroke-width:0.5;" width="124" x="160.5" y="331.0313"/><text fill="#000000" font-family="sans-serif" font-size="14" lengthAdjust="spacing" textLength="110" x="167.5" y="352.5645">Message Handler</text><rect fill="#E2E2F0" height="31.6094" rx="2.5" ry="2.5" style="stroke:#181818;stroke-width:0.5;" width="75" x="360" y="64.9609"/><text fill="#000000" font-family="sans-serif" font-size="14" lengthAdjust="spacing" textLength="61" x="367" y="86.4941">Database</text><rect fill="#E2E2F0" height="31.6094" rx="2.5" ry="2.5" style="stroke:#181818;stroke-width:0.5;" width="75" x="360" y="331.0313"/><text fill="#000000" font-family="sans-serif" font-size="14" lengthAdjust="spacing" textLength="61" x="367" y="352.5645">Database</text><rect fill="#E2E2F0" height="31.6094" rx="2.5" ry="2.5" style="stroke:#181818;stroke-width:0.5;" width="82" x="445" y="64.9609"/><text fill="#000000" font-family="sans-serif" font-size="14" lengthAdjust="spacing" textLength="68" x="452" y="86.4941">Messaging</text><rect fill="#E2E2F0" height="31.6094" rx="2.5" ry="2.5" style="stroke:#181818;stroke-width:0.5;" width="82" x="445" y="331.0313"/><text fill="#000000" font-family="sans-serif" font-size="14" lengthAdjust="spacing" textLength="68" x="452" y="352.5645">Messaging</text><rect fill="#E2E2F0" height="31.6094" rx="2.5" ry="2.5" style="stroke:#181818;stroke-width:0.5;" width="82" x="539" y="64.9609"/><text fill="#000000" font-family="sans-serif" font-size="14" lengthAdjust="spacing" textLength="68" x="546" y="86.4941">Messaging</text><rect fill="#E2E2F0" height="31.6094" rx="2.5" ry="2.5" style="stroke:#181818;stroke-width:0.5;" width="82" x="539" y="331.0313"/><text fill="#000000" font-family="sans-serif" font-size="14" lengthAdjust="spacing" textLength="68" x="546" y="352.5645">Messaging</text><rect fill="#E2E2F0" height="31.6094" rx="2.5" ry="2.5" style="stroke:#181818;stroke-width:0.5;" width="100" x="633" y="64.9609"/><text fill="#000000" font-family="sans-serif" font-size="14" lengthAdjust="spacing" textLength="86" x="640" y="86.4941">Fraud Engine</text><rect fill="#E2E2F0" height="31.6094" rx="2.5" ry="2.5" style="stroke:#181818;stroke-width:0.5;" width="100" x="633" y="331.0313"/><text fill="#000000" font-family="sans-serif" font-size="14" lengthAdjust="spacing" textLength="86" x="640" y="352.5645">Fraud Engine</text><polygon fill="#181818" points="210.5,125.9219,220.5,129.9219,210.5,133.9219,214.5,129.9219" style="stroke:#181818;stroke-width:1.0;"/><line style="stroke:#181818;stroke-width:1.0;" x1="37.5" x2="216.5" y1="129.9219" y2="129.9219"/><text fill="#000000" font-family="sans-serif" font-size="13" lengthAdjust="spacing" textLength="161" x="44.5" y="125.0654">Handle Order Created Event</text><path d="M150.5,144.9219 L373.5,144.9219 L373.5,153.2734 L363.5,163.2734 L150.5,163.2734 L150.5,144.9219 " fill="#EEEEEE" style="stroke:#000000;stroke-width:1.5;"/><rect fill="none" height="170.1094" style="stroke:#000000;stroke-width:1.5;" width="592.5" x="150.5" y="144.9219"/><text fill="#000000" font-family="sans-serif" font-size="13" font-weight="bold" lengthAdjust="spacing" textLength="178" x="165.5" y="159.417">Handle Order Created Event</text><polygon fill="#181818" points="568,181.625,578,185.625,568,189.625,572,185.625" style="stroke:#181818;stroke-width:1.0;"/><line style="stroke:#181818;stroke-width:1.0;" x1="222.5" x2="574" y1="185.625" y2="185.625"/><text fill="#000000" font-family="sans-serif" font-size="13" lengthAdjust="spacing" textLength="166" x="229.5" y="180.7686">Receive Order Created Event</text><polygon fill="#181818" points="385.5,211.9766,395.5,215.9766,385.5,219.9766,389.5,215.9766" style="stroke:#181818;stroke-width:1.0;"/><line style="stroke:#181818;stroke-width:1.0;" x1="222.5" x2="391.5" y1="215.9766" y2="215.9766"/><text fill="#000000" font-family="sans-serif" font-size="13" lengthAdjust="spacing" textLength="68" x="229.5" y="211.1201">Insert Order</text><polygon fill="#181818" points="671,242.3281,681,246.3281,671,250.3281,675,246.3281" style="stroke:#181818;stroke-width:1.0;"/><line style="stroke:#181818;stroke-width:1.0;" x1="222.5" x2="677" y1="246.3281" y2="246.3281"/><text fill="#000000" font-family="sans-serif" font-size="13" lengthAdjust="spacing" textLength="140" x="229.5" y="241.4717">Get Fraud Check Result</text><polygon fill="#181818" points="385.5,272.6797,395.5,276.6797,385.5,280.6797,389.5,276.6797" style="stroke:#181818;stroke-width:1.0;"/><line style="stroke:#181818;stroke-width:1.0;" x1="222.5" x2="391.5" y1="276.6797" y2="276.6797"/><text fill="#000000" font-family="sans-serif" font-size="13" lengthAdjust="spacing" textLength="151" x="229.5" y="271.8232">Insert Fraud Check Result</text><polygon fill="#181818" points="474,303.0313,484,307.0313,474,311.0313,478,307.0313" style="stroke:#181818;stroke-width:1.0;"/><line style="stroke:#181818;stroke-width:1.0;" x1="222.5" x2="480" y1="307.0313" y2="307.0313"/><text fill="#000000" font-family="sans-serif" font-size="13" lengthAdjust="spacing" textLength="185" x="229.5" y="302.1748">Send Fraud Check Result Event</text><!--SRC=[pLInKiCm3Dtz5IBCpSJ4m19IwC31aO5PJTJKXsC7MqdRlqSaAKVfqOQZTpHJPCllFJt9lgWzbXM2mOrh6495Z1QLOis6OEgnAI0Zt-gSO08F50AM1FTe2qDULle_UFI5X8adP2eWRScoR6Rqrf3jJYRECcehIOPQCahLw5ddkaR9ZD8raxTe8i00oTNCIZWrRXLdRi4hz9Hj0bCLucrY7oirTsk8TbH6SFcor4mAvDiX-IQ-uqeJLrNaSteoo0ldgpt63dp0ZZ-h2F60De3jizqYunm3_P5c2_DJETgM9ob4S1JP0iHGDTZQztIahUDrTB3ZTEpmz5rEhQJyojJ-X5BZnmecDoSR3BW-S4LKwLrJ7qeucOnH9HrjZLJpJ3dfzXpK7hio8dPc0tdkjVw7kdxsHCWTyV2O9alANyN5q9ZpDUnifNwTnEpZdTXNEioYR2hr3W00]--></g></svg>