<?xml version="1.0" encoding="us-ascii" standalone="no"?><svg xmlns="http://www.w3.org/2000/svg" xmlns:xlink="http://www.w3.org/1999/xlink" contentStyleType="text/css" height="351px" preserveAspectRatio="none" style="width:1202px;height:351px;background:#FFFFFF;" version="1.1" viewBox="0 0 1202 351" width="1202px" zoomAndPan="magnify"><defs/><g><text fill="#000000" font-family="sans-serif" font-size="14" font-weight="bold" lengthAdjust="spacing" textLength="1174" x="10" y="29.5332">E Commerce Platform - Generate Demand - Search And Browse - Search Service - Message Handler - Handle Product Price Changed Event - Sequence - Container level</text><rect fill="#FFFFFF" height="293.9766" style="stroke:#181818;stroke-width:0.5;" width="258.5" x="514" y="44.6094"/><text fill="#000000" font-family="sans-serif" font-size="13" font-weight="bold" lengthAdjust="spacing" textLength="97" x="594.75" y="58.1045">Search Service</text><rect fill="#FFFFFF" height="293.9766" style="stroke:#181818;stroke-width:0.5;" width="103" x="778" y="44.6094"/><text fill="#000000" font-family="sans-serif" font-size="13" font-weight="bold" lengthAdjust="spacing" textLength="97" x="781" y="58.1045">Pricing Service</text><rect fill="none" height="79.0547" style="stroke:#000000;stroke-width:1.5;" width="372.5" x="508" y="175.9219"/><line style="stroke:#181818;stroke-width:0.5;stroke-dasharray:5.0,5.0;" x1="341.5" x2="341.5" y1="128.5703" y2="271.9766"/><line style="stroke:#181818;stroke-width:0.5;stroke-dasharray:5.0,5.0;" x1="580" x2="580" y1="128.5703" y2="271.9766"/><line style="stroke:#181818;stroke-width:0.5;stroke-dasharray:5.0,5.0;" x1="734.5" x2="734.5" y1="128.5703" y2="271.9766"/><line style="stroke:#181818;stroke-width:0.5;stroke-dasharray:5.0,5.0;" x1="829.5" x2="829.5" y1="128.5703" y2="271.9766"/><rect fill="#E2E2F0" height="31.6094" rx="2.5" ry="2.5" style="stroke:#181818;stroke-width:0.5;" width="65" x="309.5" y="95.9609"/><text fill="#000000" font-family="sans-serif" font-size="14" lengthAdjust="spacing" textLength="51" x="316.5" y="117.4941">External</text><rect fill="#E2E2F0" height="31.6094" rx="2.5" ry="2.5" style="stroke:#181818;stroke-width:0.5;" width="65" x="309.5" y="270.9766"/><text fill="#000000" font-family="sans-serif" font-size="14" lengthAdjust="spacing" textLength="51" x="316.5" y="292.5098">External</text><rect fill="#E2E2F0" height="31.6094" rx="2.5" ry="2.5" style="stroke:#181818;stroke-width:0.5;" width="124" x="518" y="95.9609"/><text fill="#000000" font-family="sans-serif" font-size="14" lengthAdjust="spacing" textLength="110" x="525" y="117.4941">Message Handler</text><rect fill="#E2E2F0" height="31.6094" rx="2.5" ry="2.5" style="stroke:#181818;stroke-width:0.5;" width="124" x="518" y="270.9766"/><text fill="#000000" font-family="sans-serif" font-size="14" lengthAdjust="spacing" textLength="110" x="525" y="292.5098">Message Handler</text><text fill="#000000" font-family="sans-serif" font-size="14" lengthAdjust="spacing" textLength="61" x="701.5" y="125.4941">Database</text><path d="M717,74.9609 C717,64.9609 735,64.9609 735,64.9609 C735,64.9609 753,64.9609 753,74.9609 L753,100.9609 C753,110.9609 735,110.9609 735,110.9609 C735,110.9609 717,110.9609 717,100.9609 L717,74.9609 " fill="#E2E2F0" style="stroke:#181818;stroke-width:1.5;"/><path d="M717,74.9609 C717,84.9609 735,84.9609 735,84.9609 C735,84.9609 753,84.9609 753,74.9609 " fill="none" style="stroke:#181818;stroke-width:1.5;"/><text fill="#000000" font-family="sans-serif" font-size="14" lengthAdjust="spacing" textLength="61" x="701.5" y="285.5098">Database</text><path d="M717,298.5859 C717,288.5859 735,288.5859 735,288.5859 C735,288.5859 753,288.5859 753,298.5859 L753,324.5859 C753,334.5859 735,334.5859 735,334.5859 C735,334.5859 717,334.5859 717,324.5859 L717,298.5859 " fill="#E2E2F0" style="stroke:#181818;stroke-width:1.5;"/><path d="M717,298.5859 C717,308.5859 735,308.5859 735,308.5859 C735,308.5859 753,308.5859 753,298.5859 " fill="none" style="stroke:#181818;stroke-width:1.5;"/><rect fill="#E2E2F0" height="31.6094" rx="2.5" ry="2.5" style="stroke:#181818;stroke-width:0.5;" width="82" x="788.5" y="95.9609"/><text fill="#000000" font-family="sans-serif" font-size="14" lengthAdjust="spacing" textLength="68" x="795.5" y="117.4941">Messaging</text><rect fill="#E2E2F0" height="31.6094" rx="2.5" ry="2.5" style="stroke:#181818;stroke-width:0.5;" width="82" x="788.5" y="270.9766"/><text fill="#000000" font-family="sans-serif" font-size="14" lengthAdjust="spacing" textLength="68" x="795.5" y="292.5098">Messaging</text><polygon fill="#181818" points="568,156.9219,578,160.9219,568,164.9219,572,160.9219" style="stroke:#181818;stroke-width:1.0;"/><line style="stroke:#181818;stroke-width:1.0;" x1="342" x2="574" y1="160.9219" y2="160.9219"/><text fill="#000000" font-family="sans-serif" font-size="13" lengthAdjust="spacing" textLength="214" x="349" y="156.0654">Handle Product Price Changed Event</text><path d="M508,175.9219 L788,175.9219 L788,184.2734 L778,194.2734 L508,194.2734 L508,175.9219 " fill="#EEEEEE" style="stroke:#000000;stroke-width:1.5;"/><rect fill="none" height="79.0547" style="stroke:#000000;stroke-width:1.5;" width="372.5" x="508" y="175.9219"/><text fill="#000000" font-family="sans-serif" font-size="13" font-weight="bold" lengthAdjust="spacing" textLength="235" x="523" y="190.417">Handle Product Price Changed Event</text><polygon fill="#181818" points="817.5,212.625,827.5,216.625,817.5,220.625,821.5,216.625" style="stroke:#181818;stroke-width:1.0;"/><line style="stroke:#181818;stroke-width:1.0;" x1="580" x2="823.5" y1="216.625" y2="216.625"/><text fill="#000000" font-family="sans-serif" font-size="13" lengthAdjust="spacing" textLength="219" x="587" y="211.7686">Receive Product Price Changed Event</text><polygon fill="#181818" points="723,242.9766,733,246.9766,723,250.9766,727,246.9766" style="stroke:#181818;stroke-width:1.0;"/><line style="stroke:#181818;stroke-width:1.0;" x1="580" x2="729" y1="246.9766" y2="246.9766"/><text fill="#000000" font-family="sans-serif" font-size="13" lengthAdjust="spacing" textLength="131" x="587" y="242.1201">Update Product Prices</text><!--SRC=[pPHDJyCm38Rl-HLMEIydJXoGe2iVXqaJ5UBijLuNAKrAadNZt-EsAJ06KWzZefSsZfltzMEtGGLDa45gwvfSGR3K6DRMrJ23UpBaC13CgKPJSYGdTCK6RdXnw-pEqsSi9zUgeWiio7ki21xu7KsE8yCJB9qjjqNWUvUORj1KL4BMaWdzEQzRClq9gJK15Ok3ffQq40swe0hL86ScsJwGCwWJG0_fvQFXvPssEvdRTTYXe_pD1wgz71E7jH0hkuVaq6u25oyR5KW0NmSgtwhenRAHqWX9ZeW6Gd8udF4CT8uS3VjHMtwKwMLKYsAzcn83hf0H9_FuzCSUHXb1t5vc9IAnhbtAL5EHSUelHbD7R3DEWUodO866owvv0evyHjbVOV7U5wVJvm1crsTh95nDc7rHERjjfYIUpVQFY4xUFgRpH0MfzZzNVUglYuj-RihkhtfGi-zcMOXt]--></g></svg>