<?xml version="1.0" encoding="us-ascii" standalone="no"?><svg xmlns="http://www.w3.org/2000/svg" xmlns:xlink="http://www.w3.org/1999/xlink" contentStyleType="text/css" height="513px" preserveAspectRatio="none" style="width:657px;height:513px;background:#FFFFFF;" version="1.1" viewBox="0 0 657 513" width="657px" zoomAndPan="magnify"><defs/><g><text fill="#000000" font-family="sans-serif" font-size="14" font-weight="bold" lengthAdjust="spacing" textLength="421" x="119.5" y="29.5332">E Commerce Platform - Checkout - Sequence - Context level</text><rect fill="none" height="336.5156" style="stroke:#000000;stroke-width:1.5;" width="571" x="80" y="123.5703"/><rect fill="none" height="273.8125" style="stroke:#000000;stroke-width:1.5;" width="445" x="196" y="179.2734"/><rect fill="none" height="105.0547" style="stroke:#000000;stroke-width:1.5;" width="231" x="304" y="234.9766"/><rect fill="none" height="61.7031" style="stroke:#000000;stroke-width:1.5;" width="165" x="466" y="384.3828"/><line style="stroke:#181818;stroke-width:0.5;stroke-dasharray:5.0,5.0;" x1="42" x2="42" y1="76.2188" y2="477.0859"/><line style="stroke:#181818;stroke-width:0.5;stroke-dasharray:5.0,5.0;" x1="143" x2="143" y1="76.2188" y2="477.0859"/><line style="stroke:#181818;stroke-width:0.5;stroke-dasharray:5.0,5.0;" x1="255" x2="255" y1="76.2188" y2="477.0859"/><line style="stroke:#181818;stroke-width:0.5;stroke-dasharray:5.0,5.0;" x1="365" x2="365" y1="76.2188" y2="477.0859"/><line style="stroke:#181818;stroke-width:0.5;stroke-dasharray:5.0,5.0;" x1="530" x2="530" y1="76.2188" y2="477.0859"/><rect fill="#E2E2F0" height="31.6094" rx="2.5" ry="2.5" style="stroke:#181818;stroke-width:0.5;" width="75" x="5" y="43.6094"/><text fill="#000000" font-family="sans-serif" font-size="14" lengthAdjust="spacing" textLength="61" x="12" y="65.1426">Customer</text><rect fill="#E2E2F0" height="31.6094" rx="2.5" ry="2.5" style="stroke:#181818;stroke-width:0.5;" width="75" x="5" y="476.0859"/><text fill="#000000" font-family="sans-serif" font-size="14" lengthAdjust="spacing" textLength="61" x="12" y="497.6191">Customer</text><rect fill="#E2E2F0" height="31.6094" rx="2.5" ry="2.5" style="stroke:#181818;stroke-width:0.5;" width="106" x="90" y="43.6094"/><text fill="#000000" font-family="sans-serif" font-size="14" lengthAdjust="spacing" textLength="92" x="97" y="65.1426">Storefront App</text><rect fill="#E2E2F0" height="31.6094" rx="2.5" ry="2.5" style="stroke:#181818;stroke-width:0.5;" width="106" x="90" y="476.0859"/><text fill="#000000" font-family="sans-serif" font-size="14" lengthAdjust="spacing" textLength="92" x="97" y="497.6191">Storefront App</text><rect fill="#E2E2F0" height="31.6094" rx="2.5" ry="2.5" style="stroke:#181818;stroke-width:0.5;" width="98" x="206" y="43.6094"/><text fill="#000000" font-family="sans-serif" font-size="14" lengthAdjust="spacing" textLength="84" x="213" y="65.1426">Storefront Bff</text><rect fill="#E2E2F0" height="31.6094" rx="2.5" ry="2.5" style="stroke:#181818;stroke-width:0.5;" width="98" x="206" y="476.0859"/><text fill="#000000" font-family="sans-serif" font-size="14" lengthAdjust="spacing" textLength="84" x="213" y="497.6191">Storefront Bff</text><rect fill="#E2E2F0" height="31.6094" rx="2.5" ry="2.5" style="stroke:#181818;stroke-width:0.5;" width="102" x="314" y="43.6094"/><text fill="#000000" font-family="sans-serif" font-size="14" lengthAdjust="spacing" textLength="88" x="321" y="65.1426">Order Service</text><rect fill="#E2E2F0" height="31.6094" rx="2.5" ry="2.5" style="stroke:#181818;stroke-width:0.5;" width="102" x="314" y="476.0859"/><text fill="#000000" font-family="sans-serif" font-size="14" lengthAdjust="spacing" textLength="88" x="321" y="497.6191">Order Service</text><rect fill="#E2E2F0" height="31.6094" rx="2.5" ry="2.5" style="stroke:#181818;stroke-width:0.5;" width="108" x="476" y="43.6094"/><text fill="#000000" font-family="sans-serif" font-size="14" lengthAdjust="spacing" textLength="94" x="483" y="65.1426">Basket Service</text><rect fill="#E2E2F0" height="31.6094" rx="2.5" ry="2.5" style="stroke:#181818;stroke-width:0.5;" width="108" x="476" y="476.0859"/><text fill="#000000" font-family="sans-serif" font-size="14" lengthAdjust="spacing" textLength="94" x="483" y="497.6191">Basket Service</text><polygon fill="#181818" points="131,104.5703,141,108.5703,131,112.5703,135,108.5703" style="stroke:#181818;stroke-width:1.0;"/><line style="stroke:#181818;stroke-width:1.0;" x1="42.5" x2="137" y1="108.5703" y2="108.5703"/><text fill="#000000" font-family="sans-serif" font-size="13" lengthAdjust="spacing" textLength="55" x="49.5" y="103.7139">Checkout</text><path d="M80,123.5703 L184,123.5703 L184,131.9219 L174,141.9219 L80,141.9219 L80,123.5703 " fill="#EEEEEE" style="stroke:#000000;stroke-width:1.5;"/><rect fill="none" height="336.5156" style="stroke:#000000;stroke-width:1.5;" width="571" x="80" y="123.5703"/><text fill="#000000" font-family="sans-serif" font-size="13" font-weight="bold" lengthAdjust="spacing" textLength="59" x="95" y="138.0654">Checkout</text><polygon fill="#181818" points="243,160.2734,253,164.2734,243,168.2734,247,164.2734" style="stroke:#181818;stroke-width:1.0;"/><line style="stroke:#181818;stroke-width:1.0;" x1="143" x2="249" y1="164.2734" y2="164.2734"/><text fill="#000000" font-family="sans-serif" font-size="13" lengthAdjust="spacing" textLength="55" x="150" y="159.417">Checkout</text><path d="M196,179.2734 L300,179.2734 L300,187.625 L290,197.625 L196,197.625 L196,179.2734 " fill="#EEEEEE" style="stroke:#000000;stroke-width:1.5;"/><rect fill="none" height="273.8125" style="stroke:#000000;stroke-width:1.5;" width="445" x="196" y="179.2734"/><text fill="#000000" font-family="sans-serif" font-size="13" font-weight="bold" lengthAdjust="spacing" textLength="59" x="211" y="193.7686">Checkout</text><polygon fill="#181818" points="353,215.9766,363,219.9766,353,223.9766,357,219.9766" style="stroke:#181818;stroke-width:1.0;"/><line style="stroke:#181818;stroke-width:1.0;" x1="255" x2="359" y1="219.9766" y2="219.9766"/><text fill="#000000" font-family="sans-serif" font-size="13" lengthAdjust="spacing" textLength="74" x="262" y="215.1201">Create Order</text><path d="M304,234.9766 L431,234.9766 L431,243.3281 L421,253.3281 L304,253.3281 L304,234.9766 " fill="#EEEEEE" style="stroke:#000000;stroke-width:1.5;"/><rect fill="none" height="105.0547" style="stroke:#000000;stroke-width:1.5;" width="231" x="304" y="234.9766"/><text fill="#000000" font-family="sans-serif" font-size="13" font-weight="bold" lengthAdjust="spacing" textLength="82" x="319" y="249.4717">Create Order</text><line style="stroke:#181818;stroke-width:1.0;" x1="365" x2="407" y1="275.6797" y2="275.6797"/><line style="stroke:#181818;stroke-width:1.0;" x1="407" x2="407" y1="275.6797" y2="288.6797"/><line style="stroke:#181818;stroke-width:1.0;" x1="366" x2="407" y1="288.6797" y2="288.6797"/><polygon fill="#181818" points="376,284.6797,366,288.6797,376,292.6797,372,288.6797" style="stroke:#181818;stroke-width:1.0;"/><text fill="#000000" font-family="sans-serif" font-size="13" lengthAdjust="spacing" textLength="68" x="372" y="270.8232">Insert Order</text><line style="stroke:#181818;stroke-width:1.0;" x1="365" x2="407" y1="319.0313" y2="319.0313"/><line style="stroke:#181818;stroke-width:1.0;" x1="407" x2="407" y1="319.0313" y2="332.0313"/><line style="stroke:#181818;stroke-width:1.0;" x1="366" x2="407" y1="332.0313" y2="332.0313"/><polygon fill="#181818" points="376,328.0313,366,332.0313,376,336.0313,372,332.0313" style="stroke:#181818;stroke-width:1.0;"/><text fill="#000000" font-family="sans-serif" font-size="13" lengthAdjust="spacing" textLength="151" x="372" y="314.1748">Send Order Created Event</text><polygon fill="#181818" points="518,365.3828,528,369.3828,518,373.3828,522,369.3828" style="stroke:#181818;stroke-width:1.0;"/><line style="stroke:#181818;stroke-width:1.0;" x1="255" x2="524" y1="369.3828" y2="369.3828"/><text fill="#000000" font-family="sans-serif" font-size="13" lengthAdjust="spacing" textLength="82" x="262" y="364.5264">Delete Basket</text><path d="M466,384.3828 L598,384.3828 L598,392.7344 L588,402.7344 L466,402.7344 L466,384.3828 " fill="#EEEEEE" style="stroke:#000000;stroke-width:1.5;"/><rect fill="none" height="61.7031" style="stroke:#000000;stroke-width:1.5;" width="165" x="466" y="384.3828"/><text fill="#000000" font-family="sans-serif" font-size="13" font-weight="bold" lengthAdjust="spacing" textLength="87" x="481" y="398.8779">Delete Basket</text><line style="stroke:#181818;stroke-width:1.0;" x1="530" x2="572" y1="425.0859" y2="425.0859"/><line style="stroke:#181818;stroke-width:1.0;" x1="572" x2="572" y1="425.0859" y2="438.0859"/><line style="stroke:#181818;stroke-width:1.0;" x1="531" x2="572" y1="438.0859" y2="438.0859"/><polygon fill="#181818" points="541,434.0859,531,438.0859,541,442.0859,537,438.0859" style="stroke:#181818;stroke-width:1.0;"/><text fill="#000000" font-family="sans-serif" font-size="13" lengthAdjust="spacing" textLength="82" x="537" y="420.2295">Delete Basket</text><!--SRC=[rPFTJeD048NlzoaclIyFu8L9VuZnmcZ24spWK4bXbyuEg6_lj1HReeqqeIPUaC0Pvdo7dK4AAK4nhNnLWLFGIsabzrpHd5QlIBU-4RrDi6lWjAogTu9teH8jIcDgorAaHMsTq6pL1F7gCoCRAEuzUyjeaOhd4FLl3NiJhI5dTQT5NLzmU803My4QbNLPTEg94f_BcsKa7q5GXREIkbqaBVDyGfAw3KdFd87ryBWjKem37LgUhBCRLFY1TgWV7OUmfGrRo7MqhkSRf9DxYlbraZI_dsvOTFUrUMR3lgbFZzCn9WkiCxzvu3rZJE1hTcSVcg6zT53xuEVIjBmRVC2Z2s3vBsaJkApBUZpcZE9M-upgVxmeOtvxJRn62Ts6JZvko52RXdIpoFkJxI_p2G00]--></g></svg>