<?xml version="1.0" encoding="us-ascii" standalone="no"?><svg xmlns="http://www.w3.org/2000/svg" xmlns:xlink="http://www.w3.org/1999/xlink" contentStyleType="text/css" height="570px" preserveAspectRatio="none" style="width:779px;height:570px;background:#FFFFFF;" version="1.1" viewBox="0 0 779 570" width="779px" zoomAndPan="magnify"><defs/><g><text fill="#000000" font-family="sans-serif" font-size="14" font-weight="bold" lengthAdjust="spacing" textLength="435" x="173.5" y="29.5332">E Commerce Platform - Checkout - Sequence - Container level</text><rect fill="#FFFFFF" height="512.4375" style="stroke:#181818;stroke-width:0.5;" width="248.5" x="332" y="44.6094"/><text fill="#000000" font-family="sans-serif" font-size="13" font-weight="bold" lengthAdjust="spacing" textLength="88" x="412.25" y="58.1045">Order Service</text><rect fill="#FFFFFF" height="512.4375" style="stroke:#181818;stroke-width:0.5;" width="164.5" x="582.5" y="44.6094"/><text fill="#000000" font-family="sans-serif" font-size="13" font-weight="bold" lengthAdjust="spacing" textLength="94" x="617.75" y="58.1045">Basket Service</text><rect fill="none" height="297.5156" style="stroke:#000000;stroke-width:1.5;" width="693" x="80" y="175.9219"/><rect fill="none" height="234.8125" style="stroke:#000000;stroke-width:1.5;" width="567" x="196" y="231.625"/><rect fill="none" height="79.0547" style="stroke:#000000;stroke-width:1.5;" width="260.5" x="326" y="287.3281"/><rect fill="none" height="48.7031" style="stroke:#000000;stroke-width:1.5;" width="176.5" x="576.5" y="410.7344"/><line style="stroke:#181818;stroke-width:0.5;stroke-dasharray:5.0,5.0;" x1="42" x2="42" y1="128.5703" y2="490.4375"/><line style="stroke:#181818;stroke-width:0.5;stroke-dasharray:5.0,5.0;" x1="143" x2="143" y1="128.5703" y2="490.4375"/><line style="stroke:#181818;stroke-width:0.5;stroke-dasharray:5.0,5.0;" x1="255" x2="255" y1="128.5703" y2="490.4375"/><line style="stroke:#181818;stroke-width:0.5;stroke-dasharray:5.0,5.0;" x1="353" x2="353" y1="128.5703" y2="490.4375"/><line style="stroke:#181818;stroke-width:0.5;stroke-dasharray:5.0,5.0;" x1="444.5" x2="444.5" y1="128.5703" y2="490.4375"/><line style="stroke:#181818;stroke-width:0.5;stroke-dasharray:5.0,5.0;" x1="532.5" x2="532.5" y1="128.5703" y2="490.4375"/><line style="stroke:#181818;stroke-width:0.5;stroke-dasharray:5.0,5.0;" x1="603.5" x2="603.5" y1="128.5703" y2="490.4375"/><line style="stroke:#181818;stroke-width:0.5;stroke-dasharray:5.0,5.0;" x1="709" x2="709" y1="128.5703" y2="490.4375"/><rect fill="#E2E2F0" height="31.6094" rx="2.5" ry="2.5" style="stroke:#181818;stroke-width:0.5;" width="75" x="5" y="95.9609"/><text fill="#000000" font-family="sans-serif" font-size="14" lengthAdjust="spacing" textLength="61" x="12" y="117.4941">Customer</text><rect fill="#E2E2F0" height="31.6094" rx="2.5" ry="2.5" style="stroke:#181818;stroke-width:0.5;" width="75" x="5" y="489.4375"/><text fill="#000000" font-family="sans-serif" font-size="14" lengthAdjust="spacing" textLength="61" x="12" y="510.9707">Customer</text><rect fill="#E2E2F0" height="31.6094" rx="2.5" ry="2.5" style="stroke:#181818;stroke-width:0.5;" width="106" x="90" y="95.9609"/><text fill="#000000" font-family="sans-serif" font-size="14" lengthAdjust="spacing" textLength="92" x="97" y="117.4941">Storefront App</text><rect fill="#E2E2F0" height="31.6094" rx="2.5" ry="2.5" style="stroke:#181818;stroke-width:0.5;" width="106" x="90" y="489.4375"/><text fill="#000000" font-family="sans-serif" font-size="14" lengthAdjust="spacing" textLength="92" x="97" y="510.9707">Storefront App</text><rect fill="#E2E2F0" height="31.6094" rx="2.5" ry="2.5" style="stroke:#181818;stroke-width:0.5;" width="98" x="206" y="95.9609"/><text fill="#000000" font-family="sans-serif" font-size="14" lengthAdjust="spacing" textLength="84" x="213" y="117.4941">Storefront Bff</text><rect fill="#E2E2F0" height="31.6094" rx="2.5" ry="2.5" style="stroke:#181818;stroke-width:0.5;" width="98" x="206" y="489.4375"/><text fill="#000000" font-family="sans-serif" font-size="14" lengthAdjust="spacing" textLength="84" x="213" y="510.9707">Storefront Bff</text><rect fill="#E2E2F0" height="31.6094" rx="2.5" ry="2.5" style="stroke:#181818;stroke-width:0.5;" width="34" x="336" y="95.9609"/><text fill="#000000" font-family="sans-serif" font-size="14" lengthAdjust="spacing" textLength="20" x="343" y="117.4941">Api</text><rect fill="#E2E2F0" height="31.6094" rx="2.5" ry="2.5" style="stroke:#181818;stroke-width:0.5;" width="34" x="336" y="489.4375"/><text fill="#000000" font-family="sans-serif" font-size="14" lengthAdjust="spacing" textLength="20" x="343" y="510.9707">Api</text><text fill="#000000" font-family="sans-serif" font-size="14" lengthAdjust="spacing" textLength="61" x="411.5" y="125.4941">Database</text><path d="M427,74.9609 C427,64.9609 445,64.9609 445,64.9609 C445,64.9609 463,64.9609 463,74.9609 L463,100.9609 C463,110.9609 445,110.9609 445,110.9609 C445,110.9609 427,110.9609 427,100.9609 L427,74.9609 " fill="#E2E2F0" style="stroke:#181818;stroke-width:1.5;"/><path d="M427,74.9609 C427,84.9609 445,84.9609 445,84.9609 C445,84.9609 463,84.9609 463,74.9609 " fill="none" style="stroke:#181818;stroke-width:1.5;"/><text fill="#000000" font-family="sans-serif" font-size="14" lengthAdjust="spacing" textLength="61" x="411.5" y="503.9707">Database</text><path d="M427,517.0469 C427,507.0469 445,507.0469 445,507.0469 C445,507.0469 463,507.0469 463,517.0469 L463,543.0469 C463,553.0469 445,553.0469 445,553.0469 C445,553.0469 427,553.0469 427,543.0469 L427,517.0469 " fill="#E2E2F0" style="stroke:#181818;stroke-width:1.5;"/><path d="M427,517.0469 C427,527.0469 445,527.0469 445,527.0469 C445,527.0469 463,527.0469 463,517.0469 " fill="none" style="stroke:#181818;stroke-width:1.5;"/><path d="M493.5,100.9609 L571.5,100.9609 C576.5,100.9609 576.5,114.7656 576.5,114.7656 C576.5,114.7656 576.5,128.5703 571.5,128.5703 L493.5,128.5703 C488.5,128.5703 488.5,114.7656 488.5,114.7656 C488.5,114.7656 488.5,100.9609 493.5,100.9609 " fill="#E2E2F0" style="stroke:#181818;stroke-width:0.5;"/><path d="M571.5,100.9609 C566.5,100.9609 566.5,114.7656 566.5,114.7656 C566.5,128.5703 571.5,128.5703 571.5,128.5703 " fill="none" style="stroke:#181818;stroke-width:0.5;"/><text fill="#000000" font-family="sans-serif" font-size="14" lengthAdjust="spacing" textLength="68" x="493.5" y="120.4941">Messaging</text><path d="M493.5,489.4375 L571.5,489.4375 C576.5,489.4375 576.5,503.2422 576.5,503.2422 C576.5,503.2422 576.5,517.0469 571.5,517.0469 L493.5,517.0469 C488.5,517.0469 488.5,503.2422 488.5,503.2422 C488.5,503.2422 488.5,489.4375 493.5,489.4375 " fill="#E2E2F0" style="stroke:#181818;stroke-width:0.5;"/><path d="M571.5,489.4375 C566.5,489.4375 566.5,503.2422 566.5,503.2422 C566.5,517.0469 571.5,517.0469 571.5,517.0469 " fill="none" style="stroke:#181818;stroke-width:0.5;"/><text fill="#000000" font-family="sans-serif" font-size="14" lengthAdjust="spacing" textLength="68" x="493.5" y="508.9707">Messaging</text><rect fill="#E2E2F0" height="31.6094" rx="2.5" ry="2.5" style="stroke:#181818;stroke-width:0.5;" width="34" x="586.5" y="95.9609"/><text fill="#000000" font-family="sans-serif" font-size="14" lengthAdjust="spacing" textLength="20" x="593.5" y="117.4941">Api</text><rect fill="#E2E2F0" height="31.6094" rx="2.5" ry="2.5" style="stroke:#181818;stroke-width:0.5;" width="34" x="586.5" y="489.4375"/><text fill="#000000" font-family="sans-serif" font-size="14" lengthAdjust="spacing" textLength="20" x="593.5" y="510.9707">Api</text><text fill="#000000" font-family="sans-serif" font-size="14" lengthAdjust="spacing" textLength="61" x="676" y="125.4941">Database</text><path d="M691.5,74.9609 C691.5,64.9609 709.5,64.9609 709.5,64.9609 C709.5,64.9609 727.5,64.9609 727.5,74.9609 L727.5,100.9609 C727.5,110.9609 709.5,110.9609 709.5,110.9609 C709.5,110.9609 691.5,110.9609 691.5,100.9609 L691.5,74.9609 " fill="#E2E2F0" style="stroke:#181818;stroke-width:1.5;"/><path d="M691.5,74.9609 C691.5,84.9609 709.5,84.9609 709.5,84.9609 C709.5,84.9609 727.5,84.9609 727.5,74.9609 " fill="none" style="stroke:#181818;stroke-width:1.5;"/><text fill="#000000" font-family="sans-serif" font-size="14" lengthAdjust="spacing" textLength="61" x="676" y="503.9707">Database</text><path d="M691.5,517.0469 C691.5,507.0469 709.5,507.0469 709.5,507.0469 C709.5,507.0469 727.5,507.0469 727.5,517.0469 L727.5,543.0469 C727.5,553.0469 709.5,553.0469 709.5,553.0469 C709.5,553.0469 691.5,553.0469 691.5,543.0469 L691.5,517.0469 " fill="#E2E2F0" style="stroke:#181818;stroke-width:1.5;"/><path d="M691.5,517.0469 C691.5,527.0469 709.5,527.0469 709.5,527.0469 C709.5,527.0469 727.5,527.0469 727.5,517.0469 " fill="none" style="stroke:#181818;stroke-width:1.5;"/><polygon fill="#181818" points="131,156.9219,141,160.9219,131,164.9219,135,160.9219" style="stroke:#181818;stroke-width:1.0;"/><line style="stroke:#181818;stroke-width:1.0;" x1="42.5" x2="137" y1="160.9219" y2="160.9219"/><text fill="#000000" font-family="sans-serif" font-size="13" lengthAdjust="spacing" textLength="55" x="49.5" y="156.0654">Checkout</text><path d="M80,175.9219 L184,175.9219 L184,184.2734 L174,194.2734 L80,194.2734 L80,175.9219 " fill="#EEEEEE" style="stroke:#000000;stroke-width:1.5;"/><rect fill="none" height="297.5156" style="stroke:#000000;stroke-width:1.5;" width="693" x="80" y="175.9219"/><text fill="#000000" font-family="sans-serif" font-size="13" font-weight="bold" lengthAdjust="spacing" textLength="59" x="95" y="190.417">Checkout</text><polygon fill="#181818" points="243,212.625,253,216.625,243,220.625,247,216.625" style="stroke:#181818;stroke-width:1.0;"/><line style="stroke:#181818;stroke-width:1.0;" x1="143" x2="249" y1="216.625" y2="216.625"/><text fill="#000000" font-family="sans-serif" font-size="13" lengthAdjust="spacing" textLength="55" x="150" y="211.7686">Checkout</text><path d="M196,231.625 L300,231.625 L300,239.9766 L290,249.9766 L196,249.9766 L196,231.625 " fill="#EEEEEE" style="stroke:#000000;stroke-width:1.5;"/><rect fill="none" height="234.8125" style="stroke:#000000;stroke-width:1.5;" width="567" x="196" y="231.625"/><text fill="#000000" font-family="sans-serif" font-size="13" font-weight="bold" lengthAdjust="spacing" textLength="59" x="211" y="246.1201">Checkout</text><polygon fill="#181818" points="341,268.3281,351,272.3281,341,276.3281,345,272.3281" style="stroke:#181818;stroke-width:1.0;"/><line style="stroke:#181818;stroke-width:1.0;" x1="255" x2="347" y1="272.3281" y2="272.3281"/><text fill="#000000" font-family="sans-serif" font-size="13" lengthAdjust="spacing" textLength="74" x="262" y="267.4717">Create Order</text><path d="M326,287.3281 L453,287.3281 L453,295.6797 L443,305.6797 L326,305.6797 L326,287.3281 " fill="#EEEEEE" style="stroke:#000000;stroke-width:1.5;"/><rect fill="none" height="79.0547" style="stroke:#000000;stroke-width:1.5;" width="260.5" x="326" y="287.3281"/><text fill="#000000" font-family="sans-serif" font-size="13" font-weight="bold" lengthAdjust="spacing" textLength="82" x="341" y="301.8232">Create Order</text><polygon fill="#181818" points="433,324.0313,443,328.0313,433,332.0313,437,328.0313" style="stroke:#181818;stroke-width:1.0;"/><line style="stroke:#181818;stroke-width:1.0;" x1="353" x2="439" y1="328.0313" y2="328.0313"/><text fill="#000000" font-family="sans-serif" font-size="13" lengthAdjust="spacing" textLength="68" x="360" y="323.1748">Insert Order</text><polygon fill="#181818" points="520.5,354.3828,530.5,358.3828,520.5,362.3828,524.5,358.3828" style="stroke:#181818;stroke-width:1.0;"/><line style="stroke:#181818;stroke-width:1.0;" x1="353" x2="526.5" y1="358.3828" y2="358.3828"/><text fill="#000000" font-family="sans-serif" font-size="13" lengthAdjust="spacing" textLength="151" x="360" y="353.5264">Send Order Created Event</text><polygon fill="#181818" points="591.5,391.7344,601.5,395.7344,591.5,399.7344,595.5,395.7344" style="stroke:#181818;stroke-width:1.0;"/><line style="stroke:#181818;stroke-width:1.0;" x1="255" x2="597.5" y1="395.7344" y2="395.7344"/><text fill="#000000" font-family="sans-serif" font-size="13" lengthAdjust="spacing" textLength="82" x="262" y="390.8779">Delete Basket</text><path d="M576.5,410.7344 L708.5,410.7344 L708.5,419.0859 L698.5,429.0859 L576.5,429.0859 L576.5,410.7344 " fill="#EEEEEE" style="stroke:#000000;stroke-width:1.5;"/><rect fill="none" height="48.7031" style="stroke:#000000;stroke-width:1.5;" width="176.5" x="576.5" y="410.7344"/><text fill="#000000" font-family="sans-serif" font-size="13" font-weight="bold" lengthAdjust="spacing" textLength="87" x="591.5" y="425.2295">Delete Basket</text><polygon fill="#181818" points="697.5,447.4375,707.5,451.4375,697.5,455.4375,701.5,451.4375" style="stroke:#181818;stroke-width:1.0;"/><line style="stroke:#181818;stroke-width:1.0;" x1="603.5" x2="703.5" y1="451.4375" y2="451.4375"/><text fill="#000000" font-family="sans-serif" font-size="13" lengthAdjust="spacing" textLength="82" x="610.5" y="446.5811">Delete Basket</text><!--SRC=[rPNRJeD048RlzoacU5qUm0kJdcAyQ3JXmkij37HJsCNTeUhREnnReerLsIQIaC0U_cz-PcOXHJd26fQcAD3624-vfDJO0cQmt66yDnNnOuGl5MgUvb6ZIIgD5d8yO2v4AIsfM9LI4mJBof5XfG2aWtMlsek6yvYCTM6_QhmtuZbCBUl3l2pFADmZeoNX2Wkfa_2u9unCIg_IOlJk20jtCiLgPqcBD9sGn6f2RCqR18ysuKyKeJse60EuUTufGW5yZIAPb-eoVAEtaLfcME0NCJJp7IuSSkH21ZJKH9BSIeSGhBedlzoUqi2vU2ecRz0vcIcT-KKF684w0Sw6w7Aoa6wFD65IMi5FWRN37fBnKzwGXEE7-BOdONOtNTl1xN2AYCoQgZo-JiUOB63kNky1runB0lv3lzSUBB8KD8jw7wT3Nl4-xVKLpHuVj4DB_ztGS5YnewXkq_R7qMOhWVM1nUhslNBv_U9aOmChp95hh5tLrTrup0lOXw6JGXixg7FHt-83]--></g></svg>