<?xml version="1.0" encoding="us-ascii" standalone="no"?><svg xmlns="http://www.w3.org/2000/svg" xmlns:xlink="http://www.w3.org/1999/xlink" contentStyleType="text/css" height="414px" preserveAspectRatio="none" style="width:593px;height:414px;background:#FFFFFF;" version="1.1" viewBox="0 0 593 414" width="593px" zoomAndPan="magnify"><defs/><g><text fill="#000000" font-family="sans-serif" font-size="14" font-weight="bold" lengthAdjust="spacing" textLength="565" x="10" y="29.5332">TraderXExample - TraderX - Web GUI - Cancel Trade - Sequence - Container level</text><rect fill="#FFFFFF" height="356.6797" style="stroke:#181818;stroke-width:0.5;" width="430.5" x="114" y="44.6094"/><text fill="#000000" font-family="sans-serif" font-size="13" font-weight="bold" lengthAdjust="spacing" textLength="51" x="303.75" y="58.1045">TraderX</text><rect fill="none" height="141.7578" style="stroke:#000000;stroke-width:1.5;" width="452.5" x="108" y="175.9219"/><rect fill="none" height="79.0547" style="stroke:#000000;stroke-width:1.5;" width="362.5" x="188" y="231.625"/><line style="stroke:#181818;stroke-width:0.5;stroke-dasharray:5.0,5.0;" x1="52.5" x2="52.5" y1="128.5703" y2="334.6797"/><line style="stroke:#181818;stroke-width:0.5;stroke-dasharray:5.0,5.0;" x1="153" x2="153" y1="128.5703" y2="334.6797"/><line style="stroke:#181818;stroke-width:0.5;stroke-dasharray:5.0,5.0;" x1="258" x2="258" y1="128.5703" y2="334.6797"/><line style="stroke:#181818;stroke-width:0.5;stroke-dasharray:5.0,5.0;" x1="401.5" x2="401.5" y1="128.5703" y2="334.6797"/><line style="stroke:#181818;stroke-width:0.5;stroke-dasharray:5.0,5.0;" x1="495.5" x2="495.5" y1="128.5703" y2="334.6797"/><rect fill="#E2E2F0" height="31.6094" rx="2.5" ry="2.5" style="stroke:#181818;stroke-width:0.5;" width="65" x="20.5" y="95.9609"/><text fill="#000000" font-family="sans-serif" font-size="14" lengthAdjust="spacing" textLength="51" x="27.5" y="117.4941">External</text><rect fill="#E2E2F0" height="31.6094" rx="2.5" ry="2.5" style="stroke:#181818;stroke-width:0.5;" width="65" x="20.5" y="333.6797"/><text fill="#000000" font-family="sans-serif" font-size="14" lengthAdjust="spacing" textLength="51" x="27.5" y="355.2129">External</text><rect fill="#E2E2F0" height="31.6094" rx="2.5" ry="2.5" style="stroke:#181818;stroke-width:0.5;" width="70" x="118" y="95.9609"/><text fill="#000000" font-family="sans-serif" font-size="14" lengthAdjust="spacing" textLength="56" x="125" y="117.4941">Web GUI</text><rect fill="#E2E2F0" height="31.6094" rx="2.5" ry="2.5" style="stroke:#181818;stroke-width:0.5;" width="70" x="118" y="333.6797"/><text fill="#000000" font-family="sans-serif" font-size="14" lengthAdjust="spacing" textLength="56" x="125" y="355.2129">Web GUI</text><rect fill="#E2E2F0" height="31.6094" rx="2.5" ry="2.5" style="stroke:#181818;stroke-width:0.5;" width="121" x="198" y="95.9609"/><text fill="#000000" font-family="sans-serif" font-size="14" lengthAdjust="spacing" textLength="107" x="205" y="117.4941">Trading Services</text><rect fill="#E2E2F0" height="31.6094" rx="2.5" ry="2.5" style="stroke:#181818;stroke-width:0.5;" width="121" x="198" y="333.6797"/><text fill="#000000" font-family="sans-serif" font-size="14" lengthAdjust="spacing" textLength="107" x="205" y="355.2129">Trading Services</text><text fill="#000000" font-family="sans-serif" font-size="14" lengthAdjust="spacing" textLength="74" x="361.5" y="125.4941">TraderX DB</text><path d="M383.5,74.9609 C383.5,64.9609 401.5,64.9609 401.5,64.9609 C401.5,64.9609 419.5,64.9609 419.5,74.9609 L419.5,100.9609 C419.5,110.9609 401.5,110.9609 401.5,110.9609 C401.5,110.9609 383.5,110.9609 383.5,100.9609 L383.5,74.9609 " fill="#E2E2F0" style="stroke:#181818;stroke-width:1.5;"/><path d="M383.5,74.9609 C383.5,84.9609 401.5,84.9609 401.5,84.9609 C401.5,84.9609 419.5,84.9609 419.5,74.9609 " fill="none" style="stroke:#181818;stroke-width:1.5;"/><text fill="#000000" font-family="sans-serif" font-size="14" lengthAdjust="spacing" textLength="74" x="361.5" y="348.2129">TraderX DB</text><path d="M383.5,361.2891 C383.5,351.2891 401.5,351.2891 401.5,351.2891 C401.5,351.2891 419.5,351.2891 419.5,361.2891 L419.5,387.2891 C419.5,397.2891 401.5,397.2891 401.5,397.2891 C401.5,397.2891 383.5,397.2891 383.5,387.2891 L383.5,361.2891 " fill="#E2E2F0" style="stroke:#181818;stroke-width:1.5;"/><path d="M383.5,361.2891 C383.5,371.2891 401.5,371.2891 401.5,371.2891 C401.5,371.2891 419.5,371.2891 419.5,361.2891 " fill="none" style="stroke:#181818;stroke-width:1.5;"/><rect fill="#E2E2F0" height="31.6094" rx="2.5" ry="2.5" style="stroke:#181818;stroke-width:0.5;" width="89" x="451.5" y="95.9609"/><text fill="#000000" font-family="sans-serif" font-size="14" lengthAdjust="spacing" textLength="75" x="458.5" y="117.4941">Trade Feed</text><rect fill="#E2E2F0" height="31.6094" rx="2.5" ry="2.5" style="stroke:#181818;stroke-width:0.5;" width="89" x="451.5" y="333.6797"/><text fill="#000000" font-family="sans-serif" font-size="14" lengthAdjust="spacing" textLength="75" x="458.5" y="355.2129">Trade Feed</text><polygon fill="#181818" points="141,156.9219,151,160.9219,141,164.9219,145,160.9219" style="stroke:#181818;stroke-width:1.0;"/><line style="stroke:#181818;stroke-width:1.0;" x1="53" x2="147" y1="160.9219" y2="160.9219"/><text fill="#000000" font-family="sans-serif" font-size="13" lengthAdjust="spacing" textLength="76" x="60" y="156.0654">Cancel Trade</text><path d="M108,175.9219 L238,175.9219 L238,184.2734 L228,194.2734 L108,194.2734 L108,175.9219 " fill="#EEEEEE" style="stroke:#000000;stroke-width:1.5;"/><rect fill="none" height="141.7578" style="stroke:#000000;stroke-width:1.5;" width="452.5" x="108" y="175.9219"/><text fill="#000000" font-family="sans-serif" font-size="13" font-weight="bold" lengthAdjust="spacing" textLength="85" x="123" y="190.417">Cancel Trade</text><polygon fill="#181818" points="246.5,212.625,256.5,216.625,246.5,220.625,250.5,216.625" style="stroke:#181818;stroke-width:1.0;"/><line style="stroke:#181818;stroke-width:1.0;" x1="153" x2="252.5" y1="216.625" y2="216.625"/><text fill="#000000" font-family="sans-serif" font-size="13" lengthAdjust="spacing" textLength="76" x="160" y="211.7686">Cancel Trade</text><path d="M188,231.625 L318,231.625 L318,239.9766 L308,249.9766 L188,249.9766 L188,231.625 " fill="#EEEEEE" style="stroke:#000000;stroke-width:1.5;"/><rect fill="none" height="79.0547" style="stroke:#000000;stroke-width:1.5;" width="362.5" x="188" y="231.625"/><text fill="#000000" font-family="sans-serif" font-size="13" font-weight="bold" lengthAdjust="spacing" textLength="85" x="203" y="246.1201">Cancel Trade</text><polygon fill="#181818" points="389.5,268.3281,399.5,272.3281,389.5,276.3281,393.5,272.3281" style="stroke:#181818;stroke-width:1.0;"/><line style="stroke:#181818;stroke-width:1.0;" x1="258.5" x2="395.5" y1="272.3281" y2="272.3281"/><text fill="#000000" font-family="sans-serif" font-size="13" lengthAdjust="spacing" textLength="119" x="265.5" y="267.4717">Update Trade Status</text><polygon fill="#181818" points="484,298.6797,494,302.6797,484,306.6797,488,302.6797" style="stroke:#181818;stroke-width:1.0;"/><line style="stroke:#181818;stroke-width:1.0;" x1="258.5" x2="490" y1="302.6797" y2="302.6797"/><text fill="#000000" font-family="sans-serif" font-size="13" lengthAdjust="spacing" textLength="143" x="265.5" y="297.8232">Send Updates To Trades</text><!--SRC=[nLEvRiCm3Dtr5OGxnrEd3Xro5PdT85rfcqq5A98hqOdpzw5y173IeN1GL8007kBZ8_Z4cWt1kyUI_CUgmKCbxcm8YBMZ7Dws6x4MQ0ioNKhSZBvhaaZCECkeBNamT2IZL8MUTQ4hj0p9gc7o5aq2663nlB7YheqxfPdxv1Dwoiw1wH3IuM7dAvMx1fAUIG9Fko_Df43E2BudsAAFvxXhqAVJAz-GIhKKtwF6fzhkPKf_r0M5YV0zp83IzYcHCST0rzbWENy0NaBB-Sy34Ao9oaUmOxqYMuBiGYdr- -t1x7NoDk1bf3Mrzwwkng79q9DetMpnJ_ZTzfXCjDM3KDnM8hJ-QqF6o7NuLrfHIa8hYshgk8agNOSMeiRQgou0]--></g></svg>