<?xml version="1.0" encoding="us-ascii" standalone="no"?><svg xmlns="http://www.w3.org/2000/svg" xmlns:xlink="http://www.w3.org/1999/xlink" contentStyleType="text/css" height="377px" preserveAspectRatio="none" style="width:1168px;height:377px;background:#FFFFFF;" version="1.1" viewBox="0 0 1168 377" width="1168px" zoomAndPan="magnify"><defs/><g><text fill="#000000" font-family="sans-serif" font-size="14" font-weight="bold" lengthAdjust="spacing" textLength="1140" x="10" y="29.5332">ECommercePlatform - CreateProduct - PriceManagement - Pricing Service - Message Handler - Handle Purchase Order Created Event - Sequence - Container level</text><rect fill="#FFFFFF" height="327.0313" style="stroke:#181818;stroke-width:0.5;" width="224.5" x="497.25" y="44.6094"/><text fill="#000000" font-family="sans-serif" font-size="13" font-weight="bold" lengthAdjust="spacing" textLength="97" x="561" y="58.1045">Pricing Service</text><rect fill="#FFFFFF" height="327.0313" style="stroke:#181818;stroke-width:0.5;" width="102" x="767.25" y="44.6094"/><text fill="#000000" font-family="sans-serif" font-size="13" font-weight="bold" lengthAdjust="spacing" textLength="96" x="770.25" y="58.1045">Buying Service</text><rect fill="none" height="174.1094" style="stroke:#000000;stroke-width:1.5;" width="398" x="471.25" y="144.9219"/><rect fill="none" height="111.4063" style="stroke:#000000;stroke-width:1.5;" width="297" x="481.25" y="200.625"/><rect fill="none" height="48.7031" style="stroke:#000000;stroke-width:1.5;" width="236.5" x="491.25" y="256.3281"/><line style="stroke:#181818;stroke-width:0.5;stroke-dasharray:5.0,5.0;" x1="318.75" x2="318.75" y1="97.5703" y2="336.0313"/><line style="stroke:#181818;stroke-width:0.5;stroke-dasharray:5.0,5.0;" x1="563.25" x2="563.25" y1="97.5703" y2="336.0313"/><line style="stroke:#181818;stroke-width:0.5;stroke-dasharray:5.0,5.0;" x1="679.75" x2="679.75" y1="97.5703" y2="336.0313"/><line style="stroke:#181818;stroke-width:0.5;stroke-dasharray:5.0,5.0;" x1="818.25" x2="818.25" y1="97.5703" y2="336.0313"/><rect fill="#E2E2F0" height="31.6094" rx="2.5" ry="2.5" style="stroke:#181818;stroke-width:0.5;" width="65" x="286.75" y="64.9609"/><text fill="#000000" font-family="sans-serif" font-size="14" lengthAdjust="spacing" textLength="51" x="293.75" y="86.4941">External</text><rect fill="#E2E2F0" height="31.6094" rx="2.5" ry="2.5" style="stroke:#181818;stroke-width:0.5;" width="65" x="286.75" y="335.0313"/><text fill="#000000" font-family="sans-serif" font-size="14" lengthAdjust="spacing" textLength="51" x="293.75" y="356.5645">External</text><rect fill="#E2E2F0" height="31.6094" rx="2.5" ry="2.5" style="stroke:#181818;stroke-width:0.5;" width="124" x="501.25" y="64.9609"/><text fill="#000000" font-family="sans-serif" font-size="14" lengthAdjust="spacing" textLength="110" x="508.25" y="86.4941">Message Handler</text><rect fill="#E2E2F0" height="31.6094" rx="2.5" ry="2.5" style="stroke:#181818;stroke-width:0.5;" width="124" x="501.25" y="335.0313"/><text fill="#000000" font-family="sans-serif" font-size="14" lengthAdjust="spacing" textLength="110" x="508.25" y="356.5645">Message Handler</text><rect fill="#E2E2F0" height="31.6094" rx="2.5" ry="2.5" style="stroke:#181818;stroke-width:0.5;" width="75" x="642.75" y="64.9609"/><text fill="#000000" font-family="sans-serif" font-size="14" lengthAdjust="spacing" textLength="61" x="649.75" y="86.4941">Database</text><rect fill="#E2E2F0" height="31.6094" rx="2.5" ry="2.5" style="stroke:#181818;stroke-width:0.5;" width="75" x="642.75" y="335.0313"/><text fill="#000000" font-family="sans-serif" font-size="14" lengthAdjust="spacing" textLength="61" x="649.75" y="356.5645">Database</text><rect fill="#E2E2F0" height="31.6094" rx="2.5" ry="2.5" style="stroke:#181818;stroke-width:0.5;" width="82" x="777.25" y="64.9609"/><text fill="#000000" font-family="sans-serif" font-size="14" lengthAdjust="spacing" textLength="68" x="784.25" y="86.4941">Messaging</text><rect fill="#E2E2F0" height="31.6094" rx="2.5" ry="2.5" style="stroke:#181818;stroke-width:0.5;" width="82" x="777.25" y="335.0313"/><text fill="#000000" font-family="sans-serif" font-size="14" lengthAdjust="spacing" textLength="68" x="784.25" y="356.5645">Messaging</text><polygon fill="#181818" points="551.25,125.9219,561.25,129.9219,551.25,133.9219,555.25,129.9219" style="stroke:#181818;stroke-width:1.0;"/><line style="stroke:#181818;stroke-width:1.0;" x1="319.25" x2="557.25" y1="129.9219" y2="129.9219"/><text fill="#000000" font-family="sans-serif" font-size="13" lengthAdjust="spacing" textLength="220" x="326.25" y="125.0654">Handle Purchase Order Created Event</text><path d="M471.25,144.9219 L757.25,144.9219 L757.25,153.2734 L747.25,163.2734 L471.25,163.2734 L471.25,144.9219 " fill="#EEEEEE" style="stroke:#000000;stroke-width:1.5;"/><rect fill="none" height="174.1094" style="stroke:#000000;stroke-width:1.5;" width="398" x="471.25" y="144.9219"/><text fill="#000000" font-family="sans-serif" font-size="13" font-weight="bold" lengthAdjust="spacing" textLength="241" x="486.25" y="159.417">Handle Purchase Order Created Event</text><polygon fill="#181818" points="806.25,181.625,816.25,185.625,806.25,189.625,810.25,185.625" style="stroke:#181818;stroke-width:1.0;"/><line style="stroke:#181818;stroke-width:1.0;" x1="563.25" x2="812.25" y1="185.625" y2="185.625"/><text fill="#000000" font-family="sans-serif" font-size="13" lengthAdjust="spacing" textLength="225" x="570.25" y="180.7686">Receive Purchase Order Created Event</text><path d="M481.25,200.625 L554.25,200.625 L554.25,208.9766 L544.25,218.9766 L481.25,218.9766 L481.25,200.625 " fill="#EEEEEE" style="stroke:#000000;stroke-width:1.5;"/><rect fill="none" height="111.4063" style="stroke:#000000;stroke-width:1.5;" width="297" x="481.25" y="200.625"/><text fill="#000000" font-family="sans-serif" font-size="13" font-weight="bold" lengthAdjust="spacing" textLength="28" x="496.25" y="215.1201">loop</text><text fill="#000000" font-family="sans-serif" font-size="11" font-weight="bold" lengthAdjust="spacing" textLength="204" x="569.25" y="214.0439">[For each Product in Purchase Order]</text><polygon fill="#181818" points="668.25,237.3281,678.25,241.3281,668.25,245.3281,672.25,241.3281" style="stroke:#181818;stroke-width:1.0;"/><line style="stroke:#181818;stroke-width:1.0;" x1="563.25" x2="674.25" y1="241.3281" y2="241.3281"/><text fill="#000000" font-family="sans-serif" font-size="13" lengthAdjust="spacing" textLength="93" x="570.25" y="236.4717">Select Products</text><path d="M491.25,256.3281 L552.25,256.3281 L552.25,264.6797 L542.25,274.6797 L491.25,274.6797 L491.25,256.3281 " fill="#EEEEEE" style="stroke:#000000;stroke-width:1.5;"/><rect fill="none" height="48.7031" style="stroke:#000000;stroke-width:1.5;" width="236.5" x="491.25" y="256.3281"/><text fill="#000000" font-family="sans-serif" font-size="13" font-weight="bold" lengthAdjust="spacing" textLength="16" x="506.25" y="270.8232">alt</text><text fill="#000000" font-family="sans-serif" font-size="11" font-weight="bold" lengthAdjust="spacing" textLength="109" x="567.25" y="269.7471">[Product Not Found]</text><polygon fill="#181818" points="668.25,293.0313,678.25,297.0313,668.25,301.0313,672.25,297.0313" style="stroke:#181818;stroke-width:1.0;"/><line style="stroke:#181818;stroke-width:1.0;" x1="563.25" x2="674.25" y1="297.0313" y2="297.0313"/><text fill="#000000" font-family="sans-serif" font-size="13" lengthAdjust="spacing" textLength="81" x="570.25" y="292.1748">Insert Product</text><!--SRC=[tPHDJyCm38Rl-HLMEQydJXoGe6o2mw2Y1yvUussHqgGaQRVzUxprGsmLeWYO49KgrOxhz_MJfa45JJ1DR56GoodL69RM5J21n146IfsLLHuuJftAQOu6LrIGwJBAh20ZL_CQP-RaFQ_3FHgfoN6cUOAqSlaQFS6JavnlUakOrasdZ5uhCeSMYJK1bU4YJJLf8KfqWNLAvCfekWta3Ee8q4Do-M0ud6cxYJEx31jqbEryeCB7NM4J2x6mMuXE34TmyR9MWGJmTIHpCiT1RS0eFY8Kd_0PE6h5M-sudzF7hLehDdHpXm4N3E-NRNGoWem4vYLQQhVLxWlGk7IKpwRhZP5psdyQHYhFyS1kK_OXD5vxPtVy1m6JwxDjA5oDEGLYvMnLZgeyc_4Ha7vi6vdIC-Mawa-6rzQMCBCE2FCrTBydPKxU-bEGldyccKv6cdZIjgSNgFi07crW9fMH_s_i1-F9zPFk3tj_YpS0]--></g></svg>