<?xml version="1.0" encoding="us-ascii" standalone="no"?><svg xmlns="http://www.w3.org/2000/svg" xmlns:xlink="http://www.w3.org/1999/xlink" contentStyleType="text/css" height="385px" preserveAspectRatio="none" style="width:682px;height:385px;background:#FFFFFF;" version="1.1" viewBox="0 0 682 385" width="682px" zoomAndPan="magnify"><defs/><g><text fill="#000000" font-family="sans-serif" font-size="14" font-weight="bold" lengthAdjust="spacing" textLength="654" x="10" y="24.5332">E Commerce Platform - Deliver - Payments - Payment Service - Api - C4 Static - Container level</text><!--cluster ECommercePlatform.Deliver.Payments.SoftwareSystems.PaymentService--><g id="cluster_ECommercePlatform.Deliver.Payments.SoftwareSystems.PaymentService"><rect fill="none" height="236" rx="2.5" ry="2.5" style="stroke:#444444;stroke-width:1.0;stroke-dasharray:7.0,7.0;" width="263" x="213" y="45.6094"/><text fill="#444444" font-family="sans-serif" font-size="16" font-weight="bold" lengthAdjust="spacing" textLength="128" x="280.5" y="64.2188">Payment Service</text><text fill="#444444" font-family="sans-serif" font-size="12" font-weight="bold" lengthAdjust="spacing" textLength="51" x="319" y="80.1914">[System]</text></g><!--entity ECommercePlatform.Deliver.Payments.SoftwareSystems.PaymentService.Containers.Api--><g id="elem_ECommercePlatform.Deliver.Payments.SoftwareSystems.PaymentService.Containers.Api"><rect fill="#438DD5" height="40.125" rx="2.5" ry="2.5" style="stroke:#3C7FC0;stroke-width:0.5;" width="45" x="318.5" y="99.6094"/><text fill="#FFFFFF" font-family="sans-serif" font-size="16" font-weight="bold" lengthAdjust="spacing" textLength="25" x="328.5" y="126.2188">Api</text></g><!--entity ECommercePlatform.Deliver.Payments.SoftwareSystems.PaymentService.Containers.Database--><g id="elem_ECommercePlatform.Deliver.Payments.SoftwareSystems.PaymentService.Containers.Database"><path d="M229,226.6094 C229,216.6094 275,216.6094 275,216.6094 C275,216.6094 321,216.6094 321,226.6094 L321,255.7344 C321,265.7344 275,265.7344 275,265.7344 C275,265.7344 229,265.7344 229,255.7344 L229,226.6094 " fill="#438DD5" style="stroke:#3C7FC0;stroke-width:0.5;"/><path d="M229,226.6094 C229,236.6094 275,236.6094 275,236.6094 C275,236.6094 321,236.6094 321,226.6094 " fill="none" style="stroke:#3C7FC0;stroke-width:0.5;"/><text fill="#FFFFFF" font-family="sans-serif" font-size="16" font-weight="bold" lengthAdjust="spacing" textLength="72" x="239" y="257.2188">Database</text></g><!--entity ECommercePlatform.Deliver.Payments.SoftwareSystems.PaymentService.Containers.Messaging--><g id="elem_ECommercePlatform.Deliver.Payments.SoftwareSystems.PaymentService.Containers.Messaging"><path d="M361.5,226.1094 L454.5,226.1094 C459.5,226.1094 459.5,241.1719 459.5,241.1719 C459.5,241.1719 459.5,256.2344 454.5,256.2344 L361.5,256.2344 C356.5,256.2344 356.5,241.1719 356.5,241.1719 C356.5,241.1719 356.5,226.1094 361.5,226.1094 " fill="#438DD5" style="stroke:#3C7FC0;stroke-width:0.5;"/><path d="M454.5,226.1094 C449.5,226.1094 449.5,241.1719 449.5,241.1719 C449.5,256.2344 454.5,256.2344 454.5,256.2344 " fill="none" style="stroke:#3C7FC0;stroke-width:0.5;"/><text fill="#FFFFFF" font-family="sans-serif" font-size="16" font-weight="bold" lengthAdjust="spacing" textLength="83" x="361.5" y="247.7188">Messaging</text></g><!--link ECommercePlatform.Deliver.Payments.SoftwareSystems.PaymentService.Containers.Api to ECommercePlatform.Deliver.Payments.SoftwareSystems.PaymentService.Containers.Database--><g id="link_ECommercePlatform.Deliver.Payments.SoftwareSystems.PaymentService.Containers.Api_ECommercePlatform.Deliver.Payments.SoftwareSystems.PaymentService.Containers.Database"><path d="M330.4,139.8094 C318.88,160.6594 304.3479,186.9766 291.9479,209.4266 " fill="none" id="ECommercePlatform.Deliver.Payments.SoftwareSystems.PaymentService.Containers.Api-to-ECommercePlatform.Deliver.Payments.SoftwareSystems.PaymentService.Containers.Database" style="stroke:#666666;stroke-width:1.0;"/><polygon fill="#666666" points="288.08,216.4294,294.574,210.877,289.3219,207.9761,288.08,216.4294" style="stroke:#666666;stroke-width:1.0;"/><text fill="#666666" font-family="sans-serif" font-size="12" font-weight="bold" lengthAdjust="spacing" textLength="29" x="314" y="183.0664">Uses</text></g><!--link ECommercePlatform.Deliver.Payments.SoftwareSystems.PaymentService.Containers.Api to ECommercePlatform.Deliver.Payments.SoftwareSystems.PaymentService.Containers.Messaging--><g id="link_ECommercePlatform.Deliver.Payments.SoftwareSystems.PaymentService.Containers.Api_ECommercePlatform.Deliver.Payments.SoftwareSystems.PaymentService.Containers.Messaging"><path d="M351.76,139.8094 C365.23,163.8294 384.0553,197.4126 396.0853,218.8526 " fill="none" id="ECommercePlatform.Deliver.Payments.SoftwareSystems.PaymentService.Containers.Api-to-ECommercePlatform.Deliver.Payments.SoftwareSystems.PaymentService.Containers.Messaging" style="stroke:#666666;stroke-width:1.0;"/><polygon fill="#666666" points="400,225.8294,398.7016,217.3846,393.469,220.3206,400,225.8294" style="stroke:#666666;stroke-width:1.0;"/><text fill="#666666" font-family="sans-serif" font-size="12" font-weight="bold" lengthAdjust="spacing" textLength="29" x="377" y="183.0664">Uses</text></g><rect fill="none" height="17.6094" style="stroke:none;stroke-width:1.0;" width="182" x="269" y="305.6094"/><text fill="#000000" font-family="sans-serif" font-size="14" font-weight="bold" lengthAdjust="spacing" textLength="53" x="269" y="320.1426">Legend</text><text fill="#FFFFFF" font-family="sans-serif" font-size="14" lengthAdjust="spacing" textLength="4" x="322" y="320.1426">&#160;</text><rect fill="#438DD5" height="17.6094" style="stroke:none;stroke-width:1.0;" width="182" x="269" y="323.2188"/><text fill="#3C7FC0" font-family="sans-serif" font-size="14" lengthAdjust="spacing" textLength="14" x="273" y="337.752">&#9647;</text><text fill="#FFFFFF" font-family="sans-serif" font-size="14" lengthAdjust="spacing" textLength="4" x="287" y="337.752">&#160;</text><text fill="#FFFFFF" font-family="sans-serif" font-size="14" lengthAdjust="spacing" textLength="59" x="295" y="337.752">container</text><text fill="#FFFFFF" font-family="sans-serif" font-size="14" lengthAdjust="spacing" textLength="4" x="358" y="337.752">&#160;</text><rect fill="none" height="17.6094" style="stroke:none;stroke-width:1.0;" width="182" x="269" y="340.8281"/><text fill="#444444" font-family="sans-serif" font-size="14" lengthAdjust="spacing" textLength="14" x="273" y="355.3613">&#9647;</text><text fill="#FFFFFF" font-family="sans-serif" font-size="14" lengthAdjust="spacing" textLength="4" x="287" y="355.3613">&#160;</text><text fill="#444444" font-family="sans-serif" font-size="14" lengthAdjust="spacing" textLength="108" x="295" y="355.3613">system boundary</text><text fill="#444444" font-family="sans-serif" font-size="10" lengthAdjust="spacing" textLength="40" x="407" y="356.2402">(dashed)</text><text fill="#FFFFFF" font-family="sans-serif" font-size="14" lengthAdjust="spacing" textLength="4" x="447" y="355.3613">&#160;</text><line style="stroke:none;stroke-width:1.0;" x1="269" x2="451" y1="305.6094" y2="305.6094"/><line style="stroke:none;stroke-width:1.0;" x1="269" x2="451" y1="323.2188" y2="323.2188"/><line style="stroke:none;stroke-width:1.0;" x1="269" x2="451" y1="340.8281" y2="340.8281"/><line style="stroke:none;stroke-width:1.0;" x1="269" x2="451" y1="358.4375" y2="358.4375"/><line style="stroke:none;stroke-width:1.0;" x1="269" x2="269" y1="305.6094" y2="358.4375"/><line style="stroke:none;stroke-width:1.0;" x1="451" x2="451" y1="305.6094" y2="358.4375"/><!--SRC=[rPDDRvmm48Rl_0gNzh182QSzHSfX0_H3IXUw44ML8Y4l3CIgiP5jTekg_lSEOVdOAb5MQNAe1TPu6DvdPco_OoBZJGx4TUyUURAbllEMgIU5eKo0SkkcufQrolE0GmN29BHSsDcI2GEgu79_mLa1MPjnk12mjy_8XstfIIxLPQa01AuBrEezxuk7qSL8bOCwZjFtD9Tx9ifB-oFb6cpdD6nsJqK9-HmjLUSwWJq6lXIke9AxOxY2_0Ho7_K8jkDkW3_VPmC_pN47EUxOpECyBpNhtIGtDcNIwrqd2CxwCGdsjKvgkCOwuy_XRHe5cpXSfr6uIJQhByd2iQvNtyER94t2AFN3spLwBFs3YPegMf5EmxGra5hojbjObc660mc89wiAL0OaujGKKbNadFZ0sGuKMX5jkvtKaqbYK3k6yUTaLJESlIM93JKiw-pX_1CEEy0BOCMjDb2bLx8HELNj8XXu0yuzmDm1vSQoC7kgeFzL3nyEt3DY_vM9xP1V5i4nql-TuevQsiKo4Oepxexzy3h7E7_xka2V6hgbkYjrC9z2VskWWTUbVmMjQObt2t6ZFUF_jYmyos_GuhVguOq6ZNd_1qdFMt_8-d3VhuDFmTfVE7y0]--></g></svg>