<?xml version="1.0" encoding="us-ascii" standalone="no"?><svg xmlns="http://www.w3.org/2000/svg" xmlns:xlink="http://www.w3.org/1999/xlink" contentStyleType="text/css" height="405px" preserveAspectRatio="none" style="width:474px;height:405px;background:#FFFFFF;" version="1.1" viewBox="0 0 474 405" width="474px" zoomAndPan="magnify"><defs/><g><text fill="#000000" font-family="sans-serif" font-size="14" font-weight="bold" lengthAdjust="spacing" textLength="446" x="10" y="29.5332">Catalog Api - Api - Catalog Api - Update Item - COMPONENT level</text><rect fill="#FFFFFF" height="355.0313" style="stroke:#181818;stroke-width:0.5;" width="95" x="108.5" y="44.6094"/><text fill="#000000" font-family="sans-serif" font-size="13" font-weight="bold" lengthAdjust="spacing" textLength="21" x="145.5" y="58.1045">Api</text><rect fill="#FFFFFF" height="355.0313" style="stroke:#181818;stroke-width:0.5;" width="123" x="293.5" y="44.6094"/><text fill="#000000" font-family="sans-serif" font-size="13" font-weight="bold" lengthAdjust="spacing" textLength="84" x="313" y="58.1045">Infrastructure</text><rect fill="none" height="202.1094" style="stroke:#000000;stroke-width:1.5;" width="340" x="92.5" y="144.9219"/><rect fill="none" height="61.7031" style="stroke:#000000;stroke-width:1.5;" width="257.5" x="102.5" y="170.2734"/><rect fill="none" height="50.7031" style="stroke:#000000;stroke-width:1.5;" width="320" x="102.5" y="245.9766"/><line style="stroke:#181818;stroke-width:0.5;stroke-dasharray:5.0,5.0;" x1="61.5" x2="61.5" y1="97.5703" y2="364.0313"/><line style="stroke:#181818;stroke-width:0.5;stroke-dasharray:5.0,5.0;" x1="155.5" x2="155.5" y1="97.5703" y2="364.0313"/><line style="stroke:#181818;stroke-width:0.5;stroke-dasharray:5.0,5.0;" x1="354.5" x2="354.5" y1="97.5703" y2="364.0313"/><rect fill="#E2E2F0" height="31.6094" rx="2.5" ry="2.5" style="stroke:#181818;stroke-width:0.5;" width="65" x="29.5" y="64.9609"/><text fill="#000000" font-family="sans-serif" font-size="14" lengthAdjust="spacing" textLength="51" x="36.5" y="86.4941">External</text><rect fill="#E2E2F0" height="31.6094" rx="2.5" ry="2.5" style="stroke:#181818;stroke-width:0.5;" width="65" x="29.5" y="363.0313"/><text fill="#000000" font-family="sans-serif" font-size="14" lengthAdjust="spacing" textLength="51" x="36.5" y="384.5645">External</text><rect fill="#E2E2F0" height="31.6094" rx="2.5" ry="2.5" style="stroke:#181818;stroke-width:0.5;" width="87" x="112.5" y="64.9609"/><text fill="#000000" font-family="sans-serif" font-size="14" lengthAdjust="spacing" textLength="73" x="119.5" y="86.4941">Catalog Api</text><rect fill="#E2E2F0" height="31.6094" rx="2.5" ry="2.5" style="stroke:#181818;stroke-width:0.5;" width="87" x="112.5" y="363.0313"/><text fill="#000000" font-family="sans-serif" font-size="14" lengthAdjust="spacing" textLength="73" x="119.5" y="384.5645">Catalog Api</text><rect fill="#E2E2F0" height="31.6094" rx="2.5" ry="2.5" style="stroke:#181818;stroke-width:0.5;" width="115" x="297.5" y="64.9609"/><text fill="#000000" font-family="sans-serif" font-size="14" lengthAdjust="spacing" textLength="101" x="304.5" y="86.4941">Catalog Context</text><rect fill="#E2E2F0" height="31.6094" rx="2.5" ry="2.5" style="stroke:#181818;stroke-width:0.5;" width="115" x="297.5" y="363.0313"/><text fill="#000000" font-family="sans-serif" font-size="14" lengthAdjust="spacing" textLength="101" x="304.5" y="384.5645">Catalog Context</text><polygon fill="#181818" points="144,125.9219,154,129.9219,144,133.9219,148,129.9219" style="stroke:#181818;stroke-width:1.0;"/><line style="stroke:#181818;stroke-width:1.0;" x1="62" x2="150" y1="129.9219" y2="129.9219"/><text fill="#000000" font-family="sans-serif" font-size="13" lengthAdjust="spacing" textLength="70" x="69" y="125.0654">Update Item</text><path d="M92.5,144.9219 L214.5,144.9219 L214.5,153.2734 L204.5,163.2734 L92.5,163.2734 L92.5,144.9219 " fill="#EEEEEE" style="stroke:#000000;stroke-width:1.5;"/><rect fill="none" height="202.1094" style="stroke:#000000;stroke-width:1.5;" width="340" x="92.5" y="144.9219"/><text fill="#000000" font-family="sans-serif" font-size="13" font-weight="bold" lengthAdjust="spacing" textLength="77" x="107.5" y="159.417">Update Item</text><path d="M102.5,170.2734 L163.5,170.2734 L163.5,178.625 L153.5,188.625 L102.5,188.625 L102.5,170.2734 " fill="#EEEEEE" style="stroke:#000000;stroke-width:1.5;"/><rect fill="none" height="61.7031" style="stroke:#000000;stroke-width:1.5;" width="257.5" x="102.5" y="170.2734"/><text fill="#000000" font-family="sans-serif" font-size="13" font-weight="bold" lengthAdjust="spacing" textLength="16" x="117.5" y="184.7686">alt</text><text fill="#000000" font-family="sans-serif" font-size="11" font-weight="bold" lengthAdjust="spacing" textLength="110" x="178.5" y="183.6924">[catalogItem == null]</text><line style="stroke:#181818;stroke-width:1.0;" x1="156" x2="198" y1="210.9766" y2="210.9766"/><line style="stroke:#181818;stroke-width:1.0;" x1="198" x2="198" y1="210.9766" y2="223.9766"/><line style="stroke:#181818;stroke-width:1.0;" x1="157" x2="198" y1="223.9766" y2="223.9766"/><polygon fill="#181818" points="167,219.9766,157,223.9766,167,227.9766,163,223.9766" style="stroke:#181818;stroke-width:1.0;"/><text fill="#000000" font-family="sans-serif" font-size="13" lengthAdjust="spacing" textLength="185" x="163" y="206.1201">Retun (TypedResults.NotFound)</text><path d="M102.5,245.9766 L163.5,245.9766 L163.5,254.3281 L153.5,264.3281 L102.5,264.3281 L102.5,245.9766 " fill="#EEEEEE" style="stroke:#000000;stroke-width:1.5;"/><rect fill="none" height="50.7031" style="stroke:#000000;stroke-width:1.5;" width="320" x="102.5" y="245.9766"/><text fill="#000000" font-family="sans-serif" font-size="13" font-weight="bold" lengthAdjust="spacing" textLength="16" x="117.5" y="260.4717">alt</text><text fill="#000000" font-family="sans-serif" font-size="11" font-weight="bold" lengthAdjust="spacing" textLength="125" x="178.5" y="259.3955">[priceEntry.IsModified]</text><line style="stroke:#000000;stroke-width:1.0;stroke-dasharray:2.0,2.0;" x1="102.5" x2="422.5" y1="265.3281" y2="265.3281"/><polygon fill="#181818" points="343,284.6797,353,288.6797,343,292.6797,347,288.6797" style="stroke:#181818;stroke-width:1.0;"/><line style="stroke:#181818;stroke-width:1.0;" x1="156" x2="349" y1="288.6797" y2="288.6797"/><text fill="#000000" font-family="sans-serif" font-size="13" lengthAdjust="spacing" textLength="124" x="163" y="283.8232">Save Changes Async</text><line style="stroke:#181818;stroke-width:1.0;" x1="156" x2="198" y1="326.0313" y2="326.0313"/><line style="stroke:#181818;stroke-width:1.0;" x1="198" x2="198" y1="326.0313" y2="339.0313"/><line style="stroke:#181818;stroke-width:1.0;" x1="157" x2="198" y1="339.0313" y2="339.0313"/><polygon fill="#181818" points="167,335.0313,157,339.0313,167,343.0313,163,339.0313" style="stroke:#181818;stroke-width:1.0;"/><text fill="#000000" font-family="sans-serif" font-size="13" lengthAdjust="spacing" textLength="174" x="163" y="321.1748">Retun (TypedResults.Created)</text><!--SRC=[tLJ1Ri8m3BtdAxpkiXteQQT9J48890x0H9bszbfJ8WKdIboWVxyKkerkayPXIDDoY6B7pdksdtBbF9OR18ErhGJ2XWGPbH8jXc28WiQMC70QUktUzJsv0eLW8hHfxkRJn_biD5k2eIqPfHnwqRbso0B9Q2_a6Kq2661uD-5eZetTfPbToGuzPNM8xuJqBV1eA_LYzv2Su2Pm_RpMGWhYEjv-zdQ0EwaHkx3292bbQ-lIWS-Rh5mgJr-Oj9anCHrQ5jHCFgH7S-Ci4yjfa28k8F9H9ymclF8On5S7X9z9DZYqbryXsiN-XdCBzi7x_Q3E7n3q7YxNKhW_rPWglQrSnuD683-67rJOxmDNngZBCRfmkGkIYk5cMJig5XGg4mDcLiQsukAs6T2XPETrJYCMNwUJCBM5Ncag59b0yBTBFrUJiHCPRkCVj4OkAS0Wr9mVolzNanrwYb9k1wjU0G00]--></g></svg>