<?xml version="1.0" encoding="us-ascii" standalone="no"?><svg xmlns="http://www.w3.org/2000/svg" xmlns:xlink="http://www.w3.org/1999/xlink" contentStyleType="text/css" height="253.125px" preserveAspectRatio="none" style="width:296px;height:253px;background:#FFFFFF;" version="1.1" viewBox="0 0 296 253" width="296.25px" zoomAndPan="magnify"><defs/><g><text fill="#000000" font-family="sans-serif" font-size="8.75" font-weight="bold" lengthAdjust="spacing" textLength="278.75" x="6.25" y="18.4583">Catalog Api - Api - Catalog Api - Update Item - COMPONENT level</text><rect fill="#FFFFFF" height="221.8945" style="stroke:#181818;stroke-width:0.3125;" width="59.375" x="67.8125" y="27.8809"/><text fill="#000000" font-family="sans-serif" font-size="8.125" font-weight="bold" lengthAdjust="spacing" textLength="13.125" x="90.9375" y="36.3153">Api</text><rect fill="#FFFFFF" height="221.8945" style="stroke:#181818;stroke-width:0.3125;" width="76.875" x="183.4375" y="27.8809"/><text fill="#000000" font-family="sans-serif" font-size="8.125" font-weight="bold" lengthAdjust="spacing" textLength="52.5" x="195.625" y="36.3153">Infrastructure</text><rect fill="none" height="126.3184" style="stroke:#000000;stroke-width:0.9375;" width="212.5" x="57.8125" y="90.5762"/><rect fill="none" height="38.5645" style="stroke:#000000;stroke-width:0.9375;" width="160.9375" x="64.0625" y="106.4209"/><rect fill="none" height="31.6895" style="stroke:#000000;stroke-width:0.9375;" width="200" x="64.0625" y="153.7354"/><line style="stroke:#181818;stroke-width:0.3125;stroke-dasharray:5.0,5.0;" x1="38.4375" x2="38.4375" y1="60.9814" y2="227.5195"/><line style="stroke:#181818;stroke-width:0.3125;stroke-dasharray:5.0,5.0;" x1="97.1875" x2="97.1875" y1="60.9814" y2="227.5195"/><line style="stroke:#181818;stroke-width:0.3125;stroke-dasharray:5.0,5.0;" x1="221.5625" x2="221.5625" y1="60.9814" y2="227.5195"/><rect fill="#E2E2F0" height="19.7559" rx="1.5625" ry="1.5625" style="stroke:#181818;stroke-width:0.3125;" width="40.625" x="18.4375" y="40.6006"/><text fill="#000000" font-family="sans-serif" font-size="8.75" lengthAdjust="spacing" textLength="31.875" x="22.8125" y="54.0588">External</text><rect fill="#E2E2F0" height="19.7559" rx="1.5625" ry="1.5625" style="stroke:#181818;stroke-width:0.3125;" width="40.625" x="18.4375" y="226.8945"/><text fill="#000000" font-family="sans-serif" font-size="8.75" lengthAdjust="spacing" textLength="31.875" x="22.8125" y="240.3528">External</text><rect fill="#E2E2F0" height="19.7559" rx="1.5625" ry="1.5625" style="stroke:#181818;stroke-width:0.3125;" width="54.375" x="70.3125" y="40.6006"/><text fill="#000000" font-family="sans-serif" font-size="8.75" lengthAdjust="spacing" textLength="45.625" x="74.6875" y="54.0588">Catalog Api</text><rect fill="#E2E2F0" height="19.7559" rx="1.5625" ry="1.5625" style="stroke:#181818;stroke-width:0.3125;" width="54.375" x="70.3125" y="226.8945"/><text fill="#000000" font-family="sans-serif" font-size="8.75" lengthAdjust="spacing" textLength="45.625" x="74.6875" y="240.3528">Catalog Api</text><rect fill="#E2E2F0" height="19.7559" rx="1.5625" ry="1.5625" style="stroke:#181818;stroke-width:0.3125;" width="71.875" x="185.9375" y="40.6006"/><text fill="#000000" font-family="sans-serif" font-size="8.75" lengthAdjust="spacing" textLength="63.125" x="190.3125" y="54.0588">Catalog Context</text><rect fill="#E2E2F0" height="19.7559" rx="1.5625" ry="1.5625" style="stroke:#181818;stroke-width:0.3125;" width="71.875" x="185.9375" y="226.8945"/><text fill="#000000" font-family="sans-serif" font-size="8.75" lengthAdjust="spacing" textLength="63.125" x="190.3125" y="240.3528">Catalog Context</text><polygon fill="#181818" points="90,78.7012,96.25,81.2012,90,83.7012,92.5,81.2012" style="stroke:#181818;stroke-width:0.625;"/><line style="stroke:#181818;stroke-width:0.625;" x1="38.75" x2="93.75" y1="81.2012" y2="81.2012"/><text fill="#000000" font-family="sans-serif" font-size="8.125" lengthAdjust="spacing" textLength="43.75" x="43.125" y="78.1659">Update Item</text><path d="M57.8125,90.5762 L134.0625,90.5762 L134.0625,95.7959 L127.8125,102.0459 L57.8125,102.0459 L57.8125,90.5762 " fill="#EEEEEE" style="stroke:#000000;stroke-width:0.9375;"/><rect fill="none" height="126.3184" style="stroke:#000000;stroke-width:0.9375;" width="212.5" x="57.8125" y="90.5762"/><text fill="#000000" font-family="sans-serif" font-size="8.125" font-weight="bold" lengthAdjust="spacing" textLength="48.125" x="67.1875" y="99.6356">Update Item</text><path d="M64.0625,106.4209 L102.1875,106.4209 L102.1875,111.6406 L95.9375,117.8906 L64.0625,117.8906 L64.0625,106.4209 " fill="#EEEEEE" style="stroke:#000000;stroke-width:0.9375;"/><rect fill="none" height="38.5645" style="stroke:#000000;stroke-width:0.9375;" width="160.9375" x="64.0625" y="106.4209"/><text fill="#000000" font-family="sans-serif" font-size="8.125" font-weight="bold" lengthAdjust="spacing" textLength="10" x="73.4375" y="115.4803">alt</text><text fill="#000000" font-family="sans-serif" font-size="6.875" font-weight="bold" lengthAdjust="spacing" textLength="68.75" x="111.5625" y="114.8077">[catalogItem == null]</text><line style="stroke:#181818;stroke-width:0.625;" x1="97.5" x2="123.75" y1="131.8604" y2="131.8604"/><line style="stroke:#181818;stroke-width:0.625;" x1="123.75" x2="123.75" y1="131.8604" y2="139.9854"/><line style="stroke:#181818;stroke-width:0.625;" x1="98.125" x2="123.75" y1="139.9854" y2="139.9854"/><polygon fill="#181818" points="104.375,137.4854,98.125,139.9854,104.375,142.4854,101.875,139.9854" style="stroke:#181818;stroke-width:0.625;"/><text fill="#000000" font-family="sans-serif" font-size="8.125" lengthAdjust="spacing" textLength="115.625" x="101.875" y="128.8251">Retun (TypedResults.NotFound)</text><path d="M64.0625,153.7354 L102.1875,153.7354 L102.1875,158.9551 L95.9375,165.2051 L64.0625,165.2051 L64.0625,153.7354 " fill="#EEEEEE" style="stroke:#000000;stroke-width:0.9375;"/><rect fill="none" height="31.6895" style="stroke:#000000;stroke-width:0.9375;" width="200" x="64.0625" y="153.7354"/><text fill="#000000" font-family="sans-serif" font-size="8.125" font-weight="bold" lengthAdjust="spacing" textLength="10" x="73.4375" y="162.7948">alt</text><text fill="#000000" font-family="sans-serif" font-size="6.875" font-weight="bold" lengthAdjust="spacing" textLength="78.125" x="111.5625" y="162.1222">[priceEntry.IsModified]</text><line style="stroke:#000000;stroke-width:0.625;stroke-dasharray:2.0,2.0;" x1="64.0625" x2="264.0625" y1="165.8301" y2="165.8301"/><polygon fill="#181818" points="214.375,177.9248,220.625,180.4248,214.375,182.9248,216.875,180.4248" style="stroke:#181818;stroke-width:0.625;"/><line style="stroke:#181818;stroke-width:0.625;" x1="97.5" x2="218.125" y1="180.4248" y2="180.4248"/><text fill="#000000" font-family="sans-serif" font-size="8.125" lengthAdjust="spacing" textLength="77.5" x="101.875" y="177.3895">Save Changes Async</text><line style="stroke:#181818;stroke-width:0.625;" x1="97.5" x2="123.75" y1="203.7695" y2="203.7695"/><line style="stroke:#181818;stroke-width:0.625;" x1="123.75" x2="123.75" y1="203.7695" y2="211.8945"/><line style="stroke:#181818;stroke-width:0.625;" x1="98.125" x2="123.75" y1="211.8945" y2="211.8945"/><polygon fill="#181818" points="104.375,209.3945,98.125,211.8945,104.375,214.3945,101.875,211.8945" style="stroke:#181818;stroke-width:0.625;"/><text fill="#000000" font-family="sans-serif" font-size="8.125" lengthAdjust="spacing" textLength="108.75" x="101.875" y="200.7343">Retun (TypedResults.Created)</text><!--SRC=[tLHBJm8n4BxtLunuqGCR3yQ3YIQ4GC81C2p6yxWxG6DtshIpmFvxoouggoPoaCJOGzDvVjyyqZFdSLaW6AniAH0A4cHKuKMpGuy5v4x3pPLIeiKGz57Gs2NqehQxlzkwHvUZ48o4YfrjEdwOJWQJEHXQar4g9XMTQOSiq1biXJoZwG06w5-FE8f3OpT9QXUoGKzf5MAUaBmvDh9IptOBdGFS3fm_hRIGWdWQwsTj2xWL6h5pAqoIKBgoBkdvR1ULIUdf2vDzP0nC-fO5DPCFIICMpZAn73efuXmY7tN0RCGBZq5yMIFyJ7A7Grlv5Q9jx6yuxy4-UBy_rF43WkxzwLeAjuSxffRUbgwbGIEGDUxr5jxT0PV6gDCnEd6vCvAIuM9UESfd54eJ7IPMXhRa_78teBfavtL60nPV9QCmjhbUQCeLcK3mjqi_TYTZ9r9SnpzeXRoa0BrGSLQN_wycs_SKLta_MFKA]--></g></svg>