<?xml version="1.0" encoding="us-ascii" standalone="no"?><svg xmlns="http://www.w3.org/2000/svg" xmlns:xlink="http://www.w3.org/1999/xlink" contentStyleType="text/css" height="472px" preserveAspectRatio="none" style="width:473px;height:472px;background:#FFFFFF;" version="1.1" viewBox="0 0 473 472" width="473px" zoomAndPan="magnify"><defs/><g><text fill="#000000" font-family="sans-serif" font-size="14" font-weight="bold" lengthAdjust="spacing" textLength="435" x="20.25" y="29.5332">TraderX - Trade Processor - Start - Sequence - Container level</text><rect fill="#FFFFFF" height="415.3828" style="stroke:#181818;stroke-width:0.5;" width="384.5" x="76" y="44.6094"/><text fill="#000000" font-family="sans-serif" font-size="13" font-weight="bold" lengthAdjust="spacing" textLength="51" x="242.75" y="58.1045">TraderX</text><rect fill="none" height="200.4609" style="stroke:#000000;stroke-width:1.5;" width="396.5" x="70" y="175.9219"/><line style="stroke:#181818;stroke-width:0.5;stroke-dasharray:5.0,5.0;" x1="37" x2="37" y1="128.5703" y2="393.3828"/><line style="stroke:#181818;stroke-width:0.5;stroke-dasharray:5.0,5.0;" x1="140" x2="140" y1="128.5703" y2="393.3828"/><line style="stroke:#181818;stroke-width:0.5;stroke-dasharray:5.0,5.0;" x1="321.5" x2="321.5" y1="128.5703" y2="393.3828"/><line style="stroke:#181818;stroke-width:0.5;stroke-dasharray:5.0,5.0;" x1="416.5" x2="416.5" y1="128.5703" y2="393.3828"/><rect fill="#E2E2F0" height="31.6094" rx="2.5" ry="2.5" style="stroke:#181818;stroke-width:0.5;" width="65" x="5" y="95.9609"/><text fill="#000000" font-family="sans-serif" font-size="14" lengthAdjust="spacing" textLength="51" x="12" y="117.4941">External</text><rect fill="#E2E2F0" height="31.6094" rx="2.5" ry="2.5" style="stroke:#181818;stroke-width:0.5;" width="65" x="5" y="392.3828"/><text fill="#000000" font-family="sans-serif" font-size="14" lengthAdjust="spacing" textLength="51" x="12" y="413.916">External</text><rect fill="#E2E2F0" height="31.6094" rx="2.5" ry="2.5" style="stroke:#181818;stroke-width:0.5;" width="120" x="80" y="95.9609"/><text fill="#000000" font-family="sans-serif" font-size="14" lengthAdjust="spacing" textLength="106" x="87" y="117.4941">Trade Processor</text><rect fill="#E2E2F0" height="31.6094" rx="2.5" ry="2.5" style="stroke:#181818;stroke-width:0.5;" width="120" x="80" y="392.3828"/><text fill="#000000" font-family="sans-serif" font-size="14" lengthAdjust="spacing" textLength="106" x="87" y="413.916">Trade Processor</text><rect fill="#E2E2F0" height="31.6094" rx="2.5" ry="2.5" style="stroke:#181818;stroke-width:0.5;" width="89" x="277.5" y="95.9609"/><text fill="#000000" font-family="sans-serif" font-size="14" lengthAdjust="spacing" textLength="75" x="284.5" y="117.4941">Trade Feed</text><rect fill="#E2E2F0" height="31.6094" rx="2.5" ry="2.5" style="stroke:#181818;stroke-width:0.5;" width="89" x="277.5" y="392.3828"/><text fill="#000000" font-family="sans-serif" font-size="14" lengthAdjust="spacing" textLength="75" x="284.5" y="413.916">Trade Feed</text><text fill="#000000" font-family="sans-serif" font-size="14" lengthAdjust="spacing" textLength="74" x="376.5" y="125.4941">TraderX DB</text><path d="M398.5,74.9609 C398.5,64.9609 416.5,64.9609 416.5,64.9609 C416.5,64.9609 434.5,64.9609 434.5,74.9609 L434.5,100.9609 C434.5,110.9609 416.5,110.9609 416.5,110.9609 C416.5,110.9609 398.5,110.9609 398.5,100.9609 L398.5,74.9609 " fill="#E2E2F0" style="stroke:#181818;stroke-width:1.5;"/><path d="M398.5,74.9609 C398.5,84.9609 416.5,84.9609 416.5,84.9609 C416.5,84.9609 434.5,84.9609 434.5,74.9609 " fill="none" style="stroke:#181818;stroke-width:1.5;"/><text fill="#000000" font-family="sans-serif" font-size="14" lengthAdjust="spacing" textLength="74" x="376.5" y="406.916">TraderX DB</text><path d="M398.5,419.9922 C398.5,409.9922 416.5,409.9922 416.5,409.9922 C416.5,409.9922 434.5,409.9922 434.5,419.9922 L434.5,445.9922 C434.5,455.9922 416.5,455.9922 416.5,455.9922 C416.5,455.9922 398.5,455.9922 398.5,445.9922 L398.5,419.9922 " fill="#E2E2F0" style="stroke:#181818;stroke-width:1.5;"/><path d="M398.5,419.9922 C398.5,429.9922 416.5,429.9922 416.5,429.9922 C416.5,429.9922 434.5,429.9922 434.5,419.9922 " fill="none" style="stroke:#181818;stroke-width:1.5;"/><polygon fill="#181818" points="128,156.9219,138,160.9219,128,164.9219,132,160.9219" style="stroke:#181818;stroke-width:1.0;"/><line style="stroke:#181818;stroke-width:1.0;" x1="37.5" x2="134" y1="160.9219" y2="160.9219"/><text fill="#000000" font-family="sans-serif" font-size="13" lengthAdjust="spacing" textLength="28" x="44.5" y="156.0654">Start</text><path d="M70,175.9219 L145,175.9219 L145,184.2734 L135,194.2734 L70,194.2734 L70,175.9219 " fill="#EEEEEE" style="stroke:#000000;stroke-width:1.5;"/><rect fill="none" height="200.4609" style="stroke:#000000;stroke-width:1.5;" width="396.5" x="70" y="175.9219"/><text fill="#000000" font-family="sans-serif" font-size="13" font-weight="bold" lengthAdjust="spacing" textLength="30" x="85" y="190.417">Start</text><polygon fill="#181818" points="310,212.625,320,216.625,310,220.625,314,216.625" style="stroke:#181818;stroke-width:1.0;"/><line style="stroke:#181818;stroke-width:1.0;" x1="140" x2="316" y1="216.625" y2="216.625"/><text fill="#000000" font-family="sans-serif" font-size="13" lengthAdjust="spacing" textLength="133" x="147" y="211.7686">Receive Trade Request</text><polygon fill="#181818" points="404.5,242.9766,414.5,246.9766,404.5,250.9766,408.5,246.9766" style="stroke:#181818;stroke-width:1.0;"/><line style="stroke:#181818;stroke-width:1.0;" x1="140" x2="410.5" y1="246.9766" y2="246.9766"/><text fill="#000000" font-family="sans-serif" font-size="13" lengthAdjust="spacing" textLength="141" x="147" y="242.1201">Select Current Positions</text><polygon fill="#181818" points="404.5,273.3281,414.5,277.3281,404.5,281.3281,408.5,277.3281" style="stroke:#181818;stroke-width:1.0;"/><line style="stroke:#181818;stroke-width:1.0;" x1="140" x2="410.5" y1="277.3281" y2="277.3281"/><text fill="#000000" font-family="sans-serif" font-size="13" lengthAdjust="spacing" textLength="99" x="147" y="272.4717">Save Trade State</text><polygon fill="#181818" points="404.5,303.6797,414.5,307.6797,404.5,311.6797,408.5,307.6797" style="stroke:#181818;stroke-width:1.0;"/><line style="stroke:#181818;stroke-width:1.0;" x1="140" x2="410.5" y1="307.6797" y2="307.6797"/><text fill="#000000" font-family="sans-serif" font-size="13" lengthAdjust="spacing" textLength="114" x="147" y="302.8232">Save Position State</text><polygon fill="#181818" points="310,334.0313,320,338.0313,310,342.0313,314,338.0313" style="stroke:#181818;stroke-width:1.0;"/><line style="stroke:#181818;stroke-width:1.0;" x1="140" x2="316" y1="338.0313" y2="338.0313"/><text fill="#000000" font-family="sans-serif" font-size="13" lengthAdjust="spacing" textLength="143" x="147" y="333.1748">Send Updates To Trades</text><polygon fill="#181818" points="310,364.3828,320,368.3828,310,372.3828,314,368.3828" style="stroke:#181818;stroke-width:1.0;"/><line style="stroke:#181818;stroke-width:1.0;" x1="140" x2="316" y1="368.3828" y2="368.3828"/><text fill="#000000" font-family="sans-serif" font-size="13" lengthAdjust="spacing" textLength="158" x="147" y="363.5264">Send Updates To Positions</text><!--SRC=[pLCzJyD03DtzAqoOsuc9WQ4jbTWg0gAhcvXoqlKk-9n-_7kS9Wq2X8Goq6Q9xPpVlJm_NrL2wmsXfqEi5TE6bG81g5FF-2HKiYnnr4Qua5XmIb6iaYk9Dcz-hpaKRE4q1YKNMD3pbZr0PKTSuIeAYjdzNba2-GmfuVJc8LWwzt4tpkEhxaWuFoJbJHgV3hOvm2hkCUkeP7ZzykQK0Utv0l-DuV6Mhkd73QTwJxWhzTs_mS-Poq78JUCHj2Ib5INk_mXdaq68ifnDW4E99Wy0_5rG7DqD5mPlsy73Mc9TTV5mj05K6YMDnICNxBQTHIqp4wP_Pj9CeD63FHUAqrg4pIcBc9ow6D9vo52lYSt6zkHi94uwd8D7vv6yMO_dobQERRzY2vCkWigdI-m3m0S0]--></g></svg>