<?xml version="1.0" encoding="us-ascii" standalone="no"?><svg xmlns="http://www.w3.org/2000/svg" xmlns:xlink="http://www.w3.org/1999/xlink" contentStyleType="text/css" height="383px" preserveAspectRatio="none" style="width:619px;height:383px;background:#FFFFFF;" version="1.1" viewBox="0 0 619 383" width="619px" zoomAndPan="magnify"><defs/><g><text fill="#000000" font-family="sans-serif" font-size="14" font-weight="bold" lengthAdjust="spacing" textLength="591" x="10" y="29.5332">To Do App Example - To Do App - Mobile App - Add Task - Sequence - Container level</text><rect fill="#FFFFFF" height="326.3281" style="stroke:#181818;stroke-width:0.5;" width="257" x="202.5" y="44.6094"/><text fill="#000000" font-family="sans-serif" font-size="13" font-weight="bold" lengthAdjust="spacing" textLength="66" x="298" y="58.1045">To Do App</text><rect fill="none" height="111.4063" style="stroke:#000000;stroke-width:1.5;" width="279" x="196.5" y="175.9219"/><rect fill="none" height="48.7031" style="stroke:#000000;stroke-width:1.5;" width="175" x="290.5" y="231.625"/><line style="stroke:#181818;stroke-width:0.5;stroke-dasharray:5.0,5.0;" x1="163.5" x2="163.5" y1="128.5703" y2="304.3281"/><line style="stroke:#181818;stroke-width:0.5;stroke-dasharray:5.0,5.0;" x1="248.5" x2="248.5" y1="128.5703" y2="304.3281"/><line style="stroke:#181818;stroke-width:0.5;stroke-dasharray:5.0,5.0;" x1="333.5" x2="333.5" y1="128.5703" y2="304.3281"/><line style="stroke:#181818;stroke-width:0.5;stroke-dasharray:5.0,5.0;" x1="421.5" x2="421.5" y1="128.5703" y2="304.3281"/><rect fill="#E2E2F0" height="31.6094" rx="2.5" ry="2.5" style="stroke:#181818;stroke-width:0.5;" width="65" x="131.5" y="95.9609"/><text fill="#000000" font-family="sans-serif" font-size="14" lengthAdjust="spacing" textLength="51" x="138.5" y="117.4941">External</text><rect fill="#E2E2F0" height="31.6094" rx="2.5" ry="2.5" style="stroke:#181818;stroke-width:0.5;" width="65" x="131.5" y="303.3281"/><text fill="#000000" font-family="sans-serif" font-size="14" lengthAdjust="spacing" textLength="51" x="138.5" y="324.8613">External</text><rect fill="#E2E2F0" height="31.6094" rx="2.5" ry="2.5" style="stroke:#181818;stroke-width:0.5;" width="84" x="206.5" y="95.9609"/><text fill="#000000" font-family="sans-serif" font-size="14" lengthAdjust="spacing" textLength="70" x="213.5" y="117.4941">Mobile App</text><rect fill="#E2E2F0" height="31.6094" rx="2.5" ry="2.5" style="stroke:#181818;stroke-width:0.5;" width="84" x="206.5" y="303.3281"/><text fill="#000000" font-family="sans-serif" font-size="14" lengthAdjust="spacing" textLength="70" x="213.5" y="324.8613">Mobile App</text><rect fill="#E2E2F0" height="31.6094" rx="2.5" ry="2.5" style="stroke:#181818;stroke-width:0.5;" width="67" x="300.5" y="95.9609"/><text fill="#000000" font-family="sans-serif" font-size="14" lengthAdjust="spacing" textLength="53" x="307.5" y="117.4941">Web Api</text><rect fill="#E2E2F0" height="31.6094" rx="2.5" ry="2.5" style="stroke:#181818;stroke-width:0.5;" width="67" x="300.5" y="303.3281"/><text fill="#000000" font-family="sans-serif" font-size="14" lengthAdjust="spacing" textLength="53" x="307.5" y="324.8613">Web Api</text><text fill="#000000" font-family="sans-serif" font-size="14" lengthAdjust="spacing" textLength="61" x="388.5" y="125.4941">Database</text><path d="M404,74.9609 C404,64.9609 422,64.9609 422,64.9609 C422,64.9609 440,64.9609 440,74.9609 L440,100.9609 C440,110.9609 422,110.9609 422,110.9609 C422,110.9609 404,110.9609 404,100.9609 L404,74.9609 " fill="#E2E2F0" style="stroke:#181818;stroke-width:1.5;"/><path d="M404,74.9609 C404,84.9609 422,84.9609 422,84.9609 C422,84.9609 440,84.9609 440,74.9609 " fill="none" style="stroke:#181818;stroke-width:1.5;"/><text fill="#000000" font-family="sans-serif" font-size="14" lengthAdjust="spacing" textLength="61" x="388.5" y="317.8613">Database</text><path d="M404,330.9375 C404,320.9375 422,320.9375 422,320.9375 C422,320.9375 440,320.9375 440,330.9375 L440,356.9375 C440,366.9375 422,366.9375 422,366.9375 C422,366.9375 404,366.9375 404,356.9375 L404,330.9375 " fill="#E2E2F0" style="stroke:#181818;stroke-width:1.5;"/><path d="M404,330.9375 C404,340.9375 422,340.9375 422,340.9375 C422,340.9375 440,340.9375 440,330.9375 " fill="none" style="stroke:#181818;stroke-width:1.5;"/><polygon fill="#181818" points="236.5,156.9219,246.5,160.9219,236.5,164.9219,240.5,160.9219" style="stroke:#181818;stroke-width:1.0;"/><line style="stroke:#181818;stroke-width:1.0;" x1="164" x2="242.5" y1="160.9219" y2="160.9219"/><text fill="#000000" font-family="sans-serif" font-size="13" lengthAdjust="spacing" textLength="55" x="171" y="156.0654">Add Task</text><path d="M196.5,175.9219 L299.5,175.9219 L299.5,184.2734 L289.5,194.2734 L196.5,194.2734 L196.5,175.9219 " fill="#EEEEEE" style="stroke:#000000;stroke-width:1.5;"/><rect fill="none" height="111.4063" style="stroke:#000000;stroke-width:1.5;" width="279" x="196.5" y="175.9219"/><text fill="#000000" font-family="sans-serif" font-size="13" font-weight="bold" lengthAdjust="spacing" textLength="58" x="211.5" y="190.417">Add Task</text><polygon fill="#181818" points="322,212.625,332,216.625,322,220.625,326,216.625" style="stroke:#181818;stroke-width:1.0;"/><line style="stroke:#181818;stroke-width:1.0;" x1="248.5" x2="328" y1="216.625" y2="216.625"/><text fill="#000000" font-family="sans-serif" font-size="13" lengthAdjust="spacing" textLength="55" x="255.5" y="211.7686">Add Task</text><path d="M290.5,231.625 L393.5,231.625 L393.5,239.9766 L383.5,249.9766 L290.5,249.9766 L290.5,231.625 " fill="#EEEEEE" style="stroke:#000000;stroke-width:1.5;"/><rect fill="none" height="48.7031" style="stroke:#000000;stroke-width:1.5;" width="175" x="290.5" y="231.625"/><text fill="#000000" font-family="sans-serif" font-size="13" font-weight="bold" lengthAdjust="spacing" textLength="58" x="305.5" y="246.1201">Add Task</text><polygon fill="#181818" points="410,268.3281,420,272.3281,410,276.3281,414,272.3281" style="stroke:#181818;stroke-width:1.0;"/><line style="stroke:#181818;stroke-width:1.0;" x1="334" x2="416" y1="272.3281" y2="272.3281"/><text fill="#000000" font-family="sans-serif" font-size="13" lengthAdjust="spacing" textLength="64" x="341" y="267.4717">Insert Task</text><!--SRC=[hL9DJyCm3BtxLrZXt9uuSK2QrY7ji5ChxUok1YAw92GUA_yUqw-1Ta4TaIBvlTZFBqx4IijOUImyhaB0JKV7e4psWyjmvskhv01MJOCLfJSDItu_iJjyfw-z4xAE8xRymIr0e2ZsO0CvGRFfXAEZrY0bNDzldSAdrf_pqZ_BcIANdqducF8fSS00jU_Gp5OCtkrVhJ2WhbyDBWxx5fKllCRZRQwwZCVvR3hbWu2IrzfxhbNOBXJMQYtkLHiIgYanccAC5cfEvS2kGHqH0Fnzg9WztZ8VV9X_0Bn4VmeNU8lg8bF3RF_LqIYvoCxqB6fewn976Kpe8_KRlW00]--></g></svg>