<?xml version="1.0" encoding="us-ascii" standalone="no"?><svg xmlns="http://www.w3.org/2000/svg" xmlns:xlink="http://www.w3.org/1999/xlink" contentStyleType="text/css" height="351px" preserveAspectRatio="none" style="width:1032px;height:351px;background:#FFFFFF;" version="1.1" viewBox="0 0 1032 351" width="1032px" zoomAndPan="magnify"><defs/><g><text fill="#000000" font-family="sans-serif" font-size="14" font-weight="bold" lengthAdjust="spacing" textLength="1004" x="10" y="29.5332">E Commerce Platform - Create Product - Buying And Merchandising - Buying Service - Api - Create Purchase Order - Sequence - Container level</text><rect fill="#FFFFFF" height="293.9766" style="stroke:#181818;stroke-width:0.5;" width="301.5" x="440.5" y="44.6094"/><text fill="#000000" font-family="sans-serif" font-size="13" font-weight="bold" lengthAdjust="spacing" textLength="96" x="543.25" y="58.1045">Buying Service</text><rect fill="none" height="79.0547" style="stroke:#000000;stroke-width:1.5;" width="313.5" x="434.5" y="175.9219"/><line style="stroke:#181818;stroke-width:0.5;stroke-dasharray:5.0,5.0;" x1="304" x2="304" y1="128.5703" y2="271.9766"/><line style="stroke:#181818;stroke-width:0.5;stroke-dasharray:5.0,5.0;" x1="461.5" x2="461.5" y1="128.5703" y2="271.9766"/><line style="stroke:#181818;stroke-width:0.5;stroke-dasharray:5.0,5.0;" x1="612" x2="612" y1="128.5703" y2="271.9766"/><line style="stroke:#181818;stroke-width:0.5;stroke-dasharray:5.0,5.0;" x1="697" x2="697" y1="128.5703" y2="271.9766"/><rect fill="#E2E2F0" height="31.6094" rx="2.5" ry="2.5" style="stroke:#181818;stroke-width:0.5;" width="65" x="272" y="95.9609"/><text fill="#000000" font-family="sans-serif" font-size="14" lengthAdjust="spacing" textLength="51" x="279" y="117.4941">External</text><rect fill="#E2E2F0" height="31.6094" rx="2.5" ry="2.5" style="stroke:#181818;stroke-width:0.5;" width="65" x="272" y="270.9766"/><text fill="#000000" font-family="sans-serif" font-size="14" lengthAdjust="spacing" textLength="51" x="279" y="292.5098">External</text><rect fill="#E2E2F0" height="31.6094" rx="2.5" ry="2.5" style="stroke:#181818;stroke-width:0.5;" width="34" x="444.5" y="95.9609"/><text fill="#000000" font-family="sans-serif" font-size="14" lengthAdjust="spacing" textLength="20" x="451.5" y="117.4941">Api</text><rect fill="#E2E2F0" height="31.6094" rx="2.5" ry="2.5" style="stroke:#181818;stroke-width:0.5;" width="34" x="444.5" y="270.9766"/><text fill="#000000" font-family="sans-serif" font-size="14" lengthAdjust="spacing" textLength="20" x="451.5" y="292.5098">Api</text><text fill="#000000" font-family="sans-serif" font-size="14" lengthAdjust="spacing" textLength="61" x="579" y="125.4941">Database</text><path d="M594.5,74.9609 C594.5,64.9609 612.5,64.9609 612.5,64.9609 C612.5,64.9609 630.5,64.9609 630.5,74.9609 L630.5,100.9609 C630.5,110.9609 612.5,110.9609 612.5,110.9609 C612.5,110.9609 594.5,110.9609 594.5,100.9609 L594.5,74.9609 " fill="#E2E2F0" style="stroke:#181818;stroke-width:1.5;"/><path d="M594.5,74.9609 C594.5,84.9609 612.5,84.9609 612.5,84.9609 C612.5,84.9609 630.5,84.9609 630.5,74.9609 " fill="none" style="stroke:#181818;stroke-width:1.5;"/><text fill="#000000" font-family="sans-serif" font-size="14" lengthAdjust="spacing" textLength="61" x="579" y="285.5098">Database</text><path d="M594.5,298.5859 C594.5,288.5859 612.5,288.5859 612.5,288.5859 C612.5,288.5859 630.5,288.5859 630.5,298.5859 L630.5,324.5859 C630.5,334.5859 612.5,334.5859 612.5,334.5859 C612.5,334.5859 594.5,334.5859 594.5,324.5859 L594.5,298.5859 " fill="#E2E2F0" style="stroke:#181818;stroke-width:1.5;"/><path d="M594.5,298.5859 C594.5,308.5859 612.5,308.5859 612.5,308.5859 C612.5,308.5859 630.5,308.5859 630.5,298.5859 " fill="none" style="stroke:#181818;stroke-width:1.5;"/><rect fill="#E2E2F0" height="31.6094" rx="2.5" ry="2.5" style="stroke:#181818;stroke-width:0.5;" width="82" x="656" y="95.9609"/><text fill="#000000" font-family="sans-serif" font-size="14" lengthAdjust="spacing" textLength="68" x="663" y="117.4941">Messaging</text><rect fill="#E2E2F0" height="31.6094" rx="2.5" ry="2.5" style="stroke:#181818;stroke-width:0.5;" width="82" x="656" y="270.9766"/><text fill="#000000" font-family="sans-serif" font-size="14" lengthAdjust="spacing" textLength="68" x="663" y="292.5098">Messaging</text><polygon fill="#181818" points="449.5,156.9219,459.5,160.9219,449.5,164.9219,453.5,160.9219" style="stroke:#181818;stroke-width:1.0;"/><line style="stroke:#181818;stroke-width:1.0;" x1="304.5" x2="455.5" y1="160.9219" y2="160.9219"/><text fill="#000000" font-family="sans-serif" font-size="13" lengthAdjust="spacing" textLength="133" x="311.5" y="156.0654">Create Purchase Order</text><path d="M434.5,175.9219 L624.5,175.9219 L624.5,184.2734 L614.5,194.2734 L434.5,194.2734 L434.5,175.9219 " fill="#EEEEEE" style="stroke:#000000;stroke-width:1.5;"/><rect fill="none" height="79.0547" style="stroke:#000000;stroke-width:1.5;" width="313.5" x="434.5" y="175.9219"/><text fill="#000000" font-family="sans-serif" font-size="13" font-weight="bold" lengthAdjust="spacing" textLength="145" x="449.5" y="190.417">Create Purchase Order</text><polygon fill="#181818" points="600.5,212.625,610.5,216.625,600.5,220.625,604.5,216.625" style="stroke:#181818;stroke-width:1.0;"/><line style="stroke:#181818;stroke-width:1.0;" x1="461.5" x2="606.5" y1="216.625" y2="216.625"/><text fill="#000000" font-family="sans-serif" font-size="13" lengthAdjust="spacing" textLength="127" x="468.5" y="211.7686">Insert Purchase Order</text><polygon fill="#181818" points="685,242.9766,695,246.9766,685,250.9766,689,246.9766" style="stroke:#181818;stroke-width:1.0;"/><line style="stroke:#181818;stroke-width:1.0;" x1="461.5" x2="691" y1="246.9766" y2="246.9766"/><text fill="#000000" font-family="sans-serif" font-size="13" lengthAdjust="spacing" textLength="210" x="468.5" y="242.1201">Send Purchase Order Created Event</text><!--SRC=[tLGzJyCm4DtzAqvXZYSc1gGIWjIX0Ya3injVKqkE7UnBslvxBf-Y52Ic36IAdo_txhrx2Xco23balgunb0XlLj71XnfIo08gOYHutPR4m5DxCQw2ZTEmu-AZSjh47bck2WoTuIufR1hpfKNRLqU4rw0nC5xWHujkACoy8sKSmnOxj48qAf0fJQCSGPAV2ODJDW4L8RlVEZw-M7-IXJ_GIGKiBf6mZd8k7Cz2xFqPakkf4hXxFnf20VnSiV2m0q4-sp2x84S1amLoxCVwh-JVp3AMJQno4HWbympaMf7QztuapzFRAlGpsQq1EunHLVpLAdCiR08vIhmf8SJVTmlfungBWeUVqokguDlcbxirvbf1_XmKzc3h8WRwfpgN8BBGei_Yjn_LoAOXxz1H7rOXFW40]--></g></svg>