<?xml version="1.0" encoding="us-ascii" standalone="no"?><svg xmlns="http://www.w3.org/2000/svg" xmlns:xlink="http://www.w3.org/1999/xlink" contentStyleType="text/css" height="351px" preserveAspectRatio="none" style="width:1032px;height:351px;background:#FFFFFF;" version="1.1" viewBox="0 0 1032 351" width="1032px" zoomAndPan="magnify"><defs/><g><text fill="#000000" font-family="sans-serif" font-size="14" font-weight="bold" lengthAdjust="spacing" textLength="1004" x="10" y="29.5332">E Commerce Platform - Create Product - Buying And Merchandising - Buying Service - Api - Create Purchase Order - Sequence - Container level</text><rect fill="#FFFFFF" height="293.9766" style="stroke:#181818;stroke-width:0.5;" width="307.5" x="437.5" y="44.6094"/><text fill="#000000" font-family="sans-serif" font-size="13" font-weight="bold" lengthAdjust="spacing" textLength="96" x="543.25" y="58.1045">Buying Service</text><rect fill="none" height="79.0547" style="stroke:#000000;stroke-width:1.5;" width="319.5" x="431.5" y="175.9219"/><line style="stroke:#181818;stroke-width:0.5;stroke-dasharray:5.0,5.0;" x1="301" x2="301" y1="128.5703" y2="271.9766"/><line style="stroke:#181818;stroke-width:0.5;stroke-dasharray:5.0,5.0;" x1="458.5" x2="458.5" y1="128.5703" y2="271.9766"/><line style="stroke:#181818;stroke-width:0.5;stroke-dasharray:5.0,5.0;" x1="609" x2="609" y1="128.5703" y2="271.9766"/><line style="stroke:#181818;stroke-width:0.5;stroke-dasharray:5.0,5.0;" x1="697" x2="697" y1="128.5703" y2="271.9766"/><rect fill="#E2E2F0" height="31.6094" rx="2.5" ry="2.5" style="stroke:#181818;stroke-width:0.5;" width="65" x="269" y="95.9609"/><text fill="#000000" font-family="sans-serif" font-size="14" lengthAdjust="spacing" textLength="51" x="276" y="117.4941">External</text><rect fill="#E2E2F0" height="31.6094" rx="2.5" ry="2.5" style="stroke:#181818;stroke-width:0.5;" width="65" x="269" y="270.9766"/><text fill="#000000" font-family="sans-serif" font-size="14" lengthAdjust="spacing" textLength="51" x="276" y="292.5098">External</text><rect fill="#E2E2F0" height="31.6094" rx="2.5" ry="2.5" style="stroke:#181818;stroke-width:0.5;" width="34" x="441.5" y="95.9609"/><text fill="#000000" font-family="sans-serif" font-size="14" lengthAdjust="spacing" textLength="20" x="448.5" y="117.4941">Api</text><rect fill="#E2E2F0" height="31.6094" rx="2.5" ry="2.5" style="stroke:#181818;stroke-width:0.5;" width="34" x="441.5" y="270.9766"/><text fill="#000000" font-family="sans-serif" font-size="14" lengthAdjust="spacing" textLength="20" x="448.5" y="292.5098">Api</text><text fill="#000000" font-family="sans-serif" font-size="14" lengthAdjust="spacing" textLength="61" x="576" y="125.4941">Database</text><path d="M591.5,74.9609 C591.5,64.9609 609.5,64.9609 609.5,64.9609 C609.5,64.9609 627.5,64.9609 627.5,74.9609 L627.5,100.9609 C627.5,110.9609 609.5,110.9609 609.5,110.9609 C609.5,110.9609 591.5,110.9609 591.5,100.9609 L591.5,74.9609 " fill="#E2E2F0" style="stroke:#181818;stroke-width:1.5;"/><path d="M591.5,74.9609 C591.5,84.9609 609.5,84.9609 609.5,84.9609 C609.5,84.9609 627.5,84.9609 627.5,74.9609 " fill="none" style="stroke:#181818;stroke-width:1.5;"/><text fill="#000000" font-family="sans-serif" font-size="14" lengthAdjust="spacing" textLength="61" x="576" y="285.5098">Database</text><path d="M591.5,298.5859 C591.5,288.5859 609.5,288.5859 609.5,288.5859 C609.5,288.5859 627.5,288.5859 627.5,298.5859 L627.5,324.5859 C627.5,334.5859 609.5,334.5859 609.5,334.5859 C609.5,334.5859 591.5,334.5859 591.5,324.5859 L591.5,298.5859 " fill="#E2E2F0" style="stroke:#181818;stroke-width:1.5;"/><path d="M591.5,298.5859 C591.5,308.5859 609.5,308.5859 609.5,308.5859 C609.5,308.5859 627.5,308.5859 627.5,298.5859 " fill="none" style="stroke:#181818;stroke-width:1.5;"/><path d="M658,100.9609 L736,100.9609 C741,100.9609 741,114.7656 741,114.7656 C741,114.7656 741,128.5703 736,128.5703 L658,128.5703 C653,128.5703 653,114.7656 653,114.7656 C653,114.7656 653,100.9609 658,100.9609 " fill="#E2E2F0" style="stroke:#181818;stroke-width:0.5;"/><path d="M736,100.9609 C731,100.9609 731,114.7656 731,114.7656 C731,128.5703 736,128.5703 736,128.5703 " fill="none" style="stroke:#181818;stroke-width:0.5;"/><text fill="#000000" font-family="sans-serif" font-size="14" lengthAdjust="spacing" textLength="68" x="658" y="120.4941">Messaging</text><path d="M658,270.9766 L736,270.9766 C741,270.9766 741,284.7813 741,284.7813 C741,284.7813 741,298.5859 736,298.5859 L658,298.5859 C653,298.5859 653,284.7813 653,284.7813 C653,284.7813 653,270.9766 658,270.9766 " fill="#E2E2F0" style="stroke:#181818;stroke-width:0.5;"/><path d="M736,270.9766 C731,270.9766 731,284.7813 731,284.7813 C731,298.5859 736,298.5859 736,298.5859 " fill="none" style="stroke:#181818;stroke-width:0.5;"/><text fill="#000000" font-family="sans-serif" font-size="14" lengthAdjust="spacing" textLength="68" x="658" y="290.5098">Messaging</text><polygon fill="#181818" points="446.5,156.9219,456.5,160.9219,446.5,164.9219,450.5,160.9219" style="stroke:#181818;stroke-width:1.0;"/><line style="stroke:#181818;stroke-width:1.0;" x1="301.5" x2="452.5" y1="160.9219" y2="160.9219"/><text fill="#000000" font-family="sans-serif" font-size="13" lengthAdjust="spacing" textLength="133" x="308.5" y="156.0654">Create Purchase Order</text><path d="M431.5,175.9219 L621.5,175.9219 L621.5,184.2734 L611.5,194.2734 L431.5,194.2734 L431.5,175.9219 " fill="#EEEEEE" style="stroke:#000000;stroke-width:1.5;"/><rect fill="none" height="79.0547" style="stroke:#000000;stroke-width:1.5;" width="319.5" x="431.5" y="175.9219"/><text fill="#000000" font-family="sans-serif" font-size="13" font-weight="bold" lengthAdjust="spacing" textLength="145" x="446.5" y="190.417">Create Purchase Order</text><polygon fill="#181818" points="597.5,212.625,607.5,216.625,597.5,220.625,601.5,216.625" style="stroke:#181818;stroke-width:1.0;"/><line style="stroke:#181818;stroke-width:1.0;" x1="458.5" x2="603.5" y1="216.625" y2="216.625"/><text fill="#000000" font-family="sans-serif" font-size="13" lengthAdjust="spacing" textLength="127" x="465.5" y="211.7686">Insert Purchase Order</text><polygon fill="#181818" points="685,242.9766,695,246.9766,685,250.9766,689,246.9766" style="stroke:#181818;stroke-width:1.0;"/><line style="stroke:#181818;stroke-width:1.0;" x1="458.5" x2="691" y1="246.9766" y2="246.9766"/><text fill="#000000" font-family="sans-serif" font-size="13" lengthAdjust="spacing" textLength="210" x="465.5" y="242.1201">Send Purchase Order Created Event</text><!--SRC=[tLIxRiCm3Dpr5OGxMrEd30LIrmKo12tWeRDYCOa0Mt8boad-llGJTHz09m_r9547tXrvC1cg47B8N5sZBn5UAqL7vsj88VEeY2lUwLWI5nxZpTWJRAs6FOFFoceJkihyLA1l3NT9OTkOJorYXmu8BrwZvtg1xn5j3yoS9MKibojiiHAYKPvCQHfb2PByIkYjgX9G0RBxdUNhS-Kkid17kYYFnIqGra5EmE4knC5T8LcgIk3kxMm81V2tO66nFK4-ZM6QWXmCZ2EGGp_slx3_JSi06rdbR318vkd9jI9rwEQHF8sdLUWdibu3Bo2oW3s6e4wCNqN1p2QGGyGx4aByVQkGFgon8jZyd5jnyYuslxojeMi5-rD4U0Ox6z3JF_Kv1v6D5bqMl_oY1ZODUOkMkh0AyG40]--></g></svg>