<?xml version="1.0" encoding="us-ascii" standalone="no"?><svg xmlns="http://www.w3.org/2000/svg" xmlns:xlink="http://www.w3.org/1999/xlink" contentStyleType="text/css" height="364px" preserveAspectRatio="none" style="width:808px;height:364px;background:#FFFFFF;" version="1.1" viewBox="0 0 808 364" width="808px" zoomAndPan="magnify"><defs/><g><text fill="#000000" font-family="sans-serif" font-size="14" font-weight="bold" lengthAdjust="spacing" textLength="780" x="10" y="29.5332">E Commerce Platform - Generate Demand - Storefront - Storefront App - View Basket - Sequence - Context level</text><rect fill="none" height="187.1094" style="stroke:#000000;stroke-width:1.5;" width="400" x="231.25" y="123.5703"/><rect fill="none" height="124.4063" style="stroke:#000000;stroke-width:1.5;" width="274" x="347.25" y="179.2734"/><rect fill="none" height="61.7031" style="stroke:#000000;stroke-width:1.5;" width="156" x="455.25" y="234.9766"/><line style="stroke:#181818;stroke-width:0.5;stroke-dasharray:5.0,5.0;" x1="196.75" x2="196.75" y1="76.2188" y2="327.6797"/><line style="stroke:#181818;stroke-width:0.5;stroke-dasharray:5.0,5.0;" x1="294.25" x2="294.25" y1="76.2188" y2="327.6797"/><line style="stroke:#181818;stroke-width:0.5;stroke-dasharray:5.0,5.0;" x1="406.25" x2="406.25" y1="76.2188" y2="327.6797"/><line style="stroke:#181818;stroke-width:0.5;stroke-dasharray:5.0,5.0;" x1="519.25" x2="519.25" y1="76.2188" y2="327.6797"/><rect fill="#E2E2F0" height="31.6094" rx="2.5" ry="2.5" style="stroke:#181818;stroke-width:0.5;" width="65" x="164.75" y="43.6094"/><text fill="#000000" font-family="sans-serif" font-size="14" lengthAdjust="spacing" textLength="51" x="171.75" y="65.1426">External</text><rect fill="#E2E2F0" height="31.6094" rx="2.5" ry="2.5" style="stroke:#181818;stroke-width:0.5;" width="65" x="164.75" y="326.6797"/><text fill="#000000" font-family="sans-serif" font-size="14" lengthAdjust="spacing" textLength="51" x="171.75" y="348.2129">External</text><rect fill="#E2E2F0" height="31.6094" rx="2.5" ry="2.5" style="stroke:#181818;stroke-width:0.5;" width="106" x="241.25" y="43.6094"/><text fill="#000000" font-family="sans-serif" font-size="14" lengthAdjust="spacing" textLength="92" x="248.25" y="65.1426">Storefront App</text><rect fill="#E2E2F0" height="31.6094" rx="2.5" ry="2.5" style="stroke:#181818;stroke-width:0.5;" width="106" x="241.25" y="326.6797"/><text fill="#000000" font-family="sans-serif" font-size="14" lengthAdjust="spacing" textLength="92" x="248.25" y="348.2129">Storefront App</text><rect fill="#E2E2F0" height="31.6094" rx="2.5" ry="2.5" style="stroke:#181818;stroke-width:0.5;" width="98" x="357.25" y="43.6094"/><text fill="#000000" font-family="sans-serif" font-size="14" lengthAdjust="spacing" textLength="84" x="364.25" y="65.1426">Storefront Bff</text><rect fill="#E2E2F0" height="31.6094" rx="2.5" ry="2.5" style="stroke:#181818;stroke-width:0.5;" width="98" x="357.25" y="326.6797"/><text fill="#000000" font-family="sans-serif" font-size="14" lengthAdjust="spacing" textLength="84" x="364.25" y="348.2129">Storefront Bff</text><rect fill="#E2E2F0" height="31.6094" rx="2.5" ry="2.5" style="stroke:#181818;stroke-width:0.5;" width="108" x="465.25" y="43.6094"/><text fill="#000000" font-family="sans-serif" font-size="14" lengthAdjust="spacing" textLength="94" x="472.25" y="65.1426">Basket Service</text><rect fill="#E2E2F0" height="31.6094" rx="2.5" ry="2.5" style="stroke:#181818;stroke-width:0.5;" width="108" x="465.25" y="326.6797"/><text fill="#000000" font-family="sans-serif" font-size="14" lengthAdjust="spacing" textLength="94" x="472.25" y="348.2129">Basket Service</text><polygon fill="#181818" points="282.25,104.5703,292.25,108.5703,282.25,112.5703,286.25,108.5703" style="stroke:#181818;stroke-width:1.0;"/><line style="stroke:#181818;stroke-width:1.0;" x1="197.25" x2="288.25" y1="108.5703" y2="108.5703"/><text fill="#000000" font-family="sans-serif" font-size="13" lengthAdjust="spacing" textLength="73" x="204.25" y="103.7139">View Basket</text><path d="M231.25,123.5703 L354.25,123.5703 L354.25,131.9219 L344.25,141.9219 L231.25,141.9219 L231.25,123.5703 " fill="#EEEEEE" style="stroke:#000000;stroke-width:1.5;"/><rect fill="none" height="187.1094" style="stroke:#000000;stroke-width:1.5;" width="400" x="231.25" y="123.5703"/><text fill="#000000" font-family="sans-serif" font-size="13" font-weight="bold" lengthAdjust="spacing" textLength="78" x="246.25" y="138.0654">View Basket</text><polygon fill="#181818" points="394.25,160.2734,404.25,164.2734,394.25,168.2734,398.25,164.2734" style="stroke:#181818;stroke-width:1.0;"/><line style="stroke:#181818;stroke-width:1.0;" x1="294.25" x2="400.25" y1="164.2734" y2="164.2734"/><text fill="#000000" font-family="sans-serif" font-size="13" lengthAdjust="spacing" textLength="66" x="301.25" y="159.417">Get Basket</text><path d="M347.25,179.2734 L460.25,179.2734 L460.25,187.625 L450.25,197.625 L347.25,197.625 L347.25,179.2734 " fill="#EEEEEE" style="stroke:#000000;stroke-width:1.5;"/><rect fill="none" height="124.4063" style="stroke:#000000;stroke-width:1.5;" width="274" x="347.25" y="179.2734"/><text fill="#000000" font-family="sans-serif" font-size="13" font-weight="bold" lengthAdjust="spacing" textLength="68" x="362.25" y="193.7686">Get Basket</text><polygon fill="#181818" points="507.25,215.9766,517.25,219.9766,507.25,223.9766,511.25,219.9766" style="stroke:#181818;stroke-width:1.0;"/><line style="stroke:#181818;stroke-width:1.0;" x1="406.25" x2="513.25" y1="219.9766" y2="219.9766"/><text fill="#000000" font-family="sans-serif" font-size="13" lengthAdjust="spacing" textLength="57" x="413.25" y="215.1201">Get Items</text><path d="M455.25,234.9766 L560.25,234.9766 L560.25,243.3281 L550.25,253.3281 L455.25,253.3281 L455.25,234.9766 " fill="#EEEEEE" style="stroke:#000000;stroke-width:1.5;"/><rect fill="none" height="61.7031" style="stroke:#000000;stroke-width:1.5;" width="156" x="455.25" y="234.9766"/><text fill="#000000" font-family="sans-serif" font-size="13" font-weight="bold" lengthAdjust="spacing" textLength="60" x="470.25" y="249.4717">Get Items</text><line style="stroke:#181818;stroke-width:1.0;" x1="519.25" x2="561.25" y1="275.6797" y2="275.6797"/><line style="stroke:#181818;stroke-width:1.0;" x1="561.25" x2="561.25" y1="275.6797" y2="288.6797"/><line style="stroke:#181818;stroke-width:1.0;" x1="520.25" x2="561.25" y1="288.6797" y2="288.6797"/><polygon fill="#181818" points="530.25,284.6797,520.25,288.6797,530.25,292.6797,526.25,288.6797" style="stroke:#181818;stroke-width:1.0;"/><text fill="#000000" font-family="sans-serif" font-size="13" lengthAdjust="spacing" textLength="73" x="526.25" y="270.8232">Select Items</text><!--SRC=[hL8nRiCm3Dpr2YAxFNNgKA19tI1R0GFT1UTS69KbbsRYzFTbOxkn41Jme443Z-JTaPGqua05xKBRWYlGcxDI1sufepqys0he1QtrHqLA2OoQWvSuUEuw1TuR3BIr_IUkQNoTu9KnKt8lk0WvdE6CwInBKpMTrSvDSH6mjsv3jgVTmq4h-TM58Iz3BODbbD-zeEtpkN2COvBOofMgc2UQ1yhdSSPfyblFdTGjfMp_ActhEg6IiiLAqo9ByBcfi4vfxBbJ6U69oPZrMwRiATqYwN7vGym7XrCN8UcKajdMgwZjlTuXShq0qkciCRtcm9FXmszcuNUCqoWaj5h2ePhTmH__dla1]--></g></svg>