<?xml version="1.0" encoding="us-ascii" standalone="no"?><svg xmlns="http://www.w3.org/2000/svg" xmlns:xlink="http://www.w3.org/1999/xlink" contentStyleType="text/css" height="446px" preserveAspectRatio="none" style="width:822px;height:446px;background:#FFFFFF;" version="1.1" viewBox="0 0 822 446" width="822px" zoomAndPan="magnify"><defs/><g><text fill="#000000" font-family="sans-serif" font-size="14" font-weight="bold" lengthAdjust="spacing" textLength="794" x="10" y="29.5332">E Commerce Platform - Generate Demand - Storefront - Storefront App - View Basket - Sequence - Container level</text><rect fill="#FFFFFF" height="389.0313" style="stroke:#181818;stroke-width:0.5;" width="155.5" x="465" y="44.6094"/><text fill="#000000" font-family="sans-serif" font-size="13" font-weight="bold" lengthAdjust="spacing" textLength="94" x="495.75" y="58.1045">Basket Service</text><rect fill="none" height="174.1094" style="stroke:#000000;stroke-width:1.5;" width="416.5" x="230" y="175.9219"/><rect fill="none" height="111.4063" style="stroke:#000000;stroke-width:1.5;" width="290.5" x="346" y="231.625"/><rect fill="none" height="48.7031" style="stroke:#000000;stroke-width:1.5;" width="167.5" x="459" y="287.3281"/><line style="stroke:#181818;stroke-width:0.5;stroke-dasharray:5.0,5.0;" x1="195.5" x2="195.5" y1="128.5703" y2="367.0313"/><line style="stroke:#181818;stroke-width:0.5;stroke-dasharray:5.0,5.0;" x1="293" x2="293" y1="128.5703" y2="367.0313"/><line style="stroke:#181818;stroke-width:0.5;stroke-dasharray:5.0,5.0;" x1="405" x2="405" y1="128.5703" y2="367.0313"/><line style="stroke:#181818;stroke-width:0.5;stroke-dasharray:5.0,5.0;" x1="486" x2="486" y1="128.5703" y2="367.0313"/><line style="stroke:#181818;stroke-width:0.5;stroke-dasharray:5.0,5.0;" x1="582.5" x2="582.5" y1="128.5703" y2="367.0313"/><rect fill="#E2E2F0" height="31.6094" rx="2.5" ry="2.5" style="stroke:#181818;stroke-width:0.5;" width="65" x="163.5" y="95.9609"/><text fill="#000000" font-family="sans-serif" font-size="14" lengthAdjust="spacing" textLength="51" x="170.5" y="117.4941">External</text><rect fill="#E2E2F0" height="31.6094" rx="2.5" ry="2.5" style="stroke:#181818;stroke-width:0.5;" width="65" x="163.5" y="366.0313"/><text fill="#000000" font-family="sans-serif" font-size="14" lengthAdjust="spacing" textLength="51" x="170.5" y="387.5645">External</text><rect fill="#E2E2F0" height="31.6094" rx="2.5" ry="2.5" style="stroke:#181818;stroke-width:0.5;" width="106" x="240" y="95.9609"/><text fill="#000000" font-family="sans-serif" font-size="14" lengthAdjust="spacing" textLength="92" x="247" y="117.4941">Storefront App</text><rect fill="#E2E2F0" height="31.6094" rx="2.5" ry="2.5" style="stroke:#181818;stroke-width:0.5;" width="106" x="240" y="366.0313"/><text fill="#000000" font-family="sans-serif" font-size="14" lengthAdjust="spacing" textLength="92" x="247" y="387.5645">Storefront App</text><rect fill="#E2E2F0" height="31.6094" rx="2.5" ry="2.5" style="stroke:#181818;stroke-width:0.5;" width="98" x="356" y="95.9609"/><text fill="#000000" font-family="sans-serif" font-size="14" lengthAdjust="spacing" textLength="84" x="363" y="117.4941">Storefront Bff</text><rect fill="#E2E2F0" height="31.6094" rx="2.5" ry="2.5" style="stroke:#181818;stroke-width:0.5;" width="98" x="356" y="366.0313"/><text fill="#000000" font-family="sans-serif" font-size="14" lengthAdjust="spacing" textLength="84" x="363" y="387.5645">Storefront Bff</text><rect fill="#E2E2F0" height="31.6094" rx="2.5" ry="2.5" style="stroke:#181818;stroke-width:0.5;" width="34" x="469" y="95.9609"/><text fill="#000000" font-family="sans-serif" font-size="14" lengthAdjust="spacing" textLength="20" x="476" y="117.4941">Api</text><rect fill="#E2E2F0" height="31.6094" rx="2.5" ry="2.5" style="stroke:#181818;stroke-width:0.5;" width="34" x="469" y="366.0313"/><text fill="#000000" font-family="sans-serif" font-size="14" lengthAdjust="spacing" textLength="20" x="476" y="387.5645">Api</text><text fill="#000000" font-family="sans-serif" font-size="14" lengthAdjust="spacing" textLength="61" x="549.5" y="125.4941">Database</text><path d="M565,74.9609 C565,64.9609 583,64.9609 583,64.9609 C583,64.9609 601,64.9609 601,74.9609 L601,100.9609 C601,110.9609 583,110.9609 583,110.9609 C583,110.9609 565,110.9609 565,100.9609 L565,74.9609 " fill="#E2E2F0" style="stroke:#181818;stroke-width:1.5;"/><path d="M565,74.9609 C565,84.9609 583,84.9609 583,84.9609 C583,84.9609 601,84.9609 601,74.9609 " fill="none" style="stroke:#181818;stroke-width:1.5;"/><text fill="#000000" font-family="sans-serif" font-size="14" lengthAdjust="spacing" textLength="61" x="549.5" y="380.5645">Database</text><path d="M565,393.6406 C565,383.6406 583,383.6406 583,383.6406 C583,383.6406 601,383.6406 601,393.6406 L601,419.6406 C601,429.6406 583,429.6406 583,429.6406 C583,429.6406 565,429.6406 565,419.6406 L565,393.6406 " fill="#E2E2F0" style="stroke:#181818;stroke-width:1.5;"/><path d="M565,393.6406 C565,403.6406 583,403.6406 583,403.6406 C583,403.6406 601,403.6406 601,393.6406 " fill="none" style="stroke:#181818;stroke-width:1.5;"/><polygon fill="#181818" points="281,156.9219,291,160.9219,281,164.9219,285,160.9219" style="stroke:#181818;stroke-width:1.0;"/><line style="stroke:#181818;stroke-width:1.0;" x1="196" x2="287" y1="160.9219" y2="160.9219"/><text fill="#000000" font-family="sans-serif" font-size="13" lengthAdjust="spacing" textLength="73" x="203" y="156.0654">View Basket</text><path d="M230,175.9219 L353,175.9219 L353,184.2734 L343,194.2734 L230,194.2734 L230,175.9219 " fill="#EEEEEE" style="stroke:#000000;stroke-width:1.5;"/><rect fill="none" height="174.1094" style="stroke:#000000;stroke-width:1.5;" width="416.5" x="230" y="175.9219"/><text fill="#000000" font-family="sans-serif" font-size="13" font-weight="bold" lengthAdjust="spacing" textLength="78" x="245" y="190.417">View Basket</text><polygon fill="#181818" points="393,212.625,403,216.625,393,220.625,397,216.625" style="stroke:#181818;stroke-width:1.0;"/><line style="stroke:#181818;stroke-width:1.0;" x1="293" x2="399" y1="216.625" y2="216.625"/><text fill="#000000" font-family="sans-serif" font-size="13" lengthAdjust="spacing" textLength="66" x="300" y="211.7686">Get Basket</text><path d="M346,231.625 L459,231.625 L459,239.9766 L449,249.9766 L346,249.9766 L346,231.625 " fill="#EEEEEE" style="stroke:#000000;stroke-width:1.5;"/><rect fill="none" height="111.4063" style="stroke:#000000;stroke-width:1.5;" width="290.5" x="346" y="231.625"/><text fill="#000000" font-family="sans-serif" font-size="13" font-weight="bold" lengthAdjust="spacing" textLength="68" x="361" y="246.1201">Get Basket</text><polygon fill="#181818" points="474,268.3281,484,272.3281,474,276.3281,478,272.3281" style="stroke:#181818;stroke-width:1.0;"/><line style="stroke:#181818;stroke-width:1.0;" x1="405" x2="480" y1="272.3281" y2="272.3281"/><text fill="#000000" font-family="sans-serif" font-size="13" lengthAdjust="spacing" textLength="57" x="412" y="267.4717">Get Items</text><path d="M459,287.3281 L564,287.3281 L564,295.6797 L554,305.6797 L459,305.6797 L459,287.3281 " fill="#EEEEEE" style="stroke:#000000;stroke-width:1.5;"/><rect fill="none" height="48.7031" style="stroke:#000000;stroke-width:1.5;" width="167.5" x="459" y="287.3281"/><text fill="#000000" font-family="sans-serif" font-size="13" font-weight="bold" lengthAdjust="spacing" textLength="60" x="474" y="301.8232">Get Items</text><polygon fill="#181818" points="571,324.0313,581,328.0313,571,332.0313,575,328.0313" style="stroke:#181818;stroke-width:1.0;"/><line style="stroke:#181818;stroke-width:1.0;" x1="486" x2="577" y1="328.0313" y2="328.0313"/><text fill="#000000" font-family="sans-serif" font-size="13" lengthAdjust="spacing" textLength="73" x="493" y="323.1748">Select Items</text><!--SRC=[jL8xQyCm4DxrAmvtjgTE6Gfvk25RmT3E5-VSYigIAr_YzD_tQbk9JIYOuWW4kfFqFQIFDHk25DQkBCdd12y6kN2-X1YsPCaZ4soeH7kGJiREK-6TvN6nh2ffl6fgO8Nr9xNRz7KaAuYnW5j6BM1Ww4H6gGezwrnNA7UZzCpaBPe8i8RruyvA-MnSasIku0OzPTyrKraduM1NZq76ObgeD7WAbf9WgFEJNE_SK5st1ErFfbLHpCWaQ4hjtHcY_WqpyYUTKmGFRn-QIO6CaPHbfQVnTu0tt5sxfqaklrGd0joo7P1nZpL1jEbNz-4Bw8eaPl84IgdfGO3uQRw_XiKmnkhTksCrwip7D9ji2Ox8tafYHge7ZVbufeZ-Hzfw_RlVWmFvNNqNmdiO2J4MDnaPoeC1IVLbgXy0]--></g></svg>