<?xml version="1.0" encoding="us-ascii" standalone="no"?><svg xmlns="http://www.w3.org/2000/svg" xmlns:xlink="http://www.w3.org/1999/xlink" contentStyleType="text/css" height="345px" preserveAspectRatio="none" style="width:699px;height:345px;background:#FFFFFF;" version="1.1" viewBox="0 0 699 345" width="699px" zoomAndPan="magnify"><defs/><g><text fill="#000000" font-family="sans-serif" font-size="14" font-weight="bold" lengthAdjust="spacing" textLength="671" x="10" y="29.5332">Big Bank Plc - Internet Banking - Single-Page App - Create Account - Sequence - Container level</text><rect fill="#FFFFFF" height="294.6797" style="stroke:#181818;stroke-width:0.5;" width="246" x="99.75" y="44.6094"/><text fill="#000000" font-family="sans-serif" font-size="13" font-weight="bold" lengthAdjust="spacing" textLength="105" x="170.25" y="58.1045">Internet Banking</text><rect fill="none" height="141.7578" style="stroke:#000000;stroke-width:1.5;" width="576" x="93.75" y="144.9219"/><rect fill="none" height="79.0547" style="stroke:#000000;stroke-width:1.5;" width="436" x="223.75" y="200.625"/><line style="stroke:#181818;stroke-width:0.5;stroke-dasharray:5.0,5.0;" x1="49.25" x2="49.25" y1="97.5703" y2="303.6797"/><line style="stroke:#181818;stroke-width:0.5;stroke-dasharray:5.0,5.0;" x1="163.75" x2="163.75" y1="97.5703" y2="303.6797"/><line style="stroke:#181818;stroke-width:0.5;stroke-dasharray:5.0,5.0;" x1="287.75" x2="287.75" y1="97.5703" y2="303.6797"/><line style="stroke:#181818;stroke-width:0.5;stroke-dasharray:5.0,5.0;" x1="443.75" x2="443.75" y1="97.5703" y2="303.6797"/><line style="stroke:#181818;stroke-width:0.5;stroke-dasharray:5.0,5.0;" x1="597.75" x2="597.75" y1="97.5703" y2="303.6797"/><rect fill="#E2E2F0" height="31.6094" rx="2.5" ry="2.5" style="stroke:#181818;stroke-width:0.5;" width="65" x="17.25" y="64.9609"/><text fill="#000000" font-family="sans-serif" font-size="14" lengthAdjust="spacing" textLength="51" x="24.25" y="86.4941">External</text><rect fill="#E2E2F0" height="31.6094" rx="2.5" ry="2.5" style="stroke:#181818;stroke-width:0.5;" width="65" x="17.25" y="302.6797"/><text fill="#000000" font-family="sans-serif" font-size="14" lengthAdjust="spacing" textLength="51" x="24.25" y="324.2129">External</text><rect fill="#E2E2F0" height="31.6094" rx="2.5" ry="2.5" style="stroke:#181818;stroke-width:0.5;" width="120" x="103.75" y="64.9609"/><text fill="#000000" font-family="sans-serif" font-size="14" lengthAdjust="spacing" textLength="106" x="110.75" y="86.4941">Single-Page App</text><rect fill="#E2E2F0" height="31.6094" rx="2.5" ry="2.5" style="stroke:#181818;stroke-width:0.5;" width="120" x="103.75" y="302.6797"/><text fill="#000000" font-family="sans-serif" font-size="14" lengthAdjust="spacing" textLength="106" x="110.75" y="324.2129">Single-Page App</text><rect fill="#E2E2F0" height="31.6094" rx="2.5" ry="2.5" style="stroke:#181818;stroke-width:0.5;" width="108" x="233.75" y="64.9609"/><text fill="#000000" font-family="sans-serif" font-size="14" lengthAdjust="spacing" textLength="94" x="240.75" y="86.4941">API Application</text><rect fill="#E2E2F0" height="31.6094" rx="2.5" ry="2.5" style="stroke:#181818;stroke-width:0.5;" width="108" x="233.75" y="302.6797"/><text fill="#000000" font-family="sans-serif" font-size="14" lengthAdjust="spacing" textLength="94" x="240.75" y="324.2129">API Application</text><rect fill="#E2E2F0" height="31.6094" rx="2.5" ry="2.5" style="stroke:#181818;stroke-width:0.5;" width="185" x="351.75" y="64.9609"/><text fill="#000000" font-family="sans-serif" font-size="14" lengthAdjust="spacing" textLength="171" x="358.75" y="86.4941">Mainframe Banking System</text><rect fill="#E2E2F0" height="31.6094" rx="2.5" ry="2.5" style="stroke:#181818;stroke-width:0.5;" width="185" x="351.75" y="302.6797"/><text fill="#000000" font-family="sans-serif" font-size="14" lengthAdjust="spacing" textLength="171" x="358.75" y="324.2129">Mainframe Banking System</text><rect fill="#E2E2F0" height="31.6094" rx="2.5" ry="2.5" style="stroke:#181818;stroke-width:0.5;" width="103" x="546.75" y="64.9609"/><text fill="#000000" font-family="sans-serif" font-size="14" lengthAdjust="spacing" textLength="89" x="553.75" y="86.4941">E-Mail System</text><rect fill="#E2E2F0" height="31.6094" rx="2.5" ry="2.5" style="stroke:#181818;stroke-width:0.5;" width="103" x="546.75" y="302.6797"/><text fill="#000000" font-family="sans-serif" font-size="14" lengthAdjust="spacing" textLength="89" x="553.75" y="324.2129">E-Mail System</text><polygon fill="#181818" points="151.75,125.9219,161.75,129.9219,151.75,133.9219,155.75,129.9219" style="stroke:#181818;stroke-width:1.0;"/><line style="stroke:#181818;stroke-width:1.0;" x1="49.75" x2="157.75" y1="129.9219" y2="129.9219"/><text fill="#000000" font-family="sans-serif" font-size="13" lengthAdjust="spacing" textLength="90" x="56.75" y="125.0654">Create Account</text><path d="M93.75,144.9219 L235.75,144.9219 L235.75,153.2734 L225.75,163.2734 L93.75,163.2734 L93.75,144.9219 " fill="#EEEEEE" style="stroke:#000000;stroke-width:1.5;"/><rect fill="none" height="141.7578" style="stroke:#000000;stroke-width:1.5;" width="576" x="93.75" y="144.9219"/><text fill="#000000" font-family="sans-serif" font-size="13" font-weight="bold" lengthAdjust="spacing" textLength="97" x="108.75" y="159.417">Create Account</text><polygon fill="#181818" points="275.75,181.625,285.75,185.625,275.75,189.625,279.75,185.625" style="stroke:#181818;stroke-width:1.0;"/><line style="stroke:#181818;stroke-width:1.0;" x1="163.75" x2="281.75" y1="185.625" y2="185.625"/><text fill="#000000" font-family="sans-serif" font-size="13" lengthAdjust="spacing" textLength="90" x="170.75" y="180.7686">Create Account</text><path d="M223.75,200.625 L365.75,200.625 L365.75,208.9766 L355.75,218.9766 L223.75,218.9766 L223.75,200.625 " fill="#EEEEEE" style="stroke:#000000;stroke-width:1.5;"/><rect fill="none" height="79.0547" style="stroke:#000000;stroke-width:1.5;" width="436" x="223.75" y="200.625"/><text fill="#000000" font-family="sans-serif" font-size="13" font-weight="bold" lengthAdjust="spacing" textLength="97" x="238.75" y="215.1201">Create Account</text><polygon fill="#181818" points="432.25,237.3281,442.25,241.3281,432.25,245.3281,436.25,241.3281" style="stroke:#181818;stroke-width:1.0;"/><line style="stroke:#181818;stroke-width:1.0;" x1="287.75" x2="438.25" y1="241.3281" y2="241.3281"/><text fill="#000000" font-family="sans-serif" font-size="13" lengthAdjust="spacing" textLength="90" x="294.75" y="236.4717">Create Account</text><polygon fill="#181818" points="586.25,267.6797,596.25,271.6797,586.25,275.6797,590.25,271.6797" style="stroke:#181818;stroke-width:1.0;"/><line style="stroke:#181818;stroke-width:1.0;" x1="287.75" x2="592.25" y1="271.6797" y2="271.6797"/><text fill="#000000" font-family="sans-serif" font-size="13" lengthAdjust="spacing" textLength="269" x="294.75" y="266.8232">Send New Account Created Notification E-Mail</text><!--SRC=[lLHDJuGm4BttLqpm32TF7ansDsko1mq91yyL1spijbW6MV-zKxwo5ACRNPU4a0wlxxtf6o156c6jIbXBymgfpY66dI5q1gchALDoAUE7nZYL9SAgghYoSIY95tbk6qCUWcyDcXpzEsj8AeCEDBwZ5gAIZbIkAid8Q7lmz59786lON7TgTzgsIMOBQgN3xACctDV92EpNGZpP0qIXkGYk7byKeG2-PZg1vqwEE_NxkC-5saWyy2PJ4tNICtaYvbaAhTAT5z0gbwIi-OCGCnqH2JJFm4q7vtVFuCB9FKxvzCm_wKxxXct3iSwpYHcbJoJSUkmOpkb1GdnxZXpW9fX1KJhRL67n74g_DZpFyryT1rBVM_vw59R-Bc3bQ8XOF_CZ_u3jz5_f3N7DaYf6ndvA_UVHtU8J]--></g></svg>