<?xml version="1.0" encoding="us-ascii" standalone="no"?><svg xmlns="http://www.w3.org/2000/svg" xmlns:xlink="http://www.w3.org/1999/xlink" contentStyleType="text/css" height="416px" preserveAspectRatio="none" style="width:778px;height:416px;background:#FFFFFF;" version="1.1" viewBox="0 0 778 416" width="778px" zoomAndPan="magnify"><defs/><g><text fill="#000000" font-family="sans-serif" font-size="14" font-weight="bold" lengthAdjust="spacing" textLength="750" x="10" y="29.5332">dotnet - eShop - Architecture - Catalog Api - Api - Catalog Api - Get Item By Id - Sequence - Component level</text><rect fill="#FFFFFF" height="366.0313" style="stroke:#181818;stroke-width:0.5;" width="95" x="289.25" y="44.6094"/><text fill="#000000" font-family="sans-serif" font-size="13" font-weight="bold" lengthAdjust="spacing" textLength="21" x="326.25" y="58.1045">Api</text><rect fill="none" height="213.1094" style="stroke:#000000;stroke-width:1.5;" width="296.5" x="273.25" y="144.9219"/><rect fill="none" height="61.7031" style="stroke:#000000;stroke-width:1.5;" width="276.5" x="283.25" y="170.2734"/><rect fill="none" height="61.7031" style="stroke:#000000;stroke-width:1.5;" width="261.5" x="283.25" y="245.9766"/><line style="stroke:#181818;stroke-width:0.5;stroke-dasharray:5.0,5.0;" x1="228.25" x2="228.25" y1="97.5703" y2="375.0313"/><line style="stroke:#181818;stroke-width:0.5;stroke-dasharray:5.0,5.0;" x1="336.25" x2="336.25" y1="97.5703" y2="375.0313"/><rect fill="#E2E2F0" height="31.6094" rx="2.5" ry="2.5" style="stroke:#181818;stroke-width:0.5;" width="65" x="196.25" y="64.9609"/><text fill="#000000" font-family="sans-serif" font-size="14" lengthAdjust="spacing" textLength="51" x="203.25" y="86.4941">External</text><rect fill="#E2E2F0" height="31.6094" rx="2.5" ry="2.5" style="stroke:#181818;stroke-width:0.5;" width="65" x="196.25" y="374.0313"/><text fill="#000000" font-family="sans-serif" font-size="14" lengthAdjust="spacing" textLength="51" x="203.25" y="395.5645">External</text><rect fill="#E2E2F0" height="31.6094" rx="2.5" ry="2.5" style="stroke:#181818;stroke-width:0.5;" width="87" x="293.25" y="64.9609"/><text fill="#000000" font-family="sans-serif" font-size="14" lengthAdjust="spacing" textLength="73" x="300.25" y="86.4941">Catalog Api</text><rect fill="#E2E2F0" height="31.6094" rx="2.5" ry="2.5" style="stroke:#181818;stroke-width:0.5;" width="87" x="293.25" y="374.0313"/><text fill="#000000" font-family="sans-serif" font-size="14" lengthAdjust="spacing" textLength="73" x="300.25" y="395.5645">Catalog Api</text><polygon fill="#181818" points="324.75,125.9219,334.75,129.9219,324.75,133.9219,328.75,129.9219" style="stroke:#181818;stroke-width:1.0;"/><line style="stroke:#181818;stroke-width:1.0;" x1="228.75" x2="330.75" y1="129.9219" y2="129.9219"/><text fill="#000000" font-family="sans-serif" font-size="13" lengthAdjust="spacing" textLength="84" x="235.75" y="125.0654">Get Item By Id</text><path d="M273.25,144.9219 L408.25,144.9219 L408.25,153.2734 L398.25,163.2734 L273.25,163.2734 L273.25,144.9219 " fill="#EEEEEE" style="stroke:#000000;stroke-width:1.5;"/><rect fill="none" height="213.1094" style="stroke:#000000;stroke-width:1.5;" width="296.5" x="273.25" y="144.9219"/><text fill="#000000" font-family="sans-serif" font-size="13" font-weight="bold" lengthAdjust="spacing" textLength="90" x="288.25" y="159.417">Get Item By Id</text><path d="M283.25,170.2734 L344.25,170.2734 L344.25,178.625 L334.25,188.625 L283.25,188.625 L283.25,170.2734 " fill="#EEEEEE" style="stroke:#000000;stroke-width:1.5;"/><rect fill="none" height="61.7031" style="stroke:#000000;stroke-width:1.5;" width="276.5" x="283.25" y="170.2734"/><text fill="#000000" font-family="sans-serif" font-size="13" font-weight="bold" lengthAdjust="spacing" textLength="16" x="298.25" y="184.7686">alt</text><text fill="#000000" font-family="sans-serif" font-size="11" font-weight="bold" lengthAdjust="spacing" textLength="42" x="359.25" y="183.6924">[id &lt;= 0]</text><line style="stroke:#181818;stroke-width:1.0;" x1="336.75" x2="378.75" y1="210.9766" y2="210.9766"/><line style="stroke:#181818;stroke-width:1.0;" x1="378.75" x2="378.75" y1="210.9766" y2="223.9766"/><line style="stroke:#181818;stroke-width:1.0;" x1="337.75" x2="378.75" y1="223.9766" y2="223.9766"/><polygon fill="#181818" points="347.75,219.9766,337.75,223.9766,347.75,227.9766,343.75,223.9766" style="stroke:#181818;stroke-width:1.0;"/><text fill="#000000" font-family="sans-serif" font-size="13" lengthAdjust="spacing" textLength="204" x="343.75" y="206.1201">Return (TypedResults.BadRequest)</text><path d="M283.25,245.9766 L344.25,245.9766 L344.25,254.3281 L334.25,264.3281 L283.25,264.3281 L283.25,245.9766 " fill="#EEEEEE" style="stroke:#000000;stroke-width:1.5;"/><rect fill="none" height="61.7031" style="stroke:#000000;stroke-width:1.5;" width="261.5" x="283.25" y="245.9766"/><text fill="#000000" font-family="sans-serif" font-size="13" font-weight="bold" lengthAdjust="spacing" textLength="16" x="298.25" y="260.4717">alt</text><text fill="#000000" font-family="sans-serif" font-size="11" font-weight="bold" lengthAdjust="spacing" textLength="71" x="359.25" y="259.3955">[item == null]</text><line style="stroke:#181818;stroke-width:1.0;" x1="336.75" x2="378.75" y1="286.6797" y2="286.6797"/><line style="stroke:#181818;stroke-width:1.0;" x1="378.75" x2="378.75" y1="286.6797" y2="299.6797"/><line style="stroke:#181818;stroke-width:1.0;" x1="337.75" x2="378.75" y1="299.6797" y2="299.6797"/><polygon fill="#181818" points="347.75,295.6797,337.75,299.6797,347.75,303.6797,343.75,299.6797" style="stroke:#181818;stroke-width:1.0;"/><text fill="#000000" font-family="sans-serif" font-size="13" lengthAdjust="spacing" textLength="189" x="343.75" y="281.8232">Return (TypedResults.NotFound)</text><line style="stroke:#181818;stroke-width:1.0;" x1="336.75" x2="378.75" y1="337.0313" y2="337.0313"/><line style="stroke:#181818;stroke-width:1.0;" x1="378.75" x2="378.75" y1="337.0313" y2="350.0313"/><line style="stroke:#181818;stroke-width:1.0;" x1="337.75" x2="378.75" y1="350.0313" y2="350.0313"/><polygon fill="#181818" points="347.75,346.0313,337.75,350.0313,347.75,354.0313,343.75,350.0313" style="stroke:#181818;stroke-width:1.0;"/><text fill="#000000" font-family="sans-serif" font-size="13" lengthAdjust="spacing" textLength="150" x="343.75" y="332.1748">Return (TypedResults.Ok)</text><!--SRC=[tLAnJiCm4Dtz5QUmmD28WGaHf3QYA0j83HApIOxMmhMDVQ7DttE9YqZ2mfAb7koxvtlsUsUJ8erGMp98i00iTzRnklJLJX5Mr7ZaD9SajTt2qgbkiv_7s2FJ2y8zh5eeQWPA_6pGL3tRxfqrQ0WqVg4MmabFgb9ECfGy70czaJe16I2_AGodQsqFQMdVwI0zbctWWqFwKnXp8Txi4PA1YWGkNZlH0dZ4tIawkdX4vRjZ4zA-1Ucm0N-Kd9XCJ7DhI2g3FgGnFLaT5WaqDR0UyHk8_nk5nVryqk1syd9YwstZfg3K1Ag6kmoknNnQPZQwGJx8mELBwx3UO6WqLwmaX_nJ0rrrhnETTiQp34oZzPdPVRAqjesfezdpylRy4Ls9Rm00]--></g></svg>