<?xml version="1.0" encoding="us-ascii" standalone="no"?><svg xmlns="http://www.w3.org/2000/svg" xmlns:xlink="http://www.w3.org/1999/xlink" contentStyleType="text/css" height="351px" preserveAspectRatio="none" style="width:1031px;height:351px;background:#FFFFFF;" version="1.1" viewBox="0 0 1031 351" width="1031px" zoomAndPan="magnify"><defs/><g><text fill="#000000" font-family="sans-serif" font-size="14" font-weight="bold" lengthAdjust="spacing" textLength="1003" x="10" y="29.5332">E Commerce Platform - Create Product - Buying And Merchandising - Buying Service - Api - Delete Purchase Order - Sequence - Container level</text><rect fill="#FFFFFF" height="293.9766" style="stroke:#181818;stroke-width:0.5;" width="312.5" x="434" y="44.6094"/><text fill="#000000" font-family="sans-serif" font-size="13" font-weight="bold" lengthAdjust="spacing" textLength="96" x="542.25" y="58.1045">Buying Service</text><rect fill="none" height="79.0547" style="stroke:#000000;stroke-width:1.5;" width="324.5" x="428" y="175.9219"/><line style="stroke:#181818;stroke-width:0.5;stroke-dasharray:5.0,5.0;" x1="298.5" x2="298.5" y1="128.5703" y2="271.9766"/><line style="stroke:#181818;stroke-width:0.5;stroke-dasharray:5.0,5.0;" x1="455" x2="455" y1="128.5703" y2="271.9766"/><line style="stroke:#181818;stroke-width:0.5;stroke-dasharray:5.0,5.0;" x1="610.5" x2="610.5" y1="128.5703" y2="271.9766"/><line style="stroke:#181818;stroke-width:0.5;stroke-dasharray:5.0,5.0;" x1="698.5" x2="698.5" y1="128.5703" y2="271.9766"/><rect fill="#E2E2F0" height="31.6094" rx="2.5" ry="2.5" style="stroke:#181818;stroke-width:0.5;" width="65" x="266.5" y="95.9609"/><text fill="#000000" font-family="sans-serif" font-size="14" lengthAdjust="spacing" textLength="51" x="273.5" y="117.4941">External</text><rect fill="#E2E2F0" height="31.6094" rx="2.5" ry="2.5" style="stroke:#181818;stroke-width:0.5;" width="65" x="266.5" y="270.9766"/><text fill="#000000" font-family="sans-serif" font-size="14" lengthAdjust="spacing" textLength="51" x="273.5" y="292.5098">External</text><rect fill="#E2E2F0" height="31.6094" rx="2.5" ry="2.5" style="stroke:#181818;stroke-width:0.5;" width="34" x="438" y="95.9609"/><text fill="#000000" font-family="sans-serif" font-size="14" lengthAdjust="spacing" textLength="20" x="445" y="117.4941">Api</text><rect fill="#E2E2F0" height="31.6094" rx="2.5" ry="2.5" style="stroke:#181818;stroke-width:0.5;" width="34" x="438" y="270.9766"/><text fill="#000000" font-family="sans-serif" font-size="14" lengthAdjust="spacing" textLength="20" x="445" y="292.5098">Api</text><text fill="#000000" font-family="sans-serif" font-size="14" lengthAdjust="spacing" textLength="61" x="577.5" y="125.4941">Database</text><path d="M593,74.9609 C593,64.9609 611,64.9609 611,64.9609 C611,64.9609 629,64.9609 629,74.9609 L629,100.9609 C629,110.9609 611,110.9609 611,110.9609 C611,110.9609 593,110.9609 593,100.9609 L593,74.9609 " fill="#E2E2F0" style="stroke:#181818;stroke-width:1.5;"/><path d="M593,74.9609 C593,84.9609 611,84.9609 611,84.9609 C611,84.9609 629,84.9609 629,74.9609 " fill="none" style="stroke:#181818;stroke-width:1.5;"/><text fill="#000000" font-family="sans-serif" font-size="14" lengthAdjust="spacing" textLength="61" x="577.5" y="285.5098">Database</text><path d="M593,298.5859 C593,288.5859 611,288.5859 611,288.5859 C611,288.5859 629,288.5859 629,298.5859 L629,324.5859 C629,334.5859 611,334.5859 611,334.5859 C611,334.5859 593,334.5859 593,324.5859 L593,298.5859 " fill="#E2E2F0" style="stroke:#181818;stroke-width:1.5;"/><path d="M593,298.5859 C593,308.5859 611,308.5859 611,308.5859 C611,308.5859 629,308.5859 629,298.5859 " fill="none" style="stroke:#181818;stroke-width:1.5;"/><path d="M659.5,100.9609 L737.5,100.9609 C742.5,100.9609 742.5,114.7656 742.5,114.7656 C742.5,114.7656 742.5,128.5703 737.5,128.5703 L659.5,128.5703 C654.5,128.5703 654.5,114.7656 654.5,114.7656 C654.5,114.7656 654.5,100.9609 659.5,100.9609 " fill="#E2E2F0" style="stroke:#181818;stroke-width:0.5;"/><path d="M737.5,100.9609 C732.5,100.9609 732.5,114.7656 732.5,114.7656 C732.5,128.5703 737.5,128.5703 737.5,128.5703 " fill="none" style="stroke:#181818;stroke-width:0.5;"/><text fill="#000000" font-family="sans-serif" font-size="14" lengthAdjust="spacing" textLength="68" x="659.5" y="120.4941">Messaging</text><path d="M659.5,270.9766 L737.5,270.9766 C742.5,270.9766 742.5,284.7813 742.5,284.7813 C742.5,284.7813 742.5,298.5859 737.5,298.5859 L659.5,298.5859 C654.5,298.5859 654.5,284.7813 654.5,284.7813 C654.5,284.7813 654.5,270.9766 659.5,270.9766 " fill="#E2E2F0" style="stroke:#181818;stroke-width:0.5;"/><path d="M737.5,270.9766 C732.5,270.9766 732.5,284.7813 732.5,284.7813 C732.5,298.5859 737.5,298.5859 737.5,298.5859 " fill="none" style="stroke:#181818;stroke-width:0.5;"/><text fill="#000000" font-family="sans-serif" font-size="14" lengthAdjust="spacing" textLength="68" x="659.5" y="290.5098">Messaging</text><polygon fill="#181818" points="443,156.9219,453,160.9219,443,164.9219,447,160.9219" style="stroke:#181818;stroke-width:1.0;"/><line style="stroke:#181818;stroke-width:1.0;" x1="299" x2="449" y1="160.9219" y2="160.9219"/><text fill="#000000" font-family="sans-serif" font-size="13" lengthAdjust="spacing" textLength="132" x="306" y="156.0654">Delete Purchase Order</text><path d="M428,175.9219 L617,175.9219 L617,184.2734 L607,194.2734 L428,194.2734 L428,175.9219 " fill="#EEEEEE" style="stroke:#000000;stroke-width:1.5;"/><rect fill="none" height="79.0547" style="stroke:#000000;stroke-width:1.5;" width="324.5" x="428" y="175.9219"/><text fill="#000000" font-family="sans-serif" font-size="13" font-weight="bold" lengthAdjust="spacing" textLength="144" x="443" y="190.417">Delete Purchase Order</text><polygon fill="#181818" points="599,212.625,609,216.625,599,220.625,603,216.625" style="stroke:#181818;stroke-width:1.0;"/><line style="stroke:#181818;stroke-width:1.0;" x1="455" x2="605" y1="216.625" y2="216.625"/><text fill="#000000" font-family="sans-serif" font-size="13" lengthAdjust="spacing" textLength="132" x="462" y="211.7686">Delete Purchase Order</text><polygon fill="#181818" points="686.5,242.9766,696.5,246.9766,686.5,250.9766,690.5,246.9766" style="stroke:#181818;stroke-width:1.0;"/><line style="stroke:#181818;stroke-width:1.0;" x1="455" x2="692.5" y1="246.9766" y2="246.9766"/><text fill="#000000" font-family="sans-serif" font-size="13" lengthAdjust="spacing" textLength="209" x="462" y="242.1201">Send Purchase Order Deleted Event</text><!--SRC=[tLGxRuCm4DxzAqvqXgbJXqefeLA6g9KOEZluabWoDhNF9FdtFPuIRIDrOYW3mkVJVO_x16ao20NahgxHLmZlHjBH-HfIo3rAueftAbR4XPTuq_O46wjWpyrdQPKENMM-Aj6tcgUai6aqlxTei1iHk-w0yEOLUgwN-1dHzesvioIrvRB15eqGZVIaAzr8Iv0KLq9lfKb01iWVTvQFhyPTij8TwI8zbhT0M8TiQXpEGXpS5P8bgmGUFiwQK00_2nGcsmCKamsJ2zdWmMX1DinZ_GlvFxWCRIDgDWiC6UFqu4gIF7H-9DlnQnNu2Qpdm0k8J62F8SWJzw_2O4OJo27Y7GaX_hvLI9_NM14y_PvRSV8kDdVkrk2rWlmf8dSz-2Swvo2oqBBBuhTVr21UGT6YfIwiGdm1]--></g></svg>