<?xml version="1.0" encoding="us-ascii" standalone="no"?><svg xmlns="http://www.w3.org/2000/svg" xmlns:xlink="http://www.w3.org/1999/xlink" contentStyleType="text/css" height="351px" preserveAspectRatio="none" style="width:1031px;height:351px;background:#FFFFFF;" version="1.1" viewBox="0 0 1031 351" width="1031px" zoomAndPan="magnify"><defs/><g><text fill="#000000" font-family="sans-serif" font-size="14" font-weight="bold" lengthAdjust="spacing" textLength="1003" x="10" y="29.5332">E Commerce Platform - Create Product - Buying And Merchandising - Buying Service - Api - Delete Purchase Order - Sequence - Container level</text><rect fill="#FFFFFF" height="293.9766" style="stroke:#181818;stroke-width:0.5;" width="306.5" x="437" y="44.6094"/><text fill="#000000" font-family="sans-serif" font-size="13" font-weight="bold" lengthAdjust="spacing" textLength="96" x="542.25" y="58.1045">Buying Service</text><rect fill="none" height="79.0547" style="stroke:#000000;stroke-width:1.5;" width="318.5" x="431" y="175.9219"/><line style="stroke:#181818;stroke-width:0.5;stroke-dasharray:5.0,5.0;" x1="301.5" x2="301.5" y1="128.5703" y2="271.9766"/><line style="stroke:#181818;stroke-width:0.5;stroke-dasharray:5.0,5.0;" x1="458" x2="458" y1="128.5703" y2="271.9766"/><line style="stroke:#181818;stroke-width:0.5;stroke-dasharray:5.0,5.0;" x1="613.5" x2="613.5" y1="128.5703" y2="271.9766"/><line style="stroke:#181818;stroke-width:0.5;stroke-dasharray:5.0,5.0;" x1="698.5" x2="698.5" y1="128.5703" y2="271.9766"/><rect fill="#E2E2F0" height="31.6094" rx="2.5" ry="2.5" style="stroke:#181818;stroke-width:0.5;" width="65" x="269.5" y="95.9609"/><text fill="#000000" font-family="sans-serif" font-size="14" lengthAdjust="spacing" textLength="51" x="276.5" y="117.4941">External</text><rect fill="#E2E2F0" height="31.6094" rx="2.5" ry="2.5" style="stroke:#181818;stroke-width:0.5;" width="65" x="269.5" y="270.9766"/><text fill="#000000" font-family="sans-serif" font-size="14" lengthAdjust="spacing" textLength="51" x="276.5" y="292.5098">External</text><rect fill="#E2E2F0" height="31.6094" rx="2.5" ry="2.5" style="stroke:#181818;stroke-width:0.5;" width="34" x="441" y="95.9609"/><text fill="#000000" font-family="sans-serif" font-size="14" lengthAdjust="spacing" textLength="20" x="448" y="117.4941">Api</text><rect fill="#E2E2F0" height="31.6094" rx="2.5" ry="2.5" style="stroke:#181818;stroke-width:0.5;" width="34" x="441" y="270.9766"/><text fill="#000000" font-family="sans-serif" font-size="14" lengthAdjust="spacing" textLength="20" x="448" y="292.5098">Api</text><text fill="#000000" font-family="sans-serif" font-size="14" lengthAdjust="spacing" textLength="61" x="580.5" y="125.4941">Database</text><path d="M596,74.9609 C596,64.9609 614,64.9609 614,64.9609 C614,64.9609 632,64.9609 632,74.9609 L632,100.9609 C632,110.9609 614,110.9609 614,110.9609 C614,110.9609 596,110.9609 596,100.9609 L596,74.9609 " fill="#E2E2F0" style="stroke:#181818;stroke-width:1.5;"/><path d="M596,74.9609 C596,84.9609 614,84.9609 614,84.9609 C614,84.9609 632,84.9609 632,74.9609 " fill="none" style="stroke:#181818;stroke-width:1.5;"/><text fill="#000000" font-family="sans-serif" font-size="14" lengthAdjust="spacing" textLength="61" x="580.5" y="285.5098">Database</text><path d="M596,298.5859 C596,288.5859 614,288.5859 614,288.5859 C614,288.5859 632,288.5859 632,298.5859 L632,324.5859 C632,334.5859 614,334.5859 614,334.5859 C614,334.5859 596,334.5859 596,324.5859 L596,298.5859 " fill="#E2E2F0" style="stroke:#181818;stroke-width:1.5;"/><path d="M596,298.5859 C596,308.5859 614,308.5859 614,308.5859 C614,308.5859 632,308.5859 632,298.5859 " fill="none" style="stroke:#181818;stroke-width:1.5;"/><rect fill="#E2E2F0" height="31.6094" rx="2.5" ry="2.5" style="stroke:#181818;stroke-width:0.5;" width="82" x="657.5" y="95.9609"/><text fill="#000000" font-family="sans-serif" font-size="14" lengthAdjust="spacing" textLength="68" x="664.5" y="117.4941">Messaging</text><rect fill="#E2E2F0" height="31.6094" rx="2.5" ry="2.5" style="stroke:#181818;stroke-width:0.5;" width="82" x="657.5" y="270.9766"/><text fill="#000000" font-family="sans-serif" font-size="14" lengthAdjust="spacing" textLength="68" x="664.5" y="292.5098">Messaging</text><polygon fill="#181818" points="446,156.9219,456,160.9219,446,164.9219,450,160.9219" style="stroke:#181818;stroke-width:1.0;"/><line style="stroke:#181818;stroke-width:1.0;" x1="302" x2="452" y1="160.9219" y2="160.9219"/><text fill="#000000" font-family="sans-serif" font-size="13" lengthAdjust="spacing" textLength="132" x="309" y="156.0654">Delete Purchase Order</text><path d="M431,175.9219 L620,175.9219 L620,184.2734 L610,194.2734 L431,194.2734 L431,175.9219 " fill="#EEEEEE" style="stroke:#000000;stroke-width:1.5;"/><rect fill="none" height="79.0547" style="stroke:#000000;stroke-width:1.5;" width="318.5" x="431" y="175.9219"/><text fill="#000000" font-family="sans-serif" font-size="13" font-weight="bold" lengthAdjust="spacing" textLength="144" x="446" y="190.417">Delete Purchase Order</text><polygon fill="#181818" points="602,212.625,612,216.625,602,220.625,606,216.625" style="stroke:#181818;stroke-width:1.0;"/><line style="stroke:#181818;stroke-width:1.0;" x1="458" x2="608" y1="216.625" y2="216.625"/><text fill="#000000" font-family="sans-serif" font-size="13" lengthAdjust="spacing" textLength="132" x="465" y="211.7686">Delete Purchase Order</text><polygon fill="#181818" points="686.5,242.9766,696.5,246.9766,686.5,250.9766,690.5,246.9766" style="stroke:#181818;stroke-width:1.0;"/><line style="stroke:#181818;stroke-width:1.0;" x1="458" x2="692.5" y1="246.9766" y2="246.9766"/><text fill="#000000" font-family="sans-serif" font-size="13" lengthAdjust="spacing" textLength="209" x="465" y="242.1201">Send Purchase Order Deleted Event</text><!--SRC=[tLIxRiCm3Dpr5OGxMrEd3WLInmKw12tWeRDYCua0MN8bsad-lfHVW9i6wEIX6Wo9edcyuq6aoI3aaBcwHbyYV1X51-ThI27pg8WZtbLjIHnuQQ_Q7c5ZAzXnyadPIeSOcQyAz9tcAYbi6itVBHgC9TgO7H3UVOMUumL-jMZxnCnPKjfos627HeX6UTAbRfGbIF8BeRVA9A02P8zlbe-lnfrbuGvqLXwBQo2iWvmIXxCGUtU1PDbL0W-V9qqeWDS2XPlj0V99Xaa5EMWmIY27Uin_GV-cbo5jH9KpmI0PfmUl5Abzr2FPZhjLu2UmMm5s688wyb-hz36Z2MGhyQI447-VBQJFQmmAddvthpXwrpPtxjReQmNwar7kQl1FUCv6PA95zEAFXseWNq7UeQLeLY6-0G00]--></g></svg>