<?xml version="1.0" encoding="us-ascii" standalone="no"?><svg xmlns="http://www.w3.org/2000/svg" xmlns:xlink="http://www.w3.org/1999/xlink" contentStyleType="text/css" height="377px" preserveAspectRatio="none" style="width:1171px;height:377px;background:#FFFFFF;" version="1.1" viewBox="0 0 1171 377" width="1171px" zoomAndPan="magnify"><defs/><g><text fill="#000000" font-family="sans-serif" font-size="14" font-weight="bold" lengthAdjust="spacing" textLength="1143" x="10" y="29.5332">ECommercePlatform - CreateProduct - PriceManagement - Pricing Service - Message Handler - Handle Purchase Order Updated Event - Sequence - Container level</text><rect fill="#FFFFFF" height="327.0313" style="stroke:#181818;stroke-width:0.5;" width="224.5" x="498.75" y="44.6094"/><text fill="#000000" font-family="sans-serif" font-size="13" font-weight="bold" lengthAdjust="spacing" textLength="97" x="562.5" y="58.1045">Pricing Service</text><rect fill="#FFFFFF" height="327.0313" style="stroke:#181818;stroke-width:0.5;" width="102" x="771.75" y="44.6094"/><text fill="#000000" font-family="sans-serif" font-size="13" font-weight="bold" lengthAdjust="spacing" textLength="96" x="774.75" y="58.1045">Buying Service</text><rect fill="none" height="174.1094" style="stroke:#000000;stroke-width:1.5;" width="401" x="472.75" y="144.9219"/><rect fill="none" height="111.4063" style="stroke:#000000;stroke-width:1.5;" width="297" x="482.75" y="200.625"/><rect fill="none" height="48.7031" style="stroke:#000000;stroke-width:1.5;" width="236.5" x="492.75" y="256.3281"/><line style="stroke:#181818;stroke-width:0.5;stroke-dasharray:5.0,5.0;" x1="317.25" x2="317.25" y1="97.5703" y2="336.0313"/><line style="stroke:#181818;stroke-width:0.5;stroke-dasharray:5.0,5.0;" x1="564.75" x2="564.75" y1="97.5703" y2="336.0313"/><line style="stroke:#181818;stroke-width:0.5;stroke-dasharray:5.0,5.0;" x1="681.25" x2="681.25" y1="97.5703" y2="336.0313"/><line style="stroke:#181818;stroke-width:0.5;stroke-dasharray:5.0,5.0;" x1="822.75" x2="822.75" y1="97.5703" y2="336.0313"/><rect fill="#E2E2F0" height="31.6094" rx="2.5" ry="2.5" style="stroke:#181818;stroke-width:0.5;" width="65" x="285.25" y="64.9609"/><text fill="#000000" font-family="sans-serif" font-size="14" lengthAdjust="spacing" textLength="51" x="292.25" y="86.4941">External</text><rect fill="#E2E2F0" height="31.6094" rx="2.5" ry="2.5" style="stroke:#181818;stroke-width:0.5;" width="65" x="285.25" y="335.0313"/><text fill="#000000" font-family="sans-serif" font-size="14" lengthAdjust="spacing" textLength="51" x="292.25" y="356.5645">External</text><rect fill="#E2E2F0" height="31.6094" rx="2.5" ry="2.5" style="stroke:#181818;stroke-width:0.5;" width="124" x="502.75" y="64.9609"/><text fill="#000000" font-family="sans-serif" font-size="14" lengthAdjust="spacing" textLength="110" x="509.75" y="86.4941">Message Handler</text><rect fill="#E2E2F0" height="31.6094" rx="2.5" ry="2.5" style="stroke:#181818;stroke-width:0.5;" width="124" x="502.75" y="335.0313"/><text fill="#000000" font-family="sans-serif" font-size="14" lengthAdjust="spacing" textLength="110" x="509.75" y="356.5645">Message Handler</text><rect fill="#E2E2F0" height="31.6094" rx="2.5" ry="2.5" style="stroke:#181818;stroke-width:0.5;" width="75" x="644.25" y="64.9609"/><text fill="#000000" font-family="sans-serif" font-size="14" lengthAdjust="spacing" textLength="61" x="651.25" y="86.4941">Database</text><rect fill="#E2E2F0" height="31.6094" rx="2.5" ry="2.5" style="stroke:#181818;stroke-width:0.5;" width="75" x="644.25" y="335.0313"/><text fill="#000000" font-family="sans-serif" font-size="14" lengthAdjust="spacing" textLength="61" x="651.25" y="356.5645">Database</text><rect fill="#E2E2F0" height="31.6094" rx="2.5" ry="2.5" style="stroke:#181818;stroke-width:0.5;" width="82" x="781.75" y="64.9609"/><text fill="#000000" font-family="sans-serif" font-size="14" lengthAdjust="spacing" textLength="68" x="788.75" y="86.4941">Messaging</text><rect fill="#E2E2F0" height="31.6094" rx="2.5" ry="2.5" style="stroke:#181818;stroke-width:0.5;" width="82" x="781.75" y="335.0313"/><text fill="#000000" font-family="sans-serif" font-size="14" lengthAdjust="spacing" textLength="68" x="788.75" y="356.5645">Messaging</text><polygon fill="#181818" points="552.75,125.9219,562.75,129.9219,552.75,133.9219,556.75,129.9219" style="stroke:#181818;stroke-width:1.0;"/><line style="stroke:#181818;stroke-width:1.0;" x1="317.75" x2="558.75" y1="129.9219" y2="129.9219"/><text fill="#000000" font-family="sans-serif" font-size="13" lengthAdjust="spacing" textLength="223" x="324.75" y="125.0654">Handle Purchase Order Updated Event</text><path d="M472.75,144.9219 L761.75,144.9219 L761.75,153.2734 L751.75,163.2734 L472.75,163.2734 L472.75,144.9219 " fill="#EEEEEE" style="stroke:#000000;stroke-width:1.5;"/><rect fill="none" height="174.1094" style="stroke:#000000;stroke-width:1.5;" width="401" x="472.75" y="144.9219"/><text fill="#000000" font-family="sans-serif" font-size="13" font-weight="bold" lengthAdjust="spacing" textLength="244" x="487.75" y="159.417">Handle Purchase Order Updated Event</text><polygon fill="#181818" points="810.75,181.625,820.75,185.625,810.75,189.625,814.75,185.625" style="stroke:#181818;stroke-width:1.0;"/><line style="stroke:#181818;stroke-width:1.0;" x1="564.75" x2="816.75" y1="185.625" y2="185.625"/><text fill="#000000" font-family="sans-serif" font-size="13" lengthAdjust="spacing" textLength="228" x="571.75" y="180.7686">Receive Purchase Order Updated Event</text><path d="M482.75,200.625 L555.75,200.625 L555.75,208.9766 L545.75,218.9766 L482.75,218.9766 L482.75,200.625 " fill="#EEEEEE" style="stroke:#000000;stroke-width:1.5;"/><rect fill="none" height="111.4063" style="stroke:#000000;stroke-width:1.5;" width="297" x="482.75" y="200.625"/><text fill="#000000" font-family="sans-serif" font-size="13" font-weight="bold" lengthAdjust="spacing" textLength="28" x="497.75" y="215.1201">loop</text><text fill="#000000" font-family="sans-serif" font-size="11" font-weight="bold" lengthAdjust="spacing" textLength="204" x="570.75" y="214.0439">[For each Product in Purchase Order]</text><polygon fill="#181818" points="669.75,237.3281,679.75,241.3281,669.75,245.3281,673.75,241.3281" style="stroke:#181818;stroke-width:1.0;"/><line style="stroke:#181818;stroke-width:1.0;" x1="564.75" x2="675.75" y1="241.3281" y2="241.3281"/><text fill="#000000" font-family="sans-serif" font-size="13" lengthAdjust="spacing" textLength="93" x="571.75" y="236.4717">Select Products</text><path d="M492.75,256.3281 L553.75,256.3281 L553.75,264.6797 L543.75,274.6797 L492.75,274.6797 L492.75,256.3281 " fill="#EEEEEE" style="stroke:#000000;stroke-width:1.5;"/><rect fill="none" height="48.7031" style="stroke:#000000;stroke-width:1.5;" width="236.5" x="492.75" y="256.3281"/><text fill="#000000" font-family="sans-serif" font-size="13" font-weight="bold" lengthAdjust="spacing" textLength="16" x="507.75" y="270.8232">alt</text><text fill="#000000" font-family="sans-serif" font-size="11" font-weight="bold" lengthAdjust="spacing" textLength="109" x="568.75" y="269.7471">[Product Not Found]</text><polygon fill="#181818" points="669.75,293.0313,679.75,297.0313,669.75,301.0313,673.75,297.0313" style="stroke:#181818;stroke-width:1.0;"/><line style="stroke:#181818;stroke-width:1.0;" x1="564.75" x2="675.75" y1="297.0313" y2="297.0313"/><text fill="#000000" font-family="sans-serif" font-size="13" lengthAdjust="spacing" textLength="81" x="571.75" y="292.1748">Insert Product</text><!--SRC=[tPHDJuD048Rl-oicU2udJnvC5DlOGvL8ZESfEsr9bbtSNMZxxvsMZrY84QCsHX8IPdQOzvrdMNpc5S4qCdbEDgLOeLyPcyC48aleARP6bgddEBPPIWlKkAQST9l9z1eIiXMlSMP1pl4wtAEMYYndwYU8Ivjkq14yMidvvq9oRmdJgkwKq6j9-jWYCjfZfhb8KKLAY0AjPvq2kJAOxZnPZIe0T11TpZM7CsMsOM9MVekMahtpbBkmBQnZ8PPc1q7FS00NBvlCam2-JcHwSnpL1ep24q9XZy_0KIFUQ8VTd2vir1gnePixzBXaUBzievKHf2KmBz5GkottNu36fQDyrbrlj5pGuTFGCdCS3-pMPHz2uxLtTiT_432vFjk6mjMOKo3MrfJ5gCgp6Hy1wSUsaIazKKfPzSdmofW2PiO2ORg1zlUKwTvRVmhIzyyaqqb84K_Qz7G2LHV0W_7CfDJo_uqzruviD-dXi7UtU0C0]--></g></svg>