<?xml version="1.0" encoding="us-ascii" standalone="no"?><svg xmlns="http://www.w3.org/2000/svg" xmlns:xlink="http://www.w3.org/1999/xlink" contentStyleType="text/css" height="776px" preserveAspectRatio="none" style="width:636px;height:776px;background:#FFFFFF;" version="1.1" viewBox="0 0 636 776" width="636px" zoomAndPan="magnify"><defs/><g><text fill="#000000" font-family="sans-serif" font-size="14" font-weight="bold" lengthAdjust="spacing" textLength="353" x="143" y="29.5332">Complete (End-To-End) - Sequence - Context level</text><rect fill="none" height="321.8672" style="stroke:#000000;stroke-width:1.5;" width="620" x="10" y="93.2188"/><rect fill="none" height="200.4609" style="stroke:#000000;stroke-width:1.5;" width="507" x="10" y="429.0859"/><rect fill="none" height="79.0547" style="stroke:#000000;stroke-width:1.5;" width="620" x="10" y="643.5469"/><line style="stroke:#181818;stroke-width:0.5;stroke-dasharray:5.0,5.0;" x1="57" x2="57" y1="76.2188" y2="739.6016"/><line style="stroke:#181818;stroke-width:0.5;stroke-dasharray:5.0,5.0;" x1="239" x2="239" y1="76.2188" y2="739.6016"/><line style="stroke:#181818;stroke-width:0.5;stroke-dasharray:5.0,5.0;" x1="414" x2="414" y1="76.2188" y2="739.6016"/><line style="stroke:#181818;stroke-width:0.5;stroke-dasharray:5.0,5.0;" x1="568" x2="568" y1="76.2188" y2="739.6016"/><rect fill="#E2E2F0" height="31.6094" rx="2.5" ry="2.5" style="stroke:#181818;stroke-width:0.5;" width="75" x="20" y="43.6094"/><text fill="#000000" font-family="sans-serif" font-size="14" lengthAdjust="spacing" textLength="61" x="27" y="65.1426">Customer</text><rect fill="#E2E2F0" height="31.6094" rx="2.5" ry="2.5" style="stroke:#181818;stroke-width:0.5;" width="75" x="20" y="738.6016"/><text fill="#000000" font-family="sans-serif" font-size="14" lengthAdjust="spacing" textLength="61" x="27" y="760.1348">Customer</text><rect fill="#E2E2F0" height="31.6094" rx="2.5" ry="2.5" style="stroke:#181818;stroke-width:0.5;" width="117" x="181" y="43.6094"/><text fill="#000000" font-family="sans-serif" font-size="14" lengthAdjust="spacing" textLength="103" x="188" y="65.1426">Internet Banking</text><rect fill="#E2E2F0" height="31.6094" rx="2.5" ry="2.5" style="stroke:#181818;stroke-width:0.5;" width="117" x="181" y="738.6016"/><text fill="#000000" font-family="sans-serif" font-size="14" lengthAdjust="spacing" textLength="103" x="188" y="760.1348">Internet Banking</text><rect fill="#E2E2F0" height="31.6094" rx="2.5" ry="2.5" style="stroke:#181818;stroke-width:0.5;" width="185" x="322" y="43.6094"/><text fill="#000000" font-family="sans-serif" font-size="14" lengthAdjust="spacing" textLength="171" x="329" y="65.1426">Mainframe Banking System</text><rect fill="#E2E2F0" height="31.6094" rx="2.5" ry="2.5" style="stroke:#181818;stroke-width:0.5;" width="185" x="322" y="738.6016"/><text fill="#000000" font-family="sans-serif" font-size="14" lengthAdjust="spacing" textLength="171" x="329" y="760.1348">Mainframe Banking System</text><rect fill="#E2E2F0" height="31.6094" rx="2.5" ry="2.5" style="stroke:#181818;stroke-width:0.5;" width="103" x="517" y="43.6094"/><text fill="#000000" font-family="sans-serif" font-size="14" lengthAdjust="spacing" textLength="89" x="524" y="65.1426">E-Mail System</text><rect fill="#E2E2F0" height="31.6094" rx="2.5" ry="2.5" style="stroke:#181818;stroke-width:0.5;" width="103" x="517" y="738.6016"/><text fill="#000000" font-family="sans-serif" font-size="14" lengthAdjust="spacing" textLength="89" x="524" y="760.1348">E-Mail System</text><path d="M10,93.2188 L264,93.2188 L264,101.5703 L254,111.5703 L10,111.5703 L10,93.2188 " fill="#EEEEEE" style="stroke:#000000;stroke-width:1.5;"/><rect fill="none" height="321.8672" style="stroke:#000000;stroke-width:1.5;" width="620" x="10" y="93.2188"/><text fill="#000000" font-family="sans-serif" font-size="13" font-weight="bold" lengthAdjust="spacing" textLength="209" x="25" y="107.7139">Customer - Banking via Web App</text><polygon fill="#181818" points="227.5,129.9219,237.5,133.9219,227.5,137.9219,231.5,133.9219" style="stroke:#181818;stroke-width:1.0;"/><line style="stroke:#181818;stroke-width:1.0;" x1="57.5" x2="233.5" y1="133.9219" y2="133.9219"/><text fill="#000000" font-family="sans-serif" font-size="13" lengthAdjust="spacing" textLength="49" x="64.5" y="129.0654">Navigate</text><polygon fill="#181818" points="227.5,160.2734,237.5,164.2734,227.5,168.2734,231.5,164.2734" style="stroke:#181818;stroke-width:1.0;"/><line style="stroke:#181818;stroke-width:1.0;" x1="57.5" x2="233.5" y1="164.2734" y2="164.2734"/><text fill="#000000" font-family="sans-serif" font-size="13" lengthAdjust="spacing" textLength="40" x="64.5" y="159.417">Sign In</text><polygon fill="#181818" points="227.5,190.625,237.5,194.625,227.5,198.625,231.5,194.625" style="stroke:#181818;stroke-width:1.0;"/><line style="stroke:#181818;stroke-width:1.0;" x1="57.5" x2="233.5" y1="194.625" y2="194.625"/><text fill="#000000" font-family="sans-serif" font-size="13" lengthAdjust="spacing" textLength="132" x="64.5" y="189.7686">View Customer Details</text><polygon fill="#181818" points="402.5,220.9766,412.5,224.9766,402.5,228.9766,406.5,224.9766" style="stroke:#181818;stroke-width:1.0;"/><line style="stroke:#181818;stroke-width:1.0;" x1="239.5" x2="408.5" y1="224.9766" y2="224.9766"/><text fill="#000000" font-family="sans-serif" font-size="13" lengthAdjust="spacing" textLength="81" x="246.5" y="220.1201">Get Customer</text><polygon fill="#181818" points="402.5,251.3281,412.5,255.3281,402.5,259.3281,406.5,255.3281" style="stroke:#181818;stroke-width:1.0;"/><line style="stroke:#181818;stroke-width:1.0;" x1="239.5" x2="408.5" y1="255.3281" y2="255.3281"/><text fill="#000000" font-family="sans-serif" font-size="13" lengthAdjust="spacing" textLength="140" x="246.5" y="250.4717">Get Customer Accounts</text><polygon fill="#181818" points="227.5,281.6797,237.5,285.6797,227.5,289.6797,231.5,285.6797" style="stroke:#181818;stroke-width:1.0;"/><line style="stroke:#181818;stroke-width:1.0;" x1="57.5" x2="233.5" y1="285.6797" y2="285.6797"/><text fill="#000000" font-family="sans-serif" font-size="13" lengthAdjust="spacing" textLength="158" x="64.5" y="280.8232">View Account Transactions</text><polygon fill="#181818" points="402.5,312.0313,412.5,316.0313,402.5,320.0313,406.5,316.0313" style="stroke:#181818;stroke-width:1.0;"/><line style="stroke:#181818;stroke-width:1.0;" x1="239.5" x2="408.5" y1="316.0313" y2="316.0313"/><text fill="#000000" font-family="sans-serif" font-size="13" lengthAdjust="spacing" textLength="151" x="246.5" y="311.1748">Get Account Transactions</text><polygon fill="#181818" points="227.5,342.3828,237.5,346.3828,227.5,350.3828,231.5,346.3828" style="stroke:#181818;stroke-width:1.0;"/><line style="stroke:#181818;stroke-width:1.0;" x1="57.5" x2="233.5" y1="346.3828" y2="346.3828"/><text fill="#000000" font-family="sans-serif" font-size="13" lengthAdjust="spacing" textLength="90" x="64.5" y="341.5264">Create Account</text><polygon fill="#181818" points="402.5,372.7344,412.5,376.7344,402.5,380.7344,406.5,376.7344" style="stroke:#181818;stroke-width:1.0;"/><line style="stroke:#181818;stroke-width:1.0;" x1="239.5" x2="408.5" y1="376.7344" y2="376.7344"/><text fill="#000000" font-family="sans-serif" font-size="13" lengthAdjust="spacing" textLength="90" x="246.5" y="371.8779">Create Account</text><polygon fill="#181818" points="556.5,403.0859,566.5,407.0859,556.5,411.0859,560.5,407.0859" style="stroke:#181818;stroke-width:1.0;"/><line style="stroke:#181818;stroke-width:1.0;" x1="239.5" x2="562.5" y1="407.0859" y2="407.0859"/><text fill="#000000" font-family="sans-serif" font-size="13" lengthAdjust="spacing" textLength="269" x="246.5" y="402.2295">Send New Account Created Notification E-Mail</text><path d="M10,429.0859 L278,429.0859 L278,437.4375 L268,447.4375 L10,447.4375 L10,429.0859 " fill="#EEEEEE" style="stroke:#000000;stroke-width:1.5;"/><rect fill="none" height="200.4609" style="stroke:#000000;stroke-width:1.5;" width="507" x="10" y="429.0859"/><text fill="#000000" font-family="sans-serif" font-size="13" font-weight="bold" lengthAdjust="spacing" textLength="223" x="25" y="443.5811">Customer - Banking via Mobile App</text><polygon fill="#181818" points="227.5,465.7891,237.5,469.7891,227.5,473.7891,231.5,469.7891" style="stroke:#181818;stroke-width:1.0;"/><line style="stroke:#181818;stroke-width:1.0;" x1="57.5" x2="233.5" y1="469.7891" y2="469.7891"/><text fill="#000000" font-family="sans-serif" font-size="13" lengthAdjust="spacing" textLength="40" x="64.5" y="464.9326">Sign In</text><polygon fill="#181818" points="227.5,496.1406,237.5,500.1406,227.5,504.1406,231.5,500.1406" style="stroke:#181818;stroke-width:1.0;"/><line style="stroke:#181818;stroke-width:1.0;" x1="57.5" x2="233.5" y1="500.1406" y2="500.1406"/><text fill="#000000" font-family="sans-serif" font-size="13" lengthAdjust="spacing" textLength="132" x="64.5" y="495.2842">View Customer Details</text><polygon fill="#181818" points="402.5,526.4922,412.5,530.4922,402.5,534.4922,406.5,530.4922" style="stroke:#181818;stroke-width:1.0;"/><line style="stroke:#181818;stroke-width:1.0;" x1="239.5" x2="408.5" y1="530.4922" y2="530.4922"/><text fill="#000000" font-family="sans-serif" font-size="13" lengthAdjust="spacing" textLength="81" x="246.5" y="525.6357">Get Customer</text><polygon fill="#181818" points="402.5,556.8438,412.5,560.8438,402.5,564.8438,406.5,560.8438" style="stroke:#181818;stroke-width:1.0;"/><line style="stroke:#181818;stroke-width:1.0;" x1="239.5" x2="408.5" y1="560.8438" y2="560.8438"/><text fill="#000000" font-family="sans-serif" font-size="13" lengthAdjust="spacing" textLength="140" x="246.5" y="555.9873">Get Customer Accounts</text><polygon fill="#181818" points="227.5,587.1953,237.5,591.1953,227.5,595.1953,231.5,591.1953" style="stroke:#181818;stroke-width:1.0;"/><line style="stroke:#181818;stroke-width:1.0;" x1="57.5" x2="233.5" y1="591.1953" y2="591.1953"/><text fill="#000000" font-family="sans-serif" font-size="13" lengthAdjust="spacing" textLength="158" x="64.5" y="586.3389">View Account Transactions</text><polygon fill="#181818" points="402.5,617.5469,412.5,621.5469,402.5,625.5469,406.5,621.5469" style="stroke:#181818;stroke-width:1.0;"/><line style="stroke:#181818;stroke-width:1.0;" x1="239.5" x2="408.5" y1="621.5469" y2="621.5469"/><text fill="#000000" font-family="sans-serif" font-size="13" lengthAdjust="spacing" textLength="151" x="246.5" y="616.6904">Get Account Transactions</text><path d="M10,643.5469 L303,643.5469 L303,651.8984 L293,661.8984 L10,661.8984 L10,643.5469 " fill="#EEEEEE" style="stroke:#000000;stroke-width:1.5;"/><rect fill="none" height="79.0547" style="stroke:#000000;stroke-width:1.5;" width="620" x="10" y="643.5469"/><text fill="#000000" font-family="sans-serif" font-size="13" font-weight="bold" lengthAdjust="spacing" textLength="248" x="25" y="658.042">Customer - Receive E-Mail Notifications</text><polygon fill="#181818" points="556.5,680.25,566.5,684.25,556.5,688.25,560.5,684.25" style="stroke:#181818;stroke-width:1.0;"/><line style="stroke:#181818;stroke-width:1.0;" x1="57.5" x2="562.5" y1="684.25" y2="684.25"/><text fill="#000000" font-family="sans-serif" font-size="13" lengthAdjust="spacing" textLength="270" x="64.5" y="679.3936">Receive Password Changed Notification E-Mail</text><polygon fill="#181818" points="556.5,710.6016,566.5,714.6016,556.5,718.6016,560.5,714.6016" style="stroke:#181818;stroke-width:1.0;"/><line style="stroke:#181818;stroke-width:1.0;" x1="57.5" x2="562.5" y1="714.6016" y2="714.6016"/><text fill="#000000" font-family="sans-serif" font-size="13" lengthAdjust="spacing" textLength="284" x="64.5" y="709.7451">Receive New Account Created Notification E-Mail</text><!--SRC=[xLJ1Ji904BtlLuoSz50-m8C9L68uG8WbUXwMeMviT-lkjCZVkmqjKWDYG-N4gSrsvhtEs_Vc9hCOfmW9RapEu59Yr2W4Aqu8GfDc2J71xKWlWxa9_ECE0eZe8oSjoR-6HZDzCYHKK294XfQLL1bgXbwOEpOfsHwWWw6AXwZVPudi3oGRw_hrvsRJsEDPJGnbjTBnp-R8h7YDbgADOqfTlwwlofjW4rHwPJ6b6WssRQT0TtrLs_QyYJqAV5NoHy1HMLkXYDYQF8DwV2zY_NE5GdYb1GooJ1pN2uA75eB0FKonK34oTOaPgLZ3M7S9-Q9e_QtAetUYIfne0V4xuU4xzRnFtcmxBrwM3WPIcbopwrp72XZc5hL3oSheIsbvYlhS-K9BtimrpGM6-Y_2lQLG9ehq4gPxLxUbzMU6rKf9B8M4xTOHllRtDJ8n2-KtUCURv9hwQ-hRfFwWJPz9aYgeidB3tcSeqWnJpJ53vzR6BY5yGnqV2LF7d6qoBBu0]--></g></svg>