<?xml version="1.0" encoding="us-ascii" standalone="no"?><svg xmlns="http://www.w3.org/2000/svg" xmlns:xlink="http://www.w3.org/1999/xlink" contentStyleType="text/css" height="585.625px" preserveAspectRatio="none" style="width:403px;height:585px;background:#FFFFFF;" version="1.1" viewBox="0 0 403 585" width="403.75px" zoomAndPan="magnify"><defs/><g><text fill="#000000" font-family="sans-serif" font-size="8.75" font-weight="bold" lengthAdjust="spacing" textLength="177.5" x="114.0625" y="18.4583">Complete (End-To-End) - CONTEXT level)</text><rect fill="none" height="261.8262" style="stroke:#000000;stroke-width:0.9375;" width="393.75" x="6.25" y="58.2617"/><rect fill="none" height="49.4092" style="stroke:#000000;stroke-width:0.9375;" width="216.25" x="106.875" y="131.0156"/><rect fill="none" height="30.4395" style="stroke:#000000;stroke-width:0.9375;" width="216.25" x="106.875" y="208.1445"/><rect fill="none" height="49.4092" style="stroke:#000000;stroke-width:0.9375;" width="286.875" x="106.875" y="266.3037"/><rect fill="none" height="165.7275" style="stroke:#000000;stroke-width:0.9375;" width="323.125" x="6.25" y="328.8379"/><rect fill="none" height="49.4092" style="stroke:#000000;stroke-width:0.9375;" width="216.25" x="106.875" y="382.6221"/><rect fill="none" height="30.4395" style="stroke:#000000;stroke-width:0.9375;" width="216.25" x="106.875" y="459.751"/><rect fill="none" height="49.4092" style="stroke:#000000;stroke-width:0.9375;" width="387.5" x="6.25" y="503.3154"/><line style="stroke:#181818;stroke-width:0.3125;stroke-dasharray:5.0,5.0;" x1="35.625" x2="35.625" y1="47.6367" y2="563.3496"/><line style="stroke:#181818;stroke-width:0.3125;stroke-dasharray:5.0,5.0;" x1="149.375" x2="149.375" y1="47.6367" y2="563.3496"/><line style="stroke:#181818;stroke-width:0.3125;stroke-dasharray:5.0,5.0;" x1="258.75" x2="258.75" y1="47.6367" y2="563.3496"/><line style="stroke:#181818;stroke-width:0.3125;stroke-dasharray:5.0,5.0;" x1="355" x2="355" y1="47.6367" y2="563.3496"/><rect fill="#E2E2F0" height="19.7559" rx="1.5625" ry="1.5625" style="stroke:#181818;stroke-width:0.3125;" width="46.875" x="12.5" y="27.2559"/><text fill="#000000" font-family="sans-serif" font-size="8.75" lengthAdjust="spacing" textLength="38.125" x="16.875" y="40.7141">Customer</text><rect fill="#E2E2F0" height="19.7559" rx="1.5625" ry="1.5625" style="stroke:#181818;stroke-width:0.3125;" width="46.875" x="12.5" y="562.7246"/><text fill="#000000" font-family="sans-serif" font-size="8.75" lengthAdjust="spacing" textLength="38.125" x="16.875" y="576.1829">Customer</text><rect fill="#E2E2F0" height="19.7559" rx="1.5625" ry="1.5625" style="stroke:#181818;stroke-width:0.3125;" width="73.125" x="113.125" y="27.2559"/><text fill="#000000" font-family="sans-serif" font-size="8.75" lengthAdjust="spacing" textLength="64.375" x="117.5" y="40.7141">Internet Banking</text><rect fill="#E2E2F0" height="19.7559" rx="1.5625" ry="1.5625" style="stroke:#181818;stroke-width:0.3125;" width="73.125" x="113.125" y="562.7246"/><text fill="#000000" font-family="sans-serif" font-size="8.75" lengthAdjust="spacing" textLength="64.375" x="117.5" y="576.1829">Internet Banking</text><rect fill="#E2E2F0" height="19.7559" rx="1.5625" ry="1.5625" style="stroke:#181818;stroke-width:0.3125;" width="115.625" x="201.25" y="27.2559"/><text fill="#000000" font-family="sans-serif" font-size="8.75" lengthAdjust="spacing" textLength="106.875" x="205.625" y="40.7141">Mainframe Banking System</text><rect fill="#E2E2F0" height="19.7559" rx="1.5625" ry="1.5625" style="stroke:#181818;stroke-width:0.3125;" width="115.625" x="201.25" y="562.7246"/><text fill="#000000" font-family="sans-serif" font-size="8.75" lengthAdjust="spacing" textLength="106.875" x="205.625" y="576.1829">Mainframe Banking System</text><rect fill="#E2E2F0" height="19.7559" rx="1.5625" ry="1.5625" style="stroke:#181818;stroke-width:0.3125;" width="64.375" x="323.125" y="27.2559"/><text fill="#000000" font-family="sans-serif" font-size="8.75" lengthAdjust="spacing" textLength="55.625" x="327.5" y="40.7141">E-Mail System</text><rect fill="#E2E2F0" height="19.7559" rx="1.5625" ry="1.5625" style="stroke:#181818;stroke-width:0.3125;" width="64.375" x="323.125" y="562.7246"/><text fill="#000000" font-family="sans-serif" font-size="8.75" lengthAdjust="spacing" textLength="55.625" x="327.5" y="576.1829">E-Mail System</text><path d="M6.25,58.2617 L165,58.2617 L165,63.4814 L158.75,69.7314 L6.25,69.7314 L6.25,58.2617 " fill="#EEEEEE" style="stroke:#000000;stroke-width:0.9375;"/><rect fill="none" height="261.8262" style="stroke:#000000;stroke-width:0.9375;" width="393.75" x="6.25" y="58.2617"/><text fill="#000000" font-family="sans-serif" font-size="8.125" font-weight="bold" lengthAdjust="spacing" textLength="130.625" x="15.625" y="67.3212">Customer - Banking via Web App</text><polygon fill="#181818" points="142.1875,81.2012,148.4375,83.7012,142.1875,86.2012,144.6875,83.7012" style="stroke:#181818;stroke-width:0.625;"/><line style="stroke:#181818;stroke-width:0.625;" x1="35.9375" x2="145.9375" y1="83.7012" y2="83.7012"/><text fill="#000000" font-family="sans-serif" font-size="8.125" lengthAdjust="spacing" textLength="30.625" x="40.3125" y="80.6659">Navigate</text><polygon fill="#181818" points="142.1875,100.1709,148.4375,102.6709,142.1875,105.1709,144.6875,102.6709" style="stroke:#181818;stroke-width:0.625;"/><line style="stroke:#181818;stroke-width:0.625;" x1="35.9375" x2="145.9375" y1="102.6709" y2="102.6709"/><text fill="#000000" font-family="sans-serif" font-size="8.125" lengthAdjust="spacing" textLength="25" x="40.3125" y="99.6356">Sign In</text><polygon fill="#181818" points="142.1875,119.1406,148.4375,121.6406,142.1875,124.1406,144.6875,121.6406" style="stroke:#181818;stroke-width:0.625;"/><line style="stroke:#181818;stroke-width:0.625;" x1="35.9375" x2="145.9375" y1="121.6406" y2="121.6406"/><text fill="#000000" font-family="sans-serif" font-size="8.125" lengthAdjust="spacing" textLength="82.5" x="40.3125" y="118.6053">View Customer Details</text><path d="M106.875,131.0156 L224.375,131.0156 L224.375,136.2354 L218.125,142.4854 L106.875,142.4854 L106.875,131.0156 " fill="#EEEEEE" style="stroke:#000000;stroke-width:0.9375;"/><rect fill="none" height="49.4092" style="stroke:#000000;stroke-width:0.9375;" width="216.25" x="106.875" y="131.0156"/><text fill="#000000" font-family="sans-serif" font-size="8.125" font-weight="bold" lengthAdjust="spacing" textLength="89.375" x="116.25" y="140.0751">View Customer Details</text><polygon fill="#181818" points="251.5625,153.9551,257.8125,156.4551,251.5625,158.9551,254.0625,156.4551" style="stroke:#181818;stroke-width:0.625;"/><line style="stroke:#181818;stroke-width:0.625;" x1="149.6875" x2="255.3125" y1="156.4551" y2="156.4551"/><text fill="#000000" font-family="sans-serif" font-size="8.125" lengthAdjust="spacing" textLength="50.625" x="154.0625" y="153.4198">Get Customer</text><polygon fill="#181818" points="251.5625,172.9248,257.8125,175.4248,251.5625,177.9248,254.0625,175.4248" style="stroke:#181818;stroke-width:0.625;"/><line style="stroke:#181818;stroke-width:0.625;" x1="149.6875" x2="255.3125" y1="175.4248" y2="175.4248"/><text fill="#000000" font-family="sans-serif" font-size="8.125" lengthAdjust="spacing" textLength="87.5" x="154.0625" y="172.3895">Get Customer Accounts</text><polygon fill="#181818" points="142.1875,196.2695,148.4375,198.7695,142.1875,201.2695,144.6875,198.7695" style="stroke:#181818;stroke-width:0.625;"/><line style="stroke:#181818;stroke-width:0.625;" x1="35.9375" x2="145.9375" y1="198.7695" y2="198.7695"/><text fill="#000000" font-family="sans-serif" font-size="8.125" lengthAdjust="spacing" textLength="98.75" x="40.3125" y="195.7343">View Account Transactions</text><path d="M106.875,208.1445 L241.875,208.1445 L241.875,213.3643 L235.625,219.6143 L106.875,219.6143 L106.875,208.1445 " fill="#EEEEEE" style="stroke:#000000;stroke-width:0.9375;"/><rect fill="none" height="30.4395" style="stroke:#000000;stroke-width:0.9375;" width="216.25" x="106.875" y="208.1445"/><text fill="#000000" font-family="sans-serif" font-size="8.125" font-weight="bold" lengthAdjust="spacing" textLength="106.875" x="116.25" y="217.204">View Account Transactions</text><polygon fill="#181818" points="251.5625,231.084,257.8125,233.584,251.5625,236.084,254.0625,233.584" style="stroke:#181818;stroke-width:0.625;"/><line style="stroke:#181818;stroke-width:0.625;" x1="149.6875" x2="255.3125" y1="233.584" y2="233.584"/><text fill="#000000" font-family="sans-serif" font-size="8.125" lengthAdjust="spacing" textLength="94.375" x="154.0625" y="230.5487">Get Account Transactions</text><polygon fill="#181818" points="142.1875,254.4287,148.4375,256.9287,142.1875,259.4287,144.6875,256.9287" style="stroke:#181818;stroke-width:0.625;"/><line style="stroke:#181818;stroke-width:0.625;" x1="35.9375" x2="145.9375" y1="256.9287" y2="256.9287"/><text fill="#000000" font-family="sans-serif" font-size="8.125" lengthAdjust="spacing" textLength="56.25" x="40.3125" y="253.8934">Create Account</text><path d="M106.875,266.3037 L195.625,266.3037 L195.625,271.5234 L189.375,277.7734 L106.875,277.7734 L106.875,266.3037 " fill="#EEEEEE" style="stroke:#000000;stroke-width:0.9375;"/><rect fill="none" height="49.4092" style="stroke:#000000;stroke-width:0.9375;" width="286.875" x="106.875" y="266.3037"/><text fill="#000000" font-family="sans-serif" font-size="8.125" font-weight="bold" lengthAdjust="spacing" textLength="60.625" x="116.25" y="275.3632">Create Account</text><polygon fill="#181818" points="251.5625,289.2432,257.8125,291.7432,251.5625,294.2432,254.0625,291.7432" style="stroke:#181818;stroke-width:0.625;"/><line style="stroke:#181818;stroke-width:0.625;" x1="149.6875" x2="255.3125" y1="291.7432" y2="291.7432"/><text fill="#000000" font-family="sans-serif" font-size="8.125" lengthAdjust="spacing" textLength="56.25" x="154.0625" y="288.7079">Create Account</text><polygon fill="#181818" points="347.8125,308.2129,354.0625,310.7129,347.8125,313.2129,350.3125,310.7129" style="stroke:#181818;stroke-width:0.625;"/><line style="stroke:#181818;stroke-width:0.625;" x1="149.6875" x2="351.5625" y1="310.7129" y2="310.7129"/><text fill="#000000" font-family="sans-serif" font-size="8.125" lengthAdjust="spacing" textLength="168.125" x="154.0625" y="307.6776">Send New Account Created Notification E-Mail</text><path d="M6.25,328.8379 L173.75,328.8379 L173.75,334.0576 L167.5,340.3076 L6.25,340.3076 L6.25,328.8379 " fill="#EEEEEE" style="stroke:#000000;stroke-width:0.9375;"/><rect fill="none" height="165.7275" style="stroke:#000000;stroke-width:0.9375;" width="323.125" x="6.25" y="328.8379"/><text fill="#000000" font-family="sans-serif" font-size="8.125" font-weight="bold" lengthAdjust="spacing" textLength="139.375" x="15.625" y="337.8973">Customer - Banking via Mobile App</text><polygon fill="#181818" points="142.1875,351.7773,148.4375,354.2773,142.1875,356.7773,144.6875,354.2773" style="stroke:#181818;stroke-width:0.625;"/><line style="stroke:#181818;stroke-width:0.625;" x1="35.9375" x2="145.9375" y1="354.2773" y2="354.2773"/><text fill="#000000" font-family="sans-serif" font-size="8.125" lengthAdjust="spacing" textLength="25" x="40.3125" y="351.2421">Sign In</text><polygon fill="#181818" points="142.1875,370.7471,148.4375,373.2471,142.1875,375.7471,144.6875,373.2471" style="stroke:#181818;stroke-width:0.625;"/><line style="stroke:#181818;stroke-width:0.625;" x1="35.9375" x2="145.9375" y1="373.2471" y2="373.2471"/><text fill="#000000" font-family="sans-serif" font-size="8.125" lengthAdjust="spacing" textLength="82.5" x="40.3125" y="370.2118">View Customer Details</text><path d="M106.875,382.6221 L224.375,382.6221 L224.375,387.8418 L218.125,394.0918 L106.875,394.0918 L106.875,382.6221 " fill="#EEEEEE" style="stroke:#000000;stroke-width:0.9375;"/><rect fill="none" height="49.4092" style="stroke:#000000;stroke-width:0.9375;" width="216.25" x="106.875" y="382.6221"/><text fill="#000000" font-family="sans-serif" font-size="8.125" font-weight="bold" lengthAdjust="spacing" textLength="89.375" x="116.25" y="391.6815">View Customer Details</text><polygon fill="#181818" points="251.5625,405.5615,257.8125,408.0615,251.5625,410.5615,254.0625,408.0615" style="stroke:#181818;stroke-width:0.625;"/><line style="stroke:#181818;stroke-width:0.625;" x1="149.6875" x2="255.3125" y1="408.0615" y2="408.0615"/><text fill="#000000" font-family="sans-serif" font-size="8.125" lengthAdjust="spacing" textLength="50.625" x="154.0625" y="405.0262">Get Customer</text><polygon fill="#181818" points="251.5625,424.5313,257.8125,427.0313,251.5625,429.5313,254.0625,427.0313" style="stroke:#181818;stroke-width:0.625;"/><line style="stroke:#181818;stroke-width:0.625;" x1="149.6875" x2="255.3125" y1="427.0313" y2="427.0313"/><text fill="#000000" font-family="sans-serif" font-size="8.125" lengthAdjust="spacing" textLength="87.5" x="154.0625" y="423.996">Get Customer Accounts</text><polygon fill="#181818" points="142.1875,447.876,148.4375,450.376,142.1875,452.876,144.6875,450.376" style="stroke:#181818;stroke-width:0.625;"/><line style="stroke:#181818;stroke-width:0.625;" x1="35.9375" x2="145.9375" y1="450.376" y2="450.376"/><text fill="#000000" font-family="sans-serif" font-size="8.125" lengthAdjust="spacing" textLength="98.75" x="40.3125" y="447.3407">View Account Transactions</text><path d="M106.875,459.751 L241.875,459.751 L241.875,464.9707 L235.625,471.2207 L106.875,471.2207 L106.875,459.751 " fill="#EEEEEE" style="stroke:#000000;stroke-width:0.9375;"/><rect fill="none" height="30.4395" style="stroke:#000000;stroke-width:0.9375;" width="216.25" x="106.875" y="459.751"/><text fill="#000000" font-family="sans-serif" font-size="8.125" font-weight="bold" lengthAdjust="spacing" textLength="106.875" x="116.25" y="468.8104">View Account Transactions</text><polygon fill="#181818" points="251.5625,482.6904,257.8125,485.1904,251.5625,487.6904,254.0625,485.1904" style="stroke:#181818;stroke-width:0.625;"/><line style="stroke:#181818;stroke-width:0.625;" x1="149.6875" x2="255.3125" y1="485.1904" y2="485.1904"/><text fill="#000000" font-family="sans-serif" font-size="8.125" lengthAdjust="spacing" textLength="94.375" x="154.0625" y="482.1552">Get Account Transactions</text><path d="M6.25,503.3154 L189.375,503.3154 L189.375,508.5352 L183.125,514.7852 L6.25,514.7852 L6.25,503.3154 " fill="#EEEEEE" style="stroke:#000000;stroke-width:0.9375;"/><rect fill="none" height="49.4092" style="stroke:#000000;stroke-width:0.9375;" width="387.5" x="6.25" y="503.3154"/><text fill="#000000" font-family="sans-serif" font-size="8.125" font-weight="bold" lengthAdjust="spacing" textLength="155" x="15.625" y="512.3749">Customer - Receive E-Mail Notifications</text><polygon fill="#181818" points="347.8125,526.2549,354.0625,528.7549,347.8125,531.2549,350.3125,528.7549" style="stroke:#181818;stroke-width:0.625;"/><line style="stroke:#181818;stroke-width:0.625;" x1="35.9375" x2="351.5625" y1="528.7549" y2="528.7549"/><text fill="#000000" font-family="sans-serif" font-size="8.125" lengthAdjust="spacing" textLength="168.75" x="40.3125" y="525.7196">Receive Password Changed Notification E-Mail</text><polygon fill="#181818" points="347.8125,545.2246,354.0625,547.7246,347.8125,550.2246,350.3125,547.7246" style="stroke:#181818;stroke-width:0.625;"/><line style="stroke:#181818;stroke-width:0.625;" x1="35.9375" x2="351.5625" y1="547.7246" y2="547.7246"/><text fill="#000000" font-family="sans-serif" font-size="8.125" lengthAdjust="spacing" textLength="177.5" x="40.3125" y="544.6893">Receive New Account Created Notification E-Mail</text><!--SRC=[xLN1Ji904BtlLuoSv53YoOC74wZ4U12D4FKwjaETsEuskmE4ltShBL9JK4pXnA5fiZlptkxhlDUpt6AI8QIuD3C1bv6WHkK-METeCOCuPxYyK4fOKeBGP7bAGd0-r74mCO5_TI60y64q6RvE8AKvfLsbVAzmn3bgWKuuSs8oiXr01mDE1gW_7jEeru_4MDUhjkjDTrh8QX8egbadFvl7PYeBj3HUEg7CzQhwihmETe-if_usLA71gkqtq7LVsRPQhsCF0r-L_X5mMDIMA2gnPfP3TNslOdMuEIEyq1lqyrnjrmk2wpq4WIiOuPmJ56eJSyo9XZlT9kGpq-9RbHi_a9owKgpclJtWTn-c-NlxCztwGLpFwN7fe1z5PgR5AT9nwpgNu32ng1r6maRNj6xSFuu0ZTGjQn1QyeQeg2f7rXSFVzj34MwaJM5LhnsCDhxfYjQl6U4fHrWe3Aiu-zAvU7PcrBrvO_zJQ3ccJf5oYfHZHqhZg3zHH3odqX8rcxZ_grOtPSNnYCujZ8qXV4UTR35bovpxP87w1000]--></g></svg>