<?xml version="1.0" encoding="us-ascii" standalone="no"?><svg xmlns="http://www.w3.org/2000/svg" xmlns:xlink="http://www.w3.org/1999/xlink" contentStyleType="text/css" height="1115.625px" preserveAspectRatio="none" style="width:665px;height:1115px;background:#FFFFFF;" version="1.1" viewBox="0 0 665 1115" width="665.625px" zoomAndPan="magnify"><defs/><g><text fill="#000000" font-family="sans-serif" font-size="8.75" font-weight="bold" lengthAdjust="spacing" textLength="187.5" x="240.1563" y="18.4583">Complete (End-To-End) - CONTAINER level)</text><rect fill="#FFFFFF" height="1080.0928" style="stroke:#181818;stroke-width:0.3125;" width="390.3125" x="63.125" y="27.8809"/><text fill="#000000" font-family="sans-serif" font-size="8.125" font-weight="bold" lengthAdjust="spacing" textLength="65.625" x="225.4688" y="36.3153">Internet Banking</text><rect fill="none" height="536.1523" style="stroke:#000000;stroke-width:0.9375;" width="655.9375" x="6.25" y="90.9814"/><rect fill="none" height="30.4395" style="stroke:#000000;stroke-width:0.9375;" width="166.25" x="59.375" y="125.7959"/><rect fill="none" height="69.6289" style="stroke:#000000;stroke-width:0.9375;" width="266.5625" x="138.125" y="183.9551"/><rect fill="none" height="30.4395" style="stroke:#000000;stroke-width:0.9375;" width="147.1875" x="251.25" y="218.7695"/><rect fill="none" height="127.7881" style="stroke:#000000;stroke-width:0.9375;" width="447.1875" x="138.125" y="281.3037"/><rect fill="none" height="30.4395" style="stroke:#000000;stroke-width:0.9375;" width="327.8125" x="251.25" y="316.1182"/><rect fill="none" height="30.4395" style="stroke:#000000;stroke-width:0.9375;" width="327.8125" x="251.25" y="374.2773"/><rect fill="none" height="69.6289" style="stroke:#000000;stroke-width:0.9375;" width="447.1875" x="138.125" y="436.8115"/><rect fill="none" height="30.4395" style="stroke:#000000;stroke-width:0.9375;" width="327.8125" x="251.25" y="471.626"/><rect fill="none" height="88.5986" style="stroke:#000000;stroke-width:0.9375;" width="517.8125" x="138.125" y="534.1602"/><rect fill="none" height="49.4092" style="stroke:#000000;stroke-width:0.9375;" width="398.4375" x="251.25" y="568.9746"/><rect fill="none" height="361.6748" style="stroke:#000000;stroke-width:0.9375;" width="585.3125" x="6.25" y="635.8838"/><rect fill="none" height="69.6289" style="stroke:#000000;stroke-width:0.9375;" width="212.1875" x="245" y="670.6982"/><rect fill="none" height="30.4395" style="stroke:#000000;stroke-width:0.9375;" width="147.1875" x="251.25" y="705.5127"/><rect fill="none" height="127.7881" style="stroke:#000000;stroke-width:0.9375;" width="340.3125" x="245" y="768.0469"/><rect fill="none" height="30.4395" style="stroke:#000000;stroke-width:0.9375;" width="327.8125" x="251.25" y="802.8613"/><rect fill="none" height="30.4395" style="stroke:#000000;stroke-width:0.9375;" width="327.8125" x="251.25" y="861.0205"/><rect fill="none" height="69.6289" style="stroke:#000000;stroke-width:0.9375;" width="340.3125" x="245" y="923.5547"/><rect fill="none" height="30.4395" style="stroke:#000000;stroke-width:0.9375;" width="327.8125" x="251.25" y="958.3691"/><rect fill="none" height="49.4092" style="stroke:#000000;stroke-width:0.9375;" width="643.4375" x="6.25" y="1006.3086"/><line style="stroke:#181818;stroke-width:0.3125;stroke-dasharray:5.0,5.0;" x1="35.625" x2="35.625" y1="80.3564" y2="1066.3428"/><line style="stroke:#181818;stroke-width:0.3125;stroke-dasharray:5.0,5.0;" x1="101.875" x2="101.875" y1="80.3564" y2="1066.3428"/><line style="stroke:#181818;stroke-width:0.3125;stroke-dasharray:5.0,5.0;" x1="181.875" x2="181.875" y1="80.3564" y2="1066.3428"/><line style="stroke:#181818;stroke-width:0.3125;stroke-dasharray:5.0,5.0;" x1="291.25" x2="291.25" y1="80.3564" y2="1066.3428"/><line style="stroke:#181818;stroke-width:0.3125;stroke-dasharray:5.0,5.0;" x1="370.9375" x2="370.9375" y1="80.3564" y2="1066.3428"/><line style="stroke:#181818;stroke-width:0.3125;stroke-dasharray:5.0,5.0;" x1="424.6875" x2="424.6875" y1="80.3564" y2="1066.3428"/><line style="stroke:#181818;stroke-width:0.3125;stroke-dasharray:5.0,5.0;" x1="514.6875" x2="514.6875" y1="80.3564" y2="1066.3428"/><line style="stroke:#181818;stroke-width:0.3125;stroke-dasharray:5.0,5.0;" x1="610.9375" x2="610.9375" y1="80.3564" y2="1066.3428"/><rect fill="#E2E2F0" height="19.7559" rx="1.5625" ry="1.5625" style="stroke:#181818;stroke-width:0.3125;" width="46.875" x="12.5" y="59.9756"/><text fill="#000000" font-family="sans-serif" font-size="8.75" lengthAdjust="spacing" textLength="38.125" x="16.875" y="73.4338">Customer</text><rect fill="#E2E2F0" height="19.7559" rx="1.5625" ry="1.5625" style="stroke:#181818;stroke-width:0.3125;" width="46.875" x="12.5" y="1065.7178"/><text fill="#000000" font-family="sans-serif" font-size="8.75" lengthAdjust="spacing" textLength="38.125" x="16.875" y="1079.176">Customer</text><rect fill="#E2E2F0" height="19.7559" rx="1.5625" ry="1.5625" style="stroke:#181818;stroke-width:0.3125;" width="72.5" x="65.625" y="59.9756"/><text fill="#000000" font-family="sans-serif" font-size="8.75" lengthAdjust="spacing" textLength="63.75" x="70" y="73.4338">Web Application</text><rect fill="#E2E2F0" height="19.7559" rx="1.5625" ry="1.5625" style="stroke:#181818;stroke-width:0.3125;" width="72.5" x="65.625" y="1065.7178"/><text fill="#000000" font-family="sans-serif" font-size="8.75" lengthAdjust="spacing" textLength="63.75" x="70" y="1079.176">Web Application</text><rect fill="#E2E2F0" height="19.7559" rx="1.5625" ry="1.5625" style="stroke:#181818;stroke-width:0.3125;" width="75" x="144.375" y="59.9756"/><text fill="#000000" font-family="sans-serif" font-size="8.75" lengthAdjust="spacing" textLength="66.25" x="148.75" y="73.4338">Single-Page App</text><rect fill="#E2E2F0" height="19.7559" rx="1.5625" ry="1.5625" style="stroke:#181818;stroke-width:0.3125;" width="75" x="144.375" y="1065.7178"/><text fill="#000000" font-family="sans-serif" font-size="8.75" lengthAdjust="spacing" textLength="66.25" x="148.75" y="1079.176">Single-Page App</text><rect fill="#E2E2F0" height="19.7559" rx="1.5625" ry="1.5625" style="stroke:#181818;stroke-width:0.3125;" width="67.5" x="257.5" y="59.9756"/><text fill="#000000" font-family="sans-serif" font-size="8.75" lengthAdjust="spacing" textLength="58.75" x="261.875" y="73.4338">API Application</text><rect fill="#E2E2F0" height="19.7559" rx="1.5625" ry="1.5625" style="stroke:#181818;stroke-width:0.3125;" width="67.5" x="257.5" y="1065.7178"/><text fill="#000000" font-family="sans-serif" font-size="8.75" lengthAdjust="spacing" textLength="58.75" x="261.875" y="1079.176">API Application</text><text fill="#000000" font-family="sans-serif" font-size="8.75" lengthAdjust="spacing" textLength="38.125" x="350.3125" y="78.4338">Database</text><path d="M360,46.8506 C360,40.6006 371.25,40.6006 371.25,40.6006 C371.25,40.6006 382.5,40.6006 382.5,46.8506 L382.5,63.1006 C382.5,69.3506 371.25,69.3506 371.25,69.3506 C371.25,69.3506 360,69.3506 360,63.1006 L360,46.8506 " fill="#E2E2F0" style="stroke:#181818;stroke-width:0.9375;"/><path d="M360,46.8506 C360,53.1006 371.25,53.1006 371.25,53.1006 C371.25,53.1006 382.5,53.1006 382.5,46.8506 " fill="none" style="stroke:#181818;stroke-width:0.9375;"/><text fill="#000000" font-family="sans-serif" font-size="8.75" lengthAdjust="spacing" textLength="38.125" x="350.3125" y="1074.801">Database</text><path d="M360,1082.9736 C360,1076.7236 371.25,1076.7236 371.25,1076.7236 C371.25,1076.7236 382.5,1076.7236 382.5,1082.9736 L382.5,1099.2236 C382.5,1105.4736 371.25,1105.4736 371.25,1105.4736 C371.25,1105.4736 360,1105.4736 360,1099.2236 L360,1082.9736 " fill="#E2E2F0" style="stroke:#181818;stroke-width:0.9375;"/><path d="M360,1082.9736 C360,1089.2236 371.25,1089.2236 371.25,1089.2236 C371.25,1089.2236 382.5,1089.2236 382.5,1082.9736 " fill="none" style="stroke:#181818;stroke-width:0.9375;"/><rect fill="#E2E2F0" height="19.7559" rx="1.5625" ry="1.5625" style="stroke:#181818;stroke-width:0.3125;" width="52.5" x="398.4375" y="59.9756"/><text fill="#000000" font-family="sans-serif" font-size="8.75" lengthAdjust="spacing" textLength="43.75" x="402.8125" y="73.4338">Mobile App</text><rect fill="#E2E2F0" height="19.7559" rx="1.5625" ry="1.5625" style="stroke:#181818;stroke-width:0.3125;" width="52.5" x="398.4375" y="1065.7178"/><text fill="#000000" font-family="sans-serif" font-size="8.75" lengthAdjust="spacing" textLength="43.75" x="402.8125" y="1079.176">Mobile App</text><rect fill="#E2E2F0" height="19.7559" rx="1.5625" ry="1.5625" style="stroke:#181818;stroke-width:0.3125;" width="115.625" x="457.1875" y="59.9756"/><text fill="#000000" font-family="sans-serif" font-size="8.75" lengthAdjust="spacing" textLength="106.875" x="461.5625" y="73.4338">Mainframe Banking System</text><rect fill="#E2E2F0" height="19.7559" rx="1.5625" ry="1.5625" style="stroke:#181818;stroke-width:0.3125;" width="115.625" x="457.1875" y="1065.7178"/><text fill="#000000" font-family="sans-serif" font-size="8.75" lengthAdjust="spacing" textLength="106.875" x="461.5625" y="1079.176">Mainframe Banking System</text><rect fill="#E2E2F0" height="19.7559" rx="1.5625" ry="1.5625" style="stroke:#181818;stroke-width:0.3125;" width="64.375" x="579.0625" y="59.9756"/><text fill="#000000" font-family="sans-serif" font-size="8.75" lengthAdjust="spacing" textLength="55.625" x="583.4375" y="73.4338">E-Mail System</text><rect fill="#E2E2F0" height="19.7559" rx="1.5625" ry="1.5625" style="stroke:#181818;stroke-width:0.3125;" width="64.375" x="579.0625" y="1065.7178"/><text fill="#000000" font-family="sans-serif" font-size="8.75" lengthAdjust="spacing" textLength="55.625" x="583.4375" y="1079.176">E-Mail System</text><path d="M6.25,90.9814 L165,90.9814 L165,96.2012 L158.75,102.4512 L6.25,102.4512 L6.25,90.9814 " fill="#EEEEEE" style="stroke:#000000;stroke-width:0.9375;"/><rect fill="none" height="536.1523" style="stroke:#000000;stroke-width:0.9375;" width="655.9375" x="6.25" y="90.9814"/><text fill="#000000" font-family="sans-serif" font-size="8.125" font-weight="bold" lengthAdjust="spacing" textLength="130.625" x="15.625" y="100.0409">Customer - Banking via Web App</text><polygon fill="#181818" points="94.375,113.9209,100.625,116.4209,94.375,118.9209,96.875,116.4209" style="stroke:#181818;stroke-width:0.625;"/><line style="stroke:#181818;stroke-width:0.625;" x1="35.9375" x2="98.125" y1="116.4209" y2="116.4209"/><text fill="#000000" font-family="sans-serif" font-size="8.125" lengthAdjust="spacing" textLength="30.625" x="40.3125" y="113.3856">Navigate</text><path d="M59.375,125.7959 L122.5,125.7959 L122.5,131.0156 L116.25,137.2656 L59.375,137.2656 L59.375,125.7959 " fill="#EEEEEE" style="stroke:#000000;stroke-width:0.9375;"/><rect fill="none" height="30.4395" style="stroke:#000000;stroke-width:0.9375;" width="166.25" x="59.375" y="125.7959"/><text fill="#000000" font-family="sans-serif" font-size="8.125" font-weight="bold" lengthAdjust="spacing" textLength="35" x="68.75" y="134.8553">Navigate</text><polygon fill="#181818" points="174.375,148.7354,180.625,151.2354,174.375,153.7354,176.875,151.2354" style="stroke:#181818;stroke-width:0.625;"/><line style="stroke:#181818;stroke-width:0.625;" x1="101.875" x2="178.125" y1="151.2354" y2="151.2354"/><text fill="#000000" font-family="sans-serif" font-size="8.125" lengthAdjust="spacing" textLength="54.375" x="106.25" y="148.2001">Load And Start</text><polygon fill="#181818" points="174.375,172.0801,180.625,174.5801,174.375,177.0801,176.875,174.5801" style="stroke:#181818;stroke-width:0.625;"/><line style="stroke:#181818;stroke-width:0.625;" x1="35.9375" x2="178.125" y1="174.5801" y2="174.5801"/><text fill="#000000" font-family="sans-serif" font-size="8.125" lengthAdjust="spacing" textLength="25" x="40.3125" y="171.5448">Sign In</text><path d="M138.125,183.9551 L194.375,183.9551 L194.375,189.1748 L188.125,195.4248 L138.125,195.4248 L138.125,183.9551 " fill="#EEEEEE" style="stroke:#000000;stroke-width:0.9375;"/><rect fill="none" height="69.6289" style="stroke:#000000;stroke-width:0.9375;" width="266.5625" x="138.125" y="183.9551"/><text fill="#000000" font-family="sans-serif" font-size="8.125" font-weight="bold" lengthAdjust="spacing" textLength="28.125" x="147.5" y="193.0145">Sign In</text><polygon fill="#181818" points="283.75,206.8945,290,209.3945,283.75,211.8945,286.25,209.3945" style="stroke:#181818;stroke-width:0.625;"/><line style="stroke:#181818;stroke-width:0.625;" x1="181.875" x2="287.5" y1="209.3945" y2="209.3945"/><text fill="#000000" font-family="sans-serif" font-size="8.125" lengthAdjust="spacing" textLength="25" x="186.25" y="206.3593">Sign In</text><path d="M251.25,218.7695 L307.5,218.7695 L307.5,223.9893 L301.25,230.2393 L251.25,230.2393 L251.25,218.7695 " fill="#EEEEEE" style="stroke:#000000;stroke-width:0.9375;"/><rect fill="none" height="30.4395" style="stroke:#000000;stroke-width:0.9375;" width="147.1875" x="251.25" y="218.7695"/><text fill="#000000" font-family="sans-serif" font-size="8.125" font-weight="bold" lengthAdjust="spacing" textLength="28.125" x="260.625" y="227.829">Sign In</text><polygon fill="#181818" points="363.75,241.709,370,244.209,363.75,246.709,366.25,244.209" style="stroke:#181818;stroke-width:0.625;"/><line style="stroke:#181818;stroke-width:0.625;" x1="291.25" x2="367.5" y1="244.209" y2="244.209"/><text fill="#000000" font-family="sans-serif" font-size="8.125" lengthAdjust="spacing" textLength="65" x="295.625" y="241.1737">Authenticate User</text><polygon fill="#181818" points="174.375,269.4287,180.625,271.9287,174.375,274.4287,176.875,271.9287" style="stroke:#181818;stroke-width:0.625;"/><line style="stroke:#181818;stroke-width:0.625;" x1="35.9375" x2="178.125" y1="271.9287" y2="271.9287"/><text fill="#000000" font-family="sans-serif" font-size="8.125" lengthAdjust="spacing" textLength="82.5" x="40.3125" y="268.8934">View Customer Details</text><path d="M138.125,281.3037 L255.625,281.3037 L255.625,286.5234 L249.375,292.7734 L138.125,292.7734 L138.125,281.3037 " fill="#EEEEEE" style="stroke:#000000;stroke-width:0.9375;"/><rect fill="none" height="127.7881" style="stroke:#000000;stroke-width:0.9375;" width="447.1875" x="138.125" y="281.3037"/><text fill="#000000" font-family="sans-serif" font-size="8.125" font-weight="bold" lengthAdjust="spacing" textLength="89.375" x="147.5" y="290.3632">View Customer Details</text><polygon fill="#181818" points="283.75,304.2432,290,306.7432,283.75,309.2432,286.25,306.7432" style="stroke:#181818;stroke-width:0.625;"/><line style="stroke:#181818;stroke-width:0.625;" x1="181.875" x2="287.5" y1="306.7432" y2="306.7432"/><text fill="#000000" font-family="sans-serif" font-size="8.125" lengthAdjust="spacing" textLength="50.625" x="186.25" y="303.7079">Get Customer</text><path d="M251.25,316.1182 L333.125,316.1182 L333.125,321.3379 L326.875,327.5879 L251.25,327.5879 L251.25,316.1182 " fill="#EEEEEE" style="stroke:#000000;stroke-width:0.9375;"/><rect fill="none" height="30.4395" style="stroke:#000000;stroke-width:0.9375;" width="327.8125" x="251.25" y="316.1182"/><text fill="#000000" font-family="sans-serif" font-size="8.125" font-weight="bold" lengthAdjust="spacing" textLength="53.75" x="260.625" y="325.1776">Get Customer</text><polygon fill="#181818" points="507.5,339.0576,513.75,341.5576,507.5,344.0576,510,341.5576" style="stroke:#181818;stroke-width:0.625;"/><line style="stroke:#181818;stroke-width:0.625;" x1="291.25" x2="511.25" y1="341.5576" y2="341.5576"/><text fill="#000000" font-family="sans-serif" font-size="8.125" lengthAdjust="spacing" textLength="50.625" x="295.625" y="338.5223">Get Customer</text><polygon fill="#181818" points="283.75,362.4023,290,364.9023,283.75,367.4023,286.25,364.9023" style="stroke:#181818;stroke-width:0.625;"/><line style="stroke:#181818;stroke-width:0.625;" x1="181.875" x2="287.5" y1="364.9023" y2="364.9023"/><text fill="#000000" font-family="sans-serif" font-size="8.125" lengthAdjust="spacing" textLength="87.5" x="186.25" y="361.8671">Get Customer Accounts</text><path d="M251.25,374.2773 L371.25,374.2773 L371.25,379.4971 L365,385.7471 L251.25,385.7471 L251.25,374.2773 " fill="#EEEEEE" style="stroke:#000000;stroke-width:0.9375;"/><rect fill="none" height="30.4395" style="stroke:#000000;stroke-width:0.9375;" width="327.8125" x="251.25" y="374.2773"/><text fill="#000000" font-family="sans-serif" font-size="8.125" font-weight="bold" lengthAdjust="spacing" textLength="91.875" x="260.625" y="383.3368">Get Customer Accounts</text><polygon fill="#181818" points="507.5,397.2168,513.75,399.7168,507.5,402.2168,510,399.7168" style="stroke:#181818;stroke-width:0.625;"/><line style="stroke:#181818;stroke-width:0.625;" x1="291.25" x2="511.25" y1="399.7168" y2="399.7168"/><text fill="#000000" font-family="sans-serif" font-size="8.125" lengthAdjust="spacing" textLength="87.5" x="295.625" y="396.6815">Get Customer Accounts</text><polygon fill="#181818" points="174.375,424.9365,180.625,427.4365,174.375,429.9365,176.875,427.4365" style="stroke:#181818;stroke-width:0.625;"/><line style="stroke:#181818;stroke-width:0.625;" x1="35.9375" x2="178.125" y1="427.4365" y2="427.4365"/><text fill="#000000" font-family="sans-serif" font-size="8.125" lengthAdjust="spacing" textLength="98.75" x="40.3125" y="424.4012">View Account Transactions</text><path d="M138.125,436.8115 L273.125,436.8115 L273.125,442.0313 L266.875,448.2813 L138.125,448.2813 L138.125,436.8115 " fill="#EEEEEE" style="stroke:#000000;stroke-width:0.9375;"/><rect fill="none" height="69.6289" style="stroke:#000000;stroke-width:0.9375;" width="447.1875" x="138.125" y="436.8115"/><text fill="#000000" font-family="sans-serif" font-size="8.125" font-weight="bold" lengthAdjust="spacing" textLength="106.875" x="147.5" y="445.871">View Account Transactions</text><polygon fill="#181818" points="283.75,459.751,290,462.251,283.75,464.751,286.25,462.251" style="stroke:#181818;stroke-width:0.625;"/><line style="stroke:#181818;stroke-width:0.625;" x1="181.875" x2="287.5" y1="462.251" y2="462.251"/><text fill="#000000" font-family="sans-serif" font-size="8.125" lengthAdjust="spacing" textLength="94.375" x="186.25" y="459.2157">Get Account Transactions</text><path d="M251.25,471.626 L380,471.626 L380,476.8457 L373.75,483.0957 L251.25,483.0957 L251.25,471.626 " fill="#EEEEEE" style="stroke:#000000;stroke-width:0.9375;"/><rect fill="none" height="30.4395" style="stroke:#000000;stroke-width:0.9375;" width="327.8125" x="251.25" y="471.626"/><text fill="#000000" font-family="sans-serif" font-size="8.125" font-weight="bold" lengthAdjust="spacing" textLength="100.625" x="260.625" y="480.6854">Get Account Transactions</text><polygon fill="#181818" points="507.5,494.5654,513.75,497.0654,507.5,499.5654,510,497.0654" style="stroke:#181818;stroke-width:0.625;"/><line style="stroke:#181818;stroke-width:0.625;" x1="291.25" x2="511.25" y1="497.0654" y2="497.0654"/><text fill="#000000" font-family="sans-serif" font-size="8.125" lengthAdjust="spacing" textLength="94.375" x="295.625" y="494.0302">Get Account Transactions</text><polygon fill="#181818" points="174.375,522.2852,180.625,524.7852,174.375,527.2852,176.875,524.7852" style="stroke:#181818;stroke-width:0.625;"/><line style="stroke:#181818;stroke-width:0.625;" x1="35.9375" x2="178.125" y1="524.7852" y2="524.7852"/><text fill="#000000" font-family="sans-serif" font-size="8.125" lengthAdjust="spacing" textLength="56.25" x="40.3125" y="521.7499">Create Account</text><path d="M138.125,534.1602 L226.875,534.1602 L226.875,539.3799 L220.625,545.6299 L138.125,545.6299 L138.125,534.1602 " fill="#EEEEEE" style="stroke:#000000;stroke-width:0.9375;"/><rect fill="none" height="88.5986" style="stroke:#000000;stroke-width:0.9375;" width="517.8125" x="138.125" y="534.1602"/><text fill="#000000" font-family="sans-serif" font-size="8.125" font-weight="bold" lengthAdjust="spacing" textLength="60.625" x="147.5" y="543.2196">Create Account</text><polygon fill="#181818" points="283.75,557.0996,290,559.5996,283.75,562.0996,286.25,559.5996" style="stroke:#181818;stroke-width:0.625;"/><line style="stroke:#181818;stroke-width:0.625;" x1="181.875" x2="287.5" y1="559.5996" y2="559.5996"/><text fill="#000000" font-family="sans-serif" font-size="8.125" lengthAdjust="spacing" textLength="56.25" x="186.25" y="556.5643">Create Account</text><path d="M251.25,568.9746 L340,568.9746 L340,574.1943 L333.75,580.4443 L251.25,580.4443 L251.25,568.9746 " fill="#EEEEEE" style="stroke:#000000;stroke-width:0.9375;"/><rect fill="none" height="49.4092" style="stroke:#000000;stroke-width:0.9375;" width="398.4375" x="251.25" y="568.9746"/><text fill="#000000" font-family="sans-serif" font-size="8.125" font-weight="bold" lengthAdjust="spacing" textLength="60.625" x="260.625" y="578.0341">Create Account</text><polygon fill="#181818" points="507.5,591.9141,513.75,594.4141,507.5,596.9141,510,594.4141" style="stroke:#181818;stroke-width:0.625;"/><line style="stroke:#181818;stroke-width:0.625;" x1="291.25" x2="511.25" y1="594.4141" y2="594.4141"/><text fill="#000000" font-family="sans-serif" font-size="8.125" lengthAdjust="spacing" textLength="56.25" x="295.625" y="591.3788">Create Account</text><polygon fill="#181818" points="603.75,610.8838,610,613.3838,603.75,615.8838,606.25,613.3838" style="stroke:#181818;stroke-width:0.625;"/><line style="stroke:#181818;stroke-width:0.625;" x1="291.25" x2="607.5" y1="613.3838" y2="613.3838"/><text fill="#000000" font-family="sans-serif" font-size="8.125" lengthAdjust="spacing" textLength="168.125" x="295.625" y="610.3485">Send New Account Created Notification E-Mail</text><path d="M6.25,635.8838 L173.75,635.8838 L173.75,641.1035 L167.5,647.3535 L6.25,647.3535 L6.25,635.8838 " fill="#EEEEEE" style="stroke:#000000;stroke-width:0.9375;"/><rect fill="none" height="361.6748" style="stroke:#000000;stroke-width:0.9375;" width="585.3125" x="6.25" y="635.8838"/><text fill="#000000" font-family="sans-serif" font-size="8.125" font-weight="bold" lengthAdjust="spacing" textLength="139.375" x="15.625" y="644.9432">Customer - Banking via Mobile App</text><polygon fill="#181818" points="417.1875,658.8232,423.4375,661.3232,417.1875,663.8232,419.6875,661.3232" style="stroke:#181818;stroke-width:0.625;"/><line style="stroke:#181818;stroke-width:0.625;" x1="35.9375" x2="420.9375" y1="661.3232" y2="661.3232"/><text fill="#000000" font-family="sans-serif" font-size="8.125" lengthAdjust="spacing" textLength="25" x="40.3125" y="658.288">Sign In</text><path d="M245,670.6982 L301.25,670.6982 L301.25,675.918 L295,682.168 L245,682.168 L245,670.6982 " fill="#EEEEEE" style="stroke:#000000;stroke-width:0.9375;"/><rect fill="none" height="69.6289" style="stroke:#000000;stroke-width:0.9375;" width="212.1875" x="245" y="670.6982"/><text fill="#000000" font-family="sans-serif" font-size="8.125" font-weight="bold" lengthAdjust="spacing" textLength="28.125" x="254.375" y="679.7577">Sign In</text><polygon fill="#181818" points="298.125,693.6377,291.875,696.1377,298.125,698.6377,295.625,696.1377" style="stroke:#181818;stroke-width:0.625;"/><line style="stroke:#181818;stroke-width:0.625;" x1="294.375" x2="424.0625" y1="696.1377" y2="696.1377"/><text fill="#000000" font-family="sans-serif" font-size="8.125" lengthAdjust="spacing" textLength="25" x="301.875" y="693.1024">Sign In</text><path d="M251.25,705.5127 L307.5,705.5127 L307.5,710.7324 L301.25,716.9824 L251.25,716.9824 L251.25,705.5127 " fill="#EEEEEE" style="stroke:#000000;stroke-width:0.9375;"/><rect fill="none" height="30.4395" style="stroke:#000000;stroke-width:0.9375;" width="147.1875" x="251.25" y="705.5127"/><text fill="#000000" font-family="sans-serif" font-size="8.125" font-weight="bold" lengthAdjust="spacing" textLength="28.125" x="260.625" y="714.5721">Sign In</text><polygon fill="#181818" points="363.75,728.4521,370,730.9521,363.75,733.4521,366.25,730.9521" style="stroke:#181818;stroke-width:0.625;"/><line style="stroke:#181818;stroke-width:0.625;" x1="291.25" x2="367.5" y1="730.9521" y2="730.9521"/><text fill="#000000" font-family="sans-serif" font-size="8.125" lengthAdjust="spacing" textLength="65" x="295.625" y="727.9169">Authenticate User</text><polygon fill="#181818" points="417.1875,756.1719,423.4375,758.6719,417.1875,761.1719,419.6875,758.6719" style="stroke:#181818;stroke-width:0.625;"/><line style="stroke:#181818;stroke-width:0.625;" x1="35.9375" x2="420.9375" y1="758.6719" y2="758.6719"/><text fill="#000000" font-family="sans-serif" font-size="8.125" lengthAdjust="spacing" textLength="82.5" x="40.3125" y="755.6366">View Customer Details</text><path d="M245,768.0469 L362.5,768.0469 L362.5,773.2666 L356.25,779.5166 L245,779.5166 L245,768.0469 " fill="#EEEEEE" style="stroke:#000000;stroke-width:0.9375;"/><rect fill="none" height="127.7881" style="stroke:#000000;stroke-width:0.9375;" width="340.3125" x="245" y="768.0469"/><text fill="#000000" font-family="sans-serif" font-size="8.125" font-weight="bold" lengthAdjust="spacing" textLength="89.375" x="254.375" y="777.1063">View Customer Details</text><polygon fill="#181818" points="298.125,790.9863,291.875,793.4863,298.125,795.9863,295.625,793.4863" style="stroke:#181818;stroke-width:0.625;"/><line style="stroke:#181818;stroke-width:0.625;" x1="294.375" x2="424.0625" y1="793.4863" y2="793.4863"/><text fill="#000000" font-family="sans-serif" font-size="8.125" lengthAdjust="spacing" textLength="50.625" x="301.875" y="790.451">Get Customer</text><path d="M251.25,802.8613 L333.125,802.8613 L333.125,808.0811 L326.875,814.3311 L251.25,814.3311 L251.25,802.8613 " fill="#EEEEEE" style="stroke:#000000;stroke-width:0.9375;"/><rect fill="none" height="30.4395" style="stroke:#000000;stroke-width:0.9375;" width="327.8125" x="251.25" y="802.8613"/><text fill="#000000" font-family="sans-serif" font-size="8.125" font-weight="bold" lengthAdjust="spacing" textLength="53.75" x="260.625" y="811.9208">Get Customer</text><polygon fill="#181818" points="507.5,825.8008,513.75,828.3008,507.5,830.8008,510,828.3008" style="stroke:#181818;stroke-width:0.625;"/><line style="stroke:#181818;stroke-width:0.625;" x1="291.25" x2="511.25" y1="828.3008" y2="828.3008"/><text fill="#000000" font-family="sans-serif" font-size="8.125" lengthAdjust="spacing" textLength="50.625" x="295.625" y="825.2655">Get Customer</text><polygon fill="#181818" points="298.125,849.1455,291.875,851.6455,298.125,854.1455,295.625,851.6455" style="stroke:#181818;stroke-width:0.625;"/><line style="stroke:#181818;stroke-width:0.625;" x1="294.375" x2="424.0625" y1="851.6455" y2="851.6455"/><text fill="#000000" font-family="sans-serif" font-size="8.125" lengthAdjust="spacing" textLength="87.5" x="301.875" y="848.6102">Get Customer Accounts</text><path d="M251.25,861.0205 L371.25,861.0205 L371.25,866.2402 L365,872.4902 L251.25,872.4902 L251.25,861.0205 " fill="#EEEEEE" style="stroke:#000000;stroke-width:0.9375;"/><rect fill="none" height="30.4395" style="stroke:#000000;stroke-width:0.9375;" width="327.8125" x="251.25" y="861.0205"/><text fill="#000000" font-family="sans-serif" font-size="8.125" font-weight="bold" lengthAdjust="spacing" textLength="91.875" x="260.625" y="870.08">Get Customer Accounts</text><polygon fill="#181818" points="507.5,883.96,513.75,886.46,507.5,888.96,510,886.46" style="stroke:#181818;stroke-width:0.625;"/><line style="stroke:#181818;stroke-width:0.625;" x1="291.25" x2="511.25" y1="886.46" y2="886.46"/><text fill="#000000" font-family="sans-serif" font-size="8.125" lengthAdjust="spacing" textLength="87.5" x="295.625" y="883.4247">Get Customer Accounts</text><polygon fill="#181818" points="417.1875,911.6797,423.4375,914.1797,417.1875,916.6797,419.6875,914.1797" style="stroke:#181818;stroke-width:0.625;"/><line style="stroke:#181818;stroke-width:0.625;" x1="35.9375" x2="420.9375" y1="914.1797" y2="914.1797"/><text fill="#000000" font-family="sans-serif" font-size="8.125" lengthAdjust="spacing" textLength="98.75" x="40.3125" y="911.1444">View Account Transactions</text><path d="M245,923.5547 L380,923.5547 L380,928.7744 L373.75,935.0244 L245,935.0244 L245,923.5547 " fill="#EEEEEE" style="stroke:#000000;stroke-width:0.9375;"/><rect fill="none" height="69.6289" style="stroke:#000000;stroke-width:0.9375;" width="340.3125" x="245" y="923.5547"/><text fill="#000000" font-family="sans-serif" font-size="8.125" font-weight="bold" lengthAdjust="spacing" textLength="106.875" x="254.375" y="932.6141">View Account Transactions</text><polygon fill="#181818" points="298.125,946.4941,291.875,948.9941,298.125,951.4941,295.625,948.9941" style="stroke:#181818;stroke-width:0.625;"/><line style="stroke:#181818;stroke-width:0.625;" x1="294.375" x2="424.0625" y1="948.9941" y2="948.9941"/><text fill="#000000" font-family="sans-serif" font-size="8.125" lengthAdjust="spacing" textLength="94.375" x="301.875" y="945.9589">Get Account Transactions</text><path d="M251.25,958.3691 L380,958.3691 L380,963.5889 L373.75,969.8389 L251.25,969.8389 L251.25,958.3691 " fill="#EEEEEE" style="stroke:#000000;stroke-width:0.9375;"/><rect fill="none" height="30.4395" style="stroke:#000000;stroke-width:0.9375;" width="327.8125" x="251.25" y="958.3691"/><text fill="#000000" font-family="sans-serif" font-size="8.125" font-weight="bold" lengthAdjust="spacing" textLength="100.625" x="260.625" y="967.4286">Get Account Transactions</text><polygon fill="#181818" points="507.5,981.3086,513.75,983.8086,507.5,986.3086,510,983.8086" style="stroke:#181818;stroke-width:0.625;"/><line style="stroke:#181818;stroke-width:0.625;" x1="291.25" x2="511.25" y1="983.8086" y2="983.8086"/><text fill="#000000" font-family="sans-serif" font-size="8.125" lengthAdjust="spacing" textLength="94.375" x="295.625" y="980.7733">Get Account Transactions</text><path d="M6.25,1006.3086 L189.375,1006.3086 L189.375,1011.5283 L183.125,1017.7783 L6.25,1017.7783 L6.25,1006.3086 " fill="#EEEEEE" style="stroke:#000000;stroke-width:0.9375;"/><rect fill="none" height="49.4092" style="stroke:#000000;stroke-width:0.9375;" width="643.4375" x="6.25" y="1006.3086"/><text fill="#000000" font-family="sans-serif" font-size="8.125" font-weight="bold" lengthAdjust="spacing" textLength="155" x="15.625" y="1015.368">Customer - Receive E-Mail Notifications</text><polygon fill="#181818" points="603.75,1029.248,610,1031.748,603.75,1034.248,606.25,1031.748" style="stroke:#181818;stroke-width:0.625;"/><line style="stroke:#181818;stroke-width:0.625;" x1="35.9375" x2="607.5" y1="1031.748" y2="1031.748"/><text fill="#000000" font-family="sans-serif" font-size="8.125" lengthAdjust="spacing" textLength="168.75" x="40.3125" y="1028.7128">Receive Password Changed Notification E-Mail</text><polygon fill="#181818" points="603.75,1048.2178,610,1050.7178,603.75,1053.2178,606.25,1050.7178" style="stroke:#181818;stroke-width:0.625;"/><line style="stroke:#181818;stroke-width:0.625;" x1="35.9375" x2="607.5" y1="1050.7178" y2="1050.7178"/><text fill="#000000" font-family="sans-serif" font-size="8.125" lengthAdjust="spacing" textLength="177.5" x="40.3125" y="1047.6825">Receive New Account Created Notification E-Mail</text><!--SRC=[xLR1Rjf04BtlLqpffJaOzTH33vKS1rL83KM1DkV17imgzgxbNQ3v- -xANeYDILAmNTG62O6zwpTlvyruthiinpX5IF1HhZMeb3GAPEg1YmnpJ27AE7pwo9ZcEY48P9ebf0a-Z4JapQLdVgx0W-3xPEwF9wCxI6X3oHLZvcdDGvwXq308rahBbF81e89h7b-ZU9WcuT0FjSpLq2qpjf2_O30Mcd916kmsBk81lBzVSKqCpAU2UqyByBCiuI5gBaKTVYQNUeivpHwLfbGD7N29EmoaqCW56Ge6wGdGOQIPsP-GDyMORCGp8XL85iZW70Rof-EMZcIGwaUAKEC25S7Wflnt1hw3E3p3hLpmvDmy5I0sHoGYC8LHgwbRiszfAfHScK01-bB8tNFbOyNzAlR8CxkILmAExDuIXSMvN6VW2jfqXYEtuGXbkRBZ7G3UbrOA63x313SyHjCr1QNTPIlm9zEiLBzX-KrY1BuHUAQD05RgJh9J3plZiO2nA7FZhjh0FfbYjLrRvbW3Fvcawtb3pr_h5Gbj8Gb-AFFsjkBr9U1FJjjzczsOgSKJLQQgUUsonFrgnjjkx1MqAxTwaBdvHLZdLXFqmb87VXZAjT2g8OVxjKj9vfvHxwrIHePvZa9XQ4zKQPV6zSlJ_PbZ75t-s-etakgp08ASx3kwvE4iIlNcPKdT7UDsPEsVoXEJQQs1jSIJ9srR43BtfEPBXrYus5sfsU-pzdHlspifovsXRzdRx77Vl5VdmlNbkxeGzJ_mN5sdxSrllQ8zUlHQNUdzp_cink5tHo7n3PM3iZ8yrUcbKXtLBiOKbThAF89WXI8-CgfRZlad3e7z1W00]--></g></svg>