<?xml version="1.0" encoding="us-ascii" standalone="no"?><svg xmlns="http://www.w3.org/2000/svg" xmlns:xlink="http://www.w3.org/1999/xlink" contentStyleType="text/css" height="479px" preserveAspectRatio="none" style="width:768px;height:479px;background:#FFFFFF;" version="1.1" viewBox="0 0 768 479" width="768px" zoomAndPan="magnify"><defs/><g><text fill="#000000" font-family="sans-serif" font-size="14" font-weight="bold" lengthAdjust="spacing" textLength="740" x="10" y="29.5332">Big Bank Plc - Internet Banking - Single-Page Application - Change Password - Sequence - Container level</text><rect fill="#FFFFFF" height="422.0859" style="stroke:#181818;stroke-width:0.5;" width="426.5" x="124.5" y="44.6094"/><text fill="#000000" font-family="sans-serif" font-size="13" font-weight="bold" lengthAdjust="spacing" textLength="105" x="285.25" y="58.1045">Internet Banking</text><rect fill="none" height="190.8125" style="stroke:#000000;stroke-width:1.5;" width="588.5" x="118.5" y="192.2734"/><rect fill="none" height="111.7578" style="stroke:#000000;stroke-width:1.5;" width="404.5" x="292.5" y="264.3281"/><line style="stroke:#181818;stroke-width:0.5;stroke-dasharray:5.0,5.0;" x1="81" x2="81" y1="128.5703" y2="400.0859"/><line style="stroke:#181818;stroke-width:0.5;stroke-dasharray:5.0,5.0;" x1="210.5" x2="210.5" y1="128.5703" y2="400.0859"/><line style="stroke:#181818;stroke-width:0.5;stroke-dasharray:5.0,5.0;" x1="356.5" x2="356.5" y1="128.5703" y2="400.0859"/><line style="stroke:#181818;stroke-width:0.5;stroke-dasharray:5.0,5.0;" x1="513" x2="513" y1="128.5703" y2="400.0859"/><line style="stroke:#181818;stroke-width:0.5;stroke-dasharray:5.0,5.0;" x1="635" x2="635" y1="128.5703" y2="400.0859"/><rect fill="#E2E2F0" height="31.6094" rx="2.5" ry="2.5" style="stroke:#181818;stroke-width:0.5;" width="65" x="49" y="95.9609"/><text fill="#000000" font-family="sans-serif" font-size="14" lengthAdjust="spacing" textLength="51" x="56" y="117.4941">External</text><rect fill="#E2E2F0" height="31.6094" rx="2.5" ry="2.5" style="stroke:#181818;stroke-width:0.5;" width="65" x="49" y="399.0859"/><text fill="#000000" font-family="sans-serif" font-size="14" lengthAdjust="spacing" textLength="51" x="56" y="420.6191">External</text><rect fill="#E2E2F0" height="31.6094" rx="2.5" ry="2.5" style="stroke:#181818;stroke-width:0.5;" width="164" x="128.5" y="95.9609"/><text fill="#000000" font-family="sans-serif" font-size="14" lengthAdjust="spacing" textLength="150" x="135.5" y="117.4941">Single-Page Application</text><rect fill="#E2E2F0" height="31.6094" rx="2.5" ry="2.5" style="stroke:#181818;stroke-width:0.5;" width="164" x="128.5" y="399.0859"/><text fill="#000000" font-family="sans-serif" font-size="14" lengthAdjust="spacing" textLength="150" x="135.5" y="420.6191">Single-Page Application</text><rect fill="#E2E2F0" height="31.6094" rx="2.5" ry="2.5" style="stroke:#181818;stroke-width:0.5;" width="108" x="302.5" y="95.9609"/><text fill="#000000" font-family="sans-serif" font-size="14" lengthAdjust="spacing" textLength="94" x="309.5" y="117.4941">API Application</text><rect fill="#E2E2F0" height="31.6094" rx="2.5" ry="2.5" style="stroke:#181818;stroke-width:0.5;" width="108" x="302.5" y="399.0859"/><text fill="#000000" font-family="sans-serif" font-size="14" lengthAdjust="spacing" textLength="94" x="309.5" y="420.6191">API Application</text><text fill="#000000" font-family="sans-serif" font-size="14" lengthAdjust="spacing" textLength="61" x="480" y="125.4941">Database</text><path d="M495.5,74.9609 C495.5,64.9609 513.5,64.9609 513.5,64.9609 C513.5,64.9609 531.5,64.9609 531.5,74.9609 L531.5,100.9609 C531.5,110.9609 513.5,110.9609 513.5,110.9609 C513.5,110.9609 495.5,110.9609 495.5,100.9609 L495.5,74.9609 " fill="#E2E2F0" style="stroke:#181818;stroke-width:1.5;"/><path d="M495.5,74.9609 C495.5,84.9609 513.5,84.9609 513.5,84.9609 C513.5,84.9609 531.5,84.9609 531.5,74.9609 " fill="none" style="stroke:#181818;stroke-width:1.5;"/><text fill="#000000" font-family="sans-serif" font-size="14" lengthAdjust="spacing" textLength="61" x="480" y="413.6191">Database</text><path d="M495.5,426.6953 C495.5,416.6953 513.5,416.6953 513.5,416.6953 C513.5,416.6953 531.5,416.6953 531.5,426.6953 L531.5,452.6953 C531.5,462.6953 513.5,462.6953 513.5,462.6953 C513.5,462.6953 495.5,462.6953 495.5,452.6953 L495.5,426.6953 " fill="#E2E2F0" style="stroke:#181818;stroke-width:1.5;"/><path d="M495.5,426.6953 C495.5,436.6953 513.5,436.6953 513.5,436.6953 C513.5,436.6953 531.5,436.6953 531.5,426.6953 " fill="none" style="stroke:#181818;stroke-width:1.5;"/><rect fill="#E2E2F0" height="31.6094" rx="2.5" ry="2.5" style="stroke:#181818;stroke-width:0.5;" width="103" x="584" y="95.9609"/><text fill="#000000" font-family="sans-serif" font-size="14" lengthAdjust="spacing" textLength="89" x="591" y="117.4941">E-Mail System</text><rect fill="#E2E2F0" height="31.6094" rx="2.5" ry="2.5" style="stroke:#181818;stroke-width:0.5;" width="103" x="584" y="399.0859"/><text fill="#000000" font-family="sans-serif" font-size="14" lengthAdjust="spacing" textLength="89" x="591" y="420.6191">E-Mail System</text><polygon fill="#181818" points="198.5,173.2734,208.5,177.2734,198.5,181.2734,202.5,177.2734" style="stroke:#181818;stroke-width:1.0;"/><line style="stroke:#181818;stroke-width:1.0;" x1="81.5" x2="204.5" y1="177.2734" y2="177.2734"/><text fill="#000000" font-family="sans-serif" font-size="13" lengthAdjust="spacing" textLength="105" x="88.5" y="156.0654">Change Password</text><text fill="#000000" font-family="sans-serif" font-size="13" lengthAdjust="spacing" textLength="49" x="88.5" y="172.417">[HTTPS]</text><path d="M118.5,192.2734 L277.5,192.2734 L277.5,200.625 L267.5,210.625 L118.5,210.625 L118.5,192.2734 " fill="#EEEEEE" style="stroke:#000000;stroke-width:1.5;"/><rect fill="none" height="190.8125" style="stroke:#000000;stroke-width:1.5;" width="588.5" x="118.5" y="192.2734"/><text fill="#000000" font-family="sans-serif" font-size="13" font-weight="bold" lengthAdjust="spacing" textLength="114" x="133.5" y="206.7686">Change Password</text><polygon fill="#181818" points="344.5,245.3281,354.5,249.3281,344.5,253.3281,348.5,249.3281" style="stroke:#181818;stroke-width:1.0;"/><line style="stroke:#181818;stroke-width:1.0;" x1="210.5" x2="350.5" y1="249.3281" y2="249.3281"/><text fill="#000000" font-family="sans-serif" font-size="13" lengthAdjust="spacing" textLength="105" x="217.5" y="228.1201">Change Password</text><text fill="#000000" font-family="sans-serif" font-size="13" lengthAdjust="spacing" textLength="49" x="217.5" y="244.4717">[HTTPS]</text><path d="M292.5,264.3281 L451.5,264.3281 L451.5,272.6797 L441.5,282.6797 L292.5,282.6797 L292.5,264.3281 " fill="#EEEEEE" style="stroke:#000000;stroke-width:1.5;"/><rect fill="none" height="111.7578" style="stroke:#000000;stroke-width:1.5;" width="404.5" x="292.5" y="264.3281"/><text fill="#000000" font-family="sans-serif" font-size="13" font-weight="bold" lengthAdjust="spacing" textLength="114" x="307.5" y="278.8232">Change Password</text><polygon fill="#181818" points="501.5,317.3828,511.5,321.3828,501.5,325.3828,505.5,321.3828" style="stroke:#181818;stroke-width:1.0;"/><line style="stroke:#181818;stroke-width:1.0;" x1="356.5" x2="507.5" y1="321.3828" y2="321.3828"/><text fill="#000000" font-family="sans-serif" font-size="13" lengthAdjust="spacing" textLength="133" x="363.5" y="300.1748">Update User Password</text><text fill="#000000" font-family="sans-serif" font-size="13" lengthAdjust="spacing" textLength="83" x="363.5" y="316.5264">[TCP/IP, SQL]</text><polygon fill="#181818" points="623.5,364.0859,633.5,368.0859,623.5,372.0859,627.5,368.0859" style="stroke:#181818;stroke-width:1.0;"/><line style="stroke:#181818;stroke-width:1.0;" x1="356.5" x2="629.5" y1="368.0859" y2="368.0859"/><text fill="#000000" font-family="sans-serif" font-size="13" lengthAdjust="spacing" textLength="255" x="363.5" y="346.8779">Send Password Changed Notification E-Mail</text><text fill="#000000" font-family="sans-serif" font-size="13" lengthAdjust="spacing" textLength="44" x="363.5" y="363.2295">[SMTP]</text><!--SRC=[lPJ1Jy8m5CRl_IjUvjNDYoSF9e0OISJKTCI3SYZROpJMTgv5yB_tTMC4Hen62KkMRMtt_RxNzsrUUOtGLmNqfNa5hZE8OMGyLWPzFQPCGKE2BXfZBWk4NbbgbKclhA6PmK8Q6kJIkPMjyh0MtvTeCWoJrdYf35QWyGCrOwMilCfKAOs7QBWE7AaZa0u6bpNsLjjL8kpShsI5ujDvV7D9kx1vPcncrn1rNKPmzhHG7XdGiSVvndoDfTB3-rJu0RK5RFIJRJ4kQHI38EaT0djyT2GGAUq8rQHSUZcJ3Y6wsTpzGx-LO6Xoe6tjTYWUIwMX4Ve9CmnhsnRzlfqGNn-Z2t3LZUABURvBKowchAZiiknEisD0_-nzlx6dCj-X_jbz6nloFIafa0WJHn_vZlbqm2z6_1p4u_tq56PtmaUcH8ZpzfVKx5qE3zQhUIlNH9kSYd7Afo7_zSc-0000]--></g></svg>