<?xml version="1.0" encoding="us-ascii" standalone="no"?><svg xmlns="http://www.w3.org/2000/svg" xmlns:xlink="http://www.w3.org/1999/xlink" contentStyleType="text/css" height="351px" preserveAspectRatio="none" style="width:893px;height:351px;background:#FFFFFF;" version="1.1" viewBox="0 0 893 351" width="893px" zoomAndPan="magnify"><defs/><g><text fill="#000000" font-family="sans-serif" font-size="14" font-weight="bold" lengthAdjust="spacing" textLength="865" x="10" y="29.5332">E Commerce Platform - Deliver - Payments - Payment Service - Api - Post Payment Result Event - Sequence - Container level</text><rect fill="#FFFFFF" height="293.9766" style="stroke:#181818;stroke-width:0.5;" width="309.5" x="380.5" y="44.6094"/><text fill="#000000" font-family="sans-serif" font-size="13" font-weight="bold" lengthAdjust="spacing" textLength="108" x="481.25" y="58.1045">Payment Service</text><rect fill="none" height="79.0547" style="stroke:#000000;stroke-width:1.5;" width="321.5" x="374.5" y="175.9219"/><line style="stroke:#181818;stroke-width:0.5;stroke-dasharray:5.0,5.0;" x1="217" x2="217" y1="128.5703" y2="271.9766"/><line style="stroke:#181818;stroke-width:0.5;stroke-dasharray:5.0,5.0;" x1="401.5" x2="401.5" y1="128.5703" y2="271.9766"/><line style="stroke:#181818;stroke-width:0.5;stroke-dasharray:5.0,5.0;" x1="554" x2="554" y1="128.5703" y2="271.9766"/><line style="stroke:#181818;stroke-width:0.5;stroke-dasharray:5.0,5.0;" x1="642" x2="642" y1="128.5703" y2="271.9766"/><rect fill="#E2E2F0" height="31.6094" rx="2.5" ry="2.5" style="stroke:#181818;stroke-width:0.5;" width="65" x="185" y="95.9609"/><text fill="#000000" font-family="sans-serif" font-size="14" lengthAdjust="spacing" textLength="51" x="192" y="117.4941">External</text><rect fill="#E2E2F0" height="31.6094" rx="2.5" ry="2.5" style="stroke:#181818;stroke-width:0.5;" width="65" x="185" y="270.9766"/><text fill="#000000" font-family="sans-serif" font-size="14" lengthAdjust="spacing" textLength="51" x="192" y="292.5098">External</text><rect fill="#E2E2F0" height="31.6094" rx="2.5" ry="2.5" style="stroke:#181818;stroke-width:0.5;" width="34" x="384.5" y="95.9609"/><text fill="#000000" font-family="sans-serif" font-size="14" lengthAdjust="spacing" textLength="20" x="391.5" y="117.4941">Api</text><rect fill="#E2E2F0" height="31.6094" rx="2.5" ry="2.5" style="stroke:#181818;stroke-width:0.5;" width="34" x="384.5" y="270.9766"/><text fill="#000000" font-family="sans-serif" font-size="14" lengthAdjust="spacing" textLength="20" x="391.5" y="292.5098">Api</text><text fill="#000000" font-family="sans-serif" font-size="14" lengthAdjust="spacing" textLength="61" x="521" y="125.4941">Database</text><path d="M536.5,74.9609 C536.5,64.9609 554.5,64.9609 554.5,64.9609 C554.5,64.9609 572.5,64.9609 572.5,74.9609 L572.5,100.9609 C572.5,110.9609 554.5,110.9609 554.5,110.9609 C554.5,110.9609 536.5,110.9609 536.5,100.9609 L536.5,74.9609 " fill="#E2E2F0" style="stroke:#181818;stroke-width:1.5;"/><path d="M536.5,74.9609 C536.5,84.9609 554.5,84.9609 554.5,84.9609 C554.5,84.9609 572.5,84.9609 572.5,74.9609 " fill="none" style="stroke:#181818;stroke-width:1.5;"/><text fill="#000000" font-family="sans-serif" font-size="14" lengthAdjust="spacing" textLength="61" x="521" y="285.5098">Database</text><path d="M536.5,298.5859 C536.5,288.5859 554.5,288.5859 554.5,288.5859 C554.5,288.5859 572.5,288.5859 572.5,298.5859 L572.5,324.5859 C572.5,334.5859 554.5,334.5859 554.5,334.5859 C554.5,334.5859 536.5,334.5859 536.5,324.5859 L536.5,298.5859 " fill="#E2E2F0" style="stroke:#181818;stroke-width:1.5;"/><path d="M536.5,298.5859 C536.5,308.5859 554.5,308.5859 554.5,308.5859 C554.5,308.5859 572.5,308.5859 572.5,298.5859 " fill="none" style="stroke:#181818;stroke-width:1.5;"/><path d="M603,100.9609 L681,100.9609 C686,100.9609 686,114.7656 686,114.7656 C686,114.7656 686,128.5703 681,128.5703 L603,128.5703 C598,128.5703 598,114.7656 598,114.7656 C598,114.7656 598,100.9609 603,100.9609 " fill="#E2E2F0" style="stroke:#181818;stroke-width:0.5;"/><path d="M681,100.9609 C676,100.9609 676,114.7656 676,114.7656 C676,128.5703 681,128.5703 681,128.5703 " fill="none" style="stroke:#181818;stroke-width:0.5;"/><text fill="#000000" font-family="sans-serif" font-size="14" lengthAdjust="spacing" textLength="68" x="603" y="120.4941">Messaging</text><path d="M603,270.9766 L681,270.9766 C686,270.9766 686,284.7813 686,284.7813 C686,284.7813 686,298.5859 681,298.5859 L603,298.5859 C598,298.5859 598,284.7813 598,284.7813 C598,284.7813 598,270.9766 603,270.9766 " fill="#E2E2F0" style="stroke:#181818;stroke-width:0.5;"/><path d="M681,270.9766 C676,270.9766 676,284.7813 676,284.7813 C676,298.5859 681,298.5859 681,298.5859 " fill="none" style="stroke:#181818;stroke-width:0.5;"/><text fill="#000000" font-family="sans-serif" font-size="14" lengthAdjust="spacing" textLength="68" x="603" y="290.5098">Messaging</text><polygon fill="#181818" points="389.5,156.9219,399.5,160.9219,389.5,164.9219,393.5,160.9219" style="stroke:#181818;stroke-width:1.0;"/><line style="stroke:#181818;stroke-width:1.0;" x1="217.5" x2="395.5" y1="160.9219" y2="160.9219"/><text fill="#000000" font-family="sans-serif" font-size="13" lengthAdjust="spacing" textLength="160" x="224.5" y="156.0654">Post Payment Result Event</text><path d="M374.5,175.9219 L588.5,175.9219 L588.5,184.2734 L578.5,194.2734 L374.5,194.2734 L374.5,175.9219 " fill="#EEEEEE" style="stroke:#000000;stroke-width:1.5;"/><rect fill="none" height="79.0547" style="stroke:#000000;stroke-width:1.5;" width="321.5" x="374.5" y="175.9219"/><text fill="#000000" font-family="sans-serif" font-size="13" font-weight="bold" lengthAdjust="spacing" textLength="169" x="389.5" y="190.417">Post Payment Result Event</text><polygon fill="#181818" points="542.5,212.625,552.5,216.625,542.5,220.625,546.5,216.625" style="stroke:#181818;stroke-width:1.0;"/><line style="stroke:#181818;stroke-width:1.0;" x1="401.5" x2="548.5" y1="216.625" y2="216.625"/><text fill="#000000" font-family="sans-serif" font-size="13" lengthAdjust="spacing" textLength="129" x="408.5" y="211.7686">Insert Payment Result</text><polygon fill="#181818" points="630,242.9766,640,246.9766,630,250.9766,634,246.9766" style="stroke:#181818;stroke-width:1.0;"/><line style="stroke:#181818;stroke-width:1.0;" x1="401.5" x2="636" y1="246.9766" y2="246.9766"/><text fill="#000000" font-family="sans-serif" font-size="13" lengthAdjust="spacing" textLength="163" x="408.5" y="242.1201">Send Payment Result Event</text><!--SRC=[pP9DJyCm38Rl_XLMEJSdJXoGK5Ua7IPDzC0vsxmIAKrAudRRlySjJH7ZGnnw82SxjlpwiSs6BM69XMyQ2dl2hTLyzA7175TaJKz1hAs-DEGuVfXOKUYDvEVuq9hXtqUUWqyKEyjOzeEJI-vhHsvCBhnZRPnKjTIJ1MXrOBCthPRCh3mp1QTjXZfYSRjsuZvQVrALF_991wekaQc9AYM- -m0xVyRighKCRvvV31EWl4yoql6eK2Rg1AqcP9M0lmXFWKb2pJXHIT5HwQ1PxtGap5QJjRnMgZmAocmxKTjGZBeshbvURYuDv0ueimQ0lsy7y_l59urtFnySrC5txI_nnPjP6Z2jLoZNBbAuvlZ_1FF5248r7CstYv00m1i0]--></g></svg>