<?xml version="1.0" encoding="us-ascii" standalone="no"?><svg xmlns="http://www.w3.org/2000/svg" xmlns:xlink="http://www.w3.org/1999/xlink" contentStyleType="text/css" height="786px" preserveAspectRatio="none" style="width:1671px;height:786px;background:#FFFFFF;" version="1.1" viewBox="0 0 1671 786" width="1671px" zoomAndPan="magnify"><defs/><g><text fill="#000000" font-family="sans-serif" font-size="14" font-weight="bold" lengthAdjust="spacing" textLength="485" x="586" y="24.5332">E Commerce Platform - Generate Demand - C4 Static - Container level</text><!--cluster ECommercePlatform.CreateProduct.ProductInformationManagement.SoftwareSystems.ProductService--><g id="cluster_ECommercePlatform.CreateProduct.ProductInformationManagement.SoftwareSystems.ProductService"><rect fill="none" height="242.5" rx="2.5" ry="2.5" style="stroke:#444444;stroke-width:1.0;stroke-dasharray:7.0,7.0;" width="216" x="7" y="422.6094"/><text fill="#444444" font-family="sans-serif" font-size="16" font-weight="bold" lengthAdjust="spacing" textLength="122" x="54" y="441.2188">Product Service</text><text fill="#444444" font-family="sans-serif" font-size="12" font-weight="bold" lengthAdjust="spacing" textLength="51" x="89.5" y="457.1914">[System]</text></g><!--cluster ECommercePlatform.GenerateDemand.SearchAndBrowse.SoftwareSystems.SearchService--><g id="cluster_ECommercePlatform.GenerateDemand.SearchAndBrowse.SoftwareSystems.SearchService"><rect fill="none" height="271.5" rx="2.5" ry="2.5" style="stroke:#444444;stroke-width:1.0;stroke-dasharray:7.0,7.0;" width="265" x="247" y="265.6094"/><text fill="#444444" font-family="sans-serif" font-size="16" font-weight="bold" lengthAdjust="spacing" textLength="115" x="322" y="284.2188">Search Service</text><text fill="#444444" font-family="sans-serif" font-size="12" font-weight="bold" lengthAdjust="spacing" textLength="51" x="354" y="300.1914">[System]</text></g><!--cluster ECommercePlatform.GenerateDemand.Basket.SoftwareSystems.BasketService--><g id="cluster_ECommercePlatform.GenerateDemand.Basket.SoftwareSystems.BasketService"><rect fill="none" height="271.5" rx="2.5" ry="2.5" style="stroke:#444444;stroke-width:1.0;stroke-dasharray:7.0,7.0;" width="130" x="696" y="265.6094"/><text fill="#444444" font-family="sans-serif" font-size="16" font-weight="bold" lengthAdjust="spacing" textLength="114" x="704" y="284.2188">Basket Service</text><text fill="#444444" font-family="sans-serif" font-size="12" font-weight="bold" lengthAdjust="spacing" textLength="51" x="735.5" y="300.1914">[System]</text></g><!--cluster ECommercePlatform.GenerateDemand.OrderManagement.SoftwareSystems.OrderService--><g id="cluster_ECommercePlatform.GenerateDemand.OrderManagement.SoftwareSystems.OrderService"><rect fill="none" height="271.5" rx="2.5" ry="2.5" style="stroke:#444444;stroke-width:1.0;stroke-dasharray:7.0,7.0;" width="311" x="850" y="265.6094"/><text fill="#444444" font-family="sans-serif" font-size="16" font-weight="bold" lengthAdjust="spacing" textLength="104" x="953.5" y="284.2188">Order Service</text><text fill="#444444" font-family="sans-serif" font-size="12" font-weight="bold" lengthAdjust="spacing" textLength="51" x="980" y="300.1914">[System]</text></g><!--cluster ECommercePlatform.Deliver.FraudManagement.SoftwareSystems.FraudService--><g id="cluster_ECommercePlatform.Deliver.FraudManagement.SoftwareSystems.FraudService"><rect fill="none" height="100" rx="2.5" ry="2.5" style="stroke:#444444;stroke-width:1.0;stroke-dasharray:7.0,7.0;" width="136" x="1185" y="427.6094"/><text fill="#444444" font-family="sans-serif" font-size="16" font-weight="bold" lengthAdjust="spacing" textLength="106" x="1200" y="446.2188">Fraud Service</text><text fill="#444444" font-family="sans-serif" font-size="12" font-weight="bold" lengthAdjust="spacing" textLength="51" x="1227.5" y="462.1914">[System]</text></g><!--cluster ECommercePlatform.Deliver.Payments.SoftwareSystems.PaymentService--><g id="cluster_ECommercePlatform.Deliver.Payments.SoftwareSystems.PaymentService"><rect fill="none" height="100" rx="2.5" ry="2.5" style="stroke:#444444;stroke-width:1.0;stroke-dasharray:7.0,7.0;" width="144" x="1345" y="427.6094"/><text fill="#444444" font-family="sans-serif" font-size="16" font-weight="bold" lengthAdjust="spacing" textLength="128" x="1353" y="446.2188">Payment Service</text><text fill="#444444" font-family="sans-serif" font-size="12" font-weight="bold" lengthAdjust="spacing" textLength="51" x="1391.5" y="462.1914">[System]</text></g><!--cluster ECommercePlatform.Deliver.Fulfilment.SoftwareSystems.FulfilmentService--><g id="cluster_ECommercePlatform.Deliver.Fulfilment.SoftwareSystems.FulfilmentService"><rect fill="none" height="100" rx="2.5" ry="2.5" style="stroke:#444444;stroke-width:1.0;stroke-dasharray:7.0,7.0;" width="152" x="1513" y="427.6094"/><text fill="#444444" font-family="sans-serif" font-size="16" font-weight="bold" lengthAdjust="spacing" textLength="136" x="1521" y="446.2188">Fulfilment Service</text><text fill="#444444" font-family="sans-serif" font-size="12" font-weight="bold" lengthAdjust="spacing" textLength="51" x="1563.5" y="462.1914">[System]</text></g><!--cluster ECommercePlatform.CreateProduct.PriceManagement.SoftwareSystems.PricingService--><g id="cluster_ECommercePlatform.CreateProduct.PriceManagement.SoftwareSystems.PricingService"><rect fill="none" height="100" rx="2.5" ry="2.5" style="stroke:#444444;stroke-width:1.0;stroke-dasharray:7.0,7.0;" width="136" x="536" y="427.6094"/><text fill="#444444" font-family="sans-serif" font-size="16" font-weight="bold" lengthAdjust="spacing" textLength="115" x="546.5" y="446.2188">Pricing Service</text><text fill="#444444" font-family="sans-serif" font-size="12" font-weight="bold" lengthAdjust="spacing" textLength="51" x="578.5" y="462.1914">[System]</text></g><!--entity ECommercePlatform.CreateProduct.ProductInformationManagement.SoftwareSystems.ProductService.Containers.Api--><g id="elem_ECommercePlatform.CreateProduct.ProductInformationManagement.SoftwareSystems.ProductService.Containers.Api"><rect fill="#438DD5" height="40.125" rx="2.5" ry="2.5" style="stroke:#3C7FC0;stroke-width:0.5;" width="45" x="23.5" y="476.6094"/><text fill="#FFFFFF" font-family="sans-serif" font-size="16" font-weight="bold" lengthAdjust="spacing" textLength="25" x="33.5" y="503.2188">Api</text></g><!--entity ECommercePlatform.CreateProduct.ProductInformationManagement.SoftwareSystems.ProductService.Containers.Database--><g id="elem_ECommercePlatform.CreateProduct.ProductInformationManagement.SoftwareSystems.ProductService.Containers.Database"><path d="M23,610.1094 C23,600.1094 69,600.1094 69,600.1094 C69,600.1094 115,600.1094 115,610.1094 L115,639.2344 C115,649.2344 69,649.2344 69,649.2344 C69,649.2344 23,649.2344 23,639.2344 L23,610.1094 " fill="#438DD5" style="stroke:#3C7FC0;stroke-width:0.5;"/><path d="M23,610.1094 C23,620.1094 69,620.1094 69,620.1094 C69,620.1094 115,620.1094 115,610.1094 " fill="none" style="stroke:#3C7FC0;stroke-width:0.5;"/><text fill="#FFFFFF" font-family="sans-serif" font-size="16" font-weight="bold" lengthAdjust="spacing" textLength="72" x="33" y="640.7188">Database</text></g><!--entity ECommercePlatform.CreateProduct.ProductInformationManagement.SoftwareSystems.ProductService.Containers.Messaging--><g id="elem_ECommercePlatform.CreateProduct.ProductInformationManagement.SoftwareSystems.ProductService.Containers.Messaging"><path d="M108.5,481.6094 L201.5,481.6094 C206.5,481.6094 206.5,496.6719 206.5,496.6719 C206.5,496.6719 206.5,511.7344 201.5,511.7344 L108.5,511.7344 C103.5,511.7344 103.5,496.6719 103.5,496.6719 C103.5,496.6719 103.5,481.6094 108.5,481.6094 " fill="#438DD5" style="stroke:#3C7FC0;stroke-width:0.5;"/><path d="M201.5,481.6094 C196.5,481.6094 196.5,496.6719 196.5,496.6719 C196.5,511.7344 201.5,511.7344 201.5,511.7344 " fill="none" style="stroke:#3C7FC0;stroke-width:0.5;"/><text fill="#FFFFFF" font-family="sans-serif" font-size="16" font-weight="bold" lengthAdjust="spacing" textLength="83" x="108.5" y="503.2188">Messaging</text></g><!--entity ECommercePlatform.GenerateDemand.SearchAndBrowse.SoftwareSystems.SearchService.Containers.Api--><g id="elem_ECommercePlatform.GenerateDemand.SearchAndBrowse.SoftwareSystems.SearchService.Containers.Api"><rect fill="#438DD5" height="40.125" rx="2.5" ry="2.5" style="stroke:#3C7FC0;stroke-width:0.5;" width="45" x="450.5" y="319.6094"/><text fill="#FFFFFF" font-family="sans-serif" font-size="16" font-weight="bold" lengthAdjust="spacing" textLength="25" x="460.5" y="346.2188">Api</text></g><!--entity ECommercePlatform.GenerateDemand.SearchAndBrowse.SoftwareSystems.SearchService.Containers.Database--><g id="elem_ECommercePlatform.GenerateDemand.SearchAndBrowse.SoftwareSystems.SearchService.Containers.Database"><path d="M342,482.1094 C342,472.1094 388,472.1094 388,472.1094 C388,472.1094 434,472.1094 434,482.1094 L434,511.2344 C434,521.2344 388,521.2344 388,521.2344 C388,521.2344 342,521.2344 342,511.2344 L342,482.1094 " fill="#438DD5" style="stroke:#3C7FC0;stroke-width:0.5;"/><path d="M342,482.1094 C342,492.1094 388,492.1094 388,492.1094 C388,492.1094 434,492.1094 434,482.1094 " fill="none" style="stroke:#3C7FC0;stroke-width:0.5;"/><text fill="#FFFFFF" font-family="sans-serif" font-size="16" font-weight="bold" lengthAdjust="spacing" textLength="72" x="352" y="512.7188">Database</text></g><!--entity ECommercePlatform.GenerateDemand.SearchAndBrowse.SoftwareSystems.SearchService.Containers.MessageHandler--><g id="elem_ECommercePlatform.GenerateDemand.SearchAndBrowse.SoftwareSystems.SearchService.Containers.MessageHandler"><rect fill="#438DD5" height="40.125" rx="2.5" ry="2.5" style="stroke:#3C7FC0;stroke-width:0.5;" width="152" x="263" y="319.6094"/><text fill="#FFFFFF" font-family="sans-serif" font-size="16" font-weight="bold" lengthAdjust="spacing" textLength="68" x="273" y="346.2188">Message</text><text fill="#FFFFFF" font-family="sans-serif" font-size="16" font-weight="bold" lengthAdjust="spacing" textLength="4" x="341" y="346.2188">&#160;</text><text fill="#FFFFFF" font-family="sans-serif" font-size="16" font-weight="bold" lengthAdjust="spacing" textLength="60" x="345" y="346.2188">Handler</text></g><!--entity ECommercePlatform.GenerateDemand.Basket.SoftwareSystems.BasketService.Containers.Api--><g id="elem_ECommercePlatform.GenerateDemand.Basket.SoftwareSystems.BasketService.Containers.Api"><rect fill="#438DD5" height="40.125" rx="2.5" ry="2.5" style="stroke:#3C7FC0;stroke-width:0.5;" width="45" x="718.5" y="319.6094"/><text fill="#FFFFFF" font-family="sans-serif" font-size="16" font-weight="bold" lengthAdjust="spacing" textLength="25" x="728.5" y="346.2188">Api</text></g><!--entity ECommercePlatform.GenerateDemand.Basket.SoftwareSystems.BasketService.Containers.Database--><g id="elem_ECommercePlatform.GenerateDemand.Basket.SoftwareSystems.BasketService.Containers.Database"><path d="M712,482.1094 C712,472.1094 758,472.1094 758,472.1094 C758,472.1094 804,472.1094 804,482.1094 L804,511.2344 C804,521.2344 758,521.2344 758,521.2344 C758,521.2344 712,521.2344 712,511.2344 L712,482.1094 " fill="#438DD5" style="stroke:#3C7FC0;stroke-width:0.5;"/><path d="M712,482.1094 C712,492.1094 758,492.1094 758,492.1094 C758,492.1094 804,492.1094 804,482.1094 " fill="none" style="stroke:#3C7FC0;stroke-width:0.5;"/><text fill="#FFFFFF" font-family="sans-serif" font-size="16" font-weight="bold" lengthAdjust="spacing" textLength="72" x="722" y="512.7188">Database</text></g><!--entity ECommercePlatform.GenerateDemand.OrderManagement.SoftwareSystems.OrderService.Containers.Api--><g id="elem_ECommercePlatform.GenerateDemand.OrderManagement.SoftwareSystems.OrderService.Containers.Api"><rect fill="#438DD5" height="40.125" rx="2.5" ry="2.5" style="stroke:#3C7FC0;stroke-width:0.5;" width="45" x="878.5" y="319.6094"/><text fill="#FFFFFF" font-family="sans-serif" font-size="16" font-weight="bold" lengthAdjust="spacing" textLength="25" x="888.5" y="346.2188">Api</text></g><!--entity ECommercePlatform.GenerateDemand.OrderManagement.SoftwareSystems.OrderService.Containers.Database--><g id="elem_ECommercePlatform.GenerateDemand.OrderManagement.SoftwareSystems.OrderService.Containers.Database"><path d="M890,482.1094 C890,472.1094 936,472.1094 936,472.1094 C936,472.1094 982,472.1094 982,482.1094 L982,511.2344 C982,521.2344 936,521.2344 936,521.2344 C936,521.2344 890,521.2344 890,511.2344 L890,482.1094 " fill="#438DD5" style="stroke:#3C7FC0;stroke-width:0.5;"/><path d="M890,482.1094 C890,492.1094 936,492.1094 936,492.1094 C936,492.1094 982,492.1094 982,482.1094 " fill="none" style="stroke:#3C7FC0;stroke-width:0.5;"/><text fill="#FFFFFF" font-family="sans-serif" font-size="16" font-weight="bold" lengthAdjust="spacing" textLength="72" x="900" y="512.7188">Database</text></g><!--entity ECommercePlatform.GenerateDemand.OrderManagement.SoftwareSystems.OrderService.Containers.Messaging--><g id="elem_ECommercePlatform.GenerateDemand.OrderManagement.SoftwareSystems.OrderService.Containers.Messaging"><path d="M1034.5,481.6094 L1127.5,481.6094 C1132.5,481.6094 1132.5,496.6719 1132.5,496.6719 C1132.5,496.6719 1132.5,511.7344 1127.5,511.7344 L1034.5,511.7344 C1029.5,511.7344 1029.5,496.6719 1029.5,496.6719 C1029.5,496.6719 1029.5,481.6094 1034.5,481.6094 " fill="#438DD5" style="stroke:#3C7FC0;stroke-width:0.5;"/><path d="M1127.5,481.6094 C1122.5,481.6094 1122.5,496.6719 1122.5,496.6719 C1122.5,511.7344 1127.5,511.7344 1127.5,511.7344 " fill="none" style="stroke:#3C7FC0;stroke-width:0.5;"/><text fill="#FFFFFF" font-family="sans-serif" font-size="16" font-weight="bold" lengthAdjust="spacing" textLength="83" x="1034.5" y="503.2188">Messaging</text></g><!--entity ECommercePlatform.GenerateDemand.OrderManagement.SoftwareSystems.OrderService.Containers.MessageHandler--><g id="elem_ECommercePlatform.GenerateDemand.OrderManagement.SoftwareSystems.OrderService.Containers.MessageHandler"><rect fill="#438DD5" height="40.125" rx="2.5" ry="2.5" style="stroke:#3C7FC0;stroke-width:0.5;" width="152" x="993" y="319.6094"/><text fill="#FFFFFF" font-family="sans-serif" font-size="16" font-weight="bold" lengthAdjust="spacing" textLength="68" x="1003" y="346.2188">Message</text><text fill="#FFFFFF" font-family="sans-serif" font-size="16" font-weight="bold" lengthAdjust="spacing" textLength="4" x="1071" y="346.2188">&#160;</text><text fill="#FFFFFF" font-family="sans-serif" font-size="16" font-weight="bold" lengthAdjust="spacing" textLength="60" x="1075" y="346.2188">Handler</text></g><!--entity ECommercePlatform.Deliver.FraudManagement.SoftwareSystems.FraudService.Containers.Messaging--><g id="elem_ECommercePlatform.Deliver.FraudManagement.SoftwareSystems.FraudService.Containers.Messaging"><path d="M1206.5,481.6094 L1299.5,481.6094 C1304.5,481.6094 1304.5,496.6719 1304.5,496.6719 C1304.5,496.6719 1304.5,511.7344 1299.5,511.7344 L1206.5,511.7344 C1201.5,511.7344 1201.5,496.6719 1201.5,496.6719 C1201.5,496.6719 1201.5,481.6094 1206.5,481.6094 " fill="#438DD5" style="stroke:#3C7FC0;stroke-width:0.5;"/><path d="M1299.5,481.6094 C1294.5,481.6094 1294.5,496.6719 1294.5,496.6719 C1294.5,511.7344 1299.5,511.7344 1299.5,511.7344 " fill="none" style="stroke:#3C7FC0;stroke-width:0.5;"/><text fill="#FFFFFF" font-family="sans-serif" font-size="16" font-weight="bold" lengthAdjust="spacing" textLength="83" x="1206.5" y="503.2188">Messaging</text></g><!--entity ECommercePlatform.Deliver.Payments.SoftwareSystems.PaymentService.Containers.Messaging--><g id="elem_ECommercePlatform.Deliver.Payments.SoftwareSystems.PaymentService.Containers.Messaging"><path d="M1366.5,481.6094 L1459.5,481.6094 C1464.5,481.6094 1464.5,496.6719 1464.5,496.6719 C1464.5,496.6719 1464.5,511.7344 1459.5,511.7344 L1366.5,511.7344 C1361.5,511.7344 1361.5,496.6719 1361.5,496.6719 C1361.5,496.6719 1361.5,481.6094 1366.5,481.6094 " fill="#438DD5" style="stroke:#3C7FC0;stroke-width:0.5;"/><path d="M1459.5,481.6094 C1454.5,481.6094 1454.5,496.6719 1454.5,496.6719 C1454.5,511.7344 1459.5,511.7344 1459.5,511.7344 " fill="none" style="stroke:#3C7FC0;stroke-width:0.5;"/><text fill="#FFFFFF" font-family="sans-serif" font-size="16" font-weight="bold" lengthAdjust="spacing" textLength="83" x="1366.5" y="503.2188">Messaging</text></g><!--entity ECommercePlatform.Deliver.Fulfilment.SoftwareSystems.FulfilmentService.Containers.Messaging--><g id="elem_ECommercePlatform.Deliver.Fulfilment.SoftwareSystems.FulfilmentService.Containers.Messaging"><path d="M1534.5,481.6094 L1627.5,481.6094 C1632.5,481.6094 1632.5,496.6719 1632.5,496.6719 C1632.5,496.6719 1632.5,511.7344 1627.5,511.7344 L1534.5,511.7344 C1529.5,511.7344 1529.5,496.6719 1529.5,496.6719 C1529.5,496.6719 1529.5,481.6094 1534.5,481.6094 " fill="#438DD5" style="stroke:#3C7FC0;stroke-width:0.5;"/><path d="M1627.5,481.6094 C1622.5,481.6094 1622.5,496.6719 1622.5,496.6719 C1622.5,511.7344 1627.5,511.7344 1627.5,511.7344 " fill="none" style="stroke:#3C7FC0;stroke-width:0.5;"/><text fill="#FFFFFF" font-family="sans-serif" font-size="16" font-weight="bold" lengthAdjust="spacing" textLength="83" x="1534.5" y="503.2188">Messaging</text></g><!--entity ECommercePlatform.CreateProduct.PriceManagement.SoftwareSystems.PricingService.Containers.Messaging--><g id="elem_ECommercePlatform.CreateProduct.PriceManagement.SoftwareSystems.PricingService.Containers.Messaging"><path d="M557.5,481.6094 L650.5,481.6094 C655.5,481.6094 655.5,496.6719 655.5,496.6719 C655.5,496.6719 655.5,511.7344 650.5,511.7344 L557.5,511.7344 C552.5,511.7344 552.5,496.6719 552.5,496.6719 C552.5,496.6719 552.5,481.6094 557.5,481.6094 " fill="#438DD5" style="stroke:#3C7FC0;stroke-width:0.5;"/><path d="M650.5,481.6094 C645.5,481.6094 645.5,496.6719 645.5,496.6719 C645.5,511.7344 650.5,511.7344 650.5,511.7344 " fill="none" style="stroke:#3C7FC0;stroke-width:0.5;"/><text fill="#FFFFFF" font-family="sans-serif" font-size="16" font-weight="bold" lengthAdjust="spacing" textLength="83" x="557.5" y="503.2188">Messaging</text></g><!--entity ECommercePlatform.GenerateDemand.Storefront.SoftwareSystems.StorefrontApp--><g id="elem_ECommercePlatform.GenerateDemand.Storefront.SoftwareSystems.StorefrontApp"><rect fill="#1168BD" height="40.125" rx="2.5" ry="2.5" style="stroke:#3C7FC0;stroke-width:0.5;" width="132" x="489" y="45.6094"/><text fill="#FFFFFF" font-family="sans-serif" font-size="16" font-weight="bold" lengthAdjust="spacing" textLength="77" x="499" y="72.2188">Storefront</text><text fill="#FFFFFF" font-family="sans-serif" font-size="16" font-weight="bold" lengthAdjust="spacing" textLength="4" x="576" y="72.2188">&#160;</text><text fill="#FFFFFF" font-family="sans-serif" font-size="16" font-weight="bold" lengthAdjust="spacing" textLength="31" x="580" y="72.2188">App</text></g><!--entity ECommercePlatform.GenerateDemand.Storefront.SoftwareSystems.StorefrontBff--><g id="elem_ECommercePlatform.GenerateDemand.Storefront.SoftwareSystems.StorefrontBff"><rect fill="#1168BD" height="40.125" rx="2.5" ry="2.5" style="stroke:#3C7FC0;stroke-width:0.5;" width="123" x="493.5" y="162.6094"/><text fill="#FFFFFF" font-family="sans-serif" font-size="16" font-weight="bold" lengthAdjust="spacing" textLength="77" x="503.5" y="189.2188">Storefront</text><text fill="#FFFFFF" font-family="sans-serif" font-size="16" font-weight="bold" lengthAdjust="spacing" textLength="4" x="580.5" y="189.2188">&#160;</text><text fill="#FFFFFF" font-family="sans-serif" font-size="16" font-weight="bold" lengthAdjust="spacing" textLength="22" x="584.5" y="189.2188">Bff</text></g><!--link ECommercePlatform.GenerateDemand.Storefront.SoftwareSystems.StorefrontApp to ECommercePlatform.GenerateDemand.Storefront.SoftwareSystems.StorefrontBff--><g id="link_ECommercePlatform.GenerateDemand.Storefront.SoftwareSystems.StorefrontApp_ECommercePlatform.GenerateDemand.Storefront.SoftwareSystems.StorefrontBff"><path d="M555,85.8594 C555,107.0894 555,133.0494 555,154.2994 " fill="none" id="ECommercePlatform.GenerateDemand.Storefront.SoftwareSystems.StorefrontApp-to-ECommercePlatform.GenerateDemand.Storefront.SoftwareSystems.StorefrontBff" style="stroke:#666666;stroke-width:1.0;"/><polygon fill="#666666" points="555,162.2994,558,154.2994,552,154.2994,555,162.2994" style="stroke:#666666;stroke-width:1.0;"/><text fill="#666666" font-family="sans-serif" font-size="12" font-weight="bold" lengthAdjust="spacing" textLength="29" x="556" y="129.0664">Uses</text></g><!--link ECommercePlatform.GenerateDemand.Storefront.SoftwareSystems.StorefrontBff to ECommercePlatform.CreateProduct.ProductInformationManagement.SoftwareSystems.ProductService.Containers.Api--><g id="link_ECommercePlatform.GenerateDemand.Storefront.SoftwareSystems.StorefrontBff_ECommercePlatform.CreateProduct.ProductInformationManagement.SoftwareSystems.ProductService.Containers.Api"><path d="M493.22,197.0994 C395.44,218.4394 216,257.6094 216,257.6094 C216,257.6094 86,414.6094 86,414.6094 C86,414.6094 70.8529,445.2867 59.0229,469.2367 " fill="none" id="ECommercePlatform.GenerateDemand.Storefront.SoftwareSystems.StorefrontBff-to-ECommercePlatform.CreateProduct.ProductInformationManagement.SoftwareSystems.ProductService.Containers.Api" style="stroke:#666666;stroke-width:1.0;"/><polygon fill="#666666" points="55.48,476.4094,61.7127,470.5653,56.3332,467.9081,55.48,476.4094" style="stroke:#666666;stroke-width:1.0;"/><text fill="#666666" font-family="sans-serif" font-size="12" font-weight="bold" lengthAdjust="spacing" textLength="29" x="217" y="344.5664">Uses</text></g><!--link ECommercePlatform.CreateProduct.ProductInformationManagement.SoftwareSystems.ProductService.Containers.Api to ECommercePlatform.CreateProduct.ProductInformationManagement.SoftwareSystems.ProductService.Containers.Database--><g id="link_ECommercePlatform.CreateProduct.ProductInformationManagement.SoftwareSystems.ProductService.Containers.Api_ECommercePlatform.CreateProduct.ProductInformationManagement.SoftwareSystems.ProductService.Containers.Database"><path d="M49.49,516.7494 C53.56,539.0494 58.8514,568.0498 63.2514,592.1198 " fill="none" id="ECommercePlatform.CreateProduct.ProductInformationManagement.SoftwareSystems.ProductService.Containers.Api-to-ECommercePlatform.CreateProduct.ProductInformationManagement.SoftwareSystems.ProductService.Containers.Database" style="stroke:#666666;stroke-width:1.0;"/><polygon fill="#666666" points="64.69,599.9894,66.2025,591.5803,60.3003,592.6592,64.69,599.9894" style="stroke:#666666;stroke-width:1.0;"/><text fill="#666666" font-family="sans-serif" font-size="12" font-weight="bold" lengthAdjust="spacing" textLength="29" x="60" y="566.5664">Uses</text></g><!--link ECommercePlatform.GenerateDemand.Storefront.SoftwareSystems.StorefrontBff to ECommercePlatform.GenerateDemand.SearchAndBrowse.SoftwareSystems.SearchService.Containers.Api--><g id="link_ECommercePlatform.GenerateDemand.Storefront.SoftwareSystems.StorefrontBff_ECommercePlatform.GenerateDemand.SearchAndBrowse.SoftwareSystems.SearchService.Containers.Api"><path d="M544.95,202.6194 C529.21,232.3594 502.6707,282.5278 486.8807,312.3778 " fill="none" id="ECommercePlatform.GenerateDemand.Storefront.SoftwareSystems.StorefrontBff-to-ECommercePlatform.GenerateDemand.SearchAndBrowse.SoftwareSystems.SearchService.Containers.Api" style="stroke:#666666;stroke-width:1.0;"/><polygon fill="#666666" points="483.14,319.4494,489.5325,313.7806,484.2289,310.975,483.14,319.4494" style="stroke:#666666;stroke-width:1.0;"/><text fill="#666666" font-family="sans-serif" font-size="12" font-weight="bold" lengthAdjust="spacing" textLength="29" x="530" y="246.0664">Uses</text></g><!--link ECommercePlatform.GenerateDemand.SearchAndBrowse.SoftwareSystems.SearchService.Containers.Api to ECommercePlatform.GenerateDemand.SearchAndBrowse.SoftwareSystems.SearchService.Containers.Database--><g id="link_ECommercePlatform.GenerateDemand.SearchAndBrowse.SoftwareSystems.SearchService.Containers.Api_ECommercePlatform.GenerateDemand.SearchAndBrowse.SoftwareSystems.SearchService.Containers.Database"><path d="M462.58,359.6194 C447.06,387.9094 421.7574,434.0553 404.8574,464.8653 " fill="none" id="ECommercePlatform.GenerateDemand.SearchAndBrowse.SoftwareSystems.SearchService.Containers.Api-to-ECommercePlatform.GenerateDemand.SearchAndBrowse.SoftwareSystems.SearchService.Containers.Database" style="stroke:#666666;stroke-width:1.0;"/><polygon fill="#666666" points="401.01,471.8794,407.4877,466.3081,402.2271,463.4225,401.01,471.8794" style="stroke:#666666;stroke-width:1.0;"/><text fill="#666666" font-family="sans-serif" font-size="12" font-weight="bold" lengthAdjust="spacing" textLength="29" x="447" y="403.0664">Uses</text></g><!--link ECommercePlatform.GenerateDemand.Storefront.SoftwareSystems.StorefrontBff to ECommercePlatform.GenerateDemand.Basket.SoftwareSystems.BasketService.Containers.Api--><g id="link_ECommercePlatform.GenerateDemand.Storefront.SoftwareSystems.StorefrontBff_ECommercePlatform.GenerateDemand.Basket.SoftwareSystems.BasketService.Containers.Api"><path d="M577.81,202.6194 C613.6,232.4494 676.4238,284.7984 712.1538,314.5684 " fill="none" id="ECommercePlatform.GenerateDemand.Storefront.SoftwareSystems.StorefrontBff-to-ECommercePlatform.GenerateDemand.Basket.SoftwareSystems.BasketService.Containers.Api" style="stroke:#666666;stroke-width:1.0;"/><polygon fill="#666666" points="718.3,319.6894,714.0742,312.2636,710.2334,316.8732,718.3,319.6894" style="stroke:#666666;stroke-width:1.0;"/><text fill="#666666" font-family="sans-serif" font-size="12" font-weight="bold" lengthAdjust="spacing" textLength="29" x="633" y="246.0664">Uses</text></g><!--link ECommercePlatform.GenerateDemand.Basket.SoftwareSystems.BasketService.Containers.Api to ECommercePlatform.GenerateDemand.Basket.SoftwareSystems.BasketService.Containers.Database--><g id="link_ECommercePlatform.GenerateDemand.Basket.SoftwareSystems.BasketService.Containers.Api_ECommercePlatform.GenerateDemand.Basket.SoftwareSystems.BasketService.Containers.Database"><path d="M743.08,359.6194 C746.19,387.9094 751.1476,433.1171 754.5276,463.9271 " fill="none" id="ECommercePlatform.GenerateDemand.Basket.SoftwareSystems.BasketService.Containers.Api-to-ECommercePlatform.GenerateDemand.Basket.SoftwareSystems.BasketService.Containers.Database" style="stroke:#666666;stroke-width:1.0;"/><polygon fill="#666666" points="755.4,471.8794,757.5097,463.5999,751.5455,464.2542,755.4,471.8794" style="stroke:#666666;stroke-width:1.0;"/><text fill="#666666" font-family="sans-serif" font-size="12" font-weight="bold" lengthAdjust="spacing" textLength="29" x="749" y="403.0664">Uses</text></g><!--link ECommercePlatform.GenerateDemand.Storefront.SoftwareSystems.StorefrontBff to ECommercePlatform.GenerateDemand.OrderManagement.SoftwareSystems.OrderService.Containers.Api--><g id="link_ECommercePlatform.GenerateDemand.Storefront.SoftwareSystems.StorefrontBff_ECommercePlatform.GenerateDemand.OrderManagement.SoftwareSystems.OrderService.Containers.Api"><path d="M616.8,200.8694 C695.1,222.7294 820,257.6094 820,257.6094 C820,257.6094 852.1931,289.8025 876.1431,313.7525 " fill="none" id="ECommercePlatform.GenerateDemand.Storefront.SoftwareSystems.StorefrontBff-to-ECommercePlatform.GenerateDemand.OrderManagement.SoftwareSystems.OrderService.Containers.Api" style="stroke:#666666;stroke-width:1.0;"/><polygon fill="#666666" points="881.8,319.4094,878.2645,311.6312,874.0218,315.8738,881.8,319.4094" style="stroke:#666666;stroke-width:1.0;"/><text fill="#666666" font-family="sans-serif" font-size="12" font-weight="bold" lengthAdjust="spacing" textLength="29" x="789" y="246.0664">Uses</text></g><!--link ECommercePlatform.GenerateDemand.OrderManagement.SoftwareSystems.OrderService.Containers.Api to ECommercePlatform.GenerateDemand.OrderManagement.SoftwareSystems.OrderService.Containers.Database--><g id="link_ECommercePlatform.GenerateDemand.OrderManagement.SoftwareSystems.OrderService.Containers.Api_ECommercePlatform.GenerateDemand.OrderManagement.SoftwareSystems.OrderService.Containers.Database"><path d="M899.83,359.6894 C898.99,373.4494 898,389.6094 898,389.6094 C898,389.6094 898,406.6094 898,406.6094 C898,406.6094 911.4174,438.0425 922.6774,464.4025 " fill="none" id="ECommercePlatform.GenerateDemand.OrderManagement.SoftwareSystems.OrderService.Containers.Api-to-ECommercePlatform.GenerateDemand.OrderManagement.SoftwareSystems.OrderService.Containers.Database" style="stroke:#666666;stroke-width:1.0;"/><polygon fill="#666666" points="925.82,471.7594,925.4362,463.224,919.9186,465.5809,925.82,471.7594" style="stroke:#666666;stroke-width:1.0;"/><text fill="#666666" font-family="sans-serif" font-size="12" font-weight="bold" lengthAdjust="spacing" textLength="29" x="899" y="403.0664">Uses</text></g><!--link ECommercePlatform.GenerateDemand.OrderManagement.SoftwareSystems.OrderService.Containers.Api to ECommercePlatform.GenerateDemand.OrderManagement.SoftwareSystems.OrderService.Containers.Messaging--><g id="link_ECommercePlatform.GenerateDemand.OrderManagement.SoftwareSystems.OrderService.Containers.Api_ECommercePlatform.GenerateDemand.OrderManagement.SoftwareSystems.OrderService.Containers.Messaging"><path d="M922.69,359.6994 C944.84,379.1894 976,406.6094 976,406.6094 C976,406.6094 999,414.6094 999,414.6094 C999,414.6094 1037.5281,452.6677 1061.0281,475.8777 " fill="none" id="ECommercePlatform.GenerateDemand.OrderManagement.SoftwareSystems.OrderService.Containers.Api-to-ECommercePlatform.GenerateDemand.OrderManagement.SoftwareSystems.OrderService.Containers.Messaging" style="stroke:#666666;stroke-width:1.0;"/><polygon fill="#666666" points="1066.72,481.4994,1063.1362,473.7433,1058.92,478.0122,1066.72,481.4994" style="stroke:#666666;stroke-width:1.0;"/><text fill="#666666" font-family="sans-serif" font-size="12" font-weight="bold" lengthAdjust="spacing" textLength="29" x="977" y="403.0664">Uses</text></g><!--link ECommercePlatform.GenerateDemand.OrderManagement.SoftwareSystems.OrderService.Containers.MessageHandler to ECommercePlatform.Deliver.FraudManagement.SoftwareSystems.FraudService.Containers.Messaging--><g id="link_ECommercePlatform.GenerateDemand.OrderManagement.SoftwareSystems.OrderService.Containers.MessageHandler_ECommercePlatform.Deliver.FraudManagement.SoftwareSystems.FraudService.Containers.Messaging"><path d="M1092.69,359.6694 C1119.95,381.5894 1161,414.6094 1161,414.6094 C1161,414.6094 1204.6168,453.0015 1230.9668,476.2115 " fill="none" id="ECommercePlatform.GenerateDemand.OrderManagement.SoftwareSystems.OrderService.Containers.MessageHandler-to-ECommercePlatform.Deliver.FraudManagement.SoftwareSystems.FraudService.Containers.Messaging" style="stroke:#666666;stroke-width:1.0;"/><polygon fill="#666666" points="1236.97,481.4994,1232.9497,473.9603,1228.9838,478.4627,1236.97,481.4994" style="stroke:#666666;stroke-width:1.0;"/><text fill="#666666" font-family="sans-serif" font-size="12" font-weight="bold" lengthAdjust="spacing" textLength="29" x="1151" y="403.0664">Uses</text></g><!--link ECommercePlatform.GenerateDemand.OrderManagement.SoftwareSystems.OrderService.Containers.MessageHandler to ECommercePlatform.GenerateDemand.OrderManagement.SoftwareSystems.OrderService.Containers.Database--><g id="link_ECommercePlatform.GenerateDemand.OrderManagement.SoftwareSystems.OrderService.Containers.MessageHandler_ECommercePlatform.GenerateDemand.OrderManagement.SoftwareSystems.OrderService.Containers.Database"><path d="M1052.69,359.6194 C1028.41,387.9094 988.0099,434.9984 961.5699,465.8084 " fill="none" id="ECommercePlatform.GenerateDemand.OrderManagement.SoftwareSystems.OrderService.Containers.MessageHandler-to-ECommercePlatform.GenerateDemand.OrderManagement.SoftwareSystems.OrderService.Containers.Database" style="stroke:#666666;stroke-width:1.0;"/><polygon fill="#666666" points="956.36,471.8794,963.8465,467.7621,959.2933,463.8547,956.36,471.8794" style="stroke:#666666;stroke-width:1.0;"/><text fill="#666666" font-family="sans-serif" font-size="12" font-weight="bold" lengthAdjust="spacing" textLength="29" x="1027" y="403.0664">Uses</text></g><!--link ECommercePlatform.GenerateDemand.OrderManagement.SoftwareSystems.OrderService.Containers.MessageHandler to ECommercePlatform.GenerateDemand.OrderManagement.SoftwareSystems.OrderService.Containers.Messaging--><g id="link_ECommercePlatform.GenerateDemand.OrderManagement.SoftwareSystems.OrderService.Containers.MessageHandler_ECommercePlatform.GenerateDemand.OrderManagement.SoftwareSystems.OrderService.Containers.Messaging"><path d="M1071.34,359.6894 C1073.02,373.4494 1075,389.6094 1075,389.6094 C1075,389.6094 1078.0972,444.3922 1079.7372,473.3222 " fill="none" id="ECommercePlatform.GenerateDemand.OrderManagement.SoftwareSystems.OrderService.Containers.MessageHandler-to-ECommercePlatform.GenerateDemand.OrderManagement.SoftwareSystems.OrderService.Containers.Messaging" style="stroke:#666666;stroke-width:1.0;"/><polygon fill="#666666" points="1080.19,481.3094,1082.7324,473.1524,1076.742,473.492,1080.19,481.3094" style="stroke:#666666;stroke-width:1.0;"/><text fill="#666666" font-family="sans-serif" font-size="12" font-weight="bold" lengthAdjust="spacing" textLength="29" x="1077" y="403.0664">Uses</text></g><!--link ECommercePlatform.GenerateDemand.OrderManagement.SoftwareSystems.OrderService.Containers.MessageHandler to ECommercePlatform.Deliver.Payments.SoftwareSystems.PaymentService.Containers.Messaging--><g id="link_ECommercePlatform.GenerateDemand.OrderManagement.SoftwareSystems.OrderService.Containers.MessageHandler_ECommercePlatform.Deliver.Payments.SoftwareSystems.PaymentService.Containers.Messaging"><path d="M1133.9,359.6694 C1208.56,381.5894 1321,414.6094 1321,414.6094 C1321,414.6094 1364.6168,453.0015 1390.9668,476.2115 " fill="none" id="ECommercePlatform.GenerateDemand.OrderManagement.SoftwareSystems.OrderService.Containers.MessageHandler-to-ECommercePlatform.Deliver.Payments.SoftwareSystems.PaymentService.Containers.Messaging" style="stroke:#666666;stroke-width:1.0;"/><polygon fill="#666666" points="1396.97,481.4994,1392.9497,473.9603,1388.9838,478.4627,1396.97,481.4994" style="stroke:#666666;stroke-width:1.0;"/><text fill="#666666" font-family="sans-serif" font-size="12" font-weight="bold" lengthAdjust="spacing" textLength="29" x="1291" y="403.0664">Uses</text></g><!--link ECommercePlatform.GenerateDemand.OrderManagement.SoftwareSystems.OrderService.Containers.MessageHandler to ECommercePlatform.Deliver.Fulfilment.SoftwareSystems.FulfilmentService.Containers.Messaging--><g id="link_ECommercePlatform.GenerateDemand.OrderManagement.SoftwareSystems.OrderService.Containers.MessageHandler_ECommercePlatform.Deliver.Fulfilment.SoftwareSystems.FulfilmentService.Containers.Messaging"><path d="M1145.05,354.2694 C1264.09,375.6494 1481,414.6094 1481,414.6094 C1481,414.6094 1528.7139,453.2535 1557.3639,476.4635 " fill="none" id="ECommercePlatform.GenerateDemand.OrderManagement.SoftwareSystems.OrderService.Containers.MessageHandler-to-ECommercePlatform.Deliver.Fulfilment.SoftwareSystems.FulfilmentService.Containers.Messaging" style="stroke:#666666;stroke-width:1.0;"/><polygon fill="#666666" points="1563.58,481.4994,1559.2523,474.1325,1555.4754,478.7946,1563.58,481.4994" style="stroke:#666666;stroke-width:1.0;"/><text fill="#666666" font-family="sans-serif" font-size="12" font-weight="bold" lengthAdjust="spacing" textLength="29" x="1430" y="403.0664">Uses</text></g><!--link ECommercePlatform.GenerateDemand.SearchAndBrowse.SoftwareSystems.SearchService.Containers.MessageHandler to ECommercePlatform.CreateProduct.PriceManagement.SoftwareSystems.PricingService.Containers.Messaging--><g id="link_ECommercePlatform.GenerateDemand.SearchAndBrowse.SoftwareSystems.SearchService.Containers.MessageHandler_ECommercePlatform.CreateProduct.PriceManagement.SoftwareSystems.PricingService.Containers.Messaging"><path d="M395.87,359.6894 C436.86,373.4494 485,389.6094 485,389.6094 C485,389.6094 549.4961,447.0584 581.9761,475.9884 " fill="none" id="ECommercePlatform.GenerateDemand.SearchAndBrowse.SoftwareSystems.SearchService.Containers.MessageHandler-to-ECommercePlatform.CreateProduct.PriceManagement.SoftwareSystems.PricingService.Containers.Messaging" style="stroke:#666666;stroke-width:1.0;"/><polygon fill="#666666" points="587.95,481.3094,583.9715,473.7482,579.9807,478.2286,587.95,481.3094" style="stroke:#666666;stroke-width:1.0;"/><text fill="#666666" font-family="sans-serif" font-size="12" font-weight="bold" lengthAdjust="spacing" textLength="29" x="504" y="403.0664">Uses</text></g><!--link ECommercePlatform.GenerateDemand.SearchAndBrowse.SoftwareSystems.SearchService.Containers.MessageHandler to ECommercePlatform.GenerateDemand.SearchAndBrowse.SoftwareSystems.SearchService.Containers.Database--><g id="link_ECommercePlatform.GenerateDemand.SearchAndBrowse.SoftwareSystems.SearchService.Containers.MessageHandler_ECommercePlatform.GenerateDemand.SearchAndBrowse.SoftwareSystems.SearchService.Containers.Database"><path d="M345.01,359.6194 C353.95,387.9094 368.3486,433.4415 378.0886,464.2515 " fill="none" id="ECommercePlatform.GenerateDemand.SearchAndBrowse.SoftwareSystems.SearchService.Containers.MessageHandler-to-ECommercePlatform.GenerateDemand.SearchAndBrowse.SoftwareSystems.SearchService.Containers.Database" style="stroke:#666666;stroke-width:1.0;"/><polygon fill="#666666" points="380.5,471.8794,380.949,463.3472,375.2281,465.1557,380.5,471.8794" style="stroke:#666666;stroke-width:1.0;"/><text fill="#666666" font-family="sans-serif" font-size="12" font-weight="bold" lengthAdjust="spacing" textLength="29" x="361" y="403.0664">Uses</text></g><!--link ECommercePlatform.GenerateDemand.SearchAndBrowse.SoftwareSystems.SearchService.Containers.MessageHandler to ECommercePlatform.CreateProduct.ProductInformationManagement.SoftwareSystems.ProductService.Containers.Messaging--><g id="link_ECommercePlatform.GenerateDemand.SearchAndBrowse.SoftwareSystems.SearchService.Containers.MessageHandler_ECommercePlatform.CreateProduct.ProductInformationManagement.SoftwareSystems.ProductService.Containers.Messaging"><path d="M315.31,359.6694 C288.05,381.5894 247,414.6094 247,414.6094 C247,414.6094 203.3832,453.0015 177.0332,476.2115 " fill="none" id="ECommercePlatform.GenerateDemand.SearchAndBrowse.SoftwareSystems.SearchService.Containers.MessageHandler-to-ECommercePlatform.CreateProduct.ProductInformationManagement.SoftwareSystems.ProductService.Containers.Messaging" style="stroke:#666666;stroke-width:1.0;"/><polygon fill="#666666" points="171.03,481.4994,179.0162,478.4627,175.0503,473.9603,171.03,481.4994" style="stroke:#666666;stroke-width:1.0;"/><text fill="#666666" font-family="sans-serif" font-size="12" font-weight="bold" lengthAdjust="spacing" textLength="29" x="278" y="403.0664">Uses</text></g><rect fill="none" height="17.6094" style="stroke:none;stroke-width:1.0;" width="182" x="1458" y="689.1094"/><text fill="#000000" font-family="sans-serif" font-size="14" font-weight="bold" lengthAdjust="spacing" textLength="53" x="1458" y="703.6426">Legend</text><text fill="#FFFFFF" font-family="sans-serif" font-size="14" lengthAdjust="spacing" textLength="4" x="1511" y="703.6426">&#160;</text><rect fill="#1168BD" height="17.6094" style="stroke:none;stroke-width:1.0;" width="182" x="1458" y="706.7188"/><text fill="#3C7FC0" font-family="sans-serif" font-size="14" lengthAdjust="spacing" textLength="14" x="1462" y="721.252">&#9647;</text><text fill="#FFFFFF" font-family="sans-serif" font-size="14" lengthAdjust="spacing" textLength="4" x="1476" y="721.252">&#160;</text><text fill="#FFFFFF" font-family="sans-serif" font-size="14" lengthAdjust="spacing" textLength="44" x="1484" y="721.252">system</text><text fill="#FFFFFF" font-family="sans-serif" font-size="14" lengthAdjust="spacing" textLength="4" x="1532" y="721.252">&#160;</text><rect fill="#438DD5" height="17.6094" style="stroke:none;stroke-width:1.0;" width="182" x="1458" y="724.3281"/><text fill="#3C7FC0" font-family="sans-serif" font-size="14" lengthAdjust="spacing" textLength="14" x="1462" y="738.8613">&#9647;</text><text fill="#FFFFFF" font-family="sans-serif" font-size="14" lengthAdjust="spacing" textLength="4" x="1476" y="738.8613">&#160;</text><text fill="#FFFFFF" font-family="sans-serif" font-size="14" lengthAdjust="spacing" textLength="59" x="1484" y="738.8613">container</text><text fill="#FFFFFF" font-family="sans-serif" font-size="14" lengthAdjust="spacing" textLength="4" x="1547" y="738.8613">&#160;</text><rect fill="none" height="17.6094" style="stroke:none;stroke-width:1.0;" width="182" x="1458" y="741.9375"/><text fill="#444444" font-family="sans-serif" font-size="14" lengthAdjust="spacing" textLength="14" x="1462" y="756.4707">&#9647;</text><text fill="#FFFFFF" font-family="sans-serif" font-size="14" lengthAdjust="spacing" textLength="4" x="1476" y="756.4707">&#160;</text><text fill="#444444" font-family="sans-serif" font-size="14" lengthAdjust="spacing" textLength="108" x="1484" y="756.4707">system boundary</text><text fill="#444444" font-family="sans-serif" font-size="10" lengthAdjust="spacing" textLength="40" x="1596" y="757.3496">(dashed)</text><text fill="#FFFFFF" font-family="sans-serif" font-size="14" lengthAdjust="spacing" textLength="4" x="1636" y="756.4707">&#160;</text><line style="stroke:none;stroke-width:1.0;" x1="1458" x2="1640" y1="689.1094" y2="689.1094"/><line style="stroke:none;stroke-width:1.0;" x1="1458" x2="1640" y1="706.7188" y2="706.7188"/><line style="stroke:none;stroke-width:1.0;" x1="1458" x2="1640" y1="724.3281" y2="724.3281"/><line style="stroke:none;stroke-width:1.0;" x1="1458" x2="1640" y1="741.9375" y2="741.9375"/><line style="stroke:none;stroke-width:1.0;" x1="1458" x2="1640" y1="759.5469" y2="759.5469"/><line style="stroke:none;stroke-width:1.0;" x1="1458" x2="1458" y1="689.1094" y2="759.5469"/><line style="stroke:none;stroke-width:1.0;" x1="1640" x2="1640" y1="689.1094" y2="759.5469"/><!--SRC=[rLdRRk8m47tdAxpPVG2fcoUUAlM1MozIMrYWgbQgXDnaGgCwTcGxi6Yr_xxEXIIK5WXnKeeGnECmP-RCIJ8ZlhdK8e4Do3IVmhVL5a-zzgp7gCGk1MxwWKSQZOvj3mXuGEKKpvk6rNQf1EuGjZmdhWFMoY9mJc5fdA4Vp_CU8unVp3a0LMj7-Oejtvte5Px3k0ryyppnWcssTEdymhZ4H83HEWpMUi5q3dOUcl7GT01sUkAnu1myjjW4vs0VW1oVzGviY3i6ifzd2N_a9eD4LIndQUrtbUCkSvUIalcBJGSupF6HEOnppRofjSfpSZryd8q6uydmVZOQZgVZpisqsMhSTduF7wQpwN0qwmyVxvMb8LvTwcEEFHJwa2iVaC_8Abmq6jAL1D00zPZd0RS0ZGYM3kCU-eckG4aOIq1zy32rbQNNHXE9fMk5nskH8m8BK2gVh8G4hpbOkrfxCjT-OZVcH38E3bS_DoVCaKlC8Vwfo6rrVFyC6TaQAOEYnL0brehJ3QMLnr6612S1cdLPG6tCL-yWzZWel15dTc19C_c-eU6UOedHEqpnFBe8ja98Jfu0NxYMaekH651YCLheRmEfLyfpbVXcYYBCZk-gSDHdn4FCnKOW_UUwGkbZYP-n2EbP7tuKrAy00gWhhZiG0i_LZKS5aXxd8ljtY7ZUoXKmjruwrEvojXImhTbeFzDBl2uabpA8vHMY2xs0A2gC8YuxN2id17Yg0q29fQGQkbYymhOaOtCcWdXTHWI706clVL7GtIK_XjzXs4likFQZ_OpdQ5c6vY9uska-5bp3xLTJ9Fjkk3LLG_T5tmVYBjIOSCbnOE-89zhFr1WjFrRZHxKu1atxKsyTn0YlGd2n_TIDDtADKMmuFjy3eIfBzJ8WZalUfphTobKtjPKeSG58xNc_RRaKniukoxKKIBuHZWp5ao-3Mv04DSRf77HqpZ8F0eGAKb-4aTjQPu-TALI7M_zGKrUjz3R-XQ8k1LNB4F59HJYkyIuIx548LVRkdyHqkTwxID2baEfeuxz-Clc7SntPl6tvgsshJoEZhwcxsl8wNGcMd7HEx7hICCFKqghiJwcAoUH4KlliXgo-ecd_vo39C_alxtPmDRZlDrl_0G00]--></g></svg>