<?xml version="1.0" encoding="us-ascii" standalone="no"?><svg xmlns="http://www.w3.org/2000/svg" xmlns:xlink="http://www.w3.org/1999/xlink" contentStyleType="text/css" height="811px" preserveAspectRatio="none" style="width:1671px;height:811px;background:#FFFFFF;" version="1.1" viewBox="0 0 1671 811" width="1671px" zoomAndPan="magnify"><defs/><g><text fill="#000000" font-family="sans-serif" font-size="14" font-weight="bold" lengthAdjust="spacing" textLength="485" x="586" y="24.5332">E Commerce Platform - Generate Demand - C4 Static - Container level</text><!--cluster ECommercePlatform.CreateProduct.ProductInformationManagement.SoftwareSystems.ProductService--><g id="cluster_ECommercePlatform.CreateProduct.ProductInformationManagement.SoftwareSystems.ProductService"><rect fill="none" height="267.5" rx="2.5" ry="2.5" style="stroke:#444444;stroke-width:1.0;stroke-dasharray:7.0,7.0;" width="216" x="7" y="422.6094"/><text fill="#444444" font-family="sans-serif" font-size="16" font-weight="bold" lengthAdjust="spacing" textLength="122" x="54" y="441.2188">Product Service</text><text fill="#444444" font-family="sans-serif" font-size="12" font-weight="bold" lengthAdjust="spacing" textLength="51" x="89.5" y="457.1914">[System]</text></g><!--cluster ECommercePlatform.GenerateDemand.SearchAndBrowse.SoftwareSystems.SearchService--><g id="cluster_ECommercePlatform.GenerateDemand.SearchAndBrowse.SoftwareSystems.SearchService"><rect fill="none" height="281.5" rx="2.5" ry="2.5" style="stroke:#444444;stroke-width:1.0;stroke-dasharray:7.0,7.0;" width="265" x="247" y="265.6094"/><text fill="#444444" font-family="sans-serif" font-size="16" font-weight="bold" lengthAdjust="spacing" textLength="115" x="322" y="284.2188">Search Service</text><text fill="#444444" font-family="sans-serif" font-size="12" font-weight="bold" lengthAdjust="spacing" textLength="51" x="354" y="300.1914">[System]</text></g><!--cluster ECommercePlatform.GenerateDemand.Basket.SoftwareSystems.BasketService--><g id="cluster_ECommercePlatform.GenerateDemand.Basket.SoftwareSystems.BasketService"><rect fill="none" height="281.5" rx="2.5" ry="2.5" style="stroke:#444444;stroke-width:1.0;stroke-dasharray:7.0,7.0;" width="130" x="696" y="265.6094"/><text fill="#444444" font-family="sans-serif" font-size="16" font-weight="bold" lengthAdjust="spacing" textLength="114" x="704" y="284.2188">Basket Service</text><text fill="#444444" font-family="sans-serif" font-size="12" font-weight="bold" lengthAdjust="spacing" textLength="51" x="735.5" y="300.1914">[System]</text></g><!--cluster ECommercePlatform.GenerateDemand.OrderManagement.SoftwareSystems.OrderService--><g id="cluster_ECommercePlatform.GenerateDemand.OrderManagement.SoftwareSystems.OrderService"><rect fill="none" height="281.5" rx="2.5" ry="2.5" style="stroke:#444444;stroke-width:1.0;stroke-dasharray:7.0,7.0;" width="311" x="850" y="265.6094"/><text fill="#444444" font-family="sans-serif" font-size="16" font-weight="bold" lengthAdjust="spacing" textLength="104" x="953.5" y="284.2188">Order Service</text><text fill="#444444" font-family="sans-serif" font-size="12" font-weight="bold" lengthAdjust="spacing" textLength="51" x="980" y="300.1914">[System]</text></g><!--cluster ECommercePlatform.Deliver.FraudManagement.SoftwareSystems.FraudService--><g id="cluster_ECommercePlatform.Deliver.FraudManagement.SoftwareSystems.FraudService"><rect fill="none" height="115" rx="2.5" ry="2.5" style="stroke:#444444;stroke-width:1.0;stroke-dasharray:7.0,7.0;" width="136" x="1185" y="422.6094"/><text fill="#444444" font-family="sans-serif" font-size="16" font-weight="bold" lengthAdjust="spacing" textLength="106" x="1200" y="441.2188">Fraud Service</text><text fill="#444444" font-family="sans-serif" font-size="12" font-weight="bold" lengthAdjust="spacing" textLength="51" x="1227.5" y="457.1914">[System]</text></g><!--cluster ECommercePlatform.Deliver.Payments.SoftwareSystems.PaymentService--><g id="cluster_ECommercePlatform.Deliver.Payments.SoftwareSystems.PaymentService"><rect fill="none" height="115" rx="2.5" ry="2.5" style="stroke:#444444;stroke-width:1.0;stroke-dasharray:7.0,7.0;" width="144" x="1345" y="422.6094"/><text fill="#444444" font-family="sans-serif" font-size="16" font-weight="bold" lengthAdjust="spacing" textLength="128" x="1353" y="441.2188">Payment Service</text><text fill="#444444" font-family="sans-serif" font-size="12" font-weight="bold" lengthAdjust="spacing" textLength="51" x="1391.5" y="457.1914">[System]</text></g><!--cluster ECommercePlatform.Deliver.Fulfilment.SoftwareSystems.FulfilmentService--><g id="cluster_ECommercePlatform.Deliver.Fulfilment.SoftwareSystems.FulfilmentService"><rect fill="none" height="115" rx="2.5" ry="2.5" style="stroke:#444444;stroke-width:1.0;stroke-dasharray:7.0,7.0;" width="152" x="1513" y="422.6094"/><text fill="#444444" font-family="sans-serif" font-size="16" font-weight="bold" lengthAdjust="spacing" textLength="136" x="1521" y="441.2188">Fulfilment Service</text><text fill="#444444" font-family="sans-serif" font-size="12" font-weight="bold" lengthAdjust="spacing" textLength="51" x="1563.5" y="457.1914">[System]</text></g><!--cluster ECommercePlatform.CreateProduct.PriceManagement.SoftwareSystems.PricingService--><g id="cluster_ECommercePlatform.CreateProduct.PriceManagement.SoftwareSystems.PricingService"><rect fill="none" height="115" rx="2.5" ry="2.5" style="stroke:#444444;stroke-width:1.0;stroke-dasharray:7.0,7.0;" width="136" x="536" y="422.6094"/><text fill="#444444" font-family="sans-serif" font-size="16" font-weight="bold" lengthAdjust="spacing" textLength="115" x="546.5" y="441.2188">Pricing Service</text><text fill="#444444" font-family="sans-serif" font-size="12" font-weight="bold" lengthAdjust="spacing" textLength="51" x="578.5" y="457.1914">[System]</text></g><!--entity ECommercePlatform.CreateProduct.ProductInformationManagement.SoftwareSystems.ProductService.Containers.Api--><g id="elem_ECommercePlatform.CreateProduct.ProductInformationManagement.SoftwareSystems.ProductService.Containers.Api"><rect fill="#438DD5" height="40.125" rx="2.5" ry="2.5" style="stroke:#3C7FC0;stroke-width:0.5;" width="45" x="23.5" y="479.1094"/><text fill="#FFFFFF" font-family="sans-serif" font-size="16" font-weight="bold" lengthAdjust="spacing" textLength="25" x="33.5" y="505.7188">Api</text></g><!--entity ECommercePlatform.CreateProduct.ProductInformationManagement.SoftwareSystems.ProductService.Containers.Database--><g id="elem_ECommercePlatform.CreateProduct.ProductInformationManagement.SoftwareSystems.ProductService.Containers.Database"><path d="M23,620.1094 C23,610.1094 69,610.1094 69,610.1094 C69,610.1094 115,610.1094 115,620.1094 L115,664.3281 C115,674.3281 69,674.3281 69,674.3281 C69,674.3281 23,674.3281 23,664.3281 L23,620.1094 " fill="#438DD5" style="stroke:#3C7FC0;stroke-width:0.5;"/><path d="M23,620.1094 C23,630.1094 69,630.1094 69,630.1094 C69,630.1094 115,630.1094 115,620.1094 " fill="none" style="stroke:#3C7FC0;stroke-width:0.5;"/><text fill="#FFFFFF" font-family="sans-serif" font-size="16" font-weight="bold" lengthAdjust="spacing" textLength="72" x="33" y="650.7188">Database</text><text fill="#FFFFFF" font-family="sans-serif" font-size="12" font-style="italic" lengthAdjust="spacing" textLength="60" x="39" y="666.6914">[Database]</text></g><!--entity ECommercePlatform.CreateProduct.ProductInformationManagement.SoftwareSystems.ProductService.Containers.Messaging--><g id="elem_ECommercePlatform.CreateProduct.ProductInformationManagement.SoftwareSystems.ProductService.Containers.Messaging"><path d="M108.5,476.6094 L201.5,476.6094 C206.5,476.6094 206.5,499.2188 206.5,499.2188 C206.5,499.2188 206.5,521.8281 201.5,521.8281 L108.5,521.8281 C103.5,521.8281 103.5,499.2188 103.5,499.2188 C103.5,499.2188 103.5,476.6094 108.5,476.6094 " fill="#438DD5" style="stroke:#3C7FC0;stroke-width:0.5;"/><path d="M201.5,476.6094 C196.5,476.6094 196.5,499.2188 196.5,499.2188 C196.5,521.8281 201.5,521.8281 201.5,521.8281 " fill="none" style="stroke:#3C7FC0;stroke-width:0.5;"/><text fill="#FFFFFF" font-family="sans-serif" font-size="16" font-weight="bold" lengthAdjust="spacing" textLength="83" x="108.5" y="498.2188">Messaging</text><text fill="#FFFFFF" font-family="sans-serif" font-size="12" font-style="italic" lengthAdjust="spacing" textLength="36" x="132" y="514.1914">[Topic]</text></g><!--entity ECommercePlatform.GenerateDemand.SearchAndBrowse.SoftwareSystems.SearchService.Containers.Api--><g id="elem_ECommercePlatform.GenerateDemand.SearchAndBrowse.SoftwareSystems.SearchService.Containers.Api"><rect fill="#438DD5" height="40.125" rx="2.5" ry="2.5" style="stroke:#3C7FC0;stroke-width:0.5;" width="45" x="450.5" y="319.6094"/><text fill="#FFFFFF" font-family="sans-serif" font-size="16" font-weight="bold" lengthAdjust="spacing" textLength="25" x="460.5" y="346.2188">Api</text></g><!--entity ECommercePlatform.GenerateDemand.SearchAndBrowse.SoftwareSystems.SearchService.Containers.Database--><g id="elem_ECommercePlatform.GenerateDemand.SearchAndBrowse.SoftwareSystems.SearchService.Containers.Database"><path d="M342,477.1094 C342,467.1094 388,467.1094 388,467.1094 C388,467.1094 434,467.1094 434,477.1094 L434,521.3281 C434,531.3281 388,531.3281 388,531.3281 C388,531.3281 342,531.3281 342,521.3281 L342,477.1094 " fill="#438DD5" style="stroke:#3C7FC0;stroke-width:0.5;"/><path d="M342,477.1094 C342,487.1094 388,487.1094 388,487.1094 C388,487.1094 434,487.1094 434,477.1094 " fill="none" style="stroke:#3C7FC0;stroke-width:0.5;"/><text fill="#FFFFFF" font-family="sans-serif" font-size="16" font-weight="bold" lengthAdjust="spacing" textLength="72" x="352" y="507.7188">Database</text><text fill="#FFFFFF" font-family="sans-serif" font-size="12" font-style="italic" lengthAdjust="spacing" textLength="60" x="358" y="523.6914">[Database]</text></g><!--entity ECommercePlatform.GenerateDemand.SearchAndBrowse.SoftwareSystems.SearchService.Containers.MessageHandler--><g id="elem_ECommercePlatform.GenerateDemand.SearchAndBrowse.SoftwareSystems.SearchService.Containers.MessageHandler"><rect fill="#438DD5" height="40.125" rx="2.5" ry="2.5" style="stroke:#3C7FC0;stroke-width:0.5;" width="152" x="263" y="319.6094"/><text fill="#FFFFFF" font-family="sans-serif" font-size="16" font-weight="bold" lengthAdjust="spacing" textLength="68" x="273" y="346.2188">Message</text><text fill="#FFFFFF" font-family="sans-serif" font-size="16" font-weight="bold" lengthAdjust="spacing" textLength="4" x="341" y="346.2188">&#160;</text><text fill="#FFFFFF" font-family="sans-serif" font-size="16" font-weight="bold" lengthAdjust="spacing" textLength="60" x="345" y="346.2188">Handler</text></g><!--entity ECommercePlatform.GenerateDemand.Basket.SoftwareSystems.BasketService.Containers.Api--><g id="elem_ECommercePlatform.GenerateDemand.Basket.SoftwareSystems.BasketService.Containers.Api"><rect fill="#438DD5" height="40.125" rx="2.5" ry="2.5" style="stroke:#3C7FC0;stroke-width:0.5;" width="45" x="718.5" y="319.6094"/><text fill="#FFFFFF" font-family="sans-serif" font-size="16" font-weight="bold" lengthAdjust="spacing" textLength="25" x="728.5" y="346.2188">Api</text></g><!--entity ECommercePlatform.GenerateDemand.Basket.SoftwareSystems.BasketService.Containers.Database--><g id="elem_ECommercePlatform.GenerateDemand.Basket.SoftwareSystems.BasketService.Containers.Database"><path d="M712,477.1094 C712,467.1094 758,467.1094 758,467.1094 C758,467.1094 804,467.1094 804,477.1094 L804,521.3281 C804,531.3281 758,531.3281 758,531.3281 C758,531.3281 712,531.3281 712,521.3281 L712,477.1094 " fill="#438DD5" style="stroke:#3C7FC0;stroke-width:0.5;"/><path d="M712,477.1094 C712,487.1094 758,487.1094 758,487.1094 C758,487.1094 804,487.1094 804,477.1094 " fill="none" style="stroke:#3C7FC0;stroke-width:0.5;"/><text fill="#FFFFFF" font-family="sans-serif" font-size="16" font-weight="bold" lengthAdjust="spacing" textLength="72" x="722" y="507.7188">Database</text><text fill="#FFFFFF" font-family="sans-serif" font-size="12" font-style="italic" lengthAdjust="spacing" textLength="60" x="728" y="523.6914">[Database]</text></g><!--entity ECommercePlatform.GenerateDemand.OrderManagement.SoftwareSystems.OrderService.Containers.Api--><g id="elem_ECommercePlatform.GenerateDemand.OrderManagement.SoftwareSystems.OrderService.Containers.Api"><rect fill="#438DD5" height="40.125" rx="2.5" ry="2.5" style="stroke:#3C7FC0;stroke-width:0.5;" width="45" x="878.5" y="319.6094"/><text fill="#FFFFFF" font-family="sans-serif" font-size="16" font-weight="bold" lengthAdjust="spacing" textLength="25" x="888.5" y="346.2188">Api</text></g><!--entity ECommercePlatform.GenerateDemand.OrderManagement.SoftwareSystems.OrderService.Containers.Database--><g id="elem_ECommercePlatform.GenerateDemand.OrderManagement.SoftwareSystems.OrderService.Containers.Database"><path d="M890,477.1094 C890,467.1094 936,467.1094 936,467.1094 C936,467.1094 982,467.1094 982,477.1094 L982,521.3281 C982,531.3281 936,531.3281 936,531.3281 C936,531.3281 890,531.3281 890,521.3281 L890,477.1094 " fill="#438DD5" style="stroke:#3C7FC0;stroke-width:0.5;"/><path d="M890,477.1094 C890,487.1094 936,487.1094 936,487.1094 C936,487.1094 982,487.1094 982,477.1094 " fill="none" style="stroke:#3C7FC0;stroke-width:0.5;"/><text fill="#FFFFFF" font-family="sans-serif" font-size="16" font-weight="bold" lengthAdjust="spacing" textLength="72" x="900" y="507.7188">Database</text><text fill="#FFFFFF" font-family="sans-serif" font-size="12" font-style="italic" lengthAdjust="spacing" textLength="60" x="906" y="523.6914">[Database]</text></g><!--entity ECommercePlatform.GenerateDemand.OrderManagement.SoftwareSystems.OrderService.Containers.Messaging--><g id="elem_ECommercePlatform.GenerateDemand.OrderManagement.SoftwareSystems.OrderService.Containers.Messaging"><path d="M1034.5,476.6094 L1127.5,476.6094 C1132.5,476.6094 1132.5,499.2188 1132.5,499.2188 C1132.5,499.2188 1132.5,521.8281 1127.5,521.8281 L1034.5,521.8281 C1029.5,521.8281 1029.5,499.2188 1029.5,499.2188 C1029.5,499.2188 1029.5,476.6094 1034.5,476.6094 " fill="#438DD5" style="stroke:#3C7FC0;stroke-width:0.5;"/><path d="M1127.5,476.6094 C1122.5,476.6094 1122.5,499.2188 1122.5,499.2188 C1122.5,521.8281 1127.5,521.8281 1127.5,521.8281 " fill="none" style="stroke:#3C7FC0;stroke-width:0.5;"/><text fill="#FFFFFF" font-family="sans-serif" font-size="16" font-weight="bold" lengthAdjust="spacing" textLength="83" x="1034.5" y="498.2188">Messaging</text><text fill="#FFFFFF" font-family="sans-serif" font-size="12" font-style="italic" lengthAdjust="spacing" textLength="36" x="1058" y="514.1914">[Topic]</text></g><!--entity ECommercePlatform.GenerateDemand.OrderManagement.SoftwareSystems.OrderService.Containers.MessageHandler--><g id="elem_ECommercePlatform.GenerateDemand.OrderManagement.SoftwareSystems.OrderService.Containers.MessageHandler"><rect fill="#438DD5" height="40.125" rx="2.5" ry="2.5" style="stroke:#3C7FC0;stroke-width:0.5;" width="152" x="993" y="319.6094"/><text fill="#FFFFFF" font-family="sans-serif" font-size="16" font-weight="bold" lengthAdjust="spacing" textLength="68" x="1003" y="346.2188">Message</text><text fill="#FFFFFF" font-family="sans-serif" font-size="16" font-weight="bold" lengthAdjust="spacing" textLength="4" x="1071" y="346.2188">&#160;</text><text fill="#FFFFFF" font-family="sans-serif" font-size="16" font-weight="bold" lengthAdjust="spacing" textLength="60" x="1075" y="346.2188">Handler</text></g><!--entity ECommercePlatform.Deliver.FraudManagement.SoftwareSystems.FraudService.Containers.Messaging--><g id="elem_ECommercePlatform.Deliver.FraudManagement.SoftwareSystems.FraudService.Containers.Messaging"><path d="M1206.5,476.6094 L1299.5,476.6094 C1304.5,476.6094 1304.5,499.2188 1304.5,499.2188 C1304.5,499.2188 1304.5,521.8281 1299.5,521.8281 L1206.5,521.8281 C1201.5,521.8281 1201.5,499.2188 1201.5,499.2188 C1201.5,499.2188 1201.5,476.6094 1206.5,476.6094 " fill="#438DD5" style="stroke:#3C7FC0;stroke-width:0.5;"/><path d="M1299.5,476.6094 C1294.5,476.6094 1294.5,499.2188 1294.5,499.2188 C1294.5,521.8281 1299.5,521.8281 1299.5,521.8281 " fill="none" style="stroke:#3C7FC0;stroke-width:0.5;"/><text fill="#FFFFFF" font-family="sans-serif" font-size="16" font-weight="bold" lengthAdjust="spacing" textLength="83" x="1206.5" y="498.2188">Messaging</text><text fill="#FFFFFF" font-family="sans-serif" font-size="12" font-style="italic" lengthAdjust="spacing" textLength="36" x="1230" y="514.1914">[Topic]</text></g><!--entity ECommercePlatform.Deliver.Payments.SoftwareSystems.PaymentService.Containers.Messaging--><g id="elem_ECommercePlatform.Deliver.Payments.SoftwareSystems.PaymentService.Containers.Messaging"><path d="M1366.5,476.6094 L1459.5,476.6094 C1464.5,476.6094 1464.5,499.2188 1464.5,499.2188 C1464.5,499.2188 1464.5,521.8281 1459.5,521.8281 L1366.5,521.8281 C1361.5,521.8281 1361.5,499.2188 1361.5,499.2188 C1361.5,499.2188 1361.5,476.6094 1366.5,476.6094 " fill="#438DD5" style="stroke:#3C7FC0;stroke-width:0.5;"/><path d="M1459.5,476.6094 C1454.5,476.6094 1454.5,499.2188 1454.5,499.2188 C1454.5,521.8281 1459.5,521.8281 1459.5,521.8281 " fill="none" style="stroke:#3C7FC0;stroke-width:0.5;"/><text fill="#FFFFFF" font-family="sans-serif" font-size="16" font-weight="bold" lengthAdjust="spacing" textLength="83" x="1366.5" y="498.2188">Messaging</text><text fill="#FFFFFF" font-family="sans-serif" font-size="12" font-style="italic" lengthAdjust="spacing" textLength="36" x="1390" y="514.1914">[Topic]</text></g><!--entity ECommercePlatform.Deliver.Fulfilment.SoftwareSystems.FulfilmentService.Containers.Messaging--><g id="elem_ECommercePlatform.Deliver.Fulfilment.SoftwareSystems.FulfilmentService.Containers.Messaging"><path d="M1534.5,476.6094 L1627.5,476.6094 C1632.5,476.6094 1632.5,499.2188 1632.5,499.2188 C1632.5,499.2188 1632.5,521.8281 1627.5,521.8281 L1534.5,521.8281 C1529.5,521.8281 1529.5,499.2188 1529.5,499.2188 C1529.5,499.2188 1529.5,476.6094 1534.5,476.6094 " fill="#438DD5" style="stroke:#3C7FC0;stroke-width:0.5;"/><path d="M1627.5,476.6094 C1622.5,476.6094 1622.5,499.2188 1622.5,499.2188 C1622.5,521.8281 1627.5,521.8281 1627.5,521.8281 " fill="none" style="stroke:#3C7FC0;stroke-width:0.5;"/><text fill="#FFFFFF" font-family="sans-serif" font-size="16" font-weight="bold" lengthAdjust="spacing" textLength="83" x="1534.5" y="498.2188">Messaging</text><text fill="#FFFFFF" font-family="sans-serif" font-size="12" font-style="italic" lengthAdjust="spacing" textLength="36" x="1558" y="514.1914">[Topic]</text></g><!--entity ECommercePlatform.CreateProduct.PriceManagement.SoftwareSystems.PricingService.Containers.Messaging--><g id="elem_ECommercePlatform.CreateProduct.PriceManagement.SoftwareSystems.PricingService.Containers.Messaging"><path d="M557.5,476.6094 L650.5,476.6094 C655.5,476.6094 655.5,499.2188 655.5,499.2188 C655.5,499.2188 655.5,521.8281 650.5,521.8281 L557.5,521.8281 C552.5,521.8281 552.5,499.2188 552.5,499.2188 C552.5,499.2188 552.5,476.6094 557.5,476.6094 " fill="#438DD5" style="stroke:#3C7FC0;stroke-width:0.5;"/><path d="M650.5,476.6094 C645.5,476.6094 645.5,499.2188 645.5,499.2188 C645.5,521.8281 650.5,521.8281 650.5,521.8281 " fill="none" style="stroke:#3C7FC0;stroke-width:0.5;"/><text fill="#FFFFFF" font-family="sans-serif" font-size="16" font-weight="bold" lengthAdjust="spacing" textLength="83" x="557.5" y="498.2188">Messaging</text><text fill="#FFFFFF" font-family="sans-serif" font-size="12" font-style="italic" lengthAdjust="spacing" textLength="36" x="581" y="514.1914">[Topic]</text></g><!--entity ECommercePlatform.GenerateDemand.Storefront.SoftwareSystems.StorefrontApp--><g id="elem_ECommercePlatform.GenerateDemand.Storefront.SoftwareSystems.StorefrontApp"><rect fill="#1168BD" height="40.125" rx="2.5" ry="2.5" style="stroke:#3C7FC0;stroke-width:0.5;" width="132" x="489" y="45.6094"/><text fill="#FFFFFF" font-family="sans-serif" font-size="16" font-weight="bold" lengthAdjust="spacing" textLength="77" x="499" y="72.2188">Storefront</text><text fill="#FFFFFF" font-family="sans-serif" font-size="16" font-weight="bold" lengthAdjust="spacing" textLength="4" x="576" y="72.2188">&#160;</text><text fill="#FFFFFF" font-family="sans-serif" font-size="16" font-weight="bold" lengthAdjust="spacing" textLength="31" x="580" y="72.2188">App</text></g><!--entity ECommercePlatform.GenerateDemand.Storefront.SoftwareSystems.StorefrontBff--><g id="elem_ECommercePlatform.GenerateDemand.Storefront.SoftwareSystems.StorefrontBff"><rect fill="#1168BD" height="40.125" rx="2.5" ry="2.5" style="stroke:#3C7FC0;stroke-width:0.5;" width="123" x="493.5" y="162.6094"/><text fill="#FFFFFF" font-family="sans-serif" font-size="16" font-weight="bold" lengthAdjust="spacing" textLength="77" x="503.5" y="189.2188">Storefront</text><text fill="#FFFFFF" font-family="sans-serif" font-size="16" font-weight="bold" lengthAdjust="spacing" textLength="4" x="580.5" y="189.2188">&#160;</text><text fill="#FFFFFF" font-family="sans-serif" font-size="16" font-weight="bold" lengthAdjust="spacing" textLength="22" x="584.5" y="189.2188">Bff</text></g><!--link ECommercePlatform.GenerateDemand.Storefront.SoftwareSystems.StorefrontApp to ECommercePlatform.GenerateDemand.Storefront.SoftwareSystems.StorefrontBff--><g id="link_ECommercePlatform.GenerateDemand.Storefront.SoftwareSystems.StorefrontApp_ECommercePlatform.GenerateDemand.Storefront.SoftwareSystems.StorefrontBff"><path d="M555,85.8594 C555,107.0894 555,133.0494 555,154.2994 " fill="none" id="ECommercePlatform.GenerateDemand.Storefront.SoftwareSystems.StorefrontApp-to-ECommercePlatform.GenerateDemand.Storefront.SoftwareSystems.StorefrontBff" style="stroke:#666666;stroke-width:1.0;"/><polygon fill="#666666" points="555,162.2994,558,154.2994,552,154.2994,555,162.2994" style="stroke:#666666;stroke-width:1.0;"/><text fill="#666666" font-family="sans-serif" font-size="12" font-weight="bold" lengthAdjust="spacing" textLength="29" x="556" y="129.0664">Uses</text></g><!--link ECommercePlatform.GenerateDemand.Storefront.SoftwareSystems.StorefrontBff to ECommercePlatform.CreateProduct.ProductInformationManagement.SoftwareSystems.ProductService.Containers.Api--><g id="link_ECommercePlatform.GenerateDemand.Storefront.SoftwareSystems.StorefrontBff_ECommercePlatform.CreateProduct.ProductInformationManagement.SoftwareSystems.ProductService.Containers.Api"><path d="M493.22,197.0994 C395.44,218.4394 216,257.6094 216,257.6094 C216,257.6094 86,414.6094 86,414.6094 C86,414.6094 70.5455,446.8641 58.7355,471.5241 " fill="none" id="ECommercePlatform.GenerateDemand.Storefront.SoftwareSystems.StorefrontBff-to-ECommercePlatform.CreateProduct.ProductInformationManagement.SoftwareSystems.ProductService.Containers.Api" style="stroke:#666666;stroke-width:1.0;"/><polygon fill="#666666" points="55.28,478.7394,61.4412,472.8199,56.0298,470.2283,55.28,478.7394" style="stroke:#666666;stroke-width:1.0;"/><text fill="#666666" font-family="sans-serif" font-size="12" font-weight="bold" lengthAdjust="spacing" textLength="29" x="217" y="344.5664">Uses</text></g><!--link ECommercePlatform.CreateProduct.ProductInformationManagement.SoftwareSystems.ProductService.Containers.Api to ECommercePlatform.CreateProduct.ProductInformationManagement.SoftwareSystems.ProductService.Containers.Database--><g id="link_ECommercePlatform.CreateProduct.ProductInformationManagement.SoftwareSystems.ProductService.Containers.Api_ECommercePlatform.CreateProduct.ProductInformationManagement.SoftwareSystems.ProductService.Containers.Database"><path d="M49.1,519.1294 C52.9,542.4294 58.1125,574.3337 62.6425,602.1137 " fill="none" id="ECommercePlatform.CreateProduct.ProductInformationManagement.SoftwareSystems.ProductService.Containers.Api-to-ECommercePlatform.CreateProduct.ProductInformationManagement.SoftwareSystems.ProductService.Containers.Database" style="stroke:#666666;stroke-width:1.0;"/><polygon fill="#666666" points="63.93,610.0094,65.6034,601.6308,59.6816,602.5965,63.93,610.0094" style="stroke:#666666;stroke-width:1.0;"/><text fill="#666666" font-family="sans-serif" font-size="12" font-weight="bold" lengthAdjust="spacing" textLength="29" x="60" y="576.5664">Uses</text></g><!--link ECommercePlatform.GenerateDemand.Storefront.SoftwareSystems.StorefrontBff to ECommercePlatform.GenerateDemand.SearchAndBrowse.SoftwareSystems.SearchService.Containers.Api--><g id="link_ECommercePlatform.GenerateDemand.Storefront.SoftwareSystems.StorefrontBff_ECommercePlatform.GenerateDemand.SearchAndBrowse.SoftwareSystems.SearchService.Containers.Api"><path d="M544.95,202.6194 C529.21,232.3594 502.6707,282.5278 486.8807,312.3778 " fill="none" id="ECommercePlatform.GenerateDemand.Storefront.SoftwareSystems.StorefrontBff-to-ECommercePlatform.GenerateDemand.SearchAndBrowse.SoftwareSystems.SearchService.Containers.Api" style="stroke:#666666;stroke-width:1.0;"/><polygon fill="#666666" points="483.14,319.4494,489.5325,313.7806,484.2289,310.975,483.14,319.4494" style="stroke:#666666;stroke-width:1.0;"/><text fill="#666666" font-family="sans-serif" font-size="12" font-weight="bold" lengthAdjust="spacing" textLength="29" x="530" y="246.0664">Uses</text></g><!--link ECommercePlatform.GenerateDemand.SearchAndBrowse.SoftwareSystems.SearchService.Containers.Api to ECommercePlatform.GenerateDemand.SearchAndBrowse.SoftwareSystems.SearchService.Containers.Database--><g id="link_ECommercePlatform.GenerateDemand.SearchAndBrowse.SoftwareSystems.SearchService.Containers.Api_ECommercePlatform.GenerateDemand.SearchAndBrowse.SoftwareSystems.SearchService.Containers.Database"><path d="M462.58,359.9194 C448.17,386.6194 425.7987,428.0588 408.6087,459.9188 " fill="none" id="ECommercePlatform.GenerateDemand.SearchAndBrowse.SoftwareSystems.SearchService.Containers.Api-to-ECommercePlatform.GenerateDemand.SearchAndBrowse.SoftwareSystems.SearchService.Containers.Database" style="stroke:#666666;stroke-width:1.0;"/><polygon fill="#666666" points="404.81,466.9594,411.2489,461.3433,405.9685,458.4943,404.81,466.9594" style="stroke:#666666;stroke-width:1.0;"/><text fill="#666666" font-family="sans-serif" font-size="12" font-weight="bold" lengthAdjust="spacing" textLength="29" x="447" y="403.0664">Uses</text></g><!--link ECommercePlatform.GenerateDemand.Storefront.SoftwareSystems.StorefrontBff to ECommercePlatform.GenerateDemand.Basket.SoftwareSystems.BasketService.Containers.Api--><g id="link_ECommercePlatform.GenerateDemand.Storefront.SoftwareSystems.StorefrontBff_ECommercePlatform.GenerateDemand.Basket.SoftwareSystems.BasketService.Containers.Api"><path d="M577.81,202.6194 C613.6,232.4494 676.4238,284.7984 712.1538,314.5684 " fill="none" id="ECommercePlatform.GenerateDemand.Storefront.SoftwareSystems.StorefrontBff-to-ECommercePlatform.GenerateDemand.Basket.SoftwareSystems.BasketService.Containers.Api" style="stroke:#666666;stroke-width:1.0;"/><polygon fill="#666666" points="718.3,319.6894,714.0742,312.2636,710.2334,316.8732,718.3,319.6894" style="stroke:#666666;stroke-width:1.0;"/><text fill="#666666" font-family="sans-serif" font-size="12" font-weight="bold" lengthAdjust="spacing" textLength="29" x="633" y="246.0664">Uses</text></g><!--link ECommercePlatform.GenerateDemand.Basket.SoftwareSystems.BasketService.Containers.Api to ECommercePlatform.GenerateDemand.Basket.SoftwareSystems.BasketService.Containers.Database--><g id="link_ECommercePlatform.GenerateDemand.Basket.SoftwareSystems.BasketService.Containers.Api_ECommercePlatform.GenerateDemand.Basket.SoftwareSystems.BasketService.Containers.Database"><path d="M743.08,359.9194 C745.97,386.6194 750.3412,427.1456 753.7812,459.0056 " fill="none" id="ECommercePlatform.GenerateDemand.Basket.SoftwareSystems.BasketService.Containers.Api-to-ECommercePlatform.GenerateDemand.Basket.SoftwareSystems.BasketService.Containers.Database" style="stroke:#666666;stroke-width:1.0;"/><polygon fill="#666666" points="754.64,466.9594,756.7639,458.6836,750.7985,459.3276,754.64,466.9594" style="stroke:#666666;stroke-width:1.0;"/><text fill="#666666" font-family="sans-serif" font-size="12" font-weight="bold" lengthAdjust="spacing" textLength="29" x="749" y="403.0664">Uses</text></g><!--link ECommercePlatform.GenerateDemand.Storefront.SoftwareSystems.StorefrontBff to ECommercePlatform.GenerateDemand.OrderManagement.SoftwareSystems.OrderService.Containers.Api--><g id="link_ECommercePlatform.GenerateDemand.Storefront.SoftwareSystems.StorefrontBff_ECommercePlatform.GenerateDemand.OrderManagement.SoftwareSystems.OrderService.Containers.Api"><path d="M616.8,200.8694 C695.1,222.7294 820,257.6094 820,257.6094 C820,257.6094 852.1931,289.8025 876.1431,313.7525 " fill="none" id="ECommercePlatform.GenerateDemand.Storefront.SoftwareSystems.StorefrontBff-to-ECommercePlatform.GenerateDemand.OrderManagement.SoftwareSystems.OrderService.Containers.Api" style="stroke:#666666;stroke-width:1.0;"/><polygon fill="#666666" points="881.8,319.4094,878.2645,311.6312,874.0218,315.8738,881.8,319.4094" style="stroke:#666666;stroke-width:1.0;"/><text fill="#666666" font-family="sans-serif" font-size="12" font-weight="bold" lengthAdjust="spacing" textLength="29" x="789" y="246.0664">Uses</text></g><!--link ECommercePlatform.GenerateDemand.OrderManagement.SoftwareSystems.OrderService.Containers.Api to ECommercePlatform.GenerateDemand.OrderManagement.SoftwareSystems.OrderService.Containers.Database--><g id="link_ECommercePlatform.GenerateDemand.OrderManagement.SoftwareSystems.OrderService.Containers.Api_ECommercePlatform.GenerateDemand.OrderManagement.SoftwareSystems.OrderService.Containers.Database"><path d="M899.83,359.6894 C898.99,373.4494 898,389.6094 898,389.6094 C898,389.6094 898,406.6094 898,406.6094 C898,406.6094 908.9516,432.9812 919.9616,459.4912 " fill="none" id="ECommercePlatform.GenerateDemand.OrderManagement.SoftwareSystems.OrderService.Containers.Api-to-ECommercePlatform.GenerateDemand.OrderManagement.SoftwareSystems.OrderService.Containers.Database" style="stroke:#666666;stroke-width:1.0;"/><polygon fill="#666666" points="923.03,466.8794,922.7321,458.3406,917.191,460.6419,923.03,466.8794" style="stroke:#666666;stroke-width:1.0;"/><text fill="#666666" font-family="sans-serif" font-size="12" font-weight="bold" lengthAdjust="spacing" textLength="29" x="899" y="403.0664">Uses</text></g><!--link ECommercePlatform.GenerateDemand.OrderManagement.SoftwareSystems.OrderService.Containers.Api to ECommercePlatform.GenerateDemand.OrderManagement.SoftwareSystems.OrderService.Containers.Messaging--><g id="link_ECommercePlatform.GenerateDemand.OrderManagement.SoftwareSystems.OrderService.Containers.Api_ECommercePlatform.GenerateDemand.OrderManagement.SoftwareSystems.OrderService.Containers.Messaging"><path d="M922.69,359.6994 C944.84,379.1894 976,406.6094 976,406.6094 C976,406.6094 999,414.6094 999,414.6094 C999,414.6094 1029.9853,446.1608 1054.2753,470.9008 " fill="none" id="ECommercePlatform.GenerateDemand.OrderManagement.SoftwareSystems.OrderService.Containers.Api-to-ECommercePlatform.GenerateDemand.OrderManagement.SoftwareSystems.OrderService.Containers.Messaging" style="stroke:#666666;stroke-width:1.0;"/><polygon fill="#666666" points="1059.88,476.6094,1056.416,468.7991,1052.1346,473.0026,1059.88,476.6094" style="stroke:#666666;stroke-width:1.0;"/><text fill="#666666" font-family="sans-serif" font-size="12" font-weight="bold" lengthAdjust="spacing" textLength="29" x="977" y="403.0664">Uses</text></g><!--link ECommercePlatform.GenerateDemand.OrderManagement.SoftwareSystems.OrderService.Containers.MessageHandler to ECommercePlatform.Deliver.FraudManagement.SoftwareSystems.FraudService.Containers.Messaging--><g id="link_ECommercePlatform.GenerateDemand.OrderManagement.SoftwareSystems.OrderService.Containers.MessageHandler_ECommercePlatform.Deliver.FraudManagement.SoftwareSystems.FraudService.Containers.Messaging"><path d="M1092.69,359.6694 C1119.95,381.5894 1161,414.6094 1161,414.6094 C1161,414.6094 1196.126,446.493 1223.386,471.233 " fill="none" id="ECommercePlatform.GenerateDemand.OrderManagement.SoftwareSystems.OrderService.Containers.MessageHandler-to-ECommercePlatform.Deliver.FraudManagement.SoftwareSystems.FraudService.Containers.Messaging" style="stroke:#666666;stroke-width:1.0;"/><polygon fill="#666666" points="1229.31,476.6094,1225.4021,469.0115,1221.3698,473.4545,1229.31,476.6094" style="stroke:#666666;stroke-width:1.0;"/><text fill="#666666" font-family="sans-serif" font-size="12" font-weight="bold" lengthAdjust="spacing" textLength="29" x="1151" y="403.0664">Uses</text></g><!--link ECommercePlatform.GenerateDemand.OrderManagement.SoftwareSystems.OrderService.Containers.MessageHandler to ECommercePlatform.GenerateDemand.OrderManagement.SoftwareSystems.OrderService.Containers.Database--><g id="link_ECommercePlatform.GenerateDemand.OrderManagement.SoftwareSystems.OrderService.Containers.MessageHandler_ECommercePlatform.GenerateDemand.OrderManagement.SoftwareSystems.OrderService.Containers.Database"><path d="M1052.69,359.9194 C1030.15,386.6194 994.371,428.9868 967.471,460.8468 " fill="none" id="ECommercePlatform.GenerateDemand.OrderManagement.SoftwareSystems.OrderService.Containers.MessageHandler-to-ECommercePlatform.GenerateDemand.OrderManagement.SoftwareSystems.OrderService.Containers.Database" style="stroke:#666666;stroke-width:1.0;"/><polygon fill="#666666" points="962.31,466.9594,969.7632,462.7821,965.1788,458.9114,962.31,466.9594" style="stroke:#666666;stroke-width:1.0;"/><text fill="#666666" font-family="sans-serif" font-size="12" font-weight="bold" lengthAdjust="spacing" textLength="29" x="1027" y="403.0664">Uses</text></g><!--link ECommercePlatform.GenerateDemand.OrderManagement.SoftwareSystems.OrderService.Containers.MessageHandler to ECommercePlatform.GenerateDemand.OrderManagement.SoftwareSystems.OrderService.Containers.Messaging--><g id="link_ECommercePlatform.GenerateDemand.OrderManagement.SoftwareSystems.OrderService.Containers.MessageHandler_ECommercePlatform.GenerateDemand.OrderManagement.SoftwareSystems.OrderService.Containers.Messaging"><path d="M1071.34,359.6894 C1073.02,373.4494 1075,389.6094 1075,389.6094 C1075,389.6094 1077.6085,436.7616 1079.3585,468.4216 " fill="none" id="ECommercePlatform.GenerateDemand.OrderManagement.SoftwareSystems.OrderService.Containers.MessageHandler-to-ECommercePlatform.GenerateDemand.OrderManagement.SoftwareSystems.OrderService.Containers.Messaging" style="stroke:#666666;stroke-width:1.0;"/><polygon fill="#666666" points="1079.8,476.4094,1082.3539,468.256,1076.363,468.5871,1079.8,476.4094" style="stroke:#666666;stroke-width:1.0;"/><text fill="#666666" font-family="sans-serif" font-size="12" font-weight="bold" lengthAdjust="spacing" textLength="29" x="1077" y="403.0664">Uses</text></g><!--link ECommercePlatform.GenerateDemand.OrderManagement.SoftwareSystems.OrderService.Containers.MessageHandler to ECommercePlatform.Deliver.Payments.SoftwareSystems.PaymentService.Containers.Messaging--><g id="link_ECommercePlatform.GenerateDemand.OrderManagement.SoftwareSystems.OrderService.Containers.MessageHandler_ECommercePlatform.Deliver.Payments.SoftwareSystems.PaymentService.Containers.Messaging"><path d="M1133.9,359.6694 C1208.56,381.5894 1321,414.6094 1321,414.6094 C1321,414.6094 1356.126,446.493 1383.386,471.233 " fill="none" id="ECommercePlatform.GenerateDemand.OrderManagement.SoftwareSystems.OrderService.Containers.MessageHandler-to-ECommercePlatform.Deliver.Payments.SoftwareSystems.PaymentService.Containers.Messaging" style="stroke:#666666;stroke-width:1.0;"/><polygon fill="#666666" points="1389.31,476.6094,1385.4021,469.0115,1381.3698,473.4545,1389.31,476.6094" style="stroke:#666666;stroke-width:1.0;"/><text fill="#666666" font-family="sans-serif" font-size="12" font-weight="bold" lengthAdjust="spacing" textLength="29" x="1291" y="403.0664">Uses</text></g><!--link ECommercePlatform.GenerateDemand.OrderManagement.SoftwareSystems.OrderService.Containers.MessageHandler to ECommercePlatform.Deliver.Fulfilment.SoftwareSystems.FulfilmentService.Containers.Messaging--><g id="link_ECommercePlatform.GenerateDemand.OrderManagement.SoftwareSystems.OrderService.Containers.MessageHandler_ECommercePlatform.Deliver.Fulfilment.SoftwareSystems.FulfilmentService.Containers.Messaging"><path d="M1145.05,354.2694 C1264.09,375.6494 1481,414.6094 1481,414.6094 C1481,414.6094 1519.4792,446.742 1549.1092,471.482 " fill="none" id="ECommercePlatform.GenerateDemand.OrderManagement.SoftwareSystems.OrderService.Containers.MessageHandler-to-ECommercePlatform.Deliver.Fulfilment.SoftwareSystems.FulfilmentService.Containers.Messaging" style="stroke:#666666;stroke-width:1.0;"/><polygon fill="#666666" points="1555.25,476.6094,1551.0319,469.1792,1547.1864,473.7848,1555.25,476.6094" style="stroke:#666666;stroke-width:1.0;"/><text fill="#666666" font-family="sans-serif" font-size="12" font-weight="bold" lengthAdjust="spacing" textLength="29" x="1430" y="403.0664">Uses</text></g><!--link ECommercePlatform.GenerateDemand.SearchAndBrowse.SoftwareSystems.SearchService.Containers.MessageHandler to ECommercePlatform.CreateProduct.PriceManagement.SoftwareSystems.PricingService.Containers.Messaging--><g id="link_ECommercePlatform.GenerateDemand.SearchAndBrowse.SoftwareSystems.SearchService.Containers.MessageHandler_ECommercePlatform.CreateProduct.PriceManagement.SoftwareSystems.PricingService.Containers.Messaging"><path d="M395.87,359.6894 C436.86,373.4494 485,389.6094 485,389.6094 C485,389.6094 539.5687,439.359 574.2887,471.019 " fill="none" id="ECommercePlatform.GenerateDemand.SearchAndBrowse.SoftwareSystems.SearchService.Containers.MessageHandler-to-ECommercePlatform.CreateProduct.PriceManagement.SoftwareSystems.PricingService.Containers.Messaging" style="stroke:#666666;stroke-width:1.0;"/><polygon fill="#666666" points="580.2,476.4094,576.31,468.8023,572.2673,473.2358,580.2,476.4094" style="stroke:#666666;stroke-width:1.0;"/><text fill="#666666" font-family="sans-serif" font-size="12" font-weight="bold" lengthAdjust="spacing" textLength="29" x="504" y="403.0664">Uses</text></g><!--link ECommercePlatform.GenerateDemand.SearchAndBrowse.SoftwareSystems.SearchService.Containers.MessageHandler to ECommercePlatform.GenerateDemand.SearchAndBrowse.SoftwareSystems.SearchService.Containers.Database--><g id="link_ECommercePlatform.GenerateDemand.SearchAndBrowse.SoftwareSystems.SearchService.Containers.MessageHandler_ECommercePlatform.GenerateDemand.SearchAndBrowse.SoftwareSystems.SearchService.Containers.Database"><path d="M345.01,359.9194 C353.31,386.6194 366.0239,427.4604 375.9339,459.3204 " fill="none" id="ECommercePlatform.GenerateDemand.SearchAndBrowse.SoftwareSystems.SearchService.Containers.MessageHandler-to-ECommercePlatform.GenerateDemand.SearchAndBrowse.SoftwareSystems.SearchService.Containers.Database" style="stroke:#666666;stroke-width:1.0;"/><polygon fill="#666666" points="378.31,466.9594,378.7985,458.4293,373.0693,460.2114,378.31,466.9594" style="stroke:#666666;stroke-width:1.0;"/><text fill="#666666" font-family="sans-serif" font-size="12" font-weight="bold" lengthAdjust="spacing" textLength="29" x="361" y="403.0664">Uses</text></g><!--link ECommercePlatform.GenerateDemand.SearchAndBrowse.SoftwareSystems.SearchService.Containers.MessageHandler to ECommercePlatform.CreateProduct.ProductInformationManagement.SoftwareSystems.ProductService.Containers.Messaging--><g id="link_ECommercePlatform.GenerateDemand.SearchAndBrowse.SoftwareSystems.SearchService.Containers.MessageHandler_ECommercePlatform.CreateProduct.ProductInformationManagement.SoftwareSystems.ProductService.Containers.Messaging"><path d="M315.31,359.6694 C288.05,381.5894 247,414.6094 247,414.6094 C247,414.6094 211.874,446.493 184.614,471.233 " fill="none" id="ECommercePlatform.GenerateDemand.SearchAndBrowse.SoftwareSystems.SearchService.Containers.MessageHandler-to-ECommercePlatform.CreateProduct.ProductInformationManagement.SoftwareSystems.ProductService.Containers.Messaging" style="stroke:#666666;stroke-width:1.0;"/><polygon fill="#666666" points="178.69,476.6094,186.6302,473.4545,182.5979,469.0115,178.69,476.6094" style="stroke:#666666;stroke-width:1.0;"/><text fill="#666666" font-family="sans-serif" font-size="12" font-weight="bold" lengthAdjust="spacing" textLength="29" x="278" y="403.0664">Uses</text></g><rect fill="none" height="17.6094" style="stroke:none;stroke-width:1.0;" width="182" x="1458" y="714.1094"/><text fill="#000000" font-family="sans-serif" font-size="14" font-weight="bold" lengthAdjust="spacing" textLength="53" x="1458" y="728.6426">Legend</text><text fill="#FFFFFF" font-family="sans-serif" font-size="14" lengthAdjust="spacing" textLength="4" x="1511" y="728.6426">&#160;</text><rect fill="#1168BD" height="17.6094" style="stroke:none;stroke-width:1.0;" width="182" x="1458" y="731.7188"/><text fill="#3C7FC0" font-family="sans-serif" font-size="14" lengthAdjust="spacing" textLength="14" x="1462" y="746.252">&#9647;</text><text fill="#FFFFFF" font-family="sans-serif" font-size="14" lengthAdjust="spacing" textLength="4" x="1476" y="746.252">&#160;</text><text fill="#FFFFFF" font-family="sans-serif" font-size="14" lengthAdjust="spacing" textLength="44" x="1484" y="746.252">system</text><text fill="#FFFFFF" font-family="sans-serif" font-size="14" lengthAdjust="spacing" textLength="4" x="1532" y="746.252">&#160;</text><rect fill="#438DD5" height="17.6094" style="stroke:none;stroke-width:1.0;" width="182" x="1458" y="749.3281"/><text fill="#3C7FC0" font-family="sans-serif" font-size="14" lengthAdjust="spacing" textLength="14" x="1462" y="763.8613">&#9647;</text><text fill="#FFFFFF" font-family="sans-serif" font-size="14" lengthAdjust="spacing" textLength="4" x="1476" y="763.8613">&#160;</text><text fill="#FFFFFF" font-family="sans-serif" font-size="14" lengthAdjust="spacing" textLength="59" x="1484" y="763.8613">container</text><text fill="#FFFFFF" font-family="sans-serif" font-size="14" lengthAdjust="spacing" textLength="4" x="1547" y="763.8613">&#160;</text><rect fill="none" height="17.6094" style="stroke:none;stroke-width:1.0;" width="182" x="1458" y="766.9375"/><text fill="#444444" font-family="sans-serif" font-size="14" lengthAdjust="spacing" textLength="14" x="1462" y="781.4707">&#9647;</text><text fill="#FFFFFF" font-family="sans-serif" font-size="14" lengthAdjust="spacing" textLength="4" x="1476" y="781.4707">&#160;</text><text fill="#444444" font-family="sans-serif" font-size="14" lengthAdjust="spacing" textLength="108" x="1484" y="781.4707">system boundary</text><text fill="#444444" font-family="sans-serif" font-size="10" lengthAdjust="spacing" textLength="40" x="1596" y="782.3496">(dashed)</text><text fill="#FFFFFF" font-family="sans-serif" font-size="14" lengthAdjust="spacing" textLength="4" x="1636" y="781.4707">&#160;</text><line style="stroke:none;stroke-width:1.0;" x1="1458" x2="1640" y1="714.1094" y2="714.1094"/><line style="stroke:none;stroke-width:1.0;" x1="1458" x2="1640" y1="731.7188" y2="731.7188"/><line style="stroke:none;stroke-width:1.0;" x1="1458" x2="1640" y1="749.3281" y2="749.3281"/><line style="stroke:none;stroke-width:1.0;" x1="1458" x2="1640" y1="766.9375" y2="766.9375"/><line style="stroke:none;stroke-width:1.0;" x1="1458" x2="1640" y1="784.5469" y2="784.5469"/><line style="stroke:none;stroke-width:1.0;" x1="1458" x2="1458" y1="714.1094" y2="784.5469"/><line style="stroke:none;stroke-width:1.0;" x1="1640" x2="1640" y1="714.1094" y2="784.5469"/><!--SRC=[rLdRRk8m47tdAxpPVG2fcoUUAlM1MozIMrYWgbQgXDnaGgCwTcGxi6Yr_xxEXIH0ItClHLM9nsREp9b3CYE-sTGWdWb8rv_yFwChdWRTnO1HYMqAN7SzXxHQFTCS4N20oZbUjZMZQrC9t29iVKvi2uoDGU2SmbexGp-UbmD66BzOSW2grfRo5Lg-My7BFyEu2Nptd7Z19blRT7cXNM8YGEjaWpLUC5s2cOPct3Tbm8uF5WNduB3LBZW7CmDoUEeDM1zt2kHZdYNyaRiC4bMnbANpiQiKTucxc9J4NsZAu335H-8mp3NnfjOgpzdr-74n6Krdu_l5P3oTJtitytQdTTlxFNwOB-RZoM8uVhnNbfPujQcBENQGxqDkN40k8nj_qMf9Mn908pHWZWFS03GXM5gCE-WdkW8bOIm13S71r5IMGHVD99QsuLzlHOu8h42fVBOH4fpsQEjgwqdV-WdTw3F9E5XSVLoVCKkkCOVmeoArrNFTCwGbQwGCYXPDbRXIdBulhJIECaGu4T2YppngOhvv0t70GU5DE3CzG-hH-mtrznHBZDvXYfV1b-0WXEZm3FZADfHSjCY08elMGNzRIBrYdkl4rsCKeVTSMuMZ_WSyX5pi139yRYgK8PRu6GkVdksbjdUz7zml3pneAhux408lrGr81H9V-r7DcMiRKNZ_iYXfNxk0kV7IesQVixM0Gm47-ubumdKkxPH1B2-Ngj0BAAJ6Q48DmBLoGe37eW0KML8K5L557ujNEDHdQ4x44AxBY24BKEKQo0kQhVH5U1xxZSQH6qAmd_0TBClGdGUlSjgBWbTuRwueeantuuPAK_MTO0Z4Ngc1uf9ZppmIJx2VI3DOlY_DzmfI1AsUv-8saWdU-168muTpk97geq93yQGpGjMRxwL7B9kyJNgybQfpR2jHx1oGzII_twCfeADjcMqef7G77HZoCr06jmWJQWYiSaogSX9w421KaDL56BXjT78vca9zkCsFH4tLgjf98LVKfQ0QcJe-gGZ5ElGymHP2gBF9_oIcopNdUO8kXTH4d__raqa_ePl8PdyCgBVLFesClgRk6ilhT2LOSl0viUzJ1TDC8wtAnodLCPwSI6gVtP0rLxJAVs-8yen-2RmTNOtkX-tEVm00]--></g></svg>