<?xml version="1.0" encoding="us-ascii" standalone="no"?><svg xmlns="http://www.w3.org/2000/svg" xmlns:xlink="http://www.w3.org/1999/xlink" contentStyleType="text/css" height="312px" preserveAspectRatio="none" style="width:837px;height:312px;background:#FFFFFF;" version="1.1" viewBox="0 0 837 312" width="837px" zoomAndPan="magnify"><defs/><g><text fill="#000000" font-family="sans-serif" font-size="14" font-weight="bold" lengthAdjust="spacing" textLength="809" x="10" y="29.5332">ECommercePlatform - Order Service - Message Handler - Handle Order Shipped Event - Sequence - Container level</text><rect fill="#FFFFFF" height="262.3281" style="stroke:#181818;stroke-width:0.5;" width="342.5" x="260.5" y="44.6094"/><text fill="#000000" font-family="sans-serif" font-size="13" font-weight="bold" lengthAdjust="spacing" textLength="88" x="387.75" y="58.1045">Order Service</text><rect fill="#FFFFFF" height="262.3281" style="stroke:#181818;stroke-width:0.5;" width="122" x="605" y="44.6094"/><text fill="#000000" font-family="sans-serif" font-size="13" font-weight="bold" lengthAdjust="spacing" textLength="116" x="608" y="58.1045">Fulfilment Service</text><rect fill="none" height="109.4063" style="stroke:#000000;stroke-width:1.5;" width="462.5" x="254.5" y="144.9219"/><line style="stroke:#181818;stroke-width:0.5;stroke-dasharray:5.0,5.0;" x1="139" x2="139" y1="97.5703" y2="271.3281"/><line style="stroke:#181818;stroke-width:0.5;stroke-dasharray:5.0,5.0;" x1="326.5" x2="326.5" y1="97.5703" y2="271.3281"/><line style="stroke:#181818;stroke-width:0.5;stroke-dasharray:5.0,5.0;" x1="469" x2="469" y1="97.5703" y2="271.3281"/><line style="stroke:#181818;stroke-width:0.5;stroke-dasharray:5.0,5.0;" x1="558" x2="558" y1="97.5703" y2="271.3281"/><line style="stroke:#181818;stroke-width:0.5;stroke-dasharray:5.0,5.0;" x1="666" x2="666" y1="97.5703" y2="271.3281"/><rect fill="#E2E2F0" height="31.6094" rx="2.5" ry="2.5" style="stroke:#181818;stroke-width:0.5;" width="65" x="107" y="64.9609"/><text fill="#000000" font-family="sans-serif" font-size="14" lengthAdjust="spacing" textLength="51" x="114" y="86.4941">External</text><rect fill="#E2E2F0" height="31.6094" rx="2.5" ry="2.5" style="stroke:#181818;stroke-width:0.5;" width="65" x="107" y="270.3281"/><text fill="#000000" font-family="sans-serif" font-size="14" lengthAdjust="spacing" textLength="51" x="114" y="291.8613">External</text><rect fill="#E2E2F0" height="31.6094" rx="2.5" ry="2.5" style="stroke:#181818;stroke-width:0.5;" width="124" x="264.5" y="64.9609"/><text fill="#000000" font-family="sans-serif" font-size="14" lengthAdjust="spacing" textLength="110" x="271.5" y="86.4941">Message Handler</text><rect fill="#E2E2F0" height="31.6094" rx="2.5" ry="2.5" style="stroke:#181818;stroke-width:0.5;" width="124" x="264.5" y="270.3281"/><text fill="#000000" font-family="sans-serif" font-size="14" lengthAdjust="spacing" textLength="110" x="271.5" y="291.8613">Message Handler</text><rect fill="#E2E2F0" height="31.6094" rx="2.5" ry="2.5" style="stroke:#181818;stroke-width:0.5;" width="75" x="432" y="64.9609"/><text fill="#000000" font-family="sans-serif" font-size="14" lengthAdjust="spacing" textLength="61" x="439" y="86.4941">Database</text><rect fill="#E2E2F0" height="31.6094" rx="2.5" ry="2.5" style="stroke:#181818;stroke-width:0.5;" width="75" x="432" y="270.3281"/><text fill="#000000" font-family="sans-serif" font-size="14" lengthAdjust="spacing" textLength="61" x="439" y="291.8613">Database</text><rect fill="#E2E2F0" height="31.6094" rx="2.5" ry="2.5" style="stroke:#181818;stroke-width:0.5;" width="82" x="517" y="64.9609"/><text fill="#000000" font-family="sans-serif" font-size="14" lengthAdjust="spacing" textLength="68" x="524" y="86.4941">Messaging</text><rect fill="#E2E2F0" height="31.6094" rx="2.5" ry="2.5" style="stroke:#181818;stroke-width:0.5;" width="82" x="517" y="270.3281"/><text fill="#000000" font-family="sans-serif" font-size="14" lengthAdjust="spacing" textLength="68" x="524" y="291.8613">Messaging</text><rect fill="#E2E2F0" height="31.6094" rx="2.5" ry="2.5" style="stroke:#181818;stroke-width:0.5;" width="82" x="625" y="64.9609"/><text fill="#000000" font-family="sans-serif" font-size="14" lengthAdjust="spacing" textLength="68" x="632" y="86.4941">Messaging</text><rect fill="#E2E2F0" height="31.6094" rx="2.5" ry="2.5" style="stroke:#181818;stroke-width:0.5;" width="82" x="625" y="270.3281"/><text fill="#000000" font-family="sans-serif" font-size="14" lengthAdjust="spacing" textLength="68" x="632" y="291.8613">Messaging</text><polygon fill="#181818" points="314.5,125.9219,324.5,129.9219,314.5,133.9219,318.5,129.9219" style="stroke:#181818;stroke-width:1.0;"/><line style="stroke:#181818;stroke-width:1.0;" x1="139.5" x2="320.5" y1="129.9219" y2="129.9219"/><text fill="#000000" font-family="sans-serif" font-size="13" lengthAdjust="spacing" textLength="163" x="146.5" y="125.0654">Handle Order Shipped Event</text><path d="M254.5,144.9219 L480.5,144.9219 L480.5,153.2734 L470.5,163.2734 L254.5,163.2734 L254.5,144.9219 " fill="#EEEEEE" style="stroke:#000000;stroke-width:1.5;"/><rect fill="none" height="109.4063" style="stroke:#000000;stroke-width:1.5;" width="462.5" x="254.5" y="144.9219"/><text fill="#000000" font-family="sans-serif" font-size="13" font-weight="bold" lengthAdjust="spacing" textLength="181" x="269.5" y="159.417">Handle Order Shipped Event</text><polygon fill="#181818" points="654,181.625,664,185.625,654,189.625,658,185.625" style="stroke:#181818;stroke-width:1.0;"/><line style="stroke:#181818;stroke-width:1.0;" x1="326.5" x2="660" y1="185.625" y2="185.625"/><text fill="#000000" font-family="sans-serif" font-size="13" lengthAdjust="spacing" textLength="168" x="333.5" y="180.7686">Receive Order Shipped Event</text><polygon fill="#181818" points="457.5,211.9766,467.5,215.9766,457.5,219.9766,461.5,215.9766" style="stroke:#181818;stroke-width:1.0;"/><line style="stroke:#181818;stroke-width:1.0;" x1="326.5" x2="463.5" y1="215.9766" y2="215.9766"/><text fill="#000000" font-family="sans-serif" font-size="13" lengthAdjust="spacing" textLength="119" x="333.5" y="211.1201">Update Order Status</text><polygon fill="#181818" points="546,242.3281,556,246.3281,546,250.3281,550,246.3281" style="stroke:#181818;stroke-width:1.0;"/><line style="stroke:#181818;stroke-width:1.0;" x1="326.5" x2="552" y1="246.3281" y2="246.3281"/><text fill="#000000" font-family="sans-serif" font-size="13" lengthAdjust="spacing" textLength="199" x="333.5" y="241.4717">Send Order Status Changed Event</text><!--SRC=[pLBDJeGm4BxtAIPuXfCd3rwGZHwCHc8ypy80JKgBxS2kRsyN0NSbhYHos9uwcUdtrs79YY29JLsJpUXP8HV6rX32ayt9Gagsandv-f6SmvBW7dMkV2SSRkDW9Pk6SaWwqkoRARstfFkNiT6CKliXHHqf8HgqB3FPe9yCaZsJrQW2G0VnzOFsvKQPNPIQWdTeAVrmJBMBni6lMeYjsKDmeZA0gxTACWdmvuJaX_YUQsPwnjY33zZHvC950ze0DcUxGyOjEledpGZpcnsforMCU1n1EWSVg1XYtRIgaAe-VEN2R9UB-SPUg6ZvKa1ukzgtmisP1HUbDMrpRc0r6OiiBSlKMtgXZ6Ht2PB_sdelzhN9aIUjZDow2n5v76bwsDHZZH1NgCifLjyMuXC0]--></g></svg>