<?xml version="1.0" encoding="us-ascii" standalone="no"?><svg xmlns="http://www.w3.org/2000/svg" xmlns:xlink="http://www.w3.org/1999/xlink" contentStyleType="text/css" height="312px" preserveAspectRatio="none" style="width:682px;height:312px;background:#FFFFFF;" version="1.1" viewBox="0 0 682 312" width="682px" zoomAndPan="magnify"><defs/><g><text fill="#000000" font-family="sans-serif" font-size="14" font-weight="bold" lengthAdjust="spacing" textLength="654" x="10" y="29.5332">Order Service - Message Handler - Handle Order Shipped Event - Sequence - Container level</text><rect fill="#FFFFFF" height="262.3281" style="stroke:#181818;stroke-width:0.5;" width="342.5" x="183" y="44.6094"/><text fill="#000000" font-family="sans-serif" font-size="13" font-weight="bold" lengthAdjust="spacing" textLength="88" x="310.25" y="58.1045">Order Service</text><rect fill="#FFFFFF" height="262.3281" style="stroke:#181818;stroke-width:0.5;" width="122" x="527.5" y="44.6094"/><text fill="#000000" font-family="sans-serif" font-size="13" font-weight="bold" lengthAdjust="spacing" textLength="116" x="530.5" y="58.1045">Fulfilment Service</text><rect fill="none" height="109.4063" style="stroke:#000000;stroke-width:1.5;" width="462.5" x="177" y="144.9219"/><line style="stroke:#181818;stroke-width:0.5;stroke-dasharray:5.0,5.0;" x1="61.5" x2="61.5" y1="97.5703" y2="271.3281"/><line style="stroke:#181818;stroke-width:0.5;stroke-dasharray:5.0,5.0;" x1="249" x2="249" y1="97.5703" y2="271.3281"/><line style="stroke:#181818;stroke-width:0.5;stroke-dasharray:5.0,5.0;" x1="391.5" x2="391.5" y1="97.5703" y2="271.3281"/><line style="stroke:#181818;stroke-width:0.5;stroke-dasharray:5.0,5.0;" x1="480.5" x2="480.5" y1="97.5703" y2="271.3281"/><line style="stroke:#181818;stroke-width:0.5;stroke-dasharray:5.0,5.0;" x1="588.5" x2="588.5" y1="97.5703" y2="271.3281"/><rect fill="#E2E2F0" height="31.6094" rx="2.5" ry="2.5" style="stroke:#181818;stroke-width:0.5;" width="65" x="29.5" y="64.9609"/><text fill="#000000" font-family="sans-serif" font-size="14" lengthAdjust="spacing" textLength="51" x="36.5" y="86.4941">External</text><rect fill="#E2E2F0" height="31.6094" rx="2.5" ry="2.5" style="stroke:#181818;stroke-width:0.5;" width="65" x="29.5" y="270.3281"/><text fill="#000000" font-family="sans-serif" font-size="14" lengthAdjust="spacing" textLength="51" x="36.5" y="291.8613">External</text><rect fill="#E2E2F0" height="31.6094" rx="2.5" ry="2.5" style="stroke:#181818;stroke-width:0.5;" width="124" x="187" y="64.9609"/><text fill="#000000" font-family="sans-serif" font-size="14" lengthAdjust="spacing" textLength="110" x="194" y="86.4941">Message Handler</text><rect fill="#E2E2F0" height="31.6094" rx="2.5" ry="2.5" style="stroke:#181818;stroke-width:0.5;" width="124" x="187" y="270.3281"/><text fill="#000000" font-family="sans-serif" font-size="14" lengthAdjust="spacing" textLength="110" x="194" y="291.8613">Message Handler</text><rect fill="#E2E2F0" height="31.6094" rx="2.5" ry="2.5" style="stroke:#181818;stroke-width:0.5;" width="75" x="354.5" y="64.9609"/><text fill="#000000" font-family="sans-serif" font-size="14" lengthAdjust="spacing" textLength="61" x="361.5" y="86.4941">Database</text><rect fill="#E2E2F0" height="31.6094" rx="2.5" ry="2.5" style="stroke:#181818;stroke-width:0.5;" width="75" x="354.5" y="270.3281"/><text fill="#000000" font-family="sans-serif" font-size="14" lengthAdjust="spacing" textLength="61" x="361.5" y="291.8613">Database</text><rect fill="#E2E2F0" height="31.6094" rx="2.5" ry="2.5" style="stroke:#181818;stroke-width:0.5;" width="82" x="439.5" y="64.9609"/><text fill="#000000" font-family="sans-serif" font-size="14" lengthAdjust="spacing" textLength="68" x="446.5" y="86.4941">Messaging</text><rect fill="#E2E2F0" height="31.6094" rx="2.5" ry="2.5" style="stroke:#181818;stroke-width:0.5;" width="82" x="439.5" y="270.3281"/><text fill="#000000" font-family="sans-serif" font-size="14" lengthAdjust="spacing" textLength="68" x="446.5" y="291.8613">Messaging</text><rect fill="#E2E2F0" height="31.6094" rx="2.5" ry="2.5" style="stroke:#181818;stroke-width:0.5;" width="82" x="547.5" y="64.9609"/><text fill="#000000" font-family="sans-serif" font-size="14" lengthAdjust="spacing" textLength="68" x="554.5" y="86.4941">Messaging</text><rect fill="#E2E2F0" height="31.6094" rx="2.5" ry="2.5" style="stroke:#181818;stroke-width:0.5;" width="82" x="547.5" y="270.3281"/><text fill="#000000" font-family="sans-serif" font-size="14" lengthAdjust="spacing" textLength="68" x="554.5" y="291.8613">Messaging</text><polygon fill="#181818" points="237,125.9219,247,129.9219,237,133.9219,241,129.9219" style="stroke:#181818;stroke-width:1.0;"/><line style="stroke:#181818;stroke-width:1.0;" x1="62" x2="243" y1="129.9219" y2="129.9219"/><text fill="#000000" font-family="sans-serif" font-size="13" lengthAdjust="spacing" textLength="163" x="69" y="125.0654">Handle Order Shipped Event</text><path d="M177,144.9219 L403,144.9219 L403,153.2734 L393,163.2734 L177,163.2734 L177,144.9219 " fill="#EEEEEE" style="stroke:#000000;stroke-width:1.5;"/><rect fill="none" height="109.4063" style="stroke:#000000;stroke-width:1.5;" width="462.5" x="177" y="144.9219"/><text fill="#000000" font-family="sans-serif" font-size="13" font-weight="bold" lengthAdjust="spacing" textLength="181" x="192" y="159.417">Handle Order Shipped Event</text><polygon fill="#181818" points="576.5,181.625,586.5,185.625,576.5,189.625,580.5,185.625" style="stroke:#181818;stroke-width:1.0;"/><line style="stroke:#181818;stroke-width:1.0;" x1="249" x2="582.5" y1="185.625" y2="185.625"/><text fill="#000000" font-family="sans-serif" font-size="13" lengthAdjust="spacing" textLength="168" x="256" y="180.7686">Receive Order Shipped Event</text><polygon fill="#181818" points="380,211.9766,390,215.9766,380,219.9766,384,215.9766" style="stroke:#181818;stroke-width:1.0;"/><line style="stroke:#181818;stroke-width:1.0;" x1="249" x2="386" y1="215.9766" y2="215.9766"/><text fill="#000000" font-family="sans-serif" font-size="13" lengthAdjust="spacing" textLength="119" x="256" y="211.1201">Update Order Status</text><polygon fill="#181818" points="468.5,242.3281,478.5,246.3281,468.5,250.3281,472.5,246.3281" style="stroke:#181818;stroke-width:1.0;"/><line style="stroke:#181818;stroke-width:1.0;" x1="249" x2="474.5" y1="246.3281" y2="246.3281"/><text fill="#000000" font-family="sans-serif" font-size="13" lengthAdjust="spacing" textLength="199" x="256" y="241.4717">Send Order Status Changed Event</text><!--SRC=[pL8xJyCm4DxzAuum9nCJ0qje1GC24I7cQt9DBFc5VKdRVuyRqj9IKIAHePbitPVlvRjo7ckDe71ZMuQWYT6W42nP4JpxYZmKv3jP4gJmH25WJV20fb9naWwd7R2Hpb45iuuCns517osP_i_S6aPf8aXHHqe8XvvbAHr6P39RCtc3AW4CaDyycdYTAxlA2hla5NegDe59Xsm7_BeBiR1hI8vS9d3ztaWc0V4x4lbXljUQvLPhyYMzAEIbzVf4iISVkBDzYf0DR0FPgTezCYumq3zbTZI_nP6cdYH8v15aAeY5Yg7MUQkMKkdjKuxiThoPR-wHZiOl1QHtapqht9vPS55xsxfpWCbiZ8eqhjCOwPLAajqbMFvhwwFPDrSXxxqoSXiknEHXfSLsKmyzGjwWgVUrnh4Gdm00]--></g></svg>