<?xml version="1.0" encoding="us-ascii" standalone="no"?><svg xmlns="http://www.w3.org/2000/svg" xmlns:xlink="http://www.w3.org/1999/xlink" contentStyleType="text/css" height="433px" preserveAspectRatio="none" style="width:618px;height:433px;background:#FFFFFF;" version="1.1" viewBox="0 0 618 433" width="618px" zoomAndPan="magnify"><defs/><g><text fill="#000000" font-family="sans-serif" font-size="14" font-weight="bold" lengthAdjust="spacing" textLength="558" x="23" y="24.5332">E Commerce Platform - Deliver - Fraud Management - C4 Static - Container level</text><!--cluster ECommercePlatform.Deliver.FraudManagement.SoftwareSystems.FraudService--><g id="cluster_ECommercePlatform.Deliver.FraudManagement.SoftwareSystems.FraudService"><rect fill="none" height="266.5" rx="2.5" ry="2.5" style="stroke:#444444;stroke-width:1.0;stroke-dasharray:7.0,7.0;" width="311" x="7" y="45.6094"/><text fill="#444444" font-family="sans-serif" font-size="16" font-weight="bold" lengthAdjust="spacing" textLength="106" x="109.5" y="64.2188">Fraud Service</text><text fill="#444444" font-family="sans-serif" font-size="12" font-weight="bold" lengthAdjust="spacing" textLength="51" x="137" y="80.1914">[System]</text></g><!--cluster ECommercePlatform.GenerateDemand.OrderManagement.SoftwareSystems.OrderService--><g id="cluster_ECommercePlatform.GenerateDemand.OrderManagement.SoftwareSystems.OrderService"><rect fill="none" height="100" rx="2.5" ry="2.5" style="stroke:#444444;stroke-width:1.0;stroke-dasharray:7.0,7.0;" width="136" x="476" y="202.6094"/><text fill="#444444" font-family="sans-serif" font-size="16" font-weight="bold" lengthAdjust="spacing" textLength="104" x="492" y="221.2188">Order Service</text><text fill="#444444" font-family="sans-serif" font-size="12" font-weight="bold" lengthAdjust="spacing" textLength="51" x="518.5" y="237.1914">[System]</text></g><!--entity ECommercePlatform.Deliver.FraudManagement.SoftwareSystems.FraudService.Containers.Api--><g id="elem_ECommercePlatform.Deliver.FraudManagement.SoftwareSystems.FraudService.Containers.Api"><rect fill="#438DD5" height="40.125" rx="2.5" ry="2.5" style="stroke:#3C7FC0;stroke-width:0.5;" width="45" x="52.5" y="99.6094"/><text fill="#FFFFFF" font-family="sans-serif" font-size="16" font-weight="bold" lengthAdjust="spacing" textLength="25" x="62.5" y="126.2188">Api</text></g><!--entity ECommercePlatform.Deliver.FraudManagement.SoftwareSystems.FraudService.Containers.Database--><g id="elem_ECommercePlatform.Deliver.FraudManagement.SoftwareSystems.FraudService.Containers.Database"><path d="M46,257.1094 C46,247.1094 92,247.1094 92,247.1094 C92,247.1094 138,247.1094 138,257.1094 L138,286.2344 C138,296.2344 92,296.2344 92,296.2344 C92,296.2344 46,296.2344 46,286.2344 L46,257.1094 " fill="#438DD5" style="stroke:#3C7FC0;stroke-width:0.5;"/><path d="M46,257.1094 C46,267.1094 92,267.1094 92,267.1094 C92,267.1094 138,267.1094 138,257.1094 " fill="none" style="stroke:#3C7FC0;stroke-width:0.5;"/><text fill="#FFFFFF" font-family="sans-serif" font-size="16" font-weight="bold" lengthAdjust="spacing" textLength="72" x="56" y="287.7188">Database</text></g><!--entity ECommercePlatform.Deliver.FraudManagement.SoftwareSystems.FraudService.Containers.Messaging--><g id="elem_ECommercePlatform.Deliver.FraudManagement.SoftwareSystems.FraudService.Containers.Messaging"><path d="M189.5,256.6094 L282.5,256.6094 C287.5,256.6094 287.5,271.6719 287.5,271.6719 C287.5,271.6719 287.5,286.7344 282.5,286.7344 L189.5,286.7344 C184.5,286.7344 184.5,271.6719 184.5,271.6719 C184.5,271.6719 184.5,256.6094 189.5,256.6094 " fill="#438DD5" style="stroke:#3C7FC0;stroke-width:0.5;"/><path d="M282.5,256.6094 C277.5,256.6094 277.5,271.6719 277.5,271.6719 C277.5,286.7344 282.5,286.7344 282.5,286.7344 " fill="none" style="stroke:#3C7FC0;stroke-width:0.5;"/><text fill="#FFFFFF" font-family="sans-serif" font-size="16" font-weight="bold" lengthAdjust="spacing" textLength="83" x="189.5" y="278.2188">Messaging</text></g><!--entity ECommercePlatform.Deliver.FraudManagement.SoftwareSystems.FraudService.Containers.MessageHandler--><g id="elem_ECommercePlatform.Deliver.FraudManagement.SoftwareSystems.FraudService.Containers.MessageHandler"><rect fill="#438DD5" height="40.125" rx="2.5" ry="2.5" style="stroke:#3C7FC0;stroke-width:0.5;" width="152" x="150" y="99.6094"/><text fill="#FFFFFF" font-family="sans-serif" font-size="16" font-weight="bold" lengthAdjust="spacing" textLength="68" x="160" y="126.2188">Message</text><text fill="#FFFFFF" font-family="sans-serif" font-size="16" font-weight="bold" lengthAdjust="spacing" textLength="4" x="228" y="126.2188">&#160;</text><text fill="#FFFFFF" font-family="sans-serif" font-size="16" font-weight="bold" lengthAdjust="spacing" textLength="60" x="232" y="126.2188">Handler</text></g><!--entity ECommercePlatform.GenerateDemand.OrderManagement.SoftwareSystems.OrderService.Containers.Messaging--><g id="elem_ECommercePlatform.GenerateDemand.OrderManagement.SoftwareSystems.OrderService.Containers.Messaging"><path d="M497.5,256.6094 L590.5,256.6094 C595.5,256.6094 595.5,271.6719 595.5,271.6719 C595.5,271.6719 595.5,286.7344 590.5,286.7344 L497.5,286.7344 C492.5,286.7344 492.5,271.6719 492.5,271.6719 C492.5,271.6719 492.5,256.6094 497.5,256.6094 " fill="#438DD5" style="stroke:#3C7FC0;stroke-width:0.5;"/><path d="M590.5,256.6094 C585.5,256.6094 585.5,271.6719 585.5,271.6719 C585.5,286.7344 590.5,286.7344 590.5,286.7344 " fill="none" style="stroke:#3C7FC0;stroke-width:0.5;"/><text fill="#FFFFFF" font-family="sans-serif" font-size="16" font-weight="bold" lengthAdjust="spacing" textLength="83" x="497.5" y="278.2188">Messaging</text></g><!--entity ECommercePlatform.Deliver.FraudManagement.SoftwareSystems.FraudEngine--><g id="elem_ECommercePlatform.Deliver.FraudManagement.SoftwareSystems.FraudEngine"><rect fill="#1168BD" height="40.125" rx="2.5" ry="2.5" style="stroke:#3C7FC0;stroke-width:0.5;" width="123" x="334.5" y="251.6094"/><text fill="#FFFFFF" font-family="sans-serif" font-size="16" font-weight="bold" lengthAdjust="spacing" textLength="45" x="344.5" y="278.2188">Fraud</text><text fill="#FFFFFF" font-family="sans-serif" font-size="16" font-weight="bold" lengthAdjust="spacing" textLength="4" x="389.5" y="278.2188">&#160;</text><text fill="#FFFFFF" font-family="sans-serif" font-size="16" font-weight="bold" lengthAdjust="spacing" textLength="54" x="393.5" y="278.2188">Engine</text></g><!--link ECommercePlatform.Deliver.FraudManagement.SoftwareSystems.FraudService.Containers.Api to ECommercePlatform.Deliver.FraudManagement.SoftwareSystems.FraudService.Containers.Database--><g id="link_ECommercePlatform.Deliver.FraudManagement.SoftwareSystems.FraudService.Containers.Api_ECommercePlatform.Deliver.FraudManagement.SoftwareSystems.FraudService.Containers.Database"><path d="M67.21,139.6894 C61.59,153.4494 55,169.6094 55,169.6094 C55,169.6094 55,186.6094 55,186.6094 C55,186.6094 67.3344,214.6085 78.2744,239.4385 " fill="none" id="ECommercePlatform.Deliver.FraudManagement.SoftwareSystems.FraudService.Containers.Api-to-ECommercePlatform.Deliver.FraudManagement.SoftwareSystems.FraudService.Containers.Database" style="stroke:#666666;stroke-width:1.0;"/><polygon fill="#666666" points="81.5,246.7594,81.0198,238.2289,75.5291,240.6481,81.5,246.7594" style="stroke:#666666;stroke-width:1.0;"/><text fill="#666666" font-family="sans-serif" font-size="12" font-weight="bold" lengthAdjust="spacing" textLength="29" x="56" y="183.0664">Uses</text></g><!--link ECommercePlatform.Deliver.FraudManagement.SoftwareSystems.FraudService.Containers.Api to ECommercePlatform.Deliver.FraudManagement.SoftwareSystems.FraudService.Containers.Messaging--><g id="link_ECommercePlatform.Deliver.FraudManagement.SoftwareSystems.FraudService.Containers.Api_ECommercePlatform.Deliver.FraudManagement.SoftwareSystems.FraudService.Containers.Messaging"><path d="M91.78,139.6994 C108.91,159.1894 133,186.6094 133,186.6094 C133,186.6094 155,194.6094 155,194.6094 C155,194.6094 191.4657,228.8257 214.9257,250.8357 " fill="none" id="ECommercePlatform.Deliver.FraudManagement.SoftwareSystems.FraudService.Containers.Api-to-ECommercePlatform.Deliver.FraudManagement.SoftwareSystems.FraudService.Containers.Messaging" style="stroke:#666666;stroke-width:1.0;"/><polygon fill="#666666" points="220.76,256.3094,216.9783,248.6478,212.8731,253.0236,220.76,256.3094" style="stroke:#666666;stroke-width:1.0;"/><text fill="#666666" font-family="sans-serif" font-size="12" font-weight="bold" lengthAdjust="spacing" textLength="29" x="134" y="183.0664">Uses</text></g><!--link ECommercePlatform.Deliver.FraudManagement.SoftwareSystems.FraudService.Containers.MessageHandler to ECommercePlatform.GenerateDemand.OrderManagement.SoftwareSystems.OrderService.Containers.Messaging--><g id="link_ECommercePlatform.Deliver.FraudManagement.SoftwareSystems.FraudService.Containers.MessageHandler_ECommercePlatform.GenerateDemand.OrderManagement.SoftwareSystems.OrderService.Containers.Messaging"><path d="M290.12,139.6694 C363.9,161.5894 475,194.6094 475,194.6094 C475,194.6094 505.6514,228.3773 525.6414,250.3873 " fill="none" id="ECommercePlatform.Deliver.FraudManagement.SoftwareSystems.FraudService.Containers.MessageHandler-to-ECommercePlatform.GenerateDemand.OrderManagement.SoftwareSystems.OrderService.Containers.Messaging" style="stroke:#666666;stroke-width:1.0;"/><polygon fill="#666666" points="531.02,256.3094,527.8622,248.3703,523.4207,252.4043,531.02,256.3094" style="stroke:#666666;stroke-width:1.0;"/><text fill="#666666" font-family="sans-serif" font-size="12" font-weight="bold" lengthAdjust="spacing" textLength="29" x="445" y="183.0664">Uses</text></g><!--link ECommercePlatform.Deliver.FraudManagement.SoftwareSystems.FraudService.Containers.MessageHandler to ECommercePlatform.Deliver.FraudManagement.SoftwareSystems.FraudService.Containers.Database--><g id="link_ECommercePlatform.Deliver.FraudManagement.SoftwareSystems.FraudService.Containers.MessageHandler_ECommercePlatform.Deliver.FraudManagement.SoftwareSystems.FraudService.Containers.Database"><path d="M208.76,139.9094 C184.3,167.2894 144.9093,211.3829 118.4793,240.9729 " fill="none" id="ECommercePlatform.Deliver.FraudManagement.SoftwareSystems.FraudService.Containers.MessageHandler-to-ECommercePlatform.Deliver.FraudManagement.SoftwareSystems.FraudService.Containers.Database" style="stroke:#666666;stroke-width:1.0;"/><polygon fill="#666666" points="113.15,246.9394,120.7167,242.9714,116.2419,238.9744,113.15,246.9394" style="stroke:#666666;stroke-width:1.0;"/><text fill="#666666" font-family="sans-serif" font-size="12" font-weight="bold" lengthAdjust="spacing" textLength="29" x="180" y="183.0664">Uses</text></g><!--link ECommercePlatform.Deliver.FraudManagement.SoftwareSystems.FraudService.Containers.MessageHandler to ECommercePlatform.Deliver.FraudManagement.SoftwareSystems.FraudEngine--><g id="link_ECommercePlatform.Deliver.FraudManagement.SoftwareSystems.FraudService.Containers.MessageHandler_ECommercePlatform.Deliver.FraudManagement.SoftwareSystems.FraudEngine"><path d="M249.69,139.6694 C276.95,161.5894 318,194.6094 318,194.6094 C318,194.6094 347.4792,223.3374 370.5892,245.8474 " fill="none" id="ECommercePlatform.Deliver.FraudManagement.SoftwareSystems.FraudService.Containers.MessageHandler-to-ECommercePlatform.Deliver.FraudManagement.SoftwareSystems.FraudEngine" style="stroke:#666666;stroke-width:1.0;"/><polygon fill="#666666" points="376.32,251.4294,372.6825,243.6984,368.496,247.9964,376.32,251.4294" style="stroke:#666666;stroke-width:1.0;"/><text fill="#666666" font-family="sans-serif" font-size="12" font-weight="bold" lengthAdjust="spacing" textLength="29" x="308" y="183.0664">Uses</text></g><!--link ECommercePlatform.Deliver.FraudManagement.SoftwareSystems.FraudService.Containers.MessageHandler to ECommercePlatform.Deliver.FraudManagement.SoftwareSystems.FraudService.Containers.Messaging--><g id="link_ECommercePlatform.Deliver.FraudManagement.SoftwareSystems.FraudService.Containers.MessageHandler_ECommercePlatform.Deliver.FraudManagement.SoftwareSystems.FraudService.Containers.Messaging"><path d="M228.34,139.6894 C230.02,153.4494 232,169.6094 232,169.6094 C232,169.6094 234.0232,220.8156 235.1232,248.5756 " fill="none" id="ECommercePlatform.Deliver.FraudManagement.SoftwareSystems.FraudService.Containers.MessageHandler-to-ECommercePlatform.Deliver.FraudManagement.SoftwareSystems.FraudService.Containers.Messaging" style="stroke:#666666;stroke-width:1.0;"/><polygon fill="#666666" points="235.44,256.5694,238.1209,248.4569,232.1256,248.6944,235.44,256.5694" style="stroke:#666666;stroke-width:1.0;"/><text fill="#666666" font-family="sans-serif" font-size="12" font-weight="bold" lengthAdjust="spacing" textLength="29" x="234" y="183.0664">Uses</text></g><rect fill="none" height="17.6094" style="stroke:none;stroke-width:1.0;" width="182" x="405" y="336.1094"/><text fill="#000000" font-family="sans-serif" font-size="14" font-weight="bold" lengthAdjust="spacing" textLength="53" x="405" y="350.6426">Legend</text><text fill="#FFFFFF" font-family="sans-serif" font-size="14" lengthAdjust="spacing" textLength="4" x="458" y="350.6426">&#160;</text><rect fill="#1168BD" height="17.6094" style="stroke:none;stroke-width:1.0;" width="182" x="405" y="353.7188"/><text fill="#3C7FC0" font-family="sans-serif" font-size="14" lengthAdjust="spacing" textLength="14" x="409" y="368.252">&#9647;</text><text fill="#FFFFFF" font-family="sans-serif" font-size="14" lengthAdjust="spacing" textLength="4" x="423" y="368.252">&#160;</text><text fill="#FFFFFF" font-family="sans-serif" font-size="14" lengthAdjust="spacing" textLength="44" x="431" y="368.252">system</text><text fill="#FFFFFF" font-family="sans-serif" font-size="14" lengthAdjust="spacing" textLength="4" x="479" y="368.252">&#160;</text><rect fill="#438DD5" height="17.6094" style="stroke:none;stroke-width:1.0;" width="182" x="405" y="371.3281"/><text fill="#3C7FC0" font-family="sans-serif" font-size="14" lengthAdjust="spacing" textLength="14" x="409" y="385.8613">&#9647;</text><text fill="#FFFFFF" font-family="sans-serif" font-size="14" lengthAdjust="spacing" textLength="4" x="423" y="385.8613">&#160;</text><text fill="#FFFFFF" font-family="sans-serif" font-size="14" lengthAdjust="spacing" textLength="59" x="431" y="385.8613">container</text><text fill="#FFFFFF" font-family="sans-serif" font-size="14" lengthAdjust="spacing" textLength="4" x="494" y="385.8613">&#160;</text><rect fill="none" height="17.6094" style="stroke:none;stroke-width:1.0;" width="182" x="405" y="388.9375"/><text fill="#444444" font-family="sans-serif" font-size="14" lengthAdjust="spacing" textLength="14" x="409" y="403.4707">&#9647;</text><text fill="#FFFFFF" font-family="sans-serif" font-size="14" lengthAdjust="spacing" textLength="4" x="423" y="403.4707">&#160;</text><text fill="#444444" font-family="sans-serif" font-size="14" lengthAdjust="spacing" textLength="108" x="431" y="403.4707">system boundary</text><text fill="#444444" font-family="sans-serif" font-size="10" lengthAdjust="spacing" textLength="40" x="543" y="404.3496">(dashed)</text><text fill="#FFFFFF" font-family="sans-serif" font-size="14" lengthAdjust="spacing" textLength="4" x="583" y="403.4707">&#160;</text><line style="stroke:none;stroke-width:1.0;" x1="405" x2="587" y1="336.1094" y2="336.1094"/><line style="stroke:none;stroke-width:1.0;" x1="405" x2="587" y1="353.7188" y2="353.7188"/><line style="stroke:none;stroke-width:1.0;" x1="405" x2="587" y1="371.3281" y2="371.3281"/><line style="stroke:none;stroke-width:1.0;" x1="405" x2="587" y1="388.9375" y2="388.9375"/><line style="stroke:none;stroke-width:1.0;" x1="405" x2="587" y1="406.5469" y2="406.5469"/><line style="stroke:none;stroke-width:1.0;" x1="405" x2="405" y1="336.1094" y2="406.5469"/><line style="stroke:none;stroke-width:1.0;" x1="587" x2="587" y1="336.1094" y2="406.5469"/><!--SRC=[rLR1Rfj04Btp5LlQWosbd7oAb8DZI58fCQuXYYf5GciOoAhBhhMxsBMg_di7i05NSUCsePMHPUqCu_VcpJnZlsCYvaK2n74UsrSyqe-JKJIHmb0cG3dB8kUMDKuIZqCEmeGq6zZnY0a3AkLoVSvP2l4cvd0kO6sVaG-BR2AvL1UP0X0OfuXLPzwdrLNMI9M0sg_JJpIHQoQo2_kASWtsy3ZQ-8cA398kjLHbwWZkfl1loHNaShLFhY0vWhckUeQsv9q3VtdE1hwP_Gbot5WdCtmPgZEx5guPIejNfuu0xCoZ1QorjcWOeyxWnd-8PjuyyAVHp9-7y_6dS32qRiTV_Fim2lrPvFeFKynO-YiJIwfeJaeCira2MKg-AGFBCinm81wPo3m75GEPSMfIgNBoaRZ0sGeKdguKBH9oHmNDgfLYQZ8YWQ66nULvvtV2OGLe-62Z3UG3RuUw0tMsa4u5sE8vWKpDcYgeFwZh-vx84FICs3Lz7U9ix7BFTMLqAGkHKBLvBLS0QiNYbcmRsqFotI9uDHBVYCXf0BKpNZBanVTAMwrlZzDTzC3gKaCNL9UITyT3_9yBAA275kv0QufBpP2pEHzgeZT-kA4YuQ2Q9e1iCvrMVXpZk6j0M6h0XHm17BzyNlschUf-QxmgF6oyGqju1UcVx087WC-kljpVgxtlDMXKS5BjTzVHQ_-_VWV-YS7-iw9JyTORAsb-Jqzy_CyuQVj_wDQxzgRkOFWJ]--></g></svg>