<?xml version="1.0" encoding="us-ascii" standalone="no"?><svg xmlns="http://www.w3.org/2000/svg" xmlns:xlink="http://www.w3.org/1999/xlink" contentStyleType="text/css" height="553px" preserveAspectRatio="none" style="width:681px;height:553px;background:#FFFFFF;" version="1.1" viewBox="0 0 681 553" width="681px" zoomAndPan="magnify"><defs/><g><text fill="#000000" font-family="sans-serif" font-size="14" font-weight="bold" lengthAdjust="spacing" textLength="653" x="10" y="29.5332">DotNetEShop - Basket Api - Grpc - Basket Service - Get Basket - Sequence - Component level</text><rect fill="#FFFFFF" height="502.4375" style="stroke:#181818;stroke-width:0.5;" width="116" x="83.75" y="44.6094"/><text fill="#000000" font-family="sans-serif" font-size="13" font-weight="bold" lengthAdjust="spacing" textLength="30" x="126.75" y="58.1045">Grpc</text><rect fill="#FFFFFF" height="502.4375" style="stroke:#181818;stroke-width:0.5;" width="363" x="277.25" y="44.6094"/><text fill="#000000" font-family="sans-serif" font-size="13" font-weight="bold" lengthAdjust="spacing" textLength="29" x="444.25" y="58.1045">Data</text><rect fill="none" height="349.5156" style="stroke:#000000;stroke-width:1.5;" width="598.5" x="57.75" y="144.9219"/><rect fill="none" height="135.4063" style="stroke:#000000;stroke-width:1.5;" width="375" x="271.25" y="200.625"/><rect fill="none" height="137.4063" style="stroke:#000000;stroke-width:1.5;" width="303" x="67.75" y="350.0313"/><rect fill="none" height="61.7031" style="stroke:#000000;stroke-width:1.5;" width="272" x="77.75" y="418.7344"/><line style="stroke:#181818;stroke-width:0.5;stroke-dasharray:5.0,5.0;" x1="44.75" x2="44.75" y1="97.5703" y2="511.4375"/><line style="stroke:#181818;stroke-width:0.5;stroke-dasharray:5.0,5.0;" x1="141.75" x2="141.75" y1="97.5703" y2="511.4375"/><line style="stroke:#181818;stroke-width:0.5;stroke-dasharray:5.0,5.0;" x1="365.25" x2="365.25" y1="97.5703" y2="511.4375"/><line style="stroke:#181818;stroke-width:0.5;stroke-dasharray:5.0,5.0;" x1="578.25" x2="578.25" y1="97.5703" y2="511.4375"/><rect fill="#E2E2F0" height="31.6094" rx="2.5" ry="2.5" style="stroke:#181818;stroke-width:0.5;" width="65" x="12.75" y="64.9609"/><text fill="#000000" font-family="sans-serif" font-size="14" lengthAdjust="spacing" textLength="51" x="19.75" y="86.4941">External</text><rect fill="#E2E2F0" height="31.6094" rx="2.5" ry="2.5" style="stroke:#181818;stroke-width:0.5;" width="65" x="12.75" y="510.4375"/><text fill="#000000" font-family="sans-serif" font-size="14" lengthAdjust="spacing" textLength="51" x="19.75" y="531.9707">External</text><rect fill="#E2E2F0" height="31.6094" rx="2.5" ry="2.5" style="stroke:#181818;stroke-width:0.5;" width="108" x="87.75" y="64.9609"/><text fill="#000000" font-family="sans-serif" font-size="14" lengthAdjust="spacing" textLength="94" x="94.75" y="86.4941">Basket Service</text><rect fill="#E2E2F0" height="31.6094" rx="2.5" ry="2.5" style="stroke:#181818;stroke-width:0.5;" width="108" x="87.75" y="510.4375"/><text fill="#000000" font-family="sans-serif" font-size="14" lengthAdjust="spacing" textLength="94" x="94.75" y="531.9707">Basket Service</text><rect fill="#E2E2F0" height="31.6094" rx="2.5" ry="2.5" style="stroke:#181818;stroke-width:0.5;" width="169" x="281.25" y="64.9609"/><text fill="#000000" font-family="sans-serif" font-size="14" lengthAdjust="spacing" textLength="155" x="288.25" y="86.4941">Redis Basket Repository</text><rect fill="#E2E2F0" height="31.6094" rx="2.5" ry="2.5" style="stroke:#181818;stroke-width:0.5;" width="169" x="281.25" y="510.4375"/><text fill="#000000" font-family="sans-serif" font-size="14" lengthAdjust="spacing" textLength="155" x="288.25" y="531.9707">Redis Basket Repository</text><rect fill="#E2E2F0" height="31.6094" rx="2.5" ry="2.5" style="stroke:#181818;stroke-width:0.5;" width="115" x="521.25" y="64.9609"/><text fill="#000000" font-family="sans-serif" font-size="14" lengthAdjust="spacing" textLength="101" x="528.25" y="86.4941">Redis Database</text><rect fill="#E2E2F0" height="31.6094" rx="2.5" ry="2.5" style="stroke:#181818;stroke-width:0.5;" width="115" x="521.25" y="510.4375"/><text fill="#000000" font-family="sans-serif" font-size="14" lengthAdjust="spacing" textLength="101" x="528.25" y="531.9707">Redis Database</text><polygon fill="#181818" points="129.75,125.9219,139.75,129.9219,129.75,133.9219,133.75,129.9219" style="stroke:#181818;stroke-width:1.0;"/><line style="stroke:#181818;stroke-width:1.0;" x1="45.25" x2="135.75" y1="129.9219" y2="129.9219"/><text fill="#000000" font-family="sans-serif" font-size="13" lengthAdjust="spacing" textLength="66" x="52.25" y="125.0654">Get Basket</text><path d="M57.75,144.9219 L170.75,144.9219 L170.75,153.2734 L160.75,163.2734 L57.75,163.2734 L57.75,144.9219 " fill="#EEEEEE" style="stroke:#000000;stroke-width:1.5;"/><rect fill="none" height="349.5156" style="stroke:#000000;stroke-width:1.5;" width="598.5" x="57.75" y="144.9219"/><text fill="#000000" font-family="sans-serif" font-size="13" font-weight="bold" lengthAdjust="spacing" textLength="68" x="72.75" y="159.417">Get Basket</text><polygon fill="#181818" points="353.75,181.625,363.75,185.625,353.75,189.625,357.75,185.625" style="stroke:#181818;stroke-width:1.0;"/><line style="stroke:#181818;stroke-width:1.0;" x1="141.75" x2="359.75" y1="185.625" y2="185.625"/><text fill="#000000" font-family="sans-serif" font-size="13" lengthAdjust="spacing" textLength="107" x="148.75" y="180.7686">Get Basket Async</text><path d="M271.25,200.625 L425.25,200.625 L425.25,208.9766 L415.25,218.9766 L271.25,218.9766 L271.25,200.625 " fill="#EEEEEE" style="stroke:#000000;stroke-width:1.5;"/><rect fill="none" height="135.4063" style="stroke:#000000;stroke-width:1.5;" width="375" x="271.25" y="200.625"/><text fill="#000000" font-family="sans-serif" font-size="13" font-weight="bold" lengthAdjust="spacing" textLength="109" x="286.25" y="215.1201">Get Basket Async</text><line style="stroke:#181818;stroke-width:1.0;" x1="365.75" x2="407.75" y1="241.3281" y2="241.3281"/><line style="stroke:#181818;stroke-width:1.0;" x1="407.75" x2="407.75" y1="241.3281" y2="254.3281"/><line style="stroke:#181818;stroke-width:1.0;" x1="366.75" x2="407.75" y1="254.3281" y2="254.3281"/><polygon fill="#181818" points="376.75,250.3281,366.75,254.3281,376.75,258.3281,372.75,254.3281" style="stroke:#181818;stroke-width:1.0;"/><text fill="#000000" font-family="sans-serif" font-size="13" lengthAdjust="spacing" textLength="93" x="372.75" y="236.4717">Get Basket Key</text><polygon fill="#181818" points="566.75,280.6797,576.75,284.6797,566.75,288.6797,570.75,284.6797" style="stroke:#181818;stroke-width:1.0;"/><line style="stroke:#181818;stroke-width:1.0;" x1="365.75" x2="572.75" y1="284.6797" y2="284.6797"/><text fill="#000000" font-family="sans-serif" font-size="13" lengthAdjust="spacing" textLength="139" x="372.75" y="279.8232">String Get Lease Async</text><line style="stroke:#181818;stroke-width:1.0;" x1="365.75" x2="407.75" y1="315.0313" y2="315.0313"/><line style="stroke:#181818;stroke-width:1.0;" x1="407.75" x2="407.75" y1="315.0313" y2="328.0313"/><line style="stroke:#181818;stroke-width:1.0;" x1="366.75" x2="407.75" y1="328.0313" y2="328.0313"/><polygon fill="#181818" points="376.75,324.0313,366.75,328.0313,376.75,332.0313,372.75,328.0313" style="stroke:#181818;stroke-width:1.0;"/><text fill="#000000" font-family="sans-serif" font-size="13" lengthAdjust="spacing" textLength="199" x="372.75" y="310.1748">Return (JsonSerializer.Deserialize)</text><path d="M67.75,350.0313 L128.75,350.0313 L128.75,358.3828 L118.75,368.3828 L67.75,368.3828 L67.75,350.0313 " fill="#EEEEEE" style="stroke:#000000;stroke-width:1.5;"/><rect fill="none" height="137.4063" style="stroke:#000000;stroke-width:1.5;" width="303" x="67.75" y="350.0313"/><text fill="#000000" font-family="sans-serif" font-size="13" font-weight="bold" lengthAdjust="spacing" textLength="16" x="82.75" y="364.5264">alt</text><text fill="#000000" font-family="sans-serif" font-size="11" font-weight="bold" lengthAdjust="spacing" textLength="88" x="143.75" y="363.4502">[data is not null]</text><line style="stroke:#181818;stroke-width:1.0;" x1="141.75" x2="183.75" y1="390.7344" y2="390.7344"/><line style="stroke:#181818;stroke-width:1.0;" x1="183.75" x2="183.75" y1="390.7344" y2="403.7344"/><line style="stroke:#181818;stroke-width:1.0;" x1="142.75" x2="183.75" y1="403.7344" y2="403.7344"/><polygon fill="#181818" points="152.75,399.7344,142.75,403.7344,152.75,407.7344,148.75,403.7344" style="stroke:#181818;stroke-width:1.0;"/><text fill="#000000" font-family="sans-serif" font-size="13" lengthAdjust="spacing" textLength="210" x="148.75" y="385.8779">Map To Customer Basket Response</text><path d="M77.75,418.7344 L344.75,418.7344 L344.75,427.0859 L334.75,437.0859 L77.75,437.0859 L77.75,418.7344 " fill="#EEEEEE" style="stroke:#000000;stroke-width:1.5;"/><rect fill="none" height="61.7031" style="stroke:#000000;stroke-width:1.5;" width="272" x="77.75" y="418.7344"/><text fill="#000000" font-family="sans-serif" font-size="13" font-weight="bold" lengthAdjust="spacing" textLength="222" x="92.75" y="433.2295">Map To Customer Basket Response</text><line style="stroke:#181818;stroke-width:1.0;" x1="141.75" x2="183.75" y1="459.4375" y2="459.4375"/><line style="stroke:#181818;stroke-width:1.0;" x1="183.75" x2="183.75" y1="459.4375" y2="472.4375"/><line style="stroke:#181818;stroke-width:1.0;" x1="142.75" x2="183.75" y1="472.4375" y2="472.4375"/><polygon fill="#181818" points="152.75,468.4375,142.75,472.4375,152.75,476.4375,148.75,472.4375" style="stroke:#181818;stroke-width:1.0;"/><text fill="#000000" font-family="sans-serif" font-size="13" lengthAdjust="spacing" textLength="103" x="148.75" y="454.5811">Return (response)</text><!--SRC=[rLJBRi8m4BpxArRffJsGKqyzLAA1LdqUIAMUJTY2LMExzWP8lxxEYoH228He1P4YPIVhdHcllIH88WmqlI4Duvasq8CxxhwGe6-43nwiIHeiHhiG2UQuZogmv-7l55M1Htfkj4958761aZ73BOb46EwXOBWYj8hB0BY3wFfH-V1UwcKOwqzQSejnvWZdBgmJovYniLv1q0WBuE9Z9WWP-AVycGljm1tYhlw2lcLwWxvCzqHXf1LneT2wC6S8r_xgfAeaGpK1BuIr90quyUsIHZWHhjx34Hhj16cR7QOjfsfhAugNcKtfRHhonMFky8ZKTSbcMzOVRF- -G-_so6s2czR9PLEhKzC6ZansYFozEjcn0NsNgMJ3J0N_aO1_ilQCsSaxgC-wLnwJ5MfQ67Z173hR7eoGKglWyibfvO-pu5Bye0q7wEhWAh_IZ4k2YQy9VeueJQ1IAK_X6ksQ0g_SmBk6A7MavsYREUpy2Z-tojkqA-iCZDQDj9Ncictrotu1]--></g></svg>