<?xml version="1.0" encoding="us-ascii" standalone="no"?><svg xmlns="http://www.w3.org/2000/svg" xmlns:xlink="http://www.w3.org/1999/xlink" contentStyleType="text/css" height="318px" preserveAspectRatio="none" style="width:1052px;height:318px;background:#FFFFFF;" version="1.1" viewBox="0 0 1052 318" width="1052px" zoomAndPan="magnify"><defs/><g><text fill="#000000" font-family="sans-serif" font-size="14" font-weight="bold" lengthAdjust="spacing" textLength="1024" x="10" y="29.5332">ECommercePlatform - Deliver - Fulfilment - Fulfilment Service - Message Handler - Handle Order Status Changed Event - Sequence - Context level</text><rect fill="none" height="141.7578" style="stroke:#000000;stroke-width:1.5;" width="441" x="390.75" y="123.5703"/><rect fill="none" height="48.7031" style="stroke:#000000;stroke-width:1.5;" width="315" x="400.75" y="209.625"/><line style="stroke:#181818;stroke-width:0.5;stroke-dasharray:5.0,5.0;" x1="240.25" x2="240.25" y1="76.2188" y2="282.3281"/><line style="stroke:#181818;stroke-width:0.5;stroke-dasharray:5.0,5.0;" x1="473.75" x2="473.75" y1="76.2188" y2="282.3281"/><line style="stroke:#181818;stroke-width:0.5;stroke-dasharray:5.0,5.0;" x1="597.75" x2="597.75" y1="76.2188" y2="282.3281"/><line style="stroke:#181818;stroke-width:0.5;stroke-dasharray:5.0,5.0;" x1="681.75" x2="681.75" y1="76.2188" y2="282.3281"/><line style="stroke:#181818;stroke-width:0.5;stroke-dasharray:5.0,5.0;" x1="768.75" x2="768.75" y1="76.2188" y2="282.3281"/><rect fill="#E2E2F0" height="31.6094" rx="2.5" ry="2.5" style="stroke:#181818;stroke-width:0.5;" width="65" x="208.25" y="43.6094"/><text fill="#000000" font-family="sans-serif" font-size="14" lengthAdjust="spacing" textLength="51" x="215.25" y="65.1426">External</text><rect fill="#E2E2F0" height="31.6094" rx="2.5" ry="2.5" style="stroke:#181818;stroke-width:0.5;" width="65" x="208.25" y="281.3281"/><text fill="#000000" font-family="sans-serif" font-size="14" lengthAdjust="spacing" textLength="51" x="215.25" y="302.8613">External</text><rect fill="#E2E2F0" height="31.6094" rx="2.5" ry="2.5" style="stroke:#181818;stroke-width:0.5;" width="126" x="410.75" y="43.6094"/><text fill="#000000" font-family="sans-serif" font-size="14" lengthAdjust="spacing" textLength="112" x="417.75" y="65.1426">Fulfilment Service</text><rect fill="#E2E2F0" height="31.6094" rx="2.5" ry="2.5" style="stroke:#181818;stroke-width:0.5;" width="126" x="410.75" y="281.3281"/><text fill="#000000" font-family="sans-serif" font-size="14" lengthAdjust="spacing" textLength="112" x="417.75" y="302.8613">Fulfilment Service</text><rect fill="#E2E2F0" height="31.6094" rx="2.5" ry="2.5" style="stroke:#181818;stroke-width:0.5;" width="102" x="546.75" y="43.6094"/><text fill="#000000" font-family="sans-serif" font-size="14" lengthAdjust="spacing" textLength="88" x="553.75" y="65.1426">Order Service</text><rect fill="#E2E2F0" height="31.6094" rx="2.5" ry="2.5" style="stroke:#181818;stroke-width:0.5;" width="102" x="546.75" y="281.3281"/><text fill="#000000" font-family="sans-serif" font-size="14" lengthAdjust="spacing" textLength="88" x="553.75" y="302.8613">Order Service</text><rect fill="#E2E2F0" height="31.6094" rx="2.5" ry="2.5" style="stroke:#181818;stroke-width:0.5;" width="47" x="658.75" y="43.6094"/><text fill="#000000" font-family="sans-serif" font-size="14" lengthAdjust="spacing" textLength="33" x="665.75" y="65.1426">WMS</text><rect fill="#E2E2F0" height="31.6094" rx="2.5" ry="2.5" style="stroke:#181818;stroke-width:0.5;" width="47" x="658.75" y="281.3281"/><text fill="#000000" font-family="sans-serif" font-size="14" lengthAdjust="spacing" textLength="33" x="665.75" y="302.8613">WMS</text><rect fill="#E2E2F0" height="31.6094" rx="2.5" ry="2.5" style="stroke:#181818;stroke-width:0.5;" width="106" x="715.75" y="43.6094"/><text fill="#000000" font-family="sans-serif" font-size="14" lengthAdjust="spacing" textLength="92" x="722.75" y="65.1426">..OrderService</text><rect fill="#E2E2F0" height="31.6094" rx="2.5" ry="2.5" style="stroke:#181818;stroke-width:0.5;" width="106" x="715.75" y="281.3281"/><text fill="#000000" font-family="sans-serif" font-size="14" lengthAdjust="spacing" textLength="92" x="722.75" y="302.8613">..OrderService</text><polygon fill="#181818" points="461.75,104.5703,471.75,108.5703,461.75,112.5703,465.75,108.5703" style="stroke:#181818;stroke-width:1.0;"/><line style="stroke:#181818;stroke-width:1.0;" x1="240.75" x2="467.75" y1="108.5703" y2="108.5703"/><text fill="#000000" font-family="sans-serif" font-size="13" lengthAdjust="spacing" textLength="209" x="247.75" y="103.7139">Handle Order Status Changed Event</text><path d="M390.75,123.5703 L663.75,123.5703 L663.75,131.9219 L653.75,141.9219 L390.75,141.9219 L390.75,123.5703 " fill="#EEEEEE" style="stroke:#000000;stroke-width:1.5;"/><rect fill="none" height="141.7578" style="stroke:#000000;stroke-width:1.5;" width="441" x="390.75" y="123.5703"/><text fill="#000000" font-family="sans-serif" font-size="13" font-weight="bold" lengthAdjust="spacing" textLength="228" x="405.75" y="138.0654">Handle Order Status Changed Event</text><polygon fill="#181818" points="756.75,160.2734,766.75,164.2734,756.75,168.2734,760.75,164.2734" style="stroke:#181818;stroke-width:1.0;"/><line style="stroke:#181818;stroke-width:1.0;" x1="473.75" x2="762.75" y1="164.2734" y2="164.2734"/><text fill="#000000" font-family="sans-serif" font-size="13" lengthAdjust="spacing" textLength="214" x="480.75" y="159.417">Receive Order Status Changed Event</text><polygon fill="#181818" points="670.25,190.625,680.25,194.625,670.25,198.625,674.25,194.625" style="stroke:#181818;stroke-width:1.0;"/><line style="stroke:#181818;stroke-width:1.0;" x1="473.75" x2="676.25" y1="194.625" y2="194.625"/><text fill="#000000" font-family="sans-serif" font-size="13" lengthAdjust="spacing" textLength="62" x="480.75" y="189.7686">Ship Order</text><path d="M400.75,209.625 L514.75,209.625 L514.75,217.9766 L504.75,227.9766 L400.75,227.9766 L400.75,209.625 " fill="#EEEEEE" style="stroke:#000000;stroke-width:1.5;"/><rect fill="none" height="48.7031" style="stroke:#000000;stroke-width:1.5;" width="315" x="400.75" y="209.625"/><text fill="#000000" font-family="sans-serif" font-size="13" font-weight="bold" lengthAdjust="spacing" textLength="69" x="415.75" y="224.1201">Ship Order</text><polygon fill="#181818" points="484.75,246.3281,474.75,250.3281,484.75,254.3281,480.75,250.3281" style="stroke:#181818;stroke-width:1.0;"/><line style="stroke:#181818;stroke-width:1.0;" x1="478.75" x2="681.25" y1="250.3281" y2="250.3281"/><text fill="#000000" font-family="sans-serif" font-size="13" lengthAdjust="spacing" textLength="150" x="490.75" y="245.4717">Post Order Shipped Event</text><!--SRC=[lL8zRuCm4Dtv5LRsC7Ngq8MGjWDgL0-TBNWGIyOcza7IVzyJaAQ8g8rGrC6IpxvxNpPfCX1fukeQFiVEA2gThyLQR61q1y-xRMjARMfOcXOIljCv-3132Ag2U56sCFtCi1Dllk1Iag8sY6IlR8L2fDq09N5eONk0n5d2YOH11nD5ZVAaSzqexbkb9uAtogo4Oeo7L-xqM-EEiNGb7PM7_0o4EiJdng6UWinbzt0pu_5eExuCp7WkLoFKb6hq_2lBCooy8cnGSr1nFv8fonbUPUplhv9zP7Av4HwEejiJ5UkdEmKc7l_-857bNTlSq7SdIMmkdWJD8j-HWv7-Xttf4x9EkTVD879CxSV1OjXxllRE1JgdoDAQx_XWYtv5Nm00]--></g></svg>