<?xml version="1.0" encoding="us-ascii" standalone="no"?><svg xmlns="http://www.w3.org/2000/svg" xmlns:xlink="http://www.w3.org/1999/xlink" contentStyleType="text/css" height="479px" preserveAspectRatio="none" style="width:681px;height:479px;background:#FFFFFF;" version="1.1" viewBox="0 0 681 479" width="681px" zoomAndPan="magnify"><defs/><g><text fill="#000000" font-family="sans-serif" font-size="14" font-weight="bold" lengthAdjust="spacing" textLength="653" x="10" y="29.5332">Big Bank Plc - Internet Banking - Mobile App - Change Password - Sequence - Container level</text><rect fill="#FFFFFF" height="422.0859" style="stroke:#181818;stroke-width:0.5;" width="369.5" x="129.5" y="44.6094"/><text fill="#000000" font-family="sans-serif" font-size="13" font-weight="bold" lengthAdjust="spacing" textLength="105" x="261.75" y="58.1045">Internet Banking</text><rect fill="none" height="190.8125" style="stroke:#000000;stroke-width:1.5;" width="531.5" x="123.5" y="192.2734"/><rect fill="none" height="111.7578" style="stroke:#000000;stroke-width:1.5;" width="404.5" x="240.5" y="264.3281"/><line style="stroke:#181818;stroke-width:0.5;stroke-dasharray:5.0,5.0;" x1="46" x2="46" y1="128.5703" y2="400.0859"/><line style="stroke:#181818;stroke-width:0.5;stroke-dasharray:5.0,5.0;" x1="175.5" x2="175.5" y1="128.5703" y2="400.0859"/><line style="stroke:#181818;stroke-width:0.5;stroke-dasharray:5.0,5.0;" x1="304.5" x2="304.5" y1="128.5703" y2="400.0859"/><line style="stroke:#181818;stroke-width:0.5;stroke-dasharray:5.0,5.0;" x1="461" x2="461" y1="128.5703" y2="400.0859"/><line style="stroke:#181818;stroke-width:0.5;stroke-dasharray:5.0,5.0;" x1="583" x2="583" y1="128.5703" y2="400.0859"/><rect fill="#E2E2F0" height="31.6094" rx="2.5" ry="2.5" style="stroke:#181818;stroke-width:0.5;" width="65" x="14" y="95.9609"/><text fill="#000000" font-family="sans-serif" font-size="14" lengthAdjust="spacing" textLength="51" x="21" y="117.4941">External</text><rect fill="#E2E2F0" height="31.6094" rx="2.5" ry="2.5" style="stroke:#181818;stroke-width:0.5;" width="65" x="14" y="399.0859"/><text fill="#000000" font-family="sans-serif" font-size="14" lengthAdjust="spacing" textLength="51" x="21" y="420.6191">External</text><rect fill="#E2E2F0" height="31.6094" rx="2.5" ry="2.5" style="stroke:#181818;stroke-width:0.5;" width="84" x="133.5" y="95.9609"/><text fill="#000000" font-family="sans-serif" font-size="14" lengthAdjust="spacing" textLength="70" x="140.5" y="117.4941">Mobile App</text><rect fill="#E2E2F0" height="31.6094" rx="2.5" ry="2.5" style="stroke:#181818;stroke-width:0.5;" width="84" x="133.5" y="399.0859"/><text fill="#000000" font-family="sans-serif" font-size="14" lengthAdjust="spacing" textLength="70" x="140.5" y="420.6191">Mobile App</text><rect fill="#E2E2F0" height="31.6094" rx="2.5" ry="2.5" style="stroke:#181818;stroke-width:0.5;" width="108" x="250.5" y="95.9609"/><text fill="#000000" font-family="sans-serif" font-size="14" lengthAdjust="spacing" textLength="94" x="257.5" y="117.4941">API Application</text><rect fill="#E2E2F0" height="31.6094" rx="2.5" ry="2.5" style="stroke:#181818;stroke-width:0.5;" width="108" x="250.5" y="399.0859"/><text fill="#000000" font-family="sans-serif" font-size="14" lengthAdjust="spacing" textLength="94" x="257.5" y="420.6191">API Application</text><text fill="#000000" font-family="sans-serif" font-size="14" lengthAdjust="spacing" textLength="61" x="428" y="125.4941">Database</text><path d="M443.5,74.9609 C443.5,64.9609 461.5,64.9609 461.5,64.9609 C461.5,64.9609 479.5,64.9609 479.5,74.9609 L479.5,100.9609 C479.5,110.9609 461.5,110.9609 461.5,110.9609 C461.5,110.9609 443.5,110.9609 443.5,100.9609 L443.5,74.9609 " fill="#E2E2F0" style="stroke:#181818;stroke-width:1.5;"/><path d="M443.5,74.9609 C443.5,84.9609 461.5,84.9609 461.5,84.9609 C461.5,84.9609 479.5,84.9609 479.5,74.9609 " fill="none" style="stroke:#181818;stroke-width:1.5;"/><text fill="#000000" font-family="sans-serif" font-size="14" lengthAdjust="spacing" textLength="61" x="428" y="413.6191">Database</text><path d="M443.5,426.6953 C443.5,416.6953 461.5,416.6953 461.5,416.6953 C461.5,416.6953 479.5,416.6953 479.5,426.6953 L479.5,452.6953 C479.5,462.6953 461.5,462.6953 461.5,462.6953 C461.5,462.6953 443.5,462.6953 443.5,452.6953 L443.5,426.6953 " fill="#E2E2F0" style="stroke:#181818;stroke-width:1.5;"/><path d="M443.5,426.6953 C443.5,436.6953 461.5,436.6953 461.5,436.6953 C461.5,436.6953 479.5,436.6953 479.5,426.6953 " fill="none" style="stroke:#181818;stroke-width:1.5;"/><rect fill="#E2E2F0" height="31.6094" rx="2.5" ry="2.5" style="stroke:#181818;stroke-width:0.5;" width="103" x="532" y="95.9609"/><text fill="#000000" font-family="sans-serif" font-size="14" lengthAdjust="spacing" textLength="89" x="539" y="117.4941">E-Mail System</text><rect fill="#E2E2F0" height="31.6094" rx="2.5" ry="2.5" style="stroke:#181818;stroke-width:0.5;" width="103" x="532" y="399.0859"/><text fill="#000000" font-family="sans-serif" font-size="14" lengthAdjust="spacing" textLength="89" x="539" y="420.6191">E-Mail System</text><polygon fill="#181818" points="163.5,173.2734,173.5,177.2734,163.5,181.2734,167.5,177.2734" style="stroke:#181818;stroke-width:1.0;"/><line style="stroke:#181818;stroke-width:1.0;" x1="46.5" x2="169.5" y1="177.2734" y2="177.2734"/><text fill="#000000" font-family="sans-serif" font-size="13" lengthAdjust="spacing" textLength="105" x="53.5" y="156.0654">Change Password</text><text fill="#000000" font-family="sans-serif" font-size="13" lengthAdjust="spacing" textLength="49" x="53.5" y="172.417">[HTTPS]</text><path d="M123.5,192.2734 L282.5,192.2734 L282.5,200.625 L272.5,210.625 L123.5,210.625 L123.5,192.2734 " fill="#EEEEEE" style="stroke:#000000;stroke-width:1.5;"/><rect fill="none" height="190.8125" style="stroke:#000000;stroke-width:1.5;" width="531.5" x="123.5" y="192.2734"/><text fill="#000000" font-family="sans-serif" font-size="13" font-weight="bold" lengthAdjust="spacing" textLength="114" x="138.5" y="206.7686">Change Password</text><polygon fill="#181818" points="292.5,245.3281,302.5,249.3281,292.5,253.3281,296.5,249.3281" style="stroke:#181818;stroke-width:1.0;"/><line style="stroke:#181818;stroke-width:1.0;" x1="175.5" x2="298.5" y1="249.3281" y2="249.3281"/><text fill="#000000" font-family="sans-serif" font-size="13" lengthAdjust="spacing" textLength="105" x="182.5" y="228.1201">Change Password</text><text fill="#000000" font-family="sans-serif" font-size="13" lengthAdjust="spacing" textLength="49" x="182.5" y="244.4717">[HTTPS]</text><path d="M240.5,264.3281 L399.5,264.3281 L399.5,272.6797 L389.5,282.6797 L240.5,282.6797 L240.5,264.3281 " fill="#EEEEEE" style="stroke:#000000;stroke-width:1.5;"/><rect fill="none" height="111.7578" style="stroke:#000000;stroke-width:1.5;" width="404.5" x="240.5" y="264.3281"/><text fill="#000000" font-family="sans-serif" font-size="13" font-weight="bold" lengthAdjust="spacing" textLength="114" x="255.5" y="278.8232">Change Password</text><polygon fill="#181818" points="449.5,317.3828,459.5,321.3828,449.5,325.3828,453.5,321.3828" style="stroke:#181818;stroke-width:1.0;"/><line style="stroke:#181818;stroke-width:1.0;" x1="304.5" x2="455.5" y1="321.3828" y2="321.3828"/><text fill="#000000" font-family="sans-serif" font-size="13" lengthAdjust="spacing" textLength="133" x="311.5" y="300.1748">Update User Password</text><text fill="#000000" font-family="sans-serif" font-size="13" lengthAdjust="spacing" textLength="83" x="311.5" y="316.5264">[TCP/IP, SQL]</text><polygon fill="#181818" points="571.5,364.0859,581.5,368.0859,571.5,372.0859,575.5,368.0859" style="stroke:#181818;stroke-width:1.0;"/><line style="stroke:#181818;stroke-width:1.0;" x1="304.5" x2="577.5" y1="368.0859" y2="368.0859"/><text fill="#000000" font-family="sans-serif" font-size="13" lengthAdjust="spacing" textLength="255" x="311.5" y="346.8779">Send Password Changed Notification E-Mail</text><text fill="#000000" font-family="sans-serif" font-size="13" lengthAdjust="spacing" textLength="44" x="311.5" y="363.2295">[SMTP]</text><!--SRC=[lPJ1Jy8m5CRl_IjUvbNcnPC74q2C969gEk91EPJjCHfhEzSY-D_xkZ64ST2mX2LBrjVkzttj-pQll4OOg1m6qhm3rodqO6mybWPzLLCcfzB4pXKjx1S53OPBQN84BfrRspAZYi3F5PeKmwGrNYg39MZyGirO8KklKbL8uo4QRG9QwWYaW-5rfNIlxJeMTk7NiaJnxJn-kBXPM8yPcziDH6rZ4LoyB9L71dGTwFpwhPHeW-4LsjwHKCFS8kETVnVN468Sy_jy7E1QfT8hQpg846aFL2bbqikvT0ZHtVQf0xz1C3GPq2cs6zARIAMX1lqbCmfhcuxyltlGk-tQ0RXff-xDl3ua2HSpbfTsLRIdMLV1apqVDlHSnbkg9xjluaA-fmK54M7gw5lUCvyC-TMONu9uVfoTm-nUwCYK237U_NdgiylWoNgrQ71rfCcfc2Hy5d9VtUm7]--></g></svg>