<?xml version="1.0" encoding="us-ascii" standalone="no"?><svg xmlns="http://www.w3.org/2000/svg" xmlns:xlink="http://www.w3.org/1999/xlink" contentStyleType="text/css" height="383px" preserveAspectRatio="none" style="width:846px;height:383px;background:#FFFFFF;" version="1.1" viewBox="0 0 846 383" width="846px" zoomAndPan="magnify"><defs/><g><text fill="#000000" font-family="sans-serif" font-size="14" font-weight="bold" lengthAdjust="spacing" textLength="818" x="10" y="29.5332">E Commerce Platform - Generate Demand - Storefront - Storefront Bff - Search Products - Sequence - Container level</text><rect fill="#FFFFFF" height="326.3281" style="stroke:#181818;stroke-width:0.5;" width="175.5" x="448" y="44.6094"/><text fill="#000000" font-family="sans-serif" font-size="13" font-weight="bold" lengthAdjust="spacing" textLength="97" x="487.25" y="58.1045">Search Service</text><rect fill="none" height="111.4063" style="stroke:#000000;stroke-width:1.5;" width="350.5" x="289" y="175.9219"/><rect fill="none" height="48.7031" style="stroke:#000000;stroke-width:1.5;" width="187.5" x="442" y="231.625"/><line style="stroke:#181818;stroke-width:0.5;stroke-dasharray:5.0,5.0;" x1="226.5" x2="226.5" y1="128.5703" y2="304.3281"/><line style="stroke:#181818;stroke-width:0.5;stroke-dasharray:5.0,5.0;" x1="348" x2="348" y1="128.5703" y2="304.3281"/><line style="stroke:#181818;stroke-width:0.5;stroke-dasharray:5.0,5.0;" x1="469" x2="469" y1="128.5703" y2="304.3281"/><line style="stroke:#181818;stroke-width:0.5;stroke-dasharray:5.0,5.0;" x1="585.5" x2="585.5" y1="128.5703" y2="304.3281"/><rect fill="#E2E2F0" height="31.6094" rx="2.5" ry="2.5" style="stroke:#181818;stroke-width:0.5;" width="65" x="194.5" y="95.9609"/><text fill="#000000" font-family="sans-serif" font-size="14" lengthAdjust="spacing" textLength="51" x="201.5" y="117.4941">External</text><rect fill="#E2E2F0" height="31.6094" rx="2.5" ry="2.5" style="stroke:#181818;stroke-width:0.5;" width="65" x="194.5" y="303.3281"/><text fill="#000000" font-family="sans-serif" font-size="14" lengthAdjust="spacing" textLength="51" x="201.5" y="324.8613">External</text><rect fill="#E2E2F0" height="31.6094" rx="2.5" ry="2.5" style="stroke:#181818;stroke-width:0.5;" width="98" x="299" y="95.9609"/><text fill="#000000" font-family="sans-serif" font-size="14" lengthAdjust="spacing" textLength="84" x="306" y="117.4941">Storefront Bff</text><rect fill="#E2E2F0" height="31.6094" rx="2.5" ry="2.5" style="stroke:#181818;stroke-width:0.5;" width="98" x="299" y="303.3281"/><text fill="#000000" font-family="sans-serif" font-size="14" lengthAdjust="spacing" textLength="84" x="306" y="324.8613">Storefront Bff</text><rect fill="#E2E2F0" height="31.6094" rx="2.5" ry="2.5" style="stroke:#181818;stroke-width:0.5;" width="34" x="452" y="95.9609"/><text fill="#000000" font-family="sans-serif" font-size="14" lengthAdjust="spacing" textLength="20" x="459" y="117.4941">Api</text><rect fill="#E2E2F0" height="31.6094" rx="2.5" ry="2.5" style="stroke:#181818;stroke-width:0.5;" width="34" x="452" y="303.3281"/><text fill="#000000" font-family="sans-serif" font-size="14" lengthAdjust="spacing" textLength="20" x="459" y="324.8613">Api</text><text fill="#000000" font-family="sans-serif" font-size="14" lengthAdjust="spacing" textLength="61" x="552.5" y="125.4941">Database</text><path d="M568,74.9609 C568,64.9609 586,64.9609 586,64.9609 C586,64.9609 604,64.9609 604,74.9609 L604,100.9609 C604,110.9609 586,110.9609 586,110.9609 C586,110.9609 568,110.9609 568,100.9609 L568,74.9609 " fill="#E2E2F0" style="stroke:#181818;stroke-width:1.5;"/><path d="M568,74.9609 C568,84.9609 586,84.9609 586,84.9609 C586,84.9609 604,84.9609 604,74.9609 " fill="none" style="stroke:#181818;stroke-width:1.5;"/><text fill="#000000" font-family="sans-serif" font-size="14" lengthAdjust="spacing" textLength="61" x="552.5" y="317.8613">Database</text><path d="M568,330.9375 C568,320.9375 586,320.9375 586,320.9375 C586,320.9375 604,320.9375 604,330.9375 L604,356.9375 C604,366.9375 586,366.9375 586,366.9375 C586,366.9375 568,366.9375 568,356.9375 L568,330.9375 " fill="#E2E2F0" style="stroke:#181818;stroke-width:1.5;"/><path d="M568,330.9375 C568,340.9375 586,340.9375 586,340.9375 C586,340.9375 604,340.9375 604,330.9375 " fill="none" style="stroke:#181818;stroke-width:1.5;"/><polygon fill="#181818" points="336,156.9219,346,160.9219,336,164.9219,340,160.9219" style="stroke:#181818;stroke-width:1.0;"/><line style="stroke:#181818;stroke-width:1.0;" x1="227" x2="342" y1="160.9219" y2="160.9219"/><text fill="#000000" font-family="sans-serif" font-size="13" lengthAdjust="spacing" textLength="97" x="234" y="156.0654">Search Products</text><path d="M289,175.9219 L438,175.9219 L438,184.2734 L428,194.2734 L289,194.2734 L289,175.9219 " fill="#EEEEEE" style="stroke:#000000;stroke-width:1.5;"/><rect fill="none" height="111.4063" style="stroke:#000000;stroke-width:1.5;" width="350.5" x="289" y="175.9219"/><text fill="#000000" font-family="sans-serif" font-size="13" font-weight="bold" lengthAdjust="spacing" textLength="104" x="304" y="190.417">Search Products</text><polygon fill="#181818" points="457,212.625,467,216.625,457,220.625,461,216.625" style="stroke:#181818;stroke-width:1.0;"/><line style="stroke:#181818;stroke-width:1.0;" x1="348" x2="463" y1="216.625" y2="216.625"/><text fill="#000000" font-family="sans-serif" font-size="13" lengthAdjust="spacing" textLength="97" x="355" y="211.7686">Search Products</text><path d="M442,231.625 L591,231.625 L591,239.9766 L581,249.9766 L442,249.9766 L442,231.625 " fill="#EEEEEE" style="stroke:#000000;stroke-width:1.5;"/><rect fill="none" height="48.7031" style="stroke:#000000;stroke-width:1.5;" width="187.5" x="442" y="231.625"/><text fill="#000000" font-family="sans-serif" font-size="13" font-weight="bold" lengthAdjust="spacing" textLength="104" x="457" y="246.1201">Search Products</text><polygon fill="#181818" points="574,268.3281,584,272.3281,574,276.3281,578,272.3281" style="stroke:#181818;stroke-width:1.0;"/><line style="stroke:#181818;stroke-width:1.0;" x1="469" x2="580" y1="272.3281" y2="272.3281"/><text fill="#000000" font-family="sans-serif" font-size="13" lengthAdjust="spacing" textLength="93" x="476" y="267.4717">Select Products</text><!--SRC=[jPAxRiCm34LtVGNXplRKgKE1l1fq2-2XCsFJZG1PSYawJl- -h18tSBC4I690W4b9z_2A52kEO0MBqBR45S76eJI1MyXXJPuOXM19BVfQCwK4feQ3bsamRvhV125NEzXmgFjAOifyzUHLDLU05xGg28xsv8pfaCLMjaEzdwqEGkpHPO0H5i_lNiCt5uQY38qCo5H-Hw4s5kF1OpmLcHQKf5QZhz5MCPewUYhETovGvorLCsOR3eeuMYo9zxQY39u-TbR8W7wJKcQTlPAV16U-ddCO8bqMaVPFlEBl4MEXX8IjKN2BaI1RdluU31unXdGaz56CCTSt3FBN-_K4NlwFdFdaq7SNsViHhoh_XfRUqT8jLJpKvZX0oQkZIiwkTAJICZy0]--></g></svg>