<?xml version="1.0" encoding="us-ascii" standalone="no"?><svg xmlns="http://www.w3.org/2000/svg" xmlns:xlink="http://www.w3.org/1999/xlink" contentStyleType="text/css" height="282px" preserveAspectRatio="none" style="width:639px;height:282px;background:#FFFFFF;" version="1.1" viewBox="0 0 639 282" width="639px" zoomAndPan="magnify"><defs/><g><text fill="#000000" font-family="sans-serif" font-size="14" font-weight="bold" lengthAdjust="spacing" textLength="611" x="10" y="29.5332">DotNetEShop - Catalog Api - Api - Catalog Api - Create Item - Sequence - Container level</text><rect fill="#FFFFFF" height="231.9766" style="stroke:#181818;stroke-width:0.5;" width="222" x="250.75" y="44.6094"/><text fill="#000000" font-family="sans-serif" font-size="13" font-weight="bold" lengthAdjust="spacing" textLength="74" x="324.75" y="58.1045">Catalog Api</text><rect fill="none" height="79.0547" style="stroke:#000000;stroke-width:1.5;" width="234" x="244.75" y="144.9219"/><line style="stroke:#181818;stroke-width:0.5;stroke-dasharray:5.0,5.0;" x1="180.25" x2="180.25" y1="97.5703" y2="240.9766"/><line style="stroke:#181818;stroke-width:0.5;stroke-dasharray:5.0,5.0;" x1="271.75" x2="271.75" y1="97.5703" y2="240.9766"/><line style="stroke:#181818;stroke-width:0.5;stroke-dasharray:5.0,5.0;" x1="419.75" x2="419.75" y1="97.5703" y2="240.9766"/><rect fill="#E2E2F0" height="31.6094" rx="2.5" ry="2.5" style="stroke:#181818;stroke-width:0.5;" width="65" x="148.25" y="64.9609"/><text fill="#000000" font-family="sans-serif" font-size="14" lengthAdjust="spacing" textLength="51" x="155.25" y="86.4941">External</text><rect fill="#E2E2F0" height="31.6094" rx="2.5" ry="2.5" style="stroke:#181818;stroke-width:0.5;" width="65" x="148.25" y="239.9766"/><text fill="#000000" font-family="sans-serif" font-size="14" lengthAdjust="spacing" textLength="51" x="155.25" y="261.5098">External</text><rect fill="#E2E2F0" height="31.6094" rx="2.5" ry="2.5" style="stroke:#181818;stroke-width:0.5;" width="34" x="254.75" y="64.9609"/><text fill="#000000" font-family="sans-serif" font-size="14" lengthAdjust="spacing" textLength="20" x="261.75" y="86.4941">Api</text><rect fill="#E2E2F0" height="31.6094" rx="2.5" ry="2.5" style="stroke:#181818;stroke-width:0.5;" width="34" x="254.75" y="239.9766"/><text fill="#000000" font-family="sans-serif" font-size="14" lengthAdjust="spacing" textLength="20" x="261.75" y="261.5098">Api</text><rect fill="#E2E2F0" height="31.6094" rx="2.5" ry="2.5" style="stroke:#181818;stroke-width:0.5;" width="98" x="370.75" y="64.9609"/><text fill="#000000" font-family="sans-serif" font-size="14" lengthAdjust="spacing" textLength="84" x="377.75" y="86.4941">Infrastructure</text><rect fill="#E2E2F0" height="31.6094" rx="2.5" ry="2.5" style="stroke:#181818;stroke-width:0.5;" width="98" x="370.75" y="239.9766"/><text fill="#000000" font-family="sans-serif" font-size="14" lengthAdjust="spacing" textLength="84" x="377.75" y="261.5098">Infrastructure</text><polygon fill="#181818" points="259.75,125.9219,269.75,129.9219,259.75,133.9219,263.75,129.9219" style="stroke:#181818;stroke-width:1.0;"/><line style="stroke:#181818;stroke-width:1.0;" x1="180.75" x2="265.75" y1="129.9219" y2="129.9219"/><text fill="#000000" font-family="sans-serif" font-size="13" lengthAdjust="spacing" textLength="67" x="187.75" y="125.0654">Create Item</text><path d="M244.75,144.9219 L363.75,144.9219 L363.75,153.2734 L353.75,163.2734 L244.75,163.2734 L244.75,144.9219 " fill="#EEEEEE" style="stroke:#000000;stroke-width:1.5;"/><rect fill="none" height="79.0547" style="stroke:#000000;stroke-width:1.5;" width="234" x="244.75" y="144.9219"/><text fill="#000000" font-family="sans-serif" font-size="13" font-weight="bold" lengthAdjust="spacing" textLength="74" x="259.75" y="159.417">Create Item</text><polygon fill="#181818" points="407.75,181.625,417.75,185.625,407.75,189.625,411.75,185.625" style="stroke:#181818;stroke-width:1.0;"/><line style="stroke:#181818;stroke-width:1.0;" x1="271.75" x2="413.75" y1="185.625" y2="185.625"/><text fill="#000000" font-family="sans-serif" font-size="13" lengthAdjust="spacing" textLength="107" x="278.75" y="180.7686">Catalog Items Add</text><polygon fill="#181818" points="407.75,211.9766,417.75,215.9766,407.75,219.9766,411.75,215.9766" style="stroke:#181818;stroke-width:1.0;"/><line style="stroke:#181818;stroke-width:1.0;" x1="271.75" x2="413.75" y1="215.9766" y2="215.9766"/><text fill="#000000" font-family="sans-serif" font-size="13" lengthAdjust="spacing" textLength="124" x="278.75" y="211.1201">Save Changes Async</text><!--SRC=[nP4zJyGm38Pt_mghpDU9YG7fL0wf2qi6PjFwsaWXoINkVVnxNEv0ZMv1NSWGwRMjnwzjiU8ONuAyiUpC629ki24X5mRSHglg-fUn9Z49OolygShmOMBVyPm8NiXwJkZuo0uWKXBRsKXUiDgTXPCdLo5bR1vRh_BLXLDjmbvEbDXSiY9p_LDurG0VuOpLmaA53- -Z5GRKLxJuJYfzCT4T_GRIqlhNRwvLtkDQlq-K9KsTJ8bNaai8iEzH1mA0lwy0Dy_hHiAdvR5WI66AHMGTTPMTSW-pizj5PoCPjtt_hsuC7HcRaVp0QYPVV3UV2k0B]--></g></svg>