<?xml version="1.0" encoding="us-ascii" standalone="no"?><svg xmlns="http://www.w3.org/2000/svg" xmlns:xlink="http://www.w3.org/1999/xlink" contentStyleType="text/css" height="405px" preserveAspectRatio="none" style="width:548px;height:405px;background:#FFFFFF;" version="1.1" viewBox="0 0 548 405" width="548px" zoomAndPan="magnify"><defs/><g><text fill="#000000" font-family="sans-serif" font-size="14" font-weight="bold" lengthAdjust="spacing" textLength="520" x="10" y="29.5332">Catalog Api - Api - Catalog Api - Update Item - Sequence - Component level</text><rect fill="#FFFFFF" height="355.0313" style="stroke:#181818;stroke-width:0.5;" width="95" x="145.5" y="44.6094"/><text fill="#000000" font-family="sans-serif" font-size="13" font-weight="bold" lengthAdjust="spacing" textLength="21" x="182.5" y="58.1045">Api</text><rect fill="#FFFFFF" height="355.0313" style="stroke:#181818;stroke-width:0.5;" width="123" x="330.5" y="44.6094"/><text fill="#000000" font-family="sans-serif" font-size="13" font-weight="bold" lengthAdjust="spacing" textLength="84" x="350" y="58.1045">Infrastructure</text><rect fill="none" height="202.1094" style="stroke:#000000;stroke-width:1.5;" width="340" x="129.5" y="144.9219"/><rect fill="none" height="61.7031" style="stroke:#000000;stroke-width:1.5;" width="257.5" x="139.5" y="170.2734"/><rect fill="none" height="50.7031" style="stroke:#000000;stroke-width:1.5;" width="320" x="139.5" y="245.9766"/><line style="stroke:#181818;stroke-width:0.5;stroke-dasharray:5.0,5.0;" x1="98.5" x2="98.5" y1="97.5703" y2="364.0313"/><line style="stroke:#181818;stroke-width:0.5;stroke-dasharray:5.0,5.0;" x1="192.5" x2="192.5" y1="97.5703" y2="364.0313"/><line style="stroke:#181818;stroke-width:0.5;stroke-dasharray:5.0,5.0;" x1="391.5" x2="391.5" y1="97.5703" y2="364.0313"/><rect fill="#E2E2F0" height="31.6094" rx="2.5" ry="2.5" style="stroke:#181818;stroke-width:0.5;" width="65" x="66.5" y="64.9609"/><text fill="#000000" font-family="sans-serif" font-size="14" lengthAdjust="spacing" textLength="51" x="73.5" y="86.4941">External</text><rect fill="#E2E2F0" height="31.6094" rx="2.5" ry="2.5" style="stroke:#181818;stroke-width:0.5;" width="65" x="66.5" y="363.0313"/><text fill="#000000" font-family="sans-serif" font-size="14" lengthAdjust="spacing" textLength="51" x="73.5" y="384.5645">External</text><rect fill="#E2E2F0" height="31.6094" rx="2.5" ry="2.5" style="stroke:#181818;stroke-width:0.5;" width="87" x="149.5" y="64.9609"/><text fill="#000000" font-family="sans-serif" font-size="14" lengthAdjust="spacing" textLength="73" x="156.5" y="86.4941">Catalog Api</text><rect fill="#E2E2F0" height="31.6094" rx="2.5" ry="2.5" style="stroke:#181818;stroke-width:0.5;" width="87" x="149.5" y="363.0313"/><text fill="#000000" font-family="sans-serif" font-size="14" lengthAdjust="spacing" textLength="73" x="156.5" y="384.5645">Catalog Api</text><rect fill="#E2E2F0" height="31.6094" rx="2.5" ry="2.5" style="stroke:#181818;stroke-width:0.5;" width="115" x="334.5" y="64.9609"/><text fill="#000000" font-family="sans-serif" font-size="14" lengthAdjust="spacing" textLength="101" x="341.5" y="86.4941">Catalog Context</text><rect fill="#E2E2F0" height="31.6094" rx="2.5" ry="2.5" style="stroke:#181818;stroke-width:0.5;" width="115" x="334.5" y="363.0313"/><text fill="#000000" font-family="sans-serif" font-size="14" lengthAdjust="spacing" textLength="101" x="341.5" y="384.5645">Catalog Context</text><polygon fill="#181818" points="181,125.9219,191,129.9219,181,133.9219,185,129.9219" style="stroke:#181818;stroke-width:1.0;"/><line style="stroke:#181818;stroke-width:1.0;" x1="99" x2="187" y1="129.9219" y2="129.9219"/><text fill="#000000" font-family="sans-serif" font-size="13" lengthAdjust="spacing" textLength="70" x="106" y="125.0654">Update Item</text><path d="M129.5,144.9219 L251.5,144.9219 L251.5,153.2734 L241.5,163.2734 L129.5,163.2734 L129.5,144.9219 " fill="#EEEEEE" style="stroke:#000000;stroke-width:1.5;"/><rect fill="none" height="202.1094" style="stroke:#000000;stroke-width:1.5;" width="340" x="129.5" y="144.9219"/><text fill="#000000" font-family="sans-serif" font-size="13" font-weight="bold" lengthAdjust="spacing" textLength="77" x="144.5" y="159.417">Update Item</text><path d="M139.5,170.2734 L200.5,170.2734 L200.5,178.625 L190.5,188.625 L139.5,188.625 L139.5,170.2734 " fill="#EEEEEE" style="stroke:#000000;stroke-width:1.5;"/><rect fill="none" height="61.7031" style="stroke:#000000;stroke-width:1.5;" width="257.5" x="139.5" y="170.2734"/><text fill="#000000" font-family="sans-serif" font-size="13" font-weight="bold" lengthAdjust="spacing" textLength="16" x="154.5" y="184.7686">alt</text><text fill="#000000" font-family="sans-serif" font-size="11" font-weight="bold" lengthAdjust="spacing" textLength="110" x="215.5" y="183.6924">[catalogItem == null]</text><line style="stroke:#181818;stroke-width:1.0;" x1="193" x2="235" y1="210.9766" y2="210.9766"/><line style="stroke:#181818;stroke-width:1.0;" x1="235" x2="235" y1="210.9766" y2="223.9766"/><line style="stroke:#181818;stroke-width:1.0;" x1="194" x2="235" y1="223.9766" y2="223.9766"/><polygon fill="#181818" points="204,219.9766,194,223.9766,204,227.9766,200,223.9766" style="stroke:#181818;stroke-width:1.0;"/><text fill="#000000" font-family="sans-serif" font-size="13" lengthAdjust="spacing" textLength="185" x="200" y="206.1201">Retun (TypedResults.NotFound)</text><path d="M139.5,245.9766 L200.5,245.9766 L200.5,254.3281 L190.5,264.3281 L139.5,264.3281 L139.5,245.9766 " fill="#EEEEEE" style="stroke:#000000;stroke-width:1.5;"/><rect fill="none" height="50.7031" style="stroke:#000000;stroke-width:1.5;" width="320" x="139.5" y="245.9766"/><text fill="#000000" font-family="sans-serif" font-size="13" font-weight="bold" lengthAdjust="spacing" textLength="16" x="154.5" y="260.4717">alt</text><text fill="#000000" font-family="sans-serif" font-size="11" font-weight="bold" lengthAdjust="spacing" textLength="125" x="215.5" y="259.3955">[priceEntry.IsModified]</text><line style="stroke:#000000;stroke-width:1.0;stroke-dasharray:2.0,2.0;" x1="139.5" x2="459.5" y1="265.3281" y2="265.3281"/><polygon fill="#181818" points="380,284.6797,390,288.6797,380,292.6797,384,288.6797" style="stroke:#181818;stroke-width:1.0;"/><line style="stroke:#181818;stroke-width:1.0;" x1="193" x2="386" y1="288.6797" y2="288.6797"/><text fill="#000000" font-family="sans-serif" font-size="13" lengthAdjust="spacing" textLength="124" x="200" y="283.8232">Save Changes Async</text><line style="stroke:#181818;stroke-width:1.0;" x1="193" x2="235" y1="326.0313" y2="326.0313"/><line style="stroke:#181818;stroke-width:1.0;" x1="235" x2="235" y1="326.0313" y2="339.0313"/><line style="stroke:#181818;stroke-width:1.0;" x1="194" x2="235" y1="339.0313" y2="339.0313"/><polygon fill="#181818" points="204,335.0313,194,339.0313,204,343.0313,200,339.0313" style="stroke:#181818;stroke-width:1.0;"/><text fill="#000000" font-family="sans-serif" font-size="13" lengthAdjust="spacing" textLength="174" x="200" y="321.1748">Retun (TypedResults.Created)</text><!--SRC=[tLInJiCm4Dtz5KTPO6Wc9gGYLL4hPO2X0J4VoRMrv9oDVMwRlyTD0pI010EL41uit_bTtdk-KywSnrM3OB2rKI0q9CYeb6Wn13aA6hk2gTCmxlTXxi7LA0I5K9EYafuZSKLxc6sSPM81GnioIZdqeYljCAL6ivsGPpGZm03vLS4fd1kxpKgxb2rwAjkGFXcoL-0XLkh9xc1q9644vuzhBQGWhSFjn-o0U52Qk6ihJ99HkROkc_fgNrL9zFH9IL-P2hFSig1cyY4xXBtLOv0YhY7fKKVA2bvw3E9Zn_2zo3qFxUHNX0wvlz3SaxthVZkedpS8nZUdUrAuFXutjV8ska46ZK1rW7S3EPa0HsFKwHITsEw2939StBUEwWM5Q1BWpihSHgulzmtgB3klAvgn-3OhmgsjzL9JhSW4Whzj_QSpcLwYn4tw7QsHLnHW6bgkEll_ghEvfpJAVMFL2m00]--></g></svg>