<?xml version="1.0" encoding="us-ascii" standalone="no"?><svg xmlns="http://www.w3.org/2000/svg" xmlns:xlink="http://www.w3.org/1999/xlink" contentStyleType="text/css" height="252px" preserveAspectRatio="none" style="width:536px;height:252px;background:#FFFFFF;" version="1.1" viewBox="0 0 536 252" width="536px" zoomAndPan="magnify"><defs/><g><text fill="#000000" font-family="sans-serif" font-size="14" font-weight="bold" lengthAdjust="spacing" textLength="508" x="10" y="29.5332">Catalog Api - Api - Catalog Api - Update Item - Sequence - Container level</text><rect fill="#FFFFFF" height="201.625" style="stroke:#181818;stroke-width:0.5;" width="222" x="200.75" y="44.6094"/><text fill="#000000" font-family="sans-serif" font-size="13" font-weight="bold" lengthAdjust="spacing" textLength="74" x="274.75" y="58.1045">Catalog Api</text><rect fill="none" height="48.7031" style="stroke:#000000;stroke-width:1.5;" width="234" x="194.75" y="144.9219"/><line style="stroke:#181818;stroke-width:0.5;stroke-dasharray:5.0,5.0;" x1="127.25" x2="127.25" y1="97.5703" y2="210.625"/><line style="stroke:#181818;stroke-width:0.5;stroke-dasharray:5.0,5.0;" x1="221.75" x2="221.75" y1="97.5703" y2="210.625"/><line style="stroke:#181818;stroke-width:0.5;stroke-dasharray:5.0,5.0;" x1="369.75" x2="369.75" y1="97.5703" y2="210.625"/><rect fill="#E2E2F0" height="31.6094" rx="2.5" ry="2.5" style="stroke:#181818;stroke-width:0.5;" width="65" x="95.25" y="64.9609"/><text fill="#000000" font-family="sans-serif" font-size="14" lengthAdjust="spacing" textLength="51" x="102.25" y="86.4941">External</text><rect fill="#E2E2F0" height="31.6094" rx="2.5" ry="2.5" style="stroke:#181818;stroke-width:0.5;" width="65" x="95.25" y="209.625"/><text fill="#000000" font-family="sans-serif" font-size="14" lengthAdjust="spacing" textLength="51" x="102.25" y="231.1582">External</text><rect fill="#E2E2F0" height="31.6094" rx="2.5" ry="2.5" style="stroke:#181818;stroke-width:0.5;" width="34" x="204.75" y="64.9609"/><text fill="#000000" font-family="sans-serif" font-size="14" lengthAdjust="spacing" textLength="20" x="211.75" y="86.4941">Api</text><rect fill="#E2E2F0" height="31.6094" rx="2.5" ry="2.5" style="stroke:#181818;stroke-width:0.5;" width="34" x="204.75" y="209.625"/><text fill="#000000" font-family="sans-serif" font-size="14" lengthAdjust="spacing" textLength="20" x="211.75" y="231.1582">Api</text><rect fill="#E2E2F0" height="31.6094" rx="2.5" ry="2.5" style="stroke:#181818;stroke-width:0.5;" width="98" x="320.75" y="64.9609"/><text fill="#000000" font-family="sans-serif" font-size="14" lengthAdjust="spacing" textLength="84" x="327.75" y="86.4941">Infrastructure</text><rect fill="#E2E2F0" height="31.6094" rx="2.5" ry="2.5" style="stroke:#181818;stroke-width:0.5;" width="98" x="320.75" y="209.625"/><text fill="#000000" font-family="sans-serif" font-size="14" lengthAdjust="spacing" textLength="84" x="327.75" y="231.1582">Infrastructure</text><polygon fill="#181818" points="209.75,125.9219,219.75,129.9219,209.75,133.9219,213.75,129.9219" style="stroke:#181818;stroke-width:1.0;"/><line style="stroke:#181818;stroke-width:1.0;" x1="127.75" x2="215.75" y1="129.9219" y2="129.9219"/><text fill="#000000" font-family="sans-serif" font-size="13" lengthAdjust="spacing" textLength="70" x="134.75" y="125.0654">Update Item</text><path d="M194.75,144.9219 L316.75,144.9219 L316.75,153.2734 L306.75,163.2734 L194.75,163.2734 L194.75,144.9219 " fill="#EEEEEE" style="stroke:#000000;stroke-width:1.5;"/><rect fill="none" height="48.7031" style="stroke:#000000;stroke-width:1.5;" width="234" x="194.75" y="144.9219"/><text fill="#000000" font-family="sans-serif" font-size="13" font-weight="bold" lengthAdjust="spacing" textLength="77" x="209.75" y="159.417">Update Item</text><polygon fill="#181818" points="357.75,181.625,367.75,185.625,357.75,189.625,361.75,185.625" style="stroke:#181818;stroke-width:1.0;"/><line style="stroke:#181818;stroke-width:1.0;" x1="221.75" x2="363.75" y1="185.625" y2="185.625"/><text fill="#000000" font-family="sans-serif" font-size="13" lengthAdjust="spacing" textLength="124" x="228.75" y="180.7686">Save Changes Async</text><!--SRC=[hL8nRiCm3Dpv2jQTewbJXm96q0AUXQ8pQpEs09bI9Jg9VryvJOiOMJfOWu2ZgBlZIGynKJyIUfh3f9X7LX82KAUUSKzAFlHOHuUxwxwklSUEbB5H7Wko_3MnjBoq1L5omWaz7za3H4hgMXT95AlNit8IyXLInlrJ8mM- -N0oDXpqH8djd0jbDh-DFnZWCvonkh5GuUF7u9G1orf9N0uBUnTKM0tR8KHJftRfRdLAVATrfIqNpP_xR0gy9s_aa2XhcYvCc-YiAO6bmp8i0Fm_7jozR34kFjy-A_GfJ75LsK9Z0wlhn8fhIyVoPmUIdZFMUPPsYH7W6m00]--></g></svg>