<?xml version="1.0" encoding="us-ascii" standalone="no"?><svg xmlns="http://www.w3.org/2000/svg" xmlns:xlink="http://www.w3.org/1999/xlink" contentStyleType="text/css" height="446px" preserveAspectRatio="none" style="width:1184px;height:446px;background:#FFFFFF;" version="1.1" viewBox="0 0 1184 446" width="1184px" zoomAndPan="magnify"><defs/><g><text fill="#000000" font-family="sans-serif" font-size="14" font-weight="bold" lengthAdjust="spacing" textLength="1156" x="10" y="29.5332">E Commerce Platform - Create Product - Price Management - Pricing Service - Message Handler - Handle Purchase Order Created Event - Sequence - Container level</text><rect fill="#FFFFFF" height="389.0313" style="stroke:#181818;stroke-width:0.5;" width="220.5" x="505.25" y="44.6094"/><text fill="#000000" font-family="sans-serif" font-size="13" font-weight="bold" lengthAdjust="spacing" textLength="97" x="567" y="58.1045">Pricing Service</text><rect fill="#FFFFFF" height="389.0313" style="stroke:#181818;stroke-width:0.5;" width="102" x="772.25" y="44.6094"/><text fill="#000000" font-family="sans-serif" font-size="13" font-weight="bold" lengthAdjust="spacing" textLength="96" x="775.25" y="58.1045">Buying Service</text><rect fill="none" height="174.1094" style="stroke:#000000;stroke-width:1.5;" width="398" x="479.25" y="175.9219"/><rect fill="none" height="111.4063" style="stroke:#000000;stroke-width:1.5;" width="297" x="489.25" y="231.625"/><rect fill="none" height="48.7031" style="stroke:#000000;stroke-width:1.5;" width="232.5" x="499.25" y="287.3281"/><line style="stroke:#181818;stroke-width:0.5;stroke-dasharray:5.0,5.0;" x1="326.75" x2="326.75" y1="128.5703" y2="367.0313"/><line style="stroke:#181818;stroke-width:0.5;stroke-dasharray:5.0,5.0;" x1="571.25" x2="571.25" y1="128.5703" y2="367.0313"/><line style="stroke:#181818;stroke-width:0.5;stroke-dasharray:5.0,5.0;" x1="687.75" x2="687.75" y1="128.5703" y2="367.0313"/><line style="stroke:#181818;stroke-width:0.5;stroke-dasharray:5.0,5.0;" x1="823.25" x2="823.25" y1="128.5703" y2="367.0313"/><rect fill="#E2E2F0" height="31.6094" rx="2.5" ry="2.5" style="stroke:#181818;stroke-width:0.5;" width="65" x="294.75" y="95.9609"/><text fill="#000000" font-family="sans-serif" font-size="14" lengthAdjust="spacing" textLength="51" x="301.75" y="117.4941">External</text><rect fill="#E2E2F0" height="31.6094" rx="2.5" ry="2.5" style="stroke:#181818;stroke-width:0.5;" width="65" x="294.75" y="366.0313"/><text fill="#000000" font-family="sans-serif" font-size="14" lengthAdjust="spacing" textLength="51" x="301.75" y="387.5645">External</text><rect fill="#E2E2F0" height="31.6094" rx="2.5" ry="2.5" style="stroke:#181818;stroke-width:0.5;" width="124" x="509.25" y="95.9609"/><text fill="#000000" font-family="sans-serif" font-size="14" lengthAdjust="spacing" textLength="110" x="516.25" y="117.4941">Message Handler</text><rect fill="#E2E2F0" height="31.6094" rx="2.5" ry="2.5" style="stroke:#181818;stroke-width:0.5;" width="124" x="509.25" y="366.0313"/><text fill="#000000" font-family="sans-serif" font-size="14" lengthAdjust="spacing" textLength="110" x="516.25" y="387.5645">Message Handler</text><text fill="#000000" font-family="sans-serif" font-size="14" lengthAdjust="spacing" textLength="61" x="654.75" y="125.4941">Database</text><path d="M670.25,74.9609 C670.25,64.9609 688.25,64.9609 688.25,64.9609 C688.25,64.9609 706.25,64.9609 706.25,74.9609 L706.25,100.9609 C706.25,110.9609 688.25,110.9609 688.25,110.9609 C688.25,110.9609 670.25,110.9609 670.25,100.9609 L670.25,74.9609 " fill="#E2E2F0" style="stroke:#181818;stroke-width:1.5;"/><path d="M670.25,74.9609 C670.25,84.9609 688.25,84.9609 688.25,84.9609 C688.25,84.9609 706.25,84.9609 706.25,74.9609 " fill="none" style="stroke:#181818;stroke-width:1.5;"/><text fill="#000000" font-family="sans-serif" font-size="14" lengthAdjust="spacing" textLength="61" x="654.75" y="380.5645">Database</text><path d="M670.25,393.6406 C670.25,383.6406 688.25,383.6406 688.25,383.6406 C688.25,383.6406 706.25,383.6406 706.25,393.6406 L706.25,419.6406 C706.25,429.6406 688.25,429.6406 688.25,429.6406 C688.25,429.6406 670.25,429.6406 670.25,419.6406 L670.25,393.6406 " fill="#E2E2F0" style="stroke:#181818;stroke-width:1.5;"/><path d="M670.25,393.6406 C670.25,403.6406 688.25,403.6406 688.25,403.6406 C688.25,403.6406 706.25,403.6406 706.25,393.6406 " fill="none" style="stroke:#181818;stroke-width:1.5;"/><path d="M784.25,100.9609 L862.25,100.9609 C867.25,100.9609 867.25,114.7656 867.25,114.7656 C867.25,114.7656 867.25,128.5703 862.25,128.5703 L784.25,128.5703 C779.25,128.5703 779.25,114.7656 779.25,114.7656 C779.25,114.7656 779.25,100.9609 784.25,100.9609 " fill="#E2E2F0" style="stroke:#181818;stroke-width:0.5;"/><path d="M862.25,100.9609 C857.25,100.9609 857.25,114.7656 857.25,114.7656 C857.25,128.5703 862.25,128.5703 862.25,128.5703 " fill="none" style="stroke:#181818;stroke-width:0.5;"/><text fill="#000000" font-family="sans-serif" font-size="14" lengthAdjust="spacing" textLength="68" x="784.25" y="120.4941">Messaging</text><path d="M784.25,366.0313 L862.25,366.0313 C867.25,366.0313 867.25,379.8359 867.25,379.8359 C867.25,379.8359 867.25,393.6406 862.25,393.6406 L784.25,393.6406 C779.25,393.6406 779.25,379.8359 779.25,379.8359 C779.25,379.8359 779.25,366.0313 784.25,366.0313 " fill="#E2E2F0" style="stroke:#181818;stroke-width:0.5;"/><path d="M862.25,366.0313 C857.25,366.0313 857.25,379.8359 857.25,379.8359 C857.25,393.6406 862.25,393.6406 862.25,393.6406 " fill="none" style="stroke:#181818;stroke-width:0.5;"/><text fill="#000000" font-family="sans-serif" font-size="14" lengthAdjust="spacing" textLength="68" x="784.25" y="385.5645">Messaging</text><polygon fill="#181818" points="559.25,156.9219,569.25,160.9219,559.25,164.9219,563.25,160.9219" style="stroke:#181818;stroke-width:1.0;"/><line style="stroke:#181818;stroke-width:1.0;" x1="327.25" x2="565.25" y1="160.9219" y2="160.9219"/><text fill="#000000" font-family="sans-serif" font-size="13" lengthAdjust="spacing" textLength="220" x="334.25" y="156.0654">Handle Purchase Order Created Event</text><path d="M479.25,175.9219 L765.25,175.9219 L765.25,184.2734 L755.25,194.2734 L479.25,194.2734 L479.25,175.9219 " fill="#EEEEEE" style="stroke:#000000;stroke-width:1.5;"/><rect fill="none" height="174.1094" style="stroke:#000000;stroke-width:1.5;" width="398" x="479.25" y="175.9219"/><text fill="#000000" font-family="sans-serif" font-size="13" font-weight="bold" lengthAdjust="spacing" textLength="241" x="494.25" y="190.417">Handle Purchase Order Created Event</text><polygon fill="#181818" points="811.25,212.625,821.25,216.625,811.25,220.625,815.25,216.625" style="stroke:#181818;stroke-width:1.0;"/><line style="stroke:#181818;stroke-width:1.0;" x1="571.25" x2="817.25" y1="216.625" y2="216.625"/><text fill="#000000" font-family="sans-serif" font-size="13" lengthAdjust="spacing" textLength="225" x="578.25" y="211.7686">Receive Purchase Order Created Event</text><path d="M489.25,231.625 L562.25,231.625 L562.25,239.9766 L552.25,249.9766 L489.25,249.9766 L489.25,231.625 " fill="#EEEEEE" style="stroke:#000000;stroke-width:1.5;"/><rect fill="none" height="111.4063" style="stroke:#000000;stroke-width:1.5;" width="297" x="489.25" y="231.625"/><text fill="#000000" font-family="sans-serif" font-size="13" font-weight="bold" lengthAdjust="spacing" textLength="28" x="504.25" y="246.1201">loop</text><text fill="#000000" font-family="sans-serif" font-size="11" font-weight="bold" lengthAdjust="spacing" textLength="204" x="577.25" y="245.0439">[For each Product in Purchase Order]</text><polygon fill="#181818" points="676.25,268.3281,686.25,272.3281,676.25,276.3281,680.25,272.3281" style="stroke:#181818;stroke-width:1.0;"/><line style="stroke:#181818;stroke-width:1.0;" x1="571.25" x2="682.25" y1="272.3281" y2="272.3281"/><text fill="#000000" font-family="sans-serif" font-size="13" lengthAdjust="spacing" textLength="93" x="578.25" y="267.4717">Select Products</text><path d="M499.25,287.3281 L560.25,287.3281 L560.25,295.6797 L550.25,305.6797 L499.25,305.6797 L499.25,287.3281 " fill="#EEEEEE" style="stroke:#000000;stroke-width:1.5;"/><rect fill="none" height="48.7031" style="stroke:#000000;stroke-width:1.5;" width="232.5" x="499.25" y="287.3281"/><text fill="#000000" font-family="sans-serif" font-size="13" font-weight="bold" lengthAdjust="spacing" textLength="16" x="514.25" y="301.8232">alt</text><text fill="#000000" font-family="sans-serif" font-size="11" font-weight="bold" lengthAdjust="spacing" textLength="109" x="575.25" y="300.7471">[Product Not Found]</text><polygon fill="#181818" points="676.25,324.0313,686.25,328.0313,676.25,332.0313,680.25,328.0313" style="stroke:#181818;stroke-width:1.0;"/><line style="stroke:#181818;stroke-width:1.0;" x1="571.25" x2="682.25" y1="328.0313" y2="328.0313"/><text fill="#000000" font-family="sans-serif" font-size="13" lengthAdjust="spacing" textLength="81" x="578.25" y="323.1748">Insert Product</text><!--SRC=[tPJ1JiCm38RlUGghdDSJ9mv8K3h1OJ3H0sUlyRPAQLAIjDlU7dTD2soQg0HCY4gL4iVr__jBKbzuHP12OigIR4umL-YNnfOmWSGIUevO8-lSSs1k2ywOeSOLbQJxKA5Na95jsiK9pCWvNeTxr5AHvKWtWdbjypKwWYShETvLbv0sNQMCNclI-nA9qHuBpKcA6b92L6WzwrJ8cL6wzMGrgWZGGNBve7awLMOJPsRfDsWfspbFfOlxn6uknC9i8Jem7C75oxhm982VJp87VUpLqXvJJodkkWY8uZsWTpv7Ze9uq8w7FbqSr8BOter4ZukMLtGNHh_iePSHf2KmB16GtTQxKyHuoshgMN7IA8TTlHijPzIU22qBn_CZertQILQyzi7e-7C0a-kpxIDSZJdyOcLDNOtAF9ln4P1-R1kPqZFbL3HVDA-CgM1gB13cw-6tLEY3h_uKfE_VHgQJaIBkDDHq0jKmWKVZcKcjvVzh-q4xiaEdxMKVNl46]--></g></svg>