<?xml version="1.0" encoding="us-ascii" standalone="no"?><svg xmlns="http://www.w3.org/2000/svg" xmlns:xlink="http://www.w3.org/1999/xlink" contentStyleType="text/css" height="377px" preserveAspectRatio="none" style="width:1184px;height:377px;background:#FFFFFF;" version="1.1" viewBox="0 0 1184 377" width="1184px" zoomAndPan="magnify"><defs/><g><text fill="#000000" font-family="sans-serif" font-size="14" font-weight="bold" lengthAdjust="spacing" textLength="1156" x="10" y="29.5332">E Commerce Platform - Create Product - Price Management - Pricing Service - Message Handler - Handle Purchase Order Created Event - Sequence - Container level</text><rect fill="#FFFFFF" height="327.0313" style="stroke:#181818;stroke-width:0.5;" width="224.5" x="505.25" y="44.6094"/><text fill="#000000" font-family="sans-serif" font-size="13" font-weight="bold" lengthAdjust="spacing" textLength="97" x="569" y="58.1045">Pricing Service</text><rect fill="#FFFFFF" height="327.0313" style="stroke:#181818;stroke-width:0.5;" width="102" x="775.25" y="44.6094"/><text fill="#000000" font-family="sans-serif" font-size="13" font-weight="bold" lengthAdjust="spacing" textLength="96" x="778.25" y="58.1045">Buying Service</text><rect fill="none" height="174.1094" style="stroke:#000000;stroke-width:1.5;" width="398" x="479.25" y="144.9219"/><rect fill="none" height="111.4063" style="stroke:#000000;stroke-width:1.5;" width="297" x="489.25" y="200.625"/><rect fill="none" height="48.7031" style="stroke:#000000;stroke-width:1.5;" width="236.5" x="499.25" y="256.3281"/><line style="stroke:#181818;stroke-width:0.5;stroke-dasharray:5.0,5.0;" x1="326.75" x2="326.75" y1="97.5703" y2="336.0313"/><line style="stroke:#181818;stroke-width:0.5;stroke-dasharray:5.0,5.0;" x1="571.25" x2="571.25" y1="97.5703" y2="336.0313"/><line style="stroke:#181818;stroke-width:0.5;stroke-dasharray:5.0,5.0;" x1="687.75" x2="687.75" y1="97.5703" y2="336.0313"/><line style="stroke:#181818;stroke-width:0.5;stroke-dasharray:5.0,5.0;" x1="826.25" x2="826.25" y1="97.5703" y2="336.0313"/><rect fill="#E2E2F0" height="31.6094" rx="2.5" ry="2.5" style="stroke:#181818;stroke-width:0.5;" width="65" x="294.75" y="64.9609"/><text fill="#000000" font-family="sans-serif" font-size="14" lengthAdjust="spacing" textLength="51" x="301.75" y="86.4941">External</text><rect fill="#E2E2F0" height="31.6094" rx="2.5" ry="2.5" style="stroke:#181818;stroke-width:0.5;" width="65" x="294.75" y="335.0313"/><text fill="#000000" font-family="sans-serif" font-size="14" lengthAdjust="spacing" textLength="51" x="301.75" y="356.5645">External</text><rect fill="#E2E2F0" height="31.6094" rx="2.5" ry="2.5" style="stroke:#181818;stroke-width:0.5;" width="124" x="509.25" y="64.9609"/><text fill="#000000" font-family="sans-serif" font-size="14" lengthAdjust="spacing" textLength="110" x="516.25" y="86.4941">Message Handler</text><rect fill="#E2E2F0" height="31.6094" rx="2.5" ry="2.5" style="stroke:#181818;stroke-width:0.5;" width="124" x="509.25" y="335.0313"/><text fill="#000000" font-family="sans-serif" font-size="14" lengthAdjust="spacing" textLength="110" x="516.25" y="356.5645">Message Handler</text><rect fill="#E2E2F0" height="31.6094" rx="2.5" ry="2.5" style="stroke:#181818;stroke-width:0.5;" width="75" x="650.75" y="64.9609"/><text fill="#000000" font-family="sans-serif" font-size="14" lengthAdjust="spacing" textLength="61" x="657.75" y="86.4941">Database</text><rect fill="#E2E2F0" height="31.6094" rx="2.5" ry="2.5" style="stroke:#181818;stroke-width:0.5;" width="75" x="650.75" y="335.0313"/><text fill="#000000" font-family="sans-serif" font-size="14" lengthAdjust="spacing" textLength="61" x="657.75" y="356.5645">Database</text><rect fill="#E2E2F0" height="31.6094" rx="2.5" ry="2.5" style="stroke:#181818;stroke-width:0.5;" width="82" x="785.25" y="64.9609"/><text fill="#000000" font-family="sans-serif" font-size="14" lengthAdjust="spacing" textLength="68" x="792.25" y="86.4941">Messaging</text><rect fill="#E2E2F0" height="31.6094" rx="2.5" ry="2.5" style="stroke:#181818;stroke-width:0.5;" width="82" x="785.25" y="335.0313"/><text fill="#000000" font-family="sans-serif" font-size="14" lengthAdjust="spacing" textLength="68" x="792.25" y="356.5645">Messaging</text><polygon fill="#181818" points="559.25,125.9219,569.25,129.9219,559.25,133.9219,563.25,129.9219" style="stroke:#181818;stroke-width:1.0;"/><line style="stroke:#181818;stroke-width:1.0;" x1="327.25" x2="565.25" y1="129.9219" y2="129.9219"/><text fill="#000000" font-family="sans-serif" font-size="13" lengthAdjust="spacing" textLength="220" x="334.25" y="125.0654">Handle Purchase Order Created Event</text><path d="M479.25,144.9219 L765.25,144.9219 L765.25,153.2734 L755.25,163.2734 L479.25,163.2734 L479.25,144.9219 " fill="#EEEEEE" style="stroke:#000000;stroke-width:1.5;"/><rect fill="none" height="174.1094" style="stroke:#000000;stroke-width:1.5;" width="398" x="479.25" y="144.9219"/><text fill="#000000" font-family="sans-serif" font-size="13" font-weight="bold" lengthAdjust="spacing" textLength="241" x="494.25" y="159.417">Handle Purchase Order Created Event</text><polygon fill="#181818" points="814.25,181.625,824.25,185.625,814.25,189.625,818.25,185.625" style="stroke:#181818;stroke-width:1.0;"/><line style="stroke:#181818;stroke-width:1.0;" x1="571.25" x2="820.25" y1="185.625" y2="185.625"/><text fill="#000000" font-family="sans-serif" font-size="13" lengthAdjust="spacing" textLength="225" x="578.25" y="180.7686">Receive Purchase Order Created Event</text><path d="M489.25,200.625 L562.25,200.625 L562.25,208.9766 L552.25,218.9766 L489.25,218.9766 L489.25,200.625 " fill="#EEEEEE" style="stroke:#000000;stroke-width:1.5;"/><rect fill="none" height="111.4063" style="stroke:#000000;stroke-width:1.5;" width="297" x="489.25" y="200.625"/><text fill="#000000" font-family="sans-serif" font-size="13" font-weight="bold" lengthAdjust="spacing" textLength="28" x="504.25" y="215.1201">loop</text><text fill="#000000" font-family="sans-serif" font-size="11" font-weight="bold" lengthAdjust="spacing" textLength="204" x="577.25" y="214.0439">[For each Product in Purchase Order]</text><polygon fill="#181818" points="676.25,237.3281,686.25,241.3281,676.25,245.3281,680.25,241.3281" style="stroke:#181818;stroke-width:1.0;"/><line style="stroke:#181818;stroke-width:1.0;" x1="571.25" x2="682.25" y1="241.3281" y2="241.3281"/><text fill="#000000" font-family="sans-serif" font-size="13" lengthAdjust="spacing" textLength="93" x="578.25" y="236.4717">Select Products</text><path d="M499.25,256.3281 L560.25,256.3281 L560.25,264.6797 L550.25,274.6797 L499.25,274.6797 L499.25,256.3281 " fill="#EEEEEE" style="stroke:#000000;stroke-width:1.5;"/><rect fill="none" height="48.7031" style="stroke:#000000;stroke-width:1.5;" width="236.5" x="499.25" y="256.3281"/><text fill="#000000" font-family="sans-serif" font-size="13" font-weight="bold" lengthAdjust="spacing" textLength="16" x="514.25" y="270.8232">alt</text><text fill="#000000" font-family="sans-serif" font-size="11" font-weight="bold" lengthAdjust="spacing" textLength="109" x="575.25" y="269.7471">[Product Not Found]</text><polygon fill="#181818" points="676.25,293.0313,686.25,297.0313,676.25,301.0313,680.25,297.0313" style="stroke:#181818;stroke-width:1.0;"/><line style="stroke:#181818;stroke-width:1.0;" x1="571.25" x2="682.25" y1="297.0313" y2="297.0313"/><text fill="#000000" font-family="sans-serif" font-size="13" lengthAdjust="spacing" textLength="81" x="578.25" y="292.1748">Insert Product</text><!--SRC=[tPHDJyCm38Rl-HLMEQydJXoGe7HYXy543voznjiYfKb9qcxxztZh1x09KJIO49KgrOxhz_MJfa45JP12Oek2N4umqnWMrXKmWiGH1iuuAwiyS6Bc55TCqU2I2Z9TIfabPEJgtU88fkGzhyCz6gd9SQPvWbdbyXLwWaSdETzqbv3MJQUCNYeo-nQ9DG6LuI9DDMaXIdI1TKhaoYZT1786TGJe8RcS60x7sgxZp2x26XrbMn-ey75NsCH2pEq6eWF34LmyhrGW0Nnza3cOOw-MTfWwId4pHOietWDwutFag1LljUD-JX-tQgtOiPix33XdUBzievCHP2GmBz5Ikwsstu36fODyDbrlZ9pIxjCmKdcEZ-msPPz2uxLtTeT_432wFjk6mjMGKo2MpbRbeCgp6Hy0wSUsaIazKKwg_c9uRMq9O-k0C5_r_oTb3jxwKv1EFvDC9oDDF6dRqmlKVG0FDZ2JoiZ_D_R4U7BzfBl3tj_Y5G00]--></g></svg>