<?xml version="1.0" encoding="us-ascii" standalone="no"?><svg xmlns="http://www.w3.org/2000/svg" xmlns:xlink="http://www.w3.org/1999/xlink" contentStyleType="text/css" height="448px" preserveAspectRatio="none" style="width:463px;height:448px;background:#FFFFFF;" version="1.1" viewBox="0 0 463 448" width="463px" zoomAndPan="magnify"><defs/><g><text fill="#000000" font-family="sans-serif" font-size="14" font-weight="bold" lengthAdjust="spacing" textLength="435" x="10" y="24.5332">BigBankPlc - Complete (End-To-End) - C4 Static - Context level</text><!--entity BigBankPlc.Actors.Customer--><g id="elem_BigBankPlc.Actors.Customer"><ellipse cx="295.5" cy="67.1094" fill="#08427B" rx="16" ry="16" style="stroke:#073B6F;stroke-width:0.5;"/><path d="M295.5,87.1094 C299.5,87.1094 302.5,87.1094 306.5,83.1094 C314.5,83.1094 322.5,91.1094 322.5,99.1094 L322.5,103.1094 C322.5,107.1094 318.5,111.1094 314.5,111.1094 L276.5,111.1094 C272.5,111.1094 268.5,107.1094 268.5,103.1094 L268.5,99.1094 C268.5,91.1094 276.5,83.1094 284.5,83.1094 C288.5,87.1094 291.5,87.1094 295.5,87.1094 " fill="#08427B" style="stroke:#073B6F;stroke-width:0.5;"/><text fill="#08427B" font-family="sans-serif" font-size="16" font-weight="bold" lengthAdjust="spacing" textLength="75" x="258" y="128.2188">Customer</text></g><!--entity BigBankPlc.SoftwareSystems.InternetBanking--><g id="elem_BigBankPlc.SoftwareSystems.InternetBanking"><rect fill="#1168BD" height="40.125" rx="2.5" ry="2.5" style="stroke:#3C7FC0;stroke-width:0.5;" width="146" x="141.5" y="184.6094"/><text fill="#FFFFFF" font-family="sans-serif" font-size="16" font-weight="bold" lengthAdjust="spacing" textLength="58" x="151.5" y="211.2188">Internet</text><text fill="#FFFFFF" font-family="sans-serif" font-size="16" font-weight="bold" lengthAdjust="spacing" textLength="4" x="209.5" y="211.2188">&#160;</text><text fill="#FFFFFF" font-family="sans-serif" font-size="16" font-weight="bold" lengthAdjust="spacing" textLength="64" x="213.5" y="211.2188">Banking</text></g><!--entity BigBankPlc.SoftwareSystems.MainframeBankingSystem--><g id="elem_BigBankPlc.SoftwareSystems.MainframeBankingSystem"><rect fill="#999999" height="60.25" rx="2.5" ry="2.5" style="stroke:#8A8A8A;stroke-width:0.5;" width="167" x="75" y="277.6094"/><text fill="#FFFFFF" font-family="sans-serif" font-size="16" font-weight="bold" lengthAdjust="spacing" textLength="79" x="85" y="304.2188">Mainframe</text><text fill="#FFFFFF" font-family="sans-serif" font-size="16" font-weight="bold" lengthAdjust="spacing" textLength="4" x="164" y="304.2188">&#160;</text><text fill="#FFFFFF" font-family="sans-serif" font-size="16" font-weight="bold" lengthAdjust="spacing" textLength="64" x="168" y="304.2188">Banking</text><text fill="#FFFFFF" font-family="sans-serif" font-size="16" font-weight="bold" lengthAdjust="spacing" textLength="57" x="130" y="324.3438">System</text></g><!--entity BigBankPlc.SoftwareSystems.EMailSystem--><g id="elem_BigBankPlc.SoftwareSystems.EMailSystem"><rect fill="#999999" height="40.125" rx="2.5" ry="2.5" style="stroke:#8A8A8A;stroke-width:0.5;" width="127" x="260" y="287.6094"/><text fill="#FFFFFF" font-family="sans-serif" font-size="16" font-weight="bold" lengthAdjust="spacing" textLength="46" x="270" y="314.2188">E-Mail</text><text fill="#FFFFFF" font-family="sans-serif" font-size="16" font-weight="bold" lengthAdjust="spacing" textLength="4" x="316" y="314.2188">&#160;</text><text fill="#FFFFFF" font-family="sans-serif" font-size="16" font-weight="bold" lengthAdjust="spacing" textLength="57" x="320" y="314.2188">System</text></g><polygon fill="none" points="228.4374,184.424,235.5664,179.7148,230.7121,176.1884,228.4374,184.424" style="stroke:#666666;stroke-width:1.0;"/><path d="M266.7144,131.7341 C253.7093,149.636 243.643,163.4928 233.1393,177.9516 " fill="none" style="stroke:#666666;stroke-width:1.0;"/><text fill="#666666" font-family="sans-serif" font-size="12" font-weight="bold" lengthAdjust="spacing" textLength="29" x="254.5" y="163.0664">Uses</text><polygon fill="none" points="174.2585,277.5639,180.7234,271.9778,175.4562,269.1042,174.2585,277.5639" style="stroke:#666666;stroke-width:1.0;"/><path d="M203.5429,224.7806 C200.2916,230.5054 196.7355,236.8024 193.5,242.6094 C187.1512,254.0041 184.0767,259.567 178.0898,270.541 " fill="none" style="stroke:#666666;stroke-width:1.0;"/><text fill="#666666" font-family="sans-serif" font-size="12" font-weight="bold" lengthAdjust="spacing" textLength="29" x="194.5" y="256.0664">Uses</text><polygon fill="none" points="302.8187,287.4459,298.9896,279.808,294.9115,284.2091,302.8187,287.4459" style="stroke:#666666;stroke-width:1.0;"/><path d="M235.2586,224.8444 C254.6539,242.8162 277.5803,264.06 296.9506,282.0085 " fill="none" style="stroke:#666666;stroke-width:1.0;"/><text fill="#666666" font-family="sans-serif" font-size="12" font-weight="bold" lengthAdjust="spacing" textLength="29" x="273.5" y="256.0664">Uses</text><polygon fill="none" points="320.9991,287.4509,322.9384,279.1299,316.9889,279.9065,320.9991,287.4509" style="stroke:#666666;stroke-width:1.0;"/><path d="M300.6683,131.702 C306.7045,177.9438 315.4075,244.6147 319.9636,279.5182 " fill="none" style="stroke:#666666;stroke-width:1.0;"/><text fill="#666666" font-family="sans-serif" font-size="12" font-weight="bold" lengthAdjust="spacing" textLength="29" x="313.5" y="209.5664">Uses</text><rect fill="none" height="17.6094" style="stroke:none;stroke-width:1.0;" width="136" x="233" y="350.6094"/><text fill="#000000" font-family="sans-serif" font-size="14" font-weight="bold" lengthAdjust="spacing" textLength="53" x="233" y="365.1426">Legend</text><text fill="#FFFFFF" font-family="sans-serif" font-size="14" lengthAdjust="spacing" textLength="4" x="286" y="365.1426">&#160;</text><rect fill="#08427B" height="17.6094" style="stroke:none;stroke-width:1.0;" width="136" x="233" y="368.2188"/><text fill="#073B6F" font-family="sans-serif" font-size="14" lengthAdjust="spacing" textLength="14" x="237" y="382.752">&#9647;</text><text fill="#FFFFFF" font-family="sans-serif" font-size="14" lengthAdjust="spacing" textLength="4" x="251" y="382.752">&#160;</text><text fill="#FFFFFF" font-family="sans-serif" font-size="14" lengthAdjust="spacing" textLength="44" x="259" y="382.752">person</text><text fill="#FFFFFF" font-family="sans-serif" font-size="14" lengthAdjust="spacing" textLength="4" x="307" y="382.752">&#160;</text><rect fill="#1168BD" height="17.6094" style="stroke:none;stroke-width:1.0;" width="136" x="233" y="385.8281"/><text fill="#3C7FC0" font-family="sans-serif" font-size="14" lengthAdjust="spacing" textLength="14" x="237" y="400.3613">&#9647;</text><text fill="#FFFFFF" font-family="sans-serif" font-size="14" lengthAdjust="spacing" textLength="4" x="251" y="400.3613">&#160;</text><text fill="#FFFFFF" font-family="sans-serif" font-size="14" lengthAdjust="spacing" textLength="44" x="259" y="400.3613">system</text><text fill="#FFFFFF" font-family="sans-serif" font-size="14" lengthAdjust="spacing" textLength="4" x="307" y="400.3613">&#160;</text><rect fill="#999999" height="17.6094" style="stroke:none;stroke-width:1.0;" width="136" x="233" y="403.4375"/><text fill="#8A8A8A" font-family="sans-serif" font-size="14" lengthAdjust="spacing" textLength="14" x="237" y="417.9707">&#9647;</text><text fill="#FFFFFF" font-family="sans-serif" font-size="14" lengthAdjust="spacing" textLength="4" x="251" y="417.9707">&#160;</text><text fill="#FFFFFF" font-family="sans-serif" font-size="14" lengthAdjust="spacing" textLength="102" x="259" y="417.9707">external_system</text><text fill="#FFFFFF" font-family="sans-serif" font-size="14" lengthAdjust="spacing" textLength="4" x="365" y="417.9707">&#160;</text><line style="stroke:none;stroke-width:1.0;" x1="233" x2="369" y1="350.6094" y2="350.6094"/><line style="stroke:none;stroke-width:1.0;" x1="233" x2="369" y1="368.2188" y2="368.2188"/><line style="stroke:none;stroke-width:1.0;" x1="233" x2="369" y1="385.8281" y2="385.8281"/><line style="stroke:none;stroke-width:1.0;" x1="233" x2="369" y1="403.4375" y2="403.4375"/><line style="stroke:none;stroke-width:1.0;" x1="233" x2="369" y1="421.0469" y2="421.0469"/><line style="stroke:none;stroke-width:1.0;" x1="233" x2="233" y1="350.6094" y2="421.0469"/><line style="stroke:none;stroke-width:1.0;" x1="369" x2="369" y1="350.6094" y2="421.0469"/><!--SRC=[hPDHRvim58NV-HKksmD83KzvgjI7bBAjKXTGeAegLK8UNAXLOoFRQSg_ttL90anHarH3IE1phx-3Zyr5gsZTKC9f9zU6w0OC5TIvOABWwn9843nlxsAkdyDv7afXuDq4xRhXZhCeouX30y9ajFRSOiwmgYekDrUSLL1q1OSh0Hltadp_KuUIItLTAm21umf9lVAj-hXiZrGbg6cVVg6bt31HNxi_ADVW-gVP5YzKr52EhQMoqWdU-yQlcYjevDlKN45vWdFVTS3M-gw07y_PRiyqGSu4Z1J_E6gKtO3RXpBmUka4u2YF0TYlTQ3X6DUP_eeVyoHQfV4oJ-9LjbhSPPxlt2-UueSip-8aluqVbwWu-fM9bYhQ4CimNGkabRop0ySnp70WDwo-eU8ruGMPaL0sBGS3n8j4ESla31- -rUSaDTImlkVZV1CERu07F06bfV06JB0eZ5Gw2DVQo0RK9N5thxWu5pSgxRI1PZmbbPNPK0LzHGTtDY3yO5l7FSPfEuLifGagZzxDPxZVb8aAKu3jv5v7mhwmmvA-T1OzGWhV8wEP7Kuv3cxzfmcT5SM31etGVvX7vtqbd_zlDGthCF-SU0xojh_8VVGpMjvw_by0]--></g></svg>