<?xml version="1.0" encoding="us-ascii" standalone="no"?><svg xmlns="http://www.w3.org/2000/svg" xmlns:xlink="http://www.w3.org/1999/xlink" contentStyleType="text/css" height="690px" preserveAspectRatio="none" style="width:611px;height:690px;background:#FFFFFF;" version="1.1" viewBox="0 0 611 690" width="611px" zoomAndPan="magnify"><defs/><g><text fill="#000000" font-family="sans-serif" font-size="14" font-weight="bold" lengthAdjust="spacing" textLength="357" x="123" y="24.5332">Complete (End-To-End) - C4 Static - Container level</text><!--cluster BigBankPlc.SoftwareSystems.InternetBanking--><g id="cluster_BigBankPlc.SoftwareSystems.InternetBanking"><rect fill="none" height="387.5" rx="2.5" ry="2.5" style="stroke:#444444;stroke-width:1.0;stroke-dasharray:7.0,7.0;" width="287" x="141.5" y="166.6094"/><text fill="#444444" font-family="sans-serif" font-size="16" font-weight="bold" lengthAdjust="spacing" textLength="126" x="222" y="185.2188">Internet Banking</text><text fill="#444444" font-family="sans-serif" font-size="12" font-weight="bold" lengthAdjust="spacing" textLength="51" x="259.5" y="201.1914">[System]</text></g><!--entity BigBankPlc.Actors.Customer--><g id="elem_BigBankPlc.Actors.Customer"><ellipse cx="192.5" cy="59.1094" fill="#08427B" rx="16" ry="16" style="stroke:#073B6F;stroke-width:0.5;"/><path d="M192.5,79.1094 C196.5,79.1094 199.5,79.1094 203.5,75.1094 C211.5,75.1094 219.5,83.1094 219.5,91.1094 L219.5,95.1094 C219.5,99.1094 215.5,103.1094 211.5,103.1094 L173.5,103.1094 C169.5,103.1094 165.5,99.1094 165.5,95.1094 L165.5,91.1094 C165.5,83.1094 173.5,75.1094 181.5,75.1094 C185.5,79.1094 188.5,79.1094 192.5,79.1094 " fill="#08427B" style="stroke:#073B6F;stroke-width:0.5;"/><text fill="#08427B" font-family="sans-serif" font-size="16" font-weight="bold" lengthAdjust="spacing" textLength="75" x="155" y="120.2188">Customer</text></g><!--entity BigBankPlc.SoftwareSystems.MainframeBankingSystem--><g id="elem_BigBankPlc.SoftwareSystems.MainframeBankingSystem"><rect fill="#999999" height="60.25" rx="2.5" ry="2.5" style="stroke:#8A8A8A;stroke-width:0.5;" width="167" x="437" y="491.6094"/><text fill="#FFFFFF" font-family="sans-serif" font-size="16" font-weight="bold" lengthAdjust="spacing" textLength="79" x="447" y="518.2188">Mainframe</text><text fill="#FFFFFF" font-family="sans-serif" font-size="16" font-weight="bold" lengthAdjust="spacing" textLength="4" x="526" y="518.2188">&#160;</text><text fill="#FFFFFF" font-family="sans-serif" font-size="16" font-weight="bold" lengthAdjust="spacing" textLength="64" x="530" y="518.2188">Banking</text><text fill="#FFFFFF" font-family="sans-serif" font-size="16" font-weight="bold" lengthAdjust="spacing" textLength="57" x="492" y="538.3438">System</text></g><!--entity BigBankPlc.SoftwareSystems.EMailSystem--><g id="elem_BigBankPlc.SoftwareSystems.EMailSystem"><rect fill="#999999" height="40.125" rx="2.5" ry="2.5" style="stroke:#8A8A8A;stroke-width:0.5;" width="127" x="6" y="501.6094"/><text fill="#FFFFFF" font-family="sans-serif" font-size="16" font-weight="bold" lengthAdjust="spacing" textLength="46" x="16" y="528.2188">E-Mail</text><text fill="#FFFFFF" font-family="sans-serif" font-size="16" font-weight="bold" lengthAdjust="spacing" textLength="4" x="62" y="528.2188">&#160;</text><text fill="#FFFFFF" font-family="sans-serif" font-size="16" font-weight="bold" lengthAdjust="spacing" textLength="57" x="66" y="528.2188">System</text></g><!--entity BigBankPlc.SoftwareSystems.InternetBanking.Containers.WebApplication--><g id="elem_BigBankPlc.SoftwareSystems.InternetBanking.Containers.WebApplication"><rect fill="#438DD5" height="40.125" rx="2.5" ry="2.5" style="stroke:#3C7FC0;stroke-width:0.5;" width="144" x="275.5" y="212.6094"/><text fill="#FFFFFF" font-family="sans-serif" font-size="16" font-weight="bold" lengthAdjust="spacing" textLength="34" x="285.5" y="239.2188">Web</text><text fill="#FFFFFF" font-family="sans-serif" font-size="16" font-weight="bold" lengthAdjust="spacing" textLength="4" x="319.5" y="239.2188">&#160;</text><text fill="#FFFFFF" font-family="sans-serif" font-size="16" font-weight="bold" lengthAdjust="spacing" textLength="86" x="323.5" y="239.2188">Application</text></g><!--entity BigBankPlc.SoftwareSystems.InternetBanking.Containers.SinglePageApp--><g id="elem_BigBankPlc.SoftwareSystems.InternetBanking.Containers.SinglePageApp"><rect fill="#438DD5" height="40.125" rx="2.5" ry="2.5" style="stroke:#3C7FC0;stroke-width:0.5;" width="147" x="273" y="305.6094"/><text fill="#FFFFFF" font-family="sans-serif" font-size="16" font-weight="bold" lengthAdjust="spacing" textLength="92" x="283" y="332.2188">Single-Page</text><text fill="#FFFFFF" font-family="sans-serif" font-size="16" font-weight="bold" lengthAdjust="spacing" textLength="4" x="375" y="332.2188">&#160;</text><text fill="#FFFFFF" font-family="sans-serif" font-size="16" font-weight="bold" lengthAdjust="spacing" textLength="31" x="379" y="332.2188">App</text></g><!--entity BigBankPlc.SoftwareSystems.InternetBanking.Containers.APIApplication--><g id="elem_BigBankPlc.SoftwareSystems.InternetBanking.Containers.APIApplication"><rect fill="#438DD5" height="40.125" rx="2.5" ry="2.5" style="stroke:#3C7FC0;stroke-width:0.5;" width="136" x="195.5" y="398.6094"/><text fill="#FFFFFF" font-family="sans-serif" font-size="16" font-weight="bold" lengthAdjust="spacing" textLength="26" x="205.5" y="425.2188">API</text><text fill="#FFFFFF" font-family="sans-serif" font-size="16" font-weight="bold" lengthAdjust="spacing" textLength="4" x="231.5" y="425.2188">&#160;</text><text fill="#FFFFFF" font-family="sans-serif" font-size="16" font-weight="bold" lengthAdjust="spacing" textLength="86" x="235.5" y="425.2188">Application</text></g><!--entity BigBankPlc.SoftwareSystems.InternetBanking.Containers.Database--><g id="elem_BigBankPlc.SoftwareSystems.InternetBanking.Containers.Database"><path d="M217.5,507.1094 C217.5,497.1094 263.5,497.1094 263.5,497.1094 C263.5,497.1094 309.5,497.1094 309.5,507.1094 L309.5,536.2344 C309.5,546.2344 263.5,546.2344 263.5,546.2344 C263.5,546.2344 217.5,546.2344 217.5,536.2344 L217.5,507.1094 " fill="#438DD5" style="stroke:#3C7FC0;stroke-width:0.5;"/><path d="M217.5,507.1094 C217.5,517.1094 263.5,517.1094 263.5,517.1094 C263.5,517.1094 309.5,517.1094 309.5,507.1094 " fill="none" style="stroke:#3C7FC0;stroke-width:0.5;"/><text fill="#FFFFFF" font-family="sans-serif" font-size="16" font-weight="bold" lengthAdjust="spacing" textLength="72" x="227.5" y="537.7188">Database</text></g><!--entity BigBankPlc.SoftwareSystems.InternetBanking.Containers.MobileApp--><g id="elem_BigBankPlc.SoftwareSystems.InternetBanking.Containers.MobileApp"><rect fill="#438DD5" height="40.125" rx="2.5" ry="2.5" style="stroke:#3C7FC0;stroke-width:0.5;" width="105" x="150" y="305.6094"/><text fill="#FFFFFF" font-family="sans-serif" font-size="16" font-weight="bold" lengthAdjust="spacing" textLength="50" x="160" y="332.2188">Mobile</text><text fill="#FFFFFF" font-family="sans-serif" font-size="16" font-weight="bold" lengthAdjust="spacing" textLength="4" x="210" y="332.2188">&#160;</text><text fill="#FFFFFF" font-family="sans-serif" font-size="16" font-weight="bold" lengthAdjust="spacing" textLength="31" x="214" y="332.2188">App</text></g><polygon fill="none" points="327.3805,212.4634,323.6532,204.7752,319.5171,209.1217,327.3805,212.4634" style="stroke:#666666;stroke-width:1.0;"/><path d="M230.0212,119.815 C260.6627,148.9739 296.9907,183.5441 321.5852,206.9485 " fill="none" style="stroke:#666666;stroke-width:1.0;"/><text fill="#666666" font-family="sans-serif" font-size="12" font-weight="bold" lengthAdjust="spacing" textLength="29" x="270.5" y="155.0664">Uses</text><polygon fill="none" points="346.7118,305.3384,349.7995,297.3719,343.7999,297.306,346.7118,305.3384" style="stroke:#666666;stroke-width:1.0;"/><path d="M347.2879,252.9081 C347.1182,268.3511 346.9693,281.9033 346.7997,297.3389 " fill="none" style="stroke:#666666;stroke-width:1.0;"/><text fill="#666666" font-family="sans-serif" font-size="12" font-weight="bold" lengthAdjust="spacing" textLength="29" x="347.5" y="284.0664">Uses</text><polygon fill="none" points="301.9253,305.5226,296.2197,299.1628,293.4448,304.4826,301.9253,305.5226" style="stroke:#666666;stroke-width:1.0;"/><path d="M199.1473,123.6204 C206.9793,166.6645 220.7988,232.1303 235.5,252.6094 C252.177,275.8407 271.7931,289.8052 294.8323,301.8227 " fill="none" style="stroke:#666666;stroke-width:1.0;"/><text fill="#666666" font-family="sans-serif" font-size="12" font-weight="bold" lengthAdjust="spacing" textLength="29" x="236.5" y="237.5664">Uses</text><polygon fill="none" points="281.0768,398.3384,288.6844,394.4494,284.2514,390.4061,281.0768,398.3384" style="stroke:#666666;stroke-width:1.0;"/><path d="M328.8978,345.9081 C314.8125,361.3511 300.5465,376.9921 286.4679,392.4277 " fill="none" style="stroke:#666666;stroke-width:1.0;"/><text fill="#666666" font-family="sans-serif" font-size="12" font-weight="bold" lengthAdjust="spacing" textLength="29" x="312.5" y="377.0664">Uses</text><polygon fill="none" points="263.5,496.9294,266.5,488.9294,260.5,488.9294,263.5,496.9294" style="stroke:#666666;stroke-width:1.0;"/><path d="M263.5,439.0832 C263.5,455.5922 263.5,471.324 263.5,488.9294 " fill="none" style="stroke:#666666;stroke-width:1.0;"/><text fill="#666666" font-family="sans-serif" font-size="12" font-weight="bold" lengthAdjust="spacing" textLength="29" x="264.5" y="470.0664">Uses</text><polygon fill="none" points="446.2593,491.4331,439.9109,485.7148,437.7163,491.2991,446.2593,491.4331" style="stroke:#666666;stroke-width:1.0;"/><path d="M312.1419,438.7254 C349.9774,453.5947 395.6707,471.5519 438.8136,488.5069 " fill="none" style="stroke:#666666;stroke-width:1.0;"/><text fill="#666666" font-family="sans-serif" font-size="12" font-weight="bold" lengthAdjust="spacing" textLength="29" x="400.5" y="470.0664">Uses</text><polygon fill="none" points="106.309,501.4459,114.7903,500.4126,112.0196,495.0907,106.309,501.4459" style="stroke:#666666;stroke-width:1.0;"/><path d="M226.5534,438.8444 C192.0335,456.8162 147.8804,479.8031 113.4049,497.7517 " fill="none" style="stroke:#666666;stroke-width:1.0;"/><text fill="#666666" font-family="sans-serif" font-size="12" font-weight="bold" lengthAdjust="spacing" textLength="29" x="191.5" y="470.0664">Uses</text><polygon fill="none" points="192.3902,305.3678,191.609,296.8595,186.2072,299.4711,192.3902,305.3678" style="stroke:#666666;stroke-width:1.0;"/><path d="M181.2641,123.8711 C173.1717,158.1867 165.0415,208.9689 173.5,252.6094 C177.1155,271.2632 182.0637,284.0081 188.9081,298.1653 " fill="none" style="stroke:#666666;stroke-width:1.0;"/><text fill="#666666" font-family="sans-serif" font-size="12" font-weight="bold" lengthAdjust="spacing" textLength="29" x="174.5" y="237.5664">Uses</text><polygon fill="none" points="250.5821,398.3384,248.6196,390.0229,243.6357,393.3637,250.5821,398.3384" style="stroke:#666666;stroke-width:1.0;"/><path d="M215.4365,345.9081 C225.7884,361.3511 235.7807,376.2576 246.1277,391.6933 " fill="none" style="stroke:#666666;stroke-width:1.0;"/><text fill="#666666" font-family="sans-serif" font-size="12" font-weight="bold" lengthAdjust="spacing" textLength="29" x="238.5" y="377.0664">Uses</text><polygon fill="none" points="74.3875,501.3903,79.123,494.2787,73.2793,492.9185,74.3875,501.3903" style="stroke:#666666;stroke-width:1.0;"/><path d="M154.7758,112.7574 C123.9699,139.6916 85.5,183.0482 85.5,231.6094 C85.5,231.6094 85.5,231.6094 85.5,419.6094 C85.5,448.3699 80.9065,473.3843 76.2011,493.5986 " fill="none" style="stroke:#666666;stroke-width:1.0;"/><text fill="#666666" font-family="sans-serif" font-size="12" font-weight="bold" lengthAdjust="spacing" textLength="29" x="86.5" y="330.5664">Uses</text><rect fill="none" height="17.6094" style="stroke:none;stroke-width:1.0;" width="182" x="404" y="575.1094"/><text fill="#000000" font-family="sans-serif" font-size="14" font-weight="bold" lengthAdjust="spacing" textLength="53" x="404" y="589.6426">Legend</text><text fill="#FFFFFF" font-family="sans-serif" font-size="14" lengthAdjust="spacing" textLength="4" x="457" y="589.6426">&#160;</text><rect fill="#08427B" height="17.6094" style="stroke:none;stroke-width:1.0;" width="182" x="404" y="592.7188"/><text fill="#073B6F" font-family="sans-serif" font-size="14" lengthAdjust="spacing" textLength="14" x="408" y="607.252">&#9647;</text><text fill="#FFFFFF" font-family="sans-serif" font-size="14" lengthAdjust="spacing" textLength="4" x="422" y="607.252">&#160;</text><text fill="#FFFFFF" font-family="sans-serif" font-size="14" lengthAdjust="spacing" textLength="44" x="430" y="607.252">person</text><text fill="#FFFFFF" font-family="sans-serif" font-size="14" lengthAdjust="spacing" textLength="4" x="478" y="607.252">&#160;</text><rect fill="#438DD5" height="17.6094" style="stroke:none;stroke-width:1.0;" width="182" x="404" y="610.3281"/><text fill="#3C7FC0" font-family="sans-serif" font-size="14" lengthAdjust="spacing" textLength="14" x="408" y="624.8613">&#9647;</text><text fill="#FFFFFF" font-family="sans-serif" font-size="14" lengthAdjust="spacing" textLength="4" x="422" y="624.8613">&#160;</text><text fill="#FFFFFF" font-family="sans-serif" font-size="14" lengthAdjust="spacing" textLength="59" x="430" y="624.8613">container</text><text fill="#FFFFFF" font-family="sans-serif" font-size="14" lengthAdjust="spacing" textLength="4" x="493" y="624.8613">&#160;</text><rect fill="#999999" height="17.6094" style="stroke:none;stroke-width:1.0;" width="182" x="404" y="627.9375"/><text fill="#8A8A8A" font-family="sans-serif" font-size="14" lengthAdjust="spacing" textLength="14" x="408" y="642.4707">&#9647;</text><text fill="#FFFFFF" font-family="sans-serif" font-size="14" lengthAdjust="spacing" textLength="4" x="422" y="642.4707">&#160;</text><text fill="#FFFFFF" font-family="sans-serif" font-size="14" lengthAdjust="spacing" textLength="102" x="430" y="642.4707">external_system</text><text fill="#FFFFFF" font-family="sans-serif" font-size="14" lengthAdjust="spacing" textLength="4" x="536" y="642.4707">&#160;</text><rect fill="none" height="17.6094" style="stroke:none;stroke-width:1.0;" width="182" x="404" y="645.5469"/><text fill="#444444" font-family="sans-serif" font-size="14" lengthAdjust="spacing" textLength="14" x="408" y="660.0801">&#9647;</text><text fill="#FFFFFF" font-family="sans-serif" font-size="14" lengthAdjust="spacing" textLength="4" x="422" y="660.0801">&#160;</text><text fill="#444444" font-family="sans-serif" font-size="14" lengthAdjust="spacing" textLength="108" x="430" y="660.0801">system boundary</text><text fill="#444444" font-family="sans-serif" font-size="10" lengthAdjust="spacing" textLength="40" x="542" y="660.959">(dashed)</text><text fill="#FFFFFF" font-family="sans-serif" font-size="14" lengthAdjust="spacing" textLength="4" x="582" y="660.0801">&#160;</text><line style="stroke:none;stroke-width:1.0;" x1="404" x2="586" y1="575.1094" y2="575.1094"/><line style="stroke:none;stroke-width:1.0;" x1="404" x2="586" y1="592.7188" y2="592.7188"/><line style="stroke:none;stroke-width:1.0;" x1="404" x2="586" y1="610.3281" y2="610.3281"/><line style="stroke:none;stroke-width:1.0;" x1="404" x2="586" y1="627.9375" y2="627.9375"/><line style="stroke:none;stroke-width:1.0;" x1="404" x2="586" y1="645.5469" y2="645.5469"/><line style="stroke:none;stroke-width:1.0;" x1="404" x2="586" y1="663.1563" y2="663.1563"/><line style="stroke:none;stroke-width:1.0;" x1="404" x2="404" y1="575.1094" y2="663.1563"/><line style="stroke:none;stroke-width:1.0;" x1="586" x2="586" y1="575.1094" y2="663.1563"/><!--SRC=[lLPDRwCm4BtpArns3udKSCgfKW_vO7SZjGM5LD5AbI871efgR6GxJT5g__kEIqX8b6rfGekGy3mFxysCPn0NkQH9HWcZXLXfeZBGb5Fh8kKXMqL07ETXSuTzzJ3gBqQ2Qvfoa4w-ofXb3QB8PP01rpEQTEomdt8DCcPYVSNI6C8YP735OMrVak_BP2IOaDU91E1enyXL8j_Yrylu21c1tFTJZpGIwvGdr_OFoXJOtMQouIFb2KHrQI4Dr41xwtYgk8HCFE-BIuWQA9TUHsIDxXJO-tNMyABtAyZmn6f8ztsgMkrsTDkYxFXAg05XhHuxmZBN7HlQc6VmovilV7SQU7SBtvlEfeF9hDErRWQ_lVlPOkRvYx4tlqF4Kayfpwca6J4SkiY1v88Lnh0idMe6P2Iod846qd5vr9k97Zwwf4T6VH9egjFGhAkc9WoU0RlQ1wa4xmpJP4Zvayz2Pn1g8PKpMYajCf2NnAwMc95jJYSeb8PiCHGh7b5Pr5yEHApNL4Bfefo9gG_6Q_RnY96WGiW6ihlaZqNmseRs0Jvd-v9ovh0Sv3bBGqnLO2lO290QyXfzcK4RSW7Q37oQ06eWRMdt361KMrOR-9Fzv11eajnuUQBWc6gwf0f7mAwMBQTqAvOfsnIlN1_KxM_LQEwBValZ5WbZd0pOY9IuOQqsgbuZvTQ6lncxYoniI-dsZBdFO-7duCq1QgcVxnKeb3jGEuEndSO_7bPBHMWcTZfXIzDuTbY7Z6SFxLT6zDy1_CeWzkVqKvko_kKwEyKQsQSsuqToFrhBpT_AZVlJlHjtkly0]--></g></svg>