<?xml version="1.0" encoding="us-ascii" standalone="no"?><svg xmlns="http://www.w3.org/2000/svg" xmlns:xlink="http://www.w3.org/1999/xlink" contentStyleType="text/css" height="252px" preserveAspectRatio="none" style="width:616px;height:252px;background:#FFFFFF;" version="1.1" viewBox="0 0 616 252" width="616px" zoomAndPan="magnify"><defs/><g><text fill="#000000" font-family="sans-serif" font-size="14" font-weight="bold" lengthAdjust="spacing" textLength="588" x="10" y="29.5332">To Do App Example - To Do App - Web Api - Delete Task - Sequence - Container level</text><rect fill="#FFFFFF" height="201.625" style="stroke:#181818;stroke-width:0.5;" width="172" x="257" y="44.6094"/><text fill="#000000" font-family="sans-serif" font-size="13" font-weight="bold" lengthAdjust="spacing" textLength="66" x="310" y="58.1045">To Do App</text><rect fill="none" height="48.7031" style="stroke:#000000;stroke-width:1.5;" width="184" x="251" y="144.9219"/><line style="stroke:#181818;stroke-width:0.5;stroke-dasharray:5.0,5.0;" x1="201" x2="201" y1="97.5703" y2="210.625"/><line style="stroke:#181818;stroke-width:0.5;stroke-dasharray:5.0,5.0;" x1="294" x2="294" y1="97.5703" y2="210.625"/><line style="stroke:#181818;stroke-width:0.5;stroke-dasharray:5.0,5.0;" x1="387" x2="387" y1="97.5703" y2="210.625"/><rect fill="#E2E2F0" height="31.6094" rx="2.5" ry="2.5" style="stroke:#181818;stroke-width:0.5;" width="65" x="169" y="64.9609"/><text fill="#000000" font-family="sans-serif" font-size="14" lengthAdjust="spacing" textLength="51" x="176" y="86.4941">External</text><rect fill="#E2E2F0" height="31.6094" rx="2.5" ry="2.5" style="stroke:#181818;stroke-width:0.5;" width="65" x="169" y="209.625"/><text fill="#000000" font-family="sans-serif" font-size="14" lengthAdjust="spacing" textLength="51" x="176" y="231.1582">External</text><rect fill="#E2E2F0" height="31.6094" rx="2.5" ry="2.5" style="stroke:#181818;stroke-width:0.5;" width="67" x="261" y="64.9609"/><text fill="#000000" font-family="sans-serif" font-size="14" lengthAdjust="spacing" textLength="53" x="268" y="86.4941">Web Api</text><rect fill="#E2E2F0" height="31.6094" rx="2.5" ry="2.5" style="stroke:#181818;stroke-width:0.5;" width="67" x="261" y="209.625"/><text fill="#000000" font-family="sans-serif" font-size="14" lengthAdjust="spacing" textLength="53" x="268" y="231.1582">Web Api</text><rect fill="#E2E2F0" height="31.6094" rx="2.5" ry="2.5" style="stroke:#181818;stroke-width:0.5;" width="75" x="350" y="64.9609"/><text fill="#000000" font-family="sans-serif" font-size="14" lengthAdjust="spacing" textLength="61" x="357" y="86.4941">Database</text><rect fill="#E2E2F0" height="31.6094" rx="2.5" ry="2.5" style="stroke:#181818;stroke-width:0.5;" width="75" x="350" y="209.625"/><text fill="#000000" font-family="sans-serif" font-size="14" lengthAdjust="spacing" textLength="61" x="357" y="231.1582">Database</text><polygon fill="#181818" points="282.5,125.9219,292.5,129.9219,282.5,133.9219,286.5,129.9219" style="stroke:#181818;stroke-width:1.0;"/><line style="stroke:#181818;stroke-width:1.0;" x1="201.5" x2="288.5" y1="129.9219" y2="129.9219"/><text fill="#000000" font-family="sans-serif" font-size="13" lengthAdjust="spacing" textLength="69" x="208.5" y="125.0654">Delete Task</text><path d="M251,144.9219 L370,144.9219 L370,153.2734 L360,163.2734 L251,163.2734 L251,144.9219 " fill="#EEEEEE" style="stroke:#000000;stroke-width:1.5;"/><rect fill="none" height="48.7031" style="stroke:#000000;stroke-width:1.5;" width="184" x="251" y="144.9219"/><text fill="#000000" font-family="sans-serif" font-size="13" font-weight="bold" lengthAdjust="spacing" textLength="74" x="266" y="159.417">Delete Task</text><polygon fill="#181818" points="375.5,181.625,385.5,185.625,375.5,189.625,379.5,185.625" style="stroke:#181818;stroke-width:1.0;"/><line style="stroke:#181818;stroke-width:1.0;" x1="294.5" x2="381.5" y1="185.625" y2="185.625"/><text fill="#000000" font-family="sans-serif" font-size="13" lengthAdjust="spacing" textLength="69" x="301.5" y="180.7686">Delete Task</text><!--SRC=[dL4zRy903DtzAwmm9nDJ1oH4G68E4hD3JNlYE1ztfgJ_lgOa2CfIvIP_lUVtVEhKCsu4Qy5vZBZiw1YjKZxKIjnoQv6pg6RFQW3A1yiQFfqvxAxZ2mbABd12pr_i0I8bTJiNAIWMoquv1V85KiR5T1qiNNcvL8tizKA9c- -iVCpLC7ZB0LhfiBXBAN2o_NJAWFQU5lGAV_atKeiDzrPULlJjwguuLuOsy2jhJKejPHv9Ey21mpkQ4m3ultSiPwETuDlZHy57adDygemc7YLgkCCVMNOLW1y0]--></g></svg>