<?xml version="1.0" encoding="us-ascii" standalone="no"?><svg xmlns="http://www.w3.org/2000/svg" xmlns:xlink="http://www.w3.org/1999/xlink" contentStyleType="text/css" height="383px" preserveAspectRatio="none" style="width:595px;height:383px;background:#FFFFFF;" version="1.1" viewBox="0 0 595 383" width="595px" zoomAndPan="magnify"><defs/><g><text fill="#000000" font-family="sans-serif" font-size="14" font-weight="bold" lengthAdjust="spacing" textLength="567" x="10" y="29.5332">BigBankPlc - Internet Banking - Mobile App - Sign In - Sequence - Container level</text><rect fill="#FFFFFF" height="326.3281" style="stroke:#181818;stroke-width:0.5;" width="317.5" x="160.25" y="44.6094"/><text fill="#000000" font-family="sans-serif" font-size="13" font-weight="bold" lengthAdjust="spacing" textLength="105" x="266.5" y="58.1045">Internet Banking</text><rect fill="none" height="111.4063" style="stroke:#000000;stroke-width:1.5;" width="339.5" x="154.25" y="175.9219"/><rect fill="none" height="48.7031" style="stroke:#000000;stroke-width:1.5;" width="235.5" x="248.25" y="231.625"/><line style="stroke:#181818;stroke-width:0.5;stroke-dasharray:5.0,5.0;" x1="121.25" x2="121.25" y1="128.5703" y2="304.3281"/><line style="stroke:#181818;stroke-width:0.5;stroke-dasharray:5.0,5.0;" x1="206.25" x2="206.25" y1="128.5703" y2="304.3281"/><line style="stroke:#181818;stroke-width:0.5;stroke-dasharray:5.0,5.0;" x1="312.25" x2="312.25" y1="128.5703" y2="304.3281"/><line style="stroke:#181818;stroke-width:0.5;stroke-dasharray:5.0,5.0;" x1="439.75" x2="439.75" y1="128.5703" y2="304.3281"/><rect fill="#E2E2F0" height="31.6094" rx="2.5" ry="2.5" style="stroke:#181818;stroke-width:0.5;" width="65" x="89.25" y="95.9609"/><text fill="#000000" font-family="sans-serif" font-size="14" lengthAdjust="spacing" textLength="51" x="96.25" y="117.4941">External</text><rect fill="#E2E2F0" height="31.6094" rx="2.5" ry="2.5" style="stroke:#181818;stroke-width:0.5;" width="65" x="89.25" y="303.3281"/><text fill="#000000" font-family="sans-serif" font-size="14" lengthAdjust="spacing" textLength="51" x="96.25" y="324.8613">External</text><rect fill="#E2E2F0" height="31.6094" rx="2.5" ry="2.5" style="stroke:#181818;stroke-width:0.5;" width="84" x="164.25" y="95.9609"/><text fill="#000000" font-family="sans-serif" font-size="14" lengthAdjust="spacing" textLength="70" x="171.25" y="117.4941">Mobile App</text><rect fill="#E2E2F0" height="31.6094" rx="2.5" ry="2.5" style="stroke:#181818;stroke-width:0.5;" width="84" x="164.25" y="303.3281"/><text fill="#000000" font-family="sans-serif" font-size="14" lengthAdjust="spacing" textLength="70" x="171.25" y="324.8613">Mobile App</text><rect fill="#E2E2F0" height="31.6094" rx="2.5" ry="2.5" style="stroke:#181818;stroke-width:0.5;" width="108" x="258.25" y="95.9609"/><text fill="#000000" font-family="sans-serif" font-size="14" lengthAdjust="spacing" textLength="94" x="265.25" y="117.4941">API Application</text><rect fill="#E2E2F0" height="31.6094" rx="2.5" ry="2.5" style="stroke:#181818;stroke-width:0.5;" width="108" x="258.25" y="303.3281"/><text fill="#000000" font-family="sans-serif" font-size="14" lengthAdjust="spacing" textLength="94" x="265.25" y="324.8613">API Application</text><text fill="#000000" font-family="sans-serif" font-size="14" lengthAdjust="spacing" textLength="61" x="406.75" y="125.4941">Database</text><path d="M422.25,74.9609 C422.25,64.9609 440.25,64.9609 440.25,64.9609 C440.25,64.9609 458.25,64.9609 458.25,74.9609 L458.25,100.9609 C458.25,110.9609 440.25,110.9609 440.25,110.9609 C440.25,110.9609 422.25,110.9609 422.25,100.9609 L422.25,74.9609 " fill="#E2E2F0" style="stroke:#181818;stroke-width:1.5;"/><path d="M422.25,74.9609 C422.25,84.9609 440.25,84.9609 440.25,84.9609 C440.25,84.9609 458.25,84.9609 458.25,74.9609 " fill="none" style="stroke:#181818;stroke-width:1.5;"/><text fill="#000000" font-family="sans-serif" font-size="14" lengthAdjust="spacing" textLength="61" x="406.75" y="317.8613">Database</text><path d="M422.25,330.9375 C422.25,320.9375 440.25,320.9375 440.25,320.9375 C440.25,320.9375 458.25,320.9375 458.25,330.9375 L458.25,356.9375 C458.25,366.9375 440.25,366.9375 440.25,366.9375 C440.25,366.9375 422.25,366.9375 422.25,356.9375 L422.25,330.9375 " fill="#E2E2F0" style="stroke:#181818;stroke-width:1.5;"/><path d="M422.25,330.9375 C422.25,340.9375 440.25,340.9375 440.25,340.9375 C440.25,340.9375 458.25,340.9375 458.25,330.9375 " fill="none" style="stroke:#181818;stroke-width:1.5;"/><polygon fill="#181818" points="194.25,156.9219,204.25,160.9219,194.25,164.9219,198.25,160.9219" style="stroke:#181818;stroke-width:1.0;"/><line style="stroke:#181818;stroke-width:1.0;" x1="121.75" x2="200.25" y1="160.9219" y2="160.9219"/><text fill="#000000" font-family="sans-serif" font-size="13" lengthAdjust="spacing" textLength="40" x="128.75" y="156.0654">Sign In</text><path d="M154.25,175.9219 L244.25,175.9219 L244.25,184.2734 L234.25,194.2734 L154.25,194.2734 L154.25,175.9219 " fill="#EEEEEE" style="stroke:#000000;stroke-width:1.5;"/><rect fill="none" height="111.4063" style="stroke:#000000;stroke-width:1.5;" width="339.5" x="154.25" y="175.9219"/><text fill="#000000" font-family="sans-serif" font-size="13" font-weight="bold" lengthAdjust="spacing" textLength="45" x="169.25" y="190.417">Sign In</text><polygon fill="#181818" points="300.25,212.625,310.25,216.625,300.25,220.625,304.25,216.625" style="stroke:#181818;stroke-width:1.0;"/><line style="stroke:#181818;stroke-width:1.0;" x1="206.25" x2="306.25" y1="216.625" y2="216.625"/><text fill="#000000" font-family="sans-serif" font-size="13" lengthAdjust="spacing" textLength="40" x="213.25" y="211.7686">Sign In</text><path d="M248.25,231.625 L338.25,231.625 L338.25,239.9766 L328.25,249.9766 L248.25,249.9766 L248.25,231.625 " fill="#EEEEEE" style="stroke:#000000;stroke-width:1.5;"/><rect fill="none" height="48.7031" style="stroke:#000000;stroke-width:1.5;" width="235.5" x="248.25" y="231.625"/><text fill="#000000" font-family="sans-serif" font-size="13" font-weight="bold" lengthAdjust="spacing" textLength="45" x="263.25" y="246.1201">Sign In</text><polygon fill="#181818" points="428.25,268.3281,438.25,272.3281,428.25,276.3281,432.25,272.3281" style="stroke:#181818;stroke-width:1.0;"/><line style="stroke:#181818;stroke-width:1.0;" x1="312.25" x2="434.25" y1="272.3281" y2="272.3281"/><text fill="#000000" font-family="sans-serif" font-size="13" lengthAdjust="spacing" textLength="104" x="319.25" y="267.4717">Authenticate User</text><!--SRC=[hPB1QiCm38RlVWgHdflJJZiKqcw37WQ5C7PMKYqLy-JCLjRkxMUdJRksbz7CO924-FxVafNL4iovcQEyhsmDKrYAaXTII2MM9fQUNSMnhMZRc9JSI6nA4Nrs93N5SE54aOKyMFeYQqoBNhdc5aKXUzmb9DeCCC3YhbTuicwRb-vDj-Yf_0vA7o4V6lUvCPNRGNPfA8F9wuQL3CHpfdFosIkTddKbD30FoFpeF-HxI6HSyulLCi4jrwZiP8H89Fq2zKfhLAmm46GFXsW4Vq0OaZN4AHfZ_ZvtcCx6pWxkXtzY6k-wzfYDvTvixNpY_-pl0dwpoM5jqLxHwOP44vBW9P1Fg-ol-G40]--></g></svg>