<?xml version="1.0" encoding="us-ascii" standalone="no"?><svg xmlns="http://www.w3.org/2000/svg" xmlns:xlink="http://www.w3.org/1999/xlink" contentStyleType="text/css" height="381px" preserveAspectRatio="none" style="width:1169px;height:381px;background:#FFFFFF;" version="1.1" viewBox="0 0 1169 381" width="1169px" zoomAndPan="magnify"><defs/><g><text fill="#000000" font-family="sans-serif" font-size="14" font-weight="bold" lengthAdjust="spacing" textLength="1141" x="10" y="29.5332">E Commerce Platform - Generate Demand - Order Management - Order Service - Message Handler - Handle Fraud Check Result Event - Sequence - Container level</text><rect fill="#FFFFFF" height="324.3281" style="stroke:#181818;stroke-width:0.5;" width="338.5" x="451.75" y="44.6094"/><text fill="#000000" font-family="sans-serif" font-size="13" font-weight="bold" lengthAdjust="spacing" textLength="88" x="577" y="58.1045">Order Service</text><rect fill="#FFFFFF" height="324.3281" style="stroke:#181818;stroke-width:0.5;" width="95" x="792.25" y="44.6094"/><text fill="#000000" font-family="sans-serif" font-size="13" font-weight="bold" lengthAdjust="spacing" textLength="89" x="795.25" y="58.1045">Fraud Service</text><rect fill="none" height="109.4063" style="stroke:#000000;stroke-width:1.5;" width="445" x="445.75" y="175.9219"/><line style="stroke:#181818;stroke-width:0.5;stroke-dasharray:5.0,5.0;" x1="298.25" x2="298.25" y1="128.5703" y2="302.3281"/><line style="stroke:#181818;stroke-width:0.5;stroke-dasharray:5.0,5.0;" x1="517.75" x2="517.75" y1="128.5703" y2="302.3281"/><line style="stroke:#181818;stroke-width:0.5;stroke-dasharray:5.0,5.0;" x1="660.25" x2="660.25" y1="128.5703" y2="302.3281"/><line style="stroke:#181818;stroke-width:0.5;stroke-dasharray:5.0,5.0;" x1="745.25" x2="745.25" y1="128.5703" y2="302.3281"/><line style="stroke:#181818;stroke-width:0.5;stroke-dasharray:5.0,5.0;" x1="839.75" x2="839.75" y1="128.5703" y2="302.3281"/><rect fill="#E2E2F0" height="31.6094" rx="2.5" ry="2.5" style="stroke:#181818;stroke-width:0.5;" width="65" x="266.25" y="95.9609"/><text fill="#000000" font-family="sans-serif" font-size="14" lengthAdjust="spacing" textLength="51" x="273.25" y="117.4941">External</text><rect fill="#E2E2F0" height="31.6094" rx="2.5" ry="2.5" style="stroke:#181818;stroke-width:0.5;" width="65" x="266.25" y="301.3281"/><text fill="#000000" font-family="sans-serif" font-size="14" lengthAdjust="spacing" textLength="51" x="273.25" y="322.8613">External</text><rect fill="#E2E2F0" height="31.6094" rx="2.5" ry="2.5" style="stroke:#181818;stroke-width:0.5;" width="124" x="455.75" y="95.9609"/><text fill="#000000" font-family="sans-serif" font-size="14" lengthAdjust="spacing" textLength="110" x="462.75" y="117.4941">Message Handler</text><rect fill="#E2E2F0" height="31.6094" rx="2.5" ry="2.5" style="stroke:#181818;stroke-width:0.5;" width="124" x="455.75" y="301.3281"/><text fill="#000000" font-family="sans-serif" font-size="14" lengthAdjust="spacing" textLength="110" x="462.75" y="322.8613">Message Handler</text><text fill="#000000" font-family="sans-serif" font-size="14" lengthAdjust="spacing" textLength="61" x="627.25" y="125.4941">Database</text><path d="M642.75,74.9609 C642.75,64.9609 660.75,64.9609 660.75,64.9609 C660.75,64.9609 678.75,64.9609 678.75,74.9609 L678.75,100.9609 C678.75,110.9609 660.75,110.9609 660.75,110.9609 C660.75,110.9609 642.75,110.9609 642.75,100.9609 L642.75,74.9609 " fill="#E2E2F0" style="stroke:#181818;stroke-width:1.5;"/><path d="M642.75,74.9609 C642.75,84.9609 660.75,84.9609 660.75,84.9609 C660.75,84.9609 678.75,84.9609 678.75,74.9609 " fill="none" style="stroke:#181818;stroke-width:1.5;"/><text fill="#000000" font-family="sans-serif" font-size="14" lengthAdjust="spacing" textLength="61" x="627.25" y="315.8613">Database</text><path d="M642.75,328.9375 C642.75,318.9375 660.75,318.9375 660.75,318.9375 C660.75,318.9375 678.75,318.9375 678.75,328.9375 L678.75,354.9375 C678.75,364.9375 660.75,364.9375 660.75,364.9375 C660.75,364.9375 642.75,364.9375 642.75,354.9375 L642.75,328.9375 " fill="#E2E2F0" style="stroke:#181818;stroke-width:1.5;"/><path d="M642.75,328.9375 C642.75,338.9375 660.75,338.9375 660.75,338.9375 C660.75,338.9375 678.75,338.9375 678.75,328.9375 " fill="none" style="stroke:#181818;stroke-width:1.5;"/><rect fill="#E2E2F0" height="31.6094" rx="2.5" ry="2.5" style="stroke:#181818;stroke-width:0.5;" width="82" x="704.25" y="95.9609"/><text fill="#000000" font-family="sans-serif" font-size="14" lengthAdjust="spacing" textLength="68" x="711.25" y="117.4941">Messaging</text><rect fill="#E2E2F0" height="31.6094" rx="2.5" ry="2.5" style="stroke:#181818;stroke-width:0.5;" width="82" x="704.25" y="301.3281"/><text fill="#000000" font-family="sans-serif" font-size="14" lengthAdjust="spacing" textLength="68" x="711.25" y="322.8613">Messaging</text><rect fill="#E2E2F0" height="31.6094" rx="2.5" ry="2.5" style="stroke:#181818;stroke-width:0.5;" width="82" x="798.75" y="95.9609"/><text fill="#000000" font-family="sans-serif" font-size="14" lengthAdjust="spacing" textLength="68" x="805.75" y="117.4941">Messaging</text><rect fill="#E2E2F0" height="31.6094" rx="2.5" ry="2.5" style="stroke:#181818;stroke-width:0.5;" width="82" x="798.75" y="301.3281"/><text fill="#000000" font-family="sans-serif" font-size="14" lengthAdjust="spacing" textLength="68" x="805.75" y="322.8613">Messaging</text><polygon fill="#181818" points="505.75,156.9219,515.75,160.9219,505.75,164.9219,509.75,160.9219" style="stroke:#181818;stroke-width:1.0;"/><line style="stroke:#181818;stroke-width:1.0;" x1="298.75" x2="511.75" y1="160.9219" y2="160.9219"/><text fill="#000000" font-family="sans-serif" font-size="13" lengthAdjust="spacing" textLength="195" x="305.75" y="156.0654">Handle Fraud Check Result Event</text><path d="M445.75,175.9219 L701.75,175.9219 L701.75,184.2734 L691.75,194.2734 L445.75,194.2734 L445.75,175.9219 " fill="#EEEEEE" style="stroke:#000000;stroke-width:1.5;"/><rect fill="none" height="109.4063" style="stroke:#000000;stroke-width:1.5;" width="445" x="445.75" y="175.9219"/><text fill="#000000" font-family="sans-serif" font-size="13" font-weight="bold" lengthAdjust="spacing" textLength="211" x="460.75" y="190.417">Handle Fraud Check Result Event</text><polygon fill="#181818" points="827.75,212.625,837.75,216.625,827.75,220.625,831.75,216.625" style="stroke:#181818;stroke-width:1.0;"/><line style="stroke:#181818;stroke-width:1.0;" x1="517.75" x2="833.75" y1="216.625" y2="216.625"/><text fill="#000000" font-family="sans-serif" font-size="13" lengthAdjust="spacing" textLength="200" x="524.75" y="211.7686">Receive Fraud Check Result Event</text><polygon fill="#181818" points="648.75,242.9766,658.75,246.9766,648.75,250.9766,652.75,246.9766" style="stroke:#181818;stroke-width:1.0;"/><line style="stroke:#181818;stroke-width:1.0;" x1="517.75" x2="654.75" y1="246.9766" y2="246.9766"/><text fill="#000000" font-family="sans-serif" font-size="13" lengthAdjust="spacing" textLength="119" x="524.75" y="242.1201">Update Order Status</text><polygon fill="#181818" points="733.25,273.3281,743.25,277.3281,733.25,281.3281,737.25,277.3281" style="stroke:#181818;stroke-width:1.0;"/><line style="stroke:#181818;stroke-width:1.0;" x1="517.75" x2="739.25" y1="277.3281" y2="277.3281"/><text fill="#000000" font-family="sans-serif" font-size="13" lengthAdjust="spacing" textLength="199" x="524.75" y="272.4717">Send Order Status Changed Event</text><!--SRC=[tLJ1Ki8m4BtdAtRgkJrvyk2b5FN0wD1nF2_jKZAaQKtIWd_lqgO8Ai816SUSacoox-rxcpZf5442SLMMP3A29uLkNfaIGhWZJGOTmOXAr3dlF9gS34nGOq4bQRVTIicqac-7C25hEGhtV4Dn9FGp61jiSeWNb2rXIhPH3fAspv7IQqEwknvNsg5aN53KaXAYHkDa9claaq6oTcGqgW3GGdpze7avLjKgIgkvMw6XzCqwAcqq7EpNGiogDGHxL0EuUbb8Hm9ux85ygg33IWPz1dcYGPnUcwZB_I7C5q9Tt4D7so9jvC4yLaScHuSpj0J1oCz-byA0SaW9gOjBQC0mWhZBs2hX3UjRvaJ33jCSaP8jcQXBzmE_BduYlzER3yBRIxKFt1nxRA8mLLCVFNKfljzASpQxM8ufPSJ9_cYbPtx0NEzpdMy-RF_JENID_HSbxdgQRbxXReNiA-g2ScyfXuLu1m00]--></g></svg>