<?xml version="1.0" encoding="us-ascii" standalone="no"?><svg xmlns="http://www.w3.org/2000/svg" xmlns:xlink="http://www.w3.org/1999/xlink" contentStyleType="text/css" height="415px" preserveAspectRatio="none" style="width:1159px;height:415px;background:#FFFFFF;" version="1.1" viewBox="0 0 1159 415" width="1159px" zoomAndPan="magnify"><defs/><g><text fill="#000000" font-family="sans-serif" font-size="14" font-weight="bold" lengthAdjust="spacing" textLength="1131" x="10" y="24.5332">E Commerce Platform - Generate Demand - Order Management - Order Service - Message Handler - Handle Fraud Check Result Event - C4 Static - Container level</text><!--cluster ECommercePlatform.GenerateDemand.OrderManagement.SoftwareSystems.OrderService--><g id="cluster_ECommercePlatform.GenerateDemand.OrderManagement.SoftwareSystems.OrderService"><rect fill="none" height="266.5" rx="2.5" ry="2.5" style="stroke:#444444;stroke-width:1.0;stroke-dasharray:7.0,7.0;" width="263" x="371.5" y="45.6094"/><text fill="#444444" font-family="sans-serif" font-size="16" font-weight="bold" lengthAdjust="spacing" textLength="104" x="451" y="64.2188">Order Service</text><text fill="#444444" font-family="sans-serif" font-size="12" font-weight="bold" lengthAdjust="spacing" textLength="51" x="477.5" y="80.1914">[System]</text></g><!--cluster ECommercePlatform.Deliver.FraudManagement.SoftwareSystems.FraudService--><g id="cluster_ECommercePlatform.Deliver.FraudManagement.SoftwareSystems.FraudService"><rect fill="none" height="100" rx="2.5" ry="2.5" style="stroke:#444444;stroke-width:1.0;stroke-dasharray:7.0,7.0;" width="136" x="658.5" y="202.6094"/><text fill="#444444" font-family="sans-serif" font-size="16" font-weight="bold" lengthAdjust="spacing" textLength="106" x="673.5" y="221.2188">Fraud Service</text><text fill="#444444" font-family="sans-serif" font-size="12" font-weight="bold" lengthAdjust="spacing" textLength="51" x="701" y="237.1914">[System]</text></g><!--entity ECommercePlatform.GenerateDemand.OrderManagement.SoftwareSystems.OrderService.Containers.MessageHandler--><g id="elem_ECommercePlatform.GenerateDemand.OrderManagement.SoftwareSystems.OrderService.Containers.MessageHandler"><rect fill="#438DD5" height="40.125" rx="2.5" ry="2.5" style="stroke:#3C7FC0;stroke-width:0.5;" width="152" x="466.5" y="99.6094"/><text fill="#FFFFFF" font-family="sans-serif" font-size="16" font-weight="bold" lengthAdjust="spacing" textLength="68" x="476.5" y="126.2188">Message</text><text fill="#FFFFFF" font-family="sans-serif" font-size="16" font-weight="bold" lengthAdjust="spacing" textLength="4" x="544.5" y="126.2188">&#160;</text><text fill="#FFFFFF" font-family="sans-serif" font-size="16" font-weight="bold" lengthAdjust="spacing" textLength="60" x="548.5" y="126.2188">Handler</text></g><!--entity ECommercePlatform.GenerateDemand.OrderManagement.SoftwareSystems.OrderService.Containers.Database--><g id="elem_ECommercePlatform.GenerateDemand.OrderManagement.SoftwareSystems.OrderService.Containers.Database"><path d="M387.5,257.1094 C387.5,247.1094 433.5,247.1094 433.5,247.1094 C433.5,247.1094 479.5,247.1094 479.5,257.1094 L479.5,286.2344 C479.5,296.2344 433.5,296.2344 433.5,296.2344 C433.5,296.2344 387.5,296.2344 387.5,286.2344 L387.5,257.1094 " fill="#438DD5" style="stroke:#3C7FC0;stroke-width:0.5;"/><path d="M387.5,257.1094 C387.5,267.1094 433.5,267.1094 433.5,267.1094 C433.5,267.1094 479.5,267.1094 479.5,257.1094 " fill="none" style="stroke:#3C7FC0;stroke-width:0.5;"/><text fill="#FFFFFF" font-family="sans-serif" font-size="16" font-weight="bold" lengthAdjust="spacing" textLength="72" x="397.5" y="287.7188">Database</text></g><!--entity ECommercePlatform.GenerateDemand.OrderManagement.SoftwareSystems.OrderService.Containers.Messaging--><g id="elem_ECommercePlatform.GenerateDemand.OrderManagement.SoftwareSystems.OrderService.Containers.Messaging"><path d="M520,256.6094 L613,256.6094 C618,256.6094 618,271.6719 618,271.6719 C618,271.6719 618,286.7344 613,286.7344 L520,286.7344 C515,286.7344 515,271.6719 515,271.6719 C515,271.6719 515,256.6094 520,256.6094 " fill="#438DD5" style="stroke:#3C7FC0;stroke-width:0.5;"/><path d="M613,256.6094 C608,256.6094 608,271.6719 608,271.6719 C608,286.7344 613,286.7344 613,286.7344 " fill="none" style="stroke:#3C7FC0;stroke-width:0.5;"/><text fill="#FFFFFF" font-family="sans-serif" font-size="16" font-weight="bold" lengthAdjust="spacing" textLength="83" x="520" y="278.2188">Messaging</text></g><!--entity ECommercePlatform.Deliver.FraudManagement.SoftwareSystems.FraudService.Containers.Messaging--><g id="elem_ECommercePlatform.Deliver.FraudManagement.SoftwareSystems.FraudService.Containers.Messaging"><path d="M680,256.6094 L773,256.6094 C778,256.6094 778,271.6719 778,271.6719 C778,271.6719 778,286.7344 773,286.7344 L680,286.7344 C675,286.7344 675,271.6719 675,271.6719 C675,271.6719 675,256.6094 680,256.6094 " fill="#438DD5" style="stroke:#3C7FC0;stroke-width:0.5;"/><path d="M773,256.6094 C768,256.6094 768,271.6719 768,271.6719 C768,286.7344 773,286.7344 773,286.7344 " fill="none" style="stroke:#3C7FC0;stroke-width:0.5;"/><text fill="#FFFFFF" font-family="sans-serif" font-size="16" font-weight="bold" lengthAdjust="spacing" textLength="83" x="680" y="278.2188">Messaging</text></g><!--link ECommercePlatform.GenerateDemand.OrderManagement.SoftwareSystems.OrderService.Containers.MessageHandler to ECommercePlatform.Deliver.FraudManagement.SoftwareSystems.FraudService.Containers.Messaging--><g id="link_ECommercePlatform.GenerateDemand.OrderManagement.SoftwareSystems.OrderService.Containers.MessageHandler_ECommercePlatform.Deliver.FraudManagement.SoftwareSystems.FraudService.Containers.Messaging"><path d="M566.19,139.6694 C593.45,161.5894 634.5,194.6094 634.5,194.6094 C634.5,194.6094 676.3817,229.205 703.0317,251.215 " fill="none" id="ECommercePlatform.GenerateDemand.OrderManagement.SoftwareSystems.OrderService.Containers.MessageHandler-to-ECommercePlatform.Deliver.FraudManagement.SoftwareSystems.FraudService.Containers.Messaging" style="stroke:#666666;stroke-width:1.0;"/><polygon fill="#666666" points="709.2,256.3094,704.9421,248.9019,701.1213,253.5281,709.2,256.3094" style="stroke:#666666;stroke-width:1.0;"/><text fill="#666666" font-family="sans-serif" font-size="12" font-weight="bold" lengthAdjust="spacing" textLength="29" x="623.5" y="183.0664">Uses</text></g><!--link ECommercePlatform.GenerateDemand.OrderManagement.SoftwareSystems.OrderService.Containers.MessageHandler to ECommercePlatform.GenerateDemand.OrderManagement.SoftwareSystems.OrderService.Containers.Database--><g id="link_ECommercePlatform.GenerateDemand.OrderManagement.SoftwareSystems.OrderService.Containers.MessageHandler_ECommercePlatform.GenerateDemand.OrderManagement.SoftwareSystems.OrderService.Containers.Database"><path d="M528.47,139.9094 C508.58,167.2894 476.9025,210.8774 455.4025,240.4674 " fill="none" id="ECommercePlatform.GenerateDemand.OrderManagement.SoftwareSystems.OrderService.Containers.MessageHandler-to-ECommercePlatform.GenerateDemand.OrderManagement.SoftwareSystems.OrderService.Containers.Database" style="stroke:#666666;stroke-width:1.0;"/><polygon fill="#666666" points="450.7,246.9394,457.8295,242.2308,452.9755,238.704,450.7,246.9394" style="stroke:#666666;stroke-width:1.0;"/><text fill="#666666" font-family="sans-serif" font-size="12" font-weight="bold" lengthAdjust="spacing" textLength="29" x="505.5" y="183.0664">Uses</text></g><!--link ECommercePlatform.GenerateDemand.OrderManagement.SoftwareSystems.OrderService.Containers.MessageHandler to ECommercePlatform.GenerateDemand.OrderManagement.SoftwareSystems.OrderService.Containers.Messaging--><g id="link_ECommercePlatform.GenerateDemand.OrderManagement.SoftwareSystems.OrderService.Containers.MessageHandler_ECommercePlatform.GenerateDemand.OrderManagement.SoftwareSystems.OrderService.Containers.Messaging"><path d="M545.59,139.9094 C550.48,170.4594 558.6169,221.3297 562.9469,248.4097 " fill="none" id="ECommercePlatform.GenerateDemand.OrderManagement.SoftwareSystems.OrderService.Containers.MessageHandler-to-ECommercePlatform.GenerateDemand.OrderManagement.SoftwareSystems.OrderService.Containers.Messaging" style="stroke:#666666;stroke-width:1.0;"/><polygon fill="#666666" points="564.21,256.3094,565.9092,247.936,559.9845,248.8834,564.21,256.3094" style="stroke:#666666;stroke-width:1.0;"/><text fill="#666666" font-family="sans-serif" font-size="12" font-weight="bold" lengthAdjust="spacing" textLength="29" x="553.5" y="183.0664">Uses</text></g><rect fill="none" height="17.6094" style="stroke:none;stroke-width:1.0;" width="182" x="587.5" y="336.1094"/><text fill="#000000" font-family="sans-serif" font-size="14" font-weight="bold" lengthAdjust="spacing" textLength="53" x="587.5" y="350.6426">Legend</text><text fill="#FFFFFF" font-family="sans-serif" font-size="14" lengthAdjust="spacing" textLength="4" x="640.5" y="350.6426">&#160;</text><rect fill="#438DD5" height="17.6094" style="stroke:none;stroke-width:1.0;" width="182" x="587.5" y="353.7188"/><text fill="#3C7FC0" font-family="sans-serif" font-size="14" lengthAdjust="spacing" textLength="14" x="591.5" y="368.252">&#9647;</text><text fill="#FFFFFF" font-family="sans-serif" font-size="14" lengthAdjust="spacing" textLength="4" x="605.5" y="368.252">&#160;</text><text fill="#FFFFFF" font-family="sans-serif" font-size="14" lengthAdjust="spacing" textLength="59" x="613.5" y="368.252">container</text><text fill="#FFFFFF" font-family="sans-serif" font-size="14" lengthAdjust="spacing" textLength="4" x="676.5" y="368.252">&#160;</text><rect fill="none" height="17.6094" style="stroke:none;stroke-width:1.0;" width="182" x="587.5" y="371.3281"/><text fill="#444444" font-family="sans-serif" font-size="14" lengthAdjust="spacing" textLength="14" x="591.5" y="385.8613">&#9647;</text><text fill="#FFFFFF" font-family="sans-serif" font-size="14" lengthAdjust="spacing" textLength="4" x="605.5" y="385.8613">&#160;</text><text fill="#444444" font-family="sans-serif" font-size="14" lengthAdjust="spacing" textLength="108" x="613.5" y="385.8613">system boundary</text><text fill="#444444" font-family="sans-serif" font-size="10" lengthAdjust="spacing" textLength="40" x="725.5" y="386.7402">(dashed)</text><text fill="#FFFFFF" font-family="sans-serif" font-size="14" lengthAdjust="spacing" textLength="4" x="765.5" y="385.8613">&#160;</text><line style="stroke:none;stroke-width:1.0;" x1="587.5" x2="769.5" y1="336.1094" y2="336.1094"/><line style="stroke:none;stroke-width:1.0;" x1="587.5" x2="769.5" y1="353.7188" y2="353.7188"/><line style="stroke:none;stroke-width:1.0;" x1="587.5" x2="769.5" y1="371.3281" y2="371.3281"/><line style="stroke:none;stroke-width:1.0;" x1="587.5" x2="769.5" y1="388.9375" y2="388.9375"/><line style="stroke:none;stroke-width:1.0;" x1="587.5" x2="587.5" y1="336.1094" y2="388.9375"/><line style="stroke:none;stroke-width:1.0;" x1="769.5" x2="769.5" y1="336.1094" y2="388.9375"/><!--SRC=[tLLTRvim57tdLzonFGIfuIbFbVgG0cqdjI4BgQf9bP035u9gxCWsoQ9f_ttc8v1CJKkhPfE6GBAlxNFEFRusdp8MqI96iEt7esyqae_EA7GuKoHZAEnLaLF36CUnHp57fkOa7PZHA6CAHKBvvfnc2KRRYE8vmurv1byMgSCf5nUfG6IwdsYiEl8vgPvo3XSnYiDvSabYlibOUc5U4IhHjFhHHal2KeptgRaeGpsusudl9HUOy_KXkS2u1tCzwndQadU6z7MV5VvGXmvIlMDx4Ujrg3tlEhZMb0wl3lK0tFEZ0wnpxT1qN-SPtFWFuTIR1VuadFgp-MpyTJwmZDlnT_z-7ixzQUZw3nCTCUHJnbP4a1nA3BLT8QmutPOTmr2PeWWUE3pFKKG8KqfKmaKEGxX6NS948RYO4nRhY5_k0DmHHj9gQzjGW6ATwTL3k4CfzIZSw1LKZmoR5bm9KiJWB35wWXdAWYhmrZM6Cu904PL5PNjtTe3Y6lNXCOAjL9Y7bxnWCH7RWRVJkfDgxuJMEkrAKYVI3dYYDaHW3IJhyKRn6PW76PWM_3H0FwsEZ-MpMrnfDrOrJcabVtYdoy2iFkjGaRiudIQNAB8WilHbrpmcurk11PxQ7NsuMsDqUq_BhpwLuIBDrleUhehl1H7LU5SITQqUBObZcR-7xOqfw_lZxnNaQJEyboXrKlyueuy_D_zLNiziMFFlkVMklOaxi7u3]--></g></svg>