<?xml version="1.0" encoding="us-ascii" standalone="no"?><svg xmlns="http://www.w3.org/2000/svg" xmlns:xlink="http://www.w3.org/1999/xlink" contentStyleType="text/css" height="381px" preserveAspectRatio="none" style="width:1169px;height:381px;background:#FFFFFF;" version="1.1" viewBox="0 0 1169 381" width="1169px" zoomAndPan="magnify"><defs/><g><text fill="#000000" font-family="sans-serif" font-size="14" font-weight="bold" lengthAdjust="spacing" textLength="1141" x="10" y="29.5332">E Commerce Platform - Generate Demand - Order Management - Order Service - Message Handler - Handle Fraud Check Result Event - Sequence - Container level</text><rect fill="#FFFFFF" height="324.3281" style="stroke:#181818;stroke-width:0.5;" width="344.5" x="447" y="44.6094"/><text fill="#000000" font-family="sans-serif" font-size="13" font-weight="bold" lengthAdjust="spacing" textLength="88" x="575.25" y="58.1045">Order Service</text><rect fill="#FFFFFF" height="324.3281" style="stroke:#181818;stroke-width:0.5;" width="96" x="793.5" y="44.6094"/><text fill="#000000" font-family="sans-serif" font-size="13" font-weight="bold" lengthAdjust="spacing" textLength="89" x="797" y="58.1045">Fraud Service</text><rect fill="none" height="109.4063" style="stroke:#000000;stroke-width:1.5;" width="454.5" x="441" y="175.9219"/><line style="stroke:#181818;stroke-width:0.5;stroke-dasharray:5.0,5.0;" x1="293.5" x2="293.5" y1="128.5703" y2="302.3281"/><line style="stroke:#181818;stroke-width:0.5;stroke-dasharray:5.0,5.0;" x1="513" x2="513" y1="128.5703" y2="302.3281"/><line style="stroke:#181818;stroke-width:0.5;stroke-dasharray:5.0,5.0;" x1="655.5" x2="655.5" y1="128.5703" y2="302.3281"/><line style="stroke:#181818;stroke-width:0.5;stroke-dasharray:5.0,5.0;" x1="743.5" x2="743.5" y1="128.5703" y2="302.3281"/><line style="stroke:#181818;stroke-width:0.5;stroke-dasharray:5.0,5.0;" x1="841.5" x2="841.5" y1="128.5703" y2="302.3281"/><rect fill="#E2E2F0" height="31.6094" rx="2.5" ry="2.5" style="stroke:#181818;stroke-width:0.5;" width="65" x="261.5" y="95.9609"/><text fill="#000000" font-family="sans-serif" font-size="14" lengthAdjust="spacing" textLength="51" x="268.5" y="117.4941">External</text><rect fill="#E2E2F0" height="31.6094" rx="2.5" ry="2.5" style="stroke:#181818;stroke-width:0.5;" width="65" x="261.5" y="301.3281"/><text fill="#000000" font-family="sans-serif" font-size="14" lengthAdjust="spacing" textLength="51" x="268.5" y="322.8613">External</text><rect fill="#E2E2F0" height="31.6094" rx="2.5" ry="2.5" style="stroke:#181818;stroke-width:0.5;" width="124" x="451" y="95.9609"/><text fill="#000000" font-family="sans-serif" font-size="14" lengthAdjust="spacing" textLength="110" x="458" y="117.4941">Message Handler</text><rect fill="#E2E2F0" height="31.6094" rx="2.5" ry="2.5" style="stroke:#181818;stroke-width:0.5;" width="124" x="451" y="301.3281"/><text fill="#000000" font-family="sans-serif" font-size="14" lengthAdjust="spacing" textLength="110" x="458" y="322.8613">Message Handler</text><text fill="#000000" font-family="sans-serif" font-size="14" lengthAdjust="spacing" textLength="61" x="622.5" y="125.4941">Database</text><path d="M638,74.9609 C638,64.9609 656,64.9609 656,64.9609 C656,64.9609 674,64.9609 674,74.9609 L674,100.9609 C674,110.9609 656,110.9609 656,110.9609 C656,110.9609 638,110.9609 638,100.9609 L638,74.9609 " fill="#E2E2F0" style="stroke:#181818;stroke-width:1.5;"/><path d="M638,74.9609 C638,84.9609 656,84.9609 656,84.9609 C656,84.9609 674,84.9609 674,74.9609 " fill="none" style="stroke:#181818;stroke-width:1.5;"/><text fill="#000000" font-family="sans-serif" font-size="14" lengthAdjust="spacing" textLength="61" x="622.5" y="315.8613">Database</text><path d="M638,328.9375 C638,318.9375 656,318.9375 656,318.9375 C656,318.9375 674,318.9375 674,328.9375 L674,354.9375 C674,364.9375 656,364.9375 656,364.9375 C656,364.9375 638,364.9375 638,354.9375 L638,328.9375 " fill="#E2E2F0" style="stroke:#181818;stroke-width:1.5;"/><path d="M638,328.9375 C638,338.9375 656,338.9375 656,338.9375 C656,338.9375 674,338.9375 674,328.9375 " fill="none" style="stroke:#181818;stroke-width:1.5;"/><path d="M704.5,100.9609 L782.5,100.9609 C787.5,100.9609 787.5,114.7656 787.5,114.7656 C787.5,114.7656 787.5,128.5703 782.5,128.5703 L704.5,128.5703 C699.5,128.5703 699.5,114.7656 699.5,114.7656 C699.5,114.7656 699.5,100.9609 704.5,100.9609 " fill="#E2E2F0" style="stroke:#181818;stroke-width:0.5;"/><path d="M782.5,100.9609 C777.5,100.9609 777.5,114.7656 777.5,114.7656 C777.5,128.5703 782.5,128.5703 782.5,128.5703 " fill="none" style="stroke:#181818;stroke-width:0.5;"/><text fill="#000000" font-family="sans-serif" font-size="14" lengthAdjust="spacing" textLength="68" x="704.5" y="120.4941">Messaging</text><path d="M704.5,301.3281 L782.5,301.3281 C787.5,301.3281 787.5,315.1328 787.5,315.1328 C787.5,315.1328 787.5,328.9375 782.5,328.9375 L704.5,328.9375 C699.5,328.9375 699.5,315.1328 699.5,315.1328 C699.5,315.1328 699.5,301.3281 704.5,301.3281 " fill="#E2E2F0" style="stroke:#181818;stroke-width:0.5;"/><path d="M782.5,301.3281 C777.5,301.3281 777.5,315.1328 777.5,315.1328 C777.5,328.9375 782.5,328.9375 782.5,328.9375 " fill="none" style="stroke:#181818;stroke-width:0.5;"/><text fill="#000000" font-family="sans-serif" font-size="14" lengthAdjust="spacing" textLength="68" x="704.5" y="320.8613">Messaging</text><path d="M802.5,100.9609 L880.5,100.9609 C885.5,100.9609 885.5,114.7656 885.5,114.7656 C885.5,114.7656 885.5,128.5703 880.5,128.5703 L802.5,128.5703 C797.5,128.5703 797.5,114.7656 797.5,114.7656 C797.5,114.7656 797.5,100.9609 802.5,100.9609 " fill="#E2E2F0" style="stroke:#181818;stroke-width:0.5;"/><path d="M880.5,100.9609 C875.5,100.9609 875.5,114.7656 875.5,114.7656 C875.5,128.5703 880.5,128.5703 880.5,128.5703 " fill="none" style="stroke:#181818;stroke-width:0.5;"/><text fill="#000000" font-family="sans-serif" font-size="14" lengthAdjust="spacing" textLength="68" x="802.5" y="120.4941">Messaging</text><path d="M802.5,301.3281 L880.5,301.3281 C885.5,301.3281 885.5,315.1328 885.5,315.1328 C885.5,315.1328 885.5,328.9375 880.5,328.9375 L802.5,328.9375 C797.5,328.9375 797.5,315.1328 797.5,315.1328 C797.5,315.1328 797.5,301.3281 802.5,301.3281 " fill="#E2E2F0" style="stroke:#181818;stroke-width:0.5;"/><path d="M880.5,301.3281 C875.5,301.3281 875.5,315.1328 875.5,315.1328 C875.5,328.9375 880.5,328.9375 880.5,328.9375 " fill="none" style="stroke:#181818;stroke-width:0.5;"/><text fill="#000000" font-family="sans-serif" font-size="14" lengthAdjust="spacing" textLength="68" x="802.5" y="320.8613">Messaging</text><polygon fill="#181818" points="501,156.9219,511,160.9219,501,164.9219,505,160.9219" style="stroke:#181818;stroke-width:1.0;"/><line style="stroke:#181818;stroke-width:1.0;" x1="294" x2="507" y1="160.9219" y2="160.9219"/><text fill="#000000" font-family="sans-serif" font-size="13" lengthAdjust="spacing" textLength="195" x="301" y="156.0654">Handle Fraud Check Result Event</text><path d="M441,175.9219 L697,175.9219 L697,184.2734 L687,194.2734 L441,194.2734 L441,175.9219 " fill="#EEEEEE" style="stroke:#000000;stroke-width:1.5;"/><rect fill="none" height="109.4063" style="stroke:#000000;stroke-width:1.5;" width="454.5" x="441" y="175.9219"/><text fill="#000000" font-family="sans-serif" font-size="13" font-weight="bold" lengthAdjust="spacing" textLength="211" x="456" y="190.417">Handle Fraud Check Result Event</text><polygon fill="#181818" points="829.5,212.625,839.5,216.625,829.5,220.625,833.5,216.625" style="stroke:#181818;stroke-width:1.0;"/><line style="stroke:#181818;stroke-width:1.0;" x1="513" x2="835.5" y1="216.625" y2="216.625"/><text fill="#000000" font-family="sans-serif" font-size="13" lengthAdjust="spacing" textLength="200" x="520" y="211.7686">Receive Fraud Check Result Event</text><polygon fill="#181818" points="644,242.9766,654,246.9766,644,250.9766,648,246.9766" style="stroke:#181818;stroke-width:1.0;"/><line style="stroke:#181818;stroke-width:1.0;" x1="513" x2="650" y1="246.9766" y2="246.9766"/><text fill="#000000" font-family="sans-serif" font-size="13" lengthAdjust="spacing" textLength="119" x="520" y="242.1201">Update Order Status</text><polygon fill="#181818" points="731.5,273.3281,741.5,277.3281,731.5,281.3281,735.5,277.3281" style="stroke:#181818;stroke-width:1.0;"/><line style="stroke:#181818;stroke-width:1.0;" x1="513" x2="737.5" y1="277.3281" y2="277.3281"/><text fill="#000000" font-family="sans-serif" font-size="13" lengthAdjust="spacing" textLength="199" x="520" y="272.4717">Send Order Status Changed Event</text><!--SRC=[tLInJiCm4Dtz5QSm9nCJ0qkQ0aC5QeIOhyqrjN2SO3jf-NkkZbDQg6Y7KY4ysJxxthltpdRIAO8CqhggoCm9dXIwHMqgYE6ED1bq12EgK1UyysWACZ11ZILLfDrsAoVJIRuTmuIivIZSymt5aJZCO6omBI1TqlmLfcHRvI3h-XmvlRMa_VMqrWubuuAYZfGG3Hedvx91FXbbQqT6eue0BQJN3vgNOrMlahnUk1KQoj-jeyecmy5-BSIiNaEqHpM2gvUbT2I0nnx8bmeyLZReCyYJ3EBqsYG-zwSmtmZvU81EjaNQ9805B4-cG8Spj0JHACn-byA0ui7PY9O63QGkBr4zmmZY_cAJHB2gRvP3Lfr8S4HATcGId-W7PZv-8hFJ6mxYsqkr3DmSUs2YD7NR73rrARu7fJcRNIp7bER4oVvefMT-j5plSrDiFkdmkpbqhVqN9UvwcczUuMw5x2lgaefWAOU5-000]--></g></svg>