<?xml version="1.0" encoding="us-ascii" standalone="no"?><svg xmlns="http://www.w3.org/2000/svg" xmlns:xlink="http://www.w3.org/1999/xlink" contentStyleType="text/css" height="351px" preserveAspectRatio="none" style="width:993px;height:351px;background:#FFFFFF;" version="1.1" viewBox="0 0 993 351" width="993px" zoomAndPan="magnify"><defs/><g><text fill="#000000" font-family="sans-serif" font-size="14" font-weight="bold" lengthAdjust="spacing" textLength="965" x="10" y="29.5332">E Commerce Platform - Deliver - Fraud Management - Fraud Service - Api - Update Order Fraud Check Result - Sequence - Container level</text><rect fill="#FFFFFF" height="293.9766" style="stroke:#181818;stroke-width:0.5;" width="334.5" x="436" y="44.6094"/><text fill="#000000" font-family="sans-serif" font-size="13" font-weight="bold" lengthAdjust="spacing" textLength="89" x="558.75" y="58.1045">Fraud Service</text><rect fill="none" height="79.0547" style="stroke:#000000;stroke-width:1.5;" width="346.5" x="430" y="175.9219"/><line style="stroke:#181818;stroke-width:0.5;stroke-dasharray:5.0,5.0;" x1="236.5" x2="236.5" y1="128.5703" y2="271.9766"/><line style="stroke:#181818;stroke-width:0.5;stroke-dasharray:5.0,5.0;" x1="457" x2="457" y1="128.5703" y2="271.9766"/><line style="stroke:#181818;stroke-width:0.5;stroke-dasharray:5.0,5.0;" x1="640.5" x2="640.5" y1="128.5703" y2="271.9766"/><line style="stroke:#181818;stroke-width:0.5;stroke-dasharray:5.0,5.0;" x1="725.5" x2="725.5" y1="128.5703" y2="271.9766"/><rect fill="#E2E2F0" height="31.6094" rx="2.5" ry="2.5" style="stroke:#181818;stroke-width:0.5;" width="65" x="204.5" y="95.9609"/><text fill="#000000" font-family="sans-serif" font-size="14" lengthAdjust="spacing" textLength="51" x="211.5" y="117.4941">External</text><rect fill="#E2E2F0" height="31.6094" rx="2.5" ry="2.5" style="stroke:#181818;stroke-width:0.5;" width="65" x="204.5" y="270.9766"/><text fill="#000000" font-family="sans-serif" font-size="14" lengthAdjust="spacing" textLength="51" x="211.5" y="292.5098">External</text><rect fill="#E2E2F0" height="31.6094" rx="2.5" ry="2.5" style="stroke:#181818;stroke-width:0.5;" width="34" x="440" y="95.9609"/><text fill="#000000" font-family="sans-serif" font-size="14" lengthAdjust="spacing" textLength="20" x="447" y="117.4941">Api</text><rect fill="#E2E2F0" height="31.6094" rx="2.5" ry="2.5" style="stroke:#181818;stroke-width:0.5;" width="34" x="440" y="270.9766"/><text fill="#000000" font-family="sans-serif" font-size="14" lengthAdjust="spacing" textLength="20" x="447" y="292.5098">Api</text><text fill="#000000" font-family="sans-serif" font-size="14" lengthAdjust="spacing" textLength="61" x="607.5" y="125.4941">Database</text><path d="M623,74.9609 C623,64.9609 641,64.9609 641,64.9609 C641,64.9609 659,64.9609 659,74.9609 L659,100.9609 C659,110.9609 641,110.9609 641,110.9609 C641,110.9609 623,110.9609 623,100.9609 L623,74.9609 " fill="#E2E2F0" style="stroke:#181818;stroke-width:1.5;"/><path d="M623,74.9609 C623,84.9609 641,84.9609 641,84.9609 C641,84.9609 659,84.9609 659,74.9609 " fill="none" style="stroke:#181818;stroke-width:1.5;"/><text fill="#000000" font-family="sans-serif" font-size="14" lengthAdjust="spacing" textLength="61" x="607.5" y="285.5098">Database</text><path d="M623,298.5859 C623,288.5859 641,288.5859 641,288.5859 C641,288.5859 659,288.5859 659,298.5859 L659,324.5859 C659,334.5859 641,334.5859 641,334.5859 C641,334.5859 623,334.5859 623,324.5859 L623,298.5859 " fill="#E2E2F0" style="stroke:#181818;stroke-width:1.5;"/><path d="M623,298.5859 C623,308.5859 641,308.5859 641,308.5859 C641,308.5859 659,308.5859 659,298.5859 " fill="none" style="stroke:#181818;stroke-width:1.5;"/><rect fill="#E2E2F0" height="31.6094" rx="2.5" ry="2.5" style="stroke:#181818;stroke-width:0.5;" width="82" x="684.5" y="95.9609"/><text fill="#000000" font-family="sans-serif" font-size="14" lengthAdjust="spacing" textLength="68" x="691.5" y="117.4941">Messaging</text><rect fill="#E2E2F0" height="31.6094" rx="2.5" ry="2.5" style="stroke:#181818;stroke-width:0.5;" width="82" x="684.5" y="270.9766"/><text fill="#000000" font-family="sans-serif" font-size="14" lengthAdjust="spacing" textLength="68" x="691.5" y="292.5098">Messaging</text><polygon fill="#181818" points="445,156.9219,455,160.9219,445,164.9219,449,160.9219" style="stroke:#181818;stroke-width:1.0;"/><line style="stroke:#181818;stroke-width:1.0;" x1="237" x2="451" y1="160.9219" y2="160.9219"/><text fill="#000000" font-family="sans-serif" font-size="13" lengthAdjust="spacing" textLength="196" x="244" y="156.0654">Update Order Fraud Check Result</text><path d="M430,175.9219 L687,175.9219 L687,184.2734 L677,194.2734 L430,194.2734 L430,175.9219 " fill="#EEEEEE" style="stroke:#000000;stroke-width:1.5;"/><rect fill="none" height="79.0547" style="stroke:#000000;stroke-width:1.5;" width="346.5" x="430" y="175.9219"/><text fill="#000000" font-family="sans-serif" font-size="13" font-weight="bold" lengthAdjust="spacing" textLength="212" x="445" y="190.417">Update Order Fraud Check Result</text><polygon fill="#181818" points="629,212.625,639,216.625,629,220.625,633,216.625" style="stroke:#181818;stroke-width:1.0;"/><line style="stroke:#181818;stroke-width:1.0;" x1="457" x2="635" y1="216.625" y2="216.625"/><text fill="#000000" font-family="sans-serif" font-size="13" lengthAdjust="spacing" textLength="160" x="464" y="211.7686">Update Fraud Check Result</text><polygon fill="#181818" points="713.5,242.9766,723.5,246.9766,713.5,250.9766,717.5,246.9766" style="stroke:#181818;stroke-width:1.0;"/><line style="stroke:#181818;stroke-width:1.0;" x1="457" x2="719.5" y1="246.9766" y2="246.9766"/><text fill="#000000" font-family="sans-serif" font-size="13" lengthAdjust="spacing" textLength="185" x="464" y="242.1201">Send Fraud Check Result Event</text><!--SRC=[rPJ1ReCm38RlVWgBdU6qqmwJ9agb7QfDGzFEBhWqMaXO4cZtzZCKgAfEwYuSnY5AYFt__en5K44pPfZQkcPNCBvg2ZlhQennnLfrx6ItTjIMk2535TTimlmgPzSfoOhngL6olZSb1SONLqhUAIJTS_69R-nRtUVb_DMo6L9IQm8f8v6QEzO03RcW2jMGE4JPCR0pf2CaZ-dziv7ZMjj3ajjTE93Z_Di7hdqo1PxE05jxnEYYl0ZlFlOgCA0y5oPIzQ2VJVmJVZB29uFGcVpAVRWVVPAPo2UYFDX9FsXBdZ5QZRk532VvQyWDUq-LCjL2phC-i2bHsWy0V_zW63ykqtvyk3MEK3dRDZUZbgbk4Unf2Cxi_vjd7Yq1ollf-kMVadMYs8yUm0y0]--></g></svg>