<?xml version="1.0" encoding="us-ascii" standalone="no"?><svg xmlns="http://www.w3.org/2000/svg" xmlns:xlink="http://www.w3.org/1999/xlink" contentStyleType="text/css" height="351px" preserveAspectRatio="none" style="width:993px;height:351px;background:#FFFFFF;" version="1.1" viewBox="0 0 993 351" width="993px" zoomAndPan="magnify"><defs/><g><text fill="#000000" font-family="sans-serif" font-size="14" font-weight="bold" lengthAdjust="spacing" textLength="965" x="10" y="29.5332">E Commerce Platform - Deliver - Fraud Management - Fraud Service - Api - Update Order Fraud Check Result - Sequence - Container level</text><rect fill="#FFFFFF" height="293.9766" style="stroke:#181818;stroke-width:0.5;" width="340.5" x="433" y="44.6094"/><text fill="#000000" font-family="sans-serif" font-size="13" font-weight="bold" lengthAdjust="spacing" textLength="89" x="558.75" y="58.1045">Fraud Service</text><rect fill="none" height="79.0547" style="stroke:#000000;stroke-width:1.5;" width="352.5" x="427" y="175.9219"/><line style="stroke:#181818;stroke-width:0.5;stroke-dasharray:5.0,5.0;" x1="233.5" x2="233.5" y1="128.5703" y2="271.9766"/><line style="stroke:#181818;stroke-width:0.5;stroke-dasharray:5.0,5.0;" x1="454" x2="454" y1="128.5703" y2="271.9766"/><line style="stroke:#181818;stroke-width:0.5;stroke-dasharray:5.0,5.0;" x1="637.5" x2="637.5" y1="128.5703" y2="271.9766"/><line style="stroke:#181818;stroke-width:0.5;stroke-dasharray:5.0,5.0;" x1="725.5" x2="725.5" y1="128.5703" y2="271.9766"/><rect fill="#E2E2F0" height="31.6094" rx="2.5" ry="2.5" style="stroke:#181818;stroke-width:0.5;" width="65" x="201.5" y="95.9609"/><text fill="#000000" font-family="sans-serif" font-size="14" lengthAdjust="spacing" textLength="51" x="208.5" y="117.4941">External</text><rect fill="#E2E2F0" height="31.6094" rx="2.5" ry="2.5" style="stroke:#181818;stroke-width:0.5;" width="65" x="201.5" y="270.9766"/><text fill="#000000" font-family="sans-serif" font-size="14" lengthAdjust="spacing" textLength="51" x="208.5" y="292.5098">External</text><rect fill="#E2E2F0" height="31.6094" rx="2.5" ry="2.5" style="stroke:#181818;stroke-width:0.5;" width="34" x="437" y="95.9609"/><text fill="#000000" font-family="sans-serif" font-size="14" lengthAdjust="spacing" textLength="20" x="444" y="117.4941">Api</text><rect fill="#E2E2F0" height="31.6094" rx="2.5" ry="2.5" style="stroke:#181818;stroke-width:0.5;" width="34" x="437" y="270.9766"/><text fill="#000000" font-family="sans-serif" font-size="14" lengthAdjust="spacing" textLength="20" x="444" y="292.5098">Api</text><text fill="#000000" font-family="sans-serif" font-size="14" lengthAdjust="spacing" textLength="61" x="604.5" y="125.4941">Database</text><path d="M620,74.9609 C620,64.9609 638,64.9609 638,64.9609 C638,64.9609 656,64.9609 656,74.9609 L656,100.9609 C656,110.9609 638,110.9609 638,110.9609 C638,110.9609 620,110.9609 620,100.9609 L620,74.9609 " fill="#E2E2F0" style="stroke:#181818;stroke-width:1.5;"/><path d="M620,74.9609 C620,84.9609 638,84.9609 638,84.9609 C638,84.9609 656,84.9609 656,74.9609 " fill="none" style="stroke:#181818;stroke-width:1.5;"/><text fill="#000000" font-family="sans-serif" font-size="14" lengthAdjust="spacing" textLength="61" x="604.5" y="285.5098">Database</text><path d="M620,298.5859 C620,288.5859 638,288.5859 638,288.5859 C638,288.5859 656,288.5859 656,298.5859 L656,324.5859 C656,334.5859 638,334.5859 638,334.5859 C638,334.5859 620,334.5859 620,324.5859 L620,298.5859 " fill="#E2E2F0" style="stroke:#181818;stroke-width:1.5;"/><path d="M620,298.5859 C620,308.5859 638,308.5859 638,308.5859 C638,308.5859 656,308.5859 656,298.5859 " fill="none" style="stroke:#181818;stroke-width:1.5;"/><path d="M686.5,100.9609 L764.5,100.9609 C769.5,100.9609 769.5,114.7656 769.5,114.7656 C769.5,114.7656 769.5,128.5703 764.5,128.5703 L686.5,128.5703 C681.5,128.5703 681.5,114.7656 681.5,114.7656 C681.5,114.7656 681.5,100.9609 686.5,100.9609 " fill="#E2E2F0" style="stroke:#181818;stroke-width:0.5;"/><path d="M764.5,100.9609 C759.5,100.9609 759.5,114.7656 759.5,114.7656 C759.5,128.5703 764.5,128.5703 764.5,128.5703 " fill="none" style="stroke:#181818;stroke-width:0.5;"/><text fill="#000000" font-family="sans-serif" font-size="14" lengthAdjust="spacing" textLength="68" x="686.5" y="120.4941">Messaging</text><path d="M686.5,270.9766 L764.5,270.9766 C769.5,270.9766 769.5,284.7813 769.5,284.7813 C769.5,284.7813 769.5,298.5859 764.5,298.5859 L686.5,298.5859 C681.5,298.5859 681.5,284.7813 681.5,284.7813 C681.5,284.7813 681.5,270.9766 686.5,270.9766 " fill="#E2E2F0" style="stroke:#181818;stroke-width:0.5;"/><path d="M764.5,270.9766 C759.5,270.9766 759.5,284.7813 759.5,284.7813 C759.5,298.5859 764.5,298.5859 764.5,298.5859 " fill="none" style="stroke:#181818;stroke-width:0.5;"/><text fill="#000000" font-family="sans-serif" font-size="14" lengthAdjust="spacing" textLength="68" x="686.5" y="290.5098">Messaging</text><polygon fill="#181818" points="442,156.9219,452,160.9219,442,164.9219,446,160.9219" style="stroke:#181818;stroke-width:1.0;"/><line style="stroke:#181818;stroke-width:1.0;" x1="234" x2="448" y1="160.9219" y2="160.9219"/><text fill="#000000" font-family="sans-serif" font-size="13" lengthAdjust="spacing" textLength="196" x="241" y="156.0654">Update Order Fraud Check Result</text><path d="M427,175.9219 L684,175.9219 L684,184.2734 L674,194.2734 L427,194.2734 L427,175.9219 " fill="#EEEEEE" style="stroke:#000000;stroke-width:1.5;"/><rect fill="none" height="79.0547" style="stroke:#000000;stroke-width:1.5;" width="352.5" x="427" y="175.9219"/><text fill="#000000" font-family="sans-serif" font-size="13" font-weight="bold" lengthAdjust="spacing" textLength="212" x="442" y="190.417">Update Order Fraud Check Result</text><polygon fill="#181818" points="626,212.625,636,216.625,626,220.625,630,216.625" style="stroke:#181818;stroke-width:1.0;"/><line style="stroke:#181818;stroke-width:1.0;" x1="454" x2="632" y1="216.625" y2="216.625"/><text fill="#000000" font-family="sans-serif" font-size="13" lengthAdjust="spacing" textLength="160" x="461" y="211.7686">Update Fraud Check Result</text><polygon fill="#181818" points="713.5,242.9766,723.5,246.9766,713.5,250.9766,717.5,246.9766" style="stroke:#181818;stroke-width:1.0;"/><line style="stroke:#181818;stroke-width:1.0;" x1="454" x2="719.5" y1="246.9766" y2="246.9766"/><text fill="#000000" font-family="sans-serif" font-size="13" lengthAdjust="spacing" textLength="185" x="461" y="242.1201">Send Fraud Check Result Event</text><!--SRC=[rPInReCm48PtFyM9pdZgrA5IHOZK8MfLL7M-m8LOCJQr3KdVleS3H54hfGj36P0DT_zt__dae88co26pJKEk97ZL67RMDP32YhJgoV5gxR2hO8C6Qsh8XFbJGQvNd9N2Kwlu_TvM60XUNCLvvv1iJ-K1tiXtUiWhwBCZ4rCoQm8gmv6QUj92jEY2AbMBJ4ZoKo1dK2U07hBxPyFRjRP7MTXTEAAZuii7QhoS0izx8RRs1CbLUGdSVUnL807yN46uwgYVJ_ud-t8qBwFGnVaFUlm_SkJio4jMZZZk1sxH4oIhSRKGS9AFLEvnnyWDUO-rClL2p5bVaAc06o-4-FjHGVguJEFXuTOWYjhPhhqPjKnrYzYUZl_Y_N_xcKUB3HN3TFroc-GzAmwZ9yGt]--></g></svg>