<?xml version="1.0" encoding="us-ascii" standalone="no"?><svg xmlns="http://www.w3.org/2000/svg" xmlns:xlink="http://www.w3.org/1999/xlink" contentStyleType="text/css" height="405px" preserveAspectRatio="none" style="width:666px;height:405px;background:#FFFFFF;" version="1.1" viewBox="0 0 666 405" width="666px" zoomAndPan="magnify"><defs/><g><text fill="#000000" font-family="sans-serif" font-size="14" font-weight="bold" lengthAdjust="spacing" textLength="638" x="10" y="29.5332">Dot Net E Shop - Catalog Api - Api - Catalog Api - Update Item - Sequence - Component level</text><rect fill="#FFFFFF" height="355.0313" style="stroke:#181818;stroke-width:0.5;" width="95" x="202.5" y="44.6094"/><text fill="#000000" font-family="sans-serif" font-size="13" font-weight="bold" lengthAdjust="spacing" textLength="21" x="239.5" y="58.1045">Api</text><rect fill="#FFFFFF" height="355.0313" style="stroke:#181818;stroke-width:0.5;" width="123" x="391.5" y="44.6094"/><text fill="#000000" font-family="sans-serif" font-size="13" font-weight="bold" lengthAdjust="spacing" textLength="84" x="411" y="58.1045">Infrastructure</text><rect fill="none" height="202.1094" style="stroke:#000000;stroke-width:1.5;" width="344" x="186.5" y="144.9219"/><rect fill="none" height="61.7031" style="stroke:#000000;stroke-width:1.5;" width="261.5" x="196.5" y="170.2734"/><rect fill="none" height="50.7031" style="stroke:#000000;stroke-width:1.5;" width="324" x="196.5" y="245.9766"/><line style="stroke:#181818;stroke-width:0.5;stroke-dasharray:5.0,5.0;" x1="155.5" x2="155.5" y1="97.5703" y2="364.0313"/><line style="stroke:#181818;stroke-width:0.5;stroke-dasharray:5.0,5.0;" x1="249.5" x2="249.5" y1="97.5703" y2="364.0313"/><line style="stroke:#181818;stroke-width:0.5;stroke-dasharray:5.0,5.0;" x1="452.5" x2="452.5" y1="97.5703" y2="364.0313"/><rect fill="#E2E2F0" height="31.6094" rx="2.5" ry="2.5" style="stroke:#181818;stroke-width:0.5;" width="65" x="123.5" y="64.9609"/><text fill="#000000" font-family="sans-serif" font-size="14" lengthAdjust="spacing" textLength="51" x="130.5" y="86.4941">External</text><rect fill="#E2E2F0" height="31.6094" rx="2.5" ry="2.5" style="stroke:#181818;stroke-width:0.5;" width="65" x="123.5" y="363.0313"/><text fill="#000000" font-family="sans-serif" font-size="14" lengthAdjust="spacing" textLength="51" x="130.5" y="384.5645">External</text><rect fill="#E2E2F0" height="31.6094" rx="2.5" ry="2.5" style="stroke:#181818;stroke-width:0.5;" width="87" x="206.5" y="64.9609"/><text fill="#000000" font-family="sans-serif" font-size="14" lengthAdjust="spacing" textLength="73" x="213.5" y="86.4941">Catalog Api</text><rect fill="#E2E2F0" height="31.6094" rx="2.5" ry="2.5" style="stroke:#181818;stroke-width:0.5;" width="87" x="206.5" y="363.0313"/><text fill="#000000" font-family="sans-serif" font-size="14" lengthAdjust="spacing" textLength="73" x="213.5" y="384.5645">Catalog Api</text><rect fill="#E2E2F0" height="31.6094" rx="2.5" ry="2.5" style="stroke:#181818;stroke-width:0.5;" width="115" x="395.5" y="64.9609"/><text fill="#000000" font-family="sans-serif" font-size="14" lengthAdjust="spacing" textLength="101" x="402.5" y="86.4941">Catalog Context</text><rect fill="#E2E2F0" height="31.6094" rx="2.5" ry="2.5" style="stroke:#181818;stroke-width:0.5;" width="115" x="395.5" y="363.0313"/><text fill="#000000" font-family="sans-serif" font-size="14" lengthAdjust="spacing" textLength="101" x="402.5" y="384.5645">Catalog Context</text><polygon fill="#181818" points="238,125.9219,248,129.9219,238,133.9219,242,129.9219" style="stroke:#181818;stroke-width:1.0;"/><line style="stroke:#181818;stroke-width:1.0;" x1="156" x2="244" y1="129.9219" y2="129.9219"/><text fill="#000000" font-family="sans-serif" font-size="13" lengthAdjust="spacing" textLength="70" x="163" y="125.0654">Update Item</text><path d="M186.5,144.9219 L308.5,144.9219 L308.5,153.2734 L298.5,163.2734 L186.5,163.2734 L186.5,144.9219 " fill="#EEEEEE" style="stroke:#000000;stroke-width:1.5;"/><rect fill="none" height="202.1094" style="stroke:#000000;stroke-width:1.5;" width="344" x="186.5" y="144.9219"/><text fill="#000000" font-family="sans-serif" font-size="13" font-weight="bold" lengthAdjust="spacing" textLength="77" x="201.5" y="159.417">Update Item</text><path d="M196.5,170.2734 L257.5,170.2734 L257.5,178.625 L247.5,188.625 L196.5,188.625 L196.5,170.2734 " fill="#EEEEEE" style="stroke:#000000;stroke-width:1.5;"/><rect fill="none" height="61.7031" style="stroke:#000000;stroke-width:1.5;" width="261.5" x="196.5" y="170.2734"/><text fill="#000000" font-family="sans-serif" font-size="13" font-weight="bold" lengthAdjust="spacing" textLength="16" x="211.5" y="184.7686">alt</text><text fill="#000000" font-family="sans-serif" font-size="11" font-weight="bold" lengthAdjust="spacing" textLength="110" x="272.5" y="183.6924">[catalogItem == null]</text><line style="stroke:#181818;stroke-width:1.0;" x1="250" x2="292" y1="210.9766" y2="210.9766"/><line style="stroke:#181818;stroke-width:1.0;" x1="292" x2="292" y1="210.9766" y2="223.9766"/><line style="stroke:#181818;stroke-width:1.0;" x1="251" x2="292" y1="223.9766" y2="223.9766"/><polygon fill="#181818" points="261,219.9766,251,223.9766,261,227.9766,257,223.9766" style="stroke:#181818;stroke-width:1.0;"/><text fill="#000000" font-family="sans-serif" font-size="13" lengthAdjust="spacing" textLength="189" x="257" y="206.1201">Return (TypedResults.NotFound)</text><path d="M196.5,245.9766 L257.5,245.9766 L257.5,254.3281 L247.5,264.3281 L196.5,264.3281 L196.5,245.9766 " fill="#EEEEEE" style="stroke:#000000;stroke-width:1.5;"/><rect fill="none" height="50.7031" style="stroke:#000000;stroke-width:1.5;" width="324" x="196.5" y="245.9766"/><text fill="#000000" font-family="sans-serif" font-size="13" font-weight="bold" lengthAdjust="spacing" textLength="16" x="211.5" y="260.4717">alt</text><text fill="#000000" font-family="sans-serif" font-size="11" font-weight="bold" lengthAdjust="spacing" textLength="125" x="272.5" y="259.3955">[priceEntry.IsModified]</text><line style="stroke:#000000;stroke-width:1.0;stroke-dasharray:2.0,2.0;" x1="196.5" x2="520.5" y1="265.3281" y2="265.3281"/><polygon fill="#181818" points="441,284.6797,451,288.6797,441,292.6797,445,288.6797" style="stroke:#181818;stroke-width:1.0;"/><line style="stroke:#181818;stroke-width:1.0;" x1="250" x2="447" y1="288.6797" y2="288.6797"/><text fill="#000000" font-family="sans-serif" font-size="13" lengthAdjust="spacing" textLength="124" x="257" y="283.8232">Save Changes Async</text><line style="stroke:#181818;stroke-width:1.0;" x1="250" x2="292" y1="326.0313" y2="326.0313"/><line style="stroke:#181818;stroke-width:1.0;" x1="292" x2="292" y1="326.0313" y2="339.0313"/><line style="stroke:#181818;stroke-width:1.0;" x1="251" x2="292" y1="339.0313" y2="339.0313"/><polygon fill="#181818" points="261,335.0313,251,339.0313,261,343.0313,257,339.0313" style="stroke:#181818;stroke-width:1.0;"/><text fill="#000000" font-family="sans-serif" font-size="13" lengthAdjust="spacing" textLength="178" x="257" y="321.1748">Return (TypedResults.Created)</text><!--SRC=[rLAnJiCm4Dtz5QUmmD1CJ4X5ga8gPQ130s8soRMrv9wDVMwRlyTf0YI0H8Kg8J9OUUTdl_TynuermfrXM2133kN6M9X09bbgiuQPLH5rwxZsQ6l920NZDg8INm9IXItDRAqX90QDEzH2MEbOLShAM4ho0wCZgHEG7hBhWYASQxDFIxFYlNHODZvUwTCtOeU5U3O7I0OM4hXusYX60V7hTZzNHyAZer4xHew9ypRl5-sU6wbfPeYb8dG-xM0VRaWII3L41sBWfQ2LavvTg3Wu_DbMguC7_gMriTetBllhFvo-_uZJcm2JstC-6zmCXqYidGbsL96QeUhenp6RJe62rkAS7iuUQOcn1GIN3ut5Uea-wCXO69wRGFLL- -x7NDQf2dDYrwI5lpUrMYci1MgFyFVvJXsd6BUKEuHi8scD7cQ-eUeOyV-rA7CO1w_la7W5]--></g></svg>