<?xml version="1.0" encoding="us-ascii" standalone="no"?><svg xmlns="http://www.w3.org/2000/svg" xmlns:xlink="http://www.w3.org/1999/xlink" contentStyleType="text/css" height="351px" preserveAspectRatio="none" style="width:1032px;height:351px;background:#FFFFFF;" version="1.1" viewBox="0 0 1032 351" width="1032px" zoomAndPan="magnify"><defs/><g><text fill="#000000" font-family="sans-serif" font-size="14" font-weight="bold" lengthAdjust="spacing" textLength="1004" x="10" y="29.5332">E Commerce Platform - Create Product - Product Information Management - Product Service - Api - Update Product - Sequence - Container level</text><rect fill="#FFFFFF" height="293.9766" style="stroke:#181818;stroke-width:0.5;" width="270.5" x="434.5" y="44.6094"/><text fill="#000000" font-family="sans-serif" font-size="13" font-weight="bold" lengthAdjust="spacing" textLength="101" x="519.25" y="58.1045">Product Service</text><rect fill="none" height="79.0547" style="stroke:#000000;stroke-width:1.5;" width="282.5" x="428.5" y="175.9219"/><line style="stroke:#181818;stroke-width:0.5;stroke-dasharray:5.0,5.0;" x1="341" x2="341" y1="128.5703" y2="271.9766"/><line style="stroke:#181818;stroke-width:0.5;stroke-dasharray:5.0,5.0;" x1="455.5" x2="455.5" y1="128.5703" y2="271.9766"/><line style="stroke:#181818;stroke-width:0.5;stroke-dasharray:5.0,5.0;" x1="569" x2="569" y1="128.5703" y2="271.9766"/><line style="stroke:#181818;stroke-width:0.5;stroke-dasharray:5.0,5.0;" x1="657" x2="657" y1="128.5703" y2="271.9766"/><rect fill="#E2E2F0" height="31.6094" rx="2.5" ry="2.5" style="stroke:#181818;stroke-width:0.5;" width="65" x="309" y="95.9609"/><text fill="#000000" font-family="sans-serif" font-size="14" lengthAdjust="spacing" textLength="51" x="316" y="117.4941">External</text><rect fill="#E2E2F0" height="31.6094" rx="2.5" ry="2.5" style="stroke:#181818;stroke-width:0.5;" width="65" x="309" y="270.9766"/><text fill="#000000" font-family="sans-serif" font-size="14" lengthAdjust="spacing" textLength="51" x="316" y="292.5098">External</text><rect fill="#E2E2F0" height="31.6094" rx="2.5" ry="2.5" style="stroke:#181818;stroke-width:0.5;" width="34" x="438.5" y="95.9609"/><text fill="#000000" font-family="sans-serif" font-size="14" lengthAdjust="spacing" textLength="20" x="445.5" y="117.4941">Api</text><rect fill="#E2E2F0" height="31.6094" rx="2.5" ry="2.5" style="stroke:#181818;stroke-width:0.5;" width="34" x="438.5" y="270.9766"/><text fill="#000000" font-family="sans-serif" font-size="14" lengthAdjust="spacing" textLength="20" x="445.5" y="292.5098">Api</text><text fill="#000000" font-family="sans-serif" font-size="14" lengthAdjust="spacing" textLength="61" x="536" y="125.4941">Database</text><path d="M551.5,74.9609 C551.5,64.9609 569.5,64.9609 569.5,64.9609 C569.5,64.9609 587.5,64.9609 587.5,74.9609 L587.5,100.9609 C587.5,110.9609 569.5,110.9609 569.5,110.9609 C569.5,110.9609 551.5,110.9609 551.5,100.9609 L551.5,74.9609 " fill="#E2E2F0" style="stroke:#181818;stroke-width:1.5;"/><path d="M551.5,74.9609 C551.5,84.9609 569.5,84.9609 569.5,84.9609 C569.5,84.9609 587.5,84.9609 587.5,74.9609 " fill="none" style="stroke:#181818;stroke-width:1.5;"/><text fill="#000000" font-family="sans-serif" font-size="14" lengthAdjust="spacing" textLength="61" x="536" y="285.5098">Database</text><path d="M551.5,298.5859 C551.5,288.5859 569.5,288.5859 569.5,288.5859 C569.5,288.5859 587.5,288.5859 587.5,298.5859 L587.5,324.5859 C587.5,334.5859 569.5,334.5859 569.5,334.5859 C569.5,334.5859 551.5,334.5859 551.5,324.5859 L551.5,298.5859 " fill="#E2E2F0" style="stroke:#181818;stroke-width:1.5;"/><path d="M551.5,298.5859 C551.5,308.5859 569.5,308.5859 569.5,308.5859 C569.5,308.5859 587.5,308.5859 587.5,298.5859 " fill="none" style="stroke:#181818;stroke-width:1.5;"/><path d="M618,100.9609 L696,100.9609 C701,100.9609 701,114.7656 701,114.7656 C701,114.7656 701,128.5703 696,128.5703 L618,128.5703 C613,128.5703 613,114.7656 613,114.7656 C613,114.7656 613,100.9609 618,100.9609 " fill="#E2E2F0" style="stroke:#181818;stroke-width:0.5;"/><path d="M696,100.9609 C691,100.9609 691,114.7656 691,114.7656 C691,128.5703 696,128.5703 696,128.5703 " fill="none" style="stroke:#181818;stroke-width:0.5;"/><text fill="#000000" font-family="sans-serif" font-size="14" lengthAdjust="spacing" textLength="68" x="618" y="120.4941">Messaging</text><path d="M618,270.9766 L696,270.9766 C701,270.9766 701,284.7813 701,284.7813 C701,284.7813 701,298.5859 696,298.5859 L618,298.5859 C613,298.5859 613,284.7813 613,284.7813 C613,284.7813 613,270.9766 618,270.9766 " fill="#E2E2F0" style="stroke:#181818;stroke-width:0.5;"/><path d="M696,270.9766 C691,270.9766 691,284.7813 691,284.7813 C691,298.5859 696,298.5859 696,298.5859 " fill="none" style="stroke:#181818;stroke-width:0.5;"/><text fill="#000000" font-family="sans-serif" font-size="14" lengthAdjust="spacing" textLength="68" x="618" y="290.5098">Messaging</text><polygon fill="#181818" points="443.5,156.9219,453.5,160.9219,443.5,164.9219,447.5,160.9219" style="stroke:#181818;stroke-width:1.0;"/><line style="stroke:#181818;stroke-width:1.0;" x1="341.5" x2="449.5" y1="160.9219" y2="160.9219"/><text fill="#000000" font-family="sans-serif" font-size="13" lengthAdjust="spacing" textLength="90" x="348.5" y="156.0654">Update Product</text><path d="M428.5,175.9219 L571.5,175.9219 L571.5,184.2734 L561.5,194.2734 L428.5,194.2734 L428.5,175.9219 " fill="#EEEEEE" style="stroke:#000000;stroke-width:1.5;"/><rect fill="none" height="79.0547" style="stroke:#000000;stroke-width:1.5;" width="282.5" x="428.5" y="175.9219"/><text fill="#000000" font-family="sans-serif" font-size="13" font-weight="bold" lengthAdjust="spacing" textLength="98" x="443.5" y="190.417">Update Product</text><polygon fill="#181818" points="557.5,212.625,567.5,216.625,557.5,220.625,561.5,216.625" style="stroke:#181818;stroke-width:1.0;"/><line style="stroke:#181818;stroke-width:1.0;" x1="455.5" x2="563.5" y1="216.625" y2="216.625"/><text fill="#000000" font-family="sans-serif" font-size="13" lengthAdjust="spacing" textLength="90" x="462.5" y="211.7686">Update Product</text><polygon fill="#181818" points="645,242.9766,655,246.9766,645,250.9766,649,246.9766" style="stroke:#181818;stroke-width:1.0;"/><line style="stroke:#181818;stroke-width:1.0;" x1="455.5" x2="651" y1="246.9766" y2="246.9766"/><text fill="#000000" font-family="sans-serif" font-size="13" lengthAdjust="spacing" textLength="167" x="462.5" y="242.1201">Send Product Updated Event</text><!--SRC=[tLGxRuCm4DxzAqvqnbEd3fKgIgKCaIgXglC5BjIIiObjIFhlUpnC4x9qOYW3sAVJzxeJGGLDa4DccuPSIV2kCHojQo25p146hZXRTMNWGZpjpD21GLa3UpHOKqFckg4Wroi6I-6bLVp-QAjRf89E7Pcn8xCce3BaG5DFMeWMNL2bQf4Xa_mIo1dK2Q27x75d-FgcxLaMzXZEwAZuze4QBsFZT1VYO2-GhFGayF3vfG89uEU6XcME37dC8SOWfn1c83b_hmBuzNydQMwUoULYr4kc6pLmAdX0Jv2ypgSjLKJEKGhFesCTU_8UQsNgBOKif89C1Jmv8SJVPmtfyuPpWwVLDelQsQvT5pSKj9tzk33t6VnBkyjQijzYsCpuEvdCLv3t33Zih10_]--></g></svg>