<?xml version="1.0" encoding="us-ascii" standalone="no"?><svg xmlns="http://www.w3.org/2000/svg" xmlns:xlink="http://www.w3.org/1999/xlink" contentStyleType="text/css" height="351px" preserveAspectRatio="none" style="width:1032px;height:351px;background:#FFFFFF;" version="1.1" viewBox="0 0 1032 351" width="1032px" zoomAndPan="magnify"><defs/><g><text fill="#000000" font-family="sans-serif" font-size="14" font-weight="bold" lengthAdjust="spacing" textLength="1004" x="10" y="29.5332">E Commerce Platform - Create Product - Product Information Management - Product Service - Api - Update Product - Sequence - Container level</text><rect fill="#FFFFFF" height="293.9766" style="stroke:#181818;stroke-width:0.5;" width="264.5" x="437.5" y="44.6094"/><text fill="#000000" font-family="sans-serif" font-size="13" font-weight="bold" lengthAdjust="spacing" textLength="101" x="519.25" y="58.1045">Product Service</text><rect fill="none" height="79.0547" style="stroke:#000000;stroke-width:1.5;" width="276.5" x="431.5" y="175.9219"/><line style="stroke:#181818;stroke-width:0.5;stroke-dasharray:5.0,5.0;" x1="344" x2="344" y1="128.5703" y2="271.9766"/><line style="stroke:#181818;stroke-width:0.5;stroke-dasharray:5.0,5.0;" x1="458.5" x2="458.5" y1="128.5703" y2="271.9766"/><line style="stroke:#181818;stroke-width:0.5;stroke-dasharray:5.0,5.0;" x1="572" x2="572" y1="128.5703" y2="271.9766"/><line style="stroke:#181818;stroke-width:0.5;stroke-dasharray:5.0,5.0;" x1="657" x2="657" y1="128.5703" y2="271.9766"/><rect fill="#E2E2F0" height="31.6094" rx="2.5" ry="2.5" style="stroke:#181818;stroke-width:0.5;" width="65" x="312" y="95.9609"/><text fill="#000000" font-family="sans-serif" font-size="14" lengthAdjust="spacing" textLength="51" x="319" y="117.4941">External</text><rect fill="#E2E2F0" height="31.6094" rx="2.5" ry="2.5" style="stroke:#181818;stroke-width:0.5;" width="65" x="312" y="270.9766"/><text fill="#000000" font-family="sans-serif" font-size="14" lengthAdjust="spacing" textLength="51" x="319" y="292.5098">External</text><rect fill="#E2E2F0" height="31.6094" rx="2.5" ry="2.5" style="stroke:#181818;stroke-width:0.5;" width="34" x="441.5" y="95.9609"/><text fill="#000000" font-family="sans-serif" font-size="14" lengthAdjust="spacing" textLength="20" x="448.5" y="117.4941">Api</text><rect fill="#E2E2F0" height="31.6094" rx="2.5" ry="2.5" style="stroke:#181818;stroke-width:0.5;" width="34" x="441.5" y="270.9766"/><text fill="#000000" font-family="sans-serif" font-size="14" lengthAdjust="spacing" textLength="20" x="448.5" y="292.5098">Api</text><text fill="#000000" font-family="sans-serif" font-size="14" lengthAdjust="spacing" textLength="61" x="539" y="125.4941">Database</text><path d="M554.5,74.9609 C554.5,64.9609 572.5,64.9609 572.5,64.9609 C572.5,64.9609 590.5,64.9609 590.5,74.9609 L590.5,100.9609 C590.5,110.9609 572.5,110.9609 572.5,110.9609 C572.5,110.9609 554.5,110.9609 554.5,100.9609 L554.5,74.9609 " fill="#E2E2F0" style="stroke:#181818;stroke-width:1.5;"/><path d="M554.5,74.9609 C554.5,84.9609 572.5,84.9609 572.5,84.9609 C572.5,84.9609 590.5,84.9609 590.5,74.9609 " fill="none" style="stroke:#181818;stroke-width:1.5;"/><text fill="#000000" font-family="sans-serif" font-size="14" lengthAdjust="spacing" textLength="61" x="539" y="285.5098">Database</text><path d="M554.5,298.5859 C554.5,288.5859 572.5,288.5859 572.5,288.5859 C572.5,288.5859 590.5,288.5859 590.5,298.5859 L590.5,324.5859 C590.5,334.5859 572.5,334.5859 572.5,334.5859 C572.5,334.5859 554.5,334.5859 554.5,324.5859 L554.5,298.5859 " fill="#E2E2F0" style="stroke:#181818;stroke-width:1.5;"/><path d="M554.5,298.5859 C554.5,308.5859 572.5,308.5859 572.5,308.5859 C572.5,308.5859 590.5,308.5859 590.5,298.5859 " fill="none" style="stroke:#181818;stroke-width:1.5;"/><rect fill="#E2E2F0" height="31.6094" rx="2.5" ry="2.5" style="stroke:#181818;stroke-width:0.5;" width="82" x="616" y="95.9609"/><text fill="#000000" font-family="sans-serif" font-size="14" lengthAdjust="spacing" textLength="68" x="623" y="117.4941">Messaging</text><rect fill="#E2E2F0" height="31.6094" rx="2.5" ry="2.5" style="stroke:#181818;stroke-width:0.5;" width="82" x="616" y="270.9766"/><text fill="#000000" font-family="sans-serif" font-size="14" lengthAdjust="spacing" textLength="68" x="623" y="292.5098">Messaging</text><polygon fill="#181818" points="446.5,156.9219,456.5,160.9219,446.5,164.9219,450.5,160.9219" style="stroke:#181818;stroke-width:1.0;"/><line style="stroke:#181818;stroke-width:1.0;" x1="344.5" x2="452.5" y1="160.9219" y2="160.9219"/><text fill="#000000" font-family="sans-serif" font-size="13" lengthAdjust="spacing" textLength="90" x="351.5" y="156.0654">Update Product</text><path d="M431.5,175.9219 L574.5,175.9219 L574.5,184.2734 L564.5,194.2734 L431.5,194.2734 L431.5,175.9219 " fill="#EEEEEE" style="stroke:#000000;stroke-width:1.5;"/><rect fill="none" height="79.0547" style="stroke:#000000;stroke-width:1.5;" width="276.5" x="431.5" y="175.9219"/><text fill="#000000" font-family="sans-serif" font-size="13" font-weight="bold" lengthAdjust="spacing" textLength="98" x="446.5" y="190.417">Update Product</text><polygon fill="#181818" points="560.5,212.625,570.5,216.625,560.5,220.625,564.5,216.625" style="stroke:#181818;stroke-width:1.0;"/><line style="stroke:#181818;stroke-width:1.0;" x1="458.5" x2="566.5" y1="216.625" y2="216.625"/><text fill="#000000" font-family="sans-serif" font-size="13" lengthAdjust="spacing" textLength="90" x="465.5" y="211.7686">Update Product</text><polygon fill="#181818" points="645,242.9766,655,246.9766,645,250.9766,649,246.9766" style="stroke:#181818;stroke-width:1.0;"/><line style="stroke:#181818;stroke-width:1.0;" x1="458.5" x2="651" y1="246.9766" y2="246.9766"/><text fill="#000000" font-family="sans-serif" font-size="13" lengthAdjust="spacing" textLength="167" x="465.5" y="242.1201">Send Product Updated Event</text><!--SRC=[tLIzReCm4Dxz52SwuwbJXqeLfLA6I9LGrVa25sh9sCGs97txNW3J19PE36K0-tJw_kv4K44Jv93PfY5N4hnh34Vh6aWXSuI1AyvMNHcu44yxS-t0eAo1FHgigI5psr2GwnM3fV3IAdv_jDKzKa6dZipGaLaJK1boeAadBKIBBgXIjSYGINu9v0pg1D13zhWpV7tJzYmBUmndT5Hy-q2Dbx5nl0jni1T85deIUFZyKe44y7D7mp87XZpc46EGOmWJa9o-Dm7y-bz9cfedSZaRzPBf1WsS2XxG4oIlqsbB5P5p7SUUlCTQcNfBEJEf85C1pqy8yVU9G_gyuVJWQR7JedQsQvV53GLjPp-kpJg3VsbtNalsMrmtC_vKHlCLv3q3NdTMY1y0]--></g></svg>