<?xml version="1.0" encoding="us-ascii" standalone="no"?><svg xmlns="http://www.w3.org/2000/svg" xmlns:xlink="http://www.w3.org/1999/xlink" contentStyleType="text/css" height="414px" preserveAspectRatio="none" style="width:941px;height:414px;background:#FFFFFF;" version="1.1" viewBox="0 0 941 414" width="941px" zoomAndPan="magnify"><defs/><g><text fill="#000000" font-family="sans-serif" font-size="14" font-weight="bold" lengthAdjust="spacing" textLength="913" x="10" y="29.5332">E Commerce Platform - Create Product - Product Information Management - PIM App - Update Product - Sequence - Container level</text><rect fill="#FFFFFF" height="356.6797" style="stroke:#181818;stroke-width:0.5;" width="270.5" x="441" y="44.6094"/><text fill="#000000" font-family="sans-serif" font-size="13" font-weight="bold" lengthAdjust="spacing" textLength="101" x="525.75" y="58.1045">Product Service</text><rect fill="none" height="141.7578" style="stroke:#000000;stroke-width:1.5;" width="422.5" x="305" y="175.9219"/><rect fill="none" height="79.0547" style="stroke:#000000;stroke-width:1.5;" width="282.5" x="435" y="231.625"/><line style="stroke:#181818;stroke-width:0.5;stroke-dasharray:5.0,5.0;" x1="233.5" x2="233.5" y1="128.5703" y2="334.6797"/><line style="stroke:#181818;stroke-width:0.5;stroke-dasharray:5.0,5.0;" x1="348" x2="348" y1="128.5703" y2="334.6797"/><line style="stroke:#181818;stroke-width:0.5;stroke-dasharray:5.0,5.0;" x1="462" x2="462" y1="128.5703" y2="334.6797"/><line style="stroke:#181818;stroke-width:0.5;stroke-dasharray:5.0,5.0;" x1="575.5" x2="575.5" y1="128.5703" y2="334.6797"/><line style="stroke:#181818;stroke-width:0.5;stroke-dasharray:5.0,5.0;" x1="663.5" x2="663.5" y1="128.5703" y2="334.6797"/><rect fill="#E2E2F0" height="31.6094" rx="2.5" ry="2.5" style="stroke:#181818;stroke-width:0.5;" width="65" x="201.5" y="95.9609"/><text fill="#000000" font-family="sans-serif" font-size="14" lengthAdjust="spacing" textLength="51" x="208.5" y="117.4941">External</text><rect fill="#E2E2F0" height="31.6094" rx="2.5" ry="2.5" style="stroke:#181818;stroke-width:0.5;" width="65" x="201.5" y="333.6797"/><text fill="#000000" font-family="sans-serif" font-size="14" lengthAdjust="spacing" textLength="51" x="208.5" y="355.2129">External</text><rect fill="#E2E2F0" height="31.6094" rx="2.5" ry="2.5" style="stroke:#181818;stroke-width:0.5;" width="66" x="315" y="95.9609"/><text fill="#000000" font-family="sans-serif" font-size="14" lengthAdjust="spacing" textLength="52" x="322" y="117.4941">PIM App</text><rect fill="#E2E2F0" height="31.6094" rx="2.5" ry="2.5" style="stroke:#181818;stroke-width:0.5;" width="66" x="315" y="333.6797"/><text fill="#000000" font-family="sans-serif" font-size="14" lengthAdjust="spacing" textLength="52" x="322" y="355.2129">PIM App</text><rect fill="#E2E2F0" height="31.6094" rx="2.5" ry="2.5" style="stroke:#181818;stroke-width:0.5;" width="34" x="445" y="95.9609"/><text fill="#000000" font-family="sans-serif" font-size="14" lengthAdjust="spacing" textLength="20" x="452" y="117.4941">Api</text><rect fill="#E2E2F0" height="31.6094" rx="2.5" ry="2.5" style="stroke:#181818;stroke-width:0.5;" width="34" x="445" y="333.6797"/><text fill="#000000" font-family="sans-serif" font-size="14" lengthAdjust="spacing" textLength="20" x="452" y="355.2129">Api</text><text fill="#000000" font-family="sans-serif" font-size="14" lengthAdjust="spacing" textLength="61" x="542.5" y="125.4941">Database</text><path d="M558,74.9609 C558,64.9609 576,64.9609 576,64.9609 C576,64.9609 594,64.9609 594,74.9609 L594,100.9609 C594,110.9609 576,110.9609 576,110.9609 C576,110.9609 558,110.9609 558,100.9609 L558,74.9609 " fill="#E2E2F0" style="stroke:#181818;stroke-width:1.5;"/><path d="M558,74.9609 C558,84.9609 576,84.9609 576,84.9609 C576,84.9609 594,84.9609 594,74.9609 " fill="none" style="stroke:#181818;stroke-width:1.5;"/><text fill="#000000" font-family="sans-serif" font-size="14" lengthAdjust="spacing" textLength="61" x="542.5" y="348.2129">Database</text><path d="M558,361.2891 C558,351.2891 576,351.2891 576,351.2891 C576,351.2891 594,351.2891 594,361.2891 L594,387.2891 C594,397.2891 576,397.2891 576,397.2891 C576,397.2891 558,397.2891 558,387.2891 L558,361.2891 " fill="#E2E2F0" style="stroke:#181818;stroke-width:1.5;"/><path d="M558,361.2891 C558,371.2891 576,371.2891 576,371.2891 C576,371.2891 594,371.2891 594,361.2891 " fill="none" style="stroke:#181818;stroke-width:1.5;"/><path d="M624.5,100.9609 L702.5,100.9609 C707.5,100.9609 707.5,114.7656 707.5,114.7656 C707.5,114.7656 707.5,128.5703 702.5,128.5703 L624.5,128.5703 C619.5,128.5703 619.5,114.7656 619.5,114.7656 C619.5,114.7656 619.5,100.9609 624.5,100.9609 " fill="#E2E2F0" style="stroke:#181818;stroke-width:0.5;"/><path d="M702.5,100.9609 C697.5,100.9609 697.5,114.7656 697.5,114.7656 C697.5,128.5703 702.5,128.5703 702.5,128.5703 " fill="none" style="stroke:#181818;stroke-width:0.5;"/><text fill="#000000" font-family="sans-serif" font-size="14" lengthAdjust="spacing" textLength="68" x="624.5" y="120.4941">Messaging</text><path d="M624.5,333.6797 L702.5,333.6797 C707.5,333.6797 707.5,347.4844 707.5,347.4844 C707.5,347.4844 707.5,361.2891 702.5,361.2891 L624.5,361.2891 C619.5,361.2891 619.5,347.4844 619.5,347.4844 C619.5,347.4844 619.5,333.6797 624.5,333.6797 " fill="#E2E2F0" style="stroke:#181818;stroke-width:0.5;"/><path d="M702.5,333.6797 C697.5,333.6797 697.5,347.4844 697.5,347.4844 C697.5,361.2891 702.5,361.2891 702.5,361.2891 " fill="none" style="stroke:#181818;stroke-width:0.5;"/><text fill="#000000" font-family="sans-serif" font-size="14" lengthAdjust="spacing" textLength="68" x="624.5" y="353.2129">Messaging</text><polygon fill="#181818" points="336,156.9219,346,160.9219,336,164.9219,340,160.9219" style="stroke:#181818;stroke-width:1.0;"/><line style="stroke:#181818;stroke-width:1.0;" x1="234" x2="342" y1="160.9219" y2="160.9219"/><text fill="#000000" font-family="sans-serif" font-size="13" lengthAdjust="spacing" textLength="90" x="241" y="156.0654">Update Product</text><path d="M305,175.9219 L448,175.9219 L448,184.2734 L438,194.2734 L305,194.2734 L305,175.9219 " fill="#EEEEEE" style="stroke:#000000;stroke-width:1.5;"/><rect fill="none" height="141.7578" style="stroke:#000000;stroke-width:1.5;" width="422.5" x="305" y="175.9219"/><text fill="#000000" font-family="sans-serif" font-size="13" font-weight="bold" lengthAdjust="spacing" textLength="98" x="320" y="190.417">Update Product</text><polygon fill="#181818" points="450,212.625,460,216.625,450,220.625,454,216.625" style="stroke:#181818;stroke-width:1.0;"/><line style="stroke:#181818;stroke-width:1.0;" x1="348" x2="456" y1="216.625" y2="216.625"/><text fill="#000000" font-family="sans-serif" font-size="13" lengthAdjust="spacing" textLength="90" x="355" y="211.7686">Update Product</text><path d="M435,231.625 L578,231.625 L578,239.9766 L568,249.9766 L435,249.9766 L435,231.625 " fill="#EEEEEE" style="stroke:#000000;stroke-width:1.5;"/><rect fill="none" height="79.0547" style="stroke:#000000;stroke-width:1.5;" width="282.5" x="435" y="231.625"/><text fill="#000000" font-family="sans-serif" font-size="13" font-weight="bold" lengthAdjust="spacing" textLength="98" x="450" y="246.1201">Update Product</text><polygon fill="#181818" points="564,268.3281,574,272.3281,564,276.3281,568,272.3281" style="stroke:#181818;stroke-width:1.0;"/><line style="stroke:#181818;stroke-width:1.0;" x1="462" x2="570" y1="272.3281" y2="272.3281"/><text fill="#000000" font-family="sans-serif" font-size="13" lengthAdjust="spacing" textLength="90" x="469" y="267.4717">Update Product</text><polygon fill="#181818" points="651.5,298.6797,661.5,302.6797,651.5,306.6797,655.5,302.6797" style="stroke:#181818;stroke-width:1.0;"/><line style="stroke:#181818;stroke-width:1.0;" x1="462" x2="657.5" y1="302.6797" y2="302.6797"/><text fill="#000000" font-family="sans-serif" font-size="13" lengthAdjust="spacing" textLength="167" x="469" y="297.8232">Send Product Updated Event</text><!--SRC=[tLHBQyCm3BxxLuZit9nssc5GiWnwA0p2s5bDrCoGsAxjjDs_d_9mjhHGTbWoM214Dihti2HxwIk2519TrsHpWfSA_LxR6bQGM4BFErONJUvv8qGRrMQWbrh15XMML9Fg4ZPRM1l3qQifflzcT6X8CG7ZQkLHAh9GqP4g8GnQBtDfa46YzEp9AgmYG0V9_KRnyhdIfpZJUtz2Izc7yrIxE2Jswod88AJ3I8EtO2tkZGtQuk7xpTINfojI1cPS8NRwp2o3kupiKUOKmTtRk_GaW9-9dBMHCqZfamVoU3nL5pDTfu5BW3jq1D7J42sf8d1sKhZu3UlOadDOIbKkAMGa5QGAuCe98NxUMB1wdAE5uE5YHaHfTMCkD-TW_dL3jnhnJtpU5BIS_J01rsVmB-sESyP-itRKmltOcoyWFJ9WEuJTApu1]--></g></svg>