<?xml version="1.0" encoding="us-ascii" standalone="no"?><svg xmlns="http://www.w3.org/2000/svg" xmlns:xlink="http://www.w3.org/1999/xlink" contentStyleType="text/css" height="414px" preserveAspectRatio="none" style="width:941px;height:414px;background:#FFFFFF;" version="1.1" viewBox="0 0 941 414" width="941px" zoomAndPan="magnify"><defs/><g><text fill="#000000" font-family="sans-serif" font-size="14" font-weight="bold" lengthAdjust="spacing" textLength="913" x="10" y="29.5332">E Commerce Platform - Create Product - Product Information Management - PIM App - Update Product - Sequence - Container level</text><rect fill="#FFFFFF" height="356.6797" style="stroke:#181818;stroke-width:0.5;" width="264.5" x="444" y="44.6094"/><text fill="#000000" font-family="sans-serif" font-size="13" font-weight="bold" lengthAdjust="spacing" textLength="101" x="525.75" y="58.1045">Product Service</text><rect fill="none" height="141.7578" style="stroke:#000000;stroke-width:1.5;" width="416.5" x="308" y="175.9219"/><rect fill="none" height="79.0547" style="stroke:#000000;stroke-width:1.5;" width="276.5" x="438" y="231.625"/><line style="stroke:#181818;stroke-width:0.5;stroke-dasharray:5.0,5.0;" x1="236.5" x2="236.5" y1="128.5703" y2="334.6797"/><line style="stroke:#181818;stroke-width:0.5;stroke-dasharray:5.0,5.0;" x1="351" x2="351" y1="128.5703" y2="334.6797"/><line style="stroke:#181818;stroke-width:0.5;stroke-dasharray:5.0,5.0;" x1="465" x2="465" y1="128.5703" y2="334.6797"/><line style="stroke:#181818;stroke-width:0.5;stroke-dasharray:5.0,5.0;" x1="578.5" x2="578.5" y1="128.5703" y2="334.6797"/><line style="stroke:#181818;stroke-width:0.5;stroke-dasharray:5.0,5.0;" x1="663.5" x2="663.5" y1="128.5703" y2="334.6797"/><rect fill="#E2E2F0" height="31.6094" rx="2.5" ry="2.5" style="stroke:#181818;stroke-width:0.5;" width="65" x="204.5" y="95.9609"/><text fill="#000000" font-family="sans-serif" font-size="14" lengthAdjust="spacing" textLength="51" x="211.5" y="117.4941">External</text><rect fill="#E2E2F0" height="31.6094" rx="2.5" ry="2.5" style="stroke:#181818;stroke-width:0.5;" width="65" x="204.5" y="333.6797"/><text fill="#000000" font-family="sans-serif" font-size="14" lengthAdjust="spacing" textLength="51" x="211.5" y="355.2129">External</text><rect fill="#E2E2F0" height="31.6094" rx="2.5" ry="2.5" style="stroke:#181818;stroke-width:0.5;" width="66" x="318" y="95.9609"/><text fill="#000000" font-family="sans-serif" font-size="14" lengthAdjust="spacing" textLength="52" x="325" y="117.4941">PIM App</text><rect fill="#E2E2F0" height="31.6094" rx="2.5" ry="2.5" style="stroke:#181818;stroke-width:0.5;" width="66" x="318" y="333.6797"/><text fill="#000000" font-family="sans-serif" font-size="14" lengthAdjust="spacing" textLength="52" x="325" y="355.2129">PIM App</text><rect fill="#E2E2F0" height="31.6094" rx="2.5" ry="2.5" style="stroke:#181818;stroke-width:0.5;" width="34" x="448" y="95.9609"/><text fill="#000000" font-family="sans-serif" font-size="14" lengthAdjust="spacing" textLength="20" x="455" y="117.4941">Api</text><rect fill="#E2E2F0" height="31.6094" rx="2.5" ry="2.5" style="stroke:#181818;stroke-width:0.5;" width="34" x="448" y="333.6797"/><text fill="#000000" font-family="sans-serif" font-size="14" lengthAdjust="spacing" textLength="20" x="455" y="355.2129">Api</text><text fill="#000000" font-family="sans-serif" font-size="14" lengthAdjust="spacing" textLength="61" x="545.5" y="125.4941">Database</text><path d="M561,74.9609 C561,64.9609 579,64.9609 579,64.9609 C579,64.9609 597,64.9609 597,74.9609 L597,100.9609 C597,110.9609 579,110.9609 579,110.9609 C579,110.9609 561,110.9609 561,100.9609 L561,74.9609 " fill="#E2E2F0" style="stroke:#181818;stroke-width:1.5;"/><path d="M561,74.9609 C561,84.9609 579,84.9609 579,84.9609 C579,84.9609 597,84.9609 597,74.9609 " fill="none" style="stroke:#181818;stroke-width:1.5;"/><text fill="#000000" font-family="sans-serif" font-size="14" lengthAdjust="spacing" textLength="61" x="545.5" y="348.2129">Database</text><path d="M561,361.2891 C561,351.2891 579,351.2891 579,351.2891 C579,351.2891 597,351.2891 597,361.2891 L597,387.2891 C597,397.2891 579,397.2891 579,397.2891 C579,397.2891 561,397.2891 561,387.2891 L561,361.2891 " fill="#E2E2F0" style="stroke:#181818;stroke-width:1.5;"/><path d="M561,361.2891 C561,371.2891 579,371.2891 579,371.2891 C579,371.2891 597,371.2891 597,361.2891 " fill="none" style="stroke:#181818;stroke-width:1.5;"/><rect fill="#E2E2F0" height="31.6094" rx="2.5" ry="2.5" style="stroke:#181818;stroke-width:0.5;" width="82" x="622.5" y="95.9609"/><text fill="#000000" font-family="sans-serif" font-size="14" lengthAdjust="spacing" textLength="68" x="629.5" y="117.4941">Messaging</text><rect fill="#E2E2F0" height="31.6094" rx="2.5" ry="2.5" style="stroke:#181818;stroke-width:0.5;" width="82" x="622.5" y="333.6797"/><text fill="#000000" font-family="sans-serif" font-size="14" lengthAdjust="spacing" textLength="68" x="629.5" y="355.2129">Messaging</text><polygon fill="#181818" points="339,156.9219,349,160.9219,339,164.9219,343,160.9219" style="stroke:#181818;stroke-width:1.0;"/><line style="stroke:#181818;stroke-width:1.0;" x1="237" x2="345" y1="160.9219" y2="160.9219"/><text fill="#000000" font-family="sans-serif" font-size="13" lengthAdjust="spacing" textLength="90" x="244" y="156.0654">Update Product</text><path d="M308,175.9219 L451,175.9219 L451,184.2734 L441,194.2734 L308,194.2734 L308,175.9219 " fill="#EEEEEE" style="stroke:#000000;stroke-width:1.5;"/><rect fill="none" height="141.7578" style="stroke:#000000;stroke-width:1.5;" width="416.5" x="308" y="175.9219"/><text fill="#000000" font-family="sans-serif" font-size="13" font-weight="bold" lengthAdjust="spacing" textLength="98" x="323" y="190.417">Update Product</text><polygon fill="#181818" points="453,212.625,463,216.625,453,220.625,457,216.625" style="stroke:#181818;stroke-width:1.0;"/><line style="stroke:#181818;stroke-width:1.0;" x1="351" x2="459" y1="216.625" y2="216.625"/><text fill="#000000" font-family="sans-serif" font-size="13" lengthAdjust="spacing" textLength="90" x="358" y="211.7686">Update Product</text><path d="M438,231.625 L581,231.625 L581,239.9766 L571,249.9766 L438,249.9766 L438,231.625 " fill="#EEEEEE" style="stroke:#000000;stroke-width:1.5;"/><rect fill="none" height="79.0547" style="stroke:#000000;stroke-width:1.5;" width="276.5" x="438" y="231.625"/><text fill="#000000" font-family="sans-serif" font-size="13" font-weight="bold" lengthAdjust="spacing" textLength="98" x="453" y="246.1201">Update Product</text><polygon fill="#181818" points="567,268.3281,577,272.3281,567,276.3281,571,272.3281" style="stroke:#181818;stroke-width:1.0;"/><line style="stroke:#181818;stroke-width:1.0;" x1="465" x2="573" y1="272.3281" y2="272.3281"/><text fill="#000000" font-family="sans-serif" font-size="13" lengthAdjust="spacing" textLength="90" x="472" y="267.4717">Update Product</text><polygon fill="#181818" points="651.5,298.6797,661.5,302.6797,651.5,306.6797,655.5,302.6797" style="stroke:#181818;stroke-width:1.0;"/><line style="stroke:#181818;stroke-width:1.0;" x1="465" x2="657.5" y1="302.6797" y2="302.6797"/><text fill="#000000" font-family="sans-serif" font-size="13" lengthAdjust="spacing" textLength="167" x="472" y="297.8232">Send Product Updated Event</text><!--SRC=[tLHBQyCm3BxxLuZit9nssc5GiWno20p2s5bDrCoGsAxjfDs_d_9mjxPGTbWpM2145ihti2LxwHk251BTjcHBWfS6_LRR5bQGM4BF6QkhhlIS256cXWhqKYl8KM5DBQcn8CjXRGn7hwOw_RUWNKUA2HXNAuzIaOM6Ucg4C6YzBAL11edIWoUhi8a07IJtcUBbSwFtSQ6tVe-MYW_dgNLnA9pMfo2pa14Z3Tw2jNWoDckBv-ytKr-UBaWPc765sEW3iypk2hAzB2c2kxTtwKa0FoToraRUGCfKF9F7nrrrCTED6lW8S8EE87gQeoLL1CxBxSZ9EQobgfUKSoGLf2hWynD2_BozOFLuYqQ2XxD94RNLdJbFteBvrmrTQyS_yNbLq7BsmnnSxi6_j7kSC_PR3ACMRid9V0Lfpu3348wl-0G0]--></g></svg>