<?xml version="1.0" encoding="us-ascii" standalone="no"?><svg xmlns="http://www.w3.org/2000/svg" xmlns:xlink="http://www.w3.org/1999/xlink" contentStyleType="text/css" height="476px" preserveAspectRatio="none" style="width:1296px;height:476px;background:#FFFFFF;" version="1.1" viewBox="0 0 1296 476" width="1296px" zoomAndPan="magnify"><defs/><g><text fill="#000000" font-family="sans-serif" font-size="14" font-weight="bold" lengthAdjust="spacing" textLength="1268" x="10" y="29.5332">E Commerce Platform - Create Product - Product Information Management - Product Service - Message Handler - Handle Purchase Order Updated Event - Sequence - Container level</text><rect fill="#FFFFFF" height="419.3828" style="stroke:#181818;stroke-width:0.5;" width="318.5" x="536" y="44.6094"/><text fill="#000000" font-family="sans-serif" font-size="13" font-weight="bold" lengthAdjust="spacing" textLength="101" x="644.75" y="58.1045">Product Service</text><rect fill="#FFFFFF" height="419.3828" style="stroke:#181818;stroke-width:0.5;" width="102" x="856.5" y="44.6094"/><text fill="#000000" font-family="sans-serif" font-size="13" font-weight="bold" lengthAdjust="spacing" textLength="96" x="859.5" y="58.1045">Buying Service</text><rect fill="none" height="204.4609" style="stroke:#000000;stroke-width:1.5;" width="451.5" x="510" y="175.9219"/><rect fill="none" height="141.7578" style="stroke:#000000;stroke-width:1.5;" width="350.5" x="520" y="231.625"/><rect fill="none" height="79.0547" style="stroke:#000000;stroke-width:1.5;" width="330.5" x="530" y="287.3281"/><line style="stroke:#181818;stroke-width:0.5;stroke-dasharray:5.0,5.0;" x1="354.5" x2="354.5" y1="128.5703" y2="397.3828"/><line style="stroke:#181818;stroke-width:0.5;stroke-dasharray:5.0,5.0;" x1="602" x2="602" y1="128.5703" y2="397.3828"/><line style="stroke:#181818;stroke-width:0.5;stroke-dasharray:5.0,5.0;" x1="718.5" x2="718.5" y1="128.5703" y2="397.3828"/><line style="stroke:#181818;stroke-width:0.5;stroke-dasharray:5.0,5.0;" x1="806.5" x2="806.5" y1="128.5703" y2="397.3828"/><line style="stroke:#181818;stroke-width:0.5;stroke-dasharray:5.0,5.0;" x1="907.5" x2="907.5" y1="128.5703" y2="397.3828"/><rect fill="#E2E2F0" height="31.6094" rx="2.5" ry="2.5" style="stroke:#181818;stroke-width:0.5;" width="65" x="322.5" y="95.9609"/><text fill="#000000" font-family="sans-serif" font-size="14" lengthAdjust="spacing" textLength="51" x="329.5" y="117.4941">External</text><rect fill="#E2E2F0" height="31.6094" rx="2.5" ry="2.5" style="stroke:#181818;stroke-width:0.5;" width="65" x="322.5" y="396.3828"/><text fill="#000000" font-family="sans-serif" font-size="14" lengthAdjust="spacing" textLength="51" x="329.5" y="417.916">External</text><rect fill="#E2E2F0" height="31.6094" rx="2.5" ry="2.5" style="stroke:#181818;stroke-width:0.5;" width="124" x="540" y="95.9609"/><text fill="#000000" font-family="sans-serif" font-size="14" lengthAdjust="spacing" textLength="110" x="547" y="117.4941">Message Handler</text><rect fill="#E2E2F0" height="31.6094" rx="2.5" ry="2.5" style="stroke:#181818;stroke-width:0.5;" width="124" x="540" y="396.3828"/><text fill="#000000" font-family="sans-serif" font-size="14" lengthAdjust="spacing" textLength="110" x="547" y="417.916">Message Handler</text><text fill="#000000" font-family="sans-serif" font-size="14" lengthAdjust="spacing" textLength="61" x="685.5" y="125.4941">Database</text><path d="M701,74.9609 C701,64.9609 719,64.9609 719,64.9609 C719,64.9609 737,64.9609 737,74.9609 L737,100.9609 C737,110.9609 719,110.9609 719,110.9609 C719,110.9609 701,110.9609 701,100.9609 L701,74.9609 " fill="#E2E2F0" style="stroke:#181818;stroke-width:1.5;"/><path d="M701,74.9609 C701,84.9609 719,84.9609 719,84.9609 C719,84.9609 737,84.9609 737,74.9609 " fill="none" style="stroke:#181818;stroke-width:1.5;"/><text fill="#000000" font-family="sans-serif" font-size="14" lengthAdjust="spacing" textLength="61" x="685.5" y="410.916">Database</text><path d="M701,423.9922 C701,413.9922 719,413.9922 719,413.9922 C719,413.9922 737,413.9922 737,423.9922 L737,449.9922 C737,459.9922 719,459.9922 719,459.9922 C719,459.9922 701,459.9922 701,449.9922 L701,423.9922 " fill="#E2E2F0" style="stroke:#181818;stroke-width:1.5;"/><path d="M701,423.9922 C701,433.9922 719,433.9922 719,433.9922 C719,433.9922 737,433.9922 737,423.9922 " fill="none" style="stroke:#181818;stroke-width:1.5;"/><path d="M767.5,100.9609 L845.5,100.9609 C850.5,100.9609 850.5,114.7656 850.5,114.7656 C850.5,114.7656 850.5,128.5703 845.5,128.5703 L767.5,128.5703 C762.5,128.5703 762.5,114.7656 762.5,114.7656 C762.5,114.7656 762.5,100.9609 767.5,100.9609 " fill="#E2E2F0" style="stroke:#181818;stroke-width:0.5;"/><path d="M845.5,100.9609 C840.5,100.9609 840.5,114.7656 840.5,114.7656 C840.5,128.5703 845.5,128.5703 845.5,128.5703 " fill="none" style="stroke:#181818;stroke-width:0.5;"/><text fill="#000000" font-family="sans-serif" font-size="14" lengthAdjust="spacing" textLength="68" x="767.5" y="120.4941">Messaging</text><path d="M767.5,396.3828 L845.5,396.3828 C850.5,396.3828 850.5,410.1875 850.5,410.1875 C850.5,410.1875 850.5,423.9922 845.5,423.9922 L767.5,423.9922 C762.5,423.9922 762.5,410.1875 762.5,410.1875 C762.5,410.1875 762.5,396.3828 767.5,396.3828 " fill="#E2E2F0" style="stroke:#181818;stroke-width:0.5;"/><path d="M845.5,396.3828 C840.5,396.3828 840.5,410.1875 840.5,410.1875 C840.5,423.9922 845.5,423.9922 845.5,423.9922 " fill="none" style="stroke:#181818;stroke-width:0.5;"/><text fill="#000000" font-family="sans-serif" font-size="14" lengthAdjust="spacing" textLength="68" x="767.5" y="415.916">Messaging</text><path d="M868.5,100.9609 L946.5,100.9609 C951.5,100.9609 951.5,114.7656 951.5,114.7656 C951.5,114.7656 951.5,128.5703 946.5,128.5703 L868.5,128.5703 C863.5,128.5703 863.5,114.7656 863.5,114.7656 C863.5,114.7656 863.5,100.9609 868.5,100.9609 " fill="#E2E2F0" style="stroke:#181818;stroke-width:0.5;"/><path d="M946.5,100.9609 C941.5,100.9609 941.5,114.7656 941.5,114.7656 C941.5,128.5703 946.5,128.5703 946.5,128.5703 " fill="none" style="stroke:#181818;stroke-width:0.5;"/><text fill="#000000" font-family="sans-serif" font-size="14" lengthAdjust="spacing" textLength="68" x="868.5" y="120.4941">Messaging</text><path d="M868.5,396.3828 L946.5,396.3828 C951.5,396.3828 951.5,410.1875 951.5,410.1875 C951.5,410.1875 951.5,423.9922 946.5,423.9922 L868.5,423.9922 C863.5,423.9922 863.5,410.1875 863.5,410.1875 C863.5,410.1875 863.5,396.3828 868.5,396.3828 " fill="#E2E2F0" style="stroke:#181818;stroke-width:0.5;"/><path d="M946.5,396.3828 C941.5,396.3828 941.5,410.1875 941.5,410.1875 C941.5,423.9922 946.5,423.9922 946.5,423.9922 " fill="none" style="stroke:#181818;stroke-width:0.5;"/><text fill="#000000" font-family="sans-serif" font-size="14" lengthAdjust="spacing" textLength="68" x="868.5" y="415.916">Messaging</text><polygon fill="#181818" points="590,156.9219,600,160.9219,590,164.9219,594,160.9219" style="stroke:#181818;stroke-width:1.0;"/><line style="stroke:#181818;stroke-width:1.0;" x1="355" x2="596" y1="160.9219" y2="160.9219"/><text fill="#000000" font-family="sans-serif" font-size="13" lengthAdjust="spacing" textLength="223" x="362" y="156.0654">Handle Purchase Order Updated Event</text><path d="M510,175.9219 L799,175.9219 L799,184.2734 L789,194.2734 L510,194.2734 L510,175.9219 " fill="#EEEEEE" style="stroke:#000000;stroke-width:1.5;"/><rect fill="none" height="204.4609" style="stroke:#000000;stroke-width:1.5;" width="451.5" x="510" y="175.9219"/><text fill="#000000" font-family="sans-serif" font-size="13" font-weight="bold" lengthAdjust="spacing" textLength="244" x="525" y="190.417">Handle Purchase Order Updated Event</text><polygon fill="#181818" points="895.5,212.625,905.5,216.625,895.5,220.625,899.5,216.625" style="stroke:#181818;stroke-width:1.0;"/><line style="stroke:#181818;stroke-width:1.0;" x1="602" x2="901.5" y1="216.625" y2="216.625"/><text fill="#000000" font-family="sans-serif" font-size="13" lengthAdjust="spacing" textLength="228" x="609" y="211.7686">Receive Purchase Order Updated Event</text><path d="M520,231.625 L593,231.625 L593,239.9766 L583,249.9766 L520,249.9766 L520,231.625 " fill="#EEEEEE" style="stroke:#000000;stroke-width:1.5;"/><rect fill="none" height="141.7578" style="stroke:#000000;stroke-width:1.5;" width="350.5" x="520" y="231.625"/><text fill="#000000" font-family="sans-serif" font-size="13" font-weight="bold" lengthAdjust="spacing" textLength="28" x="535" y="246.1201">loop</text><text fill="#000000" font-family="sans-serif" font-size="11" font-weight="bold" lengthAdjust="spacing" textLength="204" x="608" y="245.0439">[For each Product in Purchase Order]</text><polygon fill="#181818" points="707,268.3281,717,272.3281,707,276.3281,711,272.3281" style="stroke:#181818;stroke-width:1.0;"/><line style="stroke:#181818;stroke-width:1.0;" x1="602" x2="713" y1="272.3281" y2="272.3281"/><text fill="#000000" font-family="sans-serif" font-size="13" lengthAdjust="spacing" textLength="93" x="609" y="267.4717">Select Products</text><path d="M530,287.3281 L591,287.3281 L591,295.6797 L581,305.6797 L530,305.6797 L530,287.3281 " fill="#EEEEEE" style="stroke:#000000;stroke-width:1.5;"/><rect fill="none" height="79.0547" style="stroke:#000000;stroke-width:1.5;" width="330.5" x="530" y="287.3281"/><text fill="#000000" font-family="sans-serif" font-size="13" font-weight="bold" lengthAdjust="spacing" textLength="16" x="545" y="301.8232">alt</text><text fill="#000000" font-family="sans-serif" font-size="11" font-weight="bold" lengthAdjust="spacing" textLength="109" x="606" y="300.7471">[Product Not Found]</text><polygon fill="#181818" points="707,324.0313,717,328.0313,707,332.0313,711,328.0313" style="stroke:#181818;stroke-width:1.0;"/><line style="stroke:#181818;stroke-width:1.0;" x1="602" x2="713" y1="328.0313" y2="328.0313"/><text fill="#000000" font-family="sans-serif" font-size="13" lengthAdjust="spacing" textLength="81" x="609" y="323.1748">Insert Product</text><polygon fill="#181818" points="794.5,354.3828,804.5,358.3828,794.5,362.3828,798.5,358.3828" style="stroke:#181818;stroke-width:1.0;"/><line style="stroke:#181818;stroke-width:1.0;" x1="602" x2="800.5" y1="358.3828" y2="358.3828"/><text fill="#000000" font-family="sans-serif" font-size="13" lengthAdjust="spacing" textLength="164" x="609" y="353.5264">Send Product Created Event</text><!--SRC=[vPHDJyCm38Rl-HLMEQydJXoGO6nYXy54XJXdZTaYfKv9qdtyUxmrBMD3eaBJXg3IrCHzPxzvd2JeO106qBT5WIv7c1WPNgqhe0TzXp9mn5bLvO43pMX46uKCsXAC9SaP5aYxWWpTGdEo7epHU_uEzvAKGSUHUWIJokLpwH4UdUBuSwcubeB1eiwKuLk5j4tHjnIa9XOPNA0HefGkw5oNafN9O1NGaJG9I0_zon7nT6ZiCitiQrXAXzdQ1onysWZhkH1Jku9apt025ozp7L00Fv_AxArZMstGG6kOfJMnc3IDxnrQ7x0Ex4LnD9AsY_PfB1qhRwqnApdTm4lkukYKXfgQMolSfWeRFffcfoV3HGMI0cweY6szhTOS_RAhF_9RvxiXDSRDhYMbFSyFdDQoZaQxxrNeNPzdhy5LbzCgPivMPIVbULRH0T_H6ip8dZ17lVY6XB6sXA5rW3AVj_Ucfhr__LvYHxvBc5k61fb1r7eXJJk11nkOLaNgFm4PaKVNClZpAzyzGzdcdcoQNrThJWv_QN_Y7G00]--></g></svg>