<?xml version="1.0" encoding="us-ascii" standalone="no"?><svg xmlns="http://www.w3.org/2000/svg" xmlns:xlink="http://www.w3.org/1999/xlink" contentStyleType="text/css" height="407px" preserveAspectRatio="none" style="width:1296px;height:407px;background:#FFFFFF;" version="1.1" viewBox="0 0 1296 407" width="1296px" zoomAndPan="magnify"><defs/><g><text fill="#000000" font-family="sans-serif" font-size="14" font-weight="bold" lengthAdjust="spacing" textLength="1268" x="10" y="29.5332">E Commerce Platform - Create Product - Product Information Management - Product Service - Message Handler - Handle Purchase Order Updated Event - Sequence - Container level</text><rect fill="#FFFFFF" height="357.3828" style="stroke:#181818;stroke-width:0.5;" width="316.5" x="538.5" y="44.6094"/><text fill="#000000" font-family="sans-serif" font-size="13" font-weight="bold" lengthAdjust="spacing" textLength="101" x="646.25" y="58.1045">Product Service</text><rect fill="#FFFFFF" height="357.3828" style="stroke:#181818;stroke-width:0.5;" width="102" x="857" y="44.6094"/><text fill="#000000" font-family="sans-serif" font-size="13" font-weight="bold" lengthAdjust="spacing" textLength="96" x="860" y="58.1045">Buying Service</text><rect fill="none" height="204.4609" style="stroke:#000000;stroke-width:1.5;" width="446.5" x="512.5" y="144.9219"/><rect fill="none" height="141.7578" style="stroke:#000000;stroke-width:1.5;" width="348.5" x="522.5" y="200.625"/><rect fill="none" height="79.0547" style="stroke:#000000;stroke-width:1.5;" width="328.5" x="532.5" y="256.3281"/><line style="stroke:#181818;stroke-width:0.5;stroke-dasharray:5.0,5.0;" x1="357" x2="357" y1="97.5703" y2="366.3828"/><line style="stroke:#181818;stroke-width:0.5;stroke-dasharray:5.0,5.0;" x1="604.5" x2="604.5" y1="97.5703" y2="366.3828"/><line style="stroke:#181818;stroke-width:0.5;stroke-dasharray:5.0,5.0;" x1="721" x2="721" y1="97.5703" y2="366.3828"/><line style="stroke:#181818;stroke-width:0.5;stroke-dasharray:5.0,5.0;" x1="810" x2="810" y1="97.5703" y2="366.3828"/><line style="stroke:#181818;stroke-width:0.5;stroke-dasharray:5.0,5.0;" x1="908" x2="908" y1="97.5703" y2="366.3828"/><rect fill="#E2E2F0" height="31.6094" rx="2.5" ry="2.5" style="stroke:#181818;stroke-width:0.5;" width="65" x="325" y="64.9609"/><text fill="#000000" font-family="sans-serif" font-size="14" lengthAdjust="spacing" textLength="51" x="332" y="86.4941">External</text><rect fill="#E2E2F0" height="31.6094" rx="2.5" ry="2.5" style="stroke:#181818;stroke-width:0.5;" width="65" x="325" y="365.3828"/><text fill="#000000" font-family="sans-serif" font-size="14" lengthAdjust="spacing" textLength="51" x="332" y="386.916">External</text><rect fill="#E2E2F0" height="31.6094" rx="2.5" ry="2.5" style="stroke:#181818;stroke-width:0.5;" width="124" x="542.5" y="64.9609"/><text fill="#000000" font-family="sans-serif" font-size="14" lengthAdjust="spacing" textLength="110" x="549.5" y="86.4941">Message Handler</text><rect fill="#E2E2F0" height="31.6094" rx="2.5" ry="2.5" style="stroke:#181818;stroke-width:0.5;" width="124" x="542.5" y="365.3828"/><text fill="#000000" font-family="sans-serif" font-size="14" lengthAdjust="spacing" textLength="110" x="549.5" y="386.916">Message Handler</text><rect fill="#E2E2F0" height="31.6094" rx="2.5" ry="2.5" style="stroke:#181818;stroke-width:0.5;" width="75" x="684" y="64.9609"/><text fill="#000000" font-family="sans-serif" font-size="14" lengthAdjust="spacing" textLength="61" x="691" y="86.4941">Database</text><rect fill="#E2E2F0" height="31.6094" rx="2.5" ry="2.5" style="stroke:#181818;stroke-width:0.5;" width="75" x="684" y="365.3828"/><text fill="#000000" font-family="sans-serif" font-size="14" lengthAdjust="spacing" textLength="61" x="691" y="386.916">Database</text><rect fill="#E2E2F0" height="31.6094" rx="2.5" ry="2.5" style="stroke:#181818;stroke-width:0.5;" width="82" x="769" y="64.9609"/><text fill="#000000" font-family="sans-serif" font-size="14" lengthAdjust="spacing" textLength="68" x="776" y="86.4941">Messaging</text><rect fill="#E2E2F0" height="31.6094" rx="2.5" ry="2.5" style="stroke:#181818;stroke-width:0.5;" width="82" x="769" y="365.3828"/><text fill="#000000" font-family="sans-serif" font-size="14" lengthAdjust="spacing" textLength="68" x="776" y="386.916">Messaging</text><rect fill="#E2E2F0" height="31.6094" rx="2.5" ry="2.5" style="stroke:#181818;stroke-width:0.5;" width="82" x="867" y="64.9609"/><text fill="#000000" font-family="sans-serif" font-size="14" lengthAdjust="spacing" textLength="68" x="874" y="86.4941">Messaging</text><rect fill="#E2E2F0" height="31.6094" rx="2.5" ry="2.5" style="stroke:#181818;stroke-width:0.5;" width="82" x="867" y="365.3828"/><text fill="#000000" font-family="sans-serif" font-size="14" lengthAdjust="spacing" textLength="68" x="874" y="386.916">Messaging</text><polygon fill="#181818" points="592.5,125.9219,602.5,129.9219,592.5,133.9219,596.5,129.9219" style="stroke:#181818;stroke-width:1.0;"/><line style="stroke:#181818;stroke-width:1.0;" x1="357.5" x2="598.5" y1="129.9219" y2="129.9219"/><text fill="#000000" font-family="sans-serif" font-size="13" lengthAdjust="spacing" textLength="223" x="364.5" y="125.0654">Handle Purchase Order Updated Event</text><path d="M512.5,144.9219 L801.5,144.9219 L801.5,153.2734 L791.5,163.2734 L512.5,163.2734 L512.5,144.9219 " fill="#EEEEEE" style="stroke:#000000;stroke-width:1.5;"/><rect fill="none" height="204.4609" style="stroke:#000000;stroke-width:1.5;" width="446.5" x="512.5" y="144.9219"/><text fill="#000000" font-family="sans-serif" font-size="13" font-weight="bold" lengthAdjust="spacing" textLength="244" x="527.5" y="159.417">Handle Purchase Order Updated Event</text><polygon fill="#181818" points="896,181.625,906,185.625,896,189.625,900,185.625" style="stroke:#181818;stroke-width:1.0;"/><line style="stroke:#181818;stroke-width:1.0;" x1="604.5" x2="902" y1="185.625" y2="185.625"/><text fill="#000000" font-family="sans-serif" font-size="13" lengthAdjust="spacing" textLength="228" x="611.5" y="180.7686">Receive Purchase Order Updated Event</text><path d="M522.5,200.625 L595.5,200.625 L595.5,208.9766 L585.5,218.9766 L522.5,218.9766 L522.5,200.625 " fill="#EEEEEE" style="stroke:#000000;stroke-width:1.5;"/><rect fill="none" height="141.7578" style="stroke:#000000;stroke-width:1.5;" width="348.5" x="522.5" y="200.625"/><text fill="#000000" font-family="sans-serif" font-size="13" font-weight="bold" lengthAdjust="spacing" textLength="28" x="537.5" y="215.1201">loop</text><text fill="#000000" font-family="sans-serif" font-size="11" font-weight="bold" lengthAdjust="spacing" textLength="204" x="610.5" y="214.0439">[For each Product in Purchase Order]</text><polygon fill="#181818" points="709.5,237.3281,719.5,241.3281,709.5,245.3281,713.5,241.3281" style="stroke:#181818;stroke-width:1.0;"/><line style="stroke:#181818;stroke-width:1.0;" x1="604.5" x2="715.5" y1="241.3281" y2="241.3281"/><text fill="#000000" font-family="sans-serif" font-size="13" lengthAdjust="spacing" textLength="93" x="611.5" y="236.4717">Select Products</text><path d="M532.5,256.3281 L593.5,256.3281 L593.5,264.6797 L583.5,274.6797 L532.5,274.6797 L532.5,256.3281 " fill="#EEEEEE" style="stroke:#000000;stroke-width:1.5;"/><rect fill="none" height="79.0547" style="stroke:#000000;stroke-width:1.5;" width="328.5" x="532.5" y="256.3281"/><text fill="#000000" font-family="sans-serif" font-size="13" font-weight="bold" lengthAdjust="spacing" textLength="16" x="547.5" y="270.8232">alt</text><text fill="#000000" font-family="sans-serif" font-size="11" font-weight="bold" lengthAdjust="spacing" textLength="109" x="608.5" y="269.7471">[Product Not Found]</text><polygon fill="#181818" points="709.5,293.0313,719.5,297.0313,709.5,301.0313,713.5,297.0313" style="stroke:#181818;stroke-width:1.0;"/><line style="stroke:#181818;stroke-width:1.0;" x1="604.5" x2="715.5" y1="297.0313" y2="297.0313"/><text fill="#000000" font-family="sans-serif" font-size="13" lengthAdjust="spacing" textLength="81" x="611.5" y="292.1748">Insert Product</text><polygon fill="#181818" points="798,323.3828,808,327.3828,798,331.3828,802,327.3828" style="stroke:#181818;stroke-width:1.0;"/><line style="stroke:#181818;stroke-width:1.0;" x1="604.5" x2="804" y1="327.3828" y2="327.3828"/><text fill="#000000" font-family="sans-serif" font-size="13" lengthAdjust="spacing" textLength="164" x="611.5" y="322.5264">Send Product Created Event</text><!--SRC=[vPHDJyCm38Rl-HNMEAydJXoGO0onms2YGfnDussHKgSawJx-FTxwmTY4w67Q45Ig6ZjlRUTnacYY9HZ2mEKv-OnWOZ5EdS-X3mDF6CNZdIwpA8vcDEAD0gDn36Dad55El2j8oI-C1El3c4AGUNX0rfQyUAeHJ4gVpJ4GF7aj_fT2IouDmqKLAQNtadWROk0uec4HMLgGLQf07qrc2XHbRxYAv1bj3p30u7B4OjvRjqnIDurBz9IkGwGy98smifLwSolexHNSWulNkOcaG9ulQVRMiSqsRA0rp9AAM1qqgRyxj3vX7PHNY-j2adRH8QbJrvaFIxl3Y6z2yfGrDJc_0sLuTdf4abGHQv3Eghg_j-LQl5tRsxNgAkeDwp5jDZ5h4yG-gBUITIot-zQ5_lLvjXvSTJcyQkPTMNHIdcSL7V0ThS62x9aoCeiVI5Zd2hXt7WYpUNkD6jxxw_SIE_Az8jnIiYGCQcrGQ5i37bqKMYNh_mHan85yo-3Fhtpt3AMRUx9fVfMjEJaoqxxg0m00]--></g></svg>