<?xml version="1.0" encoding="us-ascii" standalone="no"?><svg xmlns="http://www.w3.org/2000/svg" xmlns:xlink="http://www.w3.org/1999/xlink" contentStyleType="text/css" height="940px" preserveAspectRatio="none" style="width:706px;height:940px;background:#FFFFFF;" version="1.1" viewBox="0 0 706 940" width="706px" zoomAndPan="magnify"><defs/><g><text fill="#000000" font-family="sans-serif" font-size="14" font-weight="bold" lengthAdjust="spacing" textLength="678" x="10" y="29.5332">DotNetEShop - Basket Api - Grpc - Basket Service - Update Basket - Sequence - Component level</text><rect fill="#FFFFFF" height="889.9531" style="stroke:#181818;stroke-width:0.5;" width="116" x="98" y="44.6094"/><text fill="#000000" font-family="sans-serif" font-size="13" font-weight="bold" lengthAdjust="spacing" textLength="30" x="141" y="58.1045">Grpc</text><rect fill="#FFFFFF" height="889.9531" style="stroke:#181818;stroke-width:0.5;" width="363" x="291.5" y="44.6094"/><text fill="#000000" font-family="sans-serif" font-size="13" font-weight="bold" lengthAdjust="spacing" textLength="29" x="458.5" y="58.1045">Data</text><rect fill="none" height="737.0313" style="stroke:#000000;stroke-width:1.5;" width="598.5" x="82" y="144.9219"/><rect fill="none" height="61.7031" style="stroke:#000000;stroke-width:1.5;" width="246" x="92" y="170.2734"/><rect fill="none" height="61.7031" style="stroke:#000000;stroke-width:1.5;" width="207" x="92" y="289.3281"/><rect fill="none" height="284.8125" style="stroke:#000000;stroke-width:1.5;" width="395" x="275.5" y="395.3828"/><rect fill="none" height="135.4063" style="stroke:#000000;stroke-width:1.5;" width="375" x="285.5" y="537.7891"/><rect fill="none" height="61.7031" style="stroke:#000000;stroke-width:1.5;" width="254" x="92" y="694.1953"/><rect fill="none" height="61.7031" style="stroke:#000000;stroke-width:1.5;" width="272" x="92" y="813.25"/><line style="stroke:#181818;stroke-width:0.5;stroke-dasharray:5.0,5.0;" x1="45.5" x2="45.5" y1="97.5703" y2="898.9531"/><line style="stroke:#181818;stroke-width:0.5;stroke-dasharray:5.0,5.0;" x1="156" x2="156" y1="97.5703" y2="898.9531"/><line style="stroke:#181818;stroke-width:0.5;stroke-dasharray:5.0,5.0;" x1="379.5" x2="379.5" y1="97.5703" y2="898.9531"/><line style="stroke:#181818;stroke-width:0.5;stroke-dasharray:5.0,5.0;" x1="592.5" x2="592.5" y1="97.5703" y2="898.9531"/><rect fill="#E2E2F0" height="31.6094" rx="2.5" ry="2.5" style="stroke:#181818;stroke-width:0.5;" width="65" x="13.5" y="64.9609"/><text fill="#000000" font-family="sans-serif" font-size="14" lengthAdjust="spacing" textLength="51" x="20.5" y="86.4941">External</text><rect fill="#E2E2F0" height="31.6094" rx="2.5" ry="2.5" style="stroke:#181818;stroke-width:0.5;" width="65" x="13.5" y="897.9531"/><text fill="#000000" font-family="sans-serif" font-size="14" lengthAdjust="spacing" textLength="51" x="20.5" y="919.4863">External</text><rect fill="#E2E2F0" height="31.6094" rx="2.5" ry="2.5" style="stroke:#181818;stroke-width:0.5;" width="108" x="102" y="64.9609"/><text fill="#000000" font-family="sans-serif" font-size="14" lengthAdjust="spacing" textLength="94" x="109" y="86.4941">Basket Service</text><rect fill="#E2E2F0" height="31.6094" rx="2.5" ry="2.5" style="stroke:#181818;stroke-width:0.5;" width="108" x="102" y="897.9531"/><text fill="#000000" font-family="sans-serif" font-size="14" lengthAdjust="spacing" textLength="94" x="109" y="919.4863">Basket Service</text><rect fill="#E2E2F0" height="31.6094" rx="2.5" ry="2.5" style="stroke:#181818;stroke-width:0.5;" width="169" x="295.5" y="64.9609"/><text fill="#000000" font-family="sans-serif" font-size="14" lengthAdjust="spacing" textLength="155" x="302.5" y="86.4941">Redis Basket Repository</text><rect fill="#E2E2F0" height="31.6094" rx="2.5" ry="2.5" style="stroke:#181818;stroke-width:0.5;" width="169" x="295.5" y="897.9531"/><text fill="#000000" font-family="sans-serif" font-size="14" lengthAdjust="spacing" textLength="155" x="302.5" y="919.4863">Redis Basket Repository</text><rect fill="#E2E2F0" height="31.6094" rx="2.5" ry="2.5" style="stroke:#181818;stroke-width:0.5;" width="115" x="535.5" y="64.9609"/><text fill="#000000" font-family="sans-serif" font-size="14" lengthAdjust="spacing" textLength="101" x="542.5" y="86.4941">Redis Database</text><rect fill="#E2E2F0" height="31.6094" rx="2.5" ry="2.5" style="stroke:#181818;stroke-width:0.5;" width="115" x="535.5" y="897.9531"/><text fill="#000000" font-family="sans-serif" font-size="14" lengthAdjust="spacing" textLength="101" x="542.5" y="919.4863">Redis Database</text><polygon fill="#181818" points="144,125.9219,154,129.9219,144,133.9219,148,129.9219" style="stroke:#181818;stroke-width:1.0;"/><line style="stroke:#181818;stroke-width:1.0;" x1="46" x2="150" y1="129.9219" y2="129.9219"/><text fill="#000000" font-family="sans-serif" font-size="13" lengthAdjust="spacing" textLength="86" x="53" y="125.0654">Update Basket</text><path d="M82,144.9219 L218,144.9219 L218,153.2734 L208,163.2734 L82,163.2734 L82,144.9219 " fill="#EEEEEE" style="stroke:#000000;stroke-width:1.5;"/><rect fill="none" height="737.0313" style="stroke:#000000;stroke-width:1.5;" width="598.5" x="82" y="144.9219"/><text fill="#000000" font-family="sans-serif" font-size="13" font-weight="bold" lengthAdjust="spacing" textLength="91" x="97" y="159.417">Update Basket</text><path d="M92,170.2734 L153,170.2734 L153,178.625 L143,188.625 L92,188.625 L92,170.2734 " fill="#EEEEEE" style="stroke:#000000;stroke-width:1.5;"/><rect fill="none" height="61.7031" style="stroke:#000000;stroke-width:1.5;" width="246" x="92" y="170.2734"/><text fill="#000000" font-family="sans-serif" font-size="13" font-weight="bold" lengthAdjust="spacing" textLength="16" x="107" y="184.7686">alt</text><text fill="#000000" font-family="sans-serif" font-size="11" font-weight="bold" lengthAdjust="spacing" textLength="165" x="168" y="183.6924">[string.IsNullOrEmpty(userId)]</text><line style="stroke:#181818;stroke-width:1.0;" x1="156" x2="198" y1="210.9766" y2="210.9766"/><line style="stroke:#181818;stroke-width:1.0;" x1="198" x2="198" y1="210.9766" y2="223.9766"/><line style="stroke:#181818;stroke-width:1.0;" x1="157" x2="198" y1="223.9766" y2="223.9766"/><polygon fill="#181818" points="167,219.9766,157,223.9766,167,227.9766,163,223.9766" style="stroke:#181818;stroke-width:1.0;"/><text fill="#000000" font-family="sans-serif" font-size="13" lengthAdjust="spacing" textLength="142" x="163" y="206.1201">Throw Not Authenticated</text><line style="stroke:#181818;stroke-width:1.0;" x1="156" x2="198" y1="261.3281" y2="261.3281"/><line style="stroke:#181818;stroke-width:1.0;" x1="198" x2="198" y1="261.3281" y2="274.3281"/><line style="stroke:#181818;stroke-width:1.0;" x1="157" x2="198" y1="274.3281" y2="274.3281"/><polygon fill="#181818" points="167,270.3281,157,274.3281,167,278.3281,163,274.3281" style="stroke:#181818;stroke-width:1.0;"/><text fill="#000000" font-family="sans-serif" font-size="13" lengthAdjust="spacing" textLength="148" x="163" y="256.4717">Map To Customer Basket</text><path d="M92,289.3281 L294,289.3281 L294,297.6797 L284,307.6797 L92,307.6797 L92,289.3281 " fill="#EEEEEE" style="stroke:#000000;stroke-width:1.5;"/><rect fill="none" height="61.7031" style="stroke:#000000;stroke-width:1.5;" width="207" x="92" y="289.3281"/><text fill="#000000" font-family="sans-serif" font-size="13" font-weight="bold" lengthAdjust="spacing" textLength="157" x="107" y="303.8232">Map To Customer Basket</text><line style="stroke:#181818;stroke-width:1.0;" x1="156" x2="198" y1="330.0313" y2="330.0313"/><line style="stroke:#181818;stroke-width:1.0;" x1="198" x2="198" y1="330.0313" y2="343.0313"/><line style="stroke:#181818;stroke-width:1.0;" x1="157" x2="198" y1="343.0313" y2="343.0313"/><polygon fill="#181818" points="167,339.0313,157,343.0313,167,347.0313,163,343.0313" style="stroke:#181818;stroke-width:1.0;"/><text fill="#000000" font-family="sans-serif" font-size="13" lengthAdjust="spacing" textLength="103" x="163" y="325.1748">Return (response)</text><polygon fill="#181818" points="368,376.3828,378,380.3828,368,384.3828,372,380.3828" style="stroke:#181818;stroke-width:1.0;"/><line style="stroke:#181818;stroke-width:1.0;" x1="156" x2="374" y1="380.3828" y2="380.3828"/><text fill="#000000" font-family="sans-serif" font-size="13" lengthAdjust="spacing" textLength="127" x="163" y="375.5264">Update Basket Async</text><path d="M275.5,395.3828 L452.5,395.3828 L452.5,403.7344 L442.5,413.7344 L275.5,413.7344 L275.5,395.3828 " fill="#EEEEEE" style="stroke:#000000;stroke-width:1.5;"/><rect fill="none" height="284.8125" style="stroke:#000000;stroke-width:1.5;" width="395" x="275.5" y="395.3828"/><text fill="#000000" font-family="sans-serif" font-size="13" font-weight="bold" lengthAdjust="spacing" textLength="132" x="290.5" y="409.8779">Update Basket Async</text><line style="stroke:#181818;stroke-width:1.0;" x1="380" x2="422" y1="436.0859" y2="436.0859"/><line style="stroke:#181818;stroke-width:1.0;" x1="422" x2="422" y1="436.0859" y2="449.0859"/><line style="stroke:#181818;stroke-width:1.0;" x1="381" x2="422" y1="449.0859" y2="449.0859"/><polygon fill="#181818" points="391,445.0859,381,449.0859,391,453.0859,387,449.0859" style="stroke:#181818;stroke-width:1.0;"/><text fill="#000000" font-family="sans-serif" font-size="13" lengthAdjust="spacing" textLength="93" x="387" y="431.2295">Get Basket Key</text><polygon fill="#181818" points="581,475.4375,591,479.4375,581,483.4375,585,479.4375" style="stroke:#181818;stroke-width:1.0;"/><line style="stroke:#181818;stroke-width:1.0;" x1="380" x2="587" y1="479.4375" y2="479.4375"/><text fill="#000000" font-family="sans-serif" font-size="13" lengthAdjust="spacing" textLength="99" x="387" y="474.5811">String Set Async</text><line style="stroke:#181818;stroke-width:1.0;" x1="380" x2="422" y1="509.7891" y2="509.7891"/><line style="stroke:#181818;stroke-width:1.0;" x1="422" x2="422" y1="509.7891" y2="522.7891"/><line style="stroke:#181818;stroke-width:1.0;" x1="381" x2="422" y1="522.7891" y2="522.7891"/><polygon fill="#181818" points="391,518.7891,381,522.7891,391,526.7891,387,522.7891" style="stroke:#181818;stroke-width:1.0;"/><text fill="#000000" font-family="sans-serif" font-size="13" lengthAdjust="spacing" textLength="107" x="387" y="504.9326">Get Basket Async</text><path d="M285.5,537.7891 L439.5,537.7891 L439.5,546.1406 L429.5,556.1406 L285.5,556.1406 L285.5,537.7891 " fill="#EEEEEE" style="stroke:#000000;stroke-width:1.5;"/><rect fill="none" height="135.4063" style="stroke:#000000;stroke-width:1.5;" width="375" x="285.5" y="537.7891"/><text fill="#000000" font-family="sans-serif" font-size="13" font-weight="bold" lengthAdjust="spacing" textLength="109" x="300.5" y="552.2842">Get Basket Async</text><line style="stroke:#181818;stroke-width:1.0;" x1="380" x2="422" y1="578.4922" y2="578.4922"/><line style="stroke:#181818;stroke-width:1.0;" x1="422" x2="422" y1="578.4922" y2="591.4922"/><line style="stroke:#181818;stroke-width:1.0;" x1="381" x2="422" y1="591.4922" y2="591.4922"/><polygon fill="#181818" points="391,587.4922,381,591.4922,391,595.4922,387,591.4922" style="stroke:#181818;stroke-width:1.0;"/><text fill="#000000" font-family="sans-serif" font-size="13" lengthAdjust="spacing" textLength="93" x="387" y="573.6357">Get Basket Key</text><polygon fill="#181818" points="581,617.8438,591,621.8438,581,625.8438,585,621.8438" style="stroke:#181818;stroke-width:1.0;"/><line style="stroke:#181818;stroke-width:1.0;" x1="380" x2="587" y1="621.8438" y2="621.8438"/><text fill="#000000" font-family="sans-serif" font-size="13" lengthAdjust="spacing" textLength="139" x="387" y="616.9873">String Get Lease Async</text><line style="stroke:#181818;stroke-width:1.0;" x1="380" x2="422" y1="652.1953" y2="652.1953"/><line style="stroke:#181818;stroke-width:1.0;" x1="422" x2="422" y1="652.1953" y2="665.1953"/><line style="stroke:#181818;stroke-width:1.0;" x1="381" x2="422" y1="665.1953" y2="665.1953"/><polygon fill="#181818" points="391,661.1953,381,665.1953,391,669.1953,387,665.1953" style="stroke:#181818;stroke-width:1.0;"/><text fill="#000000" font-family="sans-serif" font-size="13" lengthAdjust="spacing" textLength="199" x="387" y="647.3389">Return (JsonSerializer.Deserialize)</text><path d="M92,694.1953 L153,694.1953 L153,702.5469 L143,712.5469 L92,712.5469 L92,694.1953 " fill="#EEEEEE" style="stroke:#000000;stroke-width:1.5;"/><rect fill="none" height="61.7031" style="stroke:#000000;stroke-width:1.5;" width="254" x="92" y="694.1953"/><text fill="#000000" font-family="sans-serif" font-size="13" font-weight="bold" lengthAdjust="spacing" textLength="16" x="107" y="708.6904">alt</text><text fill="#000000" font-family="sans-serif" font-size="11" font-weight="bold" lengthAdjust="spacing" textLength="98" x="168" y="707.6143">[response is null]</text><line style="stroke:#181818;stroke-width:1.0;" x1="156" x2="198" y1="734.8984" y2="734.8984"/><line style="stroke:#181818;stroke-width:1.0;" x1="198" x2="198" y1="734.8984" y2="747.8984"/><line style="stroke:#181818;stroke-width:1.0;" x1="157" x2="198" y1="747.8984" y2="747.8984"/><polygon fill="#181818" points="167,743.8984,157,747.8984,167,751.8984,163,747.8984" style="stroke:#181818;stroke-width:1.0;"/><text fill="#000000" font-family="sans-serif" font-size="13" lengthAdjust="spacing" textLength="171" x="163" y="730.042">Throw Basket Does Not Exist</text><line style="stroke:#181818;stroke-width:1.0;" x1="156" x2="198" y1="785.25" y2="785.25"/><line style="stroke:#181818;stroke-width:1.0;" x1="198" x2="198" y1="785.25" y2="798.25"/><line style="stroke:#181818;stroke-width:1.0;" x1="157" x2="198" y1="798.25" y2="798.25"/><polygon fill="#181818" points="167,794.25,157,798.25,167,802.25,163,798.25" style="stroke:#181818;stroke-width:1.0;"/><text fill="#000000" font-family="sans-serif" font-size="13" lengthAdjust="spacing" textLength="210" x="163" y="780.3936">Map To Customer Basket Response</text><path d="M92,813.25 L359,813.25 L359,821.6016 L349,831.6016 L92,831.6016 L92,813.25 " fill="#EEEEEE" style="stroke:#000000;stroke-width:1.5;"/><rect fill="none" height="61.7031" style="stroke:#000000;stroke-width:1.5;" width="272" x="92" y="813.25"/><text fill="#000000" font-family="sans-serif" font-size="13" font-weight="bold" lengthAdjust="spacing" textLength="222" x="107" y="827.7451">Map To Customer Basket Response</text><line style="stroke:#181818;stroke-width:1.0;" x1="156" x2="198" y1="853.9531" y2="853.9531"/><line style="stroke:#181818;stroke-width:1.0;" x1="198" x2="198" y1="853.9531" y2="866.9531"/><line style="stroke:#181818;stroke-width:1.0;" x1="157" x2="198" y1="866.9531" y2="866.9531"/><polygon fill="#181818" points="167,862.9531,157,866.9531,167,870.9531,163,866.9531" style="stroke:#181818;stroke-width:1.0;"/><text fill="#000000" font-family="sans-serif" font-size="13" lengthAdjust="spacing" textLength="103" x="163" y="849.0967">Return (response)</text><!--SRC=[xLPBRzim3BxhLn3PfJt4fvrs6D0bMP4zCY3kiBDgiuqmHz94kedtwqVPSHstor0CIL4FCs30V5ZyFf6Yo8OBXAdZ1V8iNJaFOtYdwJioN7WZmcNmMQTBCToP34NnrUUQiTMFnVAZH5kR9cxjdKNBKE0T5afv7TXancjHZMPRnc1rCG9DC7azjoA-BzmcITqDRtJ0j2B6DIMjOoChTUssCEgmZU3LjvLXL21FOunOU-fUu3w5ElmUxqVX6tS9b4oSPMqi1afYXEIUN-kqMrAXpK60g3r8KytwCAGbveRQFLoYTsJOXUhliCLG-zZgnHlFRkb36EBFrvhmYA7R9RjjkVzGJyyxZDyUEKtmfb-ywZQuqZ_GwOA1E1XxcynfKHR5bp1RUwxEIi8mpy_LaJ6TWkNLAhWDB9mSbv9Nuc8oOPZ7D0m1_cVjuSh1f2HsQmpzR1qm3e3M4haC5iu2ahWGdh-KV3ofVpmyF711bSr-TuHsbXF1E2N1Im6_u_0HgnVFeEspWZojEvPSSV_6xk_NrYFr_y9w_iAA13vXL0qs1stx_K3EIhSqkZ0_CIHJf5Pe6d9yun3GjccG8SdA732SYtzNQLE7L0y1iwqX7lRbBzbhil77AQ3p6kmu45_r2m00]--></g></svg>