<?xml version="1.0" encoding="us-ascii" standalone="no"?><svg xmlns="http://www.w3.org/2000/svg" xmlns:xlink="http://www.w3.org/1999/xlink" contentStyleType="text/css" height="366px" preserveAspectRatio="none" style="width:694px;height:366px;background:#FFFFFF;" version="1.1" viewBox="0 0 694 366" width="694px" zoomAndPan="magnify"><defs/><g><text fill="#000000" font-family="sans-serif" font-size="14" font-weight="bold" lengthAdjust="spacing" textLength="294" x="192.5" y="24.5332">Order Service - C4 Static - Container level</text><!--cluster ECommercePlatform.SoftwareSystems.OrderService--><g id="cluster_ECommercePlatform.SoftwareSystems.OrderService"><rect fill="none" height="223" rx="2.5" ry="2.5" style="stroke:#444444;stroke-width:1.0;stroke-dasharray:7.0,7.0;" width="232" x="14" y="42.6094"/><text fill="#444444" font-family="sans-serif" font-size="16" font-weight="bold" lengthAdjust="spacing" textLength="104" x="78" y="61.2188">Order Service</text><text fill="#444444" font-family="sans-serif" font-size="12" font-weight="bold" lengthAdjust="spacing" textLength="51" x="104.5" y="77.1914">[System]</text></g><!--cluster ECommercePlatform.SoftwareSystems.FraudService--><g id="cluster_ECommercePlatform.SoftwareSystems.FraudService"><rect fill="none" height="94" rx="2.5" ry="2.5" style="stroke:#444444;stroke-width:1.0;stroke-dasharray:7.0,7.0;" width="122" x="254" y="171.6094"/><text fill="#444444" font-family="sans-serif" font-size="16" font-weight="bold" lengthAdjust="spacing" textLength="106" x="262" y="190.2188">Fraud Service</text><text fill="#444444" font-family="sans-serif" font-size="12" font-weight="bold" lengthAdjust="spacing" textLength="51" x="289.5" y="206.1914">[System]</text></g><!--cluster ECommercePlatform.SoftwareSystems.PaymentService--><g id="cluster_ECommercePlatform.SoftwareSystems.PaymentService"><rect fill="none" height="94" rx="2.5" ry="2.5" style="stroke:#444444;stroke-width:1.0;stroke-dasharray:7.0,7.0;" width="144" x="384" y="171.6094"/><text fill="#444444" font-family="sans-serif" font-size="16" font-weight="bold" lengthAdjust="spacing" textLength="128" x="392" y="190.2188">Payment Service</text><text fill="#444444" font-family="sans-serif" font-size="12" font-weight="bold" lengthAdjust="spacing" textLength="51" x="430.5" y="206.1914">[System]</text></g><!--cluster ECommercePlatform.SoftwareSystems.FulfilmentService--><g id="cluster_ECommercePlatform.SoftwareSystems.FulfilmentService"><rect fill="none" height="94" rx="2.5" ry="2.5" style="stroke:#444444;stroke-width:1.0;stroke-dasharray:7.0,7.0;" width="152" x="536" y="171.6094"/><text fill="#444444" font-family="sans-serif" font-size="16" font-weight="bold" lengthAdjust="spacing" textLength="136" x="544" y="190.2188">Fulfilment Service</text><text fill="#444444" font-family="sans-serif" font-size="12" font-weight="bold" lengthAdjust="spacing" textLength="51" x="586.5" y="206.1914">[System]</text></g><!--entity ECommercePlatform.SoftwareSystems.OrderService.Containers.Api--><g id="elem_ECommercePlatform.SoftwareSystems.OrderService.Containers.Api"><rect fill="#438DD5" height="40.125" rx="2.5" ry="2.5" style="stroke:#3C7FC0;stroke-width:0.5;" width="45" x="22.5" y="88.6094"/><text fill="#FFFFFF" font-family="sans-serif" font-size="16" font-weight="bold" lengthAdjust="spacing" textLength="25" x="32.5" y="115.2188">Api</text></g><!--entity ECommercePlatform.SoftwareSystems.OrderService.Containers.Database--><g id="elem_ECommercePlatform.SoftwareSystems.OrderService.Containers.Database"><rect fill="#438DD5" height="40.125" rx="2.5" ry="2.5" style="stroke:#3C7FC0;stroke-width:0.5;" width="92" x="23" y="217.6094"/><text fill="#FFFFFF" font-family="sans-serif" font-size="16" font-weight="bold" lengthAdjust="spacing" textLength="72" x="33" y="244.2188">Database</text></g><!--entity ECommercePlatform.SoftwareSystems.OrderService.Containers.Messaging--><g id="elem_ECommercePlatform.SoftwareSystems.OrderService.Containers.Messaging"><rect fill="#438DD5" height="40.125" rx="2.5" ry="2.5" style="stroke:#3C7FC0;stroke-width:0.5;" width="103" x="133.5" y="217.6094"/><text fill="#FFFFFF" font-family="sans-serif" font-size="16" font-weight="bold" lengthAdjust="spacing" textLength="83" x="143.5" y="244.2188">Messaging</text></g><!--entity ECommercePlatform.SoftwareSystems.OrderService.Containers.MessageHandler--><g id="elem_ECommercePlatform.SoftwareSystems.OrderService.Containers.MessageHandler"><rect fill="#438DD5" height="40.125" rx="2.5" ry="2.5" style="stroke:#3C7FC0;stroke-width:0.5;" width="152" x="86" y="88.6094"/><text fill="#FFFFFF" font-family="sans-serif" font-size="16" font-weight="bold" lengthAdjust="spacing" textLength="68" x="96" y="115.2188">Message</text><text fill="#FFFFFF" font-family="sans-serif" font-size="16" font-weight="bold" lengthAdjust="spacing" textLength="4" x="164" y="115.2188">&#160;</text><text fill="#FFFFFF" font-family="sans-serif" font-size="16" font-weight="bold" lengthAdjust="spacing" textLength="60" x="168" y="115.2188">Handler</text></g><!--entity ECommercePlatform.SoftwareSystems.FraudService.Containers.Messaging--><g id="elem_ECommercePlatform.SoftwareSystems.FraudService.Containers.Messaging"><rect fill="#438DD5" height="40.125" rx="2.5" ry="2.5" style="stroke:#3C7FC0;stroke-width:0.5;" width="103" x="262.5" y="217.6094"/><text fill="#FFFFFF" font-family="sans-serif" font-size="16" font-weight="bold" lengthAdjust="spacing" textLength="83" x="272.5" y="244.2188">Messaging</text></g><!--entity ECommercePlatform.SoftwareSystems.PaymentService.Containers.Messaging--><g id="elem_ECommercePlatform.SoftwareSystems.PaymentService.Containers.Messaging"><rect fill="#438DD5" height="40.125" rx="2.5" ry="2.5" style="stroke:#3C7FC0;stroke-width:0.5;" width="103" x="392.5" y="217.6094"/><text fill="#FFFFFF" font-family="sans-serif" font-size="16" font-weight="bold" lengthAdjust="spacing" textLength="83" x="402.5" y="244.2188">Messaging</text></g><!--entity ECommercePlatform.SoftwareSystems.FulfilmentService.Containers.Messaging--><g id="elem_ECommercePlatform.SoftwareSystems.FulfilmentService.Containers.Messaging"><rect fill="#438DD5" height="40.125" rx="2.5" ry="2.5" style="stroke:#3C7FC0;stroke-width:0.5;" width="103" x="544.5" y="217.6094"/><text fill="#FFFFFF" font-family="sans-serif" font-size="16" font-weight="bold" lengthAdjust="spacing" textLength="83" x="554.5" y="244.2188">Messaging</text></g><polygon fill="none" points="60.1891,217.5771,59.7999,209.042,54.2838,211.4024,60.1891,217.5771" style="stroke:#666666;stroke-width:1.0;"/><path d="M43.7649,128.8051 C43.4499,134.5305 43.1563,140.8218 43,146.6094 C42.796,154.1622 41.7137,156.1641 43,163.6094 C46.2752,182.567 50.8568,195.7685 57.0418,210.2222 " fill="none" style="stroke:#666666;stroke-width:1.0;"/><text fill="#666666" font-family="sans-serif" font-size="12" font-weight="bold" lengthAdjust="spacing" textLength="29" x="44" y="160.0664">Uses</text><polygon fill="none" points="171.8859,217.599,169.4528,209.4088,164.6674,213.0282,171.8859,217.599" style="stroke:#666666;stroke-width:1.0;"/><path d="M60.0979,128.8699 C71.0688,142.4041 85.2929,158.9016 93,163.6094 C105.1429,171.0268 111.758,164.3567 124,171.6094 C143.5724,183.2049 155.9546,196.5354 167.0601,211.2185 " fill="none" style="stroke:#666666;stroke-width:1.0;"/><text fill="#666666" font-family="sans-serif" font-size="12" font-weight="bold" lengthAdjust="spacing" textLength="29" x="94" y="160.0664">Uses</text><polygon fill="none" points="297.1085,217.5005,293.9177,209.5747,289.493,213.6271,297.1085,217.5005" style="stroke:#666666;stroke-width:1.0;"/><path d="M194.4305,128.7197 C203.2303,134.2334 212.6338,140.4349 221,146.6094 C250.1058,168.0901 273.9824,192.2495 291.7054,211.6009 " fill="none" style="stroke:#666666;stroke-width:1.0;"/><text fill="#666666" font-family="sans-serif" font-size="12" font-weight="bold" lengthAdjust="spacing" textLength="29" x="242" y="160.0664">Uses</text><polygon fill="none" points="85.4149,217.5751,92.8689,213.3991,88.2851,209.5276,85.4149,217.5751" style="stroke:#666666;stroke-width:1.0;"/><path d="M150.7307,128.7097 C144.3506,139.2067 136.0556,152.3453 128,163.6094 C114.4448,182.5635 102.7858,197.0086 90.577,211.4634 " fill="none" style="stroke:#666666;stroke-width:1.0;"/><text fill="#666666" font-family="sans-serif" font-size="12" font-weight="bold" lengthAdjust="spacing" textLength="29" x="140" y="160.0664">Uses</text><polygon fill="none" points="186.8792,217.2701,190.3957,209.4832,184.4085,209.0911,186.8792,217.2701" style="stroke:#666666;stroke-width:1.0;"/><path d="M174.5739,128.8692 C177.5631,134.3834 180.3587,140.5479 182,146.6094 C188.4152,170.3011 188.613,190.8008 187.4021,209.2872 " fill="none" style="stroke:#666666;stroke-width:1.0;"/><text fill="#666666" font-family="sans-serif" font-size="12" font-weight="bold" lengthAdjust="spacing" textLength="29" x="187" y="160.0664">Uses</text><polygon fill="none" points="429.7221,217.4505,427.0132,209.3473,422.353,213.1265,429.7221,217.4505" style="stroke:#666666;stroke-width:1.0;"/><path d="M238.2506,121.2936 C281.9622,130.3653 336.5905,145.8756 380,171.6094 C399.8894,183.4001 412.8698,196.6701 424.6831,211.2369 " fill="none" style="stroke:#666666;stroke-width:1.0;"/><text fill="#666666" font-family="sans-serif" font-size="12" font-weight="bold" lengthAdjust="spacing" textLength="29" x="364" y="160.0664">Uses</text><polygon fill="none" points="582.488,217.541,579.9336,209.3878,575.2025,213.0778,582.488,217.541" style="stroke:#666666;stroke-width:1.0;"/><path d="M238.1781,116.6341 C331.2116,126.1959 482.3304,145.1928 532,171.6094 C552.6937,182.6152 565.9309,196.3122 577.568,211.2328 " fill="none" style="stroke:#666666;stroke-width:1.0;"/><text fill="#666666" font-family="sans-serif" font-size="12" font-weight="bold" lengthAdjust="spacing" textLength="29" x="511" y="160.0664">Uses</text><rect fill="none" height="17.6094" style="stroke:none;stroke-width:1.0;" width="182" x="480" y="286.6094"/><text fill="#000000" font-family="sans-serif" font-size="14" font-weight="bold" lengthAdjust="spacing" textLength="53" x="480" y="301.1426">Legend</text><text fill="#FFFFFF" font-family="sans-serif" font-size="14" lengthAdjust="spacing" textLength="4" x="533" y="301.1426">&#160;</text><rect fill="#438DD5" height="17.6094" style="stroke:none;stroke-width:1.0;" width="182" x="480" y="304.2188"/><text fill="#3C7FC0" font-family="sans-serif" font-size="14" lengthAdjust="spacing" textLength="14" x="484" y="318.752">&#9647;</text><text fill="#FFFFFF" font-family="sans-serif" font-size="14" lengthAdjust="spacing" textLength="4" x="498" y="318.752">&#160;</text><text fill="#FFFFFF" font-family="sans-serif" font-size="14" lengthAdjust="spacing" textLength="59" x="506" y="318.752">container</text><text fill="#FFFFFF" font-family="sans-serif" font-size="14" lengthAdjust="spacing" textLength="4" x="569" y="318.752">&#160;</text><rect fill="none" height="17.6094" style="stroke:none;stroke-width:1.0;" width="182" x="480" y="321.8281"/><text fill="#444444" font-family="sans-serif" font-size="14" lengthAdjust="spacing" textLength="14" x="484" y="336.3613">&#9647;</text><text fill="#FFFFFF" font-family="sans-serif" font-size="14" lengthAdjust="spacing" textLength="4" x="498" y="336.3613">&#160;</text><text fill="#444444" font-family="sans-serif" font-size="14" lengthAdjust="spacing" textLength="108" x="506" y="336.3613">system boundary</text><text fill="#444444" font-family="sans-serif" font-size="10" lengthAdjust="spacing" textLength="40" x="618" y="337.2402">(dashed)</text><text fill="#FFFFFF" font-family="sans-serif" font-size="14" lengthAdjust="spacing" textLength="4" x="658" y="336.3613">&#160;</text><line style="stroke:none;stroke-width:1.0;" x1="480" x2="662" y1="286.6094" y2="286.6094"/><line style="stroke:none;stroke-width:1.0;" x1="480" x2="662" y1="304.2188" y2="304.2188"/><line style="stroke:none;stroke-width:1.0;" x1="480" x2="662" y1="321.8281" y2="321.8281"/><line style="stroke:none;stroke-width:1.0;" x1="480" x2="662" y1="339.4375" y2="339.4375"/><line style="stroke:none;stroke-width:1.0;" x1="480" x2="480" y1="286.6094" y2="339.4375"/><line style="stroke:none;stroke-width:1.0;" x1="662" x2="662" y1="286.6094" y2="339.4375"/><!--SRC=[pLRRRfj047tdApQq3qPAUV9Jf3oulZILKcCPHr6bI6W20rbrsKMxYrrKzT-xs8HBL2duLXS1sXaDvyoScLrnbKb8KY0C2f5hebBKmC6weZnaUOJ4TP-gEnogf_4m60kkWNAKRfQdpB96KJHbc2BNAqW6TZYaNAECcTZSC1fZM8GCRpXkx6loyJaP2oRaRI8HkR5ZWxNpV8YtLnaZP8Io6wTU818RofDRUmPCeUtqemrVW2SOjQc5B5qzkEl0GyabfcBT9PSOzM3UHVs5jkHT8djVPuq_TLT1PZhMyZZlGxMqQ-1gKHgydQi7O4kF1d1NQuDcR5EdV-Sz1elfqlVcmS9RhfQZhwk1OzsFldiFgs3bBOA9zpWt7alze3m32IafCNIH8Sa4Aqh3iZJL38bNAajyb6iQ8lb4naFYQz0qBDUlmqmOhj5Ci-KNIcCQV1OvZq0MW-bOf2dA41SCT2nawleYrXkGk8jKxXQ_WhycTeVETiWlYvYh9jeJqAq_LEueemRVl8s4zlPnJeOz0GtFeCe2NfTdOFc6Ia5YPjh0rkkpyU0Ty8YXhCcGL9uMvUz3MZwJa4TDoxVcKIrl0-uZs47PBw0eZwuc_yfnL0LTqBFNCCjPJ5ctZCPtN2_UGkzPZ3a5Zzta9zd73mgLoUYYwRJbEaa-RtVsQRRMXLBxLqqyNMR_WMZz3ffB3LlViwFAh_hLkPz-cSud0-SF]--></g></svg>