<?xml version="1.0" encoding="us-ascii" standalone="no"?><svg xmlns="http://www.w3.org/2000/svg" xmlns:xlink="http://www.w3.org/1999/xlink" contentStyleType="text/css" height="366px" preserveAspectRatio="none" style="width:1233px;height:366px;background:#FFFFFF;" version="1.1" viewBox="0 0 1233 366" width="1233px" zoomAndPan="magnify"><defs/><g><text fill="#000000" font-family="sans-serif" font-size="14" font-weight="bold" lengthAdjust="spacing" textLength="251" x="446.5" y="24.5332">Order Service - C4 - Container level</text><!--cluster ECommercePlatform.SoftwareSystems.OrderService--><g id="cluster_ECommercePlatform.SoftwareSystems.OrderService"><rect fill="none" height="223" rx="2.5" ry="2.5" style="stroke:#444444;stroke-width:1.0;stroke-dasharray:7.0,7.0;" width="635" x="14" y="42.6094"/><text fill="#444444" font-family="sans-serif" font-size="16" font-weight="bold" lengthAdjust="spacing" textLength="104" x="279.5" y="61.2188">Order Service</text><text fill="#444444" font-family="sans-serif" font-size="12" font-weight="bold" lengthAdjust="spacing" textLength="51" x="306" y="77.1914">[System]</text></g><!--cluster ECommercePlatform.SoftwareSystems.FraudService--><g id="cluster_ECommercePlatform.SoftwareSystems.FraudService"><rect fill="none" height="94" rx="2.5" ry="2.5" style="stroke:#444444;stroke-width:1.0;stroke-dasharray:7.0,7.0;" width="122" x="657" y="171.6094"/><text fill="#444444" font-family="sans-serif" font-size="16" font-weight="bold" lengthAdjust="spacing" textLength="106" x="665" y="190.2188">Fraud Service</text><text fill="#444444" font-family="sans-serif" font-size="12" font-weight="bold" lengthAdjust="spacing" textLength="51" x="692.5" y="206.1914">[System]</text></g><!--cluster ECommercePlatform.SoftwareSystems.PaymentService--><g id="cluster_ECommercePlatform.SoftwareSystems.PaymentService"><rect fill="none" height="94" rx="2.5" ry="2.5" style="stroke:#444444;stroke-width:1.0;stroke-dasharray:7.0,7.0;" width="144" x="809" y="171.6094"/><text fill="#444444" font-family="sans-serif" font-size="16" font-weight="bold" lengthAdjust="spacing" textLength="128" x="817" y="190.2188">Payment Service</text><text fill="#444444" font-family="sans-serif" font-size="12" font-weight="bold" lengthAdjust="spacing" textLength="51" x="855.5" y="206.1914">[System]</text></g><!--cluster ECommercePlatform.SoftwareSystems.FulfilmentService--><g id="cluster_ECommercePlatform.SoftwareSystems.FulfilmentService"><rect fill="none" height="94" rx="2.5" ry="2.5" style="stroke:#444444;stroke-width:1.0;stroke-dasharray:7.0,7.0;" width="152" x="1001" y="171.6094"/><text fill="#444444" font-family="sans-serif" font-size="16" font-weight="bold" lengthAdjust="spacing" textLength="136" x="1009" y="190.2188">Fulfilment Service</text><text fill="#444444" font-family="sans-serif" font-size="12" font-weight="bold" lengthAdjust="spacing" textLength="51" x="1051.5" y="206.1914">[System]</text></g><!--entity ECommercePlatform.SoftwareSystems.OrderService.Containers.Api--><g id="elem_ECommercePlatform.SoftwareSystems.OrderService.Containers.Api"><rect fill="#438DD5" height="40.125" rx="2.5" ry="2.5" style="stroke:#3C7FC0;stroke-width:0.5;" width="45" x="67.5" y="88.6094"/><text fill="#FFFFFF" font-family="sans-serif" font-size="16" font-weight="bold" lengthAdjust="spacing" textLength="25" x="77.5" y="115.2188">Api</text></g><!--entity ECommercePlatform.SoftwareSystems.OrderService.Containers.Database--><g id="elem_ECommercePlatform.SoftwareSystems.OrderService.Containers.Database"><rect fill="#438DD5" height="40.125" rx="2.5" ry="2.5" style="stroke:#3C7FC0;stroke-width:0.5;" width="92" x="141" y="217.6094"/><text fill="#FFFFFF" font-family="sans-serif" font-size="16" font-weight="bold" lengthAdjust="spacing" textLength="72" x="151" y="244.2188">Database</text></g><!--entity ECommercePlatform.SoftwareSystems.OrderService.Containers.Messaging--><g id="elem_ECommercePlatform.SoftwareSystems.OrderService.Containers.Messaging"><rect fill="#438DD5" height="40.125" rx="2.5" ry="2.5" style="stroke:#3C7FC0;stroke-width:0.5;" width="103" x="323.5" y="217.6094"/><text fill="#FFFFFF" font-family="sans-serif" font-size="16" font-weight="bold" lengthAdjust="spacing" textLength="83" x="333.5" y="244.2188">Messaging</text></g><!--entity ECommercePlatform.SoftwareSystems.OrderService.Containers.MessageHandler--><g id="elem_ECommercePlatform.SoftwareSystems.OrderService.Containers.MessageHandler"><rect fill="#438DD5" height="40.125" rx="2.5" ry="2.5" style="stroke:#3C7FC0;stroke-width:0.5;" width="152" x="489" y="88.6094"/><text fill="#FFFFFF" font-family="sans-serif" font-size="16" font-weight="bold" lengthAdjust="spacing" textLength="68" x="499" y="115.2188">Message</text><text fill="#FFFFFF" font-family="sans-serif" font-size="16" font-weight="bold" lengthAdjust="spacing" textLength="4" x="567" y="115.2188">&#160;</text><text fill="#FFFFFF" font-family="sans-serif" font-size="16" font-weight="bold" lengthAdjust="spacing" textLength="60" x="571" y="115.2188">Handler</text></g><!--entity ECommercePlatform.SoftwareSystems.FraudService.Containers.Messaging--><g id="elem_ECommercePlatform.SoftwareSystems.FraudService.Containers.Messaging"><rect fill="#438DD5" height="40.125" rx="2.5" ry="2.5" style="stroke:#3C7FC0;stroke-width:0.5;" width="103" x="665.5" y="217.6094"/><text fill="#FFFFFF" font-family="sans-serif" font-size="16" font-weight="bold" lengthAdjust="spacing" textLength="83" x="675.5" y="244.2188">Messaging</text></g><!--entity ECommercePlatform.SoftwareSystems.PaymentService.Containers.Messaging--><g id="elem_ECommercePlatform.SoftwareSystems.PaymentService.Containers.Messaging"><rect fill="#438DD5" height="40.125" rx="2.5" ry="2.5" style="stroke:#3C7FC0;stroke-width:0.5;" width="103" x="829.5" y="217.6094"/><text fill="#FFFFFF" font-family="sans-serif" font-size="16" font-weight="bold" lengthAdjust="spacing" textLength="83" x="839.5" y="244.2188">Messaging</text></g><!--entity ECommercePlatform.SoftwareSystems.FulfilmentService.Containers.Messaging--><g id="elem_ECommercePlatform.SoftwareSystems.FulfilmentService.Containers.Messaging"><rect fill="#438DD5" height="40.125" rx="2.5" ry="2.5" style="stroke:#3C7FC0;stroke-width:0.5;" width="103" x="1025.5" y="217.6094"/><text fill="#FFFFFF" font-family="sans-serif" font-size="16" font-weight="bold" lengthAdjust="spacing" textLength="83" x="1035.5" y="244.2188">Messaging</text></g><polygon fill="none" points="140.9939,227.153,134.1169,222.0828,132.4788,227.8549,140.9939,227.153" style="stroke:#666666;stroke-width:1.0;"/><path d="M67.3012,121.0003 C50.055,131.273 30.8838,147.241 41,163.6094 C62.6776,198.6845 99.1806,215.2863 133.2979,224.9689 " fill="none" style="stroke:#666666;stroke-width:1.0;"/><text fill="#666666" font-family="sans-serif" font-size="12" font-weight="bold" lengthAdjust="spacing" textLength="69" x="42" y="160.0664">Insert Order</text><polygon fill="none" points="344.6138,217.5914,339.2283,210.9584,336.1948,216.1351,344.6138,217.5914" style="stroke:#666666;stroke-width:1.0;"/><path d="M100.4946,128.8066 C108.2923,141.0309 120.1347,155.9581 135,163.6094 C156.2007,174.5215 218.9857,165.3734 242,171.6094 C279.2087,181.6914 311.5732,198.2299 337.7115,213.5468 " fill="none" style="stroke:#666666;stroke-width:1.0;"/><text fill="#666666" font-family="sans-serif" font-size="12" font-weight="bold" lengthAdjust="spacing" textLength="147" x="136" y="160.0664">Send Order Created Event</text><polygon fill="none" points="704.6022,217.3097,702.5764,209.0093,697.6181,212.388,704.6022,217.3097" style="stroke:#666666;stroke-width:1.0;"/><path d="M612.8877,128.6888 C622.9843,133.7649 633.2262,139.7718 642,146.6094 C667.9894,166.8633 686.6149,190.9129 700.0973,210.6986 " fill="none" style="stroke:#666666;stroke-width:1.0;"/><text fill="#666666" font-family="sans-serif" font-size="12" font-weight="bold" lengthAdjust="spacing" textLength="192" x="660" y="160.0664">Receive Fraud Check Result Event</text><polygon fill="none" points="212.5958,217.4855,220.7976,215.0914,217.2011,210.2888,212.5958,217.4855" style="stroke:#666666;stroke-width:1.0;"/><path d="M488.8803,110.3121 C435.7711,113.2018 364.2596,121.985 306,146.6094 C294.6181,151.4201 293.8257,156.1163 284,163.6094 C259.8667,182.0135 238.5955,198.0153 218.9993,212.6901 " fill="none" style="stroke:#666666;stroke-width:1.0;"/><text fill="#666666" font-family="sans-serif" font-size="12" font-weight="bold" lengthAdjust="spacing" textLength="116" x="307" y="160.0664">Update Order Status</text><polygon fill="none" points="387.6441,217.4245,394.6015,212.4652,389.6251,209.1133,387.6441,217.4245" style="stroke:#666666;stroke-width:1.0;"/><path d="M488.7352,125.0676 C473.0985,130.3387 457.3543,137.3406 444,146.6094 C430.0091,156.32 407.886,187.3721 392.1133,210.7892 " fill="none" style="stroke:#666666;stroke-width:1.0;"/><text fill="#666666" font-family="sans-serif" font-size="12" font-weight="bold" lengthAdjust="spacing" textLength="192" x="445" y="160.0664">Send Order Status Changed Event</text><polygon fill="none" points="881.6821,217.6087,884.5361,209.5555,878.5371,209.6647,881.6821,217.6087" style="stroke:#666666;stroke-width:1.0;"/><path d="M641.2392,109.8874 C716.8427,111.7694 825.7827,119.3335 857,146.6094 C877.2147,164.2718 881.1592,188.872 881.5366,209.6101 " fill="none" style="stroke:#666666;stroke-width:1.0;"/><text fill="#666666" font-family="sans-serif" font-size="12" font-weight="bold" lengthAdjust="spacing" textLength="171" x="871" y="160.0664">Receive Payment Result Event</text><polygon fill="none" points="1076.4744,217.2979,1078.8169,209.0813,1072.8366,209.567,1076.4744,217.2979" style="stroke:#666666;stroke-width:1.0;"/><path d="M641.1022,110.8883 C768.9021,113.7032 1015.8035,122.2559 1047,146.6094 C1068.5513,163.4334 1074.1197,188.3074 1075.8268,209.3241 " fill="none" style="stroke:#666666;stroke-width:1.0;"/><text fill="#666666" font-family="sans-serif" font-size="12" font-weight="bold" lengthAdjust="spacing" textLength="164" x="1061" y="160.0664">Receive Order Shipped Event</text><rect fill="none" height="17.6094" style="stroke:none;stroke-width:1.0;" width="182" x="945" y="286.6094"/><text fill="#000000" font-family="sans-serif" font-size="14" font-weight="bold" lengthAdjust="spacing" textLength="53" x="945" y="301.1426">Legend</text><text fill="#FFFFFF" font-family="sans-serif" font-size="14" lengthAdjust="spacing" textLength="4" x="998" y="301.1426">&#160;</text><rect fill="#438DD5" height="17.6094" style="stroke:none;stroke-width:1.0;" width="182" x="945" y="304.2188"/><text fill="#3C7FC0" font-family="sans-serif" font-size="14" lengthAdjust="spacing" textLength="14" x="949" y="318.752">&#9647;</text><text fill="#FFFFFF" font-family="sans-serif" font-size="14" lengthAdjust="spacing" textLength="4" x="963" y="318.752">&#160;</text><text fill="#FFFFFF" font-family="sans-serif" font-size="14" lengthAdjust="spacing" textLength="59" x="971" y="318.752">container</text><text fill="#FFFFFF" font-family="sans-serif" font-size="14" lengthAdjust="spacing" textLength="4" x="1034" y="318.752">&#160;</text><rect fill="none" height="17.6094" style="stroke:none;stroke-width:1.0;" width="182" x="945" y="321.8281"/><text fill="#444444" font-family="sans-serif" font-size="14" lengthAdjust="spacing" textLength="14" x="949" y="336.3613">&#9647;</text><text fill="#FFFFFF" font-family="sans-serif" font-size="14" lengthAdjust="spacing" textLength="4" x="963" y="336.3613">&#160;</text><text fill="#444444" font-family="sans-serif" font-size="14" lengthAdjust="spacing" textLength="108" x="971" y="336.3613">system boundary</text><text fill="#444444" font-family="sans-serif" font-size="10" lengthAdjust="spacing" textLength="40" x="1083" y="337.2402">(dashed)</text><text fill="#FFFFFF" font-family="sans-serif" font-size="14" lengthAdjust="spacing" textLength="4" x="1123" y="336.3613">&#160;</text><line style="stroke:none;stroke-width:1.0;" x1="945" x2="1127" y1="286.6094" y2="286.6094"/><line style="stroke:none;stroke-width:1.0;" x1="945" x2="1127" y1="304.2188" y2="304.2188"/><line style="stroke:none;stroke-width:1.0;" x1="945" x2="1127" y1="321.8281" y2="321.8281"/><line style="stroke:none;stroke-width:1.0;" x1="945" x2="1127" y1="339.4375" y2="339.4375"/><line style="stroke:none;stroke-width:1.0;" x1="945" x2="945" y1="286.6094" y2="339.4375"/><line style="stroke:none;stroke-width:1.0;" x1="1127" x2="1127" y1="286.6094" y2="339.4375"/><!--SRC=[pLPTRvim57tdLxXi3udKyPIdIdt825ahTIM2LDMaIiZ55sBLsCWsoT2q_puJI23Lff8lPIX1-Ehcd7lF_GXNkSHfXX73fIWqKXbepB5rHNdC2WB8SLwQJpnIB-ueSWNNc7AGJbvapBB6X7WCCk1wZjE17Oyero0J9bOtZ2OGbp636muh-nfzVarTmOIyJIK0D-V4ODMMJydwgdo4921t_TG24x6YFBsrfvWfi8VzQEC5vYcGBhMGbQa7zzRnK789cLZkaaiWFPXhhx_GLhm1i8zrrl1Jxoh8JCKwbk77K1tjMhYjA2rURUe1sD6Z1QnpRT7CsUGPtldFqSmBGlyncld1F1ZVpmT3ws7ymt-QHtD_5atyvqTZiTGRvJcME4CLXYvpGBbWPNMmB4qr0-HNog8Gv9B6WBuWTrJTDbsC62p1jB4Lbaf35dqL1ITObWFF5La6CeOPmpeHCdD2aUWLbb1xAcSDtE1U8tk7nnwYNnOorvPeJq1d-qFbZ7DgyCtTQ6UllyEJOK-mngzOLGbi7i_0yXsKmgbfPWExVJuR3znXJXZ8BHcWnjAX_7r8oQSI5wGj-VfuLCcxWFi8Tb3qCrnMEwkDlp4SbS4kwDbpc1OieMmtZTPsN2tUG- -PZ5b_nmxvIURudYkGkjvx9hABXjMLBGHEcctiIi0Q2FAMHksZOtm_zQSPkm1Ye4j0zP2x2uZVK02gOFfYOVSe_bDEZBARFpsDTQ7-eq3_qGvrd4RZzIl7nUJjjyesVR5PdXVkYTvRQnDt8_c2vdb7w-Qbwy7xvZrE1iC_]--></g></svg>