<?xml version="1.0" encoding="us-ascii" standalone="no"?><svg xmlns="http://www.w3.org/2000/svg" xmlns:xlink="http://www.w3.org/1999/xlink" contentStyleType="text/css" height="407px" preserveAspectRatio="none" style="width:742px;height:407px;background:#FFFFFF;" version="1.1" viewBox="0 0 742 407" width="742px" zoomAndPan="magnify"><defs/><g><text fill="#000000" font-family="sans-serif" font-size="14" font-weight="bold" lengthAdjust="spacing" textLength="714" x="10" y="29.5332">TraderXExample - TraderX - Web Client - View Trade Status And Positions - Sequence - Container level</text><rect fill="#FFFFFF" height="357.3828" style="stroke:#181818;stroke-width:0.5;" width="470" x="223" y="44.6094"/><text fill="#000000" font-family="sans-serif" font-size="13" font-weight="bold" lengthAdjust="spacing" textLength="51" x="432.5" y="58.1045">TraderX</text><rect fill="none" height="204.4609" style="stroke:#000000;stroke-width:1.5;" width="492" x="217" y="144.9219"/><rect fill="none" height="48.7031" style="stroke:#000000;stroke-width:1.5;" width="290.5" x="408.5" y="200.625"/><rect fill="none" height="48.7031" style="stroke:#000000;stroke-width:1.5;" width="290.5" x="408.5" y="293.6797"/><line style="stroke:#181818;stroke-width:0.5;stroke-dasharray:5.0,5.0;" x1="53" x2="53" y1="97.5703" y2="366.3828"/><line style="stroke:#181818;stroke-width:0.5;stroke-dasharray:5.0,5.0;" x1="268" x2="268" y1="97.5703" y2="366.3828"/><line style="stroke:#181818;stroke-width:0.5;stroke-dasharray:5.0,5.0;" x1="453.5" x2="453.5" y1="97.5703" y2="366.3828"/><line style="stroke:#181818;stroke-width:0.5;stroke-dasharray:5.0,5.0;" x1="631" x2="631" y1="97.5703" y2="366.3828"/><rect fill="#E2E2F0" height="31.6094" rx="2.5" ry="2.5" style="stroke:#181818;stroke-width:0.5;" width="65" x="21" y="64.9609"/><text fill="#000000" font-family="sans-serif" font-size="14" lengthAdjust="spacing" textLength="51" x="28" y="86.4941">External</text><rect fill="#E2E2F0" height="31.6094" rx="2.5" ry="2.5" style="stroke:#181818;stroke-width:0.5;" width="65" x="21" y="365.3828"/><text fill="#000000" font-family="sans-serif" font-size="14" lengthAdjust="spacing" textLength="51" x="28" y="386.916">External</text><rect fill="#E2E2F0" height="31.6094" rx="2.5" ry="2.5" style="stroke:#181818;stroke-width:0.5;" width="83" x="227" y="64.9609"/><text fill="#000000" font-family="sans-serif" font-size="14" lengthAdjust="spacing" textLength="69" x="234" y="86.4941">Web Client</text><rect fill="#E2E2F0" height="31.6094" rx="2.5" ry="2.5" style="stroke:#181818;stroke-width:0.5;" width="83" x="227" y="365.3828"/><text fill="#000000" font-family="sans-serif" font-size="14" lengthAdjust="spacing" textLength="69" x="234" y="386.916">Web Client</text><rect fill="#E2E2F0" height="31.6094" rx="2.5" ry="2.5" style="stroke:#181818;stroke-width:0.5;" width="70" x="418.5" y="64.9609"/><text fill="#000000" font-family="sans-serif" font-size="14" lengthAdjust="spacing" textLength="56" x="425.5" y="86.4941">Web GUI</text><rect fill="#E2E2F0" height="31.6094" rx="2.5" ry="2.5" style="stroke:#181818;stroke-width:0.5;" width="70" x="418.5" y="365.3828"/><text fill="#000000" font-family="sans-serif" font-size="14" lengthAdjust="spacing" textLength="56" x="425.5" y="386.916">Web GUI</text><rect fill="#E2E2F0" height="31.6094" rx="2.5" ry="2.5" style="stroke:#181818;stroke-width:0.5;" width="115" x="574" y="64.9609"/><text fill="#000000" font-family="sans-serif" font-size="14" lengthAdjust="spacing" textLength="101" x="581" y="86.4941">Position Service</text><rect fill="#E2E2F0" height="31.6094" rx="2.5" ry="2.5" style="stroke:#181818;stroke-width:0.5;" width="115" x="574" y="365.3828"/><text fill="#000000" font-family="sans-serif" font-size="14" lengthAdjust="spacing" textLength="101" x="581" y="386.916">Position Service</text><polygon fill="#181818" points="256.5,125.9219,266.5,129.9219,256.5,133.9219,260.5,129.9219" style="stroke:#181818;stroke-width:1.0;"/><line style="stroke:#181818;stroke-width:1.0;" x1="53.5" x2="262.5" y1="129.9219" y2="129.9219"/><text fill="#000000" font-family="sans-serif" font-size="13" lengthAdjust="spacing" textLength="191" x="60.5" y="125.0654">View Trade Status And Positions</text><path d="M217,144.9219 L468,144.9219 L468,153.2734 L458,163.2734 L217,163.2734 L217,144.9219 " fill="#EEEEEE" style="stroke:#000000;stroke-width:1.5;"/><rect fill="none" height="204.4609" style="stroke:#000000;stroke-width:1.5;" width="492" x="217" y="144.9219"/><text fill="#000000" font-family="sans-serif" font-size="13" font-weight="bold" lengthAdjust="spacing" textLength="206" x="232" y="159.417">View Trade Status And Positions</text><polygon fill="#181818" points="441.5,181.625,451.5,185.625,441.5,189.625,445.5,185.625" style="stroke:#181818;stroke-width:1.0;"/><line style="stroke:#181818;stroke-width:1.0;" x1="268.5" x2="447.5" y1="185.625" y2="185.625"/><text fill="#000000" font-family="sans-serif" font-size="13" lengthAdjust="spacing" textLength="146" x="275.5" y="180.7686">Load Trades For Account</text><path d="M408.5,200.625 L612.5,200.625 L612.5,208.9766 L602.5,218.9766 L408.5,218.9766 L408.5,200.625 " fill="#EEEEEE" style="stroke:#000000;stroke-width:1.5;"/><rect fill="none" height="48.7031" style="stroke:#000000;stroke-width:1.5;" width="290.5" x="408.5" y="200.625"/><text fill="#000000" font-family="sans-serif" font-size="13" font-weight="bold" lengthAdjust="spacing" textLength="159" x="423.5" y="215.1201">Load Trades For Account</text><polygon fill="#181818" points="619.5,237.3281,629.5,241.3281,619.5,245.3281,623.5,241.3281" style="stroke:#181818;stroke-width:1.0;"/><line style="stroke:#181818;stroke-width:1.0;" x1="453.5" x2="625.5" y1="241.3281" y2="241.3281"/><text fill="#000000" font-family="sans-serif" font-size="13" lengthAdjust="spacing" textLength="139" x="460.5" y="236.4717">Get Trades For Account</text><polygon fill="#181818" points="441.5,274.6797,451.5,278.6797,441.5,282.6797,445.5,278.6797" style="stroke:#181818;stroke-width:1.0;"/><line style="stroke:#181818;stroke-width:1.0;" x1="268.5" x2="447.5" y1="278.6797" y2="278.6797"/><text fill="#000000" font-family="sans-serif" font-size="13" lengthAdjust="spacing" textLength="161" x="275.5" y="273.8232">Load Positions For Account</text><path d="M408.5,293.6797 L626.5,293.6797 L626.5,302.0313 L616.5,312.0313 L408.5,312.0313 L408.5,293.6797 " fill="#EEEEEE" style="stroke:#000000;stroke-width:1.5;"/><rect fill="none" height="48.7031" style="stroke:#000000;stroke-width:1.5;" width="290.5" x="408.5" y="293.6797"/><text fill="#000000" font-family="sans-serif" font-size="13" font-weight="bold" lengthAdjust="spacing" textLength="173" x="423.5" y="308.1748">Load Positions For Account</text><polygon fill="#181818" points="619.5,330.3828,629.5,334.3828,619.5,338.3828,623.5,334.3828" style="stroke:#181818;stroke-width:1.0;"/><line style="stroke:#181818;stroke-width:1.0;" x1="453.5" x2="625.5" y1="334.3828" y2="334.3828"/><text fill="#000000" font-family="sans-serif" font-size="13" lengthAdjust="spacing" textLength="154" x="460.5" y="329.5264">Get Positions For Account</text><!--SRC=[pLHDRy8m3BtxLtZTcPvssc4IGe2GTfZKRUngYWUHqgHBN3x-_SnAXnX5JEMmHOeKn_RpoxELcpBGeY2qjFMLO2nOo1606B6Cpu7c7Dw66ofADNlDXPwcFCE1DUn4ZLV3wzg7cP1K4VjkZay-6Z7UHOt8-ADYb-ym1ju96SS1BQ_O0fGKnEIc9CLAXXlXuCWcI147TnEdviZwTPhvTrbJu6mRXOkODe6r3J3p6qps_1AydIwDCA2k8_W3xQy2nmyygR5tfz-KOwe0TNuxzlXbqXrOaqzH6nLLmh0oENU4Rs3sAC3Q89KC07ulClOUhb4CxoyD2Yo2hygBKTTmwFe4xOtoV_Gqh_CZZdp0VfxxIcUXvdtEsxbW9x8_Egsinonjj7G4_bhAmnTnHitsWFyWQ3kpdQQx3Py0]--></g></svg>