<?xml version="1.0" encoding="us-ascii" standalone="no"?><svg xmlns="http://www.w3.org/2000/svg" xmlns:xlink="http://www.w3.org/1999/xlink" contentStyleType="text/css" height="407px" preserveAspectRatio="none" style="width:740px;height:407px;background:#FFFFFF;" version="1.1" viewBox="0 0 740 407" width="740px" zoomAndPan="magnify"><defs/><g><text fill="#000000" font-family="sans-serif" font-size="14" font-weight="bold" lengthAdjust="spacing" textLength="712" x="10" y="29.5332">BigBankPlc - Internet Banking - Single-Page App - View Customer Details - Sequence - Container level</text><rect fill="#FFFFFF" height="357.3828" style="stroke:#181818;stroke-width:0.5;" width="286" x="174" y="44.6094"/><text fill="#000000" font-family="sans-serif" font-size="13" font-weight="bold" lengthAdjust="spacing" textLength="105" x="264.5" y="58.1045">Internet Banking</text><rect fill="none" height="204.4609" style="stroke:#000000;stroke-width:1.5;" width="510.5" x="168" y="144.9219"/><rect fill="none" height="48.7031" style="stroke:#000000;stroke-width:1.5;" width="330.5" x="338" y="200.625"/><rect fill="none" height="48.7031" style="stroke:#000000;stroke-width:1.5;" width="330.5" x="338" y="293.6797"/><line style="stroke:#181818;stroke-width:0.5;stroke-dasharray:5.0,5.0;" x1="81.5" x2="81.5" y1="97.5703" y2="366.3828"/><line style="stroke:#181818;stroke-width:0.5;stroke-dasharray:5.0,5.0;" x1="238" x2="238" y1="97.5703" y2="366.3828"/><line style="stroke:#181818;stroke-width:0.5;stroke-dasharray:5.0,5.0;" x1="402" x2="402" y1="97.5703" y2="366.3828"/><line style="stroke:#181818;stroke-width:0.5;stroke-dasharray:5.0,5.0;" x1="565.5" x2="565.5" y1="97.5703" y2="366.3828"/><rect fill="#E2E2F0" height="31.6094" rx="2.5" ry="2.5" style="stroke:#181818;stroke-width:0.5;" width="65" x="49.5" y="64.9609"/><text fill="#000000" font-family="sans-serif" font-size="14" lengthAdjust="spacing" textLength="51" x="56.5" y="86.4941">External</text><rect fill="#E2E2F0" height="31.6094" rx="2.5" ry="2.5" style="stroke:#181818;stroke-width:0.5;" width="65" x="49.5" y="365.3828"/><text fill="#000000" font-family="sans-serif" font-size="14" lengthAdjust="spacing" textLength="51" x="56.5" y="386.916">External</text><rect fill="#E2E2F0" height="31.6094" rx="2.5" ry="2.5" style="stroke:#181818;stroke-width:0.5;" width="120" x="178" y="64.9609"/><text fill="#000000" font-family="sans-serif" font-size="14" lengthAdjust="spacing" textLength="106" x="185" y="86.4941">Single-Page App</text><rect fill="#E2E2F0" height="31.6094" rx="2.5" ry="2.5" style="stroke:#181818;stroke-width:0.5;" width="120" x="178" y="365.3828"/><text fill="#000000" font-family="sans-serif" font-size="14" lengthAdjust="spacing" textLength="106" x="185" y="386.916">Single-Page App</text><rect fill="#E2E2F0" height="31.6094" rx="2.5" ry="2.5" style="stroke:#181818;stroke-width:0.5;" width="108" x="348" y="64.9609"/><text fill="#000000" font-family="sans-serif" font-size="14" lengthAdjust="spacing" textLength="94" x="355" y="86.4941">API Application</text><rect fill="#E2E2F0" height="31.6094" rx="2.5" ry="2.5" style="stroke:#181818;stroke-width:0.5;" width="108" x="348" y="365.3828"/><text fill="#000000" font-family="sans-serif" font-size="14" lengthAdjust="spacing" textLength="94" x="355" y="386.916">API Application</text><rect fill="#E2E2F0" height="31.6094" rx="2.5" ry="2.5" style="stroke:#181818;stroke-width:0.5;" width="185" x="473.5" y="64.9609"/><text fill="#000000" font-family="sans-serif" font-size="14" lengthAdjust="spacing" textLength="171" x="480.5" y="86.4941">Mainframe Banking System</text><rect fill="#E2E2F0" height="31.6094" rx="2.5" ry="2.5" style="stroke:#181818;stroke-width:0.5;" width="185" x="473.5" y="365.3828"/><text fill="#000000" font-family="sans-serif" font-size="14" lengthAdjust="spacing" textLength="171" x="480.5" y="386.916">Mainframe Banking System</text><polygon fill="#181818" points="226,125.9219,236,129.9219,226,133.9219,230,129.9219" style="stroke:#181818;stroke-width:1.0;"/><line style="stroke:#181818;stroke-width:1.0;" x1="82" x2="232" y1="129.9219" y2="129.9219"/><text fill="#000000" font-family="sans-serif" font-size="13" lengthAdjust="spacing" textLength="132" x="89" y="125.0654">View Customer Details</text><path d="M168,144.9219 L356,144.9219 L356,153.2734 L346,163.2734 L168,163.2734 L168,144.9219 " fill="#EEEEEE" style="stroke:#000000;stroke-width:1.5;"/><rect fill="none" height="204.4609" style="stroke:#000000;stroke-width:1.5;" width="510.5" x="168" y="144.9219"/><text fill="#000000" font-family="sans-serif" font-size="13" font-weight="bold" lengthAdjust="spacing" textLength="143" x="183" y="159.417">View Customer Details</text><polygon fill="#181818" points="390,181.625,400,185.625,390,189.625,394,185.625" style="stroke:#181818;stroke-width:1.0;"/><line style="stroke:#181818;stroke-width:1.0;" x1="238" x2="396" y1="185.625" y2="185.625"/><text fill="#000000" font-family="sans-serif" font-size="13" lengthAdjust="spacing" textLength="81" x="245" y="180.7686">Get Customer</text><path d="M338,200.625 L469,200.625 L469,208.9766 L459,218.9766 L338,218.9766 L338,200.625 " fill="#EEEEEE" style="stroke:#000000;stroke-width:1.5;"/><rect fill="none" height="48.7031" style="stroke:#000000;stroke-width:1.5;" width="330.5" x="338" y="200.625"/><text fill="#000000" font-family="sans-serif" font-size="13" font-weight="bold" lengthAdjust="spacing" textLength="86" x="353" y="215.1201">Get Customer</text><polygon fill="#181818" points="554,237.3281,564,241.3281,554,245.3281,558,241.3281" style="stroke:#181818;stroke-width:1.0;"/><line style="stroke:#181818;stroke-width:1.0;" x1="402" x2="560" y1="241.3281" y2="241.3281"/><text fill="#000000" font-family="sans-serif" font-size="13" lengthAdjust="spacing" textLength="81" x="409" y="236.4717">Get Customer</text><polygon fill="#181818" points="390,274.6797,400,278.6797,390,282.6797,394,278.6797" style="stroke:#181818;stroke-width:1.0;"/><line style="stroke:#181818;stroke-width:1.0;" x1="238" x2="396" y1="278.6797" y2="278.6797"/><text fill="#000000" font-family="sans-serif" font-size="13" lengthAdjust="spacing" textLength="140" x="245" y="273.8232">Get Customer Accounts</text><path d="M338,293.6797 L530,293.6797 L530,302.0313 L520,312.0313 L338,312.0313 L338,293.6797 " fill="#EEEEEE" style="stroke:#000000;stroke-width:1.5;"/><rect fill="none" height="48.7031" style="stroke:#000000;stroke-width:1.5;" width="330.5" x="338" y="293.6797"/><text fill="#000000" font-family="sans-serif" font-size="13" font-weight="bold" lengthAdjust="spacing" textLength="147" x="353" y="308.1748">Get Customer Accounts</text><polygon fill="#181818" points="554,330.3828,564,334.3828,554,338.3828,558,334.3828" style="stroke:#181818;stroke-width:1.0;"/><line style="stroke:#181818;stroke-width:1.0;" x1="402" x2="560" y1="334.3828" y2="334.3828"/><text fill="#000000" font-family="sans-serif" font-size="13" lengthAdjust="spacing" textLength="140" x="409" y="329.5264">Get Customer Accounts</text><!--SRC=[pL9DJyCm3BtdLvXoRa-SE21rvKCx84sQ16TJl1AH9YLnwVRlSRPrOztu4EomIbLJstdl-TbdZSUgHZ2uS2r3g8dHebAisH2CT3L2-pen9QGmjapU4aCCQLj9Q2eVG-a4AuAyQIJoeAc3eWtiQl9mBMZQX5X9RotPakHOE2jHAsb3xsIKQj2pBdM3bY6vcKSMD0bWWE9YINfhN9TDtOmxz3HT1AOwP7tXwb-f9pU7PAWnWVF75ysaG9uTde7q9TsstJss7dYDcssQ2DaAAG89pZvHFXb70gDBPEtiFuW4wHEG8liCqlJ0ltifddciQJEc5V9Fl9jxwskzhRyV0QHNnt0GBWylaQgyQvilSiVW_RFytRc8_ZjPm5xYMlPEw2WqtyizFCwXDbcX4xOEyh9qhULmmCDjxbJCt2gAhiPNVG00]--></g></svg>