<?xml version="1.0" encoding="us-ascii" standalone="no"?><svg xmlns="http://www.w3.org/2000/svg" xmlns:xlink="http://www.w3.org/1999/xlink" contentStyleType="text/css" height="414px" preserveAspectRatio="none" style="width:709px;height:414px;background:#FFFFFF;" version="1.1" viewBox="0 0 709 414" width="709px" zoomAndPan="magnify"><defs/><g><text fill="#000000" font-family="sans-serif" font-size="14" font-weight="bold" lengthAdjust="spacing" textLength="681" x="10" y="29.5332">BigBankPlc - Internet Banking - Single-Page App - Change Password - Sequence - Container level</text><rect fill="#FFFFFF" height="356.6797" style="stroke:#181818;stroke-width:0.5;" width="387.5" x="125.5" y="44.6094"/><text fill="#000000" font-family="sans-serif" font-size="13" font-weight="bold" lengthAdjust="spacing" textLength="105" x="266.75" y="58.1045">Internet Banking</text><rect fill="none" height="141.7578" style="stroke:#000000;stroke-width:1.5;" width="549.5" x="119.5" y="175.9219"/><rect fill="none" height="79.0547" style="stroke:#000000;stroke-width:1.5;" width="404.5" x="254.5" y="231.625"/><line style="stroke:#181818;stroke-width:0.5;stroke-dasharray:5.0,5.0;" x1="60" x2="60" y1="128.5703" y2="334.6797"/><line style="stroke:#181818;stroke-width:0.5;stroke-dasharray:5.0,5.0;" x1="189.5" x2="189.5" y1="128.5703" y2="334.6797"/><line style="stroke:#181818;stroke-width:0.5;stroke-dasharray:5.0,5.0;" x1="318.5" x2="318.5" y1="128.5703" y2="334.6797"/><line style="stroke:#181818;stroke-width:0.5;stroke-dasharray:5.0,5.0;" x1="475" x2="475" y1="128.5703" y2="334.6797"/><line style="stroke:#181818;stroke-width:0.5;stroke-dasharray:5.0,5.0;" x1="597" x2="597" y1="128.5703" y2="334.6797"/><rect fill="#E2E2F0" height="31.6094" rx="2.5" ry="2.5" style="stroke:#181818;stroke-width:0.5;" width="65" x="28" y="95.9609"/><text fill="#000000" font-family="sans-serif" font-size="14" lengthAdjust="spacing" textLength="51" x="35" y="117.4941">External</text><rect fill="#E2E2F0" height="31.6094" rx="2.5" ry="2.5" style="stroke:#181818;stroke-width:0.5;" width="65" x="28" y="333.6797"/><text fill="#000000" font-family="sans-serif" font-size="14" lengthAdjust="spacing" textLength="51" x="35" y="355.2129">External</text><rect fill="#E2E2F0" height="31.6094" rx="2.5" ry="2.5" style="stroke:#181818;stroke-width:0.5;" width="120" x="129.5" y="95.9609"/><text fill="#000000" font-family="sans-serif" font-size="14" lengthAdjust="spacing" textLength="106" x="136.5" y="117.4941">Single-Page App</text><rect fill="#E2E2F0" height="31.6094" rx="2.5" ry="2.5" style="stroke:#181818;stroke-width:0.5;" width="120" x="129.5" y="333.6797"/><text fill="#000000" font-family="sans-serif" font-size="14" lengthAdjust="spacing" textLength="106" x="136.5" y="355.2129">Single-Page App</text><rect fill="#E2E2F0" height="31.6094" rx="2.5" ry="2.5" style="stroke:#181818;stroke-width:0.5;" width="108" x="264.5" y="95.9609"/><text fill="#000000" font-family="sans-serif" font-size="14" lengthAdjust="spacing" textLength="94" x="271.5" y="117.4941">API Application</text><rect fill="#E2E2F0" height="31.6094" rx="2.5" ry="2.5" style="stroke:#181818;stroke-width:0.5;" width="108" x="264.5" y="333.6797"/><text fill="#000000" font-family="sans-serif" font-size="14" lengthAdjust="spacing" textLength="94" x="271.5" y="355.2129">API Application</text><text fill="#000000" font-family="sans-serif" font-size="14" lengthAdjust="spacing" textLength="61" x="442" y="125.4941">Database</text><path d="M457.5,74.9609 C457.5,64.9609 475.5,64.9609 475.5,64.9609 C475.5,64.9609 493.5,64.9609 493.5,74.9609 L493.5,100.9609 C493.5,110.9609 475.5,110.9609 475.5,110.9609 C475.5,110.9609 457.5,110.9609 457.5,100.9609 L457.5,74.9609 " fill="#E2E2F0" style="stroke:#181818;stroke-width:1.5;"/><path d="M457.5,74.9609 C457.5,84.9609 475.5,84.9609 475.5,84.9609 C475.5,84.9609 493.5,84.9609 493.5,74.9609 " fill="none" style="stroke:#181818;stroke-width:1.5;"/><text fill="#000000" font-family="sans-serif" font-size="14" lengthAdjust="spacing" textLength="61" x="442" y="348.2129">Database</text><path d="M457.5,361.2891 C457.5,351.2891 475.5,351.2891 475.5,351.2891 C475.5,351.2891 493.5,351.2891 493.5,361.2891 L493.5,387.2891 C493.5,397.2891 475.5,397.2891 475.5,397.2891 C475.5,397.2891 457.5,397.2891 457.5,387.2891 L457.5,361.2891 " fill="#E2E2F0" style="stroke:#181818;stroke-width:1.5;"/><path d="M457.5,361.2891 C457.5,371.2891 475.5,371.2891 475.5,371.2891 C475.5,371.2891 493.5,371.2891 493.5,361.2891 " fill="none" style="stroke:#181818;stroke-width:1.5;"/><rect fill="#E2E2F0" height="31.6094" rx="2.5" ry="2.5" style="stroke:#181818;stroke-width:0.5;" width="103" x="546" y="95.9609"/><text fill="#000000" font-family="sans-serif" font-size="14" lengthAdjust="spacing" textLength="89" x="553" y="117.4941">E-Mail System</text><rect fill="#E2E2F0" height="31.6094" rx="2.5" ry="2.5" style="stroke:#181818;stroke-width:0.5;" width="103" x="546" y="333.6797"/><text fill="#000000" font-family="sans-serif" font-size="14" lengthAdjust="spacing" textLength="89" x="553" y="355.2129">E-Mail System</text><polygon fill="#181818" points="177.5,156.9219,187.5,160.9219,177.5,164.9219,181.5,160.9219" style="stroke:#181818;stroke-width:1.0;"/><line style="stroke:#181818;stroke-width:1.0;" x1="60.5" x2="183.5" y1="160.9219" y2="160.9219"/><text fill="#000000" font-family="sans-serif" font-size="13" lengthAdjust="spacing" textLength="105" x="67.5" y="156.0654">Change Password</text><path d="M119.5,175.9219 L278.5,175.9219 L278.5,184.2734 L268.5,194.2734 L119.5,194.2734 L119.5,175.9219 " fill="#EEEEEE" style="stroke:#000000;stroke-width:1.5;"/><rect fill="none" height="141.7578" style="stroke:#000000;stroke-width:1.5;" width="549.5" x="119.5" y="175.9219"/><text fill="#000000" font-family="sans-serif" font-size="13" font-weight="bold" lengthAdjust="spacing" textLength="114" x="134.5" y="190.417">Change Password</text><polygon fill="#181818" points="306.5,212.625,316.5,216.625,306.5,220.625,310.5,216.625" style="stroke:#181818;stroke-width:1.0;"/><line style="stroke:#181818;stroke-width:1.0;" x1="189.5" x2="312.5" y1="216.625" y2="216.625"/><text fill="#000000" font-family="sans-serif" font-size="13" lengthAdjust="spacing" textLength="105" x="196.5" y="211.7686">Change Password</text><path d="M254.5,231.625 L413.5,231.625 L413.5,239.9766 L403.5,249.9766 L254.5,249.9766 L254.5,231.625 " fill="#EEEEEE" style="stroke:#000000;stroke-width:1.5;"/><rect fill="none" height="79.0547" style="stroke:#000000;stroke-width:1.5;" width="404.5" x="254.5" y="231.625"/><text fill="#000000" font-family="sans-serif" font-size="13" font-weight="bold" lengthAdjust="spacing" textLength="114" x="269.5" y="246.1201">Change Password</text><polygon fill="#181818" points="463.5,268.3281,473.5,272.3281,463.5,276.3281,467.5,272.3281" style="stroke:#181818;stroke-width:1.0;"/><line style="stroke:#181818;stroke-width:1.0;" x1="318.5" x2="469.5" y1="272.3281" y2="272.3281"/><text fill="#000000" font-family="sans-serif" font-size="13" lengthAdjust="spacing" textLength="133" x="325.5" y="267.4717">Update User Password</text><polygon fill="#181818" points="585.5,298.6797,595.5,302.6797,585.5,306.6797,589.5,302.6797" style="stroke:#181818;stroke-width:1.0;"/><line style="stroke:#181818;stroke-width:1.0;" x1="318.5" x2="591.5" y1="302.6797" y2="302.6797"/><text fill="#000000" font-family="sans-serif" font-size="13" lengthAdjust="spacing" textLength="255" x="325.5" y="297.8232">Send Password Changed Notification E-Mail</text><!--SRC=[lPGnJyCm48Lt_ufJc9E9YG6fBKNg08eKLSpNv9fQ6Dl4LrB-FNPIbpOPG6qXKfJuOdtlsVTYbgm8fhAUedxDLGafB3HJeuaXbAIkVQdm3qLfZZN1n5fVcMrG-q6EphMcgS8SUj-IBYbyD9fHQcf0qGSf8ImsB4jfKJCayrtWeqe07SnkExb7PTgiC6jkiQ7Yqp6zkInExCT2hCmEag6x16vUDf99WBzET0QcExdlXOxK8dZFpGwBS5bF2Y3F6GjDyaKGKB94baPV8EH9Hw1EgKB65Jg2v67_TW4_8WJf2lns3ZkJFg5Kq8D-afc7kR4rlsyZfFVNw0BS3ICewiPixQXw3QspBP_syuyz3yJEDXr3ukqkhOyVmTBvN_a_tHrboxieGbeF9qs_MHKy6vRhYEkJ6sBTtU8B]--></g></svg>