<?xml version="1.0" encoding="us-ascii" standalone="no"?><svg xmlns="http://www.w3.org/2000/svg" xmlns:xlink="http://www.w3.org/1999/xlink" contentStyleType="text/css" height="383px" preserveAspectRatio="none" style="width:866px;height:383px;background:#FFFFFF;" version="1.1" viewBox="0 0 866 383" width="866px" zoomAndPan="magnify"><defs/><g><text fill="#000000" font-family="sans-serif" font-size="14" font-weight="bold" lengthAdjust="spacing" textLength="838" x="10" y="29.5332">E Commerce Platform - Generate Demand - Storefront - Storefront Bff - Update Basket Item - Sequence - Container level</text><rect fill="#FFFFFF" height="326.3281" style="stroke:#181818;stroke-width:0.5;" width="152.5" x="465" y="44.6094"/><text fill="#000000" font-family="sans-serif" font-size="13" font-weight="bold" lengthAdjust="spacing" textLength="94" x="494.25" y="58.1045">Basket Service</text><rect fill="none" height="111.4063" style="stroke:#000000;stroke-width:1.5;" width="300.5" x="333" y="175.9219"/><rect fill="none" height="48.7031" style="stroke:#000000;stroke-width:1.5;" width="164.5" x="459" y="231.625"/><line style="stroke:#181818;stroke-width:0.5;stroke-dasharray:5.0,5.0;" x1="252.5" x2="252.5" y1="128.5703" y2="304.3281"/><line style="stroke:#181818;stroke-width:0.5;stroke-dasharray:5.0,5.0;" x1="392" x2="392" y1="128.5703" y2="304.3281"/><line style="stroke:#181818;stroke-width:0.5;stroke-dasharray:5.0,5.0;" x1="486" x2="486" y1="128.5703" y2="304.3281"/><line style="stroke:#181818;stroke-width:0.5;stroke-dasharray:5.0,5.0;" x1="579.5" x2="579.5" y1="128.5703" y2="304.3281"/><rect fill="#E2E2F0" height="31.6094" rx="2.5" ry="2.5" style="stroke:#181818;stroke-width:0.5;" width="65" x="220.5" y="95.9609"/><text fill="#000000" font-family="sans-serif" font-size="14" lengthAdjust="spacing" textLength="51" x="227.5" y="117.4941">External</text><rect fill="#E2E2F0" height="31.6094" rx="2.5" ry="2.5" style="stroke:#181818;stroke-width:0.5;" width="65" x="220.5" y="303.3281"/><text fill="#000000" font-family="sans-serif" font-size="14" lengthAdjust="spacing" textLength="51" x="227.5" y="324.8613">External</text><rect fill="#E2E2F0" height="31.6094" rx="2.5" ry="2.5" style="stroke:#181818;stroke-width:0.5;" width="98" x="343" y="95.9609"/><text fill="#000000" font-family="sans-serif" font-size="14" lengthAdjust="spacing" textLength="84" x="350" y="117.4941">Storefront Bff</text><rect fill="#E2E2F0" height="31.6094" rx="2.5" ry="2.5" style="stroke:#181818;stroke-width:0.5;" width="98" x="343" y="303.3281"/><text fill="#000000" font-family="sans-serif" font-size="14" lengthAdjust="spacing" textLength="84" x="350" y="324.8613">Storefront Bff</text><rect fill="#E2E2F0" height="31.6094" rx="2.5" ry="2.5" style="stroke:#181818;stroke-width:0.5;" width="34" x="469" y="95.9609"/><text fill="#000000" font-family="sans-serif" font-size="14" lengthAdjust="spacing" textLength="20" x="476" y="117.4941">Api</text><rect fill="#E2E2F0" height="31.6094" rx="2.5" ry="2.5" style="stroke:#181818;stroke-width:0.5;" width="34" x="469" y="303.3281"/><text fill="#000000" font-family="sans-serif" font-size="14" lengthAdjust="spacing" textLength="20" x="476" y="324.8613">Api</text><text fill="#000000" font-family="sans-serif" font-size="14" lengthAdjust="spacing" textLength="61" x="546.5" y="125.4941">Database</text><path d="M562,74.9609 C562,64.9609 580,64.9609 580,64.9609 C580,64.9609 598,64.9609 598,74.9609 L598,100.9609 C598,110.9609 580,110.9609 580,110.9609 C580,110.9609 562,110.9609 562,100.9609 L562,74.9609 " fill="#E2E2F0" style="stroke:#181818;stroke-width:1.5;"/><path d="M562,74.9609 C562,84.9609 580,84.9609 580,84.9609 C580,84.9609 598,84.9609 598,74.9609 " fill="none" style="stroke:#181818;stroke-width:1.5;"/><text fill="#000000" font-family="sans-serif" font-size="14" lengthAdjust="spacing" textLength="61" x="546.5" y="317.8613">Database</text><path d="M562,330.9375 C562,320.9375 580,320.9375 580,320.9375 C580,320.9375 598,320.9375 598,330.9375 L598,356.9375 C598,366.9375 580,366.9375 580,366.9375 C580,366.9375 562,366.9375 562,356.9375 L562,330.9375 " fill="#E2E2F0" style="stroke:#181818;stroke-width:1.5;"/><path d="M562,330.9375 C562,340.9375 580,340.9375 580,340.9375 C580,340.9375 598,340.9375 598,330.9375 " fill="none" style="stroke:#181818;stroke-width:1.5;"/><polygon fill="#181818" points="380,156.9219,390,160.9219,380,164.9219,384,160.9219" style="stroke:#181818;stroke-width:1.0;"/><line style="stroke:#181818;stroke-width:1.0;" x1="253" x2="386" y1="160.9219" y2="160.9219"/><text fill="#000000" font-family="sans-serif" font-size="13" lengthAdjust="spacing" textLength="115" x="260" y="156.0654">Update Basket Item</text><path d="M333,175.9219 L501,175.9219 L501,184.2734 L491,194.2734 L333,194.2734 L333,175.9219 " fill="#EEEEEE" style="stroke:#000000;stroke-width:1.5;"/><rect fill="none" height="111.4063" style="stroke:#000000;stroke-width:1.5;" width="300.5" x="333" y="175.9219"/><text fill="#000000" font-family="sans-serif" font-size="13" font-weight="bold" lengthAdjust="spacing" textLength="123" x="348" y="190.417">Update Basket Item</text><polygon fill="#181818" points="474,212.625,484,216.625,474,220.625,478,216.625" style="stroke:#181818;stroke-width:1.0;"/><line style="stroke:#181818;stroke-width:1.0;" x1="392" x2="480" y1="216.625" y2="216.625"/><text fill="#000000" font-family="sans-serif" font-size="13" lengthAdjust="spacing" textLength="70" x="399" y="211.7686">Update Item</text><path d="M459,231.625 L581,231.625 L581,239.9766 L571,249.9766 L459,249.9766 L459,231.625 " fill="#EEEEEE" style="stroke:#000000;stroke-width:1.5;"/><rect fill="none" height="48.7031" style="stroke:#000000;stroke-width:1.5;" width="164.5" x="459" y="231.625"/><text fill="#000000" font-family="sans-serif" font-size="13" font-weight="bold" lengthAdjust="spacing" textLength="77" x="474" y="246.1201">Update Item</text><polygon fill="#181818" points="568,268.3281,578,272.3281,568,276.3281,572,272.3281" style="stroke:#181818;stroke-width:1.0;"/><line style="stroke:#181818;stroke-width:1.0;" x1="486" x2="574" y1="272.3281" y2="272.3281"/><text fill="#000000" font-family="sans-serif" font-size="13" lengthAdjust="spacing" textLength="70" x="493" y="267.4717">Update Item</text><!--SRC=[jP9DJyCm38Rl-HLMEJSdJXoGs5RGRaWLuknrBaIaIKcy3_uzNZ-eIdUefYrIfTX9tpUFRJPi2J9O-ggYK12yMkJIXmfIU2570PbWHHMwhMHoze7Au1sFWqLPIkAjtfvkBp1-4SEQwIIIq_UEd0Yduk4OZMY2fJrPfMeCR0fJeqWasP4fEBG9O8Jb_Tf9-6pzGUU-v0C6od-YI4RTNspZiSZuJOrKrgFrPBhdQh7qyC_4QZWIDQKs_WX9XvTJs9k24hXx_pHC2cIDdl9Kctd-hU34kqrtDlglTb6BSECcnSODHe9arUrkuzUhAv8Pa18efUQt1zB7wtK07ixCcFe8VbUVExYUxno82zeuy4n1vX5SOdeBc7v6_X79n3IV-WK0]--></g></svg>