<?xml version="1.0" encoding="us-ascii" standalone="no"?><svg xmlns="http://www.w3.org/2000/svg" xmlns:xlink="http://www.w3.org/1999/xlink" contentStyleType="text/css" height="414px" preserveAspectRatio="none" style="width:950px;height:414px;background:#FFFFFF;" version="1.1" viewBox="0 0 950 414" width="950px" zoomAndPan="magnify"><defs/><g><text fill="#000000" font-family="sans-serif" font-size="14" font-weight="bold" lengthAdjust="spacing" textLength="922" x="10" y="29.5332">E Commerce Platform - Deliver - Customer Management - CRM App - Update Order Fraud Check Result - Sequence - Container level</text><rect fill="#FFFFFF" height="356.6797" style="stroke:#181818;stroke-width:0.5;" width="334.5" x="519.5" y="44.6094"/><text fill="#000000" font-family="sans-serif" font-size="13" font-weight="bold" lengthAdjust="spacing" textLength="89" x="642.25" y="58.1045">Fraud Service</text><rect fill="none" height="141.7578" style="stroke:#000000;stroke-width:1.5;" width="596.5" x="273.5" y="175.9219"/><rect fill="none" height="79.0547" style="stroke:#000000;stroke-width:1.5;" width="346.5" x="513.5" y="231.625"/><line style="stroke:#181818;stroke-width:0.5;stroke-dasharray:5.0,5.0;" x1="100" x2="100" y1="128.5703" y2="334.6797"/><line style="stroke:#181818;stroke-width:0.5;stroke-dasharray:5.0,5.0;" x1="320.5" x2="320.5" y1="128.5703" y2="334.6797"/><line style="stroke:#181818;stroke-width:0.5;stroke-dasharray:5.0,5.0;" x1="540.5" x2="540.5" y1="128.5703" y2="334.6797"/><line style="stroke:#181818;stroke-width:0.5;stroke-dasharray:5.0,5.0;" x1="724" x2="724" y1="128.5703" y2="334.6797"/><line style="stroke:#181818;stroke-width:0.5;stroke-dasharray:5.0,5.0;" x1="809" x2="809" y1="128.5703" y2="334.6797"/><rect fill="#E2E2F0" height="31.6094" rx="2.5" ry="2.5" style="stroke:#181818;stroke-width:0.5;" width="65" x="68" y="95.9609"/><text fill="#000000" font-family="sans-serif" font-size="14" lengthAdjust="spacing" textLength="51" x="75" y="117.4941">External</text><rect fill="#E2E2F0" height="31.6094" rx="2.5" ry="2.5" style="stroke:#181818;stroke-width:0.5;" width="65" x="68" y="333.6797"/><text fill="#000000" font-family="sans-serif" font-size="14" lengthAdjust="spacing" textLength="51" x="75" y="355.2129">External</text><rect fill="#E2E2F0" height="31.6094" rx="2.5" ry="2.5" style="stroke:#181818;stroke-width:0.5;" width="74" x="283.5" y="95.9609"/><text fill="#000000" font-family="sans-serif" font-size="14" lengthAdjust="spacing" textLength="60" x="290.5" y="117.4941">CRM App</text><rect fill="#E2E2F0" height="31.6094" rx="2.5" ry="2.5" style="stroke:#181818;stroke-width:0.5;" width="74" x="283.5" y="333.6797"/><text fill="#000000" font-family="sans-serif" font-size="14" lengthAdjust="spacing" textLength="60" x="290.5" y="355.2129">CRM App</text><rect fill="#E2E2F0" height="31.6094" rx="2.5" ry="2.5" style="stroke:#181818;stroke-width:0.5;" width="34" x="523.5" y="95.9609"/><text fill="#000000" font-family="sans-serif" font-size="14" lengthAdjust="spacing" textLength="20" x="530.5" y="117.4941">Api</text><rect fill="#E2E2F0" height="31.6094" rx="2.5" ry="2.5" style="stroke:#181818;stroke-width:0.5;" width="34" x="523.5" y="333.6797"/><text fill="#000000" font-family="sans-serif" font-size="14" lengthAdjust="spacing" textLength="20" x="530.5" y="355.2129">Api</text><text fill="#000000" font-family="sans-serif" font-size="14" lengthAdjust="spacing" textLength="61" x="691" y="125.4941">Database</text><path d="M706.5,74.9609 C706.5,64.9609 724.5,64.9609 724.5,64.9609 C724.5,64.9609 742.5,64.9609 742.5,74.9609 L742.5,100.9609 C742.5,110.9609 724.5,110.9609 724.5,110.9609 C724.5,110.9609 706.5,110.9609 706.5,100.9609 L706.5,74.9609 " fill="#E2E2F0" style="stroke:#181818;stroke-width:1.5;"/><path d="M706.5,74.9609 C706.5,84.9609 724.5,84.9609 724.5,84.9609 C724.5,84.9609 742.5,84.9609 742.5,74.9609 " fill="none" style="stroke:#181818;stroke-width:1.5;"/><text fill="#000000" font-family="sans-serif" font-size="14" lengthAdjust="spacing" textLength="61" x="691" y="348.2129">Database</text><path d="M706.5,361.2891 C706.5,351.2891 724.5,351.2891 724.5,351.2891 C724.5,351.2891 742.5,351.2891 742.5,361.2891 L742.5,387.2891 C742.5,397.2891 724.5,397.2891 724.5,397.2891 C724.5,397.2891 706.5,397.2891 706.5,387.2891 L706.5,361.2891 " fill="#E2E2F0" style="stroke:#181818;stroke-width:1.5;"/><path d="M706.5,361.2891 C706.5,371.2891 724.5,371.2891 724.5,371.2891 C724.5,371.2891 742.5,371.2891 742.5,361.2891 " fill="none" style="stroke:#181818;stroke-width:1.5;"/><rect fill="#E2E2F0" height="31.6094" rx="2.5" ry="2.5" style="stroke:#181818;stroke-width:0.5;" width="82" x="768" y="95.9609"/><text fill="#000000" font-family="sans-serif" font-size="14" lengthAdjust="spacing" textLength="68" x="775" y="117.4941">Messaging</text><rect fill="#E2E2F0" height="31.6094" rx="2.5" ry="2.5" style="stroke:#181818;stroke-width:0.5;" width="82" x="768" y="333.6797"/><text fill="#000000" font-family="sans-serif" font-size="14" lengthAdjust="spacing" textLength="68" x="775" y="355.2129">Messaging</text><polygon fill="#181818" points="308.5,156.9219,318.5,160.9219,308.5,164.9219,312.5,160.9219" style="stroke:#181818;stroke-width:1.0;"/><line style="stroke:#181818;stroke-width:1.0;" x1="100.5" x2="314.5" y1="160.9219" y2="160.9219"/><text fill="#000000" font-family="sans-serif" font-size="13" lengthAdjust="spacing" textLength="196" x="107.5" y="156.0654">Update Order Fraud Check Result</text><path d="M273.5,175.9219 L530.5,175.9219 L530.5,184.2734 L520.5,194.2734 L273.5,194.2734 L273.5,175.9219 " fill="#EEEEEE" style="stroke:#000000;stroke-width:1.5;"/><rect fill="none" height="141.7578" style="stroke:#000000;stroke-width:1.5;" width="596.5" x="273.5" y="175.9219"/><text fill="#000000" font-family="sans-serif" font-size="13" font-weight="bold" lengthAdjust="spacing" textLength="212" x="288.5" y="190.417">Update Order Fraud Check Result</text><polygon fill="#181818" points="528.5,212.625,538.5,216.625,528.5,220.625,532.5,216.625" style="stroke:#181818;stroke-width:1.0;"/><line style="stroke:#181818;stroke-width:1.0;" x1="320.5" x2="534.5" y1="216.625" y2="216.625"/><text fill="#000000" font-family="sans-serif" font-size="13" lengthAdjust="spacing" textLength="196" x="327.5" y="211.7686">Update Order Fraud Check Result</text><path d="M513.5,231.625 L770.5,231.625 L770.5,239.9766 L760.5,249.9766 L513.5,249.9766 L513.5,231.625 " fill="#EEEEEE" style="stroke:#000000;stroke-width:1.5;"/><rect fill="none" height="79.0547" style="stroke:#000000;stroke-width:1.5;" width="346.5" x="513.5" y="231.625"/><text fill="#000000" font-family="sans-serif" font-size="13" font-weight="bold" lengthAdjust="spacing" textLength="212" x="528.5" y="246.1201">Update Order Fraud Check Result</text><polygon fill="#181818" points="712.5,268.3281,722.5,272.3281,712.5,276.3281,716.5,272.3281" style="stroke:#181818;stroke-width:1.0;"/><line style="stroke:#181818;stroke-width:1.0;" x1="540.5" x2="718.5" y1="272.3281" y2="272.3281"/><text fill="#000000" font-family="sans-serif" font-size="13" lengthAdjust="spacing" textLength="160" x="547.5" y="267.4717">Update Fraud Check Result</text><polygon fill="#181818" points="797,298.6797,807,302.6797,797,306.6797,801,302.6797" style="stroke:#181818;stroke-width:1.0;"/><line style="stroke:#181818;stroke-width:1.0;" x1="540.5" x2="803" y1="302.6797" y2="302.6797"/><text fill="#000000" font-family="sans-serif" font-size="13" lengthAdjust="spacing" textLength="185" x="547.5" y="297.8232">Send Fraud Check Result Event</text><!--SRC=[rPJ1Qi9048Rl-nH3UZQdddeeI8pGWxGOIizZCiR5pUvsTnFjstSI4qKiMb0B3GHsivF_dsyoao238aWXCLL5BYTuKnYMnbKmWWafsP3ZLLBxOFWSPgYnf8fqQ9_EPp2sbbVlji10yEeAZfawh0j8LfIlOKw-LcriHfyrQTRdrumEA3L7Acf82M7H1PbBYwmQfTj0JgEA03qaZo-QjrDbDd5cbc63Zh8l7wZoyH2usn-Bz9br6kc0Df35FLSyK1sWJanOY7M4M9WjH3kmZ5mZSuhWuMCb0mdWwyXyREK5uqxeZ6jttll4-tBvc9KxEousBj0JH9D-TIV3GVuKSaRUOobrUIVdlRuWNG2NNmZn-sw0qVCjlZiyNUfiKJfJsujHjyZbBD8L7VK7aDTaTnVieQyFxF-RPpyj39Ir0_F3FpXjMB6TfkuMtm00]--></g></svg>