<?xml version="1.0" encoding="us-ascii" standalone="no"?><svg xmlns="http://www.w3.org/2000/svg" xmlns:xlink="http://www.w3.org/1999/xlink" contentStyleType="text/css" height="318px" preserveAspectRatio="none" style="width:936px;height:318px;background:#FFFFFF;" version="1.1" viewBox="0 0 936 318" width="936px" zoomAndPan="magnify"><defs/><g><text fill="#000000" font-family="sans-serif" font-size="14" font-weight="bold" lengthAdjust="spacing" textLength="908" x="10" y="29.5332">E Commerce Platform - Deliver - Customer Management - CRM App - Update Order Fraud Check Result - Sequence - Context level</text><rect fill="none" height="141.7578" style="stroke:#000000;stroke-width:1.5;" width="428" x="350.75" y="123.5703"/><rect fill="none" height="79.0547" style="stroke:#000000;stroke-width:1.5;" width="334" x="434.75" y="179.2734"/><line style="stroke:#181818;stroke-width:0.5;stroke-dasharray:5.0,5.0;" x1="177.25" x2="177.25" y1="76.2188" y2="282.3281"/><line style="stroke:#181818;stroke-width:0.5;stroke-dasharray:5.0,5.0;" x1="397.75" x2="397.75" y1="76.2188" y2="282.3281"/><line style="stroke:#181818;stroke-width:0.5;stroke-dasharray:5.0,5.0;" x1="495.75" x2="495.75" y1="76.2188" y2="282.3281"/><line style="stroke:#181818;stroke-width:0.5;stroke-dasharray:5.0,5.0;" x1="704.75" x2="704.75" y1="76.2188" y2="282.3281"/><rect fill="#E2E2F0" height="31.6094" rx="2.5" ry="2.5" style="stroke:#181818;stroke-width:0.5;" width="65" x="145.25" y="43.6094"/><text fill="#000000" font-family="sans-serif" font-size="14" lengthAdjust="spacing" textLength="51" x="152.25" y="65.1426">External</text><rect fill="#E2E2F0" height="31.6094" rx="2.5" ry="2.5" style="stroke:#181818;stroke-width:0.5;" width="65" x="145.25" y="281.3281"/><text fill="#000000" font-family="sans-serif" font-size="14" lengthAdjust="spacing" textLength="51" x="152.25" y="302.8613">External</text><rect fill="#E2E2F0" height="31.6094" rx="2.5" ry="2.5" style="stroke:#181818;stroke-width:0.5;" width="74" x="360.75" y="43.6094"/><text fill="#000000" font-family="sans-serif" font-size="14" lengthAdjust="spacing" textLength="60" x="367.75" y="65.1426">CRM App</text><rect fill="#E2E2F0" height="31.6094" rx="2.5" ry="2.5" style="stroke:#181818;stroke-width:0.5;" width="74" x="360.75" y="281.3281"/><text fill="#000000" font-family="sans-serif" font-size="14" lengthAdjust="spacing" textLength="60" x="367.75" y="302.8613">CRM App</text><rect fill="#E2E2F0" height="31.6094" rx="2.5" ry="2.5" style="stroke:#181818;stroke-width:0.5;" width="103" x="444.75" y="43.6094"/><text fill="#000000" font-family="sans-serif" font-size="14" lengthAdjust="spacing" textLength="89" x="451.75" y="65.1426">Fraud Service</text><rect fill="#E2E2F0" height="31.6094" rx="2.5" ry="2.5" style="stroke:#181818;stroke-width:0.5;" width="103" x="444.75" y="281.3281"/><text fill="#000000" font-family="sans-serif" font-size="14" lengthAdjust="spacing" textLength="89" x="451.75" y="302.8613">Fraud Service</text><rect fill="#E2E2F0" height="31.6094" rx="2.5" ry="2.5" style="stroke:#181818;stroke-width:0.5;" width="107" x="651.75" y="43.6094"/><text fill="#000000" font-family="sans-serif" font-size="14" lengthAdjust="spacing" textLength="93" x="658.75" y="65.1426">..FraudService</text><rect fill="#E2E2F0" height="31.6094" rx="2.5" ry="2.5" style="stroke:#181818;stroke-width:0.5;" width="107" x="651.75" y="281.3281"/><text fill="#000000" font-family="sans-serif" font-size="14" lengthAdjust="spacing" textLength="93" x="658.75" y="302.8613">..FraudService</text><polygon fill="#181818" points="385.75,104.5703,395.75,108.5703,385.75,112.5703,389.75,108.5703" style="stroke:#181818;stroke-width:1.0;"/><line style="stroke:#181818;stroke-width:1.0;" x1="177.75" x2="391.75" y1="108.5703" y2="108.5703"/><text fill="#000000" font-family="sans-serif" font-size="13" lengthAdjust="spacing" textLength="196" x="184.75" y="103.7139">Update Order Fraud Check Result</text><path d="M350.75,123.5703 L607.75,123.5703 L607.75,131.9219 L597.75,141.9219 L350.75,141.9219 L350.75,123.5703 " fill="#EEEEEE" style="stroke:#000000;stroke-width:1.5;"/><rect fill="none" height="141.7578" style="stroke:#000000;stroke-width:1.5;" width="428" x="350.75" y="123.5703"/><text fill="#000000" font-family="sans-serif" font-size="13" font-weight="bold" lengthAdjust="spacing" textLength="212" x="365.75" y="138.0654">Update Order Fraud Check Result</text><polygon fill="#181818" points="693.25,160.2734,703.25,164.2734,693.25,168.2734,697.25,164.2734" style="stroke:#181818;stroke-width:1.0;"/><line style="stroke:#181818;stroke-width:1.0;" x1="397.75" x2="699.25" y1="164.2734" y2="164.2734"/><text fill="#000000" font-family="sans-serif" font-size="13" lengthAdjust="spacing" textLength="196" x="404.75" y="159.417">Update Order Fraud Check Result</text><path d="M434.75,179.2734 L691.75,179.2734 L691.75,187.625 L681.75,197.625 L434.75,197.625 L434.75,179.2734 " fill="#EEEEEE" style="stroke:#000000;stroke-width:1.5;"/><rect fill="none" height="79.0547" style="stroke:#000000;stroke-width:1.5;" width="334" x="434.75" y="179.2734"/><text fill="#000000" font-family="sans-serif" font-size="13" font-weight="bold" lengthAdjust="spacing" textLength="212" x="449.75" y="193.7686">Update Order Fraud Check Result</text><polygon fill="#181818" points="507.25,215.9766,497.25,219.9766,507.25,223.9766,503.25,219.9766" style="stroke:#181818;stroke-width:1.0;"/><line style="stroke:#181818;stroke-width:1.0;" x1="501.25" x2="704.25" y1="219.9766" y2="219.9766"/><text fill="#000000" font-family="sans-serif" font-size="13" lengthAdjust="spacing" textLength="160" x="513.25" y="215.1201">Update Fraud Check Result</text><polygon fill="#181818" points="507.25,246.3281,497.25,250.3281,507.25,254.3281,503.25,250.3281" style="stroke:#181818;stroke-width:1.0;"/><line style="stroke:#181818;stroke-width:1.0;" x1="501.25" x2="704.25" y1="250.3281" y2="250.3281"/><text fill="#000000" font-family="sans-serif" font-size="13" lengthAdjust="spacing" textLength="185" x="513.25" y="245.4717">Send Fraud Check Result Event</text><!--SRC=[lPF1JeD048Rl-nIJtil9amSJWpJnq6XAV80D_At4PNST1bhVtYc5DAWfcZGUI1Rcts_csmrIYGDbb8Qw1XUWPsTb6xYc9Jt0LHrOLsdRID0whQstEzJmSlowMTDzZBfwYQKLq1ENcbcnRKjANr6yqGPDwuxP7EyjlF9rM_22Wv131sTCj2nLKKMhp4Ls4B2tRa6seVJcKPEySc6Vv64hUyl8Fnf1tIHZyFG-XGnpzOni51kzai4g6PtEIj-QA4WvK_Z9BWTtLO6P5dts0h-l3oXZVgzBoxjhYD7jtCMP7OSspgQkCOig9PC3kTfqNx0Np-ulDtOUy7-Rvl3bJpzPrkbceyN-CPy0]--></g></svg>