<?xml version="1.0" encoding="us-ascii" standalone="no"?><svg xmlns="http://www.w3.org/2000/svg" xmlns:xlink="http://www.w3.org/1999/xlink" contentStyleType="text/css" height="345px" preserveAspectRatio="none" style="width:950px;height:345px;background:#FFFFFF;" version="1.1" viewBox="0 0 950 345" width="950px" zoomAndPan="magnify"><defs/><g><text fill="#000000" font-family="sans-serif" font-size="14" font-weight="bold" lengthAdjust="spacing" textLength="922" x="10" y="29.5332">E Commerce Platform - Deliver - Customer Management - CRM App - Update Order Fraud Check Result - Sequence - Container level</text><rect fill="#FFFFFF" height="294.6797" style="stroke:#181818;stroke-width:0.5;" width="338.5" x="517.5" y="44.6094"/><text fill="#000000" font-family="sans-serif" font-size="13" font-weight="bold" lengthAdjust="spacing" textLength="89" x="642.25" y="58.1045">Fraud Service</text><rect fill="none" height="141.7578" style="stroke:#000000;stroke-width:1.5;" width="600.5" x="271.5" y="144.9219"/><rect fill="none" height="79.0547" style="stroke:#000000;stroke-width:1.5;" width="350.5" x="511.5" y="200.625"/><line style="stroke:#181818;stroke-width:0.5;stroke-dasharray:5.0,5.0;" x1="98" x2="98" y1="97.5703" y2="303.6797"/><line style="stroke:#181818;stroke-width:0.5;stroke-dasharray:5.0,5.0;" x1="318.5" x2="318.5" y1="97.5703" y2="303.6797"/><line style="stroke:#181818;stroke-width:0.5;stroke-dasharray:5.0,5.0;" x1="538.5" x2="538.5" y1="97.5703" y2="303.6797"/><line style="stroke:#181818;stroke-width:0.5;stroke-dasharray:5.0,5.0;" x1="722" x2="722" y1="97.5703" y2="303.6797"/><line style="stroke:#181818;stroke-width:0.5;stroke-dasharray:5.0,5.0;" x1="811" x2="811" y1="97.5703" y2="303.6797"/><rect fill="#E2E2F0" height="31.6094" rx="2.5" ry="2.5" style="stroke:#181818;stroke-width:0.5;" width="65" x="66" y="64.9609"/><text fill="#000000" font-family="sans-serif" font-size="14" lengthAdjust="spacing" textLength="51" x="73" y="86.4941">External</text><rect fill="#E2E2F0" height="31.6094" rx="2.5" ry="2.5" style="stroke:#181818;stroke-width:0.5;" width="65" x="66" y="302.6797"/><text fill="#000000" font-family="sans-serif" font-size="14" lengthAdjust="spacing" textLength="51" x="73" y="324.2129">External</text><rect fill="#E2E2F0" height="31.6094" rx="2.5" ry="2.5" style="stroke:#181818;stroke-width:0.5;" width="74" x="281.5" y="64.9609"/><text fill="#000000" font-family="sans-serif" font-size="14" lengthAdjust="spacing" textLength="60" x="288.5" y="86.4941">CRM App</text><rect fill="#E2E2F0" height="31.6094" rx="2.5" ry="2.5" style="stroke:#181818;stroke-width:0.5;" width="74" x="281.5" y="302.6797"/><text fill="#000000" font-family="sans-serif" font-size="14" lengthAdjust="spacing" textLength="60" x="288.5" y="324.2129">CRM App</text><rect fill="#E2E2F0" height="31.6094" rx="2.5" ry="2.5" style="stroke:#181818;stroke-width:0.5;" width="34" x="521.5" y="64.9609"/><text fill="#000000" font-family="sans-serif" font-size="14" lengthAdjust="spacing" textLength="20" x="528.5" y="86.4941">Api</text><rect fill="#E2E2F0" height="31.6094" rx="2.5" ry="2.5" style="stroke:#181818;stroke-width:0.5;" width="34" x="521.5" y="302.6797"/><text fill="#000000" font-family="sans-serif" font-size="14" lengthAdjust="spacing" textLength="20" x="528.5" y="324.2129">Api</text><rect fill="#E2E2F0" height="31.6094" rx="2.5" ry="2.5" style="stroke:#181818;stroke-width:0.5;" width="75" x="685" y="64.9609"/><text fill="#000000" font-family="sans-serif" font-size="14" lengthAdjust="spacing" textLength="61" x="692" y="86.4941">Database</text><rect fill="#E2E2F0" height="31.6094" rx="2.5" ry="2.5" style="stroke:#181818;stroke-width:0.5;" width="75" x="685" y="302.6797"/><text fill="#000000" font-family="sans-serif" font-size="14" lengthAdjust="spacing" textLength="61" x="692" y="324.2129">Database</text><rect fill="#E2E2F0" height="31.6094" rx="2.5" ry="2.5" style="stroke:#181818;stroke-width:0.5;" width="82" x="770" y="64.9609"/><text fill="#000000" font-family="sans-serif" font-size="14" lengthAdjust="spacing" textLength="68" x="777" y="86.4941">Messaging</text><rect fill="#E2E2F0" height="31.6094" rx="2.5" ry="2.5" style="stroke:#181818;stroke-width:0.5;" width="82" x="770" y="302.6797"/><text fill="#000000" font-family="sans-serif" font-size="14" lengthAdjust="spacing" textLength="68" x="777" y="324.2129">Messaging</text><polygon fill="#181818" points="306.5,125.9219,316.5,129.9219,306.5,133.9219,310.5,129.9219" style="stroke:#181818;stroke-width:1.0;"/><line style="stroke:#181818;stroke-width:1.0;" x1="98.5" x2="312.5" y1="129.9219" y2="129.9219"/><text fill="#000000" font-family="sans-serif" font-size="13" lengthAdjust="spacing" textLength="196" x="105.5" y="125.0654">Update Order Fraud Check Result</text><path d="M271.5,144.9219 L528.5,144.9219 L528.5,153.2734 L518.5,163.2734 L271.5,163.2734 L271.5,144.9219 " fill="#EEEEEE" style="stroke:#000000;stroke-width:1.5;"/><rect fill="none" height="141.7578" style="stroke:#000000;stroke-width:1.5;" width="600.5" x="271.5" y="144.9219"/><text fill="#000000" font-family="sans-serif" font-size="13" font-weight="bold" lengthAdjust="spacing" textLength="212" x="286.5" y="159.417">Update Order Fraud Check Result</text><polygon fill="#181818" points="526.5,181.625,536.5,185.625,526.5,189.625,530.5,185.625" style="stroke:#181818;stroke-width:1.0;"/><line style="stroke:#181818;stroke-width:1.0;" x1="318.5" x2="532.5" y1="185.625" y2="185.625"/><text fill="#000000" font-family="sans-serif" font-size="13" lengthAdjust="spacing" textLength="196" x="325.5" y="180.7686">Update Order Fraud Check Result</text><path d="M511.5,200.625 L768.5,200.625 L768.5,208.9766 L758.5,218.9766 L511.5,218.9766 L511.5,200.625 " fill="#EEEEEE" style="stroke:#000000;stroke-width:1.5;"/><rect fill="none" height="79.0547" style="stroke:#000000;stroke-width:1.5;" width="350.5" x="511.5" y="200.625"/><text fill="#000000" font-family="sans-serif" font-size="13" font-weight="bold" lengthAdjust="spacing" textLength="212" x="526.5" y="215.1201">Update Order Fraud Check Result</text><polygon fill="#181818" points="710.5,237.3281,720.5,241.3281,710.5,245.3281,714.5,241.3281" style="stroke:#181818;stroke-width:1.0;"/><line style="stroke:#181818;stroke-width:1.0;" x1="538.5" x2="716.5" y1="241.3281" y2="241.3281"/><text fill="#000000" font-family="sans-serif" font-size="13" lengthAdjust="spacing" textLength="160" x="545.5" y="236.4717">Update Fraud Check Result</text><polygon fill="#181818" points="799,267.6797,809,271.6797,799,275.6797,803,271.6797" style="stroke:#181818;stroke-width:1.0;"/><line style="stroke:#181818;stroke-width:1.0;" x1="538.5" x2="805" y1="271.6797" y2="271.6797"/><text fill="#000000" font-family="sans-serif" font-size="13" lengthAdjust="spacing" textLength="185" x="545.5" y="266.8232">Send Fraud Check Result Event</text><!--SRC=[rPHDQy9048Rl-ok6z6nEFVLGa1YX1sanb9x7P8oBcztjxYRQVzz9D8fOJ44jDB2m7vFtdISxao238aWXCLL5BYTuKnYMnbKmWWafsP3ZMLBxOFWSPgYnf8fqQ7VdCnXRoxDtMs0WU7K5nqmTrWKaAyhNC2TVgpOsey-QDElpQqO7b9eZ5JMaXB3eWiobHLQDqcqWfr55W1wInnVDowaocpWpox11HzcN3rJvk0_ShKz5zfbr6ccFrfF5Uwwufpf2dPcm4Ei8iJ1RY7PW6Rb6vXJ1myTA1XB0pudvsCe1uqxeWcjtllU93v_BnwnyRZV1W0lqT2VFNlxSU4RUOobrUIVdWxuWNG3VW13YzmK1e-TRN3qy3HMtA9sfxM3KBNAvY7H5KVq1v3NPtGMxh-iZ-__cENGB0sLjm_pm6quRLcoxgHlY6m00]--></g></svg>