<?xml version="1.0" encoding="us-ascii" standalone="no"?><svg xmlns="http://www.w3.org/2000/svg" xmlns:xlink="http://www.w3.org/1999/xlink" contentStyleType="text/css" height="414px" preserveAspectRatio="none" style="width:1113px;height:414px;background:#FFFFFF;" version="1.1" viewBox="0 0 1113 414" width="1113px" zoomAndPan="magnify"><defs/><g><text fill="#000000" font-family="sans-serif" font-size="14" font-weight="bold" lengthAdjust="spacing" textLength="1085" x="10" y="29.5332">E Commerce Platform - Create Product - Buying And Merchandising - Buying And Merchandising App - Update Purchase Order - Sequence - Container level</text><rect fill="#FFFFFF" height="356.6797" style="stroke:#181818;stroke-width:0.5;" width="310.5" x="553" y="44.6094"/><text fill="#000000" font-family="sans-serif" font-size="13" font-weight="bold" lengthAdjust="spacing" textLength="96" x="660.25" y="58.1045">Buying Service</text><rect fill="none" height="141.7578" style="stroke:#000000;stroke-width:1.5;" width="581" x="298.5" y="175.9219"/><rect fill="none" height="79.0547" style="stroke:#000000;stroke-width:1.5;" width="322.5" x="547" y="231.625"/><line style="stroke:#181818;stroke-width:0.5;stroke-dasharray:5.0,5.0;" x1="253.5" x2="253.5" y1="128.5703" y2="334.6797"/><line style="stroke:#181818;stroke-width:0.5;stroke-dasharray:5.0,5.0;" x1="413.5" x2="413.5" y1="128.5703" y2="334.6797"/><line style="stroke:#181818;stroke-width:0.5;stroke-dasharray:5.0,5.0;" x1="574" x2="574" y1="128.5703" y2="334.6797"/><line style="stroke:#181818;stroke-width:0.5;stroke-dasharray:5.0,5.0;" x1="733.5" x2="733.5" y1="128.5703" y2="334.6797"/><line style="stroke:#181818;stroke-width:0.5;stroke-dasharray:5.0,5.0;" x1="818.5" x2="818.5" y1="128.5703" y2="334.6797"/><rect fill="#E2E2F0" height="31.6094" rx="2.5" ry="2.5" style="stroke:#181818;stroke-width:0.5;" width="65" x="221.5" y="95.9609"/><text fill="#000000" font-family="sans-serif" font-size="14" lengthAdjust="spacing" textLength="51" x="228.5" y="117.4941">External</text><rect fill="#E2E2F0" height="31.6094" rx="2.5" ry="2.5" style="stroke:#181818;stroke-width:0.5;" width="65" x="221.5" y="333.6797"/><text fill="#000000" font-family="sans-serif" font-size="14" lengthAdjust="spacing" textLength="51" x="228.5" y="355.2129">External</text><rect fill="#E2E2F0" height="31.6094" rx="2.5" ry="2.5" style="stroke:#181818;stroke-width:0.5;" width="211" x="308.5" y="95.9609"/><text fill="#000000" font-family="sans-serif" font-size="14" lengthAdjust="spacing" textLength="197" x="315.5" y="117.4941">Buying And Merchandising App</text><rect fill="#E2E2F0" height="31.6094" rx="2.5" ry="2.5" style="stroke:#181818;stroke-width:0.5;" width="211" x="308.5" y="333.6797"/><text fill="#000000" font-family="sans-serif" font-size="14" lengthAdjust="spacing" textLength="197" x="315.5" y="355.2129">Buying And Merchandising App</text><rect fill="#E2E2F0" height="31.6094" rx="2.5" ry="2.5" style="stroke:#181818;stroke-width:0.5;" width="34" x="557" y="95.9609"/><text fill="#000000" font-family="sans-serif" font-size="14" lengthAdjust="spacing" textLength="20" x="564" y="117.4941">Api</text><rect fill="#E2E2F0" height="31.6094" rx="2.5" ry="2.5" style="stroke:#181818;stroke-width:0.5;" width="34" x="557" y="333.6797"/><text fill="#000000" font-family="sans-serif" font-size="14" lengthAdjust="spacing" textLength="20" x="564" y="355.2129">Api</text><text fill="#000000" font-family="sans-serif" font-size="14" lengthAdjust="spacing" textLength="61" x="700.5" y="125.4941">Database</text><path d="M716,74.9609 C716,64.9609 734,64.9609 734,64.9609 C734,64.9609 752,64.9609 752,74.9609 L752,100.9609 C752,110.9609 734,110.9609 734,110.9609 C734,110.9609 716,110.9609 716,100.9609 L716,74.9609 " fill="#E2E2F0" style="stroke:#181818;stroke-width:1.5;"/><path d="M716,74.9609 C716,84.9609 734,84.9609 734,84.9609 C734,84.9609 752,84.9609 752,74.9609 " fill="none" style="stroke:#181818;stroke-width:1.5;"/><text fill="#000000" font-family="sans-serif" font-size="14" lengthAdjust="spacing" textLength="61" x="700.5" y="348.2129">Database</text><path d="M716,361.2891 C716,351.2891 734,351.2891 734,351.2891 C734,351.2891 752,351.2891 752,361.2891 L752,387.2891 C752,397.2891 734,397.2891 734,397.2891 C734,397.2891 716,397.2891 716,387.2891 L716,361.2891 " fill="#E2E2F0" style="stroke:#181818;stroke-width:1.5;"/><path d="M716,361.2891 C716,371.2891 734,371.2891 734,371.2891 C734,371.2891 752,371.2891 752,361.2891 " fill="none" style="stroke:#181818;stroke-width:1.5;"/><rect fill="#E2E2F0" height="31.6094" rx="2.5" ry="2.5" style="stroke:#181818;stroke-width:0.5;" width="82" x="777.5" y="95.9609"/><text fill="#000000" font-family="sans-serif" font-size="14" lengthAdjust="spacing" textLength="68" x="784.5" y="117.4941">Messaging</text><rect fill="#E2E2F0" height="31.6094" rx="2.5" ry="2.5" style="stroke:#181818;stroke-width:0.5;" width="82" x="777.5" y="333.6797"/><text fill="#000000" font-family="sans-serif" font-size="14" lengthAdjust="spacing" textLength="68" x="784.5" y="355.2129">Messaging</text><polygon fill="#181818" points="402,156.9219,412,160.9219,402,164.9219,406,160.9219" style="stroke:#181818;stroke-width:1.0;"/><line style="stroke:#181818;stroke-width:1.0;" x1="254" x2="408" y1="160.9219" y2="160.9219"/><text fill="#000000" font-family="sans-serif" font-size="13" lengthAdjust="spacing" textLength="136" x="261" y="156.0654">Update Purchase Order</text><path d="M298.5,175.9219 L491.5,175.9219 L491.5,184.2734 L481.5,194.2734 L298.5,194.2734 L298.5,175.9219 " fill="#EEEEEE" style="stroke:#000000;stroke-width:1.5;"/><rect fill="none" height="141.7578" style="stroke:#000000;stroke-width:1.5;" width="581" x="298.5" y="175.9219"/><text fill="#000000" font-family="sans-serif" font-size="13" font-weight="bold" lengthAdjust="spacing" textLength="148" x="313.5" y="190.417">Update Purchase Order</text><polygon fill="#181818" points="562,212.625,572,216.625,562,220.625,566,216.625" style="stroke:#181818;stroke-width:1.0;"/><line style="stroke:#181818;stroke-width:1.0;" x1="414" x2="568" y1="216.625" y2="216.625"/><text fill="#000000" font-family="sans-serif" font-size="13" lengthAdjust="spacing" textLength="136" x="421" y="211.7686">Update Purchase Order</text><path d="M547,231.625 L740,231.625 L740,239.9766 L730,249.9766 L547,249.9766 L547,231.625 " fill="#EEEEEE" style="stroke:#000000;stroke-width:1.5;"/><rect fill="none" height="79.0547" style="stroke:#000000;stroke-width:1.5;" width="322.5" x="547" y="231.625"/><text fill="#000000" font-family="sans-serif" font-size="13" font-weight="bold" lengthAdjust="spacing" textLength="148" x="562" y="246.1201">Update Purchase Order</text><polygon fill="#181818" points="722,268.3281,732,272.3281,722,276.3281,726,272.3281" style="stroke:#181818;stroke-width:1.0;"/><line style="stroke:#181818;stroke-width:1.0;" x1="574" x2="728" y1="272.3281" y2="272.3281"/><text fill="#000000" font-family="sans-serif" font-size="13" lengthAdjust="spacing" textLength="136" x="581" y="267.4717">Update Purchase Order</text><polygon fill="#181818" points="806.5,298.6797,816.5,302.6797,806.5,306.6797,810.5,302.6797" style="stroke:#181818;stroke-width:1.0;"/><line style="stroke:#181818;stroke-width:1.0;" x1="574" x2="812.5" y1="302.6797" y2="302.6797"/><text fill="#000000" font-family="sans-serif" font-size="13" lengthAdjust="spacing" textLength="213" x="581" y="297.8232">Send Purchase Order Updated Event</text><!--SRC=[tLLDQuD04BtlhnZiEPvwwg5WhOKUGWjIUjxe95dGtUtkQ99_t_4JqcZe8KcXWk3ErtlpTWP9KO6GG6pA4bs6y5v8MXjNmW9YXvBOuanUPSI6f-gWz0OYdSEIWxTIvyetbZEko5fsVzYyBLKrBe_mvd9qR4_ngqBDi8ncD4cbsLnWZOKGLZfIcR9I4mJ9dj1fMGGWFSJthvgFBuNPXQbPqquwJ0-UiFJX4DYTZukS8zaMJWOP1XN2JeDUWh0hmFb7wISSfiCOH8YLsOyyKdIroZ20ky-j8XJ0pn7VoAhBq-fHmr5l7p9E2yvt95VDzGJF_TTDu0UmKm6MwBtSSDPDU8ne0db2-AQ44ByVDLWyNdr-u65wayJ6cShE-AvEwjADJq_et_S-m-i6xGyRCgl1F-bpt41kD6sMyCSFesi-XwH6JSsMjg_u1W00]--></g></svg>