<?xml version="1.0" encoding="us-ascii" standalone="no"?><svg xmlns="http://www.w3.org/2000/svg" xmlns:xlink="http://www.w3.org/1999/xlink" contentStyleType="text/css" height="345px" preserveAspectRatio="none" style="width:1113px;height:345px;background:#FFFFFF;" version="1.1" viewBox="0 0 1113 345" width="1113px" zoomAndPan="magnify"><defs/><g><text fill="#000000" font-family="sans-serif" font-size="14" font-weight="bold" lengthAdjust="spacing" textLength="1085" x="10" y="29.5332">E Commerce Platform - Create Product - Buying And Merchandising - Buying And Merchandising App - Update Purchase Order - Sequence - Container level</text><rect fill="#FFFFFF" height="294.6797" style="stroke:#181818;stroke-width:0.5;" width="314.5" x="551" y="44.6094"/><text fill="#000000" font-family="sans-serif" font-size="13" font-weight="bold" lengthAdjust="spacing" textLength="96" x="660.25" y="58.1045">Buying Service</text><rect fill="none" height="141.7578" style="stroke:#000000;stroke-width:1.5;" width="585" x="296.5" y="144.9219"/><rect fill="none" height="79.0547" style="stroke:#000000;stroke-width:1.5;" width="326.5" x="545" y="200.625"/><line style="stroke:#181818;stroke-width:0.5;stroke-dasharray:5.0,5.0;" x1="251.5" x2="251.5" y1="97.5703" y2="303.6797"/><line style="stroke:#181818;stroke-width:0.5;stroke-dasharray:5.0,5.0;" x1="411.5" x2="411.5" y1="97.5703" y2="303.6797"/><line style="stroke:#181818;stroke-width:0.5;stroke-dasharray:5.0,5.0;" x1="572" x2="572" y1="97.5703" y2="303.6797"/><line style="stroke:#181818;stroke-width:0.5;stroke-dasharray:5.0,5.0;" x1="731.5" x2="731.5" y1="97.5703" y2="303.6797"/><line style="stroke:#181818;stroke-width:0.5;stroke-dasharray:5.0,5.0;" x1="820.5" x2="820.5" y1="97.5703" y2="303.6797"/><rect fill="#E2E2F0" height="31.6094" rx="2.5" ry="2.5" style="stroke:#181818;stroke-width:0.5;" width="65" x="219.5" y="64.9609"/><text fill="#000000" font-family="sans-serif" font-size="14" lengthAdjust="spacing" textLength="51" x="226.5" y="86.4941">External</text><rect fill="#E2E2F0" height="31.6094" rx="2.5" ry="2.5" style="stroke:#181818;stroke-width:0.5;" width="65" x="219.5" y="302.6797"/><text fill="#000000" font-family="sans-serif" font-size="14" lengthAdjust="spacing" textLength="51" x="226.5" y="324.2129">External</text><rect fill="#E2E2F0" height="31.6094" rx="2.5" ry="2.5" style="stroke:#181818;stroke-width:0.5;" width="211" x="306.5" y="64.9609"/><text fill="#000000" font-family="sans-serif" font-size="14" lengthAdjust="spacing" textLength="197" x="313.5" y="86.4941">Buying And Merchandising App</text><rect fill="#E2E2F0" height="31.6094" rx="2.5" ry="2.5" style="stroke:#181818;stroke-width:0.5;" width="211" x="306.5" y="302.6797"/><text fill="#000000" font-family="sans-serif" font-size="14" lengthAdjust="spacing" textLength="197" x="313.5" y="324.2129">Buying And Merchandising App</text><rect fill="#E2E2F0" height="31.6094" rx="2.5" ry="2.5" style="stroke:#181818;stroke-width:0.5;" width="34" x="555" y="64.9609"/><text fill="#000000" font-family="sans-serif" font-size="14" lengthAdjust="spacing" textLength="20" x="562" y="86.4941">Api</text><rect fill="#E2E2F0" height="31.6094" rx="2.5" ry="2.5" style="stroke:#181818;stroke-width:0.5;" width="34" x="555" y="302.6797"/><text fill="#000000" font-family="sans-serif" font-size="14" lengthAdjust="spacing" textLength="20" x="562" y="324.2129">Api</text><rect fill="#E2E2F0" height="31.6094" rx="2.5" ry="2.5" style="stroke:#181818;stroke-width:0.5;" width="75" x="694.5" y="64.9609"/><text fill="#000000" font-family="sans-serif" font-size="14" lengthAdjust="spacing" textLength="61" x="701.5" y="86.4941">Database</text><rect fill="#E2E2F0" height="31.6094" rx="2.5" ry="2.5" style="stroke:#181818;stroke-width:0.5;" width="75" x="694.5" y="302.6797"/><text fill="#000000" font-family="sans-serif" font-size="14" lengthAdjust="spacing" textLength="61" x="701.5" y="324.2129">Database</text><rect fill="#E2E2F0" height="31.6094" rx="2.5" ry="2.5" style="stroke:#181818;stroke-width:0.5;" width="82" x="779.5" y="64.9609"/><text fill="#000000" font-family="sans-serif" font-size="14" lengthAdjust="spacing" textLength="68" x="786.5" y="86.4941">Messaging</text><rect fill="#E2E2F0" height="31.6094" rx="2.5" ry="2.5" style="stroke:#181818;stroke-width:0.5;" width="82" x="779.5" y="302.6797"/><text fill="#000000" font-family="sans-serif" font-size="14" lengthAdjust="spacing" textLength="68" x="786.5" y="324.2129">Messaging</text><polygon fill="#181818" points="400,125.9219,410,129.9219,400,133.9219,404,129.9219" style="stroke:#181818;stroke-width:1.0;"/><line style="stroke:#181818;stroke-width:1.0;" x1="252" x2="406" y1="129.9219" y2="129.9219"/><text fill="#000000" font-family="sans-serif" font-size="13" lengthAdjust="spacing" textLength="136" x="259" y="125.0654">Update Purchase Order</text><path d="M296.5,144.9219 L489.5,144.9219 L489.5,153.2734 L479.5,163.2734 L296.5,163.2734 L296.5,144.9219 " fill="#EEEEEE" style="stroke:#000000;stroke-width:1.5;"/><rect fill="none" height="141.7578" style="stroke:#000000;stroke-width:1.5;" width="585" x="296.5" y="144.9219"/><text fill="#000000" font-family="sans-serif" font-size="13" font-weight="bold" lengthAdjust="spacing" textLength="148" x="311.5" y="159.417">Update Purchase Order</text><polygon fill="#181818" points="560,181.625,570,185.625,560,189.625,564,185.625" style="stroke:#181818;stroke-width:1.0;"/><line style="stroke:#181818;stroke-width:1.0;" x1="412" x2="566" y1="185.625" y2="185.625"/><text fill="#000000" font-family="sans-serif" font-size="13" lengthAdjust="spacing" textLength="136" x="419" y="180.7686">Update Purchase Order</text><path d="M545,200.625 L738,200.625 L738,208.9766 L728,218.9766 L545,218.9766 L545,200.625 " fill="#EEEEEE" style="stroke:#000000;stroke-width:1.5;"/><rect fill="none" height="79.0547" style="stroke:#000000;stroke-width:1.5;" width="326.5" x="545" y="200.625"/><text fill="#000000" font-family="sans-serif" font-size="13" font-weight="bold" lengthAdjust="spacing" textLength="148" x="560" y="215.1201">Update Purchase Order</text><polygon fill="#181818" points="720,237.3281,730,241.3281,720,245.3281,724,241.3281" style="stroke:#181818;stroke-width:1.0;"/><line style="stroke:#181818;stroke-width:1.0;" x1="572" x2="726" y1="241.3281" y2="241.3281"/><text fill="#000000" font-family="sans-serif" font-size="13" lengthAdjust="spacing" textLength="136" x="579" y="236.4717">Update Purchase Order</text><polygon fill="#181818" points="808.5,267.6797,818.5,271.6797,808.5,275.6797,812.5,271.6797" style="stroke:#181818;stroke-width:1.0;"/><line style="stroke:#181818;stroke-width:1.0;" x1="572" x2="814.5" y1="271.6797" y2="271.6797"/><text fill="#000000" font-family="sans-serif" font-size="13" lengthAdjust="spacing" textLength="213" x="579" y="266.8232">Send Purchase Order Updated Event</text><!--SRC=[tLKzRuCm4DtzAqvq3bEd3fKefLA7g9LGrTc12x44jciV-VZtFI0WKKZK8Kcb8Z7uljvxvpkP59K82SIcgj1b2E-bfBLn5ImWTYY9BSxaTKPiUAeFIXSGwHoM7BoHEbU-iPnnHTQo-yFcRQcwSNc4DvUZOtkANpLgXcKqeqagpUOIjrWAOQKZbIahDK6Gx0cTbcK0qaDy_whv-5AQNPYQDUsam_JW2IiVze7TULpa7CcsSDAteUz2sFNWs8AmAy3ve_G9X_am1X5YPVO3ZnJTLcKOmDtdHX4Au6_4DxBgyhIEgE7GRnyopXJyMP9SyLtTX44FDgMnHEzbmLatuJ6W2UGXuSiIGln-sc3nUFKHWeVvPHA5CxKzuRiwgKiBdn_IlzT-WjSDvFSRSh87_qJdi84iD6sMyCURqOdF8TcYfcPBsrzy0m00]--></g></svg>