<?xml version="1.0" encoding="us-ascii" standalone="no"?><svg xmlns="http://www.w3.org/2000/svg" xmlns:xlink="http://www.w3.org/1999/xlink" contentStyleType="text/css" height="414px" preserveAspectRatio="none" style="width:1113px;height:414px;background:#FFFFFF;" version="1.1" viewBox="0 0 1113 414" width="1113px" zoomAndPan="magnify"><defs/><g><text fill="#000000" font-family="sans-serif" font-size="14" font-weight="bold" lengthAdjust="spacing" textLength="1085" x="10" y="29.5332">E Commerce Platform - Create Product - Buying And Merchandising - Buying And Merchandising App - Update Purchase Order - Sequence - Container level</text><rect fill="#FFFFFF" height="356.6797" style="stroke:#181818;stroke-width:0.5;" width="316.5" x="550" y="44.6094"/><text fill="#000000" font-family="sans-serif" font-size="13" font-weight="bold" lengthAdjust="spacing" textLength="96" x="660.25" y="58.1045">Buying Service</text><rect fill="none" height="141.7578" style="stroke:#000000;stroke-width:1.5;" width="587" x="295.5" y="175.9219"/><rect fill="none" height="79.0547" style="stroke:#000000;stroke-width:1.5;" width="328.5" x="544" y="231.625"/><line style="stroke:#181818;stroke-width:0.5;stroke-dasharray:5.0,5.0;" x1="250.5" x2="250.5" y1="128.5703" y2="334.6797"/><line style="stroke:#181818;stroke-width:0.5;stroke-dasharray:5.0,5.0;" x1="410.5" x2="410.5" y1="128.5703" y2="334.6797"/><line style="stroke:#181818;stroke-width:0.5;stroke-dasharray:5.0,5.0;" x1="571" x2="571" y1="128.5703" y2="334.6797"/><line style="stroke:#181818;stroke-width:0.5;stroke-dasharray:5.0,5.0;" x1="730.5" x2="730.5" y1="128.5703" y2="334.6797"/><line style="stroke:#181818;stroke-width:0.5;stroke-dasharray:5.0,5.0;" x1="818.5" x2="818.5" y1="128.5703" y2="334.6797"/><rect fill="#E2E2F0" height="31.6094" rx="2.5" ry="2.5" style="stroke:#181818;stroke-width:0.5;" width="65" x="218.5" y="95.9609"/><text fill="#000000" font-family="sans-serif" font-size="14" lengthAdjust="spacing" textLength="51" x="225.5" y="117.4941">External</text><rect fill="#E2E2F0" height="31.6094" rx="2.5" ry="2.5" style="stroke:#181818;stroke-width:0.5;" width="65" x="218.5" y="333.6797"/><text fill="#000000" font-family="sans-serif" font-size="14" lengthAdjust="spacing" textLength="51" x="225.5" y="355.2129">External</text><rect fill="#E2E2F0" height="31.6094" rx="2.5" ry="2.5" style="stroke:#181818;stroke-width:0.5;" width="211" x="305.5" y="95.9609"/><text fill="#000000" font-family="sans-serif" font-size="14" lengthAdjust="spacing" textLength="197" x="312.5" y="117.4941">Buying And Merchandising App</text><rect fill="#E2E2F0" height="31.6094" rx="2.5" ry="2.5" style="stroke:#181818;stroke-width:0.5;" width="211" x="305.5" y="333.6797"/><text fill="#000000" font-family="sans-serif" font-size="14" lengthAdjust="spacing" textLength="197" x="312.5" y="355.2129">Buying And Merchandising App</text><rect fill="#E2E2F0" height="31.6094" rx="2.5" ry="2.5" style="stroke:#181818;stroke-width:0.5;" width="34" x="554" y="95.9609"/><text fill="#000000" font-family="sans-serif" font-size="14" lengthAdjust="spacing" textLength="20" x="561" y="117.4941">Api</text><rect fill="#E2E2F0" height="31.6094" rx="2.5" ry="2.5" style="stroke:#181818;stroke-width:0.5;" width="34" x="554" y="333.6797"/><text fill="#000000" font-family="sans-serif" font-size="14" lengthAdjust="spacing" textLength="20" x="561" y="355.2129">Api</text><text fill="#000000" font-family="sans-serif" font-size="14" lengthAdjust="spacing" textLength="61" x="697.5" y="125.4941">Database</text><path d="M713,74.9609 C713,64.9609 731,64.9609 731,64.9609 C731,64.9609 749,64.9609 749,74.9609 L749,100.9609 C749,110.9609 731,110.9609 731,110.9609 C731,110.9609 713,110.9609 713,100.9609 L713,74.9609 " fill="#E2E2F0" style="stroke:#181818;stroke-width:1.5;"/><path d="M713,74.9609 C713,84.9609 731,84.9609 731,84.9609 C731,84.9609 749,84.9609 749,74.9609 " fill="none" style="stroke:#181818;stroke-width:1.5;"/><text fill="#000000" font-family="sans-serif" font-size="14" lengthAdjust="spacing" textLength="61" x="697.5" y="348.2129">Database</text><path d="M713,361.2891 C713,351.2891 731,351.2891 731,351.2891 C731,351.2891 749,351.2891 749,361.2891 L749,387.2891 C749,397.2891 731,397.2891 731,397.2891 C731,397.2891 713,397.2891 713,387.2891 L713,361.2891 " fill="#E2E2F0" style="stroke:#181818;stroke-width:1.5;"/><path d="M713,361.2891 C713,371.2891 731,371.2891 731,371.2891 C731,371.2891 749,371.2891 749,361.2891 " fill="none" style="stroke:#181818;stroke-width:1.5;"/><path d="M779.5,100.9609 L857.5,100.9609 C862.5,100.9609 862.5,114.7656 862.5,114.7656 C862.5,114.7656 862.5,128.5703 857.5,128.5703 L779.5,128.5703 C774.5,128.5703 774.5,114.7656 774.5,114.7656 C774.5,114.7656 774.5,100.9609 779.5,100.9609 " fill="#E2E2F0" style="stroke:#181818;stroke-width:0.5;"/><path d="M857.5,100.9609 C852.5,100.9609 852.5,114.7656 852.5,114.7656 C852.5,128.5703 857.5,128.5703 857.5,128.5703 " fill="none" style="stroke:#181818;stroke-width:0.5;"/><text fill="#000000" font-family="sans-serif" font-size="14" lengthAdjust="spacing" textLength="68" x="779.5" y="120.4941">Messaging</text><path d="M779.5,333.6797 L857.5,333.6797 C862.5,333.6797 862.5,347.4844 862.5,347.4844 C862.5,347.4844 862.5,361.2891 857.5,361.2891 L779.5,361.2891 C774.5,361.2891 774.5,347.4844 774.5,347.4844 C774.5,347.4844 774.5,333.6797 779.5,333.6797 " fill="#E2E2F0" style="stroke:#181818;stroke-width:0.5;"/><path d="M857.5,333.6797 C852.5,333.6797 852.5,347.4844 852.5,347.4844 C852.5,361.2891 857.5,361.2891 857.5,361.2891 " fill="none" style="stroke:#181818;stroke-width:0.5;"/><text fill="#000000" font-family="sans-serif" font-size="14" lengthAdjust="spacing" textLength="68" x="779.5" y="353.2129">Messaging</text><polygon fill="#181818" points="399,156.9219,409,160.9219,399,164.9219,403,160.9219" style="stroke:#181818;stroke-width:1.0;"/><line style="stroke:#181818;stroke-width:1.0;" x1="251" x2="405" y1="160.9219" y2="160.9219"/><text fill="#000000" font-family="sans-serif" font-size="13" lengthAdjust="spacing" textLength="136" x="258" y="156.0654">Update Purchase Order</text><path d="M295.5,175.9219 L488.5,175.9219 L488.5,184.2734 L478.5,194.2734 L295.5,194.2734 L295.5,175.9219 " fill="#EEEEEE" style="stroke:#000000;stroke-width:1.5;"/><rect fill="none" height="141.7578" style="stroke:#000000;stroke-width:1.5;" width="587" x="295.5" y="175.9219"/><text fill="#000000" font-family="sans-serif" font-size="13" font-weight="bold" lengthAdjust="spacing" textLength="148" x="310.5" y="190.417">Update Purchase Order</text><polygon fill="#181818" points="559,212.625,569,216.625,559,220.625,563,216.625" style="stroke:#181818;stroke-width:1.0;"/><line style="stroke:#181818;stroke-width:1.0;" x1="411" x2="565" y1="216.625" y2="216.625"/><text fill="#000000" font-family="sans-serif" font-size="13" lengthAdjust="spacing" textLength="136" x="418" y="211.7686">Update Purchase Order</text><path d="M544,231.625 L737,231.625 L737,239.9766 L727,249.9766 L544,249.9766 L544,231.625 " fill="#EEEEEE" style="stroke:#000000;stroke-width:1.5;"/><rect fill="none" height="79.0547" style="stroke:#000000;stroke-width:1.5;" width="328.5" x="544" y="231.625"/><text fill="#000000" font-family="sans-serif" font-size="13" font-weight="bold" lengthAdjust="spacing" textLength="148" x="559" y="246.1201">Update Purchase Order</text><polygon fill="#181818" points="719,268.3281,729,272.3281,719,276.3281,723,272.3281" style="stroke:#181818;stroke-width:1.0;"/><line style="stroke:#181818;stroke-width:1.0;" x1="571" x2="725" y1="272.3281" y2="272.3281"/><text fill="#000000" font-family="sans-serif" font-size="13" lengthAdjust="spacing" textLength="136" x="578" y="267.4717">Update Purchase Order</text><polygon fill="#181818" points="806.5,298.6797,816.5,302.6797,806.5,306.6797,810.5,302.6797" style="stroke:#181818;stroke-width:1.0;"/><line style="stroke:#181818;stroke-width:1.0;" x1="571" x2="812.5" y1="302.6797" y2="302.6797"/><text fill="#000000" font-family="sans-serif" font-size="13" lengthAdjust="spacing" textLength="213" x="578" y="297.8232">Send Purchase Order Updated Event</text><!--SRC=[tLLDQyCm3BtxLuZit9nssc6GPHdiK3O8OsStKLD3OdksahR_ViedP6lB3cq73GHYITPxJn-459K82SIcgj1b2E-bfBLn5ImWTYY9BSxaTKPiUAhtIXSGwHoM7BoHEbU-jPnmHTQo-yFcNQgwTNc4DvUZOtkANpLgXcKqeqagpUOI6oo5iDAHofILcY18TeHEop80wI6-VzLyV2dDDapDchRIORhtX9KFny3-F4zoYcINE1dBC5OXx6imb23i4_3zsVLV70w7COWGAxERUAJe6fLX07UV6qKeW9yPtyYgyzCQKCEftZvad0wSUoHNRNk2v-7hAl0ZMCU1vw5c0alqNXOSVnK64vf0dWtkaH3YxqC6YyUBJmuy7DuXKJXJsoE-YvCwj_33i_d_se_mkeBySJUErk16T4uRo4BJTWb__2fwyJaa3MfgjxHxnJS0]--></g></svg>