<?xml version="1.0" encoding="us-ascii" standalone="no"?><svg xmlns="http://www.w3.org/2000/svg" xmlns:xlink="http://www.w3.org/1999/xlink" contentStyleType="text/css" height="345px" preserveAspectRatio="none" style="width:921px;height:345px;background:#FFFFFF;" version="1.1" viewBox="0 0 921 345" width="921px" zoomAndPan="magnify"><defs/><g><text fill="#000000" font-family="sans-serif" font-size="14" font-weight="bold" lengthAdjust="spacing" textLength="893" x="10" y="29.5332">ECommercePlatform - CreateProduct - ProductInformationManagement - PIM App - Update Product - Sequence - Container level</text><rect fill="#FFFFFF" height="294.6797" style="stroke:#181818;stroke-width:0.5;" width="268.5" x="432" y="44.6094"/><text fill="#000000" font-family="sans-serif" font-size="13" font-weight="bold" lengthAdjust="spacing" textLength="101" x="515.75" y="58.1045">Product Service</text><rect fill="none" height="141.7578" style="stroke:#000000;stroke-width:1.5;" width="420.5" x="296" y="144.9219"/><rect fill="none" height="79.0547" style="stroke:#000000;stroke-width:1.5;" width="280.5" x="426" y="200.625"/><line style="stroke:#181818;stroke-width:0.5;stroke-dasharray:5.0,5.0;" x1="224.5" x2="224.5" y1="97.5703" y2="303.6797"/><line style="stroke:#181818;stroke-width:0.5;stroke-dasharray:5.0,5.0;" x1="339" x2="339" y1="97.5703" y2="303.6797"/><line style="stroke:#181818;stroke-width:0.5;stroke-dasharray:5.0,5.0;" x1="453" x2="453" y1="97.5703" y2="303.6797"/><line style="stroke:#181818;stroke-width:0.5;stroke-dasharray:5.0,5.0;" x1="566.5" x2="566.5" y1="97.5703" y2="303.6797"/><line style="stroke:#181818;stroke-width:0.5;stroke-dasharray:5.0,5.0;" x1="655.5" x2="655.5" y1="97.5703" y2="303.6797"/><rect fill="#E2E2F0" height="31.6094" rx="2.5" ry="2.5" style="stroke:#181818;stroke-width:0.5;" width="65" x="192.5" y="64.9609"/><text fill="#000000" font-family="sans-serif" font-size="14" lengthAdjust="spacing" textLength="51" x="199.5" y="86.4941">External</text><rect fill="#E2E2F0" height="31.6094" rx="2.5" ry="2.5" style="stroke:#181818;stroke-width:0.5;" width="65" x="192.5" y="302.6797"/><text fill="#000000" font-family="sans-serif" font-size="14" lengthAdjust="spacing" textLength="51" x="199.5" y="324.2129">External</text><rect fill="#E2E2F0" height="31.6094" rx="2.5" ry="2.5" style="stroke:#181818;stroke-width:0.5;" width="66" x="306" y="64.9609"/><text fill="#000000" font-family="sans-serif" font-size="14" lengthAdjust="spacing" textLength="52" x="313" y="86.4941">PIM App</text><rect fill="#E2E2F0" height="31.6094" rx="2.5" ry="2.5" style="stroke:#181818;stroke-width:0.5;" width="66" x="306" y="302.6797"/><text fill="#000000" font-family="sans-serif" font-size="14" lengthAdjust="spacing" textLength="52" x="313" y="324.2129">PIM App</text><rect fill="#E2E2F0" height="31.6094" rx="2.5" ry="2.5" style="stroke:#181818;stroke-width:0.5;" width="34" x="436" y="64.9609"/><text fill="#000000" font-family="sans-serif" font-size="14" lengthAdjust="spacing" textLength="20" x="443" y="86.4941">Api</text><rect fill="#E2E2F0" height="31.6094" rx="2.5" ry="2.5" style="stroke:#181818;stroke-width:0.5;" width="34" x="436" y="302.6797"/><text fill="#000000" font-family="sans-serif" font-size="14" lengthAdjust="spacing" textLength="20" x="443" y="324.2129">Api</text><rect fill="#E2E2F0" height="31.6094" rx="2.5" ry="2.5" style="stroke:#181818;stroke-width:0.5;" width="75" x="529.5" y="64.9609"/><text fill="#000000" font-family="sans-serif" font-size="14" lengthAdjust="spacing" textLength="61" x="536.5" y="86.4941">Database</text><rect fill="#E2E2F0" height="31.6094" rx="2.5" ry="2.5" style="stroke:#181818;stroke-width:0.5;" width="75" x="529.5" y="302.6797"/><text fill="#000000" font-family="sans-serif" font-size="14" lengthAdjust="spacing" textLength="61" x="536.5" y="324.2129">Database</text><rect fill="#E2E2F0" height="31.6094" rx="2.5" ry="2.5" style="stroke:#181818;stroke-width:0.5;" width="82" x="614.5" y="64.9609"/><text fill="#000000" font-family="sans-serif" font-size="14" lengthAdjust="spacing" textLength="68" x="621.5" y="86.4941">Messaging</text><rect fill="#E2E2F0" height="31.6094" rx="2.5" ry="2.5" style="stroke:#181818;stroke-width:0.5;" width="82" x="614.5" y="302.6797"/><text fill="#000000" font-family="sans-serif" font-size="14" lengthAdjust="spacing" textLength="68" x="621.5" y="324.2129">Messaging</text><polygon fill="#181818" points="327,125.9219,337,129.9219,327,133.9219,331,129.9219" style="stroke:#181818;stroke-width:1.0;"/><line style="stroke:#181818;stroke-width:1.0;" x1="225" x2="333" y1="129.9219" y2="129.9219"/><text fill="#000000" font-family="sans-serif" font-size="13" lengthAdjust="spacing" textLength="90" x="232" y="125.0654">Update Product</text><path d="M296,144.9219 L439,144.9219 L439,153.2734 L429,163.2734 L296,163.2734 L296,144.9219 " fill="#EEEEEE" style="stroke:#000000;stroke-width:1.5;"/><rect fill="none" height="141.7578" style="stroke:#000000;stroke-width:1.5;" width="420.5" x="296" y="144.9219"/><text fill="#000000" font-family="sans-serif" font-size="13" font-weight="bold" lengthAdjust="spacing" textLength="98" x="311" y="159.417">Update Product</text><polygon fill="#181818" points="441,181.625,451,185.625,441,189.625,445,185.625" style="stroke:#181818;stroke-width:1.0;"/><line style="stroke:#181818;stroke-width:1.0;" x1="339" x2="447" y1="185.625" y2="185.625"/><text fill="#000000" font-family="sans-serif" font-size="13" lengthAdjust="spacing" textLength="90" x="346" y="180.7686">Update Product</text><path d="M426,200.625 L569,200.625 L569,208.9766 L559,218.9766 L426,218.9766 L426,200.625 " fill="#EEEEEE" style="stroke:#000000;stroke-width:1.5;"/><rect fill="none" height="79.0547" style="stroke:#000000;stroke-width:1.5;" width="280.5" x="426" y="200.625"/><text fill="#000000" font-family="sans-serif" font-size="13" font-weight="bold" lengthAdjust="spacing" textLength="98" x="441" y="215.1201">Update Product</text><polygon fill="#181818" points="555,237.3281,565,241.3281,555,245.3281,559,241.3281" style="stroke:#181818;stroke-width:1.0;"/><line style="stroke:#181818;stroke-width:1.0;" x1="453" x2="561" y1="241.3281" y2="241.3281"/><text fill="#000000" font-family="sans-serif" font-size="13" lengthAdjust="spacing" textLength="90" x="460" y="236.4717">Update Product</text><polygon fill="#181818" points="643.5,267.6797,653.5,271.6797,643.5,275.6797,647.5,271.6797" style="stroke:#181818;stroke-width:1.0;"/><line style="stroke:#181818;stroke-width:1.0;" x1="453" x2="649.5" y1="271.6797" y2="271.6797"/><text fill="#000000" font-family="sans-serif" font-size="13" lengthAdjust="spacing" textLength="167" x="460" y="266.8232">Send Product Updated Event</text><!--SRC=[tLGxQyCm4DxrAuvqZgTE7Gh1JI638M1AvujzSGMsf4Xd9_ttFRzI4eFfqAHGWq5dITz3la-ikIHOnxQgo6UqBP7trbUmXDWJCcszpUkCfHv66zFE8sjh4ZHOK4Mcczuai79EHcykbutmlJEbGqqcenRK6aPjo4D93PLAEVIiC-rGG1Rh4vCtM2u00yIF6oFbQscFKMhtV4HFwMTWga8qBkphIv11I8SnyHLTk8hcF4r81LXmbThPax0CxbBoZSve0G_l7vf9WJmNSbPEtq1AltWWZywd6YAXcsfuGSOT1hgda95pgYQX4B3GfhYdd3Ef8fE3_4AbrCyx39RFj-WbUBeAYogyhTtrnrim_xgXkOxy4v-pWkvdVyp1z0p-fTrppiHlsaPjl2Xxypci6m5iGzYzwWi0]--></g></svg>