<?xml version="1.0" encoding="us-ascii" standalone="no"?><svg xmlns="http://www.w3.org/2000/svg" xmlns:xlink="http://www.w3.org/1999/xlink" contentStyleType="text/css" height="443px" preserveAspectRatio="none" style="width:741px;height:443px;background:#FFFFFF;" version="1.1" viewBox="0 0 741 443" width="741px" zoomAndPan="magnify"><defs/><g><text fill="#000000" font-family="sans-serif" font-size="14" font-weight="bold" lengthAdjust="spacing" textLength="442" x="151.25" y="29.5332">Trader X Example - People Search - Sequence - Container level</text><rect fill="#FFFFFF" height="392.4375" style="stroke:#181818;stroke-width:0.5;" width="406" x="170" y="44.6094"/><text fill="#000000" font-family="sans-serif" font-size="13" font-weight="bold" lengthAdjust="spacing" textLength="51" x="347.5" y="58.1045">TraderX</text><rect fill="none" height="223.1641" style="stroke:#000000;stroke-width:1.5;" width="571.5" x="164" y="161.2734"/><rect fill="none" height="144.1094" style="stroke:#000000;stroke-width:1.5;" width="373" x="352.5" y="233.3281"/><rect fill="none" height="65.0547" style="stroke:#000000;stroke-width:1.5;" width="262.5" x="453" y="305.3828"/><line style="stroke:#181818;stroke-width:0.5;stroke-dasharray:5.0,5.0;" x1="33" x2="33" y1="97.5703" y2="401.4375"/><line style="stroke:#181818;stroke-width:0.5;stroke-dasharray:5.0,5.0;" x1="215" x2="215" y1="97.5703" y2="401.4375"/><line style="stroke:#181818;stroke-width:0.5;stroke-dasharray:5.0,5.0;" x1="397.5" x2="397.5" y1="97.5703" y2="401.4375"/><line style="stroke:#181818;stroke-width:0.5;stroke-dasharray:5.0,5.0;" x1="517" x2="517" y1="97.5703" y2="401.4375"/><line style="stroke:#181818;stroke-width:0.5;stroke-dasharray:5.0,5.0;" x1="653.5" x2="653.5" y1="97.5703" y2="401.4375"/><rect fill="#E2E2F0" height="31.6094" rx="2.5" ry="2.5" style="stroke:#181818;stroke-width:0.5;" width="57" x="5" y="64.9609"/><text fill="#000000" font-family="sans-serif" font-size="14" lengthAdjust="spacing" textLength="43" x="12" y="86.4941">Trader</text><rect fill="#E2E2F0" height="31.6094" rx="2.5" ry="2.5" style="stroke:#181818;stroke-width:0.5;" width="57" x="5" y="400.4375"/><text fill="#000000" font-family="sans-serif" font-size="14" lengthAdjust="spacing" textLength="43" x="12" y="421.9707">Trader</text><rect fill="#E2E2F0" height="31.6094" rx="2.5" ry="2.5" style="stroke:#181818;stroke-width:0.5;" width="83" x="174" y="64.9609"/><text fill="#000000" font-family="sans-serif" font-size="14" lengthAdjust="spacing" textLength="69" x="181" y="86.4941">Web Client</text><rect fill="#E2E2F0" height="31.6094" rx="2.5" ry="2.5" style="stroke:#181818;stroke-width:0.5;" width="83" x="174" y="400.4375"/><text fill="#000000" font-family="sans-serif" font-size="14" lengthAdjust="spacing" textLength="69" x="181" y="421.9707">Web Client</text><rect fill="#E2E2F0" height="31.6094" rx="2.5" ry="2.5" style="stroke:#181818;stroke-width:0.5;" width="70" x="362.5" y="64.9609"/><text fill="#000000" font-family="sans-serif" font-size="14" lengthAdjust="spacing" textLength="56" x="369.5" y="86.4941">Web GUI</text><rect fill="#E2E2F0" height="31.6094" rx="2.5" ry="2.5" style="stroke:#181818;stroke-width:0.5;" width="70" x="362.5" y="400.4375"/><text fill="#000000" font-family="sans-serif" font-size="14" lengthAdjust="spacing" textLength="56" x="369.5" y="421.9707">Web GUI</text><rect fill="#E2E2F0" height="31.6094" rx="2.5" ry="2.5" style="stroke:#181818;stroke-width:0.5;" width="109" x="463" y="64.9609"/><text fill="#000000" font-family="sans-serif" font-size="14" lengthAdjust="spacing" textLength="95" x="470" y="86.4941">People Service</text><rect fill="#E2E2F0" height="31.6094" rx="2.5" ry="2.5" style="stroke:#181818;stroke-width:0.5;" width="109" x="463" y="400.4375"/><text fill="#000000" font-family="sans-serif" font-size="14" lengthAdjust="spacing" textLength="95" x="470" y="421.9707">People Service</text><rect fill="#E2E2F0" height="31.6094" rx="2.5" ry="2.5" style="stroke:#181818;stroke-width:0.5;" width="104" x="601.5" y="64.9609"/><text fill="#000000" font-family="sans-serif" font-size="14" lengthAdjust="spacing" textLength="90" x="608.5" y="86.4941">User Directory</text><rect fill="#E2E2F0" height="31.6094" rx="2.5" ry="2.5" style="stroke:#181818;stroke-width:0.5;" width="104" x="601.5" y="400.4375"/><text fill="#000000" font-family="sans-serif" font-size="14" lengthAdjust="spacing" textLength="90" x="608.5" y="421.9707">User Directory</text><polygon fill="#181818" points="203.5,142.2734,213.5,146.2734,203.5,150.2734,207.5,146.2734" style="stroke:#181818;stroke-width:1.0;"/><line style="stroke:#181818;stroke-width:1.0;" x1="33.5" x2="209.5" y1="146.2734" y2="146.2734"/><text fill="#000000" font-family="sans-serif" font-size="13" lengthAdjust="spacing" textLength="158" x="40.5" y="125.0654">Type Ahead People Search</text><text fill="#000000" font-family="sans-serif" font-size="13" lengthAdjust="spacing" textLength="49" x="40.5" y="141.417">[HTTPS]</text><path d="M164,161.2734 L383,161.2734 L383,169.625 L373,179.625 L164,179.625 L164,161.2734 " fill="#EEEEEE" style="stroke:#000000;stroke-width:1.5;"/><rect fill="none" height="223.1641" style="stroke:#000000;stroke-width:1.5;" width="571.5" x="164" y="161.2734"/><text fill="#000000" font-family="sans-serif" font-size="13" font-weight="bold" lengthAdjust="spacing" textLength="174" x="179" y="175.7686">Type Ahead People Search</text><polygon fill="#181818" points="385.5,214.3281,395.5,218.3281,385.5,222.3281,389.5,218.3281" style="stroke:#181818;stroke-width:1.0;"/><line style="stroke:#181818;stroke-width:1.0;" x1="215.5" x2="391.5" y1="218.3281" y2="218.3281"/><text fill="#000000" font-family="sans-serif" font-size="13" lengthAdjust="spacing" textLength="158" x="222.5" y="197.1201">Type Ahead People Search</text><text fill="#000000" font-family="sans-serif" font-size="13" lengthAdjust="spacing" textLength="49" x="222.5" y="213.4717">[HTTPS]</text><path d="M352.5,233.3281 L571.5,233.3281 L571.5,241.6797 L561.5,251.6797 L352.5,251.6797 L352.5,233.3281 " fill="#EEEEEE" style="stroke:#000000;stroke-width:1.5;"/><rect fill="none" height="144.1094" style="stroke:#000000;stroke-width:1.5;" width="373" x="352.5" y="233.3281"/><text fill="#000000" font-family="sans-serif" font-size="13" font-weight="bold" lengthAdjust="spacing" textLength="174" x="367.5" y="247.8232">Type Ahead People Search</text><polygon fill="#181818" points="505.5,286.3828,515.5,290.3828,505.5,294.3828,509.5,290.3828" style="stroke:#181818;stroke-width:1.0;"/><line style="stroke:#181818;stroke-width:1.0;" x1="397.5" x2="511.5" y1="290.3828" y2="290.3828"/><text fill="#000000" font-family="sans-serif" font-size="13" lengthAdjust="spacing" textLength="96" x="404.5" y="269.1748">Get People Data</text><text fill="#000000" font-family="sans-serif" font-size="13" lengthAdjust="spacing" textLength="49" x="404.5" y="285.5264">[HTTPS]</text><path d="M453,305.3828 L602,305.3828 L602,313.7344 L592,323.7344 L453,323.7344 L453,305.3828 " fill="#EEEEEE" style="stroke:#000000;stroke-width:1.5;"/><rect fill="none" height="65.0547" style="stroke:#000000;stroke-width:1.5;" width="262.5" x="453" y="305.3828"/><text fill="#000000" font-family="sans-serif" font-size="13" font-weight="bold" lengthAdjust="spacing" textLength="104" x="468" y="319.8779">Get People Data</text><polygon fill="#181818" points="641.5,358.4375,651.5,362.4375,641.5,366.4375,645.5,362.4375" style="stroke:#181818;stroke-width:1.0;"/><line style="stroke:#181818;stroke-width:1.0;" x1="517.5" x2="647.5" y1="362.4375" y2="362.4375"/><text fill="#000000" font-family="sans-serif" font-size="13" lengthAdjust="spacing" textLength="112" x="524.5" y="341.2295">Select People Data</text><text fill="#000000" font-family="sans-serif" font-size="13" lengthAdjust="spacing" textLength="42" x="524.5" y="357.5811">[LDAP]</text><!--SRC=[nPBRQeD048Rlvoa6UnqVe1S5YIKjz49OGuGs5nkTrWMpsdMJnhVlB1v0cnxGYmh2dlvlVluPgsn161kPaS44xo_oMF712YCgtKAGD6dEUq7l9zAfkrgNsagbML3GcGg0IXghKbL9RT5hMHxAkiCc7TGFKbkQsczF0GxbfN-TU7YpovKbGFv6k1qTS5qeqlOQKfIlzaCQ4arjwTYp4t-mMFiCQFNNsPljutmmYxzIX-JCMQKq4zv2EWQGpf3ZcYIzhRa5eJBaSct-KiWf1W70J_t1rTsIiF4MuwOY37AIsNYONlJpGnn7OWzlfZnLtxw39UNdkkUE_fjrLtkMxz6miFqDsTvFAAsSkfvSmzA2ltiUpHqR55JmUkBnAGoYlHlruOTF]--></g></svg>