<?xml version="1.0" encoding="us-ascii" standalone="no"?><svg xmlns="http://www.w3.org/2000/svg" xmlns:xlink="http://www.w3.org/1999/xlink" contentStyleType="text/css" height="381px" preserveAspectRatio="none" style="width:1139px;height:381px;background:#FFFFFF;" version="1.1" viewBox="0 0 1139 381" width="1139px" zoomAndPan="magnify"><defs/><g><text fill="#000000" font-family="sans-serif" font-size="14" font-weight="bold" lengthAdjust="spacing" textLength="1111" x="10" y="29.5332">E Commerce Platform - Generate Demand - Order Management - Order Service - Message Handler - Handle Payment Result Event - Sequence - Container level</text><rect fill="#FFFFFF" height="324.3281" style="stroke:#181818;stroke-width:0.5;" width="338.5" x="421" y="44.6094"/><text fill="#000000" font-family="sans-serif" font-size="13" font-weight="bold" lengthAdjust="spacing" textLength="88" x="546.25" y="58.1045">Order Service</text><rect fill="#FFFFFF" height="324.3281" style="stroke:#181818;stroke-width:0.5;" width="114" x="761.5" y="44.6094"/><text fill="#000000" font-family="sans-serif" font-size="13" font-weight="bold" lengthAdjust="spacing" textLength="108" x="764.5" y="58.1045">Payment Service</text><rect fill="none" height="109.4063" style="stroke:#000000;stroke-width:1.5;" width="454.5" x="415" y="175.9219"/><line style="stroke:#181818;stroke-width:0.5;stroke-dasharray:5.0,5.0;" x1="289.5" x2="289.5" y1="128.5703" y2="302.3281"/><line style="stroke:#181818;stroke-width:0.5;stroke-dasharray:5.0,5.0;" x1="487" x2="487" y1="128.5703" y2="302.3281"/><line style="stroke:#181818;stroke-width:0.5;stroke-dasharray:5.0,5.0;" x1="629.5" x2="629.5" y1="128.5703" y2="302.3281"/><line style="stroke:#181818;stroke-width:0.5;stroke-dasharray:5.0,5.0;" x1="714.5" x2="714.5" y1="128.5703" y2="302.3281"/><line style="stroke:#181818;stroke-width:0.5;stroke-dasharray:5.0,5.0;" x1="818.5" x2="818.5" y1="128.5703" y2="302.3281"/><rect fill="#E2E2F0" height="31.6094" rx="2.5" ry="2.5" style="stroke:#181818;stroke-width:0.5;" width="65" x="257.5" y="95.9609"/><text fill="#000000" font-family="sans-serif" font-size="14" lengthAdjust="spacing" textLength="51" x="264.5" y="117.4941">External</text><rect fill="#E2E2F0" height="31.6094" rx="2.5" ry="2.5" style="stroke:#181818;stroke-width:0.5;" width="65" x="257.5" y="301.3281"/><text fill="#000000" font-family="sans-serif" font-size="14" lengthAdjust="spacing" textLength="51" x="264.5" y="322.8613">External</text><rect fill="#E2E2F0" height="31.6094" rx="2.5" ry="2.5" style="stroke:#181818;stroke-width:0.5;" width="124" x="425" y="95.9609"/><text fill="#000000" font-family="sans-serif" font-size="14" lengthAdjust="spacing" textLength="110" x="432" y="117.4941">Message Handler</text><rect fill="#E2E2F0" height="31.6094" rx="2.5" ry="2.5" style="stroke:#181818;stroke-width:0.5;" width="124" x="425" y="301.3281"/><text fill="#000000" font-family="sans-serif" font-size="14" lengthAdjust="spacing" textLength="110" x="432" y="322.8613">Message Handler</text><text fill="#000000" font-family="sans-serif" font-size="14" lengthAdjust="spacing" textLength="61" x="596.5" y="125.4941">Database</text><path d="M612,74.9609 C612,64.9609 630,64.9609 630,64.9609 C630,64.9609 648,64.9609 648,74.9609 L648,100.9609 C648,110.9609 630,110.9609 630,110.9609 C630,110.9609 612,110.9609 612,100.9609 L612,74.9609 " fill="#E2E2F0" style="stroke:#181818;stroke-width:1.5;"/><path d="M612,74.9609 C612,84.9609 630,84.9609 630,84.9609 C630,84.9609 648,84.9609 648,74.9609 " fill="none" style="stroke:#181818;stroke-width:1.5;"/><text fill="#000000" font-family="sans-serif" font-size="14" lengthAdjust="spacing" textLength="61" x="596.5" y="315.8613">Database</text><path d="M612,328.9375 C612,318.9375 630,318.9375 630,318.9375 C630,318.9375 648,318.9375 648,328.9375 L648,354.9375 C648,364.9375 630,364.9375 630,364.9375 C630,364.9375 612,364.9375 612,354.9375 L612,328.9375 " fill="#E2E2F0" style="stroke:#181818;stroke-width:1.5;"/><path d="M612,328.9375 C612,338.9375 630,338.9375 630,338.9375 C630,338.9375 648,338.9375 648,328.9375 " fill="none" style="stroke:#181818;stroke-width:1.5;"/><rect fill="#E2E2F0" height="31.6094" rx="2.5" ry="2.5" style="stroke:#181818;stroke-width:0.5;" width="82" x="673.5" y="95.9609"/><text fill="#000000" font-family="sans-serif" font-size="14" lengthAdjust="spacing" textLength="68" x="680.5" y="117.4941">Messaging</text><rect fill="#E2E2F0" height="31.6094" rx="2.5" ry="2.5" style="stroke:#181818;stroke-width:0.5;" width="82" x="673.5" y="301.3281"/><text fill="#000000" font-family="sans-serif" font-size="14" lengthAdjust="spacing" textLength="68" x="680.5" y="322.8613">Messaging</text><rect fill="#E2E2F0" height="31.6094" rx="2.5" ry="2.5" style="stroke:#181818;stroke-width:0.5;" width="82" x="777.5" y="95.9609"/><text fill="#000000" font-family="sans-serif" font-size="14" lengthAdjust="spacing" textLength="68" x="784.5" y="117.4941">Messaging</text><rect fill="#E2E2F0" height="31.6094" rx="2.5" ry="2.5" style="stroke:#181818;stroke-width:0.5;" width="82" x="777.5" y="301.3281"/><text fill="#000000" font-family="sans-serif" font-size="14" lengthAdjust="spacing" textLength="68" x="784.5" y="322.8613">Messaging</text><polygon fill="#181818" points="475,156.9219,485,160.9219,475,164.9219,479,160.9219" style="stroke:#181818;stroke-width:1.0;"/><line style="stroke:#181818;stroke-width:1.0;" x1="290" x2="481" y1="160.9219" y2="160.9219"/><text fill="#000000" font-family="sans-serif" font-size="13" lengthAdjust="spacing" textLength="173" x="297" y="156.0654">Handle Payment Result Event</text><path d="M415,175.9219 L647,175.9219 L647,184.2734 L637,194.2734 L415,194.2734 L415,175.9219 " fill="#EEEEEE" style="stroke:#000000;stroke-width:1.5;"/><rect fill="none" height="109.4063" style="stroke:#000000;stroke-width:1.5;" width="454.5" x="415" y="175.9219"/><text fill="#000000" font-family="sans-serif" font-size="13" font-weight="bold" lengthAdjust="spacing" textLength="187" x="430" y="190.417">Handle Payment Result Event</text><polygon fill="#181818" points="806.5,212.625,816.5,216.625,806.5,220.625,810.5,216.625" style="stroke:#181818;stroke-width:1.0;"/><line style="stroke:#181818;stroke-width:1.0;" x1="487" x2="812.5" y1="216.625" y2="216.625"/><text fill="#000000" font-family="sans-serif" font-size="13" lengthAdjust="spacing" textLength="178" x="494" y="211.7686">Receive Payment Result Event</text><polygon fill="#181818" points="618,242.9766,628,246.9766,618,250.9766,622,246.9766" style="stroke:#181818;stroke-width:1.0;"/><line style="stroke:#181818;stroke-width:1.0;" x1="487" x2="624" y1="246.9766" y2="246.9766"/><text fill="#000000" font-family="sans-serif" font-size="13" lengthAdjust="spacing" textLength="119" x="494" y="242.1201">Update Order Status</text><polygon fill="#181818" points="702.5,273.3281,712.5,277.3281,702.5,281.3281,706.5,277.3281" style="stroke:#181818;stroke-width:1.0;"/><line style="stroke:#181818;stroke-width:1.0;" x1="487" x2="708.5" y1="277.3281" y2="277.3281"/><text fill="#000000" font-family="sans-serif" font-size="13" lengthAdjust="spacing" textLength="199" x="494" y="272.4717">Send Order Status Changed Event</text><!--SRC=[tLGzSy8m3DtzAtJfd4oTEdG9z6FWof7hTHP4fBvpdDHM0lpxYk1GA8LZe5oldcnBydjwaioQ3S4GqgeioSq8nWPvNhaIOdWaImwPO40bsbnkNbnE3aPeiQ2IB6-lCdAjbkWOHkIzME598enOuh23CQwwa0dvnZ0CsqryHXyDsIuqhIoZ5ammr99HgaR7UgPh5Czek6Ho5aq4w26zVRPoV33L8icgEI_GKRRoJALFUiVDMQbfjOHeZsO4Ds_lcac1h3sGR-mxh66lJIzDqWkpqINftluIvO1GPm_GoJP9dmImWDMHoP5nYfuW6eJTxrBeKOufeMrn3Gq4Hf5qc9HAXOBrxN9coOuJ7P3HBRaaFEWFg0N3cUJExpo8xw_LEt1tQifKuQgcFkbnBPu_IdA92ea24vgHlFC74xpmi4gkhtM-_fZ3hyR8ZVyNAUxMCriFtMw6aBwZBIWF9HMpKfy0]--></g></svg>