<?xml version="1.0" encoding="us-ascii" standalone="no"?><svg xmlns="http://www.w3.org/2000/svg" xmlns:xlink="http://www.w3.org/1999/xlink" contentStyleType="text/css" height="415px" preserveAspectRatio="none" style="width:1129px;height:415px;background:#FFFFFF;" version="1.1" viewBox="0 0 1129 415" width="1129px" zoomAndPan="magnify"><defs/><g><text fill="#000000" font-family="sans-serif" font-size="14" font-weight="bold" lengthAdjust="spacing" textLength="1101" x="10" y="24.5332">E Commerce Platform - Generate Demand - Order Management - Order Service - Message Handler - Handle Payment Result Event - C4 Static - Container level</text><!--cluster ECommercePlatform.GenerateDemand.OrderManagement.SoftwareSystems.OrderService--><g id="cluster_ECommercePlatform.GenerateDemand.OrderManagement.SoftwareSystems.OrderService"><rect fill="none" height="266.5" rx="2.5" ry="2.5" style="stroke:#444444;stroke-width:1.0;stroke-dasharray:7.0,7.0;" width="263" x="352.5" y="45.6094"/><text fill="#444444" font-family="sans-serif" font-size="16" font-weight="bold" lengthAdjust="spacing" textLength="104" x="432" y="64.2188">Order Service</text><text fill="#444444" font-family="sans-serif" font-size="12" font-weight="bold" lengthAdjust="spacing" textLength="51" x="458.5" y="80.1914">[System]</text></g><!--cluster ECommercePlatform.Deliver.Payments.SoftwareSystems.PaymentService--><g id="cluster_ECommercePlatform.Deliver.Payments.SoftwareSystems.PaymentService"><rect fill="none" height="100" rx="2.5" ry="2.5" style="stroke:#444444;stroke-width:1.0;stroke-dasharray:7.0,7.0;" width="144" x="639.5" y="202.6094"/><text fill="#444444" font-family="sans-serif" font-size="16" font-weight="bold" lengthAdjust="spacing" textLength="128" x="647.5" y="221.2188">Payment Service</text><text fill="#444444" font-family="sans-serif" font-size="12" font-weight="bold" lengthAdjust="spacing" textLength="51" x="686" y="237.1914">[System]</text></g><!--entity ECommercePlatform.GenerateDemand.OrderManagement.SoftwareSystems.OrderService.Containers.MessageHandler--><g id="elem_ECommercePlatform.GenerateDemand.OrderManagement.SoftwareSystems.OrderService.Containers.MessageHandler"><rect fill="#438DD5" height="40.125" rx="2.5" ry="2.5" style="stroke:#3C7FC0;stroke-width:0.5;" width="152" x="447.5" y="99.6094"/><text fill="#FFFFFF" font-family="sans-serif" font-size="16" font-weight="bold" lengthAdjust="spacing" textLength="68" x="457.5" y="126.2188">Message</text><text fill="#FFFFFF" font-family="sans-serif" font-size="16" font-weight="bold" lengthAdjust="spacing" textLength="4" x="525.5" y="126.2188">&#160;</text><text fill="#FFFFFF" font-family="sans-serif" font-size="16" font-weight="bold" lengthAdjust="spacing" textLength="60" x="529.5" y="126.2188">Handler</text></g><!--entity ECommercePlatform.GenerateDemand.OrderManagement.SoftwareSystems.OrderService.Containers.Database--><g id="elem_ECommercePlatform.GenerateDemand.OrderManagement.SoftwareSystems.OrderService.Containers.Database"><path d="M368.5,257.1094 C368.5,247.1094 414.5,247.1094 414.5,247.1094 C414.5,247.1094 460.5,247.1094 460.5,257.1094 L460.5,286.2344 C460.5,296.2344 414.5,296.2344 414.5,296.2344 C414.5,296.2344 368.5,296.2344 368.5,286.2344 L368.5,257.1094 " fill="#438DD5" style="stroke:#3C7FC0;stroke-width:0.5;"/><path d="M368.5,257.1094 C368.5,267.1094 414.5,267.1094 414.5,267.1094 C414.5,267.1094 460.5,267.1094 460.5,257.1094 " fill="none" style="stroke:#3C7FC0;stroke-width:0.5;"/><text fill="#FFFFFF" font-family="sans-serif" font-size="16" font-weight="bold" lengthAdjust="spacing" textLength="72" x="378.5" y="287.7188">Database</text></g><!--entity ECommercePlatform.GenerateDemand.OrderManagement.SoftwareSystems.OrderService.Containers.Messaging--><g id="elem_ECommercePlatform.GenerateDemand.OrderManagement.SoftwareSystems.OrderService.Containers.Messaging"><path d="M501,256.6094 L594,256.6094 C599,256.6094 599,271.6719 599,271.6719 C599,271.6719 599,286.7344 594,286.7344 L501,286.7344 C496,286.7344 496,271.6719 496,271.6719 C496,271.6719 496,256.6094 501,256.6094 " fill="#438DD5" style="stroke:#3C7FC0;stroke-width:0.5;"/><path d="M594,256.6094 C589,256.6094 589,271.6719 589,271.6719 C589,286.7344 594,286.7344 594,286.7344 " fill="none" style="stroke:#3C7FC0;stroke-width:0.5;"/><text fill="#FFFFFF" font-family="sans-serif" font-size="16" font-weight="bold" lengthAdjust="spacing" textLength="83" x="501" y="278.2188">Messaging</text></g><!--entity ECommercePlatform.Deliver.Payments.SoftwareSystems.PaymentService.Containers.Messaging--><g id="elem_ECommercePlatform.Deliver.Payments.SoftwareSystems.PaymentService.Containers.Messaging"><path d="M661,256.6094 L754,256.6094 C759,256.6094 759,271.6719 759,271.6719 C759,271.6719 759,286.7344 754,286.7344 L661,286.7344 C656,286.7344 656,271.6719 656,271.6719 C656,271.6719 656,256.6094 661,256.6094 " fill="#438DD5" style="stroke:#3C7FC0;stroke-width:0.5;"/><path d="M754,256.6094 C749,256.6094 749,271.6719 749,271.6719 C749,286.7344 754,286.7344 754,286.7344 " fill="none" style="stroke:#3C7FC0;stroke-width:0.5;"/><text fill="#FFFFFF" font-family="sans-serif" font-size="16" font-weight="bold" lengthAdjust="spacing" textLength="83" x="661" y="278.2188">Messaging</text></g><!--link ECommercePlatform.GenerateDemand.OrderManagement.SoftwareSystems.OrderService.Containers.MessageHandler to ECommercePlatform.Deliver.Payments.SoftwareSystems.PaymentService.Containers.Messaging--><g id="link_ECommercePlatform.GenerateDemand.OrderManagement.SoftwareSystems.OrderService.Containers.MessageHandler_ECommercePlatform.Deliver.Payments.SoftwareSystems.PaymentService.Containers.Messaging"><path d="M547.19,139.6694 C574.45,161.5894 615.5,194.6094 615.5,194.6094 C615.5,194.6094 657.3817,229.205 684.0317,251.215 " fill="none" id="ECommercePlatform.GenerateDemand.OrderManagement.SoftwareSystems.OrderService.Containers.MessageHandler-to-ECommercePlatform.Deliver.Payments.SoftwareSystems.PaymentService.Containers.Messaging" style="stroke:#666666;stroke-width:1.0;"/><polygon fill="#666666" points="690.2,256.3094,685.9421,248.9019,682.1213,253.5281,690.2,256.3094" style="stroke:#666666;stroke-width:1.0;"/><text fill="#666666" font-family="sans-serif" font-size="12" font-weight="bold" lengthAdjust="spacing" textLength="29" x="604.5" y="183.0664">Uses</text></g><!--link ECommercePlatform.GenerateDemand.OrderManagement.SoftwareSystems.OrderService.Containers.MessageHandler to ECommercePlatform.GenerateDemand.OrderManagement.SoftwareSystems.OrderService.Containers.Database--><g id="link_ECommercePlatform.GenerateDemand.OrderManagement.SoftwareSystems.OrderService.Containers.MessageHandler_ECommercePlatform.GenerateDemand.OrderManagement.SoftwareSystems.OrderService.Containers.Database"><path d="M509.47,139.9094 C489.58,167.2894 457.9025,210.8774 436.4025,240.4674 " fill="none" id="ECommercePlatform.GenerateDemand.OrderManagement.SoftwareSystems.OrderService.Containers.MessageHandler-to-ECommercePlatform.GenerateDemand.OrderManagement.SoftwareSystems.OrderService.Containers.Database" style="stroke:#666666;stroke-width:1.0;"/><polygon fill="#666666" points="431.7,246.9394,438.8295,242.2308,433.9755,238.704,431.7,246.9394" style="stroke:#666666;stroke-width:1.0;"/><text fill="#666666" font-family="sans-serif" font-size="12" font-weight="bold" lengthAdjust="spacing" textLength="29" x="486.5" y="183.0664">Uses</text></g><!--link ECommercePlatform.GenerateDemand.OrderManagement.SoftwareSystems.OrderService.Containers.MessageHandler to ECommercePlatform.GenerateDemand.OrderManagement.SoftwareSystems.OrderService.Containers.Messaging--><g id="link_ECommercePlatform.GenerateDemand.OrderManagement.SoftwareSystems.OrderService.Containers.MessageHandler_ECommercePlatform.GenerateDemand.OrderManagement.SoftwareSystems.OrderService.Containers.Messaging"><path d="M526.59,139.9094 C531.48,170.4594 539.6169,221.3297 543.9469,248.4097 " fill="none" id="ECommercePlatform.GenerateDemand.OrderManagement.SoftwareSystems.OrderService.Containers.MessageHandler-to-ECommercePlatform.GenerateDemand.OrderManagement.SoftwareSystems.OrderService.Containers.Messaging" style="stroke:#666666;stroke-width:1.0;"/><polygon fill="#666666" points="545.21,256.3094,546.9092,247.936,540.9845,248.8834,545.21,256.3094" style="stroke:#666666;stroke-width:1.0;"/><text fill="#666666" font-family="sans-serif" font-size="12" font-weight="bold" lengthAdjust="spacing" textLength="29" x="534.5" y="183.0664">Uses</text></g><rect fill="none" height="17.6094" style="stroke:none;stroke-width:1.0;" width="182" x="576.5" y="336.1094"/><text fill="#000000" font-family="sans-serif" font-size="14" font-weight="bold" lengthAdjust="spacing" textLength="53" x="576.5" y="350.6426">Legend</text><text fill="#FFFFFF" font-family="sans-serif" font-size="14" lengthAdjust="spacing" textLength="4" x="629.5" y="350.6426">&#160;</text><rect fill="#438DD5" height="17.6094" style="stroke:none;stroke-width:1.0;" width="182" x="576.5" y="353.7188"/><text fill="#3C7FC0" font-family="sans-serif" font-size="14" lengthAdjust="spacing" textLength="14" x="580.5" y="368.252">&#9647;</text><text fill="#FFFFFF" font-family="sans-serif" font-size="14" lengthAdjust="spacing" textLength="4" x="594.5" y="368.252">&#160;</text><text fill="#FFFFFF" font-family="sans-serif" font-size="14" lengthAdjust="spacing" textLength="59" x="602.5" y="368.252">container</text><text fill="#FFFFFF" font-family="sans-serif" font-size="14" lengthAdjust="spacing" textLength="4" x="665.5" y="368.252">&#160;</text><rect fill="none" height="17.6094" style="stroke:none;stroke-width:1.0;" width="182" x="576.5" y="371.3281"/><text fill="#444444" font-family="sans-serif" font-size="14" lengthAdjust="spacing" textLength="14" x="580.5" y="385.8613">&#9647;</text><text fill="#FFFFFF" font-family="sans-serif" font-size="14" lengthAdjust="spacing" textLength="4" x="594.5" y="385.8613">&#160;</text><text fill="#444444" font-family="sans-serif" font-size="14" lengthAdjust="spacing" textLength="108" x="602.5" y="385.8613">system boundary</text><text fill="#444444" font-family="sans-serif" font-size="10" lengthAdjust="spacing" textLength="40" x="714.5" y="386.7402">(dashed)</text><text fill="#FFFFFF" font-family="sans-serif" font-size="14" lengthAdjust="spacing" textLength="4" x="754.5" y="385.8613">&#160;</text><line style="stroke:none;stroke-width:1.0;" x1="576.5" x2="758.5" y1="336.1094" y2="336.1094"/><line style="stroke:none;stroke-width:1.0;" x1="576.5" x2="758.5" y1="353.7188" y2="353.7188"/><line style="stroke:none;stroke-width:1.0;" x1="576.5" x2="758.5" y1="371.3281" y2="371.3281"/><line style="stroke:none;stroke-width:1.0;" x1="576.5" x2="758.5" y1="388.9375" y2="388.9375"/><line style="stroke:none;stroke-width:1.0;" x1="576.5" x2="576.5" y1="336.1094" y2="388.9375"/><line style="stroke:none;stroke-width:1.0;" x1="758.5" x2="758.5" y1="336.1094" y2="388.9375"/><!--SRC=[tLLTQzim57tthz2yFSJG-2bFXJwaiTSEsZYBKygWO1JxsZMJfI39oSpOVz_rjxCsD2tD1ZCsI5VIEUSUNSaVKXwoF09Ysmy7tt2Y7cQJO2QufYa7QM_oZ1d6D8fS1XbmlQB9o0mdATSWOoPsvooD8In21kSSTkOP-RHEPe89UP5808xz6B7goCUuUievGaOWz-UfHng9NSgJ2_CpPGfCwpZQy97o1A8XjP1bw0ZkRk9RoILaOhjFBY4wWhcUzGnjoRi4zhBF6dxeVGSPxjWWOhqCDV2kX-jCwV7gq1600pzwm3hN7WtxcAT_xTq72tVfU_DWuIrNo-cNrSWoRgRVlBjLiF8MWUFTpp5YgEyftr19Cr9Yw683P2DOKNOCGwUQ0N79J6GPo138Wb4T2vcHCRa2B66gWJYGKHvXn2jtWDnIJfDgQxkG3tARukenkGMbS9HSumg68-EcHHQqg9OiGULC4tTRhvzDYA-fJiEotPuRmc0BU70Clr0Qik1Iv3oYiXYvhSvMfjsAh3NQbPnUeEsBME-eX1f8rUEDsZDYxgatBVBJ8FXqEjwNp-vmbTtOrBY4Ilxm3Kl0h3vhNv6pFfqcXsgwfghqfMqUal4rXnnExGuUxCuOR0-q_3gcCXnWwHRluARmr1FsPg2lXhP43zR3eRHVIVNALF7E-7k5UBBaxXGepESV9_F-H-M_okkP3Mj-DJVkbJjtHjPl]--></g></svg>