<?xml version="1.0" encoding="us-ascii" standalone="no"?><svg xmlns="http://www.w3.org/2000/svg" xmlns:xlink="http://www.w3.org/1999/xlink" contentStyleType="text/css" height="1103px" preserveAspectRatio="none" style="width:638px;height:1103px;background:#FFFFFF;" version="1.1" viewBox="0 0 638 1103" width="638px" zoomAndPan="magnify"><defs/><g><rect fill="none" height="1053.1641" style="stroke:#444444;stroke-width:0.5;" width="503" x="129" y="44.6094"/><text fill="#444444" font-family="sans-serif" font-size="13" font-weight="bold" lengthAdjust="spacing" textLength="67" x="347" y="58.1045">Basket Api</text><text fill="#444444" font-family="sans-serif" font-size="12" font-weight="bold" lengthAdjust="spacing" textLength="51" x="355" y="73.418">[System]</text><rect fill="none" height="1016.7188" style="stroke:#444444;stroke-width:0.5;" width="136" x="129" y="81.0547"/><text fill="#444444" font-family="sans-serif" font-size="13" font-weight="bold" lengthAdjust="spacing" textLength="30" x="182" y="94.5498">Grpc</text><text fill="#444444" font-family="sans-serif" font-size="12" font-weight="bold" lengthAdjust="spacing" textLength="63" x="165.5" y="109.8633">[Container]</text><rect fill="none" height="1016.7188" style="stroke:#444444;stroke-width:0.5;" width="355" x="277" y="81.0547"/><text fill="#444444" font-family="sans-serif" font-size="13" font-weight="bold" lengthAdjust="spacing" textLength="29" x="440" y="94.5498">Data</text><text fill="#444444" font-family="sans-serif" font-size="12" font-weight="bold" lengthAdjust="spacing" textLength="63" x="423" y="109.8633">[Container]</text><text fill="#000000" font-family="sans-serif" font-size="14" font-weight="bold" lengthAdjust="spacing" textLength="498" x="72" y="29.5332">Basket Api - Grpc - Basket Service - Update Basket - COMPONENT level</text><rect fill="#FFFFFF" height="859.9609" style="stroke:#FFFFFF;stroke-width:1.0;" width="465" x="162" y="207.8125"/><rect fill="#FFFFFF" height="70.4453" style="stroke:#FFFFFF;stroke-width:1.0;" width="257" x="181" y="240.1641"/><rect fill="#FFFFFF" height="70.4453" style="stroke:#FFFFFF;stroke-width:1.0;" width="218" x="181" y="370.7031"/><rect fill="#FFFFFF" height="316.3594" style="stroke:#FFFFFF;stroke-width:1.0;" width="254.5" x="347.5" y="488.2422"/><rect fill="#FFFFFF" height="156.7266" style="stroke:#FFFFFF;stroke-width:1.0;" width="210.5" x="366.5" y="633.875"/><rect fill="#FFFFFF" height="85.5391" style="stroke:#FFFFFF;stroke-width:1.0;" width="190" x="181" y="822.6016"/><rect fill="#FFFFFF" height="70.4453" style="stroke:#FFFFFF;stroke-width:1.0;" width="283" x="181" y="983.3281"/><line style="stroke:#666666;stroke-width:0.5;stroke-dasharray:5.0,5.0;" x1="64" x2="64" y1="166.7188" y2="1091.7734"/><line style="stroke:#666666;stroke-width:0.5;stroke-dasharray:5.0,5.0;" x1="197" x2="197" y1="166.7188" y2="1091.7734"/><line style="stroke:#666666;stroke-width:0.5;stroke-dasharray:5.0,5.0;" x1="382.5" x2="382.5" y1="166.7188" y2="1091.7734"/><line style="stroke:#666666;stroke-width:0.5;stroke-dasharray:5.0,5.0;" x1="561" x2="561" y1="166.7188" y2="1091.7734"/><rect fill="#999999" height="49.2188" rx="2.5" ry="2.5" style="stroke:#8A8A8A;stroke-width:0.5;" width="118" x="5" y="116.5"/><text fill="#FFFFFF" font-family="sans-serif" font-size="12" font-style="italic" lengthAdjust="spacing" textLength="104" x="12" y="135.957">&#171;external_system&#187;</text><text fill="#FFFFFF" font-family="sans-serif" font-size="16" font-weight="bold" lengthAdjust="spacing" textLength="63" x="32.5" y="155.2031">External</text><rect fill="#85BBF0" height="49.2188" rx="2.5" ry="2.5" style="stroke:#78A8D8;stroke-width:0.5;" width="128" x="133" y="116.5"/><text fill="#000000" font-family="sans-serif" font-size="12" font-style="italic" lengthAdjust="spacing" textLength="76" x="159" y="135.957">&#171;component&#187;</text><text fill="#000000" font-family="sans-serif" font-size="16" font-weight="bold" lengthAdjust="spacing" textLength="114" x="140" y="155.2031">Basket Service</text><rect fill="#85BBF0" height="49.2188" rx="2.5" ry="2.5" style="stroke:#78A8D8;stroke-width:0.5;" width="203" x="281" y="116.5"/><text fill="#000000" font-family="sans-serif" font-size="12" font-style="italic" lengthAdjust="spacing" textLength="76" x="344.5" y="135.957">&#171;component&#187;</text><text fill="#000000" font-family="sans-serif" font-size="16" font-weight="bold" lengthAdjust="spacing" textLength="189" x="288" y="155.2031">Redis Basket Repository</text><rect fill="#85BBF0" height="49.2188" rx="2.5" ry="2.5" style="stroke:#78A8D8;stroke-width:0.5;" width="134" x="494" y="116.5"/><text fill="#000000" font-family="sans-serif" font-size="12" font-style="italic" lengthAdjust="spacing" textLength="76" x="523" y="135.957">&#171;component&#187;</text><text fill="#000000" font-family="sans-serif" font-size="16" font-weight="bold" lengthAdjust="spacing" textLength="120" x="501" y="155.2031">Redis Database</text><polygon fill="#666666" points="185,191.8125,195,195.8125,185,199.8125,189,195.8125" style="stroke:#666666;stroke-width:1.0;"/><line style="stroke:#666666;stroke-width:1.0;" x1="64" x2="191" y1="195.8125" y2="195.8125"/><text fill="#666666" font-family="sans-serif" font-size="12" font-weight="bold" lengthAdjust="spacing" textLength="40" x="89" y="191.1758">Update</text><text fill="#666666" font-family="sans-serif" font-size="12" font-weight="bold" lengthAdjust="spacing" textLength="3" x="129" y="191.1758">&#160;</text><text fill="#666666" font-family="sans-serif" font-size="12" font-weight="bold" lengthAdjust="spacing" textLength="40" x="132" y="191.1758">Basket</text><path d="M162,207.8125 L298,207.8125 L298,216.1641 L288,226.1641 L162,226.1641 L162,207.8125 " fill="#444444" style="stroke:#444444;stroke-width:1.5;"/><rect fill="none" height="859.9609" style="stroke:#444444;stroke-width:1.5;" width="465" x="162" y="207.8125"/><text fill="#FFFFFF" font-family="sans-serif" font-size="13" font-weight="bold" lengthAdjust="spacing" textLength="91" x="177" y="222.3076">Update Basket</text><path d="M181,240.1641 L242,240.1641 L242,248.5156 L232,258.5156 L181,258.5156 L181,240.1641 " fill="#444444" style="stroke:#444444;stroke-width:1.5;"/><rect fill="none" height="70.4453" style="stroke:#444444;stroke-width:1.5;" width="257" x="181" y="240.1641"/><text fill="#FFFFFF" font-family="sans-serif" font-size="13" font-weight="bold" lengthAdjust="spacing" textLength="16" x="196" y="254.6592">alt</text><text fill="#444444" font-family="sans-serif" font-size="11" font-weight="bold" lengthAdjust="spacing" textLength="165" x="257" y="253.583">[string.IsNullOrEmpty(userId)]</text><line style="stroke:#666666;stroke-width:1.0;" x1="197" x2="239" y1="289.6094" y2="289.6094"/><line style="stroke:#666666;stroke-width:1.0;" x1="239" x2="239" y1="289.6094" y2="302.6094"/><line style="stroke:#666666;stroke-width:1.0;" x1="198" x2="239" y1="302.6094" y2="302.6094"/><polygon fill="#666666" points="208,298.6094,198,302.6094,208,306.6094,204,302.6094" style="stroke:#666666;stroke-width:1.0;"/><text fill="#666666" font-family="sans-serif" font-size="12" font-weight="bold" lengthAdjust="spacing" textLength="36" x="204" y="284.9727">Throw</text><text fill="#666666" font-family="sans-serif" font-size="12" font-weight="bold" lengthAdjust="spacing" textLength="3" x="240" y="284.9727">&#160;</text><text fill="#666666" font-family="sans-serif" font-size="12" font-weight="bold" lengthAdjust="spacing" textLength="19" x="243" y="284.9727">Not</text><text fill="#666666" font-family="sans-serif" font-size="12" font-weight="bold" lengthAdjust="spacing" textLength="3" x="262" y="284.9727">&#160;</text><text fill="#666666" font-family="sans-serif" font-size="12" font-weight="bold" lengthAdjust="spacing" textLength="79" x="265" y="284.9727">Authenticated</text><line style="stroke:#666666;stroke-width:1.0;" x1="197" x2="239" y1="345.7031" y2="345.7031"/><line style="stroke:#666666;stroke-width:1.0;" x1="239" x2="239" y1="345.7031" y2="358.7031"/><line style="stroke:#666666;stroke-width:1.0;" x1="198" x2="239" y1="358.7031" y2="358.7031"/><polygon fill="#666666" points="208,354.7031,198,358.7031,208,362.7031,204,358.7031" style="stroke:#666666;stroke-width:1.0;"/><text fill="#666666" font-family="sans-serif" font-size="12" font-weight="bold" lengthAdjust="spacing" textLength="24" x="204" y="341.0664">Map</text><text fill="#666666" font-family="sans-serif" font-size="12" font-weight="bold" lengthAdjust="spacing" textLength="3" x="228" y="341.0664">&#160;</text><text fill="#666666" font-family="sans-serif" font-size="12" font-weight="bold" lengthAdjust="spacing" textLength="14" x="231" y="341.0664">To</text><text fill="#666666" font-family="sans-serif" font-size="12" font-weight="bold" lengthAdjust="spacing" textLength="3" x="245" y="341.0664">&#160;</text><text fill="#666666" font-family="sans-serif" font-size="12" font-weight="bold" lengthAdjust="spacing" textLength="56" x="248" y="341.0664">Customer</text><text fill="#666666" font-family="sans-serif" font-size="12" font-weight="bold" lengthAdjust="spacing" textLength="3" x="304" y="341.0664">&#160;</text><text fill="#666666" font-family="sans-serif" font-size="12" font-weight="bold" lengthAdjust="spacing" textLength="40" x="307" y="341.0664">Basket</text><path d="M181,370.7031 L383,370.7031 L383,379.0547 L373,389.0547 L181,389.0547 L181,370.7031 " fill="#444444" style="stroke:#444444;stroke-width:1.5;"/><rect fill="none" height="70.4453" style="stroke:#444444;stroke-width:1.5;" width="218" x="181" y="370.7031"/><text fill="#FFFFFF" font-family="sans-serif" font-size="13" font-weight="bold" lengthAdjust="spacing" textLength="157" x="196" y="385.1982">Map To Customer Basket</text><line style="stroke:#666666;stroke-width:1.0;" x1="197" x2="239" y1="420.1484" y2="420.1484"/><line style="stroke:#666666;stroke-width:1.0;" x1="239" x2="239" y1="420.1484" y2="433.1484"/><line style="stroke:#666666;stroke-width:1.0;" x1="198" x2="239" y1="433.1484" y2="433.1484"/><polygon fill="#666666" points="208,429.1484,198,433.1484,208,437.1484,204,433.1484" style="stroke:#666666;stroke-width:1.0;"/><text fill="#666666" font-family="sans-serif" font-size="12" font-weight="bold" lengthAdjust="spacing" textLength="33" x="204" y="415.5117">Retun</text><text fill="#666666" font-family="sans-serif" font-size="12" font-weight="bold" lengthAdjust="spacing" textLength="3" x="237" y="415.5117">&#160;</text><text fill="#666666" font-family="sans-serif" font-size="12" font-weight="bold" lengthAdjust="spacing" textLength="62" x="240" y="415.5117">(response)</text><polygon fill="#666666" points="370.5,472.2422,380.5,476.2422,370.5,480.2422,374.5,476.2422" style="stroke:#666666;stroke-width:1.0;"/><line style="stroke:#666666;stroke-width:1.0;" x1="197" x2="376.5" y1="476.2422" y2="476.2422"/><text fill="#666666" font-family="sans-serif" font-size="12" font-weight="bold" lengthAdjust="spacing" textLength="40" x="229.25" y="471.6055">Update</text><text fill="#666666" font-family="sans-serif" font-size="12" font-weight="bold" lengthAdjust="spacing" textLength="3" x="269.25" y="471.6055">&#160;</text><text fill="#666666" font-family="sans-serif" font-size="12" font-weight="bold" lengthAdjust="spacing" textLength="40" x="272.25" y="471.6055">Basket</text><text fill="#666666" font-family="sans-serif" font-size="12" font-weight="bold" lengthAdjust="spacing" textLength="3" x="312.25" y="471.6055">&#160;</text><text fill="#666666" font-family="sans-serif" font-size="12" font-weight="bold" lengthAdjust="spacing" textLength="35" x="315.25" y="471.6055">Async</text><path d="M347.5,488.2422 L524.5,488.2422 L524.5,496.5938 L514.5,506.5938 L347.5,506.5938 L347.5,488.2422 " fill="#444444" style="stroke:#444444;stroke-width:1.5;"/><rect fill="none" height="316.3594" style="stroke:#444444;stroke-width:1.5;" width="254.5" x="347.5" y="488.2422"/><text fill="#FFFFFF" font-family="sans-serif" font-size="13" font-weight="bold" lengthAdjust="spacing" textLength="132" x="362.5" y="502.7373">Update Basket Async</text><polygon fill="#666666" points="549,533.6875,559,537.6875,549,541.6875,553,537.6875" style="stroke:#666666;stroke-width:1.0;"/><line style="stroke:#666666;stroke-width:1.0;" x1="382.5" x2="555" y1="537.6875" y2="537.6875"/><text fill="#666666" font-family="sans-serif" font-size="12" font-weight="bold" lengthAdjust="spacing" textLength="34" x="424.75" y="533.0508">String</text><text fill="#666666" font-family="sans-serif" font-size="12" font-weight="bold" lengthAdjust="spacing" textLength="3" x="458.75" y="533.0508">&#160;</text><text fill="#666666" font-family="sans-serif" font-size="12" font-weight="bold" lengthAdjust="spacing" textLength="19" x="461.75" y="533.0508">Set</text><text fill="#666666" font-family="sans-serif" font-size="12" font-weight="bold" lengthAdjust="spacing" textLength="3" x="480.75" y="533.0508">&#160;</text><text fill="#666666" font-family="sans-serif" font-size="12" font-weight="bold" lengthAdjust="spacing" textLength="35" x="483.75" y="533.0508">Async</text><line style="stroke:#666666;stroke-width:1.0;" x1="382.5" x2="424.5" y1="566.7813" y2="566.7813"/><line style="stroke:#666666;stroke-width:1.0;" x1="424.5" x2="424.5" y1="566.7813" y2="579.7813"/><line style="stroke:#666666;stroke-width:1.0;" x1="383.5" x2="424.5" y1="579.7813" y2="579.7813"/><polygon fill="#666666" points="393.5,575.7813,383.5,579.7813,393.5,583.7813,389.5,579.7813" style="stroke:#666666;stroke-width:1.0;"/><text fill="#666666" font-family="sans-serif" font-size="12" font-weight="bold" lengthAdjust="spacing" textLength="19" x="389.5" y="562.1445">Get</text><text fill="#666666" font-family="sans-serif" font-size="12" font-weight="bold" lengthAdjust="spacing" textLength="3" x="408.5" y="562.1445">&#160;</text><text fill="#666666" font-family="sans-serif" font-size="12" font-weight="bold" lengthAdjust="spacing" textLength="40" x="411.5" y="562.1445">Basket</text><text fill="#666666" font-family="sans-serif" font-size="12" font-weight="bold" lengthAdjust="spacing" textLength="3" x="451.5" y="562.1445">&#160;</text><text fill="#666666" font-family="sans-serif" font-size="12" font-weight="bold" lengthAdjust="spacing" textLength="21" x="454.5" y="562.1445">Key</text><line style="stroke:#666666;stroke-width:1.0;" x1="382.5" x2="424.5" y1="608.875" y2="608.875"/><line style="stroke:#666666;stroke-width:1.0;" x1="424.5" x2="424.5" y1="608.875" y2="621.875"/><line style="stroke:#666666;stroke-width:1.0;" x1="383.5" x2="424.5" y1="621.875" y2="621.875"/><polygon fill="#666666" points="393.5,617.875,383.5,621.875,393.5,625.875,389.5,621.875" style="stroke:#666666;stroke-width:1.0;"/><text fill="#666666" font-family="sans-serif" font-size="12" font-weight="bold" lengthAdjust="spacing" textLength="19" x="389.5" y="604.2383">Get</text><text fill="#666666" font-family="sans-serif" font-size="12" font-weight="bold" lengthAdjust="spacing" textLength="3" x="408.5" y="604.2383">&#160;</text><text fill="#666666" font-family="sans-serif" font-size="12" font-weight="bold" lengthAdjust="spacing" textLength="40" x="411.5" y="604.2383">Basket</text><text fill="#666666" font-family="sans-serif" font-size="12" font-weight="bold" lengthAdjust="spacing" textLength="3" x="451.5" y="604.2383">&#160;</text><text fill="#666666" font-family="sans-serif" font-size="12" font-weight="bold" lengthAdjust="spacing" textLength="35" x="454.5" y="604.2383">Async</text><path d="M366.5,633.875 L520.5,633.875 L520.5,642.2266 L510.5,652.2266 L366.5,652.2266 L366.5,633.875 " fill="#444444" style="stroke:#444444;stroke-width:1.5;"/><rect fill="none" height="156.7266" style="stroke:#444444;stroke-width:1.5;" width="210.5" x="366.5" y="633.875"/><text fill="#FFFFFF" font-family="sans-serif" font-size="13" font-weight="bold" lengthAdjust="spacing" textLength="109" x="381.5" y="648.3701">Get Basket Async</text><polygon fill="#666666" points="549,679.3203,559,683.3203,549,687.3203,553,683.3203" style="stroke:#666666;stroke-width:1.0;"/><line style="stroke:#666666;stroke-width:1.0;" x1="382.5" x2="555" y1="683.3203" y2="683.3203"/><text fill="#666666" font-family="sans-serif" font-size="12" font-weight="bold" lengthAdjust="spacing" textLength="34" x="405.75" y="678.6836">String</text><text fill="#666666" font-family="sans-serif" font-size="12" font-weight="bold" lengthAdjust="spacing" textLength="3" x="439.75" y="678.6836">&#160;</text><text fill="#666666" font-family="sans-serif" font-size="12" font-weight="bold" lengthAdjust="spacing" textLength="19" x="442.75" y="678.6836">Get</text><text fill="#666666" font-family="sans-serif" font-size="12" font-weight="bold" lengthAdjust="spacing" textLength="3" x="461.75" y="678.6836">&#160;</text><text fill="#666666" font-family="sans-serif" font-size="12" font-weight="bold" lengthAdjust="spacing" textLength="35" x="464.75" y="678.6836">Lease</text><text fill="#666666" font-family="sans-serif" font-size="12" font-weight="bold" lengthAdjust="spacing" textLength="3" x="499.75" y="678.6836">&#160;</text><text fill="#666666" font-family="sans-serif" font-size="12" font-weight="bold" lengthAdjust="spacing" textLength="35" x="502.75" y="678.6836">Async</text><line style="stroke:#666666;stroke-width:1.0;" x1="382.5" x2="424.5" y1="712.4141" y2="712.4141"/><line style="stroke:#666666;stroke-width:1.0;" x1="424.5" x2="424.5" y1="712.4141" y2="725.4141"/><line style="stroke:#666666;stroke-width:1.0;" x1="383.5" x2="424.5" y1="725.4141" y2="725.4141"/><polygon fill="#666666" points="393.5,721.4141,383.5,725.4141,393.5,729.4141,389.5,725.4141" style="stroke:#666666;stroke-width:1.0;"/><text fill="#666666" font-family="sans-serif" font-size="12" font-weight="bold" lengthAdjust="spacing" textLength="19" x="389.5" y="707.7773">Get</text><text fill="#666666" font-family="sans-serif" font-size="12" font-weight="bold" lengthAdjust="spacing" textLength="3" x="408.5" y="707.7773">&#160;</text><text fill="#666666" font-family="sans-serif" font-size="12" font-weight="bold" lengthAdjust="spacing" textLength="40" x="411.5" y="707.7773">Basket</text><text fill="#666666" font-family="sans-serif" font-size="12" font-weight="bold" lengthAdjust="spacing" textLength="3" x="451.5" y="707.7773">&#160;</text><text fill="#666666" font-family="sans-serif" font-size="12" font-weight="bold" lengthAdjust="spacing" textLength="21" x="454.5" y="707.7773">Key</text><line style="stroke:#666666;stroke-width:1.0;" x1="382.5" x2="424.5" y1="769.6016" y2="769.6016"/><line style="stroke:#666666;stroke-width:1.0;" x1="424.5" x2="424.5" y1="769.6016" y2="782.6016"/><line style="stroke:#666666;stroke-width:1.0;" x1="383.5" x2="424.5" y1="782.6016" y2="782.6016"/><polygon fill="#666666" points="393.5,778.6016,383.5,782.6016,393.5,786.6016,389.5,782.6016" style="stroke:#666666;stroke-width:1.0;"/><text fill="#666666" font-family="sans-serif" font-size="12" font-weight="bold" lengthAdjust="spacing" textLength="33" x="451" y="749.8711">Retun</text><text fill="#666666" font-family="sans-serif" font-size="12" font-weight="bold" lengthAdjust="spacing" textLength="156" x="389.5" y="764.9648">(JsonSerializer.Deserialize)</text><path d="M181,822.6016 L242,822.6016 L242,830.9531 L232,840.9531 L181,840.9531 L181,822.6016 " fill="#444444" style="stroke:#444444;stroke-width:1.5;"/><rect fill="none" height="85.5391" style="stroke:#444444;stroke-width:1.5;" width="190" x="181" y="822.6016"/><text fill="#FFFFFF" font-family="sans-serif" font-size="13" font-weight="bold" lengthAdjust="spacing" textLength="16" x="196" y="837.0967">alt</text><text fill="#444444" font-family="sans-serif" font-size="11" font-weight="bold" lengthAdjust="spacing" textLength="98" x="257" y="836.0205">[response is null]</text><line style="stroke:#666666;stroke-width:1.0;" x1="197" x2="239" y1="887.1406" y2="887.1406"/><line style="stroke:#666666;stroke-width:1.0;" x1="239" x2="239" y1="887.1406" y2="900.1406"/><line style="stroke:#666666;stroke-width:1.0;" x1="198" x2="239" y1="900.1406" y2="900.1406"/><polygon fill="#666666" points="208,896.1406,198,900.1406,208,904.1406,204,900.1406" style="stroke:#666666;stroke-width:1.0;"/><text fill="#666666" font-family="sans-serif" font-size="12" font-weight="bold" lengthAdjust="spacing" textLength="36" x="204" y="867.4102">Throw</text><text fill="#666666" font-family="sans-serif" font-size="12" font-weight="bold" lengthAdjust="spacing" textLength="3" x="240" y="867.4102">&#160;</text><text fill="#666666" font-family="sans-serif" font-size="12" font-weight="bold" lengthAdjust="spacing" textLength="40" x="243" y="867.4102">Basket</text><text fill="#666666" font-family="sans-serif" font-size="12" font-weight="bold" lengthAdjust="spacing" textLength="3" x="283" y="867.4102">&#160;</text><text fill="#666666" font-family="sans-serif" font-size="12" font-weight="bold" lengthAdjust="spacing" textLength="29" x="286" y="867.4102">Does</text><text fill="#666666" font-family="sans-serif" font-size="12" font-weight="bold" lengthAdjust="spacing" textLength="3" x="315" y="867.4102">&#160;</text><text fill="#666666" font-family="sans-serif" font-size="12" font-weight="bold" lengthAdjust="spacing" textLength="19" x="318" y="867.4102">Not</text><text fill="#666666" font-family="sans-serif" font-size="12" font-weight="bold" lengthAdjust="spacing" textLength="28" x="256.5" y="882.5039">Exist</text><line style="stroke:#666666;stroke-width:1.0;" x1="197" x2="239" y1="958.3281" y2="958.3281"/><line style="stroke:#666666;stroke-width:1.0;" x1="239" x2="239" y1="958.3281" y2="971.3281"/><line style="stroke:#666666;stroke-width:1.0;" x1="198" x2="239" y1="971.3281" y2="971.3281"/><polygon fill="#666666" points="208,967.3281,198,971.3281,208,975.3281,204,971.3281" style="stroke:#666666;stroke-width:1.0;"/><text fill="#666666" font-family="sans-serif" font-size="12" font-weight="bold" lengthAdjust="spacing" textLength="24" x="204" y="938.5977">Map</text><text fill="#666666" font-family="sans-serif" font-size="12" font-weight="bold" lengthAdjust="spacing" textLength="3" x="228" y="938.5977">&#160;</text><text fill="#666666" font-family="sans-serif" font-size="12" font-weight="bold" lengthAdjust="spacing" textLength="14" x="231" y="938.5977">To</text><text fill="#666666" font-family="sans-serif" font-size="12" font-weight="bold" lengthAdjust="spacing" textLength="3" x="245" y="938.5977">&#160;</text><text fill="#666666" font-family="sans-serif" font-size="12" font-weight="bold" lengthAdjust="spacing" textLength="56" x="248" y="938.5977">Customer</text><text fill="#666666" font-family="sans-serif" font-size="12" font-weight="bold" lengthAdjust="spacing" textLength="3" x="304" y="938.5977">&#160;</text><text fill="#666666" font-family="sans-serif" font-size="12" font-weight="bold" lengthAdjust="spacing" textLength="40" x="307" y="938.5977">Basket</text><text fill="#666666" font-family="sans-serif" font-size="12" font-weight="bold" lengthAdjust="spacing" textLength="57" x="247" y="953.6914">Response</text><path d="M181,983.3281 L448,983.3281 L448,991.6797 L438,1001.6797 L181,1001.6797 L181,983.3281 " fill="#444444" style="stroke:#444444;stroke-width:1.5;"/><rect fill="none" height="70.4453" style="stroke:#444444;stroke-width:1.5;" width="283" x="181" y="983.3281"/><text fill="#FFFFFF" font-family="sans-serif" font-size="13" font-weight="bold" lengthAdjust="spacing" textLength="222" x="196" y="997.8232">Map To Customer Basket Response</text><line style="stroke:#666666;stroke-width:1.0;" x1="197" x2="239" y1="1032.7734" y2="1032.7734"/><line style="stroke:#666666;stroke-width:1.0;" x1="239" x2="239" y1="1032.7734" y2="1045.7734"/><line style="stroke:#666666;stroke-width:1.0;" x1="198" x2="239" y1="1045.7734" y2="1045.7734"/><polygon fill="#666666" points="208,1041.7734,198,1045.7734,208,1049.7734,204,1045.7734" style="stroke:#666666;stroke-width:1.0;"/><text fill="#666666" font-family="sans-serif" font-size="12" font-weight="bold" lengthAdjust="spacing" textLength="33" x="204" y="1028.1367">Retun</text><text fill="#666666" font-family="sans-serif" font-size="12" font-weight="bold" lengthAdjust="spacing" textLength="3" x="237" y="1028.1367">&#160;</text><text fill="#666666" font-family="sans-serif" font-size="12" font-weight="bold" lengthAdjust="spacing" textLength="62" x="240" y="1028.1367">(response)</text><!--SRC=[xLTVZzem37_lfyZn1D8kJtm1hh0JsmucojvEGhdMWsXfaYNESTsddql_S32ctJJw05hLAiIs7FzinpOtrebrBfWIXGd8V0uej8Xkf4vLo81n_dZwJOV-CHwk4lWUGAV0RSXL5A541UnE-6-0R6GbksNtpgQqrBG4tBDCWGXVR2QmbRrbyVpXytmscIsPWcSWNKdX4VBLv0NxyN2g4TnxPROyCLznAnnKRC-93quBLUtViLv3wD7ltg3LSsU2peGh-fb13SWXsHZBHoxTI8GKWuDVL5Us4GpIjCT4EXazKMmq2gd1_PDgtghnl7GL7LKkzI6noQtHeF4SgdchhH6gex67LnDshglSrs1RJNJMxmpvMA2WyyhbtCXBdQ-HBo2Jlf9SW3LUed45dRsZD-cuvxnoHVTcbSGduQ4rfo7yFY17ssW1wg-kIyTvTN3BoVgrCy4Utlr8A2eywAHUywcV1QNcRf9RBFh1WvjcWnscRktis0lBZJDRDZDKFm9kI4IcX3yZVu3EBX_UWx1iQLWSF9eSt76qJxCl7_O2C6ZMT-19miFWKiBvrefusA57lj3fwHjSySu1_8scTLnxarqnecQuHttPs4u4zvx0rT7x2CML8ppCtMF6rILk2V0J4Eb_-bukmhgxVF16K-6NGiaVuFWOVBDf-atvbIDKquSOpOsQfgXh6PlgC8yD-Dq8DNcH7gzxTAB_7rKi_p13jN9NEqoLN_GJ]--></g></svg>