<?xml version="1.0" encoding="us-ascii" standalone="no"?><svg xmlns="http://www.w3.org/2000/svg" xmlns:xlink="http://www.w3.org/1999/xlink" contentStyleType="text/css" height="587.5px" preserveAspectRatio="none" style="width:421px;height:587px;background:#FFFFFF;" version="1.1" viewBox="0 0 421 587" width="421.25px" zoomAndPan="magnify"><defs/><g><text fill="#000000" font-family="sans-serif" font-size="8.75" font-weight="bold" lengthAdjust="spacing" textLength="311.25" x="55.9375" y="18.4583">Basket Api - Grpc - Basket Service - Update Basket - COMPONENT level</text><rect fill="#FFFFFF" height="556.2207" style="stroke:#181818;stroke-width:0.3125;" width="72.5" x="55.9375" y="27.8809"/><text fill="#000000" font-family="sans-serif" font-size="8.125" font-weight="bold" lengthAdjust="spacing" textLength="18.75" x="82.8125" y="36.3153">Grpc</text><rect fill="#FFFFFF" height="556.2207" style="stroke:#181818;stroke-width:0.3125;" width="224.375" x="176.875" y="27.8809"/><text fill="#000000" font-family="sans-serif" font-size="8.125" font-weight="bold" lengthAdjust="spacing" textLength="18.125" x="280" y="36.3153">Data</text><rect fill="none" height="460.6445" style="stroke:#000000;stroke-width:0.9375;" width="371.5625" x="45.9375" y="90.5762"/><rect fill="none" height="38.5645" style="stroke:#000000;stroke-width:0.9375;" width="153.75" x="52.1875" y="106.4209"/><rect fill="none" height="38.5645" style="stroke:#000000;stroke-width:0.9375;" width="129.375" x="52.1875" y="180.8301"/><rect fill="none" height="178.0078" style="stroke:#000000;stroke-width:0.9375;" width="244.375" x="166.875" y="247.1143"/><rect fill="none" height="84.6289" style="stroke:#000000;stroke-width:0.9375;" width="231.875" x="173.125" y="336.1182"/><rect fill="none" height="38.5645" style="stroke:#000000;stroke-width:0.9375;" width="158.75" x="52.1875" y="433.8721"/><rect fill="none" height="38.5645" style="stroke:#000000;stroke-width:0.9375;" width="170" x="52.1875" y="508.2813"/><line style="stroke:#181818;stroke-width:0.3125;stroke-dasharray:5.0,5.0;" x1="23.125" x2="23.125" y1="60.9814" y2="561.8457"/><line style="stroke:#181818;stroke-width:0.3125;stroke-dasharray:5.0,5.0;" x1="92.1875" x2="92.1875" y1="60.9814" y2="561.8457"/><line style="stroke:#181818;stroke-width:0.3125;stroke-dasharray:5.0,5.0;" x1="231.875" x2="231.875" y1="60.9814" y2="561.8457"/><line style="stroke:#181818;stroke-width:0.3125;stroke-dasharray:5.0,5.0;" x1="362.5" x2="362.5" y1="60.9814" y2="561.8457"/><rect fill="#E2E2F0" height="19.7559" rx="1.5625" ry="1.5625" style="stroke:#181818;stroke-width:0.3125;" width="40.625" x="3.125" y="40.6006"/><text fill="#000000" font-family="sans-serif" font-size="8.75" lengthAdjust="spacing" textLength="31.875" x="7.5" y="54.0588">External</text><rect fill="#E2E2F0" height="19.7559" rx="1.5625" ry="1.5625" style="stroke:#181818;stroke-width:0.3125;" width="40.625" x="3.125" y="561.2207"/><text fill="#000000" font-family="sans-serif" font-size="8.75" lengthAdjust="spacing" textLength="31.875" x="7.5" y="574.679">External</text><rect fill="#E2E2F0" height="19.7559" rx="1.5625" ry="1.5625" style="stroke:#181818;stroke-width:0.3125;" width="67.5" x="58.4375" y="40.6006"/><text fill="#000000" font-family="sans-serif" font-size="8.75" lengthAdjust="spacing" textLength="58.75" x="62.8125" y="54.0588">Basket Service</text><rect fill="#E2E2F0" height="19.7559" rx="1.5625" ry="1.5625" style="stroke:#181818;stroke-width:0.3125;" width="67.5" x="58.4375" y="561.2207"/><text fill="#000000" font-family="sans-serif" font-size="8.75" lengthAdjust="spacing" textLength="58.75" x="62.8125" y="574.679">Basket Service</text><rect fill="#E2E2F0" height="19.7559" rx="1.5625" ry="1.5625" style="stroke:#181818;stroke-width:0.3125;" width="105.625" x="179.375" y="40.6006"/><text fill="#000000" font-family="sans-serif" font-size="8.75" lengthAdjust="spacing" textLength="96.875" x="183.75" y="54.0588">Redis Basket Repository</text><rect fill="#E2E2F0" height="19.7559" rx="1.5625" ry="1.5625" style="stroke:#181818;stroke-width:0.3125;" width="105.625" x="179.375" y="561.2207"/><text fill="#000000" font-family="sans-serif" font-size="8.75" lengthAdjust="spacing" textLength="96.875" x="183.75" y="574.679">Redis Basket Repository</text><rect fill="#E2E2F0" height="19.7559" rx="1.5625" ry="1.5625" style="stroke:#181818;stroke-width:0.3125;" width="71.875" x="326.875" y="40.6006"/><text fill="#000000" font-family="sans-serif" font-size="8.75" lengthAdjust="spacing" textLength="63.125" x="331.25" y="54.0588">Redis Database</text><rect fill="#E2E2F0" height="19.7559" rx="1.5625" ry="1.5625" style="stroke:#181818;stroke-width:0.3125;" width="71.875" x="326.875" y="561.2207"/><text fill="#000000" font-family="sans-serif" font-size="8.75" lengthAdjust="spacing" textLength="63.125" x="331.25" y="574.679">Redis Database</text><polygon fill="#181818" points="84.6875,78.7012,90.9375,81.2012,84.6875,83.7012,87.1875,81.2012" style="stroke:#181818;stroke-width:0.625;"/><line style="stroke:#181818;stroke-width:0.625;" x1="23.4375" x2="88.4375" y1="81.2012" y2="81.2012"/><text fill="#000000" font-family="sans-serif" font-size="8.125" lengthAdjust="spacing" textLength="53.75" x="27.8125" y="78.1659">Update Basket</text><path d="M45.9375,90.5762 L130.9375,90.5762 L130.9375,95.7959 L124.6875,102.0459 L45.9375,102.0459 L45.9375,90.5762 " fill="#EEEEEE" style="stroke:#000000;stroke-width:0.9375;"/><rect fill="none" height="460.6445" style="stroke:#000000;stroke-width:0.9375;" width="371.5625" x="45.9375" y="90.5762"/><text fill="#000000" font-family="sans-serif" font-size="8.125" font-weight="bold" lengthAdjust="spacing" textLength="56.875" x="55.3125" y="99.6356">Update Basket</text><path d="M52.1875,106.4209 L90.3125,106.4209 L90.3125,111.6406 L84.0625,117.8906 L52.1875,117.8906 L52.1875,106.4209 " fill="#EEEEEE" style="stroke:#000000;stroke-width:0.9375;"/><rect fill="none" height="38.5645" style="stroke:#000000;stroke-width:0.9375;" width="153.75" x="52.1875" y="106.4209"/><text fill="#000000" font-family="sans-serif" font-size="8.125" font-weight="bold" lengthAdjust="spacing" textLength="10" x="61.5625" y="115.4803">alt</text><text fill="#000000" font-family="sans-serif" font-size="6.875" font-weight="bold" lengthAdjust="spacing" textLength="103.125" x="99.6875" y="114.8077">[string.IsNullOrEmpty(userId)]</text><line style="stroke:#181818;stroke-width:0.625;" x1="92.1875" x2="118.4375" y1="131.8604" y2="131.8604"/><line style="stroke:#181818;stroke-width:0.625;" x1="118.4375" x2="118.4375" y1="131.8604" y2="139.9854"/><line style="stroke:#181818;stroke-width:0.625;" x1="92.8125" x2="118.4375" y1="139.9854" y2="139.9854"/><polygon fill="#181818" points="99.0625,137.4854,92.8125,139.9854,99.0625,142.4854,96.5625,139.9854" style="stroke:#181818;stroke-width:0.625;"/><text fill="#000000" font-family="sans-serif" font-size="8.125" lengthAdjust="spacing" textLength="88.75" x="96.5625" y="128.8251">Throw Not Authenticated</text><line style="stroke:#181818;stroke-width:0.625;" x1="92.1875" x2="118.4375" y1="163.3301" y2="163.3301"/><line style="stroke:#181818;stroke-width:0.625;" x1="118.4375" x2="118.4375" y1="163.3301" y2="171.4551"/><line style="stroke:#181818;stroke-width:0.625;" x1="92.8125" x2="118.4375" y1="171.4551" y2="171.4551"/><polygon fill="#181818" points="99.0625,168.9551,92.8125,171.4551,99.0625,173.9551,96.5625,171.4551" style="stroke:#181818;stroke-width:0.625;"/><text fill="#000000" font-family="sans-serif" font-size="8.125" lengthAdjust="spacing" textLength="92.5" x="96.5625" y="160.2948">Map To Customer Basket</text><path d="M52.1875,180.8301 L178.4375,180.8301 L178.4375,186.0498 L172.1875,192.2998 L52.1875,192.2998 L52.1875,180.8301 " fill="#EEEEEE" style="stroke:#000000;stroke-width:0.9375;"/><rect fill="none" height="38.5645" style="stroke:#000000;stroke-width:0.9375;" width="129.375" x="52.1875" y="180.8301"/><text fill="#000000" font-family="sans-serif" font-size="8.125" font-weight="bold" lengthAdjust="spacing" textLength="98.125" x="61.5625" y="189.8895">Map To Customer Basket</text><line style="stroke:#181818;stroke-width:0.625;" x1="92.1875" x2="118.4375" y1="206.2695" y2="206.2695"/><line style="stroke:#181818;stroke-width:0.625;" x1="118.4375" x2="118.4375" y1="206.2695" y2="214.3945"/><line style="stroke:#181818;stroke-width:0.625;" x1="92.8125" x2="118.4375" y1="214.3945" y2="214.3945"/><polygon fill="#181818" points="99.0625,211.8945,92.8125,214.3945,99.0625,216.8945,96.5625,214.3945" style="stroke:#181818;stroke-width:0.625;"/><text fill="#000000" font-family="sans-serif" font-size="8.125" lengthAdjust="spacing" textLength="61.875" x="96.5625" y="203.2343">Retun (response)</text><polygon fill="#181818" points="224.6875,235.2393,230.9375,237.7393,224.6875,240.2393,227.1875,237.7393" style="stroke:#181818;stroke-width:0.625;"/><line style="stroke:#181818;stroke-width:0.625;" x1="92.1875" x2="228.4375" y1="237.7393" y2="237.7393"/><text fill="#000000" font-family="sans-serif" font-size="8.125" lengthAdjust="spacing" textLength="79.375" x="96.5625" y="234.704">Update Basket Async</text><path d="M166.875,247.1143 L277.5,247.1143 L277.5,252.334 L271.25,258.584 L166.875,258.584 L166.875,247.1143 " fill="#EEEEEE" style="stroke:#000000;stroke-width:0.9375;"/><rect fill="none" height="178.0078" style="stroke:#000000;stroke-width:0.9375;" width="244.375" x="166.875" y="247.1143"/><text fill="#000000" font-family="sans-serif" font-size="8.125" font-weight="bold" lengthAdjust="spacing" textLength="82.5" x="176.25" y="256.1737">Update Basket Async</text><polygon fill="#181818" points="355.3125,270.0537,361.5625,272.5537,355.3125,275.0537,357.8125,272.5537" style="stroke:#181818;stroke-width:0.625;"/><line style="stroke:#181818;stroke-width:0.625;" x1="232.1875" x2="359.0625" y1="272.5537" y2="272.5537"/><text fill="#000000" font-family="sans-serif" font-size="8.125" lengthAdjust="spacing" textLength="61.875" x="236.5625" y="269.5184">String Set Async</text><line style="stroke:#181818;stroke-width:0.625;" x1="232.1875" x2="258.4375" y1="291.5234" y2="291.5234"/><line style="stroke:#181818;stroke-width:0.625;" x1="258.4375" x2="258.4375" y1="291.5234" y2="299.6484"/><line style="stroke:#181818;stroke-width:0.625;" x1="232.8125" x2="258.4375" y1="299.6484" y2="299.6484"/><polygon fill="#181818" points="239.0625,297.1484,232.8125,299.6484,239.0625,302.1484,236.5625,299.6484" style="stroke:#181818;stroke-width:0.625;"/><text fill="#000000" font-family="sans-serif" font-size="8.125" lengthAdjust="spacing" textLength="58.125" x="236.5625" y="288.4882">Get Basket Key</text><line style="stroke:#181818;stroke-width:0.625;" x1="232.1875" x2="258.4375" y1="318.6182" y2="318.6182"/><line style="stroke:#181818;stroke-width:0.625;" x1="258.4375" x2="258.4375" y1="318.6182" y2="326.7432"/><line style="stroke:#181818;stroke-width:0.625;" x1="232.8125" x2="258.4375" y1="326.7432" y2="326.7432"/><polygon fill="#181818" points="239.0625,324.2432,232.8125,326.7432,239.0625,329.2432,236.5625,326.7432" style="stroke:#181818;stroke-width:0.625;"/><text fill="#000000" font-family="sans-serif" font-size="8.125" lengthAdjust="spacing" textLength="66.875" x="236.5625" y="315.5829">Get Basket Async</text><path d="M173.125,336.1182 L269.375,336.1182 L269.375,341.3379 L263.125,347.5879 L173.125,347.5879 L173.125,336.1182 " fill="#EEEEEE" style="stroke:#000000;stroke-width:0.9375;"/><rect fill="none" height="84.6289" style="stroke:#000000;stroke-width:0.9375;" width="231.875" x="173.125" y="336.1182"/><text fill="#000000" font-family="sans-serif" font-size="8.125" font-weight="bold" lengthAdjust="spacing" textLength="68.125" x="182.5" y="345.1776">Get Basket Async</text><polygon fill="#181818" points="355.3125,359.0576,361.5625,361.5576,355.3125,364.0576,357.8125,361.5576" style="stroke:#181818;stroke-width:0.625;"/><line style="stroke:#181818;stroke-width:0.625;" x1="232.1875" x2="359.0625" y1="361.5576" y2="361.5576"/><text fill="#000000" font-family="sans-serif" font-size="8.125" lengthAdjust="spacing" textLength="86.875" x="236.5625" y="358.5223">String Get Lease Async</text><line style="stroke:#181818;stroke-width:0.625;" x1="232.1875" x2="258.4375" y1="380.5273" y2="380.5273"/><line style="stroke:#181818;stroke-width:0.625;" x1="258.4375" x2="258.4375" y1="380.5273" y2="388.6523"/><line style="stroke:#181818;stroke-width:0.625;" x1="232.8125" x2="258.4375" y1="388.6523" y2="388.6523"/><polygon fill="#181818" points="239.0625,386.1523,232.8125,388.6523,239.0625,391.1523,236.5625,388.6523" style="stroke:#181818;stroke-width:0.625;"/><text fill="#000000" font-family="sans-serif" font-size="8.125" lengthAdjust="spacing" textLength="58.125" x="236.5625" y="377.4921">Get Basket Key</text><line style="stroke:#181818;stroke-width:0.625;" x1="232.1875" x2="258.4375" y1="407.6221" y2="407.6221"/><line style="stroke:#181818;stroke-width:0.625;" x1="258.4375" x2="258.4375" y1="407.6221" y2="415.7471"/><line style="stroke:#181818;stroke-width:0.625;" x1="232.8125" x2="258.4375" y1="415.7471" y2="415.7471"/><polygon fill="#181818" points="239.0625,413.2471,232.8125,415.7471,239.0625,418.2471,236.5625,415.7471" style="stroke:#181818;stroke-width:0.625;"/><text fill="#000000" font-family="sans-serif" font-size="8.125" lengthAdjust="spacing" textLength="121.875" x="236.5625" y="404.5868">Retun (JsonSerializer.Deserialize)</text><path d="M52.1875,433.8721 L90.3125,433.8721 L90.3125,439.0918 L84.0625,445.3418 L52.1875,445.3418 L52.1875,433.8721 " fill="#EEEEEE" style="stroke:#000000;stroke-width:0.9375;"/><rect fill="none" height="38.5645" style="stroke:#000000;stroke-width:0.9375;" width="158.75" x="52.1875" y="433.8721"/><text fill="#000000" font-family="sans-serif" font-size="8.125" font-weight="bold" lengthAdjust="spacing" textLength="10" x="61.5625" y="442.9315">alt</text><text fill="#000000" font-family="sans-serif" font-size="6.875" font-weight="bold" lengthAdjust="spacing" textLength="61.25" x="99.6875" y="442.2589">[response is null]</text><line style="stroke:#181818;stroke-width:0.625;" x1="92.1875" x2="118.4375" y1="459.3115" y2="459.3115"/><line style="stroke:#181818;stroke-width:0.625;" x1="118.4375" x2="118.4375" y1="459.3115" y2="467.4365"/><line style="stroke:#181818;stroke-width:0.625;" x1="92.8125" x2="118.4375" y1="467.4365" y2="467.4365"/><polygon fill="#181818" points="99.0625,464.9365,92.8125,467.4365,99.0625,469.9365,96.5625,467.4365" style="stroke:#181818;stroke-width:0.625;"/><text fill="#000000" font-family="sans-serif" font-size="8.125" lengthAdjust="spacing" textLength="106.875" x="96.5625" y="456.2762">Throw Basket Does Not Exist</text><line style="stroke:#181818;stroke-width:0.625;" x1="92.1875" x2="118.4375" y1="490.7813" y2="490.7813"/><line style="stroke:#181818;stroke-width:0.625;" x1="118.4375" x2="118.4375" y1="490.7813" y2="498.9063"/><line style="stroke:#181818;stroke-width:0.625;" x1="92.8125" x2="118.4375" y1="498.9063" y2="498.9063"/><polygon fill="#181818" points="99.0625,496.4063,92.8125,498.9063,99.0625,501.4063,96.5625,498.9063" style="stroke:#181818;stroke-width:0.625;"/><text fill="#000000" font-family="sans-serif" font-size="8.125" lengthAdjust="spacing" textLength="131.25" x="96.5625" y="487.746">Map To Customer Basket Response</text><path d="M52.1875,508.2813 L219.0625,508.2813 L219.0625,513.501 L212.8125,519.751 L52.1875,519.751 L52.1875,508.2813 " fill="#EEEEEE" style="stroke:#000000;stroke-width:0.9375;"/><rect fill="none" height="38.5645" style="stroke:#000000;stroke-width:0.9375;" width="170" x="52.1875" y="508.2813"/><text fill="#000000" font-family="sans-serif" font-size="8.125" font-weight="bold" lengthAdjust="spacing" textLength="138.75" x="61.5625" y="517.3407">Map To Customer Basket Response</text><line style="stroke:#181818;stroke-width:0.625;" x1="92.1875" x2="118.4375" y1="533.7207" y2="533.7207"/><line style="stroke:#181818;stroke-width:0.625;" x1="118.4375" x2="118.4375" y1="533.7207" y2="541.8457"/><line style="stroke:#181818;stroke-width:0.625;" x1="92.8125" x2="118.4375" y1="541.8457" y2="541.8457"/><polygon fill="#181818" points="99.0625,539.3457,92.8125,541.8457,99.0625,544.3457,96.5625,541.8457" style="stroke:#181818;stroke-width:0.625;"/><text fill="#000000" font-family="sans-serif" font-size="8.125" lengthAdjust="spacing" textLength="61.875" x="96.5625" y="530.6854">Retun (response)</text><!--SRC=[xLR1Rjim3BthAxZiqXvYx33iiCE0BCcAR6ion1bsLcqk4MfBWaGtyRv-L6mtSTiCFTG5Oio0O8kYpFVqA8blh9FhN48cIrCG-1n9QYdyhT9MEfb3QXLyU2S4ASeGFaj_YmGZDWxXojc4NxKjHdUd4cJ3JvjAklSTmdXn_MCndyvNaE4TPaBmdqaboafDC9Zk29sMsG2aX_7xcURkbyniezZyfgrq69UUCFTHurZrXRWnEnWS00tWxQ-D8XJ0JpKO0BRChS1jtFlmgI6D566yCJOQkIHCJAXm-0XCDPd3HcEZIIgDpaSX7lTpQpHgQfpg009r2WnB706SI9Ad0IunLRvPnYLQunKPLxu4qX3u6Ea-LELv27GAKPXy8prs1gG9S5Yo-m_n_0o1uQTE1OMFxKmNQsSA-y0cCzvKv9HUHpC_Bx9iuQQvfVAYyEXcwQNe567tAx3QEBE5kU4jMD26NLJ2xDCWsBbJkvOMLWR6XIUJeskhV6Bmp2alaGeD5muzUtYyF0SPdtMKFTohCFAbJfxQiVN8gu3gY7npV3BfU7_qy1tN1rvFY7h5n6hTlc7POtR7-Vh8tAza3VI-Op3zJzcpOrVV85-zqNp4AvcfF-YY2VgcKzqfeONIgBbfWCjApTLHFygXMjw9GRylZQOxvQc_9H6BNgdupzheuDN78YaqyHS0]--></g></svg>