<?xml version="1.0" encoding="us-ascii" standalone="no"?><svg xmlns="http://www.w3.org/2000/svg" xmlns:xlink="http://www.w3.org/1999/xlink" contentStyleType="text/css" height="940px" preserveAspectRatio="none" style="width:674px;height:940px;background:#FFFFFF;" version="1.1" viewBox="0 0 674 940" width="674px" zoomAndPan="magnify"><defs/><g><text fill="#000000" font-family="sans-serif" font-size="14" font-weight="bold" lengthAdjust="spacing" textLength="572" x="52.5" y="29.5332">Basket Api - Grpc - Basket Service - Update Basket - Sequence - Component level</text><rect fill="#FFFFFF" height="889.9531" style="stroke:#181818;stroke-width:0.5;" width="116" x="89.5" y="44.6094"/><text fill="#000000" font-family="sans-serif" font-size="13" font-weight="bold" lengthAdjust="spacing" textLength="30" x="132.5" y="58.1045">Grpc</text><rect fill="#FFFFFF" height="889.9531" style="stroke:#181818;stroke-width:0.5;" width="359" x="283" y="44.6094"/><text fill="#000000" font-family="sans-serif" font-size="13" font-weight="bold" lengthAdjust="spacing" textLength="29" x="448" y="58.1045">Data</text><rect fill="none" height="737.0313" style="stroke:#000000;stroke-width:1.5;" width="594.5" x="73.5" y="144.9219"/><rect fill="none" height="61.7031" style="stroke:#000000;stroke-width:1.5;" width="246" x="83.5" y="170.2734"/><rect fill="none" height="61.7031" style="stroke:#000000;stroke-width:1.5;" width="207" x="83.5" y="289.3281"/><rect fill="none" height="284.8125" style="stroke:#000000;stroke-width:1.5;" width="391" x="267" y="395.3828"/><rect fill="none" height="135.4063" style="stroke:#000000;stroke-width:1.5;" width="371" x="277" y="537.7891"/><rect fill="none" height="61.7031" style="stroke:#000000;stroke-width:1.5;" width="254" x="83.5" y="694.1953"/><rect fill="none" height="61.7031" style="stroke:#000000;stroke-width:1.5;" width="272" x="83.5" y="813.25"/><line style="stroke:#181818;stroke-width:0.5;stroke-dasharray:5.0,5.0;" x1="37" x2="37" y1="97.5703" y2="898.9531"/><line style="stroke:#181818;stroke-width:0.5;stroke-dasharray:5.0,5.0;" x1="147.5" x2="147.5" y1="97.5703" y2="898.9531"/><line style="stroke:#181818;stroke-width:0.5;stroke-dasharray:5.0,5.0;" x1="371" x2="371" y1="97.5703" y2="898.9531"/><line style="stroke:#181818;stroke-width:0.5;stroke-dasharray:5.0,5.0;" x1="580" x2="580" y1="97.5703" y2="898.9531"/><rect fill="#E2E2F0" height="31.6094" rx="2.5" ry="2.5" style="stroke:#181818;stroke-width:0.5;" width="65" x="5" y="64.9609"/><text fill="#000000" font-family="sans-serif" font-size="14" lengthAdjust="spacing" textLength="51" x="12" y="86.4941">External</text><rect fill="#E2E2F0" height="31.6094" rx="2.5" ry="2.5" style="stroke:#181818;stroke-width:0.5;" width="65" x="5" y="897.9531"/><text fill="#000000" font-family="sans-serif" font-size="14" lengthAdjust="spacing" textLength="51" x="12" y="919.4863">External</text><rect fill="#E2E2F0" height="31.6094" rx="2.5" ry="2.5" style="stroke:#181818;stroke-width:0.5;" width="108" x="93.5" y="64.9609"/><text fill="#000000" font-family="sans-serif" font-size="14" lengthAdjust="spacing" textLength="94" x="100.5" y="86.4941">Basket Service</text><rect fill="#E2E2F0" height="31.6094" rx="2.5" ry="2.5" style="stroke:#181818;stroke-width:0.5;" width="108" x="93.5" y="897.9531"/><text fill="#000000" font-family="sans-serif" font-size="14" lengthAdjust="spacing" textLength="94" x="100.5" y="919.4863">Basket Service</text><rect fill="#E2E2F0" height="31.6094" rx="2.5" ry="2.5" style="stroke:#181818;stroke-width:0.5;" width="169" x="287" y="64.9609"/><text fill="#000000" font-family="sans-serif" font-size="14" lengthAdjust="spacing" textLength="155" x="294" y="86.4941">Redis Basket Repository</text><rect fill="#E2E2F0" height="31.6094" rx="2.5" ry="2.5" style="stroke:#181818;stroke-width:0.5;" width="169" x="287" y="897.9531"/><text fill="#000000" font-family="sans-serif" font-size="14" lengthAdjust="spacing" textLength="155" x="294" y="919.4863">Redis Basket Repository</text><rect fill="#E2E2F0" height="31.6094" rx="2.5" ry="2.5" style="stroke:#181818;stroke-width:0.5;" width="115" x="523" y="64.9609"/><text fill="#000000" font-family="sans-serif" font-size="14" lengthAdjust="spacing" textLength="101" x="530" y="86.4941">Redis Database</text><rect fill="#E2E2F0" height="31.6094" rx="2.5" ry="2.5" style="stroke:#181818;stroke-width:0.5;" width="115" x="523" y="897.9531"/><text fill="#000000" font-family="sans-serif" font-size="14" lengthAdjust="spacing" textLength="101" x="530" y="919.4863">Redis Database</text><polygon fill="#181818" points="135.5,125.9219,145.5,129.9219,135.5,133.9219,139.5,129.9219" style="stroke:#181818;stroke-width:1.0;"/><line style="stroke:#181818;stroke-width:1.0;" x1="37.5" x2="141.5" y1="129.9219" y2="129.9219"/><text fill="#000000" font-family="sans-serif" font-size="13" lengthAdjust="spacing" textLength="86" x="44.5" y="125.0654">Update Basket</text><path d="M73.5,144.9219 L209.5,144.9219 L209.5,153.2734 L199.5,163.2734 L73.5,163.2734 L73.5,144.9219 " fill="#EEEEEE" style="stroke:#000000;stroke-width:1.5;"/><rect fill="none" height="737.0313" style="stroke:#000000;stroke-width:1.5;" width="594.5" x="73.5" y="144.9219"/><text fill="#000000" font-family="sans-serif" font-size="13" font-weight="bold" lengthAdjust="spacing" textLength="91" x="88.5" y="159.417">Update Basket</text><path d="M83.5,170.2734 L144.5,170.2734 L144.5,178.625 L134.5,188.625 L83.5,188.625 L83.5,170.2734 " fill="#EEEEEE" style="stroke:#000000;stroke-width:1.5;"/><rect fill="none" height="61.7031" style="stroke:#000000;stroke-width:1.5;" width="246" x="83.5" y="170.2734"/><text fill="#000000" font-family="sans-serif" font-size="13" font-weight="bold" lengthAdjust="spacing" textLength="16" x="98.5" y="184.7686">alt</text><text fill="#000000" font-family="sans-serif" font-size="11" font-weight="bold" lengthAdjust="spacing" textLength="165" x="159.5" y="183.6924">[string.IsNullOrEmpty(userId)]</text><line style="stroke:#181818;stroke-width:1.0;" x1="147.5" x2="189.5" y1="210.9766" y2="210.9766"/><line style="stroke:#181818;stroke-width:1.0;" x1="189.5" x2="189.5" y1="210.9766" y2="223.9766"/><line style="stroke:#181818;stroke-width:1.0;" x1="148.5" x2="189.5" y1="223.9766" y2="223.9766"/><polygon fill="#181818" points="158.5,219.9766,148.5,223.9766,158.5,227.9766,154.5,223.9766" style="stroke:#181818;stroke-width:1.0;"/><text fill="#000000" font-family="sans-serif" font-size="13" lengthAdjust="spacing" textLength="142" x="154.5" y="206.1201">Throw Not Authenticated</text><line style="stroke:#181818;stroke-width:1.0;" x1="147.5" x2="189.5" y1="261.3281" y2="261.3281"/><line style="stroke:#181818;stroke-width:1.0;" x1="189.5" x2="189.5" y1="261.3281" y2="274.3281"/><line style="stroke:#181818;stroke-width:1.0;" x1="148.5" x2="189.5" y1="274.3281" y2="274.3281"/><polygon fill="#181818" points="158.5,270.3281,148.5,274.3281,158.5,278.3281,154.5,274.3281" style="stroke:#181818;stroke-width:1.0;"/><text fill="#000000" font-family="sans-serif" font-size="13" lengthAdjust="spacing" textLength="148" x="154.5" y="256.4717">Map To Customer Basket</text><path d="M83.5,289.3281 L285.5,289.3281 L285.5,297.6797 L275.5,307.6797 L83.5,307.6797 L83.5,289.3281 " fill="#EEEEEE" style="stroke:#000000;stroke-width:1.5;"/><rect fill="none" height="61.7031" style="stroke:#000000;stroke-width:1.5;" width="207" x="83.5" y="289.3281"/><text fill="#000000" font-family="sans-serif" font-size="13" font-weight="bold" lengthAdjust="spacing" textLength="157" x="98.5" y="303.8232">Map To Customer Basket</text><line style="stroke:#181818;stroke-width:1.0;" x1="147.5" x2="189.5" y1="330.0313" y2="330.0313"/><line style="stroke:#181818;stroke-width:1.0;" x1="189.5" x2="189.5" y1="330.0313" y2="343.0313"/><line style="stroke:#181818;stroke-width:1.0;" x1="148.5" x2="189.5" y1="343.0313" y2="343.0313"/><polygon fill="#181818" points="158.5,339.0313,148.5,343.0313,158.5,347.0313,154.5,343.0313" style="stroke:#181818;stroke-width:1.0;"/><text fill="#000000" font-family="sans-serif" font-size="13" lengthAdjust="spacing" textLength="99" x="154.5" y="325.1748">Retun (response)</text><polygon fill="#181818" points="359.5,376.3828,369.5,380.3828,359.5,384.3828,363.5,380.3828" style="stroke:#181818;stroke-width:1.0;"/><line style="stroke:#181818;stroke-width:1.0;" x1="147.5" x2="365.5" y1="380.3828" y2="380.3828"/><text fill="#000000" font-family="sans-serif" font-size="13" lengthAdjust="spacing" textLength="127" x="154.5" y="375.5264">Update Basket Async</text><path d="M267,395.3828 L444,395.3828 L444,403.7344 L434,413.7344 L267,413.7344 L267,395.3828 " fill="#EEEEEE" style="stroke:#000000;stroke-width:1.5;"/><rect fill="none" height="284.8125" style="stroke:#000000;stroke-width:1.5;" width="391" x="267" y="395.3828"/><text fill="#000000" font-family="sans-serif" font-size="13" font-weight="bold" lengthAdjust="spacing" textLength="132" x="282" y="409.8779">Update Basket Async</text><polygon fill="#181818" points="568.5,432.0859,578.5,436.0859,568.5,440.0859,572.5,436.0859" style="stroke:#181818;stroke-width:1.0;"/><line style="stroke:#181818;stroke-width:1.0;" x1="371.5" x2="574.5" y1="436.0859" y2="436.0859"/><text fill="#000000" font-family="sans-serif" font-size="13" lengthAdjust="spacing" textLength="99" x="378.5" y="431.2295">String Set Async</text><line style="stroke:#181818;stroke-width:1.0;" x1="371.5" x2="413.5" y1="466.4375" y2="466.4375"/><line style="stroke:#181818;stroke-width:1.0;" x1="413.5" x2="413.5" y1="466.4375" y2="479.4375"/><line style="stroke:#181818;stroke-width:1.0;" x1="372.5" x2="413.5" y1="479.4375" y2="479.4375"/><polygon fill="#181818" points="382.5,475.4375,372.5,479.4375,382.5,483.4375,378.5,479.4375" style="stroke:#181818;stroke-width:1.0;"/><text fill="#000000" font-family="sans-serif" font-size="13" lengthAdjust="spacing" textLength="93" x="378.5" y="461.5811">Get Basket Key</text><line style="stroke:#181818;stroke-width:1.0;" x1="371.5" x2="413.5" y1="509.7891" y2="509.7891"/><line style="stroke:#181818;stroke-width:1.0;" x1="413.5" x2="413.5" y1="509.7891" y2="522.7891"/><line style="stroke:#181818;stroke-width:1.0;" x1="372.5" x2="413.5" y1="522.7891" y2="522.7891"/><polygon fill="#181818" points="382.5,518.7891,372.5,522.7891,382.5,526.7891,378.5,522.7891" style="stroke:#181818;stroke-width:1.0;"/><text fill="#000000" font-family="sans-serif" font-size="13" lengthAdjust="spacing" textLength="107" x="378.5" y="504.9326">Get Basket Async</text><path d="M277,537.7891 L431,537.7891 L431,546.1406 L421,556.1406 L277,556.1406 L277,537.7891 " fill="#EEEEEE" style="stroke:#000000;stroke-width:1.5;"/><rect fill="none" height="135.4063" style="stroke:#000000;stroke-width:1.5;" width="371" x="277" y="537.7891"/><text fill="#000000" font-family="sans-serif" font-size="13" font-weight="bold" lengthAdjust="spacing" textLength="109" x="292" y="552.2842">Get Basket Async</text><polygon fill="#181818" points="568.5,574.4922,578.5,578.4922,568.5,582.4922,572.5,578.4922" style="stroke:#181818;stroke-width:1.0;"/><line style="stroke:#181818;stroke-width:1.0;" x1="371.5" x2="574.5" y1="578.4922" y2="578.4922"/><text fill="#000000" font-family="sans-serif" font-size="13" lengthAdjust="spacing" textLength="139" x="378.5" y="573.6357">String Get Lease Async</text><line style="stroke:#181818;stroke-width:1.0;" x1="371.5" x2="413.5" y1="608.8438" y2="608.8438"/><line style="stroke:#181818;stroke-width:1.0;" x1="413.5" x2="413.5" y1="608.8438" y2="621.8438"/><line style="stroke:#181818;stroke-width:1.0;" x1="372.5" x2="413.5" y1="621.8438" y2="621.8438"/><polygon fill="#181818" points="382.5,617.8438,372.5,621.8438,382.5,625.8438,378.5,621.8438" style="stroke:#181818;stroke-width:1.0;"/><text fill="#000000" font-family="sans-serif" font-size="13" lengthAdjust="spacing" textLength="93" x="378.5" y="603.9873">Get Basket Key</text><line style="stroke:#181818;stroke-width:1.0;" x1="371.5" x2="413.5" y1="652.1953" y2="652.1953"/><line style="stroke:#181818;stroke-width:1.0;" x1="413.5" x2="413.5" y1="652.1953" y2="665.1953"/><line style="stroke:#181818;stroke-width:1.0;" x1="372.5" x2="413.5" y1="665.1953" y2="665.1953"/><polygon fill="#181818" points="382.5,661.1953,372.5,665.1953,382.5,669.1953,378.5,665.1953" style="stroke:#181818;stroke-width:1.0;"/><text fill="#000000" font-family="sans-serif" font-size="13" lengthAdjust="spacing" textLength="195" x="378.5" y="647.3389">Retun (JsonSerializer.Deserialize)</text><path d="M83.5,694.1953 L144.5,694.1953 L144.5,702.5469 L134.5,712.5469 L83.5,712.5469 L83.5,694.1953 " fill="#EEEEEE" style="stroke:#000000;stroke-width:1.5;"/><rect fill="none" height="61.7031" style="stroke:#000000;stroke-width:1.5;" width="254" x="83.5" y="694.1953"/><text fill="#000000" font-family="sans-serif" font-size="13" font-weight="bold" lengthAdjust="spacing" textLength="16" x="98.5" y="708.6904">alt</text><text fill="#000000" font-family="sans-serif" font-size="11" font-weight="bold" lengthAdjust="spacing" textLength="98" x="159.5" y="707.6143">[response is null]</text><line style="stroke:#181818;stroke-width:1.0;" x1="147.5" x2="189.5" y1="734.8984" y2="734.8984"/><line style="stroke:#181818;stroke-width:1.0;" x1="189.5" x2="189.5" y1="734.8984" y2="747.8984"/><line style="stroke:#181818;stroke-width:1.0;" x1="148.5" x2="189.5" y1="747.8984" y2="747.8984"/><polygon fill="#181818" points="158.5,743.8984,148.5,747.8984,158.5,751.8984,154.5,747.8984" style="stroke:#181818;stroke-width:1.0;"/><text fill="#000000" font-family="sans-serif" font-size="13" lengthAdjust="spacing" textLength="171" x="154.5" y="730.042">Throw Basket Does Not Exist</text><line style="stroke:#181818;stroke-width:1.0;" x1="147.5" x2="189.5" y1="785.25" y2="785.25"/><line style="stroke:#181818;stroke-width:1.0;" x1="189.5" x2="189.5" y1="785.25" y2="798.25"/><line style="stroke:#181818;stroke-width:1.0;" x1="148.5" x2="189.5" y1="798.25" y2="798.25"/><polygon fill="#181818" points="158.5,794.25,148.5,798.25,158.5,802.25,154.5,798.25" style="stroke:#181818;stroke-width:1.0;"/><text fill="#000000" font-family="sans-serif" font-size="13" lengthAdjust="spacing" textLength="210" x="154.5" y="780.3936">Map To Customer Basket Response</text><path d="M83.5,813.25 L350.5,813.25 L350.5,821.6016 L340.5,831.6016 L83.5,831.6016 L83.5,813.25 " fill="#EEEEEE" style="stroke:#000000;stroke-width:1.5;"/><rect fill="none" height="61.7031" style="stroke:#000000;stroke-width:1.5;" width="272" x="83.5" y="813.25"/><text fill="#000000" font-family="sans-serif" font-size="13" font-weight="bold" lengthAdjust="spacing" textLength="222" x="98.5" y="827.7451">Map To Customer Basket Response</text><line style="stroke:#181818;stroke-width:1.0;" x1="147.5" x2="189.5" y1="853.9531" y2="853.9531"/><line style="stroke:#181818;stroke-width:1.0;" x1="189.5" x2="189.5" y1="853.9531" y2="866.9531"/><line style="stroke:#181818;stroke-width:1.0;" x1="148.5" x2="189.5" y1="866.9531" y2="866.9531"/><polygon fill="#181818" points="158.5,862.9531,148.5,866.9531,158.5,870.9531,154.5,866.9531" style="stroke:#181818;stroke-width:1.0;"/><text fill="#000000" font-family="sans-serif" font-size="13" lengthAdjust="spacing" textLength="99" x="154.5" y="849.0967">Retun (response)</text><!--SRC=[xLPDRzim3BthLt3PfJt4fvrs690bMP5kwu2amywgpIL2PKcJw2RUhn_bZoHkcwA7UK2C6J1iaHJudXubyOtpSfrBqBAq1K78aQIHGf0YZV1HXdiac3W5OxZoBkLFOrkXVr0fik6xooJjOyVi-LMWgLnJcpjhq11eV40jX9EULAgSPDDelYFqHkeHo03JTml3mq_QRfEL_KbRwN5L1i8y96rWFHRYpkvWTC0sWhS_DefG03-rCsBjc3k9knIgz9abWvJWQcDTCl5fd9XIuV49c7eofqscrf1K1dr8OhvapxODQX88D1amB744S2P9dWQun4o5TaMNw6nGP7tvDv36nCT8grHrv27HAKHnyfqCs1kGDi5XoVO_ulKL0kCFlGeAxxj5BzRU5kwHJMhUJkILMIUBS5De_StFSqVbHH7GBx9BqIl2_bVWTkFj5cuiRy62DXoYKcQVHS7EdTfNwU3MmhG8P7FqNPLFEC-SyXAfC73XCN14mCjpaF5LHzdZlGgJK9hqkHtRUFu9g9x8jySdarvLHm_VSKFWzOoeLqoiqUqpbWDcTrolJyp3AjP8xmj6q_-IFJjspGro7QpX8rv9hNwZJsOOsa5zfyGtjaRjJGFSLXhkZeRH3ZNopYo6gZMQxrIWuRP4B7gjuekzqI5gY4rIVCKV]--></g></svg>