<?xml version="1.0" encoding="us-ascii" standalone="no"?><svg xmlns="http://www.w3.org/2000/svg" xmlns:xlink="http://www.w3.org/1999/xlink" contentStyleType="text/css" height="669.375px" preserveAspectRatio="none" style="width:600px;height:669px;background:#FFFFFF;" version="1.1" viewBox="0 0 600 669" width="600px" zoomAndPan="magnify"><defs/><g><text fill="#000000" font-family="sans-serif" font-size="8.75" font-weight="bold" lengthAdjust="spacing" textLength="175" x="213.5938" y="18.4583">Create New Account - CONTAINER level)</text><rect fill="#FFFFFF" height="633.7891" style="stroke:#181818;stroke-width:0.3125;" width="324.6875" x="63.125" y="27.8809"/><text fill="#000000" font-family="sans-serif" font-size="8.125" font-weight="bold" lengthAdjust="spacing" textLength="65.625" x="192.6563" y="36.3153">Internet Banking</text><rect fill="none" height="69.6289" style="stroke:#000000;stroke-width:0.9375;" width="225.625" x="6.25" y="90.9814"/><rect fill="none" height="30.4395" style="stroke:#000000;stroke-width:0.9375;" width="166.25" x="59.375" y="125.7959"/><rect fill="none" height="264.3262" style="stroke:#000000;stroke-width:0.9375;" width="519.6875" x="6.25" y="169.3604"/><rect fill="none" height="69.6289" style="stroke:#000000;stroke-width:0.9375;" width="259.6875" x="138.125" y="204.1748"/><rect fill="none" height="30.4395" style="stroke:#000000;stroke-width:0.9375;" width="147.1875" x="244.375" y="238.9893"/><rect fill="none" height="127.7881" style="stroke:#000000;stroke-width:0.9375;" width="381.5625" x="138.125" y="301.5234"/><rect fill="none" height="30.4395" style="stroke:#000000;stroke-width:0.9375;" width="269.0625" x="244.375" y="336.3379"/><rect fill="none" height="30.4395" style="stroke:#000000;stroke-width:0.9375;" width="269.0625" x="244.375" y="394.4971"/><rect fill="none" height="127.7881" style="stroke:#000000;stroke-width:0.9375;" width="590.3125" x="6.25" y="442.4365"/><rect fill="none" height="88.5986" style="stroke:#000000;stroke-width:0.9375;" width="452.1875" x="138.125" y="477.251"/><rect fill="none" height="49.4092" style="stroke:#000000;stroke-width:0.9375;" width="339.6875" x="244.375" y="512.0654"/><rect fill="none" height="30.4395" style="stroke:#000000;stroke-width:0.9375;" width="577.8125" x="6.25" y="578.9746"/><line style="stroke:#181818;stroke-width:0.3125;stroke-dasharray:5.0,5.0;" x1="35.625" x2="35.625" y1="80.3564" y2="620.0391"/><line style="stroke:#181818;stroke-width:0.3125;stroke-dasharray:5.0,5.0;" x1="101.875" x2="101.875" y1="80.3564" y2="620.0391"/><line style="stroke:#181818;stroke-width:0.3125;stroke-dasharray:5.0,5.0;" x1="181.875" x2="181.875" y1="80.3564" y2="620.0391"/><line style="stroke:#181818;stroke-width:0.3125;stroke-dasharray:5.0,5.0;" x1="284.375" x2="284.375" y1="80.3564" y2="620.0391"/><line style="stroke:#181818;stroke-width:0.3125;stroke-dasharray:5.0,5.0;" x1="364.0625" x2="364.0625" y1="80.3564" y2="620.0391"/><line style="stroke:#181818;stroke-width:0.3125;stroke-dasharray:5.0,5.0;" x1="449.0625" x2="449.0625" y1="80.3564" y2="620.0391"/><line style="stroke:#181818;stroke-width:0.3125;stroke-dasharray:5.0,5.0;" x1="545.3125" x2="545.3125" y1="80.3564" y2="620.0391"/><rect fill="#E2E2F0" height="19.7559" rx="1.5625" ry="1.5625" style="stroke:#181818;stroke-width:0.3125;" width="46.875" x="12.5" y="59.9756"/><text fill="#000000" font-family="sans-serif" font-size="8.75" lengthAdjust="spacing" textLength="38.125" x="16.875" y="73.4338">Customer</text><rect fill="#E2E2F0" height="19.7559" rx="1.5625" ry="1.5625" style="stroke:#181818;stroke-width:0.3125;" width="46.875" x="12.5" y="619.4141"/><text fill="#000000" font-family="sans-serif" font-size="8.75" lengthAdjust="spacing" textLength="38.125" x="16.875" y="632.8723">Customer</text><rect fill="#E2E2F0" height="19.7559" rx="1.5625" ry="1.5625" style="stroke:#181818;stroke-width:0.3125;" width="72.5" x="65.625" y="59.9756"/><text fill="#000000" font-family="sans-serif" font-size="8.75" lengthAdjust="spacing" textLength="63.75" x="70" y="73.4338">Web Application</text><rect fill="#E2E2F0" height="19.7559" rx="1.5625" ry="1.5625" style="stroke:#181818;stroke-width:0.3125;" width="72.5" x="65.625" y="619.4141"/><text fill="#000000" font-family="sans-serif" font-size="8.75" lengthAdjust="spacing" textLength="63.75" x="70" y="632.8723">Web Application</text><rect fill="#E2E2F0" height="19.7559" rx="1.5625" ry="1.5625" style="stroke:#181818;stroke-width:0.3125;" width="75" x="144.375" y="59.9756"/><text fill="#000000" font-family="sans-serif" font-size="8.75" lengthAdjust="spacing" textLength="66.25" x="148.75" y="73.4338">Single-Page App</text><rect fill="#E2E2F0" height="19.7559" rx="1.5625" ry="1.5625" style="stroke:#181818;stroke-width:0.3125;" width="75" x="144.375" y="619.4141"/><text fill="#000000" font-family="sans-serif" font-size="8.75" lengthAdjust="spacing" textLength="66.25" x="148.75" y="632.8723">Single-Page App</text><rect fill="#E2E2F0" height="19.7559" rx="1.5625" ry="1.5625" style="stroke:#181818;stroke-width:0.3125;" width="67.5" x="250.625" y="59.9756"/><text fill="#000000" font-family="sans-serif" font-size="8.75" lengthAdjust="spacing" textLength="58.75" x="255" y="73.4338">API Application</text><rect fill="#E2E2F0" height="19.7559" rx="1.5625" ry="1.5625" style="stroke:#181818;stroke-width:0.3125;" width="67.5" x="250.625" y="619.4141"/><text fill="#000000" font-family="sans-serif" font-size="8.75" lengthAdjust="spacing" textLength="58.75" x="255" y="632.8723">API Application</text><text fill="#000000" font-family="sans-serif" font-size="8.75" lengthAdjust="spacing" textLength="38.125" x="343.4375" y="78.4338">Database</text><path d="M353.125,46.8506 C353.125,40.6006 364.375,40.6006 364.375,40.6006 C364.375,40.6006 375.625,40.6006 375.625,46.8506 L375.625,63.1006 C375.625,69.3506 364.375,69.3506 364.375,69.3506 C364.375,69.3506 353.125,69.3506 353.125,63.1006 L353.125,46.8506 " fill="#E2E2F0" style="stroke:#181818;stroke-width:0.9375;"/><path d="M353.125,46.8506 C353.125,53.1006 364.375,53.1006 364.375,53.1006 C364.375,53.1006 375.625,53.1006 375.625,46.8506 " fill="none" style="stroke:#181818;stroke-width:0.9375;"/><text fill="#000000" font-family="sans-serif" font-size="8.75" lengthAdjust="spacing" textLength="38.125" x="343.4375" y="628.4973">Database</text><path d="M353.125,636.6699 C353.125,630.4199 364.375,630.4199 364.375,630.4199 C364.375,630.4199 375.625,630.4199 375.625,636.6699 L375.625,652.9199 C375.625,659.1699 364.375,659.1699 364.375,659.1699 C364.375,659.1699 353.125,659.1699 353.125,652.9199 L353.125,636.6699 " fill="#E2E2F0" style="stroke:#181818;stroke-width:0.9375;"/><path d="M353.125,636.6699 C353.125,642.9199 364.375,642.9199 364.375,642.9199 C364.375,642.9199 375.625,642.9199 375.625,636.6699 " fill="none" style="stroke:#181818;stroke-width:0.9375;"/><rect fill="#E2E2F0" height="19.7559" rx="1.5625" ry="1.5625" style="stroke:#181818;stroke-width:0.3125;" width="115.625" x="391.5625" y="59.9756"/><text fill="#000000" font-family="sans-serif" font-size="8.75" lengthAdjust="spacing" textLength="106.875" x="395.9375" y="73.4338">Mainframe Banking System</text><rect fill="#E2E2F0" height="19.7559" rx="1.5625" ry="1.5625" style="stroke:#181818;stroke-width:0.3125;" width="115.625" x="391.5625" y="619.4141"/><text fill="#000000" font-family="sans-serif" font-size="8.75" lengthAdjust="spacing" textLength="106.875" x="395.9375" y="632.8723">Mainframe Banking System</text><rect fill="#E2E2F0" height="19.7559" rx="1.5625" ry="1.5625" style="stroke:#181818;stroke-width:0.3125;" width="64.375" x="513.4375" y="59.9756"/><text fill="#000000" font-family="sans-serif" font-size="8.75" lengthAdjust="spacing" textLength="55.625" x="517.8125" y="73.4338">E-Mail System</text><rect fill="#E2E2F0" height="19.7559" rx="1.5625" ry="1.5625" style="stroke:#181818;stroke-width:0.3125;" width="64.375" x="513.4375" y="619.4141"/><text fill="#000000" font-family="sans-serif" font-size="8.75" lengthAdjust="spacing" textLength="55.625" x="517.8125" y="632.8723">E-Mail System</text><path d="M6.25,90.9814 L183.125,90.9814 L183.125,96.2012 L176.875,102.4512 L6.25,102.4512 L6.25,90.9814 " fill="#EEEEEE" style="stroke:#000000;stroke-width:0.9375;"/><rect fill="none" height="69.6289" style="stroke:#000000;stroke-width:0.9375;" width="225.625" x="6.25" y="90.9814"/><text fill="#000000" font-family="sans-serif" font-size="8.125" font-weight="bold" lengthAdjust="spacing" textLength="148.75" x="15.625" y="100.0409">Customer - Go to Online Banking URL</text><polygon fill="#181818" points="94.375,113.9209,100.625,116.4209,94.375,118.9209,96.875,116.4209" style="stroke:#181818;stroke-width:0.625;"/><line style="stroke:#181818;stroke-width:0.625;" x1="35.9375" x2="98.125" y1="116.4209" y2="116.4209"/><text fill="#000000" font-family="sans-serif" font-size="8.125" lengthAdjust="spacing" textLength="30.625" x="40.3125" y="113.3856">Navigate</text><path d="M59.375,125.7959 L122.5,125.7959 L122.5,131.0156 L116.25,137.2656 L59.375,137.2656 L59.375,125.7959 " fill="#EEEEEE" style="stroke:#000000;stroke-width:0.9375;"/><rect fill="none" height="30.4395" style="stroke:#000000;stroke-width:0.9375;" width="166.25" x="59.375" y="125.7959"/><text fill="#000000" font-family="sans-serif" font-size="8.125" font-weight="bold" lengthAdjust="spacing" textLength="35" x="68.75" y="134.8553">Navigate</text><polygon fill="#181818" points="174.375,148.7354,180.625,151.2354,174.375,153.7354,176.875,151.2354" style="stroke:#181818;stroke-width:0.625;"/><line style="stroke:#181818;stroke-width:0.625;" x1="101.875" x2="178.125" y1="151.2354" y2="151.2354"/><text fill="#000000" font-family="sans-serif" font-size="8.125" lengthAdjust="spacing" textLength="54.375" x="106.25" y="148.2001">Load And Start</text><path d="M6.25,169.3604 L196.25,169.3604 L196.25,174.5801 L190,180.8301 L6.25,180.8301 L6.25,169.3604 " fill="#EEEEEE" style="stroke:#000000;stroke-width:0.9375;"/><rect fill="none" height="264.3262" style="stroke:#000000;stroke-width:0.9375;" width="519.6875" x="6.25" y="169.3604"/><text fill="#000000" font-family="sans-serif" font-size="8.125" font-weight="bold" lengthAdjust="spacing" textLength="161.875" x="15.625" y="178.4198">Customer - Sign In and View Home Page</text><polygon fill="#181818" points="174.375,192.2998,180.625,194.7998,174.375,197.2998,176.875,194.7998" style="stroke:#181818;stroke-width:0.625;"/><line style="stroke:#181818;stroke-width:0.625;" x1="35.9375" x2="178.125" y1="194.7998" y2="194.7998"/><text fill="#000000" font-family="sans-serif" font-size="8.125" lengthAdjust="spacing" textLength="25" x="40.3125" y="191.7645">Sign In</text><path d="M138.125,204.1748 L194.375,204.1748 L194.375,209.3945 L188.125,215.6445 L138.125,215.6445 L138.125,204.1748 " fill="#EEEEEE" style="stroke:#000000;stroke-width:0.9375;"/><rect fill="none" height="69.6289" style="stroke:#000000;stroke-width:0.9375;" width="259.6875" x="138.125" y="204.1748"/><text fill="#000000" font-family="sans-serif" font-size="8.125" font-weight="bold" lengthAdjust="spacing" textLength="28.125" x="147.5" y="213.2343">Sign In</text><polygon fill="#181818" points="276.875,227.1143,283.125,229.6143,276.875,232.1143,279.375,229.6143" style="stroke:#181818;stroke-width:0.625;"/><line style="stroke:#181818;stroke-width:0.625;" x1="181.875" x2="280.625" y1="229.6143" y2="229.6143"/><text fill="#000000" font-family="sans-serif" font-size="8.125" lengthAdjust="spacing" textLength="25" x="186.25" y="226.579">Sign In</text><path d="M244.375,238.9893 L300.625,238.9893 L300.625,244.209 L294.375,250.459 L244.375,250.459 L244.375,238.9893 " fill="#EEEEEE" style="stroke:#000000;stroke-width:0.9375;"/><rect fill="none" height="30.4395" style="stroke:#000000;stroke-width:0.9375;" width="147.1875" x="244.375" y="238.9893"/><text fill="#000000" font-family="sans-serif" font-size="8.125" font-weight="bold" lengthAdjust="spacing" textLength="28.125" x="253.75" y="248.0487">Sign In</text><polygon fill="#181818" points="356.875,261.9287,363.125,264.4287,356.875,266.9287,359.375,264.4287" style="stroke:#181818;stroke-width:0.625;"/><line style="stroke:#181818;stroke-width:0.625;" x1="284.375" x2="360.625" y1="264.4287" y2="264.4287"/><text fill="#000000" font-family="sans-serif" font-size="8.125" lengthAdjust="spacing" textLength="65" x="288.75" y="261.3934">Authenticate User</text><polygon fill="#181818" points="174.375,289.6484,180.625,292.1484,174.375,294.6484,176.875,292.1484" style="stroke:#181818;stroke-width:0.625;"/><line style="stroke:#181818;stroke-width:0.625;" x1="35.9375" x2="178.125" y1="292.1484" y2="292.1484"/><text fill="#000000" font-family="sans-serif" font-size="8.125" lengthAdjust="spacing" textLength="82.5" x="40.3125" y="289.1132">View Customer Details</text><path d="M138.125,301.5234 L255.625,301.5234 L255.625,306.7432 L249.375,312.9932 L138.125,312.9932 L138.125,301.5234 " fill="#EEEEEE" style="stroke:#000000;stroke-width:0.9375;"/><rect fill="none" height="127.7881" style="stroke:#000000;stroke-width:0.9375;" width="381.5625" x="138.125" y="301.5234"/><text fill="#000000" font-family="sans-serif" font-size="8.125" font-weight="bold" lengthAdjust="spacing" textLength="89.375" x="147.5" y="310.5829">View Customer Details</text><polygon fill="#181818" points="276.875,324.4629,283.125,326.9629,276.875,329.4629,279.375,326.9629" style="stroke:#181818;stroke-width:0.625;"/><line style="stroke:#181818;stroke-width:0.625;" x1="181.875" x2="280.625" y1="326.9629" y2="326.9629"/><text fill="#000000" font-family="sans-serif" font-size="8.125" lengthAdjust="spacing" textLength="50.625" x="186.25" y="323.9276">Get Customer</text><path d="M244.375,336.3379 L326.25,336.3379 L326.25,341.5576 L320,347.8076 L244.375,347.8076 L244.375,336.3379 " fill="#EEEEEE" style="stroke:#000000;stroke-width:0.9375;"/><rect fill="none" height="30.4395" style="stroke:#000000;stroke-width:0.9375;" width="269.0625" x="244.375" y="336.3379"/><text fill="#000000" font-family="sans-serif" font-size="8.125" font-weight="bold" lengthAdjust="spacing" textLength="53.75" x="253.75" y="345.3973">Get Customer</text><polygon fill="#181818" points="441.875,359.2773,448.125,361.7773,441.875,364.2773,444.375,361.7773" style="stroke:#181818;stroke-width:0.625;"/><line style="stroke:#181818;stroke-width:0.625;" x1="284.375" x2="445.625" y1="361.7773" y2="361.7773"/><text fill="#000000" font-family="sans-serif" font-size="8.125" lengthAdjust="spacing" textLength="50.625" x="288.75" y="358.7421">Get Customer</text><polygon fill="#181818" points="276.875,382.6221,283.125,385.1221,276.875,387.6221,279.375,385.1221" style="stroke:#181818;stroke-width:0.625;"/><line style="stroke:#181818;stroke-width:0.625;" x1="181.875" x2="280.625" y1="385.1221" y2="385.1221"/><text fill="#000000" font-family="sans-serif" font-size="8.125" lengthAdjust="spacing" textLength="87.5" x="186.25" y="382.0868">Get Customer Accounts</text><path d="M244.375,394.4971 L364.375,394.4971 L364.375,399.7168 L358.125,405.9668 L244.375,405.9668 L244.375,394.4971 " fill="#EEEEEE" style="stroke:#000000;stroke-width:0.9375;"/><rect fill="none" height="30.4395" style="stroke:#000000;stroke-width:0.9375;" width="269.0625" x="244.375" y="394.4971"/><text fill="#000000" font-family="sans-serif" font-size="8.125" font-weight="bold" lengthAdjust="spacing" textLength="91.875" x="253.75" y="403.5565">Get Customer Accounts</text><polygon fill="#181818" points="441.875,417.4365,448.125,419.9365,441.875,422.4365,444.375,419.9365" style="stroke:#181818;stroke-width:0.625;"/><line style="stroke:#181818;stroke-width:0.625;" x1="284.375" x2="445.625" y1="419.9365" y2="419.9365"/><text fill="#000000" font-family="sans-serif" font-size="8.125" lengthAdjust="spacing" textLength="87.5" x="288.75" y="416.9012">Get Customer Accounts</text><path d="M6.25,442.4365 L160,442.4365 L160,447.6563 L153.75,453.9063 L6.25,453.9063 L6.25,442.4365 " fill="#EEEEEE" style="stroke:#000000;stroke-width:0.9375;"/><rect fill="none" height="127.7881" style="stroke:#000000;stroke-width:0.9375;" width="590.3125" x="6.25" y="442.4365"/><text fill="#000000" font-family="sans-serif" font-size="8.125" font-weight="bold" lengthAdjust="spacing" textLength="125.625" x="15.625" y="451.496">Customer - Create New Account</text><polygon fill="#181818" points="174.375,465.376,180.625,467.876,174.375,470.376,176.875,467.876" style="stroke:#181818;stroke-width:0.625;"/><line style="stroke:#181818;stroke-width:0.625;" x1="35.9375" x2="178.125" y1="467.876" y2="467.876"/><text fill="#000000" font-family="sans-serif" font-size="8.125" lengthAdjust="spacing" textLength="56.25" x="40.3125" y="464.8407">Create Account</text><path d="M138.125,477.251 L226.875,477.251 L226.875,482.4707 L220.625,488.7207 L138.125,488.7207 L138.125,477.251 " fill="#EEEEEE" style="stroke:#000000;stroke-width:0.9375;"/><rect fill="none" height="88.5986" style="stroke:#000000;stroke-width:0.9375;" width="452.1875" x="138.125" y="477.251"/><text fill="#000000" font-family="sans-serif" font-size="8.125" font-weight="bold" lengthAdjust="spacing" textLength="60.625" x="147.5" y="486.3104">Create Account</text><polygon fill="#181818" points="276.875,500.1904,283.125,502.6904,276.875,505.1904,279.375,502.6904" style="stroke:#181818;stroke-width:0.625;"/><line style="stroke:#181818;stroke-width:0.625;" x1="181.875" x2="280.625" y1="502.6904" y2="502.6904"/><text fill="#000000" font-family="sans-serif" font-size="8.125" lengthAdjust="spacing" textLength="56.25" x="186.25" y="499.6552">Create Account</text><path d="M244.375,512.0654 L333.125,512.0654 L333.125,517.2852 L326.875,523.5352 L244.375,523.5352 L244.375,512.0654 " fill="#EEEEEE" style="stroke:#000000;stroke-width:0.9375;"/><rect fill="none" height="49.4092" style="stroke:#000000;stroke-width:0.9375;" width="339.6875" x="244.375" y="512.0654"/><text fill="#000000" font-family="sans-serif" font-size="8.125" font-weight="bold" lengthAdjust="spacing" textLength="60.625" x="253.75" y="521.1249">Create Account</text><polygon fill="#181818" points="441.875,535.0049,448.125,537.5049,441.875,540.0049,444.375,537.5049" style="stroke:#181818;stroke-width:0.625;"/><line style="stroke:#181818;stroke-width:0.625;" x1="284.375" x2="445.625" y1="537.5049" y2="537.5049"/><text fill="#000000" font-family="sans-serif" font-size="8.125" lengthAdjust="spacing" textLength="56.25" x="288.75" y="534.4696">Create Account</text><polygon fill="#181818" points="538.125,553.9746,544.375,556.4746,538.125,558.9746,540.625,556.4746" style="stroke:#181818;stroke-width:0.625;"/><line style="stroke:#181818;stroke-width:0.625;" x1="284.375" x2="541.875" y1="556.4746" y2="556.4746"/><text fill="#000000" font-family="sans-serif" font-size="8.125" lengthAdjust="spacing" textLength="168.125" x="288.75" y="553.4393">Send New Account Created Notification E-Mail</text><path d="M6.25,578.9746 L273.75,578.9746 L273.75,584.1943 L267.5,590.4443 L6.25,590.4443 L6.25,578.9746 " fill="#EEEEEE" style="stroke:#000000;stroke-width:0.9375;"/><rect fill="none" height="30.4395" style="stroke:#000000;stroke-width:0.9375;" width="577.8125" x="6.25" y="578.9746"/><text fill="#000000" font-family="sans-serif" font-size="8.125" font-weight="bold" lengthAdjust="spacing" textLength="239.375" x="15.625" y="588.0341">Customer - Receive New Account Created Notification E-Mail</text><polygon fill="#181818" points="538.125,601.9141,544.375,604.4141,538.125,606.9141,540.625,604.4141" style="stroke:#181818;stroke-width:0.625;"/><line style="stroke:#181818;stroke-width:0.625;" x1="35.9375" x2="541.875" y1="604.4141" y2="604.4141"/><text fill="#000000" font-family="sans-serif" font-size="8.125" lengthAdjust="spacing" textLength="177.5" x="40.3125" y="601.3788">Receive New Account Created Notification E-Mail</text><!--SRC=[pPR1Rjim38RlUWhEE-sGOASTTXZWfa4Re4k3P5tFZCEuGct9iEXqVVlHjUN6JhgrgHiaW85OeZ_-8Yc9dx8SunGXmKTRCBYK60qgTwzDXZcciCeqVFkg56jE24Ov8HDCwG72ABA5OHZ0w7hwAvnCntD8Q4F95wNaKzQHpb3cWr7XsAQK1u0EpdHyXkP-baJ3C6ARkw6VLcff_q0mCKov8ORIJ9iuWC-tTvf9WVnQt5jQGfXbYOwGjJLT_CAk-G5pMZmwfjGDFRZc3aVMC6f38a58Mw1TJmknJsWmmvXAZ-_mL95Aa71s7OMpIKzB4b9tIIjaNA8Z2CxhV-_WUuGYim99N2VdFyLiBUL3FerGCV_diVck_gmQRxF70x5ANWaSbxOrHSMvBJBm1IULUs61BLoRH1RLABsPNwcNonG6FtgfClWEKzpeMBPJhQjvxGL_iCnMYOhAAuih22NB2vOibFb-UdPYkT2nWOa15DFVMWw8Ivc0alCXqUpAhDtNklnR7-o39RRtOCyQE_23HVgDBFB2Wk_8S8aak75o9Fja7oE1JpNJOC_b7jA9gqErV-wqadiXTrPpbrMoMqD7IFF-qxEhhPFG4mkTxolSdXW-pvrAC9yL-QsozspSRPkEigLgjzvbBQizU5gLy76A-ydzyQLiDJ3b3LAsMzlTToL8nYphjITM7TA_It9E4UaDlHfsSBss5_1MjwLszHS0]--></g></svg>