<?xml version="1.0" encoding="us-ascii" standalone="no"?><svg xmlns="http://www.w3.org/2000/svg" xmlns:xlink="http://www.w3.org/1999/xlink" contentStyleType="text/css" height="375px" preserveAspectRatio="none" style="width:380px;height:375px;background:#FFFFFF;" version="1.1" viewBox="0 0 380 375" width="380.625px" zoomAndPan="magnify"><defs/><g><text fill="#000000" font-family="sans-serif" font-size="8.75" font-weight="bold" lengthAdjust="spacing" textLength="165" x="108.75" y="18.4583">Create New Account - CONTEXT level)</text><rect fill="none" height="30.4395" style="stroke:#000000;stroke-width:0.9375;" width="180" x="6.25" y="58.2617"/><rect fill="none" height="107.5684" style="stroke:#000000;stroke-width:0.9375;" width="300" x="6.25" y="97.4512"/><rect fill="none" height="49.4092" style="stroke:#000000;stroke-width:0.9375;" width="209.375" x="90.625" y="151.2354"/><rect fill="none" height="88.5986" style="stroke:#000000;stroke-width:0.9375;" width="370.625" x="6.25" y="213.7695"/><rect fill="none" height="49.4092" style="stroke:#000000;stroke-width:0.9375;" width="280" x="90.625" y="248.584"/><rect fill="none" height="30.4395" style="stroke:#000000;stroke-width:0.9375;" width="364.375" x="6.25" y="311.1182"/><line style="stroke:#181818;stroke-width:0.3125;stroke-dasharray:5.0,5.0;" x1="35.625" x2="35.625" y1="47.6367" y2="352.1826"/><line style="stroke:#181818;stroke-width:0.3125;stroke-dasharray:5.0,5.0;" x1="133.125" x2="133.125" y1="47.6367" y2="352.1826"/><line style="stroke:#181818;stroke-width:0.3125;stroke-dasharray:5.0,5.0;" x1="235.625" x2="235.625" y1="47.6367" y2="352.1826"/><line style="stroke:#181818;stroke-width:0.3125;stroke-dasharray:5.0,5.0;" x1="331.875" x2="331.875" y1="47.6367" y2="352.1826"/><rect fill="#E2E2F0" height="19.7559" rx="1.5625" ry="1.5625" style="stroke:#181818;stroke-width:0.3125;" width="46.875" x="12.5" y="27.2559"/><text fill="#000000" font-family="sans-serif" font-size="8.75" lengthAdjust="spacing" textLength="38.125" x="16.875" y="40.7141">Customer</text><rect fill="#E2E2F0" height="19.7559" rx="1.5625" ry="1.5625" style="stroke:#181818;stroke-width:0.3125;" width="46.875" x="12.5" y="351.5576"/><text fill="#000000" font-family="sans-serif" font-size="8.75" lengthAdjust="spacing" textLength="38.125" x="16.875" y="365.0159">Customer</text><rect fill="#E2E2F0" height="19.7559" rx="1.5625" ry="1.5625" style="stroke:#181818;stroke-width:0.3125;" width="73.125" x="96.875" y="27.2559"/><text fill="#000000" font-family="sans-serif" font-size="8.75" lengthAdjust="spacing" textLength="64.375" x="101.25" y="40.7141">Internet Banking</text><rect fill="#E2E2F0" height="19.7559" rx="1.5625" ry="1.5625" style="stroke:#181818;stroke-width:0.3125;" width="73.125" x="96.875" y="351.5576"/><text fill="#000000" font-family="sans-serif" font-size="8.75" lengthAdjust="spacing" textLength="64.375" x="101.25" y="365.0159">Internet Banking</text><rect fill="#E2E2F0" height="19.7559" rx="1.5625" ry="1.5625" style="stroke:#181818;stroke-width:0.3125;" width="115.625" x="178.125" y="27.2559"/><text fill="#000000" font-family="sans-serif" font-size="8.75" lengthAdjust="spacing" textLength="106.875" x="182.5" y="40.7141">Mainframe Banking System</text><rect fill="#E2E2F0" height="19.7559" rx="1.5625" ry="1.5625" style="stroke:#181818;stroke-width:0.3125;" width="115.625" x="178.125" y="351.5576"/><text fill="#000000" font-family="sans-serif" font-size="8.75" lengthAdjust="spacing" textLength="106.875" x="182.5" y="365.0159">Mainframe Banking System</text><rect fill="#E2E2F0" height="19.7559" rx="1.5625" ry="1.5625" style="stroke:#181818;stroke-width:0.3125;" width="64.375" x="300" y="27.2559"/><text fill="#000000" font-family="sans-serif" font-size="8.75" lengthAdjust="spacing" textLength="55.625" x="304.375" y="40.7141">E-Mail System</text><rect fill="#E2E2F0" height="19.7559" rx="1.5625" ry="1.5625" style="stroke:#181818;stroke-width:0.3125;" width="64.375" x="300" y="351.5576"/><text fill="#000000" font-family="sans-serif" font-size="8.75" lengthAdjust="spacing" textLength="55.625" x="304.375" y="365.0159">E-Mail System</text><path d="M6.25,58.2617 L183.125,58.2617 L183.125,63.4814 L176.875,69.7314 L6.25,69.7314 L6.25,58.2617 " fill="#EEEEEE" style="stroke:#000000;stroke-width:0.9375;"/><rect fill="none" height="30.4395" style="stroke:#000000;stroke-width:0.9375;" width="180" x="6.25" y="58.2617"/><text fill="#000000" font-family="sans-serif" font-size="8.125" font-weight="bold" lengthAdjust="spacing" textLength="148.75" x="15.625" y="67.3212">Customer - Go to Online Banking URL</text><polygon fill="#181818" points="125.9375,81.2012,132.1875,83.7012,125.9375,86.2012,128.4375,83.7012" style="stroke:#181818;stroke-width:0.625;"/><line style="stroke:#181818;stroke-width:0.625;" x1="35.9375" x2="129.6875" y1="83.7012" y2="83.7012"/><text fill="#000000" font-family="sans-serif" font-size="8.125" lengthAdjust="spacing" textLength="30.625" x="40.3125" y="80.6659">Navigate</text><path d="M6.25,97.4512 L196.25,97.4512 L196.25,102.6709 L190,108.9209 L6.25,108.9209 L6.25,97.4512 " fill="#EEEEEE" style="stroke:#000000;stroke-width:0.9375;"/><rect fill="none" height="107.5684" style="stroke:#000000;stroke-width:0.9375;" width="300" x="6.25" y="97.4512"/><text fill="#000000" font-family="sans-serif" font-size="8.125" font-weight="bold" lengthAdjust="spacing" textLength="161.875" x="15.625" y="106.5106">Customer - Sign In and View Home Page</text><polygon fill="#181818" points="125.9375,120.3906,132.1875,122.8906,125.9375,125.3906,128.4375,122.8906" style="stroke:#181818;stroke-width:0.625;"/><line style="stroke:#181818;stroke-width:0.625;" x1="35.9375" x2="129.6875" y1="122.8906" y2="122.8906"/><text fill="#000000" font-family="sans-serif" font-size="8.125" lengthAdjust="spacing" textLength="25" x="40.3125" y="119.8553">Sign In</text><polygon fill="#181818" points="125.9375,139.3604,132.1875,141.8604,125.9375,144.3604,128.4375,141.8604" style="stroke:#181818;stroke-width:0.625;"/><line style="stroke:#181818;stroke-width:0.625;" x1="35.9375" x2="129.6875" y1="141.8604" y2="141.8604"/><text fill="#000000" font-family="sans-serif" font-size="8.125" lengthAdjust="spacing" textLength="82.5" x="40.3125" y="138.8251">View Customer Details</text><path d="M90.625,151.2354 L208.125,151.2354 L208.125,156.4551 L201.875,162.7051 L90.625,162.7051 L90.625,151.2354 " fill="#EEEEEE" style="stroke:#000000;stroke-width:0.9375;"/><rect fill="none" height="49.4092" style="stroke:#000000;stroke-width:0.9375;" width="209.375" x="90.625" y="151.2354"/><text fill="#000000" font-family="sans-serif" font-size="8.125" font-weight="bold" lengthAdjust="spacing" textLength="89.375" x="100" y="160.2948">View Customer Details</text><polygon fill="#181818" points="228.4375,174.1748,234.6875,176.6748,228.4375,179.1748,230.9375,176.6748" style="stroke:#181818;stroke-width:0.625;"/><line style="stroke:#181818;stroke-width:0.625;" x1="133.4375" x2="232.1875" y1="176.6748" y2="176.6748"/><text fill="#000000" font-family="sans-serif" font-size="8.125" lengthAdjust="spacing" textLength="50.625" x="137.8125" y="173.6395">Get Customer</text><polygon fill="#181818" points="228.4375,193.1445,234.6875,195.6445,228.4375,198.1445,230.9375,195.6445" style="stroke:#181818;stroke-width:0.625;"/><line style="stroke:#181818;stroke-width:0.625;" x1="133.4375" x2="232.1875" y1="195.6445" y2="195.6445"/><text fill="#000000" font-family="sans-serif" font-size="8.125" lengthAdjust="spacing" textLength="87.5" x="137.8125" y="192.6093">Get Customer Accounts</text><path d="M6.25,213.7695 L160,213.7695 L160,218.9893 L153.75,225.2393 L6.25,225.2393 L6.25,213.7695 " fill="#EEEEEE" style="stroke:#000000;stroke-width:0.9375;"/><rect fill="none" height="88.5986" style="stroke:#000000;stroke-width:0.9375;" width="370.625" x="6.25" y="213.7695"/><text fill="#000000" font-family="sans-serif" font-size="8.125" font-weight="bold" lengthAdjust="spacing" textLength="125.625" x="15.625" y="222.829">Customer - Create New Account</text><polygon fill="#181818" points="125.9375,236.709,132.1875,239.209,125.9375,241.709,128.4375,239.209" style="stroke:#181818;stroke-width:0.625;"/><line style="stroke:#181818;stroke-width:0.625;" x1="35.9375" x2="129.6875" y1="239.209" y2="239.209"/><text fill="#000000" font-family="sans-serif" font-size="8.125" lengthAdjust="spacing" textLength="56.25" x="40.3125" y="236.1737">Create Account</text><path d="M90.625,248.584 L179.375,248.584 L179.375,253.8037 L173.125,260.0537 L90.625,260.0537 L90.625,248.584 " fill="#EEEEEE" style="stroke:#000000;stroke-width:0.9375;"/><rect fill="none" height="49.4092" style="stroke:#000000;stroke-width:0.9375;" width="280" x="90.625" y="248.584"/><text fill="#000000" font-family="sans-serif" font-size="8.125" font-weight="bold" lengthAdjust="spacing" textLength="60.625" x="100" y="257.6434">Create Account</text><polygon fill="#181818" points="228.4375,271.5234,234.6875,274.0234,228.4375,276.5234,230.9375,274.0234" style="stroke:#181818;stroke-width:0.625;"/><line style="stroke:#181818;stroke-width:0.625;" x1="133.4375" x2="232.1875" y1="274.0234" y2="274.0234"/><text fill="#000000" font-family="sans-serif" font-size="8.125" lengthAdjust="spacing" textLength="56.25" x="137.8125" y="270.9882">Create Account</text><polygon fill="#181818" points="324.6875,290.4932,330.9375,292.9932,324.6875,295.4932,327.1875,292.9932" style="stroke:#181818;stroke-width:0.625;"/><line style="stroke:#181818;stroke-width:0.625;" x1="133.4375" x2="328.4375" y1="292.9932" y2="292.9932"/><text fill="#000000" font-family="sans-serif" font-size="8.125" lengthAdjust="spacing" textLength="168.125" x="137.8125" y="289.9579">Send New Account Created Notification E-Mail</text><path d="M6.25,311.1182 L273.75,311.1182 L273.75,316.3379 L267.5,322.5879 L6.25,322.5879 L6.25,311.1182 " fill="#EEEEEE" style="stroke:#000000;stroke-width:0.9375;"/><rect fill="none" height="30.4395" style="stroke:#000000;stroke-width:0.9375;" width="364.375" x="6.25" y="311.1182"/><text fill="#000000" font-family="sans-serif" font-size="8.125" font-weight="bold" lengthAdjust="spacing" textLength="239.375" x="15.625" y="320.1776">Customer - Receive New Account Created Notification E-Mail</text><polygon fill="#181818" points="324.6875,334.0576,330.9375,336.5576,324.6875,339.0576,327.1875,336.5576" style="stroke:#181818;stroke-width:0.625;"/><line style="stroke:#181818;stroke-width:0.625;" x1="35.9375" x2="328.4375" y1="336.5576" y2="336.5576"/><text fill="#000000" font-family="sans-serif" font-size="8.125" lengthAdjust="spacing" textLength="177.5" x="40.3125" y="333.5223">Receive New Account Created Notification E-Mail</text><!--SRC=[lLJ1JW913BtFLrHk7Y2UF7Wm0IH8ea00ZTTcAPk6sPdDJ1V2tplBxgAhe630wxJlzRMldQlKOPmWQDpOJC0d96XG-IMR51qcC4yPRc-K4XPDq7M4GZ2aDRIZo6P6e0dTqN3MUvk1fXNfQwK2K3ZY54EqqSsys8HS0z13X-CEckLOHwrs9DRvLXMkWmP6o1aIoBFPn5_1KxkGDJgQRhnGubjLVfbU9tj6DelG2bLiKC1-8ztXIbZnNkVkDKEMFfAmb-UMB2fsDakXQZzCiMz1B8oCPlEXz6Nof0uF3Pht9qm5xc28Auw3WOhC_Bk2ASS61WRGpE6LWyMF8G1ZZEcS6iegvwJSYjsX7y8Ai_PbV_jZ9z3_B6R_aWHD_R2zk-N-ttBLQVgjpNkj_dx7v_IZPA-Oo-hrnykFv585FvrnlivXlhN_i2WRtgpmWYCKjWQAV-Am7nEAY5TqDD6VpQgBFxLihbsz0m00]--></g></svg>