<?xml version="1.0" encoding="us-ascii" standalone="no"?><svg xmlns="http://www.w3.org/2000/svg" xmlns:xlink="http://www.w3.org/1999/xlink" contentStyleType="text/css" height="431px" preserveAspectRatio="none" style="width:700px;height:431px;background:#FFFFFF;" version="1.1" viewBox="0 0 700 431" width="700px" zoomAndPan="magnify"><defs/><g><text fill="#000000" font-family="sans-serif" font-size="14" font-weight="bold" lengthAdjust="spacing" textLength="672" x="10" y="29.5332">Dot Net E Shop - Catalog Api - Api - Catalog Api - Delete Item By Id - Sequence - Component level</text><rect fill="#FFFFFF" height="381.3828" style="stroke:#181818;stroke-width:0.5;" width="95" x="237" y="44.6094"/><text fill="#000000" font-family="sans-serif" font-size="13" font-weight="bold" lengthAdjust="spacing" textLength="21" x="274" y="58.1045">Api</text><rect fill="#FFFFFF" height="381.3828" style="stroke:#181818;stroke-width:0.5;" width="123" x="431" y="44.6094"/><text fill="#000000" font-family="sans-serif" font-size="13" font-weight="bold" lengthAdjust="spacing" textLength="84" x="450.5" y="58.1045">Infrastructure</text><rect fill="none" height="228.4609" style="stroke:#000000;stroke-width:1.5;" width="339" x="221" y="144.9219"/><rect fill="none" height="61.7031" style="stroke:#000000;stroke-width:1.5;" width="261.5" x="231" y="200.625"/><line style="stroke:#181818;stroke-width:0.5;stroke-dasharray:5.0,5.0;" x1="160" x2="160" y1="97.5703" y2="390.3828"/><line style="stroke:#181818;stroke-width:0.5;stroke-dasharray:5.0,5.0;" x1="284" x2="284" y1="97.5703" y2="390.3828"/><line style="stroke:#181818;stroke-width:0.5;stroke-dasharray:5.0,5.0;" x1="492" x2="492" y1="97.5703" y2="390.3828"/><rect fill="#E2E2F0" height="31.6094" rx="2.5" ry="2.5" style="stroke:#181818;stroke-width:0.5;" width="65" x="128" y="64.9609"/><text fill="#000000" font-family="sans-serif" font-size="14" lengthAdjust="spacing" textLength="51" x="135" y="86.4941">External</text><rect fill="#E2E2F0" height="31.6094" rx="2.5" ry="2.5" style="stroke:#181818;stroke-width:0.5;" width="65" x="128" y="389.3828"/><text fill="#000000" font-family="sans-serif" font-size="14" lengthAdjust="spacing" textLength="51" x="135" y="410.916">External</text><rect fill="#E2E2F0" height="31.6094" rx="2.5" ry="2.5" style="stroke:#181818;stroke-width:0.5;" width="87" x="241" y="64.9609"/><text fill="#000000" font-family="sans-serif" font-size="14" lengthAdjust="spacing" textLength="73" x="248" y="86.4941">Catalog Api</text><rect fill="#E2E2F0" height="31.6094" rx="2.5" ry="2.5" style="stroke:#181818;stroke-width:0.5;" width="87" x="241" y="389.3828"/><text fill="#000000" font-family="sans-serif" font-size="14" lengthAdjust="spacing" textLength="73" x="248" y="410.916">Catalog Api</text><rect fill="#E2E2F0" height="31.6094" rx="2.5" ry="2.5" style="stroke:#181818;stroke-width:0.5;" width="115" x="435" y="64.9609"/><text fill="#000000" font-family="sans-serif" font-size="14" lengthAdjust="spacing" textLength="101" x="442" y="86.4941">Catalog Context</text><rect fill="#E2E2F0" height="31.6094" rx="2.5" ry="2.5" style="stroke:#181818;stroke-width:0.5;" width="115" x="435" y="389.3828"/><text fill="#000000" font-family="sans-serif" font-size="14" lengthAdjust="spacing" textLength="101" x="442" y="410.916">Catalog Context</text><polygon fill="#181818" points="272.5,125.9219,282.5,129.9219,272.5,133.9219,276.5,129.9219" style="stroke:#181818;stroke-width:1.0;"/><line style="stroke:#181818;stroke-width:1.0;" x1="160.5" x2="278.5" y1="129.9219" y2="129.9219"/><text fill="#000000" font-family="sans-serif" font-size="13" lengthAdjust="spacing" textLength="100" x="167.5" y="125.0654">Delete Item By Id</text><path d="M221,144.9219 L375,144.9219 L375,153.2734 L365,163.2734 L221,163.2734 L221,144.9219 " fill="#EEEEEE" style="stroke:#000000;stroke-width:1.5;"/><rect fill="none" height="228.4609" style="stroke:#000000;stroke-width:1.5;" width="339" x="221" y="144.9219"/><text fill="#000000" font-family="sans-serif" font-size="13" font-weight="bold" lengthAdjust="spacing" textLength="109" x="236" y="159.417">Delete Item By Id</text><polygon fill="#181818" points="480.5,181.625,490.5,185.625,480.5,189.625,484.5,185.625" style="stroke:#181818;stroke-width:1.0;"/><line style="stroke:#181818;stroke-width:1.0;" x1="284.5" x2="486.5" y1="185.625" y2="185.625"/><text fill="#000000" font-family="sans-serif" font-size="13" lengthAdjust="spacing" textLength="182" x="291.5" y="180.7686">Catalog Items Single Or Default</text><path d="M231,200.625 L292,200.625 L292,208.9766 L282,218.9766 L231,218.9766 L231,200.625 " fill="#EEEEEE" style="stroke:#000000;stroke-width:1.5;"/><rect fill="none" height="61.7031" style="stroke:#000000;stroke-width:1.5;" width="261.5" x="231" y="200.625"/><text fill="#000000" font-family="sans-serif" font-size="13" font-weight="bold" lengthAdjust="spacing" textLength="16" x="246" y="215.1201">alt</text><text fill="#000000" font-family="sans-serif" font-size="11" font-weight="bold" lengthAdjust="spacing" textLength="69" x="307" y="214.0439">[item is null]</text><line style="stroke:#181818;stroke-width:1.0;" x1="284.5" x2="326.5" y1="241.3281" y2="241.3281"/><line style="stroke:#181818;stroke-width:1.0;" x1="326.5" x2="326.5" y1="241.3281" y2="254.3281"/><line style="stroke:#181818;stroke-width:1.0;" x1="285.5" x2="326.5" y1="254.3281" y2="254.3281"/><polygon fill="#181818" points="295.5,250.3281,285.5,254.3281,295.5,258.3281,291.5,254.3281" style="stroke:#181818;stroke-width:1.0;"/><text fill="#000000" font-family="sans-serif" font-size="13" lengthAdjust="spacing" textLength="189" x="291.5" y="236.4717">Return (TypedResults.NotFound)</text><polygon fill="#181818" points="480.5,287.6797,490.5,291.6797,480.5,295.6797,484.5,291.6797" style="stroke:#181818;stroke-width:1.0;"/><line style="stroke:#181818;stroke-width:1.0;" x1="284.5" x2="486.5" y1="291.6797" y2="291.6797"/><text fill="#000000" font-family="sans-serif" font-size="13" lengthAdjust="spacing" textLength="130" x="291.5" y="286.8232">Catalog Items Remove</text><polygon fill="#181818" points="480.5,318.0313,490.5,322.0313,480.5,326.0313,484.5,322.0313" style="stroke:#181818;stroke-width:1.0;"/><line style="stroke:#181818;stroke-width:1.0;" x1="284.5" x2="486.5" y1="322.0313" y2="322.0313"/><text fill="#000000" font-family="sans-serif" font-size="13" lengthAdjust="spacing" textLength="124" x="291.5" y="317.1748">Save Changes Async</text><line style="stroke:#181818;stroke-width:1.0;" x1="284.5" x2="326.5" y1="352.3828" y2="352.3828"/><line style="stroke:#181818;stroke-width:1.0;" x1="326.5" x2="326.5" y1="352.3828" y2="365.3828"/><line style="stroke:#181818;stroke-width:1.0;" x1="285.5" x2="326.5" y1="365.3828" y2="365.3828"/><polygon fill="#181818" points="295.5,361.3828,285.5,365.3828,295.5,369.3828,291.5,365.3828" style="stroke:#181818;stroke-width:1.0;"/><text fill="#000000" font-family="sans-serif" font-size="13" lengthAdjust="spacing" textLength="194" x="291.5" y="347.5264">Return (TypedResults.NoContent)</text><!--SRC=[rPF1Ri8m38RlUGghksm7UjffXqciWDGBa-YadRFMb4Z1wH8NwDlFNM6Z0sq88Ktq4DMEc___OfSDMuIHOvWYmnYoXQjW08bcRLq9myf8rAtzt0WjCaBAk8Id1j92SXc-rqWvjiLkMJb2Oh2uGgjKfJsRt5HQKj5um-X9smXqWEG-9GadrgtZpCrvhJrcJP23Gxmhx6Abtjm6eZqZ4ToyBWoZ0dcwtP_Pdd3lKz4MSE4UjzG7sjjQAOqJHwmDeGzn5sxXzeiKKW7YGErvIMdkTM1Vvrnx_DjMguCRFjDQN-s8o-tntqw_NjJfJO31uoMl3HuEHqcLtjNLaVmbTS_2EFMAXMhNqzP-WCnGAJ_QinUgkQujAsqPJ8jc0b1jxV_3_TQZ6GemmUrBKs4nmo048PuwdhYQYhjsaAwuEJDSkXLU5K2cLmZ9GbE90OQXeVmgv-SJYBWR8FK1]--></g></svg>