<?xml version="1.0" encoding="us-ascii" standalone="no"?><svg xmlns="http://www.w3.org/2000/svg" xmlns:xlink="http://www.w3.org/1999/xlink" contentStyleType="text/css" height="366px" preserveAspectRatio="none" style="width:392px;height:366px;background:#FFFFFF;" version="1.1" viewBox="0 0 392 366" width="392px" zoomAndPan="magnify"><defs/><g><text fill="#000000" font-family="sans-serif" font-size="14" font-weight="bold" lengthAdjust="spacing" textLength="194" x="91.5" y="24.5332">C4 Static - CONTAINER level</text><!--cluster ECommercePlatform.SoftwareSystems.ProductService--><g id="cluster_ECommercePlatform.SoftwareSystems.ProductService"><rect fill="none" height="223" rx="2.5" ry="2.5" style="stroke:#444444;stroke-width:1.0;stroke-dasharray:7.0,7.0;" width="232" x="14" y="42.6094"/><text fill="#444444" font-family="sans-serif" font-size="16" font-weight="bold" lengthAdjust="spacing" textLength="122" x="69" y="61.2188">Product Service</text><text fill="#444444" font-family="sans-serif" font-size="12" font-weight="bold" lengthAdjust="spacing" textLength="51" x="104.5" y="77.1914">[System]</text></g><!--cluster ECommercePlatform.SoftwareSystems.BuyingService--><g id="cluster_ECommercePlatform.SoftwareSystems.BuyingService"><rect fill="none" height="94" rx="2.5" ry="2.5" style="stroke:#444444;stroke-width:1.0;stroke-dasharray:7.0,7.0;" width="132" x="254" y="171.6094"/><text fill="#444444" font-family="sans-serif" font-size="16" font-weight="bold" lengthAdjust="spacing" textLength="116" x="262" y="190.2188">Buying Service</text><text fill="#444444" font-family="sans-serif" font-size="12" font-weight="bold" lengthAdjust="spacing" textLength="51" x="294.5" y="206.1914">[System]</text></g><!--entity ECommercePlatform.SoftwareSystems.ProductService.Containers.Api--><g id="elem_ECommercePlatform.SoftwareSystems.ProductService.Containers.Api"><rect fill="#438DD5" height="40.125" rx="2.5" ry="2.5" style="stroke:#3C7FC0;stroke-width:0.5;" width="45" x="22.5" y="88.6094"/><text fill="#FFFFFF" font-family="sans-serif" font-size="16" font-weight="bold" lengthAdjust="spacing" textLength="25" x="32.5" y="115.2188">Api</text></g><!--entity ECommercePlatform.SoftwareSystems.ProductService.Containers.Database--><g id="elem_ECommercePlatform.SoftwareSystems.ProductService.Containers.Database"><rect fill="#438DD5" height="40.125" rx="2.5" ry="2.5" style="stroke:#3C7FC0;stroke-width:0.5;" width="92" x="23" y="217.6094"/><text fill="#FFFFFF" font-family="sans-serif" font-size="16" font-weight="bold" lengthAdjust="spacing" textLength="72" x="33" y="244.2188">Database</text></g><!--entity ECommercePlatform.SoftwareSystems.ProductService.Containers.Messaging--><g id="elem_ECommercePlatform.SoftwareSystems.ProductService.Containers.Messaging"><rect fill="#438DD5" height="40.125" rx="2.5" ry="2.5" style="stroke:#3C7FC0;stroke-width:0.5;" width="103" x="133.5" y="217.6094"/><text fill="#FFFFFF" font-family="sans-serif" font-size="16" font-weight="bold" lengthAdjust="spacing" textLength="83" x="143.5" y="244.2188">Messaging</text></g><!--entity ECommercePlatform.SoftwareSystems.ProductService.Containers.MessageHandler--><g id="elem_ECommercePlatform.SoftwareSystems.ProductService.Containers.MessageHandler"><rect fill="#438DD5" height="40.125" rx="2.5" ry="2.5" style="stroke:#3C7FC0;stroke-width:0.5;" width="152" x="86" y="88.6094"/><text fill="#FFFFFF" font-family="sans-serif" font-size="16" font-weight="bold" lengthAdjust="spacing" textLength="68" x="96" y="115.2188">Message</text><text fill="#FFFFFF" font-family="sans-serif" font-size="16" font-weight="bold" lengthAdjust="spacing" textLength="4" x="164" y="115.2188">&#160;</text><text fill="#FFFFFF" font-family="sans-serif" font-size="16" font-weight="bold" lengthAdjust="spacing" textLength="60" x="168" y="115.2188">Handler</text></g><!--entity ECommercePlatform.SoftwareSystems.BuyingService.Containers.Messaging--><g id="elem_ECommercePlatform.SoftwareSystems.BuyingService.Containers.Messaging"><rect fill="#438DD5" height="40.125" rx="2.5" ry="2.5" style="stroke:#3C7FC0;stroke-width:0.5;" width="103" x="262.5" y="217.6094"/><text fill="#FFFFFF" font-family="sans-serif" font-size="16" font-weight="bold" lengthAdjust="spacing" textLength="83" x="272.5" y="244.2188">Messaging</text></g><polygon fill="none" points="60.1891,217.5771,59.7999,209.042,54.2838,211.4024,60.1891,217.5771" style="stroke:#666666;stroke-width:1.0;"/><path d="M43.7649,128.8051 C43.4499,134.5305 43.1563,140.8218 43,146.6094 C42.796,154.1622 41.7137,156.1641 43,163.6094 C46.2752,182.567 50.8568,195.7685 57.0418,210.2222 " fill="none" style="stroke:#666666;stroke-width:1.0;"/><text fill="#666666" font-family="sans-serif" font-size="12" font-weight="bold" lengthAdjust="spacing" textLength="29" x="44" y="160.0664">Uses</text><polygon fill="none" points="171.8859,217.599,169.4528,209.4088,164.6674,213.0282,171.8859,217.599" style="stroke:#666666;stroke-width:1.0;"/><path d="M60.0979,128.8699 C71.0688,142.4041 85.2929,158.9016 93,163.6094 C105.1429,171.0268 111.758,164.3567 124,171.6094 C143.5724,183.2049 155.9546,196.5354 167.0601,211.2185 " fill="none" style="stroke:#666666;stroke-width:1.0;"/><text fill="#666666" font-family="sans-serif" font-size="12" font-weight="bold" lengthAdjust="spacing" textLength="29" x="94" y="160.0664">Uses</text><polygon fill="none" points="297.1085,217.5005,293.9177,209.5747,289.493,213.6271,297.1085,217.5005" style="stroke:#666666;stroke-width:1.0;"/><path d="M194.4305,128.7197 C203.2303,134.2334 212.6338,140.4349 221,146.6094 C250.1058,168.0901 273.9824,192.2495 291.7054,211.6009 " fill="none" style="stroke:#666666;stroke-width:1.0;"/><text fill="#666666" font-family="sans-serif" font-size="12" font-weight="bold" lengthAdjust="spacing" textLength="29" x="242" y="160.0664">Uses</text><polygon fill="none" points="85.4149,217.5751,92.8689,213.3991,88.2851,209.5276,85.4149,217.5751" style="stroke:#666666;stroke-width:1.0;"/><path d="M150.7307,128.7097 C144.3506,139.2067 136.0556,152.3453 128,163.6094 C114.4448,182.5635 102.7858,197.0086 90.577,211.4634 " fill="none" style="stroke:#666666;stroke-width:1.0;"/><text fill="#666666" font-family="sans-serif" font-size="12" font-weight="bold" lengthAdjust="spacing" textLength="29" x="140" y="160.0664">Uses</text><polygon fill="none" points="186.8792,217.2701,190.3957,209.4832,184.4085,209.0911,186.8792,217.2701" style="stroke:#666666;stroke-width:1.0;"/><path d="M174.5739,128.8692 C177.5631,134.3834 180.3587,140.5479 182,146.6094 C188.4152,170.3011 188.613,190.8008 187.4021,209.2872 " fill="none" style="stroke:#666666;stroke-width:1.0;"/><text fill="#666666" font-family="sans-serif" font-size="12" font-weight="bold" lengthAdjust="spacing" textLength="29" x="187" y="160.0664">Uses</text><rect fill="none" height="17.6094" style="stroke:none;stroke-width:1.0;" width="182" x="178" y="286.6094"/><text fill="#000000" font-family="sans-serif" font-size="14" font-weight="bold" lengthAdjust="spacing" textLength="53" x="178" y="301.1426">Legend</text><text fill="#FFFFFF" font-family="sans-serif" font-size="14" lengthAdjust="spacing" textLength="4" x="231" y="301.1426">&#160;</text><rect fill="#438DD5" height="17.6094" style="stroke:none;stroke-width:1.0;" width="182" x="178" y="304.2188"/><text fill="#3C7FC0" font-family="sans-serif" font-size="14" lengthAdjust="spacing" textLength="14" x="182" y="318.752">&#9647;</text><text fill="#FFFFFF" font-family="sans-serif" font-size="14" lengthAdjust="spacing" textLength="4" x="196" y="318.752">&#160;</text><text fill="#FFFFFF" font-family="sans-serif" font-size="14" lengthAdjust="spacing" textLength="59" x="204" y="318.752">container</text><text fill="#FFFFFF" font-family="sans-serif" font-size="14" lengthAdjust="spacing" textLength="4" x="267" y="318.752">&#160;</text><rect fill="none" height="17.6094" style="stroke:none;stroke-width:1.0;" width="182" x="178" y="321.8281"/><text fill="#444444" font-family="sans-serif" font-size="14" lengthAdjust="spacing" textLength="14" x="182" y="336.3613">&#9647;</text><text fill="#FFFFFF" font-family="sans-serif" font-size="14" lengthAdjust="spacing" textLength="4" x="196" y="336.3613">&#160;</text><text fill="#444444" font-family="sans-serif" font-size="14" lengthAdjust="spacing" textLength="108" x="204" y="336.3613">system boundary</text><text fill="#444444" font-family="sans-serif" font-size="10" lengthAdjust="spacing" textLength="40" x="316" y="337.2402">(dashed)</text><text fill="#FFFFFF" font-family="sans-serif" font-size="14" lengthAdjust="spacing" textLength="4" x="356" y="336.3613">&#160;</text><line style="stroke:none;stroke-width:1.0;" x1="178" x2="360" y1="286.6094" y2="286.6094"/><line style="stroke:none;stroke-width:1.0;" x1="178" x2="360" y1="304.2188" y2="304.2188"/><line style="stroke:none;stroke-width:1.0;" x1="178" x2="360" y1="321.8281" y2="321.8281"/><line style="stroke:none;stroke-width:1.0;" x1="178" x2="360" y1="339.4375" y2="339.4375"/><line style="stroke:none;stroke-width:1.0;" x1="178" x2="178" y1="286.6094" y2="339.4375"/><line style="stroke:none;stroke-width:1.0;" x1="360" x2="360" y1="286.6094" y2="339.4375"/><!--SRC=[nLLDRvj04BtpApQq1oErd7ogb8E3QHCf1GH4KQL8Q09ZWheVQ7UnYwh-zox11Tpuu3IaGO1sdcRclVb0dDKIIWQ4GYiQJHH33Hoiiuhdj2cGkEvTT-TBTUSjCqzm3HL7wTODevQrAWgV8aEkKoWNjjAWyHF7dVs1lBylFK65F2yb8ZVsniJsoBlDuzNv25cWFFHJ3r28NSNBS_ipK8MsSvmcVm1UOZ6b4hA3Jk0Q74ybayZ4zf1COd42K-zrXARZYP4-xPl67_gm8zHqV88uJqCdlHZ3XoB7-1uwac1ItvYWrpv66zleJYx3sopouoGCiYYCqtXrbIuSwthrBRn9ipICidLu6nZ4KjyhNeC4HheSkgsHr8AsdM5Pkj8KYRSaYH5GvUGZyS8WNLq5VameRj5ibvMqIYFBBaJ32v3jmlS4OoXpZ2ZeZP3CJSH6xq1YxwdSI8gYoNM2SblbfdPx3v0zOZlafqNCDMpoivEwGwXoLtLbECpRDCv-V9mPiwz1mpsehem_nrVX-OfAGMcsqoGUpg_8X9V02ufoe4EoHoQal_vb_1TDQwIFq-_j5mt_8ELpkcOACD_OozThfWswKQYCgZUND6tRJ9h-tggPXlfcwlxdFETKTwHv-z_5jV_53zOBvpS0]--></g></svg>