<?xml version="1.0" encoding="us-ascii" standalone="no"?><svg xmlns="http://www.w3.org/2000/svg" xmlns:xlink="http://www.w3.org/1999/xlink" contentStyleType="text/css" height="414px" preserveAspectRatio="none" style="width:695px;height:414px;background:#FFFFFF;" version="1.1" viewBox="0 0 695 414" width="695px" zoomAndPan="magnify"><defs/><g><text fill="#000000" font-family="sans-serif" font-size="14" font-weight="bold" lengthAdjust="spacing" textLength="667" x="10" y="29.5332">Dot Net E Shop - Catalog Api - Api - Catalog Api - Get Items By Ids - Sequence - Component level</text><rect fill="#FFFFFF" height="364.0313" style="stroke:#181818;stroke-width:0.5;" width="95" x="243.5" y="44.6094"/><text fill="#000000" font-family="sans-serif" font-size="13" font-weight="bold" lengthAdjust="spacing" textLength="21" x="280.5" y="58.1045">Api</text><rect fill="#FFFFFF" height="364.0313" style="stroke:#181818;stroke-width:0.5;" width="123" x="417.5" y="44.6094"/><text fill="#000000" font-family="sans-serif" font-size="13" font-weight="bold" lengthAdjust="spacing" textLength="84" x="437" y="58.1045">Infrastructure</text><rect fill="none" height="211.1094" style="stroke:#000000;stroke-width:1.5;" width="319" x="227.5" y="144.9219"/><rect fill="none" height="61.7031" style="stroke:#000000;stroke-width:1.5;" width="202" x="237.5" y="243.9766"/><line style="stroke:#181818;stroke-width:0.5;stroke-dasharray:5.0,5.0;" x1="168.5" x2="168.5" y1="97.5703" y2="373.0313"/><line style="stroke:#181818;stroke-width:0.5;stroke-dasharray:5.0,5.0;" x1="290.5" x2="290.5" y1="97.5703" y2="373.0313"/><line style="stroke:#181818;stroke-width:0.5;stroke-dasharray:5.0,5.0;" x1="478.5" x2="478.5" y1="97.5703" y2="373.0313"/><rect fill="#E2E2F0" height="31.6094" rx="2.5" ry="2.5" style="stroke:#181818;stroke-width:0.5;" width="65" x="136.5" y="64.9609"/><text fill="#000000" font-family="sans-serif" font-size="14" lengthAdjust="spacing" textLength="51" x="143.5" y="86.4941">External</text><rect fill="#E2E2F0" height="31.6094" rx="2.5" ry="2.5" style="stroke:#181818;stroke-width:0.5;" width="65" x="136.5" y="372.0313"/><text fill="#000000" font-family="sans-serif" font-size="14" lengthAdjust="spacing" textLength="51" x="143.5" y="393.5645">External</text><rect fill="#E2E2F0" height="31.6094" rx="2.5" ry="2.5" style="stroke:#181818;stroke-width:0.5;" width="87" x="247.5" y="64.9609"/><text fill="#000000" font-family="sans-serif" font-size="14" lengthAdjust="spacing" textLength="73" x="254.5" y="86.4941">Catalog Api</text><rect fill="#E2E2F0" height="31.6094" rx="2.5" ry="2.5" style="stroke:#181818;stroke-width:0.5;" width="87" x="247.5" y="372.0313"/><text fill="#000000" font-family="sans-serif" font-size="14" lengthAdjust="spacing" textLength="73" x="254.5" y="393.5645">Catalog Api</text><rect fill="#E2E2F0" height="31.6094" rx="2.5" ry="2.5" style="stroke:#181818;stroke-width:0.5;" width="115" x="421.5" y="64.9609"/><text fill="#000000" font-family="sans-serif" font-size="14" lengthAdjust="spacing" textLength="101" x="428.5" y="86.4941">Catalog Context</text><rect fill="#E2E2F0" height="31.6094" rx="2.5" ry="2.5" style="stroke:#181818;stroke-width:0.5;" width="115" x="421.5" y="372.0313"/><text fill="#000000" font-family="sans-serif" font-size="14" lengthAdjust="spacing" textLength="101" x="428.5" y="393.5645">Catalog Context</text><polygon fill="#181818" points="279,125.9219,289,129.9219,279,133.9219,283,129.9219" style="stroke:#181818;stroke-width:1.0;"/><line style="stroke:#181818;stroke-width:1.0;" x1="169" x2="285" y1="129.9219" y2="129.9219"/><text fill="#000000" font-family="sans-serif" font-size="13" lengthAdjust="spacing" textLength="98" x="176" y="125.0654">Get Items By Ids</text><path d="M227.5,144.9219 L374.5,144.9219 L374.5,153.2734 L364.5,163.2734 L227.5,163.2734 L227.5,144.9219 " fill="#EEEEEE" style="stroke:#000000;stroke-width:1.5;"/><rect fill="none" height="211.1094" style="stroke:#000000;stroke-width:1.5;" width="319" x="227.5" y="144.9219"/><text fill="#000000" font-family="sans-serif" font-size="13" font-weight="bold" lengthAdjust="spacing" textLength="102" x="242.5" y="159.417">Get Items By Ids</text><polygon fill="#181818" points="467,181.625,477,185.625,467,189.625,471,185.625" style="stroke:#181818;stroke-width:1.0;"/><line style="stroke:#181818;stroke-width:1.0;" x1="291" x2="473" y1="185.625" y2="185.625"/><text fill="#000000" font-family="sans-serif" font-size="13" lengthAdjust="spacing" textLength="164" x="298" y="180.7686">Catalog Items To List Async</text><line style="stroke:#181818;stroke-width:1.0;" x1="291" x2="333" y1="215.9766" y2="215.9766"/><line style="stroke:#181818;stroke-width:1.0;" x1="333" x2="333" y1="215.9766" y2="228.9766"/><line style="stroke:#181818;stroke-width:1.0;" x1="292" x2="333" y1="228.9766" y2="228.9766"/><polygon fill="#181818" points="302,224.9766,292,228.9766,302,232.9766,298,228.9766" style="stroke:#181818;stroke-width:1.0;"/><text fill="#000000" font-family="sans-serif" font-size="13" lengthAdjust="spacing" textLength="136" x="298" y="211.1201">Change Uri Placeholder</text><path d="M237.5,243.9766 L434.5,243.9766 L434.5,252.3281 L424.5,262.3281 L237.5,262.3281 L237.5,243.9766 " fill="#EEEEEE" style="stroke:#000000;stroke-width:1.5;"/><rect fill="none" height="61.7031" style="stroke:#000000;stroke-width:1.5;" width="202" x="237.5" y="243.9766"/><text fill="#000000" font-family="sans-serif" font-size="13" font-weight="bold" lengthAdjust="spacing" textLength="152" x="252.5" y="258.4717">Change Uri Placeholder</text><line style="stroke:#181818;stroke-width:1.0;" x1="291" x2="333" y1="284.6797" y2="284.6797"/><line style="stroke:#181818;stroke-width:1.0;" x1="333" x2="333" y1="284.6797" y2="297.6797"/><line style="stroke:#181818;stroke-width:1.0;" x1="292" x2="333" y1="297.6797" y2="297.6797"/><polygon fill="#181818" points="302,293.6797,292,297.6797,302,301.6797,298,297.6797" style="stroke:#181818;stroke-width:1.0;"/><text fill="#000000" font-family="sans-serif" font-size="13" lengthAdjust="spacing" textLength="82" x="298" y="279.8232">Return (items)</text><line style="stroke:#181818;stroke-width:1.0;" x1="291" x2="333" y1="335.0313" y2="335.0313"/><line style="stroke:#181818;stroke-width:1.0;" x1="333" x2="333" y1="335.0313" y2="348.0313"/><line style="stroke:#181818;stroke-width:1.0;" x1="292" x2="333" y1="348.0313" y2="348.0313"/><polygon fill="#181818" points="302,344.0313,292,348.0313,302,352.0313,298,348.0313" style="stroke:#181818;stroke-width:1.0;"/><text fill="#000000" font-family="sans-serif" font-size="13" lengthAdjust="spacing" textLength="150" x="298" y="330.1748">Return (TypedResults.Ok)</text><!--SRC=[rLAnJiCm4Dtz5QUmmD1CJ0n89HGK2G5gYfXDScqiNDlO5zhyFHSbXOOMgAfAW0VBz_pizvxFf4WZN5g2MoGOGLPQ1mD894bjPp1qYgjsxcFNJ4y9vm4kQaYBm526BnMQ71kkdJjhq11eV4KjX9EULAwSP2WQBGczaJe26I0vJGsNLzekuinEQI4zPdLehevNnBOMuiak8Lhp4S7HOwa81V1eTp-ZFU7UKTRct1nxr8JUqEwuJ8qJQqWgWpx4RTc5MoS9D0Mm0x7c9JLJBmFvAgVAuy-s6XrSqfxM-cfRN7RNVpXzNuZTcm23yqC-6vnj_2GnyxPoc_0XLVSAiUi3SwPLHzi04mitAX0CGstoty_nNJEIKfePmeDNSAzbZgNL1Vgk9Lzi_kb0O-Hc6JXMpVcJvil_3x-Jsc4nnb1fPjmzjyx56m00]--></g></svg>