<?xml version="1.0" encoding="us-ascii" standalone="no"?><svg xmlns="http://www.w3.org/2000/svg" xmlns:xlink="http://www.w3.org/1999/xlink" contentStyleType="text/css" height="383px" preserveAspectRatio="none" style="width:539px;height:383px;background:#FFFFFF;" version="1.1" viewBox="0 0 539 383" width="539px" zoomAndPan="magnify"><defs/><g><text fill="#000000" font-family="sans-serif" font-size="14" font-weight="bold" lengthAdjust="spacing" textLength="511" x="10" y="29.5332">Internet Banking - Single-Page App - Sign In - Sequence - Container level</text><rect fill="#FFFFFF" height="326.3281" style="stroke:#181818;stroke-width:0.5;" width="353.5" x="114.25" y="44.6094"/><text fill="#000000" font-family="sans-serif" font-size="13" font-weight="bold" lengthAdjust="spacing" textLength="105" x="238.5" y="58.1045">Internet Banking</text><rect fill="none" height="111.4063" style="stroke:#000000;stroke-width:1.5;" width="375.5" x="108.25" y="175.9219"/><rect fill="none" height="48.7031" style="stroke:#000000;stroke-width:1.5;" width="235.5" x="238.25" y="231.625"/><line style="stroke:#181818;stroke-width:0.5;stroke-dasharray:5.0,5.0;" x1="75.25" x2="75.25" y1="128.5703" y2="304.3281"/><line style="stroke:#181818;stroke-width:0.5;stroke-dasharray:5.0,5.0;" x1="178.25" x2="178.25" y1="128.5703" y2="304.3281"/><line style="stroke:#181818;stroke-width:0.5;stroke-dasharray:5.0,5.0;" x1="302.25" x2="302.25" y1="128.5703" y2="304.3281"/><line style="stroke:#181818;stroke-width:0.5;stroke-dasharray:5.0,5.0;" x1="429.75" x2="429.75" y1="128.5703" y2="304.3281"/><rect fill="#E2E2F0" height="31.6094" rx="2.5" ry="2.5" style="stroke:#181818;stroke-width:0.5;" width="65" x="43.25" y="95.9609"/><text fill="#000000" font-family="sans-serif" font-size="14" lengthAdjust="spacing" textLength="51" x="50.25" y="117.4941">External</text><rect fill="#E2E2F0" height="31.6094" rx="2.5" ry="2.5" style="stroke:#181818;stroke-width:0.5;" width="65" x="43.25" y="303.3281"/><text fill="#000000" font-family="sans-serif" font-size="14" lengthAdjust="spacing" textLength="51" x="50.25" y="324.8613">External</text><rect fill="#E2E2F0" height="31.6094" rx="2.5" ry="2.5" style="stroke:#181818;stroke-width:0.5;" width="120" x="118.25" y="95.9609"/><text fill="#000000" font-family="sans-serif" font-size="14" lengthAdjust="spacing" textLength="106" x="125.25" y="117.4941">Single-Page App</text><rect fill="#E2E2F0" height="31.6094" rx="2.5" ry="2.5" style="stroke:#181818;stroke-width:0.5;" width="120" x="118.25" y="303.3281"/><text fill="#000000" font-family="sans-serif" font-size="14" lengthAdjust="spacing" textLength="106" x="125.25" y="324.8613">Single-Page App</text><rect fill="#E2E2F0" height="31.6094" rx="2.5" ry="2.5" style="stroke:#181818;stroke-width:0.5;" width="108" x="248.25" y="95.9609"/><text fill="#000000" font-family="sans-serif" font-size="14" lengthAdjust="spacing" textLength="94" x="255.25" y="117.4941">API Application</text><rect fill="#E2E2F0" height="31.6094" rx="2.5" ry="2.5" style="stroke:#181818;stroke-width:0.5;" width="108" x="248.25" y="303.3281"/><text fill="#000000" font-family="sans-serif" font-size="14" lengthAdjust="spacing" textLength="94" x="255.25" y="324.8613">API Application</text><text fill="#000000" font-family="sans-serif" font-size="14" lengthAdjust="spacing" textLength="61" x="396.75" y="125.4941">Database</text><path d="M412.25,74.9609 C412.25,64.9609 430.25,64.9609 430.25,64.9609 C430.25,64.9609 448.25,64.9609 448.25,74.9609 L448.25,100.9609 C448.25,110.9609 430.25,110.9609 430.25,110.9609 C430.25,110.9609 412.25,110.9609 412.25,100.9609 L412.25,74.9609 " fill="#E2E2F0" style="stroke:#181818;stroke-width:1.5;"/><path d="M412.25,74.9609 C412.25,84.9609 430.25,84.9609 430.25,84.9609 C430.25,84.9609 448.25,84.9609 448.25,74.9609 " fill="none" style="stroke:#181818;stroke-width:1.5;"/><text fill="#000000" font-family="sans-serif" font-size="14" lengthAdjust="spacing" textLength="61" x="396.75" y="317.8613">Database</text><path d="M412.25,330.9375 C412.25,320.9375 430.25,320.9375 430.25,320.9375 C430.25,320.9375 448.25,320.9375 448.25,330.9375 L448.25,356.9375 C448.25,366.9375 430.25,366.9375 430.25,366.9375 C430.25,366.9375 412.25,366.9375 412.25,356.9375 L412.25,330.9375 " fill="#E2E2F0" style="stroke:#181818;stroke-width:1.5;"/><path d="M412.25,330.9375 C412.25,340.9375 430.25,340.9375 430.25,340.9375 C430.25,340.9375 448.25,340.9375 448.25,330.9375 " fill="none" style="stroke:#181818;stroke-width:1.5;"/><polygon fill="#181818" points="166.25,156.9219,176.25,160.9219,166.25,164.9219,170.25,160.9219" style="stroke:#181818;stroke-width:1.0;"/><line style="stroke:#181818;stroke-width:1.0;" x1="75.75" x2="172.25" y1="160.9219" y2="160.9219"/><text fill="#000000" font-family="sans-serif" font-size="13" lengthAdjust="spacing" textLength="40" x="82.75" y="156.0654">Sign In</text><path d="M108.25,175.9219 L198.25,175.9219 L198.25,184.2734 L188.25,194.2734 L108.25,194.2734 L108.25,175.9219 " fill="#EEEEEE" style="stroke:#000000;stroke-width:1.5;"/><rect fill="none" height="111.4063" style="stroke:#000000;stroke-width:1.5;" width="375.5" x="108.25" y="175.9219"/><text fill="#000000" font-family="sans-serif" font-size="13" font-weight="bold" lengthAdjust="spacing" textLength="45" x="123.25" y="190.417">Sign In</text><polygon fill="#181818" points="290.25,212.625,300.25,216.625,290.25,220.625,294.25,216.625" style="stroke:#181818;stroke-width:1.0;"/><line style="stroke:#181818;stroke-width:1.0;" x1="178.25" x2="296.25" y1="216.625" y2="216.625"/><text fill="#000000" font-family="sans-serif" font-size="13" lengthAdjust="spacing" textLength="40" x="185.25" y="211.7686">Sign In</text><path d="M238.25,231.625 L328.25,231.625 L328.25,239.9766 L318.25,249.9766 L238.25,249.9766 L238.25,231.625 " fill="#EEEEEE" style="stroke:#000000;stroke-width:1.5;"/><rect fill="none" height="48.7031" style="stroke:#000000;stroke-width:1.5;" width="235.5" x="238.25" y="231.625"/><text fill="#000000" font-family="sans-serif" font-size="13" font-weight="bold" lengthAdjust="spacing" textLength="45" x="253.25" y="246.1201">Sign In</text><polygon fill="#181818" points="418.25,268.3281,428.25,272.3281,418.25,276.3281,422.25,272.3281" style="stroke:#181818;stroke-width:1.0;"/><line style="stroke:#181818;stroke-width:1.0;" x1="302.25" x2="424.25" y1="272.3281" y2="272.3281"/><text fill="#000000" font-family="sans-serif" font-size="13" lengthAdjust="spacing" textLength="104" x="309.25" y="267.4717">Authenticate User</text><!--SRC=[hPB1Ri8m38RlVWglExUddNQO16n8t93GjBCfNecMEbdY3dZx9OMY0PS9Y1J5ZfBl_sFdmGTgMa9BEzSfnfQLX03Kg6MSYN8GLXoJV1bfiCH5MYoNSseOHzxtEusaapdYxuwbvXHEd2WPuO2MVzW2U0fgQkD958ktRUQIBP0YJfvwcQbrcshXFdL3WHUxgDp6QZYupm6MRel5kQi27p_MHXamZHETCxEztDWq-TxSrXTg0_Z0hOwFYDMUb469Soaqci-oW3KrgN5oWr0Y_G7rIYjIMb9aB5uFqGty0G4iAqpb183_Dm3BbtlK3v-7JmDDS9q_PlTWNstnjF9tzdW6lzhaqBvaRzJfcaKpal4zSiWjxIVy0W00]--></g></svg>