<?xml version="1.0" encoding="us-ascii" standalone="no"?><svg xmlns="http://www.w3.org/2000/svg" xmlns:xlink="http://www.w3.org/1999/xlink" contentStyleType="text/css" height="383px" preserveAspectRatio="none" style="width:631px;height:383px;background:#FFFFFF;" version="1.1" viewBox="0 0 631 383" width="631px" zoomAndPan="magnify"><defs/><g><text fill="#000000" font-family="sans-serif" font-size="14" font-weight="bold" lengthAdjust="spacing" textLength="603" x="10" y="29.5332">BigBankPlc - Internet Banking - Single-Page App - Sign In - Sequence - Container level</text><rect fill="#FFFFFF" height="326.3281" style="stroke:#181818;stroke-width:0.5;" width="353.5" x="160.25" y="44.6094"/><text fill="#000000" font-family="sans-serif" font-size="13" font-weight="bold" lengthAdjust="spacing" textLength="105" x="284.5" y="58.1045">Internet Banking</text><rect fill="none" height="111.4063" style="stroke:#000000;stroke-width:1.5;" width="375.5" x="154.25" y="175.9219"/><rect fill="none" height="48.7031" style="stroke:#000000;stroke-width:1.5;" width="235.5" x="284.25" y="231.625"/><line style="stroke:#181818;stroke-width:0.5;stroke-dasharray:5.0,5.0;" x1="121.25" x2="121.25" y1="128.5703" y2="304.3281"/><line style="stroke:#181818;stroke-width:0.5;stroke-dasharray:5.0,5.0;" x1="224.25" x2="224.25" y1="128.5703" y2="304.3281"/><line style="stroke:#181818;stroke-width:0.5;stroke-dasharray:5.0,5.0;" x1="348.25" x2="348.25" y1="128.5703" y2="304.3281"/><line style="stroke:#181818;stroke-width:0.5;stroke-dasharray:5.0,5.0;" x1="475.75" x2="475.75" y1="128.5703" y2="304.3281"/><rect fill="#E2E2F0" height="31.6094" rx="2.5" ry="2.5" style="stroke:#181818;stroke-width:0.5;" width="65" x="89.25" y="95.9609"/><text fill="#000000" font-family="sans-serif" font-size="14" lengthAdjust="spacing" textLength="51" x="96.25" y="117.4941">External</text><rect fill="#E2E2F0" height="31.6094" rx="2.5" ry="2.5" style="stroke:#181818;stroke-width:0.5;" width="65" x="89.25" y="303.3281"/><text fill="#000000" font-family="sans-serif" font-size="14" lengthAdjust="spacing" textLength="51" x="96.25" y="324.8613">External</text><rect fill="#E2E2F0" height="31.6094" rx="2.5" ry="2.5" style="stroke:#181818;stroke-width:0.5;" width="120" x="164.25" y="95.9609"/><text fill="#000000" font-family="sans-serif" font-size="14" lengthAdjust="spacing" textLength="106" x="171.25" y="117.4941">Single-Page App</text><rect fill="#E2E2F0" height="31.6094" rx="2.5" ry="2.5" style="stroke:#181818;stroke-width:0.5;" width="120" x="164.25" y="303.3281"/><text fill="#000000" font-family="sans-serif" font-size="14" lengthAdjust="spacing" textLength="106" x="171.25" y="324.8613">Single-Page App</text><rect fill="#E2E2F0" height="31.6094" rx="2.5" ry="2.5" style="stroke:#181818;stroke-width:0.5;" width="108" x="294.25" y="95.9609"/><text fill="#000000" font-family="sans-serif" font-size="14" lengthAdjust="spacing" textLength="94" x="301.25" y="117.4941">API Application</text><rect fill="#E2E2F0" height="31.6094" rx="2.5" ry="2.5" style="stroke:#181818;stroke-width:0.5;" width="108" x="294.25" y="303.3281"/><text fill="#000000" font-family="sans-serif" font-size="14" lengthAdjust="spacing" textLength="94" x="301.25" y="324.8613">API Application</text><text fill="#000000" font-family="sans-serif" font-size="14" lengthAdjust="spacing" textLength="61" x="442.75" y="125.4941">Database</text><path d="M458.25,74.9609 C458.25,64.9609 476.25,64.9609 476.25,64.9609 C476.25,64.9609 494.25,64.9609 494.25,74.9609 L494.25,100.9609 C494.25,110.9609 476.25,110.9609 476.25,110.9609 C476.25,110.9609 458.25,110.9609 458.25,100.9609 L458.25,74.9609 " fill="#E2E2F0" style="stroke:#181818;stroke-width:1.5;"/><path d="M458.25,74.9609 C458.25,84.9609 476.25,84.9609 476.25,84.9609 C476.25,84.9609 494.25,84.9609 494.25,74.9609 " fill="none" style="stroke:#181818;stroke-width:1.5;"/><text fill="#000000" font-family="sans-serif" font-size="14" lengthAdjust="spacing" textLength="61" x="442.75" y="317.8613">Database</text><path d="M458.25,330.9375 C458.25,320.9375 476.25,320.9375 476.25,320.9375 C476.25,320.9375 494.25,320.9375 494.25,330.9375 L494.25,356.9375 C494.25,366.9375 476.25,366.9375 476.25,366.9375 C476.25,366.9375 458.25,366.9375 458.25,356.9375 L458.25,330.9375 " fill="#E2E2F0" style="stroke:#181818;stroke-width:1.5;"/><path d="M458.25,330.9375 C458.25,340.9375 476.25,340.9375 476.25,340.9375 C476.25,340.9375 494.25,340.9375 494.25,330.9375 " fill="none" style="stroke:#181818;stroke-width:1.5;"/><polygon fill="#181818" points="212.25,156.9219,222.25,160.9219,212.25,164.9219,216.25,160.9219" style="stroke:#181818;stroke-width:1.0;"/><line style="stroke:#181818;stroke-width:1.0;" x1="121.75" x2="218.25" y1="160.9219" y2="160.9219"/><text fill="#000000" font-family="sans-serif" font-size="13" lengthAdjust="spacing" textLength="40" x="128.75" y="156.0654">Sign In</text><path d="M154.25,175.9219 L244.25,175.9219 L244.25,184.2734 L234.25,194.2734 L154.25,194.2734 L154.25,175.9219 " fill="#EEEEEE" style="stroke:#000000;stroke-width:1.5;"/><rect fill="none" height="111.4063" style="stroke:#000000;stroke-width:1.5;" width="375.5" x="154.25" y="175.9219"/><text fill="#000000" font-family="sans-serif" font-size="13" font-weight="bold" lengthAdjust="spacing" textLength="45" x="169.25" y="190.417">Sign In</text><polygon fill="#181818" points="336.25,212.625,346.25,216.625,336.25,220.625,340.25,216.625" style="stroke:#181818;stroke-width:1.0;"/><line style="stroke:#181818;stroke-width:1.0;" x1="224.25" x2="342.25" y1="216.625" y2="216.625"/><text fill="#000000" font-family="sans-serif" font-size="13" lengthAdjust="spacing" textLength="40" x="231.25" y="211.7686">Sign In</text><path d="M284.25,231.625 L374.25,231.625 L374.25,239.9766 L364.25,249.9766 L284.25,249.9766 L284.25,231.625 " fill="#EEEEEE" style="stroke:#000000;stroke-width:1.5;"/><rect fill="none" height="48.7031" style="stroke:#000000;stroke-width:1.5;" width="235.5" x="284.25" y="231.625"/><text fill="#000000" font-family="sans-serif" font-size="13" font-weight="bold" lengthAdjust="spacing" textLength="45" x="299.25" y="246.1201">Sign In</text><polygon fill="#181818" points="464.25,268.3281,474.25,272.3281,464.25,276.3281,468.25,272.3281" style="stroke:#181818;stroke-width:1.0;"/><line style="stroke:#181818;stroke-width:1.0;" x1="348.25" x2="470.25" y1="272.3281" y2="272.3281"/><text fill="#000000" font-family="sans-serif" font-size="13" lengthAdjust="spacing" textLength="104" x="355.25" y="267.4717">Authenticate User</text><!--SRC=[hPB1JiCm38RlVWghdDiJ9mv8tG1fjqeLuknrfel8d9AuRBmzIRSErbtGjaXH72lw_jzsrAXbd9bsHl9HsGPpN8Yo5rPCAIDjJDNni9nNr3AMNJTaMealKyIVFKl3CPmxKJB27Yr_iGNeoAjfJ4UYc3tl4fTiXXHmVZ_8l5YtBMhthbloN7y7vKqeneVxEy3IxJ2Rkihmxcrjb07ZEj6Pc1taVWiyKnl11svnB28KUr82HSwvK5ajae0r3QbnSeLG9Fq13KehKbfIOCoU3j4L_141B2kCxGI0_my0yyTRz0yVnay3hNTzTxpTWdsnnTFEtzZZ17wnoN5yqLxPwvf54vBnDR1F8nqs_000]--></g></svg>