<?xml version="1.0" encoding="us-ascii" standalone="no"?><svg xmlns="http://www.w3.org/2000/svg" xmlns:xlink="http://www.w3.org/1999/xlink" contentStyleType="text/css" height="383px" preserveAspectRatio="none" style="width:822px;height:383px;background:#FFFFFF;" version="1.1" viewBox="0 0 822 383" width="822px" zoomAndPan="magnify"><defs/><g><text fill="#000000" font-family="sans-serif" font-size="14" font-weight="bold" lengthAdjust="spacing" textLength="794" x="10" y="29.5332">E Commerce Platform - Generate Demand - Storefront - Storefront Bff - Get Products - Sequence - Container level</text><rect fill="#FFFFFF" height="326.3281" style="stroke:#181818;stroke-width:0.5;" width="175.5" x="416" y="44.6094"/><text fill="#000000" font-family="sans-serif" font-size="13" font-weight="bold" lengthAdjust="spacing" textLength="101" x="453.25" y="58.1045">Product Service</text><rect fill="none" height="111.4063" style="stroke:#000000;stroke-width:1.5;" width="330.5" x="277" y="175.9219"/><rect fill="none" height="48.7031" style="stroke:#000000;stroke-width:1.5;" width="187.5" x="410" y="231.625"/><line style="stroke:#181818;stroke-width:0.5;stroke-dasharray:5.0,5.0;" x1="234.5" x2="234.5" y1="128.5703" y2="304.3281"/><line style="stroke:#181818;stroke-width:0.5;stroke-dasharray:5.0,5.0;" x1="336" x2="336" y1="128.5703" y2="304.3281"/><line style="stroke:#181818;stroke-width:0.5;stroke-dasharray:5.0,5.0;" x1="437" x2="437" y1="128.5703" y2="304.3281"/><line style="stroke:#181818;stroke-width:0.5;stroke-dasharray:5.0,5.0;" x1="553.5" x2="553.5" y1="128.5703" y2="304.3281"/><rect fill="#E2E2F0" height="31.6094" rx="2.5" ry="2.5" style="stroke:#181818;stroke-width:0.5;" width="65" x="202.5" y="95.9609"/><text fill="#000000" font-family="sans-serif" font-size="14" lengthAdjust="spacing" textLength="51" x="209.5" y="117.4941">External</text><rect fill="#E2E2F0" height="31.6094" rx="2.5" ry="2.5" style="stroke:#181818;stroke-width:0.5;" width="65" x="202.5" y="303.3281"/><text fill="#000000" font-family="sans-serif" font-size="14" lengthAdjust="spacing" textLength="51" x="209.5" y="324.8613">External</text><rect fill="#E2E2F0" height="31.6094" rx="2.5" ry="2.5" style="stroke:#181818;stroke-width:0.5;" width="98" x="287" y="95.9609"/><text fill="#000000" font-family="sans-serif" font-size="14" lengthAdjust="spacing" textLength="84" x="294" y="117.4941">Storefront Bff</text><rect fill="#E2E2F0" height="31.6094" rx="2.5" ry="2.5" style="stroke:#181818;stroke-width:0.5;" width="98" x="287" y="303.3281"/><text fill="#000000" font-family="sans-serif" font-size="14" lengthAdjust="spacing" textLength="84" x="294" y="324.8613">Storefront Bff</text><rect fill="#E2E2F0" height="31.6094" rx="2.5" ry="2.5" style="stroke:#181818;stroke-width:0.5;" width="34" x="420" y="95.9609"/><text fill="#000000" font-family="sans-serif" font-size="14" lengthAdjust="spacing" textLength="20" x="427" y="117.4941">Api</text><rect fill="#E2E2F0" height="31.6094" rx="2.5" ry="2.5" style="stroke:#181818;stroke-width:0.5;" width="34" x="420" y="303.3281"/><text fill="#000000" font-family="sans-serif" font-size="14" lengthAdjust="spacing" textLength="20" x="427" y="324.8613">Api</text><text fill="#000000" font-family="sans-serif" font-size="14" lengthAdjust="spacing" textLength="61" x="520.5" y="125.4941">Database</text><path d="M536,74.9609 C536,64.9609 554,64.9609 554,64.9609 C554,64.9609 572,64.9609 572,74.9609 L572,100.9609 C572,110.9609 554,110.9609 554,110.9609 C554,110.9609 536,110.9609 536,100.9609 L536,74.9609 " fill="#E2E2F0" style="stroke:#181818;stroke-width:1.5;"/><path d="M536,74.9609 C536,84.9609 554,84.9609 554,84.9609 C554,84.9609 572,84.9609 572,74.9609 " fill="none" style="stroke:#181818;stroke-width:1.5;"/><text fill="#000000" font-family="sans-serif" font-size="14" lengthAdjust="spacing" textLength="61" x="520.5" y="317.8613">Database</text><path d="M536,330.9375 C536,320.9375 554,320.9375 554,320.9375 C554,320.9375 572,320.9375 572,330.9375 L572,356.9375 C572,366.9375 554,366.9375 554,366.9375 C554,366.9375 536,366.9375 536,356.9375 L536,330.9375 " fill="#E2E2F0" style="stroke:#181818;stroke-width:1.5;"/><path d="M536,330.9375 C536,340.9375 554,340.9375 554,340.9375 C554,340.9375 572,340.9375 572,330.9375 " fill="none" style="stroke:#181818;stroke-width:1.5;"/><polygon fill="#181818" points="324,156.9219,334,160.9219,324,164.9219,328,160.9219" style="stroke:#181818;stroke-width:1.0;"/><line style="stroke:#181818;stroke-width:1.0;" x1="235" x2="330" y1="160.9219" y2="160.9219"/><text fill="#000000" font-family="sans-serif" font-size="13" lengthAdjust="spacing" textLength="77" x="242" y="156.0654">Get Products</text><path d="M277,175.9219 L403,175.9219 L403,184.2734 L393,194.2734 L277,194.2734 L277,175.9219 " fill="#EEEEEE" style="stroke:#000000;stroke-width:1.5;"/><rect fill="none" height="111.4063" style="stroke:#000000;stroke-width:1.5;" width="330.5" x="277" y="175.9219"/><text fill="#000000" font-family="sans-serif" font-size="13" font-weight="bold" lengthAdjust="spacing" textLength="81" x="292" y="190.417">Get Products</text><polygon fill="#181818" points="425,212.625,435,216.625,425,220.625,429,216.625" style="stroke:#181818;stroke-width:1.0;"/><line style="stroke:#181818;stroke-width:1.0;" x1="336" x2="431" y1="216.625" y2="216.625"/><text fill="#000000" font-family="sans-serif" font-size="13" lengthAdjust="spacing" textLength="77" x="343" y="211.7686">Get Products</text><path d="M410,231.625 L536,231.625 L536,239.9766 L526,249.9766 L410,249.9766 L410,231.625 " fill="#EEEEEE" style="stroke:#000000;stroke-width:1.5;"/><rect fill="none" height="48.7031" style="stroke:#000000;stroke-width:1.5;" width="187.5" x="410" y="231.625"/><text fill="#000000" font-family="sans-serif" font-size="13" font-weight="bold" lengthAdjust="spacing" textLength="81" x="425" y="246.1201">Get Products</text><polygon fill="#181818" points="542,268.3281,552,272.3281,542,276.3281,546,272.3281" style="stroke:#181818;stroke-width:1.0;"/><line style="stroke:#181818;stroke-width:1.0;" x1="437" x2="548" y1="272.3281" y2="272.3281"/><text fill="#000000" font-family="sans-serif" font-size="13" lengthAdjust="spacing" textLength="93" x="444" y="267.4717">Select Products</text><!--SRC=[lLBDJiCm3BxdAQnoRawSE211Lz0EI9DwuEnrxeYK9YLnj_7sU5t3g1WIGjiYLQbZv_k9pOOjGGc5RriADS728ZS-j933CpaAo0GpQj6jvAHY7wW9tl4qU6oQePvX4Voghpdky_JUanF8ND0Ten4qiBGXgrI7WKrjEfJBMRbZ2Wvj1XYXk9qx2P-it-hADxp5GDL7P6gZJeM7U0eoLJD0bSbKygIJeuCXVRppW-gO4ZIbbdu7sUXDZ8MDgIc3czStmwH0raJBGsT-4L044leHI8_xtErpoCQx5tIuffPEA1gBHtBzzQHH2zsWOOMCIum4sMpykwQAnAb8HaNUIodrzrv2Vd- -Ti7TP1JLElY-cnwTZ-kay4kr-L_EBYRcUjRJR8d_YYpLt_pAj0sV-WG0]--></g></svg>