<?xml version="1.0" encoding="us-ascii" standalone="no"?><svg xmlns="http://www.w3.org/2000/svg" xmlns:xlink="http://www.w3.org/1999/xlink" contentStyleType="text/css" height="400px" preserveAspectRatio="none" style="width:660px;height:400px;background:#FFFFFF;" version="1.1" viewBox="0 0 660 400" width="660px" zoomAndPan="magnify"><defs/><g><text fill="#000000" font-family="sans-serif" font-size="14" font-weight="bold" lengthAdjust="spacing" textLength="632" x="10" y="29.5332">Trader X Example - TraderX - Trading Services - Cancel Trade - Sequence - Container level</text><rect fill="#FFFFFF" height="343.0313" style="stroke:#181818;stroke-width:0.5;" width="356.5" x="178.25" y="44.6094"/><text fill="#000000" font-family="sans-serif" font-size="13" font-weight="bold" lengthAdjust="spacing" textLength="51" x="331" y="58.1045">TraderX</text><rect fill="none" height="111.7578" style="stroke:#000000;stroke-width:1.5;" width="368.5" x="172.25" y="192.2734"/><line style="stroke:#181818;stroke-width:0.5;stroke-dasharray:5.0,5.0;" x1="139.25" x2="139.25" y1="128.5703" y2="321.0313"/><line style="stroke:#181818;stroke-width:0.5;stroke-dasharray:5.0,5.0;" x1="242.25" x2="242.25" y1="128.5703" y2="321.0313"/><line style="stroke:#181818;stroke-width:0.5;stroke-dasharray:5.0,5.0;" x1="385.75" x2="385.75" y1="128.5703" y2="321.0313"/><line style="stroke:#181818;stroke-width:0.5;stroke-dasharray:5.0,5.0;" x1="482.75" x2="482.75" y1="128.5703" y2="321.0313"/><rect fill="#E2E2F0" height="31.6094" rx="2.5" ry="2.5" style="stroke:#181818;stroke-width:0.5;" width="65" x="107.25" y="95.9609"/><text fill="#000000" font-family="sans-serif" font-size="14" lengthAdjust="spacing" textLength="51" x="114.25" y="117.4941">External</text><rect fill="#E2E2F0" height="31.6094" rx="2.5" ry="2.5" style="stroke:#181818;stroke-width:0.5;" width="65" x="107.25" y="320.0313"/><text fill="#000000" font-family="sans-serif" font-size="14" lengthAdjust="spacing" textLength="51" x="114.25" y="341.5645">External</text><rect fill="#E2E2F0" height="31.6094" rx="2.5" ry="2.5" style="stroke:#181818;stroke-width:0.5;" width="121" x="182.25" y="95.9609"/><text fill="#000000" font-family="sans-serif" font-size="14" lengthAdjust="spacing" textLength="107" x="189.25" y="117.4941">Trading Services</text><rect fill="#E2E2F0" height="31.6094" rx="2.5" ry="2.5" style="stroke:#181818;stroke-width:0.5;" width="121" x="182.25" y="320.0313"/><text fill="#000000" font-family="sans-serif" font-size="14" lengthAdjust="spacing" textLength="107" x="189.25" y="341.5645">Trading Services</text><text fill="#000000" font-family="sans-serif" font-size="14" lengthAdjust="spacing" textLength="74" x="345.75" y="125.4941">TraderX DB</text><path d="M367.75,74.9609 C367.75,64.9609 385.75,64.9609 385.75,64.9609 C385.75,64.9609 403.75,64.9609 403.75,74.9609 L403.75,100.9609 C403.75,110.9609 385.75,110.9609 385.75,110.9609 C385.75,110.9609 367.75,110.9609 367.75,100.9609 L367.75,74.9609 " fill="#E2E2F0" style="stroke:#181818;stroke-width:1.5;"/><path d="M367.75,74.9609 C367.75,84.9609 385.75,84.9609 385.75,84.9609 C385.75,84.9609 403.75,84.9609 403.75,74.9609 " fill="none" style="stroke:#181818;stroke-width:1.5;"/><text fill="#000000" font-family="sans-serif" font-size="14" lengthAdjust="spacing" textLength="74" x="345.75" y="334.5645">TraderX DB</text><path d="M367.75,347.6406 C367.75,337.6406 385.75,337.6406 385.75,337.6406 C385.75,337.6406 403.75,337.6406 403.75,347.6406 L403.75,373.6406 C403.75,383.6406 385.75,383.6406 385.75,383.6406 C385.75,383.6406 367.75,383.6406 367.75,373.6406 L367.75,347.6406 " fill="#E2E2F0" style="stroke:#181818;stroke-width:1.5;"/><path d="M367.75,347.6406 C367.75,357.6406 385.75,357.6406 385.75,357.6406 C385.75,357.6406 403.75,357.6406 403.75,347.6406 " fill="none" style="stroke:#181818;stroke-width:1.5;"/><path d="M440.75,100.9609 L525.75,100.9609 C530.75,100.9609 530.75,114.7656 530.75,114.7656 C530.75,114.7656 530.75,128.5703 525.75,128.5703 L440.75,128.5703 C435.75,128.5703 435.75,114.7656 435.75,114.7656 C435.75,114.7656 435.75,100.9609 440.75,100.9609 " fill="#E2E2F0" style="stroke:#181818;stroke-width:0.5;"/><path d="M525.75,100.9609 C520.75,100.9609 520.75,114.7656 520.75,114.7656 C520.75,128.5703 525.75,128.5703 525.75,128.5703 " fill="none" style="stroke:#181818;stroke-width:0.5;"/><text fill="#000000" font-family="sans-serif" font-size="14" lengthAdjust="spacing" textLength="75" x="440.75" y="120.4941">Trade Feed</text><path d="M440.75,320.0313 L525.75,320.0313 C530.75,320.0313 530.75,333.8359 530.75,333.8359 C530.75,333.8359 530.75,347.6406 525.75,347.6406 L440.75,347.6406 C435.75,347.6406 435.75,333.8359 435.75,333.8359 C435.75,333.8359 435.75,320.0313 440.75,320.0313 " fill="#E2E2F0" style="stroke:#181818;stroke-width:0.5;"/><path d="M525.75,320.0313 C520.75,320.0313 520.75,333.8359 520.75,333.8359 C520.75,347.6406 525.75,347.6406 525.75,347.6406 " fill="none" style="stroke:#181818;stroke-width:0.5;"/><text fill="#000000" font-family="sans-serif" font-size="14" lengthAdjust="spacing" textLength="75" x="440.75" y="339.5645">Trade Feed</text><polygon fill="#181818" points="230.75,173.2734,240.75,177.2734,230.75,181.2734,234.75,177.2734" style="stroke:#181818;stroke-width:1.0;"/><line style="stroke:#181818;stroke-width:1.0;" x1="139.75" x2="236.75" y1="177.2734" y2="177.2734"/><text fill="#000000" font-family="sans-serif" font-size="13" lengthAdjust="spacing" textLength="76" x="146.75" y="156.0654">Cancel Trade</text><text fill="#000000" font-family="sans-serif" font-size="13" lengthAdjust="spacing" textLength="49" x="146.75" y="172.417">[HTTPS]</text><path d="M172.25,192.2734 L302.25,192.2734 L302.25,200.625 L292.25,210.625 L172.25,210.625 L172.25,192.2734 " fill="#EEEEEE" style="stroke:#000000;stroke-width:1.5;"/><rect fill="none" height="111.7578" style="stroke:#000000;stroke-width:1.5;" width="368.5" x="172.25" y="192.2734"/><text fill="#000000" font-family="sans-serif" font-size="13" font-weight="bold" lengthAdjust="spacing" textLength="85" x="187.25" y="206.7686">Cancel Trade</text><polygon fill="#181818" points="373.75,245.3281,383.75,249.3281,373.75,253.3281,377.75,249.3281" style="stroke:#181818;stroke-width:1.0;"/><line style="stroke:#181818;stroke-width:1.0;" x1="242.75" x2="379.75" y1="249.3281" y2="249.3281"/><text fill="#000000" font-family="sans-serif" font-size="13" lengthAdjust="spacing" textLength="119" x="249.75" y="228.1201">Update Trade Status</text><text fill="#000000" font-family="sans-serif" font-size="13" lengthAdjust="spacing" textLength="41" x="249.75" y="244.4717">[JDBC]</text><polygon fill="#181818" points="471.25,292.0313,481.25,296.0313,471.25,300.0313,475.25,296.0313" style="stroke:#181818;stroke-width:1.0;"/><line style="stroke:#181818;stroke-width:1.0;" x1="242.75" x2="477.25" y1="296.0313" y2="296.0313"/><text fill="#000000" font-family="sans-serif" font-size="13" lengthAdjust="spacing" textLength="143" x="249.75" y="274.8232">Send Updates To Trades</text><text fill="#000000" font-family="sans-serif" font-size="13" lengthAdjust="spacing" textLength="62" x="249.75" y="291.1748">[SocketIO]</text><!--SRC=[nPAnJiD038PtFuKLvdPYOc18segoW7H5L88ERcBAYVGkN9osl3rESgrKM50pa2d-VVVxEzjYfMHS12euu1Ad1zfMAeoYj8n_rctGSDZPd6kLCd8vb_qP3Gr_DgnAc_5Eo3erAtd79K15GMnkAtA2oVGW71oL2LADsVNSQJWh_Nvi_9liAR3vgeMtzVXui8y1rlw0IKHAyEhvtGe3wdTc_vEqAnDlnPVzgXJJunDuBwdDqQMhKv3Gcce-KU0a7M2lqYJjZBLppT4LPyp54DVsFh0hKFi507_lC8vkXpSARyuMuzMzt2qMZsO5c-2RwYm7mujTJDprNbcVAXrgt7qqGjBKYdm_IRFLl-ArGrGyqywnPzHzyBrRIsXy_i4oVrYramRu1W00]--></g></svg>