<?xml version="1.0" encoding="us-ascii" standalone="no"?><svg xmlns="http://www.w3.org/2000/svg" xmlns:xlink="http://www.w3.org/1999/xlink" contentStyleType="text/css" height="219.375px" preserveAspectRatio="none" style="width:333px;height:219px;background:#FFFFFF;" version="1.1" viewBox="0 0 333 219" width="333.75px" zoomAndPan="magnify"><defs/><g><text fill="#000000" font-family="sans-serif" font-size="8.75" font-weight="bold" lengthAdjust="spacing" textLength="316.25" x="6.25" y="18.4583">Internet Banking - API Application - Change Password - CONTAINER level</text><rect fill="#FFFFFF" height="183.7354" style="stroke:#181818;stroke-width:0.3125;" width="157.8125" x="70.9375" y="27.8809"/><text fill="#000000" font-family="sans-serif" font-size="8.125" font-weight="bold" lengthAdjust="spacing" textLength="65.625" x="117.0313" y="36.3153">Internet Banking</text><rect fill="none" height="49.4092" style="stroke:#000000;stroke-width:0.9375;" width="252.8125" x="67.1875" y="109.9512"/><line style="stroke:#181818;stroke-width:0.3125;stroke-dasharray:5.0,5.0;" x1="26.25" x2="26.25" y1="80.3564" y2="169.9854"/><line style="stroke:#181818;stroke-width:0.3125;stroke-dasharray:5.0,5.0;" x1="107.1875" x2="107.1875" y1="80.3564" y2="169.9854"/><line style="stroke:#181818;stroke-width:0.3125;stroke-dasharray:5.0,5.0;" x1="205" x2="205" y1="80.3564" y2="169.9854"/><line style="stroke:#181818;stroke-width:0.3125;stroke-dasharray:5.0,5.0;" x1="281.25" x2="281.25" y1="80.3564" y2="169.9854"/><rect fill="#E2E2F0" height="19.7559" rx="1.5625" ry="1.5625" style="stroke:#181818;stroke-width:0.3125;" width="40.625" x="6.25" y="59.9756"/><text fill="#000000" font-family="sans-serif" font-size="8.75" lengthAdjust="spacing" textLength="31.875" x="10.625" y="73.4338">External</text><rect fill="#E2E2F0" height="19.7559" rx="1.5625" ry="1.5625" style="stroke:#181818;stroke-width:0.3125;" width="40.625" x="6.25" y="169.3604"/><text fill="#000000" font-family="sans-serif" font-size="8.75" lengthAdjust="spacing" textLength="31.875" x="10.625" y="182.8186">External</text><rect fill="#E2E2F0" height="19.7559" rx="1.5625" ry="1.5625" style="stroke:#181818;stroke-width:0.3125;" width="67.5" x="73.4375" y="59.9756"/><text fill="#000000" font-family="sans-serif" font-size="8.75" lengthAdjust="spacing" textLength="58.75" x="77.8125" y="73.4338">API Application</text><rect fill="#E2E2F0" height="19.7559" rx="1.5625" ry="1.5625" style="stroke:#181818;stroke-width:0.3125;" width="67.5" x="73.4375" y="169.3604"/><text fill="#000000" font-family="sans-serif" font-size="8.75" lengthAdjust="spacing" textLength="58.75" x="77.8125" y="182.8186">API Application</text><text fill="#000000" font-family="sans-serif" font-size="8.75" lengthAdjust="spacing" textLength="38.125" x="184.375" y="78.4338">Database</text><path d="M194.0625,46.8506 C194.0625,40.6006 205.3125,40.6006 205.3125,40.6006 C205.3125,40.6006 216.5625,40.6006 216.5625,46.8506 L216.5625,63.1006 C216.5625,69.3506 205.3125,69.3506 205.3125,69.3506 C205.3125,69.3506 194.0625,69.3506 194.0625,63.1006 L194.0625,46.8506 " fill="#E2E2F0" style="stroke:#181818;stroke-width:0.9375;"/><path d="M194.0625,46.8506 C194.0625,53.1006 205.3125,53.1006 205.3125,53.1006 C205.3125,53.1006 216.5625,53.1006 216.5625,46.8506 " fill="none" style="stroke:#181818;stroke-width:0.9375;"/><text fill="#000000" font-family="sans-serif" font-size="8.75" lengthAdjust="spacing" textLength="38.125" x="184.375" y="178.4436">Database</text><path d="M194.0625,186.6162 C194.0625,180.3662 205.3125,180.3662 205.3125,180.3662 C205.3125,180.3662 216.5625,180.3662 216.5625,186.6162 L216.5625,202.8662 C216.5625,209.1162 205.3125,209.1162 205.3125,209.1162 C205.3125,209.1162 194.0625,209.1162 194.0625,202.8662 L194.0625,186.6162 " fill="#E2E2F0" style="stroke:#181818;stroke-width:0.9375;"/><path d="M194.0625,186.6162 C194.0625,192.8662 205.3125,192.8662 205.3125,192.8662 C205.3125,192.8662 216.5625,192.8662 216.5625,186.6162 " fill="none" style="stroke:#181818;stroke-width:0.9375;"/><rect fill="#E2E2F0" height="19.7559" rx="1.5625" ry="1.5625" style="stroke:#181818;stroke-width:0.3125;" width="64.375" x="249.375" y="59.9756"/><text fill="#000000" font-family="sans-serif" font-size="8.75" lengthAdjust="spacing" textLength="55.625" x="253.75" y="73.4338">E-Mail System</text><rect fill="#E2E2F0" height="19.7559" rx="1.5625" ry="1.5625" style="stroke:#181818;stroke-width:0.3125;" width="64.375" x="249.375" y="169.3604"/><text fill="#000000" font-family="sans-serif" font-size="8.75" lengthAdjust="spacing" textLength="55.625" x="253.75" y="182.8186">E-Mail System</text><polygon fill="#181818" points="99.6875,98.0762,105.9375,100.5762,99.6875,103.0762,102.1875,100.5762" style="stroke:#181818;stroke-width:0.625;"/><line style="stroke:#181818;stroke-width:0.625;" x1="26.5625" x2="103.4375" y1="100.5762" y2="100.5762"/><text fill="#000000" font-family="sans-serif" font-size="8.125" lengthAdjust="spacing" textLength="65.625" x="30.9375" y="97.5409">Change Password</text><path d="M67.1875,109.9512 L166.5625,109.9512 L166.5625,115.1709 L160.3125,121.4209 L67.1875,121.4209 L67.1875,109.9512 " fill="#EEEEEE" style="stroke:#000000;stroke-width:0.9375;"/><rect fill="none" height="49.4092" style="stroke:#000000;stroke-width:0.9375;" width="252.8125" x="67.1875" y="109.9512"/><text fill="#000000" font-family="sans-serif" font-size="8.125" font-weight="bold" lengthAdjust="spacing" textLength="71.25" x="76.5625" y="119.0106">Change Password</text><polygon fill="#181818" points="197.8125,132.8906,204.0625,135.3906,197.8125,137.8906,200.3125,135.3906" style="stroke:#181818;stroke-width:0.625;"/><line style="stroke:#181818;stroke-width:0.625;" x1="107.1875" x2="201.5625" y1="135.3906" y2="135.3906"/><text fill="#000000" font-family="sans-serif" font-size="8.125" lengthAdjust="spacing" textLength="83.125" x="111.5625" y="132.3553">Update User Password</text><polygon fill="#181818" points="274.0625,151.8604,280.3125,154.3604,274.0625,156.8604,276.5625,154.3604" style="stroke:#181818;stroke-width:0.625;"/><line style="stroke:#181818;stroke-width:0.625;" x1="107.1875" x2="277.8125" y1="154.3604" y2="154.3604"/><text fill="#000000" font-family="sans-serif" font-size="8.125" lengthAdjust="spacing" textLength="159.375" x="111.5625" y="151.3251">Send Password Changed Notification E-Mail</text><!--SRC=[lPCnJyCm48Lt_ueZp8qO40C3KXgAb84G4IhcQtDDBHpRig-a_VSuJODAEe2W8bDoEd_lvTtvmZgi6mI5ExDXy0qnQXJ-JMgB3Xkeh8IRAo5OiYB8D9FJn3157Lfgc41IP91Og-GIMHeTAkaQTKrGeFUjSLLNUSfVaYoVFOEYTr9213RBfRIe6QBPjeEYYW0zfDTxZGTbshWqAsxHKRdpJ8sFXyR-MuY5sK8qjXJ1vUjQCWa8pnUTaTEzt5JMtRb2BK_K1l216wT6CqfDpiU1T0JQArN8k41F4DqVtlx07n22T0NXByU1JHvHAkX1tydCkjuXiP-d2vExiuG3j-Dz4BKp6tjIFOlOhqqFYGUxSnjcIJ3tvFxLtT6WWeko6_td5Uh3gY0tB5S3hb-3RaU4-000]--></g></svg>