<?xml version="1.0" encoding="us-ascii" standalone="no"?><svg xmlns="http://www.w3.org/2000/svg" xmlns:xlink="http://www.w3.org/1999/xlink" contentStyleType="text/css" height="383px" preserveAspectRatio="none" style="width:616px;height:383px;background:#FFFFFF;" version="1.1" viewBox="0 0 616 383" width="616px" zoomAndPan="magnify"><defs/><g><text fill="#000000" font-family="sans-serif" font-size="14" font-weight="bold" lengthAdjust="spacing" textLength="588" x="10" y="29.5332">To Do App Example - To Do App - Web App - View Tasks - Sequence - Container level</text><rect fill="#FFFFFF" height="326.3281" style="stroke:#181818;stroke-width:0.5;" width="261.5" x="205" y="44.6094"/><text fill="#000000" font-family="sans-serif" font-size="13" font-weight="bold" lengthAdjust="spacing" textLength="66" x="302.75" y="58.1045">To Do App</text><rect fill="none" height="111.4063" style="stroke:#000000;stroke-width:1.5;" width="283.5" x="199" y="175.9219"/><rect fill="none" height="48.7031" style="stroke:#000000;stroke-width:1.5;" width="187" x="285.5" y="231.625"/><line style="stroke:#181818;stroke-width:0.5;stroke-dasharray:5.0,5.0;" x1="153.5" x2="153.5" y1="128.5703" y2="304.3281"/><line style="stroke:#181818;stroke-width:0.5;stroke-dasharray:5.0,5.0;" x1="245" x2="245" y1="128.5703" y2="304.3281"/><line style="stroke:#181818;stroke-width:0.5;stroke-dasharray:5.0,5.0;" x1="328.5" x2="328.5" y1="128.5703" y2="304.3281"/><line style="stroke:#181818;stroke-width:0.5;stroke-dasharray:5.0,5.0;" x1="428.5" x2="428.5" y1="128.5703" y2="304.3281"/><rect fill="#E2E2F0" height="31.6094" rx="2.5" ry="2.5" style="stroke:#181818;stroke-width:0.5;" width="65" x="121.5" y="95.9609"/><text fill="#000000" font-family="sans-serif" font-size="14" lengthAdjust="spacing" textLength="51" x="128.5" y="117.4941">External</text><rect fill="#E2E2F0" height="31.6094" rx="2.5" ry="2.5" style="stroke:#181818;stroke-width:0.5;" width="65" x="121.5" y="303.3281"/><text fill="#000000" font-family="sans-serif" font-size="14" lengthAdjust="spacing" textLength="51" x="128.5" y="324.8613">External</text><rect fill="#E2E2F0" height="31.6094" rx="2.5" ry="2.5" style="stroke:#181818;stroke-width:0.5;" width="72" x="209" y="95.9609"/><text fill="#000000" font-family="sans-serif" font-size="14" lengthAdjust="spacing" textLength="58" x="216" y="117.4941">Web App</text><rect fill="#E2E2F0" height="31.6094" rx="2.5" ry="2.5" style="stroke:#181818;stroke-width:0.5;" width="72" x="209" y="303.3281"/><text fill="#000000" font-family="sans-serif" font-size="14" lengthAdjust="spacing" textLength="58" x="216" y="324.8613">Web App</text><rect fill="#E2E2F0" height="31.6094" rx="2.5" ry="2.5" style="stroke:#181818;stroke-width:0.5;" width="67" x="295.5" y="95.9609"/><text fill="#000000" font-family="sans-serif" font-size="14" lengthAdjust="spacing" textLength="53" x="302.5" y="117.4941">Web Api</text><rect fill="#E2E2F0" height="31.6094" rx="2.5" ry="2.5" style="stroke:#181818;stroke-width:0.5;" width="67" x="295.5" y="303.3281"/><text fill="#000000" font-family="sans-serif" font-size="14" lengthAdjust="spacing" textLength="53" x="302.5" y="324.8613">Web Api</text><text fill="#000000" font-family="sans-serif" font-size="14" lengthAdjust="spacing" textLength="61" x="395.5" y="125.4941">Database</text><path d="M411,74.9609 C411,64.9609 429,64.9609 429,64.9609 C429,64.9609 447,64.9609 447,74.9609 L447,100.9609 C447,110.9609 429,110.9609 429,110.9609 C429,110.9609 411,110.9609 411,100.9609 L411,74.9609 " fill="#E2E2F0" style="stroke:#181818;stroke-width:1.5;"/><path d="M411,74.9609 C411,84.9609 429,84.9609 429,84.9609 C429,84.9609 447,84.9609 447,74.9609 " fill="none" style="stroke:#181818;stroke-width:1.5;"/><text fill="#000000" font-family="sans-serif" font-size="14" lengthAdjust="spacing" textLength="61" x="395.5" y="317.8613">Database</text><path d="M411,330.9375 C411,320.9375 429,320.9375 429,320.9375 C429,320.9375 447,320.9375 447,330.9375 L447,356.9375 C447,366.9375 429,366.9375 429,366.9375 C429,366.9375 411,366.9375 411,356.9375 L411,330.9375 " fill="#E2E2F0" style="stroke:#181818;stroke-width:1.5;"/><path d="M411,330.9375 C411,340.9375 429,340.9375 429,340.9375 C429,340.9375 447,340.9375 447,330.9375 " fill="none" style="stroke:#181818;stroke-width:1.5;"/><polygon fill="#181818" points="233,156.9219,243,160.9219,233,164.9219,237,160.9219" style="stroke:#181818;stroke-width:1.0;"/><line style="stroke:#181818;stroke-width:1.0;" x1="154" x2="239" y1="160.9219" y2="160.9219"/><text fill="#000000" font-family="sans-serif" font-size="13" lengthAdjust="spacing" textLength="67" x="161" y="156.0654">View Tasks</text><path d="M199,175.9219 L315,175.9219 L315,184.2734 L305,194.2734 L199,194.2734 L199,175.9219 " fill="#EEEEEE" style="stroke:#000000;stroke-width:1.5;"/><rect fill="none" height="111.4063" style="stroke:#000000;stroke-width:1.5;" width="283.5" x="199" y="175.9219"/><text fill="#000000" font-family="sans-serif" font-size="13" font-weight="bold" lengthAdjust="spacing" textLength="71" x="214" y="190.417">View Tasks</text><polygon fill="#181818" points="317,212.625,327,216.625,317,220.625,321,216.625" style="stroke:#181818;stroke-width:1.0;"/><line style="stroke:#181818;stroke-width:1.0;" x1="245" x2="323" y1="216.625" y2="216.625"/><text fill="#000000" font-family="sans-serif" font-size="13" lengthAdjust="spacing" textLength="60" x="252" y="211.7686">Get Tasks</text><path d="M285.5,231.625 L391.5,231.625 L391.5,239.9766 L381.5,249.9766 L285.5,249.9766 L285.5,231.625 " fill="#EEEEEE" style="stroke:#000000;stroke-width:1.5;"/><rect fill="none" height="48.7031" style="stroke:#000000;stroke-width:1.5;" width="187" x="285.5" y="231.625"/><text fill="#000000" font-family="sans-serif" font-size="13" font-weight="bold" lengthAdjust="spacing" textLength="61" x="300.5" y="246.1201">Get Tasks</text><polygon fill="#181818" points="417,268.3281,427,272.3281,417,276.3281,421,272.3281" style="stroke:#181818;stroke-width:1.0;"/><line style="stroke:#181818;stroke-width:1.0;" x1="329" x2="423" y1="272.3281" y2="272.3281"/><text fill="#000000" font-family="sans-serif" font-size="13" lengthAdjust="spacing" textLength="76" x="336" y="267.4717">Select Tasks</text><!--SRC=[fP71JiCm38RlVWghdDiJ9mv8Q1s8SojsTZi34LaI6e-MjyUKT7H2I2X4YcGxzkyljXYnZAt7skDD2BYTw10qKgvY9UwuIzQ3uH5RYYzHdOPVZ-pwp-oDTqB6yO2MtzW211h4z2QG4oosa_3Wo1P84JUNzqxTM-l7gl6FCjB0pNiKFiHgIVpo0Je_ON4YAV1Yzso40VMSDKY0itxhQwzs-icF5kcvEX77Igiryfkg-O-gcLNt9DHHP2pgP6LgBkN0Reyw703u-pYnlCuU3bwjLWzFWp-6TI1RDX_9AD8TondHjvyjcWMqh4MH6hRSBnIwfVd21m00]--></g></svg>