<?xml version="1.0" encoding="us-ascii" standalone="no"?><svg xmlns="http://www.w3.org/2000/svg" xmlns:xlink="http://www.w3.org/1999/xlink" contentStyleType="text/css" height="570px" preserveAspectRatio="none" style="width:1060px;height:570px;background:#FFFFFF;" version="1.1" viewBox="0 0 1060 570" width="1060px" zoomAndPan="magnify"><defs/><g><text fill="#000000" font-family="sans-serif" font-size="14" font-weight="bold" lengthAdjust="spacing" textLength="1032" x="10" y="29.5332">E Commerce Platform - Deliver - Payments - Payment Service - Message Handler - Handle Order Status Changed Event - Sequence - Container level</text><rect fill="#FFFFFF" height="512.4375" style="stroke:#181818;stroke-width:0.5;" width="556.5" x="216.5" y="44.6094"/><text fill="#000000" font-family="sans-serif" font-size="13" font-weight="bold" lengthAdjust="spacing" textLength="108" x="440.75" y="58.1045">Payment Service</text><rect fill="#FFFFFF" height="512.4375" style="stroke:#181818;stroke-width:0.5;" width="94" x="775" y="44.6094"/><text fill="#000000" font-family="sans-serif" font-size="13" font-weight="bold" lengthAdjust="spacing" textLength="88" x="778" y="58.1045">Order Service</text><rect fill="none" height="297.5156" style="stroke:#000000;stroke-width:1.5;" width="830.5" x="200.5" y="175.9219"/><rect fill="none" height="234.8125" style="stroke:#000000;stroke-width:1.5;" width="810.5" x="210.5" y="231.625"/><rect fill="none" height="141.7578" style="stroke:#000000;stroke-width:1.5;" width="676.5" x="334.5" y="317.6797"/><rect fill="none" height="79.0547" style="stroke:#000000;stroke-width:1.5;" width="434.5" x="344.5" y="373.3828"/><line style="stroke:#181818;stroke-width:0.5;stroke-dasharray:5.0,5.0;" x1="49" x2="49" y1="128.5703" y2="490.4375"/><line style="stroke:#181818;stroke-width:0.5;stroke-dasharray:5.0,5.0;" x1="282.5" x2="282.5" y1="128.5703" y2="490.4375"/><line style="stroke:#181818;stroke-width:0.5;stroke-dasharray:5.0,5.0;" x1="387.5" x2="387.5" y1="128.5703" y2="490.4375"/><line style="stroke:#181818;stroke-width:0.5;stroke-dasharray:5.0,5.0;" x1="541" x2="541" y1="128.5703" y2="490.4375"/><line style="stroke:#181818;stroke-width:0.5;stroke-dasharray:5.0,5.0;" x1="728" x2="728" y1="128.5703" y2="490.4375"/><line style="stroke:#181818;stroke-width:0.5;stroke-dasharray:5.0,5.0;" x1="822" x2="822" y1="128.5703" y2="490.4375"/><line style="stroke:#181818;stroke-width:0.5;stroke-dasharray:5.0,5.0;" x1="938" x2="938" y1="128.5703" y2="490.4375"/><rect fill="#E2E2F0" height="31.6094" rx="2.5" ry="2.5" style="stroke:#181818;stroke-width:0.5;" width="65" x="17" y="95.9609"/><text fill="#000000" font-family="sans-serif" font-size="14" lengthAdjust="spacing" textLength="51" x="24" y="117.4941">External</text><rect fill="#E2E2F0" height="31.6094" rx="2.5" ry="2.5" style="stroke:#181818;stroke-width:0.5;" width="65" x="17" y="489.4375"/><text fill="#000000" font-family="sans-serif" font-size="14" lengthAdjust="spacing" textLength="51" x="24" y="510.9707">External</text><rect fill="#E2E2F0" height="31.6094" rx="2.5" ry="2.5" style="stroke:#181818;stroke-width:0.5;" width="124" x="220.5" y="95.9609"/><text fill="#000000" font-family="sans-serif" font-size="14" lengthAdjust="spacing" textLength="110" x="227.5" y="117.4941">Message Handler</text><rect fill="#E2E2F0" height="31.6094" rx="2.5" ry="2.5" style="stroke:#181818;stroke-width:0.5;" width="124" x="220.5" y="489.4375"/><text fill="#000000" font-family="sans-serif" font-size="14" lengthAdjust="spacing" textLength="110" x="227.5" y="510.9707">Message Handler</text><text fill="#000000" font-family="sans-serif" font-size="14" lengthAdjust="spacing" textLength="61" x="354.5" y="125.4941">Database</text><path d="M370,74.9609 C370,64.9609 388,64.9609 388,64.9609 C388,64.9609 406,64.9609 406,74.9609 L406,100.9609 C406,110.9609 388,110.9609 388,110.9609 C388,110.9609 370,110.9609 370,100.9609 L370,74.9609 " fill="#E2E2F0" style="stroke:#181818;stroke-width:1.5;"/><path d="M370,74.9609 C370,84.9609 388,84.9609 388,84.9609 C388,84.9609 406,84.9609 406,74.9609 " fill="none" style="stroke:#181818;stroke-width:1.5;"/><text fill="#000000" font-family="sans-serif" font-size="14" lengthAdjust="spacing" textLength="61" x="354.5" y="503.9707">Database</text><path d="M370,517.0469 C370,507.0469 388,507.0469 388,507.0469 C388,507.0469 406,507.0469 406,517.0469 L406,543.0469 C406,553.0469 388,553.0469 388,553.0469 C388,553.0469 370,553.0469 370,543.0469 L370,517.0469 " fill="#E2E2F0" style="stroke:#181818;stroke-width:1.5;"/><path d="M370,517.0469 C370,527.0469 388,527.0469 388,527.0469 C388,527.0469 406,527.0469 406,517.0469 " fill="none" style="stroke:#181818;stroke-width:1.5;"/><rect fill="#E2E2F0" height="31.6094" rx="2.5" ry="2.5" style="stroke:#181818;stroke-width:0.5;" width="34" x="524" y="95.9609"/><text fill="#000000" font-family="sans-serif" font-size="14" lengthAdjust="spacing" textLength="20" x="531" y="117.4941">Api</text><rect fill="#E2E2F0" height="31.6094" rx="2.5" ry="2.5" style="stroke:#181818;stroke-width:0.5;" width="34" x="524" y="489.4375"/><text fill="#000000" font-family="sans-serif" font-size="14" lengthAdjust="spacing" textLength="20" x="531" y="510.9707">Api</text><rect fill="#E2E2F0" height="31.6094" rx="2.5" ry="2.5" style="stroke:#181818;stroke-width:0.5;" width="82" x="687" y="95.9609"/><text fill="#000000" font-family="sans-serif" font-size="14" lengthAdjust="spacing" textLength="68" x="694" y="117.4941">Messaging</text><rect fill="#E2E2F0" height="31.6094" rx="2.5" ry="2.5" style="stroke:#181818;stroke-width:0.5;" width="82" x="687" y="489.4375"/><text fill="#000000" font-family="sans-serif" font-size="14" lengthAdjust="spacing" textLength="68" x="694" y="510.9707">Messaging</text><rect fill="#E2E2F0" height="31.6094" rx="2.5" ry="2.5" style="stroke:#181818;stroke-width:0.5;" width="82" x="781" y="95.9609"/><text fill="#000000" font-family="sans-serif" font-size="14" lengthAdjust="spacing" textLength="68" x="788" y="117.4941">Messaging</text><rect fill="#E2E2F0" height="31.6094" rx="2.5" ry="2.5" style="stroke:#181818;stroke-width:0.5;" width="82" x="781" y="489.4375"/><text fill="#000000" font-family="sans-serif" font-size="14" lengthAdjust="spacing" textLength="68" x="788" y="510.9707">Messaging</text><rect fill="#E2E2F0" height="31.6094" rx="2.5" ry="2.5" style="stroke:#181818;stroke-width:0.5;" width="126" x="875" y="95.9609"/><text fill="#000000" font-family="sans-serif" font-size="14" lengthAdjust="spacing" textLength="112" x="882" y="117.4941">Payment Provider</text><rect fill="#E2E2F0" height="31.6094" rx="2.5" ry="2.5" style="stroke:#181818;stroke-width:0.5;" width="126" x="875" y="489.4375"/><text fill="#000000" font-family="sans-serif" font-size="14" lengthAdjust="spacing" textLength="112" x="882" y="510.9707">Payment Provider</text><polygon fill="#181818" points="270.5,156.9219,280.5,160.9219,270.5,164.9219,274.5,160.9219" style="stroke:#181818;stroke-width:1.0;"/><line style="stroke:#181818;stroke-width:1.0;" x1="49.5" x2="276.5" y1="160.9219" y2="160.9219"/><text fill="#000000" font-family="sans-serif" font-size="13" lengthAdjust="spacing" textLength="209" x="56.5" y="156.0654">Handle Order Status Changed Event</text><path d="M200.5,175.9219 L473.5,175.9219 L473.5,184.2734 L463.5,194.2734 L200.5,194.2734 L200.5,175.9219 " fill="#EEEEEE" style="stroke:#000000;stroke-width:1.5;"/><rect fill="none" height="297.5156" style="stroke:#000000;stroke-width:1.5;" width="830.5" x="200.5" y="175.9219"/><text fill="#000000" font-family="sans-serif" font-size="13" font-weight="bold" lengthAdjust="spacing" textLength="228" x="215.5" y="190.417">Handle Order Status Changed Event</text><polygon fill="#181818" points="810,212.625,820,216.625,810,220.625,814,216.625" style="stroke:#181818;stroke-width:1.0;"/><line style="stroke:#181818;stroke-width:1.0;" x1="282.5" x2="816" y1="216.625" y2="216.625"/><text fill="#000000" font-family="sans-serif" font-size="13" lengthAdjust="spacing" textLength="214" x="289.5" y="211.7686">Receive Order Status Changed Event</text><path d="M210.5,231.625 L271.5,231.625 L271.5,239.9766 L261.5,249.9766 L210.5,249.9766 L210.5,231.625 " fill="#EEEEEE" style="stroke:#000000;stroke-width:1.5;"/><rect fill="none" height="234.8125" style="stroke:#000000;stroke-width:1.5;" width="810.5" x="210.5" y="231.625"/><text fill="#000000" font-family="sans-serif" font-size="13" font-weight="bold" lengthAdjust="spacing" textLength="16" x="225.5" y="246.1201">alt</text><text fill="#000000" font-family="sans-serif" font-size="11" font-weight="bold" lengthAdjust="spacing" textLength="196" x="286.5" y="245.0439">[Order Status is 'Pending Payment']</text><polygon fill="#181818" points="376,268.3281,386,272.3281,376,276.3281,380,272.3281" style="stroke:#181818;stroke-width:1.0;"/><line style="stroke:#181818;stroke-width:1.0;" x1="282.5" x2="382" y1="272.3281" y2="272.3281"/><text fill="#000000" font-family="sans-serif" font-size="13" lengthAdjust="spacing" textLength="68" x="289.5" y="267.4717">Insert Order</text><polygon fill="#181818" points="926,298.6797,936,302.6797,926,306.6797,930,302.6797" style="stroke:#181818;stroke-width:1.0;"/><line style="stroke:#181818;stroke-width:1.0;" x1="282.5" x2="932" y1="302.6797" y2="302.6797"/><text fill="#000000" font-family="sans-serif" font-size="13" lengthAdjust="spacing" textLength="104" x="289.5" y="297.8232">Process Payment</text><path d="M334.5,317.6797 L488.5,317.6797 L488.5,326.0313 L478.5,336.0313 L334.5,336.0313 L334.5,317.6797 " fill="#EEEEEE" style="stroke:#000000;stroke-width:1.5;"/><rect fill="none" height="141.7578" style="stroke:#000000;stroke-width:1.5;" width="676.5" x="334.5" y="317.6797"/><text fill="#000000" font-family="sans-serif" font-size="13" font-weight="bold" lengthAdjust="spacing" textLength="109" x="349.5" y="332.1748">Process Payment</text><polygon fill="#181818" points="552,354.3828,542,358.3828,552,362.3828,548,358.3828" style="stroke:#181818;stroke-width:1.0;"/><line style="stroke:#181818;stroke-width:1.0;" x1="546" x2="937" y1="358.3828" y2="358.3828"/><text fill="#000000" font-family="sans-serif" font-size="13" lengthAdjust="spacing" textLength="160" x="558" y="353.5264">Post Payment Result Event</text><path d="M344.5,373.3828 L558.5,373.3828 L558.5,381.7344 L548.5,391.7344 L344.5,391.7344 L344.5,373.3828 " fill="#EEEEEE" style="stroke:#000000;stroke-width:1.5;"/><rect fill="none" height="79.0547" style="stroke:#000000;stroke-width:1.5;" width="434.5" x="344.5" y="373.3828"/><text fill="#000000" font-family="sans-serif" font-size="13" font-weight="bold" lengthAdjust="spacing" textLength="169" x="359.5" y="387.8779">Post Payment Result Event</text><polygon fill="#181818" points="399,410.0859,389,414.0859,399,418.0859,395,414.0859" style="stroke:#181818;stroke-width:1.0;"/><line style="stroke:#181818;stroke-width:1.0;" x1="393" x2="540" y1="414.0859" y2="414.0859"/><text fill="#000000" font-family="sans-serif" font-size="13" lengthAdjust="spacing" textLength="129" x="405" y="409.2295">Insert Payment Result</text><polygon fill="#181818" points="716,440.4375,726,444.4375,716,448.4375,720,444.4375" style="stroke:#181818;stroke-width:1.0;"/><line style="stroke:#181818;stroke-width:1.0;" x1="541" x2="722" y1="444.4375" y2="444.4375"/><text fill="#000000" font-family="sans-serif" font-size="13" lengthAdjust="spacing" textLength="163" x="548" y="439.5811">Send Payment Result Event</text><!--SRC=[pLKzRy8m4DtzAqxfm4IcJXqgLK0_Xgge6JeVv0gM79lQ9eL_tqkmAU6ZZTHGWOHavoxltdjtThpqYc040rCKPAS4OuN-tTW2-Z0a9Kkol1hZkY3jtVSIChAbvFm-F9DpE2DuH9shEdspWXURypRpw9SE1dFKCyfXL5Plz_dzZoNf6c1Wj4UfELTHIKg81LelftA1d9cCLfwiHfK0Cihra-RjlJAVQMRU_ITQojREK-7IcBZP2p4nAqZsw2PmzJQNdWJmhr5cJqLTRHHTYQQamP8q6d908WH2kNGhpQMXGC2l2UJeSOAE81c6LVTb8_AXuhk5xBuSWvxoLkhPkLnbQ44w1swv28qFmzUkxQUfFH2NGKz3AhXnQOtwZ9eRMH4w85h7sz5iq8XZEhQcbFcVno_22D7-m43_zfm33pU_NmjYPiroqIBld3oFsj3r6B0RhpGbfloJJ5I-6POEUcEUe0eX2EhzlnaTt4Qi_qaxia7VvMg89ua9ytBAoD7uCApxJpierRNfV2TNz8tpsw_tAxab3zVkgJiTxvpC-QUggUFo5UnU35drYJZQ20uq_k8B]--></g></svg>