<?xml version="1.0" encoding="us-ascii" standalone="no"?><svg xmlns="http://www.w3.org/2000/svg" xmlns:xlink="http://www.w3.org/1999/xlink" contentStyleType="text/css" height="570px" preserveAspectRatio="none" style="width:1060px;height:570px;background:#FFFFFF;" version="1.1" viewBox="0 0 1060 570" width="1060px" zoomAndPan="magnify"><defs/><g><text fill="#000000" font-family="sans-serif" font-size="14" font-weight="bold" lengthAdjust="spacing" textLength="1032" x="10" y="29.5332">E Commerce Platform - Deliver - Payments - Payment Service - Message Handler - Handle Order Status Changed Event - Sequence - Container level</text><rect fill="#FFFFFF" height="512.4375" style="stroke:#181818;stroke-width:0.5;" width="559.5" x="214" y="44.6094"/><text fill="#000000" font-family="sans-serif" font-size="13" font-weight="bold" lengthAdjust="spacing" textLength="108" x="439.75" y="58.1045">Payment Service</text><rect fill="#FFFFFF" height="512.4375" style="stroke:#181818;stroke-width:0.5;" width="96" x="775.5" y="44.6094"/><text fill="#000000" font-family="sans-serif" font-size="13" font-weight="bold" lengthAdjust="spacing" textLength="88" x="779.5" y="58.1045">Order Service</text><rect fill="none" height="297.5156" style="stroke:#000000;stroke-width:1.5;" width="835.5" x="198" y="175.9219"/><rect fill="none" height="234.8125" style="stroke:#000000;stroke-width:1.5;" width="815.5" x="208" y="231.625"/><rect fill="none" height="141.7578" style="stroke:#000000;stroke-width:1.5;" width="681.5" x="332" y="317.6797"/><rect fill="none" height="79.0547" style="stroke:#000000;stroke-width:1.5;" width="437.5" x="342" y="373.3828"/><line style="stroke:#181818;stroke-width:0.5;stroke-dasharray:5.0,5.0;" x1="46.5" x2="46.5" y1="128.5703" y2="490.4375"/><line style="stroke:#181818;stroke-width:0.5;stroke-dasharray:5.0,5.0;" x1="280" x2="280" y1="128.5703" y2="490.4375"/><line style="stroke:#181818;stroke-width:0.5;stroke-dasharray:5.0,5.0;" x1="385" x2="385" y1="128.5703" y2="490.4375"/><line style="stroke:#181818;stroke-width:0.5;stroke-dasharray:5.0,5.0;" x1="538.5" x2="538.5" y1="128.5703" y2="490.4375"/><line style="stroke:#181818;stroke-width:0.5;stroke-dasharray:5.0,5.0;" x1="725.5" x2="725.5" y1="128.5703" y2="490.4375"/><line style="stroke:#181818;stroke-width:0.5;stroke-dasharray:5.0,5.0;" x1="823.5" x2="823.5" y1="128.5703" y2="490.4375"/><line style="stroke:#181818;stroke-width:0.5;stroke-dasharray:5.0,5.0;" x1="940.5" x2="940.5" y1="128.5703" y2="490.4375"/><rect fill="#E2E2F0" height="31.6094" rx="2.5" ry="2.5" style="stroke:#181818;stroke-width:0.5;" width="65" x="14.5" y="95.9609"/><text fill="#000000" font-family="sans-serif" font-size="14" lengthAdjust="spacing" textLength="51" x="21.5" y="117.4941">External</text><rect fill="#E2E2F0" height="31.6094" rx="2.5" ry="2.5" style="stroke:#181818;stroke-width:0.5;" width="65" x="14.5" y="489.4375"/><text fill="#000000" font-family="sans-serif" font-size="14" lengthAdjust="spacing" textLength="51" x="21.5" y="510.9707">External</text><rect fill="#E2E2F0" height="31.6094" rx="2.5" ry="2.5" style="stroke:#181818;stroke-width:0.5;" width="124" x="218" y="95.9609"/><text fill="#000000" font-family="sans-serif" font-size="14" lengthAdjust="spacing" textLength="110" x="225" y="117.4941">Message Handler</text><rect fill="#E2E2F0" height="31.6094" rx="2.5" ry="2.5" style="stroke:#181818;stroke-width:0.5;" width="124" x="218" y="489.4375"/><text fill="#000000" font-family="sans-serif" font-size="14" lengthAdjust="spacing" textLength="110" x="225" y="510.9707">Message Handler</text><text fill="#000000" font-family="sans-serif" font-size="14" lengthAdjust="spacing" textLength="61" x="352" y="125.4941">Database</text><path d="M367.5,74.9609 C367.5,64.9609 385.5,64.9609 385.5,64.9609 C385.5,64.9609 403.5,64.9609 403.5,74.9609 L403.5,100.9609 C403.5,110.9609 385.5,110.9609 385.5,110.9609 C385.5,110.9609 367.5,110.9609 367.5,100.9609 L367.5,74.9609 " fill="#E2E2F0" style="stroke:#181818;stroke-width:1.5;"/><path d="M367.5,74.9609 C367.5,84.9609 385.5,84.9609 385.5,84.9609 C385.5,84.9609 403.5,84.9609 403.5,74.9609 " fill="none" style="stroke:#181818;stroke-width:1.5;"/><text fill="#000000" font-family="sans-serif" font-size="14" lengthAdjust="spacing" textLength="61" x="352" y="503.9707">Database</text><path d="M367.5,517.0469 C367.5,507.0469 385.5,507.0469 385.5,507.0469 C385.5,507.0469 403.5,507.0469 403.5,517.0469 L403.5,543.0469 C403.5,553.0469 385.5,553.0469 385.5,553.0469 C385.5,553.0469 367.5,553.0469 367.5,543.0469 L367.5,517.0469 " fill="#E2E2F0" style="stroke:#181818;stroke-width:1.5;"/><path d="M367.5,517.0469 C367.5,527.0469 385.5,527.0469 385.5,527.0469 C385.5,527.0469 403.5,527.0469 403.5,517.0469 " fill="none" style="stroke:#181818;stroke-width:1.5;"/><rect fill="#E2E2F0" height="31.6094" rx="2.5" ry="2.5" style="stroke:#181818;stroke-width:0.5;" width="34" x="521.5" y="95.9609"/><text fill="#000000" font-family="sans-serif" font-size="14" lengthAdjust="spacing" textLength="20" x="528.5" y="117.4941">Api</text><rect fill="#E2E2F0" height="31.6094" rx="2.5" ry="2.5" style="stroke:#181818;stroke-width:0.5;" width="34" x="521.5" y="489.4375"/><text fill="#000000" font-family="sans-serif" font-size="14" lengthAdjust="spacing" textLength="20" x="528.5" y="510.9707">Api</text><path d="M686.5,100.9609 L764.5,100.9609 C769.5,100.9609 769.5,114.7656 769.5,114.7656 C769.5,114.7656 769.5,128.5703 764.5,128.5703 L686.5,128.5703 C681.5,128.5703 681.5,114.7656 681.5,114.7656 C681.5,114.7656 681.5,100.9609 686.5,100.9609 " fill="#E2E2F0" style="stroke:#181818;stroke-width:0.5;"/><path d="M764.5,100.9609 C759.5,100.9609 759.5,114.7656 759.5,114.7656 C759.5,128.5703 764.5,128.5703 764.5,128.5703 " fill="none" style="stroke:#181818;stroke-width:0.5;"/><text fill="#000000" font-family="sans-serif" font-size="14" lengthAdjust="spacing" textLength="68" x="686.5" y="120.4941">Messaging</text><path d="M686.5,489.4375 L764.5,489.4375 C769.5,489.4375 769.5,503.2422 769.5,503.2422 C769.5,503.2422 769.5,517.0469 764.5,517.0469 L686.5,517.0469 C681.5,517.0469 681.5,503.2422 681.5,503.2422 C681.5,503.2422 681.5,489.4375 686.5,489.4375 " fill="#E2E2F0" style="stroke:#181818;stroke-width:0.5;"/><path d="M764.5,489.4375 C759.5,489.4375 759.5,503.2422 759.5,503.2422 C759.5,517.0469 764.5,517.0469 764.5,517.0469 " fill="none" style="stroke:#181818;stroke-width:0.5;"/><text fill="#000000" font-family="sans-serif" font-size="14" lengthAdjust="spacing" textLength="68" x="686.5" y="508.9707">Messaging</text><path d="M784.5,100.9609 L862.5,100.9609 C867.5,100.9609 867.5,114.7656 867.5,114.7656 C867.5,114.7656 867.5,128.5703 862.5,128.5703 L784.5,128.5703 C779.5,128.5703 779.5,114.7656 779.5,114.7656 C779.5,114.7656 779.5,100.9609 784.5,100.9609 " fill="#E2E2F0" style="stroke:#181818;stroke-width:0.5;"/><path d="M862.5,100.9609 C857.5,100.9609 857.5,114.7656 857.5,114.7656 C857.5,128.5703 862.5,128.5703 862.5,128.5703 " fill="none" style="stroke:#181818;stroke-width:0.5;"/><text fill="#000000" font-family="sans-serif" font-size="14" lengthAdjust="spacing" textLength="68" x="784.5" y="120.4941">Messaging</text><path d="M784.5,489.4375 L862.5,489.4375 C867.5,489.4375 867.5,503.2422 867.5,503.2422 C867.5,503.2422 867.5,517.0469 862.5,517.0469 L784.5,517.0469 C779.5,517.0469 779.5,503.2422 779.5,503.2422 C779.5,503.2422 779.5,489.4375 784.5,489.4375 " fill="#E2E2F0" style="stroke:#181818;stroke-width:0.5;"/><path d="M862.5,489.4375 C857.5,489.4375 857.5,503.2422 857.5,503.2422 C857.5,517.0469 862.5,517.0469 862.5,517.0469 " fill="none" style="stroke:#181818;stroke-width:0.5;"/><text fill="#000000" font-family="sans-serif" font-size="14" lengthAdjust="spacing" textLength="68" x="784.5" y="508.9707">Messaging</text><rect fill="#E2E2F0" height="31.6094" rx="2.5" ry="2.5" style="stroke:#181818;stroke-width:0.5;" width="126" x="877.5" y="95.9609"/><text fill="#000000" font-family="sans-serif" font-size="14" lengthAdjust="spacing" textLength="112" x="884.5" y="117.4941">Payment Provider</text><rect fill="#E2E2F0" height="31.6094" rx="2.5" ry="2.5" style="stroke:#181818;stroke-width:0.5;" width="126" x="877.5" y="489.4375"/><text fill="#000000" font-family="sans-serif" font-size="14" lengthAdjust="spacing" textLength="112" x="884.5" y="510.9707">Payment Provider</text><polygon fill="#181818" points="268,156.9219,278,160.9219,268,164.9219,272,160.9219" style="stroke:#181818;stroke-width:1.0;"/><line style="stroke:#181818;stroke-width:1.0;" x1="47" x2="274" y1="160.9219" y2="160.9219"/><text fill="#000000" font-family="sans-serif" font-size="13" lengthAdjust="spacing" textLength="209" x="54" y="156.0654">Handle Order Status Changed Event</text><path d="M198,175.9219 L471,175.9219 L471,184.2734 L461,194.2734 L198,194.2734 L198,175.9219 " fill="#EEEEEE" style="stroke:#000000;stroke-width:1.5;"/><rect fill="none" height="297.5156" style="stroke:#000000;stroke-width:1.5;" width="835.5" x="198" y="175.9219"/><text fill="#000000" font-family="sans-serif" font-size="13" font-weight="bold" lengthAdjust="spacing" textLength="228" x="213" y="190.417">Handle Order Status Changed Event</text><polygon fill="#181818" points="811.5,212.625,821.5,216.625,811.5,220.625,815.5,216.625" style="stroke:#181818;stroke-width:1.0;"/><line style="stroke:#181818;stroke-width:1.0;" x1="280" x2="817.5" y1="216.625" y2="216.625"/><text fill="#000000" font-family="sans-serif" font-size="13" lengthAdjust="spacing" textLength="214" x="287" y="211.7686">Receive Order Status Changed Event</text><path d="M208,231.625 L269,231.625 L269,239.9766 L259,249.9766 L208,249.9766 L208,231.625 " fill="#EEEEEE" style="stroke:#000000;stroke-width:1.5;"/><rect fill="none" height="234.8125" style="stroke:#000000;stroke-width:1.5;" width="815.5" x="208" y="231.625"/><text fill="#000000" font-family="sans-serif" font-size="13" font-weight="bold" lengthAdjust="spacing" textLength="16" x="223" y="246.1201">alt</text><text fill="#000000" font-family="sans-serif" font-size="11" font-weight="bold" lengthAdjust="spacing" textLength="196" x="284" y="245.0439">[Order Status is 'Pending Payment']</text><polygon fill="#181818" points="373.5,268.3281,383.5,272.3281,373.5,276.3281,377.5,272.3281" style="stroke:#181818;stroke-width:1.0;"/><line style="stroke:#181818;stroke-width:1.0;" x1="280" x2="379.5" y1="272.3281" y2="272.3281"/><text fill="#000000" font-family="sans-serif" font-size="13" lengthAdjust="spacing" textLength="68" x="287" y="267.4717">Insert Order</text><polygon fill="#181818" points="928.5,298.6797,938.5,302.6797,928.5,306.6797,932.5,302.6797" style="stroke:#181818;stroke-width:1.0;"/><line style="stroke:#181818;stroke-width:1.0;" x1="280" x2="934.5" y1="302.6797" y2="302.6797"/><text fill="#000000" font-family="sans-serif" font-size="13" lengthAdjust="spacing" textLength="104" x="287" y="297.8232">Process Payment</text><path d="M332,317.6797 L486,317.6797 L486,326.0313 L476,336.0313 L332,336.0313 L332,317.6797 " fill="#EEEEEE" style="stroke:#000000;stroke-width:1.5;"/><rect fill="none" height="141.7578" style="stroke:#000000;stroke-width:1.5;" width="681.5" x="332" y="317.6797"/><text fill="#000000" font-family="sans-serif" font-size="13" font-weight="bold" lengthAdjust="spacing" textLength="109" x="347" y="332.1748">Process Payment</text><polygon fill="#181818" points="549.5,354.3828,539.5,358.3828,549.5,362.3828,545.5,358.3828" style="stroke:#181818;stroke-width:1.0;"/><line style="stroke:#181818;stroke-width:1.0;" x1="543.5" x2="939.5" y1="358.3828" y2="358.3828"/><text fill="#000000" font-family="sans-serif" font-size="13" lengthAdjust="spacing" textLength="160" x="555.5" y="353.5264">Post Payment Result Event</text><path d="M342,373.3828 L556,373.3828 L556,381.7344 L546,391.7344 L342,391.7344 L342,373.3828 " fill="#EEEEEE" style="stroke:#000000;stroke-width:1.5;"/><rect fill="none" height="79.0547" style="stroke:#000000;stroke-width:1.5;" width="437.5" x="342" y="373.3828"/><text fill="#000000" font-family="sans-serif" font-size="13" font-weight="bold" lengthAdjust="spacing" textLength="169" x="357" y="387.8779">Post Payment Result Event</text><polygon fill="#181818" points="396.5,410.0859,386.5,414.0859,396.5,418.0859,392.5,414.0859" style="stroke:#181818;stroke-width:1.0;"/><line style="stroke:#181818;stroke-width:1.0;" x1="390.5" x2="537.5" y1="414.0859" y2="414.0859"/><text fill="#000000" font-family="sans-serif" font-size="13" lengthAdjust="spacing" textLength="129" x="402.5" y="409.2295">Insert Payment Result</text><polygon fill="#181818" points="713.5,440.4375,723.5,444.4375,713.5,448.4375,717.5,444.4375" style="stroke:#181818;stroke-width:1.0;"/><line style="stroke:#181818;stroke-width:1.0;" x1="538.5" x2="719.5" y1="444.4375" y2="444.4375"/><text fill="#000000" font-family="sans-serif" font-size="13" lengthAdjust="spacing" textLength="163" x="545.5" y="439.5811">Send Payment Result Event</text><!--SRC=[pLKzJyCm4DtzAqvXO6ec9WOar9QF0H4r0_CrELfBZbri9uL_poNOXRG5Af6YLgfavoxltdjtThpqYc0AOrDLP0k2JA5_DhQ24Kn8oOOihp9ygqXxzxc4d6mZENy43-GSBWZkK9UgI_zOmQCjUPjxzBM3yHBrWagODktR8tx_fIRT0OoDzYWrvofgI0cnGkjb8LV8cSdqrPFLg190HhcurxozKMQTvkRPhz5I_kOyLIwDYHzx8URc5P8jkWcSFIsb9m7ywvNPKj5LcqPNeYbfi2IDXkoG285GBjr8Ssae4F0x0YLwdACZI2PXDNpPYBoh-7ebXo_7e5qbRcvDqLMf5yVoaw45wHAusIAqF8pTdeOVIEgMk01wcb35pKexl0VKtBoMoWx5BduOmPx_SJGpQnfP_dda8emGXnyI65qTSyZXylUhG2oigLS7v1sJvruRXXu3TcD61J7bdsIYylsmT72UyGIr247G-V-RCS0DnFhljICRz9skXdYIc30l2qQEneTXtNuwGAcXJUTxkALldDzyiMVaQXwkhwVk-_ZWP8u_LNqTfw_WwyMGjv-8lOtWGEyltW40]--></g></svg>