<?xml version="1.0" encoding="us-ascii" standalone="no"?><svg xmlns="http://www.w3.org/2000/svg" xmlns:xlink="http://www.w3.org/1999/xlink" contentStyleType="text/css" height="318px" preserveAspectRatio="none" style="width:1046px;height:318px;background:#FFFFFF;" version="1.1" viewBox="0 0 1046 318" width="1046px" zoomAndPan="magnify"><defs/><g><text fill="#000000" font-family="sans-serif" font-size="14" font-weight="bold" lengthAdjust="spacing" textLength="1018" x="10" y="29.5332">E Commerce Platform - Deliver - Payments - Payment Service - Message Handler - Handle Order Status Changed Event - Sequence - Context level</text><rect fill="none" height="141.7578" style="stroke:#000000;stroke-width:1.5;" width="525" x="347.25" y="123.5703"/><rect fill="none" height="48.7031" style="stroke:#000000;stroke-width:1.5;" width="505" x="357.25" y="209.625"/><line style="stroke:#181818;stroke-width:0.5;stroke-dasharray:5.0,5.0;" x1="193.75" x2="193.75" y1="76.2188" y2="282.3281"/><line style="stroke:#181818;stroke-width:0.5;stroke-dasharray:5.0,5.0;" x1="427.25" x2="427.25" y1="76.2188" y2="282.3281"/><line style="stroke:#181818;stroke-width:0.5;stroke-dasharray:5.0,5.0;" x1="665.25" x2="665.25" y1="76.2188" y2="282.3281"/><line style="stroke:#181818;stroke-width:0.5;stroke-dasharray:5.0,5.0;" x1="789.25" x2="789.25" y1="76.2188" y2="282.3281"/><rect fill="#E2E2F0" height="31.6094" rx="2.5" ry="2.5" style="stroke:#181818;stroke-width:0.5;" width="65" x="161.75" y="43.6094"/><text fill="#000000" font-family="sans-serif" font-size="14" lengthAdjust="spacing" textLength="51" x="168.75" y="65.1426">External</text><rect fill="#E2E2F0" height="31.6094" rx="2.5" ry="2.5" style="stroke:#181818;stroke-width:0.5;" width="65" x="161.75" y="281.3281"/><text fill="#000000" font-family="sans-serif" font-size="14" lengthAdjust="spacing" textLength="51" x="168.75" y="302.8613">External</text><rect fill="#E2E2F0" height="31.6094" rx="2.5" ry="2.5" style="stroke:#181818;stroke-width:0.5;" width="120" x="367.25" y="43.6094"/><text fill="#000000" font-family="sans-serif" font-size="14" lengthAdjust="spacing" textLength="106" x="374.25" y="65.1426">Payment Service</text><rect fill="#E2E2F0" height="31.6094" rx="2.5" ry="2.5" style="stroke:#181818;stroke-width:0.5;" width="120" x="367.25" y="281.3281"/><text fill="#000000" font-family="sans-serif" font-size="14" lengthAdjust="spacing" textLength="106" x="374.25" y="302.8613">Payment Service</text><rect fill="#E2E2F0" height="31.6094" rx="2.5" ry="2.5" style="stroke:#181818;stroke-width:0.5;" width="102" x="614.25" y="43.6094"/><text fill="#000000" font-family="sans-serif" font-size="14" lengthAdjust="spacing" textLength="88" x="621.25" y="65.1426">Order Service</text><rect fill="#E2E2F0" height="31.6094" rx="2.5" ry="2.5" style="stroke:#181818;stroke-width:0.5;" width="102" x="614.25" y="281.3281"/><text fill="#000000" font-family="sans-serif" font-size="14" lengthAdjust="spacing" textLength="88" x="621.25" y="302.8613">Order Service</text><rect fill="#E2E2F0" height="31.6094" rx="2.5" ry="2.5" style="stroke:#181818;stroke-width:0.5;" width="126" x="726.25" y="43.6094"/><text fill="#000000" font-family="sans-serif" font-size="14" lengthAdjust="spacing" textLength="112" x="733.25" y="65.1426">Payment Provider</text><rect fill="#E2E2F0" height="31.6094" rx="2.5" ry="2.5" style="stroke:#181818;stroke-width:0.5;" width="126" x="726.25" y="281.3281"/><text fill="#000000" font-family="sans-serif" font-size="14" lengthAdjust="spacing" textLength="112" x="733.25" y="302.8613">Payment Provider</text><polygon fill="#181818" points="415.25,104.5703,425.25,108.5703,415.25,112.5703,419.25,108.5703" style="stroke:#181818;stroke-width:1.0;"/><line style="stroke:#181818;stroke-width:1.0;" x1="194.25" x2="421.25" y1="108.5703" y2="108.5703"/><text fill="#000000" font-family="sans-serif" font-size="13" lengthAdjust="spacing" textLength="209" x="201.25" y="103.7139">Handle Order Status Changed Event</text><path d="M347.25,123.5703 L620.25,123.5703 L620.25,131.9219 L610.25,141.9219 L347.25,141.9219 L347.25,123.5703 " fill="#EEEEEE" style="stroke:#000000;stroke-width:1.5;"/><rect fill="none" height="141.7578" style="stroke:#000000;stroke-width:1.5;" width="525" x="347.25" y="123.5703"/><text fill="#000000" font-family="sans-serif" font-size="13" font-weight="bold" lengthAdjust="spacing" textLength="228" x="362.25" y="138.0654">Handle Order Status Changed Event</text><polygon fill="#181818" points="653.25,160.2734,663.25,164.2734,653.25,168.2734,657.25,164.2734" style="stroke:#181818;stroke-width:1.0;"/><line style="stroke:#181818;stroke-width:1.0;" x1="427.25" x2="659.25" y1="164.2734" y2="164.2734"/><text fill="#000000" font-family="sans-serif" font-size="13" lengthAdjust="spacing" textLength="214" x="434.25" y="159.417">Receive Order Status Changed Event</text><polygon fill="#181818" points="777.25,190.625,787.25,194.625,777.25,198.625,781.25,194.625" style="stroke:#181818;stroke-width:1.0;"/><line style="stroke:#181818;stroke-width:1.0;" x1="427.25" x2="783.25" y1="194.625" y2="194.625"/><text fill="#000000" font-family="sans-serif" font-size="13" lengthAdjust="spacing" textLength="104" x="434.25" y="189.7686">Process Payment</text><path d="M357.25,209.625 L511.25,209.625 L511.25,217.9766 L501.25,227.9766 L357.25,227.9766 L357.25,209.625 " fill="#EEEEEE" style="stroke:#000000;stroke-width:1.5;"/><rect fill="none" height="48.7031" style="stroke:#000000;stroke-width:1.5;" width="505" x="357.25" y="209.625"/><text fill="#000000" font-family="sans-serif" font-size="13" font-weight="bold" lengthAdjust="spacing" textLength="109" x="372.25" y="224.1201">Process Payment</text><polygon fill="#181818" points="438.25,246.3281,428.25,250.3281,438.25,254.3281,434.25,250.3281" style="stroke:#181818;stroke-width:1.0;"/><line style="stroke:#181818;stroke-width:1.0;" x1="432.25" x2="788.25" y1="250.3281" y2="250.3281"/><text fill="#000000" font-family="sans-serif" font-size="13" lengthAdjust="spacing" textLength="160" x="444.25" y="245.4717">Post Payment Result Event</text><!--SRC=[nLJBReCm4Bpp5QlSuTHJ3xqG-ZX4HU4BLh19aOnDx8KaVz-DOxVAGsqg8lM0jCRZcPtnWrjM10Nafkl8rWIbGbuPsq4ASrBjI5Qg4lSTQNRV9LHanrRmAIp8ELmJlA9kb8SVAtYtZGmhHXuSv1-erzH0CHvMfx9-Cv3s1BdHJ3i6HIEf9EdHSbktFGfkLkoOh4Or0nIEXpT1scTbjbbbLhn5IzNUCNKkYy3Z-9Jah6VFLKJ7qN0Mx6RHx8L4c0WifnB1wuy2BwJ98jESEWaeyqiMg2Mx0-s5d9-_AXRzbDQChO0c6eeqIN9xm90-JOyG7dy_AidQcg6_0JUzcwkM9coQs5jIJTB3F_JzrysNPgMivIx7AnwIF_zx1waxdPtIEFvwZvRa1iKXKzAD_v9F]--></g></svg>