<?xml version="1.0" encoding="us-ascii" standalone="no"?><svg xmlns="http://www.w3.org/2000/svg" xmlns:xlink="http://www.w3.org/1999/xlink" contentStyleType="text/css" height="345px" preserveAspectRatio="none" style="width:1060px;height:345px;background:#FFFFFF;" version="1.1" viewBox="0 0 1060 345" width="1060px" zoomAndPan="magnify"><defs/><g><text fill="#000000" font-family="sans-serif" font-size="14" font-weight="bold" lengthAdjust="spacing" textLength="1032" x="10" y="29.5332">E Commerce Platform - Deliver - Payments - Payment Service - Message Handler - Handle Order Status Changed Event - Sequence - Container level</text><rect fill="#FFFFFF" height="294.6797" style="stroke:#181818;stroke-width:0.5;" width="217" x="371.25" y="44.6094"/><text fill="#000000" font-family="sans-serif" font-size="13" font-weight="bold" lengthAdjust="spacing" textLength="108" x="425.75" y="58.1045">Payment Service</text><rect fill="#FFFFFF" height="294.6797" style="stroke:#181818;stroke-width:0.5;" width="94" x="630.25" y="44.6094"/><text fill="#000000" font-family="sans-serif" font-size="13" font-weight="bold" lengthAdjust="spacing" textLength="88" x="633.25" y="58.1045">Order Service</text><rect fill="none" height="141.7578" style="stroke:#000000;stroke-width:1.5;" width="521" x="355.25" y="144.9219"/><rect fill="none" height="79.0547" style="stroke:#000000;stroke-width:1.5;" width="501" x="365.25" y="200.625"/><line style="stroke:#181818;stroke-width:0.5;stroke-dasharray:5.0,5.0;" x1="203.75" x2="203.75" y1="97.5703" y2="303.6797"/><line style="stroke:#181818;stroke-width:0.5;stroke-dasharray:5.0,5.0;" x1="437.25" x2="437.25" y1="97.5703" y2="303.6797"/><line style="stroke:#181818;stroke-width:0.5;stroke-dasharray:5.0,5.0;" x1="546.25" x2="546.25" y1="97.5703" y2="303.6797"/><line style="stroke:#181818;stroke-width:0.5;stroke-dasharray:5.0,5.0;" x1="677.25" x2="677.25" y1="97.5703" y2="303.6797"/><line style="stroke:#181818;stroke-width:0.5;stroke-dasharray:5.0,5.0;" x1="793.25" x2="793.25" y1="97.5703" y2="303.6797"/><rect fill="#E2E2F0" height="31.6094" rx="2.5" ry="2.5" style="stroke:#181818;stroke-width:0.5;" width="65" x="171.75" y="64.9609"/><text fill="#000000" font-family="sans-serif" font-size="14" lengthAdjust="spacing" textLength="51" x="178.75" y="86.4941">External</text><rect fill="#E2E2F0" height="31.6094" rx="2.5" ry="2.5" style="stroke:#181818;stroke-width:0.5;" width="65" x="171.75" y="302.6797"/><text fill="#000000" font-family="sans-serif" font-size="14" lengthAdjust="spacing" textLength="51" x="178.75" y="324.2129">External</text><rect fill="#E2E2F0" height="31.6094" rx="2.5" ry="2.5" style="stroke:#181818;stroke-width:0.5;" width="124" x="375.25" y="64.9609"/><text fill="#000000" font-family="sans-serif" font-size="14" lengthAdjust="spacing" textLength="110" x="382.25" y="86.4941">Message Handler</text><rect fill="#E2E2F0" height="31.6094" rx="2.5" ry="2.5" style="stroke:#181818;stroke-width:0.5;" width="124" x="375.25" y="302.6797"/><text fill="#000000" font-family="sans-serif" font-size="14" lengthAdjust="spacing" textLength="110" x="382.25" y="324.2129">Message Handler</text><rect fill="#E2E2F0" height="31.6094" rx="2.5" ry="2.5" style="stroke:#181818;stroke-width:0.5;" width="75" x="509.25" y="64.9609"/><text fill="#000000" font-family="sans-serif" font-size="14" lengthAdjust="spacing" textLength="61" x="516.25" y="86.4941">Database</text><rect fill="#E2E2F0" height="31.6094" rx="2.5" ry="2.5" style="stroke:#181818;stroke-width:0.5;" width="75" x="509.25" y="302.6797"/><text fill="#000000" font-family="sans-serif" font-size="14" lengthAdjust="spacing" textLength="61" x="516.25" y="324.2129">Database</text><rect fill="#E2E2F0" height="31.6094" rx="2.5" ry="2.5" style="stroke:#181818;stroke-width:0.5;" width="82" x="636.25" y="64.9609"/><text fill="#000000" font-family="sans-serif" font-size="14" lengthAdjust="spacing" textLength="68" x="643.25" y="86.4941">Messaging</text><rect fill="#E2E2F0" height="31.6094" rx="2.5" ry="2.5" style="stroke:#181818;stroke-width:0.5;" width="82" x="636.25" y="302.6797"/><text fill="#000000" font-family="sans-serif" font-size="14" lengthAdjust="spacing" textLength="68" x="643.25" y="324.2129">Messaging</text><rect fill="#E2E2F0" height="31.6094" rx="2.5" ry="2.5" style="stroke:#181818;stroke-width:0.5;" width="126" x="730.25" y="64.9609"/><text fill="#000000" font-family="sans-serif" font-size="14" lengthAdjust="spacing" textLength="112" x="737.25" y="86.4941">Payment Provider</text><rect fill="#E2E2F0" height="31.6094" rx="2.5" ry="2.5" style="stroke:#181818;stroke-width:0.5;" width="126" x="730.25" y="302.6797"/><text fill="#000000" font-family="sans-serif" font-size="14" lengthAdjust="spacing" textLength="112" x="737.25" y="324.2129">Payment Provider</text><polygon fill="#181818" points="425.25,125.9219,435.25,129.9219,425.25,133.9219,429.25,129.9219" style="stroke:#181818;stroke-width:1.0;"/><line style="stroke:#181818;stroke-width:1.0;" x1="204.25" x2="431.25" y1="129.9219" y2="129.9219"/><text fill="#000000" font-family="sans-serif" font-size="13" lengthAdjust="spacing" textLength="209" x="211.25" y="125.0654">Handle Order Status Changed Event</text><path d="M355.25,144.9219 L628.25,144.9219 L628.25,153.2734 L618.25,163.2734 L355.25,163.2734 L355.25,144.9219 " fill="#EEEEEE" style="stroke:#000000;stroke-width:1.5;"/><rect fill="none" height="141.7578" style="stroke:#000000;stroke-width:1.5;" width="521" x="355.25" y="144.9219"/><text fill="#000000" font-family="sans-serif" font-size="13" font-weight="bold" lengthAdjust="spacing" textLength="228" x="370.25" y="159.417">Handle Order Status Changed Event</text><polygon fill="#181818" points="665.25,181.625,675.25,185.625,665.25,189.625,669.25,185.625" style="stroke:#181818;stroke-width:1.0;"/><line style="stroke:#181818;stroke-width:1.0;" x1="437.25" x2="671.25" y1="185.625" y2="185.625"/><text fill="#000000" font-family="sans-serif" font-size="13" lengthAdjust="spacing" textLength="214" x="444.25" y="180.7686">Receive Order Status Changed Event</text><path d="M365.25,200.625 L426.25,200.625 L426.25,208.9766 L416.25,218.9766 L365.25,218.9766 L365.25,200.625 " fill="#EEEEEE" style="stroke:#000000;stroke-width:1.5;"/><rect fill="none" height="79.0547" style="stroke:#000000;stroke-width:1.5;" width="501" x="365.25" y="200.625"/><text fill="#000000" font-family="sans-serif" font-size="13" font-weight="bold" lengthAdjust="spacing" textLength="16" x="380.25" y="215.1201">alt</text><text fill="#000000" font-family="sans-serif" font-size="11" font-weight="bold" lengthAdjust="spacing" textLength="196" x="441.25" y="214.0439">[Order Status is 'Pending Payment']</text><polygon fill="#181818" points="534.75,237.3281,544.75,241.3281,534.75,245.3281,538.75,241.3281" style="stroke:#181818;stroke-width:1.0;"/><line style="stroke:#181818;stroke-width:1.0;" x1="437.25" x2="540.75" y1="241.3281" y2="241.3281"/><text fill="#000000" font-family="sans-serif" font-size="13" lengthAdjust="spacing" textLength="68" x="444.25" y="236.4717">Insert Order</text><polygon fill="#181818" points="781.25,267.6797,791.25,271.6797,781.25,275.6797,785.25,271.6797" style="stroke:#181818;stroke-width:1.0;"/><line style="stroke:#181818;stroke-width:1.0;" x1="437.25" x2="787.25" y1="271.6797" y2="271.6797"/><text fill="#000000" font-family="sans-serif" font-size="13" lengthAdjust="spacing" textLength="104" x="444.25" y="266.8232">Process Payment</text><!--SRC=[pLEnRi8m4Dtz5QTqO4gcJXswGDeoe4RDqFb83h3asDGs0Vw-bs0N0QL5AgqQATATV7xttlETbruHv30qJKEs8YWK-fcn3QGm8YLRiXmLk6r8UxSFeIJRIgvFOKBEuPpW2NMj-l9T1C-svhJqw5SEXWlKSweXRxlRATz_Mv7k0OP6UvIQQnMrf8HOelMoaalaoYJVUB8QLGB8ABTZpUc3CkkiD3E_HalbrdbgN1OBTxaGKxE1v8Xk0ZUl2-b907y7ROvKzDtow4eq9GkMPD6G4nBX8BJBFgIvB3G8-AS4HkXnYewktpaY2z8ri2iYU1FUvp9df9wVOVP8t0KzZQXXRLcFEa7DMZi-9ppxyxF-S9izpGCQyIKBQrfP__Y58emGbyyKfFU_EHDmz_tcYBarg-K5TR_9yrCRhZq6xCOBLSIKlvA9oXyUImU3WYUeGmY21dzlnXMsbVMFjICRzFrV3N6Jc3275ID7uxjDxd_n3W00]--></g></svg>