<?xml version="1.0" encoding="us-ascii" standalone="no"?><svg xmlns="http://www.w3.org/2000/svg" xmlns:xlink="http://www.w3.org/1999/xlink" contentStyleType="text/css" height="351px" preserveAspectRatio="none" style="width:859px;height:351px;background:#FFFFFF;" version="1.1" viewBox="0 0 859 351" width="859px" zoomAndPan="magnify"><defs/><g><text fill="#000000" font-family="sans-serif" font-size="14" font-weight="bold" lengthAdjust="spacing" textLength="831" x="10" y="29.5332">E Commerce Platform - Generate Demand - Storefront - Storefront App - Update Basket Item - Sequence - Context level</text><rect fill="none" height="174.1094" style="stroke:#000000;stroke-width:1.5;" width="521" x="217.25" y="123.5703"/><rect fill="none" height="111.4063" style="stroke:#000000;stroke-width:1.5;" width="368" x="360.25" y="179.2734"/><rect fill="none" height="48.7031" style="stroke:#000000;stroke-width:1.5;" width="250" x="468.25" y="234.9766"/><line style="stroke:#181818;stroke-width:0.5;stroke-dasharray:5.0,5.0;" x1="140.75" x2="140.75" y1="76.2188" y2="314.6797"/><line style="stroke:#181818;stroke-width:0.5;stroke-dasharray:5.0,5.0;" x1="280.25" x2="280.25" y1="76.2188" y2="314.6797"/><line style="stroke:#181818;stroke-width:0.5;stroke-dasharray:5.0,5.0;" x1="419.25" x2="419.25" y1="76.2188" y2="314.6797"/><line style="stroke:#181818;stroke-width:0.5;stroke-dasharray:5.0,5.0;" x1="532.25" x2="532.25" y1="76.2188" y2="314.6797"/><line style="stroke:#181818;stroke-width:0.5;stroke-dasharray:5.0,5.0;" x1="652.25" x2="652.25" y1="76.2188" y2="314.6797"/><rect fill="#E2E2F0" height="31.6094" rx="2.5" ry="2.5" style="stroke:#181818;stroke-width:0.5;" width="65" x="108.75" y="43.6094"/><text fill="#000000" font-family="sans-serif" font-size="14" lengthAdjust="spacing" textLength="51" x="115.75" y="65.1426">External</text><rect fill="#E2E2F0" height="31.6094" rx="2.5" ry="2.5" style="stroke:#181818;stroke-width:0.5;" width="65" x="108.75" y="313.6797"/><text fill="#000000" font-family="sans-serif" font-size="14" lengthAdjust="spacing" textLength="51" x="115.75" y="335.2129">External</text><rect fill="#E2E2F0" height="31.6094" rx="2.5" ry="2.5" style="stroke:#181818;stroke-width:0.5;" width="106" x="227.25" y="43.6094"/><text fill="#000000" font-family="sans-serif" font-size="14" lengthAdjust="spacing" textLength="92" x="234.25" y="65.1426">Storefront App</text><rect fill="#E2E2F0" height="31.6094" rx="2.5" ry="2.5" style="stroke:#181818;stroke-width:0.5;" width="106" x="227.25" y="313.6797"/><text fill="#000000" font-family="sans-serif" font-size="14" lengthAdjust="spacing" textLength="92" x="234.25" y="335.2129">Storefront App</text><rect fill="#E2E2F0" height="31.6094" rx="2.5" ry="2.5" style="stroke:#181818;stroke-width:0.5;" width="98" x="370.25" y="43.6094"/><text fill="#000000" font-family="sans-serif" font-size="14" lengthAdjust="spacing" textLength="84" x="377.25" y="65.1426">Storefront Bff</text><rect fill="#E2E2F0" height="31.6094" rx="2.5" ry="2.5" style="stroke:#181818;stroke-width:0.5;" width="98" x="370.25" y="313.6797"/><text fill="#000000" font-family="sans-serif" font-size="14" lengthAdjust="spacing" textLength="84" x="377.25" y="335.2129">Storefront Bff</text><rect fill="#E2E2F0" height="31.6094" rx="2.5" ry="2.5" style="stroke:#181818;stroke-width:0.5;" width="108" x="478.25" y="43.6094"/><text fill="#000000" font-family="sans-serif" font-size="14" lengthAdjust="spacing" textLength="94" x="485.25" y="65.1426">Basket Service</text><rect fill="#E2E2F0" height="31.6094" rx="2.5" ry="2.5" style="stroke:#181818;stroke-width:0.5;" width="108" x="478.25" y="313.6797"/><text fill="#000000" font-family="sans-serif" font-size="14" lengthAdjust="spacing" textLength="94" x="485.25" y="335.2129">Basket Service</text><rect fill="#E2E2F0" height="31.6094" rx="2.5" ry="2.5" style="stroke:#181818;stroke-width:0.5;" width="112" x="596.25" y="43.6094"/><text fill="#000000" font-family="sans-serif" font-size="14" lengthAdjust="spacing" textLength="98" x="603.25" y="65.1426">..BasketService</text><rect fill="#E2E2F0" height="31.6094" rx="2.5" ry="2.5" style="stroke:#181818;stroke-width:0.5;" width="112" x="596.25" y="313.6797"/><text fill="#000000" font-family="sans-serif" font-size="14" lengthAdjust="spacing" textLength="98" x="603.25" y="335.2129">..BasketService</text><polygon fill="#181818" points="268.25,104.5703,278.25,108.5703,268.25,112.5703,272.25,108.5703" style="stroke:#181818;stroke-width:1.0;"/><line style="stroke:#181818;stroke-width:1.0;" x1="141.25" x2="274.25" y1="108.5703" y2="108.5703"/><text fill="#000000" font-family="sans-serif" font-size="13" lengthAdjust="spacing" textLength="115" x="148.25" y="103.7139">Update Basket Item</text><path d="M217.25,123.5703 L385.25,123.5703 L385.25,131.9219 L375.25,141.9219 L217.25,141.9219 L217.25,123.5703 " fill="#EEEEEE" style="stroke:#000000;stroke-width:1.5;"/><rect fill="none" height="174.1094" style="stroke:#000000;stroke-width:1.5;" width="521" x="217.25" y="123.5703"/><text fill="#000000" font-family="sans-serif" font-size="13" font-weight="bold" lengthAdjust="spacing" textLength="123" x="232.25" y="138.0654">Update Basket Item</text><polygon fill="#181818" points="407.25,160.2734,417.25,164.2734,407.25,168.2734,411.25,164.2734" style="stroke:#181818;stroke-width:1.0;"/><line style="stroke:#181818;stroke-width:1.0;" x1="280.25" x2="413.25" y1="164.2734" y2="164.2734"/><text fill="#000000" font-family="sans-serif" font-size="13" lengthAdjust="spacing" textLength="115" x="287.25" y="159.417">Update Basket Item</text><path d="M360.25,179.2734 L528.25,179.2734 L528.25,187.625 L518.25,197.625 L360.25,197.625 L360.25,179.2734 " fill="#EEEEEE" style="stroke:#000000;stroke-width:1.5;"/><rect fill="none" height="111.4063" style="stroke:#000000;stroke-width:1.5;" width="368" x="360.25" y="179.2734"/><text fill="#000000" font-family="sans-serif" font-size="13" font-weight="bold" lengthAdjust="spacing" textLength="123" x="375.25" y="193.7686">Update Basket Item</text><polygon fill="#181818" points="640.25,215.9766,650.25,219.9766,640.25,223.9766,644.25,219.9766" style="stroke:#181818;stroke-width:1.0;"/><line style="stroke:#181818;stroke-width:1.0;" x1="419.25" x2="646.25" y1="219.9766" y2="219.9766"/><text fill="#000000" font-family="sans-serif" font-size="13" lengthAdjust="spacing" textLength="70" x="426.25" y="215.1201">Update Item</text><path d="M468.25,234.9766 L590.25,234.9766 L590.25,243.3281 L580.25,253.3281 L468.25,253.3281 L468.25,234.9766 " fill="#EEEEEE" style="stroke:#000000;stroke-width:1.5;"/><rect fill="none" height="48.7031" style="stroke:#000000;stroke-width:1.5;" width="250" x="468.25" y="234.9766"/><text fill="#000000" font-family="sans-serif" font-size="13" font-weight="bold" lengthAdjust="spacing" textLength="77" x="483.25" y="249.4717">Update Item</text><polygon fill="#181818" points="543.25,271.6797,533.25,275.6797,543.25,279.6797,539.25,275.6797" style="stroke:#181818;stroke-width:1.0;"/><line style="stroke:#181818;stroke-width:1.0;" x1="537.25" x2="651.25" y1="275.6797" y2="275.6797"/><text fill="#000000" font-family="sans-serif" font-size="13" lengthAdjust="spacing" textLength="70" x="549.25" y="270.8232">Update Item</text><!--SRC=[nP8zRiCm38LtdOB8RasTEXH8KhV8La380GIRBepAaa8pFxrzwJYkeJW5F1Zee44KzJu-abopGyXX6ve6gK3uS9QhG0ray8uUoJB2ApRMbn8n70Wh2fxJopf62UnZsMLlRFk533l6JiJWuOXUX3DXUCOBWyCJEgMY9QwBEbeHMEKNHlBMhS2si7tQIIQzkN3M9bHyjeJcknN1LW-9_JqLIIkwIkM3iS6N7bprflJuPu8QdqJjJzAcgXOaYLfAkdNJ89tg0kUH-ZyJIX- -AIarlykGlIpNI7X-i2Zgay8nFdfOZhkO2PdHlvZek692fuCSIvdMS8tSvy_fmvmDkWEZBt-F-W40]--></g></svg>