<?xml version="1.0" encoding="us-ascii" standalone="no"?><svg xmlns="http://www.w3.org/2000/svg" xmlns:xlink="http://www.w3.org/1999/xlink" contentStyleType="text/css" height="431px" preserveAspectRatio="none" style="width:508px;height:431px;background:#FFFFFF;" version="1.1" viewBox="0 0 508 431" width="508px" zoomAndPan="magnify"><defs/><g><text fill="#000000" font-family="sans-serif" font-size="14" font-weight="bold" lengthAdjust="spacing" textLength="480" x="10" y="29.5332">Catalog Api - Api - Catalog Api - Delete Item By Id - COMPONENT level</text><rect fill="#FFFFFF" height="381.3828" style="stroke:#181818;stroke-width:0.5;" width="95" x="142" y="44.6094"/><text fill="#000000" font-family="sans-serif" font-size="13" font-weight="bold" lengthAdjust="spacing" textLength="21" x="179" y="58.1045">Api</text><rect fill="#FFFFFF" height="381.3828" style="stroke:#181818;stroke-width:0.5;" width="123" x="334" y="44.6094"/><text fill="#000000" font-family="sans-serif" font-size="13" font-weight="bold" lengthAdjust="spacing" textLength="84" x="353.5" y="58.1045">Infrastructure</text><rect fill="none" height="228.4609" style="stroke:#000000;stroke-width:1.5;" width="337" x="126" y="144.9219"/><rect fill="none" height="61.7031" style="stroke:#000000;stroke-width:1.5;" width="257.5" x="136" y="200.625"/><line style="stroke:#181818;stroke-width:0.5;stroke-dasharray:5.0,5.0;" x1="65" x2="65" y1="97.5703" y2="390.3828"/><line style="stroke:#181818;stroke-width:0.5;stroke-dasharray:5.0,5.0;" x1="189" x2="189" y1="97.5703" y2="390.3828"/><line style="stroke:#181818;stroke-width:0.5;stroke-dasharray:5.0,5.0;" x1="395" x2="395" y1="97.5703" y2="390.3828"/><rect fill="#E2E2F0" height="31.6094" rx="2.5" ry="2.5" style="stroke:#181818;stroke-width:0.5;" width="65" x="33" y="64.9609"/><text fill="#000000" font-family="sans-serif" font-size="14" lengthAdjust="spacing" textLength="51" x="40" y="86.4941">External</text><rect fill="#E2E2F0" height="31.6094" rx="2.5" ry="2.5" style="stroke:#181818;stroke-width:0.5;" width="65" x="33" y="389.3828"/><text fill="#000000" font-family="sans-serif" font-size="14" lengthAdjust="spacing" textLength="51" x="40" y="410.916">External</text><rect fill="#E2E2F0" height="31.6094" rx="2.5" ry="2.5" style="stroke:#181818;stroke-width:0.5;" width="87" x="146" y="64.9609"/><text fill="#000000" font-family="sans-serif" font-size="14" lengthAdjust="spacing" textLength="73" x="153" y="86.4941">Catalog Api</text><rect fill="#E2E2F0" height="31.6094" rx="2.5" ry="2.5" style="stroke:#181818;stroke-width:0.5;" width="87" x="146" y="389.3828"/><text fill="#000000" font-family="sans-serif" font-size="14" lengthAdjust="spacing" textLength="73" x="153" y="410.916">Catalog Api</text><rect fill="#E2E2F0" height="31.6094" rx="2.5" ry="2.5" style="stroke:#181818;stroke-width:0.5;" width="115" x="338" y="64.9609"/><text fill="#000000" font-family="sans-serif" font-size="14" lengthAdjust="spacing" textLength="101" x="345" y="86.4941">Catalog Context</text><rect fill="#E2E2F0" height="31.6094" rx="2.5" ry="2.5" style="stroke:#181818;stroke-width:0.5;" width="115" x="338" y="389.3828"/><text fill="#000000" font-family="sans-serif" font-size="14" lengthAdjust="spacing" textLength="101" x="345" y="410.916">Catalog Context</text><polygon fill="#181818" points="177.5,125.9219,187.5,129.9219,177.5,133.9219,181.5,129.9219" style="stroke:#181818;stroke-width:1.0;"/><line style="stroke:#181818;stroke-width:1.0;" x1="65.5" x2="183.5" y1="129.9219" y2="129.9219"/><text fill="#000000" font-family="sans-serif" font-size="13" lengthAdjust="spacing" textLength="100" x="72.5" y="125.0654">Delete Item By Id</text><path d="M126,144.9219 L280,144.9219 L280,153.2734 L270,163.2734 L126,163.2734 L126,144.9219 " fill="#EEEEEE" style="stroke:#000000;stroke-width:1.5;"/><rect fill="none" height="228.4609" style="stroke:#000000;stroke-width:1.5;" width="337" x="126" y="144.9219"/><text fill="#000000" font-family="sans-serif" font-size="13" font-weight="bold" lengthAdjust="spacing" textLength="109" x="141" y="159.417">Delete Item By Id</text><polygon fill="#181818" points="383.5,181.625,393.5,185.625,383.5,189.625,387.5,185.625" style="stroke:#181818;stroke-width:1.0;"/><line style="stroke:#181818;stroke-width:1.0;" x1="189.5" x2="389.5" y1="185.625" y2="185.625"/><text fill="#000000" font-family="sans-serif" font-size="13" lengthAdjust="spacing" textLength="182" x="196.5" y="180.7686">Catalog Items Single Or Default</text><path d="M136,200.625 L197,200.625 L197,208.9766 L187,218.9766 L136,218.9766 L136,200.625 " fill="#EEEEEE" style="stroke:#000000;stroke-width:1.5;"/><rect fill="none" height="61.7031" style="stroke:#000000;stroke-width:1.5;" width="257.5" x="136" y="200.625"/><text fill="#000000" font-family="sans-serif" font-size="13" font-weight="bold" lengthAdjust="spacing" textLength="16" x="151" y="215.1201">alt</text><text fill="#000000" font-family="sans-serif" font-size="11" font-weight="bold" lengthAdjust="spacing" textLength="69" x="212" y="214.0439">[item is null]</text><line style="stroke:#181818;stroke-width:1.0;" x1="189.5" x2="231.5" y1="241.3281" y2="241.3281"/><line style="stroke:#181818;stroke-width:1.0;" x1="231.5" x2="231.5" y1="241.3281" y2="254.3281"/><line style="stroke:#181818;stroke-width:1.0;" x1="190.5" x2="231.5" y1="254.3281" y2="254.3281"/><polygon fill="#181818" points="200.5,250.3281,190.5,254.3281,200.5,258.3281,196.5,254.3281" style="stroke:#181818;stroke-width:1.0;"/><text fill="#000000" font-family="sans-serif" font-size="13" lengthAdjust="spacing" textLength="185" x="196.5" y="236.4717">Retun (TypedResults.NotFound)</text><polygon fill="#181818" points="383.5,287.6797,393.5,291.6797,383.5,295.6797,387.5,291.6797" style="stroke:#181818;stroke-width:1.0;"/><line style="stroke:#181818;stroke-width:1.0;" x1="189.5" x2="389.5" y1="291.6797" y2="291.6797"/><text fill="#000000" font-family="sans-serif" font-size="13" lengthAdjust="spacing" textLength="130" x="196.5" y="286.8232">Catalog Items Remove</text><polygon fill="#181818" points="383.5,318.0313,393.5,322.0313,383.5,326.0313,387.5,322.0313" style="stroke:#181818;stroke-width:1.0;"/><line style="stroke:#181818;stroke-width:1.0;" x1="189.5" x2="389.5" y1="322.0313" y2="322.0313"/><text fill="#000000" font-family="sans-serif" font-size="13" lengthAdjust="spacing" textLength="124" x="196.5" y="317.1748">Save Changes Async</text><line style="stroke:#181818;stroke-width:1.0;" x1="189.5" x2="231.5" y1="352.3828" y2="352.3828"/><line style="stroke:#181818;stroke-width:1.0;" x1="231.5" x2="231.5" y1="352.3828" y2="365.3828"/><line style="stroke:#181818;stroke-width:1.0;" x1="190.5" x2="231.5" y1="365.3828" y2="365.3828"/><polygon fill="#181818" points="200.5,361.3828,190.5,365.3828,200.5,369.3828,196.5,365.3828" style="stroke:#181818;stroke-width:1.0;"/><text fill="#000000" font-family="sans-serif" font-size="13" lengthAdjust="spacing" textLength="190" x="196.5" y="347.5264">Retun (TypedResults.NoContent)</text><!--SRC=[tLKzRy8m4DtzAwxfqWvawjIX4gKWPIXK1AdpDJc29USSsHSW_xuE7oqKr3A0LE71ybtkyjxplIWtbSEYH33Os5h0boJ8g9HeCGGz53IsW6wbeRFPztClP4W84g4IdXj8yhPYzFes6lQ74p0q9wDKXKvqfYjaWQY_57AC9WBqq7j8E8G3OnTnQgUoG4TfuyFRVBmjNCTAVTWbH3le4To-pxIGWh3MJtzczu3tMWDsReL9OafdjegxBckxCgaT7J3PT8R6k6TPK3Cv7w_3ih9CBBj5YZY7m4VjC4juwj2BgrS8VvDiSMWfPo6wZts4ymRic_VNGPq-8EWyNUvAuV7GQQfmjgwEv2_7uWmIJnr6KBprGYlDGwgv29_ao0N5KwoDA3G2kfMjFN1jpFyM_jjinoGrmzsagIWVam_YV3oqCh0rv_Uj6wzqfcCgxPokHboAy_3Fc24NvA7h6ywkpP8hhInhJwfF]--></g></svg>