<?xml version="1.0" encoding="us-ascii" standalone="no"?><svg xmlns="http://www.w3.org/2000/svg" xmlns:xlink="http://www.w3.org/1999/xlink" contentStyleType="text/css" height="269.375px" preserveAspectRatio="none" style="width:317px;height:269px;background:#FFFFFF;" version="1.1" viewBox="0 0 317 269" width="317.5px" zoomAndPan="magnify"><defs/><g><text fill="#000000" font-family="sans-serif" font-size="8.75" font-weight="bold" lengthAdjust="spacing" textLength="300" x="6.25" y="18.4583">Catalog Api - Api - Catalog Api - Delete Item By Id - COMPONENT level</text><rect fill="#FFFFFF" height="238.3643" style="stroke:#181818;stroke-width:0.3125;" width="59.375" x="88.75" y="27.8809"/><text fill="#000000" font-family="sans-serif" font-size="8.125" font-weight="bold" lengthAdjust="spacing" textLength="13.125" x="111.875" y="36.3153">Api</text><rect fill="#FFFFFF" height="238.3643" style="stroke:#181818;stroke-width:0.3125;" width="76.875" x="208.75" y="27.8809"/><text fill="#000000" font-family="sans-serif" font-size="8.125" font-weight="bold" lengthAdjust="spacing" textLength="52.5" x="220.9375" y="36.3153">Infrastructure</text><rect fill="none" height="142.7881" style="stroke:#000000;stroke-width:0.9375;" width="210.625" x="78.75" y="90.5762"/><rect fill="none" height="38.5645" style="stroke:#000000;stroke-width:0.9375;" width="160.9375" x="85" y="125.3906"/><line style="stroke:#181818;stroke-width:0.3125;stroke-dasharray:5.0,5.0;" x1="40.625" x2="40.625" y1="60.9814" y2="243.9893"/><line style="stroke:#181818;stroke-width:0.3125;stroke-dasharray:5.0,5.0;" x1="118.125" x2="118.125" y1="60.9814" y2="243.9893"/><line style="stroke:#181818;stroke-width:0.3125;stroke-dasharray:5.0,5.0;" x1="246.875" x2="246.875" y1="60.9814" y2="243.9893"/><rect fill="#E2E2F0" height="19.7559" rx="1.5625" ry="1.5625" style="stroke:#181818;stroke-width:0.3125;" width="40.625" x="20.625" y="40.6006"/><text fill="#000000" font-family="sans-serif" font-size="8.75" lengthAdjust="spacing" textLength="31.875" x="25" y="54.0588">External</text><rect fill="#E2E2F0" height="19.7559" rx="1.5625" ry="1.5625" style="stroke:#181818;stroke-width:0.3125;" width="40.625" x="20.625" y="243.3643"/><text fill="#000000" font-family="sans-serif" font-size="8.75" lengthAdjust="spacing" textLength="31.875" x="25" y="256.8225">External</text><rect fill="#E2E2F0" height="19.7559" rx="1.5625" ry="1.5625" style="stroke:#181818;stroke-width:0.3125;" width="54.375" x="91.25" y="40.6006"/><text fill="#000000" font-family="sans-serif" font-size="8.75" lengthAdjust="spacing" textLength="45.625" x="95.625" y="54.0588">Catalog Api</text><rect fill="#E2E2F0" height="19.7559" rx="1.5625" ry="1.5625" style="stroke:#181818;stroke-width:0.3125;" width="54.375" x="91.25" y="243.3643"/><text fill="#000000" font-family="sans-serif" font-size="8.75" lengthAdjust="spacing" textLength="45.625" x="95.625" y="256.8225">Catalog Api</text><rect fill="#E2E2F0" height="19.7559" rx="1.5625" ry="1.5625" style="stroke:#181818;stroke-width:0.3125;" width="71.875" x="211.25" y="40.6006"/><text fill="#000000" font-family="sans-serif" font-size="8.75" lengthAdjust="spacing" textLength="63.125" x="215.625" y="54.0588">Catalog Context</text><rect fill="#E2E2F0" height="19.7559" rx="1.5625" ry="1.5625" style="stroke:#181818;stroke-width:0.3125;" width="71.875" x="211.25" y="243.3643"/><text fill="#000000" font-family="sans-serif" font-size="8.75" lengthAdjust="spacing" textLength="63.125" x="215.625" y="256.8225">Catalog Context</text><polygon fill="#181818" points="110.9375,78.7012,117.1875,81.2012,110.9375,83.7012,113.4375,81.2012" style="stroke:#181818;stroke-width:0.625;"/><line style="stroke:#181818;stroke-width:0.625;" x1="40.9375" x2="114.6875" y1="81.2012" y2="81.2012"/><text fill="#000000" font-family="sans-serif" font-size="8.125" lengthAdjust="spacing" textLength="62.5" x="45.3125" y="78.1659">Delete Item By Id</text><path d="M78.75,90.5762 L175,90.5762 L175,95.7959 L168.75,102.0459 L78.75,102.0459 L78.75,90.5762 " fill="#EEEEEE" style="stroke:#000000;stroke-width:0.9375;"/><rect fill="none" height="142.7881" style="stroke:#000000;stroke-width:0.9375;" width="210.625" x="78.75" y="90.5762"/><text fill="#000000" font-family="sans-serif" font-size="8.125" font-weight="bold" lengthAdjust="spacing" textLength="68.125" x="88.125" y="99.6356">Delete Item By Id</text><polygon fill="#181818" points="239.6875,113.5156,245.9375,116.0156,239.6875,118.5156,242.1875,116.0156" style="stroke:#181818;stroke-width:0.625;"/><line style="stroke:#181818;stroke-width:0.625;" x1="118.4375" x2="243.4375" y1="116.0156" y2="116.0156"/><text fill="#000000" font-family="sans-serif" font-size="8.125" lengthAdjust="spacing" textLength="113.75" x="122.8125" y="112.9803">Catalog Items Single Or Default</text><path d="M85,125.3906 L123.125,125.3906 L123.125,130.6104 L116.875,136.8604 L85,136.8604 L85,125.3906 " fill="#EEEEEE" style="stroke:#000000;stroke-width:0.9375;"/><rect fill="none" height="38.5645" style="stroke:#000000;stroke-width:0.9375;" width="160.9375" x="85" y="125.3906"/><text fill="#000000" font-family="sans-serif" font-size="8.125" font-weight="bold" lengthAdjust="spacing" textLength="10" x="94.375" y="134.4501">alt</text><text fill="#000000" font-family="sans-serif" font-size="6.875" font-weight="bold" lengthAdjust="spacing" textLength="43.125" x="132.5" y="133.7775">[item is null]</text><line style="stroke:#181818;stroke-width:0.625;" x1="118.4375" x2="144.6875" y1="150.8301" y2="150.8301"/><line style="stroke:#181818;stroke-width:0.625;" x1="144.6875" x2="144.6875" y1="150.8301" y2="158.9551"/><line style="stroke:#181818;stroke-width:0.625;" x1="119.0625" x2="144.6875" y1="158.9551" y2="158.9551"/><polygon fill="#181818" points="125.3125,156.4551,119.0625,158.9551,125.3125,161.4551,122.8125,158.9551" style="stroke:#181818;stroke-width:0.625;"/><text fill="#000000" font-family="sans-serif" font-size="8.125" lengthAdjust="spacing" textLength="115.625" x="122.8125" y="147.7948">Retun (TypedResults.NotFound)</text><polygon fill="#181818" points="239.6875,179.7998,245.9375,182.2998,239.6875,184.7998,242.1875,182.2998" style="stroke:#181818;stroke-width:0.625;"/><line style="stroke:#181818;stroke-width:0.625;" x1="118.4375" x2="243.4375" y1="182.2998" y2="182.2998"/><text fill="#000000" font-family="sans-serif" font-size="8.125" lengthAdjust="spacing" textLength="81.25" x="122.8125" y="179.2645">Catalog Items Remove</text><polygon fill="#181818" points="239.6875,198.7695,245.9375,201.2695,239.6875,203.7695,242.1875,201.2695" style="stroke:#181818;stroke-width:0.625;"/><line style="stroke:#181818;stroke-width:0.625;" x1="118.4375" x2="243.4375" y1="201.2695" y2="201.2695"/><text fill="#000000" font-family="sans-serif" font-size="8.125" lengthAdjust="spacing" textLength="77.5" x="122.8125" y="198.2343">Save Changes Async</text><line style="stroke:#181818;stroke-width:0.625;" x1="118.4375" x2="144.6875" y1="220.2393" y2="220.2393"/><line style="stroke:#181818;stroke-width:0.625;" x1="144.6875" x2="144.6875" y1="220.2393" y2="228.3643"/><line style="stroke:#181818;stroke-width:0.625;" x1="119.0625" x2="144.6875" y1="228.3643" y2="228.3643"/><polygon fill="#181818" points="125.3125,225.8643,119.0625,228.3643,125.3125,230.8643,122.8125,228.3643" style="stroke:#181818;stroke-width:0.625;"/><text fill="#000000" font-family="sans-serif" font-size="8.125" lengthAdjust="spacing" textLength="118.75" x="122.8125" y="217.204">Retun (TypedResults.NoContent)</text><!--SRC=[tLN1Ji904BtlLunuqGED1-F1WmaY93q8Xf9u7kbGDcvdczqfqBzt2wXKY7A0nD13qvcTsVVUpjlqed2OvGW6AriA-9m46PL_rroWmnpIGiFTZLAYnH1qKT3O33eXszwycxadCYG4iL0EZnN4QLqnV7uP3dg3CHYQar4gR2rweWjaWLPlAUGOJGlGG_SsvX3sZLr4YPtA0XqbbG-x-UYpS1qhzMQNqDf2Ry7bwqmBAGZFUlLdjW7SQ0tOgHKcYIYPsIBgk4dTDP7IqGwJJMTeZBgM1JMJyz4wp0lBnB9Tf8XJ27pK5hEOfmwzk7A5y3V96eUMSXIYJUmzd3TWtxo_FjJX0uBsm-cE5EvtdQOoPyjYJ_vqB8uWyT1X1CMVNgYbUKWqP-5A3brGFCNIY48Ze6lPsWENnlnluR_DTaHICboDguBI4VaWpaS3AtrRSdfTk_5CPpgYtCxfRCGbE0__Z1boHXuwlkB9kLbofPLbxKdr0G00]--></g></svg>