<?xml version="1.0" encoding="us-ascii" standalone="no"?><svg xmlns="http://www.w3.org/2000/svg" xmlns:xlink="http://www.w3.org/1999/xlink" contentStyleType="text/css" height="431px" preserveAspectRatio="none" style="width:582px;height:431px;background:#FFFFFF;" version="1.1" viewBox="0 0 582 431" width="582px" zoomAndPan="magnify"><defs/><g><text fill="#000000" font-family="sans-serif" font-size="14" font-weight="bold" lengthAdjust="spacing" textLength="554" x="10" y="29.5332">Catalog Api - Api - Catalog Api - Delete Item By Id - Sequence - Component level</text><rect fill="#FFFFFF" height="381.3828" style="stroke:#181818;stroke-width:0.5;" width="95" x="179" y="44.6094"/><text fill="#000000" font-family="sans-serif" font-size="13" font-weight="bold" lengthAdjust="spacing" textLength="21" x="216" y="58.1045">Api</text><rect fill="#FFFFFF" height="381.3828" style="stroke:#181818;stroke-width:0.5;" width="123" x="371" y="44.6094"/><text fill="#000000" font-family="sans-serif" font-size="13" font-weight="bold" lengthAdjust="spacing" textLength="84" x="390.5" y="58.1045">Infrastructure</text><rect fill="none" height="228.4609" style="stroke:#000000;stroke-width:1.5;" width="337" x="163" y="144.9219"/><rect fill="none" height="61.7031" style="stroke:#000000;stroke-width:1.5;" width="257.5" x="173" y="200.625"/><line style="stroke:#181818;stroke-width:0.5;stroke-dasharray:5.0,5.0;" x1="102" x2="102" y1="97.5703" y2="390.3828"/><line style="stroke:#181818;stroke-width:0.5;stroke-dasharray:5.0,5.0;" x1="226" x2="226" y1="97.5703" y2="390.3828"/><line style="stroke:#181818;stroke-width:0.5;stroke-dasharray:5.0,5.0;" x1="432" x2="432" y1="97.5703" y2="390.3828"/><rect fill="#E2E2F0" height="31.6094" rx="2.5" ry="2.5" style="stroke:#181818;stroke-width:0.5;" width="65" x="70" y="64.9609"/><text fill="#000000" font-family="sans-serif" font-size="14" lengthAdjust="spacing" textLength="51" x="77" y="86.4941">External</text><rect fill="#E2E2F0" height="31.6094" rx="2.5" ry="2.5" style="stroke:#181818;stroke-width:0.5;" width="65" x="70" y="389.3828"/><text fill="#000000" font-family="sans-serif" font-size="14" lengthAdjust="spacing" textLength="51" x="77" y="410.916">External</text><rect fill="#E2E2F0" height="31.6094" rx="2.5" ry="2.5" style="stroke:#181818;stroke-width:0.5;" width="87" x="183" y="64.9609"/><text fill="#000000" font-family="sans-serif" font-size="14" lengthAdjust="spacing" textLength="73" x="190" y="86.4941">Catalog Api</text><rect fill="#E2E2F0" height="31.6094" rx="2.5" ry="2.5" style="stroke:#181818;stroke-width:0.5;" width="87" x="183" y="389.3828"/><text fill="#000000" font-family="sans-serif" font-size="14" lengthAdjust="spacing" textLength="73" x="190" y="410.916">Catalog Api</text><rect fill="#E2E2F0" height="31.6094" rx="2.5" ry="2.5" style="stroke:#181818;stroke-width:0.5;" width="115" x="375" y="64.9609"/><text fill="#000000" font-family="sans-serif" font-size="14" lengthAdjust="spacing" textLength="101" x="382" y="86.4941">Catalog Context</text><rect fill="#E2E2F0" height="31.6094" rx="2.5" ry="2.5" style="stroke:#181818;stroke-width:0.5;" width="115" x="375" y="389.3828"/><text fill="#000000" font-family="sans-serif" font-size="14" lengthAdjust="spacing" textLength="101" x="382" y="410.916">Catalog Context</text><polygon fill="#181818" points="214.5,125.9219,224.5,129.9219,214.5,133.9219,218.5,129.9219" style="stroke:#181818;stroke-width:1.0;"/><line style="stroke:#181818;stroke-width:1.0;" x1="102.5" x2="220.5" y1="129.9219" y2="129.9219"/><text fill="#000000" font-family="sans-serif" font-size="13" lengthAdjust="spacing" textLength="100" x="109.5" y="125.0654">Delete Item By Id</text><path d="M163,144.9219 L317,144.9219 L317,153.2734 L307,163.2734 L163,163.2734 L163,144.9219 " fill="#EEEEEE" style="stroke:#000000;stroke-width:1.5;"/><rect fill="none" height="228.4609" style="stroke:#000000;stroke-width:1.5;" width="337" x="163" y="144.9219"/><text fill="#000000" font-family="sans-serif" font-size="13" font-weight="bold" lengthAdjust="spacing" textLength="109" x="178" y="159.417">Delete Item By Id</text><polygon fill="#181818" points="420.5,181.625,430.5,185.625,420.5,189.625,424.5,185.625" style="stroke:#181818;stroke-width:1.0;"/><line style="stroke:#181818;stroke-width:1.0;" x1="226.5" x2="426.5" y1="185.625" y2="185.625"/><text fill="#000000" font-family="sans-serif" font-size="13" lengthAdjust="spacing" textLength="182" x="233.5" y="180.7686">Catalog Items Single Or Default</text><path d="M173,200.625 L234,200.625 L234,208.9766 L224,218.9766 L173,218.9766 L173,200.625 " fill="#EEEEEE" style="stroke:#000000;stroke-width:1.5;"/><rect fill="none" height="61.7031" style="stroke:#000000;stroke-width:1.5;" width="257.5" x="173" y="200.625"/><text fill="#000000" font-family="sans-serif" font-size="13" font-weight="bold" lengthAdjust="spacing" textLength="16" x="188" y="215.1201">alt</text><text fill="#000000" font-family="sans-serif" font-size="11" font-weight="bold" lengthAdjust="spacing" textLength="69" x="249" y="214.0439">[item is null]</text><line style="stroke:#181818;stroke-width:1.0;" x1="226.5" x2="268.5" y1="241.3281" y2="241.3281"/><line style="stroke:#181818;stroke-width:1.0;" x1="268.5" x2="268.5" y1="241.3281" y2="254.3281"/><line style="stroke:#181818;stroke-width:1.0;" x1="227.5" x2="268.5" y1="254.3281" y2="254.3281"/><polygon fill="#181818" points="237.5,250.3281,227.5,254.3281,237.5,258.3281,233.5,254.3281" style="stroke:#181818;stroke-width:1.0;"/><text fill="#000000" font-family="sans-serif" font-size="13" lengthAdjust="spacing" textLength="185" x="233.5" y="236.4717">Retun (TypedResults.NotFound)</text><polygon fill="#181818" points="420.5,287.6797,430.5,291.6797,420.5,295.6797,424.5,291.6797" style="stroke:#181818;stroke-width:1.0;"/><line style="stroke:#181818;stroke-width:1.0;" x1="226.5" x2="426.5" y1="291.6797" y2="291.6797"/><text fill="#000000" font-family="sans-serif" font-size="13" lengthAdjust="spacing" textLength="130" x="233.5" y="286.8232">Catalog Items Remove</text><polygon fill="#181818" points="420.5,318.0313,430.5,322.0313,420.5,326.0313,424.5,322.0313" style="stroke:#181818;stroke-width:1.0;"/><line style="stroke:#181818;stroke-width:1.0;" x1="226.5" x2="426.5" y1="322.0313" y2="322.0313"/><text fill="#000000" font-family="sans-serif" font-size="13" lengthAdjust="spacing" textLength="124" x="233.5" y="317.1748">Save Changes Async</text><line style="stroke:#181818;stroke-width:1.0;" x1="226.5" x2="268.5" y1="352.3828" y2="352.3828"/><line style="stroke:#181818;stroke-width:1.0;" x1="268.5" x2="268.5" y1="352.3828" y2="365.3828"/><line style="stroke:#181818;stroke-width:1.0;" x1="227.5" x2="268.5" y1="365.3828" y2="365.3828"/><polygon fill="#181818" points="237.5,361.3828,227.5,365.3828,237.5,369.3828,233.5,365.3828" style="stroke:#181818;stroke-width:1.0;"/><text fill="#000000" font-family="sans-serif" font-size="13" lengthAdjust="spacing" textLength="190" x="233.5" y="347.5264">Retun (TypedResults.NoContent)</text><!--SRC=[tLN1Ji904BtlLupreWTwykJ1154IBffG4yzZEvHDjhDrTnRetxkbHK6CSe34q4FJUPtfUw_pcbxK3iiAmM1ZWu2lI91HAT5Y24OeQ6m9mrh3e3_lOWzaI0WcGXNSDp0f8fRHUo3EgMssLMsPMC3GWenIDJhHkQunGidZIiWncWJGm-Xcmh4S6xjCCpkJ9JhA6XyVxDDDOrShzMPNa6m9IU3oTQw55CIZk_iTtI7U6OtSXHKcIIcRspeTkhoToYKusbFIJyR1T6HPK3CvdtPbRtMxIH4N4FMeBMKJdZdquiAQuM-HBG-jv2X2Txb_qDoJVUd-l527BmW6TwTxfN2x7pfLEXlg7_3JgJY2nKEN4Hrlij1Qyv1fBkFN-UoYuna68mgDW6vjQmySZFdVnd_RxPGaC5ozD3KLK_BHd4-Vh8njuEAwJUEPxdHAbLtGsPZBS15_7tFaaZmCVSFvkKLoxPMbowJw0000]--></g></svg>