<?xml version="1.0" encoding="us-ascii" standalone="no"?><svg xmlns="http://www.w3.org/2000/svg" xmlns:xlink="http://www.w3.org/1999/xlink" contentStyleType="text/css" height="489px" preserveAspectRatio="none" style="width:712px;height:489px;background:#FFFFFF;" version="1.1" viewBox="0 0 712 489" width="712px" zoomAndPan="magnify"><defs/><g><text fill="#000000" font-family="sans-serif" font-size="14" font-weight="bold" lengthAdjust="spacing" textLength="684" x="10" y="29.5332">Big Bank Plc - Internet Banking - Mobile App - View Customer Details - Sequence - Container level</text><rect fill="#FFFFFF" height="439.1406" style="stroke:#181818;stroke-width:0.5;" width="268" x="178" y="44.6094"/><text fill="#000000" font-family="sans-serif" font-size="13" font-weight="bold" lengthAdjust="spacing" textLength="105" x="259.5" y="58.1045">Internet Banking</text><rect fill="none" height="269.8672" style="stroke:#000000;stroke-width:1.5;" width="492.5" x="172" y="161.2734"/><rect fill="none" height="65.0547" style="stroke:#000000;stroke-width:1.5;" width="330.5" x="324" y="233.3281"/><rect fill="none" height="65.0547" style="stroke:#000000;stroke-width:1.5;" width="330.5" x="324" y="359.0859"/><line style="stroke:#181818;stroke-width:0.5;stroke-dasharray:5.0,5.0;" x1="67.5" x2="67.5" y1="97.5703" y2="448.1406"/><line style="stroke:#181818;stroke-width:0.5;stroke-dasharray:5.0,5.0;" x1="224" x2="224" y1="97.5703" y2="448.1406"/><line style="stroke:#181818;stroke-width:0.5;stroke-dasharray:5.0,5.0;" x1="388" x2="388" y1="97.5703" y2="448.1406"/><line style="stroke:#181818;stroke-width:0.5;stroke-dasharray:5.0,5.0;" x1="551.5" x2="551.5" y1="97.5703" y2="448.1406"/><rect fill="#E2E2F0" height="31.6094" rx="2.5" ry="2.5" style="stroke:#181818;stroke-width:0.5;" width="65" x="35.5" y="64.9609"/><text fill="#000000" font-family="sans-serif" font-size="14" lengthAdjust="spacing" textLength="51" x="42.5" y="86.4941">External</text><rect fill="#E2E2F0" height="31.6094" rx="2.5" ry="2.5" style="stroke:#181818;stroke-width:0.5;" width="65" x="35.5" y="447.1406"/><text fill="#000000" font-family="sans-serif" font-size="14" lengthAdjust="spacing" textLength="51" x="42.5" y="468.6738">External</text><rect fill="#E2E2F0" height="31.6094" rx="2.5" ry="2.5" style="stroke:#181818;stroke-width:0.5;" width="84" x="182" y="64.9609"/><text fill="#000000" font-family="sans-serif" font-size="14" lengthAdjust="spacing" textLength="70" x="189" y="86.4941">Mobile App</text><rect fill="#E2E2F0" height="31.6094" rx="2.5" ry="2.5" style="stroke:#181818;stroke-width:0.5;" width="84" x="182" y="447.1406"/><text fill="#000000" font-family="sans-serif" font-size="14" lengthAdjust="spacing" textLength="70" x="189" y="468.6738">Mobile App</text><rect fill="#E2E2F0" height="31.6094" rx="2.5" ry="2.5" style="stroke:#181818;stroke-width:0.5;" width="108" x="334" y="64.9609"/><text fill="#000000" font-family="sans-serif" font-size="14" lengthAdjust="spacing" textLength="94" x="341" y="86.4941">API Application</text><rect fill="#E2E2F0" height="31.6094" rx="2.5" ry="2.5" style="stroke:#181818;stroke-width:0.5;" width="108" x="334" y="447.1406"/><text fill="#000000" font-family="sans-serif" font-size="14" lengthAdjust="spacing" textLength="94" x="341" y="468.6738">API Application</text><rect fill="#E2E2F0" height="31.6094" rx="2.5" ry="2.5" style="stroke:#181818;stroke-width:0.5;" width="185" x="459.5" y="64.9609"/><text fill="#000000" font-family="sans-serif" font-size="14" lengthAdjust="spacing" textLength="171" x="466.5" y="86.4941">Mainframe Banking System</text><rect fill="#E2E2F0" height="31.6094" rx="2.5" ry="2.5" style="stroke:#181818;stroke-width:0.5;" width="185" x="459.5" y="447.1406"/><text fill="#000000" font-family="sans-serif" font-size="14" lengthAdjust="spacing" textLength="171" x="466.5" y="468.6738">Mainframe Banking System</text><polygon fill="#181818" points="212,142.2734,222,146.2734,212,150.2734,216,146.2734" style="stroke:#181818;stroke-width:1.0;"/><line style="stroke:#181818;stroke-width:1.0;" x1="68" x2="218" y1="146.2734" y2="146.2734"/><text fill="#000000" font-family="sans-serif" font-size="13" lengthAdjust="spacing" textLength="132" x="75" y="125.0654">View Customer Details</text><text fill="#000000" font-family="sans-serif" font-size="13" lengthAdjust="spacing" textLength="49" x="75" y="141.417">[HTTPS]</text><path d="M172,161.2734 L360,161.2734 L360,169.625 L350,179.625 L172,179.625 L172,161.2734 " fill="#EEEEEE" style="stroke:#000000;stroke-width:1.5;"/><rect fill="none" height="269.8672" style="stroke:#000000;stroke-width:1.5;" width="492.5" x="172" y="161.2734"/><text fill="#000000" font-family="sans-serif" font-size="13" font-weight="bold" lengthAdjust="spacing" textLength="143" x="187" y="175.7686">View Customer Details</text><polygon fill="#181818" points="376,214.3281,386,218.3281,376,222.3281,380,218.3281" style="stroke:#181818;stroke-width:1.0;"/><line style="stroke:#181818;stroke-width:1.0;" x1="224" x2="382" y1="218.3281" y2="218.3281"/><text fill="#000000" font-family="sans-serif" font-size="13" lengthAdjust="spacing" textLength="81" x="231" y="197.1201">Get Customer</text><text fill="#000000" font-family="sans-serif" font-size="13" lengthAdjust="spacing" textLength="49" x="231" y="213.4717">[HTTPS]</text><path d="M324,233.3281 L455,233.3281 L455,241.6797 L445,251.6797 L324,251.6797 L324,233.3281 " fill="#EEEEEE" style="stroke:#000000;stroke-width:1.5;"/><rect fill="none" height="65.0547" style="stroke:#000000;stroke-width:1.5;" width="330.5" x="324" y="233.3281"/><text fill="#000000" font-family="sans-serif" font-size="13" font-weight="bold" lengthAdjust="spacing" textLength="86" x="339" y="247.8232">Get Customer</text><polygon fill="#181818" points="540,286.3828,550,290.3828,540,294.3828,544,290.3828" style="stroke:#181818;stroke-width:1.0;"/><line style="stroke:#181818;stroke-width:1.0;" x1="388" x2="546" y1="290.3828" y2="290.3828"/><text fill="#000000" font-family="sans-serif" font-size="13" lengthAdjust="spacing" textLength="81" x="395" y="269.1748">Get Customer</text><text fill="#000000" font-family="sans-serif" font-size="13" lengthAdjust="spacing" textLength="49" x="395" y="285.5264">[TCP/IP]</text><polygon fill="#181818" points="376,340.0859,386,344.0859,376,348.0859,380,344.0859" style="stroke:#181818;stroke-width:1.0;"/><line style="stroke:#181818;stroke-width:1.0;" x1="224" x2="382" y1="344.0859" y2="344.0859"/><text fill="#000000" font-family="sans-serif" font-size="13" lengthAdjust="spacing" textLength="140" x="231" y="322.8779">Get Customer Accounts</text><text fill="#000000" font-family="sans-serif" font-size="13" lengthAdjust="spacing" textLength="49" x="231" y="339.2295">[HTTPS]</text><path d="M324,359.0859 L516,359.0859 L516,367.4375 L506,377.4375 L324,377.4375 L324,359.0859 " fill="#EEEEEE" style="stroke:#000000;stroke-width:1.5;"/><rect fill="none" height="65.0547" style="stroke:#000000;stroke-width:1.5;" width="330.5" x="324" y="359.0859"/><text fill="#000000" font-family="sans-serif" font-size="13" font-weight="bold" lengthAdjust="spacing" textLength="147" x="339" y="373.5811">Get Customer Accounts</text><polygon fill="#181818" points="540,412.1406,550,416.1406,540,420.1406,544,416.1406" style="stroke:#181818;stroke-width:1.0;"/><line style="stroke:#181818;stroke-width:1.0;" x1="388" x2="546" y1="416.1406" y2="416.1406"/><text fill="#000000" font-family="sans-serif" font-size="13" lengthAdjust="spacing" textLength="140" x="395" y="394.9326">Get Customer Accounts</text><text fill="#000000" font-family="sans-serif" font-size="13" lengthAdjust="spacing" textLength="49" x="395" y="411.2842">[TCP/IP]</text><!--SRC=[pL9DJuD04BtlhvZWkNZnvC64uXU79YGGFMWFMvpYnkqkieFKV-z02zAFL6Czb6GJTdRclJTlXXHfXB7AOIpD6yGwWn54Xh0qI6rCcPn34pjJd1WK1LyU5DOGLexi0akuHf9AEuud-5wXoP1_GsiuQlXPumTg8GfPaifK8Gs1TxDi2AJsG3e8Brg-MsrhFx5pgcM9oQSZN3Y_IrpTXPZP9NZRyZmuUtnLX0Bus-3vLjqoSPjD2JUvGzHXhY7zNh_pLo2CiOiVn543hbKcILbp10aZ3O04cXVWNhTict3ol9GBx0UpGlw9jwzRbtLk_jvv65qTwnvSxj-RP_DqdwPnCXLvQQjYVv8ublpF-ZS7mqtSyU9ryhQr3z_4l_0Trhr_iBiYqp0-Z-9firOdwYG4MMOhG-wGfNtIoNWxb3qqkJdY2m00]--></g></svg>