<?xml version="1.0" encoding="us-ascii" standalone="no"?><svg xmlns="http://www.w3.org/2000/svg" xmlns:xlink="http://www.w3.org/1999/xlink" contentStyleType="text/css" height="351px" preserveAspectRatio="none" style="width:843px;height:351px;background:#FFFFFF;" version="1.1" viewBox="0 0 843 351" width="843px" zoomAndPan="magnify"><defs/><g><text fill="#000000" font-family="sans-serif" font-size="14" font-weight="bold" lengthAdjust="spacing" textLength="815" x="10" y="29.5332">ECommercePlatform - GenerateDemand - Storefront - Storefront App - Delete Basket Item - Sequence - Context level</text><rect fill="none" height="174.1094" style="stroke:#000000;stroke-width:1.5;" width="517" x="209.25" y="123.5703"/><rect fill="none" height="111.4063" style="stroke:#000000;stroke-width:1.5;" width="368" x="348.25" y="179.2734"/><rect fill="none" height="48.7031" style="stroke:#000000;stroke-width:1.5;" width="250" x="456.25" y="234.9766"/><line style="stroke:#181818;stroke-width:0.5;stroke-dasharray:5.0,5.0;" x1="136.75" x2="136.75" y1="76.2188" y2="314.6797"/><line style="stroke:#181818;stroke-width:0.5;stroke-dasharray:5.0,5.0;" x1="272.25" x2="272.25" y1="76.2188" y2="314.6797"/><line style="stroke:#181818;stroke-width:0.5;stroke-dasharray:5.0,5.0;" x1="407.25" x2="407.25" y1="76.2188" y2="314.6797"/><line style="stroke:#181818;stroke-width:0.5;stroke-dasharray:5.0,5.0;" x1="520.25" x2="520.25" y1="76.2188" y2="314.6797"/><line style="stroke:#181818;stroke-width:0.5;stroke-dasharray:5.0,5.0;" x1="640.25" x2="640.25" y1="76.2188" y2="314.6797"/><rect fill="#E2E2F0" height="31.6094" rx="2.5" ry="2.5" style="stroke:#181818;stroke-width:0.5;" width="65" x="104.75" y="43.6094"/><text fill="#000000" font-family="sans-serif" font-size="14" lengthAdjust="spacing" textLength="51" x="111.75" y="65.1426">External</text><rect fill="#E2E2F0" height="31.6094" rx="2.5" ry="2.5" style="stroke:#181818;stroke-width:0.5;" width="65" x="104.75" y="313.6797"/><text fill="#000000" font-family="sans-serif" font-size="14" lengthAdjust="spacing" textLength="51" x="111.75" y="335.2129">External</text><rect fill="#E2E2F0" height="31.6094" rx="2.5" ry="2.5" style="stroke:#181818;stroke-width:0.5;" width="106" x="219.25" y="43.6094"/><text fill="#000000" font-family="sans-serif" font-size="14" lengthAdjust="spacing" textLength="92" x="226.25" y="65.1426">Storefront App</text><rect fill="#E2E2F0" height="31.6094" rx="2.5" ry="2.5" style="stroke:#181818;stroke-width:0.5;" width="106" x="219.25" y="313.6797"/><text fill="#000000" font-family="sans-serif" font-size="14" lengthAdjust="spacing" textLength="92" x="226.25" y="335.2129">Storefront App</text><rect fill="#E2E2F0" height="31.6094" rx="2.5" ry="2.5" style="stroke:#181818;stroke-width:0.5;" width="98" x="358.25" y="43.6094"/><text fill="#000000" font-family="sans-serif" font-size="14" lengthAdjust="spacing" textLength="84" x="365.25" y="65.1426">Storefront Bff</text><rect fill="#E2E2F0" height="31.6094" rx="2.5" ry="2.5" style="stroke:#181818;stroke-width:0.5;" width="98" x="358.25" y="313.6797"/><text fill="#000000" font-family="sans-serif" font-size="14" lengthAdjust="spacing" textLength="84" x="365.25" y="335.2129">Storefront Bff</text><rect fill="#E2E2F0" height="31.6094" rx="2.5" ry="2.5" style="stroke:#181818;stroke-width:0.5;" width="108" x="466.25" y="43.6094"/><text fill="#000000" font-family="sans-serif" font-size="14" lengthAdjust="spacing" textLength="94" x="473.25" y="65.1426">Basket Service</text><rect fill="#E2E2F0" height="31.6094" rx="2.5" ry="2.5" style="stroke:#181818;stroke-width:0.5;" width="108" x="466.25" y="313.6797"/><text fill="#000000" font-family="sans-serif" font-size="14" lengthAdjust="spacing" textLength="94" x="473.25" y="335.2129">Basket Service</text><rect fill="#E2E2F0" height="31.6094" rx="2.5" ry="2.5" style="stroke:#181818;stroke-width:0.5;" width="112" x="584.25" y="43.6094"/><text fill="#000000" font-family="sans-serif" font-size="14" lengthAdjust="spacing" textLength="98" x="591.25" y="65.1426">..BasketService</text><rect fill="#E2E2F0" height="31.6094" rx="2.5" ry="2.5" style="stroke:#181818;stroke-width:0.5;" width="112" x="584.25" y="313.6797"/><text fill="#000000" font-family="sans-serif" font-size="14" lengthAdjust="spacing" textLength="98" x="591.25" y="335.2129">..BasketService</text><polygon fill="#181818" points="260.25,104.5703,270.25,108.5703,260.25,112.5703,264.25,108.5703" style="stroke:#181818;stroke-width:1.0;"/><line style="stroke:#181818;stroke-width:1.0;" x1="137.25" x2="266.25" y1="108.5703" y2="108.5703"/><text fill="#000000" font-family="sans-serif" font-size="13" lengthAdjust="spacing" textLength="111" x="144.25" y="103.7139">Delete Basket Item</text><path d="M209.25,123.5703 L373.25,123.5703 L373.25,131.9219 L363.25,141.9219 L209.25,141.9219 L209.25,123.5703 " fill="#EEEEEE" style="stroke:#000000;stroke-width:1.5;"/><rect fill="none" height="174.1094" style="stroke:#000000;stroke-width:1.5;" width="517" x="209.25" y="123.5703"/><text fill="#000000" font-family="sans-serif" font-size="13" font-weight="bold" lengthAdjust="spacing" textLength="119" x="224.25" y="138.0654">Delete Basket Item</text><polygon fill="#181818" points="395.25,160.2734,405.25,164.2734,395.25,168.2734,399.25,164.2734" style="stroke:#181818;stroke-width:1.0;"/><line style="stroke:#181818;stroke-width:1.0;" x1="272.25" x2="401.25" y1="164.2734" y2="164.2734"/><text fill="#000000" font-family="sans-serif" font-size="13" lengthAdjust="spacing" textLength="111" x="279.25" y="159.417">Delete Basket Item</text><path d="M348.25,179.2734 L512.25,179.2734 L512.25,187.625 L502.25,197.625 L348.25,197.625 L348.25,179.2734 " fill="#EEEEEE" style="stroke:#000000;stroke-width:1.5;"/><rect fill="none" height="111.4063" style="stroke:#000000;stroke-width:1.5;" width="368" x="348.25" y="179.2734"/><text fill="#000000" font-family="sans-serif" font-size="13" font-weight="bold" lengthAdjust="spacing" textLength="119" x="363.25" y="193.7686">Delete Basket Item</text><polygon fill="#181818" points="628.25,215.9766,638.25,219.9766,628.25,223.9766,632.25,219.9766" style="stroke:#181818;stroke-width:1.0;"/><line style="stroke:#181818;stroke-width:1.0;" x1="407.25" x2="634.25" y1="219.9766" y2="219.9766"/><text fill="#000000" font-family="sans-serif" font-size="13" lengthAdjust="spacing" textLength="66" x="414.25" y="215.1201">Delete Item</text><path d="M456.25,234.9766 L574.25,234.9766 L574.25,243.3281 L564.25,253.3281 L456.25,253.3281 L456.25,234.9766 " fill="#EEEEEE" style="stroke:#000000;stroke-width:1.5;"/><rect fill="none" height="48.7031" style="stroke:#000000;stroke-width:1.5;" width="250" x="456.25" y="234.9766"/><text fill="#000000" font-family="sans-serif" font-size="13" font-weight="bold" lengthAdjust="spacing" textLength="73" x="471.25" y="249.4717">Delete Item</text><polygon fill="#181818" points="531.25,271.6797,521.25,275.6797,531.25,279.6797,527.25,275.6797" style="stroke:#181818;stroke-width:1.0;"/><line style="stroke:#181818;stroke-width:1.0;" x1="525.25" x2="639.25" y1="275.6797" y2="275.6797"/><text fill="#000000" font-family="sans-serif" font-size="13" lengthAdjust="spacing" textLength="66" x="537.25" y="270.8232">Delete Item</text><!--SRC=[nP9DRiCW48Ntd09b7rPTTL6fST8gkqgS03cFoYe6EfxyzFQTn6ajubJomb8NI30pl6_U03SSe3TLQbjGZRVWs2TgzLA_8e8SOutMnPq4B2U2fnIvF3pdB84r0XXwvReFiDuopXeMdtl46hAjf1GdrW471AMo8sxg9ZiHM6nE38ekBBJhTFMmbKfw2UbeRF9yT0JxrObWPtuA-tCfKdPqaHhPCgKfCzmPeOQKgFr9Mda_8qdKIj9rcXPqQ6fC8_LtHfG-V5LIQlgKzV9fla7gnpiVHRrJskTxYVcuivcGD_eN4sUkc33bGmwjZ7kuH6xhfynXoW-w0IFkVfVw1W00]--></g></svg>