<?xml version="1.0" encoding="us-ascii" standalone="no"?><svg xmlns="http://www.w3.org/2000/svg" xmlns:xlink="http://www.w3.org/1999/xlink" contentStyleType="text/css" height="442px" preserveAspectRatio="none" style="width:1056px;height:442px;background:#FFFFFF;" version="1.1" viewBox="0 0 1056 442" width="1056px" zoomAndPan="magnify"><defs/><g><text fill="#000000" font-family="sans-serif" font-size="14" font-weight="bold" lengthAdjust="spacing" textLength="1028" x="10" y="29.5332">E Commerce Platform - Deliver - Fraud Management - Fraud Service - Message Handler - Handle Order Created Event - Sequence - Container level</text><rect fill="#FFFFFF" height="385.0313" style="stroke:#181818;stroke-width:0.5;" width="376.5" x="302.5" y="44.6094"/><text fill="#000000" font-family="sans-serif" font-size="13" font-weight="bold" lengthAdjust="spacing" textLength="89" x="446.25" y="58.1045">Fraud Service</text><rect fill="#FFFFFF" height="385.0313" style="stroke:#181818;stroke-width:0.5;" width="96" x="681" y="44.6094"/><text fill="#000000" font-family="sans-serif" font-size="13" font-weight="bold" lengthAdjust="spacing" textLength="88" x="685" y="58.1045">Order Service</text><rect fill="none" height="170.1094" style="stroke:#000000;stroke-width:1.5;" width="596.5" x="296.5" y="175.9219"/><line style="stroke:#181818;stroke-width:0.5;stroke-dasharray:5.0,5.0;" x1="183" x2="183" y1="128.5703" y2="363.0313"/><line style="stroke:#181818;stroke-width:0.5;stroke-dasharray:5.0,5.0;" x1="368.5" x2="368.5" y1="128.5703" y2="363.0313"/><line style="stroke:#181818;stroke-width:0.5;stroke-dasharray:5.0,5.0;" x1="543" x2="543" y1="128.5703" y2="363.0313"/><line style="stroke:#181818;stroke-width:0.5;stroke-dasharray:5.0,5.0;" x1="631" x2="631" y1="128.5703" y2="363.0313"/><line style="stroke:#181818;stroke-width:0.5;stroke-dasharray:5.0,5.0;" x1="729" x2="729" y1="128.5703" y2="363.0313"/><line style="stroke:#181818;stroke-width:0.5;stroke-dasharray:5.0,5.0;" x1="833" x2="833" y1="128.5703" y2="363.0313"/><rect fill="#E2E2F0" height="31.6094" rx="2.5" ry="2.5" style="stroke:#181818;stroke-width:0.5;" width="65" x="151" y="95.9609"/><text fill="#000000" font-family="sans-serif" font-size="14" lengthAdjust="spacing" textLength="51" x="158" y="117.4941">External</text><rect fill="#E2E2F0" height="31.6094" rx="2.5" ry="2.5" style="stroke:#181818;stroke-width:0.5;" width="65" x="151" y="362.0313"/><text fill="#000000" font-family="sans-serif" font-size="14" lengthAdjust="spacing" textLength="51" x="158" y="383.5645">External</text><rect fill="#E2E2F0" height="31.6094" rx="2.5" ry="2.5" style="stroke:#181818;stroke-width:0.5;" width="124" x="306.5" y="95.9609"/><text fill="#000000" font-family="sans-serif" font-size="14" lengthAdjust="spacing" textLength="110" x="313.5" y="117.4941">Message Handler</text><rect fill="#E2E2F0" height="31.6094" rx="2.5" ry="2.5" style="stroke:#181818;stroke-width:0.5;" width="124" x="306.5" y="362.0313"/><text fill="#000000" font-family="sans-serif" font-size="14" lengthAdjust="spacing" textLength="110" x="313.5" y="383.5645">Message Handler</text><text fill="#000000" font-family="sans-serif" font-size="14" lengthAdjust="spacing" textLength="61" x="510" y="125.4941">Database</text><path d="M525.5,74.9609 C525.5,64.9609 543.5,64.9609 543.5,64.9609 C543.5,64.9609 561.5,64.9609 561.5,74.9609 L561.5,100.9609 C561.5,110.9609 543.5,110.9609 543.5,110.9609 C543.5,110.9609 525.5,110.9609 525.5,100.9609 L525.5,74.9609 " fill="#E2E2F0" style="stroke:#181818;stroke-width:1.5;"/><path d="M525.5,74.9609 C525.5,84.9609 543.5,84.9609 543.5,84.9609 C543.5,84.9609 561.5,84.9609 561.5,74.9609 " fill="none" style="stroke:#181818;stroke-width:1.5;"/><text fill="#000000" font-family="sans-serif" font-size="14" lengthAdjust="spacing" textLength="61" x="510" y="376.5645">Database</text><path d="M525.5,389.6406 C525.5,379.6406 543.5,379.6406 543.5,379.6406 C543.5,379.6406 561.5,379.6406 561.5,389.6406 L561.5,415.6406 C561.5,425.6406 543.5,425.6406 543.5,425.6406 C543.5,425.6406 525.5,425.6406 525.5,415.6406 L525.5,389.6406 " fill="#E2E2F0" style="stroke:#181818;stroke-width:1.5;"/><path d="M525.5,389.6406 C525.5,399.6406 543.5,399.6406 543.5,399.6406 C543.5,399.6406 561.5,399.6406 561.5,389.6406 " fill="none" style="stroke:#181818;stroke-width:1.5;"/><path d="M592,100.9609 L670,100.9609 C675,100.9609 675,114.7656 675,114.7656 C675,114.7656 675,128.5703 670,128.5703 L592,128.5703 C587,128.5703 587,114.7656 587,114.7656 C587,114.7656 587,100.9609 592,100.9609 " fill="#E2E2F0" style="stroke:#181818;stroke-width:0.5;"/><path d="M670,100.9609 C665,100.9609 665,114.7656 665,114.7656 C665,128.5703 670,128.5703 670,128.5703 " fill="none" style="stroke:#181818;stroke-width:0.5;"/><text fill="#000000" font-family="sans-serif" font-size="14" lengthAdjust="spacing" textLength="68" x="592" y="120.4941">Messaging</text><path d="M592,362.0313 L670,362.0313 C675,362.0313 675,375.8359 675,375.8359 C675,375.8359 675,389.6406 670,389.6406 L592,389.6406 C587,389.6406 587,375.8359 587,375.8359 C587,375.8359 587,362.0313 592,362.0313 " fill="#E2E2F0" style="stroke:#181818;stroke-width:0.5;"/><path d="M670,362.0313 C665,362.0313 665,375.8359 665,375.8359 C665,389.6406 670,389.6406 670,389.6406 " fill="none" style="stroke:#181818;stroke-width:0.5;"/><text fill="#000000" font-family="sans-serif" font-size="14" lengthAdjust="spacing" textLength="68" x="592" y="381.5645">Messaging</text><path d="M690,100.9609 L768,100.9609 C773,100.9609 773,114.7656 773,114.7656 C773,114.7656 773,128.5703 768,128.5703 L690,128.5703 C685,128.5703 685,114.7656 685,114.7656 C685,114.7656 685,100.9609 690,100.9609 " fill="#E2E2F0" style="stroke:#181818;stroke-width:0.5;"/><path d="M768,100.9609 C763,100.9609 763,114.7656 763,114.7656 C763,128.5703 768,128.5703 768,128.5703 " fill="none" style="stroke:#181818;stroke-width:0.5;"/><text fill="#000000" font-family="sans-serif" font-size="14" lengthAdjust="spacing" textLength="68" x="690" y="120.4941">Messaging</text><path d="M690,362.0313 L768,362.0313 C773,362.0313 773,375.8359 773,375.8359 C773,375.8359 773,389.6406 768,389.6406 L690,389.6406 C685,389.6406 685,375.8359 685,375.8359 C685,375.8359 685,362.0313 690,362.0313 " fill="#E2E2F0" style="stroke:#181818;stroke-width:0.5;"/><path d="M768,362.0313 C763,362.0313 763,375.8359 763,375.8359 C763,389.6406 768,389.6406 768,389.6406 " fill="none" style="stroke:#181818;stroke-width:0.5;"/><text fill="#000000" font-family="sans-serif" font-size="14" lengthAdjust="spacing" textLength="68" x="690" y="381.5645">Messaging</text><rect fill="#E2E2F0" height="31.6094" rx="2.5" ry="2.5" style="stroke:#181818;stroke-width:0.5;" width="100" x="783" y="95.9609"/><text fill="#000000" font-family="sans-serif" font-size="14" lengthAdjust="spacing" textLength="86" x="790" y="117.4941">Fraud Engine</text><rect fill="#E2E2F0" height="31.6094" rx="2.5" ry="2.5" style="stroke:#181818;stroke-width:0.5;" width="100" x="783" y="362.0313"/><text fill="#000000" font-family="sans-serif" font-size="14" lengthAdjust="spacing" textLength="86" x="790" y="383.5645">Fraud Engine</text><polygon fill="#181818" points="356.5,156.9219,366.5,160.9219,356.5,164.9219,360.5,160.9219" style="stroke:#181818;stroke-width:1.0;"/><line style="stroke:#181818;stroke-width:1.0;" x1="183.5" x2="362.5" y1="160.9219" y2="160.9219"/><text fill="#000000" font-family="sans-serif" font-size="13" lengthAdjust="spacing" textLength="161" x="190.5" y="156.0654">Handle Order Created Event</text><path d="M296.5,175.9219 L519.5,175.9219 L519.5,184.2734 L509.5,194.2734 L296.5,194.2734 L296.5,175.9219 " fill="#EEEEEE" style="stroke:#000000;stroke-width:1.5;"/><rect fill="none" height="170.1094" style="stroke:#000000;stroke-width:1.5;" width="596.5" x="296.5" y="175.9219"/><text fill="#000000" font-family="sans-serif" font-size="13" font-weight="bold" lengthAdjust="spacing" textLength="178" x="311.5" y="190.417">Handle Order Created Event</text><polygon fill="#181818" points="717,212.625,727,216.625,717,220.625,721,216.625" style="stroke:#181818;stroke-width:1.0;"/><line style="stroke:#181818;stroke-width:1.0;" x1="368.5" x2="723" y1="216.625" y2="216.625"/><text fill="#000000" font-family="sans-serif" font-size="13" lengthAdjust="spacing" textLength="166" x="375.5" y="211.7686">Receive Order Created Event</text><polygon fill="#181818" points="531.5,242.9766,541.5,246.9766,531.5,250.9766,535.5,246.9766" style="stroke:#181818;stroke-width:1.0;"/><line style="stroke:#181818;stroke-width:1.0;" x1="368.5" x2="537.5" y1="246.9766" y2="246.9766"/><text fill="#000000" font-family="sans-serif" font-size="13" lengthAdjust="spacing" textLength="68" x="375.5" y="242.1201">Insert Order</text><polygon fill="#181818" points="821,273.3281,831,277.3281,821,281.3281,825,277.3281" style="stroke:#181818;stroke-width:1.0;"/><line style="stroke:#181818;stroke-width:1.0;" x1="368.5" x2="827" y1="277.3281" y2="277.3281"/><text fill="#000000" font-family="sans-serif" font-size="13" lengthAdjust="spacing" textLength="140" x="375.5" y="272.4717">Get Fraud Check Result</text><polygon fill="#181818" points="531.5,303.6797,541.5,307.6797,531.5,311.6797,535.5,307.6797" style="stroke:#181818;stroke-width:1.0;"/><line style="stroke:#181818;stroke-width:1.0;" x1="368.5" x2="537.5" y1="307.6797" y2="307.6797"/><text fill="#000000" font-family="sans-serif" font-size="13" lengthAdjust="spacing" textLength="151" x="375.5" y="302.8232">Insert Fraud Check Result</text><polygon fill="#181818" points="619,334.0313,629,338.0313,619,342.0313,623,338.0313" style="stroke:#181818;stroke-width:1.0;"/><line style="stroke:#181818;stroke-width:1.0;" x1="368.5" x2="625" y1="338.0313" y2="338.0313"/><text fill="#000000" font-family="sans-serif" font-size="13" lengthAdjust="spacing" textLength="185" x="375.5" y="333.1748">Send Fraud Check Result Event</text><!--SRC=[tLLDKy8m4BtdL-pKCprvyk2b5EJ0wDY3vwLTC6EQOf8M_FUkIOeY3CE1pYWz9TsFzzv-j4uwHP13rjGrcPBWIQ5RDgQ64On9oOuCdoO6smhcg755DMctUrMGwIH7ZM1Erh8L7b1NoWU54poQYg-P8NHKGTw5y8BUMz8-CckqGwdPIL57IeWr6YTBkKRsJFAj8wDH9O0MijkPvkj4DPkqQ9PkWuQA3-kejcdl6Ev2B9ej97ii4xXvUPME1F2p1_ABlCVA-vBq5KbZFLAVzBiO1qoyFMAcEtKsZIWHnBEeqE42BK4oZgU1iFlq7fLBtrAlMkhLe7evlo1T0VT3nAw4aJZMbJEPJOa1U9x6L7CnKv_l145lFu_WtbY4wSarkroaBo6J4EUFCOpk1nz4k3kngc9bcdPzoc5mUaTBSEa9u28yKqdC-m-9lDJIixYPjcHSqFOVr8HLOU9JSl5VaxrI-SPTigswdePSZRIVcrHyVKuFbSLTOgCGdm00]--></g></svg>