<?xml version="1.0" encoding="us-ascii" standalone="no"?><svg xmlns="http://www.w3.org/2000/svg" xmlns:xlink="http://www.w3.org/1999/xlink" contentStyleType="text/css" height="373px" preserveAspectRatio="none" style="width:1056px;height:373px;background:#FFFFFF;" version="1.1" viewBox="0 0 1056 373" width="1056px" zoomAndPan="magnify"><defs/><g><text fill="#000000" font-family="sans-serif" font-size="14" font-weight="bold" lengthAdjust="spacing" textLength="1028" x="10" y="29.5332">E Commerce Platform - Deliver - Fraud Management - Fraud Service - Message Handler - Handle Order Created Event - Sequence - Container level</text><rect fill="#FFFFFF" height="323.0313" style="stroke:#181818;stroke-width:0.5;" width="374.5" x="304.5" y="44.6094"/><text fill="#000000" font-family="sans-serif" font-size="13" font-weight="bold" lengthAdjust="spacing" textLength="89" x="447.25" y="58.1045">Fraud Service</text><rect fill="#FFFFFF" height="323.0313" style="stroke:#181818;stroke-width:0.5;" width="94" x="681" y="44.6094"/><text fill="#000000" font-family="sans-serif" font-size="13" font-weight="bold" lengthAdjust="spacing" textLength="88" x="684" y="58.1045">Order Service</text><rect fill="none" height="170.1094" style="stroke:#000000;stroke-width:1.5;" width="592.5" x="298.5" y="144.9219"/><line style="stroke:#181818;stroke-width:0.5;stroke-dasharray:5.0,5.0;" x1="185" x2="185" y1="97.5703" y2="332.0313"/><line style="stroke:#181818;stroke-width:0.5;stroke-dasharray:5.0,5.0;" x1="370.5" x2="370.5" y1="97.5703" y2="332.0313"/><line style="stroke:#181818;stroke-width:0.5;stroke-dasharray:5.0,5.0;" x1="545" x2="545" y1="97.5703" y2="332.0313"/><line style="stroke:#181818;stroke-width:0.5;stroke-dasharray:5.0,5.0;" x1="634" x2="634" y1="97.5703" y2="332.0313"/><line style="stroke:#181818;stroke-width:0.5;stroke-dasharray:5.0,5.0;" x1="728" x2="728" y1="97.5703" y2="332.0313"/><line style="stroke:#181818;stroke-width:0.5;stroke-dasharray:5.0,5.0;" x1="831" x2="831" y1="97.5703" y2="332.0313"/><rect fill="#E2E2F0" height="31.6094" rx="2.5" ry="2.5" style="stroke:#181818;stroke-width:0.5;" width="65" x="153" y="64.9609"/><text fill="#000000" font-family="sans-serif" font-size="14" lengthAdjust="spacing" textLength="51" x="160" y="86.4941">External</text><rect fill="#E2E2F0" height="31.6094" rx="2.5" ry="2.5" style="stroke:#181818;stroke-width:0.5;" width="65" x="153" y="331.0313"/><text fill="#000000" font-family="sans-serif" font-size="14" lengthAdjust="spacing" textLength="51" x="160" y="352.5645">External</text><rect fill="#E2E2F0" height="31.6094" rx="2.5" ry="2.5" style="stroke:#181818;stroke-width:0.5;" width="124" x="308.5" y="64.9609"/><text fill="#000000" font-family="sans-serif" font-size="14" lengthAdjust="spacing" textLength="110" x="315.5" y="86.4941">Message Handler</text><rect fill="#E2E2F0" height="31.6094" rx="2.5" ry="2.5" style="stroke:#181818;stroke-width:0.5;" width="124" x="308.5" y="331.0313"/><text fill="#000000" font-family="sans-serif" font-size="14" lengthAdjust="spacing" textLength="110" x="315.5" y="352.5645">Message Handler</text><rect fill="#E2E2F0" height="31.6094" rx="2.5" ry="2.5" style="stroke:#181818;stroke-width:0.5;" width="75" x="508" y="64.9609"/><text fill="#000000" font-family="sans-serif" font-size="14" lengthAdjust="spacing" textLength="61" x="515" y="86.4941">Database</text><rect fill="#E2E2F0" height="31.6094" rx="2.5" ry="2.5" style="stroke:#181818;stroke-width:0.5;" width="75" x="508" y="331.0313"/><text fill="#000000" font-family="sans-serif" font-size="14" lengthAdjust="spacing" textLength="61" x="515" y="352.5645">Database</text><rect fill="#E2E2F0" height="31.6094" rx="2.5" ry="2.5" style="stroke:#181818;stroke-width:0.5;" width="82" x="593" y="64.9609"/><text fill="#000000" font-family="sans-serif" font-size="14" lengthAdjust="spacing" textLength="68" x="600" y="86.4941">Messaging</text><rect fill="#E2E2F0" height="31.6094" rx="2.5" ry="2.5" style="stroke:#181818;stroke-width:0.5;" width="82" x="593" y="331.0313"/><text fill="#000000" font-family="sans-serif" font-size="14" lengthAdjust="spacing" textLength="68" x="600" y="352.5645">Messaging</text><rect fill="#E2E2F0" height="31.6094" rx="2.5" ry="2.5" style="stroke:#181818;stroke-width:0.5;" width="82" x="687" y="64.9609"/><text fill="#000000" font-family="sans-serif" font-size="14" lengthAdjust="spacing" textLength="68" x="694" y="86.4941">Messaging</text><rect fill="#E2E2F0" height="31.6094" rx="2.5" ry="2.5" style="stroke:#181818;stroke-width:0.5;" width="82" x="687" y="331.0313"/><text fill="#000000" font-family="sans-serif" font-size="14" lengthAdjust="spacing" textLength="68" x="694" y="352.5645">Messaging</text><rect fill="#E2E2F0" height="31.6094" rx="2.5" ry="2.5" style="stroke:#181818;stroke-width:0.5;" width="100" x="781" y="64.9609"/><text fill="#000000" font-family="sans-serif" font-size="14" lengthAdjust="spacing" textLength="86" x="788" y="86.4941">Fraud Engine</text><rect fill="#E2E2F0" height="31.6094" rx="2.5" ry="2.5" style="stroke:#181818;stroke-width:0.5;" width="100" x="781" y="331.0313"/><text fill="#000000" font-family="sans-serif" font-size="14" lengthAdjust="spacing" textLength="86" x="788" y="352.5645">Fraud Engine</text><polygon fill="#181818" points="358.5,125.9219,368.5,129.9219,358.5,133.9219,362.5,129.9219" style="stroke:#181818;stroke-width:1.0;"/><line style="stroke:#181818;stroke-width:1.0;" x1="185.5" x2="364.5" y1="129.9219" y2="129.9219"/><text fill="#000000" font-family="sans-serif" font-size="13" lengthAdjust="spacing" textLength="161" x="192.5" y="125.0654">Handle Order Created Event</text><path d="M298.5,144.9219 L521.5,144.9219 L521.5,153.2734 L511.5,163.2734 L298.5,163.2734 L298.5,144.9219 " fill="#EEEEEE" style="stroke:#000000;stroke-width:1.5;"/><rect fill="none" height="170.1094" style="stroke:#000000;stroke-width:1.5;" width="592.5" x="298.5" y="144.9219"/><text fill="#000000" font-family="sans-serif" font-size="13" font-weight="bold" lengthAdjust="spacing" textLength="178" x="313.5" y="159.417">Handle Order Created Event</text><polygon fill="#181818" points="716,181.625,726,185.625,716,189.625,720,185.625" style="stroke:#181818;stroke-width:1.0;"/><line style="stroke:#181818;stroke-width:1.0;" x1="370.5" x2="722" y1="185.625" y2="185.625"/><text fill="#000000" font-family="sans-serif" font-size="13" lengthAdjust="spacing" textLength="166" x="377.5" y="180.7686">Receive Order Created Event</text><polygon fill="#181818" points="533.5,211.9766,543.5,215.9766,533.5,219.9766,537.5,215.9766" style="stroke:#181818;stroke-width:1.0;"/><line style="stroke:#181818;stroke-width:1.0;" x1="370.5" x2="539.5" y1="215.9766" y2="215.9766"/><text fill="#000000" font-family="sans-serif" font-size="13" lengthAdjust="spacing" textLength="68" x="377.5" y="211.1201">Insert Order</text><polygon fill="#181818" points="819,242.3281,829,246.3281,819,250.3281,823,246.3281" style="stroke:#181818;stroke-width:1.0;"/><line style="stroke:#181818;stroke-width:1.0;" x1="370.5" x2="825" y1="246.3281" y2="246.3281"/><text fill="#000000" font-family="sans-serif" font-size="13" lengthAdjust="spacing" textLength="140" x="377.5" y="241.4717">Get Fraud Check Result</text><polygon fill="#181818" points="533.5,272.6797,543.5,276.6797,533.5,280.6797,537.5,276.6797" style="stroke:#181818;stroke-width:1.0;"/><line style="stroke:#181818;stroke-width:1.0;" x1="370.5" x2="539.5" y1="276.6797" y2="276.6797"/><text fill="#000000" font-family="sans-serif" font-size="13" lengthAdjust="spacing" textLength="151" x="377.5" y="271.8232">Insert Fraud Check Result</text><polygon fill="#181818" points="622,303.0313,632,307.0313,622,311.0313,626,307.0313" style="stroke:#181818;stroke-width:1.0;"/><line style="stroke:#181818;stroke-width:1.0;" x1="370.5" x2="628" y1="307.0313" y2="307.0313"/><text fill="#000000" font-family="sans-serif" font-size="13" lengthAdjust="spacing" textLength="185" x="377.5" y="302.1748">Send Fraud Check Result Event</text><!--SRC=[tLKzKy904EtlL-p4cbHM5ZOX80MZOmhh9LdWniibtbq2_dlNkmH5XA4WCqggNFRZlRSV5oUT8aWXgSgIJ4xmfD0jArF22CQaP4k6toO6cmBcg7559Mct-vIHQIL7ZM1Erh8L7b0NoWU5DtWq1HyJG-YeWBGDuHczDQHzP59fXrApawAMb10r6YTpMIDxHkdMaT6e8a0BoUrCyt6YgasSLKktGKFPktLKshXt36SX5jKMeZsM4ToyhAKZ0VpiWVmWxx7IlYHzHUAk7h5F-bMC0oRUtc76EtKsxb0wa4CMOtIuG4i3mVVfZycNUZMeSCulI1V0ZH5TUy9idDcUu_ocn30yNcCgkRQnptg2fhUVHtEFHXYcLBFBHNeKCWbn_bJ3w7xmkOIx4vihLgPgwbCEWzFxjGINdW0kmZFbnBp_aCXBNG0iRgOj6HUq_GSrOLMO-9HSz-j9rfI_SfTiewwd8LSZxVicPP_NwQ6oRfVOACG7]--></g></svg>