<?xml version="1.0" encoding="us-ascii" standalone="no"?><svg xmlns="http://www.w3.org/2000/svg" xmlns:xlink="http://www.w3.org/1999/xlink" contentStyleType="text/css" height="239.375px" preserveAspectRatio="none" style="width:269px;height:239px;background:#FFFFFF;" version="1.1" viewBox="0 0 269 239" width="269.375px" zoomAndPan="magnify"><defs/><g><text fill="#000000" font-family="sans-serif" font-size="8.75" font-weight="bold" lengthAdjust="spacing" textLength="251.875" x="6.25" y="18.4583">Internet Banking - Mobile App - Sign In - CONTAINER level</text><rect fill="#FFFFFF" height="203.9551" style="stroke:#181818;stroke-width:0.3125;" width="198.4375" x="48.9063" y="27.8809"/><text fill="#000000" font-family="sans-serif" font-size="8.125" font-weight="bold" lengthAdjust="spacing" textLength="65.625" x="115.3125" y="36.3153">Internet Banking</text><rect fill="none" height="69.6289" style="stroke:#000000;stroke-width:0.9375;" width="212.1875" x="45.1563" y="109.9512"/><rect fill="none" height="30.4395" style="stroke:#000000;stroke-width:0.9375;" width="147.1875" x="103.9063" y="144.7656"/><line style="stroke:#181818;stroke-width:0.3125;stroke-dasharray:5.0,5.0;" x1="24.5313" x2="24.5313" y1="80.3564" y2="190.2051"/><line style="stroke:#181818;stroke-width:0.3125;stroke-dasharray:5.0,5.0;" x1="77.6563" x2="77.6563" y1="80.3564" y2="190.2051"/><line style="stroke:#181818;stroke-width:0.3125;stroke-dasharray:5.0,5.0;" x1="143.9063" x2="143.9063" y1="80.3564" y2="190.2051"/><line style="stroke:#181818;stroke-width:0.3125;stroke-dasharray:5.0,5.0;" x1="223.5938" x2="223.5938" y1="80.3564" y2="190.2051"/><rect fill="#E2E2F0" height="19.7559" rx="1.5625" ry="1.5625" style="stroke:#181818;stroke-width:0.3125;" width="40.625" x="4.5313" y="59.9756"/><text fill="#000000" font-family="sans-serif" font-size="8.75" lengthAdjust="spacing" textLength="31.875" x="8.9063" y="73.4338">External</text><rect fill="#E2E2F0" height="19.7559" rx="1.5625" ry="1.5625" style="stroke:#181818;stroke-width:0.3125;" width="40.625" x="4.5313" y="189.5801"/><text fill="#000000" font-family="sans-serif" font-size="8.75" lengthAdjust="spacing" textLength="31.875" x="8.9063" y="203.0383">External</text><rect fill="#E2E2F0" height="19.7559" rx="1.5625" ry="1.5625" style="stroke:#181818;stroke-width:0.3125;" width="52.5" x="51.4063" y="59.9756"/><text fill="#000000" font-family="sans-serif" font-size="8.75" lengthAdjust="spacing" textLength="43.75" x="55.7813" y="73.4338">Mobile App</text><rect fill="#E2E2F0" height="19.7559" rx="1.5625" ry="1.5625" style="stroke:#181818;stroke-width:0.3125;" width="52.5" x="51.4063" y="189.5801"/><text fill="#000000" font-family="sans-serif" font-size="8.75" lengthAdjust="spacing" textLength="43.75" x="55.7813" y="203.0383">Mobile App</text><rect fill="#E2E2F0" height="19.7559" rx="1.5625" ry="1.5625" style="stroke:#181818;stroke-width:0.3125;" width="67.5" x="110.1563" y="59.9756"/><text fill="#000000" font-family="sans-serif" font-size="8.75" lengthAdjust="spacing" textLength="58.75" x="114.5313" y="73.4338">API Application</text><rect fill="#E2E2F0" height="19.7559" rx="1.5625" ry="1.5625" style="stroke:#181818;stroke-width:0.3125;" width="67.5" x="110.1563" y="189.5801"/><text fill="#000000" font-family="sans-serif" font-size="8.75" lengthAdjust="spacing" textLength="58.75" x="114.5313" y="203.0383">API Application</text><text fill="#000000" font-family="sans-serif" font-size="8.75" lengthAdjust="spacing" textLength="38.125" x="202.9688" y="78.4338">Database</text><path d="M212.6563,46.8506 C212.6563,40.6006 223.9063,40.6006 223.9063,40.6006 C223.9063,40.6006 235.1563,40.6006 235.1563,46.8506 L235.1563,63.1006 C235.1563,69.3506 223.9063,69.3506 223.9063,69.3506 C223.9063,69.3506 212.6563,69.3506 212.6563,63.1006 L212.6563,46.8506 " fill="#E2E2F0" style="stroke:#181818;stroke-width:0.9375;"/><path d="M212.6563,46.8506 C212.6563,53.1006 223.9063,53.1006 223.9063,53.1006 C223.9063,53.1006 235.1563,53.1006 235.1563,46.8506 " fill="none" style="stroke:#181818;stroke-width:0.9375;"/><text fill="#000000" font-family="sans-serif" font-size="8.75" lengthAdjust="spacing" textLength="38.125" x="202.9688" y="198.6633">Database</text><path d="M212.6563,206.8359 C212.6563,200.5859 223.9063,200.5859 223.9063,200.5859 C223.9063,200.5859 235.1563,200.5859 235.1563,206.8359 L235.1563,223.0859 C235.1563,229.3359 223.9063,229.3359 223.9063,229.3359 C223.9063,229.3359 212.6563,229.3359 212.6563,223.0859 L212.6563,206.8359 " fill="#E2E2F0" style="stroke:#181818;stroke-width:0.9375;"/><path d="M212.6563,206.8359 C212.6563,213.0859 223.9063,213.0859 223.9063,213.0859 C223.9063,213.0859 235.1563,213.0859 235.1563,206.8359 " fill="none" style="stroke:#181818;stroke-width:0.9375;"/><polygon fill="#181818" points="70.1563,98.0762,76.4063,100.5762,70.1563,103.0762,72.6563,100.5762" style="stroke:#181818;stroke-width:0.625;"/><line style="stroke:#181818;stroke-width:0.625;" x1="24.8438" x2="73.9063" y1="100.5762" y2="100.5762"/><text fill="#000000" font-family="sans-serif" font-size="8.125" lengthAdjust="spacing" textLength="25" x="29.2188" y="97.5409">Sign In</text><path d="M45.1563,109.9512 L101.4063,109.9512 L101.4063,115.1709 L95.1563,121.4209 L45.1563,121.4209 L45.1563,109.9512 " fill="#EEEEEE" style="stroke:#000000;stroke-width:0.9375;"/><rect fill="none" height="69.6289" style="stroke:#000000;stroke-width:0.9375;" width="212.1875" x="45.1563" y="109.9512"/><text fill="#000000" font-family="sans-serif" font-size="8.125" font-weight="bold" lengthAdjust="spacing" textLength="28.125" x="54.5313" y="119.0106">Sign In</text><polygon fill="#181818" points="136.4063,132.8906,142.6563,135.3906,136.4063,137.8906,138.9063,135.3906" style="stroke:#181818;stroke-width:0.625;"/><line style="stroke:#181818;stroke-width:0.625;" x1="77.6563" x2="140.1563" y1="135.3906" y2="135.3906"/><text fill="#000000" font-family="sans-serif" font-size="8.125" lengthAdjust="spacing" textLength="25" x="82.0313" y="132.3553">Sign In</text><path d="M103.9063,144.7656 L160.1563,144.7656 L160.1563,149.9854 L153.9063,156.2354 L103.9063,156.2354 L103.9063,144.7656 " fill="#EEEEEE" style="stroke:#000000;stroke-width:0.9375;"/><rect fill="none" height="30.4395" style="stroke:#000000;stroke-width:0.9375;" width="147.1875" x="103.9063" y="144.7656"/><text fill="#000000" font-family="sans-serif" font-size="8.125" font-weight="bold" lengthAdjust="spacing" textLength="28.125" x="113.2813" y="153.8251">Sign In</text><polygon fill="#181818" points="216.4063,167.7051,222.6563,170.2051,216.4063,172.7051,218.9063,170.2051" style="stroke:#181818;stroke-width:0.625;"/><line style="stroke:#181818;stroke-width:0.625;" x1="143.9063" x2="220.1563" y1="170.2051" y2="170.2051"/><text fill="#000000" font-family="sans-serif" font-size="8.125" lengthAdjust="spacing" textLength="65" x="148.2813" y="167.1698">Authenticate User</text><!--SRC=[hP8nJyCm48Nt-nL7c1in80O6f3GKAGEb8Y3cQtka5evjsHVQ_dkSj07QBgZ1aYMVVFxUqpjVE4zLJQXfQnl1KBEG8GWVoZZoLEFIARov0X0bch4mmjwmu9XCRAbmX8zshk9DvbmiIbMPs1HF-TFq9IkcasVK_CaQ8E94BPGZ8vXCDYs7T88KCB_ki0_QhjFIlikQF9VR85o7j6_SrG1pky7as4M2bsyh9GmOru7EZxbEQQogzibCBqw4UkOUcURM22d3FgGxI6ISyhDPqSArMf0eQmQ8HD8lKAUq9A4v1SRaVdyQmEyHm6Q9CKK0-7lkEBeRcXtUzfy3AcyRzrqDvPvjxJ3nV_Pt13_RP3-sQ2zhPCL6MYJZQs3VZhBRy0K0]--></g></svg>