<?xml version="1.0" encoding="us-ascii" standalone="no"?><svg xmlns="http://www.w3.org/2000/svg" xmlns:xlink="http://www.w3.org/1999/xlink" contentStyleType="text/css" height="407px" preserveAspectRatio="none" style="width:922px;height:407px;background:#FFFFFF;" version="1.1" viewBox="0 0 922 407" width="922px" zoomAndPan="magnify"><defs/><g><text fill="#000000" font-family="sans-serif" font-size="14" font-weight="bold" lengthAdjust="spacing" textLength="894" x="10" y="29.5332">ECommercePlatform - Product Service - Message Handler - Handle Purchase Order Updated Event - Sequence - Container level</text><rect fill="#FFFFFF" height="357.3828" style="stroke:#181818;stroke-width:0.5;" width="316.5" x="351.5" y="44.6094"/><text fill="#000000" font-family="sans-serif" font-size="13" font-weight="bold" lengthAdjust="spacing" textLength="101" x="459.25" y="58.1045">Product Service</text><rect fill="#FFFFFF" height="357.3828" style="stroke:#181818;stroke-width:0.5;" width="102" x="670" y="44.6094"/><text fill="#000000" font-family="sans-serif" font-size="13" font-weight="bold" lengthAdjust="spacing" textLength="96" x="673" y="58.1045">Buying Service</text><rect fill="none" height="204.4609" style="stroke:#000000;stroke-width:1.5;" width="446.5" x="325.5" y="144.9219"/><rect fill="none" height="141.7578" style="stroke:#000000;stroke-width:1.5;" width="348.5" x="335.5" y="200.625"/><rect fill="none" height="79.0547" style="stroke:#000000;stroke-width:1.5;" width="328.5" x="345.5" y="256.3281"/><line style="stroke:#181818;stroke-width:0.5;stroke-dasharray:5.0,5.0;" x1="170" x2="170" y1="97.5703" y2="366.3828"/><line style="stroke:#181818;stroke-width:0.5;stroke-dasharray:5.0,5.0;" x1="417.5" x2="417.5" y1="97.5703" y2="366.3828"/><line style="stroke:#181818;stroke-width:0.5;stroke-dasharray:5.0,5.0;" x1="534" x2="534" y1="97.5703" y2="366.3828"/><line style="stroke:#181818;stroke-width:0.5;stroke-dasharray:5.0,5.0;" x1="623" x2="623" y1="97.5703" y2="366.3828"/><line style="stroke:#181818;stroke-width:0.5;stroke-dasharray:5.0,5.0;" x1="721" x2="721" y1="97.5703" y2="366.3828"/><rect fill="#E2E2F0" height="31.6094" rx="2.5" ry="2.5" style="stroke:#181818;stroke-width:0.5;" width="65" x="138" y="64.9609"/><text fill="#000000" font-family="sans-serif" font-size="14" lengthAdjust="spacing" textLength="51" x="145" y="86.4941">External</text><rect fill="#E2E2F0" height="31.6094" rx="2.5" ry="2.5" style="stroke:#181818;stroke-width:0.5;" width="65" x="138" y="365.3828"/><text fill="#000000" font-family="sans-serif" font-size="14" lengthAdjust="spacing" textLength="51" x="145" y="386.916">External</text><rect fill="#E2E2F0" height="31.6094" rx="2.5" ry="2.5" style="stroke:#181818;stroke-width:0.5;" width="124" x="355.5" y="64.9609"/><text fill="#000000" font-family="sans-serif" font-size="14" lengthAdjust="spacing" textLength="110" x="362.5" y="86.4941">Message Handler</text><rect fill="#E2E2F0" height="31.6094" rx="2.5" ry="2.5" style="stroke:#181818;stroke-width:0.5;" width="124" x="355.5" y="365.3828"/><text fill="#000000" font-family="sans-serif" font-size="14" lengthAdjust="spacing" textLength="110" x="362.5" y="386.916">Message Handler</text><rect fill="#E2E2F0" height="31.6094" rx="2.5" ry="2.5" style="stroke:#181818;stroke-width:0.5;" width="75" x="497" y="64.9609"/><text fill="#000000" font-family="sans-serif" font-size="14" lengthAdjust="spacing" textLength="61" x="504" y="86.4941">Database</text><rect fill="#E2E2F0" height="31.6094" rx="2.5" ry="2.5" style="stroke:#181818;stroke-width:0.5;" width="75" x="497" y="365.3828"/><text fill="#000000" font-family="sans-serif" font-size="14" lengthAdjust="spacing" textLength="61" x="504" y="386.916">Database</text><rect fill="#E2E2F0" height="31.6094" rx="2.5" ry="2.5" style="stroke:#181818;stroke-width:0.5;" width="82" x="582" y="64.9609"/><text fill="#000000" font-family="sans-serif" font-size="14" lengthAdjust="spacing" textLength="68" x="589" y="86.4941">Messaging</text><rect fill="#E2E2F0" height="31.6094" rx="2.5" ry="2.5" style="stroke:#181818;stroke-width:0.5;" width="82" x="582" y="365.3828"/><text fill="#000000" font-family="sans-serif" font-size="14" lengthAdjust="spacing" textLength="68" x="589" y="386.916">Messaging</text><rect fill="#E2E2F0" height="31.6094" rx="2.5" ry="2.5" style="stroke:#181818;stroke-width:0.5;" width="82" x="680" y="64.9609"/><text fill="#000000" font-family="sans-serif" font-size="14" lengthAdjust="spacing" textLength="68" x="687" y="86.4941">Messaging</text><rect fill="#E2E2F0" height="31.6094" rx="2.5" ry="2.5" style="stroke:#181818;stroke-width:0.5;" width="82" x="680" y="365.3828"/><text fill="#000000" font-family="sans-serif" font-size="14" lengthAdjust="spacing" textLength="68" x="687" y="386.916">Messaging</text><polygon fill="#181818" points="405.5,125.9219,415.5,129.9219,405.5,133.9219,409.5,129.9219" style="stroke:#181818;stroke-width:1.0;"/><line style="stroke:#181818;stroke-width:1.0;" x1="170.5" x2="411.5" y1="129.9219" y2="129.9219"/><text fill="#000000" font-family="sans-serif" font-size="13" lengthAdjust="spacing" textLength="223" x="177.5" y="125.0654">Handle Purchase Order Updated Event</text><path d="M325.5,144.9219 L614.5,144.9219 L614.5,153.2734 L604.5,163.2734 L325.5,163.2734 L325.5,144.9219 " fill="#EEEEEE" style="stroke:#000000;stroke-width:1.5;"/><rect fill="none" height="204.4609" style="stroke:#000000;stroke-width:1.5;" width="446.5" x="325.5" y="144.9219"/><text fill="#000000" font-family="sans-serif" font-size="13" font-weight="bold" lengthAdjust="spacing" textLength="244" x="340.5" y="159.417">Handle Purchase Order Updated Event</text><polygon fill="#181818" points="709,181.625,719,185.625,709,189.625,713,185.625" style="stroke:#181818;stroke-width:1.0;"/><line style="stroke:#181818;stroke-width:1.0;" x1="417.5" x2="715" y1="185.625" y2="185.625"/><text fill="#000000" font-family="sans-serif" font-size="13" lengthAdjust="spacing" textLength="228" x="424.5" y="180.7686">Receive Purchase Order Updated Event</text><path d="M335.5,200.625 L408.5,200.625 L408.5,208.9766 L398.5,218.9766 L335.5,218.9766 L335.5,200.625 " fill="#EEEEEE" style="stroke:#000000;stroke-width:1.5;"/><rect fill="none" height="141.7578" style="stroke:#000000;stroke-width:1.5;" width="348.5" x="335.5" y="200.625"/><text fill="#000000" font-family="sans-serif" font-size="13" font-weight="bold" lengthAdjust="spacing" textLength="28" x="350.5" y="215.1201">loop</text><text fill="#000000" font-family="sans-serif" font-size="11" font-weight="bold" lengthAdjust="spacing" textLength="204" x="423.5" y="214.0439">[For each Product in Purchase Order]</text><polygon fill="#181818" points="522.5,237.3281,532.5,241.3281,522.5,245.3281,526.5,241.3281" style="stroke:#181818;stroke-width:1.0;"/><line style="stroke:#181818;stroke-width:1.0;" x1="417.5" x2="528.5" y1="241.3281" y2="241.3281"/><text fill="#000000" font-family="sans-serif" font-size="13" lengthAdjust="spacing" textLength="93" x="424.5" y="236.4717">Select Products</text><path d="M345.5,256.3281 L406.5,256.3281 L406.5,264.6797 L396.5,274.6797 L345.5,274.6797 L345.5,256.3281 " fill="#EEEEEE" style="stroke:#000000;stroke-width:1.5;"/><rect fill="none" height="79.0547" style="stroke:#000000;stroke-width:1.5;" width="328.5" x="345.5" y="256.3281"/><text fill="#000000" font-family="sans-serif" font-size="13" font-weight="bold" lengthAdjust="spacing" textLength="16" x="360.5" y="270.8232">alt</text><text fill="#000000" font-family="sans-serif" font-size="11" font-weight="bold" lengthAdjust="spacing" textLength="109" x="421.5" y="269.7471">[Product Not Found]</text><polygon fill="#181818" points="522.5,293.0313,532.5,297.0313,522.5,301.0313,526.5,297.0313" style="stroke:#181818;stroke-width:1.0;"/><line style="stroke:#181818;stroke-width:1.0;" x1="417.5" x2="528.5" y1="297.0313" y2="297.0313"/><text fill="#000000" font-family="sans-serif" font-size="13" lengthAdjust="spacing" textLength="81" x="424.5" y="292.1748">Insert Product</text><polygon fill="#181818" points="611,323.3828,621,327.3828,611,331.3828,615,327.3828" style="stroke:#181818;stroke-width:1.0;"/><line style="stroke:#181818;stroke-width:1.0;" x1="417.5" x2="617" y1="327.3828" y2="327.3828"/><text fill="#000000" font-family="sans-serif" font-size="13" lengthAdjust="spacing" textLength="164" x="424.5" y="322.5264">Send Product Created Event</text><!--SRC=[pLInJiCm4Dtz5KUOcuc9WO7GYWv0HOIOh_4rjUJOmRwaxTzpj6bKMg56ea94YXHVNjwzztBsLHsmh10iRdp342jYTAWK6xO4uynN5OM2PXPvuKC58vW5hvk28QVGceAayaGnOadmY4vR2bBPFS6i2SKI8y5Bq59_gpKoQHYtv5XGENqqvBOKcNUCnWd8KajMgHe3cyBKACXal6OA3cq2626xcJfPJgnVfRbVy0e3vPl8LCLq3zojbPhxDIH7WXEuVbyQ9WLoVMjpv6FRxII1avuTVSUUzavYsl5rTAVz7f1nBl7ykj6Uw2TBnfKNCYDCYfm62LPryTut6waEJNUub1tlG2N3Xm96TnVygN0xPDPL6NnJ3q9UKDeWe-TJ5eklL91fpoYttjSmyG48YsL_IXXtzDMVEpo_RSHXJfP4ROUD2cs_W6VFugjn-dzAdxf8eLVxZpGUJb3-jLNtWMQ13kP6tlIt-WG0]--></g></svg>