<?xml version="1.0" encoding="us-ascii" standalone="no"?><svg xmlns="http://www.w3.org/2000/svg" xmlns:xlink="http://www.w3.org/1999/xlink" contentStyleType="text/css" height="351px" preserveAspectRatio="none" style="width:525px;height:351px;background:#FFFFFF;" version="1.1" viewBox="0 0 525 351" width="525px" zoomAndPan="magnify"><defs/><g><text fill="#000000" font-family="sans-serif" font-size="14" font-weight="bold" lengthAdjust="spacing" textLength="497" x="10" y="29.5332">TraderX - Trading Services - Cancel Trade - Sequence - Container level</text><rect fill="#FFFFFF" height="293.9766" style="stroke:#181818;stroke-width:0.5;" width="350.5" x="113.75" y="44.6094"/><text fill="#000000" font-family="sans-serif" font-size="13" font-weight="bold" lengthAdjust="spacing" textLength="51" x="263.5" y="58.1045">TraderX</text><rect fill="none" height="79.0547" style="stroke:#000000;stroke-width:1.5;" width="362.5" x="107.75" y="175.9219"/><line style="stroke:#181818;stroke-width:0.5;stroke-dasharray:5.0,5.0;" x1="74.75" x2="74.75" y1="128.5703" y2="271.9766"/><line style="stroke:#181818;stroke-width:0.5;stroke-dasharray:5.0,5.0;" x1="177.75" x2="177.75" y1="128.5703" y2="271.9766"/><line style="stroke:#181818;stroke-width:0.5;stroke-dasharray:5.0,5.0;" x1="321.25" x2="321.25" y1="128.5703" y2="271.9766"/><line style="stroke:#181818;stroke-width:0.5;stroke-dasharray:5.0,5.0;" x1="415.25" x2="415.25" y1="128.5703" y2="271.9766"/><rect fill="#E2E2F0" height="31.6094" rx="2.5" ry="2.5" style="stroke:#181818;stroke-width:0.5;" width="65" x="42.75" y="95.9609"/><text fill="#000000" font-family="sans-serif" font-size="14" lengthAdjust="spacing" textLength="51" x="49.75" y="117.4941">External</text><rect fill="#E2E2F0" height="31.6094" rx="2.5" ry="2.5" style="stroke:#181818;stroke-width:0.5;" width="65" x="42.75" y="270.9766"/><text fill="#000000" font-family="sans-serif" font-size="14" lengthAdjust="spacing" textLength="51" x="49.75" y="292.5098">External</text><rect fill="#E2E2F0" height="31.6094" rx="2.5" ry="2.5" style="stroke:#181818;stroke-width:0.5;" width="121" x="117.75" y="95.9609"/><text fill="#000000" font-family="sans-serif" font-size="14" lengthAdjust="spacing" textLength="107" x="124.75" y="117.4941">Trading Services</text><rect fill="#E2E2F0" height="31.6094" rx="2.5" ry="2.5" style="stroke:#181818;stroke-width:0.5;" width="121" x="117.75" y="270.9766"/><text fill="#000000" font-family="sans-serif" font-size="14" lengthAdjust="spacing" textLength="107" x="124.75" y="292.5098">Trading Services</text><text fill="#000000" font-family="sans-serif" font-size="14" lengthAdjust="spacing" textLength="74" x="281.25" y="125.4941">TraderX DB</text><path d="M303.25,74.9609 C303.25,64.9609 321.25,64.9609 321.25,64.9609 C321.25,64.9609 339.25,64.9609 339.25,74.9609 L339.25,100.9609 C339.25,110.9609 321.25,110.9609 321.25,110.9609 C321.25,110.9609 303.25,110.9609 303.25,100.9609 L303.25,74.9609 " fill="#E2E2F0" style="stroke:#181818;stroke-width:1.5;"/><path d="M303.25,74.9609 C303.25,84.9609 321.25,84.9609 321.25,84.9609 C321.25,84.9609 339.25,84.9609 339.25,74.9609 " fill="none" style="stroke:#181818;stroke-width:1.5;"/><text fill="#000000" font-family="sans-serif" font-size="14" lengthAdjust="spacing" textLength="74" x="281.25" y="285.5098">TraderX DB</text><path d="M303.25,298.5859 C303.25,288.5859 321.25,288.5859 321.25,288.5859 C321.25,288.5859 339.25,288.5859 339.25,298.5859 L339.25,324.5859 C339.25,334.5859 321.25,334.5859 321.25,334.5859 C321.25,334.5859 303.25,334.5859 303.25,324.5859 L303.25,298.5859 " fill="#E2E2F0" style="stroke:#181818;stroke-width:1.5;"/><path d="M303.25,298.5859 C303.25,308.5859 321.25,308.5859 321.25,308.5859 C321.25,308.5859 339.25,308.5859 339.25,298.5859 " fill="none" style="stroke:#181818;stroke-width:1.5;"/><rect fill="#E2E2F0" height="31.6094" rx="2.5" ry="2.5" style="stroke:#181818;stroke-width:0.5;" width="89" x="371.25" y="95.9609"/><text fill="#000000" font-family="sans-serif" font-size="14" lengthAdjust="spacing" textLength="75" x="378.25" y="117.4941">Trade Feed</text><rect fill="#E2E2F0" height="31.6094" rx="2.5" ry="2.5" style="stroke:#181818;stroke-width:0.5;" width="89" x="371.25" y="270.9766"/><text fill="#000000" font-family="sans-serif" font-size="14" lengthAdjust="spacing" textLength="75" x="378.25" y="292.5098">Trade Feed</text><polygon fill="#181818" points="166.25,156.9219,176.25,160.9219,166.25,164.9219,170.25,160.9219" style="stroke:#181818;stroke-width:1.0;"/><line style="stroke:#181818;stroke-width:1.0;" x1="75.25" x2="172.25" y1="160.9219" y2="160.9219"/><text fill="#000000" font-family="sans-serif" font-size="13" lengthAdjust="spacing" textLength="76" x="82.25" y="156.0654">Cancel Trade</text><path d="M107.75,175.9219 L237.75,175.9219 L237.75,184.2734 L227.75,194.2734 L107.75,194.2734 L107.75,175.9219 " fill="#EEEEEE" style="stroke:#000000;stroke-width:1.5;"/><rect fill="none" height="79.0547" style="stroke:#000000;stroke-width:1.5;" width="362.5" x="107.75" y="175.9219"/><text fill="#000000" font-family="sans-serif" font-size="13" font-weight="bold" lengthAdjust="spacing" textLength="85" x="122.75" y="190.417">Cancel Trade</text><polygon fill="#181818" points="309.25,212.625,319.25,216.625,309.25,220.625,313.25,216.625" style="stroke:#181818;stroke-width:1.0;"/><line style="stroke:#181818;stroke-width:1.0;" x1="178.25" x2="315.25" y1="216.625" y2="216.625"/><text fill="#000000" font-family="sans-serif" font-size="13" lengthAdjust="spacing" textLength="119" x="185.25" y="211.7686">Update Trade Status</text><polygon fill="#181818" points="403.75,242.9766,413.75,246.9766,403.75,250.9766,407.75,246.9766" style="stroke:#181818;stroke-width:1.0;"/><line style="stroke:#181818;stroke-width:1.0;" x1="178.25" x2="409.75" y1="246.9766" y2="246.9766"/><text fill="#000000" font-family="sans-serif" font-size="13" lengthAdjust="spacing" textLength="143" x="185.25" y="242.1201">Send Updates To Trades</text><!--SRC=[lPAxRiCm34LtVWNhpidKgKE790sGMGdQbR5PLu0ikHATnz-NVWLmsw5DW7eohyJB0rxTrP7AYj3HEJI2gM8XJm1YnJ5k8nKSNt7M_LbVek5ui3adbPRaStRz7IqDVpIiIdiIl93r7D7nWHr0JL5iRcloWjdpIJXwSXbImkN3nckvTk4uD-5DZXJPd9DmbURZnRu6s8SJPWDIXlSlxrOOKB-9_LVIRipGzMt4g5-8Uqdxn_PkG452Uqfy6O-hnJM-AgqMFoCphfcBgqpRHc1Ve2u807w_KfmztR0PV9my0IXZQEgfT8Fvtz6wvIhKhjQuXhUBHaYQzCyWRI0AOjfCUXeDDVGsgKqAu1C0]--></g></svg>