<?xml version="1.0" encoding="us-ascii" standalone="no"?><svg xmlns="http://www.w3.org/2000/svg" xmlns:xlink="http://www.w3.org/1999/xlink" contentStyleType="text/css" height="571px" preserveAspectRatio="none" style="width:598px;height:571px;background:#FFFFFF;" version="1.1" viewBox="0 0 598 571" width="598px" zoomAndPan="magnify"><defs/><g><text fill="#000000" font-family="sans-serif" font-size="14" font-weight="bold" lengthAdjust="spacing" textLength="570" x="10" y="29.5332">Trader X Example - TraderX - Trade Processor - Start - Sequence - Container level</text><rect fill="#FFFFFF" height="513.4922" style="stroke:#181818;stroke-width:0.5;" width="387.5" x="131.75" y="44.6094"/><text fill="#000000" font-family="sans-serif" font-size="13" font-weight="bold" lengthAdjust="spacing" textLength="51" x="300" y="58.1045">TraderX</text><rect fill="none" height="298.5703" style="stroke:#000000;stroke-width:1.5;" width="399.5" x="125.75" y="175.9219"/><line style="stroke:#181818;stroke-width:0.5;stroke-dasharray:5.0,5.0;" x1="92.75" x2="92.75" y1="128.5703" y2="491.4922"/><line style="stroke:#181818;stroke-width:0.5;stroke-dasharray:5.0,5.0;" x1="195.75" x2="195.75" y1="128.5703" y2="491.4922"/><line style="stroke:#181818;stroke-width:0.5;stroke-dasharray:5.0,5.0;" x1="377.25" x2="377.25" y1="128.5703" y2="491.4922"/><line style="stroke:#181818;stroke-width:0.5;stroke-dasharray:5.0,5.0;" x1="475.25" x2="475.25" y1="128.5703" y2="491.4922"/><rect fill="#E2E2F0" height="31.6094" rx="2.5" ry="2.5" style="stroke:#181818;stroke-width:0.5;" width="65" x="60.75" y="95.9609"/><text fill="#000000" font-family="sans-serif" font-size="14" lengthAdjust="spacing" textLength="51" x="67.75" y="117.4941">External</text><rect fill="#E2E2F0" height="31.6094" rx="2.5" ry="2.5" style="stroke:#181818;stroke-width:0.5;" width="65" x="60.75" y="490.4922"/><text fill="#000000" font-family="sans-serif" font-size="14" lengthAdjust="spacing" textLength="51" x="67.75" y="512.0254">External</text><rect fill="#E2E2F0" height="31.6094" rx="2.5" ry="2.5" style="stroke:#181818;stroke-width:0.5;" width="120" x="135.75" y="95.9609"/><text fill="#000000" font-family="sans-serif" font-size="14" lengthAdjust="spacing" textLength="106" x="142.75" y="117.4941">Trade Processor</text><rect fill="#E2E2F0" height="31.6094" rx="2.5" ry="2.5" style="stroke:#181818;stroke-width:0.5;" width="120" x="135.75" y="490.4922"/><text fill="#000000" font-family="sans-serif" font-size="14" lengthAdjust="spacing" textLength="106" x="142.75" y="512.0254">Trade Processor</text><path d="M335.25,100.9609 L420.25,100.9609 C425.25,100.9609 425.25,114.7656 425.25,114.7656 C425.25,114.7656 425.25,128.5703 420.25,128.5703 L335.25,128.5703 C330.25,128.5703 330.25,114.7656 330.25,114.7656 C330.25,114.7656 330.25,100.9609 335.25,100.9609 " fill="#E2E2F0" style="stroke:#181818;stroke-width:0.5;"/><path d="M420.25,100.9609 C415.25,100.9609 415.25,114.7656 415.25,114.7656 C415.25,128.5703 420.25,128.5703 420.25,128.5703 " fill="none" style="stroke:#181818;stroke-width:0.5;"/><text fill="#000000" font-family="sans-serif" font-size="14" lengthAdjust="spacing" textLength="75" x="335.25" y="120.4941">Trade Feed</text><path d="M335.25,490.4922 L420.25,490.4922 C425.25,490.4922 425.25,504.2969 425.25,504.2969 C425.25,504.2969 425.25,518.1016 420.25,518.1016 L335.25,518.1016 C330.25,518.1016 330.25,504.2969 330.25,504.2969 C330.25,504.2969 330.25,490.4922 335.25,490.4922 " fill="#E2E2F0" style="stroke:#181818;stroke-width:0.5;"/><path d="M420.25,490.4922 C415.25,490.4922 415.25,504.2969 415.25,504.2969 C415.25,518.1016 420.25,518.1016 420.25,518.1016 " fill="none" style="stroke:#181818;stroke-width:0.5;"/><text fill="#000000" font-family="sans-serif" font-size="14" lengthAdjust="spacing" textLength="75" x="335.25" y="510.0254">Trade Feed</text><text fill="#000000" font-family="sans-serif" font-size="14" lengthAdjust="spacing" textLength="74" x="435.25" y="125.4941">TraderX DB</text><path d="M457.25,74.9609 C457.25,64.9609 475.25,64.9609 475.25,64.9609 C475.25,64.9609 493.25,64.9609 493.25,74.9609 L493.25,100.9609 C493.25,110.9609 475.25,110.9609 475.25,110.9609 C475.25,110.9609 457.25,110.9609 457.25,100.9609 L457.25,74.9609 " fill="#E2E2F0" style="stroke:#181818;stroke-width:1.5;"/><path d="M457.25,74.9609 C457.25,84.9609 475.25,84.9609 475.25,84.9609 C475.25,84.9609 493.25,84.9609 493.25,74.9609 " fill="none" style="stroke:#181818;stroke-width:1.5;"/><text fill="#000000" font-family="sans-serif" font-size="14" lengthAdjust="spacing" textLength="74" x="435.25" y="505.0254">TraderX DB</text><path d="M457.25,518.1016 C457.25,508.1016 475.25,508.1016 475.25,508.1016 C475.25,508.1016 493.25,508.1016 493.25,518.1016 L493.25,544.1016 C493.25,554.1016 475.25,554.1016 475.25,554.1016 C475.25,554.1016 457.25,554.1016 457.25,544.1016 L457.25,518.1016 " fill="#E2E2F0" style="stroke:#181818;stroke-width:1.5;"/><path d="M457.25,518.1016 C457.25,528.1016 475.25,528.1016 475.25,528.1016 C475.25,528.1016 493.25,528.1016 493.25,518.1016 " fill="none" style="stroke:#181818;stroke-width:1.5;"/><polygon fill="#181818" points="183.75,156.9219,193.75,160.9219,183.75,164.9219,187.75,160.9219" style="stroke:#181818;stroke-width:1.0;"/><line style="stroke:#181818;stroke-width:1.0;" x1="93.25" x2="189.75" y1="160.9219" y2="160.9219"/><text fill="#000000" font-family="sans-serif" font-size="13" lengthAdjust="spacing" textLength="28" x="100.25" y="156.0654">Start</text><path d="M125.75,175.9219 L200.75,175.9219 L200.75,184.2734 L190.75,194.2734 L125.75,194.2734 L125.75,175.9219 " fill="#EEEEEE" style="stroke:#000000;stroke-width:1.5;"/><rect fill="none" height="298.5703" style="stroke:#000000;stroke-width:1.5;" width="399.5" x="125.75" y="175.9219"/><text fill="#000000" font-family="sans-serif" font-size="13" font-weight="bold" lengthAdjust="spacing" textLength="30" x="140.75" y="190.417">Start</text><polygon fill="#181818" points="365.75,228.9766,375.75,232.9766,365.75,236.9766,369.75,232.9766" style="stroke:#181818;stroke-width:1.0;"/><line style="stroke:#181818;stroke-width:1.0;" x1="195.75" x2="371.75" y1="232.9766" y2="232.9766"/><text fill="#000000" font-family="sans-serif" font-size="13" lengthAdjust="spacing" textLength="133" x="202.75" y="211.7686">Receive Trade Request</text><text fill="#000000" font-family="sans-serif" font-size="13" lengthAdjust="spacing" textLength="62" x="202.75" y="228.1201">[SocketIO]</text><polygon fill="#181818" points="463.25,275.6797,473.25,279.6797,463.25,283.6797,467.25,279.6797" style="stroke:#181818;stroke-width:1.0;"/><line style="stroke:#181818;stroke-width:1.0;" x1="195.75" x2="469.25" y1="279.6797" y2="279.6797"/><text fill="#000000" font-family="sans-serif" font-size="13" lengthAdjust="spacing" textLength="141" x="202.75" y="258.4717">Select Current Positions</text><text fill="#000000" font-family="sans-serif" font-size="13" lengthAdjust="spacing" textLength="41" x="202.75" y="274.8232">[JDBC]</text><polygon fill="#181818" points="463.25,322.3828,473.25,326.3828,463.25,330.3828,467.25,326.3828" style="stroke:#181818;stroke-width:1.0;"/><line style="stroke:#181818;stroke-width:1.0;" x1="195.75" x2="469.25" y1="326.3828" y2="326.3828"/><text fill="#000000" font-family="sans-serif" font-size="13" lengthAdjust="spacing" textLength="99" x="202.75" y="305.1748">Save Trade State</text><text fill="#000000" font-family="sans-serif" font-size="13" lengthAdjust="spacing" textLength="41" x="202.75" y="321.5264">[JDBC]</text><polygon fill="#181818" points="463.25,369.0859,473.25,373.0859,463.25,377.0859,467.25,373.0859" style="stroke:#181818;stroke-width:1.0;"/><line style="stroke:#181818;stroke-width:1.0;" x1="195.75" x2="469.25" y1="373.0859" y2="373.0859"/><text fill="#000000" font-family="sans-serif" font-size="13" lengthAdjust="spacing" textLength="114" x="202.75" y="351.8779">Save Position State</text><text fill="#000000" font-family="sans-serif" font-size="13" lengthAdjust="spacing" textLength="41" x="202.75" y="368.2295">[JDBC]</text><polygon fill="#181818" points="365.75,415.7891,375.75,419.7891,365.75,423.7891,369.75,419.7891" style="stroke:#181818;stroke-width:1.0;"/><line style="stroke:#181818;stroke-width:1.0;" x1="195.75" x2="371.75" y1="419.7891" y2="419.7891"/><text fill="#000000" font-family="sans-serif" font-size="13" lengthAdjust="spacing" textLength="143" x="202.75" y="398.5811">Send Updates To Trades</text><text fill="#000000" font-family="sans-serif" font-size="13" lengthAdjust="spacing" textLength="62" x="202.75" y="414.9326">[SocketIO]</text><polygon fill="#181818" points="365.75,462.4922,375.75,466.4922,365.75,470.4922,369.75,466.4922" style="stroke:#181818;stroke-width:1.0;"/><line style="stroke:#181818;stroke-width:1.0;" x1="195.75" x2="371.75" y1="466.4922" y2="466.4922"/><text fill="#000000" font-family="sans-serif" font-size="13" lengthAdjust="spacing" textLength="158" x="202.75" y="445.2842">Send Updates To Positions</text><text fill="#000000" font-family="sans-serif" font-size="13" lengthAdjust="spacing" textLength="62" x="202.75" y="461.6357">[SocketIO]</text><!--SRC=[pLDDJyCm3BtdLrZbl9uuSU3GRfF6XOc2c0GSijH0H9UKnDtAlyVPqlAbIOWUQ2-9NUVv-TacJHN2jPCbEbZ1h9MRcXsJw5frDrWwgz1xwzXJa7GKJdnjqAWGdbj3KXi6gN2BbH0rXsYbQsa8abbBw8oi4f0UyjE5ONDUsLrQs4VQIOV5coVS-BGBFDX2h6qBIQIImCdjioOKmDyN-6yCzrdYerZGZqJnTzhpZguUP9-5oskmmvyZbaEWm_izQYb9hgN7lZAOPaE0tMgQ2JGbi5f2YD_h2vFpmJh1sM4Sn9EpJHtlWq7_JYoep9okKA7UnibcYplfwTxS5LQz82qk7_wJOsXOq0qhL0Hvunpo62-jrwIjyKppOfhbew0eUmsviuHZezPfDXvsSVwAi8ytDQywybxR0veVom0U8Vbv0ZzuSf0Gxm00]--></g></svg>