<?xml version="1.0" encoding="us-ascii" standalone="no"?><svg xmlns="http://www.w3.org/2000/svg" xmlns:xlink="http://www.w3.org/1999/xlink" contentStyleType="text/css" height="414px" preserveAspectRatio="none" style="width:670px;height:414px;background:#FFFFFF;" version="1.1" viewBox="0 0 670 414" width="670px" zoomAndPan="magnify"><defs/><g><text fill="#000000" font-family="sans-serif" font-size="14" font-weight="bold" lengthAdjust="spacing" textLength="642" x="10" y="29.5332">Dot Net E Shop - Catalog Api - Api - Catalog Api - Get All Items - Sequence - Component level</text><rect fill="#FFFFFF" height="364.0313" style="stroke:#181818;stroke-width:0.5;" width="95" x="220" y="44.6094"/><text fill="#000000" font-family="sans-serif" font-size="13" font-weight="bold" lengthAdjust="spacing" textLength="21" x="257" y="58.1045">Api</text><rect fill="#FFFFFF" height="364.0313" style="stroke:#181818;stroke-width:0.5;" width="123" x="394" y="44.6094"/><text fill="#000000" font-family="sans-serif" font-size="13" font-weight="bold" lengthAdjust="spacing" textLength="84" x="413.5" y="58.1045">Infrastructure</text><rect fill="none" height="211.1094" style="stroke:#000000;stroke-width:1.5;" width="319" x="204" y="144.9219"/><rect fill="none" height="61.7031" style="stroke:#000000;stroke-width:1.5;" width="202" x="214" y="243.9766"/><line style="stroke:#181818;stroke-width:0.5;stroke-dasharray:5.0,5.0;" x1="167" x2="167" y1="97.5703" y2="373.0313"/><line style="stroke:#181818;stroke-width:0.5;stroke-dasharray:5.0,5.0;" x1="267" x2="267" y1="97.5703" y2="373.0313"/><line style="stroke:#181818;stroke-width:0.5;stroke-dasharray:5.0,5.0;" x1="455" x2="455" y1="97.5703" y2="373.0313"/><rect fill="#E2E2F0" height="31.6094" rx="2.5" ry="2.5" style="stroke:#181818;stroke-width:0.5;" width="65" x="135" y="64.9609"/><text fill="#000000" font-family="sans-serif" font-size="14" lengthAdjust="spacing" textLength="51" x="142" y="86.4941">External</text><rect fill="#E2E2F0" height="31.6094" rx="2.5" ry="2.5" style="stroke:#181818;stroke-width:0.5;" width="65" x="135" y="372.0313"/><text fill="#000000" font-family="sans-serif" font-size="14" lengthAdjust="spacing" textLength="51" x="142" y="393.5645">External</text><rect fill="#E2E2F0" height="31.6094" rx="2.5" ry="2.5" style="stroke:#181818;stroke-width:0.5;" width="87" x="224" y="64.9609"/><text fill="#000000" font-family="sans-serif" font-size="14" lengthAdjust="spacing" textLength="73" x="231" y="86.4941">Catalog Api</text><rect fill="#E2E2F0" height="31.6094" rx="2.5" ry="2.5" style="stroke:#181818;stroke-width:0.5;" width="87" x="224" y="372.0313"/><text fill="#000000" font-family="sans-serif" font-size="14" lengthAdjust="spacing" textLength="73" x="231" y="393.5645">Catalog Api</text><rect fill="#E2E2F0" height="31.6094" rx="2.5" ry="2.5" style="stroke:#181818;stroke-width:0.5;" width="115" x="398" y="64.9609"/><text fill="#000000" font-family="sans-serif" font-size="14" lengthAdjust="spacing" textLength="101" x="405" y="86.4941">Catalog Context</text><rect fill="#E2E2F0" height="31.6094" rx="2.5" ry="2.5" style="stroke:#181818;stroke-width:0.5;" width="115" x="398" y="372.0313"/><text fill="#000000" font-family="sans-serif" font-size="14" lengthAdjust="spacing" textLength="101" x="405" y="393.5645">Catalog Context</text><polygon fill="#181818" points="255.5,125.9219,265.5,129.9219,255.5,133.9219,259.5,129.9219" style="stroke:#181818;stroke-width:1.0;"/><line style="stroke:#181818;stroke-width:1.0;" x1="167.5" x2="261.5" y1="129.9219" y2="129.9219"/><text fill="#000000" font-family="sans-serif" font-size="13" lengthAdjust="spacing" textLength="76" x="174.5" y="125.0654">Get All Items</text><path d="M204,144.9219 L330,144.9219 L330,153.2734 L320,163.2734 L204,163.2734 L204,144.9219 " fill="#EEEEEE" style="stroke:#000000;stroke-width:1.5;"/><rect fill="none" height="211.1094" style="stroke:#000000;stroke-width:1.5;" width="319" x="204" y="144.9219"/><text fill="#000000" font-family="sans-serif" font-size="13" font-weight="bold" lengthAdjust="spacing" textLength="81" x="219" y="159.417">Get All Items</text><polygon fill="#181818" points="443.5,181.625,453.5,185.625,443.5,189.625,447.5,185.625" style="stroke:#181818;stroke-width:1.0;"/><line style="stroke:#181818;stroke-width:1.0;" x1="267.5" x2="449.5" y1="185.625" y2="185.625"/><text fill="#000000" font-family="sans-serif" font-size="13" lengthAdjust="spacing" textLength="164" x="274.5" y="180.7686">Catalog Items To List Async</text><line style="stroke:#181818;stroke-width:1.0;" x1="267.5" x2="309.5" y1="215.9766" y2="215.9766"/><line style="stroke:#181818;stroke-width:1.0;" x1="309.5" x2="309.5" y1="215.9766" y2="228.9766"/><line style="stroke:#181818;stroke-width:1.0;" x1="268.5" x2="309.5" y1="228.9766" y2="228.9766"/><polygon fill="#181818" points="278.5,224.9766,268.5,228.9766,278.5,232.9766,274.5,228.9766" style="stroke:#181818;stroke-width:1.0;"/><text fill="#000000" font-family="sans-serif" font-size="13" lengthAdjust="spacing" textLength="136" x="274.5" y="211.1201">Change Uri Placeholder</text><path d="M214,243.9766 L411,243.9766 L411,252.3281 L401,262.3281 L214,262.3281 L214,243.9766 " fill="#EEEEEE" style="stroke:#000000;stroke-width:1.5;"/><rect fill="none" height="61.7031" style="stroke:#000000;stroke-width:1.5;" width="202" x="214" y="243.9766"/><text fill="#000000" font-family="sans-serif" font-size="13" font-weight="bold" lengthAdjust="spacing" textLength="152" x="229" y="258.4717">Change Uri Placeholder</text><line style="stroke:#181818;stroke-width:1.0;" x1="267.5" x2="309.5" y1="284.6797" y2="284.6797"/><line style="stroke:#181818;stroke-width:1.0;" x1="309.5" x2="309.5" y1="284.6797" y2="297.6797"/><line style="stroke:#181818;stroke-width:1.0;" x1="268.5" x2="309.5" y1="297.6797" y2="297.6797"/><polygon fill="#181818" points="278.5,293.6797,268.5,297.6797,278.5,301.6797,274.5,297.6797" style="stroke:#181818;stroke-width:1.0;"/><text fill="#000000" font-family="sans-serif" font-size="13" lengthAdjust="spacing" textLength="82" x="274.5" y="279.8232">Return (items)</text><line style="stroke:#181818;stroke-width:1.0;" x1="267.5" x2="309.5" y1="335.0313" y2="335.0313"/><line style="stroke:#181818;stroke-width:1.0;" x1="309.5" x2="309.5" y1="335.0313" y2="348.0313"/><line style="stroke:#181818;stroke-width:1.0;" x1="268.5" x2="309.5" y1="348.0313" y2="348.0313"/><polygon fill="#181818" points="278.5,344.0313,268.5,348.0313,278.5,352.0313,274.5,348.0313" style="stroke:#181818;stroke-width:1.0;"/><text fill="#000000" font-family="sans-serif" font-size="13" lengthAdjust="spacing" textLength="150" x="274.5" y="330.1748">Return (TypedResults.Ok)</text><!--SRC=[rLFBJiCm4BpxArRX0eVcn8a3KXKAgeG0DKMSJRfjB5pRs1kQ_3rh9OMclAgg4k13v5sFFJCUXnHfX0jBS8C48yXBws00cIIfxGA6Jd7LVlkzAuOFjOOnuJ9mdUDpXQR02BHBPmqQ0eqlg8LmqfCgb9FSIaOreJTI9o03PATZm-MbjgiqjtDQIOzv4-APwHhOra8ysXgI3H4973sKYb00ZtPrkziZxcrbRZRDdaVHyGVk3ilGDBE6f3BeGzgMdRbDa40p0rOWDhICpTpBGBuggFBuiwp8WpNjAQtFzedAxlXtfMyJiNi8C3W_vBN1MVyPYOMtbTlg7P9lB_cxNYsxMMVP_XHJ2zSgi9VGcEBtVNmNGrPAiq2uzmhkj2omj7g6lilZYyK_RMY279Q1OnNtdyJ7_Z_qJXk7imc6IZFYzgbLBbu1]--></g></svg>