<?xml version="1.0" encoding="us-ascii" standalone="no"?><svg xmlns="http://www.w3.org/2000/svg" xmlns:xlink="http://www.w3.org/1999/xlink" contentStyleType="text/css" height="351px" preserveAspectRatio="none" style="width:659px;height:351px;background:#FFFFFF;" version="1.1" viewBox="0 0 659 351" width="659px" zoomAndPan="magnify"><defs/><g><text fill="#000000" font-family="sans-serif" font-size="14" font-weight="bold" lengthAdjust="spacing" textLength="631" x="10" y="29.5332">Trader X Example - TraderX - Trading Services - Create Trade - Sequence - Container level</text><rect fill="#FFFFFF" height="293.9766" style="stroke:#181818;stroke-width:0.5;" width="351.5" x="180.25" y="44.6094"/><text fill="#000000" font-family="sans-serif" font-size="13" font-weight="bold" lengthAdjust="spacing" textLength="51" x="330.5" y="58.1045">TraderX</text><rect fill="none" height="79.0547" style="stroke:#000000;stroke-width:1.5;" width="363.5" x="174.25" y="175.9219"/><line style="stroke:#181818;stroke-width:0.5;stroke-dasharray:5.0,5.0;" x1="141.25" x2="141.25" y1="128.5703" y2="271.9766"/><line style="stroke:#181818;stroke-width:0.5;stroke-dasharray:5.0,5.0;" x1="244.25" x2="244.25" y1="128.5703" y2="271.9766"/><line style="stroke:#181818;stroke-width:0.5;stroke-dasharray:5.0,5.0;" x1="388.75" x2="388.75" y1="128.5703" y2="271.9766"/><line style="stroke:#181818;stroke-width:0.5;stroke-dasharray:5.0,5.0;" x1="482.75" x2="482.75" y1="128.5703" y2="271.9766"/><rect fill="#E2E2F0" height="31.6094" rx="2.5" ry="2.5" style="stroke:#181818;stroke-width:0.5;" width="65" x="109.25" y="95.9609"/><text fill="#000000" font-family="sans-serif" font-size="14" lengthAdjust="spacing" textLength="51" x="116.25" y="117.4941">External</text><rect fill="#E2E2F0" height="31.6094" rx="2.5" ry="2.5" style="stroke:#181818;stroke-width:0.5;" width="65" x="109.25" y="270.9766"/><text fill="#000000" font-family="sans-serif" font-size="14" lengthAdjust="spacing" textLength="51" x="116.25" y="292.5098">External</text><rect fill="#E2E2F0" height="31.6094" rx="2.5" ry="2.5" style="stroke:#181818;stroke-width:0.5;" width="121" x="184.25" y="95.9609"/><text fill="#000000" font-family="sans-serif" font-size="14" lengthAdjust="spacing" textLength="107" x="191.25" y="117.4941">Trading Services</text><rect fill="#E2E2F0" height="31.6094" rx="2.5" ry="2.5" style="stroke:#181818;stroke-width:0.5;" width="121" x="184.25" y="270.9766"/><text fill="#000000" font-family="sans-serif" font-size="14" lengthAdjust="spacing" textLength="107" x="191.25" y="292.5098">Trading Services</text><text fill="#000000" font-family="sans-serif" font-size="14" lengthAdjust="spacing" textLength="74" x="348.75" y="125.4941">TraderX DB</text><path d="M370.75,74.9609 C370.75,64.9609 388.75,64.9609 388.75,64.9609 C388.75,64.9609 406.75,64.9609 406.75,74.9609 L406.75,100.9609 C406.75,110.9609 388.75,110.9609 388.75,110.9609 C388.75,110.9609 370.75,110.9609 370.75,100.9609 L370.75,74.9609 " fill="#E2E2F0" style="stroke:#181818;stroke-width:1.5;"/><path d="M370.75,74.9609 C370.75,84.9609 388.75,84.9609 388.75,84.9609 C388.75,84.9609 406.75,84.9609 406.75,74.9609 " fill="none" style="stroke:#181818;stroke-width:1.5;"/><text fill="#000000" font-family="sans-serif" font-size="14" lengthAdjust="spacing" textLength="74" x="348.75" y="285.5098">TraderX DB</text><path d="M370.75,298.5859 C370.75,288.5859 388.75,288.5859 388.75,288.5859 C388.75,288.5859 406.75,288.5859 406.75,298.5859 L406.75,324.5859 C406.75,334.5859 388.75,334.5859 388.75,334.5859 C388.75,334.5859 370.75,334.5859 370.75,324.5859 L370.75,298.5859 " fill="#E2E2F0" style="stroke:#181818;stroke-width:1.5;"/><path d="M370.75,298.5859 C370.75,308.5859 388.75,308.5859 388.75,308.5859 C388.75,308.5859 406.75,308.5859 406.75,298.5859 " fill="none" style="stroke:#181818;stroke-width:1.5;"/><rect fill="#E2E2F0" height="31.6094" rx="2.5" ry="2.5" style="stroke:#181818;stroke-width:0.5;" width="89" x="438.75" y="95.9609"/><text fill="#000000" font-family="sans-serif" font-size="14" lengthAdjust="spacing" textLength="75" x="445.75" y="117.4941">Trade Feed</text><rect fill="#E2E2F0" height="31.6094" rx="2.5" ry="2.5" style="stroke:#181818;stroke-width:0.5;" width="89" x="438.75" y="270.9766"/><text fill="#000000" font-family="sans-serif" font-size="14" lengthAdjust="spacing" textLength="75" x="445.75" y="292.5098">Trade Feed</text><polygon fill="#181818" points="232.75,156.9219,242.75,160.9219,232.75,164.9219,236.75,160.9219" style="stroke:#181818;stroke-width:1.0;"/><line style="stroke:#181818;stroke-width:1.0;" x1="141.75" x2="238.75" y1="160.9219" y2="160.9219"/><text fill="#000000" font-family="sans-serif" font-size="13" lengthAdjust="spacing" textLength="74" x="148.75" y="156.0654">Create Trade</text><path d="M174.25,175.9219 L302.25,175.9219 L302.25,184.2734 L292.25,194.2734 L174.25,194.2734 L174.25,175.9219 " fill="#EEEEEE" style="stroke:#000000;stroke-width:1.5;"/><rect fill="none" height="79.0547" style="stroke:#000000;stroke-width:1.5;" width="363.5" x="174.25" y="175.9219"/><text fill="#000000" font-family="sans-serif" font-size="13" font-weight="bold" lengthAdjust="spacing" textLength="83" x="189.25" y="190.417">Create Trade</text><polygon fill="#181818" points="376.75,212.625,386.75,216.625,376.75,220.625,380.75,216.625" style="stroke:#181818;stroke-width:1.0;"/><line style="stroke:#181818;stroke-width:1.0;" x1="244.75" x2="382.75" y1="216.625" y2="216.625"/><text fill="#000000" font-family="sans-serif" font-size="13" lengthAdjust="spacing" textLength="120" x="251.75" y="211.7686">Insert Trade Request</text><polygon fill="#181818" points="471.25,242.9766,481.25,246.9766,471.25,250.9766,475.25,246.9766" style="stroke:#181818;stroke-width:1.0;"/><line style="stroke:#181818;stroke-width:1.0;" x1="244.75" x2="477.25" y1="246.9766" y2="246.9766"/><text fill="#000000" font-family="sans-serif" font-size="13" lengthAdjust="spacing" textLength="118" x="251.75" y="242.1201">Send Trade Request</text><!--SRC=[nPAnSi8m38PtFOKkdSdKgGC30UvOwzx1AXAL-YxOgIqWVVlAmN2NjaEl6Uh9-ctz-YnBhBICBu4Q3hZ3LK_7JeLPbdPvPzq13OUphJcgL0KcoMaQ6du_iQlJjl9Eo3erQ_dCBK17GMnjEtA2nQeN3exQ0YbYzRXn6gvRVocDVvKB1JOVKVWOozl5QmomzpqM6Qd0X-sR5GRKDRB_IZgKoLdvPTygvUFo3dwLrERcCjHfI6XFaUyKk5nCi5TfkVZv0OnhvcQATye7TWrgrm3Wztt6sNnwk_1fD1vm2FxKZQNfDVuCEZHU4JSkSf0ymSzfVgFyArVwDEKowT_6LAe0V080]--></g></svg>