<?xml version="1.0" encoding="us-ascii" standalone="no"?><svg xmlns="http://www.w3.org/2000/svg" xmlns:xlink="http://www.w3.org/1999/xlink" contentStyleType="text/css" height="400px" preserveAspectRatio="none" style="width:659px;height:400px;background:#FFFFFF;" version="1.1" viewBox="0 0 659 400" width="659px" zoomAndPan="magnify"><defs/><g><text fill="#000000" font-family="sans-serif" font-size="14" font-weight="bold" lengthAdjust="spacing" textLength="631" x="10" y="29.5332">Trader X Example - TraderX - Trading Services - Create Trade - Sequence - Container level</text><rect fill="#FFFFFF" height="343.0313" style="stroke:#181818;stroke-width:0.5;" width="351.5" x="180.25" y="44.6094"/><text fill="#000000" font-family="sans-serif" font-size="13" font-weight="bold" lengthAdjust="spacing" textLength="51" x="330.5" y="58.1045">TraderX</text><rect fill="none" height="111.7578" style="stroke:#000000;stroke-width:1.5;" width="363.5" x="174.25" y="192.2734"/><line style="stroke:#181818;stroke-width:0.5;stroke-dasharray:5.0,5.0;" x1="141.25" x2="141.25" y1="128.5703" y2="321.0313"/><line style="stroke:#181818;stroke-width:0.5;stroke-dasharray:5.0,5.0;" x1="244.25" x2="244.25" y1="128.5703" y2="321.0313"/><line style="stroke:#181818;stroke-width:0.5;stroke-dasharray:5.0,5.0;" x1="388.75" x2="388.75" y1="128.5703" y2="321.0313"/><line style="stroke:#181818;stroke-width:0.5;stroke-dasharray:5.0,5.0;" x1="482.75" x2="482.75" y1="128.5703" y2="321.0313"/><rect fill="#E2E2F0" height="31.6094" rx="2.5" ry="2.5" style="stroke:#181818;stroke-width:0.5;" width="65" x="109.25" y="95.9609"/><text fill="#000000" font-family="sans-serif" font-size="14" lengthAdjust="spacing" textLength="51" x="116.25" y="117.4941">External</text><rect fill="#E2E2F0" height="31.6094" rx="2.5" ry="2.5" style="stroke:#181818;stroke-width:0.5;" width="65" x="109.25" y="320.0313"/><text fill="#000000" font-family="sans-serif" font-size="14" lengthAdjust="spacing" textLength="51" x="116.25" y="341.5645">External</text><rect fill="#E2E2F0" height="31.6094" rx="2.5" ry="2.5" style="stroke:#181818;stroke-width:0.5;" width="121" x="184.25" y="95.9609"/><text fill="#000000" font-family="sans-serif" font-size="14" lengthAdjust="spacing" textLength="107" x="191.25" y="117.4941">Trading Services</text><rect fill="#E2E2F0" height="31.6094" rx="2.5" ry="2.5" style="stroke:#181818;stroke-width:0.5;" width="121" x="184.25" y="320.0313"/><text fill="#000000" font-family="sans-serif" font-size="14" lengthAdjust="spacing" textLength="107" x="191.25" y="341.5645">Trading Services</text><text fill="#000000" font-family="sans-serif" font-size="14" lengthAdjust="spacing" textLength="74" x="348.75" y="125.4941">TraderX DB</text><path d="M370.75,74.9609 C370.75,64.9609 388.75,64.9609 388.75,64.9609 C388.75,64.9609 406.75,64.9609 406.75,74.9609 L406.75,100.9609 C406.75,110.9609 388.75,110.9609 388.75,110.9609 C388.75,110.9609 370.75,110.9609 370.75,100.9609 L370.75,74.9609 " fill="#E2E2F0" style="stroke:#181818;stroke-width:1.5;"/><path d="M370.75,74.9609 C370.75,84.9609 388.75,84.9609 388.75,84.9609 C388.75,84.9609 406.75,84.9609 406.75,74.9609 " fill="none" style="stroke:#181818;stroke-width:1.5;"/><text fill="#000000" font-family="sans-serif" font-size="14" lengthAdjust="spacing" textLength="74" x="348.75" y="334.5645">TraderX DB</text><path d="M370.75,347.6406 C370.75,337.6406 388.75,337.6406 388.75,337.6406 C388.75,337.6406 406.75,337.6406 406.75,347.6406 L406.75,373.6406 C406.75,383.6406 388.75,383.6406 388.75,383.6406 C388.75,383.6406 370.75,383.6406 370.75,373.6406 L370.75,347.6406 " fill="#E2E2F0" style="stroke:#181818;stroke-width:1.5;"/><path d="M370.75,347.6406 C370.75,357.6406 388.75,357.6406 388.75,357.6406 C388.75,357.6406 406.75,357.6406 406.75,347.6406 " fill="none" style="stroke:#181818;stroke-width:1.5;"/><rect fill="#E2E2F0" height="31.6094" rx="2.5" ry="2.5" style="stroke:#181818;stroke-width:0.5;" width="89" x="438.75" y="95.9609"/><text fill="#000000" font-family="sans-serif" font-size="14" lengthAdjust="spacing" textLength="75" x="445.75" y="117.4941">Trade Feed</text><rect fill="#E2E2F0" height="31.6094" rx="2.5" ry="2.5" style="stroke:#181818;stroke-width:0.5;" width="89" x="438.75" y="320.0313"/><text fill="#000000" font-family="sans-serif" font-size="14" lengthAdjust="spacing" textLength="75" x="445.75" y="341.5645">Trade Feed</text><polygon fill="#181818" points="232.75,173.2734,242.75,177.2734,232.75,181.2734,236.75,177.2734" style="stroke:#181818;stroke-width:1.0;"/><line style="stroke:#181818;stroke-width:1.0;" x1="141.75" x2="238.75" y1="177.2734" y2="177.2734"/><text fill="#000000" font-family="sans-serif" font-size="13" lengthAdjust="spacing" textLength="74" x="148.75" y="156.0654">Create Trade</text><text fill="#000000" font-family="sans-serif" font-size="13" lengthAdjust="spacing" textLength="49" x="148.75" y="172.417">[HTTPS]</text><path d="M174.25,192.2734 L302.25,192.2734 L302.25,200.625 L292.25,210.625 L174.25,210.625 L174.25,192.2734 " fill="#EEEEEE" style="stroke:#000000;stroke-width:1.5;"/><rect fill="none" height="111.7578" style="stroke:#000000;stroke-width:1.5;" width="363.5" x="174.25" y="192.2734"/><text fill="#000000" font-family="sans-serif" font-size="13" font-weight="bold" lengthAdjust="spacing" textLength="83" x="189.25" y="206.7686">Create Trade</text><polygon fill="#181818" points="376.75,245.3281,386.75,249.3281,376.75,253.3281,380.75,249.3281" style="stroke:#181818;stroke-width:1.0;"/><line style="stroke:#181818;stroke-width:1.0;" x1="244.75" x2="382.75" y1="249.3281" y2="249.3281"/><text fill="#000000" font-family="sans-serif" font-size="13" lengthAdjust="spacing" textLength="120" x="251.75" y="228.1201">Insert Trade Request</text><text fill="#000000" font-family="sans-serif" font-size="13" lengthAdjust="spacing" textLength="41" x="251.75" y="244.4717">[JDBC]</text><polygon fill="#181818" points="471.25,292.0313,481.25,296.0313,471.25,300.0313,475.25,296.0313" style="stroke:#181818;stroke-width:1.0;"/><line style="stroke:#181818;stroke-width:1.0;" x1="244.75" x2="477.25" y1="296.0313" y2="296.0313"/><text fill="#000000" font-family="sans-serif" font-size="13" lengthAdjust="spacing" textLength="118" x="251.75" y="274.8232">Send Trade Request</text><text fill="#000000" font-family="sans-serif" font-size="13" lengthAdjust="spacing" textLength="62" x="251.75" y="291.1748">[SocketIO]</text><!--SRC=[nPAnJiCm48RtUufJc9k9YO4XIIl20iAHg0GPtEGe5gaTx6iRtXudTIkbCA1c89FlT-w_ptV7YXl2migQB2vntibDwuLPa9RXfFGQ1TcTgiXvARKaEQJvKD3dbdJL7rEZMIhjpHhQKGFGIikgKgtKZD6yOx9QDX5AX-brhdsuQCm-5kQDzzAI-79C6nSVVpp402lJOHIG8hnwVbTCWFuRsP-J3cL2LdZPZqhXEZw17oHlStGPwjIIvKewEb5WbaomzrAM_Fu0mWLHFSMxpmVIDVgk0S3V-uops-djmflHUhpgbxkYU1GbhAtPjgCxc5xiOk9X0furruuiXrL-wXVPiMU-pvAq_5U-VegUJ_I3FASJfleWpX_AVim0tm00]--></g></svg>