<?xml version="1.0" encoding="us-ascii" standalone="no"?><svg xmlns="http://www.w3.org/2000/svg" xmlns:xlink="http://www.w3.org/1999/xlink" contentStyleType="text/css" height="282px" preserveAspectRatio="none" style="width:1243px;height:282px;background:#FFFFFF;" version="1.1" viewBox="0 0 1243 282" width="1243px" zoomAndPan="magnify"><defs/><g><text fill="#000000" font-family="sans-serif" font-size="14" font-weight="bold" lengthAdjust="spacing" textLength="1215" x="10" y="29.5332">E Commerce Platform - Create Product - Buying And Merchandising - Buying Service - Message Handler - Handle Purchase Order Updated Event - Sequence - Container level</text><rect fill="#FFFFFF" height="231.9766" style="stroke:#181818;stroke-width:0.5;" width="366" x="507.75" y="44.6094"/><text fill="#000000" font-family="sans-serif" font-size="13" font-weight="bold" lengthAdjust="spacing" textLength="96" x="642.75" y="58.1045">Buying Service</text><rect fill="none" height="79.0547" style="stroke:#000000;stroke-width:1.5;" width="435" x="501.75" y="144.9219"/><line style="stroke:#181818;stroke-width:0.5;stroke-dasharray:5.0,5.0;" x1="326.25" x2="326.25" y1="97.5703" y2="240.9766"/><line style="stroke:#181818;stroke-width:0.5;stroke-dasharray:5.0,5.0;" x1="573.75" x2="573.75" y1="97.5703" y2="240.9766"/><line style="stroke:#181818;stroke-width:0.5;stroke-dasharray:5.0,5.0;" x1="825.75" x2="825.75" y1="97.5703" y2="240.9766"/><line style="stroke:#181818;stroke-width:0.5;stroke-dasharray:5.0,5.0;" x1="902.75" x2="902.75" y1="97.5703" y2="240.9766"/><rect fill="#E2E2F0" height="31.6094" rx="2.5" ry="2.5" style="stroke:#181818;stroke-width:0.5;" width="65" x="294.25" y="64.9609"/><text fill="#000000" font-family="sans-serif" font-size="14" lengthAdjust="spacing" textLength="51" x="301.25" y="86.4941">External</text><rect fill="#E2E2F0" height="31.6094" rx="2.5" ry="2.5" style="stroke:#181818;stroke-width:0.5;" width="65" x="294.25" y="239.9766"/><text fill="#000000" font-family="sans-serif" font-size="14" lengthAdjust="spacing" textLength="51" x="301.25" y="261.5098">External</text><rect fill="#E2E2F0" height="31.6094" rx="2.5" ry="2.5" style="stroke:#181818;stroke-width:0.5;" width="124" x="511.75" y="64.9609"/><text fill="#000000" font-family="sans-serif" font-size="14" lengthAdjust="spacing" textLength="110" x="518.75" y="86.4941">Message Handler</text><rect fill="#E2E2F0" height="31.6094" rx="2.5" ry="2.5" style="stroke:#181818;stroke-width:0.5;" width="124" x="511.75" y="239.9766"/><text fill="#000000" font-family="sans-serif" font-size="14" lengthAdjust="spacing" textLength="110" x="518.75" y="261.5098">Message Handler</text><path d="M786.75,69.9609 L864.75,69.9609 C869.75,69.9609 869.75,83.7656 869.75,83.7656 C869.75,83.7656 869.75,97.5703 864.75,97.5703 L786.75,97.5703 C781.75,97.5703 781.75,83.7656 781.75,83.7656 C781.75,83.7656 781.75,69.9609 786.75,69.9609 " fill="#E2E2F0" style="stroke:#181818;stroke-width:0.5;"/><path d="M864.75,69.9609 C859.75,69.9609 859.75,83.7656 859.75,83.7656 C859.75,97.5703 864.75,97.5703 864.75,97.5703 " fill="none" style="stroke:#181818;stroke-width:0.5;"/><text fill="#000000" font-family="sans-serif" font-size="14" lengthAdjust="spacing" textLength="68" x="786.75" y="89.4941">Messaging</text><path d="M786.75,239.9766 L864.75,239.9766 C869.75,239.9766 869.75,253.7813 869.75,253.7813 C869.75,253.7813 869.75,267.5859 864.75,267.5859 L786.75,267.5859 C781.75,267.5859 781.75,253.7813 781.75,253.7813 C781.75,253.7813 781.75,239.9766 786.75,239.9766 " fill="#E2E2F0" style="stroke:#181818;stroke-width:0.5;"/><path d="M864.75,239.9766 C859.75,239.9766 859.75,253.7813 859.75,253.7813 C859.75,267.5859 864.75,267.5859 864.75,267.5859 " fill="none" style="stroke:#181818;stroke-width:0.5;"/><text fill="#000000" font-family="sans-serif" font-size="14" lengthAdjust="spacing" textLength="68" x="786.75" y="259.5098">Messaging</text><rect fill="#E2E2F0" height="31.6094" rx="2.5" ry="2.5" style="stroke:#181818;stroke-width:0.5;" width="47" x="879.75" y="64.9609"/><text fill="#000000" font-family="sans-serif" font-size="14" lengthAdjust="spacing" textLength="33" x="886.75" y="86.4941">WMS</text><rect fill="#E2E2F0" height="31.6094" rx="2.5" ry="2.5" style="stroke:#181818;stroke-width:0.5;" width="47" x="879.75" y="239.9766"/><text fill="#000000" font-family="sans-serif" font-size="14" lengthAdjust="spacing" textLength="33" x="886.75" y="261.5098">WMS</text><polygon fill="#181818" points="561.75,125.9219,571.75,129.9219,561.75,133.9219,565.75,129.9219" style="stroke:#181818;stroke-width:1.0;"/><line style="stroke:#181818;stroke-width:1.0;" x1="326.75" x2="567.75" y1="129.9219" y2="129.9219"/><text fill="#000000" font-family="sans-serif" font-size="13" lengthAdjust="spacing" textLength="223" x="333.75" y="125.0654">Handle Purchase Order Updated Event</text><path d="M501.75,144.9219 L790.75,144.9219 L790.75,153.2734 L780.75,163.2734 L501.75,163.2734 L501.75,144.9219 " fill="#EEEEEE" style="stroke:#000000;stroke-width:1.5;"/><rect fill="none" height="79.0547" style="stroke:#000000;stroke-width:1.5;" width="435" x="501.75" y="144.9219"/><text fill="#000000" font-family="sans-serif" font-size="13" font-weight="bold" lengthAdjust="spacing" textLength="244" x="516.75" y="159.417">Handle Purchase Order Updated Event</text><polygon fill="#181818" points="813.75,181.625,823.75,185.625,813.75,189.625,817.75,185.625" style="stroke:#181818;stroke-width:1.0;"/><line style="stroke:#181818;stroke-width:1.0;" x1="573.75" x2="819.75" y1="185.625" y2="185.625"/><text fill="#000000" font-family="sans-serif" font-size="13" lengthAdjust="spacing" textLength="228" x="580.75" y="180.7686">Receive Purchase Order Updated Event</text><polygon fill="#181818" points="891.25,211.9766,901.25,215.9766,891.25,219.9766,895.25,215.9766" style="stroke:#181818;stroke-width:1.0;"/><line style="stroke:#181818;stroke-width:1.0;" x1="573.75" x2="897.25" y1="215.9766" y2="215.9766"/><text fill="#000000" font-family="sans-serif" font-size="13" lengthAdjust="spacing" textLength="136" x="580.75" y="211.1201">Update Purchase Order</text><!--SRC=[pLExRiCm3Dpr5OGxMrEd30LQrq4x10rg59bLcqu4o9AhXvFyVUbN03ieuCce9eawyev7oKkl4598J5MXpH7sIlZIs0fYI2mAJn5hYf1x2ho4gzH7UDO5x0Xy4hgGhetShZAqZQGgCG6S4qU4Dm8fj1JfTx0FRQP3-B05nR_gWaWAI1lKBKU6Fm5rLo8nsWkf2QImGSLOBQoNkQm58QFquj5geI8G3fB7Tqt7hJ9ddfdIduN5xEeyLewFmFxCsBUvG3JL6y73uIGzCg0rOPcrqP6bercZLxntQZ2AzxN9fOb9TxfwsA20tvfrVE0SA3jDv4d0KGrbhQY3xXZInCcssGGEk-mF7Q-eP8EMRuCgfQfeidUibCpOyh51_BIoxx1PycBPqPfGBqAkB7yrmzf_j85Fp95c_lyjMFOsgQDU-goXzYimzWi0]--></g></svg>