<?xml version="1.0" encoding="us-ascii" standalone="no"?><svg xmlns="http://www.w3.org/2000/svg" xmlns:xlink="http://www.w3.org/1999/xlink" contentStyleType="text/css" height="351px" preserveAspectRatio="none" style="width:1035px;height:351px;background:#FFFFFF;" version="1.1" viewBox="0 0 1035 351" width="1035px" zoomAndPan="magnify"><defs/><g><text fill="#000000" font-family="sans-serif" font-size="14" font-weight="bold" lengthAdjust="spacing" textLength="1007" x="10" y="29.5332">E Commerce Platform - Create Product - Buying And Merchandising - Buying Service - Api - Update Purchase Order - Sequence - Container level</text><rect fill="#FFFFFF" height="293.9766" style="stroke:#181818;stroke-width:0.5;" width="316.5" x="436" y="44.6094"/><text fill="#000000" font-family="sans-serif" font-size="13" font-weight="bold" lengthAdjust="spacing" textLength="96" x="546.25" y="58.1045">Buying Service</text><rect fill="none" height="79.0547" style="stroke:#000000;stroke-width:1.5;" width="328.5" x="430" y="175.9219"/><line style="stroke:#181818;stroke-width:0.5;stroke-dasharray:5.0,5.0;" x1="296.5" x2="296.5" y1="128.5703" y2="271.9766"/><line style="stroke:#181818;stroke-width:0.5;stroke-dasharray:5.0,5.0;" x1="457" x2="457" y1="128.5703" y2="271.9766"/><line style="stroke:#181818;stroke-width:0.5;stroke-dasharray:5.0,5.0;" x1="616.5" x2="616.5" y1="128.5703" y2="271.9766"/><line style="stroke:#181818;stroke-width:0.5;stroke-dasharray:5.0,5.0;" x1="704.5" x2="704.5" y1="128.5703" y2="271.9766"/><rect fill="#E2E2F0" height="31.6094" rx="2.5" ry="2.5" style="stroke:#181818;stroke-width:0.5;" width="65" x="264.5" y="95.9609"/><text fill="#000000" font-family="sans-serif" font-size="14" lengthAdjust="spacing" textLength="51" x="271.5" y="117.4941">External</text><rect fill="#E2E2F0" height="31.6094" rx="2.5" ry="2.5" style="stroke:#181818;stroke-width:0.5;" width="65" x="264.5" y="270.9766"/><text fill="#000000" font-family="sans-serif" font-size="14" lengthAdjust="spacing" textLength="51" x="271.5" y="292.5098">External</text><rect fill="#E2E2F0" height="31.6094" rx="2.5" ry="2.5" style="stroke:#181818;stroke-width:0.5;" width="34" x="440" y="95.9609"/><text fill="#000000" font-family="sans-serif" font-size="14" lengthAdjust="spacing" textLength="20" x="447" y="117.4941">Api</text><rect fill="#E2E2F0" height="31.6094" rx="2.5" ry="2.5" style="stroke:#181818;stroke-width:0.5;" width="34" x="440" y="270.9766"/><text fill="#000000" font-family="sans-serif" font-size="14" lengthAdjust="spacing" textLength="20" x="447" y="292.5098">Api</text><text fill="#000000" font-family="sans-serif" font-size="14" lengthAdjust="spacing" textLength="61" x="583.5" y="125.4941">Database</text><path d="M599,74.9609 C599,64.9609 617,64.9609 617,64.9609 C617,64.9609 635,64.9609 635,74.9609 L635,100.9609 C635,110.9609 617,110.9609 617,110.9609 C617,110.9609 599,110.9609 599,100.9609 L599,74.9609 " fill="#E2E2F0" style="stroke:#181818;stroke-width:1.5;"/><path d="M599,74.9609 C599,84.9609 617,84.9609 617,84.9609 C617,84.9609 635,84.9609 635,74.9609 " fill="none" style="stroke:#181818;stroke-width:1.5;"/><text fill="#000000" font-family="sans-serif" font-size="14" lengthAdjust="spacing" textLength="61" x="583.5" y="285.5098">Database</text><path d="M599,298.5859 C599,288.5859 617,288.5859 617,288.5859 C617,288.5859 635,288.5859 635,298.5859 L635,324.5859 C635,334.5859 617,334.5859 617,334.5859 C617,334.5859 599,334.5859 599,324.5859 L599,298.5859 " fill="#E2E2F0" style="stroke:#181818;stroke-width:1.5;"/><path d="M599,298.5859 C599,308.5859 617,308.5859 617,308.5859 C617,308.5859 635,308.5859 635,298.5859 " fill="none" style="stroke:#181818;stroke-width:1.5;"/><path d="M665.5,100.9609 L743.5,100.9609 C748.5,100.9609 748.5,114.7656 748.5,114.7656 C748.5,114.7656 748.5,128.5703 743.5,128.5703 L665.5,128.5703 C660.5,128.5703 660.5,114.7656 660.5,114.7656 C660.5,114.7656 660.5,100.9609 665.5,100.9609 " fill="#E2E2F0" style="stroke:#181818;stroke-width:0.5;"/><path d="M743.5,100.9609 C738.5,100.9609 738.5,114.7656 738.5,114.7656 C738.5,128.5703 743.5,128.5703 743.5,128.5703 " fill="none" style="stroke:#181818;stroke-width:0.5;"/><text fill="#000000" font-family="sans-serif" font-size="14" lengthAdjust="spacing" textLength="68" x="665.5" y="120.4941">Messaging</text><path d="M665.5,270.9766 L743.5,270.9766 C748.5,270.9766 748.5,284.7813 748.5,284.7813 C748.5,284.7813 748.5,298.5859 743.5,298.5859 L665.5,298.5859 C660.5,298.5859 660.5,284.7813 660.5,284.7813 C660.5,284.7813 660.5,270.9766 665.5,270.9766 " fill="#E2E2F0" style="stroke:#181818;stroke-width:0.5;"/><path d="M743.5,270.9766 C738.5,270.9766 738.5,284.7813 738.5,284.7813 C738.5,298.5859 743.5,298.5859 743.5,298.5859 " fill="none" style="stroke:#181818;stroke-width:0.5;"/><text fill="#000000" font-family="sans-serif" font-size="14" lengthAdjust="spacing" textLength="68" x="665.5" y="290.5098">Messaging</text><polygon fill="#181818" points="445,156.9219,455,160.9219,445,164.9219,449,160.9219" style="stroke:#181818;stroke-width:1.0;"/><line style="stroke:#181818;stroke-width:1.0;" x1="297" x2="451" y1="160.9219" y2="160.9219"/><text fill="#000000" font-family="sans-serif" font-size="13" lengthAdjust="spacing" textLength="136" x="304" y="156.0654">Update Purchase Order</text><path d="M430,175.9219 L623,175.9219 L623,184.2734 L613,194.2734 L430,194.2734 L430,175.9219 " fill="#EEEEEE" style="stroke:#000000;stroke-width:1.5;"/><rect fill="none" height="79.0547" style="stroke:#000000;stroke-width:1.5;" width="328.5" x="430" y="175.9219"/><text fill="#000000" font-family="sans-serif" font-size="13" font-weight="bold" lengthAdjust="spacing" textLength="148" x="445" y="190.417">Update Purchase Order</text><polygon fill="#181818" points="605,212.625,615,216.625,605,220.625,609,216.625" style="stroke:#181818;stroke-width:1.0;"/><line style="stroke:#181818;stroke-width:1.0;" x1="457" x2="611" y1="216.625" y2="216.625"/><text fill="#000000" font-family="sans-serif" font-size="13" lengthAdjust="spacing" textLength="136" x="464" y="211.7686">Update Purchase Order</text><polygon fill="#181818" points="692.5,242.9766,702.5,246.9766,692.5,250.9766,696.5,246.9766" style="stroke:#181818;stroke-width:1.0;"/><line style="stroke:#181818;stroke-width:1.0;" x1="457" x2="698.5" y1="246.9766" y2="246.9766"/><text fill="#000000" font-family="sans-serif" font-size="13" lengthAdjust="spacing" textLength="213" x="464" y="242.1201">Send Purchase Order Updated Event</text><!--SRC=[tLGxQyCm4DxrAmvtjgPE7GgfwqA6q88fdHNhaWXioPLEJlBlUtw2smOwUQW7OvsE-nxtOJ9K8UIGkRf6NoAyLOeEpjUGGkPH4LUyqx4aBZp5gx57s5WDEsu-AQjDw2hpLO6-DJmbXKrZ-FtUw7v4xBe3mglNwBbUu6T4spTcpf8obiiLjbW9qIXFfZIDiWH9VY7qLbK9g03P_TRoyQLoPrcu0vsLn-8Q2EiWfyRXBCJUNI1PiahWxkDa20Nmiq1XiZr0FjamkI073qOBv32FzI_a_-0oj8seSXOO9EFqu6oAsdT-9C_Zrohm4rZFWHSGcS0EGr17xb-5mOmca4F4En92_7sha3wkiI9u-3stukXTR6xShS5h1VbJH6vwy4zqpa5aeKMNnM-_g46yXhn5IrrOXVW2]--></g></svg>