<?xml version="1.0" encoding="us-ascii" standalone="no"?><svg xmlns="http://www.w3.org/2000/svg" xmlns:xlink="http://www.w3.org/1999/xlink" contentStyleType="text/css" height="351px" preserveAspectRatio="none" style="width:1035px;height:351px;background:#FFFFFF;" version="1.1" viewBox="0 0 1035 351" width="1035px" zoomAndPan="magnify"><defs/><g><text fill="#000000" font-family="sans-serif" font-size="14" font-weight="bold" lengthAdjust="spacing" textLength="1007" x="10" y="29.5332">E Commerce Platform - Create Product - Buying And Merchandising - Buying Service - Api - Update Purchase Order - Sequence - Container level</text><rect fill="#FFFFFF" height="293.9766" style="stroke:#181818;stroke-width:0.5;" width="310.5" x="439" y="44.6094"/><text fill="#000000" font-family="sans-serif" font-size="13" font-weight="bold" lengthAdjust="spacing" textLength="96" x="546.25" y="58.1045">Buying Service</text><rect fill="none" height="79.0547" style="stroke:#000000;stroke-width:1.5;" width="322.5" x="433" y="175.9219"/><line style="stroke:#181818;stroke-width:0.5;stroke-dasharray:5.0,5.0;" x1="299.5" x2="299.5" y1="128.5703" y2="271.9766"/><line style="stroke:#181818;stroke-width:0.5;stroke-dasharray:5.0,5.0;" x1="460" x2="460" y1="128.5703" y2="271.9766"/><line style="stroke:#181818;stroke-width:0.5;stroke-dasharray:5.0,5.0;" x1="619.5" x2="619.5" y1="128.5703" y2="271.9766"/><line style="stroke:#181818;stroke-width:0.5;stroke-dasharray:5.0,5.0;" x1="704.5" x2="704.5" y1="128.5703" y2="271.9766"/><rect fill="#E2E2F0" height="31.6094" rx="2.5" ry="2.5" style="stroke:#181818;stroke-width:0.5;" width="65" x="267.5" y="95.9609"/><text fill="#000000" font-family="sans-serif" font-size="14" lengthAdjust="spacing" textLength="51" x="274.5" y="117.4941">External</text><rect fill="#E2E2F0" height="31.6094" rx="2.5" ry="2.5" style="stroke:#181818;stroke-width:0.5;" width="65" x="267.5" y="270.9766"/><text fill="#000000" font-family="sans-serif" font-size="14" lengthAdjust="spacing" textLength="51" x="274.5" y="292.5098">External</text><rect fill="#E2E2F0" height="31.6094" rx="2.5" ry="2.5" style="stroke:#181818;stroke-width:0.5;" width="34" x="443" y="95.9609"/><text fill="#000000" font-family="sans-serif" font-size="14" lengthAdjust="spacing" textLength="20" x="450" y="117.4941">Api</text><rect fill="#E2E2F0" height="31.6094" rx="2.5" ry="2.5" style="stroke:#181818;stroke-width:0.5;" width="34" x="443" y="270.9766"/><text fill="#000000" font-family="sans-serif" font-size="14" lengthAdjust="spacing" textLength="20" x="450" y="292.5098">Api</text><text fill="#000000" font-family="sans-serif" font-size="14" lengthAdjust="spacing" textLength="61" x="586.5" y="125.4941">Database</text><path d="M602,74.9609 C602,64.9609 620,64.9609 620,64.9609 C620,64.9609 638,64.9609 638,74.9609 L638,100.9609 C638,110.9609 620,110.9609 620,110.9609 C620,110.9609 602,110.9609 602,100.9609 L602,74.9609 " fill="#E2E2F0" style="stroke:#181818;stroke-width:1.5;"/><path d="M602,74.9609 C602,84.9609 620,84.9609 620,84.9609 C620,84.9609 638,84.9609 638,74.9609 " fill="none" style="stroke:#181818;stroke-width:1.5;"/><text fill="#000000" font-family="sans-serif" font-size="14" lengthAdjust="spacing" textLength="61" x="586.5" y="285.5098">Database</text><path d="M602,298.5859 C602,288.5859 620,288.5859 620,288.5859 C620,288.5859 638,288.5859 638,298.5859 L638,324.5859 C638,334.5859 620,334.5859 620,334.5859 C620,334.5859 602,334.5859 602,324.5859 L602,298.5859 " fill="#E2E2F0" style="stroke:#181818;stroke-width:1.5;"/><path d="M602,298.5859 C602,308.5859 620,308.5859 620,308.5859 C620,308.5859 638,308.5859 638,298.5859 " fill="none" style="stroke:#181818;stroke-width:1.5;"/><rect fill="#E2E2F0" height="31.6094" rx="2.5" ry="2.5" style="stroke:#181818;stroke-width:0.5;" width="82" x="663.5" y="95.9609"/><text fill="#000000" font-family="sans-serif" font-size="14" lengthAdjust="spacing" textLength="68" x="670.5" y="117.4941">Messaging</text><rect fill="#E2E2F0" height="31.6094" rx="2.5" ry="2.5" style="stroke:#181818;stroke-width:0.5;" width="82" x="663.5" y="270.9766"/><text fill="#000000" font-family="sans-serif" font-size="14" lengthAdjust="spacing" textLength="68" x="670.5" y="292.5098">Messaging</text><polygon fill="#181818" points="448,156.9219,458,160.9219,448,164.9219,452,160.9219" style="stroke:#181818;stroke-width:1.0;"/><line style="stroke:#181818;stroke-width:1.0;" x1="300" x2="454" y1="160.9219" y2="160.9219"/><text fill="#000000" font-family="sans-serif" font-size="13" lengthAdjust="spacing" textLength="136" x="307" y="156.0654">Update Purchase Order</text><path d="M433,175.9219 L626,175.9219 L626,184.2734 L616,194.2734 L433,194.2734 L433,175.9219 " fill="#EEEEEE" style="stroke:#000000;stroke-width:1.5;"/><rect fill="none" height="79.0547" style="stroke:#000000;stroke-width:1.5;" width="322.5" x="433" y="175.9219"/><text fill="#000000" font-family="sans-serif" font-size="13" font-weight="bold" lengthAdjust="spacing" textLength="148" x="448" y="190.417">Update Purchase Order</text><polygon fill="#181818" points="608,212.625,618,216.625,608,220.625,612,216.625" style="stroke:#181818;stroke-width:1.0;"/><line style="stroke:#181818;stroke-width:1.0;" x1="460" x2="614" y1="216.625" y2="216.625"/><text fill="#000000" font-family="sans-serif" font-size="13" lengthAdjust="spacing" textLength="136" x="467" y="211.7686">Update Purchase Order</text><polygon fill="#181818" points="692.5,242.9766,702.5,246.9766,692.5,250.9766,696.5,246.9766" style="stroke:#181818;stroke-width:1.0;"/><line style="stroke:#181818;stroke-width:1.0;" x1="460" x2="698.5" y1="246.9766" y2="246.9766"/><text fill="#000000" font-family="sans-serif" font-size="13" lengthAdjust="spacing" textLength="213" x="467" y="242.1201">Send Purchase Order Updated Event</text><!--SRC=[tLInReCm4Dtz5ISwuwbJXqeffLA7g9LGrTd15sB9sDG-IFBtFI0WqJHI9uPwGFRvk7VltPF9a4N88VDrZQ54UBUAzZxKa48MK157WjTjIHnuQi_6LR1n6hQSV51EczX7vgi2GsUuIWgRnl3tez53YRRFZWXlGMFWU85VBReXCVEEb74SjjYX5Q9HWKnf6kK8aln469oo2QW8sVshu-EBzKTP-3qTLS3Y70dhAAV4yIp4pfyWMNQLmDtdmH0AuBL0uMO7W7oIOL91ZXfS991ZFUQ_e7_LovXsGPKpmIWPPm1dKTIkroDvlknMWP_0hWNOOeoguhzMwMD64yXMuaa98Vu-MqWVrnWKFFpkNb45tpOtxjReQmNwar5kQl1FUCv6PA95xyKV3zL8NaFUeQFUh49y0m00]--></g></svg>