<?xml version="1.0" encoding="us-ascii" standalone="no"?><svg xmlns="http://www.w3.org/2000/svg" xmlns:xlink="http://www.w3.org/1999/xlink" contentStyleType="text/css" height="407px" preserveAspectRatio="none" style="width:1273px;height:407px;background:#FFFFFF;" version="1.1" viewBox="0 0 1273 407" width="1273px" zoomAndPan="magnify"><defs/><g><text fill="#000000" font-family="sans-serif" font-size="14" font-weight="bold" lengthAdjust="spacing" textLength="1245" x="10" y="29.5332">ECommercePlatform - CreateProduct - ProductInformationManagement - Product Service - Message Handler - Handle Purchase Order Created Event - Sequence - Container level</text><rect fill="#FFFFFF" height="357.3828" style="stroke:#181818;stroke-width:0.5;" width="316.5" x="525.5" y="44.6094"/><text fill="#000000" font-family="sans-serif" font-size="13" font-weight="bold" lengthAdjust="spacing" textLength="101" x="633.25" y="58.1045">Product Service</text><rect fill="#FFFFFF" height="357.3828" style="stroke:#181818;stroke-width:0.5;" width="102" x="844" y="44.6094"/><text fill="#000000" font-family="sans-serif" font-size="13" font-weight="bold" lengthAdjust="spacing" textLength="96" x="847" y="58.1045">Buying Service</text><rect fill="none" height="204.4609" style="stroke:#000000;stroke-width:1.5;" width="446.5" x="499.5" y="144.9219"/><rect fill="none" height="141.7578" style="stroke:#000000;stroke-width:1.5;" width="348.5" x="509.5" y="200.625"/><rect fill="none" height="79.0547" style="stroke:#000000;stroke-width:1.5;" width="328.5" x="519.5" y="256.3281"/><line style="stroke:#181818;stroke-width:0.5;stroke-dasharray:5.0,5.0;" x1="347" x2="347" y1="97.5703" y2="366.3828"/><line style="stroke:#181818;stroke-width:0.5;stroke-dasharray:5.0,5.0;" x1="591.5" x2="591.5" y1="97.5703" y2="366.3828"/><line style="stroke:#181818;stroke-width:0.5;stroke-dasharray:5.0,5.0;" x1="708" x2="708" y1="97.5703" y2="366.3828"/><line style="stroke:#181818;stroke-width:0.5;stroke-dasharray:5.0,5.0;" x1="797" x2="797" y1="97.5703" y2="366.3828"/><line style="stroke:#181818;stroke-width:0.5;stroke-dasharray:5.0,5.0;" x1="895" x2="895" y1="97.5703" y2="366.3828"/><rect fill="#E2E2F0" height="31.6094" rx="2.5" ry="2.5" style="stroke:#181818;stroke-width:0.5;" width="65" x="315" y="64.9609"/><text fill="#000000" font-family="sans-serif" font-size="14" lengthAdjust="spacing" textLength="51" x="322" y="86.4941">External</text><rect fill="#E2E2F0" height="31.6094" rx="2.5" ry="2.5" style="stroke:#181818;stroke-width:0.5;" width="65" x="315" y="365.3828"/><text fill="#000000" font-family="sans-serif" font-size="14" lengthAdjust="spacing" textLength="51" x="322" y="386.916">External</text><rect fill="#E2E2F0" height="31.6094" rx="2.5" ry="2.5" style="stroke:#181818;stroke-width:0.5;" width="124" x="529.5" y="64.9609"/><text fill="#000000" font-family="sans-serif" font-size="14" lengthAdjust="spacing" textLength="110" x="536.5" y="86.4941">Message Handler</text><rect fill="#E2E2F0" height="31.6094" rx="2.5" ry="2.5" style="stroke:#181818;stroke-width:0.5;" width="124" x="529.5" y="365.3828"/><text fill="#000000" font-family="sans-serif" font-size="14" lengthAdjust="spacing" textLength="110" x="536.5" y="386.916">Message Handler</text><rect fill="#E2E2F0" height="31.6094" rx="2.5" ry="2.5" style="stroke:#181818;stroke-width:0.5;" width="75" x="671" y="64.9609"/><text fill="#000000" font-family="sans-serif" font-size="14" lengthAdjust="spacing" textLength="61" x="678" y="86.4941">Database</text><rect fill="#E2E2F0" height="31.6094" rx="2.5" ry="2.5" style="stroke:#181818;stroke-width:0.5;" width="75" x="671" y="365.3828"/><text fill="#000000" font-family="sans-serif" font-size="14" lengthAdjust="spacing" textLength="61" x="678" y="386.916">Database</text><rect fill="#E2E2F0" height="31.6094" rx="2.5" ry="2.5" style="stroke:#181818;stroke-width:0.5;" width="82" x="756" y="64.9609"/><text fill="#000000" font-family="sans-serif" font-size="14" lengthAdjust="spacing" textLength="68" x="763" y="86.4941">Messaging</text><rect fill="#E2E2F0" height="31.6094" rx="2.5" ry="2.5" style="stroke:#181818;stroke-width:0.5;" width="82" x="756" y="365.3828"/><text fill="#000000" font-family="sans-serif" font-size="14" lengthAdjust="spacing" textLength="68" x="763" y="386.916">Messaging</text><rect fill="#E2E2F0" height="31.6094" rx="2.5" ry="2.5" style="stroke:#181818;stroke-width:0.5;" width="82" x="854" y="64.9609"/><text fill="#000000" font-family="sans-serif" font-size="14" lengthAdjust="spacing" textLength="68" x="861" y="86.4941">Messaging</text><rect fill="#E2E2F0" height="31.6094" rx="2.5" ry="2.5" style="stroke:#181818;stroke-width:0.5;" width="82" x="854" y="365.3828"/><text fill="#000000" font-family="sans-serif" font-size="14" lengthAdjust="spacing" textLength="68" x="861" y="386.916">Messaging</text><polygon fill="#181818" points="579.5,125.9219,589.5,129.9219,579.5,133.9219,583.5,129.9219" style="stroke:#181818;stroke-width:1.0;"/><line style="stroke:#181818;stroke-width:1.0;" x1="347.5" x2="585.5" y1="129.9219" y2="129.9219"/><text fill="#000000" font-family="sans-serif" font-size="13" lengthAdjust="spacing" textLength="220" x="354.5" y="125.0654">Handle Purchase Order Created Event</text><path d="M499.5,144.9219 L785.5,144.9219 L785.5,153.2734 L775.5,163.2734 L499.5,163.2734 L499.5,144.9219 " fill="#EEEEEE" style="stroke:#000000;stroke-width:1.5;"/><rect fill="none" height="204.4609" style="stroke:#000000;stroke-width:1.5;" width="446.5" x="499.5" y="144.9219"/><text fill="#000000" font-family="sans-serif" font-size="13" font-weight="bold" lengthAdjust="spacing" textLength="241" x="514.5" y="159.417">Handle Purchase Order Created Event</text><polygon fill="#181818" points="883,181.625,893,185.625,883,189.625,887,185.625" style="stroke:#181818;stroke-width:1.0;"/><line style="stroke:#181818;stroke-width:1.0;" x1="591.5" x2="889" y1="185.625" y2="185.625"/><text fill="#000000" font-family="sans-serif" font-size="13" lengthAdjust="spacing" textLength="225" x="598.5" y="180.7686">Receive Purchase Order Created Event</text><path d="M509.5,200.625 L582.5,200.625 L582.5,208.9766 L572.5,218.9766 L509.5,218.9766 L509.5,200.625 " fill="#EEEEEE" style="stroke:#000000;stroke-width:1.5;"/><rect fill="none" height="141.7578" style="stroke:#000000;stroke-width:1.5;" width="348.5" x="509.5" y="200.625"/><text fill="#000000" font-family="sans-serif" font-size="13" font-weight="bold" lengthAdjust="spacing" textLength="28" x="524.5" y="215.1201">loop</text><text fill="#000000" font-family="sans-serif" font-size="11" font-weight="bold" lengthAdjust="spacing" textLength="204" x="597.5" y="214.0439">[For each Product in Purchase Order]</text><polygon fill="#181818" points="696.5,237.3281,706.5,241.3281,696.5,245.3281,700.5,241.3281" style="stroke:#181818;stroke-width:1.0;"/><line style="stroke:#181818;stroke-width:1.0;" x1="591.5" x2="702.5" y1="241.3281" y2="241.3281"/><text fill="#000000" font-family="sans-serif" font-size="13" lengthAdjust="spacing" textLength="93" x="598.5" y="236.4717">Select Products</text><path d="M519.5,256.3281 L580.5,256.3281 L580.5,264.6797 L570.5,274.6797 L519.5,274.6797 L519.5,256.3281 " fill="#EEEEEE" style="stroke:#000000;stroke-width:1.5;"/><rect fill="none" height="79.0547" style="stroke:#000000;stroke-width:1.5;" width="328.5" x="519.5" y="256.3281"/><text fill="#000000" font-family="sans-serif" font-size="13" font-weight="bold" lengthAdjust="spacing" textLength="16" x="534.5" y="270.8232">alt</text><text fill="#000000" font-family="sans-serif" font-size="11" font-weight="bold" lengthAdjust="spacing" textLength="109" x="595.5" y="269.7471">[Product Not Found]</text><polygon fill="#181818" points="696.5,293.0313,706.5,297.0313,696.5,301.0313,700.5,297.0313" style="stroke:#181818;stroke-width:1.0;"/><line style="stroke:#181818;stroke-width:1.0;" x1="591.5" x2="702.5" y1="297.0313" y2="297.0313"/><text fill="#000000" font-family="sans-serif" font-size="13" lengthAdjust="spacing" textLength="81" x="598.5" y="292.1748">Insert Product</text><polygon fill="#181818" points="785,323.3828,795,327.3828,785,331.3828,789,327.3828" style="stroke:#181818;stroke-width:1.0;"/><line style="stroke:#181818;stroke-width:1.0;" x1="591.5" x2="791" y1="327.3828" y2="327.3828"/><text fill="#000000" font-family="sans-serif" font-size="13" lengthAdjust="spacing" textLength="164" x="598.5" y="322.5264">Send Product Created Event</text><!--SRC=[vPHDRy8m38Rl-HLMTwQddNQOj37GEB2XzR2pQGr4IfqkIGly-nbQAZwqhGS4qrQfKltH-FNZ9447Gp3espmdbzB4O9XPbqCF-eumqCJPh4o3sCtNY3Tn3Dho61ddb1FlXI4XL-cKn3CcxoKEpyYP8IUU-WicfKiNw0bUNIR-kb06WwfUAQ6FadYxHDzoGCsIPAWYerI1BkXK5oYPqM0Lo36Q2D13_tR4OWwDNSQ9dOKbEahMFb3kurrYRIirjIk8ZWH7SFE-q84Ko7DGvgYFRRKJOF41hlWxM2VockH6IDmsxUEcT5FvLDeJ1fmAoKjgsjNy2fJc-UKHIL55d85CLZNpVIpNukqwtgwgwrKVE1lJPXDpfhtO9thhj8vokszTwDrVP-l1NPV3g-REbaMdpEjqqG7VsGOioDue9LtzGC9OMy3GEY1C5-qrgldehzzBxCptYd1Bo90mQ7AzGjCQy6A3q2ev-qz0Hkp9jGp-VEVxPoZPt9ExuH-U78cqh_e4]--></g></svg>