<?xml version="1.0" encoding="us-ascii" standalone="no"?><svg xmlns="http://www.w3.org/2000/svg" xmlns:xlink="http://www.w3.org/1999/xlink" contentStyleType="text/css" height="314px" preserveAspectRatio="none" style="width:735px;height:314px;background:#FFFFFF;" version="1.1" viewBox="0 0 735 314" width="735px" zoomAndPan="magnify"><defs/><g><text fill="#000000" font-family="sans-serif" font-size="14" font-weight="bold" lengthAdjust="spacing" textLength="707" x="10" y="29.5332">BigBankPlc - Internet Banking - Mobile App - View Account Transactions - Sequence - Container level</text><rect fill="#FFFFFF" height="264.3281" style="stroke:#181818;stroke-width:0.5;" width="279" x="191.5" y="44.6094"/><text fill="#000000" font-family="sans-serif" font-size="13" font-weight="bold" lengthAdjust="spacing" textLength="105" x="278.5" y="58.1045">Internet Banking</text><rect fill="none" height="111.4063" style="stroke:#000000;stroke-width:1.5;" width="514.5" x="185.5" y="144.9219"/><rect fill="none" height="48.7031" style="stroke:#000000;stroke-width:1.5;" width="341.5" x="348.5" y="200.625"/><line style="stroke:#181818;stroke-width:0.5;stroke-dasharray:5.0,5.0;" x1="55" x2="55" y1="97.5703" y2="273.3281"/><line style="stroke:#181818;stroke-width:0.5;stroke-dasharray:5.0,5.0;" x1="237.5" x2="237.5" y1="97.5703" y2="273.3281"/><line style="stroke:#181818;stroke-width:0.5;stroke-dasharray:5.0,5.0;" x1="412.5" x2="412.5" y1="97.5703" y2="273.3281"/><line style="stroke:#181818;stroke-width:0.5;stroke-dasharray:5.0,5.0;" x1="587" x2="587" y1="97.5703" y2="273.3281"/><rect fill="#E2E2F0" height="31.6094" rx="2.5" ry="2.5" style="stroke:#181818;stroke-width:0.5;" width="65" x="23" y="64.9609"/><text fill="#000000" font-family="sans-serif" font-size="14" lengthAdjust="spacing" textLength="51" x="30" y="86.4941">External</text><rect fill="#E2E2F0" height="31.6094" rx="2.5" ry="2.5" style="stroke:#181818;stroke-width:0.5;" width="65" x="23" y="272.3281"/><text fill="#000000" font-family="sans-serif" font-size="14" lengthAdjust="spacing" textLength="51" x="30" y="293.8613">External</text><rect fill="#E2E2F0" height="31.6094" rx="2.5" ry="2.5" style="stroke:#181818;stroke-width:0.5;" width="84" x="195.5" y="64.9609"/><text fill="#000000" font-family="sans-serif" font-size="14" lengthAdjust="spacing" textLength="70" x="202.5" y="86.4941">Mobile App</text><rect fill="#E2E2F0" height="31.6094" rx="2.5" ry="2.5" style="stroke:#181818;stroke-width:0.5;" width="84" x="195.5" y="272.3281"/><text fill="#000000" font-family="sans-serif" font-size="14" lengthAdjust="spacing" textLength="70" x="202.5" y="293.8613">Mobile App</text><rect fill="#E2E2F0" height="31.6094" rx="2.5" ry="2.5" style="stroke:#181818;stroke-width:0.5;" width="108" x="358.5" y="64.9609"/><text fill="#000000" font-family="sans-serif" font-size="14" lengthAdjust="spacing" textLength="94" x="365.5" y="86.4941">API Application</text><rect fill="#E2E2F0" height="31.6094" rx="2.5" ry="2.5" style="stroke:#181818;stroke-width:0.5;" width="108" x="358.5" y="272.3281"/><text fill="#000000" font-family="sans-serif" font-size="14" lengthAdjust="spacing" textLength="94" x="365.5" y="293.8613">API Application</text><rect fill="#E2E2F0" height="31.6094" rx="2.5" ry="2.5" style="stroke:#181818;stroke-width:0.5;" width="185" x="495" y="64.9609"/><text fill="#000000" font-family="sans-serif" font-size="14" lengthAdjust="spacing" textLength="171" x="502" y="86.4941">Mainframe Banking System</text><rect fill="#E2E2F0" height="31.6094" rx="2.5" ry="2.5" style="stroke:#181818;stroke-width:0.5;" width="185" x="495" y="272.3281"/><text fill="#000000" font-family="sans-serif" font-size="14" lengthAdjust="spacing" textLength="171" x="502" y="293.8613">Mainframe Banking System</text><polygon fill="#181818" points="225.5,125.9219,235.5,129.9219,225.5,133.9219,229.5,129.9219" style="stroke:#181818;stroke-width:1.0;"/><line style="stroke:#181818;stroke-width:1.0;" x1="55.5" x2="231.5" y1="129.9219" y2="129.9219"/><text fill="#000000" font-family="sans-serif" font-size="13" lengthAdjust="spacing" textLength="158" x="62.5" y="125.0654">View Account Transactions</text><path d="M185.5,144.9219 L401.5,144.9219 L401.5,153.2734 L391.5,163.2734 L185.5,163.2734 L185.5,144.9219 " fill="#EEEEEE" style="stroke:#000000;stroke-width:1.5;"/><rect fill="none" height="111.4063" style="stroke:#000000;stroke-width:1.5;" width="514.5" x="185.5" y="144.9219"/><text fill="#000000" font-family="sans-serif" font-size="13" font-weight="bold" lengthAdjust="spacing" textLength="171" x="200.5" y="159.417">View Account Transactions</text><polygon fill="#181818" points="400.5,181.625,410.5,185.625,400.5,189.625,404.5,185.625" style="stroke:#181818;stroke-width:1.0;"/><line style="stroke:#181818;stroke-width:1.0;" x1="237.5" x2="406.5" y1="185.625" y2="185.625"/><text fill="#000000" font-family="sans-serif" font-size="13" lengthAdjust="spacing" textLength="151" x="244.5" y="180.7686">Get Account Transactions</text><path d="M348.5,200.625 L554.5,200.625 L554.5,208.9766 L544.5,218.9766 L348.5,218.9766 L348.5,200.625 " fill="#EEEEEE" style="stroke:#000000;stroke-width:1.5;"/><rect fill="none" height="48.7031" style="stroke:#000000;stroke-width:1.5;" width="341.5" x="348.5" y="200.625"/><text fill="#000000" font-family="sans-serif" font-size="13" font-weight="bold" lengthAdjust="spacing" textLength="161" x="363.5" y="215.1201">Get Account Transactions</text><polygon fill="#181818" points="575.5,237.3281,585.5,241.3281,575.5,245.3281,579.5,241.3281" style="stroke:#181818;stroke-width:1.0;"/><line style="stroke:#181818;stroke-width:1.0;" x1="412.5" x2="581.5" y1="241.3281" y2="241.3281"/><text fill="#000000" font-family="sans-serif" font-size="13" lengthAdjust="spacing" textLength="151" x="419.5" y="236.4717">Get Account Transactions</text><!--SRC=[hLB1JiCm3BtdAwnoNa-SE21r4w0T9aqgWdCMl68jIqAIql7tkEtQiOqLHAaKgOdjzvwV7IbgX2aLKsasIwrW0dCJqHkCK3-HAVXfOLV4QPbpV7aYh21JofOcmgEN9aWLoPh0iHpVIZGA-NTcJPHaq8F6TzH2EEaZANAIovAxNKqYTG8omEowuRpNjafpkuwLz9X_X8ZRa7Q9xLs8bTr1SYenWQldLueeWByZdeFoXkdGw1bHXxc7J7lz8Mr16ECSFrlEQt1DIjOUZ21Xf2z00iqBSAydjYquUUtb5llXjCW_yVPr-xBEpTyx3vFRiUx1pUNT4OMtfHk8Z-N-i_pZkN0F3xnt0orS3FyB_N0RtuzvI3ElMNF49m00]--></g></svg>