<?xml version="1.0" encoding="us-ascii" standalone="no"?><svg xmlns="http://www.w3.org/2000/svg" xmlns:xlink="http://www.w3.org/1999/xlink" contentStyleType="text/css" height="383px" preserveAspectRatio="none" style="width:425px;height:383px;background:#FFFFFF;" version="1.1" viewBox="0 0 425 383" width="425px" zoomAndPan="magnify"><defs/><g><text fill="#000000" font-family="sans-serif" font-size="14" font-weight="bold" lengthAdjust="spacing" textLength="300" x="64" y="29.5332">Execute Trades - Sequence - Context level</text><rect fill="none" height="48.7031" style="stroke:#000000;stroke-width:1.5;" width="242" x="10" y="93.2188"/><rect fill="none" height="48.7031" style="stroke:#000000;stroke-width:1.5;" width="313" x="106" y="155.9219"/><rect fill="none" height="48.7031" style="stroke:#000000;stroke-width:1.5;" width="290" x="106" y="218.625"/><rect fill="none" height="48.7031" style="stroke:#000000;stroke-width:1.5;" width="189" x="10" y="281.3281"/><line style="stroke:#181818;stroke-width:0.5;stroke-dasharray:5.0,5.0;" x1="48" x2="48" y1="76.2188" y2="347.0313"/><line style="stroke:#181818;stroke-width:0.5;stroke-dasharray:5.0,5.0;" x1="148" x2="148" y1="76.2188" y2="347.0313"/><line style="stroke:#181818;stroke-width:0.5;stroke-dasharray:5.0,5.0;" x1="251" x2="251" y1="76.2188" y2="347.0313"/><rect fill="#E2E2F0" height="31.6094" rx="2.5" ry="2.5" style="stroke:#181818;stroke-width:0.5;" width="57" x="20" y="43.6094"/><text fill="#000000" font-family="sans-serif" font-size="14" lengthAdjust="spacing" textLength="43" x="27" y="65.1426">Trader</text><rect fill="#E2E2F0" height="31.6094" rx="2.5" ry="2.5" style="stroke:#181818;stroke-width:0.5;" width="57" x="20" y="346.0313"/><text fill="#000000" font-family="sans-serif" font-size="14" lengthAdjust="spacing" textLength="43" x="27" y="367.5645">Trader</text><rect fill="#E2E2F0" height="31.6094" rx="2.5" ry="2.5" style="stroke:#181818;stroke-width:0.5;" width="65" x="116" y="43.6094"/><text fill="#000000" font-family="sans-serif" font-size="14" lengthAdjust="spacing" textLength="51" x="123" y="65.1426">TraderX</text><rect fill="#E2E2F0" height="31.6094" rx="2.5" ry="2.5" style="stroke:#181818;stroke-width:0.5;" width="65" x="116" y="346.0313"/><text fill="#000000" font-family="sans-serif" font-size="14" lengthAdjust="spacing" textLength="51" x="123" y="367.5645">TraderX</text><rect fill="#E2E2F0" height="31.6094" rx="2.5" ry="2.5" style="stroke:#181818;stroke-width:0.5;" width="120" x="191" y="43.6094"/><text fill="#000000" font-family="sans-serif" font-size="14" lengthAdjust="spacing" textLength="106" x="198" y="65.1426">External Process</text><rect fill="#E2E2F0" height="31.6094" rx="2.5" ry="2.5" style="stroke:#181818;stroke-width:0.5;" width="120" x="191" y="346.0313"/><text fill="#000000" font-family="sans-serif" font-size="14" lengthAdjust="spacing" textLength="106" x="198" y="367.5645">External Process</text><path d="M10,93.2188 L247,93.2188 L247,101.5703 L237,111.5703 L10,111.5703 L10,93.2188 " fill="#EEEEEE" style="stroke:#000000;stroke-width:1.5;"/><rect fill="none" height="48.7031" style="stroke:#000000;stroke-width:1.5;" width="242" x="10" y="93.2188"/><text fill="#000000" font-family="sans-serif" font-size="13" font-weight="bold" lengthAdjust="spacing" textLength="192" x="25" y="107.7139">Trader - Create Trade Request</text><polygon fill="#181818" points="136.5,129.9219,146.5,133.9219,136.5,137.9219,140.5,133.9219" style="stroke:#181818;stroke-width:1.0;"/><line style="stroke:#181818;stroke-width:1.0;" x1="48.5" x2="142.5" y1="133.9219" y2="133.9219"/><text fill="#000000" font-family="sans-serif" font-size="13" lengthAdjust="spacing" textLength="74" x="55.5" y="129.0654">Create Trade</text><path d="M106,155.9219 L414,155.9219 L414,164.2734 L404,174.2734 L106,174.2734 L106,155.9219 " fill="#EEEEEE" style="stroke:#000000;stroke-width:1.5;"/><rect fill="none" height="48.7031" style="stroke:#000000;stroke-width:1.5;" width="313" x="106" y="155.9219"/><text fill="#000000" font-family="sans-serif" font-size="13" font-weight="bold" lengthAdjust="spacing" textLength="263" x="121" y="170.417">External Process - Process Trade Request</text><polygon fill="#181818" points="159.5,192.625,149.5,196.625,159.5,200.625,155.5,196.625" style="stroke:#181818;stroke-width:1.0;"/><line style="stroke:#181818;stroke-width:1.0;" x1="153.5" x2="250" y1="196.625" y2="196.625"/><text fill="#000000" font-family="sans-serif" font-size="13" lengthAdjust="spacing" textLength="28" x="165.5" y="191.7686">Start</text><path d="M106,218.625 L391,218.625 L391,226.9766 L381,236.9766 L106,236.9766 L106,218.625 " fill="#EEEEEE" style="stroke:#000000;stroke-width:1.5;"/><rect fill="none" height="48.7031" style="stroke:#000000;stroke-width:1.5;" width="290" x="106" y="218.625"/><text fill="#000000" font-family="sans-serif" font-size="13" font-weight="bold" lengthAdjust="spacing" textLength="240" x="121" y="233.1201">External Process - Refresh Web Client</text><polygon fill="#181818" points="159.5,255.3281,149.5,259.3281,159.5,263.3281,155.5,259.3281" style="stroke:#181818;stroke-width:1.0;"/><line style="stroke:#181818;stroke-width:1.0;" x1="153.5" x2="250" y1="259.3281" y2="259.3281"/><text fill="#000000" font-family="sans-serif" font-size="13" lengthAdjust="spacing" textLength="28" x="165.5" y="254.4717">Start</text><path d="M10,281.3281 L194,281.3281 L194,289.6797 L184,299.6797 L10,299.6797 L10,281.3281 " fill="#EEEEEE" style="stroke:#000000;stroke-width:1.5;"/><rect fill="none" height="48.7031" style="stroke:#000000;stroke-width:1.5;" width="189" x="10" y="281.3281"/><text fill="#000000" font-family="sans-serif" font-size="13" font-weight="bold" lengthAdjust="spacing" textLength="139" x="25" y="295.8232">Trader - Cancel Trade</text><polygon fill="#181818" points="136.5,318.0313,146.5,322.0313,136.5,326.0313,140.5,322.0313" style="stroke:#181818;stroke-width:1.0;"/><line style="stroke:#181818;stroke-width:1.0;" x1="48.5" x2="142.5" y1="322.0313" y2="322.0313"/><text fill="#000000" font-family="sans-serif" font-size="13" lengthAdjust="spacing" textLength="76" x="55.5" y="317.1748">Cancel Trade</text><!--SRC=[jP91Qy9048NlyokctlK7z228U2-cq5p7zMa3czrqTgBntvlKX3OIRA7qDWjlvdlliK-Loh4KzdA9jN4gOHA4o0hpu4q3LnluLMMFn7FEy54ZEBJZEWP3O-nnWYUgHArmHIN1UFQfrnbBkgrglbWvYveMj-UKEX_9itYmioYoIpAKmru-Njmq1WtY-KMZGqfJm47JIuYE6kkgLtKn538av6qNBnbDckRvyYTx_3owHmZxddTljIKFqqFqdVtVUSYiRUanV8k38htp6tQyzWN2_v2_QfRsr_Y-bh_K-_rEnw4h]--></g></svg>