<?xml version="1.0" encoding="us-ascii" standalone="no"?><svg xmlns="http://www.w3.org/2000/svg" xmlns:xlink="http://www.w3.org/1999/xlink" contentStyleType="text/css" height="351px" preserveAspectRatio="none" style="width:902px;height:351px;background:#FFFFFF;" version="1.1" viewBox="0 0 902 351" width="902px" zoomAndPan="magnify"><defs/><g><text fill="#000000" font-family="sans-serif" font-size="14" font-weight="bold" lengthAdjust="spacing" textLength="874" x="10" y="29.5332">E Commerce Platform - Deliver - Fulfilment - Fulfilment Service - Api - Post Order Shipped Event - Sequence - Container level</text><rect fill="#FFFFFF" height="293.9766" style="stroke:#181818;stroke-width:0.5;" width="299.5" x="385" y="44.6094"/><text fill="#000000" font-family="sans-serif" font-size="13" font-weight="bold" lengthAdjust="spacing" textLength="116" x="476.75" y="58.1045">Fulfilment Service</text><rect fill="none" height="79.0547" style="stroke:#000000;stroke-width:1.5;" width="311.5" x="379" y="175.9219"/><line style="stroke:#181818;stroke-width:0.5;stroke-dasharray:5.0,5.0;" x1="231.5" x2="231.5" y1="128.5703" y2="271.9766"/><line style="stroke:#181818;stroke-width:0.5;stroke-dasharray:5.0,5.0;" x1="406" x2="406" y1="128.5703" y2="271.9766"/><line style="stroke:#181818;stroke-width:0.5;stroke-dasharray:5.0,5.0;" x1="548.5" x2="548.5" y1="128.5703" y2="271.9766"/><line style="stroke:#181818;stroke-width:0.5;stroke-dasharray:5.0,5.0;" x1="636.5" x2="636.5" y1="128.5703" y2="271.9766"/><rect fill="#E2E2F0" height="31.6094" rx="2.5" ry="2.5" style="stroke:#181818;stroke-width:0.5;" width="65" x="199.5" y="95.9609"/><text fill="#000000" font-family="sans-serif" font-size="14" lengthAdjust="spacing" textLength="51" x="206.5" y="117.4941">External</text><rect fill="#E2E2F0" height="31.6094" rx="2.5" ry="2.5" style="stroke:#181818;stroke-width:0.5;" width="65" x="199.5" y="270.9766"/><text fill="#000000" font-family="sans-serif" font-size="14" lengthAdjust="spacing" textLength="51" x="206.5" y="292.5098">External</text><rect fill="#E2E2F0" height="31.6094" rx="2.5" ry="2.5" style="stroke:#181818;stroke-width:0.5;" width="34" x="389" y="95.9609"/><text fill="#000000" font-family="sans-serif" font-size="14" lengthAdjust="spacing" textLength="20" x="396" y="117.4941">Api</text><rect fill="#E2E2F0" height="31.6094" rx="2.5" ry="2.5" style="stroke:#181818;stroke-width:0.5;" width="34" x="389" y="270.9766"/><text fill="#000000" font-family="sans-serif" font-size="14" lengthAdjust="spacing" textLength="20" x="396" y="292.5098">Api</text><text fill="#000000" font-family="sans-serif" font-size="14" lengthAdjust="spacing" textLength="61" x="515.5" y="125.4941">Database</text><path d="M531,74.9609 C531,64.9609 549,64.9609 549,64.9609 C549,64.9609 567,64.9609 567,74.9609 L567,100.9609 C567,110.9609 549,110.9609 549,110.9609 C549,110.9609 531,110.9609 531,100.9609 L531,74.9609 " fill="#E2E2F0" style="stroke:#181818;stroke-width:1.5;"/><path d="M531,74.9609 C531,84.9609 549,84.9609 549,84.9609 C549,84.9609 567,84.9609 567,74.9609 " fill="none" style="stroke:#181818;stroke-width:1.5;"/><text fill="#000000" font-family="sans-serif" font-size="14" lengthAdjust="spacing" textLength="61" x="515.5" y="285.5098">Database</text><path d="M531,298.5859 C531,288.5859 549,288.5859 549,288.5859 C549,288.5859 567,288.5859 567,298.5859 L567,324.5859 C567,334.5859 549,334.5859 549,334.5859 C549,334.5859 531,334.5859 531,324.5859 L531,298.5859 " fill="#E2E2F0" style="stroke:#181818;stroke-width:1.5;"/><path d="M531,298.5859 C531,308.5859 549,308.5859 549,308.5859 C549,308.5859 567,308.5859 567,298.5859 " fill="none" style="stroke:#181818;stroke-width:1.5;"/><path d="M597.5,100.9609 L675.5,100.9609 C680.5,100.9609 680.5,114.7656 680.5,114.7656 C680.5,114.7656 680.5,128.5703 675.5,128.5703 L597.5,128.5703 C592.5,128.5703 592.5,114.7656 592.5,114.7656 C592.5,114.7656 592.5,100.9609 597.5,100.9609 " fill="#E2E2F0" style="stroke:#181818;stroke-width:0.5;"/><path d="M675.5,100.9609 C670.5,100.9609 670.5,114.7656 670.5,114.7656 C670.5,128.5703 675.5,128.5703 675.5,128.5703 " fill="none" style="stroke:#181818;stroke-width:0.5;"/><text fill="#000000" font-family="sans-serif" font-size="14" lengthAdjust="spacing" textLength="68" x="597.5" y="120.4941">Messaging</text><path d="M597.5,270.9766 L675.5,270.9766 C680.5,270.9766 680.5,284.7813 680.5,284.7813 C680.5,284.7813 680.5,298.5859 675.5,298.5859 L597.5,298.5859 C592.5,298.5859 592.5,284.7813 592.5,284.7813 C592.5,284.7813 592.5,270.9766 597.5,270.9766 " fill="#E2E2F0" style="stroke:#181818;stroke-width:0.5;"/><path d="M675.5,270.9766 C670.5,270.9766 670.5,284.7813 670.5,284.7813 C670.5,298.5859 675.5,298.5859 675.5,298.5859 " fill="none" style="stroke:#181818;stroke-width:0.5;"/><text fill="#000000" font-family="sans-serif" font-size="14" lengthAdjust="spacing" textLength="68" x="597.5" y="290.5098">Messaging</text><polygon fill="#181818" points="394,156.9219,404,160.9219,394,164.9219,398,160.9219" style="stroke:#181818;stroke-width:1.0;"/><line style="stroke:#181818;stroke-width:1.0;" x1="232" x2="400" y1="160.9219" y2="160.9219"/><text fill="#000000" font-family="sans-serif" font-size="13" lengthAdjust="spacing" textLength="150" x="239" y="156.0654">Post Order Shipped Event</text><path d="M379,175.9219 L587,175.9219 L587,184.2734 L577,194.2734 L379,194.2734 L379,175.9219 " fill="#EEEEEE" style="stroke:#000000;stroke-width:1.5;"/><rect fill="none" height="79.0547" style="stroke:#000000;stroke-width:1.5;" width="311.5" x="379" y="175.9219"/><text fill="#000000" font-family="sans-serif" font-size="13" font-weight="bold" lengthAdjust="spacing" textLength="163" x="394" y="190.417">Post Order Shipped Event</text><polygon fill="#181818" points="537,212.625,547,216.625,537,220.625,541,216.625" style="stroke:#181818;stroke-width:1.0;"/><line style="stroke:#181818;stroke-width:1.0;" x1="406" x2="543" y1="216.625" y2="216.625"/><text fill="#000000" font-family="sans-serif" font-size="13" lengthAdjust="spacing" textLength="119" x="413" y="211.7686">Update Order Status</text><polygon fill="#181818" points="624.5,242.9766,634.5,246.9766,624.5,250.9766,628.5,246.9766" style="stroke:#181818;stroke-width:1.0;"/><line style="stroke:#181818;stroke-width:1.0;" x1="406" x2="630.5" y1="246.9766" y2="246.9766"/><text fill="#000000" font-family="sans-serif" font-size="13" lengthAdjust="spacing" textLength="153" x="413" y="242.1201">Send Order Shipped Event</text><!--SRC=[rPB1QiCm38RlVWgHdUFJJZiCHfh23cK5CtPs6oKrEBPdAsdtzjFI9ALqXLroM0x1iYNz-YIH8OjGGk7R5kCUOMirrJwsaCCAhUanycdTsThO5XrT6mfZRpWeXvTW-B_rYU0jLXoa3YO4hA3ipr4AFpjqWs_X7MdZsCbYZrQ8e2EPlGcQFRFoH1YTjXde1CNZgsDpRVrHAb_JKKTKNucmJN9oFDj2xFm9ijlYCdZuE1X20VnTAN7DWqWvmK_iSYINbsmtwfUdKKVEM4bova6kqgHtEY5ag_6qaE2KVb3bHdSikS6KT6DSiv3cd5-Wgu2xBuJu-xmWVrwcyV1qTmr54tqNxZylKyyYeDF0cVOzy9hX14IQklIVIEOrOXJriqc_JORlXVW6]--></g></svg>