<?xml version="1.0" encoding="us-ascii" standalone="no"?><svg xmlns="http://www.w3.org/2000/svg" xmlns:xlink="http://www.w3.org/1999/xlink" contentStyleType="text/css" height="351px" preserveAspectRatio="none" style="width:534px;height:351px;background:#FFFFFF;" version="1.1" viewBox="0 0 534 351" width="534px" zoomAndPan="magnify"><defs/><g><text fill="#000000" font-family="sans-serif" font-size="14" font-weight="bold" lengthAdjust="spacing" textLength="506" x="10" y="29.5332">Internet Banking - API Application - Change Password - CONTAINER level</text><rect fill="#FFFFFF" height="293.9766" style="stroke:#181818;stroke-width:0.5;" width="252.5" x="113.5" y="44.6094"/><text fill="#000000" font-family="sans-serif" font-size="13" font-weight="bold" lengthAdjust="spacing" textLength="105" x="187.25" y="58.1045">Internet Banking</text><rect fill="none" height="79.0547" style="stroke:#000000;stroke-width:1.5;" width="404.5" x="107.5" y="175.9219"/><line style="stroke:#181818;stroke-width:0.5;stroke-dasharray:5.0,5.0;" x1="42" x2="42" y1="128.5703" y2="271.9766"/><line style="stroke:#181818;stroke-width:0.5;stroke-dasharray:5.0,5.0;" x1="171.5" x2="171.5" y1="128.5703" y2="271.9766"/><line style="stroke:#181818;stroke-width:0.5;stroke-dasharray:5.0,5.0;" x1="328" x2="328" y1="128.5703" y2="271.9766"/><line style="stroke:#181818;stroke-width:0.5;stroke-dasharray:5.0,5.0;" x1="450" x2="450" y1="128.5703" y2="271.9766"/><rect fill="#E2E2F0" height="31.6094" rx="2.5" ry="2.5" style="stroke:#181818;stroke-width:0.5;" width="65" x="10" y="95.9609"/><text fill="#000000" font-family="sans-serif" font-size="14" lengthAdjust="spacing" textLength="51" x="17" y="117.4941">External</text><rect fill="#E2E2F0" height="31.6094" rx="2.5" ry="2.5" style="stroke:#181818;stroke-width:0.5;" width="65" x="10" y="270.9766"/><text fill="#000000" font-family="sans-serif" font-size="14" lengthAdjust="spacing" textLength="51" x="17" y="292.5098">External</text><rect fill="#E2E2F0" height="31.6094" rx="2.5" ry="2.5" style="stroke:#181818;stroke-width:0.5;" width="108" x="117.5" y="95.9609"/><text fill="#000000" font-family="sans-serif" font-size="14" lengthAdjust="spacing" textLength="94" x="124.5" y="117.4941">API Application</text><rect fill="#E2E2F0" height="31.6094" rx="2.5" ry="2.5" style="stroke:#181818;stroke-width:0.5;" width="108" x="117.5" y="270.9766"/><text fill="#000000" font-family="sans-serif" font-size="14" lengthAdjust="spacing" textLength="94" x="124.5" y="292.5098">API Application</text><text fill="#000000" font-family="sans-serif" font-size="14" lengthAdjust="spacing" textLength="61" x="295" y="125.4941">Database</text><path d="M310.5,74.9609 C310.5,64.9609 328.5,64.9609 328.5,64.9609 C328.5,64.9609 346.5,64.9609 346.5,74.9609 L346.5,100.9609 C346.5,110.9609 328.5,110.9609 328.5,110.9609 C328.5,110.9609 310.5,110.9609 310.5,100.9609 L310.5,74.9609 " fill="#E2E2F0" style="stroke:#181818;stroke-width:1.5;"/><path d="M310.5,74.9609 C310.5,84.9609 328.5,84.9609 328.5,84.9609 C328.5,84.9609 346.5,84.9609 346.5,74.9609 " fill="none" style="stroke:#181818;stroke-width:1.5;"/><text fill="#000000" font-family="sans-serif" font-size="14" lengthAdjust="spacing" textLength="61" x="295" y="285.5098">Database</text><path d="M310.5,298.5859 C310.5,288.5859 328.5,288.5859 328.5,288.5859 C328.5,288.5859 346.5,288.5859 346.5,298.5859 L346.5,324.5859 C346.5,334.5859 328.5,334.5859 328.5,334.5859 C328.5,334.5859 310.5,334.5859 310.5,324.5859 L310.5,298.5859 " fill="#E2E2F0" style="stroke:#181818;stroke-width:1.5;"/><path d="M310.5,298.5859 C310.5,308.5859 328.5,308.5859 328.5,308.5859 C328.5,308.5859 346.5,308.5859 346.5,298.5859 " fill="none" style="stroke:#181818;stroke-width:1.5;"/><rect fill="#E2E2F0" height="31.6094" rx="2.5" ry="2.5" style="stroke:#181818;stroke-width:0.5;" width="103" x="399" y="95.9609"/><text fill="#000000" font-family="sans-serif" font-size="14" lengthAdjust="spacing" textLength="89" x="406" y="117.4941">E-Mail System</text><rect fill="#E2E2F0" height="31.6094" rx="2.5" ry="2.5" style="stroke:#181818;stroke-width:0.5;" width="103" x="399" y="270.9766"/><text fill="#000000" font-family="sans-serif" font-size="14" lengthAdjust="spacing" textLength="89" x="406" y="292.5098">E-Mail System</text><polygon fill="#181818" points="159.5,156.9219,169.5,160.9219,159.5,164.9219,163.5,160.9219" style="stroke:#181818;stroke-width:1.0;"/><line style="stroke:#181818;stroke-width:1.0;" x1="42.5" x2="165.5" y1="160.9219" y2="160.9219"/><text fill="#000000" font-family="sans-serif" font-size="13" lengthAdjust="spacing" textLength="105" x="49.5" y="156.0654">Change Password</text><path d="M107.5,175.9219 L266.5,175.9219 L266.5,184.2734 L256.5,194.2734 L107.5,194.2734 L107.5,175.9219 " fill="#EEEEEE" style="stroke:#000000;stroke-width:1.5;"/><rect fill="none" height="79.0547" style="stroke:#000000;stroke-width:1.5;" width="404.5" x="107.5" y="175.9219"/><text fill="#000000" font-family="sans-serif" font-size="13" font-weight="bold" lengthAdjust="spacing" textLength="114" x="122.5" y="190.417">Change Password</text><polygon fill="#181818" points="316.5,212.625,326.5,216.625,316.5,220.625,320.5,216.625" style="stroke:#181818;stroke-width:1.0;"/><line style="stroke:#181818;stroke-width:1.0;" x1="171.5" x2="322.5" y1="216.625" y2="216.625"/><text fill="#000000" font-family="sans-serif" font-size="13" lengthAdjust="spacing" textLength="133" x="178.5" y="211.7686">Update User Password</text><polygon fill="#181818" points="438.5,242.9766,448.5,246.9766,438.5,250.9766,442.5,246.9766" style="stroke:#181818;stroke-width:1.0;"/><line style="stroke:#181818;stroke-width:1.0;" x1="171.5" x2="444.5" y1="246.9766" y2="246.9766"/><text fill="#000000" font-family="sans-serif" font-size="13" lengthAdjust="spacing" textLength="255" x="178.5" y="242.1201">Send Password Changed Notification E-Mail</text><!--SRC=[lPD1JuD048Nl-oj6FCF9amSJYZNX83RMnlCKfdJZihlPdKhxxrsWc4eF6ctS4piPllTuCrnPXtM3eF1WTWo-8KQDGh1aHP1h9gU9OORwJUeQOaWNEQJMAbaYIwD39TkYhWaMw7rhNDLLdegND2_cpw3edPGG5XtBKbhK3D5ytq5HHO0UifjUuq6PDbcQ3RVeQ7dmJ8rFniRXBiJQx26QMehW-dKhcGI4yqLduhINcycwUs-XoZEr4Npa9fdHZ5AJyqaWdO1wfGePr-W9ellZqn_u8qAGhY1yvJIm-16bWW7qdSoywnqJ-tcw4DzT91oudUw3g9tPsRFgHSH-RNfCFDXTsJ1BWfKdzw_kJWOLN2oxqN_-GaDO5HI6vMR43MlGxOWG7m00]--></g></svg>