<?xml version="1.0" encoding="us-ascii" standalone="no"?><svg xmlns="http://www.w3.org/2000/svg" xmlns:xlink="http://www.w3.org/1999/xlink" contentStyleType="text/css" height="454px" preserveAspectRatio="none" style="width:681px;height:454px;background:#FFFFFF;" version="1.1" viewBox="0 0 681 454" width="681px" zoomAndPan="magnify"><defs/><g><text fill="#000000" font-family="sans-serif" font-size="14" font-weight="bold" lengthAdjust="spacing" textLength="514" x="85.25" y="29.5332">Trader X Example - TraderX - Web GUI - Start - Sequence - Container level</text><rect fill="#FFFFFF" height="403.4375" style="stroke:#181818;stroke-width:0.5;" width="380.5" x="76" y="44.6094"/><text fill="#000000" font-family="sans-serif" font-size="13" font-weight="bold" lengthAdjust="spacing" textLength="51" x="240.75" y="58.1045">TraderX</text><rect fill="none" height="250.5156" style="stroke:#000000;stroke-width:1.5;" width="605.5" x="70" y="144.9219"/><rect fill="none" height="78.0547" style="stroke:#000000;stroke-width:1.5;" width="306" x="359.5" y="310.3828"/><line style="stroke:#181818;stroke-width:0.5;stroke-dasharray:5.0,5.0;" x1="37" x2="37" y1="97.5703" y2="412.4375"/><line style="stroke:#181818;stroke-width:0.5;stroke-dasharray:5.0,5.0;" x1="115" x2="115" y1="97.5703" y2="412.4375"/><line style="stroke:#181818;stroke-width:0.5;stroke-dasharray:5.0,5.0;" x1="311.5" x2="311.5" y1="97.5703" y2="412.4375"/><line style="stroke:#181818;stroke-width:0.5;stroke-dasharray:5.0,5.0;" x1="410.5" x2="410.5" y1="97.5703" y2="412.4375"/><rect fill="#E2E2F0" height="31.6094" rx="2.5" ry="2.5" style="stroke:#181818;stroke-width:0.5;" width="65" x="5" y="64.9609"/><text fill="#000000" font-family="sans-serif" font-size="14" lengthAdjust="spacing" textLength="51" x="12" y="86.4941">External</text><rect fill="#E2E2F0" height="31.6094" rx="2.5" ry="2.5" style="stroke:#181818;stroke-width:0.5;" width="65" x="5" y="411.4375"/><text fill="#000000" font-family="sans-serif" font-size="14" lengthAdjust="spacing" textLength="51" x="12" y="432.9707">External</text><rect fill="#E2E2F0" height="31.6094" rx="2.5" ry="2.5" style="stroke:#181818;stroke-width:0.5;" width="70" x="80" y="64.9609"/><text fill="#000000" font-family="sans-serif" font-size="14" lengthAdjust="spacing" textLength="56" x="87" y="86.4941">Web GUI</text><rect fill="#E2E2F0" height="31.6094" rx="2.5" ry="2.5" style="stroke:#181818;stroke-width:0.5;" width="70" x="80" y="411.4375"/><text fill="#000000" font-family="sans-serif" font-size="14" lengthAdjust="spacing" textLength="56" x="87" y="432.9707">Web GUI</text><path d="M269.5,69.9609 L354.5,69.9609 C359.5,69.9609 359.5,83.7656 359.5,83.7656 C359.5,83.7656 359.5,97.5703 354.5,97.5703 L269.5,97.5703 C264.5,97.5703 264.5,83.7656 264.5,83.7656 C264.5,83.7656 264.5,69.9609 269.5,69.9609 " fill="#E2E2F0" style="stroke:#181818;stroke-width:0.5;"/><path d="M354.5,69.9609 C349.5,69.9609 349.5,83.7656 349.5,83.7656 C349.5,97.5703 354.5,97.5703 354.5,97.5703 " fill="none" style="stroke:#181818;stroke-width:0.5;"/><text fill="#000000" font-family="sans-serif" font-size="14" lengthAdjust="spacing" textLength="75" x="269.5" y="89.4941">Trade Feed</text><path d="M269.5,411.4375 L354.5,411.4375 C359.5,411.4375 359.5,425.2422 359.5,425.2422 C359.5,425.2422 359.5,439.0469 354.5,439.0469 L269.5,439.0469 C264.5,439.0469 264.5,425.2422 264.5,425.2422 C264.5,425.2422 264.5,411.4375 269.5,411.4375 " fill="#E2E2F0" style="stroke:#181818;stroke-width:0.5;"/><path d="M354.5,411.4375 C349.5,411.4375 349.5,425.2422 349.5,425.2422 C349.5,439.0469 354.5,439.0469 354.5,439.0469 " fill="none" style="stroke:#181818;stroke-width:0.5;"/><text fill="#000000" font-family="sans-serif" font-size="14" lengthAdjust="spacing" textLength="75" x="269.5" y="430.9707">Trade Feed</text><rect fill="#E2E2F0" height="31.6094" rx="2.5" ry="2.5" style="stroke:#181818;stroke-width:0.5;" width="83" x="369.5" y="64.9609"/><text fill="#000000" font-family="sans-serif" font-size="14" lengthAdjust="spacing" textLength="69" x="376.5" y="86.4941">Web Client</text><rect fill="#E2E2F0" height="31.6094" rx="2.5" ry="2.5" style="stroke:#181818;stroke-width:0.5;" width="83" x="369.5" y="411.4375"/><text fill="#000000" font-family="sans-serif" font-size="14" lengthAdjust="spacing" textLength="69" x="376.5" y="432.9707">Web Client</text><polygon fill="#181818" points="103,125.9219,113,129.9219,103,133.9219,107,129.9219" style="stroke:#181818;stroke-width:1.0;"/><line style="stroke:#181818;stroke-width:1.0;" x1="37.5" x2="109" y1="129.9219" y2="129.9219"/><text fill="#000000" font-family="sans-serif" font-size="13" lengthAdjust="spacing" textLength="28" x="44.5" y="125.0654">Start</text><path d="M70,144.9219 L145,144.9219 L145,153.2734 L135,163.2734 L70,163.2734 L70,144.9219 " fill="#EEEEEE" style="stroke:#000000;stroke-width:1.5;"/><rect fill="none" height="250.5156" style="stroke:#000000;stroke-width:1.5;" width="605.5" x="70" y="144.9219"/><text fill="#000000" font-family="sans-serif" font-size="13" font-weight="bold" lengthAdjust="spacing" textLength="30" x="85" y="159.417">Start</text><polygon fill="#181818" points="300,197.9766,310,201.9766,300,205.9766,304,201.9766" style="stroke:#181818;stroke-width:1.0;"/><line style="stroke:#181818;stroke-width:1.0;" x1="115" x2="306" y1="201.9766" y2="201.9766"/><text fill="#000000" font-family="sans-serif" font-size="13" lengthAdjust="spacing" textLength="158" x="122" y="180.7686">Receive Updates To Trades</text><text fill="#000000" font-family="sans-serif" font-size="13" lengthAdjust="spacing" textLength="76" x="122" y="197.1201">[WebSocket]</text><polygon fill="#181818" points="300,244.6797,310,248.6797,300,252.6797,304,248.6797" style="stroke:#181818;stroke-width:1.0;"/><line style="stroke:#181818;stroke-width:1.0;" x1="115" x2="306" y1="248.6797" y2="248.6797"/><text fill="#000000" font-family="sans-serif" font-size="13" lengthAdjust="spacing" textLength="173" x="122" y="227.4717">Receive Updates To Positions</text><text fill="#000000" font-family="sans-serif" font-size="13" lengthAdjust="spacing" textLength="76" x="122" y="243.8232">[WebSocket]</text><polygon fill="#181818" points="399,291.3828,409,295.3828,399,299.3828,403,295.3828" style="stroke:#181818;stroke-width:1.0;"/><line style="stroke:#181818;stroke-width:1.0;" x1="115" x2="405" y1="295.3828" y2="295.3828"/><text fill="#000000" font-family="sans-serif" font-size="13" lengthAdjust="spacing" textLength="238" x="122" y="274.1748">Send Trade And Position Status Updates</text><text fill="#000000" font-family="sans-serif" font-size="13" lengthAdjust="spacing" textLength="76" x="122" y="290.5264">[WebSocket]</text><path d="M359.5,310.3828 L660.5,310.3828 L660.5,318.7344 L650.5,328.7344 L359.5,328.7344 L359.5,310.3828 " fill="#EEEEEE" style="stroke:#000000;stroke-width:1.5;"/><rect fill="none" height="78.0547" style="stroke:#000000;stroke-width:1.5;" width="306" x="359.5" y="310.3828"/><text fill="#000000" font-family="sans-serif" font-size="13" font-weight="bold" lengthAdjust="spacing" textLength="256" x="374.5" y="324.8779">Send Trade And Position Status Updates</text><line style="stroke:#181818;stroke-width:1.0;" x1="411" x2="453" y1="367.4375" y2="367.4375"/><line style="stroke:#181818;stroke-width:1.0;" x1="453" x2="453" y1="367.4375" y2="380.4375"/><line style="stroke:#181818;stroke-width:1.0;" x1="412" x2="453" y1="380.4375" y2="380.4375"/><polygon fill="#181818" points="422,376.4375,412,380.4375,422,384.4375,418,380.4375" style="stroke:#181818;stroke-width:1.0;"/><text fill="#000000" font-family="sans-serif" font-size="13" lengthAdjust="spacing" textLength="229" x="418" y="346.2295">Update Trade And Position Status View</text><text fill="#000000" font-family="sans-serif" font-size="13" lengthAdjust="spacing" textLength="49" x="418" y="362.5811">[HTTPS]</text><!--SRC=[pPDBJuD0483l-oicU2udJnvC36crjqQeRQ8zR67KZTjTP8TI_xspi90q6jFGGoKXp0xp-EQnf4WZP9Kii88rJ0zoLx9Y4bHhbbQuXVlbdAMKP4N-YvyrcjoR9TQGL8QTDUvH2r6oYSfLAGr1D3qGLaRg2AI3v7fk-3ZJjebJ-qgDh33zSeGx5_U6tLc8hJr0510Yk5gzAq81_1o53sHjz60S2lYH8FoE1ruNipSxjr6vd1f3GfWX5YD3jYhl_pjheXKQ6e_R-Giq1N23X12djnGcjwDR13VTvCLRPUiooAE3ZG8P6iiiZvYZsYCioq8ISYjj5z2zc6VEaThy0sdplm0NrYbIrboKSTWWFr2_HDs-tx7Ky_dXKkrwz6FQCFwJFCKvU6TNrq7yGVcaiE7Y7h9iaMxyXMfVyGq0]--></g></svg>