<?xml version="1.0" encoding="us-ascii" standalone="no"?><svg xmlns="http://www.w3.org/2000/svg" xmlns:xlink="http://www.w3.org/1999/xlink" contentStyleType="text/css" height="454px" preserveAspectRatio="none" style="width:678px;height:454px;background:#FFFFFF;" version="1.1" viewBox="0 0 678 454" width="678px" zoomAndPan="magnify"><defs/><g><text fill="#000000" font-family="sans-serif" font-size="14" font-weight="bold" lengthAdjust="spacing" textLength="514" x="83.75" y="29.5332">Trader X Example - TraderX - Web GUI - Start - Sequence - Container level</text><rect fill="#FFFFFF" height="403.4375" style="stroke:#181818;stroke-width:0.5;" width="377.5" x="76" y="44.6094"/><text fill="#000000" font-family="sans-serif" font-size="13" font-weight="bold" lengthAdjust="spacing" textLength="51" x="239.25" y="58.1045">TraderX</text><rect fill="none" height="250.5156" style="stroke:#000000;stroke-width:1.5;" width="602.5" x="70" y="144.9219"/><rect fill="none" height="78.0547" style="stroke:#000000;stroke-width:1.5;" width="306" x="356.5" y="310.3828"/><line style="stroke:#181818;stroke-width:0.5;stroke-dasharray:5.0,5.0;" x1="37" x2="37" y1="97.5703" y2="412.4375"/><line style="stroke:#181818;stroke-width:0.5;stroke-dasharray:5.0,5.0;" x1="115" x2="115" y1="97.5703" y2="412.4375"/><line style="stroke:#181818;stroke-width:0.5;stroke-dasharray:5.0,5.0;" x1="311.5" x2="311.5" y1="97.5703" y2="412.4375"/><line style="stroke:#181818;stroke-width:0.5;stroke-dasharray:5.0,5.0;" x1="407.5" x2="407.5" y1="97.5703" y2="412.4375"/><rect fill="#E2E2F0" height="31.6094" rx="2.5" ry="2.5" style="stroke:#181818;stroke-width:0.5;" width="65" x="5" y="64.9609"/><text fill="#000000" font-family="sans-serif" font-size="14" lengthAdjust="spacing" textLength="51" x="12" y="86.4941">External</text><rect fill="#E2E2F0" height="31.6094" rx="2.5" ry="2.5" style="stroke:#181818;stroke-width:0.5;" width="65" x="5" y="411.4375"/><text fill="#000000" font-family="sans-serif" font-size="14" lengthAdjust="spacing" textLength="51" x="12" y="432.9707">External</text><rect fill="#E2E2F0" height="31.6094" rx="2.5" ry="2.5" style="stroke:#181818;stroke-width:0.5;" width="70" x="80" y="64.9609"/><text fill="#000000" font-family="sans-serif" font-size="14" lengthAdjust="spacing" textLength="56" x="87" y="86.4941">Web GUI</text><rect fill="#E2E2F0" height="31.6094" rx="2.5" ry="2.5" style="stroke:#181818;stroke-width:0.5;" width="70" x="80" y="411.4375"/><text fill="#000000" font-family="sans-serif" font-size="14" lengthAdjust="spacing" textLength="56" x="87" y="432.9707">Web GUI</text><rect fill="#E2E2F0" height="31.6094" rx="2.5" ry="2.5" style="stroke:#181818;stroke-width:0.5;" width="89" x="267.5" y="64.9609"/><text fill="#000000" font-family="sans-serif" font-size="14" lengthAdjust="spacing" textLength="75" x="274.5" y="86.4941">Trade Feed</text><rect fill="#E2E2F0" height="31.6094" rx="2.5" ry="2.5" style="stroke:#181818;stroke-width:0.5;" width="89" x="267.5" y="411.4375"/><text fill="#000000" font-family="sans-serif" font-size="14" lengthAdjust="spacing" textLength="75" x="274.5" y="432.9707">Trade Feed</text><rect fill="#E2E2F0" height="31.6094" rx="2.5" ry="2.5" style="stroke:#181818;stroke-width:0.5;" width="83" x="366.5" y="64.9609"/><text fill="#000000" font-family="sans-serif" font-size="14" lengthAdjust="spacing" textLength="69" x="373.5" y="86.4941">Web Client</text><rect fill="#E2E2F0" height="31.6094" rx="2.5" ry="2.5" style="stroke:#181818;stroke-width:0.5;" width="83" x="366.5" y="411.4375"/><text fill="#000000" font-family="sans-serif" font-size="14" lengthAdjust="spacing" textLength="69" x="373.5" y="432.9707">Web Client</text><polygon fill="#181818" points="103,125.9219,113,129.9219,103,133.9219,107,129.9219" style="stroke:#181818;stroke-width:1.0;"/><line style="stroke:#181818;stroke-width:1.0;" x1="37.5" x2="109" y1="129.9219" y2="129.9219"/><text fill="#000000" font-family="sans-serif" font-size="13" lengthAdjust="spacing" textLength="28" x="44.5" y="125.0654">Start</text><path d="M70,144.9219 L145,144.9219 L145,153.2734 L135,163.2734 L70,163.2734 L70,144.9219 " fill="#EEEEEE" style="stroke:#000000;stroke-width:1.5;"/><rect fill="none" height="250.5156" style="stroke:#000000;stroke-width:1.5;" width="602.5" x="70" y="144.9219"/><text fill="#000000" font-family="sans-serif" font-size="13" font-weight="bold" lengthAdjust="spacing" textLength="30" x="85" y="159.417">Start</text><polygon fill="#181818" points="300,197.9766,310,201.9766,300,205.9766,304,201.9766" style="stroke:#181818;stroke-width:1.0;"/><line style="stroke:#181818;stroke-width:1.0;" x1="115" x2="306" y1="201.9766" y2="201.9766"/><text fill="#000000" font-family="sans-serif" font-size="13" lengthAdjust="spacing" textLength="158" x="122" y="180.7686">Receive Updates To Trades</text><text fill="#000000" font-family="sans-serif" font-size="13" lengthAdjust="spacing" textLength="76" x="122" y="197.1201">[WebSocket]</text><polygon fill="#181818" points="300,244.6797,310,248.6797,300,252.6797,304,248.6797" style="stroke:#181818;stroke-width:1.0;"/><line style="stroke:#181818;stroke-width:1.0;" x1="115" x2="306" y1="248.6797" y2="248.6797"/><text fill="#000000" font-family="sans-serif" font-size="13" lengthAdjust="spacing" textLength="173" x="122" y="227.4717">Receive Updates To Positions</text><text fill="#000000" font-family="sans-serif" font-size="13" lengthAdjust="spacing" textLength="76" x="122" y="243.8232">[WebSocket]</text><polygon fill="#181818" points="396,291.3828,406,295.3828,396,299.3828,400,295.3828" style="stroke:#181818;stroke-width:1.0;"/><line style="stroke:#181818;stroke-width:1.0;" x1="115" x2="402" y1="295.3828" y2="295.3828"/><text fill="#000000" font-family="sans-serif" font-size="13" lengthAdjust="spacing" textLength="238" x="122" y="274.1748">Send Trade And Position Status Updates</text><text fill="#000000" font-family="sans-serif" font-size="13" lengthAdjust="spacing" textLength="76" x="122" y="290.5264">[WebSocket]</text><path d="M356.5,310.3828 L657.5,310.3828 L657.5,318.7344 L647.5,328.7344 L356.5,328.7344 L356.5,310.3828 " fill="#EEEEEE" style="stroke:#000000;stroke-width:1.5;"/><rect fill="none" height="78.0547" style="stroke:#000000;stroke-width:1.5;" width="306" x="356.5" y="310.3828"/><text fill="#000000" font-family="sans-serif" font-size="13" font-weight="bold" lengthAdjust="spacing" textLength="256" x="371.5" y="324.8779">Send Trade And Position Status Updates</text><line style="stroke:#181818;stroke-width:1.0;" x1="408" x2="450" y1="367.4375" y2="367.4375"/><line style="stroke:#181818;stroke-width:1.0;" x1="450" x2="450" y1="367.4375" y2="380.4375"/><line style="stroke:#181818;stroke-width:1.0;" x1="409" x2="450" y1="380.4375" y2="380.4375"/><polygon fill="#181818" points="419,376.4375,409,380.4375,419,384.4375,415,380.4375" style="stroke:#181818;stroke-width:1.0;"/><text fill="#000000" font-family="sans-serif" font-size="13" lengthAdjust="spacing" textLength="229" x="415" y="346.2295">Update Trade And Position Status View</text><text fill="#000000" font-family="sans-serif" font-size="13" lengthAdjust="spacing" textLength="49" x="415" y="362.5811">[HTTPS]</text><!--SRC=[pPDDJyCm38Rl-HLMEQydJXoGKBN1RXFjs2JO8MiDH7H9ITnr_7kSDgqq3Q6fEq2bgaxgrtdy4L9K8cHM5cXX3TE3t5MyCGbRQxPMk8NxvPojbAGb_yNF6dNktHAZIIhDuXBtM0fHiOlALIKrGJGz45ejomYaW-HwhdavAqqJf-QL6can_NA4EnVtZjrQYAqvG1GG8hXQlIj20VmSXGzaRVJW718uEI3yZWTU5xEQnQTHMrUO8HOZ0xTRNlypSL8gr3GUkjCBr0LmcOGGvnSM9hUZ2mKtNV_5cpLr5UpHmKQ138LbbaVCKUqHbbKX2RcKfWleNlGpdv6Q_0Dfyxy05yOfKaR_AUCmGRwXVeYwURzZg-VppQNQzUZ7jA7zPod59NWNPzT1_4BvfB3Xv1woR95k_8LgN_4D]--></g></svg>