<?xml version="1.0" encoding="us-ascii" standalone="no"?><svg xmlns="http://www.w3.org/2000/svg" xmlns:xlink="http://www.w3.org/1999/xlink" contentStyleType="text/css" height="415px" preserveAspectRatio="none" style="width:1124px;height:415px;background:#FFFFFF;" version="1.1" viewBox="0 0 1124 415" width="1124px" zoomAndPan="magnify"><defs/><g><text fill="#000000" font-family="sans-serif" font-size="14" font-weight="bold" lengthAdjust="spacing" textLength="1096" x="10" y="24.5332">E Commerce Platform - Generate Demand - Order Management - Order Service - Message Handler - Handle Order Shipped Event - C4 Static - Container level</text><!--cluster ECommercePlatform.GenerateDemand.OrderManagement.SoftwareSystems.OrderService--><g id="cluster_ECommercePlatform.GenerateDemand.OrderManagement.SoftwareSystems.OrderService"><rect fill="none" height="266.5" rx="2.5" ry="2.5" style="stroke:#444444;stroke-width:1.0;stroke-dasharray:7.0,7.0;" width="263" x="346" y="45.6094"/><text fill="#444444" font-family="sans-serif" font-size="16" font-weight="bold" lengthAdjust="spacing" textLength="104" x="425.5" y="64.2188">Order Service</text><text fill="#444444" font-family="sans-serif" font-size="12" font-weight="bold" lengthAdjust="spacing" textLength="51" x="452" y="80.1914">[System]</text></g><!--cluster ECommercePlatform.Deliver.Fulfilment.SoftwareSystems.FulfilmentService--><g id="cluster_ECommercePlatform.Deliver.Fulfilment.SoftwareSystems.FulfilmentService"><rect fill="none" height="100" rx="2.5" ry="2.5" style="stroke:#444444;stroke-width:1.0;stroke-dasharray:7.0,7.0;" width="152" x="633" y="202.6094"/><text fill="#444444" font-family="sans-serif" font-size="16" font-weight="bold" lengthAdjust="spacing" textLength="136" x="641" y="221.2188">Fulfilment Service</text><text fill="#444444" font-family="sans-serif" font-size="12" font-weight="bold" lengthAdjust="spacing" textLength="51" x="683.5" y="237.1914">[System]</text></g><!--entity ECommercePlatform.GenerateDemand.OrderManagement.SoftwareSystems.OrderService.Containers.MessageHandler--><g id="elem_ECommercePlatform.GenerateDemand.OrderManagement.SoftwareSystems.OrderService.Containers.MessageHandler"><rect fill="#438DD5" height="40.125" rx="2.5" ry="2.5" style="stroke:#3C7FC0;stroke-width:0.5;" width="152" x="441" y="99.6094"/><text fill="#FFFFFF" font-family="sans-serif" font-size="16" font-weight="bold" lengthAdjust="spacing" textLength="68" x="451" y="126.2188">Message</text><text fill="#FFFFFF" font-family="sans-serif" font-size="16" font-weight="bold" lengthAdjust="spacing" textLength="4" x="519" y="126.2188">&#160;</text><text fill="#FFFFFF" font-family="sans-serif" font-size="16" font-weight="bold" lengthAdjust="spacing" textLength="60" x="523" y="126.2188">Handler</text></g><!--entity ECommercePlatform.GenerateDemand.OrderManagement.SoftwareSystems.OrderService.Containers.Database--><g id="elem_ECommercePlatform.GenerateDemand.OrderManagement.SoftwareSystems.OrderService.Containers.Database"><path d="M362,257.1094 C362,247.1094 408,247.1094 408,247.1094 C408,247.1094 454,247.1094 454,257.1094 L454,286.2344 C454,296.2344 408,296.2344 408,296.2344 C408,296.2344 362,296.2344 362,286.2344 L362,257.1094 " fill="#438DD5" style="stroke:#3C7FC0;stroke-width:0.5;"/><path d="M362,257.1094 C362,267.1094 408,267.1094 408,267.1094 C408,267.1094 454,267.1094 454,257.1094 " fill="none" style="stroke:#3C7FC0;stroke-width:0.5;"/><text fill="#FFFFFF" font-family="sans-serif" font-size="16" font-weight="bold" lengthAdjust="spacing" textLength="72" x="372" y="287.7188">Database</text></g><!--entity ECommercePlatform.GenerateDemand.OrderManagement.SoftwareSystems.OrderService.Containers.Messaging--><g id="elem_ECommercePlatform.GenerateDemand.OrderManagement.SoftwareSystems.OrderService.Containers.Messaging"><path d="M494.5,256.6094 L587.5,256.6094 C592.5,256.6094 592.5,271.6719 592.5,271.6719 C592.5,271.6719 592.5,286.7344 587.5,286.7344 L494.5,286.7344 C489.5,286.7344 489.5,271.6719 489.5,271.6719 C489.5,271.6719 489.5,256.6094 494.5,256.6094 " fill="#438DD5" style="stroke:#3C7FC0;stroke-width:0.5;"/><path d="M587.5,256.6094 C582.5,256.6094 582.5,271.6719 582.5,271.6719 C582.5,286.7344 587.5,286.7344 587.5,286.7344 " fill="none" style="stroke:#3C7FC0;stroke-width:0.5;"/><text fill="#FFFFFF" font-family="sans-serif" font-size="16" font-weight="bold" lengthAdjust="spacing" textLength="83" x="494.5" y="278.2188">Messaging</text></g><!--entity ECommercePlatform.Deliver.Fulfilment.SoftwareSystems.FulfilmentService.Containers.Messaging--><g id="elem_ECommercePlatform.Deliver.Fulfilment.SoftwareSystems.FulfilmentService.Containers.Messaging"><path d="M654.5,256.6094 L747.5,256.6094 C752.5,256.6094 752.5,271.6719 752.5,271.6719 C752.5,271.6719 752.5,286.7344 747.5,286.7344 L654.5,286.7344 C649.5,286.7344 649.5,271.6719 649.5,271.6719 C649.5,271.6719 649.5,256.6094 654.5,256.6094 " fill="#438DD5" style="stroke:#3C7FC0;stroke-width:0.5;"/><path d="M747.5,256.6094 C742.5,256.6094 742.5,271.6719 742.5,271.6719 C742.5,286.7344 747.5,286.7344 747.5,286.7344 " fill="none" style="stroke:#3C7FC0;stroke-width:0.5;"/><text fill="#FFFFFF" font-family="sans-serif" font-size="16" font-weight="bold" lengthAdjust="spacing" textLength="83" x="654.5" y="278.2188">Messaging</text></g><!--link ECommercePlatform.GenerateDemand.OrderManagement.SoftwareSystems.OrderService.Containers.MessageHandler to ECommercePlatform.Deliver.Fulfilment.SoftwareSystems.FulfilmentService.Containers.Messaging--><g id="link_ECommercePlatform.GenerateDemand.OrderManagement.SoftwareSystems.OrderService.Containers.MessageHandler_ECommercePlatform.Deliver.Fulfilment.SoftwareSystems.FulfilmentService.Containers.Messaging"><path d="M540.69,139.6694 C567.95,161.5894 609,194.6094 609,194.6094 C609,194.6094 650.8817,229.205 677.5317,251.215 " fill="none" id="ECommercePlatform.GenerateDemand.OrderManagement.SoftwareSystems.OrderService.Containers.MessageHandler-to-ECommercePlatform.Deliver.Fulfilment.SoftwareSystems.FulfilmentService.Containers.Messaging" style="stroke:#666666;stroke-width:1.0;"/><polygon fill="#666666" points="683.7,256.3094,679.4421,248.9019,675.6213,253.5281,683.7,256.3094" style="stroke:#666666;stroke-width:1.0;"/><text fill="#666666" font-family="sans-serif" font-size="12" font-weight="bold" lengthAdjust="spacing" textLength="29" x="598" y="183.0664">Uses</text></g><!--link ECommercePlatform.GenerateDemand.OrderManagement.SoftwareSystems.OrderService.Containers.MessageHandler to ECommercePlatform.GenerateDemand.OrderManagement.SoftwareSystems.OrderService.Containers.Database--><g id="link_ECommercePlatform.GenerateDemand.OrderManagement.SoftwareSystems.OrderService.Containers.MessageHandler_ECommercePlatform.GenerateDemand.OrderManagement.SoftwareSystems.OrderService.Containers.Database"><path d="M502.97,139.9094 C483.08,167.2894 451.4025,210.8774 429.9025,240.4674 " fill="none" id="ECommercePlatform.GenerateDemand.OrderManagement.SoftwareSystems.OrderService.Containers.MessageHandler-to-ECommercePlatform.GenerateDemand.OrderManagement.SoftwareSystems.OrderService.Containers.Database" style="stroke:#666666;stroke-width:1.0;"/><polygon fill="#666666" points="425.2,246.9394,432.3295,242.2308,427.4755,238.704,425.2,246.9394" style="stroke:#666666;stroke-width:1.0;"/><text fill="#666666" font-family="sans-serif" font-size="12" font-weight="bold" lengthAdjust="spacing" textLength="29" x="480" y="183.0664">Uses</text></g><!--link ECommercePlatform.GenerateDemand.OrderManagement.SoftwareSystems.OrderService.Containers.MessageHandler to ECommercePlatform.GenerateDemand.OrderManagement.SoftwareSystems.OrderService.Containers.Messaging--><g id="link_ECommercePlatform.GenerateDemand.OrderManagement.SoftwareSystems.OrderService.Containers.MessageHandler_ECommercePlatform.GenerateDemand.OrderManagement.SoftwareSystems.OrderService.Containers.Messaging"><path d="M520.09,139.9094 C524.98,170.4594 533.1169,221.3297 537.4469,248.4097 " fill="none" id="ECommercePlatform.GenerateDemand.OrderManagement.SoftwareSystems.OrderService.Containers.MessageHandler-to-ECommercePlatform.GenerateDemand.OrderManagement.SoftwareSystems.OrderService.Containers.Messaging" style="stroke:#666666;stroke-width:1.0;"/><polygon fill="#666666" points="538.71,256.3094,540.4092,247.936,534.4845,248.8834,538.71,256.3094" style="stroke:#666666;stroke-width:1.0;"/><text fill="#666666" font-family="sans-serif" font-size="12" font-weight="bold" lengthAdjust="spacing" textLength="29" x="528" y="183.0664">Uses</text></g><rect fill="none" height="17.6094" style="stroke:none;stroke-width:1.0;" width="182" x="578" y="336.1094"/><text fill="#000000" font-family="sans-serif" font-size="14" font-weight="bold" lengthAdjust="spacing" textLength="53" x="578" y="350.6426">Legend</text><text fill="#FFFFFF" font-family="sans-serif" font-size="14" lengthAdjust="spacing" textLength="4" x="631" y="350.6426">&#160;</text><rect fill="#438DD5" height="17.6094" style="stroke:none;stroke-width:1.0;" width="182" x="578" y="353.7188"/><text fill="#3C7FC0" font-family="sans-serif" font-size="14" lengthAdjust="spacing" textLength="14" x="582" y="368.252">&#9647;</text><text fill="#FFFFFF" font-family="sans-serif" font-size="14" lengthAdjust="spacing" textLength="4" x="596" y="368.252">&#160;</text><text fill="#FFFFFF" font-family="sans-serif" font-size="14" lengthAdjust="spacing" textLength="59" x="604" y="368.252">container</text><text fill="#FFFFFF" font-family="sans-serif" font-size="14" lengthAdjust="spacing" textLength="4" x="667" y="368.252">&#160;</text><rect fill="none" height="17.6094" style="stroke:none;stroke-width:1.0;" width="182" x="578" y="371.3281"/><text fill="#444444" font-family="sans-serif" font-size="14" lengthAdjust="spacing" textLength="14" x="582" y="385.8613">&#9647;</text><text fill="#FFFFFF" font-family="sans-serif" font-size="14" lengthAdjust="spacing" textLength="4" x="596" y="385.8613">&#160;</text><text fill="#444444" font-family="sans-serif" font-size="14" lengthAdjust="spacing" textLength="108" x="604" y="385.8613">system boundary</text><text fill="#444444" font-family="sans-serif" font-size="10" lengthAdjust="spacing" textLength="40" x="716" y="386.7402">(dashed)</text><text fill="#FFFFFF" font-family="sans-serif" font-size="14" lengthAdjust="spacing" textLength="4" x="756" y="385.8613">&#160;</text><line style="stroke:none;stroke-width:1.0;" x1="578" x2="760" y1="336.1094" y2="336.1094"/><line style="stroke:none;stroke-width:1.0;" x1="578" x2="760" y1="353.7188" y2="353.7188"/><line style="stroke:none;stroke-width:1.0;" x1="578" x2="760" y1="371.3281" y2="371.3281"/><line style="stroke:none;stroke-width:1.0;" x1="578" x2="760" y1="388.9375" y2="388.9375"/><line style="stroke:none;stroke-width:1.0;" x1="578" x2="578" y1="336.1094" y2="388.9375"/><line style="stroke:none;stroke-width:1.0;" x1="760" x2="760" y1="336.1094" y2="388.9375"/><!--SRC=[tLNHQjim57ttLsZU7c9e_9IdGX_Is6q7RPp5AMLGC8fzxOZ9af7aP67ittSTntOo4fgMfeEP1AIhgtFEFRgoFp4Hyp81uhhFHt_nG3-F1j582aEP0EKMPSujQvWaFeSSX9dHh6V70oOCg9JBrILdASJhcCEbW9LzGRxCiv7aKbrb2a3WF4MiEl8vtJnLZbG9gFqylQ29N36HNTatb6kmdTDeumKL6IIxr59LeHEusyItaYl8vNAVN45o0dETTO2sufq2Vzbd0p_DleCSJsmduhmCjUDT1zUQqk7LeHC0T_pe0EjQEpISOvtXNV0KJVnf68oZIJ2TJOTVPpt7kXz-3nvdqIoOH5xmDCQ8fNymKL15Sr9Xc7K1f91yNKqiop33WVXa9FCSL0namgb9fSf9dzm2jZ0rG3p8gKWm4bGdG1weeDdcQDjG26h9S7UVF83Mk4hkS0V7bVvsr2GkM550GlnblNqq8A6XXiNLkBasXCCIyDvOuLeRoADhMOg4gdNFRsGsAjr6OotHtP1q-jnGfcP55TH0kbxVYhqWzfvuso6_B89Fg-Dz-TmMLxjRbxOcePA_RCCEi3T_Pr-HDp-V9eyQEgUwygKP7fFnhOGIpkqEtklM61plQFbzIcTumDaINy4t9KyPFyZVBNKjqSMEzyMnyjz2-SgwyVtnSLrvtWeVDMWiwXzNzFwNvx-gwy21RRyzz_wjF_PwpXy0]--></g></svg>