<?xml version="1.0" encoding="us-ascii" standalone="no"?><svg xmlns="http://www.w3.org/2000/svg" xmlns:xlink="http://www.w3.org/1999/xlink" contentStyleType="text/css" height="381px" preserveAspectRatio="none" style="width:1134px;height:381px;background:#FFFFFF;" version="1.1" viewBox="0 0 1134 381" width="1134px" zoomAndPan="magnify"><defs/><g><text fill="#000000" font-family="sans-serif" font-size="14" font-weight="bold" lengthAdjust="spacing" textLength="1106" x="10" y="29.5332">E Commerce Platform - Generate Demand - Order Management - Order Service - Message Handler - Handle Order Shipped Event - Sequence - Container level</text><rect fill="#FFFFFF" height="324.3281" style="stroke:#181818;stroke-width:0.5;" width="338.5" x="411" y="44.6094"/><text fill="#000000" font-family="sans-serif" font-size="13" font-weight="bold" lengthAdjust="spacing" textLength="88" x="536.25" y="58.1045">Order Service</text><rect fill="#FFFFFF" height="324.3281" style="stroke:#181818;stroke-width:0.5;" width="122" x="751.5" y="44.6094"/><text fill="#000000" font-family="sans-serif" font-size="13" font-weight="bold" lengthAdjust="spacing" textLength="116" x="754.5" y="58.1045">Fulfilment Service</text><rect fill="none" height="109.4063" style="stroke:#000000;stroke-width:1.5;" width="458.5" x="405" y="175.9219"/><line style="stroke:#181818;stroke-width:0.5;stroke-dasharray:5.0,5.0;" x1="289.5" x2="289.5" y1="128.5703" y2="302.3281"/><line style="stroke:#181818;stroke-width:0.5;stroke-dasharray:5.0,5.0;" x1="477" x2="477" y1="128.5703" y2="302.3281"/><line style="stroke:#181818;stroke-width:0.5;stroke-dasharray:5.0,5.0;" x1="619.5" x2="619.5" y1="128.5703" y2="302.3281"/><line style="stroke:#181818;stroke-width:0.5;stroke-dasharray:5.0,5.0;" x1="704.5" x2="704.5" y1="128.5703" y2="302.3281"/><line style="stroke:#181818;stroke-width:0.5;stroke-dasharray:5.0,5.0;" x1="812.5" x2="812.5" y1="128.5703" y2="302.3281"/><rect fill="#E2E2F0" height="31.6094" rx="2.5" ry="2.5" style="stroke:#181818;stroke-width:0.5;" width="65" x="257.5" y="95.9609"/><text fill="#000000" font-family="sans-serif" font-size="14" lengthAdjust="spacing" textLength="51" x="264.5" y="117.4941">External</text><rect fill="#E2E2F0" height="31.6094" rx="2.5" ry="2.5" style="stroke:#181818;stroke-width:0.5;" width="65" x="257.5" y="301.3281"/><text fill="#000000" font-family="sans-serif" font-size="14" lengthAdjust="spacing" textLength="51" x="264.5" y="322.8613">External</text><rect fill="#E2E2F0" height="31.6094" rx="2.5" ry="2.5" style="stroke:#181818;stroke-width:0.5;" width="124" x="415" y="95.9609"/><text fill="#000000" font-family="sans-serif" font-size="14" lengthAdjust="spacing" textLength="110" x="422" y="117.4941">Message Handler</text><rect fill="#E2E2F0" height="31.6094" rx="2.5" ry="2.5" style="stroke:#181818;stroke-width:0.5;" width="124" x="415" y="301.3281"/><text fill="#000000" font-family="sans-serif" font-size="14" lengthAdjust="spacing" textLength="110" x="422" y="322.8613">Message Handler</text><text fill="#000000" font-family="sans-serif" font-size="14" lengthAdjust="spacing" textLength="61" x="586.5" y="125.4941">Database</text><path d="M602,74.9609 C602,64.9609 620,64.9609 620,64.9609 C620,64.9609 638,64.9609 638,74.9609 L638,100.9609 C638,110.9609 620,110.9609 620,110.9609 C620,110.9609 602,110.9609 602,100.9609 L602,74.9609 " fill="#E2E2F0" style="stroke:#181818;stroke-width:1.5;"/><path d="M602,74.9609 C602,84.9609 620,84.9609 620,84.9609 C620,84.9609 638,84.9609 638,74.9609 " fill="none" style="stroke:#181818;stroke-width:1.5;"/><text fill="#000000" font-family="sans-serif" font-size="14" lengthAdjust="spacing" textLength="61" x="586.5" y="315.8613">Database</text><path d="M602,328.9375 C602,318.9375 620,318.9375 620,318.9375 C620,318.9375 638,318.9375 638,328.9375 L638,354.9375 C638,364.9375 620,364.9375 620,364.9375 C620,364.9375 602,364.9375 602,354.9375 L602,328.9375 " fill="#E2E2F0" style="stroke:#181818;stroke-width:1.5;"/><path d="M602,328.9375 C602,338.9375 620,338.9375 620,338.9375 C620,338.9375 638,338.9375 638,328.9375 " fill="none" style="stroke:#181818;stroke-width:1.5;"/><rect fill="#E2E2F0" height="31.6094" rx="2.5" ry="2.5" style="stroke:#181818;stroke-width:0.5;" width="82" x="663.5" y="95.9609"/><text fill="#000000" font-family="sans-serif" font-size="14" lengthAdjust="spacing" textLength="68" x="670.5" y="117.4941">Messaging</text><rect fill="#E2E2F0" height="31.6094" rx="2.5" ry="2.5" style="stroke:#181818;stroke-width:0.5;" width="82" x="663.5" y="301.3281"/><text fill="#000000" font-family="sans-serif" font-size="14" lengthAdjust="spacing" textLength="68" x="670.5" y="322.8613">Messaging</text><rect fill="#E2E2F0" height="31.6094" rx="2.5" ry="2.5" style="stroke:#181818;stroke-width:0.5;" width="82" x="771.5" y="95.9609"/><text fill="#000000" font-family="sans-serif" font-size="14" lengthAdjust="spacing" textLength="68" x="778.5" y="117.4941">Messaging</text><rect fill="#E2E2F0" height="31.6094" rx="2.5" ry="2.5" style="stroke:#181818;stroke-width:0.5;" width="82" x="771.5" y="301.3281"/><text fill="#000000" font-family="sans-serif" font-size="14" lengthAdjust="spacing" textLength="68" x="778.5" y="322.8613">Messaging</text><polygon fill="#181818" points="465,156.9219,475,160.9219,465,164.9219,469,160.9219" style="stroke:#181818;stroke-width:1.0;"/><line style="stroke:#181818;stroke-width:1.0;" x1="290" x2="471" y1="160.9219" y2="160.9219"/><text fill="#000000" font-family="sans-serif" font-size="13" lengthAdjust="spacing" textLength="163" x="297" y="156.0654">Handle Order Shipped Event</text><path d="M405,175.9219 L631,175.9219 L631,184.2734 L621,194.2734 L405,194.2734 L405,175.9219 " fill="#EEEEEE" style="stroke:#000000;stroke-width:1.5;"/><rect fill="none" height="109.4063" style="stroke:#000000;stroke-width:1.5;" width="458.5" x="405" y="175.9219"/><text fill="#000000" font-family="sans-serif" font-size="13" font-weight="bold" lengthAdjust="spacing" textLength="181" x="420" y="190.417">Handle Order Shipped Event</text><polygon fill="#181818" points="800.5,212.625,810.5,216.625,800.5,220.625,804.5,216.625" style="stroke:#181818;stroke-width:1.0;"/><line style="stroke:#181818;stroke-width:1.0;" x1="477" x2="806.5" y1="216.625" y2="216.625"/><text fill="#000000" font-family="sans-serif" font-size="13" lengthAdjust="spacing" textLength="168" x="484" y="211.7686">Receive Order Shipped Event</text><polygon fill="#181818" points="608,242.9766,618,246.9766,608,250.9766,612,246.9766" style="stroke:#181818;stroke-width:1.0;"/><line style="stroke:#181818;stroke-width:1.0;" x1="477" x2="614" y1="246.9766" y2="246.9766"/><text fill="#000000" font-family="sans-serif" font-size="13" lengthAdjust="spacing" textLength="119" x="484" y="242.1201">Update Order Status</text><polygon fill="#181818" points="692.5,273.3281,702.5,277.3281,692.5,281.3281,696.5,277.3281" style="stroke:#181818;stroke-width:1.0;"/><line style="stroke:#181818;stroke-width:1.0;" x1="477" x2="698.5" y1="277.3281" y2="277.3281"/><text fill="#000000" font-family="sans-serif" font-size="13" lengthAdjust="spacing" textLength="199" x="484" y="272.4717">Send Order Status Changed Event</text><!--SRC=[tLGzJyCm4DtzAqvXZYSc1fOq1OOAH8IOhyqriUJOmNRIyk-vfaa_AAqwb0gHoVPzl7VlxX9Kq0Gf9BQgoCq8NZI6kNKLnF10XXm6WX5LQ79-UNOvEPYWmO8gCc7pb95h5KV7C27lsGgF7A7P4lUdmR5KTKqvfEqwFAEFXamNcLWJK34aQ6f92r6Z2sgcQcJFA5q6SWPr1EWXkNqoV1rhkv2PdOS5Eie-VQ3Aoy5nVHTYQfSGxR6CuEQzL844yBS7yeryXvKEqWpAo46NjIoooxtLv81GP- -XvQP8Btkm7giZasF0ANg2QDIVVfV2W79C2MMAQsZ0C89umBXLec_OkD5pfRiPExDhnxcEIAkMdDpcFE2tDPr9ylm9XFZ-MZC4ToUMJHJEDlKfXskn_56GYpM9HNYb6N6olrVaXTUMItshyzKVkgyqO6ZyloXnjvtPQkrsAuIaH5DiMifc8Ru0]--></g></svg>