<?xml version="1.0" encoding="us-ascii" standalone="no"?><svg xmlns="http://www.w3.org/2000/svg" xmlns:xlink="http://www.w3.org/1999/xlink" contentStyleType="text/css" height="381px" preserveAspectRatio="none" style="width:1134px;height:381px;background:#FFFFFF;" version="1.1" viewBox="0 0 1134 381" width="1134px" zoomAndPan="magnify"><defs/><g><text fill="#000000" font-family="sans-serif" font-size="14" font-weight="bold" lengthAdjust="spacing" textLength="1106" x="10" y="29.5332">E Commerce Platform - Generate Demand - Order Management - Order Service - Message Handler - Handle Order Shipped Event - Sequence - Container level</text><rect fill="#FFFFFF" height="324.3281" style="stroke:#181818;stroke-width:0.5;" width="344.5" x="407" y="44.6094"/><text fill="#000000" font-family="sans-serif" font-size="13" font-weight="bold" lengthAdjust="spacing" textLength="88" x="535.25" y="58.1045">Order Service</text><rect fill="#FFFFFF" height="324.3281" style="stroke:#181818;stroke-width:0.5;" width="122" x="753.5" y="44.6094"/><text fill="#000000" font-family="sans-serif" font-size="13" font-weight="bold" lengthAdjust="spacing" textLength="116" x="756.5" y="58.1045">Fulfilment Service</text><rect fill="none" height="109.4063" style="stroke:#000000;stroke-width:1.5;" width="467.5" x="401" y="175.9219"/><line style="stroke:#181818;stroke-width:0.5;stroke-dasharray:5.0,5.0;" x1="285.5" x2="285.5" y1="128.5703" y2="302.3281"/><line style="stroke:#181818;stroke-width:0.5;stroke-dasharray:5.0,5.0;" x1="473" x2="473" y1="128.5703" y2="302.3281"/><line style="stroke:#181818;stroke-width:0.5;stroke-dasharray:5.0,5.0;" x1="615.5" x2="615.5" y1="128.5703" y2="302.3281"/><line style="stroke:#181818;stroke-width:0.5;stroke-dasharray:5.0,5.0;" x1="703.5" x2="703.5" y1="128.5703" y2="302.3281"/><line style="stroke:#181818;stroke-width:0.5;stroke-dasharray:5.0,5.0;" x1="814.5" x2="814.5" y1="128.5703" y2="302.3281"/><rect fill="#E2E2F0" height="31.6094" rx="2.5" ry="2.5" style="stroke:#181818;stroke-width:0.5;" width="65" x="253.5" y="95.9609"/><text fill="#000000" font-family="sans-serif" font-size="14" lengthAdjust="spacing" textLength="51" x="260.5" y="117.4941">External</text><rect fill="#E2E2F0" height="31.6094" rx="2.5" ry="2.5" style="stroke:#181818;stroke-width:0.5;" width="65" x="253.5" y="301.3281"/><text fill="#000000" font-family="sans-serif" font-size="14" lengthAdjust="spacing" textLength="51" x="260.5" y="322.8613">External</text><rect fill="#E2E2F0" height="31.6094" rx="2.5" ry="2.5" style="stroke:#181818;stroke-width:0.5;" width="124" x="411" y="95.9609"/><text fill="#000000" font-family="sans-serif" font-size="14" lengthAdjust="spacing" textLength="110" x="418" y="117.4941">Message Handler</text><rect fill="#E2E2F0" height="31.6094" rx="2.5" ry="2.5" style="stroke:#181818;stroke-width:0.5;" width="124" x="411" y="301.3281"/><text fill="#000000" font-family="sans-serif" font-size="14" lengthAdjust="spacing" textLength="110" x="418" y="322.8613">Message Handler</text><text fill="#000000" font-family="sans-serif" font-size="14" lengthAdjust="spacing" textLength="61" x="582.5" y="125.4941">Database</text><path d="M598,74.9609 C598,64.9609 616,64.9609 616,64.9609 C616,64.9609 634,64.9609 634,74.9609 L634,100.9609 C634,110.9609 616,110.9609 616,110.9609 C616,110.9609 598,110.9609 598,100.9609 L598,74.9609 " fill="#E2E2F0" style="stroke:#181818;stroke-width:1.5;"/><path d="M598,74.9609 C598,84.9609 616,84.9609 616,84.9609 C616,84.9609 634,84.9609 634,74.9609 " fill="none" style="stroke:#181818;stroke-width:1.5;"/><text fill="#000000" font-family="sans-serif" font-size="14" lengthAdjust="spacing" textLength="61" x="582.5" y="315.8613">Database</text><path d="M598,328.9375 C598,318.9375 616,318.9375 616,318.9375 C616,318.9375 634,318.9375 634,328.9375 L634,354.9375 C634,364.9375 616,364.9375 616,364.9375 C616,364.9375 598,364.9375 598,354.9375 L598,328.9375 " fill="#E2E2F0" style="stroke:#181818;stroke-width:1.5;"/><path d="M598,328.9375 C598,338.9375 616,338.9375 616,338.9375 C616,338.9375 634,338.9375 634,328.9375 " fill="none" style="stroke:#181818;stroke-width:1.5;"/><path d="M664.5,100.9609 L742.5,100.9609 C747.5,100.9609 747.5,114.7656 747.5,114.7656 C747.5,114.7656 747.5,128.5703 742.5,128.5703 L664.5,128.5703 C659.5,128.5703 659.5,114.7656 659.5,114.7656 C659.5,114.7656 659.5,100.9609 664.5,100.9609 " fill="#E2E2F0" style="stroke:#181818;stroke-width:0.5;"/><path d="M742.5,100.9609 C737.5,100.9609 737.5,114.7656 737.5,114.7656 C737.5,128.5703 742.5,128.5703 742.5,128.5703 " fill="none" style="stroke:#181818;stroke-width:0.5;"/><text fill="#000000" font-family="sans-serif" font-size="14" lengthAdjust="spacing" textLength="68" x="664.5" y="120.4941">Messaging</text><path d="M664.5,301.3281 L742.5,301.3281 C747.5,301.3281 747.5,315.1328 747.5,315.1328 C747.5,315.1328 747.5,328.9375 742.5,328.9375 L664.5,328.9375 C659.5,328.9375 659.5,315.1328 659.5,315.1328 C659.5,315.1328 659.5,301.3281 664.5,301.3281 " fill="#E2E2F0" style="stroke:#181818;stroke-width:0.5;"/><path d="M742.5,301.3281 C737.5,301.3281 737.5,315.1328 737.5,315.1328 C737.5,328.9375 742.5,328.9375 742.5,328.9375 " fill="none" style="stroke:#181818;stroke-width:0.5;"/><text fill="#000000" font-family="sans-serif" font-size="14" lengthAdjust="spacing" textLength="68" x="664.5" y="320.8613">Messaging</text><path d="M775.5,100.9609 L853.5,100.9609 C858.5,100.9609 858.5,114.7656 858.5,114.7656 C858.5,114.7656 858.5,128.5703 853.5,128.5703 L775.5,128.5703 C770.5,128.5703 770.5,114.7656 770.5,114.7656 C770.5,114.7656 770.5,100.9609 775.5,100.9609 " fill="#E2E2F0" style="stroke:#181818;stroke-width:0.5;"/><path d="M853.5,100.9609 C848.5,100.9609 848.5,114.7656 848.5,114.7656 C848.5,128.5703 853.5,128.5703 853.5,128.5703 " fill="none" style="stroke:#181818;stroke-width:0.5;"/><text fill="#000000" font-family="sans-serif" font-size="14" lengthAdjust="spacing" textLength="68" x="775.5" y="120.4941">Messaging</text><path d="M775.5,301.3281 L853.5,301.3281 C858.5,301.3281 858.5,315.1328 858.5,315.1328 C858.5,315.1328 858.5,328.9375 853.5,328.9375 L775.5,328.9375 C770.5,328.9375 770.5,315.1328 770.5,315.1328 C770.5,315.1328 770.5,301.3281 775.5,301.3281 " fill="#E2E2F0" style="stroke:#181818;stroke-width:0.5;"/><path d="M853.5,301.3281 C848.5,301.3281 848.5,315.1328 848.5,315.1328 C848.5,328.9375 853.5,328.9375 853.5,328.9375 " fill="none" style="stroke:#181818;stroke-width:0.5;"/><text fill="#000000" font-family="sans-serif" font-size="14" lengthAdjust="spacing" textLength="68" x="775.5" y="320.8613">Messaging</text><polygon fill="#181818" points="461,156.9219,471,160.9219,461,164.9219,465,160.9219" style="stroke:#181818;stroke-width:1.0;"/><line style="stroke:#181818;stroke-width:1.0;" x1="286" x2="467" y1="160.9219" y2="160.9219"/><text fill="#000000" font-family="sans-serif" font-size="13" lengthAdjust="spacing" textLength="163" x="293" y="156.0654">Handle Order Shipped Event</text><path d="M401,175.9219 L627,175.9219 L627,184.2734 L617,194.2734 L401,194.2734 L401,175.9219 " fill="#EEEEEE" style="stroke:#000000;stroke-width:1.5;"/><rect fill="none" height="109.4063" style="stroke:#000000;stroke-width:1.5;" width="467.5" x="401" y="175.9219"/><text fill="#000000" font-family="sans-serif" font-size="13" font-weight="bold" lengthAdjust="spacing" textLength="181" x="416" y="190.417">Handle Order Shipped Event</text><polygon fill="#181818" points="802.5,212.625,812.5,216.625,802.5,220.625,806.5,216.625" style="stroke:#181818;stroke-width:1.0;"/><line style="stroke:#181818;stroke-width:1.0;" x1="473" x2="808.5" y1="216.625" y2="216.625"/><text fill="#000000" font-family="sans-serif" font-size="13" lengthAdjust="spacing" textLength="168" x="480" y="211.7686">Receive Order Shipped Event</text><polygon fill="#181818" points="604,242.9766,614,246.9766,604,250.9766,608,246.9766" style="stroke:#181818;stroke-width:1.0;"/><line style="stroke:#181818;stroke-width:1.0;" x1="473" x2="610" y1="246.9766" y2="246.9766"/><text fill="#000000" font-family="sans-serif" font-size="13" lengthAdjust="spacing" textLength="119" x="480" y="242.1201">Update Order Status</text><polygon fill="#181818" points="691.5,273.3281,701.5,277.3281,691.5,281.3281,695.5,277.3281" style="stroke:#181818;stroke-width:1.0;"/><line style="stroke:#181818;stroke-width:1.0;" x1="473" x2="697.5" y1="277.3281" y2="277.3281"/><text fill="#000000" font-family="sans-serif" font-size="13" lengthAdjust="spacing" textLength="199" x="480" y="272.4717">Send Order Status Changed Event</text><!--SRC=[tLGzJyCm4DtzAqvXJYOc1fOq1OOAH8IOhyqrjUJOmNRIyk-vkd4_Q5LrW0gHoVRT-RrxxnmllI8e83TDGtP6yABGpurj88K7qcJH4uoeGLtnoREjoC84DTRKaFRRev9iBxawXGavnr5uv0h5aNHOnSI5R5kgeEWtvILzTAH3PMwqHycGeAWd9KIBrikPR94pasBboMfK2Q23_FP9ytQip38hpTmlqLBvwJmrBek9cxqGKxE2v81b0ZVl2-b907y78D_81wmYIXELoQ8k6rcoSFTEaoD28Jv0PzicNJQ03LY1J8KUf-W8aj6m-bqA4IM0in4THGsahg_HFSC8uj5YayHWrRXJSwd2T9towqAM8rAo9vljRZjYjWjTIE_ogOFq_bfp0tTd7fYehUdQSmdNOdbIa1ypYKLufHdnPN-loHz-gjpgMrkj_yf3fnvzv_v5Y_jsbkjdjzyXv0lKzTPI3Wln1G00]--></g></svg>