<?xml version="1.0" encoding="us-ascii" standalone="no"?><svg xmlns="http://www.w3.org/2000/svg" xmlns:xlink="http://www.w3.org/1999/xlink" contentStyleType="text/css" height="351px" preserveAspectRatio="none" style="width:652px;height:351px;background:#FFFFFF;" version="1.1" viewBox="0 0 652 351" width="652px" zoomAndPan="magnify"><defs/><g><text fill="#000000" font-family="sans-serif" font-size="14" font-weight="bold" lengthAdjust="spacing" textLength="624" x="10" y="29.5332">TraderXExample - TraderX - Trading Services - Cancel Trade - Sequence - Container level</text><rect fill="#FFFFFF" height="293.9766" style="stroke:#181818;stroke-width:0.5;" width="350.5" x="177.25" y="44.6094"/><text fill="#000000" font-family="sans-serif" font-size="13" font-weight="bold" lengthAdjust="spacing" textLength="51" x="327" y="58.1045">TraderX</text><rect fill="none" height="79.0547" style="stroke:#000000;stroke-width:1.5;" width="362.5" x="171.25" y="175.9219"/><line style="stroke:#181818;stroke-width:0.5;stroke-dasharray:5.0,5.0;" x1="138.25" x2="138.25" y1="128.5703" y2="271.9766"/><line style="stroke:#181818;stroke-width:0.5;stroke-dasharray:5.0,5.0;" x1="241.25" x2="241.25" y1="128.5703" y2="271.9766"/><line style="stroke:#181818;stroke-width:0.5;stroke-dasharray:5.0,5.0;" x1="384.75" x2="384.75" y1="128.5703" y2="271.9766"/><line style="stroke:#181818;stroke-width:0.5;stroke-dasharray:5.0,5.0;" x1="478.75" x2="478.75" y1="128.5703" y2="271.9766"/><rect fill="#E2E2F0" height="31.6094" rx="2.5" ry="2.5" style="stroke:#181818;stroke-width:0.5;" width="65" x="106.25" y="95.9609"/><text fill="#000000" font-family="sans-serif" font-size="14" lengthAdjust="spacing" textLength="51" x="113.25" y="117.4941">External</text><rect fill="#E2E2F0" height="31.6094" rx="2.5" ry="2.5" style="stroke:#181818;stroke-width:0.5;" width="65" x="106.25" y="270.9766"/><text fill="#000000" font-family="sans-serif" font-size="14" lengthAdjust="spacing" textLength="51" x="113.25" y="292.5098">External</text><rect fill="#E2E2F0" height="31.6094" rx="2.5" ry="2.5" style="stroke:#181818;stroke-width:0.5;" width="121" x="181.25" y="95.9609"/><text fill="#000000" font-family="sans-serif" font-size="14" lengthAdjust="spacing" textLength="107" x="188.25" y="117.4941">Trading Services</text><rect fill="#E2E2F0" height="31.6094" rx="2.5" ry="2.5" style="stroke:#181818;stroke-width:0.5;" width="121" x="181.25" y="270.9766"/><text fill="#000000" font-family="sans-serif" font-size="14" lengthAdjust="spacing" textLength="107" x="188.25" y="292.5098">Trading Services</text><text fill="#000000" font-family="sans-serif" font-size="14" lengthAdjust="spacing" textLength="74" x="344.75" y="125.4941">TraderX DB</text><path d="M366.75,74.9609 C366.75,64.9609 384.75,64.9609 384.75,64.9609 C384.75,64.9609 402.75,64.9609 402.75,74.9609 L402.75,100.9609 C402.75,110.9609 384.75,110.9609 384.75,110.9609 C384.75,110.9609 366.75,110.9609 366.75,100.9609 L366.75,74.9609 " fill="#E2E2F0" style="stroke:#181818;stroke-width:1.5;"/><path d="M366.75,74.9609 C366.75,84.9609 384.75,84.9609 384.75,84.9609 C384.75,84.9609 402.75,84.9609 402.75,74.9609 " fill="none" style="stroke:#181818;stroke-width:1.5;"/><text fill="#000000" font-family="sans-serif" font-size="14" lengthAdjust="spacing" textLength="74" x="344.75" y="285.5098">TraderX DB</text><path d="M366.75,298.5859 C366.75,288.5859 384.75,288.5859 384.75,288.5859 C384.75,288.5859 402.75,288.5859 402.75,298.5859 L402.75,324.5859 C402.75,334.5859 384.75,334.5859 384.75,334.5859 C384.75,334.5859 366.75,334.5859 366.75,324.5859 L366.75,298.5859 " fill="#E2E2F0" style="stroke:#181818;stroke-width:1.5;"/><path d="M366.75,298.5859 C366.75,308.5859 384.75,308.5859 384.75,308.5859 C384.75,308.5859 402.75,308.5859 402.75,298.5859 " fill="none" style="stroke:#181818;stroke-width:1.5;"/><rect fill="#E2E2F0" height="31.6094" rx="2.5" ry="2.5" style="stroke:#181818;stroke-width:0.5;" width="89" x="434.75" y="95.9609"/><text fill="#000000" font-family="sans-serif" font-size="14" lengthAdjust="spacing" textLength="75" x="441.75" y="117.4941">Trade Feed</text><rect fill="#E2E2F0" height="31.6094" rx="2.5" ry="2.5" style="stroke:#181818;stroke-width:0.5;" width="89" x="434.75" y="270.9766"/><text fill="#000000" font-family="sans-serif" font-size="14" lengthAdjust="spacing" textLength="75" x="441.75" y="292.5098">Trade Feed</text><polygon fill="#181818" points="229.75,156.9219,239.75,160.9219,229.75,164.9219,233.75,160.9219" style="stroke:#181818;stroke-width:1.0;"/><line style="stroke:#181818;stroke-width:1.0;" x1="138.75" x2="235.75" y1="160.9219" y2="160.9219"/><text fill="#000000" font-family="sans-serif" font-size="13" lengthAdjust="spacing" textLength="76" x="145.75" y="156.0654">Cancel Trade</text><path d="M171.25,175.9219 L301.25,175.9219 L301.25,184.2734 L291.25,194.2734 L171.25,194.2734 L171.25,175.9219 " fill="#EEEEEE" style="stroke:#000000;stroke-width:1.5;"/><rect fill="none" height="79.0547" style="stroke:#000000;stroke-width:1.5;" width="362.5" x="171.25" y="175.9219"/><text fill="#000000" font-family="sans-serif" font-size="13" font-weight="bold" lengthAdjust="spacing" textLength="85" x="186.25" y="190.417">Cancel Trade</text><polygon fill="#181818" points="372.75,212.625,382.75,216.625,372.75,220.625,376.75,216.625" style="stroke:#181818;stroke-width:1.0;"/><line style="stroke:#181818;stroke-width:1.0;" x1="241.75" x2="378.75" y1="216.625" y2="216.625"/><text fill="#000000" font-family="sans-serif" font-size="13" lengthAdjust="spacing" textLength="119" x="248.75" y="211.7686">Update Trade Status</text><polygon fill="#181818" points="467.25,242.9766,477.25,246.9766,467.25,250.9766,471.25,246.9766" style="stroke:#181818;stroke-width:1.0;"/><line style="stroke:#181818;stroke-width:1.0;" x1="241.75" x2="473.25" y1="246.9766" y2="246.9766"/><text fill="#000000" font-family="sans-serif" font-size="13" lengthAdjust="spacing" textLength="143" x="248.75" y="242.1201">Send Updates To Trades</text><!--SRC=[nP8zJyGm38Pt_mghpDU9YO7XlYJcW63rjUQ8b4j2ujwLVu_xTLA10T61Jl6RzFKJln4hZl4nKStfPTVIAMgvceHnPVqH3QUphJYhj25ViHlEQ6dulM5LkftWXQpdX8xFx00Y9R6LZUG5Yrqhd3ov0YdZvlR1QxbtuLAQy2eNIcm-il0fbzF1eGOuX1QB4Qd0c-StAmoetyp-AsdVPdwpRvt6xV8AFaXgCxdqVMeIEb3cAmLkrmliLTgkVxu0uvwvNkBT_G_iQzIf0S3lvuoh- -NZmhlPyu1Z2asSIyjx_1cq7xmYFaLDT7psQ8IaoV-ArMMcMAQBRM3J-CFWbhim0Ju1]--></g></svg>