<?xml version="1.0" encoding="us-ascii" standalone="no"?><svg xmlns="http://www.w3.org/2000/svg" xmlns:xlink="http://www.w3.org/1999/xlink" contentStyleType="text/css" height="282px" preserveAspectRatio="none" style="width:1240px;height:282px;background:#FFFFFF;" version="1.1" viewBox="0 0 1240 282" width="1240px" zoomAndPan="magnify"><defs/><g><text fill="#000000" font-family="sans-serif" font-size="14" font-weight="bold" lengthAdjust="spacing" textLength="1212" x="10" y="29.5332">E Commerce Platform - Create Product - Buying And Merchandising - Buying Service - Message Handler - Handle Purchase Order Created Event - Sequence - Container level</text><rect fill="#FFFFFF" height="231.9766" style="stroke:#181818;stroke-width:0.5;" width="363" x="506.25" y="44.6094"/><text fill="#000000" font-family="sans-serif" font-size="13" font-weight="bold" lengthAdjust="spacing" textLength="96" x="639.75" y="58.1045">Buying Service</text><rect fill="none" height="79.0547" style="stroke:#000000;stroke-width:1.5;" width="432" x="500.25" y="144.9219"/><line style="stroke:#181818;stroke-width:0.5;stroke-dasharray:5.0,5.0;" x1="327.75" x2="327.75" y1="97.5703" y2="240.9766"/><line style="stroke:#181818;stroke-width:0.5;stroke-dasharray:5.0,5.0;" x1="572.25" x2="572.25" y1="97.5703" y2="240.9766"/><line style="stroke:#181818;stroke-width:0.5;stroke-dasharray:5.0,5.0;" x1="821.25" x2="821.25" y1="97.5703" y2="240.9766"/><line style="stroke:#181818;stroke-width:0.5;stroke-dasharray:5.0,5.0;" x1="898.25" x2="898.25" y1="97.5703" y2="240.9766"/><rect fill="#E2E2F0" height="31.6094" rx="2.5" ry="2.5" style="stroke:#181818;stroke-width:0.5;" width="65" x="295.75" y="64.9609"/><text fill="#000000" font-family="sans-serif" font-size="14" lengthAdjust="spacing" textLength="51" x="302.75" y="86.4941">External</text><rect fill="#E2E2F0" height="31.6094" rx="2.5" ry="2.5" style="stroke:#181818;stroke-width:0.5;" width="65" x="295.75" y="239.9766"/><text fill="#000000" font-family="sans-serif" font-size="14" lengthAdjust="spacing" textLength="51" x="302.75" y="261.5098">External</text><rect fill="#E2E2F0" height="31.6094" rx="2.5" ry="2.5" style="stroke:#181818;stroke-width:0.5;" width="124" x="510.25" y="64.9609"/><text fill="#000000" font-family="sans-serif" font-size="14" lengthAdjust="spacing" textLength="110" x="517.25" y="86.4941">Message Handler</text><rect fill="#E2E2F0" height="31.6094" rx="2.5" ry="2.5" style="stroke:#181818;stroke-width:0.5;" width="124" x="510.25" y="239.9766"/><text fill="#000000" font-family="sans-serif" font-size="14" lengthAdjust="spacing" textLength="110" x="517.25" y="261.5098">Message Handler</text><path d="M782.25,69.9609 L860.25,69.9609 C865.25,69.9609 865.25,83.7656 865.25,83.7656 C865.25,83.7656 865.25,97.5703 860.25,97.5703 L782.25,97.5703 C777.25,97.5703 777.25,83.7656 777.25,83.7656 C777.25,83.7656 777.25,69.9609 782.25,69.9609 " fill="#E2E2F0" style="stroke:#181818;stroke-width:0.5;"/><path d="M860.25,69.9609 C855.25,69.9609 855.25,83.7656 855.25,83.7656 C855.25,97.5703 860.25,97.5703 860.25,97.5703 " fill="none" style="stroke:#181818;stroke-width:0.5;"/><text fill="#000000" font-family="sans-serif" font-size="14" lengthAdjust="spacing" textLength="68" x="782.25" y="89.4941">Messaging</text><path d="M782.25,239.9766 L860.25,239.9766 C865.25,239.9766 865.25,253.7813 865.25,253.7813 C865.25,253.7813 865.25,267.5859 860.25,267.5859 L782.25,267.5859 C777.25,267.5859 777.25,253.7813 777.25,253.7813 C777.25,253.7813 777.25,239.9766 782.25,239.9766 " fill="#E2E2F0" style="stroke:#181818;stroke-width:0.5;"/><path d="M860.25,239.9766 C855.25,239.9766 855.25,253.7813 855.25,253.7813 C855.25,267.5859 860.25,267.5859 860.25,267.5859 " fill="none" style="stroke:#181818;stroke-width:0.5;"/><text fill="#000000" font-family="sans-serif" font-size="14" lengthAdjust="spacing" textLength="68" x="782.25" y="259.5098">Messaging</text><rect fill="#E2E2F0" height="31.6094" rx="2.5" ry="2.5" style="stroke:#181818;stroke-width:0.5;" width="47" x="875.25" y="64.9609"/><text fill="#000000" font-family="sans-serif" font-size="14" lengthAdjust="spacing" textLength="33" x="882.25" y="86.4941">WMS</text><rect fill="#E2E2F0" height="31.6094" rx="2.5" ry="2.5" style="stroke:#181818;stroke-width:0.5;" width="47" x="875.25" y="239.9766"/><text fill="#000000" font-family="sans-serif" font-size="14" lengthAdjust="spacing" textLength="33" x="882.25" y="261.5098">WMS</text><polygon fill="#181818" points="560.25,125.9219,570.25,129.9219,560.25,133.9219,564.25,129.9219" style="stroke:#181818;stroke-width:1.0;"/><line style="stroke:#181818;stroke-width:1.0;" x1="328.25" x2="566.25" y1="129.9219" y2="129.9219"/><text fill="#000000" font-family="sans-serif" font-size="13" lengthAdjust="spacing" textLength="220" x="335.25" y="125.0654">Handle Purchase Order Created Event</text><path d="M500.25,144.9219 L786.25,144.9219 L786.25,153.2734 L776.25,163.2734 L500.25,163.2734 L500.25,144.9219 " fill="#EEEEEE" style="stroke:#000000;stroke-width:1.5;"/><rect fill="none" height="79.0547" style="stroke:#000000;stroke-width:1.5;" width="432" x="500.25" y="144.9219"/><text fill="#000000" font-family="sans-serif" font-size="13" font-weight="bold" lengthAdjust="spacing" textLength="241" x="515.25" y="159.417">Handle Purchase Order Created Event</text><polygon fill="#181818" points="809.25,181.625,819.25,185.625,809.25,189.625,813.25,185.625" style="stroke:#181818;stroke-width:1.0;"/><line style="stroke:#181818;stroke-width:1.0;" x1="572.25" x2="815.25" y1="185.625" y2="185.625"/><text fill="#000000" font-family="sans-serif" font-size="13" lengthAdjust="spacing" textLength="225" x="579.25" y="180.7686">Receive Purchase Order Created Event</text><polygon fill="#181818" points="886.75,211.9766,896.75,215.9766,886.75,219.9766,890.75,215.9766" style="stroke:#181818;stroke-width:1.0;"/><line style="stroke:#181818;stroke-width:1.0;" x1="572.25" x2="892.75" y1="215.9766" y2="215.9766"/><text fill="#000000" font-family="sans-serif" font-size="13" lengthAdjust="spacing" textLength="133" x="579.25" y="211.1201">Create Purchase Order</text><!--SRC=[pLGzRuCm4DtzAqvqnbEd39LQIfGEKQCoP7RX89QCJVr1ad_VuoiIYIeneJBXyxjxxzxPzj8hX1GIKzTeSuI34huqjeOO4el2KyIQ8kIU0c_XAdK5hxg0FO5FGXVITP7RLeQsbLGb9e1peaBO4KYXfSZm1uVGPJg4JrjGV20f86rHTnmP_WJKVOd4Q2-a9f325XLZZR1Uvh8HX8pIYqUhXOf0E4YUFpGjjygSUMPAVnOMiwlpM3i-0OSrOz_c0j5SRmHFnvFqo82-6SjT6prPEfarUSM79aQZ-52RN9gPzA1hW8qA-ArPnqVEaRBNH9u4dDHGreewQ8yXJPnikvl0SP_zeUCTbMpHycrGfLGrJVQ1bP8PMpusY5zMzXqsIquigwm9pIBaol9NCwoxHnlumXnfvl_VWcLdapgQdhzPGzrLOEmN]--></g></svg>