<?xml version="1.0" encoding="us-ascii" standalone="no"?><svg xmlns="http://www.w3.org/2000/svg" xmlns:xlink="http://www.w3.org/1999/xlink" contentStyleType="text/css" height="383px" preserveAspectRatio="none" style="width:642px;height:383px;background:#FFFFFF;" version="1.1" viewBox="0 0 642 383" width="642px" zoomAndPan="magnify"><defs/><g><text fill="#000000" font-family="sans-serif" font-size="14" font-weight="bold" lengthAdjust="spacing" textLength="614" x="10" y="29.5332">To Do App Example - To Do App - Mobile App - Update Task - Sequence - Container level</text><rect fill="#FFFFFF" height="326.3281" style="stroke:#181818;stroke-width:0.5;" width="277.5" x="210" y="44.6094"/><text fill="#000000" font-family="sans-serif" font-size="13" font-weight="bold" lengthAdjust="spacing" textLength="66" x="315.75" y="58.1045">To Do App</text><rect fill="none" height="111.4063" style="stroke:#000000;stroke-width:1.5;" width="299.5" x="204" y="175.9219"/><rect fill="none" height="48.7031" style="stroke:#000000;stroke-width:1.5;" width="184" x="309.5" y="231.625"/><line style="stroke:#181818;stroke-width:0.5;stroke-dasharray:5.0,5.0;" x1="158.5" x2="158.5" y1="128.5703" y2="304.3281"/><line style="stroke:#181818;stroke-width:0.5;stroke-dasharray:5.0,5.0;" x1="256" x2="256" y1="128.5703" y2="304.3281"/><line style="stroke:#181818;stroke-width:0.5;stroke-dasharray:5.0,5.0;" x1="352.5" x2="352.5" y1="128.5703" y2="304.3281"/><line style="stroke:#181818;stroke-width:0.5;stroke-dasharray:5.0,5.0;" x1="449.5" x2="449.5" y1="128.5703" y2="304.3281"/><rect fill="#E2E2F0" height="31.6094" rx="2.5" ry="2.5" style="stroke:#181818;stroke-width:0.5;" width="65" x="126.5" y="95.9609"/><text fill="#000000" font-family="sans-serif" font-size="14" lengthAdjust="spacing" textLength="51" x="133.5" y="117.4941">External</text><rect fill="#E2E2F0" height="31.6094" rx="2.5" ry="2.5" style="stroke:#181818;stroke-width:0.5;" width="65" x="126.5" y="303.3281"/><text fill="#000000" font-family="sans-serif" font-size="14" lengthAdjust="spacing" textLength="51" x="133.5" y="324.8613">External</text><rect fill="#E2E2F0" height="31.6094" rx="2.5" ry="2.5" style="stroke:#181818;stroke-width:0.5;" width="84" x="214" y="95.9609"/><text fill="#000000" font-family="sans-serif" font-size="14" lengthAdjust="spacing" textLength="70" x="221" y="117.4941">Mobile App</text><rect fill="#E2E2F0" height="31.6094" rx="2.5" ry="2.5" style="stroke:#181818;stroke-width:0.5;" width="84" x="214" y="303.3281"/><text fill="#000000" font-family="sans-serif" font-size="14" lengthAdjust="spacing" textLength="70" x="221" y="324.8613">Mobile App</text><rect fill="#E2E2F0" height="31.6094" rx="2.5" ry="2.5" style="stroke:#181818;stroke-width:0.5;" width="67" x="319.5" y="95.9609"/><text fill="#000000" font-family="sans-serif" font-size="14" lengthAdjust="spacing" textLength="53" x="326.5" y="117.4941">Web Api</text><rect fill="#E2E2F0" height="31.6094" rx="2.5" ry="2.5" style="stroke:#181818;stroke-width:0.5;" width="67" x="319.5" y="303.3281"/><text fill="#000000" font-family="sans-serif" font-size="14" lengthAdjust="spacing" textLength="53" x="326.5" y="324.8613">Web Api</text><text fill="#000000" font-family="sans-serif" font-size="14" lengthAdjust="spacing" textLength="61" x="416.5" y="125.4941">Database</text><path d="M432,74.9609 C432,64.9609 450,64.9609 450,64.9609 C450,64.9609 468,64.9609 468,74.9609 L468,100.9609 C468,110.9609 450,110.9609 450,110.9609 C450,110.9609 432,110.9609 432,100.9609 L432,74.9609 " fill="#E2E2F0" style="stroke:#181818;stroke-width:1.5;"/><path d="M432,74.9609 C432,84.9609 450,84.9609 450,84.9609 C450,84.9609 468,84.9609 468,74.9609 " fill="none" style="stroke:#181818;stroke-width:1.5;"/><text fill="#000000" font-family="sans-serif" font-size="14" lengthAdjust="spacing" textLength="61" x="416.5" y="317.8613">Database</text><path d="M432,330.9375 C432,320.9375 450,320.9375 450,320.9375 C450,320.9375 468,320.9375 468,330.9375 L468,356.9375 C468,366.9375 450,366.9375 450,366.9375 C450,366.9375 432,366.9375 432,356.9375 L432,330.9375 " fill="#E2E2F0" style="stroke:#181818;stroke-width:1.5;"/><path d="M432,330.9375 C432,340.9375 450,340.9375 450,340.9375 C450,340.9375 468,340.9375 468,330.9375 " fill="none" style="stroke:#181818;stroke-width:1.5;"/><polygon fill="#181818" points="244,156.9219,254,160.9219,244,164.9219,248,160.9219" style="stroke:#181818;stroke-width:1.0;"/><line style="stroke:#181818;stroke-width:1.0;" x1="159" x2="250" y1="160.9219" y2="160.9219"/><text fill="#000000" font-family="sans-serif" font-size="13" lengthAdjust="spacing" textLength="73" x="166" y="156.0654">Update Task</text><path d="M204,175.9219 L327,175.9219 L327,184.2734 L317,194.2734 L204,194.2734 L204,175.9219 " fill="#EEEEEE" style="stroke:#000000;stroke-width:1.5;"/><rect fill="none" height="111.4063" style="stroke:#000000;stroke-width:1.5;" width="299.5" x="204" y="175.9219"/><text fill="#000000" font-family="sans-serif" font-size="13" font-weight="bold" lengthAdjust="spacing" textLength="78" x="219" y="190.417">Update Task</text><polygon fill="#181818" points="341,212.625,351,216.625,341,220.625,345,216.625" style="stroke:#181818;stroke-width:1.0;"/><line style="stroke:#181818;stroke-width:1.0;" x1="256" x2="347" y1="216.625" y2="216.625"/><text fill="#000000" font-family="sans-serif" font-size="13" lengthAdjust="spacing" textLength="73" x="263" y="211.7686">Update Task</text><path d="M309.5,231.625 L432.5,231.625 L432.5,239.9766 L422.5,249.9766 L309.5,249.9766 L309.5,231.625 " fill="#EEEEEE" style="stroke:#000000;stroke-width:1.5;"/><rect fill="none" height="48.7031" style="stroke:#000000;stroke-width:1.5;" width="184" x="309.5" y="231.625"/><text fill="#000000" font-family="sans-serif" font-size="13" font-weight="bold" lengthAdjust="spacing" textLength="78" x="324.5" y="246.1201">Update Task</text><polygon fill="#181818" points="438,268.3281,448,272.3281,438,276.3281,442,272.3281" style="stroke:#181818;stroke-width:1.0;"/><line style="stroke:#181818;stroke-width:1.0;" x1="353" x2="444" y1="272.3281" y2="272.3281"/><text fill="#000000" font-family="sans-serif" font-size="13" lengthAdjust="spacing" textLength="73" x="360" y="267.4717">Update Task</text><!--SRC=[jLAxJWCn4EptArPEVLTHKKH2kI1HK5rGwhra0Gl7Qso777_FSe-Ga0PTX2LBth5dTZnsjjanhWGhmRiGSDdIBYXId605FafZ5UoBfx2bh1nARrhL_Bvdl_bcBCHdifuZElvW1n0ePhknWNn6ismpHq_E82LSt3nuBU-T7CfQdlE18jUVAVCkbUF1lWPef4LpT6DmjdwrcG5rd3NuCTcrM4abkXukTD5bs2wFfbFP2oXugRtcHeNjH65bAxbJrUYeeSHegc4rKNEa0_ijQaG0yFTGiPXVam_Uddu2U8co3sV8DTgJhFK9_uElGNYIgV69VjdI1-icV040]--></g></svg>