<?xml version="1.0" encoding="us-ascii" standalone="no"?><svg xmlns="http://www.w3.org/2000/svg" xmlns:xlink="http://www.w3.org/1999/xlink" contentStyleType="text/css" height="1071px" preserveAspectRatio="none" style="width:960px;height:1071px;background:#FFFFFF;" version="1.1" viewBox="0 0 960 1071" width="960px" zoomAndPan="magnify"><defs/><g><text fill="#000000" font-family="sans-serif" font-size="14" font-weight="bold" lengthAdjust="spacing" textLength="439" x="262.25" y="29.5332">BigBankPlc - Create New Account - Sequence - Container level</text><rect fill="#FFFFFF" height="1014.0625" style="stroke:#181818;stroke-width:0.5;" width="519.5" x="101" y="44.6094"/><text fill="#000000" font-family="sans-serif" font-size="13" font-weight="bold" lengthAdjust="spacing" textLength="105" x="308.25" y="58.1045">Internet Banking</text><rect fill="none" height="111.4063" style="stroke:#000000;stroke-width:1.5;" width="361" x="10" y="145.5703"/><rect fill="none" height="48.7031" style="stroke:#000000;stroke-width:1.5;" width="266" x="95" y="201.2734"/><rect fill="none" height="422.9219" style="stroke:#000000;stroke-width:1.5;" width="831.5" x="10" y="270.9766"/><rect fill="none" height="111.4063" style="stroke:#000000;stroke-width:1.5;" width="415.5" x="221" y="326.6797"/><rect fill="none" height="48.7031" style="stroke:#000000;stroke-width:1.5;" width="235.5" x="391" y="382.3828"/><rect fill="none" height="204.4609" style="stroke:#000000;stroke-width:1.5;" width="610.5" x="221" y="482.4375"/><rect fill="none" height="48.7031" style="stroke:#000000;stroke-width:1.5;" width="430.5" x="391" y="538.1406"/><rect fill="none" height="48.7031" style="stroke:#000000;stroke-width:1.5;" width="430.5" x="391" y="631.1953"/><rect fill="none" height="204.4609" style="stroke:#000000;stroke-width:1.5;" width="944.5" x="10" y="707.8984"/><rect fill="none" height="141.7578" style="stroke:#000000;stroke-width:1.5;" width="723.5" x="221" y="763.6016"/><rect fill="none" height="79.0547" style="stroke:#000000;stroke-width:1.5;" width="543.5" x="391" y="819.3047"/><rect fill="none" height="48.7031" style="stroke:#000000;stroke-width:1.5;" width="924.5" x="10" y="926.3594"/><line style="stroke:#181818;stroke-width:0.5;stroke-dasharray:5.0,5.0;" x1="57" x2="57" y1="128.5703" y2="992.0625"/><line style="stroke:#181818;stroke-width:0.5;stroke-dasharray:5.0,5.0;" x1="163" x2="163" y1="128.5703" y2="992.0625"/><line style="stroke:#181818;stroke-width:0.5;stroke-dasharray:5.0,5.0;" x1="291" x2="291" y1="128.5703" y2="992.0625"/><line style="stroke:#181818;stroke-width:0.5;stroke-dasharray:5.0,5.0;" x1="455" x2="455" y1="128.5703" y2="992.0625"/><line style="stroke:#181818;stroke-width:0.5;stroke-dasharray:5.0,5.0;" x1="582.5" x2="582.5" y1="128.5703" y2="992.0625"/><line style="stroke:#181818;stroke-width:0.5;stroke-dasharray:5.0,5.0;" x1="718.5" x2="718.5" y1="128.5703" y2="992.0625"/><line style="stroke:#181818;stroke-width:0.5;stroke-dasharray:5.0,5.0;" x1="872.5" x2="872.5" y1="128.5703" y2="992.0625"/><rect fill="#E2E2F0" height="31.6094" rx="2.5" ry="2.5" style="stroke:#181818;stroke-width:0.5;" width="75" x="20" y="95.9609"/><text fill="#000000" font-family="sans-serif" font-size="14" lengthAdjust="spacing" textLength="61" x="27" y="117.4941">Customer</text><rect fill="#E2E2F0" height="31.6094" rx="2.5" ry="2.5" style="stroke:#181818;stroke-width:0.5;" width="75" x="20" y="991.0625"/><text fill="#000000" font-family="sans-serif" font-size="14" lengthAdjust="spacing" textLength="61" x="27" y="1012.5957">Customer</text><rect fill="#E2E2F0" height="31.6094" rx="2.5" ry="2.5" style="stroke:#181818;stroke-width:0.5;" width="116" x="105" y="95.9609"/><text fill="#000000" font-family="sans-serif" font-size="14" lengthAdjust="spacing" textLength="102" x="112" y="117.4941">Web Application</text><rect fill="#E2E2F0" height="31.6094" rx="2.5" ry="2.5" style="stroke:#181818;stroke-width:0.5;" width="116" x="105" y="991.0625"/><text fill="#000000" font-family="sans-serif" font-size="14" lengthAdjust="spacing" textLength="102" x="112" y="1012.5957">Web Application</text><rect fill="#E2E2F0" height="31.6094" rx="2.5" ry="2.5" style="stroke:#181818;stroke-width:0.5;" width="120" x="231" y="95.9609"/><text fill="#000000" font-family="sans-serif" font-size="14" lengthAdjust="spacing" textLength="106" x="238" y="117.4941">Single-Page App</text><rect fill="#E2E2F0" height="31.6094" rx="2.5" ry="2.5" style="stroke:#181818;stroke-width:0.5;" width="120" x="231" y="991.0625"/><text fill="#000000" font-family="sans-serif" font-size="14" lengthAdjust="spacing" textLength="106" x="238" y="1012.5957">Single-Page App</text><rect fill="#E2E2F0" height="31.6094" rx="2.5" ry="2.5" style="stroke:#181818;stroke-width:0.5;" width="108" x="401" y="95.9609"/><text fill="#000000" font-family="sans-serif" font-size="14" lengthAdjust="spacing" textLength="94" x="408" y="117.4941">API Application</text><rect fill="#E2E2F0" height="31.6094" rx="2.5" ry="2.5" style="stroke:#181818;stroke-width:0.5;" width="108" x="401" y="991.0625"/><text fill="#000000" font-family="sans-serif" font-size="14" lengthAdjust="spacing" textLength="94" x="408" y="1012.5957">API Application</text><text fill="#000000" font-family="sans-serif" font-size="14" lengthAdjust="spacing" textLength="61" x="549.5" y="125.4941">Database</text><path d="M565,74.9609 C565,64.9609 583,64.9609 583,64.9609 C583,64.9609 601,64.9609 601,74.9609 L601,100.9609 C601,110.9609 583,110.9609 583,110.9609 C583,110.9609 565,110.9609 565,100.9609 L565,74.9609 " fill="#E2E2F0" style="stroke:#181818;stroke-width:1.5;"/><path d="M565,74.9609 C565,84.9609 583,84.9609 583,84.9609 C583,84.9609 601,84.9609 601,74.9609 " fill="none" style="stroke:#181818;stroke-width:1.5;"/><text fill="#000000" font-family="sans-serif" font-size="14" lengthAdjust="spacing" textLength="61" x="549.5" y="1005.5957">Database</text><path d="M565,1018.6719 C565,1008.6719 583,1008.6719 583,1008.6719 C583,1008.6719 601,1008.6719 601,1018.6719 L601,1044.6719 C601,1054.6719 583,1054.6719 583,1054.6719 C583,1054.6719 565,1054.6719 565,1044.6719 L565,1018.6719 " fill="#E2E2F0" style="stroke:#181818;stroke-width:1.5;"/><path d="M565,1018.6719 C565,1028.6719 583,1028.6719 583,1028.6719 C583,1028.6719 601,1028.6719 601,1018.6719 " fill="none" style="stroke:#181818;stroke-width:1.5;"/><rect fill="#E2E2F0" height="31.6094" rx="2.5" ry="2.5" style="stroke:#181818;stroke-width:0.5;" width="185" x="626.5" y="95.9609"/><text fill="#000000" font-family="sans-serif" font-size="14" lengthAdjust="spacing" textLength="171" x="633.5" y="117.4941">Mainframe Banking System</text><rect fill="#E2E2F0" height="31.6094" rx="2.5" ry="2.5" style="stroke:#181818;stroke-width:0.5;" width="185" x="626.5" y="991.0625"/><text fill="#000000" font-family="sans-serif" font-size="14" lengthAdjust="spacing" textLength="171" x="633.5" y="1012.5957">Mainframe Banking System</text><rect fill="#E2E2F0" height="31.6094" rx="2.5" ry="2.5" style="stroke:#181818;stroke-width:0.5;" width="103" x="821.5" y="95.9609"/><text fill="#000000" font-family="sans-serif" font-size="14" lengthAdjust="spacing" textLength="89" x="828.5" y="117.4941">E-Mail System</text><rect fill="#E2E2F0" height="31.6094" rx="2.5" ry="2.5" style="stroke:#181818;stroke-width:0.5;" width="103" x="821.5" y="991.0625"/><text fill="#000000" font-family="sans-serif" font-size="14" lengthAdjust="spacing" textLength="89" x="828.5" y="1012.5957">E-Mail System</text><path d="M10,145.5703 L293,145.5703 L293,153.9219 L283,163.9219 L10,163.9219 L10,145.5703 " fill="#EEEEEE" style="stroke:#000000;stroke-width:1.5;"/><rect fill="none" height="111.4063" style="stroke:#000000;stroke-width:1.5;" width="361" x="10" y="145.5703"/><text fill="#000000" font-family="sans-serif" font-size="13" font-weight="bold" lengthAdjust="spacing" textLength="238" x="25" y="160.0654">Customer - Go to Online Banking URL</text><polygon fill="#181818" points="151,182.2734,161,186.2734,151,190.2734,155,186.2734" style="stroke:#181818;stroke-width:1.0;"/><line style="stroke:#181818;stroke-width:1.0;" x1="57.5" x2="157" y1="186.2734" y2="186.2734"/><text fill="#000000" font-family="sans-serif" font-size="13" lengthAdjust="spacing" textLength="49" x="64.5" y="181.417">Navigate</text><path d="M95,201.2734 L196,201.2734 L196,209.625 L186,219.625 L95,219.625 L95,201.2734 " fill="#EEEEEE" style="stroke:#000000;stroke-width:1.5;"/><rect fill="none" height="48.7031" style="stroke:#000000;stroke-width:1.5;" width="266" x="95" y="201.2734"/><text fill="#000000" font-family="sans-serif" font-size="13" font-weight="bold" lengthAdjust="spacing" textLength="56" x="110" y="215.7686">Navigate</text><polygon fill="#181818" points="279,237.9766,289,241.9766,279,245.9766,283,241.9766" style="stroke:#181818;stroke-width:1.0;"/><line style="stroke:#181818;stroke-width:1.0;" x1="163" x2="285" y1="241.9766" y2="241.9766"/><text fill="#000000" font-family="sans-serif" font-size="13" lengthAdjust="spacing" textLength="87" x="170" y="237.1201">Load And Start</text><path d="M10,270.9766 L314,270.9766 L314,279.3281 L304,289.3281 L10,289.3281 L10,270.9766 " fill="#EEEEEE" style="stroke:#000000;stroke-width:1.5;"/><rect fill="none" height="422.9219" style="stroke:#000000;stroke-width:1.5;" width="831.5" x="10" y="270.9766"/><text fill="#000000" font-family="sans-serif" font-size="13" font-weight="bold" lengthAdjust="spacing" textLength="259" x="25" y="285.4717">Customer - Sign In and View Home Page</text><polygon fill="#181818" points="279,307.6797,289,311.6797,279,315.6797,283,311.6797" style="stroke:#181818;stroke-width:1.0;"/><line style="stroke:#181818;stroke-width:1.0;" x1="57.5" x2="285" y1="311.6797" y2="311.6797"/><text fill="#000000" font-family="sans-serif" font-size="13" lengthAdjust="spacing" textLength="40" x="64.5" y="306.8232">Sign In</text><path d="M221,326.6797 L311,326.6797 L311,335.0313 L301,345.0313 L221,345.0313 L221,326.6797 " fill="#EEEEEE" style="stroke:#000000;stroke-width:1.5;"/><rect fill="none" height="111.4063" style="stroke:#000000;stroke-width:1.5;" width="415.5" x="221" y="326.6797"/><text fill="#000000" font-family="sans-serif" font-size="13" font-weight="bold" lengthAdjust="spacing" textLength="45" x="236" y="341.1748">Sign In</text><polygon fill="#181818" points="443,363.3828,453,367.3828,443,371.3828,447,367.3828" style="stroke:#181818;stroke-width:1.0;"/><line style="stroke:#181818;stroke-width:1.0;" x1="291" x2="449" y1="367.3828" y2="367.3828"/><text fill="#000000" font-family="sans-serif" font-size="13" lengthAdjust="spacing" textLength="40" x="298" y="362.5264">Sign In</text><path d="M391,382.3828 L481,382.3828 L481,390.7344 L471,400.7344 L391,400.7344 L391,382.3828 " fill="#EEEEEE" style="stroke:#000000;stroke-width:1.5;"/><rect fill="none" height="48.7031" style="stroke:#000000;stroke-width:1.5;" width="235.5" x="391" y="382.3828"/><text fill="#000000" font-family="sans-serif" font-size="13" font-weight="bold" lengthAdjust="spacing" textLength="45" x="406" y="396.8779">Sign In</text><polygon fill="#181818" points="571,419.0859,581,423.0859,571,427.0859,575,423.0859" style="stroke:#181818;stroke-width:1.0;"/><line style="stroke:#181818;stroke-width:1.0;" x1="455" x2="577" y1="423.0859" y2="423.0859"/><text fill="#000000" font-family="sans-serif" font-size="13" lengthAdjust="spacing" textLength="104" x="462" y="418.2295">Authenticate User</text><polygon fill="#181818" points="279,463.4375,289,467.4375,279,471.4375,283,467.4375" style="stroke:#181818;stroke-width:1.0;"/><line style="stroke:#181818;stroke-width:1.0;" x1="57.5" x2="285" y1="467.4375" y2="467.4375"/><text fill="#000000" font-family="sans-serif" font-size="13" lengthAdjust="spacing" textLength="132" x="64.5" y="462.5811">View Customer Details</text><path d="M221,482.4375 L409,482.4375 L409,490.7891 L399,500.7891 L221,500.7891 L221,482.4375 " fill="#EEEEEE" style="stroke:#000000;stroke-width:1.5;"/><rect fill="none" height="204.4609" style="stroke:#000000;stroke-width:1.5;" width="610.5" x="221" y="482.4375"/><text fill="#000000" font-family="sans-serif" font-size="13" font-weight="bold" lengthAdjust="spacing" textLength="143" x="236" y="496.9326">View Customer Details</text><polygon fill="#181818" points="443,519.1406,453,523.1406,443,527.1406,447,523.1406" style="stroke:#181818;stroke-width:1.0;"/><line style="stroke:#181818;stroke-width:1.0;" x1="291" x2="449" y1="523.1406" y2="523.1406"/><text fill="#000000" font-family="sans-serif" font-size="13" lengthAdjust="spacing" textLength="81" x="298" y="518.2842">Get Customer</text><path d="M391,538.1406 L522,538.1406 L522,546.4922 L512,556.4922 L391,556.4922 L391,538.1406 " fill="#EEEEEE" style="stroke:#000000;stroke-width:1.5;"/><rect fill="none" height="48.7031" style="stroke:#000000;stroke-width:1.5;" width="430.5" x="391" y="538.1406"/><text fill="#000000" font-family="sans-serif" font-size="13" font-weight="bold" lengthAdjust="spacing" textLength="86" x="406" y="552.6357">Get Customer</text><polygon fill="#181818" points="707,574.8438,717,578.8438,707,582.8438,711,578.8438" style="stroke:#181818;stroke-width:1.0;"/><line style="stroke:#181818;stroke-width:1.0;" x1="455" x2="713" y1="578.8438" y2="578.8438"/><text fill="#000000" font-family="sans-serif" font-size="13" lengthAdjust="spacing" textLength="81" x="462" y="573.9873">Get Customer</text><polygon fill="#181818" points="443,612.1953,453,616.1953,443,620.1953,447,616.1953" style="stroke:#181818;stroke-width:1.0;"/><line style="stroke:#181818;stroke-width:1.0;" x1="291" x2="449" y1="616.1953" y2="616.1953"/><text fill="#000000" font-family="sans-serif" font-size="13" lengthAdjust="spacing" textLength="140" x="298" y="611.3389">Get Customer Accounts</text><path d="M391,631.1953 L583,631.1953 L583,639.5469 L573,649.5469 L391,649.5469 L391,631.1953 " fill="#EEEEEE" style="stroke:#000000;stroke-width:1.5;"/><rect fill="none" height="48.7031" style="stroke:#000000;stroke-width:1.5;" width="430.5" x="391" y="631.1953"/><text fill="#000000" font-family="sans-serif" font-size="13" font-weight="bold" lengthAdjust="spacing" textLength="147" x="406" y="645.6904">Get Customer Accounts</text><polygon fill="#181818" points="707,667.8984,717,671.8984,707,675.8984,711,671.8984" style="stroke:#181818;stroke-width:1.0;"/><line style="stroke:#181818;stroke-width:1.0;" x1="455" x2="713" y1="671.8984" y2="671.8984"/><text fill="#000000" font-family="sans-serif" font-size="13" lengthAdjust="spacing" textLength="140" x="462" y="667.042">Get Customer Accounts</text><path d="M10,707.8984 L256,707.8984 L256,716.25 L246,726.25 L10,726.25 L10,707.8984 " fill="#EEEEEE" style="stroke:#000000;stroke-width:1.5;"/><rect fill="none" height="204.4609" style="stroke:#000000;stroke-width:1.5;" width="944.5" x="10" y="707.8984"/><text fill="#000000" font-family="sans-serif" font-size="13" font-weight="bold" lengthAdjust="spacing" textLength="201" x="25" y="722.3936">Customer - Create New Account</text><polygon fill="#181818" points="279,744.6016,289,748.6016,279,752.6016,283,748.6016" style="stroke:#181818;stroke-width:1.0;"/><line style="stroke:#181818;stroke-width:1.0;" x1="57.5" x2="285" y1="748.6016" y2="748.6016"/><text fill="#000000" font-family="sans-serif" font-size="13" lengthAdjust="spacing" textLength="90" x="64.5" y="743.7451">Create Account</text><path d="M221,763.6016 L363,763.6016 L363,771.9531 L353,781.9531 L221,781.9531 L221,763.6016 " fill="#EEEEEE" style="stroke:#000000;stroke-width:1.5;"/><rect fill="none" height="141.7578" style="stroke:#000000;stroke-width:1.5;" width="723.5" x="221" y="763.6016"/><text fill="#000000" font-family="sans-serif" font-size="13" font-weight="bold" lengthAdjust="spacing" textLength="97" x="236" y="778.0967">Create Account</text><polygon fill="#181818" points="443,800.3047,453,804.3047,443,808.3047,447,804.3047" style="stroke:#181818;stroke-width:1.0;"/><line style="stroke:#181818;stroke-width:1.0;" x1="291" x2="449" y1="804.3047" y2="804.3047"/><text fill="#000000" font-family="sans-serif" font-size="13" lengthAdjust="spacing" textLength="90" x="298" y="799.4482">Create Account</text><path d="M391,819.3047 L533,819.3047 L533,827.6563 L523,837.6563 L391,837.6563 L391,819.3047 " fill="#EEEEEE" style="stroke:#000000;stroke-width:1.5;"/><rect fill="none" height="79.0547" style="stroke:#000000;stroke-width:1.5;" width="543.5" x="391" y="819.3047"/><text fill="#000000" font-family="sans-serif" font-size="13" font-weight="bold" lengthAdjust="spacing" textLength="97" x="406" y="833.7998">Create Account</text><polygon fill="#181818" points="707,856.0078,717,860.0078,707,864.0078,711,860.0078" style="stroke:#181818;stroke-width:1.0;"/><line style="stroke:#181818;stroke-width:1.0;" x1="455" x2="713" y1="860.0078" y2="860.0078"/><text fill="#000000" font-family="sans-serif" font-size="13" lengthAdjust="spacing" textLength="90" x="462" y="855.1514">Create Account</text><polygon fill="#181818" points="861,886.3594,871,890.3594,861,894.3594,865,890.3594" style="stroke:#181818;stroke-width:1.0;"/><line style="stroke:#181818;stroke-width:1.0;" x1="455" x2="867" y1="890.3594" y2="890.3594"/><text fill="#000000" font-family="sans-serif" font-size="13" lengthAdjust="spacing" textLength="269" x="462" y="885.5029">Send New Account Created Notification E-Mail</text><path d="M10,926.3594 L438,926.3594 L438,934.7109 L428,944.7109 L10,944.7109 L10,926.3594 " fill="#EEEEEE" style="stroke:#000000;stroke-width:1.5;"/><rect fill="none" height="48.7031" style="stroke:#000000;stroke-width:1.5;" width="924.5" x="10" y="926.3594"/><text fill="#000000" font-family="sans-serif" font-size="13" font-weight="bold" lengthAdjust="spacing" textLength="383" x="25" y="940.8545">Customer - Receive New Account Created Notification E-Mail</text><polygon fill="#181818" points="861,963.0625,871,967.0625,861,971.0625,865,967.0625" style="stroke:#181818;stroke-width:1.0;"/><line style="stroke:#181818;stroke-width:1.0;" x1="57.5" x2="867" y1="967.0625" y2="967.0625"/><text fill="#000000" font-family="sans-serif" font-size="13" lengthAdjust="spacing" textLength="284" x="64.5" y="962.2061">Receive New Account Created Notification E-Mail</text><!--SRC=[pPRDRjim3CVlUWhEEySFiCC0zmDTWAuBQdGzCmxZ2hCbpwBJzUr7rPOREzdMfMwG00PYYVxnBvAI-A6gCIyH2doo3OChYT6WKgov83ZJ-HcQ7uiYWncSruHCS4EFa6IPRGpBO4e_6p8P-Nbh6BMX6WhQKA5KXJNhJ5Sebj5vuzYML4U0ReiR9ndRsiLXMgcb_GNHt33LXXYycJPv11_l7pIJ0laDkFUqXAIg2fqXQsl6-DIk-H5hIfySK-dY0EwuSI_QnKBQ0krwIiM-eDa2S_8Ut-2f9NcGS7OT9OlvH4iIqdX9AsHSeYE8Bhf_R-07X2Ap0adSAETVnMnTOqaXZT0o_-Mn_wxxh1qViYzdObMy4dZfRJkAoclRL10AJWhtoW9R-6OAMLIlzExsMlsvJ67sUP8gWqzmWnkToyRgTFMla-0FbZaeKL5vRN45YMGvPSc2p_VpinFBLES6vWPGJBzhEIg-o0Huphj4SoopSz_f2czJi0-MEDo34siSmGyM6JQoo4iQVY337abmv-H83ia-HWAVQwR7NiXjf0lNXMh_t6abzqhkhFukQsKFXewGvlsdvrZRAA4d5hhGORWzCNoPEvLWlYWAMsNlsRZRG1rbItLkWyjErd3mj2hX_HHFa_lZIzbgOFmDujkjxJwy5IHZblKw4DiEwUybUKiPwGsz6dPmlGuNyBzklNRr6m00]--></g></svg>