<?xml version="1.0" encoding="us-ascii" standalone="no"?><svg xmlns="http://www.w3.org/2000/svg" xmlns:xlink="http://www.w3.org/1999/xlink" contentStyleType="text/css" height="600px" preserveAspectRatio="none" style="width:609px;height:600px;background:#FFFFFF;" version="1.1" viewBox="0 0 609 600" width="609px" zoomAndPan="magnify"><defs/><g><text fill="#000000" font-family="sans-serif" font-size="14" font-weight="bold" lengthAdjust="spacing" textLength="425" x="93.5" y="29.5332">BigBankPlc - Create New Account - Sequence - Context level</text><rect fill="none" height="48.7031" style="stroke:#000000;stroke-width:1.5;" width="288" x="10" y="93.2188"/><rect fill="none" height="172.1094" style="stroke:#000000;stroke-width:1.5;" width="480" x="10" y="155.9219"/><rect fill="none" height="79.0547" style="stroke:#000000;stroke-width:1.5;" width="335" x="145" y="241.9766"/><rect fill="none" height="141.7578" style="stroke:#000000;stroke-width:1.5;" width="593" x="10" y="342.0313"/><rect fill="none" height="79.0547" style="stroke:#000000;stroke-width:1.5;" width="448" x="145" y="397.7344"/><rect fill="none" height="48.7031" style="stroke:#000000;stroke-width:1.5;" width="583" x="10" y="497.7891"/><line style="stroke:#181818;stroke-width:0.5;stroke-dasharray:5.0,5.0;" x1="57" x2="57" y1="76.2188" y2="563.4922"/><line style="stroke:#181818;stroke-width:0.5;stroke-dasharray:5.0,5.0;" x1="213" x2="213" y1="76.2188" y2="563.4922"/><line style="stroke:#181818;stroke-width:0.5;stroke-dasharray:5.0,5.0;" x1="377" x2="377" y1="76.2188" y2="563.4922"/><line style="stroke:#181818;stroke-width:0.5;stroke-dasharray:5.0,5.0;" x1="531" x2="531" y1="76.2188" y2="563.4922"/><rect fill="#E2E2F0" height="31.6094" rx="2.5" ry="2.5" style="stroke:#181818;stroke-width:0.5;" width="75" x="20" y="43.6094"/><text fill="#000000" font-family="sans-serif" font-size="14" lengthAdjust="spacing" textLength="61" x="27" y="65.1426">Customer</text><rect fill="#E2E2F0" height="31.6094" rx="2.5" ry="2.5" style="stroke:#181818;stroke-width:0.5;" width="75" x="20" y="562.4922"/><text fill="#000000" font-family="sans-serif" font-size="14" lengthAdjust="spacing" textLength="61" x="27" y="584.0254">Customer</text><rect fill="#E2E2F0" height="31.6094" rx="2.5" ry="2.5" style="stroke:#181818;stroke-width:0.5;" width="117" x="155" y="43.6094"/><text fill="#000000" font-family="sans-serif" font-size="14" lengthAdjust="spacing" textLength="103" x="162" y="65.1426">Internet Banking</text><rect fill="#E2E2F0" height="31.6094" rx="2.5" ry="2.5" style="stroke:#181818;stroke-width:0.5;" width="117" x="155" y="562.4922"/><text fill="#000000" font-family="sans-serif" font-size="14" lengthAdjust="spacing" textLength="103" x="162" y="584.0254">Internet Banking</text><rect fill="#E2E2F0" height="31.6094" rx="2.5" ry="2.5" style="stroke:#181818;stroke-width:0.5;" width="185" x="285" y="43.6094"/><text fill="#000000" font-family="sans-serif" font-size="14" lengthAdjust="spacing" textLength="171" x="292" y="65.1426">Mainframe Banking System</text><rect fill="#E2E2F0" height="31.6094" rx="2.5" ry="2.5" style="stroke:#181818;stroke-width:0.5;" width="185" x="285" y="562.4922"/><text fill="#000000" font-family="sans-serif" font-size="14" lengthAdjust="spacing" textLength="171" x="292" y="584.0254">Mainframe Banking System</text><rect fill="#E2E2F0" height="31.6094" rx="2.5" ry="2.5" style="stroke:#181818;stroke-width:0.5;" width="103" x="480" y="43.6094"/><text fill="#000000" font-family="sans-serif" font-size="14" lengthAdjust="spacing" textLength="89" x="487" y="65.1426">E-Mail System</text><rect fill="#E2E2F0" height="31.6094" rx="2.5" ry="2.5" style="stroke:#181818;stroke-width:0.5;" width="103" x="480" y="562.4922"/><text fill="#000000" font-family="sans-serif" font-size="14" lengthAdjust="spacing" textLength="89" x="487" y="584.0254">E-Mail System</text><path d="M10,93.2188 L293,93.2188 L293,101.5703 L283,111.5703 L10,111.5703 L10,93.2188 " fill="#EEEEEE" style="stroke:#000000;stroke-width:1.5;"/><rect fill="none" height="48.7031" style="stroke:#000000;stroke-width:1.5;" width="288" x="10" y="93.2188"/><text fill="#000000" font-family="sans-serif" font-size="13" font-weight="bold" lengthAdjust="spacing" textLength="238" x="25" y="107.7139">Customer - Go to Online Banking URL</text><polygon fill="#181818" points="201.5,129.9219,211.5,133.9219,201.5,137.9219,205.5,133.9219" style="stroke:#181818;stroke-width:1.0;"/><line style="stroke:#181818;stroke-width:1.0;" x1="57.5" x2="207.5" y1="133.9219" y2="133.9219"/><text fill="#000000" font-family="sans-serif" font-size="13" lengthAdjust="spacing" textLength="49" x="64.5" y="129.0654">Navigate</text><path d="M10,155.9219 L314,155.9219 L314,164.2734 L304,174.2734 L10,174.2734 L10,155.9219 " fill="#EEEEEE" style="stroke:#000000;stroke-width:1.5;"/><rect fill="none" height="172.1094" style="stroke:#000000;stroke-width:1.5;" width="480" x="10" y="155.9219"/><text fill="#000000" font-family="sans-serif" font-size="13" font-weight="bold" lengthAdjust="spacing" textLength="259" x="25" y="170.417">Customer - Sign In and View Home Page</text><polygon fill="#181818" points="201.5,192.625,211.5,196.625,201.5,200.625,205.5,196.625" style="stroke:#181818;stroke-width:1.0;"/><line style="stroke:#181818;stroke-width:1.0;" x1="57.5" x2="207.5" y1="196.625" y2="196.625"/><text fill="#000000" font-family="sans-serif" font-size="13" lengthAdjust="spacing" textLength="40" x="64.5" y="191.7686">Sign In</text><polygon fill="#181818" points="201.5,222.9766,211.5,226.9766,201.5,230.9766,205.5,226.9766" style="stroke:#181818;stroke-width:1.0;"/><line style="stroke:#181818;stroke-width:1.0;" x1="57.5" x2="207.5" y1="226.9766" y2="226.9766"/><text fill="#000000" font-family="sans-serif" font-size="13" lengthAdjust="spacing" textLength="132" x="64.5" y="222.1201">View Customer Details</text><path d="M145,241.9766 L333,241.9766 L333,250.3281 L323,260.3281 L145,260.3281 L145,241.9766 " fill="#EEEEEE" style="stroke:#000000;stroke-width:1.5;"/><rect fill="none" height="79.0547" style="stroke:#000000;stroke-width:1.5;" width="335" x="145" y="241.9766"/><text fill="#000000" font-family="sans-serif" font-size="13" font-weight="bold" lengthAdjust="spacing" textLength="143" x="160" y="256.4717">View Customer Details</text><polygon fill="#181818" points="365.5,278.6797,375.5,282.6797,365.5,286.6797,369.5,282.6797" style="stroke:#181818;stroke-width:1.0;"/><line style="stroke:#181818;stroke-width:1.0;" x1="213.5" x2="371.5" y1="282.6797" y2="282.6797"/><text fill="#000000" font-family="sans-serif" font-size="13" lengthAdjust="spacing" textLength="81" x="220.5" y="277.8232">Get Customer</text><polygon fill="#181818" points="365.5,309.0313,375.5,313.0313,365.5,317.0313,369.5,313.0313" style="stroke:#181818;stroke-width:1.0;"/><line style="stroke:#181818;stroke-width:1.0;" x1="213.5" x2="371.5" y1="313.0313" y2="313.0313"/><text fill="#000000" font-family="sans-serif" font-size="13" lengthAdjust="spacing" textLength="140" x="220.5" y="308.1748">Get Customer Accounts</text><path d="M10,342.0313 L256,342.0313 L256,350.3828 L246,360.3828 L10,360.3828 L10,342.0313 " fill="#EEEEEE" style="stroke:#000000;stroke-width:1.5;"/><rect fill="none" height="141.7578" style="stroke:#000000;stroke-width:1.5;" width="593" x="10" y="342.0313"/><text fill="#000000" font-family="sans-serif" font-size="13" font-weight="bold" lengthAdjust="spacing" textLength="201" x="25" y="356.5264">Customer - Create New Account</text><polygon fill="#181818" points="201.5,378.7344,211.5,382.7344,201.5,386.7344,205.5,382.7344" style="stroke:#181818;stroke-width:1.0;"/><line style="stroke:#181818;stroke-width:1.0;" x1="57.5" x2="207.5" y1="382.7344" y2="382.7344"/><text fill="#000000" font-family="sans-serif" font-size="13" lengthAdjust="spacing" textLength="90" x="64.5" y="377.8779">Create Account</text><path d="M145,397.7344 L287,397.7344 L287,406.0859 L277,416.0859 L145,416.0859 L145,397.7344 " fill="#EEEEEE" style="stroke:#000000;stroke-width:1.5;"/><rect fill="none" height="79.0547" style="stroke:#000000;stroke-width:1.5;" width="448" x="145" y="397.7344"/><text fill="#000000" font-family="sans-serif" font-size="13" font-weight="bold" lengthAdjust="spacing" textLength="97" x="160" y="412.2295">Create Account</text><polygon fill="#181818" points="365.5,434.4375,375.5,438.4375,365.5,442.4375,369.5,438.4375" style="stroke:#181818;stroke-width:1.0;"/><line style="stroke:#181818;stroke-width:1.0;" x1="213.5" x2="371.5" y1="438.4375" y2="438.4375"/><text fill="#000000" font-family="sans-serif" font-size="13" lengthAdjust="spacing" textLength="90" x="220.5" y="433.5811">Create Account</text><polygon fill="#181818" points="519.5,464.7891,529.5,468.7891,519.5,472.7891,523.5,468.7891" style="stroke:#181818;stroke-width:1.0;"/><line style="stroke:#181818;stroke-width:1.0;" x1="213.5" x2="525.5" y1="468.7891" y2="468.7891"/><text fill="#000000" font-family="sans-serif" font-size="13" lengthAdjust="spacing" textLength="269" x="220.5" y="463.9326">Send New Account Created Notification E-Mail</text><path d="M10,497.7891 L438,497.7891 L438,506.1406 L428,516.1406 L10,516.1406 L10,497.7891 " fill="#EEEEEE" style="stroke:#000000;stroke-width:1.5;"/><rect fill="none" height="48.7031" style="stroke:#000000;stroke-width:1.5;" width="583" x="10" y="497.7891"/><text fill="#000000" font-family="sans-serif" font-size="13" font-weight="bold" lengthAdjust="spacing" textLength="383" x="25" y="512.2842">Customer - Receive New Account Created Notification E-Mail</text><polygon fill="#181818" points="519.5,534.4922,529.5,538.4922,519.5,542.4922,523.5,538.4922" style="stroke:#181818;stroke-width:1.0;"/><line style="stroke:#181818;stroke-width:1.0;" x1="57.5" x2="525.5" y1="538.4922" y2="538.4922"/><text fill="#000000" font-family="sans-serif" font-size="13" lengthAdjust="spacing" textLength="284" x="64.5" y="533.6357">Receive New Account Created Notification E-Mail</text><!--SRC=[lLJ1JW913BtlLpJSuGCyc00I954aRFG-6SgcSUdWJ1Vqx-soiyWAA1ZmslQzlkbhHqXoX1vbFSElazn26_eUZI2CSGrTQrt1ei4KtmfaYsNUiU2xG8uhp9DaQRoGfQNHkbQ_2E8Mw5jWmWvhfsl5-T2fqqtGIFayeq1PJPnz1wTkBclZCVq8WelGgUjZUPFiqH3FlLbWpGOLx3VIBIx2gdYJUz3Mgln4ma5P6rcIpBjY2VNpTOX31-BWYNFYBwNFquVa-D2WVNl6LE06ncP5cLgP8C_s5QIKCOmO3C_WXTJiUqt0n6HuIGsnooKfDsAtw3iKdNE8xpkSEuF-Pp67bqGr3NLxjylzl-tg8mqRcmzQlN_Hb_GZijVCiNipUFsHNAlXpXcNwwppRVoCLLkDEQ4vMIFa6Af_uhWVKxH8ApoPwCzcDSMVsxRKddm2]--></g></svg>