<?xml version="1.0" encoding="us-ascii" standalone="no"?><svg xmlns="http://www.w3.org/2000/svg" xmlns:xlink="http://www.w3.org/1999/xlink" contentStyleType="text/css" height="448px" preserveAspectRatio="none" style="width:443px;height:448px;background:#FFFFFF;" version="1.1" viewBox="0 0 443 448" width="443px" zoomAndPan="magnify"><defs/><g><text fill="#000000" font-family="sans-serif" font-size="14" font-weight="bold" lengthAdjust="spacing" textLength="415" x="10" y="24.5332">BigBankPlc - Create New Account - C4 Static - Context level</text><!--entity BigBankPlc.Actors.Customer--><g id="elem_BigBankPlc.Actors.Customer"><ellipse cx="285.5" cy="67.1094" fill="#08427B" rx="16" ry="16" style="stroke:#073B6F;stroke-width:0.5;"/><path d="M285.5,87.1094 C289.5,87.1094 292.5,87.1094 296.5,83.1094 C304.5,83.1094 312.5,91.1094 312.5,99.1094 L312.5,103.1094 C312.5,107.1094 308.5,111.1094 304.5,111.1094 L266.5,111.1094 C262.5,111.1094 258.5,107.1094 258.5,103.1094 L258.5,99.1094 C258.5,91.1094 266.5,83.1094 274.5,83.1094 C278.5,87.1094 281.5,87.1094 285.5,87.1094 " fill="#08427B" style="stroke:#073B6F;stroke-width:0.5;"/><text fill="#08427B" font-family="sans-serif" font-size="16" font-weight="bold" lengthAdjust="spacing" textLength="75" x="248" y="128.2188">Customer</text></g><!--entity BigBankPlc.SoftwareSystems.InternetBanking--><g id="elem_BigBankPlc.SoftwareSystems.InternetBanking"><rect fill="#1168BD" height="40.125" rx="2.5" ry="2.5" style="stroke:#3C7FC0;stroke-width:0.5;" width="146" x="131.5" y="184.6094"/><text fill="#FFFFFF" font-family="sans-serif" font-size="16" font-weight="bold" lengthAdjust="spacing" textLength="58" x="141.5" y="211.2188">Internet</text><text fill="#FFFFFF" font-family="sans-serif" font-size="16" font-weight="bold" lengthAdjust="spacing" textLength="4" x="199.5" y="211.2188">&#160;</text><text fill="#FFFFFF" font-family="sans-serif" font-size="16" font-weight="bold" lengthAdjust="spacing" textLength="64" x="203.5" y="211.2188">Banking</text></g><!--entity BigBankPlc.SoftwareSystems.MainframeBankingSystem--><g id="elem_BigBankPlc.SoftwareSystems.MainframeBankingSystem"><rect fill="#999999" height="60.25" rx="2.5" ry="2.5" style="stroke:#8A8A8A;stroke-width:0.5;" width="167" x="65" y="277.6094"/><text fill="#FFFFFF" font-family="sans-serif" font-size="16" font-weight="bold" lengthAdjust="spacing" textLength="79" x="75" y="304.2188">Mainframe</text><text fill="#FFFFFF" font-family="sans-serif" font-size="16" font-weight="bold" lengthAdjust="spacing" textLength="4" x="154" y="304.2188">&#160;</text><text fill="#FFFFFF" font-family="sans-serif" font-size="16" font-weight="bold" lengthAdjust="spacing" textLength="64" x="158" y="304.2188">Banking</text><text fill="#FFFFFF" font-family="sans-serif" font-size="16" font-weight="bold" lengthAdjust="spacing" textLength="57" x="120" y="324.3438">System</text></g><!--entity BigBankPlc.SoftwareSystems.EMailSystem--><g id="elem_BigBankPlc.SoftwareSystems.EMailSystem"><rect fill="#999999" height="40.125" rx="2.5" ry="2.5" style="stroke:#8A8A8A;stroke-width:0.5;" width="127" x="250" y="287.6094"/><text fill="#FFFFFF" font-family="sans-serif" font-size="16" font-weight="bold" lengthAdjust="spacing" textLength="46" x="260" y="314.2188">E-Mail</text><text fill="#FFFFFF" font-family="sans-serif" font-size="16" font-weight="bold" lengthAdjust="spacing" textLength="4" x="306" y="314.2188">&#160;</text><text fill="#FFFFFF" font-family="sans-serif" font-size="16" font-weight="bold" lengthAdjust="spacing" textLength="57" x="310" y="314.2188">System</text></g><polygon fill="none" points="218.4374,184.424,225.5664,179.7148,220.7121,176.1884,218.4374,184.424" style="stroke:#666666;stroke-width:1.0;"/><path d="M256.7144,131.7341 C243.7093,149.636 233.643,163.4928 223.1393,177.9516 " fill="none" style="stroke:#666666;stroke-width:1.0;"/><text fill="#666666" font-family="sans-serif" font-size="12" font-weight="bold" lengthAdjust="spacing" textLength="29" x="244.5" y="163.0664">Uses</text><polygon fill="none" points="164.2585,277.5639,170.7234,271.9778,165.4562,269.1042,164.2585,277.5639" style="stroke:#666666;stroke-width:1.0;"/><path d="M193.5429,224.7806 C190.2916,230.5054 186.7355,236.8024 183.5,242.6094 C177.1512,254.0041 174.0767,259.567 168.0898,270.541 " fill="none" style="stroke:#666666;stroke-width:1.0;"/><text fill="#666666" font-family="sans-serif" font-size="12" font-weight="bold" lengthAdjust="spacing" textLength="29" x="184.5" y="256.0664">Uses</text><polygon fill="none" points="292.8187,287.4459,288.9896,279.808,284.9115,284.2091,292.8187,287.4459" style="stroke:#666666;stroke-width:1.0;"/><path d="M225.2586,224.8444 C244.6539,242.8162 267.5803,264.06 286.9506,282.0085 " fill="none" style="stroke:#666666;stroke-width:1.0;"/><text fill="#666666" font-family="sans-serif" font-size="12" font-weight="bold" lengthAdjust="spacing" textLength="29" x="263.5" y="256.0664">Uses</text><polygon fill="none" points="310.9991,287.4509,312.9384,279.1299,306.9889,279.9065,310.9991,287.4509" style="stroke:#666666;stroke-width:1.0;"/><path d="M290.6683,131.702 C296.7045,177.9438 305.4075,244.6147 309.9636,279.5182 " fill="none" style="stroke:#666666;stroke-width:1.0;"/><text fill="#666666" font-family="sans-serif" font-size="12" font-weight="bold" lengthAdjust="spacing" textLength="29" x="303.5" y="209.5664">Uses</text><rect fill="none" height="17.6094" style="stroke:none;stroke-width:1.0;" width="136" x="223" y="350.6094"/><text fill="#000000" font-family="sans-serif" font-size="14" font-weight="bold" lengthAdjust="spacing" textLength="53" x="223" y="365.1426">Legend</text><text fill="#FFFFFF" font-family="sans-serif" font-size="14" lengthAdjust="spacing" textLength="4" x="276" y="365.1426">&#160;</text><rect fill="#08427B" height="17.6094" style="stroke:none;stroke-width:1.0;" width="136" x="223" y="368.2188"/><text fill="#073B6F" font-family="sans-serif" font-size="14" lengthAdjust="spacing" textLength="14" x="227" y="382.752">&#9647;</text><text fill="#FFFFFF" font-family="sans-serif" font-size="14" lengthAdjust="spacing" textLength="4" x="241" y="382.752">&#160;</text><text fill="#FFFFFF" font-family="sans-serif" font-size="14" lengthAdjust="spacing" textLength="44" x="249" y="382.752">person</text><text fill="#FFFFFF" font-family="sans-serif" font-size="14" lengthAdjust="spacing" textLength="4" x="297" y="382.752">&#160;</text><rect fill="#1168BD" height="17.6094" style="stroke:none;stroke-width:1.0;" width="136" x="223" y="385.8281"/><text fill="#3C7FC0" font-family="sans-serif" font-size="14" lengthAdjust="spacing" textLength="14" x="227" y="400.3613">&#9647;</text><text fill="#FFFFFF" font-family="sans-serif" font-size="14" lengthAdjust="spacing" textLength="4" x="241" y="400.3613">&#160;</text><text fill="#FFFFFF" font-family="sans-serif" font-size="14" lengthAdjust="spacing" textLength="44" x="249" y="400.3613">system</text><text fill="#FFFFFF" font-family="sans-serif" font-size="14" lengthAdjust="spacing" textLength="4" x="297" y="400.3613">&#160;</text><rect fill="#999999" height="17.6094" style="stroke:none;stroke-width:1.0;" width="136" x="223" y="403.4375"/><text fill="#8A8A8A" font-family="sans-serif" font-size="14" lengthAdjust="spacing" textLength="14" x="227" y="417.9707">&#9647;</text><text fill="#FFFFFF" font-family="sans-serif" font-size="14" lengthAdjust="spacing" textLength="4" x="241" y="417.9707">&#160;</text><text fill="#FFFFFF" font-family="sans-serif" font-size="14" lengthAdjust="spacing" textLength="102" x="249" y="417.9707">external_system</text><text fill="#FFFFFF" font-family="sans-serif" font-size="14" lengthAdjust="spacing" textLength="4" x="355" y="417.9707">&#160;</text><line style="stroke:none;stroke-width:1.0;" x1="223" x2="359" y1="350.6094" y2="350.6094"/><line style="stroke:none;stroke-width:1.0;" x1="223" x2="359" y1="368.2188" y2="368.2188"/><line style="stroke:none;stroke-width:1.0;" x1="223" x2="359" y1="385.8281" y2="385.8281"/><line style="stroke:none;stroke-width:1.0;" x1="223" x2="359" y1="403.4375" y2="403.4375"/><line style="stroke:none;stroke-width:1.0;" x1="223" x2="359" y1="421.0469" y2="421.0469"/><line style="stroke:none;stroke-width:1.0;" x1="223" x2="223" y1="350.6094" y2="421.0469"/><line style="stroke:none;stroke-width:1.0;" x1="359" x2="359" y1="350.6094" y2="421.0469"/><!--SRC=[hPD1Jwmm58Nt_8hASp6JAAjPcRX0nFTCV0CPCCR4XDHomSRIahQ8_7jRcHd0J9mP8s71FVVsE_GKJcg9omeZXZlHQAGgq9XZvuHomfeSaESzhM-oK4_18Wi4r_2klRgfcEFuUHuog83h59SpbooewSg2YVQ2qG98HnXSS6ZTCtJwN0Q22NbPIW1kwiAGUkLFyNdP6I5paDCvzO9pqL9UNhetc2bmvuVPaXVCIyZ7ra9QwG3lxU1FpILKucrgBY4_mBcVsc5hVLV0zkTiZsUQ8ACSHifyFsgKtO3RXZBmUka0u2YF0TZlTQ2Pskmp-HSzP76uIg9b5aUhTENVfhEvS-S_HlTfbaPnTXqzB8tYg5VAQonnXIn3TpMWMh3E5ewZgMQ0hcXvXVbhp0WwHu44h04jeKK-8QBXseeBb6YiwUT0_t4Z1czWlkuOf19yDZ0ydsWXbHSqIeiAv1boDuzcPwuvfQHJ6ghnaaGKkiKI-exoRcqwvcrjtnomMRPHq5gQeBBmNN-7-uyfBqm4i5xSwuQmRMomg6yTHGyDXMsHuRajfnp7dFkt2HqLnRq2PQ1Vc7lN_IIVtxUQXhMRVqmyEtdh_-Ck_1ikhsVp3m00]--></g></svg>