<?xml version="1.0" encoding="us-ascii" standalone="no"?><svg xmlns="http://www.w3.org/2000/svg" xmlns:xlink="http://www.w3.org/1999/xlink" contentStyleType="text/css" height="1101px" preserveAspectRatio="none" style="width:646px;height:1101px;background:#FFFFFF;" version="1.1" viewBox="0 0 646 1101" width="646px" zoomAndPan="magnify"><defs/><g><text fill="#000000" font-family="sans-serif" font-size="14" font-weight="bold" lengthAdjust="spacing" textLength="453" x="98" y="29.5332">Big Bank Plc - Complete (End-To-End) - Sequence - Context level</text><rect fill="none" height="500.6797" style="stroke:#000000;stroke-width:1.5;" width="630" x="10" y="93.2188"/><rect fill="none" height="111.7578" style="stroke:#000000;stroke-width:1.5;" width="346" x="171" y="209.625"/><rect fill="none" height="65.0547" style="stroke:#000000;stroke-width:1.5;" width="346" x="171" y="365.7344"/><rect fill="none" height="111.7578" style="stroke:#000000;stroke-width:1.5;" width="459" x="171" y="475.1406"/><rect fill="none" height="314.2188" style="stroke:#000000;stroke-width:1.5;" width="517" x="10" y="607.8984"/><rect fill="none" height="111.7578" style="stroke:#000000;stroke-width:1.5;" width="346" x="171" y="693.9531"/><rect fill="none" height="65.0547" style="stroke:#000000;stroke-width:1.5;" width="346" x="171" y="850.0625"/><rect fill="none" height="111.7578" style="stroke:#000000;stroke-width:1.5;" width="620" x="10" y="936.1172"/><line style="stroke:#181818;stroke-width:0.5;stroke-dasharray:5.0,5.0;" x1="57" x2="57" y1="76.2188" y2="1064.875"/><line style="stroke:#181818;stroke-width:0.5;stroke-dasharray:5.0,5.0;" x1="239" x2="239" y1="76.2188" y2="1064.875"/><line style="stroke:#181818;stroke-width:0.5;stroke-dasharray:5.0,5.0;" x1="414" x2="414" y1="76.2188" y2="1064.875"/><line style="stroke:#181818;stroke-width:0.5;stroke-dasharray:5.0,5.0;" x1="568" x2="568" y1="76.2188" y2="1064.875"/><rect fill="#E2E2F0" height="31.6094" rx="2.5" ry="2.5" style="stroke:#181818;stroke-width:0.5;" width="75" x="20" y="43.6094"/><text fill="#000000" font-family="sans-serif" font-size="14" lengthAdjust="spacing" textLength="61" x="27" y="65.1426">Customer</text><rect fill="#E2E2F0" height="31.6094" rx="2.5" ry="2.5" style="stroke:#181818;stroke-width:0.5;" width="75" x="20" y="1063.875"/><text fill="#000000" font-family="sans-serif" font-size="14" lengthAdjust="spacing" textLength="61" x="27" y="1085.4082">Customer</text><rect fill="#E2E2F0" height="31.6094" rx="2.5" ry="2.5" style="stroke:#181818;stroke-width:0.5;" width="117" x="181" y="43.6094"/><text fill="#000000" font-family="sans-serif" font-size="14" lengthAdjust="spacing" textLength="103" x="188" y="65.1426">Internet Banking</text><rect fill="#E2E2F0" height="31.6094" rx="2.5" ry="2.5" style="stroke:#181818;stroke-width:0.5;" width="117" x="181" y="1063.875"/><text fill="#000000" font-family="sans-serif" font-size="14" lengthAdjust="spacing" textLength="103" x="188" y="1085.4082">Internet Banking</text><rect fill="#E2E2F0" height="31.6094" rx="2.5" ry="2.5" style="stroke:#181818;stroke-width:0.5;" width="185" x="322" y="43.6094"/><text fill="#000000" font-family="sans-serif" font-size="14" lengthAdjust="spacing" textLength="171" x="329" y="65.1426">Mainframe Banking System</text><rect fill="#E2E2F0" height="31.6094" rx="2.5" ry="2.5" style="stroke:#181818;stroke-width:0.5;" width="185" x="322" y="1063.875"/><text fill="#000000" font-family="sans-serif" font-size="14" lengthAdjust="spacing" textLength="171" x="329" y="1085.4082">Mainframe Banking System</text><rect fill="#E2E2F0" height="31.6094" rx="2.5" ry="2.5" style="stroke:#181818;stroke-width:0.5;" width="103" x="517" y="43.6094"/><text fill="#000000" font-family="sans-serif" font-size="14" lengthAdjust="spacing" textLength="89" x="524" y="65.1426">E-Mail System</text><rect fill="#E2E2F0" height="31.6094" rx="2.5" ry="2.5" style="stroke:#181818;stroke-width:0.5;" width="103" x="517" y="1063.875"/><text fill="#000000" font-family="sans-serif" font-size="14" lengthAdjust="spacing" textLength="89" x="524" y="1085.4082">E-Mail System</text><path d="M10,93.2188 L264,93.2188 L264,101.5703 L254,111.5703 L10,111.5703 L10,93.2188 " fill="#EEEEEE" style="stroke:#000000;stroke-width:1.5;"/><rect fill="none" height="500.6797" style="stroke:#000000;stroke-width:1.5;" width="630" x="10" y="93.2188"/><text fill="#000000" font-family="sans-serif" font-size="13" font-weight="bold" lengthAdjust="spacing" textLength="209" x="25" y="107.7139">Customer - Banking via Web App</text><polygon fill="#181818" points="227.5,129.9219,237.5,133.9219,227.5,137.9219,231.5,133.9219" style="stroke:#181818;stroke-width:1.0;"/><line style="stroke:#181818;stroke-width:1.0;" x1="57.5" x2="233.5" y1="133.9219" y2="133.9219"/><text fill="#000000" font-family="sans-serif" font-size="13" lengthAdjust="spacing" textLength="49" x="64.5" y="129.0654">Navigate</text><polygon fill="#181818" points="227.5,160.2734,237.5,164.2734,227.5,168.2734,231.5,164.2734" style="stroke:#181818;stroke-width:1.0;"/><line style="stroke:#181818;stroke-width:1.0;" x1="57.5" x2="233.5" y1="164.2734" y2="164.2734"/><text fill="#000000" font-family="sans-serif" font-size="13" lengthAdjust="spacing" textLength="40" x="64.5" y="159.417">Sign In</text><polygon fill="#181818" points="227.5,190.625,237.5,194.625,227.5,198.625,231.5,194.625" style="stroke:#181818;stroke-width:1.0;"/><line style="stroke:#181818;stroke-width:1.0;" x1="57.5" x2="233.5" y1="194.625" y2="194.625"/><text fill="#000000" font-family="sans-serif" font-size="13" lengthAdjust="spacing" textLength="132" x="64.5" y="189.7686">View Customer Details</text><path d="M171,209.625 L359,209.625 L359,217.9766 L349,227.9766 L171,227.9766 L171,209.625 " fill="#EEEEEE" style="stroke:#000000;stroke-width:1.5;"/><rect fill="none" height="111.7578" style="stroke:#000000;stroke-width:1.5;" width="346" x="171" y="209.625"/><text fill="#000000" font-family="sans-serif" font-size="13" font-weight="bold" lengthAdjust="spacing" textLength="143" x="186" y="224.1201">View Customer Details</text><polygon fill="#181818" points="402.5,262.6797,412.5,266.6797,402.5,270.6797,406.5,266.6797" style="stroke:#181818;stroke-width:1.0;"/><line style="stroke:#181818;stroke-width:1.0;" x1="239.5" x2="408.5" y1="266.6797" y2="266.6797"/><text fill="#000000" font-family="sans-serif" font-size="13" lengthAdjust="spacing" textLength="81" x="246.5" y="245.4717">Get Customer</text><text fill="#000000" font-family="sans-serif" font-size="13" lengthAdjust="spacing" textLength="49" x="246.5" y="261.8232">[TCP/IP]</text><polygon fill="#181818" points="402.5,309.3828,412.5,313.3828,402.5,317.3828,406.5,313.3828" style="stroke:#181818;stroke-width:1.0;"/><line style="stroke:#181818;stroke-width:1.0;" x1="239.5" x2="408.5" y1="313.3828" y2="313.3828"/><text fill="#000000" font-family="sans-serif" font-size="13" lengthAdjust="spacing" textLength="140" x="246.5" y="292.1748">Get Customer Accounts</text><text fill="#000000" font-family="sans-serif" font-size="13" lengthAdjust="spacing" textLength="49" x="246.5" y="308.5264">[TCP/IP]</text><polygon fill="#181818" points="227.5,346.7344,237.5,350.7344,227.5,354.7344,231.5,350.7344" style="stroke:#181818;stroke-width:1.0;"/><line style="stroke:#181818;stroke-width:1.0;" x1="57.5" x2="233.5" y1="350.7344" y2="350.7344"/><text fill="#000000" font-family="sans-serif" font-size="13" lengthAdjust="spacing" textLength="158" x="64.5" y="345.8779">View Account Transactions</text><path d="M171,365.7344 L387,365.7344 L387,374.0859 L377,384.0859 L171,384.0859 L171,365.7344 " fill="#EEEEEE" style="stroke:#000000;stroke-width:1.5;"/><rect fill="none" height="65.0547" style="stroke:#000000;stroke-width:1.5;" width="346" x="171" y="365.7344"/><text fill="#000000" font-family="sans-serif" font-size="13" font-weight="bold" lengthAdjust="spacing" textLength="171" x="186" y="380.2295">View Account Transactions</text><polygon fill="#181818" points="402.5,418.7891,412.5,422.7891,402.5,426.7891,406.5,422.7891" style="stroke:#181818;stroke-width:1.0;"/><line style="stroke:#181818;stroke-width:1.0;" x1="239.5" x2="408.5" y1="422.7891" y2="422.7891"/><text fill="#000000" font-family="sans-serif" font-size="13" lengthAdjust="spacing" textLength="151" x="246.5" y="401.5811">Get Account Transactions</text><text fill="#000000" font-family="sans-serif" font-size="13" lengthAdjust="spacing" textLength="49" x="246.5" y="417.9326">[TCP/IP]</text><polygon fill="#181818" points="227.5,456.1406,237.5,460.1406,227.5,464.1406,231.5,460.1406" style="stroke:#181818;stroke-width:1.0;"/><line style="stroke:#181818;stroke-width:1.0;" x1="57.5" x2="233.5" y1="460.1406" y2="460.1406"/><text fill="#000000" font-family="sans-serif" font-size="13" lengthAdjust="spacing" textLength="90" x="64.5" y="455.2842">Create Account</text><path d="M171,475.1406 L313,475.1406 L313,483.4922 L303,493.4922 L171,493.4922 L171,475.1406 " fill="#EEEEEE" style="stroke:#000000;stroke-width:1.5;"/><rect fill="none" height="111.7578" style="stroke:#000000;stroke-width:1.5;" width="459" x="171" y="475.1406"/><text fill="#000000" font-family="sans-serif" font-size="13" font-weight="bold" lengthAdjust="spacing" textLength="97" x="186" y="489.6357">Create Account</text><polygon fill="#181818" points="402.5,528.1953,412.5,532.1953,402.5,536.1953,406.5,532.1953" style="stroke:#181818;stroke-width:1.0;"/><line style="stroke:#181818;stroke-width:1.0;" x1="239.5" x2="408.5" y1="532.1953" y2="532.1953"/><text fill="#000000" font-family="sans-serif" font-size="13" lengthAdjust="spacing" textLength="90" x="246.5" y="510.9873">Create Account</text><text fill="#000000" font-family="sans-serif" font-size="13" lengthAdjust="spacing" textLength="49" x="246.5" y="527.3389">[TCP/IP]</text><polygon fill="#181818" points="556.5,574.8984,566.5,578.8984,556.5,582.8984,560.5,578.8984" style="stroke:#181818;stroke-width:1.0;"/><line style="stroke:#181818;stroke-width:1.0;" x1="239.5" x2="562.5" y1="578.8984" y2="578.8984"/><text fill="#000000" font-family="sans-serif" font-size="13" lengthAdjust="spacing" textLength="269" x="246.5" y="557.6904">Send New Account Created Notification E-Mail</text><text fill="#000000" font-family="sans-serif" font-size="13" lengthAdjust="spacing" textLength="44" x="246.5" y="574.042">[SMTP]</text><path d="M10,607.8984 L278,607.8984 L278,616.25 L268,626.25 L10,626.25 L10,607.8984 " fill="#EEEEEE" style="stroke:#000000;stroke-width:1.5;"/><rect fill="none" height="314.2188" style="stroke:#000000;stroke-width:1.5;" width="517" x="10" y="607.8984"/><text fill="#000000" font-family="sans-serif" font-size="13" font-weight="bold" lengthAdjust="spacing" textLength="223" x="25" y="622.3936">Customer - Banking via Mobile App</text><polygon fill="#181818" points="227.5,644.6016,237.5,648.6016,227.5,652.6016,231.5,648.6016" style="stroke:#181818;stroke-width:1.0;"/><line style="stroke:#181818;stroke-width:1.0;" x1="57.5" x2="233.5" y1="648.6016" y2="648.6016"/><text fill="#000000" font-family="sans-serif" font-size="13" lengthAdjust="spacing" textLength="40" x="64.5" y="643.7451">Sign In</text><polygon fill="#181818" points="227.5,674.9531,237.5,678.9531,227.5,682.9531,231.5,678.9531" style="stroke:#181818;stroke-width:1.0;"/><line style="stroke:#181818;stroke-width:1.0;" x1="57.5" x2="233.5" y1="678.9531" y2="678.9531"/><text fill="#000000" font-family="sans-serif" font-size="13" lengthAdjust="spacing" textLength="132" x="64.5" y="674.0967">View Customer Details</text><path d="M171,693.9531 L359,693.9531 L359,702.3047 L349,712.3047 L171,712.3047 L171,693.9531 " fill="#EEEEEE" style="stroke:#000000;stroke-width:1.5;"/><rect fill="none" height="111.7578" style="stroke:#000000;stroke-width:1.5;" width="346" x="171" y="693.9531"/><text fill="#000000" font-family="sans-serif" font-size="13" font-weight="bold" lengthAdjust="spacing" textLength="143" x="186" y="708.4482">View Customer Details</text><polygon fill="#181818" points="402.5,747.0078,412.5,751.0078,402.5,755.0078,406.5,751.0078" style="stroke:#181818;stroke-width:1.0;"/><line style="stroke:#181818;stroke-width:1.0;" x1="239.5" x2="408.5" y1="751.0078" y2="751.0078"/><text fill="#000000" font-family="sans-serif" font-size="13" lengthAdjust="spacing" textLength="81" x="246.5" y="729.7998">Get Customer</text><text fill="#000000" font-family="sans-serif" font-size="13" lengthAdjust="spacing" textLength="49" x="246.5" y="746.1514">[TCP/IP]</text><polygon fill="#181818" points="402.5,793.7109,412.5,797.7109,402.5,801.7109,406.5,797.7109" style="stroke:#181818;stroke-width:1.0;"/><line style="stroke:#181818;stroke-width:1.0;" x1="239.5" x2="408.5" y1="797.7109" y2="797.7109"/><text fill="#000000" font-family="sans-serif" font-size="13" lengthAdjust="spacing" textLength="140" x="246.5" y="776.5029">Get Customer Accounts</text><text fill="#000000" font-family="sans-serif" font-size="13" lengthAdjust="spacing" textLength="49" x="246.5" y="792.8545">[TCP/IP]</text><polygon fill="#181818" points="227.5,831.0625,237.5,835.0625,227.5,839.0625,231.5,835.0625" style="stroke:#181818;stroke-width:1.0;"/><line style="stroke:#181818;stroke-width:1.0;" x1="57.5" x2="233.5" y1="835.0625" y2="835.0625"/><text fill="#000000" font-family="sans-serif" font-size="13" lengthAdjust="spacing" textLength="158" x="64.5" y="830.2061">View Account Transactions</text><path d="M171,850.0625 L387,850.0625 L387,858.4141 L377,868.4141 L171,868.4141 L171,850.0625 " fill="#EEEEEE" style="stroke:#000000;stroke-width:1.5;"/><rect fill="none" height="65.0547" style="stroke:#000000;stroke-width:1.5;" width="346" x="171" y="850.0625"/><text fill="#000000" font-family="sans-serif" font-size="13" font-weight="bold" lengthAdjust="spacing" textLength="171" x="186" y="864.5576">View Account Transactions</text><polygon fill="#181818" points="402.5,903.1172,412.5,907.1172,402.5,911.1172,406.5,907.1172" style="stroke:#181818;stroke-width:1.0;"/><line style="stroke:#181818;stroke-width:1.0;" x1="239.5" x2="408.5" y1="907.1172" y2="907.1172"/><text fill="#000000" font-family="sans-serif" font-size="13" lengthAdjust="spacing" textLength="151" x="246.5" y="885.9092">Get Account Transactions</text><text fill="#000000" font-family="sans-serif" font-size="13" lengthAdjust="spacing" textLength="49" x="246.5" y="902.2607">[TCP/IP]</text><path d="M10,936.1172 L303,936.1172 L303,944.4688 L293,954.4688 L10,954.4688 L10,936.1172 " fill="#EEEEEE" style="stroke:#000000;stroke-width:1.5;"/><rect fill="none" height="111.7578" style="stroke:#000000;stroke-width:1.5;" width="620" x="10" y="936.1172"/><text fill="#000000" font-family="sans-serif" font-size="13" font-weight="bold" lengthAdjust="spacing" textLength="248" x="25" y="950.6123">Customer - Receive E-Mail Notifications</text><polygon fill="#181818" points="556.5,989.1719,566.5,993.1719,556.5,997.1719,560.5,993.1719" style="stroke:#181818;stroke-width:1.0;"/><line style="stroke:#181818;stroke-width:1.0;" x1="57.5" x2="562.5" y1="993.1719" y2="993.1719"/><text fill="#000000" font-family="sans-serif" font-size="13" lengthAdjust="spacing" textLength="270" x="64.5" y="971.9639">Receive Password Changed Notification E-Mail</text><text fill="#000000" font-family="sans-serif" font-size="13" lengthAdjust="spacing" textLength="43" x="64.5" y="988.3154">[POP3]</text><polygon fill="#181818" points="556.5,1035.875,566.5,1039.875,556.5,1043.875,560.5,1039.875" style="stroke:#181818;stroke-width:1.0;"/><line style="stroke:#181818;stroke-width:1.0;" x1="57.5" x2="562.5" y1="1039.875" y2="1039.875"/><text fill="#000000" font-family="sans-serif" font-size="13" lengthAdjust="spacing" textLength="284" x="64.5" y="1018.667">Receive New Account Created Notification E-Mail</text><text fill="#000000" font-family="sans-serif" font-size="13" lengthAdjust="spacing" textLength="43" x="64.5" y="1035.0186">[POP3]</text><!--SRC=[xLN1Ji904BttAoQSz50yUFDW0fKO3c1ZYHwKmx8CTMExMtS7qBztIxjAJK4mXNZWq3JPdNblzctVAmbA4BeYXYwJhn0c77m8L9ebI0XdFJdrHygthtEx7k7R72N7LOaaV2T8S869vsLCa-0YOvAW5SmDgHHr2vZ9eNDa2zpkS5BQjDrsjQblyRH4MiqXPFopEL8pMZADqOSXJ4tRrPVbLR014tAcMOeE3Ogstq2_-igsOhsAtVDjLR8ZO2-lBL6yMAjv1kxuLaGtt48mUCG9TBBCswmN-DTx209NC6GB4JF29Z4Z4KleooOX7mGklrMvGRAIcLAi-hqzuBSFKt_VTgPR-o4wscVvD0h2YtuuFZ8nT3XNSqbcRGAKqyQrBsbWf9aqZ9DGig9_xVvnfAYZFfmQWKPh5qVg_5fTFFovguI7-FhMKYctj5KHXcltN0nWrnI9cU0iLnsAsBFJH8DHgNp-RCsqWPe8-tTfEDPE4NIAeFyLGRL6k4UEOe6bSIfcCd_NhsfTnn4oOvPAJo5uOJBUQDtmBhmSDyszUt8KzBbOtYS0]--></g></svg>