<?xml version="1.0" encoding="us-ascii" standalone="no"?><svg xmlns="http://www.w3.org/2000/svg" xmlns:xlink="http://www.w3.org/1999/xlink" contentStyleType="text/css" height="2276px" preserveAspectRatio="none" style="width:1087px;height:2276px;background:#FFFFFF;" version="1.1" viewBox="0 0 1087 2276" width="1087px" zoomAndPan="magnify"><defs/><g><text fill="#000000" font-family="sans-serif" font-size="14" font-weight="bold" lengthAdjust="spacing" textLength="467" x="311.75" y="29.5332">Big Bank Plc - Complete (End-To-End) - Sequence - Container level</text><rect fill="#FFFFFF" height="2218.6953" style="stroke:#181818;stroke-width:0.5;" width="646.5" x="101" y="44.6094"/><text fill="#000000" font-family="sans-serif" font-size="13" font-weight="bold" lengthAdjust="spacing" textLength="105" x="371.75" y="58.1045">Internet Banking</text><rect fill="none" height="1135.8203" style="stroke:#000000;stroke-width:1.5;" width="1071.5" x="10" y="145.5703"/><rect fill="none" height="65.0547" style="stroke:#000000;stroke-width:1.5;" width="310" x="95" y="217.625"/><rect fill="none" height="144.1094" style="stroke:#000000;stroke-width:1.5;" width="448.5" x="221" y="343.3828"/><rect fill="none" height="65.0547" style="stroke:#000000;stroke-width:1.5;" width="235.5" x="424" y="415.4375"/><rect fill="none" height="269.8672" style="stroke:#000000;stroke-width:1.5;" width="737.5" x="221" y="548.1953"/><rect fill="none" height="65.0547" style="stroke:#000000;stroke-width:1.5;" width="524.5" x="424" y="620.25"/><rect fill="none" height="65.0547" style="stroke:#000000;stroke-width:1.5;" width="524.5" x="424" y="746.0078"/><rect fill="none" height="144.1094" style="stroke:#000000;stroke-width:1.5;" width="737.5" x="221" y="878.7656"/><rect fill="none" height="65.0547" style="stroke:#000000;stroke-width:1.5;" width="524.5" x="424" y="950.8203"/><rect fill="none" height="190.8125" style="stroke:#000000;stroke-width:1.5;" width="850.5" x="221" y="1083.5781"/><rect fill="none" height="111.7578" style="stroke:#000000;stroke-width:1.5;" width="637.5" x="424" y="1155.6328"/><rect fill="none" height="758.5469" style="stroke:#000000;stroke-width:1.5;" width="958.5" x="10" y="1295.3906"/><rect fill="none" height="144.1094" style="stroke:#000000;stroke-width:1.5;" width="339.5" x="414" y="1367.4453"/><rect fill="none" height="65.0547" style="stroke:#000000;stroke-width:1.5;" width="235.5" x="424" y="1439.5"/><rect fill="none" height="269.8672" style="stroke:#000000;stroke-width:1.5;" width="544.5" x="414" y="1572.2578"/><rect fill="none" height="65.0547" style="stroke:#000000;stroke-width:1.5;" width="524.5" x="424" y="1644.3125"/><rect fill="none" height="65.0547" style="stroke:#000000;stroke-width:1.5;" width="524.5" x="424" y="1770.0703"/><rect fill="none" height="144.1094" style="stroke:#000000;stroke-width:1.5;" width="544.5" x="414" y="1902.8281"/><rect fill="none" height="65.0547" style="stroke:#000000;stroke-width:1.5;" width="524.5" x="424" y="1974.8828"/><rect fill="none" height="111.7578" style="stroke:#000000;stroke-width:1.5;" width="1051.5" x="10" y="2067.9375"/><line style="stroke:#181818;stroke-width:0.5;stroke-dasharray:5.0,5.0;" x1="57" x2="57" y1="128.5703" y2="2196.6953"/><line style="stroke:#181818;stroke-width:0.5;stroke-dasharray:5.0,5.0;" x1="163" x2="163" y1="128.5703" y2="2196.6953"/><line style="stroke:#181818;stroke-width:0.5;stroke-dasharray:5.0,5.0;" x1="313" x2="313" y1="128.5703" y2="2196.6953"/><line style="stroke:#181818;stroke-width:0.5;stroke-dasharray:5.0,5.0;" x1="488" x2="488" y1="128.5703" y2="2196.6953"/><line style="stroke:#181818;stroke-width:0.5;stroke-dasharray:5.0,5.0;" x1="615.5" x2="615.5" y1="128.5703" y2="2196.6953"/><line style="stroke:#181818;stroke-width:0.5;stroke-dasharray:5.0,5.0;" x1="701.5" x2="701.5" y1="128.5703" y2="2196.6953"/><line style="stroke:#181818;stroke-width:0.5;stroke-dasharray:5.0,5.0;" x1="845.5" x2="845.5" y1="128.5703" y2="2196.6953"/><line style="stroke:#181818;stroke-width:0.5;stroke-dasharray:5.0,5.0;" x1="999.5" x2="999.5" y1="128.5703" y2="2196.6953"/><rect fill="#E2E2F0" height="31.6094" rx="2.5" ry="2.5" style="stroke:#181818;stroke-width:0.5;" width="75" x="20" y="95.9609"/><text fill="#000000" font-family="sans-serif" font-size="14" lengthAdjust="spacing" textLength="61" x="27" y="117.4941">Customer</text><rect fill="#E2E2F0" height="31.6094" rx="2.5" ry="2.5" style="stroke:#181818;stroke-width:0.5;" width="75" x="20" y="2195.6953"/><text fill="#000000" font-family="sans-serif" font-size="14" lengthAdjust="spacing" textLength="61" x="27" y="2217.2285">Customer</text><rect fill="#E2E2F0" height="31.6094" rx="2.5" ry="2.5" style="stroke:#181818;stroke-width:0.5;" width="116" x="105" y="95.9609"/><text fill="#000000" font-family="sans-serif" font-size="14" lengthAdjust="spacing" textLength="102" x="112" y="117.4941">Web Application</text><rect fill="#E2E2F0" height="31.6094" rx="2.5" ry="2.5" style="stroke:#181818;stroke-width:0.5;" width="116" x="105" y="2195.6953"/><text fill="#000000" font-family="sans-serif" font-size="14" lengthAdjust="spacing" textLength="102" x="112" y="2217.2285">Web Application</text><rect fill="#E2E2F0" height="31.6094" rx="2.5" ry="2.5" style="stroke:#181818;stroke-width:0.5;" width="164" x="231" y="95.9609"/><text fill="#000000" font-family="sans-serif" font-size="14" lengthAdjust="spacing" textLength="150" x="238" y="117.4941">Single-Page Application</text><rect fill="#E2E2F0" height="31.6094" rx="2.5" ry="2.5" style="stroke:#181818;stroke-width:0.5;" width="164" x="231" y="2195.6953"/><text fill="#000000" font-family="sans-serif" font-size="14" lengthAdjust="spacing" textLength="150" x="238" y="2217.2285">Single-Page Application</text><rect fill="#E2E2F0" height="31.6094" rx="2.5" ry="2.5" style="stroke:#181818;stroke-width:0.5;" width="108" x="434" y="95.9609"/><text fill="#000000" font-family="sans-serif" font-size="14" lengthAdjust="spacing" textLength="94" x="441" y="117.4941">API Application</text><rect fill="#E2E2F0" height="31.6094" rx="2.5" ry="2.5" style="stroke:#181818;stroke-width:0.5;" width="108" x="434" y="2195.6953"/><text fill="#000000" font-family="sans-serif" font-size="14" lengthAdjust="spacing" textLength="94" x="441" y="2217.2285">API Application</text><text fill="#000000" font-family="sans-serif" font-size="14" lengthAdjust="spacing" textLength="61" x="582.5" y="125.4941">Database</text><path d="M598,74.9609 C598,64.9609 616,64.9609 616,64.9609 C616,64.9609 634,64.9609 634,74.9609 L634,100.9609 C634,110.9609 616,110.9609 616,110.9609 C616,110.9609 598,110.9609 598,100.9609 L598,74.9609 " fill="#E2E2F0" style="stroke:#181818;stroke-width:1.5;"/><path d="M598,74.9609 C598,84.9609 616,84.9609 616,84.9609 C616,84.9609 634,84.9609 634,74.9609 " fill="none" style="stroke:#181818;stroke-width:1.5;"/><text fill="#000000" font-family="sans-serif" font-size="14" lengthAdjust="spacing" textLength="61" x="582.5" y="2210.2285">Database</text><path d="M598,2223.3047 C598,2213.3047 616,2213.3047 616,2213.3047 C616,2213.3047 634,2213.3047 634,2223.3047 L634,2249.3047 C634,2259.3047 616,2259.3047 616,2259.3047 C616,2259.3047 598,2259.3047 598,2249.3047 L598,2223.3047 " fill="#E2E2F0" style="stroke:#181818;stroke-width:1.5;"/><path d="M598,2223.3047 C598,2233.3047 616,2233.3047 616,2233.3047 C616,2233.3047 634,2233.3047 634,2223.3047 " fill="none" style="stroke:#181818;stroke-width:1.5;"/><rect fill="#E2E2F0" height="31.6094" rx="2.5" ry="2.5" style="stroke:#181818;stroke-width:0.5;" width="84" x="659.5" y="95.9609"/><text fill="#000000" font-family="sans-serif" font-size="14" lengthAdjust="spacing" textLength="70" x="666.5" y="117.4941">Mobile App</text><rect fill="#E2E2F0" height="31.6094" rx="2.5" ry="2.5" style="stroke:#181818;stroke-width:0.5;" width="84" x="659.5" y="2195.6953"/><text fill="#000000" font-family="sans-serif" font-size="14" lengthAdjust="spacing" textLength="70" x="666.5" y="2217.2285">Mobile App</text><rect fill="#E2E2F0" height="31.6094" rx="2.5" ry="2.5" style="stroke:#181818;stroke-width:0.5;" width="185" x="753.5" y="95.9609"/><text fill="#000000" font-family="sans-serif" font-size="14" lengthAdjust="spacing" textLength="171" x="760.5" y="117.4941">Mainframe Banking System</text><rect fill="#E2E2F0" height="31.6094" rx="2.5" ry="2.5" style="stroke:#181818;stroke-width:0.5;" width="185" x="753.5" y="2195.6953"/><text fill="#000000" font-family="sans-serif" font-size="14" lengthAdjust="spacing" textLength="171" x="760.5" y="2217.2285">Mainframe Banking System</text><rect fill="#E2E2F0" height="31.6094" rx="2.5" ry="2.5" style="stroke:#181818;stroke-width:0.5;" width="103" x="948.5" y="95.9609"/><text fill="#000000" font-family="sans-serif" font-size="14" lengthAdjust="spacing" textLength="89" x="955.5" y="117.4941">E-Mail System</text><rect fill="#E2E2F0" height="31.6094" rx="2.5" ry="2.5" style="stroke:#181818;stroke-width:0.5;" width="103" x="948.5" y="2195.6953"/><text fill="#000000" font-family="sans-serif" font-size="14" lengthAdjust="spacing" textLength="89" x="955.5" y="2217.2285">E-Mail System</text><path d="M10,145.5703 L264,145.5703 L264,153.9219 L254,163.9219 L10,163.9219 L10,145.5703 " fill="#EEEEEE" style="stroke:#000000;stroke-width:1.5;"/><rect fill="none" height="1135.8203" style="stroke:#000000;stroke-width:1.5;" width="1071.5" x="10" y="145.5703"/><text fill="#000000" font-family="sans-serif" font-size="13" font-weight="bold" lengthAdjust="spacing" textLength="209" x="25" y="160.0654">Customer - Banking via Web App</text><polygon fill="#181818" points="151,198.625,161,202.625,151,206.625,155,202.625" style="stroke:#181818;stroke-width:1.0;"/><line style="stroke:#181818;stroke-width:1.0;" x1="57.5" x2="157" y1="202.625" y2="202.625"/><text fill="#000000" font-family="sans-serif" font-size="13" lengthAdjust="spacing" textLength="49" x="64.5" y="181.417">Navigate</text><text fill="#000000" font-family="sans-serif" font-size="13" lengthAdjust="spacing" textLength="49" x="64.5" y="197.7686">[HTTPS]</text><path d="M95,217.625 L196,217.625 L196,225.9766 L186,235.9766 L95,235.9766 L95,217.625 " fill="#EEEEEE" style="stroke:#000000;stroke-width:1.5;"/><rect fill="none" height="65.0547" style="stroke:#000000;stroke-width:1.5;" width="310" x="95" y="217.625"/><text fill="#000000" font-family="sans-serif" font-size="13" font-weight="bold" lengthAdjust="spacing" textLength="56" x="110" y="232.1201">Navigate</text><polygon fill="#181818" points="301,270.6797,311,274.6797,301,278.6797,305,274.6797" style="stroke:#181818;stroke-width:1.0;"/><line style="stroke:#181818;stroke-width:1.0;" x1="163" x2="307" y1="274.6797" y2="274.6797"/><text fill="#000000" font-family="sans-serif" font-size="13" lengthAdjust="spacing" textLength="87" x="170" y="253.4717">Load And Start</text><text fill="#000000" font-family="sans-serif" font-size="13" lengthAdjust="spacing" textLength="49" x="170" y="269.8232">[HTTPS]</text><polygon fill="#181818" points="301,324.3828,311,328.3828,301,332.3828,305,328.3828" style="stroke:#181818;stroke-width:1.0;"/><line style="stroke:#181818;stroke-width:1.0;" x1="57.5" x2="307" y1="328.3828" y2="328.3828"/><text fill="#000000" font-family="sans-serif" font-size="13" lengthAdjust="spacing" textLength="40" x="64.5" y="307.1748">Sign In</text><text fill="#000000" font-family="sans-serif" font-size="13" lengthAdjust="spacing" textLength="49" x="64.5" y="323.5264">[HTTPS]</text><path d="M221,343.3828 L311,343.3828 L311,351.7344 L301,361.7344 L221,361.7344 L221,343.3828 " fill="#EEEEEE" style="stroke:#000000;stroke-width:1.5;"/><rect fill="none" height="144.1094" style="stroke:#000000;stroke-width:1.5;" width="448.5" x="221" y="343.3828"/><text fill="#000000" font-family="sans-serif" font-size="13" font-weight="bold" lengthAdjust="spacing" textLength="45" x="236" y="357.8779">Sign In</text><polygon fill="#181818" points="476,396.4375,486,400.4375,476,404.4375,480,400.4375" style="stroke:#181818;stroke-width:1.0;"/><line style="stroke:#181818;stroke-width:1.0;" x1="313" x2="482" y1="400.4375" y2="400.4375"/><text fill="#000000" font-family="sans-serif" font-size="13" lengthAdjust="spacing" textLength="40" x="320" y="379.2295">Sign In</text><text fill="#000000" font-family="sans-serif" font-size="13" lengthAdjust="spacing" textLength="49" x="320" y="395.5811">[HTTPS]</text><path d="M424,415.4375 L514,415.4375 L514,423.7891 L504,433.7891 L424,433.7891 L424,415.4375 " fill="#EEEEEE" style="stroke:#000000;stroke-width:1.5;"/><rect fill="none" height="65.0547" style="stroke:#000000;stroke-width:1.5;" width="235.5" x="424" y="415.4375"/><text fill="#000000" font-family="sans-serif" font-size="13" font-weight="bold" lengthAdjust="spacing" textLength="45" x="439" y="429.9326">Sign In</text><polygon fill="#181818" points="604,468.4922,614,472.4922,604,476.4922,608,472.4922" style="stroke:#181818;stroke-width:1.0;"/><line style="stroke:#181818;stroke-width:1.0;" x1="488" x2="610" y1="472.4922" y2="472.4922"/><text fill="#000000" font-family="sans-serif" font-size="13" lengthAdjust="spacing" textLength="104" x="495" y="451.2842">Authenticate User</text><text fill="#000000" font-family="sans-serif" font-size="13" lengthAdjust="spacing" textLength="83" x="495" y="467.6357">[TCP/IP, SQL]</text><polygon fill="#181818" points="301,529.1953,311,533.1953,301,537.1953,305,533.1953" style="stroke:#181818;stroke-width:1.0;"/><line style="stroke:#181818;stroke-width:1.0;" x1="57.5" x2="307" y1="533.1953" y2="533.1953"/><text fill="#000000" font-family="sans-serif" font-size="13" lengthAdjust="spacing" textLength="132" x="64.5" y="511.9873">View Customer Details</text><text fill="#000000" font-family="sans-serif" font-size="13" lengthAdjust="spacing" textLength="49" x="64.5" y="528.3389">[HTTPS]</text><path d="M221,548.1953 L409,548.1953 L409,556.5469 L399,566.5469 L221,566.5469 L221,548.1953 " fill="#EEEEEE" style="stroke:#000000;stroke-width:1.5;"/><rect fill="none" height="269.8672" style="stroke:#000000;stroke-width:1.5;" width="737.5" x="221" y="548.1953"/><text fill="#000000" font-family="sans-serif" font-size="13" font-weight="bold" lengthAdjust="spacing" textLength="143" x="236" y="562.6904">View Customer Details</text><polygon fill="#181818" points="476,601.25,486,605.25,476,609.25,480,605.25" style="stroke:#181818;stroke-width:1.0;"/><line style="stroke:#181818;stroke-width:1.0;" x1="313" x2="482" y1="605.25" y2="605.25"/><text fill="#000000" font-family="sans-serif" font-size="13" lengthAdjust="spacing" textLength="81" x="320" y="584.042">Get Customer</text><text fill="#000000" font-family="sans-serif" font-size="13" lengthAdjust="spacing" textLength="49" x="320" y="600.3936">[HTTPS]</text><path d="M424,620.25 L555,620.25 L555,628.6016 L545,638.6016 L424,638.6016 L424,620.25 " fill="#EEEEEE" style="stroke:#000000;stroke-width:1.5;"/><rect fill="none" height="65.0547" style="stroke:#000000;stroke-width:1.5;" width="524.5" x="424" y="620.25"/><text fill="#000000" font-family="sans-serif" font-size="13" font-weight="bold" lengthAdjust="spacing" textLength="86" x="439" y="634.7451">Get Customer</text><polygon fill="#181818" points="834,673.3047,844,677.3047,834,681.3047,838,677.3047" style="stroke:#181818;stroke-width:1.0;"/><line style="stroke:#181818;stroke-width:1.0;" x1="488" x2="840" y1="677.3047" y2="677.3047"/><text fill="#000000" font-family="sans-serif" font-size="13" lengthAdjust="spacing" textLength="81" x="495" y="656.0967">Get Customer</text><text fill="#000000" font-family="sans-serif" font-size="13" lengthAdjust="spacing" textLength="78" x="495" y="672.4482">[XML/HTTPS]</text><polygon fill="#181818" points="476,727.0078,486,731.0078,476,735.0078,480,731.0078" style="stroke:#181818;stroke-width:1.0;"/><line style="stroke:#181818;stroke-width:1.0;" x1="313" x2="482" y1="731.0078" y2="731.0078"/><text fill="#000000" font-family="sans-serif" font-size="13" lengthAdjust="spacing" textLength="140" x="320" y="709.7998">Get Customer Accounts</text><text fill="#000000" font-family="sans-serif" font-size="13" lengthAdjust="spacing" textLength="49" x="320" y="726.1514">[HTTPS]</text><path d="M424,746.0078 L616,746.0078 L616,754.3594 L606,764.3594 L424,764.3594 L424,746.0078 " fill="#EEEEEE" style="stroke:#000000;stroke-width:1.5;"/><rect fill="none" height="65.0547" style="stroke:#000000;stroke-width:1.5;" width="524.5" x="424" y="746.0078"/><text fill="#000000" font-family="sans-serif" font-size="13" font-weight="bold" lengthAdjust="spacing" textLength="147" x="439" y="760.5029">Get Customer Accounts</text><polygon fill="#181818" points="834,799.0625,844,803.0625,834,807.0625,838,803.0625" style="stroke:#181818;stroke-width:1.0;"/><line style="stroke:#181818;stroke-width:1.0;" x1="488" x2="840" y1="803.0625" y2="803.0625"/><text fill="#000000" font-family="sans-serif" font-size="13" lengthAdjust="spacing" textLength="140" x="495" y="781.8545">Get Customer Accounts</text><text fill="#000000" font-family="sans-serif" font-size="13" lengthAdjust="spacing" textLength="78" x="495" y="798.2061">[XML/HTTPS]</text><polygon fill="#181818" points="301,859.7656,311,863.7656,301,867.7656,305,863.7656" style="stroke:#181818;stroke-width:1.0;"/><line style="stroke:#181818;stroke-width:1.0;" x1="57.5" x2="307" y1="863.7656" y2="863.7656"/><text fill="#000000" font-family="sans-serif" font-size="13" lengthAdjust="spacing" textLength="158" x="64.5" y="842.5576">View Account Transactions</text><text fill="#000000" font-family="sans-serif" font-size="13" lengthAdjust="spacing" textLength="49" x="64.5" y="858.9092">[HTTPS]</text><path d="M221,878.7656 L437,878.7656 L437,887.1172 L427,897.1172 L221,897.1172 L221,878.7656 " fill="#EEEEEE" style="stroke:#000000;stroke-width:1.5;"/><rect fill="none" height="144.1094" style="stroke:#000000;stroke-width:1.5;" width="737.5" x="221" y="878.7656"/><text fill="#000000" font-family="sans-serif" font-size="13" font-weight="bold" lengthAdjust="spacing" textLength="171" x="236" y="893.2607">View Account Transactions</text><polygon fill="#181818" points="476,931.8203,486,935.8203,476,939.8203,480,935.8203" style="stroke:#181818;stroke-width:1.0;"/><line style="stroke:#181818;stroke-width:1.0;" x1="313" x2="482" y1="935.8203" y2="935.8203"/><text fill="#000000" font-family="sans-serif" font-size="13" lengthAdjust="spacing" textLength="151" x="320" y="914.6123">Get Account Transactions</text><text fill="#000000" font-family="sans-serif" font-size="13" lengthAdjust="spacing" textLength="49" x="320" y="930.9639">[HTTPS]</text><path d="M424,950.8203 L630,950.8203 L630,959.1719 L620,969.1719 L424,969.1719 L424,950.8203 " fill="#EEEEEE" style="stroke:#000000;stroke-width:1.5;"/><rect fill="none" height="65.0547" style="stroke:#000000;stroke-width:1.5;" width="524.5" x="424" y="950.8203"/><text fill="#000000" font-family="sans-serif" font-size="13" font-weight="bold" lengthAdjust="spacing" textLength="161" x="439" y="965.3154">Get Account Transactions</text><polygon fill="#181818" points="834,1003.875,844,1007.875,834,1011.875,838,1007.875" style="stroke:#181818;stroke-width:1.0;"/><line style="stroke:#181818;stroke-width:1.0;" x1="488" x2="840" y1="1007.875" y2="1007.875"/><text fill="#000000" font-family="sans-serif" font-size="13" lengthAdjust="spacing" textLength="151" x="495" y="986.667">Get Account Transactions</text><text fill="#000000" font-family="sans-serif" font-size="13" lengthAdjust="spacing" textLength="78" x="495" y="1003.0186">[XML/HTTPS]</text><polygon fill="#181818" points="301,1064.5781,311,1068.5781,301,1072.5781,305,1068.5781" style="stroke:#181818;stroke-width:1.0;"/><line style="stroke:#181818;stroke-width:1.0;" x1="57.5" x2="307" y1="1068.5781" y2="1068.5781"/><text fill="#000000" font-family="sans-serif" font-size="13" lengthAdjust="spacing" textLength="90" x="64.5" y="1047.3701">Create Account</text><text fill="#000000" font-family="sans-serif" font-size="13" lengthAdjust="spacing" textLength="49" x="64.5" y="1063.7217">[HTTPS]</text><path d="M221,1083.5781 L363,1083.5781 L363,1091.9297 L353,1101.9297 L221,1101.9297 L221,1083.5781 " fill="#EEEEEE" style="stroke:#000000;stroke-width:1.5;"/><rect fill="none" height="190.8125" style="stroke:#000000;stroke-width:1.5;" width="850.5" x="221" y="1083.5781"/><text fill="#000000" font-family="sans-serif" font-size="13" font-weight="bold" lengthAdjust="spacing" textLength="97" x="236" y="1098.0732">Create Account</text><polygon fill="#181818" points="476,1136.6328,486,1140.6328,476,1144.6328,480,1140.6328" style="stroke:#181818;stroke-width:1.0;"/><line style="stroke:#181818;stroke-width:1.0;" x1="313" x2="482" y1="1140.6328" y2="1140.6328"/><text fill="#000000" font-family="sans-serif" font-size="13" lengthAdjust="spacing" textLength="90" x="320" y="1119.4248">Create Account</text><text fill="#000000" font-family="sans-serif" font-size="13" lengthAdjust="spacing" textLength="49" x="320" y="1135.7764">[HTTPS]</text><path d="M424,1155.6328 L566,1155.6328 L566,1163.9844 L556,1173.9844 L424,1173.9844 L424,1155.6328 " fill="#EEEEEE" style="stroke:#000000;stroke-width:1.5;"/><rect fill="none" height="111.7578" style="stroke:#000000;stroke-width:1.5;" width="637.5" x="424" y="1155.6328"/><text fill="#000000" font-family="sans-serif" font-size="13" font-weight="bold" lengthAdjust="spacing" textLength="97" x="439" y="1170.1279">Create Account</text><polygon fill="#181818" points="834,1208.6875,844,1212.6875,834,1216.6875,838,1212.6875" style="stroke:#181818;stroke-width:1.0;"/><line style="stroke:#181818;stroke-width:1.0;" x1="488" x2="840" y1="1212.6875" y2="1212.6875"/><text fill="#000000" font-family="sans-serif" font-size="13" lengthAdjust="spacing" textLength="90" x="495" y="1191.4795">Create Account</text><text fill="#000000" font-family="sans-serif" font-size="13" lengthAdjust="spacing" textLength="78" x="495" y="1207.8311">[XML/HTTPS]</text><polygon fill="#181818" points="988,1255.3906,998,1259.3906,988,1263.3906,992,1259.3906" style="stroke:#181818;stroke-width:1.0;"/><line style="stroke:#181818;stroke-width:1.0;" x1="488" x2="994" y1="1259.3906" y2="1259.3906"/><text fill="#000000" font-family="sans-serif" font-size="13" lengthAdjust="spacing" textLength="269" x="495" y="1238.1826">Send New Account Created Notification E-Mail</text><text fill="#000000" font-family="sans-serif" font-size="13" lengthAdjust="spacing" textLength="44" x="495" y="1254.5342">[SMTP]</text><path d="M10,1295.3906 L278,1295.3906 L278,1303.7422 L268,1313.7422 L10,1313.7422 L10,1295.3906 " fill="#EEEEEE" style="stroke:#000000;stroke-width:1.5;"/><rect fill="none" height="758.5469" style="stroke:#000000;stroke-width:1.5;" width="958.5" x="10" y="1295.3906"/><text fill="#000000" font-family="sans-serif" font-size="13" font-weight="bold" lengthAdjust="spacing" textLength="223" x="25" y="1309.8857">Customer - Banking via Mobile App</text><polygon fill="#181818" points="689.5,1348.4453,699.5,1352.4453,689.5,1356.4453,693.5,1352.4453" style="stroke:#181818;stroke-width:1.0;"/><line style="stroke:#181818;stroke-width:1.0;" x1="57.5" x2="695.5" y1="1352.4453" y2="1352.4453"/><text fill="#000000" font-family="sans-serif" font-size="13" lengthAdjust="spacing" textLength="40" x="64.5" y="1331.2373">Sign In</text><text fill="#000000" font-family="sans-serif" font-size="13" lengthAdjust="spacing" textLength="49" x="64.5" y="1347.5889">[HTTPS]</text><path d="M414,1367.4453 L504,1367.4453 L504,1375.7969 L494,1385.7969 L414,1385.7969 L414,1367.4453 " fill="#EEEEEE" style="stroke:#000000;stroke-width:1.5;"/><rect fill="none" height="144.1094" style="stroke:#000000;stroke-width:1.5;" width="339.5" x="414" y="1367.4453"/><text fill="#000000" font-family="sans-serif" font-size="13" font-weight="bold" lengthAdjust="spacing" textLength="45" x="429" y="1381.9404">Sign In</text><polygon fill="#181818" points="499,1420.5,489,1424.5,499,1428.5,495,1424.5" style="stroke:#181818;stroke-width:1.0;"/><line style="stroke:#181818;stroke-width:1.0;" x1="493" x2="700.5" y1="1424.5" y2="1424.5"/><text fill="#000000" font-family="sans-serif" font-size="13" lengthAdjust="spacing" textLength="40" x="505" y="1403.292">Sign In</text><text fill="#000000" font-family="sans-serif" font-size="13" lengthAdjust="spacing" textLength="49" x="505" y="1419.6436">[HTTPS]</text><path d="M424,1439.5 L514,1439.5 L514,1447.8516 L504,1457.8516 L424,1457.8516 L424,1439.5 " fill="#EEEEEE" style="stroke:#000000;stroke-width:1.5;"/><rect fill="none" height="65.0547" style="stroke:#000000;stroke-width:1.5;" width="235.5" x="424" y="1439.5"/><text fill="#000000" font-family="sans-serif" font-size="13" font-weight="bold" lengthAdjust="spacing" textLength="45" x="439" y="1453.9951">Sign In</text><polygon fill="#181818" points="604,1492.5547,614,1496.5547,604,1500.5547,608,1496.5547" style="stroke:#181818;stroke-width:1.0;"/><line style="stroke:#181818;stroke-width:1.0;" x1="488" x2="610" y1="1496.5547" y2="1496.5547"/><text fill="#000000" font-family="sans-serif" font-size="13" lengthAdjust="spacing" textLength="104" x="495" y="1475.3467">Authenticate User</text><text fill="#000000" font-family="sans-serif" font-size="13" lengthAdjust="spacing" textLength="83" x="495" y="1491.6982">[TCP/IP, SQL]</text><polygon fill="#181818" points="689.5,1553.2578,699.5,1557.2578,689.5,1561.2578,693.5,1557.2578" style="stroke:#181818;stroke-width:1.0;"/><line style="stroke:#181818;stroke-width:1.0;" x1="57.5" x2="695.5" y1="1557.2578" y2="1557.2578"/><text fill="#000000" font-family="sans-serif" font-size="13" lengthAdjust="spacing" textLength="132" x="64.5" y="1536.0498">View Customer Details</text><text fill="#000000" font-family="sans-serif" font-size="13" lengthAdjust="spacing" textLength="49" x="64.5" y="1552.4014">[HTTPS]</text><path d="M414,1572.2578 L602,1572.2578 L602,1580.6094 L592,1590.6094 L414,1590.6094 L414,1572.2578 " fill="#EEEEEE" style="stroke:#000000;stroke-width:1.5;"/><rect fill="none" height="269.8672" style="stroke:#000000;stroke-width:1.5;" width="544.5" x="414" y="1572.2578"/><text fill="#000000" font-family="sans-serif" font-size="13" font-weight="bold" lengthAdjust="spacing" textLength="143" x="429" y="1586.7529">View Customer Details</text><polygon fill="#181818" points="499,1625.3125,489,1629.3125,499,1633.3125,495,1629.3125" style="stroke:#181818;stroke-width:1.0;"/><line style="stroke:#181818;stroke-width:1.0;" x1="493" x2="700.5" y1="1629.3125" y2="1629.3125"/><text fill="#000000" font-family="sans-serif" font-size="13" lengthAdjust="spacing" textLength="81" x="505" y="1608.1045">Get Customer</text><text fill="#000000" font-family="sans-serif" font-size="13" lengthAdjust="spacing" textLength="49" x="505" y="1624.4561">[HTTPS]</text><path d="M424,1644.3125 L555,1644.3125 L555,1652.6641 L545,1662.6641 L424,1662.6641 L424,1644.3125 " fill="#EEEEEE" style="stroke:#000000;stroke-width:1.5;"/><rect fill="none" height="65.0547" style="stroke:#000000;stroke-width:1.5;" width="524.5" x="424" y="1644.3125"/><text fill="#000000" font-family="sans-serif" font-size="13" font-weight="bold" lengthAdjust="spacing" textLength="86" x="439" y="1658.8076">Get Customer</text><polygon fill="#181818" points="834,1697.3672,844,1701.3672,834,1705.3672,838,1701.3672" style="stroke:#181818;stroke-width:1.0;"/><line style="stroke:#181818;stroke-width:1.0;" x1="488" x2="840" y1="1701.3672" y2="1701.3672"/><text fill="#000000" font-family="sans-serif" font-size="13" lengthAdjust="spacing" textLength="81" x="495" y="1680.1592">Get Customer</text><text fill="#000000" font-family="sans-serif" font-size="13" lengthAdjust="spacing" textLength="78" x="495" y="1696.5107">[XML/HTTPS]</text><polygon fill="#181818" points="499,1751.0703,489,1755.0703,499,1759.0703,495,1755.0703" style="stroke:#181818;stroke-width:1.0;"/><line style="stroke:#181818;stroke-width:1.0;" x1="493" x2="700.5" y1="1755.0703" y2="1755.0703"/><text fill="#000000" font-family="sans-serif" font-size="13" lengthAdjust="spacing" textLength="140" x="505" y="1733.8623">Get Customer Accounts</text><text fill="#000000" font-family="sans-serif" font-size="13" lengthAdjust="spacing" textLength="49" x="505" y="1750.2139">[HTTPS]</text><path d="M424,1770.0703 L616,1770.0703 L616,1778.4219 L606,1788.4219 L424,1788.4219 L424,1770.0703 " fill="#EEEEEE" style="stroke:#000000;stroke-width:1.5;"/><rect fill="none" height="65.0547" style="stroke:#000000;stroke-width:1.5;" width="524.5" x="424" y="1770.0703"/><text fill="#000000" font-family="sans-serif" font-size="13" font-weight="bold" lengthAdjust="spacing" textLength="147" x="439" y="1784.5654">Get Customer Accounts</text><polygon fill="#181818" points="834,1823.125,844,1827.125,834,1831.125,838,1827.125" style="stroke:#181818;stroke-width:1.0;"/><line style="stroke:#181818;stroke-width:1.0;" x1="488" x2="840" y1="1827.125" y2="1827.125"/><text fill="#000000" font-family="sans-serif" font-size="13" lengthAdjust="spacing" textLength="140" x="495" y="1805.917">Get Customer Accounts</text><text fill="#000000" font-family="sans-serif" font-size="13" lengthAdjust="spacing" textLength="78" x="495" y="1822.2686">[XML/HTTPS]</text><polygon fill="#181818" points="689.5,1883.8281,699.5,1887.8281,689.5,1891.8281,693.5,1887.8281" style="stroke:#181818;stroke-width:1.0;"/><line style="stroke:#181818;stroke-width:1.0;" x1="57.5" x2="695.5" y1="1887.8281" y2="1887.8281"/><text fill="#000000" font-family="sans-serif" font-size="13" lengthAdjust="spacing" textLength="158" x="64.5" y="1866.6201">View Account Transactions</text><text fill="#000000" font-family="sans-serif" font-size="13" lengthAdjust="spacing" textLength="49" x="64.5" y="1882.9717">[HTTPS]</text><path d="M414,1902.8281 L630,1902.8281 L630,1911.1797 L620,1921.1797 L414,1921.1797 L414,1902.8281 " fill="#EEEEEE" style="stroke:#000000;stroke-width:1.5;"/><rect fill="none" height="144.1094" style="stroke:#000000;stroke-width:1.5;" width="544.5" x="414" y="1902.8281"/><text fill="#000000" font-family="sans-serif" font-size="13" font-weight="bold" lengthAdjust="spacing" textLength="171" x="429" y="1917.3232">View Account Transactions</text><polygon fill="#181818" points="499,1955.8828,489,1959.8828,499,1963.8828,495,1959.8828" style="stroke:#181818;stroke-width:1.0;"/><line style="stroke:#181818;stroke-width:1.0;" x1="493" x2="700.5" y1="1959.8828" y2="1959.8828"/><text fill="#000000" font-family="sans-serif" font-size="13" lengthAdjust="spacing" textLength="151" x="505" y="1938.6748">Get Account Transactions</text><text fill="#000000" font-family="sans-serif" font-size="13" lengthAdjust="spacing" textLength="49" x="505" y="1955.0264">[HTTPS]</text><path d="M424,1974.8828 L630,1974.8828 L630,1983.2344 L620,1993.2344 L424,1993.2344 L424,1974.8828 " fill="#EEEEEE" style="stroke:#000000;stroke-width:1.5;"/><rect fill="none" height="65.0547" style="stroke:#000000;stroke-width:1.5;" width="524.5" x="424" y="1974.8828"/><text fill="#000000" font-family="sans-serif" font-size="13" font-weight="bold" lengthAdjust="spacing" textLength="161" x="439" y="1989.3779">Get Account Transactions</text><polygon fill="#181818" points="834,2027.9375,844,2031.9375,834,2035.9375,838,2031.9375" style="stroke:#181818;stroke-width:1.0;"/><line style="stroke:#181818;stroke-width:1.0;" x1="488" x2="840" y1="2031.9375" y2="2031.9375"/><text fill="#000000" font-family="sans-serif" font-size="13" lengthAdjust="spacing" textLength="151" x="495" y="2010.7295">Get Account Transactions</text><text fill="#000000" font-family="sans-serif" font-size="13" lengthAdjust="spacing" textLength="78" x="495" y="2027.0811">[XML/HTTPS]</text><path d="M10,2067.9375 L303,2067.9375 L303,2076.2891 L293,2086.2891 L10,2086.2891 L10,2067.9375 " fill="#EEEEEE" style="stroke:#000000;stroke-width:1.5;"/><rect fill="none" height="111.7578" style="stroke:#000000;stroke-width:1.5;" width="1051.5" x="10" y="2067.9375"/><text fill="#000000" font-family="sans-serif" font-size="13" font-weight="bold" lengthAdjust="spacing" textLength="248" x="25" y="2082.4326">Customer - Receive E-Mail Notifications</text><polygon fill="#181818" points="988,2120.9922,998,2124.9922,988,2128.9922,992,2124.9922" style="stroke:#181818;stroke-width:1.0;"/><line style="stroke:#181818;stroke-width:1.0;" x1="57.5" x2="994" y1="2124.9922" y2="2124.9922"/><text fill="#000000" font-family="sans-serif" font-size="13" lengthAdjust="spacing" textLength="270" x="64.5" y="2103.7842">Receive Password Changed Notification E-Mail</text><text fill="#000000" font-family="sans-serif" font-size="13" lengthAdjust="spacing" textLength="43" x="64.5" y="2120.1357">[POP3]</text><polygon fill="#181818" points="988,2167.6953,998,2171.6953,988,2175.6953,992,2171.6953" style="stroke:#181818;stroke-width:1.0;"/><line style="stroke:#181818;stroke-width:1.0;" x1="57.5" x2="994" y1="2171.6953" y2="2171.6953"/><text fill="#000000" font-family="sans-serif" font-size="13" lengthAdjust="spacing" textLength="284" x="64.5" y="2150.4873">Receive New Account Created Notification E-Mail</text><text fill="#000000" font-family="sans-serif" font-size="13" lengthAdjust="spacing" textLength="43" x="64.5" y="2166.8389">[POP3]</text><!--SRC=[xLTDZzem4BtdLupefPKQzj1R3vMoB6gHO9iswMwbTWyc3C5gi5FRGFllQvC4yiKMiKb0saL286VovddcJVoYg8eGhca8ruJz0ZSAm8O1NyOHAeJNGpQpVMxhdpTwtSFVAsG1RaEO8fIXW0ZN65bMJ8IY0Oq9Kz0RhAJYInGz8DA06smDtNS2nONiPvSjQyh_G6_450g6Qak1ih07h-uNLA45-bF0lSSfE74SqO0eobaPtkDpjI42lRzIuLBsC-0KjxyZBViQAGTKpUJf-0XjbuJOKCO4qG1gl6f2nnqrb4WZbRSs8ufCYKJetQJ_de2VGLJtCE5J6cthzGJu1CJK2DaCj41AsfhekBaWIypa0Wde_rBkxajlIzQBs4DRHqL70WvDR8fYXOAlOiY4hGSa8xUc15BPMeSd0UmFZGWPtiCjMTEGAFp9VdpoVTTxIBbbwrOZUKxcMnW3JNVCoGmStMbFwKxiIUlcjrAlSdwFXWn6h5ojTDbg8id9N8kJt1RPKfQJsMRF1StJMQa5CcKW4Rv959gnFt2lHkvRyBwCa-vsrU4xYflzPDwWZejakOIrGHVM_O_wYCmeblddhtMXW_gdQPNazydugdwYBwoWu0G1Np4b7wliBkXYIfodNQfrf_ELqW1V42P9OBPNFsDrWHSeYsFsSoZkxE8uGFvC-XW8DCT0IgfSnEBL2rD21zIRwNg5QAxN7V3AMM7ZKennlytDUi9Eht55vnbYuhKrLM_Yktj5ck-ZPdh_aj6AUdUl7stPhNs25r_OgI_CTxPpJzX6rv-j7soxc2zUyEIPEeSFR4iEpyG3rfwuNp50kiRqb2wStF9q9HLzGfR39L9kk9Z1O45OUD0dk9_TTmzDvpxUfYJfJR6iVm00]--></g></svg>