<?xml version="1.0" encoding="us-ascii" standalone="no"?><svg xmlns="http://www.w3.org/2000/svg" xmlns:xlink="http://www.w3.org/1999/xlink" contentStyleType="text/css" height="2276px" preserveAspectRatio="none" style="width:1065px;height:2276px;background:#FFFFFF;" version="1.1" viewBox="0 0 1065 2276" width="1065px" zoomAndPan="magnify"><defs/><g><text fill="#000000" font-family="sans-serif" font-size="14" font-weight="bold" lengthAdjust="spacing" textLength="467" x="300.75" y="29.5332">Big Bank Plc - Complete (End-To-End) - Sequence - Container level</text><rect fill="#FFFFFF" height="2218.6953" style="stroke:#181818;stroke-width:0.5;" width="624.5" x="101" y="44.6094"/><text fill="#000000" font-family="sans-serif" font-size="13" font-weight="bold" lengthAdjust="spacing" textLength="105" x="360.75" y="58.1045">Internet Banking</text><rect fill="none" height="1135.8203" style="stroke:#000000;stroke-width:1.5;" width="1049.5" x="10" y="145.5703"/><rect fill="none" height="65.0547" style="stroke:#000000;stroke-width:1.5;" width="266" x="95" y="217.625"/><rect fill="none" height="144.1094" style="stroke:#000000;stroke-width:1.5;" width="426.5" x="221" y="343.3828"/><rect fill="none" height="65.0547" style="stroke:#000000;stroke-width:1.5;" width="235.5" x="402" y="415.4375"/><rect fill="none" height="269.8672" style="stroke:#000000;stroke-width:1.5;" width="715.5" x="221" y="548.1953"/><rect fill="none" height="65.0547" style="stroke:#000000;stroke-width:1.5;" width="524.5" x="402" y="620.25"/><rect fill="none" height="65.0547" style="stroke:#000000;stroke-width:1.5;" width="524.5" x="402" y="746.0078"/><rect fill="none" height="144.1094" style="stroke:#000000;stroke-width:1.5;" width="715.5" x="221" y="878.7656"/><rect fill="none" height="65.0547" style="stroke:#000000;stroke-width:1.5;" width="524.5" x="402" y="950.8203"/><rect fill="none" height="190.8125" style="stroke:#000000;stroke-width:1.5;" width="828.5" x="221" y="1083.5781"/><rect fill="none" height="111.7578" style="stroke:#000000;stroke-width:1.5;" width="637.5" x="402" y="1155.6328"/><rect fill="none" height="758.5469" style="stroke:#000000;stroke-width:1.5;" width="936.5" x="10" y="1295.3906"/><rect fill="none" height="144.1094" style="stroke:#000000;stroke-width:1.5;" width="339.5" x="392" y="1367.4453"/><rect fill="none" height="65.0547" style="stroke:#000000;stroke-width:1.5;" width="235.5" x="402" y="1439.5"/><rect fill="none" height="269.8672" style="stroke:#000000;stroke-width:1.5;" width="544.5" x="392" y="1572.2578"/><rect fill="none" height="65.0547" style="stroke:#000000;stroke-width:1.5;" width="524.5" x="402" y="1644.3125"/><rect fill="none" height="65.0547" style="stroke:#000000;stroke-width:1.5;" width="524.5" x="402" y="1770.0703"/><rect fill="none" height="144.1094" style="stroke:#000000;stroke-width:1.5;" width="544.5" x="392" y="1902.8281"/><rect fill="none" height="65.0547" style="stroke:#000000;stroke-width:1.5;" width="524.5" x="402" y="1974.8828"/><rect fill="none" height="111.7578" style="stroke:#000000;stroke-width:1.5;" width="1029.5" x="10" y="2067.9375"/><line style="stroke:#181818;stroke-width:0.5;stroke-dasharray:5.0,5.0;" x1="57" x2="57" y1="128.5703" y2="2196.6953"/><line style="stroke:#181818;stroke-width:0.5;stroke-dasharray:5.0,5.0;" x1="163" x2="163" y1="128.5703" y2="2196.6953"/><line style="stroke:#181818;stroke-width:0.5;stroke-dasharray:5.0,5.0;" x1="291" x2="291" y1="128.5703" y2="2196.6953"/><line style="stroke:#181818;stroke-width:0.5;stroke-dasharray:5.0,5.0;" x1="466" x2="466" y1="128.5703" y2="2196.6953"/><line style="stroke:#181818;stroke-width:0.5;stroke-dasharray:5.0,5.0;" x1="593.5" x2="593.5" y1="128.5703" y2="2196.6953"/><line style="stroke:#181818;stroke-width:0.5;stroke-dasharray:5.0,5.0;" x1="679.5" x2="679.5" y1="128.5703" y2="2196.6953"/><line style="stroke:#181818;stroke-width:0.5;stroke-dasharray:5.0,5.0;" x1="823.5" x2="823.5" y1="128.5703" y2="2196.6953"/><line style="stroke:#181818;stroke-width:0.5;stroke-dasharray:5.0,5.0;" x1="977.5" x2="977.5" y1="128.5703" y2="2196.6953"/><rect fill="#E2E2F0" height="31.6094" rx="2.5" ry="2.5" style="stroke:#181818;stroke-width:0.5;" width="75" x="20" y="95.9609"/><text fill="#000000" font-family="sans-serif" font-size="14" lengthAdjust="spacing" textLength="61" x="27" y="117.4941">Customer</text><rect fill="#E2E2F0" height="31.6094" rx="2.5" ry="2.5" style="stroke:#181818;stroke-width:0.5;" width="75" x="20" y="2195.6953"/><text fill="#000000" font-family="sans-serif" font-size="14" lengthAdjust="spacing" textLength="61" x="27" y="2217.2285">Customer</text><rect fill="#E2E2F0" height="31.6094" rx="2.5" ry="2.5" style="stroke:#181818;stroke-width:0.5;" width="116" x="105" y="95.9609"/><text fill="#000000" font-family="sans-serif" font-size="14" lengthAdjust="spacing" textLength="102" x="112" y="117.4941">Web Application</text><rect fill="#E2E2F0" height="31.6094" rx="2.5" ry="2.5" style="stroke:#181818;stroke-width:0.5;" width="116" x="105" y="2195.6953"/><text fill="#000000" font-family="sans-serif" font-size="14" lengthAdjust="spacing" textLength="102" x="112" y="2217.2285">Web Application</text><rect fill="#E2E2F0" height="31.6094" rx="2.5" ry="2.5" style="stroke:#181818;stroke-width:0.5;" width="120" x="231" y="95.9609"/><text fill="#000000" font-family="sans-serif" font-size="14" lengthAdjust="spacing" textLength="106" x="238" y="117.4941">Single-Page App</text><rect fill="#E2E2F0" height="31.6094" rx="2.5" ry="2.5" style="stroke:#181818;stroke-width:0.5;" width="120" x="231" y="2195.6953"/><text fill="#000000" font-family="sans-serif" font-size="14" lengthAdjust="spacing" textLength="106" x="238" y="2217.2285">Single-Page App</text><rect fill="#E2E2F0" height="31.6094" rx="2.5" ry="2.5" style="stroke:#181818;stroke-width:0.5;" width="108" x="412" y="95.9609"/><text fill="#000000" font-family="sans-serif" font-size="14" lengthAdjust="spacing" textLength="94" x="419" y="117.4941">API Application</text><rect fill="#E2E2F0" height="31.6094" rx="2.5" ry="2.5" style="stroke:#181818;stroke-width:0.5;" width="108" x="412" y="2195.6953"/><text fill="#000000" font-family="sans-serif" font-size="14" lengthAdjust="spacing" textLength="94" x="419" y="2217.2285">API Application</text><text fill="#000000" font-family="sans-serif" font-size="14" lengthAdjust="spacing" textLength="61" x="560.5" y="125.4941">Database</text><path d="M576,74.9609 C576,64.9609 594,64.9609 594,64.9609 C594,64.9609 612,64.9609 612,74.9609 L612,100.9609 C612,110.9609 594,110.9609 594,110.9609 C594,110.9609 576,110.9609 576,100.9609 L576,74.9609 " fill="#E2E2F0" style="stroke:#181818;stroke-width:1.5;"/><path d="M576,74.9609 C576,84.9609 594,84.9609 594,84.9609 C594,84.9609 612,84.9609 612,74.9609 " fill="none" style="stroke:#181818;stroke-width:1.5;"/><text fill="#000000" font-family="sans-serif" font-size="14" lengthAdjust="spacing" textLength="61" x="560.5" y="2210.2285">Database</text><path d="M576,2223.3047 C576,2213.3047 594,2213.3047 594,2213.3047 C594,2213.3047 612,2213.3047 612,2223.3047 L612,2249.3047 C612,2259.3047 594,2259.3047 594,2259.3047 C594,2259.3047 576,2259.3047 576,2249.3047 L576,2223.3047 " fill="#E2E2F0" style="stroke:#181818;stroke-width:1.5;"/><path d="M576,2223.3047 C576,2233.3047 594,2233.3047 594,2233.3047 C594,2233.3047 612,2233.3047 612,2223.3047 " fill="none" style="stroke:#181818;stroke-width:1.5;"/><rect fill="#E2E2F0" height="31.6094" rx="2.5" ry="2.5" style="stroke:#181818;stroke-width:0.5;" width="84" x="637.5" y="95.9609"/><text fill="#000000" font-family="sans-serif" font-size="14" lengthAdjust="spacing" textLength="70" x="644.5" y="117.4941">Mobile App</text><rect fill="#E2E2F0" height="31.6094" rx="2.5" ry="2.5" style="stroke:#181818;stroke-width:0.5;" width="84" x="637.5" y="2195.6953"/><text fill="#000000" font-family="sans-serif" font-size="14" lengthAdjust="spacing" textLength="70" x="644.5" y="2217.2285">Mobile App</text><rect fill="#E2E2F0" height="31.6094" rx="2.5" ry="2.5" style="stroke:#181818;stroke-width:0.5;" width="185" x="731.5" y="95.9609"/><text fill="#000000" font-family="sans-serif" font-size="14" lengthAdjust="spacing" textLength="171" x="738.5" y="117.4941">Mainframe Banking System</text><rect fill="#E2E2F0" height="31.6094" rx="2.5" ry="2.5" style="stroke:#181818;stroke-width:0.5;" width="185" x="731.5" y="2195.6953"/><text fill="#000000" font-family="sans-serif" font-size="14" lengthAdjust="spacing" textLength="171" x="738.5" y="2217.2285">Mainframe Banking System</text><rect fill="#E2E2F0" height="31.6094" rx="2.5" ry="2.5" style="stroke:#181818;stroke-width:0.5;" width="103" x="926.5" y="95.9609"/><text fill="#000000" font-family="sans-serif" font-size="14" lengthAdjust="spacing" textLength="89" x="933.5" y="117.4941">E-Mail System</text><rect fill="#E2E2F0" height="31.6094" rx="2.5" ry="2.5" style="stroke:#181818;stroke-width:0.5;" width="103" x="926.5" y="2195.6953"/><text fill="#000000" font-family="sans-serif" font-size="14" lengthAdjust="spacing" textLength="89" x="933.5" y="2217.2285">E-Mail System</text><path d="M10,145.5703 L264,145.5703 L264,153.9219 L254,163.9219 L10,163.9219 L10,145.5703 " fill="#EEEEEE" style="stroke:#000000;stroke-width:1.5;"/><rect fill="none" height="1135.8203" style="stroke:#000000;stroke-width:1.5;" width="1049.5" x="10" y="145.5703"/><text fill="#000000" font-family="sans-serif" font-size="13" font-weight="bold" lengthAdjust="spacing" textLength="209" x="25" y="160.0654">Customer - Banking via Web App</text><polygon fill="#181818" points="151,198.625,161,202.625,151,206.625,155,202.625" style="stroke:#181818;stroke-width:1.0;"/><line style="stroke:#181818;stroke-width:1.0;" x1="57.5" x2="157" y1="202.625" y2="202.625"/><text fill="#000000" font-family="sans-serif" font-size="13" lengthAdjust="spacing" textLength="49" x="64.5" y="181.417">Navigate</text><text fill="#000000" font-family="sans-serif" font-size="13" lengthAdjust="spacing" textLength="49" x="64.5" y="197.7686">[HTTPS]</text><path d="M95,217.625 L196,217.625 L196,225.9766 L186,235.9766 L95,235.9766 L95,217.625 " fill="#EEEEEE" style="stroke:#000000;stroke-width:1.5;"/><rect fill="none" height="65.0547" style="stroke:#000000;stroke-width:1.5;" width="266" x="95" y="217.625"/><text fill="#000000" font-family="sans-serif" font-size="13" font-weight="bold" lengthAdjust="spacing" textLength="56" x="110" y="232.1201">Navigate</text><polygon fill="#181818" points="279,270.6797,289,274.6797,279,278.6797,283,274.6797" style="stroke:#181818;stroke-width:1.0;"/><line style="stroke:#181818;stroke-width:1.0;" x1="163" x2="285" y1="274.6797" y2="274.6797"/><text fill="#000000" font-family="sans-serif" font-size="13" lengthAdjust="spacing" textLength="87" x="170" y="253.4717">Load And Start</text><text fill="#000000" font-family="sans-serif" font-size="13" lengthAdjust="spacing" textLength="49" x="170" y="269.8232">[HTTPS]</text><polygon fill="#181818" points="279,324.3828,289,328.3828,279,332.3828,283,328.3828" style="stroke:#181818;stroke-width:1.0;"/><line style="stroke:#181818;stroke-width:1.0;" x1="57.5" x2="285" y1="328.3828" y2="328.3828"/><text fill="#000000" font-family="sans-serif" font-size="13" lengthAdjust="spacing" textLength="40" x="64.5" y="307.1748">Sign In</text><text fill="#000000" font-family="sans-serif" font-size="13" lengthAdjust="spacing" textLength="49" x="64.5" y="323.5264">[HTTPS]</text><path d="M221,343.3828 L311,343.3828 L311,351.7344 L301,361.7344 L221,361.7344 L221,343.3828 " fill="#EEEEEE" style="stroke:#000000;stroke-width:1.5;"/><rect fill="none" height="144.1094" style="stroke:#000000;stroke-width:1.5;" width="426.5" x="221" y="343.3828"/><text fill="#000000" font-family="sans-serif" font-size="13" font-weight="bold" lengthAdjust="spacing" textLength="45" x="236" y="357.8779">Sign In</text><polygon fill="#181818" points="454,396.4375,464,400.4375,454,404.4375,458,400.4375" style="stroke:#181818;stroke-width:1.0;"/><line style="stroke:#181818;stroke-width:1.0;" x1="291" x2="460" y1="400.4375" y2="400.4375"/><text fill="#000000" font-family="sans-serif" font-size="13" lengthAdjust="spacing" textLength="40" x="298" y="379.2295">Sign In</text><text fill="#000000" font-family="sans-serif" font-size="13" lengthAdjust="spacing" textLength="49" x="298" y="395.5811">[HTTPS]</text><path d="M402,415.4375 L492,415.4375 L492,423.7891 L482,433.7891 L402,433.7891 L402,415.4375 " fill="#EEEEEE" style="stroke:#000000;stroke-width:1.5;"/><rect fill="none" height="65.0547" style="stroke:#000000;stroke-width:1.5;" width="235.5" x="402" y="415.4375"/><text fill="#000000" font-family="sans-serif" font-size="13" font-weight="bold" lengthAdjust="spacing" textLength="45" x="417" y="429.9326">Sign In</text><polygon fill="#181818" points="582,468.4922,592,472.4922,582,476.4922,586,472.4922" style="stroke:#181818;stroke-width:1.0;"/><line style="stroke:#181818;stroke-width:1.0;" x1="466" x2="588" y1="472.4922" y2="472.4922"/><text fill="#000000" font-family="sans-serif" font-size="13" lengthAdjust="spacing" textLength="104" x="473" y="451.2842">Authenticate User</text><text fill="#000000" font-family="sans-serif" font-size="13" lengthAdjust="spacing" textLength="83" x="473" y="467.6357">[TCP/IP, SQL]</text><polygon fill="#181818" points="279,529.1953,289,533.1953,279,537.1953,283,533.1953" style="stroke:#181818;stroke-width:1.0;"/><line style="stroke:#181818;stroke-width:1.0;" x1="57.5" x2="285" y1="533.1953" y2="533.1953"/><text fill="#000000" font-family="sans-serif" font-size="13" lengthAdjust="spacing" textLength="132" x="64.5" y="511.9873">View Customer Details</text><text fill="#000000" font-family="sans-serif" font-size="13" lengthAdjust="spacing" textLength="49" x="64.5" y="528.3389">[HTTPS]</text><path d="M221,548.1953 L409,548.1953 L409,556.5469 L399,566.5469 L221,566.5469 L221,548.1953 " fill="#EEEEEE" style="stroke:#000000;stroke-width:1.5;"/><rect fill="none" height="269.8672" style="stroke:#000000;stroke-width:1.5;" width="715.5" x="221" y="548.1953"/><text fill="#000000" font-family="sans-serif" font-size="13" font-weight="bold" lengthAdjust="spacing" textLength="143" x="236" y="562.6904">View Customer Details</text><polygon fill="#181818" points="454,601.25,464,605.25,454,609.25,458,605.25" style="stroke:#181818;stroke-width:1.0;"/><line style="stroke:#181818;stroke-width:1.0;" x1="291" x2="460" y1="605.25" y2="605.25"/><text fill="#000000" font-family="sans-serif" font-size="13" lengthAdjust="spacing" textLength="81" x="298" y="584.042">Get Customer</text><text fill="#000000" font-family="sans-serif" font-size="13" lengthAdjust="spacing" textLength="49" x="298" y="600.3936">[HTTPS]</text><path d="M402,620.25 L533,620.25 L533,628.6016 L523,638.6016 L402,638.6016 L402,620.25 " fill="#EEEEEE" style="stroke:#000000;stroke-width:1.5;"/><rect fill="none" height="65.0547" style="stroke:#000000;stroke-width:1.5;" width="524.5" x="402" y="620.25"/><text fill="#000000" font-family="sans-serif" font-size="13" font-weight="bold" lengthAdjust="spacing" textLength="86" x="417" y="634.7451">Get Customer</text><polygon fill="#181818" points="812,673.3047,822,677.3047,812,681.3047,816,677.3047" style="stroke:#181818;stroke-width:1.0;"/><line style="stroke:#181818;stroke-width:1.0;" x1="466" x2="818" y1="677.3047" y2="677.3047"/><text fill="#000000" font-family="sans-serif" font-size="13" lengthAdjust="spacing" textLength="81" x="473" y="656.0967">Get Customer</text><text fill="#000000" font-family="sans-serif" font-size="13" lengthAdjust="spacing" textLength="49" x="473" y="672.4482">[TCP/IP]</text><polygon fill="#181818" points="454,727.0078,464,731.0078,454,735.0078,458,731.0078" style="stroke:#181818;stroke-width:1.0;"/><line style="stroke:#181818;stroke-width:1.0;" x1="291" x2="460" y1="731.0078" y2="731.0078"/><text fill="#000000" font-family="sans-serif" font-size="13" lengthAdjust="spacing" textLength="140" x="298" y="709.7998">Get Customer Accounts</text><text fill="#000000" font-family="sans-serif" font-size="13" lengthAdjust="spacing" textLength="49" x="298" y="726.1514">[HTTPS]</text><path d="M402,746.0078 L594,746.0078 L594,754.3594 L584,764.3594 L402,764.3594 L402,746.0078 " fill="#EEEEEE" style="stroke:#000000;stroke-width:1.5;"/><rect fill="none" height="65.0547" style="stroke:#000000;stroke-width:1.5;" width="524.5" x="402" y="746.0078"/><text fill="#000000" font-family="sans-serif" font-size="13" font-weight="bold" lengthAdjust="spacing" textLength="147" x="417" y="760.5029">Get Customer Accounts</text><polygon fill="#181818" points="812,799.0625,822,803.0625,812,807.0625,816,803.0625" style="stroke:#181818;stroke-width:1.0;"/><line style="stroke:#181818;stroke-width:1.0;" x1="466" x2="818" y1="803.0625" y2="803.0625"/><text fill="#000000" font-family="sans-serif" font-size="13" lengthAdjust="spacing" textLength="140" x="473" y="781.8545">Get Customer Accounts</text><text fill="#000000" font-family="sans-serif" font-size="13" lengthAdjust="spacing" textLength="49" x="473" y="798.2061">[TCP/IP]</text><polygon fill="#181818" points="279,859.7656,289,863.7656,279,867.7656,283,863.7656" style="stroke:#181818;stroke-width:1.0;"/><line style="stroke:#181818;stroke-width:1.0;" x1="57.5" x2="285" y1="863.7656" y2="863.7656"/><text fill="#000000" font-family="sans-serif" font-size="13" lengthAdjust="spacing" textLength="158" x="64.5" y="842.5576">View Account Transactions</text><text fill="#000000" font-family="sans-serif" font-size="13" lengthAdjust="spacing" textLength="49" x="64.5" y="858.9092">[HTTPS]</text><path d="M221,878.7656 L437,878.7656 L437,887.1172 L427,897.1172 L221,897.1172 L221,878.7656 " fill="#EEEEEE" style="stroke:#000000;stroke-width:1.5;"/><rect fill="none" height="144.1094" style="stroke:#000000;stroke-width:1.5;" width="715.5" x="221" y="878.7656"/><text fill="#000000" font-family="sans-serif" font-size="13" font-weight="bold" lengthAdjust="spacing" textLength="171" x="236" y="893.2607">View Account Transactions</text><polygon fill="#181818" points="454,931.8203,464,935.8203,454,939.8203,458,935.8203" style="stroke:#181818;stroke-width:1.0;"/><line style="stroke:#181818;stroke-width:1.0;" x1="291" x2="460" y1="935.8203" y2="935.8203"/><text fill="#000000" font-family="sans-serif" font-size="13" lengthAdjust="spacing" textLength="151" x="298" y="914.6123">Get Account Transactions</text><text fill="#000000" font-family="sans-serif" font-size="13" lengthAdjust="spacing" textLength="49" x="298" y="930.9639">[HTTPS]</text><path d="M402,950.8203 L608,950.8203 L608,959.1719 L598,969.1719 L402,969.1719 L402,950.8203 " fill="#EEEEEE" style="stroke:#000000;stroke-width:1.5;"/><rect fill="none" height="65.0547" style="stroke:#000000;stroke-width:1.5;" width="524.5" x="402" y="950.8203"/><text fill="#000000" font-family="sans-serif" font-size="13" font-weight="bold" lengthAdjust="spacing" textLength="161" x="417" y="965.3154">Get Account Transactions</text><polygon fill="#181818" points="812,1003.875,822,1007.875,812,1011.875,816,1007.875" style="stroke:#181818;stroke-width:1.0;"/><line style="stroke:#181818;stroke-width:1.0;" x1="466" x2="818" y1="1007.875" y2="1007.875"/><text fill="#000000" font-family="sans-serif" font-size="13" lengthAdjust="spacing" textLength="151" x="473" y="986.667">Get Account Transactions</text><text fill="#000000" font-family="sans-serif" font-size="13" lengthAdjust="spacing" textLength="49" x="473" y="1003.0186">[TCP/IP]</text><polygon fill="#181818" points="279,1064.5781,289,1068.5781,279,1072.5781,283,1068.5781" style="stroke:#181818;stroke-width:1.0;"/><line style="stroke:#181818;stroke-width:1.0;" x1="57.5" x2="285" y1="1068.5781" y2="1068.5781"/><text fill="#000000" font-family="sans-serif" font-size="13" lengthAdjust="spacing" textLength="90" x="64.5" y="1047.3701">Create Account</text><text fill="#000000" font-family="sans-serif" font-size="13" lengthAdjust="spacing" textLength="49" x="64.5" y="1063.7217">[HTTPS]</text><path d="M221,1083.5781 L363,1083.5781 L363,1091.9297 L353,1101.9297 L221,1101.9297 L221,1083.5781 " fill="#EEEEEE" style="stroke:#000000;stroke-width:1.5;"/><rect fill="none" height="190.8125" style="stroke:#000000;stroke-width:1.5;" width="828.5" x="221" y="1083.5781"/><text fill="#000000" font-family="sans-serif" font-size="13" font-weight="bold" lengthAdjust="spacing" textLength="97" x="236" y="1098.0732">Create Account</text><polygon fill="#181818" points="454,1136.6328,464,1140.6328,454,1144.6328,458,1140.6328" style="stroke:#181818;stroke-width:1.0;"/><line style="stroke:#181818;stroke-width:1.0;" x1="291" x2="460" y1="1140.6328" y2="1140.6328"/><text fill="#000000" font-family="sans-serif" font-size="13" lengthAdjust="spacing" textLength="90" x="298" y="1119.4248">Create Account</text><text fill="#000000" font-family="sans-serif" font-size="13" lengthAdjust="spacing" textLength="49" x="298" y="1135.7764">[HTTPS]</text><path d="M402,1155.6328 L544,1155.6328 L544,1163.9844 L534,1173.9844 L402,1173.9844 L402,1155.6328 " fill="#EEEEEE" style="stroke:#000000;stroke-width:1.5;"/><rect fill="none" height="111.7578" style="stroke:#000000;stroke-width:1.5;" width="637.5" x="402" y="1155.6328"/><text fill="#000000" font-family="sans-serif" font-size="13" font-weight="bold" lengthAdjust="spacing" textLength="97" x="417" y="1170.1279">Create Account</text><polygon fill="#181818" points="812,1208.6875,822,1212.6875,812,1216.6875,816,1212.6875" style="stroke:#181818;stroke-width:1.0;"/><line style="stroke:#181818;stroke-width:1.0;" x1="466" x2="818" y1="1212.6875" y2="1212.6875"/><text fill="#000000" font-family="sans-serif" font-size="13" lengthAdjust="spacing" textLength="90" x="473" y="1191.4795">Create Account</text><text fill="#000000" font-family="sans-serif" font-size="13" lengthAdjust="spacing" textLength="49" x="473" y="1207.8311">[TCP/IP]</text><polygon fill="#181818" points="966,1255.3906,976,1259.3906,966,1263.3906,970,1259.3906" style="stroke:#181818;stroke-width:1.0;"/><line style="stroke:#181818;stroke-width:1.0;" x1="466" x2="972" y1="1259.3906" y2="1259.3906"/><text fill="#000000" font-family="sans-serif" font-size="13" lengthAdjust="spacing" textLength="269" x="473" y="1238.1826">Send New Account Created Notification E-Mail</text><text fill="#000000" font-family="sans-serif" font-size="13" lengthAdjust="spacing" textLength="44" x="473" y="1254.5342">[SMTP]</text><path d="M10,1295.3906 L278,1295.3906 L278,1303.7422 L268,1313.7422 L10,1313.7422 L10,1295.3906 " fill="#EEEEEE" style="stroke:#000000;stroke-width:1.5;"/><rect fill="none" height="758.5469" style="stroke:#000000;stroke-width:1.5;" width="936.5" x="10" y="1295.3906"/><text fill="#000000" font-family="sans-serif" font-size="13" font-weight="bold" lengthAdjust="spacing" textLength="223" x="25" y="1309.8857">Customer - Banking via Mobile App</text><polygon fill="#181818" points="667.5,1348.4453,677.5,1352.4453,667.5,1356.4453,671.5,1352.4453" style="stroke:#181818;stroke-width:1.0;"/><line style="stroke:#181818;stroke-width:1.0;" x1="57.5" x2="673.5" y1="1352.4453" y2="1352.4453"/><text fill="#000000" font-family="sans-serif" font-size="13" lengthAdjust="spacing" textLength="40" x="64.5" y="1331.2373">Sign In</text><text fill="#000000" font-family="sans-serif" font-size="13" lengthAdjust="spacing" textLength="49" x="64.5" y="1347.5889">[HTTPS]</text><path d="M392,1367.4453 L482,1367.4453 L482,1375.7969 L472,1385.7969 L392,1385.7969 L392,1367.4453 " fill="#EEEEEE" style="stroke:#000000;stroke-width:1.5;"/><rect fill="none" height="144.1094" style="stroke:#000000;stroke-width:1.5;" width="339.5" x="392" y="1367.4453"/><text fill="#000000" font-family="sans-serif" font-size="13" font-weight="bold" lengthAdjust="spacing" textLength="45" x="407" y="1381.9404">Sign In</text><polygon fill="#181818" points="477,1420.5,467,1424.5,477,1428.5,473,1424.5" style="stroke:#181818;stroke-width:1.0;"/><line style="stroke:#181818;stroke-width:1.0;" x1="471" x2="678.5" y1="1424.5" y2="1424.5"/><text fill="#000000" font-family="sans-serif" font-size="13" lengthAdjust="spacing" textLength="40" x="483" y="1403.292">Sign In</text><text fill="#000000" font-family="sans-serif" font-size="13" lengthAdjust="spacing" textLength="49" x="483" y="1419.6436">[HTTPS]</text><path d="M402,1439.5 L492,1439.5 L492,1447.8516 L482,1457.8516 L402,1457.8516 L402,1439.5 " fill="#EEEEEE" style="stroke:#000000;stroke-width:1.5;"/><rect fill="none" height="65.0547" style="stroke:#000000;stroke-width:1.5;" width="235.5" x="402" y="1439.5"/><text fill="#000000" font-family="sans-serif" font-size="13" font-weight="bold" lengthAdjust="spacing" textLength="45" x="417" y="1453.9951">Sign In</text><polygon fill="#181818" points="582,1492.5547,592,1496.5547,582,1500.5547,586,1496.5547" style="stroke:#181818;stroke-width:1.0;"/><line style="stroke:#181818;stroke-width:1.0;" x1="466" x2="588" y1="1496.5547" y2="1496.5547"/><text fill="#000000" font-family="sans-serif" font-size="13" lengthAdjust="spacing" textLength="104" x="473" y="1475.3467">Authenticate User</text><text fill="#000000" font-family="sans-serif" font-size="13" lengthAdjust="spacing" textLength="83" x="473" y="1491.6982">[TCP/IP, SQL]</text><polygon fill="#181818" points="667.5,1553.2578,677.5,1557.2578,667.5,1561.2578,671.5,1557.2578" style="stroke:#181818;stroke-width:1.0;"/><line style="stroke:#181818;stroke-width:1.0;" x1="57.5" x2="673.5" y1="1557.2578" y2="1557.2578"/><text fill="#000000" font-family="sans-serif" font-size="13" lengthAdjust="spacing" textLength="132" x="64.5" y="1536.0498">View Customer Details</text><text fill="#000000" font-family="sans-serif" font-size="13" lengthAdjust="spacing" textLength="49" x="64.5" y="1552.4014">[HTTPS]</text><path d="M392,1572.2578 L580,1572.2578 L580,1580.6094 L570,1590.6094 L392,1590.6094 L392,1572.2578 " fill="#EEEEEE" style="stroke:#000000;stroke-width:1.5;"/><rect fill="none" height="269.8672" style="stroke:#000000;stroke-width:1.5;" width="544.5" x="392" y="1572.2578"/><text fill="#000000" font-family="sans-serif" font-size="13" font-weight="bold" lengthAdjust="spacing" textLength="143" x="407" y="1586.7529">View Customer Details</text><polygon fill="#181818" points="477,1625.3125,467,1629.3125,477,1633.3125,473,1629.3125" style="stroke:#181818;stroke-width:1.0;"/><line style="stroke:#181818;stroke-width:1.0;" x1="471" x2="678.5" y1="1629.3125" y2="1629.3125"/><text fill="#000000" font-family="sans-serif" font-size="13" lengthAdjust="spacing" textLength="81" x="483" y="1608.1045">Get Customer</text><text fill="#000000" font-family="sans-serif" font-size="13" lengthAdjust="spacing" textLength="49" x="483" y="1624.4561">[HTTPS]</text><path d="M402,1644.3125 L533,1644.3125 L533,1652.6641 L523,1662.6641 L402,1662.6641 L402,1644.3125 " fill="#EEEEEE" style="stroke:#000000;stroke-width:1.5;"/><rect fill="none" height="65.0547" style="stroke:#000000;stroke-width:1.5;" width="524.5" x="402" y="1644.3125"/><text fill="#000000" font-family="sans-serif" font-size="13" font-weight="bold" lengthAdjust="spacing" textLength="86" x="417" y="1658.8076">Get Customer</text><polygon fill="#181818" points="812,1697.3672,822,1701.3672,812,1705.3672,816,1701.3672" style="stroke:#181818;stroke-width:1.0;"/><line style="stroke:#181818;stroke-width:1.0;" x1="466" x2="818" y1="1701.3672" y2="1701.3672"/><text fill="#000000" font-family="sans-serif" font-size="13" lengthAdjust="spacing" textLength="81" x="473" y="1680.1592">Get Customer</text><text fill="#000000" font-family="sans-serif" font-size="13" lengthAdjust="spacing" textLength="49" x="473" y="1696.5107">[TCP/IP]</text><polygon fill="#181818" points="477,1751.0703,467,1755.0703,477,1759.0703,473,1755.0703" style="stroke:#181818;stroke-width:1.0;"/><line style="stroke:#181818;stroke-width:1.0;" x1="471" x2="678.5" y1="1755.0703" y2="1755.0703"/><text fill="#000000" font-family="sans-serif" font-size="13" lengthAdjust="spacing" textLength="140" x="483" y="1733.8623">Get Customer Accounts</text><text fill="#000000" font-family="sans-serif" font-size="13" lengthAdjust="spacing" textLength="49" x="483" y="1750.2139">[HTTPS]</text><path d="M402,1770.0703 L594,1770.0703 L594,1778.4219 L584,1788.4219 L402,1788.4219 L402,1770.0703 " fill="#EEEEEE" style="stroke:#000000;stroke-width:1.5;"/><rect fill="none" height="65.0547" style="stroke:#000000;stroke-width:1.5;" width="524.5" x="402" y="1770.0703"/><text fill="#000000" font-family="sans-serif" font-size="13" font-weight="bold" lengthAdjust="spacing" textLength="147" x="417" y="1784.5654">Get Customer Accounts</text><polygon fill="#181818" points="812,1823.125,822,1827.125,812,1831.125,816,1827.125" style="stroke:#181818;stroke-width:1.0;"/><line style="stroke:#181818;stroke-width:1.0;" x1="466" x2="818" y1="1827.125" y2="1827.125"/><text fill="#000000" font-family="sans-serif" font-size="13" lengthAdjust="spacing" textLength="140" x="473" y="1805.917">Get Customer Accounts</text><text fill="#000000" font-family="sans-serif" font-size="13" lengthAdjust="spacing" textLength="49" x="473" y="1822.2686">[TCP/IP]</text><polygon fill="#181818" points="667.5,1883.8281,677.5,1887.8281,667.5,1891.8281,671.5,1887.8281" style="stroke:#181818;stroke-width:1.0;"/><line style="stroke:#181818;stroke-width:1.0;" x1="57.5" x2="673.5" y1="1887.8281" y2="1887.8281"/><text fill="#000000" font-family="sans-serif" font-size="13" lengthAdjust="spacing" textLength="158" x="64.5" y="1866.6201">View Account Transactions</text><text fill="#000000" font-family="sans-serif" font-size="13" lengthAdjust="spacing" textLength="49" x="64.5" y="1882.9717">[HTTPS]</text><path d="M392,1902.8281 L608,1902.8281 L608,1911.1797 L598,1921.1797 L392,1921.1797 L392,1902.8281 " fill="#EEEEEE" style="stroke:#000000;stroke-width:1.5;"/><rect fill="none" height="144.1094" style="stroke:#000000;stroke-width:1.5;" width="544.5" x="392" y="1902.8281"/><text fill="#000000" font-family="sans-serif" font-size="13" font-weight="bold" lengthAdjust="spacing" textLength="171" x="407" y="1917.3232">View Account Transactions</text><polygon fill="#181818" points="477,1955.8828,467,1959.8828,477,1963.8828,473,1959.8828" style="stroke:#181818;stroke-width:1.0;"/><line style="stroke:#181818;stroke-width:1.0;" x1="471" x2="678.5" y1="1959.8828" y2="1959.8828"/><text fill="#000000" font-family="sans-serif" font-size="13" lengthAdjust="spacing" textLength="151" x="483" y="1938.6748">Get Account Transactions</text><text fill="#000000" font-family="sans-serif" font-size="13" lengthAdjust="spacing" textLength="49" x="483" y="1955.0264">[HTTPS]</text><path d="M402,1974.8828 L608,1974.8828 L608,1983.2344 L598,1993.2344 L402,1993.2344 L402,1974.8828 " fill="#EEEEEE" style="stroke:#000000;stroke-width:1.5;"/><rect fill="none" height="65.0547" style="stroke:#000000;stroke-width:1.5;" width="524.5" x="402" y="1974.8828"/><text fill="#000000" font-family="sans-serif" font-size="13" font-weight="bold" lengthAdjust="spacing" textLength="161" x="417" y="1989.3779">Get Account Transactions</text><polygon fill="#181818" points="812,2027.9375,822,2031.9375,812,2035.9375,816,2031.9375" style="stroke:#181818;stroke-width:1.0;"/><line style="stroke:#181818;stroke-width:1.0;" x1="466" x2="818" y1="2031.9375" y2="2031.9375"/><text fill="#000000" font-family="sans-serif" font-size="13" lengthAdjust="spacing" textLength="151" x="473" y="2010.7295">Get Account Transactions</text><text fill="#000000" font-family="sans-serif" font-size="13" lengthAdjust="spacing" textLength="49" x="473" y="2027.0811">[TCP/IP]</text><path d="M10,2067.9375 L303,2067.9375 L303,2076.2891 L293,2086.2891 L10,2086.2891 L10,2067.9375 " fill="#EEEEEE" style="stroke:#000000;stroke-width:1.5;"/><rect fill="none" height="111.7578" style="stroke:#000000;stroke-width:1.5;" width="1029.5" x="10" y="2067.9375"/><text fill="#000000" font-family="sans-serif" font-size="13" font-weight="bold" lengthAdjust="spacing" textLength="248" x="25" y="2082.4326">Customer - Receive E-Mail Notifications</text><polygon fill="#181818" points="966,2120.9922,976,2124.9922,966,2128.9922,970,2124.9922" style="stroke:#181818;stroke-width:1.0;"/><line style="stroke:#181818;stroke-width:1.0;" x1="57.5" x2="972" y1="2124.9922" y2="2124.9922"/><text fill="#000000" font-family="sans-serif" font-size="13" lengthAdjust="spacing" textLength="270" x="64.5" y="2103.7842">Receive Password Changed Notification E-Mail</text><text fill="#000000" font-family="sans-serif" font-size="13" lengthAdjust="spacing" textLength="43" x="64.5" y="2120.1357">[POP3]</text><polygon fill="#181818" points="966,2167.6953,976,2171.6953,966,2175.6953,970,2171.6953" style="stroke:#181818;stroke-width:1.0;"/><line style="stroke:#181818;stroke-width:1.0;" x1="57.5" x2="972" y1="2171.6953" y2="2171.6953"/><text fill="#000000" font-family="sans-serif" font-size="13" lengthAdjust="spacing" textLength="284" x="64.5" y="2150.4873">Receive New Account Created Notification E-Mail</text><text fill="#000000" font-family="sans-serif" font-size="13" lengthAdjust="spacing" textLength="43" x="64.5" y="2166.8389">[POP3]</text><!--SRC=[xLTDZzem4BtdLupefPKQUkYjXqfP5hL8opPjqjr3kmSJXc0rsAbjeFttjJSnv0Es29A0j8k4GCxapVFCc_X5KPKWND4OhWZx1NuIWGi3laWJL0YlXspgXjpLFs_qUe2_byWYV0nXYb260X9SOU8uAH6AHZGbJ45li9IABr3qW4W3Rh0rTD-B51UoRoyxpeJ_WTw8AHGCrIC5ok8UlBgVKuKEw4y9znuduALfGYEYA6TL-83Fr9e83FvAXGlPjy0vRdz3MlOrKW6edYdGyGcwFedHP3mXKuPaW3HEFP7dZnhQaaQgRcbA59aGYT2xpl-TW6yXwdiOymbDJgrJ1c9gX6mAMXWLJOrrt4oG1LgPG0RwlvIR-_BRilKozj3LKSc1W4CJcwCuiU3B5AoWzM1OSYjA89Uhity2mFtOY83X0zoI5Os9mf_in-Smz8E7d9jTTnh9SpJVqXXekZUSJC7JdGwKxiIMj6v-A_MgvWzep634gjNAbvqcaXpDjJp9RP6jP3cQhNqkQ9xUKisHAGE9y5sYq8p3WVzkvB-5uEjDrjskEdn7SRsTp6lKSOcibd1dq8Lr_vC-6Yt5Al_YjIvqiFjfMYUPTRqspXTMJV2YY2-Paa-LTHDqCVKjqYuMkjF9oZb0A0YJ939xsprTkm8lK1E7x6TVtDcLiOVyESGn46YU_ZcZQWNBLozC1XrGRwRbDQAsqHsGAjXVuqoCMRyjJ7b6JQznHMSMCVFNccSm3WjoDDyd3VJsnQ8LwMvUETgoMDi4BrwmKozOx6pdFh2DhZzF3zXs9L_ytt7JT0xlrvOMdeFlstdGViC8wGhpmxbqOClZPLIs1pQ7JwHSSp65mPomUAyzyB_uxn-QpdsuEydIcs8v_m00]--></g></svg>