<?xml version="1.0" encoding="us-ascii" standalone="no"?><svg xmlns="http://www.w3.org/2000/svg" xmlns:xlink="http://www.w3.org/1999/xlink" contentStyleType="text/css" height="1137px" preserveAspectRatio="none" style="width:632px;height:1137px;background:#FFFFFF;" version="1.1" viewBox="0 0 632 1137" width="632px" zoomAndPan="magnify"><defs/><g><text fill="#000000" font-family="sans-serif" font-size="14" font-weight="bold" lengthAdjust="spacing" textLength="453" x="85.5" y="29.5332">Big Bank Plc - Complete (End-To-End) - Sequence - Context level</text><rect fill="none" height="111.7578" style="stroke:#000000;stroke-width:1.5;" width="346" x="156" y="228.625"/><rect fill="none" height="65.0547" style="stroke:#000000;stroke-width:1.5;" width="346" x="156" y="384.7344"/><rect fill="none" height="111.7578" style="stroke:#000000;stroke-width:1.5;" width="459" x="156" y="494.1406"/><rect fill="none" height="111.7578" style="stroke:#000000;stroke-width:1.5;" width="346" x="156" y="724.9531"/><rect fill="none" height="65.0547" style="stroke:#000000;stroke-width:1.5;" width="346" x="156" y="881.0625"/><line style="stroke:#181818;stroke-width:0.5;stroke-dasharray:5.0,5.0;" x1="42" x2="42" y1="76.2188" y2="1100.875"/><line style="stroke:#181818;stroke-width:0.5;stroke-dasharray:5.0,5.0;" x1="224" x2="224" y1="76.2188" y2="1100.875"/><line style="stroke:#181818;stroke-width:0.5;stroke-dasharray:5.0,5.0;" x1="399" x2="399" y1="76.2188" y2="1100.875"/><line style="stroke:#181818;stroke-width:0.5;stroke-dasharray:5.0,5.0;" x1="553" x2="553" y1="76.2188" y2="1100.875"/><rect fill="#E2E2F0" height="31.6094" rx="2.5" ry="2.5" style="stroke:#181818;stroke-width:0.5;" width="75" x="5" y="43.6094"/><text fill="#000000" font-family="sans-serif" font-size="14" lengthAdjust="spacing" textLength="61" x="12" y="65.1426">Customer</text><rect fill="#E2E2F0" height="31.6094" rx="2.5" ry="2.5" style="stroke:#181818;stroke-width:0.5;" width="75" x="5" y="1099.875"/><text fill="#000000" font-family="sans-serif" font-size="14" lengthAdjust="spacing" textLength="61" x="12" y="1121.4082">Customer</text><rect fill="#E2E2F0" height="31.6094" rx="2.5" ry="2.5" style="stroke:#181818;stroke-width:0.5;" width="117" x="166" y="43.6094"/><text fill="#000000" font-family="sans-serif" font-size="14" lengthAdjust="spacing" textLength="103" x="173" y="65.1426">Internet Banking</text><rect fill="#E2E2F0" height="31.6094" rx="2.5" ry="2.5" style="stroke:#181818;stroke-width:0.5;" width="117" x="166" y="1099.875"/><text fill="#000000" font-family="sans-serif" font-size="14" lengthAdjust="spacing" textLength="103" x="173" y="1121.4082">Internet Banking</text><rect fill="#E2E2F0" height="31.6094" rx="2.5" ry="2.5" style="stroke:#181818;stroke-width:0.5;" width="185" x="307" y="43.6094"/><text fill="#000000" font-family="sans-serif" font-size="14" lengthAdjust="spacing" textLength="171" x="314" y="65.1426">Mainframe Banking System</text><rect fill="#E2E2F0" height="31.6094" rx="2.5" ry="2.5" style="stroke:#181818;stroke-width:0.5;" width="185" x="307" y="1099.875"/><text fill="#000000" font-family="sans-serif" font-size="14" lengthAdjust="spacing" textLength="171" x="314" y="1121.4082">Mainframe Banking System</text><rect fill="#E2E2F0" height="31.6094" rx="2.5" ry="2.5" style="stroke:#181818;stroke-width:0.5;" width="103" x="502" y="43.6094"/><text fill="#000000" font-family="sans-serif" font-size="14" lengthAdjust="spacing" textLength="89" x="509" y="65.1426">E-Mail System</text><rect fill="#E2E2F0" height="31.6094" rx="2.5" ry="2.5" style="stroke:#181818;stroke-width:0.5;" width="103" x="502" y="1099.875"/><text fill="#000000" font-family="sans-serif" font-size="14" lengthAdjust="spacing" textLength="89" x="509" y="1121.4082">E-Mail System</text><rect fill="#EEEEEE" height="3" style="stroke:#EEEEEE;stroke-width:1.0;" width="625" x="0" y="107.3945"/><line style="stroke:#000000;stroke-width:1.0;" x1="0" x2="625" y1="107.3945" y2="107.3945"/><line style="stroke:#000000;stroke-width:1.0;" x1="0" x2="625" y1="110.3945" y2="110.3945"/><rect fill="#EEEEEE" height="24.3516" style="stroke:#000000;stroke-width:2.0;" width="227" x="199" y="96.2188"/><text fill="#000000" font-family="sans-serif" font-size="13" font-weight="bold" lengthAdjust="spacing" textLength="209" x="205" y="113.7139">Customer - Banking via Web App</text><polygon fill="#181818" points="212.5,148.9219,222.5,152.9219,212.5,156.9219,216.5,152.9219" style="stroke:#181818;stroke-width:1.0;"/><line style="stroke:#181818;stroke-width:1.0;" x1="42.5" x2="218.5" y1="152.9219" y2="152.9219"/><text fill="#000000" font-family="sans-serif" font-size="13" lengthAdjust="spacing" textLength="49" x="49.5" y="148.0654">Navigate</text><polygon fill="#181818" points="212.5,179.2734,222.5,183.2734,212.5,187.2734,216.5,183.2734" style="stroke:#181818;stroke-width:1.0;"/><line style="stroke:#181818;stroke-width:1.0;" x1="42.5" x2="218.5" y1="183.2734" y2="183.2734"/><text fill="#000000" font-family="sans-serif" font-size="13" lengthAdjust="spacing" textLength="40" x="49.5" y="178.417">Sign In</text><polygon fill="#181818" points="212.5,209.625,222.5,213.625,212.5,217.625,216.5,213.625" style="stroke:#181818;stroke-width:1.0;"/><line style="stroke:#181818;stroke-width:1.0;" x1="42.5" x2="218.5" y1="213.625" y2="213.625"/><text fill="#000000" font-family="sans-serif" font-size="13" lengthAdjust="spacing" textLength="132" x="49.5" y="208.7686">View Customer Details</text><path d="M156,228.625 L344,228.625 L344,236.9766 L334,246.9766 L156,246.9766 L156,228.625 " fill="#EEEEEE" style="stroke:#000000;stroke-width:1.5;"/><rect fill="none" height="111.7578" style="stroke:#000000;stroke-width:1.5;" width="346" x="156" y="228.625"/><text fill="#000000" font-family="sans-serif" font-size="13" font-weight="bold" lengthAdjust="spacing" textLength="143" x="171" y="243.1201">View Customer Details</text><polygon fill="#181818" points="387.5,281.6797,397.5,285.6797,387.5,289.6797,391.5,285.6797" style="stroke:#181818;stroke-width:1.0;"/><line style="stroke:#181818;stroke-width:1.0;" x1="224.5" x2="393.5" y1="285.6797" y2="285.6797"/><text fill="#000000" font-family="sans-serif" font-size="13" lengthAdjust="spacing" textLength="81" x="231.5" y="264.4717">Get Customer</text><text fill="#000000" font-family="sans-serif" font-size="13" lengthAdjust="spacing" textLength="78" x="231.5" y="280.8232">[XML/HTTPS]</text><polygon fill="#181818" points="387.5,328.3828,397.5,332.3828,387.5,336.3828,391.5,332.3828" style="stroke:#181818;stroke-width:1.0;"/><line style="stroke:#181818;stroke-width:1.0;" x1="224.5" x2="393.5" y1="332.3828" y2="332.3828"/><text fill="#000000" font-family="sans-serif" font-size="13" lengthAdjust="spacing" textLength="140" x="231.5" y="311.1748">Get Customer Accounts</text><text fill="#000000" font-family="sans-serif" font-size="13" lengthAdjust="spacing" textLength="78" x="231.5" y="327.5264">[XML/HTTPS]</text><polygon fill="#181818" points="212.5,365.7344,222.5,369.7344,212.5,373.7344,216.5,369.7344" style="stroke:#181818;stroke-width:1.0;"/><line style="stroke:#181818;stroke-width:1.0;" x1="42.5" x2="218.5" y1="369.7344" y2="369.7344"/><text fill="#000000" font-family="sans-serif" font-size="13" lengthAdjust="spacing" textLength="158" x="49.5" y="364.8779">View Account Transactions</text><path d="M156,384.7344 L372,384.7344 L372,393.0859 L362,403.0859 L156,403.0859 L156,384.7344 " fill="#EEEEEE" style="stroke:#000000;stroke-width:1.5;"/><rect fill="none" height="65.0547" style="stroke:#000000;stroke-width:1.5;" width="346" x="156" y="384.7344"/><text fill="#000000" font-family="sans-serif" font-size="13" font-weight="bold" lengthAdjust="spacing" textLength="171" x="171" y="399.2295">View Account Transactions</text><polygon fill="#181818" points="387.5,437.7891,397.5,441.7891,387.5,445.7891,391.5,441.7891" style="stroke:#181818;stroke-width:1.0;"/><line style="stroke:#181818;stroke-width:1.0;" x1="224.5" x2="393.5" y1="441.7891" y2="441.7891"/><text fill="#000000" font-family="sans-serif" font-size="13" lengthAdjust="spacing" textLength="151" x="231.5" y="420.5811">Get Account Transactions</text><text fill="#000000" font-family="sans-serif" font-size="13" lengthAdjust="spacing" textLength="78" x="231.5" y="436.9326">[XML/HTTPS]</text><polygon fill="#181818" points="212.5,475.1406,222.5,479.1406,212.5,483.1406,216.5,479.1406" style="stroke:#181818;stroke-width:1.0;"/><line style="stroke:#181818;stroke-width:1.0;" x1="42.5" x2="218.5" y1="479.1406" y2="479.1406"/><text fill="#000000" font-family="sans-serif" font-size="13" lengthAdjust="spacing" textLength="90" x="49.5" y="474.2842">Create Account</text><path d="M156,494.1406 L298,494.1406 L298,502.4922 L288,512.4922 L156,512.4922 L156,494.1406 " fill="#EEEEEE" style="stroke:#000000;stroke-width:1.5;"/><rect fill="none" height="111.7578" style="stroke:#000000;stroke-width:1.5;" width="459" x="156" y="494.1406"/><text fill="#000000" font-family="sans-serif" font-size="13" font-weight="bold" lengthAdjust="spacing" textLength="97" x="171" y="508.6357">Create Account</text><polygon fill="#181818" points="387.5,547.1953,397.5,551.1953,387.5,555.1953,391.5,551.1953" style="stroke:#181818;stroke-width:1.0;"/><line style="stroke:#181818;stroke-width:1.0;" x1="224.5" x2="393.5" y1="551.1953" y2="551.1953"/><text fill="#000000" font-family="sans-serif" font-size="13" lengthAdjust="spacing" textLength="90" x="231.5" y="529.9873">Create Account</text><text fill="#000000" font-family="sans-serif" font-size="13" lengthAdjust="spacing" textLength="78" x="231.5" y="546.3389">[XML/HTTPS]</text><polygon fill="#181818" points="541.5,593.8984,551.5,597.8984,541.5,601.8984,545.5,597.8984" style="stroke:#181818;stroke-width:1.0;"/><line style="stroke:#181818;stroke-width:1.0;" x1="224.5" x2="547.5" y1="597.8984" y2="597.8984"/><text fill="#000000" font-family="sans-serif" font-size="13" lengthAdjust="spacing" textLength="269" x="231.5" y="576.6904">Send New Account Created Notification E-Mail</text><text fill="#000000" font-family="sans-serif" font-size="13" lengthAdjust="spacing" textLength="44" x="231.5" y="593.042">[SMTP]</text><rect fill="#EEEEEE" height="3" style="stroke:#EEEEEE;stroke-width:1.0;" width="625" x="0" y="634.0742"/><line style="stroke:#000000;stroke-width:1.0;" x1="0" x2="625" y1="634.0742" y2="634.0742"/><line style="stroke:#000000;stroke-width:1.0;" x1="0" x2="625" y1="637.0742" y2="637.0742"/><rect fill="#EEEEEE" height="24.3516" style="stroke:#000000;stroke-width:2.0;" width="241" x="192" y="622.8984"/><text fill="#000000" font-family="sans-serif" font-size="13" font-weight="bold" lengthAdjust="spacing" textLength="223" x="198" y="640.3936">Customer - Banking via Mobile App</text><polygon fill="#181818" points="212.5,675.6016,222.5,679.6016,212.5,683.6016,216.5,679.6016" style="stroke:#181818;stroke-width:1.0;"/><line style="stroke:#181818;stroke-width:1.0;" x1="42.5" x2="218.5" y1="679.6016" y2="679.6016"/><text fill="#000000" font-family="sans-serif" font-size="13" lengthAdjust="spacing" textLength="40" x="49.5" y="674.7451">Sign In</text><polygon fill="#181818" points="212.5,705.9531,222.5,709.9531,212.5,713.9531,216.5,709.9531" style="stroke:#181818;stroke-width:1.0;"/><line style="stroke:#181818;stroke-width:1.0;" x1="42.5" x2="218.5" y1="709.9531" y2="709.9531"/><text fill="#000000" font-family="sans-serif" font-size="13" lengthAdjust="spacing" textLength="132" x="49.5" y="705.0967">View Customer Details</text><path d="M156,724.9531 L344,724.9531 L344,733.3047 L334,743.3047 L156,743.3047 L156,724.9531 " fill="#EEEEEE" style="stroke:#000000;stroke-width:1.5;"/><rect fill="none" height="111.7578" style="stroke:#000000;stroke-width:1.5;" width="346" x="156" y="724.9531"/><text fill="#000000" font-family="sans-serif" font-size="13" font-weight="bold" lengthAdjust="spacing" textLength="143" x="171" y="739.4482">View Customer Details</text><polygon fill="#181818" points="387.5,778.0078,397.5,782.0078,387.5,786.0078,391.5,782.0078" style="stroke:#181818;stroke-width:1.0;"/><line style="stroke:#181818;stroke-width:1.0;" x1="224.5" x2="393.5" y1="782.0078" y2="782.0078"/><text fill="#000000" font-family="sans-serif" font-size="13" lengthAdjust="spacing" textLength="81" x="231.5" y="760.7998">Get Customer</text><text fill="#000000" font-family="sans-serif" font-size="13" lengthAdjust="spacing" textLength="78" x="231.5" y="777.1514">[XML/HTTPS]</text><polygon fill="#181818" points="387.5,824.7109,397.5,828.7109,387.5,832.7109,391.5,828.7109" style="stroke:#181818;stroke-width:1.0;"/><line style="stroke:#181818;stroke-width:1.0;" x1="224.5" x2="393.5" y1="828.7109" y2="828.7109"/><text fill="#000000" font-family="sans-serif" font-size="13" lengthAdjust="spacing" textLength="140" x="231.5" y="807.5029">Get Customer Accounts</text><text fill="#000000" font-family="sans-serif" font-size="13" lengthAdjust="spacing" textLength="78" x="231.5" y="823.8545">[XML/HTTPS]</text><polygon fill="#181818" points="212.5,862.0625,222.5,866.0625,212.5,870.0625,216.5,866.0625" style="stroke:#181818;stroke-width:1.0;"/><line style="stroke:#181818;stroke-width:1.0;" x1="42.5" x2="218.5" y1="866.0625" y2="866.0625"/><text fill="#000000" font-family="sans-serif" font-size="13" lengthAdjust="spacing" textLength="158" x="49.5" y="861.2061">View Account Transactions</text><path d="M156,881.0625 L372,881.0625 L372,889.4141 L362,899.4141 L156,899.4141 L156,881.0625 " fill="#EEEEEE" style="stroke:#000000;stroke-width:1.5;"/><rect fill="none" height="65.0547" style="stroke:#000000;stroke-width:1.5;" width="346" x="156" y="881.0625"/><text fill="#000000" font-family="sans-serif" font-size="13" font-weight="bold" lengthAdjust="spacing" textLength="171" x="171" y="895.5576">View Account Transactions</text><polygon fill="#181818" points="387.5,934.1172,397.5,938.1172,387.5,942.1172,391.5,938.1172" style="stroke:#181818;stroke-width:1.0;"/><line style="stroke:#181818;stroke-width:1.0;" x1="224.5" x2="393.5" y1="938.1172" y2="938.1172"/><text fill="#000000" font-family="sans-serif" font-size="13" lengthAdjust="spacing" textLength="151" x="231.5" y="916.9092">Get Account Transactions</text><text fill="#000000" font-family="sans-serif" font-size="13" lengthAdjust="spacing" textLength="78" x="231.5" y="933.2607">[XML/HTTPS]</text><rect fill="#EEEEEE" height="3" style="stroke:#EEEEEE;stroke-width:1.0;" width="625" x="0" y="974.293"/><line style="stroke:#000000;stroke-width:1.0;" x1="0" x2="625" y1="974.293" y2="974.293"/><line style="stroke:#000000;stroke-width:1.0;" x1="0" x2="625" y1="977.293" y2="977.293"/><rect fill="#EEEEEE" height="24.3516" style="stroke:#000000;stroke-width:2.0;" width="266" x="179.5" y="963.1172"/><text fill="#000000" font-family="sans-serif" font-size="13" font-weight="bold" lengthAdjust="spacing" textLength="248" x="185.5" y="980.6123">Customer - Receive E-Mail Notifications</text><polygon fill="#181818" points="541.5,1032.1719,551.5,1036.1719,541.5,1040.1719,545.5,1036.1719" style="stroke:#181818;stroke-width:1.0;"/><line style="stroke:#181818;stroke-width:1.0;" x1="42.5" x2="547.5" y1="1036.1719" y2="1036.1719"/><text fill="#000000" font-family="sans-serif" font-size="13" lengthAdjust="spacing" textLength="270" x="49.5" y="1014.9639">Receive Password Changed Notification E-Mail</text><text fill="#000000" font-family="sans-serif" font-size="13" lengthAdjust="spacing" textLength="43" x="49.5" y="1031.3154">[POP3]</text><polygon fill="#181818" points="541.5,1078.875,551.5,1082.875,541.5,1086.875,545.5,1082.875" style="stroke:#181818;stroke-width:1.0;"/><line style="stroke:#181818;stroke-width:1.0;" x1="42.5" x2="547.5" y1="1082.875" y2="1082.875"/><text fill="#000000" font-family="sans-serif" font-size="13" lengthAdjust="spacing" textLength="284" x="49.5" y="1061.667">Receive New Account Created Notification E-Mail</text><text fill="#000000" font-family="sans-serif" font-size="13" lengthAdjust="spacing" textLength="43" x="49.5" y="1078.0186">[POP3]</text><!--SRC=[xLN1Ji904BttAoQUz50yU3F1190eYM1Z6pLH3iior8rbj-uEe7_lbhRA4b28XNZWr6HsvhtPDpkl92X1Q8eOcao-Gf1myA6bncc2X73SbaC_KhxzdDXuY6yJb1pdAPBmdI31AIQUbp9DWekKIOAZriIG6gC-0cOow0pP0jSQd9GsjVBOBUfOF2sHvdq86IyNXsf4CwOn_324OrChyujq5wpBX1nfDiOI3VAotq2_wegoFEvYjtsRbMm8sCvo2nIlNeVoxbR1ihEfOF200sYaATJhtdgzmB_OGX0uXnwRYfWHLeaPYbX2HrO9UIzmzYtC9PALp7YnLfDqpTaMy3ytithUjgSh-n1BscVvzDYzERsEeY3ixvaR6fohYIJZDe5oMFa42YQ8D9E6SH9AEbDOURuVDLPHxrIGbaQxDoLleS9ISFTNTmbtz0mN72fRRoiaz1QcdVTWOuh4I72MQG-v1Tg6mcuKvEAlzxQk6WZxYwdUtWvMTB2YVsf5xZRS8KSnnM9jd5KoVze9TtTBce0PCrDw2AqN9kErknlS1cVzghatjuwStli4]--></g></svg>