<?xml version="1.0" encoding="us-ascii" standalone="no"?><svg xmlns="http://www.w3.org/2000/svg" xmlns:xlink="http://www.w3.org/1999/xlink" contentStyleType="text/css" height="600px" preserveAspectRatio="none" style="width:1074px;height:600px;background:#FFFFFF;" version="1.1" viewBox="0 0 1074 600" width="1074px" zoomAndPan="magnify"><defs/><g><text fill="#000000" font-family="sans-serif" font-size="14" font-weight="bold" lengthAdjust="spacing" textLength="1046" x="10" y="29.5332">E Commerce Platform - Deliver - Fulfilment - Fulfilment Service - Message Handler - Handle Order Status Changed Event - Sequence - Container level</text><rect fill="#FFFFFF" height="542.7891" style="stroke:#181818;stroke-width:0.5;" width="574" x="254.25" y="44.6094"/><text fill="#000000" font-family="sans-serif" font-size="13" font-weight="bold" lengthAdjust="spacing" textLength="116" x="483.25" y="58.1045">Fulfilment Service</text><rect fill="#FFFFFF" height="542.7891" style="stroke:#181818;stroke-width:0.5;" width="94" x="830.25" y="44.6094"/><text fill="#000000" font-family="sans-serif" font-size="13" font-weight="bold" lengthAdjust="spacing" textLength="88" x="833.25" y="58.1045">Order Service</text><rect fill="none" height="327.8672" style="stroke:#000000;stroke-width:1.5;" width="769" x="238.25" y="175.9219"/><rect fill="none" height="265.1641" style="stroke:#000000;stroke-width:1.5;" width="749" x="248.25" y="231.625"/><rect fill="none" height="141.7578" style="stroke:#000000;stroke-width:1.5;" width="577.5" x="409.75" y="317.6797"/><rect fill="none" height="79.0547" style="stroke:#000000;stroke-width:1.5;" width="414.5" x="419.75" y="373.3828"/><line style="stroke:#181818;stroke-width:0.5;stroke-dasharray:5.0,5.0;" x1="86.75" x2="86.75" y1="128.5703" y2="520.7891"/><line style="stroke:#181818;stroke-width:0.5;stroke-dasharray:5.0,5.0;" x1="320.25" x2="320.25" y1="128.5703" y2="520.7891"/><line style="stroke:#181818;stroke-width:0.5;stroke-dasharray:5.0,5.0;" x1="462.75" x2="462.75" y1="128.5703" y2="520.7891"/><line style="stroke:#181818;stroke-width:0.5;stroke-dasharray:5.0,5.0;" x1="606.25" x2="606.25" y1="128.5703" y2="520.7891"/><line style="stroke:#181818;stroke-width:0.5;stroke-dasharray:5.0,5.0;" x1="783.25" x2="783.25" y1="128.5703" y2="520.7891"/><line style="stroke:#181818;stroke-width:0.5;stroke-dasharray:5.0,5.0;" x1="877.25" x2="877.25" y1="128.5703" y2="520.7891"/><line style="stroke:#181818;stroke-width:0.5;stroke-dasharray:5.0,5.0;" x1="953.25" x2="953.25" y1="128.5703" y2="520.7891"/><rect fill="#E2E2F0" height="31.6094" rx="2.5" ry="2.5" style="stroke:#181818;stroke-width:0.5;" width="65" x="54.75" y="95.9609"/><text fill="#000000" font-family="sans-serif" font-size="14" lengthAdjust="spacing" textLength="51" x="61.75" y="117.4941">External</text><rect fill="#E2E2F0" height="31.6094" rx="2.5" ry="2.5" style="stroke:#181818;stroke-width:0.5;" width="65" x="54.75" y="519.7891"/><text fill="#000000" font-family="sans-serif" font-size="14" lengthAdjust="spacing" textLength="51" x="61.75" y="541.3223">External</text><rect fill="#E2E2F0" height="31.6094" rx="2.5" ry="2.5" style="stroke:#181818;stroke-width:0.5;" width="124" x="258.25" y="95.9609"/><text fill="#000000" font-family="sans-serif" font-size="14" lengthAdjust="spacing" textLength="110" x="265.25" y="117.4941">Message Handler</text><rect fill="#E2E2F0" height="31.6094" rx="2.5" ry="2.5" style="stroke:#181818;stroke-width:0.5;" width="124" x="258.25" y="519.7891"/><text fill="#000000" font-family="sans-serif" font-size="14" lengthAdjust="spacing" textLength="110" x="265.25" y="541.3223">Message Handler</text><text fill="#000000" font-family="sans-serif" font-size="14" lengthAdjust="spacing" textLength="61" x="429.75" y="125.4941">Database</text><path d="M445.25,74.9609 C445.25,64.9609 463.25,64.9609 463.25,64.9609 C463.25,64.9609 481.25,64.9609 481.25,74.9609 L481.25,100.9609 C481.25,110.9609 463.25,110.9609 463.25,110.9609 C463.25,110.9609 445.25,110.9609 445.25,100.9609 L445.25,74.9609 " fill="#E2E2F0" style="stroke:#181818;stroke-width:1.5;"/><path d="M445.25,74.9609 C445.25,84.9609 463.25,84.9609 463.25,84.9609 C463.25,84.9609 481.25,84.9609 481.25,74.9609 " fill="none" style="stroke:#181818;stroke-width:1.5;"/><text fill="#000000" font-family="sans-serif" font-size="14" lengthAdjust="spacing" textLength="61" x="429.75" y="534.3223">Database</text><path d="M445.25,547.3984 C445.25,537.3984 463.25,537.3984 463.25,537.3984 C463.25,537.3984 481.25,537.3984 481.25,547.3984 L481.25,573.3984 C481.25,583.3984 463.25,583.3984 463.25,583.3984 C463.25,583.3984 445.25,583.3984 445.25,573.3984 L445.25,547.3984 " fill="#E2E2F0" style="stroke:#181818;stroke-width:1.5;"/><path d="M445.25,547.3984 C445.25,557.3984 463.25,557.3984 463.25,557.3984 C463.25,557.3984 481.25,557.3984 481.25,547.3984 " fill="none" style="stroke:#181818;stroke-width:1.5;"/><rect fill="#E2E2F0" height="31.6094" rx="2.5" ry="2.5" style="stroke:#181818;stroke-width:0.5;" width="34" x="589.25" y="95.9609"/><text fill="#000000" font-family="sans-serif" font-size="14" lengthAdjust="spacing" textLength="20" x="596.25" y="117.4941">Api</text><rect fill="#E2E2F0" height="31.6094" rx="2.5" ry="2.5" style="stroke:#181818;stroke-width:0.5;" width="34" x="589.25" y="519.7891"/><text fill="#000000" font-family="sans-serif" font-size="14" lengthAdjust="spacing" textLength="20" x="596.25" y="541.3223">Api</text><rect fill="#E2E2F0" height="31.6094" rx="2.5" ry="2.5" style="stroke:#181818;stroke-width:0.5;" width="82" x="742.25" y="95.9609"/><text fill="#000000" font-family="sans-serif" font-size="14" lengthAdjust="spacing" textLength="68" x="749.25" y="117.4941">Messaging</text><rect fill="#E2E2F0" height="31.6094" rx="2.5" ry="2.5" style="stroke:#181818;stroke-width:0.5;" width="82" x="742.25" y="519.7891"/><text fill="#000000" font-family="sans-serif" font-size="14" lengthAdjust="spacing" textLength="68" x="749.25" y="541.3223">Messaging</text><rect fill="#E2E2F0" height="31.6094" rx="2.5" ry="2.5" style="stroke:#181818;stroke-width:0.5;" width="82" x="836.25" y="95.9609"/><text fill="#000000" font-family="sans-serif" font-size="14" lengthAdjust="spacing" textLength="68" x="843.25" y="117.4941">Messaging</text><rect fill="#E2E2F0" height="31.6094" rx="2.5" ry="2.5" style="stroke:#181818;stroke-width:0.5;" width="82" x="836.25" y="519.7891"/><text fill="#000000" font-family="sans-serif" font-size="14" lengthAdjust="spacing" textLength="68" x="843.25" y="541.3223">Messaging</text><rect fill="#E2E2F0" height="31.6094" rx="2.5" ry="2.5" style="stroke:#181818;stroke-width:0.5;" width="47" x="930.25" y="95.9609"/><text fill="#000000" font-family="sans-serif" font-size="14" lengthAdjust="spacing" textLength="33" x="937.25" y="117.4941">WMS</text><rect fill="#E2E2F0" height="31.6094" rx="2.5" ry="2.5" style="stroke:#181818;stroke-width:0.5;" width="47" x="930.25" y="519.7891"/><text fill="#000000" font-family="sans-serif" font-size="14" lengthAdjust="spacing" textLength="33" x="937.25" y="541.3223">WMS</text><polygon fill="#181818" points="308.25,156.9219,318.25,160.9219,308.25,164.9219,312.25,160.9219" style="stroke:#181818;stroke-width:1.0;"/><line style="stroke:#181818;stroke-width:1.0;" x1="87.25" x2="314.25" y1="160.9219" y2="160.9219"/><text fill="#000000" font-family="sans-serif" font-size="13" lengthAdjust="spacing" textLength="209" x="94.25" y="156.0654">Handle Order Status Changed Event</text><path d="M238.25,175.9219 L511.25,175.9219 L511.25,184.2734 L501.25,194.2734 L238.25,194.2734 L238.25,175.9219 " fill="#EEEEEE" style="stroke:#000000;stroke-width:1.5;"/><rect fill="none" height="327.8672" style="stroke:#000000;stroke-width:1.5;" width="769" x="238.25" y="175.9219"/><text fill="#000000" font-family="sans-serif" font-size="13" font-weight="bold" lengthAdjust="spacing" textLength="228" x="253.25" y="190.417">Handle Order Status Changed Event</text><polygon fill="#181818" points="865.25,212.625,875.25,216.625,865.25,220.625,869.25,216.625" style="stroke:#181818;stroke-width:1.0;"/><line style="stroke:#181818;stroke-width:1.0;" x1="320.25" x2="871.25" y1="216.625" y2="216.625"/><text fill="#000000" font-family="sans-serif" font-size="13" lengthAdjust="spacing" textLength="214" x="327.25" y="211.7686">Receive Order Status Changed Event</text><path d="M248.25,231.625 L309.25,231.625 L309.25,239.9766 L299.25,249.9766 L248.25,249.9766 L248.25,231.625 " fill="#EEEEEE" style="stroke:#000000;stroke-width:1.5;"/><rect fill="none" height="265.1641" style="stroke:#000000;stroke-width:1.5;" width="749" x="248.25" y="231.625"/><text fill="#000000" font-family="sans-serif" font-size="13" font-weight="bold" lengthAdjust="spacing" textLength="16" x="263.25" y="246.1201">alt</text><text fill="#000000" font-family="sans-serif" font-size="11" font-weight="bold" lengthAdjust="spacing" textLength="201" x="324.25" y="245.0439">[Order Status is 'Pending Shipment']</text><polygon fill="#181818" points="451.25,268.3281,461.25,272.3281,451.25,276.3281,455.25,272.3281" style="stroke:#181818;stroke-width:1.0;"/><line style="stroke:#181818;stroke-width:1.0;" x1="320.25" x2="457.25" y1="272.3281" y2="272.3281"/><text fill="#000000" font-family="sans-serif" font-size="13" lengthAdjust="spacing" textLength="68" x="327.25" y="267.4717">Insert Order</text><polygon fill="#181818" points="941.75,298.6797,951.75,302.6797,941.75,306.6797,945.75,302.6797" style="stroke:#181818;stroke-width:1.0;"/><line style="stroke:#181818;stroke-width:1.0;" x1="320.25" x2="947.75" y1="302.6797" y2="302.6797"/><text fill="#000000" font-family="sans-serif" font-size="13" lengthAdjust="spacing" textLength="62" x="327.25" y="297.8232">Ship Order</text><path d="M409.75,317.6797 L523.75,317.6797 L523.75,326.0313 L513.75,336.0313 L409.75,336.0313 L409.75,317.6797 " fill="#EEEEEE" style="stroke:#000000;stroke-width:1.5;"/><rect fill="none" height="141.7578" style="stroke:#000000;stroke-width:1.5;" width="577.5" x="409.75" y="317.6797"/><text fill="#000000" font-family="sans-serif" font-size="13" font-weight="bold" lengthAdjust="spacing" textLength="69" x="424.75" y="332.1748">Ship Order</text><polygon fill="#181818" points="617.25,354.3828,607.25,358.3828,617.25,362.3828,613.25,358.3828" style="stroke:#181818;stroke-width:1.0;"/><line style="stroke:#181818;stroke-width:1.0;" x1="611.25" x2="952.75" y1="358.3828" y2="358.3828"/><text fill="#000000" font-family="sans-serif" font-size="13" lengthAdjust="spacing" textLength="150" x="623.25" y="353.5264">Post Order Shipped Event</text><path d="M419.75,373.3828 L627.75,373.3828 L627.75,381.7344 L617.75,391.7344 L419.75,391.7344 L419.75,373.3828 " fill="#EEEEEE" style="stroke:#000000;stroke-width:1.5;"/><rect fill="none" height="79.0547" style="stroke:#000000;stroke-width:1.5;" width="414.5" x="419.75" y="373.3828"/><text fill="#000000" font-family="sans-serif" font-size="13" font-weight="bold" lengthAdjust="spacing" textLength="163" x="434.75" y="387.8779">Post Order Shipped Event</text><polygon fill="#181818" points="474.25,410.0859,464.25,414.0859,474.25,418.0859,470.25,414.0859" style="stroke:#181818;stroke-width:1.0;"/><line style="stroke:#181818;stroke-width:1.0;" x1="468.25" x2="605.25" y1="414.0859" y2="414.0859"/><text fill="#000000" font-family="sans-serif" font-size="13" lengthAdjust="spacing" textLength="119" x="480.25" y="409.2295">Update Order Status</text><polygon fill="#181818" points="771.25,440.4375,781.25,444.4375,771.25,448.4375,775.25,444.4375" style="stroke:#181818;stroke-width:1.0;"/><line style="stroke:#181818;stroke-width:1.0;" x1="606.25" x2="777.25" y1="444.4375" y2="444.4375"/><text fill="#000000" font-family="sans-serif" font-size="13" lengthAdjust="spacing" textLength="153" x="613.25" y="439.5811">Send Order Shipped Event</text><polygon fill="#181818" points="451.25,484.7891,461.25,488.7891,451.25,492.7891,455.25,488.7891" style="stroke:#181818;stroke-width:1.0;"/><line style="stroke:#181818;stroke-width:1.0;" x1="320.25" x2="457.25" y1="488.7891" y2="488.7891"/><text fill="#000000" font-family="sans-serif" font-size="13" lengthAdjust="spacing" textLength="119" x="327.25" y="483.9326">Update Order Status</text><!--SRC=[rLKzRy8m4DtzAqxfm4IcJXqgLK1R1bJKg68-o06M72UrdK3_VO_W0E6ZHOYe9L8aExRVU_Vkpd7IAO8UTD8a8JCX62fqqzGaq8OkALcGuT5phgPI9QHTVHAHAIGVQiE0hCKPmIlgM9LdrYDuCp5F8uSkjz2PevvH3BrY3HNHPqww1EYasg7Kl5THGKg838sJ4vaXxmnwIqT6eme06UM-htdwhD956ALJjq13qPTrbDYmshYU2p5Ebn0SAWxWRZINZWJmKsFQ2wGax5NkLEQ4tffmYtoWPBlaESDDY3RqB9waL16Zmp5QWg3hHmrnL_27iJzbiY5EHZvbjTIpHarcV44w1gu4uUl1r-HvfN1Qtmin3JhgKi9v34lK0MhEwr6jvVfvCcioHeFeSeFui13dDmoq7nklTdZu_MuGCvFcsHdx6XTxr91hPvujUQS9iUwVOaNbwilIGcl8HRD2YEOoMv6t_iYIQzrAR4LVMp8-rFyR3NSMQrtPxfMkItRdmyMmZHZCLp3h7QPsKqIiDDjhk9FBpUXfkf8-ClwhrdlgbYBPlH-YrS_XM6RuU_dUVDiVIrOLdFW6]--></g></svg>