<?xml version="1.0" encoding="us-ascii" standalone="no"?><svg xmlns="http://www.w3.org/2000/svg" xmlns:xlink="http://www.w3.org/1999/xlink" contentStyleType="text/css" height="318px" preserveAspectRatio="none" style="width:1060px;height:318px;background:#FFFFFF;" version="1.1" viewBox="0 0 1060 318" width="1060px" zoomAndPan="magnify"><defs/><g><text fill="#000000" font-family="sans-serif" font-size="14" font-weight="bold" lengthAdjust="spacing" textLength="1032" x="10" y="29.5332">E Commerce Platform - Deliver - Fulfilment - Fulfilment Service - Message Handler - Handle Order Status Changed Event - Sequence - Context level</text><rect fill="none" height="141.7578" style="stroke:#000000;stroke-width:1.5;" width="441" x="394.75" y="123.5703"/><rect fill="none" height="48.7031" style="stroke:#000000;stroke-width:1.5;" width="315" x="404.75" y="209.625"/><line style="stroke:#181818;stroke-width:0.5;stroke-dasharray:5.0,5.0;" x1="244.25" x2="244.25" y1="76.2188" y2="282.3281"/><line style="stroke:#181818;stroke-width:0.5;stroke-dasharray:5.0,5.0;" x1="477.75" x2="477.75" y1="76.2188" y2="282.3281"/><line style="stroke:#181818;stroke-width:0.5;stroke-dasharray:5.0,5.0;" x1="601.75" x2="601.75" y1="76.2188" y2="282.3281"/><line style="stroke:#181818;stroke-width:0.5;stroke-dasharray:5.0,5.0;" x1="685.75" x2="685.75" y1="76.2188" y2="282.3281"/><line style="stroke:#181818;stroke-width:0.5;stroke-dasharray:5.0,5.0;" x1="772.75" x2="772.75" y1="76.2188" y2="282.3281"/><rect fill="#E2E2F0" height="31.6094" rx="2.5" ry="2.5" style="stroke:#181818;stroke-width:0.5;" width="65" x="212.25" y="43.6094"/><text fill="#000000" font-family="sans-serif" font-size="14" lengthAdjust="spacing" textLength="51" x="219.25" y="65.1426">External</text><rect fill="#E2E2F0" height="31.6094" rx="2.5" ry="2.5" style="stroke:#181818;stroke-width:0.5;" width="65" x="212.25" y="281.3281"/><text fill="#000000" font-family="sans-serif" font-size="14" lengthAdjust="spacing" textLength="51" x="219.25" y="302.8613">External</text><rect fill="#E2E2F0" height="31.6094" rx="2.5" ry="2.5" style="stroke:#181818;stroke-width:0.5;" width="126" x="414.75" y="43.6094"/><text fill="#000000" font-family="sans-serif" font-size="14" lengthAdjust="spacing" textLength="112" x="421.75" y="65.1426">Fulfilment Service</text><rect fill="#E2E2F0" height="31.6094" rx="2.5" ry="2.5" style="stroke:#181818;stroke-width:0.5;" width="126" x="414.75" y="281.3281"/><text fill="#000000" font-family="sans-serif" font-size="14" lengthAdjust="spacing" textLength="112" x="421.75" y="302.8613">Fulfilment Service</text><rect fill="#E2E2F0" height="31.6094" rx="2.5" ry="2.5" style="stroke:#181818;stroke-width:0.5;" width="102" x="550.75" y="43.6094"/><text fill="#000000" font-family="sans-serif" font-size="14" lengthAdjust="spacing" textLength="88" x="557.75" y="65.1426">Order Service</text><rect fill="#E2E2F0" height="31.6094" rx="2.5" ry="2.5" style="stroke:#181818;stroke-width:0.5;" width="102" x="550.75" y="281.3281"/><text fill="#000000" font-family="sans-serif" font-size="14" lengthAdjust="spacing" textLength="88" x="557.75" y="302.8613">Order Service</text><rect fill="#E2E2F0" height="31.6094" rx="2.5" ry="2.5" style="stroke:#181818;stroke-width:0.5;" width="47" x="662.75" y="43.6094"/><text fill="#000000" font-family="sans-serif" font-size="14" lengthAdjust="spacing" textLength="33" x="669.75" y="65.1426">WMS</text><rect fill="#E2E2F0" height="31.6094" rx="2.5" ry="2.5" style="stroke:#181818;stroke-width:0.5;" width="47" x="662.75" y="281.3281"/><text fill="#000000" font-family="sans-serif" font-size="14" lengthAdjust="spacing" textLength="33" x="669.75" y="302.8613">WMS</text><rect fill="#E2E2F0" height="31.6094" rx="2.5" ry="2.5" style="stroke:#181818;stroke-width:0.5;" width="106" x="719.75" y="43.6094"/><text fill="#000000" font-family="sans-serif" font-size="14" lengthAdjust="spacing" textLength="92" x="726.75" y="65.1426">..OrderService</text><rect fill="#E2E2F0" height="31.6094" rx="2.5" ry="2.5" style="stroke:#181818;stroke-width:0.5;" width="106" x="719.75" y="281.3281"/><text fill="#000000" font-family="sans-serif" font-size="14" lengthAdjust="spacing" textLength="92" x="726.75" y="302.8613">..OrderService</text><polygon fill="#181818" points="465.75,104.5703,475.75,108.5703,465.75,112.5703,469.75,108.5703" style="stroke:#181818;stroke-width:1.0;"/><line style="stroke:#181818;stroke-width:1.0;" x1="244.75" x2="471.75" y1="108.5703" y2="108.5703"/><text fill="#000000" font-family="sans-serif" font-size="13" lengthAdjust="spacing" textLength="209" x="251.75" y="103.7139">Handle Order Status Changed Event</text><path d="M394.75,123.5703 L667.75,123.5703 L667.75,131.9219 L657.75,141.9219 L394.75,141.9219 L394.75,123.5703 " fill="#EEEEEE" style="stroke:#000000;stroke-width:1.5;"/><rect fill="none" height="141.7578" style="stroke:#000000;stroke-width:1.5;" width="441" x="394.75" y="123.5703"/><text fill="#000000" font-family="sans-serif" font-size="13" font-weight="bold" lengthAdjust="spacing" textLength="228" x="409.75" y="138.0654">Handle Order Status Changed Event</text><polygon fill="#181818" points="760.75,160.2734,770.75,164.2734,760.75,168.2734,764.75,164.2734" style="stroke:#181818;stroke-width:1.0;"/><line style="stroke:#181818;stroke-width:1.0;" x1="477.75" x2="766.75" y1="164.2734" y2="164.2734"/><text fill="#000000" font-family="sans-serif" font-size="13" lengthAdjust="spacing" textLength="214" x="484.75" y="159.417">Receive Order Status Changed Event</text><polygon fill="#181818" points="674.25,190.625,684.25,194.625,674.25,198.625,678.25,194.625" style="stroke:#181818;stroke-width:1.0;"/><line style="stroke:#181818;stroke-width:1.0;" x1="477.75" x2="680.25" y1="194.625" y2="194.625"/><text fill="#000000" font-family="sans-serif" font-size="13" lengthAdjust="spacing" textLength="62" x="484.75" y="189.7686">Ship Order</text><path d="M404.75,209.625 L518.75,209.625 L518.75,217.9766 L508.75,227.9766 L404.75,227.9766 L404.75,209.625 " fill="#EEEEEE" style="stroke:#000000;stroke-width:1.5;"/><rect fill="none" height="48.7031" style="stroke:#000000;stroke-width:1.5;" width="315" x="404.75" y="209.625"/><text fill="#000000" font-family="sans-serif" font-size="13" font-weight="bold" lengthAdjust="spacing" textLength="69" x="419.75" y="224.1201">Ship Order</text><polygon fill="#181818" points="488.75,246.3281,478.75,250.3281,488.75,254.3281,484.75,250.3281" style="stroke:#181818;stroke-width:1.0;"/><line style="stroke:#181818;stroke-width:1.0;" x1="482.75" x2="685.25" y1="250.3281" y2="250.3281"/><text fill="#000000" font-family="sans-serif" font-size="13" lengthAdjust="spacing" textLength="150" x="494.75" y="245.4717">Post Order Shipped Event</text><!--SRC=[lL8xJyCm4DxpAqxTcuc9WQLDWI6YmWEprNnDBJbswbpIykyvvK69Ma4LHGoMVFRTzxBPi0KbjF95WR03RQtclGy5BMaDQne4sMrgkpUsWEDneH0Q8qDBIb5LEWUzQ9VPTgRRqLl8f5IikQveTT0kHqP9qq4f76ku5c3b7UFCPD70Hb6f0vkTARNqBP8p8pXj5wG5u-5LEiF6-bEi_9vFEa1zLeoYYeV6hXw3NCjkuPB1-M0yxct7bu4hdijL3pMcwZt_ol8CXw0PQnGILDoEfDf9XZSPs_kRP1-fccv4XgFe_aHf-JHJOFJuzmU9yk3hyew-cII9kNWKj8Xynmw2z3_iKvzGTAg3AJkHVMe_3YR3pldQMr_naA98Ax_ZWylQ5Nq1]--></g></svg>