<?xml version="1.0" encoding="us-ascii" standalone="no"?><svg xmlns="http://www.w3.org/2000/svg" xmlns:xlink="http://www.w3.org/1999/xlink" contentStyleType="text/css" height="531px" preserveAspectRatio="none" style="width:1074px;height:531px;background:#FFFFFF;" version="1.1" viewBox="0 0 1074 531" width="1074px" zoomAndPan="magnify"><defs/><g><text fill="#000000" font-family="sans-serif" font-size="14" font-weight="bold" lengthAdjust="spacing" textLength="1046" x="10" y="29.5332">E Commerce Platform - Deliver - Fulfilment - Fulfilment Service - Message Handler - Handle Order Status Changed Event - Sequence - Container level</text><rect fill="#FFFFFF" height="480.7891" style="stroke:#181818;stroke-width:0.5;" width="574" x="254.25" y="44.6094"/><text fill="#000000" font-family="sans-serif" font-size="13" font-weight="bold" lengthAdjust="spacing" textLength="116" x="483.25" y="58.1045">Fulfilment Service</text><rect fill="#FFFFFF" height="480.7891" style="stroke:#181818;stroke-width:0.5;" width="94" x="830.25" y="44.6094"/><text fill="#000000" font-family="sans-serif" font-size="13" font-weight="bold" lengthAdjust="spacing" textLength="88" x="833.25" y="58.1045">Order Service</text><rect fill="none" height="327.8672" style="stroke:#000000;stroke-width:1.5;" width="769" x="238.25" y="144.9219"/><rect fill="none" height="265.1641" style="stroke:#000000;stroke-width:1.5;" width="749" x="248.25" y="200.625"/><rect fill="none" height="141.7578" style="stroke:#000000;stroke-width:1.5;" width="581.5" x="405.75" y="286.6797"/><rect fill="none" height="79.0547" style="stroke:#000000;stroke-width:1.5;" width="418.5" x="415.75" y="342.3828"/><line style="stroke:#181818;stroke-width:0.5;stroke-dasharray:5.0,5.0;" x1="86.75" x2="86.75" y1="97.5703" y2="489.7891"/><line style="stroke:#181818;stroke-width:0.5;stroke-dasharray:5.0,5.0;" x1="320.25" x2="320.25" y1="97.5703" y2="489.7891"/><line style="stroke:#181818;stroke-width:0.5;stroke-dasharray:5.0,5.0;" x1="462.75" x2="462.75" y1="97.5703" y2="489.7891"/><line style="stroke:#181818;stroke-width:0.5;stroke-dasharray:5.0,5.0;" x1="606.25" x2="606.25" y1="97.5703" y2="489.7891"/><line style="stroke:#181818;stroke-width:0.5;stroke-dasharray:5.0,5.0;" x1="783.25" x2="783.25" y1="97.5703" y2="489.7891"/><line style="stroke:#181818;stroke-width:0.5;stroke-dasharray:5.0,5.0;" x1="877.25" x2="877.25" y1="97.5703" y2="489.7891"/><line style="stroke:#181818;stroke-width:0.5;stroke-dasharray:5.0,5.0;" x1="953.25" x2="953.25" y1="97.5703" y2="489.7891"/><rect fill="#E2E2F0" height="31.6094" rx="2.5" ry="2.5" style="stroke:#181818;stroke-width:0.5;" width="65" x="54.75" y="64.9609"/><text fill="#000000" font-family="sans-serif" font-size="14" lengthAdjust="spacing" textLength="51" x="61.75" y="86.4941">External</text><rect fill="#E2E2F0" height="31.6094" rx="2.5" ry="2.5" style="stroke:#181818;stroke-width:0.5;" width="65" x="54.75" y="488.7891"/><text fill="#000000" font-family="sans-serif" font-size="14" lengthAdjust="spacing" textLength="51" x="61.75" y="510.3223">External</text><rect fill="#E2E2F0" height="31.6094" rx="2.5" ry="2.5" style="stroke:#181818;stroke-width:0.5;" width="124" x="258.25" y="64.9609"/><text fill="#000000" font-family="sans-serif" font-size="14" lengthAdjust="spacing" textLength="110" x="265.25" y="86.4941">Message Handler</text><rect fill="#E2E2F0" height="31.6094" rx="2.5" ry="2.5" style="stroke:#181818;stroke-width:0.5;" width="124" x="258.25" y="488.7891"/><text fill="#000000" font-family="sans-serif" font-size="14" lengthAdjust="spacing" textLength="110" x="265.25" y="510.3223">Message Handler</text><rect fill="#E2E2F0" height="31.6094" rx="2.5" ry="2.5" style="stroke:#181818;stroke-width:0.5;" width="75" x="425.75" y="64.9609"/><text fill="#000000" font-family="sans-serif" font-size="14" lengthAdjust="spacing" textLength="61" x="432.75" y="86.4941">Database</text><rect fill="#E2E2F0" height="31.6094" rx="2.5" ry="2.5" style="stroke:#181818;stroke-width:0.5;" width="75" x="425.75" y="488.7891"/><text fill="#000000" font-family="sans-serif" font-size="14" lengthAdjust="spacing" textLength="61" x="432.75" y="510.3223">Database</text><rect fill="#E2E2F0" height="31.6094" rx="2.5" ry="2.5" style="stroke:#181818;stroke-width:0.5;" width="34" x="589.25" y="64.9609"/><text fill="#000000" font-family="sans-serif" font-size="14" lengthAdjust="spacing" textLength="20" x="596.25" y="86.4941">Api</text><rect fill="#E2E2F0" height="31.6094" rx="2.5" ry="2.5" style="stroke:#181818;stroke-width:0.5;" width="34" x="589.25" y="488.7891"/><text fill="#000000" font-family="sans-serif" font-size="14" lengthAdjust="spacing" textLength="20" x="596.25" y="510.3223">Api</text><rect fill="#E2E2F0" height="31.6094" rx="2.5" ry="2.5" style="stroke:#181818;stroke-width:0.5;" width="82" x="742.25" y="64.9609"/><text fill="#000000" font-family="sans-serif" font-size="14" lengthAdjust="spacing" textLength="68" x="749.25" y="86.4941">Messaging</text><rect fill="#E2E2F0" height="31.6094" rx="2.5" ry="2.5" style="stroke:#181818;stroke-width:0.5;" width="82" x="742.25" y="488.7891"/><text fill="#000000" font-family="sans-serif" font-size="14" lengthAdjust="spacing" textLength="68" x="749.25" y="510.3223">Messaging</text><rect fill="#E2E2F0" height="31.6094" rx="2.5" ry="2.5" style="stroke:#181818;stroke-width:0.5;" width="82" x="836.25" y="64.9609"/><text fill="#000000" font-family="sans-serif" font-size="14" lengthAdjust="spacing" textLength="68" x="843.25" y="86.4941">Messaging</text><rect fill="#E2E2F0" height="31.6094" rx="2.5" ry="2.5" style="stroke:#181818;stroke-width:0.5;" width="82" x="836.25" y="488.7891"/><text fill="#000000" font-family="sans-serif" font-size="14" lengthAdjust="spacing" textLength="68" x="843.25" y="510.3223">Messaging</text><rect fill="#E2E2F0" height="31.6094" rx="2.5" ry="2.5" style="stroke:#181818;stroke-width:0.5;" width="47" x="930.25" y="64.9609"/><text fill="#000000" font-family="sans-serif" font-size="14" lengthAdjust="spacing" textLength="33" x="937.25" y="86.4941">WMS</text><rect fill="#E2E2F0" height="31.6094" rx="2.5" ry="2.5" style="stroke:#181818;stroke-width:0.5;" width="47" x="930.25" y="488.7891"/><text fill="#000000" font-family="sans-serif" font-size="14" lengthAdjust="spacing" textLength="33" x="937.25" y="510.3223">WMS</text><polygon fill="#181818" points="308.25,125.9219,318.25,129.9219,308.25,133.9219,312.25,129.9219" style="stroke:#181818;stroke-width:1.0;"/><line style="stroke:#181818;stroke-width:1.0;" x1="87.25" x2="314.25" y1="129.9219" y2="129.9219"/><text fill="#000000" font-family="sans-serif" font-size="13" lengthAdjust="spacing" textLength="209" x="94.25" y="125.0654">Handle Order Status Changed Event</text><path d="M238.25,144.9219 L511.25,144.9219 L511.25,153.2734 L501.25,163.2734 L238.25,163.2734 L238.25,144.9219 " fill="#EEEEEE" style="stroke:#000000;stroke-width:1.5;"/><rect fill="none" height="327.8672" style="stroke:#000000;stroke-width:1.5;" width="769" x="238.25" y="144.9219"/><text fill="#000000" font-family="sans-serif" font-size="13" font-weight="bold" lengthAdjust="spacing" textLength="228" x="253.25" y="159.417">Handle Order Status Changed Event</text><polygon fill="#181818" points="865.25,181.625,875.25,185.625,865.25,189.625,869.25,185.625" style="stroke:#181818;stroke-width:1.0;"/><line style="stroke:#181818;stroke-width:1.0;" x1="320.25" x2="871.25" y1="185.625" y2="185.625"/><text fill="#000000" font-family="sans-serif" font-size="13" lengthAdjust="spacing" textLength="214" x="327.25" y="180.7686">Receive Order Status Changed Event</text><path d="M248.25,200.625 L309.25,200.625 L309.25,208.9766 L299.25,218.9766 L248.25,218.9766 L248.25,200.625 " fill="#EEEEEE" style="stroke:#000000;stroke-width:1.5;"/><rect fill="none" height="265.1641" style="stroke:#000000;stroke-width:1.5;" width="749" x="248.25" y="200.625"/><text fill="#000000" font-family="sans-serif" font-size="13" font-weight="bold" lengthAdjust="spacing" textLength="16" x="263.25" y="215.1201">alt</text><text fill="#000000" font-family="sans-serif" font-size="11" font-weight="bold" lengthAdjust="spacing" textLength="201" x="324.25" y="214.0439">[Order Status is 'Pending Shipment']</text><polygon fill="#181818" points="451.25,237.3281,461.25,241.3281,451.25,245.3281,455.25,241.3281" style="stroke:#181818;stroke-width:1.0;"/><line style="stroke:#181818;stroke-width:1.0;" x1="320.25" x2="457.25" y1="241.3281" y2="241.3281"/><text fill="#000000" font-family="sans-serif" font-size="13" lengthAdjust="spacing" textLength="68" x="327.25" y="236.4717">Insert Order</text><polygon fill="#181818" points="941.75,267.6797,951.75,271.6797,941.75,275.6797,945.75,271.6797" style="stroke:#181818;stroke-width:1.0;"/><line style="stroke:#181818;stroke-width:1.0;" x1="320.25" x2="947.75" y1="271.6797" y2="271.6797"/><text fill="#000000" font-family="sans-serif" font-size="13" lengthAdjust="spacing" textLength="62" x="327.25" y="266.8232">Ship Order</text><path d="M405.75,286.6797 L519.75,286.6797 L519.75,295.0313 L509.75,305.0313 L405.75,305.0313 L405.75,286.6797 " fill="#EEEEEE" style="stroke:#000000;stroke-width:1.5;"/><rect fill="none" height="141.7578" style="stroke:#000000;stroke-width:1.5;" width="581.5" x="405.75" y="286.6797"/><text fill="#000000" font-family="sans-serif" font-size="13" font-weight="bold" lengthAdjust="spacing" textLength="69" x="420.75" y="301.1748">Ship Order</text><polygon fill="#181818" points="617.25,323.3828,607.25,327.3828,617.25,331.3828,613.25,327.3828" style="stroke:#181818;stroke-width:1.0;"/><line style="stroke:#181818;stroke-width:1.0;" x1="611.25" x2="952.75" y1="327.3828" y2="327.3828"/><text fill="#000000" font-family="sans-serif" font-size="13" lengthAdjust="spacing" textLength="150" x="623.25" y="322.5264">Post Order Shipped Event</text><path d="M415.75,342.3828 L623.75,342.3828 L623.75,350.7344 L613.75,360.7344 L415.75,360.7344 L415.75,342.3828 " fill="#EEEEEE" style="stroke:#000000;stroke-width:1.5;"/><rect fill="none" height="79.0547" style="stroke:#000000;stroke-width:1.5;" width="418.5" x="415.75" y="342.3828"/><text fill="#000000" font-family="sans-serif" font-size="13" font-weight="bold" lengthAdjust="spacing" textLength="163" x="430.75" y="356.8779">Post Order Shipped Event</text><polygon fill="#181818" points="474.25,379.0859,464.25,383.0859,474.25,387.0859,470.25,383.0859" style="stroke:#181818;stroke-width:1.0;"/><line style="stroke:#181818;stroke-width:1.0;" x1="468.25" x2="605.25" y1="383.0859" y2="383.0859"/><text fill="#000000" font-family="sans-serif" font-size="13" lengthAdjust="spacing" textLength="119" x="480.25" y="378.2295">Update Order Status</text><polygon fill="#181818" points="771.25,409.4375,781.25,413.4375,771.25,417.4375,775.25,413.4375" style="stroke:#181818;stroke-width:1.0;"/><line style="stroke:#181818;stroke-width:1.0;" x1="606.25" x2="777.25" y1="413.4375" y2="413.4375"/><text fill="#000000" font-family="sans-serif" font-size="13" lengthAdjust="spacing" textLength="153" x="613.25" y="408.5811">Send Order Shipped Event</text><polygon fill="#181818" points="451.25,453.7891,461.25,457.7891,451.25,461.7891,455.25,457.7891" style="stroke:#181818;stroke-width:1.0;"/><line style="stroke:#181818;stroke-width:1.0;" x1="320.25" x2="457.25" y1="457.7891" y2="457.7891"/><text fill="#000000" font-family="sans-serif" font-size="13" lengthAdjust="spacing" textLength="119" x="327.25" y="452.9326">Update Order Status</text><!--SRC=[rLNBRi8m4BpxArRqm8cSUkgXKWLfom4LDQeuBsG1IuwJskRHl-_c1OH06o6YbaYHujVCxEokuwHJ13xquoWYCoCOAtJps4JGWm4fkIR3NyyhDPSg8ksgWu3CMlAX7ep8MbmGlA8ELNOc_u8t4_8mSEXM5lfBr0iAmL_dK05zhaXd0FrOEvIQzofQan8YGUFaJ2R8Epl-rf7Hg3g0Z78_r3nyLl762-Avsw2XuCiwYgnNRip7GapZBNJgYZjmDrbAHmBugJ0T1P8H-gKxfJbUOOstHwufsIyLdDukHEiLB0L9NSK07KxHKalq9NoT-2cHBN4oyZctfLwqwZFZ2z8XS368eYIAicnM3UVrlH3JeAC1HPnABqCTeURKdjIQhJUJMP4n6GMN6yI7XMZUCz1xRBtWuU7twq4iJBnA6knhNUn9GwwTURRadMR4kd-A5PMhBaiBtJ4NJOeGB6MIadV_o99htKfinL1RCaMe_pSQxYpMcjfUACrBzc3YOjXM3EOhcFMEOxih8bQQ73NSsULszBHTIHz9o5rQQPfRYkJmVWZIdyEfpF1yzjvysvzALXcS-0O0]--></g></svg>