<?xml version="1.0" encoding="us-ascii" standalone="no"?><svg xmlns="http://www.w3.org/2000/svg" xmlns:xlink="http://www.w3.org/1999/xlink" contentStyleType="text/css" height="600px" preserveAspectRatio="none" style="width:1074px;height:600px;background:#FFFFFF;" version="1.1" viewBox="0 0 1074 600" width="1074px" zoomAndPan="magnify"><defs/><g><text fill="#000000" font-family="sans-serif" font-size="14" font-weight="bold" lengthAdjust="spacing" textLength="1046" x="10" y="29.5332">E Commerce Platform - Deliver - Fulfilment - Fulfilment Service - Message Handler - Handle Order Status Changed Event - Sequence - Container level</text><rect fill="#FFFFFF" height="542.7891" style="stroke:#181818;stroke-width:0.5;" width="577" x="251.75" y="44.6094"/><text fill="#000000" font-family="sans-serif" font-size="13" font-weight="bold" lengthAdjust="spacing" textLength="116" x="482.25" y="58.1045">Fulfilment Service</text><rect fill="#FFFFFF" height="542.7891" style="stroke:#181818;stroke-width:0.5;" width="96" x="830.75" y="44.6094"/><text fill="#000000" font-family="sans-serif" font-size="13" font-weight="bold" lengthAdjust="spacing" textLength="88" x="834.75" y="58.1045">Order Service</text><rect fill="none" height="327.8672" style="stroke:#000000;stroke-width:1.5;" width="774" x="235.75" y="175.9219"/><rect fill="none" height="265.1641" style="stroke:#000000;stroke-width:1.5;" width="754" x="245.75" y="231.625"/><rect fill="none" height="141.7578" style="stroke:#000000;stroke-width:1.5;" width="582.5" x="407.25" y="317.6797"/><rect fill="none" height="79.0547" style="stroke:#000000;stroke-width:1.5;" width="417.5" x="417.25" y="373.3828"/><line style="stroke:#181818;stroke-width:0.5;stroke-dasharray:5.0,5.0;" x1="84.25" x2="84.25" y1="128.5703" y2="520.7891"/><line style="stroke:#181818;stroke-width:0.5;stroke-dasharray:5.0,5.0;" x1="317.75" x2="317.75" y1="128.5703" y2="520.7891"/><line style="stroke:#181818;stroke-width:0.5;stroke-dasharray:5.0,5.0;" x1="460.25" x2="460.25" y1="128.5703" y2="520.7891"/><line style="stroke:#181818;stroke-width:0.5;stroke-dasharray:5.0,5.0;" x1="603.75" x2="603.75" y1="128.5703" y2="520.7891"/><line style="stroke:#181818;stroke-width:0.5;stroke-dasharray:5.0,5.0;" x1="780.75" x2="780.75" y1="128.5703" y2="520.7891"/><line style="stroke:#181818;stroke-width:0.5;stroke-dasharray:5.0,5.0;" x1="878.75" x2="878.75" y1="128.5703" y2="520.7891"/><line style="stroke:#181818;stroke-width:0.5;stroke-dasharray:5.0,5.0;" x1="955.75" x2="955.75" y1="128.5703" y2="520.7891"/><rect fill="#E2E2F0" height="31.6094" rx="2.5" ry="2.5" style="stroke:#181818;stroke-width:0.5;" width="65" x="52.25" y="95.9609"/><text fill="#000000" font-family="sans-serif" font-size="14" lengthAdjust="spacing" textLength="51" x="59.25" y="117.4941">External</text><rect fill="#E2E2F0" height="31.6094" rx="2.5" ry="2.5" style="stroke:#181818;stroke-width:0.5;" width="65" x="52.25" y="519.7891"/><text fill="#000000" font-family="sans-serif" font-size="14" lengthAdjust="spacing" textLength="51" x="59.25" y="541.3223">External</text><rect fill="#E2E2F0" height="31.6094" rx="2.5" ry="2.5" style="stroke:#181818;stroke-width:0.5;" width="124" x="255.75" y="95.9609"/><text fill="#000000" font-family="sans-serif" font-size="14" lengthAdjust="spacing" textLength="110" x="262.75" y="117.4941">Message Handler</text><rect fill="#E2E2F0" height="31.6094" rx="2.5" ry="2.5" style="stroke:#181818;stroke-width:0.5;" width="124" x="255.75" y="519.7891"/><text fill="#000000" font-family="sans-serif" font-size="14" lengthAdjust="spacing" textLength="110" x="262.75" y="541.3223">Message Handler</text><text fill="#000000" font-family="sans-serif" font-size="14" lengthAdjust="spacing" textLength="61" x="427.25" y="125.4941">Database</text><path d="M442.75,74.9609 C442.75,64.9609 460.75,64.9609 460.75,64.9609 C460.75,64.9609 478.75,64.9609 478.75,74.9609 L478.75,100.9609 C478.75,110.9609 460.75,110.9609 460.75,110.9609 C460.75,110.9609 442.75,110.9609 442.75,100.9609 L442.75,74.9609 " fill="#E2E2F0" style="stroke:#181818;stroke-width:1.5;"/><path d="M442.75,74.9609 C442.75,84.9609 460.75,84.9609 460.75,84.9609 C460.75,84.9609 478.75,84.9609 478.75,74.9609 " fill="none" style="stroke:#181818;stroke-width:1.5;"/><text fill="#000000" font-family="sans-serif" font-size="14" lengthAdjust="spacing" textLength="61" x="427.25" y="534.3223">Database</text><path d="M442.75,547.3984 C442.75,537.3984 460.75,537.3984 460.75,537.3984 C460.75,537.3984 478.75,537.3984 478.75,547.3984 L478.75,573.3984 C478.75,583.3984 460.75,583.3984 460.75,583.3984 C460.75,583.3984 442.75,583.3984 442.75,573.3984 L442.75,547.3984 " fill="#E2E2F0" style="stroke:#181818;stroke-width:1.5;"/><path d="M442.75,547.3984 C442.75,557.3984 460.75,557.3984 460.75,557.3984 C460.75,557.3984 478.75,557.3984 478.75,547.3984 " fill="none" style="stroke:#181818;stroke-width:1.5;"/><rect fill="#E2E2F0" height="31.6094" rx="2.5" ry="2.5" style="stroke:#181818;stroke-width:0.5;" width="34" x="586.75" y="95.9609"/><text fill="#000000" font-family="sans-serif" font-size="14" lengthAdjust="spacing" textLength="20" x="593.75" y="117.4941">Api</text><rect fill="#E2E2F0" height="31.6094" rx="2.5" ry="2.5" style="stroke:#181818;stroke-width:0.5;" width="34" x="586.75" y="519.7891"/><text fill="#000000" font-family="sans-serif" font-size="14" lengthAdjust="spacing" textLength="20" x="593.75" y="541.3223">Api</text><path d="M741.75,100.9609 L819.75,100.9609 C824.75,100.9609 824.75,114.7656 824.75,114.7656 C824.75,114.7656 824.75,128.5703 819.75,128.5703 L741.75,128.5703 C736.75,128.5703 736.75,114.7656 736.75,114.7656 C736.75,114.7656 736.75,100.9609 741.75,100.9609 " fill="#E2E2F0" style="stroke:#181818;stroke-width:0.5;"/><path d="M819.75,100.9609 C814.75,100.9609 814.75,114.7656 814.75,114.7656 C814.75,128.5703 819.75,128.5703 819.75,128.5703 " fill="none" style="stroke:#181818;stroke-width:0.5;"/><text fill="#000000" font-family="sans-serif" font-size="14" lengthAdjust="spacing" textLength="68" x="741.75" y="120.4941">Messaging</text><path d="M741.75,519.7891 L819.75,519.7891 C824.75,519.7891 824.75,533.5938 824.75,533.5938 C824.75,533.5938 824.75,547.3984 819.75,547.3984 L741.75,547.3984 C736.75,547.3984 736.75,533.5938 736.75,533.5938 C736.75,533.5938 736.75,519.7891 741.75,519.7891 " fill="#E2E2F0" style="stroke:#181818;stroke-width:0.5;"/><path d="M819.75,519.7891 C814.75,519.7891 814.75,533.5938 814.75,533.5938 C814.75,547.3984 819.75,547.3984 819.75,547.3984 " fill="none" style="stroke:#181818;stroke-width:0.5;"/><text fill="#000000" font-family="sans-serif" font-size="14" lengthAdjust="spacing" textLength="68" x="741.75" y="539.3223">Messaging</text><path d="M839.75,100.9609 L917.75,100.9609 C922.75,100.9609 922.75,114.7656 922.75,114.7656 C922.75,114.7656 922.75,128.5703 917.75,128.5703 L839.75,128.5703 C834.75,128.5703 834.75,114.7656 834.75,114.7656 C834.75,114.7656 834.75,100.9609 839.75,100.9609 " fill="#E2E2F0" style="stroke:#181818;stroke-width:0.5;"/><path d="M917.75,100.9609 C912.75,100.9609 912.75,114.7656 912.75,114.7656 C912.75,128.5703 917.75,128.5703 917.75,128.5703 " fill="none" style="stroke:#181818;stroke-width:0.5;"/><text fill="#000000" font-family="sans-serif" font-size="14" lengthAdjust="spacing" textLength="68" x="839.75" y="120.4941">Messaging</text><path d="M839.75,519.7891 L917.75,519.7891 C922.75,519.7891 922.75,533.5938 922.75,533.5938 C922.75,533.5938 922.75,547.3984 917.75,547.3984 L839.75,547.3984 C834.75,547.3984 834.75,533.5938 834.75,533.5938 C834.75,533.5938 834.75,519.7891 839.75,519.7891 " fill="#E2E2F0" style="stroke:#181818;stroke-width:0.5;"/><path d="M917.75,519.7891 C912.75,519.7891 912.75,533.5938 912.75,533.5938 C912.75,547.3984 917.75,547.3984 917.75,547.3984 " fill="none" style="stroke:#181818;stroke-width:0.5;"/><text fill="#000000" font-family="sans-serif" font-size="14" lengthAdjust="spacing" textLength="68" x="839.75" y="539.3223">Messaging</text><rect fill="#E2E2F0" height="31.6094" rx="2.5" ry="2.5" style="stroke:#181818;stroke-width:0.5;" width="47" x="932.75" y="95.9609"/><text fill="#000000" font-family="sans-serif" font-size="14" lengthAdjust="spacing" textLength="33" x="939.75" y="117.4941">WMS</text><rect fill="#E2E2F0" height="31.6094" rx="2.5" ry="2.5" style="stroke:#181818;stroke-width:0.5;" width="47" x="932.75" y="519.7891"/><text fill="#000000" font-family="sans-serif" font-size="14" lengthAdjust="spacing" textLength="33" x="939.75" y="541.3223">WMS</text><polygon fill="#181818" points="305.75,156.9219,315.75,160.9219,305.75,164.9219,309.75,160.9219" style="stroke:#181818;stroke-width:1.0;"/><line style="stroke:#181818;stroke-width:1.0;" x1="84.75" x2="311.75" y1="160.9219" y2="160.9219"/><text fill="#000000" font-family="sans-serif" font-size="13" lengthAdjust="spacing" textLength="209" x="91.75" y="156.0654">Handle Order Status Changed Event</text><path d="M235.75,175.9219 L508.75,175.9219 L508.75,184.2734 L498.75,194.2734 L235.75,194.2734 L235.75,175.9219 " fill="#EEEEEE" style="stroke:#000000;stroke-width:1.5;"/><rect fill="none" height="327.8672" style="stroke:#000000;stroke-width:1.5;" width="774" x="235.75" y="175.9219"/><text fill="#000000" font-family="sans-serif" font-size="13" font-weight="bold" lengthAdjust="spacing" textLength="228" x="250.75" y="190.417">Handle Order Status Changed Event</text><polygon fill="#181818" points="866.75,212.625,876.75,216.625,866.75,220.625,870.75,216.625" style="stroke:#181818;stroke-width:1.0;"/><line style="stroke:#181818;stroke-width:1.0;" x1="317.75" x2="872.75" y1="216.625" y2="216.625"/><text fill="#000000" font-family="sans-serif" font-size="13" lengthAdjust="spacing" textLength="214" x="324.75" y="211.7686">Receive Order Status Changed Event</text><path d="M245.75,231.625 L306.75,231.625 L306.75,239.9766 L296.75,249.9766 L245.75,249.9766 L245.75,231.625 " fill="#EEEEEE" style="stroke:#000000;stroke-width:1.5;"/><rect fill="none" height="265.1641" style="stroke:#000000;stroke-width:1.5;" width="754" x="245.75" y="231.625"/><text fill="#000000" font-family="sans-serif" font-size="13" font-weight="bold" lengthAdjust="spacing" textLength="16" x="260.75" y="246.1201">alt</text><text fill="#000000" font-family="sans-serif" font-size="11" font-weight="bold" lengthAdjust="spacing" textLength="201" x="321.75" y="245.0439">[Order Status is 'Pending Shipment']</text><polygon fill="#181818" points="448.75,268.3281,458.75,272.3281,448.75,276.3281,452.75,272.3281" style="stroke:#181818;stroke-width:1.0;"/><line style="stroke:#181818;stroke-width:1.0;" x1="317.75" x2="454.75" y1="272.3281" y2="272.3281"/><text fill="#000000" font-family="sans-serif" font-size="13" lengthAdjust="spacing" textLength="68" x="324.75" y="267.4717">Insert Order</text><polygon fill="#181818" points="944.25,298.6797,954.25,302.6797,944.25,306.6797,948.25,302.6797" style="stroke:#181818;stroke-width:1.0;"/><line style="stroke:#181818;stroke-width:1.0;" x1="317.75" x2="950.25" y1="302.6797" y2="302.6797"/><text fill="#000000" font-family="sans-serif" font-size="13" lengthAdjust="spacing" textLength="62" x="324.75" y="297.8232">Ship Order</text><path d="M407.25,317.6797 L521.25,317.6797 L521.25,326.0313 L511.25,336.0313 L407.25,336.0313 L407.25,317.6797 " fill="#EEEEEE" style="stroke:#000000;stroke-width:1.5;"/><rect fill="none" height="141.7578" style="stroke:#000000;stroke-width:1.5;" width="582.5" x="407.25" y="317.6797"/><text fill="#000000" font-family="sans-serif" font-size="13" font-weight="bold" lengthAdjust="spacing" textLength="69" x="422.25" y="332.1748">Ship Order</text><polygon fill="#181818" points="614.75,354.3828,604.75,358.3828,614.75,362.3828,610.75,358.3828" style="stroke:#181818;stroke-width:1.0;"/><line style="stroke:#181818;stroke-width:1.0;" x1="608.75" x2="955.25" y1="358.3828" y2="358.3828"/><text fill="#000000" font-family="sans-serif" font-size="13" lengthAdjust="spacing" textLength="150" x="620.75" y="353.5264">Post Order Shipped Event</text><path d="M417.25,373.3828 L625.25,373.3828 L625.25,381.7344 L615.25,391.7344 L417.25,391.7344 L417.25,373.3828 " fill="#EEEEEE" style="stroke:#000000;stroke-width:1.5;"/><rect fill="none" height="79.0547" style="stroke:#000000;stroke-width:1.5;" width="417.5" x="417.25" y="373.3828"/><text fill="#000000" font-family="sans-serif" font-size="13" font-weight="bold" lengthAdjust="spacing" textLength="163" x="432.25" y="387.8779">Post Order Shipped Event</text><polygon fill="#181818" points="471.75,410.0859,461.75,414.0859,471.75,418.0859,467.75,414.0859" style="stroke:#181818;stroke-width:1.0;"/><line style="stroke:#181818;stroke-width:1.0;" x1="465.75" x2="602.75" y1="414.0859" y2="414.0859"/><text fill="#000000" font-family="sans-serif" font-size="13" lengthAdjust="spacing" textLength="119" x="477.75" y="409.2295">Update Order Status</text><polygon fill="#181818" points="768.75,440.4375,778.75,444.4375,768.75,448.4375,772.75,444.4375" style="stroke:#181818;stroke-width:1.0;"/><line style="stroke:#181818;stroke-width:1.0;" x1="603.75" x2="774.75" y1="444.4375" y2="444.4375"/><text fill="#000000" font-family="sans-serif" font-size="13" lengthAdjust="spacing" textLength="153" x="610.75" y="439.5811">Send Order Shipped Event</text><polygon fill="#181818" points="448.75,484.7891,458.75,488.7891,448.75,492.7891,452.75,488.7891" style="stroke:#181818;stroke-width:1.0;"/><line style="stroke:#181818;stroke-width:1.0;" x1="317.75" x2="454.75" y1="488.7891" y2="488.7891"/><text fill="#000000" font-family="sans-serif" font-size="13" lengthAdjust="spacing" textLength="119" x="324.75" y="483.9326">Update Order Status</text><!--SRC=[rLKzRy8m4DtzAqxfm4IcJXqgLNoq3AYeKSLya0CiEKvgEq3_VO_W086qHOYe9L8aExRVU_Vkpd7IAO8UTD8a8JCb62bqizGaq8OkARaamwD-hcPI9QHTTHAHMKe-r8OXMOjpWXVKiIhER4VmQcAUHWvTRg6pG3sd67hBBLH47pdf0g2JQeTIyrv5Ir92P6YSdCeCUMVGMpio6bK0o2Zt0ytJlafNOPJEt0eDHP_MKMB3SkDsBiGaNKDmgZY0k_52EXB0JuNfA922i5UwKveJUcl2FVA9alsIvmnt8ThGitYIGaMC3YTe2OAk7pN4NSAVnlwKoOOu6RcWutJdL9eizRnHUnbVa8w1Qq3uIl3LM5C4Pofx9YP0HrrAE7TXWJT4pRciLLcidoUmaednCBhS6ZuinFbD0kt7nYiS7dw_3yJSf7bsnhx6nTOQSktCioLlD2NM_LEig5nrMLfeZRXeDWZHGcORyjOVMNAjcuYj66XBneVwVwFXpcAj6zkzqct97dou6BOHW_dQPRsZrEwAY9LcHmttxN8pUfgkfFUC_wJLdhgbI0xlXsZpSwZB37yltfjl-xfabS69Bm00]--></g></svg>