<?xml version="1.0" encoding="us-ascii" standalone="no"?><svg xmlns="http://www.w3.org/2000/svg" xmlns:xlink="http://www.w3.org/1999/xlink" contentStyleType="text/css" height="446px" preserveAspectRatio="none" style="width:869px;height:446px;background:#FFFFFF;" version="1.1" viewBox="0 0 869 446" width="869px" zoomAndPan="magnify"><defs/><g><text fill="#000000" font-family="sans-serif" font-size="14" font-weight="bold" lengthAdjust="spacing" textLength="841" x="10" y="29.5332">E Commerce Platform - Generate Demand - Storefront - Storefront App - Delete Basket Item - Sequence - Container level</text><rect fill="#FFFFFF" height="389.0313" style="stroke:#181818;stroke-width:0.5;" width="148.5" x="527" y="44.6094"/><text fill="#000000" font-family="sans-serif" font-size="13" font-weight="bold" lengthAdjust="spacing" textLength="94" x="554.25" y="58.1045">Basket Service</text><rect fill="none" height="174.1094" style="stroke:#000000;stroke-width:1.5;" width="441.5" x="260" y="175.9219"/><rect fill="none" height="111.4063" style="stroke:#000000;stroke-width:1.5;" width="292.5" x="399" y="231.625"/><rect fill="none" height="48.7031" style="stroke:#000000;stroke-width:1.5;" width="160.5" x="521" y="287.3281"/><line style="stroke:#181818;stroke-width:0.5;stroke-dasharray:5.0,5.0;" x1="187.5" x2="187.5" y1="128.5703" y2="367.0313"/><line style="stroke:#181818;stroke-width:0.5;stroke-dasharray:5.0,5.0;" x1="323" x2="323" y1="128.5703" y2="367.0313"/><line style="stroke:#181818;stroke-width:0.5;stroke-dasharray:5.0,5.0;" x1="458" x2="458" y1="128.5703" y2="367.0313"/><line style="stroke:#181818;stroke-width:0.5;stroke-dasharray:5.0,5.0;" x1="548" x2="548" y1="128.5703" y2="367.0313"/><line style="stroke:#181818;stroke-width:0.5;stroke-dasharray:5.0,5.0;" x1="637.5" x2="637.5" y1="128.5703" y2="367.0313"/><rect fill="#E2E2F0" height="31.6094" rx="2.5" ry="2.5" style="stroke:#181818;stroke-width:0.5;" width="65" x="155.5" y="95.9609"/><text fill="#000000" font-family="sans-serif" font-size="14" lengthAdjust="spacing" textLength="51" x="162.5" y="117.4941">External</text><rect fill="#E2E2F0" height="31.6094" rx="2.5" ry="2.5" style="stroke:#181818;stroke-width:0.5;" width="65" x="155.5" y="366.0313"/><text fill="#000000" font-family="sans-serif" font-size="14" lengthAdjust="spacing" textLength="51" x="162.5" y="387.5645">External</text><rect fill="#E2E2F0" height="31.6094" rx="2.5" ry="2.5" style="stroke:#181818;stroke-width:0.5;" width="106" x="270" y="95.9609"/><text fill="#000000" font-family="sans-serif" font-size="14" lengthAdjust="spacing" textLength="92" x="277" y="117.4941">Storefront App</text><rect fill="#E2E2F0" height="31.6094" rx="2.5" ry="2.5" style="stroke:#181818;stroke-width:0.5;" width="106" x="270" y="366.0313"/><text fill="#000000" font-family="sans-serif" font-size="14" lengthAdjust="spacing" textLength="92" x="277" y="387.5645">Storefront App</text><rect fill="#E2E2F0" height="31.6094" rx="2.5" ry="2.5" style="stroke:#181818;stroke-width:0.5;" width="98" x="409" y="95.9609"/><text fill="#000000" font-family="sans-serif" font-size="14" lengthAdjust="spacing" textLength="84" x="416" y="117.4941">Storefront Bff</text><rect fill="#E2E2F0" height="31.6094" rx="2.5" ry="2.5" style="stroke:#181818;stroke-width:0.5;" width="98" x="409" y="366.0313"/><text fill="#000000" font-family="sans-serif" font-size="14" lengthAdjust="spacing" textLength="84" x="416" y="387.5645">Storefront Bff</text><rect fill="#E2E2F0" height="31.6094" rx="2.5" ry="2.5" style="stroke:#181818;stroke-width:0.5;" width="34" x="531" y="95.9609"/><text fill="#000000" font-family="sans-serif" font-size="14" lengthAdjust="spacing" textLength="20" x="538" y="117.4941">Api</text><rect fill="#E2E2F0" height="31.6094" rx="2.5" ry="2.5" style="stroke:#181818;stroke-width:0.5;" width="34" x="531" y="366.0313"/><text fill="#000000" font-family="sans-serif" font-size="14" lengthAdjust="spacing" textLength="20" x="538" y="387.5645">Api</text><text fill="#000000" font-family="sans-serif" font-size="14" lengthAdjust="spacing" textLength="61" x="604.5" y="125.4941">Database</text><path d="M620,74.9609 C620,64.9609 638,64.9609 638,64.9609 C638,64.9609 656,64.9609 656,74.9609 L656,100.9609 C656,110.9609 638,110.9609 638,110.9609 C638,110.9609 620,110.9609 620,100.9609 L620,74.9609 " fill="#E2E2F0" style="stroke:#181818;stroke-width:1.5;"/><path d="M620,74.9609 C620,84.9609 638,84.9609 638,84.9609 C638,84.9609 656,84.9609 656,74.9609 " fill="none" style="stroke:#181818;stroke-width:1.5;"/><text fill="#000000" font-family="sans-serif" font-size="14" lengthAdjust="spacing" textLength="61" x="604.5" y="380.5645">Database</text><path d="M620,393.6406 C620,383.6406 638,383.6406 638,383.6406 C638,383.6406 656,383.6406 656,393.6406 L656,419.6406 C656,429.6406 638,429.6406 638,429.6406 C638,429.6406 620,429.6406 620,419.6406 L620,393.6406 " fill="#E2E2F0" style="stroke:#181818;stroke-width:1.5;"/><path d="M620,393.6406 C620,403.6406 638,403.6406 638,403.6406 C638,403.6406 656,403.6406 656,393.6406 " fill="none" style="stroke:#181818;stroke-width:1.5;"/><polygon fill="#181818" points="311,156.9219,321,160.9219,311,164.9219,315,160.9219" style="stroke:#181818;stroke-width:1.0;"/><line style="stroke:#181818;stroke-width:1.0;" x1="188" x2="317" y1="160.9219" y2="160.9219"/><text fill="#000000" font-family="sans-serif" font-size="13" lengthAdjust="spacing" textLength="111" x="195" y="156.0654">Delete Basket Item</text><path d="M260,175.9219 L424,175.9219 L424,184.2734 L414,194.2734 L260,194.2734 L260,175.9219 " fill="#EEEEEE" style="stroke:#000000;stroke-width:1.5;"/><rect fill="none" height="174.1094" style="stroke:#000000;stroke-width:1.5;" width="441.5" x="260" y="175.9219"/><text fill="#000000" font-family="sans-serif" font-size="13" font-weight="bold" lengthAdjust="spacing" textLength="119" x="275" y="190.417">Delete Basket Item</text><polygon fill="#181818" points="446,212.625,456,216.625,446,220.625,450,216.625" style="stroke:#181818;stroke-width:1.0;"/><line style="stroke:#181818;stroke-width:1.0;" x1="323" x2="452" y1="216.625" y2="216.625"/><text fill="#000000" font-family="sans-serif" font-size="13" lengthAdjust="spacing" textLength="111" x="330" y="211.7686">Delete Basket Item</text><path d="M399,231.625 L563,231.625 L563,239.9766 L553,249.9766 L399,249.9766 L399,231.625 " fill="#EEEEEE" style="stroke:#000000;stroke-width:1.5;"/><rect fill="none" height="111.4063" style="stroke:#000000;stroke-width:1.5;" width="292.5" x="399" y="231.625"/><text fill="#000000" font-family="sans-serif" font-size="13" font-weight="bold" lengthAdjust="spacing" textLength="119" x="414" y="246.1201">Delete Basket Item</text><polygon fill="#181818" points="536,268.3281,546,272.3281,536,276.3281,540,272.3281" style="stroke:#181818;stroke-width:1.0;"/><line style="stroke:#181818;stroke-width:1.0;" x1="458" x2="542" y1="272.3281" y2="272.3281"/><text fill="#000000" font-family="sans-serif" font-size="13" lengthAdjust="spacing" textLength="66" x="465" y="267.4717">Delete Item</text><path d="M521,287.3281 L639,287.3281 L639,295.6797 L629,305.6797 L521,305.6797 L521,287.3281 " fill="#EEEEEE" style="stroke:#000000;stroke-width:1.5;"/><rect fill="none" height="48.7031" style="stroke:#000000;stroke-width:1.5;" width="160.5" x="521" y="287.3281"/><text fill="#000000" font-family="sans-serif" font-size="13" font-weight="bold" lengthAdjust="spacing" textLength="73" x="536" y="301.8232">Delete Item</text><polygon fill="#181818" points="626,324.0313,636,328.0313,626,332.0313,630,328.0313" style="stroke:#181818;stroke-width:1.0;"/><line style="stroke:#181818;stroke-width:1.0;" x1="548" x2="632" y1="328.0313" y2="328.0313"/><text fill="#000000" font-family="sans-serif" font-size="13" lengthAdjust="spacing" textLength="66" x="555" y="323.1748">Delete Item</text><!--SRC=[nP8_RuCm4CLtVueJdM7grA5I4j8eMoM6pXToj5QDJUtBdtxxNW84KL89HKIrXEGxc_VpinzhDWHBMBYo99yJl1hamlaIObYH9OzCa5A9TYkTZ9sdmZlB_M9MLT98oP3idcFu98OrqqaaewyTMH6EXM4PjMY2eJqPfIhqh7DTeKX4ooEJjsWYm02BnxMLyiMuGvAvWW_eAViE8XcITcDTzqNwPpfBBLjhhREazLNRIhf_1gXkITJ-9CsBOaAIg2crSKU8celCoEzrJX4yl7re9WKoUaUPLNeSlnOSiEjsWqakhnGI4JxJjiYumK0GfStiFhnMNP6aJQv0AJK-210_J_VMy7GbpUhTkrrrRM4wxcGc94R_OkB47MFYXYnsVeP6nZcu1NeFCstGVpcIs5y-zGC0]--></g></svg>