<?xml version="1.0" encoding="us-ascii" standalone="no"?><svg xmlns="http://www.w3.org/2000/svg" xmlns:xlink="http://www.w3.org/1999/xlink" contentStyleType="text/css" height="364px" preserveAspectRatio="none" style="width:855px;height:364px;background:#FFFFFF;" version="1.1" viewBox="0 0 855 364" width="855px" zoomAndPan="magnify"><defs/><g><text fill="#000000" font-family="sans-serif" font-size="14" font-weight="bold" lengthAdjust="spacing" textLength="827" x="10" y="29.5332">E Commerce Platform - Generate Demand - Storefront - Storefront App - Delete Basket Item - Sequence - Context level</text><rect fill="none" height="187.1094" style="stroke:#000000;stroke-width:1.5;" width="416" x="265.75" y="123.5703"/><rect fill="none" height="124.4063" style="stroke:#000000;stroke-width:1.5;" width="267" x="404.75" y="179.2734"/><rect fill="none" height="61.7031" style="stroke:#000000;stroke-width:1.5;" width="149" x="512.75" y="234.9766"/><line style="stroke:#181818;stroke-width:0.5;stroke-dasharray:5.0,5.0;" x1="193.25" x2="193.25" y1="76.2188" y2="327.6797"/><line style="stroke:#181818;stroke-width:0.5;stroke-dasharray:5.0,5.0;" x1="328.75" x2="328.75" y1="76.2188" y2="327.6797"/><line style="stroke:#181818;stroke-width:0.5;stroke-dasharray:5.0,5.0;" x1="463.75" x2="463.75" y1="76.2188" y2="327.6797"/><line style="stroke:#181818;stroke-width:0.5;stroke-dasharray:5.0,5.0;" x1="576.75" x2="576.75" y1="76.2188" y2="327.6797"/><rect fill="#E2E2F0" height="31.6094" rx="2.5" ry="2.5" style="stroke:#181818;stroke-width:0.5;" width="65" x="161.25" y="43.6094"/><text fill="#000000" font-family="sans-serif" font-size="14" lengthAdjust="spacing" textLength="51" x="168.25" y="65.1426">External</text><rect fill="#E2E2F0" height="31.6094" rx="2.5" ry="2.5" style="stroke:#181818;stroke-width:0.5;" width="65" x="161.25" y="326.6797"/><text fill="#000000" font-family="sans-serif" font-size="14" lengthAdjust="spacing" textLength="51" x="168.25" y="348.2129">External</text><rect fill="#E2E2F0" height="31.6094" rx="2.5" ry="2.5" style="stroke:#181818;stroke-width:0.5;" width="106" x="275.75" y="43.6094"/><text fill="#000000" font-family="sans-serif" font-size="14" lengthAdjust="spacing" textLength="92" x="282.75" y="65.1426">Storefront App</text><rect fill="#E2E2F0" height="31.6094" rx="2.5" ry="2.5" style="stroke:#181818;stroke-width:0.5;" width="106" x="275.75" y="326.6797"/><text fill="#000000" font-family="sans-serif" font-size="14" lengthAdjust="spacing" textLength="92" x="282.75" y="348.2129">Storefront App</text><rect fill="#E2E2F0" height="31.6094" rx="2.5" ry="2.5" style="stroke:#181818;stroke-width:0.5;" width="98" x="414.75" y="43.6094"/><text fill="#000000" font-family="sans-serif" font-size="14" lengthAdjust="spacing" textLength="84" x="421.75" y="65.1426">Storefront Bff</text><rect fill="#E2E2F0" height="31.6094" rx="2.5" ry="2.5" style="stroke:#181818;stroke-width:0.5;" width="98" x="414.75" y="326.6797"/><text fill="#000000" font-family="sans-serif" font-size="14" lengthAdjust="spacing" textLength="84" x="421.75" y="348.2129">Storefront Bff</text><rect fill="#E2E2F0" height="31.6094" rx="2.5" ry="2.5" style="stroke:#181818;stroke-width:0.5;" width="108" x="522.75" y="43.6094"/><text fill="#000000" font-family="sans-serif" font-size="14" lengthAdjust="spacing" textLength="94" x="529.75" y="65.1426">Basket Service</text><rect fill="#E2E2F0" height="31.6094" rx="2.5" ry="2.5" style="stroke:#181818;stroke-width:0.5;" width="108" x="522.75" y="326.6797"/><text fill="#000000" font-family="sans-serif" font-size="14" lengthAdjust="spacing" textLength="94" x="529.75" y="348.2129">Basket Service</text><polygon fill="#181818" points="316.75,104.5703,326.75,108.5703,316.75,112.5703,320.75,108.5703" style="stroke:#181818;stroke-width:1.0;"/><line style="stroke:#181818;stroke-width:1.0;" x1="193.75" x2="322.75" y1="108.5703" y2="108.5703"/><text fill="#000000" font-family="sans-serif" font-size="13" lengthAdjust="spacing" textLength="111" x="200.75" y="103.7139">Delete Basket Item</text><path d="M265.75,123.5703 L429.75,123.5703 L429.75,131.9219 L419.75,141.9219 L265.75,141.9219 L265.75,123.5703 " fill="#EEEEEE" style="stroke:#000000;stroke-width:1.5;"/><rect fill="none" height="187.1094" style="stroke:#000000;stroke-width:1.5;" width="416" x="265.75" y="123.5703"/><text fill="#000000" font-family="sans-serif" font-size="13" font-weight="bold" lengthAdjust="spacing" textLength="119" x="280.75" y="138.0654">Delete Basket Item</text><polygon fill="#181818" points="451.75,160.2734,461.75,164.2734,451.75,168.2734,455.75,164.2734" style="stroke:#181818;stroke-width:1.0;"/><line style="stroke:#181818;stroke-width:1.0;" x1="328.75" x2="457.75" y1="164.2734" y2="164.2734"/><text fill="#000000" font-family="sans-serif" font-size="13" lengthAdjust="spacing" textLength="111" x="335.75" y="159.417">Delete Basket Item</text><path d="M404.75,179.2734 L568.75,179.2734 L568.75,187.625 L558.75,197.625 L404.75,197.625 L404.75,179.2734 " fill="#EEEEEE" style="stroke:#000000;stroke-width:1.5;"/><rect fill="none" height="124.4063" style="stroke:#000000;stroke-width:1.5;" width="267" x="404.75" y="179.2734"/><text fill="#000000" font-family="sans-serif" font-size="13" font-weight="bold" lengthAdjust="spacing" textLength="119" x="419.75" y="193.7686">Delete Basket Item</text><polygon fill="#181818" points="564.75,215.9766,574.75,219.9766,564.75,223.9766,568.75,219.9766" style="stroke:#181818;stroke-width:1.0;"/><line style="stroke:#181818;stroke-width:1.0;" x1="463.75" x2="570.75" y1="219.9766" y2="219.9766"/><text fill="#000000" font-family="sans-serif" font-size="13" lengthAdjust="spacing" textLength="66" x="470.75" y="215.1201">Delete Item</text><path d="M512.75,234.9766 L630.75,234.9766 L630.75,243.3281 L620.75,253.3281 L512.75,253.3281 L512.75,234.9766 " fill="#EEEEEE" style="stroke:#000000;stroke-width:1.5;"/><rect fill="none" height="61.7031" style="stroke:#000000;stroke-width:1.5;" width="149" x="512.75" y="234.9766"/><text fill="#000000" font-family="sans-serif" font-size="13" font-weight="bold" lengthAdjust="spacing" textLength="73" x="527.75" y="249.4717">Delete Item</text><line style="stroke:#181818;stroke-width:1.0;" x1="576.75" x2="618.75" y1="275.6797" y2="275.6797"/><line style="stroke:#181818;stroke-width:1.0;" x1="618.75" x2="618.75" y1="275.6797" y2="288.6797"/><line style="stroke:#181818;stroke-width:1.0;" x1="577.75" x2="618.75" y1="288.6797" y2="288.6797"/><polygon fill="#181818" points="587.75,284.6797,577.75,288.6797,587.75,292.6797,583.75,288.6797" style="stroke:#181818;stroke-width:1.0;"/><text fill="#000000" font-family="sans-serif" font-size="13" lengthAdjust="spacing" textLength="66" x="583.75" y="270.8232">Delete Item</text><!--SRC=[nP8zRiCm38LtdOB8Ra-TEXHe4hV8La0d49pdmgWiEJJpqzkNgUCQXbD0WuiE6aIHx-CZ9RLuK46Rs3JW4lJcdLIH6yhe5G7i1BH5uy9U8rOYe-8OP7fvRbiDRE6XsMlNVK1e9xYAM1oE22gSAIC8Ba8U9tXZMiTIbtNhL61LN0GSd5-HwsZpiDDCVl7ndDjOoTanx6UdWbq-9FRtgSYqes-fOZ0s-Ce7LxsfVAoPeSOdLVkLjAwg1KcgDYNTfcd1fxf46gclcL7wy4t9cFGfK_Qqt23fySv7CUySZ-szX-MuYvdG7VsBYIitnKJA-aS3yyxJMawY_56x2FkVOxu0]--></g></svg>