<?xml version="1.0" encoding="us-ascii" standalone="no"?><svg xmlns="http://www.w3.org/2000/svg" xmlns:xlink="http://www.w3.org/1999/xlink" contentStyleType="text/css" height="351px" preserveAspectRatio="none" style="width:855px;height:351px;background:#FFFFFF;" version="1.1" viewBox="0 0 855 351" width="855px" zoomAndPan="magnify"><defs/><g><text fill="#000000" font-family="sans-serif" font-size="14" font-weight="bold" lengthAdjust="spacing" textLength="827" x="10" y="29.5332">E Commerce Platform - Generate Demand - Storefront - Storefront App - Delete Basket Item - Sequence - Context level</text><rect fill="none" height="174.1094" style="stroke:#000000;stroke-width:1.5;" width="517" x="215.25" y="123.5703"/><rect fill="none" height="111.4063" style="stroke:#000000;stroke-width:1.5;" width="368" x="354.25" y="179.2734"/><rect fill="none" height="48.7031" style="stroke:#000000;stroke-width:1.5;" width="250" x="462.25" y="234.9766"/><line style="stroke:#181818;stroke-width:0.5;stroke-dasharray:5.0,5.0;" x1="142.75" x2="142.75" y1="76.2188" y2="314.6797"/><line style="stroke:#181818;stroke-width:0.5;stroke-dasharray:5.0,5.0;" x1="278.25" x2="278.25" y1="76.2188" y2="314.6797"/><line style="stroke:#181818;stroke-width:0.5;stroke-dasharray:5.0,5.0;" x1="413.25" x2="413.25" y1="76.2188" y2="314.6797"/><line style="stroke:#181818;stroke-width:0.5;stroke-dasharray:5.0,5.0;" x1="526.25" x2="526.25" y1="76.2188" y2="314.6797"/><line style="stroke:#181818;stroke-width:0.5;stroke-dasharray:5.0,5.0;" x1="646.25" x2="646.25" y1="76.2188" y2="314.6797"/><rect fill="#E2E2F0" height="31.6094" rx="2.5" ry="2.5" style="stroke:#181818;stroke-width:0.5;" width="65" x="110.75" y="43.6094"/><text fill="#000000" font-family="sans-serif" font-size="14" lengthAdjust="spacing" textLength="51" x="117.75" y="65.1426">External</text><rect fill="#E2E2F0" height="31.6094" rx="2.5" ry="2.5" style="stroke:#181818;stroke-width:0.5;" width="65" x="110.75" y="313.6797"/><text fill="#000000" font-family="sans-serif" font-size="14" lengthAdjust="spacing" textLength="51" x="117.75" y="335.2129">External</text><rect fill="#E2E2F0" height="31.6094" rx="2.5" ry="2.5" style="stroke:#181818;stroke-width:0.5;" width="106" x="225.25" y="43.6094"/><text fill="#000000" font-family="sans-serif" font-size="14" lengthAdjust="spacing" textLength="92" x="232.25" y="65.1426">Storefront App</text><rect fill="#E2E2F0" height="31.6094" rx="2.5" ry="2.5" style="stroke:#181818;stroke-width:0.5;" width="106" x="225.25" y="313.6797"/><text fill="#000000" font-family="sans-serif" font-size="14" lengthAdjust="spacing" textLength="92" x="232.25" y="335.2129">Storefront App</text><rect fill="#E2E2F0" height="31.6094" rx="2.5" ry="2.5" style="stroke:#181818;stroke-width:0.5;" width="98" x="364.25" y="43.6094"/><text fill="#000000" font-family="sans-serif" font-size="14" lengthAdjust="spacing" textLength="84" x="371.25" y="65.1426">Storefront Bff</text><rect fill="#E2E2F0" height="31.6094" rx="2.5" ry="2.5" style="stroke:#181818;stroke-width:0.5;" width="98" x="364.25" y="313.6797"/><text fill="#000000" font-family="sans-serif" font-size="14" lengthAdjust="spacing" textLength="84" x="371.25" y="335.2129">Storefront Bff</text><rect fill="#E2E2F0" height="31.6094" rx="2.5" ry="2.5" style="stroke:#181818;stroke-width:0.5;" width="108" x="472.25" y="43.6094"/><text fill="#000000" font-family="sans-serif" font-size="14" lengthAdjust="spacing" textLength="94" x="479.25" y="65.1426">Basket Service</text><rect fill="#E2E2F0" height="31.6094" rx="2.5" ry="2.5" style="stroke:#181818;stroke-width:0.5;" width="108" x="472.25" y="313.6797"/><text fill="#000000" font-family="sans-serif" font-size="14" lengthAdjust="spacing" textLength="94" x="479.25" y="335.2129">Basket Service</text><rect fill="#E2E2F0" height="31.6094" rx="2.5" ry="2.5" style="stroke:#181818;stroke-width:0.5;" width="112" x="590.25" y="43.6094"/><text fill="#000000" font-family="sans-serif" font-size="14" lengthAdjust="spacing" textLength="98" x="597.25" y="65.1426">..BasketService</text><rect fill="#E2E2F0" height="31.6094" rx="2.5" ry="2.5" style="stroke:#181818;stroke-width:0.5;" width="112" x="590.25" y="313.6797"/><text fill="#000000" font-family="sans-serif" font-size="14" lengthAdjust="spacing" textLength="98" x="597.25" y="335.2129">..BasketService</text><polygon fill="#181818" points="266.25,104.5703,276.25,108.5703,266.25,112.5703,270.25,108.5703" style="stroke:#181818;stroke-width:1.0;"/><line style="stroke:#181818;stroke-width:1.0;" x1="143.25" x2="272.25" y1="108.5703" y2="108.5703"/><text fill="#000000" font-family="sans-serif" font-size="13" lengthAdjust="spacing" textLength="111" x="150.25" y="103.7139">Delete Basket Item</text><path d="M215.25,123.5703 L379.25,123.5703 L379.25,131.9219 L369.25,141.9219 L215.25,141.9219 L215.25,123.5703 " fill="#EEEEEE" style="stroke:#000000;stroke-width:1.5;"/><rect fill="none" height="174.1094" style="stroke:#000000;stroke-width:1.5;" width="517" x="215.25" y="123.5703"/><text fill="#000000" font-family="sans-serif" font-size="13" font-weight="bold" lengthAdjust="spacing" textLength="119" x="230.25" y="138.0654">Delete Basket Item</text><polygon fill="#181818" points="401.25,160.2734,411.25,164.2734,401.25,168.2734,405.25,164.2734" style="stroke:#181818;stroke-width:1.0;"/><line style="stroke:#181818;stroke-width:1.0;" x1="278.25" x2="407.25" y1="164.2734" y2="164.2734"/><text fill="#000000" font-family="sans-serif" font-size="13" lengthAdjust="spacing" textLength="111" x="285.25" y="159.417">Delete Basket Item</text><path d="M354.25,179.2734 L518.25,179.2734 L518.25,187.625 L508.25,197.625 L354.25,197.625 L354.25,179.2734 " fill="#EEEEEE" style="stroke:#000000;stroke-width:1.5;"/><rect fill="none" height="111.4063" style="stroke:#000000;stroke-width:1.5;" width="368" x="354.25" y="179.2734"/><text fill="#000000" font-family="sans-serif" font-size="13" font-weight="bold" lengthAdjust="spacing" textLength="119" x="369.25" y="193.7686">Delete Basket Item</text><polygon fill="#181818" points="634.25,215.9766,644.25,219.9766,634.25,223.9766,638.25,219.9766" style="stroke:#181818;stroke-width:1.0;"/><line style="stroke:#181818;stroke-width:1.0;" x1="413.25" x2="640.25" y1="219.9766" y2="219.9766"/><text fill="#000000" font-family="sans-serif" font-size="13" lengthAdjust="spacing" textLength="66" x="420.25" y="215.1201">Delete Item</text><path d="M462.25,234.9766 L580.25,234.9766 L580.25,243.3281 L570.25,253.3281 L462.25,253.3281 L462.25,234.9766 " fill="#EEEEEE" style="stroke:#000000;stroke-width:1.5;"/><rect fill="none" height="48.7031" style="stroke:#000000;stroke-width:1.5;" width="250" x="462.25" y="234.9766"/><text fill="#000000" font-family="sans-serif" font-size="13" font-weight="bold" lengthAdjust="spacing" textLength="73" x="477.25" y="249.4717">Delete Item</text><polygon fill="#181818" points="537.25,271.6797,527.25,275.6797,537.25,279.6797,533.25,275.6797" style="stroke:#181818;stroke-width:1.0;"/><line style="stroke:#181818;stroke-width:1.0;" x1="531.25" x2="645.25" y1="275.6797" y2="275.6797"/><text fill="#000000" font-family="sans-serif" font-size="13" lengthAdjust="spacing" textLength="66" x="543.25" y="270.8232">Delete Item</text><!--SRC=[nPAxRiCm34LtVGMHtPuwTIYGXrjaAw0l49phmgWiEJJp-lioSLp3SGfuCD11WoZg7bwIKee7PRIELGNEGP_UIH6veeG-4C1EG1jKBkmqOYKo2ev1XfTbNMjW0m_DNhdc6q9RmLN4Odz0KE546K5m5l8umXjJEvOoBskd0eliBE3W_89SG-kNhMRoku-drCP2JevXBuqADccNsDw78iEARb9PPwppbNQkMbDf_sU4wfzKxK_IgYXc9AdQa7JlfWKVonpJIEsV4QKDtvMCcTvbIjxcQoIzFbaKyyNnK3zxc8yxcmcTqR-Ok7BLH3eSP5_Ak8PRv35_IX-cRD03667tUymF]--></g></svg>