<?xml version="1.0" encoding="us-ascii" standalone="no"?><svg xmlns="http://www.w3.org/2000/svg" xmlns:xlink="http://www.w3.org/1999/xlink" contentStyleType="text/css" height="937px" preserveAspectRatio="none" style="width:646px;height:937px;background:#FFFFFF;" version="1.1" viewBox="0 0 646 937" width="646px" zoomAndPan="magnify"><defs/><g><text fill="#000000" font-family="sans-serif" font-size="14" font-weight="bold" lengthAdjust="spacing" textLength="353" x="148" y="29.5332">Complete (End-To-End) - Sequence - Context level</text><rect fill="none" height="418.9219" style="stroke:#000000;stroke-width:1.5;" width="630" x="10" y="93.2188"/><rect fill="none" height="79.0547" style="stroke:#000000;stroke-width:1.5;" width="346" x="171" y="209.625"/><rect fill="none" height="48.7031" style="stroke:#000000;stroke-width:1.5;" width="346" x="171" y="333.0313"/><rect fill="none" height="79.0547" style="stroke:#000000;stroke-width:1.5;" width="459" x="171" y="426.0859"/><rect fill="none" height="265.1641" style="stroke:#000000;stroke-width:1.5;" width="517" x="10" y="526.1406"/><rect fill="none" height="79.0547" style="stroke:#000000;stroke-width:1.5;" width="346" x="171" y="612.1953"/><rect fill="none" height="48.7031" style="stroke:#000000;stroke-width:1.5;" width="346" x="171" y="735.6016"/><rect fill="none" height="79.0547" style="stroke:#000000;stroke-width:1.5;" width="620" x="10" y="805.3047"/><line style="stroke:#181818;stroke-width:0.5;stroke-dasharray:5.0,5.0;" x1="57" x2="57" y1="76.2188" y2="901.3594"/><line style="stroke:#181818;stroke-width:0.5;stroke-dasharray:5.0,5.0;" x1="239" x2="239" y1="76.2188" y2="901.3594"/><line style="stroke:#181818;stroke-width:0.5;stroke-dasharray:5.0,5.0;" x1="414" x2="414" y1="76.2188" y2="901.3594"/><line style="stroke:#181818;stroke-width:0.5;stroke-dasharray:5.0,5.0;" x1="568" x2="568" y1="76.2188" y2="901.3594"/><rect fill="#E2E2F0" height="31.6094" rx="2.5" ry="2.5" style="stroke:#181818;stroke-width:0.5;" width="75" x="20" y="43.6094"/><text fill="#000000" font-family="sans-serif" font-size="14" lengthAdjust="spacing" textLength="61" x="27" y="65.1426">Customer</text><rect fill="#E2E2F0" height="31.6094" rx="2.5" ry="2.5" style="stroke:#181818;stroke-width:0.5;" width="75" x="20" y="900.3594"/><text fill="#000000" font-family="sans-serif" font-size="14" lengthAdjust="spacing" textLength="61" x="27" y="921.8926">Customer</text><rect fill="#E2E2F0" height="31.6094" rx="2.5" ry="2.5" style="stroke:#181818;stroke-width:0.5;" width="117" x="181" y="43.6094"/><text fill="#000000" font-family="sans-serif" font-size="14" lengthAdjust="spacing" textLength="103" x="188" y="65.1426">Internet Banking</text><rect fill="#E2E2F0" height="31.6094" rx="2.5" ry="2.5" style="stroke:#181818;stroke-width:0.5;" width="117" x="181" y="900.3594"/><text fill="#000000" font-family="sans-serif" font-size="14" lengthAdjust="spacing" textLength="103" x="188" y="921.8926">Internet Banking</text><rect fill="#E2E2F0" height="31.6094" rx="2.5" ry="2.5" style="stroke:#181818;stroke-width:0.5;" width="185" x="322" y="43.6094"/><text fill="#000000" font-family="sans-serif" font-size="14" lengthAdjust="spacing" textLength="171" x="329" y="65.1426">Mainframe Banking System</text><rect fill="#E2E2F0" height="31.6094" rx="2.5" ry="2.5" style="stroke:#181818;stroke-width:0.5;" width="185" x="322" y="900.3594"/><text fill="#000000" font-family="sans-serif" font-size="14" lengthAdjust="spacing" textLength="171" x="329" y="921.8926">Mainframe Banking System</text><rect fill="#E2E2F0" height="31.6094" rx="2.5" ry="2.5" style="stroke:#181818;stroke-width:0.5;" width="103" x="517" y="43.6094"/><text fill="#000000" font-family="sans-serif" font-size="14" lengthAdjust="spacing" textLength="89" x="524" y="65.1426">E-Mail System</text><rect fill="#E2E2F0" height="31.6094" rx="2.5" ry="2.5" style="stroke:#181818;stroke-width:0.5;" width="103" x="517" y="900.3594"/><text fill="#000000" font-family="sans-serif" font-size="14" lengthAdjust="spacing" textLength="89" x="524" y="921.8926">E-Mail System</text><path d="M10,93.2188 L264,93.2188 L264,101.5703 L254,111.5703 L10,111.5703 L10,93.2188 " fill="#EEEEEE" style="stroke:#000000;stroke-width:1.5;"/><rect fill="none" height="418.9219" style="stroke:#000000;stroke-width:1.5;" width="630" x="10" y="93.2188"/><text fill="#000000" font-family="sans-serif" font-size="13" font-weight="bold" lengthAdjust="spacing" textLength="209" x="25" y="107.7139">Customer - Banking via Web App</text><polygon fill="#181818" points="227.5,129.9219,237.5,133.9219,227.5,137.9219,231.5,133.9219" style="stroke:#181818;stroke-width:1.0;"/><line style="stroke:#181818;stroke-width:1.0;" x1="57.5" x2="233.5" y1="133.9219" y2="133.9219"/><text fill="#000000" font-family="sans-serif" font-size="13" lengthAdjust="spacing" textLength="49" x="64.5" y="129.0654">Navigate</text><polygon fill="#181818" points="227.5,160.2734,237.5,164.2734,227.5,168.2734,231.5,164.2734" style="stroke:#181818;stroke-width:1.0;"/><line style="stroke:#181818;stroke-width:1.0;" x1="57.5" x2="233.5" y1="164.2734" y2="164.2734"/><text fill="#000000" font-family="sans-serif" font-size="13" lengthAdjust="spacing" textLength="40" x="64.5" y="159.417">Sign In</text><polygon fill="#181818" points="227.5,190.625,237.5,194.625,227.5,198.625,231.5,194.625" style="stroke:#181818;stroke-width:1.0;"/><line style="stroke:#181818;stroke-width:1.0;" x1="57.5" x2="233.5" y1="194.625" y2="194.625"/><text fill="#000000" font-family="sans-serif" font-size="13" lengthAdjust="spacing" textLength="132" x="64.5" y="189.7686">View Customer Details</text><path d="M171,209.625 L359,209.625 L359,217.9766 L349,227.9766 L171,227.9766 L171,209.625 " fill="#EEEEEE" style="stroke:#000000;stroke-width:1.5;"/><rect fill="none" height="79.0547" style="stroke:#000000;stroke-width:1.5;" width="346" x="171" y="209.625"/><text fill="#000000" font-family="sans-serif" font-size="13" font-weight="bold" lengthAdjust="spacing" textLength="143" x="186" y="224.1201">View Customer Details</text><polygon fill="#181818" points="402.5,246.3281,412.5,250.3281,402.5,254.3281,406.5,250.3281" style="stroke:#181818;stroke-width:1.0;"/><line style="stroke:#181818;stroke-width:1.0;" x1="239.5" x2="408.5" y1="250.3281" y2="250.3281"/><text fill="#000000" font-family="sans-serif" font-size="13" lengthAdjust="spacing" textLength="81" x="246.5" y="245.4717">Get Customer</text><polygon fill="#181818" points="402.5,276.6797,412.5,280.6797,402.5,284.6797,406.5,280.6797" style="stroke:#181818;stroke-width:1.0;"/><line style="stroke:#181818;stroke-width:1.0;" x1="239.5" x2="408.5" y1="280.6797" y2="280.6797"/><text fill="#000000" font-family="sans-serif" font-size="13" lengthAdjust="spacing" textLength="140" x="246.5" y="275.8232">Get Customer Accounts</text><polygon fill="#181818" points="227.5,314.0313,237.5,318.0313,227.5,322.0313,231.5,318.0313" style="stroke:#181818;stroke-width:1.0;"/><line style="stroke:#181818;stroke-width:1.0;" x1="57.5" x2="233.5" y1="318.0313" y2="318.0313"/><text fill="#000000" font-family="sans-serif" font-size="13" lengthAdjust="spacing" textLength="158" x="64.5" y="313.1748">View Account Transactions</text><path d="M171,333.0313 L387,333.0313 L387,341.3828 L377,351.3828 L171,351.3828 L171,333.0313 " fill="#EEEEEE" style="stroke:#000000;stroke-width:1.5;"/><rect fill="none" height="48.7031" style="stroke:#000000;stroke-width:1.5;" width="346" x="171" y="333.0313"/><text fill="#000000" font-family="sans-serif" font-size="13" font-weight="bold" lengthAdjust="spacing" textLength="171" x="186" y="347.5264">View Account Transactions</text><polygon fill="#181818" points="402.5,369.7344,412.5,373.7344,402.5,377.7344,406.5,373.7344" style="stroke:#181818;stroke-width:1.0;"/><line style="stroke:#181818;stroke-width:1.0;" x1="239.5" x2="408.5" y1="373.7344" y2="373.7344"/><text fill="#000000" font-family="sans-serif" font-size="13" lengthAdjust="spacing" textLength="151" x="246.5" y="368.8779">Get Account Transactions</text><polygon fill="#181818" points="227.5,407.0859,237.5,411.0859,227.5,415.0859,231.5,411.0859" style="stroke:#181818;stroke-width:1.0;"/><line style="stroke:#181818;stroke-width:1.0;" x1="57.5" x2="233.5" y1="411.0859" y2="411.0859"/><text fill="#000000" font-family="sans-serif" font-size="13" lengthAdjust="spacing" textLength="90" x="64.5" y="406.2295">Create Account</text><path d="M171,426.0859 L313,426.0859 L313,434.4375 L303,444.4375 L171,444.4375 L171,426.0859 " fill="#EEEEEE" style="stroke:#000000;stroke-width:1.5;"/><rect fill="none" height="79.0547" style="stroke:#000000;stroke-width:1.5;" width="459" x="171" y="426.0859"/><text fill="#000000" font-family="sans-serif" font-size="13" font-weight="bold" lengthAdjust="spacing" textLength="97" x="186" y="440.5811">Create Account</text><polygon fill="#181818" points="402.5,462.7891,412.5,466.7891,402.5,470.7891,406.5,466.7891" style="stroke:#181818;stroke-width:1.0;"/><line style="stroke:#181818;stroke-width:1.0;" x1="239.5" x2="408.5" y1="466.7891" y2="466.7891"/><text fill="#000000" font-family="sans-serif" font-size="13" lengthAdjust="spacing" textLength="90" x="246.5" y="461.9326">Create Account</text><polygon fill="#181818" points="556.5,493.1406,566.5,497.1406,556.5,501.1406,560.5,497.1406" style="stroke:#181818;stroke-width:1.0;"/><line style="stroke:#181818;stroke-width:1.0;" x1="239.5" x2="562.5" y1="497.1406" y2="497.1406"/><text fill="#000000" font-family="sans-serif" font-size="13" lengthAdjust="spacing" textLength="269" x="246.5" y="492.2842">Send New Account Created Notification E-Mail</text><path d="M10,526.1406 L278,526.1406 L278,534.4922 L268,544.4922 L10,544.4922 L10,526.1406 " fill="#EEEEEE" style="stroke:#000000;stroke-width:1.5;"/><rect fill="none" height="265.1641" style="stroke:#000000;stroke-width:1.5;" width="517" x="10" y="526.1406"/><text fill="#000000" font-family="sans-serif" font-size="13" font-weight="bold" lengthAdjust="spacing" textLength="223" x="25" y="540.6357">Customer - Banking via Mobile App</text><polygon fill="#181818" points="227.5,562.8438,237.5,566.8438,227.5,570.8438,231.5,566.8438" style="stroke:#181818;stroke-width:1.0;"/><line style="stroke:#181818;stroke-width:1.0;" x1="57.5" x2="233.5" y1="566.8438" y2="566.8438"/><text fill="#000000" font-family="sans-serif" font-size="13" lengthAdjust="spacing" textLength="40" x="64.5" y="561.9873">Sign In</text><polygon fill="#181818" points="227.5,593.1953,237.5,597.1953,227.5,601.1953,231.5,597.1953" style="stroke:#181818;stroke-width:1.0;"/><line style="stroke:#181818;stroke-width:1.0;" x1="57.5" x2="233.5" y1="597.1953" y2="597.1953"/><text fill="#000000" font-family="sans-serif" font-size="13" lengthAdjust="spacing" textLength="132" x="64.5" y="592.3389">View Customer Details</text><path d="M171,612.1953 L359,612.1953 L359,620.5469 L349,630.5469 L171,630.5469 L171,612.1953 " fill="#EEEEEE" style="stroke:#000000;stroke-width:1.5;"/><rect fill="none" height="79.0547" style="stroke:#000000;stroke-width:1.5;" width="346" x="171" y="612.1953"/><text fill="#000000" font-family="sans-serif" font-size="13" font-weight="bold" lengthAdjust="spacing" textLength="143" x="186" y="626.6904">View Customer Details</text><polygon fill="#181818" points="402.5,648.8984,412.5,652.8984,402.5,656.8984,406.5,652.8984" style="stroke:#181818;stroke-width:1.0;"/><line style="stroke:#181818;stroke-width:1.0;" x1="239.5" x2="408.5" y1="652.8984" y2="652.8984"/><text fill="#000000" font-family="sans-serif" font-size="13" lengthAdjust="spacing" textLength="81" x="246.5" y="648.042">Get Customer</text><polygon fill="#181818" points="402.5,679.25,412.5,683.25,402.5,687.25,406.5,683.25" style="stroke:#181818;stroke-width:1.0;"/><line style="stroke:#181818;stroke-width:1.0;" x1="239.5" x2="408.5" y1="683.25" y2="683.25"/><text fill="#000000" font-family="sans-serif" font-size="13" lengthAdjust="spacing" textLength="140" x="246.5" y="678.3936">Get Customer Accounts</text><polygon fill="#181818" points="227.5,716.6016,237.5,720.6016,227.5,724.6016,231.5,720.6016" style="stroke:#181818;stroke-width:1.0;"/><line style="stroke:#181818;stroke-width:1.0;" x1="57.5" x2="233.5" y1="720.6016" y2="720.6016"/><text fill="#000000" font-family="sans-serif" font-size="13" lengthAdjust="spacing" textLength="158" x="64.5" y="715.7451">View Account Transactions</text><path d="M171,735.6016 L387,735.6016 L387,743.9531 L377,753.9531 L171,753.9531 L171,735.6016 " fill="#EEEEEE" style="stroke:#000000;stroke-width:1.5;"/><rect fill="none" height="48.7031" style="stroke:#000000;stroke-width:1.5;" width="346" x="171" y="735.6016"/><text fill="#000000" font-family="sans-serif" font-size="13" font-weight="bold" lengthAdjust="spacing" textLength="171" x="186" y="750.0967">View Account Transactions</text><polygon fill="#181818" points="402.5,772.3047,412.5,776.3047,402.5,780.3047,406.5,776.3047" style="stroke:#181818;stroke-width:1.0;"/><line style="stroke:#181818;stroke-width:1.0;" x1="239.5" x2="408.5" y1="776.3047" y2="776.3047"/><text fill="#000000" font-family="sans-serif" font-size="13" lengthAdjust="spacing" textLength="151" x="246.5" y="771.4482">Get Account Transactions</text><path d="M10,805.3047 L303,805.3047 L303,813.6563 L293,823.6563 L10,823.6563 L10,805.3047 " fill="#EEEEEE" style="stroke:#000000;stroke-width:1.5;"/><rect fill="none" height="79.0547" style="stroke:#000000;stroke-width:1.5;" width="620" x="10" y="805.3047"/><text fill="#000000" font-family="sans-serif" font-size="13" font-weight="bold" lengthAdjust="spacing" textLength="248" x="25" y="819.7998">Customer - Receive E-Mail Notifications</text><polygon fill="#181818" points="556.5,842.0078,566.5,846.0078,556.5,850.0078,560.5,846.0078" style="stroke:#181818;stroke-width:1.0;"/><line style="stroke:#181818;stroke-width:1.0;" x1="57.5" x2="562.5" y1="846.0078" y2="846.0078"/><text fill="#000000" font-family="sans-serif" font-size="13" lengthAdjust="spacing" textLength="270" x="64.5" y="841.1514">Receive Password Changed Notification E-Mail</text><polygon fill="#181818" points="556.5,872.3594,566.5,876.3594,556.5,880.3594,560.5,876.3594" style="stroke:#181818;stroke-width:1.0;"/><line style="stroke:#181818;stroke-width:1.0;" x1="57.5" x2="562.5" y1="876.3594" y2="876.3594"/><text fill="#000000" font-family="sans-serif" font-size="13" lengthAdjust="spacing" textLength="284" x="64.5" y="871.5029">Receive New Account Created Notification E-Mail</text><!--SRC=[xLN1Ki8m4BttArPEUYWVuC4Pg8p30OQnZ9wNiDICQLAJRP6_DvKMgLDHdCA9GwUTpUxRv6NVwrLcCKaH56vCpk1IOjGO12nP4KGcpHGnmVL8ByEv2Vth1aA8wIqdBSX_HaOplJCeAaW5GOQMfP0PQePUb3isATaUe8EXJ8QeNsTAz0U2ZNNzUhbPDFPuLXD3cIrryhquDYjUewLuuvXIrw_pg_Gcs0IbNbbCgKQ3RTbleBkwgcmRRsAFGf-b_WWuAdChb22n9i-WFhudiTvS8H6UQG63B0j-vWl2koC8WLkOOY4JPEeICvQ9Xh7k4l99qlgBbNi_YLAvYgpsjIFW3s-c_RxzdXxy8ExczBpjO224oJMxWFIoSvuhS9XRr0u5IwCRNBUkduU0rjOTSn1PyeAeMzMAR0PFVzfJDTnpcrAgdZkOxjtfjgsF6POhAR1a6BPszibp-Hpqg8bPIFzxwDYcBfPoiPHpMqhhg3-I85bG9Oc6JDp_MMkAikunG-VMnYuXUa6T_23AZdiUumN11m00]--></g></svg>