<?xml version="1.0" encoding="us-ascii" standalone="no"?><svg xmlns="http://www.w3.org/2000/svg" xmlns:xlink="http://www.w3.org/1999/xlink" contentStyleType="text/css" height="351px" preserveAspectRatio="none" style="width:1028px;height:351px;background:#FFFFFF;" version="1.1" viewBox="0 0 1028 351" width="1028px" zoomAndPan="magnify"><defs/><g><text fill="#000000" font-family="sans-serif" font-size="14" font-weight="bold" lengthAdjust="spacing" textLength="1000" x="10" y="29.5332">E Commerce Platform - Create Product - Product Information Management - Product Service - Api - Delete Product - Sequence - Container level</text><rect fill="#FFFFFF" height="293.9766" style="stroke:#181818;stroke-width:0.5;" width="266.5" x="432.5" y="44.6094"/><text fill="#000000" font-family="sans-serif" font-size="13" font-weight="bold" lengthAdjust="spacing" textLength="101" x="515.25" y="58.1045">Product Service</text><rect fill="none" height="79.0547" style="stroke:#000000;stroke-width:1.5;" width="278.5" x="426.5" y="175.9219"/><line style="stroke:#181818;stroke-width:0.5;stroke-dasharray:5.0,5.0;" x1="343" x2="343" y1="128.5703" y2="271.9766"/><line style="stroke:#181818;stroke-width:0.5;stroke-dasharray:5.0,5.0;" x1="453.5" x2="453.5" y1="128.5703" y2="271.9766"/><line style="stroke:#181818;stroke-width:0.5;stroke-dasharray:5.0,5.0;" x1="563" x2="563" y1="128.5703" y2="271.9766"/><line style="stroke:#181818;stroke-width:0.5;stroke-dasharray:5.0,5.0;" x1="651" x2="651" y1="128.5703" y2="271.9766"/><rect fill="#E2E2F0" height="31.6094" rx="2.5" ry="2.5" style="stroke:#181818;stroke-width:0.5;" width="65" x="311" y="95.9609"/><text fill="#000000" font-family="sans-serif" font-size="14" lengthAdjust="spacing" textLength="51" x="318" y="117.4941">External</text><rect fill="#E2E2F0" height="31.6094" rx="2.5" ry="2.5" style="stroke:#181818;stroke-width:0.5;" width="65" x="311" y="270.9766"/><text fill="#000000" font-family="sans-serif" font-size="14" lengthAdjust="spacing" textLength="51" x="318" y="292.5098">External</text><rect fill="#E2E2F0" height="31.6094" rx="2.5" ry="2.5" style="stroke:#181818;stroke-width:0.5;" width="34" x="436.5" y="95.9609"/><text fill="#000000" font-family="sans-serif" font-size="14" lengthAdjust="spacing" textLength="20" x="443.5" y="117.4941">Api</text><rect fill="#E2E2F0" height="31.6094" rx="2.5" ry="2.5" style="stroke:#181818;stroke-width:0.5;" width="34" x="436.5" y="270.9766"/><text fill="#000000" font-family="sans-serif" font-size="14" lengthAdjust="spacing" textLength="20" x="443.5" y="292.5098">Api</text><text fill="#000000" font-family="sans-serif" font-size="14" lengthAdjust="spacing" textLength="61" x="530" y="125.4941">Database</text><path d="M545.5,74.9609 C545.5,64.9609 563.5,64.9609 563.5,64.9609 C563.5,64.9609 581.5,64.9609 581.5,74.9609 L581.5,100.9609 C581.5,110.9609 563.5,110.9609 563.5,110.9609 C563.5,110.9609 545.5,110.9609 545.5,100.9609 L545.5,74.9609 " fill="#E2E2F0" style="stroke:#181818;stroke-width:1.5;"/><path d="M545.5,74.9609 C545.5,84.9609 563.5,84.9609 563.5,84.9609 C563.5,84.9609 581.5,84.9609 581.5,74.9609 " fill="none" style="stroke:#181818;stroke-width:1.5;"/><text fill="#000000" font-family="sans-serif" font-size="14" lengthAdjust="spacing" textLength="61" x="530" y="285.5098">Database</text><path d="M545.5,298.5859 C545.5,288.5859 563.5,288.5859 563.5,288.5859 C563.5,288.5859 581.5,288.5859 581.5,298.5859 L581.5,324.5859 C581.5,334.5859 563.5,334.5859 563.5,334.5859 C563.5,334.5859 545.5,334.5859 545.5,324.5859 L545.5,298.5859 " fill="#E2E2F0" style="stroke:#181818;stroke-width:1.5;"/><path d="M545.5,298.5859 C545.5,308.5859 563.5,308.5859 563.5,308.5859 C563.5,308.5859 581.5,308.5859 581.5,298.5859 " fill="none" style="stroke:#181818;stroke-width:1.5;"/><path d="M612,100.9609 L690,100.9609 C695,100.9609 695,114.7656 695,114.7656 C695,114.7656 695,128.5703 690,128.5703 L612,128.5703 C607,128.5703 607,114.7656 607,114.7656 C607,114.7656 607,100.9609 612,100.9609 " fill="#E2E2F0" style="stroke:#181818;stroke-width:0.5;"/><path d="M690,100.9609 C685,100.9609 685,114.7656 685,114.7656 C685,128.5703 690,128.5703 690,128.5703 " fill="none" style="stroke:#181818;stroke-width:0.5;"/><text fill="#000000" font-family="sans-serif" font-size="14" lengthAdjust="spacing" textLength="68" x="612" y="120.4941">Messaging</text><path d="M612,270.9766 L690,270.9766 C695,270.9766 695,284.7813 695,284.7813 C695,284.7813 695,298.5859 690,298.5859 L612,298.5859 C607,298.5859 607,284.7813 607,284.7813 C607,284.7813 607,270.9766 612,270.9766 " fill="#E2E2F0" style="stroke:#181818;stroke-width:0.5;"/><path d="M690,270.9766 C685,270.9766 685,284.7813 685,284.7813 C685,298.5859 690,298.5859 690,298.5859 " fill="none" style="stroke:#181818;stroke-width:0.5;"/><text fill="#000000" font-family="sans-serif" font-size="14" lengthAdjust="spacing" textLength="68" x="612" y="290.5098">Messaging</text><polygon fill="#181818" points="441.5,156.9219,451.5,160.9219,441.5,164.9219,445.5,160.9219" style="stroke:#181818;stroke-width:1.0;"/><line style="stroke:#181818;stroke-width:1.0;" x1="343.5" x2="447.5" y1="160.9219" y2="160.9219"/><text fill="#000000" font-family="sans-serif" font-size="13" lengthAdjust="spacing" textLength="86" x="350.5" y="156.0654">Delete Product</text><path d="M426.5,175.9219 L565.5,175.9219 L565.5,184.2734 L555.5,194.2734 L426.5,194.2734 L426.5,175.9219 " fill="#EEEEEE" style="stroke:#000000;stroke-width:1.5;"/><rect fill="none" height="79.0547" style="stroke:#000000;stroke-width:1.5;" width="278.5" x="426.5" y="175.9219"/><text fill="#000000" font-family="sans-serif" font-size="13" font-weight="bold" lengthAdjust="spacing" textLength="94" x="441.5" y="190.417">Delete Product</text><polygon fill="#181818" points="551.5,212.625,561.5,216.625,551.5,220.625,555.5,216.625" style="stroke:#181818;stroke-width:1.0;"/><line style="stroke:#181818;stroke-width:1.0;" x1="453.5" x2="557.5" y1="216.625" y2="216.625"/><text fill="#000000" font-family="sans-serif" font-size="13" lengthAdjust="spacing" textLength="86" x="460.5" y="211.7686">Delete Product</text><polygon fill="#181818" points="639,242.9766,649,246.9766,639,250.9766,643,246.9766" style="stroke:#181818;stroke-width:1.0;"/><line style="stroke:#181818;stroke-width:1.0;" x1="453.5" x2="645" y1="246.9766" y2="246.9766"/><text fill="#000000" font-family="sans-serif" font-size="13" lengthAdjust="spacing" textLength="163" x="460.5" y="242.1201">Send Product Deleted Event</text><!--SRC=[tLGxRuCm4DxzAqvqZgTE7IfLX4eP8bLYw7o12xLaR68V9FttlG1EyrWwCPG1xDFfUzq9Dcm92iXzsrAe23uiyjw75bQG1qAMIl1rNx4KqcdZpXt8nZlOeiE6MdBN3IM5mGZO2juw8-yrMRf1AkdGanixSkyOZQC0bWQoIdKOs5IcGu7CYXDJS6Wpm0ZvyyR9zTtweoxzdeyOgFoEJ6tKgN6wAxNp9yZkz6JmzFbbc1J8SqCZCaU68kMGOj1J23EGdhzN0VpwVv0qDy_a-c8qQg4RDTJ8kCD8aAtdqv8g4kSeHURHYuujnOYDSSsIGYwaYbmDCZcbrDzd3QlN1US6BtVRh9hW- -w-kA2WvUodXNdCu5_QlQob-2tFcvb-9vFv6ef10CyxgzGF]--></g></svg>