<?xml version="1.0" encoding="us-ascii" standalone="no"?><svg xmlns="http://www.w3.org/2000/svg" xmlns:xlink="http://www.w3.org/1999/xlink" contentStyleType="text/css" height="351px" preserveAspectRatio="none" style="width:1028px;height:351px;background:#FFFFFF;" version="1.1" viewBox="0 0 1028 351" width="1028px" zoomAndPan="magnify"><defs/><g><text fill="#000000" font-family="sans-serif" font-size="14" font-weight="bold" lengthAdjust="spacing" textLength="1000" x="10" y="29.5332">E Commerce Platform - Create Product - Product Information Management - Product Service - Api - Delete Product - Sequence - Container level</text><rect fill="#FFFFFF" height="293.9766" style="stroke:#181818;stroke-width:0.5;" width="260.5" x="435.5" y="44.6094"/><text fill="#000000" font-family="sans-serif" font-size="13" font-weight="bold" lengthAdjust="spacing" textLength="101" x="515.25" y="58.1045">Product Service</text><rect fill="none" height="79.0547" style="stroke:#000000;stroke-width:1.5;" width="272.5" x="429.5" y="175.9219"/><line style="stroke:#181818;stroke-width:0.5;stroke-dasharray:5.0,5.0;" x1="346" x2="346" y1="128.5703" y2="271.9766"/><line style="stroke:#181818;stroke-width:0.5;stroke-dasharray:5.0,5.0;" x1="456.5" x2="456.5" y1="128.5703" y2="271.9766"/><line style="stroke:#181818;stroke-width:0.5;stroke-dasharray:5.0,5.0;" x1="566" x2="566" y1="128.5703" y2="271.9766"/><line style="stroke:#181818;stroke-width:0.5;stroke-dasharray:5.0,5.0;" x1="651" x2="651" y1="128.5703" y2="271.9766"/><rect fill="#E2E2F0" height="31.6094" rx="2.5" ry="2.5" style="stroke:#181818;stroke-width:0.5;" width="65" x="314" y="95.9609"/><text fill="#000000" font-family="sans-serif" font-size="14" lengthAdjust="spacing" textLength="51" x="321" y="117.4941">External</text><rect fill="#E2E2F0" height="31.6094" rx="2.5" ry="2.5" style="stroke:#181818;stroke-width:0.5;" width="65" x="314" y="270.9766"/><text fill="#000000" font-family="sans-serif" font-size="14" lengthAdjust="spacing" textLength="51" x="321" y="292.5098">External</text><rect fill="#E2E2F0" height="31.6094" rx="2.5" ry="2.5" style="stroke:#181818;stroke-width:0.5;" width="34" x="439.5" y="95.9609"/><text fill="#000000" font-family="sans-serif" font-size="14" lengthAdjust="spacing" textLength="20" x="446.5" y="117.4941">Api</text><rect fill="#E2E2F0" height="31.6094" rx="2.5" ry="2.5" style="stroke:#181818;stroke-width:0.5;" width="34" x="439.5" y="270.9766"/><text fill="#000000" font-family="sans-serif" font-size="14" lengthAdjust="spacing" textLength="20" x="446.5" y="292.5098">Api</text><text fill="#000000" font-family="sans-serif" font-size="14" lengthAdjust="spacing" textLength="61" x="533" y="125.4941">Database</text><path d="M548.5,74.9609 C548.5,64.9609 566.5,64.9609 566.5,64.9609 C566.5,64.9609 584.5,64.9609 584.5,74.9609 L584.5,100.9609 C584.5,110.9609 566.5,110.9609 566.5,110.9609 C566.5,110.9609 548.5,110.9609 548.5,100.9609 L548.5,74.9609 " fill="#E2E2F0" style="stroke:#181818;stroke-width:1.5;"/><path d="M548.5,74.9609 C548.5,84.9609 566.5,84.9609 566.5,84.9609 C566.5,84.9609 584.5,84.9609 584.5,74.9609 " fill="none" style="stroke:#181818;stroke-width:1.5;"/><text fill="#000000" font-family="sans-serif" font-size="14" lengthAdjust="spacing" textLength="61" x="533" y="285.5098">Database</text><path d="M548.5,298.5859 C548.5,288.5859 566.5,288.5859 566.5,288.5859 C566.5,288.5859 584.5,288.5859 584.5,298.5859 L584.5,324.5859 C584.5,334.5859 566.5,334.5859 566.5,334.5859 C566.5,334.5859 548.5,334.5859 548.5,324.5859 L548.5,298.5859 " fill="#E2E2F0" style="stroke:#181818;stroke-width:1.5;"/><path d="M548.5,298.5859 C548.5,308.5859 566.5,308.5859 566.5,308.5859 C566.5,308.5859 584.5,308.5859 584.5,298.5859 " fill="none" style="stroke:#181818;stroke-width:1.5;"/><rect fill="#E2E2F0" height="31.6094" rx="2.5" ry="2.5" style="stroke:#181818;stroke-width:0.5;" width="82" x="610" y="95.9609"/><text fill="#000000" font-family="sans-serif" font-size="14" lengthAdjust="spacing" textLength="68" x="617" y="117.4941">Messaging</text><rect fill="#E2E2F0" height="31.6094" rx="2.5" ry="2.5" style="stroke:#181818;stroke-width:0.5;" width="82" x="610" y="270.9766"/><text fill="#000000" font-family="sans-serif" font-size="14" lengthAdjust="spacing" textLength="68" x="617" y="292.5098">Messaging</text><polygon fill="#181818" points="444.5,156.9219,454.5,160.9219,444.5,164.9219,448.5,160.9219" style="stroke:#181818;stroke-width:1.0;"/><line style="stroke:#181818;stroke-width:1.0;" x1="346.5" x2="450.5" y1="160.9219" y2="160.9219"/><text fill="#000000" font-family="sans-serif" font-size="13" lengthAdjust="spacing" textLength="86" x="353.5" y="156.0654">Delete Product</text><path d="M429.5,175.9219 L568.5,175.9219 L568.5,184.2734 L558.5,194.2734 L429.5,194.2734 L429.5,175.9219 " fill="#EEEEEE" style="stroke:#000000;stroke-width:1.5;"/><rect fill="none" height="79.0547" style="stroke:#000000;stroke-width:1.5;" width="272.5" x="429.5" y="175.9219"/><text fill="#000000" font-family="sans-serif" font-size="13" font-weight="bold" lengthAdjust="spacing" textLength="94" x="444.5" y="190.417">Delete Product</text><polygon fill="#181818" points="554.5,212.625,564.5,216.625,554.5,220.625,558.5,216.625" style="stroke:#181818;stroke-width:1.0;"/><line style="stroke:#181818;stroke-width:1.0;" x1="456.5" x2="560.5" y1="216.625" y2="216.625"/><text fill="#000000" font-family="sans-serif" font-size="13" lengthAdjust="spacing" textLength="86" x="463.5" y="211.7686">Delete Product</text><polygon fill="#181818" points="639,242.9766,649,246.9766,639,250.9766,643,246.9766" style="stroke:#181818;stroke-width:1.0;"/><line style="stroke:#181818;stroke-width:1.0;" x1="456.5" x2="645" y1="246.9766" y2="246.9766"/><text fill="#000000" font-family="sans-serif" font-size="13" lengthAdjust="spacing" textLength="163" x="463.5" y="242.1201">Send Product Deleted Event</text><!--SRC=[tLGxRuCm4DxzAqvqnbEd3fKgGgKCaIenTBx0XLeoDh4FalxxceTfGfPE36K0-tJwNdU25Mk273BRDEHAWW-DVBAkWHGoHyYXucpLbHmAyRGtGmUoiWOEQB2cXinjGq6kLm4iXRTMXVUEDDqX5NJko8mTcJMCof03JJrf8Lfqh4hLOe1CyYkJCwWJG0_Pyzw4wxks5rdO4r_GKV7jcHelO-Dq5-9ehv2iz2JmzFcbc0I4vuuco1mPyfX3Z45E8Sn0SlxU1F3h_q7It3oJoyMebu5kr50Xun4zGRARJrkgY9oFSHp8UwoLgRUKiv0ACXM4-GaX_ZvnI5ytd1wyh7PQrCvsxRgueQ3jxCUrUSpWNzfTrZBuBORDZ3-LoNm5UHy0XvqLuWS0]--></g></svg>