<?xml version="1.0" encoding="us-ascii" standalone="no"?><svg xmlns="http://www.w3.org/2000/svg" xmlns:xlink="http://www.w3.org/1999/xlink" contentStyleType="text/css" height="414px" preserveAspectRatio="none" style="width:717px;height:414px;background:#FFFFFF;" version="1.1" viewBox="0 0 717 414" width="717px" zoomAndPan="magnify"><defs/><g><text fill="#000000" font-family="sans-serif" font-size="14" font-weight="bold" lengthAdjust="spacing" textLength="689" x="10" y="29.5332">Big Bank Plc - Internet Banking - Single-Page App - Change Password - Sequence - Container level</text><rect fill="#FFFFFF" height="356.6797" style="stroke:#181818;stroke-width:0.5;" width="387.5" x="129.5" y="44.6094"/><text fill="#000000" font-family="sans-serif" font-size="13" font-weight="bold" lengthAdjust="spacing" textLength="105" x="270.75" y="58.1045">Internet Banking</text><rect fill="none" height="141.7578" style="stroke:#000000;stroke-width:1.5;" width="549.5" x="123.5" y="175.9219"/><rect fill="none" height="79.0547" style="stroke:#000000;stroke-width:1.5;" width="404.5" x="258.5" y="231.625"/><line style="stroke:#181818;stroke-width:0.5;stroke-dasharray:5.0,5.0;" x1="64" x2="64" y1="128.5703" y2="334.6797"/><line style="stroke:#181818;stroke-width:0.5;stroke-dasharray:5.0,5.0;" x1="193.5" x2="193.5" y1="128.5703" y2="334.6797"/><line style="stroke:#181818;stroke-width:0.5;stroke-dasharray:5.0,5.0;" x1="322.5" x2="322.5" y1="128.5703" y2="334.6797"/><line style="stroke:#181818;stroke-width:0.5;stroke-dasharray:5.0,5.0;" x1="479" x2="479" y1="128.5703" y2="334.6797"/><line style="stroke:#181818;stroke-width:0.5;stroke-dasharray:5.0,5.0;" x1="601" x2="601" y1="128.5703" y2="334.6797"/><rect fill="#E2E2F0" height="31.6094" rx="2.5" ry="2.5" style="stroke:#181818;stroke-width:0.5;" width="65" x="32" y="95.9609"/><text fill="#000000" font-family="sans-serif" font-size="14" lengthAdjust="spacing" textLength="51" x="39" y="117.4941">External</text><rect fill="#E2E2F0" height="31.6094" rx="2.5" ry="2.5" style="stroke:#181818;stroke-width:0.5;" width="65" x="32" y="333.6797"/><text fill="#000000" font-family="sans-serif" font-size="14" lengthAdjust="spacing" textLength="51" x="39" y="355.2129">External</text><rect fill="#E2E2F0" height="31.6094" rx="2.5" ry="2.5" style="stroke:#181818;stroke-width:0.5;" width="120" x="133.5" y="95.9609"/><text fill="#000000" font-family="sans-serif" font-size="14" lengthAdjust="spacing" textLength="106" x="140.5" y="117.4941">Single-Page App</text><rect fill="#E2E2F0" height="31.6094" rx="2.5" ry="2.5" style="stroke:#181818;stroke-width:0.5;" width="120" x="133.5" y="333.6797"/><text fill="#000000" font-family="sans-serif" font-size="14" lengthAdjust="spacing" textLength="106" x="140.5" y="355.2129">Single-Page App</text><rect fill="#E2E2F0" height="31.6094" rx="2.5" ry="2.5" style="stroke:#181818;stroke-width:0.5;" width="108" x="268.5" y="95.9609"/><text fill="#000000" font-family="sans-serif" font-size="14" lengthAdjust="spacing" textLength="94" x="275.5" y="117.4941">API Application</text><rect fill="#E2E2F0" height="31.6094" rx="2.5" ry="2.5" style="stroke:#181818;stroke-width:0.5;" width="108" x="268.5" y="333.6797"/><text fill="#000000" font-family="sans-serif" font-size="14" lengthAdjust="spacing" textLength="94" x="275.5" y="355.2129">API Application</text><text fill="#000000" font-family="sans-serif" font-size="14" lengthAdjust="spacing" textLength="61" x="446" y="125.4941">Database</text><path d="M461.5,74.9609 C461.5,64.9609 479.5,64.9609 479.5,64.9609 C479.5,64.9609 497.5,64.9609 497.5,74.9609 L497.5,100.9609 C497.5,110.9609 479.5,110.9609 479.5,110.9609 C479.5,110.9609 461.5,110.9609 461.5,100.9609 L461.5,74.9609 " fill="#E2E2F0" style="stroke:#181818;stroke-width:1.5;"/><path d="M461.5,74.9609 C461.5,84.9609 479.5,84.9609 479.5,84.9609 C479.5,84.9609 497.5,84.9609 497.5,74.9609 " fill="none" style="stroke:#181818;stroke-width:1.5;"/><text fill="#000000" font-family="sans-serif" font-size="14" lengthAdjust="spacing" textLength="61" x="446" y="348.2129">Database</text><path d="M461.5,361.2891 C461.5,351.2891 479.5,351.2891 479.5,351.2891 C479.5,351.2891 497.5,351.2891 497.5,361.2891 L497.5,387.2891 C497.5,397.2891 479.5,397.2891 479.5,397.2891 C479.5,397.2891 461.5,397.2891 461.5,387.2891 L461.5,361.2891 " fill="#E2E2F0" style="stroke:#181818;stroke-width:1.5;"/><path d="M461.5,361.2891 C461.5,371.2891 479.5,371.2891 479.5,371.2891 C479.5,371.2891 497.5,371.2891 497.5,361.2891 " fill="none" style="stroke:#181818;stroke-width:1.5;"/><rect fill="#E2E2F0" height="31.6094" rx="2.5" ry="2.5" style="stroke:#181818;stroke-width:0.5;" width="103" x="550" y="95.9609"/><text fill="#000000" font-family="sans-serif" font-size="14" lengthAdjust="spacing" textLength="89" x="557" y="117.4941">E-Mail System</text><rect fill="#E2E2F0" height="31.6094" rx="2.5" ry="2.5" style="stroke:#181818;stroke-width:0.5;" width="103" x="550" y="333.6797"/><text fill="#000000" font-family="sans-serif" font-size="14" lengthAdjust="spacing" textLength="89" x="557" y="355.2129">E-Mail System</text><polygon fill="#181818" points="181.5,156.9219,191.5,160.9219,181.5,164.9219,185.5,160.9219" style="stroke:#181818;stroke-width:1.0;"/><line style="stroke:#181818;stroke-width:1.0;" x1="64.5" x2="187.5" y1="160.9219" y2="160.9219"/><text fill="#000000" font-family="sans-serif" font-size="13" lengthAdjust="spacing" textLength="105" x="71.5" y="156.0654">Change Password</text><path d="M123.5,175.9219 L282.5,175.9219 L282.5,184.2734 L272.5,194.2734 L123.5,194.2734 L123.5,175.9219 " fill="#EEEEEE" style="stroke:#000000;stroke-width:1.5;"/><rect fill="none" height="141.7578" style="stroke:#000000;stroke-width:1.5;" width="549.5" x="123.5" y="175.9219"/><text fill="#000000" font-family="sans-serif" font-size="13" font-weight="bold" lengthAdjust="spacing" textLength="114" x="138.5" y="190.417">Change Password</text><polygon fill="#181818" points="310.5,212.625,320.5,216.625,310.5,220.625,314.5,216.625" style="stroke:#181818;stroke-width:1.0;"/><line style="stroke:#181818;stroke-width:1.0;" x1="193.5" x2="316.5" y1="216.625" y2="216.625"/><text fill="#000000" font-family="sans-serif" font-size="13" lengthAdjust="spacing" textLength="105" x="200.5" y="211.7686">Change Password</text><path d="M258.5,231.625 L417.5,231.625 L417.5,239.9766 L407.5,249.9766 L258.5,249.9766 L258.5,231.625 " fill="#EEEEEE" style="stroke:#000000;stroke-width:1.5;"/><rect fill="none" height="79.0547" style="stroke:#000000;stroke-width:1.5;" width="404.5" x="258.5" y="231.625"/><text fill="#000000" font-family="sans-serif" font-size="13" font-weight="bold" lengthAdjust="spacing" textLength="114" x="273.5" y="246.1201">Change Password</text><polygon fill="#181818" points="467.5,268.3281,477.5,272.3281,467.5,276.3281,471.5,272.3281" style="stroke:#181818;stroke-width:1.0;"/><line style="stroke:#181818;stroke-width:1.0;" x1="322.5" x2="473.5" y1="272.3281" y2="272.3281"/><text fill="#000000" font-family="sans-serif" font-size="13" lengthAdjust="spacing" textLength="133" x="329.5" y="267.4717">Update User Password</text><polygon fill="#181818" points="589.5,298.6797,599.5,302.6797,589.5,306.6797,593.5,302.6797" style="stroke:#181818;stroke-width:1.0;"/><line style="stroke:#181818;stroke-width:1.0;" x1="322.5" x2="595.5" y1="302.6797" y2="302.6797"/><text fill="#000000" font-family="sans-serif" font-size="13" lengthAdjust="spacing" textLength="255" x="329.5" y="297.8232">Send Password Changed Notification E-Mail</text><!--SRC=[lPGnRuCm48Lt_ueJdM7grA5IagPIXbP8AEfyWGknwjeKNqhwxtk642Kmj4hI827mORxtx7l0cWt1L9SmHViEgSaXXeLbgYrnMzEsb58c5qDnYYN1fAgaCjkWbK6AtZUkBi8S-joIpIayT9PHMwh1q1SPfIgiMUUwGiiGpNU1ZoO2z32xR-MUZMkIpAsvmPgoRy_quPD-OZTMQkLs40tTHN3tjj5C2kGuqHcORkLagU4zMUX8hGVlkSbX4JxfI04adB7G95q40QDpPEti1K92EWArIWKohj0JH4_xkmluFKAHBK2sSzYP-0MrWGxqcymypErRy_SsGlnuZIx0mp22ggpTjXfLhw5rjkNJVlwpvu7OsQRxa8ZTPINn8rXw-PHlwUueM-8Y2saz_6cwpIhWrR5UzxWkkI7MxQb-0000]--></g></svg>