<?xml version="1.0" encoding="us-ascii" standalone="no"?><svg xmlns="http://www.w3.org/2000/svg" xmlns:xlink="http://www.w3.org/1999/xlink" contentStyleType="text/css" height="615px" preserveAspectRatio="none" style="width:645px;height:615px;background:#FFFFFF;" version="1.1" viewBox="0 0 645 615" width="645px" zoomAndPan="magnify"><defs/><g><text fill="#000000" font-family="sans-serif" font-size="14" font-weight="bold" lengthAdjust="spacing" textLength="591" x="28.75" y="29.5332">Trader X Example - TraderX - Web Client - View Account - Sequence - Container level</text><rect fill="#FFFFFF" height="564.8984" style="stroke:#181818;stroke-width:0.5;" width="527.5" x="96" y="44.6094"/><text fill="#000000" font-family="sans-serif" font-size="13" font-weight="bold" lengthAdjust="spacing" textLength="51" x="334.25" y="58.1045">TraderX</text><rect fill="none" height="395.625" style="stroke:#000000;stroke-width:1.5;" width="549.5" x="90" y="161.2734"/><rect fill="none" height="65.0547" style="stroke:#000000;stroke-width:1.5;" width="223" x="281.5" y="233.3281"/><rect fill="none" height="65.0547" style="stroke:#000000;stroke-width:1.5;" width="348" x="281.5" y="359.0859"/><rect fill="none" height="65.0547" style="stroke:#000000;stroke-width:1.5;" width="348" x="281.5" y="484.8438"/><line style="stroke:#181818;stroke-width:0.5;stroke-dasharray:5.0,5.0;" x1="37" x2="37" y1="97.5703" y2="573.8984"/><line style="stroke:#181818;stroke-width:0.5;stroke-dasharray:5.0,5.0;" x1="141" x2="141" y1="97.5703" y2="573.8984"/><line style="stroke:#181818;stroke-width:0.5;stroke-dasharray:5.0,5.0;" x1="326.5" x2="326.5" y1="97.5703" y2="573.8984"/><line style="stroke:#181818;stroke-width:0.5;stroke-dasharray:5.0,5.0;" x1="432.5" x2="432.5" y1="97.5703" y2="573.8984"/><line style="stroke:#181818;stroke-width:0.5;stroke-dasharray:5.0,5.0;" x1="561.5" x2="561.5" y1="97.5703" y2="573.8984"/><rect fill="#E2E2F0" height="31.6094" rx="2.5" ry="2.5" style="stroke:#181818;stroke-width:0.5;" width="65" x="5" y="64.9609"/><text fill="#000000" font-family="sans-serif" font-size="14" lengthAdjust="spacing" textLength="51" x="12" y="86.4941">External</text><rect fill="#E2E2F0" height="31.6094" rx="2.5" ry="2.5" style="stroke:#181818;stroke-width:0.5;" width="65" x="5" y="572.8984"/><text fill="#000000" font-family="sans-serif" font-size="14" lengthAdjust="spacing" textLength="51" x="12" y="594.4316">External</text><rect fill="#E2E2F0" height="31.6094" rx="2.5" ry="2.5" style="stroke:#181818;stroke-width:0.5;" width="83" x="100" y="64.9609"/><text fill="#000000" font-family="sans-serif" font-size="14" lengthAdjust="spacing" textLength="69" x="107" y="86.4941">Web Client</text><rect fill="#E2E2F0" height="31.6094" rx="2.5" ry="2.5" style="stroke:#181818;stroke-width:0.5;" width="83" x="100" y="572.8984"/><text fill="#000000" font-family="sans-serif" font-size="14" lengthAdjust="spacing" textLength="69" x="107" y="594.4316">Web Client</text><rect fill="#E2E2F0" height="31.6094" rx="2.5" ry="2.5" style="stroke:#181818;stroke-width:0.5;" width="70" x="291.5" y="64.9609"/><text fill="#000000" font-family="sans-serif" font-size="14" lengthAdjust="spacing" textLength="56" x="298.5" y="86.4941">Web GUI</text><rect fill="#E2E2F0" height="31.6094" rx="2.5" ry="2.5" style="stroke:#181818;stroke-width:0.5;" width="70" x="291.5" y="572.8984"/><text fill="#000000" font-family="sans-serif" font-size="14" lengthAdjust="spacing" textLength="56" x="298.5" y="594.4316">Web GUI</text><rect fill="#E2E2F0" height="31.6094" rx="2.5" ry="2.5" style="stroke:#181818;stroke-width:0.5;" width="123" x="371.5" y="64.9609"/><text fill="#000000" font-family="sans-serif" font-size="14" lengthAdjust="spacing" textLength="109" x="378.5" y="86.4941">Accounts Service</text><rect fill="#E2E2F0" height="31.6094" rx="2.5" ry="2.5" style="stroke:#181818;stroke-width:0.5;" width="123" x="371.5" y="572.8984"/><text fill="#000000" font-family="sans-serif" font-size="14" lengthAdjust="spacing" textLength="109" x="378.5" y="594.4316">Accounts Service</text><rect fill="#E2E2F0" height="31.6094" rx="2.5" ry="2.5" style="stroke:#181818;stroke-width:0.5;" width="115" x="504.5" y="64.9609"/><text fill="#000000" font-family="sans-serif" font-size="14" lengthAdjust="spacing" textLength="101" x="511.5" y="86.4941">Position Service</text><rect fill="#E2E2F0" height="31.6094" rx="2.5" ry="2.5" style="stroke:#181818;stroke-width:0.5;" width="115" x="504.5" y="572.8984"/><text fill="#000000" font-family="sans-serif" font-size="14" lengthAdjust="spacing" textLength="101" x="511.5" y="594.4316">Position Service</text><polygon fill="#181818" points="129.5,142.2734,139.5,146.2734,129.5,150.2734,133.5,146.2734" style="stroke:#181818;stroke-width:1.0;"/><line style="stroke:#181818;stroke-width:1.0;" x1="37.5" x2="135.5" y1="146.2734" y2="146.2734"/><text fill="#000000" font-family="sans-serif" font-size="13" lengthAdjust="spacing" textLength="80" x="44.5" y="125.0654">View Account</text><text fill="#000000" font-family="sans-serif" font-size="13" lengthAdjust="spacing" textLength="49" x="44.5" y="141.417">[HTTPS]</text><path d="M90,161.2734 L222,161.2734 L222,169.625 L212,179.625 L90,179.625 L90,161.2734 " fill="#EEEEEE" style="stroke:#000000;stroke-width:1.5;"/><rect fill="none" height="395.625" style="stroke:#000000;stroke-width:1.5;" width="549.5" x="90" y="161.2734"/><text fill="#000000" font-family="sans-serif" font-size="13" font-weight="bold" lengthAdjust="spacing" textLength="87" x="105" y="175.7686">View Account</text><polygon fill="#181818" points="314.5,214.3281,324.5,218.3281,314.5,222.3281,318.5,218.3281" style="stroke:#181818;stroke-width:1.0;"/><line style="stroke:#181818;stroke-width:1.0;" x1="141.5" x2="320.5" y1="218.3281" y2="218.3281"/><text fill="#000000" font-family="sans-serif" font-size="13" lengthAdjust="spacing" textLength="80" x="148.5" y="197.1201">Load Account</text><text fill="#000000" font-family="sans-serif" font-size="13" lengthAdjust="spacing" textLength="49" x="148.5" y="213.4717">[HTTPS]</text><path d="M281.5,233.3281 L413.5,233.3281 L413.5,241.6797 L403.5,251.6797 L281.5,251.6797 L281.5,233.3281 " fill="#EEEEEE" style="stroke:#000000;stroke-width:1.5;"/><rect fill="none" height="65.0547" style="stroke:#000000;stroke-width:1.5;" width="223" x="281.5" y="233.3281"/><text fill="#000000" font-family="sans-serif" font-size="13" font-weight="bold" lengthAdjust="spacing" textLength="87" x="296.5" y="247.8232">Load Account</text><polygon fill="#181818" points="421,286.3828,431,290.3828,421,294.3828,425,290.3828" style="stroke:#181818;stroke-width:1.0;"/><line style="stroke:#181818;stroke-width:1.0;" x1="326.5" x2="427" y1="290.3828" y2="290.3828"/><text fill="#000000" font-family="sans-serif" font-size="13" lengthAdjust="spacing" textLength="80" x="333.5" y="269.1748">Get Accounts</text><text fill="#000000" font-family="sans-serif" font-size="13" lengthAdjust="spacing" textLength="49" x="333.5" y="285.5264">[HTTPS]</text><polygon fill="#181818" points="314.5,340.0859,324.5,344.0859,314.5,348.0859,318.5,344.0859" style="stroke:#181818;stroke-width:1.0;"/><line style="stroke:#181818;stroke-width:1.0;" x1="141.5" x2="320.5" y1="344.0859" y2="344.0859"/><text fill="#000000" font-family="sans-serif" font-size="13" lengthAdjust="spacing" textLength="146" x="148.5" y="322.8779">Load Trades For Account</text><text fill="#000000" font-family="sans-serif" font-size="13" lengthAdjust="spacing" textLength="49" x="148.5" y="339.2295">[HTTPS]</text><path d="M281.5,359.0859 L485.5,359.0859 L485.5,367.4375 L475.5,377.4375 L281.5,377.4375 L281.5,359.0859 " fill="#EEEEEE" style="stroke:#000000;stroke-width:1.5;"/><rect fill="none" height="65.0547" style="stroke:#000000;stroke-width:1.5;" width="348" x="281.5" y="359.0859"/><text fill="#000000" font-family="sans-serif" font-size="13" font-weight="bold" lengthAdjust="spacing" textLength="159" x="296.5" y="373.5811">Load Trades For Account</text><polygon fill="#181818" points="550,412.1406,560,416.1406,550,420.1406,554,416.1406" style="stroke:#181818;stroke-width:1.0;"/><line style="stroke:#181818;stroke-width:1.0;" x1="326.5" x2="556" y1="416.1406" y2="416.1406"/><text fill="#000000" font-family="sans-serif" font-size="13" lengthAdjust="spacing" textLength="139" x="333.5" y="394.9326">Get Trades For Account</text><text fill="#000000" font-family="sans-serif" font-size="13" lengthAdjust="spacing" textLength="49" x="333.5" y="411.2842">[HTTPS]</text><polygon fill="#181818" points="314.5,465.8438,324.5,469.8438,314.5,473.8438,318.5,469.8438" style="stroke:#181818;stroke-width:1.0;"/><line style="stroke:#181818;stroke-width:1.0;" x1="141.5" x2="320.5" y1="469.8438" y2="469.8438"/><text fill="#000000" font-family="sans-serif" font-size="13" lengthAdjust="spacing" textLength="161" x="148.5" y="448.6357">Load Positions For Account</text><text fill="#000000" font-family="sans-serif" font-size="13" lengthAdjust="spacing" textLength="49" x="148.5" y="464.9873">[HTTPS]</text><path d="M281.5,484.8438 L499.5,484.8438 L499.5,493.1953 L489.5,503.1953 L281.5,503.1953 L281.5,484.8438 " fill="#EEEEEE" style="stroke:#000000;stroke-width:1.5;"/><rect fill="none" height="65.0547" style="stroke:#000000;stroke-width:1.5;" width="348" x="281.5" y="484.8438"/><text fill="#000000" font-family="sans-serif" font-size="13" font-weight="bold" lengthAdjust="spacing" textLength="173" x="296.5" y="499.3389">Load Positions For Account</text><polygon fill="#181818" points="550,537.8984,560,541.8984,550,545.8984,554,541.8984" style="stroke:#181818;stroke-width:1.0;"/><line style="stroke:#181818;stroke-width:1.0;" x1="326.5" x2="556" y1="541.8984" y2="541.8984"/><text fill="#000000" font-family="sans-serif" font-size="13" lengthAdjust="spacing" textLength="154" x="333.5" y="520.6904">Get Positions For Account</text><text fill="#000000" font-family="sans-serif" font-size="13" lengthAdjust="spacing" textLength="49" x="333.5" y="537.042">[HTTPS]</text><!--SRC=[pLF1JeD04BtlLqpmN4wUF9WOqjOc7fg0jebwsCAecz1Tt5qA_hq3NQoKsXf8j2GapEwRzzw-MQomAKAaUO8QbZ0k-JgZXP5RMjBN0bSGf0AbfU91O04tSQpokWpnFKSPLms1afOBIJGfRZ1bBEFQYbXad93UkBIe9Kyzu0Q2ovcaSfAgmW_LYosunl33M5mRlm5kQyPMgWJFcV7WOl4cB3AWfqM_yrWBEBmxJKV3RVjVberF1Dl-mzpJ-rb_OchkiheC3KMeDoB6dlGDZMFfwioL4LOeEL2deMbqK2P0es6C_NwOCBeUCXcuQjs-9_bu6qNpy9czQfLdhJqsHAQlInepMRnJFFd9ulSzrbkZbx-zUq96fsWRBsPdbERwt-7L00CJfO_cs8NzSQHxluIBz9ZxCmYtCNqwtuF8iuZun1cgbAkNVG80]--></g></svg>