<?xml version="1.0" encoding="us-ascii" standalone="no"?><svg xmlns="http://www.w3.org/2000/svg" xmlns:xlink="http://www.w3.org/1999/xlink" contentStyleType="text/css" height="489px" preserveAspectRatio="none" style="width:695px;height:489px;background:#FFFFFF;" version="1.1" viewBox="0 0 695 489" width="695px" zoomAndPan="magnify"><defs/><g><text fill="#000000" font-family="sans-serif" font-size="14" font-weight="bold" lengthAdjust="spacing" textLength="565" x="66.5" y="29.5332">Trader X Example - View Trade Status And Positions - Sequence - Container level</text><rect fill="#FFFFFF" height="439.1406" style="stroke:#181818;stroke-width:0.5;" width="470" x="203" y="44.6094"/><text fill="#000000" font-family="sans-serif" font-size="13" font-weight="bold" lengthAdjust="spacing" textLength="51" x="412.5" y="58.1045">TraderX</text><rect fill="none" height="269.8672" style="stroke:#000000;stroke-width:1.5;" width="492" x="197" y="161.2734"/><rect fill="none" height="65.0547" style="stroke:#000000;stroke-width:1.5;" width="290.5" x="388.5" y="233.3281"/><rect fill="none" height="65.0547" style="stroke:#000000;stroke-width:1.5;" width="290.5" x="388.5" y="359.0859"/><line style="stroke:#181818;stroke-width:0.5;stroke-dasharray:5.0,5.0;" x1="33" x2="33" y1="97.5703" y2="448.1406"/><line style="stroke:#181818;stroke-width:0.5;stroke-dasharray:5.0,5.0;" x1="248" x2="248" y1="97.5703" y2="448.1406"/><line style="stroke:#181818;stroke-width:0.5;stroke-dasharray:5.0,5.0;" x1="433.5" x2="433.5" y1="97.5703" y2="448.1406"/><line style="stroke:#181818;stroke-width:0.5;stroke-dasharray:5.0,5.0;" x1="611" x2="611" y1="97.5703" y2="448.1406"/><rect fill="#E2E2F0" height="31.6094" rx="2.5" ry="2.5" style="stroke:#181818;stroke-width:0.5;" width="57" x="5" y="64.9609"/><text fill="#000000" font-family="sans-serif" font-size="14" lengthAdjust="spacing" textLength="43" x="12" y="86.4941">Trader</text><rect fill="#E2E2F0" height="31.6094" rx="2.5" ry="2.5" style="stroke:#181818;stroke-width:0.5;" width="57" x="5" y="447.1406"/><text fill="#000000" font-family="sans-serif" font-size="14" lengthAdjust="spacing" textLength="43" x="12" y="468.6738">Trader</text><rect fill="#E2E2F0" height="31.6094" rx="2.5" ry="2.5" style="stroke:#181818;stroke-width:0.5;" width="83" x="207" y="64.9609"/><text fill="#000000" font-family="sans-serif" font-size="14" lengthAdjust="spacing" textLength="69" x="214" y="86.4941">Web Client</text><rect fill="#E2E2F0" height="31.6094" rx="2.5" ry="2.5" style="stroke:#181818;stroke-width:0.5;" width="83" x="207" y="447.1406"/><text fill="#000000" font-family="sans-serif" font-size="14" lengthAdjust="spacing" textLength="69" x="214" y="468.6738">Web Client</text><rect fill="#E2E2F0" height="31.6094" rx="2.5" ry="2.5" style="stroke:#181818;stroke-width:0.5;" width="70" x="398.5" y="64.9609"/><text fill="#000000" font-family="sans-serif" font-size="14" lengthAdjust="spacing" textLength="56" x="405.5" y="86.4941">Web GUI</text><rect fill="#E2E2F0" height="31.6094" rx="2.5" ry="2.5" style="stroke:#181818;stroke-width:0.5;" width="70" x="398.5" y="447.1406"/><text fill="#000000" font-family="sans-serif" font-size="14" lengthAdjust="spacing" textLength="56" x="405.5" y="468.6738">Web GUI</text><rect fill="#E2E2F0" height="31.6094" rx="2.5" ry="2.5" style="stroke:#181818;stroke-width:0.5;" width="115" x="554" y="64.9609"/><text fill="#000000" font-family="sans-serif" font-size="14" lengthAdjust="spacing" textLength="101" x="561" y="86.4941">Position Service</text><rect fill="#E2E2F0" height="31.6094" rx="2.5" ry="2.5" style="stroke:#181818;stroke-width:0.5;" width="115" x="554" y="447.1406"/><text fill="#000000" font-family="sans-serif" font-size="14" lengthAdjust="spacing" textLength="101" x="561" y="468.6738">Position Service</text><polygon fill="#181818" points="236.5,142.2734,246.5,146.2734,236.5,150.2734,240.5,146.2734" style="stroke:#181818;stroke-width:1.0;"/><line style="stroke:#181818;stroke-width:1.0;" x1="33.5" x2="242.5" y1="146.2734" y2="146.2734"/><text fill="#000000" font-family="sans-serif" font-size="13" lengthAdjust="spacing" textLength="191" x="40.5" y="125.0654">View Trade Status And Positions</text><text fill="#000000" font-family="sans-serif" font-size="13" lengthAdjust="spacing" textLength="49" x="40.5" y="141.417">[HTTPS]</text><path d="M197,161.2734 L448,161.2734 L448,169.625 L438,179.625 L197,179.625 L197,161.2734 " fill="#EEEEEE" style="stroke:#000000;stroke-width:1.5;"/><rect fill="none" height="269.8672" style="stroke:#000000;stroke-width:1.5;" width="492" x="197" y="161.2734"/><text fill="#000000" font-family="sans-serif" font-size="13" font-weight="bold" lengthAdjust="spacing" textLength="206" x="212" y="175.7686">View Trade Status And Positions</text><polygon fill="#181818" points="421.5,214.3281,431.5,218.3281,421.5,222.3281,425.5,218.3281" style="stroke:#181818;stroke-width:1.0;"/><line style="stroke:#181818;stroke-width:1.0;" x1="248.5" x2="427.5" y1="218.3281" y2="218.3281"/><text fill="#000000" font-family="sans-serif" font-size="13" lengthAdjust="spacing" textLength="146" x="255.5" y="197.1201">Load Trades For Account</text><text fill="#000000" font-family="sans-serif" font-size="13" lengthAdjust="spacing" textLength="49" x="255.5" y="213.4717">[HTTPS]</text><path d="M388.5,233.3281 L592.5,233.3281 L592.5,241.6797 L582.5,251.6797 L388.5,251.6797 L388.5,233.3281 " fill="#EEEEEE" style="stroke:#000000;stroke-width:1.5;"/><rect fill="none" height="65.0547" style="stroke:#000000;stroke-width:1.5;" width="290.5" x="388.5" y="233.3281"/><text fill="#000000" font-family="sans-serif" font-size="13" font-weight="bold" lengthAdjust="spacing" textLength="159" x="403.5" y="247.8232">Load Trades For Account</text><polygon fill="#181818" points="599.5,286.3828,609.5,290.3828,599.5,294.3828,603.5,290.3828" style="stroke:#181818;stroke-width:1.0;"/><line style="stroke:#181818;stroke-width:1.0;" x1="433.5" x2="605.5" y1="290.3828" y2="290.3828"/><text fill="#000000" font-family="sans-serif" font-size="13" lengthAdjust="spacing" textLength="139" x="440.5" y="269.1748">Get Trades For Account</text><text fill="#000000" font-family="sans-serif" font-size="13" lengthAdjust="spacing" textLength="49" x="440.5" y="285.5264">[HTTPS]</text><polygon fill="#181818" points="421.5,340.0859,431.5,344.0859,421.5,348.0859,425.5,344.0859" style="stroke:#181818;stroke-width:1.0;"/><line style="stroke:#181818;stroke-width:1.0;" x1="248.5" x2="427.5" y1="344.0859" y2="344.0859"/><text fill="#000000" font-family="sans-serif" font-size="13" lengthAdjust="spacing" textLength="161" x="255.5" y="322.8779">Load Positions For Account</text><text fill="#000000" font-family="sans-serif" font-size="13" lengthAdjust="spacing" textLength="49" x="255.5" y="339.2295">[HTTPS]</text><path d="M388.5,359.0859 L606.5,359.0859 L606.5,367.4375 L596.5,377.4375 L388.5,377.4375 L388.5,359.0859 " fill="#EEEEEE" style="stroke:#000000;stroke-width:1.5;"/><rect fill="none" height="65.0547" style="stroke:#000000;stroke-width:1.5;" width="290.5" x="388.5" y="359.0859"/><text fill="#000000" font-family="sans-serif" font-size="13" font-weight="bold" lengthAdjust="spacing" textLength="173" x="403.5" y="373.5811">Load Positions For Account</text><polygon fill="#181818" points="599.5,412.1406,609.5,416.1406,599.5,420.1406,603.5,416.1406" style="stroke:#181818;stroke-width:1.0;"/><line style="stroke:#181818;stroke-width:1.0;" x1="433.5" x2="605.5" y1="416.1406" y2="416.1406"/><text fill="#000000" font-family="sans-serif" font-size="13" lengthAdjust="spacing" textLength="154" x="440.5" y="394.9326">Get Positions For Account</text><text fill="#000000" font-family="sans-serif" font-size="13" lengthAdjust="spacing" textLength="49" x="440.5" y="411.2842">[HTTPS]</text><!--SRC=[pPJ1JiCm38RlVWghdDS7u81KJJ2GE4ngOPM0GvOQYDGb9N6tyVQuQWjYb5Ng3X0f5-ltP_jt53PS4cPU5UGnnykzsbGIcE6zeLqRnvGLrm4JM-3I1SF6sI2AbDvgiheHpvrbPQmWIjfI2L0fpqQRIbd6gAL7g49NAE_An8bcvqFSHW7MRj-hymZFLg-62L3EDzoArZWl3LaUGgRkcNVAK_eUc3OzEuy_Mmon0DhyOVRYxcOwM99_KdlNn3A_DPecudjCHm6IXOXb073CLfnTdE8HdeyzXKVxS9rbo_G9Nhohgp4vdDBCr5baBJB8hLD5cn_modbCj7QrvSC1Vf71vCgJkZxOjhI_83xQlRo7lpRtwtyOytTG-Iyi7fcXSRcvy040]--></g></svg>