<?xml version="1.0" encoding="us-ascii" standalone="no"?><svg xmlns="http://www.w3.org/2000/svg" xmlns:xlink="http://www.w3.org/1999/xlink" contentStyleType="text/css" height="215.625px" preserveAspectRatio="none" style="width:414px;height:215px;background:#FFFFFF;" version="1.1" viewBox="0 0 414 215" width="414.375px" zoomAndPan="magnify"><defs/><g><text fill="#000000" font-family="sans-serif" font-size="8.75" font-weight="bold" lengthAdjust="spacing" textLength="311.875" x="52.3438" y="18.4583">Internet Banking - Single-Page App - Create Account - CONTAINER level</text><rect fill="#FFFFFF" height="184.1748" style="stroke:#181818;stroke-width:0.3125;" width="153.75" x="54.6875" y="27.8809"/><text fill="#000000" font-family="sans-serif" font-size="8.125" font-weight="bold" lengthAdjust="spacing" textLength="65.625" x="98.75" y="36.3153">Internet Banking</text><rect fill="none" height="88.5986" style="stroke:#000000;stroke-width:0.9375;" width="360" x="50.9375" y="90.5762"/><rect fill="none" height="49.4092" style="stroke:#000000;stroke-width:0.9375;" width="272.5" x="132.1875" y="125.3906"/><line style="stroke:#181818;stroke-width:0.3125;stroke-dasharray:5.0,5.0;" x1="23.125" x2="23.125" y1="60.9814" y2="189.7998"/><line style="stroke:#181818;stroke-width:0.3125;stroke-dasharray:5.0,5.0;" x1="94.6875" x2="94.6875" y1="60.9814" y2="189.7998"/><line style="stroke:#181818;stroke-width:0.3125;stroke-dasharray:5.0,5.0;" x1="172.1875" x2="172.1875" y1="60.9814" y2="189.7998"/><line style="stroke:#181818;stroke-width:0.3125;stroke-dasharray:5.0,5.0;" x1="269.6875" x2="269.6875" y1="60.9814" y2="189.7998"/><line style="stroke:#181818;stroke-width:0.3125;stroke-dasharray:5.0,5.0;" x1="365.9375" x2="365.9375" y1="60.9814" y2="189.7998"/><rect fill="#E2E2F0" height="19.7559" rx="1.5625" ry="1.5625" style="stroke:#181818;stroke-width:0.3125;" width="40.625" x="3.125" y="40.6006"/><text fill="#000000" font-family="sans-serif" font-size="8.75" lengthAdjust="spacing" textLength="31.875" x="7.5" y="54.0588">External</text><rect fill="#E2E2F0" height="19.7559" rx="1.5625" ry="1.5625" style="stroke:#181818;stroke-width:0.3125;" width="40.625" x="3.125" y="189.1748"/><text fill="#000000" font-family="sans-serif" font-size="8.75" lengthAdjust="spacing" textLength="31.875" x="7.5" y="202.6331">External</text><rect fill="#E2E2F0" height="19.7559" rx="1.5625" ry="1.5625" style="stroke:#181818;stroke-width:0.3125;" width="75" x="57.1875" y="40.6006"/><text fill="#000000" font-family="sans-serif" font-size="8.75" lengthAdjust="spacing" textLength="66.25" x="61.5625" y="54.0588">Single-Page App</text><rect fill="#E2E2F0" height="19.7559" rx="1.5625" ry="1.5625" style="stroke:#181818;stroke-width:0.3125;" width="75" x="57.1875" y="189.1748"/><text fill="#000000" font-family="sans-serif" font-size="8.75" lengthAdjust="spacing" textLength="66.25" x="61.5625" y="202.6331">Single-Page App</text><rect fill="#E2E2F0" height="19.7559" rx="1.5625" ry="1.5625" style="stroke:#181818;stroke-width:0.3125;" width="67.5" x="138.4375" y="40.6006"/><text fill="#000000" font-family="sans-serif" font-size="8.75" lengthAdjust="spacing" textLength="58.75" x="142.8125" y="54.0588">API Application</text><rect fill="#E2E2F0" height="19.7559" rx="1.5625" ry="1.5625" style="stroke:#181818;stroke-width:0.3125;" width="67.5" x="138.4375" y="189.1748"/><text fill="#000000" font-family="sans-serif" font-size="8.75" lengthAdjust="spacing" textLength="58.75" x="142.8125" y="202.6331">API Application</text><rect fill="#E2E2F0" height="19.7559" rx="1.5625" ry="1.5625" style="stroke:#181818;stroke-width:0.3125;" width="115.625" x="212.1875" y="40.6006"/><text fill="#000000" font-family="sans-serif" font-size="8.75" lengthAdjust="spacing" textLength="106.875" x="216.5625" y="54.0588">Mainframe Banking System</text><rect fill="#E2E2F0" height="19.7559" rx="1.5625" ry="1.5625" style="stroke:#181818;stroke-width:0.3125;" width="115.625" x="212.1875" y="189.1748"/><text fill="#000000" font-family="sans-serif" font-size="8.75" lengthAdjust="spacing" textLength="106.875" x="216.5625" y="202.6331">Mainframe Banking System</text><rect fill="#E2E2F0" height="19.7559" rx="1.5625" ry="1.5625" style="stroke:#181818;stroke-width:0.3125;" width="64.375" x="334.0625" y="40.6006"/><text fill="#000000" font-family="sans-serif" font-size="8.75" lengthAdjust="spacing" textLength="55.625" x="338.4375" y="54.0588">E-Mail System</text><rect fill="#E2E2F0" height="19.7559" rx="1.5625" ry="1.5625" style="stroke:#181818;stroke-width:0.3125;" width="64.375" x="334.0625" y="189.1748"/><text fill="#000000" font-family="sans-serif" font-size="8.75" lengthAdjust="spacing" textLength="55.625" x="338.4375" y="202.6331">E-Mail System</text><polygon fill="#181818" points="87.1875,78.7012,93.4375,81.2012,87.1875,83.7012,89.6875,81.2012" style="stroke:#181818;stroke-width:0.625;"/><line style="stroke:#181818;stroke-width:0.625;" x1="23.4375" x2="90.9375" y1="81.2012" y2="81.2012"/><text fill="#000000" font-family="sans-serif" font-size="8.125" lengthAdjust="spacing" textLength="56.25" x="27.8125" y="78.1659">Create Account</text><path d="M50.9375,90.5762 L139.6875,90.5762 L139.6875,95.7959 L133.4375,102.0459 L50.9375,102.0459 L50.9375,90.5762 " fill="#EEEEEE" style="stroke:#000000;stroke-width:0.9375;"/><rect fill="none" height="88.5986" style="stroke:#000000;stroke-width:0.9375;" width="360" x="50.9375" y="90.5762"/><text fill="#000000" font-family="sans-serif" font-size="8.125" font-weight="bold" lengthAdjust="spacing" textLength="60.625" x="60.3125" y="99.6356">Create Account</text><polygon fill="#181818" points="164.6875,113.5156,170.9375,116.0156,164.6875,118.5156,167.1875,116.0156" style="stroke:#181818;stroke-width:0.625;"/><line style="stroke:#181818;stroke-width:0.625;" x1="94.6875" x2="168.4375" y1="116.0156" y2="116.0156"/><text fill="#000000" font-family="sans-serif" font-size="8.125" lengthAdjust="spacing" textLength="56.25" x="99.0625" y="112.9803">Create Account</text><path d="M132.1875,125.3906 L220.9375,125.3906 L220.9375,130.6104 L214.6875,136.8604 L132.1875,136.8604 L132.1875,125.3906 " fill="#EEEEEE" style="stroke:#000000;stroke-width:0.9375;"/><rect fill="none" height="49.4092" style="stroke:#000000;stroke-width:0.9375;" width="272.5" x="132.1875" y="125.3906"/><text fill="#000000" font-family="sans-serif" font-size="8.125" font-weight="bold" lengthAdjust="spacing" textLength="60.625" x="141.5625" y="134.4501">Create Account</text><polygon fill="#181818" points="262.5,148.3301,268.75,150.8301,262.5,153.3301,265,150.8301" style="stroke:#181818;stroke-width:0.625;"/><line style="stroke:#181818;stroke-width:0.625;" x1="172.1875" x2="266.25" y1="150.8301" y2="150.8301"/><text fill="#000000" font-family="sans-serif" font-size="8.125" lengthAdjust="spacing" textLength="56.25" x="176.5625" y="147.7948">Create Account</text><polygon fill="#181818" points="358.75,167.2998,365,169.7998,358.75,172.2998,361.25,169.7998" style="stroke:#181818;stroke-width:0.625;"/><line style="stroke:#181818;stroke-width:0.625;" x1="172.1875" x2="362.5" y1="169.7998" y2="169.7998"/><text fill="#000000" font-family="sans-serif" font-size="8.125" lengthAdjust="spacing" textLength="168.125" x="176.5625" y="166.7645">Send New Account Created Notification E-Mail</text><!--SRC=[lPH1Jy9048Nl-ol6UcxZmNZmO0844muYiIQUnpBKZTlTpNOG-FVEKagW626ADccQJcU_zxflsWiViAmG3AxSdA6kYD6Ygj-rzHYmWgdNS7Eb56is12FB52mnzD5AImafv78nb4wm9EXvBvL186IvAGetjnmBZ-FdtcWyV0937sIK4ZJhGdkKnybm6Pbe4i0Q1jThYNlZ5bdkPhp0GFcgPghgh6rixfLwTKj8keuIk7nvqqmAvDZJwHXTo_Lr6TTDJ76Wre8tt6pWBAEs5Egi8KMGS0w5UfDH532wGDRE_a98I3iWHNOAyjAT_NkGvfb4HTjG6l8ntUswpRBDjkvdaqgNEH4uZBrjEAS72UdTENA0syxWgJAukUyMpw7qOyFxUVwfuuxKzvQ_7eL3V_zWPMU8H3-F8p-cnVPdqXYIccCzQudDbCRFOtsgJm00]--></g></svg>