<?xml version="1.0" encoding="us-ascii" standalone="no"?><svg xmlns="http://www.w3.org/2000/svg" xmlns:xlink="http://www.w3.org/1999/xlink" contentStyleType="text/css" height="377px" preserveAspectRatio="none" style="width:663px;height:377px;background:#FFFFFF;" version="1.1" viewBox="0 0 663 377" width="663px" zoomAndPan="magnify"><defs/><g><text fill="#000000" font-family="sans-serif" font-size="14" font-weight="bold" lengthAdjust="spacing" textLength="635" x="10" y="29.5332">ECommercePlatform - Storefront App - Add Product To Basket - Sequence - Container level</text><rect fill="#FFFFFF" height="327.0313" style="stroke:#181818;stroke-width:0.5;" width="147.5" x="422.5" y="44.6094"/><text fill="#000000" font-family="sans-serif" font-size="13" font-weight="bold" lengthAdjust="spacing" textLength="94" x="449.25" y="58.1045">Basket Service</text><rect fill="none" height="174.1094" style="stroke:#000000;stroke-width:1.5;" width="412.5" x="183.5" y="144.9219"/><rect fill="none" height="111.4063" style="stroke:#000000;stroke-width:1.5;" width="277.5" x="308.5" y="200.625"/><rect fill="none" height="48.7031" style="stroke:#000000;stroke-width:1.5;" width="159.5" x="416.5" y="256.3281"/><line style="stroke:#181818;stroke-width:0.5;stroke-dasharray:5.0,5.0;" x1="87" x2="87" y1="97.5703" y2="336.0313"/><line style="stroke:#181818;stroke-width:0.5;stroke-dasharray:5.0,5.0;" x1="246.5" x2="246.5" y1="97.5703" y2="336.0313"/><line style="stroke:#181818;stroke-width:0.5;stroke-dasharray:5.0,5.0;" x1="367.5" x2="367.5" y1="97.5703" y2="336.0313"/><line style="stroke:#181818;stroke-width:0.5;stroke-dasharray:5.0,5.0;" x1="443.5" x2="443.5" y1="97.5703" y2="336.0313"/><line style="stroke:#181818;stroke-width:0.5;stroke-dasharray:5.0,5.0;" x1="528" x2="528" y1="97.5703" y2="336.0313"/><rect fill="#E2E2F0" height="31.6094" rx="2.5" ry="2.5" style="stroke:#181818;stroke-width:0.5;" width="65" x="55" y="64.9609"/><text fill="#000000" font-family="sans-serif" font-size="14" lengthAdjust="spacing" textLength="51" x="62" y="86.4941">External</text><rect fill="#E2E2F0" height="31.6094" rx="2.5" ry="2.5" style="stroke:#181818;stroke-width:0.5;" width="65" x="55" y="335.0313"/><text fill="#000000" font-family="sans-serif" font-size="14" lengthAdjust="spacing" textLength="51" x="62" y="356.5645">External</text><rect fill="#E2E2F0" height="31.6094" rx="2.5" ry="2.5" style="stroke:#181818;stroke-width:0.5;" width="106" x="193.5" y="64.9609"/><text fill="#000000" font-family="sans-serif" font-size="14" lengthAdjust="spacing" textLength="92" x="200.5" y="86.4941">Storefront App</text><rect fill="#E2E2F0" height="31.6094" rx="2.5" ry="2.5" style="stroke:#181818;stroke-width:0.5;" width="106" x="193.5" y="335.0313"/><text fill="#000000" font-family="sans-serif" font-size="14" lengthAdjust="spacing" textLength="92" x="200.5" y="356.5645">Storefront App</text><rect fill="#E2E2F0" height="31.6094" rx="2.5" ry="2.5" style="stroke:#181818;stroke-width:0.5;" width="98" x="318.5" y="64.9609"/><text fill="#000000" font-family="sans-serif" font-size="14" lengthAdjust="spacing" textLength="84" x="325.5" y="86.4941">Storefront Bff</text><rect fill="#E2E2F0" height="31.6094" rx="2.5" ry="2.5" style="stroke:#181818;stroke-width:0.5;" width="98" x="318.5" y="335.0313"/><text fill="#000000" font-family="sans-serif" font-size="14" lengthAdjust="spacing" textLength="84" x="325.5" y="356.5645">Storefront Bff</text><rect fill="#E2E2F0" height="31.6094" rx="2.5" ry="2.5" style="stroke:#181818;stroke-width:0.5;" width="34" x="426.5" y="64.9609"/><text fill="#000000" font-family="sans-serif" font-size="14" lengthAdjust="spacing" textLength="20" x="433.5" y="86.4941">Api</text><rect fill="#E2E2F0" height="31.6094" rx="2.5" ry="2.5" style="stroke:#181818;stroke-width:0.5;" width="34" x="426.5" y="335.0313"/><text fill="#000000" font-family="sans-serif" font-size="14" lengthAdjust="spacing" textLength="20" x="433.5" y="356.5645">Api</text><rect fill="#E2E2F0" height="31.6094" rx="2.5" ry="2.5" style="stroke:#181818;stroke-width:0.5;" width="75" x="491" y="64.9609"/><text fill="#000000" font-family="sans-serif" font-size="14" lengthAdjust="spacing" textLength="61" x="498" y="86.4941">Database</text><rect fill="#E2E2F0" height="31.6094" rx="2.5" ry="2.5" style="stroke:#181818;stroke-width:0.5;" width="75" x="491" y="335.0313"/><text fill="#000000" font-family="sans-serif" font-size="14" lengthAdjust="spacing" textLength="61" x="498" y="356.5645">Database</text><polygon fill="#181818" points="234.5,125.9219,244.5,129.9219,234.5,133.9219,238.5,129.9219" style="stroke:#181818;stroke-width:1.0;"/><line style="stroke:#181818;stroke-width:1.0;" x1="87.5" x2="240.5" y1="129.9219" y2="129.9219"/><text fill="#000000" font-family="sans-serif" font-size="13" lengthAdjust="spacing" textLength="135" x="94.5" y="125.0654">Add Product To Basket</text><path d="M183.5,144.9219 L372.5,144.9219 L372.5,153.2734 L362.5,163.2734 L183.5,163.2734 L183.5,144.9219 " fill="#EEEEEE" style="stroke:#000000;stroke-width:1.5;"/><rect fill="none" height="174.1094" style="stroke:#000000;stroke-width:1.5;" width="412.5" x="183.5" y="144.9219"/><text fill="#000000" font-family="sans-serif" font-size="13" font-weight="bold" lengthAdjust="spacing" textLength="144" x="198.5" y="159.417">Add Product To Basket</text><polygon fill="#181818" points="355.5,181.625,365.5,185.625,355.5,189.625,359.5,185.625" style="stroke:#181818;stroke-width:1.0;"/><line style="stroke:#181818;stroke-width:1.0;" x1="246.5" x2="361.5" y1="185.625" y2="185.625"/><text fill="#000000" font-family="sans-serif" font-size="13" lengthAdjust="spacing" textLength="97" x="253.5" y="180.7686">Add Basket Item</text><path d="M308.5,200.625 L456.5,200.625 L456.5,208.9766 L446.5,218.9766 L308.5,218.9766 L308.5,200.625 " fill="#EEEEEE" style="stroke:#000000;stroke-width:1.5;"/><rect fill="none" height="111.4063" style="stroke:#000000;stroke-width:1.5;" width="277.5" x="308.5" y="200.625"/><text fill="#000000" font-family="sans-serif" font-size="13" font-weight="bold" lengthAdjust="spacing" textLength="103" x="323.5" y="215.1201">Add Basket Item</text><polygon fill="#181818" points="431.5,237.3281,441.5,241.3281,431.5,245.3281,435.5,241.3281" style="stroke:#181818;stroke-width:1.0;"/><line style="stroke:#181818;stroke-width:1.0;" x1="367.5" x2="437.5" y1="241.3281" y2="241.3281"/><text fill="#000000" font-family="sans-serif" font-size="13" lengthAdjust="spacing" textLength="52" x="374.5" y="236.4717">Add Item</text><path d="M416.5,256.3281 L518.5,256.3281 L518.5,264.6797 L508.5,274.6797 L416.5,274.6797 L416.5,256.3281 " fill="#EEEEEE" style="stroke:#000000;stroke-width:1.5;"/><rect fill="none" height="48.7031" style="stroke:#000000;stroke-width:1.5;" width="159.5" x="416.5" y="256.3281"/><text fill="#000000" font-family="sans-serif" font-size="13" font-weight="bold" lengthAdjust="spacing" textLength="57" x="431.5" y="270.8232">Add Item</text><polygon fill="#181818" points="516.5,293.0313,526.5,297.0313,516.5,301.0313,520.5,297.0313" style="stroke:#181818;stroke-width:1.0;"/><line style="stroke:#181818;stroke-width:1.0;" x1="443.5" x2="522.5" y1="297.0313" y2="297.0313"/><text fill="#000000" font-family="sans-serif" font-size="13" lengthAdjust="spacing" textLength="61" x="450.5" y="292.1748">Insert Item</text><!--SRC=[fP9DRy8m343l-HLUTwQddNQO11r8t90wQMVJkYnQccI9oyU_dnajZ35GAof5QjBu-TNsWm-ugX4Cxbp346jYjAWKQpO4qypLDOM25WQvSg664UJi0bN1MOQnzt8mBajO15Ss1SERWmd6J-BzHVfgo1OahvdSHcqfWA4r6QKy1jQ5zYYKPBfb2XPD0XWXUvfRsSwCswIvgtY3WV9TPAfZsbqyxCyXvre_g0lx2-0fI6AkyYPLDPWdCKejtHQIjXuvXRKkA877zm_Df42UiuHZhtjcEH1RO7giRKm5SSbzHSObHheNtd4KsHBapvHI_Ni5evUXxO3d_oTBhO9h_9LlGtCCr9AkjbfjL-VxEJm9_JuToksbSglrhTaVfPukDy7tgNM38tvp6ocqzP4nEYxr3G00]--></g></svg>