<?xml version="1.0" encoding="us-ascii" standalone="no"?><svg xmlns="http://www.w3.org/2000/svg" xmlns:xlink="http://www.w3.org/1999/xlink" contentStyleType="text/css" height="415px" preserveAspectRatio="none" style="width:910px;height:415px;background:#FFFFFF;" version="1.1" viewBox="0 0 910 415" width="910px" zoomAndPan="magnify"><defs/><g><text fill="#000000" font-family="sans-serif" font-size="14" font-weight="bold" lengthAdjust="spacing" textLength="882" x="10" y="24.5332">E Commerce Platform - Generate Demand - Order Management - Order Service - Message Handler - C4 Static - Container level</text><!--cluster ECommercePlatform.GenerateDemand.OrderManagement.SoftwareSystems.OrderService--><g id="cluster_ECommercePlatform.GenerateDemand.OrderManagement.SoftwareSystems.OrderService"><rect fill="none" height="266.5" rx="2.5" ry="2.5" style="stroke:#444444;stroke-width:1.0;stroke-dasharray:7.0,7.0;" width="263" x="75" y="45.6094"/><text fill="#444444" font-family="sans-serif" font-size="16" font-weight="bold" lengthAdjust="spacing" textLength="104" x="154.5" y="64.2188">Order Service</text><text fill="#444444" font-family="sans-serif" font-size="12" font-weight="bold" lengthAdjust="spacing" textLength="51" x="181" y="80.1914">[System]</text></g><!--cluster ECommercePlatform.Deliver.FraudManagement.SoftwareSystems.FraudService--><g id="cluster_ECommercePlatform.Deliver.FraudManagement.SoftwareSystems.FraudService"><rect fill="none" height="100" rx="2.5" ry="2.5" style="stroke:#444444;stroke-width:1.0;stroke-dasharray:7.0,7.0;" width="136" x="362" y="202.6094"/><text fill="#444444" font-family="sans-serif" font-size="16" font-weight="bold" lengthAdjust="spacing" textLength="106" x="377" y="221.2188">Fraud Service</text><text fill="#444444" font-family="sans-serif" font-size="12" font-weight="bold" lengthAdjust="spacing" textLength="51" x="404.5" y="237.1914">[System]</text></g><!--cluster ECommercePlatform.Deliver.Payments.SoftwareSystems.PaymentService--><g id="cluster_ECommercePlatform.Deliver.Payments.SoftwareSystems.PaymentService"><rect fill="none" height="100" rx="2.5" ry="2.5" style="stroke:#444444;stroke-width:1.0;stroke-dasharray:7.0,7.0;" width="144" x="522" y="202.6094"/><text fill="#444444" font-family="sans-serif" font-size="16" font-weight="bold" lengthAdjust="spacing" textLength="128" x="530" y="221.2188">Payment Service</text><text fill="#444444" font-family="sans-serif" font-size="12" font-weight="bold" lengthAdjust="spacing" textLength="51" x="568.5" y="237.1914">[System]</text></g><!--cluster ECommercePlatform.Deliver.Fulfilment.SoftwareSystems.FulfilmentService--><g id="cluster_ECommercePlatform.Deliver.Fulfilment.SoftwareSystems.FulfilmentService"><rect fill="none" height="100" rx="2.5" ry="2.5" style="stroke:#444444;stroke-width:1.0;stroke-dasharray:7.0,7.0;" width="152" x="690" y="202.6094"/><text fill="#444444" font-family="sans-serif" font-size="16" font-weight="bold" lengthAdjust="spacing" textLength="136" x="698" y="221.2188">Fulfilment Service</text><text fill="#444444" font-family="sans-serif" font-size="12" font-weight="bold" lengthAdjust="spacing" textLength="51" x="740.5" y="237.1914">[System]</text></g><!--entity ECommercePlatform.GenerateDemand.OrderManagement.SoftwareSystems.OrderService.Containers.MessageHandler--><g id="elem_ECommercePlatform.GenerateDemand.OrderManagement.SoftwareSystems.OrderService.Containers.MessageHandler"><rect fill="#438DD5" height="40.125" rx="2.5" ry="2.5" style="stroke:#3C7FC0;stroke-width:0.5;" width="152" x="170" y="99.6094"/><text fill="#FFFFFF" font-family="sans-serif" font-size="16" font-weight="bold" lengthAdjust="spacing" textLength="68" x="180" y="126.2188">Message</text><text fill="#FFFFFF" font-family="sans-serif" font-size="16" font-weight="bold" lengthAdjust="spacing" textLength="4" x="248" y="126.2188">&#160;</text><text fill="#FFFFFF" font-family="sans-serif" font-size="16" font-weight="bold" lengthAdjust="spacing" textLength="60" x="252" y="126.2188">Handler</text></g><!--entity ECommercePlatform.GenerateDemand.OrderManagement.SoftwareSystems.OrderService.Containers.Database--><g id="elem_ECommercePlatform.GenerateDemand.OrderManagement.SoftwareSystems.OrderService.Containers.Database"><path d="M91,257.1094 C91,247.1094 137,247.1094 137,247.1094 C137,247.1094 183,247.1094 183,257.1094 L183,286.2344 C183,296.2344 137,296.2344 137,296.2344 C137,296.2344 91,296.2344 91,286.2344 L91,257.1094 " fill="#438DD5" style="stroke:#3C7FC0;stroke-width:0.5;"/><path d="M91,257.1094 C91,267.1094 137,267.1094 137,267.1094 C137,267.1094 183,267.1094 183,257.1094 " fill="none" style="stroke:#3C7FC0;stroke-width:0.5;"/><text fill="#FFFFFF" font-family="sans-serif" font-size="16" font-weight="bold" lengthAdjust="spacing" textLength="72" x="101" y="287.7188">Database</text></g><!--entity ECommercePlatform.GenerateDemand.OrderManagement.SoftwareSystems.OrderService.Containers.Messaging--><g id="elem_ECommercePlatform.GenerateDemand.OrderManagement.SoftwareSystems.OrderService.Containers.Messaging"><path d="M223.5,256.6094 L316.5,256.6094 C321.5,256.6094 321.5,271.6719 321.5,271.6719 C321.5,271.6719 321.5,286.7344 316.5,286.7344 L223.5,286.7344 C218.5,286.7344 218.5,271.6719 218.5,271.6719 C218.5,271.6719 218.5,256.6094 223.5,256.6094 " fill="#438DD5" style="stroke:#3C7FC0;stroke-width:0.5;"/><path d="M316.5,256.6094 C311.5,256.6094 311.5,271.6719 311.5,271.6719 C311.5,286.7344 316.5,286.7344 316.5,286.7344 " fill="none" style="stroke:#3C7FC0;stroke-width:0.5;"/><text fill="#FFFFFF" font-family="sans-serif" font-size="16" font-weight="bold" lengthAdjust="spacing" textLength="83" x="223.5" y="278.2188">Messaging</text></g><!--entity ECommercePlatform.Deliver.FraudManagement.SoftwareSystems.FraudService.Containers.Messaging--><g id="elem_ECommercePlatform.Deliver.FraudManagement.SoftwareSystems.FraudService.Containers.Messaging"><path d="M383.5,256.6094 L476.5,256.6094 C481.5,256.6094 481.5,271.6719 481.5,271.6719 C481.5,271.6719 481.5,286.7344 476.5,286.7344 L383.5,286.7344 C378.5,286.7344 378.5,271.6719 378.5,271.6719 C378.5,271.6719 378.5,256.6094 383.5,256.6094 " fill="#438DD5" style="stroke:#3C7FC0;stroke-width:0.5;"/><path d="M476.5,256.6094 C471.5,256.6094 471.5,271.6719 471.5,271.6719 C471.5,286.7344 476.5,286.7344 476.5,286.7344 " fill="none" style="stroke:#3C7FC0;stroke-width:0.5;"/><text fill="#FFFFFF" font-family="sans-serif" font-size="16" font-weight="bold" lengthAdjust="spacing" textLength="83" x="383.5" y="278.2188">Messaging</text></g><!--entity ECommercePlatform.Deliver.Payments.SoftwareSystems.PaymentService.Containers.Messaging--><g id="elem_ECommercePlatform.Deliver.Payments.SoftwareSystems.PaymentService.Containers.Messaging"><path d="M543.5,256.6094 L636.5,256.6094 C641.5,256.6094 641.5,271.6719 641.5,271.6719 C641.5,271.6719 641.5,286.7344 636.5,286.7344 L543.5,286.7344 C538.5,286.7344 538.5,271.6719 538.5,271.6719 C538.5,271.6719 538.5,256.6094 543.5,256.6094 " fill="#438DD5" style="stroke:#3C7FC0;stroke-width:0.5;"/><path d="M636.5,256.6094 C631.5,256.6094 631.5,271.6719 631.5,271.6719 C631.5,286.7344 636.5,286.7344 636.5,286.7344 " fill="none" style="stroke:#3C7FC0;stroke-width:0.5;"/><text fill="#FFFFFF" font-family="sans-serif" font-size="16" font-weight="bold" lengthAdjust="spacing" textLength="83" x="543.5" y="278.2188">Messaging</text></g><!--entity ECommercePlatform.Deliver.Fulfilment.SoftwareSystems.FulfilmentService.Containers.Messaging--><g id="elem_ECommercePlatform.Deliver.Fulfilment.SoftwareSystems.FulfilmentService.Containers.Messaging"><path d="M711.5,256.6094 L804.5,256.6094 C809.5,256.6094 809.5,271.6719 809.5,271.6719 C809.5,271.6719 809.5,286.7344 804.5,286.7344 L711.5,286.7344 C706.5,286.7344 706.5,271.6719 706.5,271.6719 C706.5,271.6719 706.5,256.6094 711.5,256.6094 " fill="#438DD5" style="stroke:#3C7FC0;stroke-width:0.5;"/><path d="M804.5,256.6094 C799.5,256.6094 799.5,271.6719 799.5,271.6719 C799.5,286.7344 804.5,286.7344 804.5,286.7344 " fill="none" style="stroke:#3C7FC0;stroke-width:0.5;"/><text fill="#FFFFFF" font-family="sans-serif" font-size="16" font-weight="bold" lengthAdjust="spacing" textLength="83" x="711.5" y="278.2188">Messaging</text></g><!--link ECommercePlatform.GenerateDemand.OrderManagement.SoftwareSystems.OrderService.Containers.MessageHandler to ECommercePlatform.Deliver.FraudManagement.SoftwareSystems.FraudService.Containers.Messaging--><g id="link_ECommercePlatform.GenerateDemand.OrderManagement.SoftwareSystems.OrderService.Containers.MessageHandler_ECommercePlatform.Deliver.FraudManagement.SoftwareSystems.FraudService.Containers.Messaging"><path d="M269.69,139.6694 C296.95,161.5894 338,194.6094 338,194.6094 C338,194.6094 379.8817,229.205 406.5317,251.215 " fill="none" id="ECommercePlatform.GenerateDemand.OrderManagement.SoftwareSystems.OrderService.Containers.MessageHandler-to-ECommercePlatform.Deliver.FraudManagement.SoftwareSystems.FraudService.Containers.Messaging" style="stroke:#666666;stroke-width:1.0;"/><polygon fill="#666666" points="412.7,256.3094,408.4421,248.9019,404.6213,253.5281,412.7,256.3094" style="stroke:#666666;stroke-width:1.0;"/><text fill="#666666" font-family="sans-serif" font-size="12" font-weight="bold" lengthAdjust="spacing" textLength="29" x="328" y="183.0664">Uses</text></g><!--link ECommercePlatform.GenerateDemand.OrderManagement.SoftwareSystems.OrderService.Containers.MessageHandler to ECommercePlatform.GenerateDemand.OrderManagement.SoftwareSystems.OrderService.Containers.Database--><g id="link_ECommercePlatform.GenerateDemand.OrderManagement.SoftwareSystems.OrderService.Containers.MessageHandler_ECommercePlatform.GenerateDemand.OrderManagement.SoftwareSystems.OrderService.Containers.Database"><path d="M231.97,139.9094 C212.08,167.2894 180.4025,210.8774 158.9025,240.4674 " fill="none" id="ECommercePlatform.GenerateDemand.OrderManagement.SoftwareSystems.OrderService.Containers.MessageHandler-to-ECommercePlatform.GenerateDemand.OrderManagement.SoftwareSystems.OrderService.Containers.Database" style="stroke:#666666;stroke-width:1.0;"/><polygon fill="#666666" points="154.2,246.9394,161.3295,242.2308,156.4755,238.704,154.2,246.9394" style="stroke:#666666;stroke-width:1.0;"/><text fill="#666666" font-family="sans-serif" font-size="12" font-weight="bold" lengthAdjust="spacing" textLength="29" x="209" y="183.0664">Uses</text></g><!--link ECommercePlatform.GenerateDemand.OrderManagement.SoftwareSystems.OrderService.Containers.MessageHandler to ECommercePlatform.GenerateDemand.OrderManagement.SoftwareSystems.OrderService.Containers.Messaging--><g id="link_ECommercePlatform.GenerateDemand.OrderManagement.SoftwareSystems.OrderService.Containers.MessageHandler_ECommercePlatform.GenerateDemand.OrderManagement.SoftwareSystems.OrderService.Containers.Messaging"><path d="M249.09,139.9094 C253.98,170.4594 262.1169,221.3297 266.4469,248.4097 " fill="none" id="ECommercePlatform.GenerateDemand.OrderManagement.SoftwareSystems.OrderService.Containers.MessageHandler-to-ECommercePlatform.GenerateDemand.OrderManagement.SoftwareSystems.OrderService.Containers.Messaging" style="stroke:#666666;stroke-width:1.0;"/><polygon fill="#666666" points="267.71,256.3094,269.4092,247.936,263.4845,248.8834,267.71,256.3094" style="stroke:#666666;stroke-width:1.0;"/><text fill="#666666" font-family="sans-serif" font-size="12" font-weight="bold" lengthAdjust="spacing" textLength="29" x="257" y="183.0664">Uses</text></g><!--link ECommercePlatform.GenerateDemand.OrderManagement.SoftwareSystems.OrderService.Containers.MessageHandler to ECommercePlatform.Deliver.Payments.SoftwareSystems.PaymentService.Containers.Messaging--><g id="link_ECommercePlatform.GenerateDemand.OrderManagement.SoftwareSystems.OrderService.Containers.MessageHandler_ECommercePlatform.Deliver.Payments.SoftwareSystems.PaymentService.Containers.Messaging"><path d="M310.9,139.6694 C385.56,161.5894 498,194.6094 498,194.6094 C498,194.6094 539.8817,229.205 566.5317,251.215 " fill="none" id="ECommercePlatform.GenerateDemand.OrderManagement.SoftwareSystems.OrderService.Containers.MessageHandler-to-ECommercePlatform.Deliver.Payments.SoftwareSystems.PaymentService.Containers.Messaging" style="stroke:#666666;stroke-width:1.0;"/><polygon fill="#666666" points="572.7,256.3094,568.4421,248.9019,564.6213,253.5281,572.7,256.3094" style="stroke:#666666;stroke-width:1.0;"/><text fill="#666666" font-family="sans-serif" font-size="12" font-weight="bold" lengthAdjust="spacing" textLength="29" x="467" y="183.0664">Uses</text></g><!--link ECommercePlatform.GenerateDemand.OrderManagement.SoftwareSystems.OrderService.Containers.MessageHandler to ECommercePlatform.Deliver.Fulfilment.SoftwareSystems.FulfilmentService.Containers.Messaging--><g id="link_ECommercePlatform.GenerateDemand.OrderManagement.SoftwareSystems.OrderService.Containers.MessageHandler_ECommercePlatform.Deliver.Fulfilment.SoftwareSystems.FulfilmentService.Containers.Messaging"><path d="M322.05,134.2694 C441.09,155.6494 658,194.6094 658,194.6094 C658,194.6094 703.8499,229.4597 732.8199,251.4697 " fill="none" id="ECommercePlatform.GenerateDemand.OrderManagement.SoftwareSystems.OrderService.Containers.MessageHandler-to-ECommercePlatform.Deliver.Fulfilment.SoftwareSystems.FulfilmentService.Containers.Messaging" style="stroke:#666666;stroke-width:1.0;"/><polygon fill="#666666" points="739.19,256.3094,734.6348,249.0809,731.0051,253.8585,739.19,256.3094" style="stroke:#666666;stroke-width:1.0;"/><text fill="#666666" font-family="sans-serif" font-size="12" font-weight="bold" lengthAdjust="spacing" textLength="29" x="607" y="183.0664">Uses</text></g><rect fill="none" height="17.6094" style="stroke:none;stroke-width:1.0;" width="182" x="635" y="336.1094"/><text fill="#000000" font-family="sans-serif" font-size="14" font-weight="bold" lengthAdjust="spacing" textLength="53" x="635" y="350.6426">Legend</text><text fill="#FFFFFF" font-family="sans-serif" font-size="14" lengthAdjust="spacing" textLength="4" x="688" y="350.6426">&#160;</text><rect fill="#438DD5" height="17.6094" style="stroke:none;stroke-width:1.0;" width="182" x="635" y="353.7188"/><text fill="#3C7FC0" font-family="sans-serif" font-size="14" lengthAdjust="spacing" textLength="14" x="639" y="368.252">&#9647;</text><text fill="#FFFFFF" font-family="sans-serif" font-size="14" lengthAdjust="spacing" textLength="4" x="653" y="368.252">&#160;</text><text fill="#FFFFFF" font-family="sans-serif" font-size="14" lengthAdjust="spacing" textLength="59" x="661" y="368.252">container</text><text fill="#FFFFFF" font-family="sans-serif" font-size="14" lengthAdjust="spacing" textLength="4" x="724" y="368.252">&#160;</text><rect fill="none" height="17.6094" style="stroke:none;stroke-width:1.0;" width="182" x="635" y="371.3281"/><text fill="#444444" font-family="sans-serif" font-size="14" lengthAdjust="spacing" textLength="14" x="639" y="385.8613">&#9647;</text><text fill="#FFFFFF" font-family="sans-serif" font-size="14" lengthAdjust="spacing" textLength="4" x="653" y="385.8613">&#160;</text><text fill="#444444" font-family="sans-serif" font-size="14" lengthAdjust="spacing" textLength="108" x="661" y="385.8613">system boundary</text><text fill="#444444" font-family="sans-serif" font-size="10" lengthAdjust="spacing" textLength="40" x="773" y="386.7402">(dashed)</text><text fill="#FFFFFF" font-family="sans-serif" font-size="14" lengthAdjust="spacing" textLength="4" x="813" y="385.8613">&#160;</text><line style="stroke:none;stroke-width:1.0;" x1="635" x2="817" y1="336.1094" y2="336.1094"/><line style="stroke:none;stroke-width:1.0;" x1="635" x2="817" y1="353.7188" y2="353.7188"/><line style="stroke:none;stroke-width:1.0;" x1="635" x2="817" y1="371.3281" y2="371.3281"/><line style="stroke:none;stroke-width:1.0;" x1="635" x2="817" y1="388.9375" y2="388.9375"/><line style="stroke:none;stroke-width:1.0;" x1="635" x2="635" y1="336.1094" y2="388.9375"/><line style="stroke:none;stroke-width:1.0;" x1="817" x2="817" y1="336.1094" y2="388.9375"/><!--SRC=[tLPRRvim57xdLtXi3q5gUCfJfJwqWRQJsf25LDMaIiY10xLcxCWsoT2q_pvp2P0jMMcMRDLG8jddcFDTZkta7M4XpI90jlsqunEEvDDu58mvKvWm4FOoIwbXN4QHIo45fkOu6PZXY3058gPyVKv9364UKZXdi3RFq8T5CkQKYuj4030zZtMjAl8-BfzY3HSHYErryXb7V4rOSc5UOoh1jFh1Xi-O9H1reRaeGZsmcuM7WWj8-MeRN43K0xbQjGEsm9q1VTbd1L_LjeDKTwmJiLukrV6kBTUOqjQhGZqATlne2rPQssfwhdNwjzvZC7LdlZS9fjviFhlyE1zOnjtbP-zX7iozQU1uZnCTCUGNmfPOu1GLDLI-1BJaD2ycXg68ee1SDEPf2Y84DALOnLoaQ8XkG6zXh00va68MwOXNT03TOuQJihLDo0Un8lhj8Re7ANKMtUetgCuCqNY4V8KL2OlnvcGW2YlGHyFmSwaW3QvunY8iye6xOR8XOczeL2pi4h2bOFiyLciie2eagtpDvmoPM_nC2tqpa7uQ7iV5ivkwqgwDg7tGJ7voHZVPBB_MDYDdSJfE3bPuWMNXosQuZyQd338ujJlww3R6w767o_S-EyC1IbRwbhqME8j-GwBCjrkYdExV4lkK7u9sCibJd1VWyXVqEj6ghGE7w-q9TRhkPZGcTBVLJQhJtIRs1or-1UGhTUiVWBztvvns4pz8a5hKFrPq_AlnlzBrzXfsf7lbROavnerHAwh_szsvD-x46LW_0000]--></g></svg>