<?xml version="1.0" encoding="us-ascii" standalone="no"?><svg xmlns="http://www.w3.org/2000/svg" xmlns:xlink="http://www.w3.org/1999/xlink" contentStyleType="text/css" height="437px" preserveAspectRatio="none" style="width:557px;height:437px;background:#FFFFFF;" version="1.1" viewBox="0 0 557 437" width="557px" zoomAndPan="magnify"><defs/><g><text fill="#000000" font-family="sans-serif" font-size="14" font-weight="bold" lengthAdjust="spacing" textLength="424" x="68.25" y="29.5332">E Commerce Platform - Fulfilment - Sequence - Context level</text><rect fill="none" height="141.7578" style="stroke:#000000;stroke-width:1.5;" width="541.5" x="10" y="136.5703"/><rect fill="none" height="48.7031" style="stroke:#000000;stroke-width:1.5;" width="521.5" x="20" y="222.625"/><rect fill="none" height="48.7031" style="stroke:#000000;stroke-width:1.5;" width="372" x="20" y="335.6797"/><line style="stroke:#181818;stroke-width:0.5;stroke-dasharray:5.0,5.0;" x1="93" x2="93" y1="76.2188" y2="401.3828"/><line style="stroke:#181818;stroke-width:0.5;stroke-dasharray:5.0,5.0;" x1="331" x2="331" y1="76.2188" y2="401.3828"/><line style="stroke:#181818;stroke-width:0.5;stroke-dasharray:5.0,5.0;" x1="507.5" x2="507.5" y1="76.2188" y2="401.3828"/><rect fill="#E2E2F0" height="31.6094" rx="2.5" ry="2.5" style="stroke:#181818;stroke-width:0.5;" width="126" x="30" y="43.6094"/><text fill="#000000" font-family="sans-serif" font-size="14" lengthAdjust="spacing" textLength="112" x="37" y="65.1426">Fulfilment Service</text><rect fill="#E2E2F0" height="31.6094" rx="2.5" ry="2.5" style="stroke:#181818;stroke-width:0.5;" width="126" x="30" y="400.3828"/><text fill="#000000" font-family="sans-serif" font-size="14" lengthAdjust="spacing" textLength="112" x="37" y="421.916">Fulfilment Service</text><rect fill="#E2E2F0" height="31.6094" rx="2.5" ry="2.5" style="stroke:#181818;stroke-width:0.5;" width="102" x="280" y="43.6094"/><text fill="#000000" font-family="sans-serif" font-size="14" lengthAdjust="spacing" textLength="88" x="287" y="65.1426">Order Service</text><rect fill="#E2E2F0" height="31.6094" rx="2.5" ry="2.5" style="stroke:#181818;stroke-width:0.5;" width="102" x="280" y="400.3828"/><text fill="#000000" font-family="sans-serif" font-size="14" lengthAdjust="spacing" textLength="88" x="287" y="421.916">Order Service</text><rect fill="#E2E2F0" height="31.6094" rx="2.5" ry="2.5" style="stroke:#181818;stroke-width:0.5;" width="47" x="484.5" y="43.6094"/><text fill="#000000" font-family="sans-serif" font-size="14" lengthAdjust="spacing" textLength="33" x="491.5" y="65.1426">WMS</text><rect fill="#E2E2F0" height="31.6094" rx="2.5" ry="2.5" style="stroke:#181818;stroke-width:0.5;" width="47" x="484.5" y="400.3828"/><text fill="#000000" font-family="sans-serif" font-size="14" lengthAdjust="spacing" textLength="33" x="491.5" y="421.916">WMS</text><line style="stroke:#181818;stroke-width:1.0;" x1="93" x2="135" y1="108.5703" y2="108.5703"/><line style="stroke:#181818;stroke-width:1.0;" x1="135" x2="135" y1="108.5703" y2="121.5703"/><line style="stroke:#181818;stroke-width:1.0;" x1="94" x2="135" y1="121.5703" y2="121.5703"/><polygon fill="#181818" points="104,117.5703,94,121.5703,104,125.5703,100,121.5703" style="stroke:#181818;stroke-width:1.0;"/><text fill="#000000" font-family="sans-serif" font-size="13" lengthAdjust="spacing" textLength="209" x="100" y="103.7139">Handle Order Status Changed Event</text><path d="M10,136.5703 L283,136.5703 L283,144.9219 L273,154.9219 L10,154.9219 L10,136.5703 " fill="#EEEEEE" style="stroke:#000000;stroke-width:1.5;"/><rect fill="none" height="141.7578" style="stroke:#000000;stroke-width:1.5;" width="541.5" x="10" y="136.5703"/><text fill="#000000" font-family="sans-serif" font-size="13" font-weight="bold" lengthAdjust="spacing" textLength="228" x="25" y="151.0654">Handle Order Status Changed Event</text><polygon fill="#181818" points="319,173.2734,329,177.2734,319,181.2734,323,177.2734" style="stroke:#181818;stroke-width:1.0;"/><line style="stroke:#181818;stroke-width:1.0;" x1="93" x2="325" y1="177.2734" y2="177.2734"/><text fill="#000000" font-family="sans-serif" font-size="13" lengthAdjust="spacing" textLength="214" x="100" y="172.417">Receive Order Status Changed Event</text><polygon fill="#181818" points="496,203.625,506,207.625,496,211.625,500,207.625" style="stroke:#181818;stroke-width:1.0;"/><line style="stroke:#181818;stroke-width:1.0;" x1="93" x2="502" y1="207.625" y2="207.625"/><text fill="#000000" font-family="sans-serif" font-size="13" lengthAdjust="spacing" textLength="62" x="100" y="202.7686">Ship Order</text><path d="M20,222.625 L134,222.625 L134,230.9766 L124,240.9766 L20,240.9766 L20,222.625 " fill="#EEEEEE" style="stroke:#000000;stroke-width:1.5;"/><rect fill="none" height="48.7031" style="stroke:#000000;stroke-width:1.5;" width="521.5" x="20" y="222.625"/><text fill="#000000" font-family="sans-serif" font-size="13" font-weight="bold" lengthAdjust="spacing" textLength="69" x="35" y="237.1201">Ship Order</text><polygon fill="#181818" points="104,259.3281,94,263.3281,104,267.3281,100,263.3281" style="stroke:#181818;stroke-width:1.0;"/><line style="stroke:#181818;stroke-width:1.0;" x1="98" x2="507" y1="263.3281" y2="263.3281"/><text fill="#000000" font-family="sans-serif" font-size="13" lengthAdjust="spacing" textLength="150" x="110" y="258.4717">Post Order Shipped Event</text><line style="stroke:#181818;stroke-width:1.0;" x1="331" x2="373" y1="307.6797" y2="307.6797"/><line style="stroke:#181818;stroke-width:1.0;" x1="373" x2="373" y1="307.6797" y2="320.6797"/><line style="stroke:#181818;stroke-width:1.0;" x1="332" x2="373" y1="320.6797" y2="320.6797"/><polygon fill="#181818" points="342,316.6797,332,320.6797,342,324.6797,338,320.6797" style="stroke:#181818;stroke-width:1.0;"/><text fill="#000000" font-family="sans-serif" font-size="13" lengthAdjust="spacing" textLength="163" x="338" y="302.8232">Handle Order Shipped Event</text><path d="M20,335.6797 L246,335.6797 L246,344.0313 L236,354.0313 L20,354.0313 L20,335.6797 " fill="#EEEEEE" style="stroke:#000000;stroke-width:1.5;"/><rect fill="none" height="48.7031" style="stroke:#000000;stroke-width:1.5;" width="372" x="20" y="335.6797"/><text fill="#000000" font-family="sans-serif" font-size="13" font-weight="bold" lengthAdjust="spacing" textLength="181" x="35" y="350.1748">Handle Order Shipped Event</text><polygon fill="#181818" points="104,372.3828,94,376.3828,104,380.3828,100,376.3828" style="stroke:#181818;stroke-width:1.0;"/><line style="stroke:#181818;stroke-width:1.0;" x1="98" x2="330" y1="376.3828" y2="376.3828"/><text fill="#000000" font-family="sans-serif" font-size="13" lengthAdjust="spacing" textLength="168" x="110" y="371.5264">Receive Order Shipped Event</text><!--SRC=[nLB1JeGm4Btp5PEzmmTuyBABUjcuiGVF3JpO9ct1Cg3-lHC41ILnix9wwA7jcvatxpqsR44fRIld43BGmMekgk0efflM5iOwU9QBmbCBBu1Oi9xnmcJHmKPHhGERpDHQS9j9ZKBeJ8ODwORIiV_OFjd1cWuX-In8L5NmimvGhmt3DPEleTLyr7t84NwOSWkFe1axEEtpf2_PQwzBB4xi_nU7FUxL-Oj8SHIj8m75rok9ILTq9vg8-uEGhBbjQ7lKlaHEQIVGg0nLMv-0k-Hol_1GTdn01Y7oN-HFIuVmL4TJlvCSH9yydDrspR0SgeP75OLQ_I4VVDwVTPsxG1JcCPxji9Jp6U0FbZlJboy1_sPDz0O0]--></g></svg>