<?xml version="1.0" encoding="us-ascii" standalone="no"?><svg xmlns="http://www.w3.org/2000/svg" xmlns:xlink="http://www.w3.org/1999/xlink" contentStyleType="text/css" height="416px" preserveAspectRatio="none" style="width:561px;height:416px;background:#FFFFFF;" version="1.1" viewBox="0 0 561 416" width="561px" zoomAndPan="magnify"><defs/><g><text fill="#000000" font-family="sans-serif" font-size="14" font-weight="bold" lengthAdjust="spacing" textLength="533" x="10" y="29.5332">Catalog Api - Api - Catalog Api - Get Item By Id - Sequence - Component level</text><rect fill="#FFFFFF" height="366.0313" style="stroke:#181818;stroke-width:0.5;" width="95" x="182.75" y="44.6094"/><text fill="#000000" font-family="sans-serif" font-size="13" font-weight="bold" lengthAdjust="spacing" textLength="21" x="219.75" y="58.1045">Api</text><rect fill="none" height="213.1094" style="stroke:#000000;stroke-width:1.5;" width="292.5" x="166.75" y="144.9219"/><rect fill="none" height="61.7031" style="stroke:#000000;stroke-width:1.5;" width="272.5" x="176.75" y="170.2734"/><rect fill="none" height="61.7031" style="stroke:#000000;stroke-width:1.5;" width="257.5" x="176.75" y="245.9766"/><line style="stroke:#181818;stroke-width:0.5;stroke-dasharray:5.0,5.0;" x1="121.75" x2="121.75" y1="97.5703" y2="375.0313"/><line style="stroke:#181818;stroke-width:0.5;stroke-dasharray:5.0,5.0;" x1="229.75" x2="229.75" y1="97.5703" y2="375.0313"/><rect fill="#E2E2F0" height="31.6094" rx="2.5" ry="2.5" style="stroke:#181818;stroke-width:0.5;" width="65" x="89.75" y="64.9609"/><text fill="#000000" font-family="sans-serif" font-size="14" lengthAdjust="spacing" textLength="51" x="96.75" y="86.4941">External</text><rect fill="#E2E2F0" height="31.6094" rx="2.5" ry="2.5" style="stroke:#181818;stroke-width:0.5;" width="65" x="89.75" y="374.0313"/><text fill="#000000" font-family="sans-serif" font-size="14" lengthAdjust="spacing" textLength="51" x="96.75" y="395.5645">External</text><rect fill="#E2E2F0" height="31.6094" rx="2.5" ry="2.5" style="stroke:#181818;stroke-width:0.5;" width="87" x="186.75" y="64.9609"/><text fill="#000000" font-family="sans-serif" font-size="14" lengthAdjust="spacing" textLength="73" x="193.75" y="86.4941">Catalog Api</text><rect fill="#E2E2F0" height="31.6094" rx="2.5" ry="2.5" style="stroke:#181818;stroke-width:0.5;" width="87" x="186.75" y="374.0313"/><text fill="#000000" font-family="sans-serif" font-size="14" lengthAdjust="spacing" textLength="73" x="193.75" y="395.5645">Catalog Api</text><polygon fill="#181818" points="218.25,125.9219,228.25,129.9219,218.25,133.9219,222.25,129.9219" style="stroke:#181818;stroke-width:1.0;"/><line style="stroke:#181818;stroke-width:1.0;" x1="122.25" x2="224.25" y1="129.9219" y2="129.9219"/><text fill="#000000" font-family="sans-serif" font-size="13" lengthAdjust="spacing" textLength="84" x="129.25" y="125.0654">Get Item By Id</text><path d="M166.75,144.9219 L301.75,144.9219 L301.75,153.2734 L291.75,163.2734 L166.75,163.2734 L166.75,144.9219 " fill="#EEEEEE" style="stroke:#000000;stroke-width:1.5;"/><rect fill="none" height="213.1094" style="stroke:#000000;stroke-width:1.5;" width="292.5" x="166.75" y="144.9219"/><text fill="#000000" font-family="sans-serif" font-size="13" font-weight="bold" lengthAdjust="spacing" textLength="90" x="181.75" y="159.417">Get Item By Id</text><path d="M176.75,170.2734 L237.75,170.2734 L237.75,178.625 L227.75,188.625 L176.75,188.625 L176.75,170.2734 " fill="#EEEEEE" style="stroke:#000000;stroke-width:1.5;"/><rect fill="none" height="61.7031" style="stroke:#000000;stroke-width:1.5;" width="272.5" x="176.75" y="170.2734"/><text fill="#000000" font-family="sans-serif" font-size="13" font-weight="bold" lengthAdjust="spacing" textLength="16" x="191.75" y="184.7686">alt</text><text fill="#000000" font-family="sans-serif" font-size="11" font-weight="bold" lengthAdjust="spacing" textLength="42" x="252.75" y="183.6924">[id &lt;= 0]</text><line style="stroke:#181818;stroke-width:1.0;" x1="230.25" x2="272.25" y1="210.9766" y2="210.9766"/><line style="stroke:#181818;stroke-width:1.0;" x1="272.25" x2="272.25" y1="210.9766" y2="223.9766"/><line style="stroke:#181818;stroke-width:1.0;" x1="231.25" x2="272.25" y1="223.9766" y2="223.9766"/><polygon fill="#181818" points="241.25,219.9766,231.25,223.9766,241.25,227.9766,237.25,223.9766" style="stroke:#181818;stroke-width:1.0;"/><text fill="#000000" font-family="sans-serif" font-size="13" lengthAdjust="spacing" textLength="200" x="237.25" y="206.1201">Retun (TypedResults.BadRequest)</text><path d="M176.75,245.9766 L237.75,245.9766 L237.75,254.3281 L227.75,264.3281 L176.75,264.3281 L176.75,245.9766 " fill="#EEEEEE" style="stroke:#000000;stroke-width:1.5;"/><rect fill="none" height="61.7031" style="stroke:#000000;stroke-width:1.5;" width="257.5" x="176.75" y="245.9766"/><text fill="#000000" font-family="sans-serif" font-size="13" font-weight="bold" lengthAdjust="spacing" textLength="16" x="191.75" y="260.4717">alt</text><text fill="#000000" font-family="sans-serif" font-size="11" font-weight="bold" lengthAdjust="spacing" textLength="71" x="252.75" y="259.3955">[item == null]</text><line style="stroke:#181818;stroke-width:1.0;" x1="230.25" x2="272.25" y1="286.6797" y2="286.6797"/><line style="stroke:#181818;stroke-width:1.0;" x1="272.25" x2="272.25" y1="286.6797" y2="299.6797"/><line style="stroke:#181818;stroke-width:1.0;" x1="231.25" x2="272.25" y1="299.6797" y2="299.6797"/><polygon fill="#181818" points="241.25,295.6797,231.25,299.6797,241.25,303.6797,237.25,299.6797" style="stroke:#181818;stroke-width:1.0;"/><text fill="#000000" font-family="sans-serif" font-size="13" lengthAdjust="spacing" textLength="185" x="237.25" y="281.8232">Retun (TypedResults.NotFound)</text><line style="stroke:#181818;stroke-width:1.0;" x1="230.25" x2="272.25" y1="337.0313" y2="337.0313"/><line style="stroke:#181818;stroke-width:1.0;" x1="272.25" x2="272.25" y1="337.0313" y2="350.0313"/><line style="stroke:#181818;stroke-width:1.0;" x1="231.25" x2="272.25" y1="350.0313" y2="350.0313"/><polygon fill="#181818" points="241.25,346.0313,231.25,350.0313,241.25,354.0313,237.25,350.0313" style="stroke:#181818;stroke-width:1.0;"/><text fill="#000000" font-family="sans-serif" font-size="13" lengthAdjust="spacing" textLength="146" x="237.25" y="332.1748">Retun (TypedResults.Ok)</text><!--SRC=[tPAnJWCn38RtF8Kv5XXwOc125AcjAEe2KW-9sToPDY9dXyIXlRSdfok2beMbIpD4yHyx_ZyvPpxWgaLms4bIY2qfCXgZLXt131MTh63YBOns-xxsG0eBfHQc7IoQB5JqaOXhwZEbzSB42eu-oHdZCQYjhSSi5VTRfS3e2i08i-i5vt3kP5DMygOR35HrCJySo-_48JRcLRPG_79HmFdBsYePo6kuFLJt6k-LvjwDA9EMLAt5bvDGzrMrfa1_dEmgSs4v4rQqJ26MGxX3_PraY1l8VipFmVmV54PtnxC6DmUJCwiWoH-Aw1Hi0xTZk3B7yt9aq2LfOhXuxZmrIuh9vOGfvcF-g54l- -4Ce3ttU0oSd3ijsaVHkIHk1jQJGdjw7w3C5m00]--></g></svg>