<?xml version="1.0" encoding="us-ascii" standalone="no"?><svg xmlns="http://www.w3.org/2000/svg" xmlns:xlink="http://www.w3.org/1999/xlink" contentStyleType="text/css" height="1359px" preserveAspectRatio="none" style="width:1317px;height:1359px;background:#FFFFFF;" version="1.1" viewBox="0 0 1317 1359" width="1317px" zoomAndPan="magnify"><defs/><g><text fill="#000000" font-family="sans-serif" font-size="14" font-weight="bold" lengthAdjust="spacing" textLength="441" x="439.75" y="29.5332">TraderXExample - Execute Trades - Sequence - Container level</text><rect fill="#FFFFFF" height="1302.2266" style="stroke:#181818;stroke-width:0.5;" width="1072.5" x="103" y="44.6094"/><text fill="#000000" font-family="sans-serif" font-size="13" font-weight="bold" lengthAdjust="spacing" textLength="51" x="613.75" y="58.1045">TraderX</text><rect fill="none" height="297.5156" style="stroke:#000000;stroke-width:1.5;" width="1004" x="10" y="145.5703"/><rect fill="none" height="234.8125" style="stroke:#000000;stroke-width:1.5;" width="907" x="97" y="201.2734"/><rect fill="none" height="172.1094" style="stroke:#000000;stroke-width:1.5;" width="628.5" x="365.5" y="256.9766"/><rect fill="none" height="79.0547" style="stroke:#000000;stroke-width:1.5;" width="363.5" x="620.5" y="343.0313"/><rect fill="none" height="263.1641" style="stroke:#000000;stroke-width:1.5;" width="536.5" x="775" y="457.0859"/><rect fill="none" height="200.4609" style="stroke:#000000;stroke-width:1.5;" width="396.5" x="785" y="512.7891"/><rect fill="none" height="247.8125" style="stroke:#000000;stroke-width:1.5;" width="1234.5" x="77" y="734.25"/><rect fill="none" height="185.1094" style="stroke:#000000;stroke-width:1.5;" width="897" x="87" y="789.9531"/><rect fill="none" height="61.7031" style="stroke:#000000;stroke-width:1.5;" width="306" x="97" y="906.3594"/><rect fill="none" height="267.1641" style="stroke:#000000;stroke-width:1.5;" width="1004" x="10" y="996.0625"/><rect fill="none" height="204.4609" style="stroke:#000000;stroke-width:1.5;" width="907" x="97" y="1051.7656"/><rect fill="none" height="141.7578" style="stroke:#000000;stroke-width:1.5;" width="628.5" x="365.5" y="1107.4688"/><rect fill="none" height="79.0547" style="stroke:#000000;stroke-width:1.5;" width="363.5" x="620.5" y="1163.1719"/><line style="stroke:#181818;stroke-width:0.5;stroke-dasharray:5.0,5.0;" x1="48" x2="48" y1="128.5703" y2="1280.2266"/><line style="stroke:#181818;stroke-width:0.5;stroke-dasharray:5.0,5.0;" x1="148" x2="148" y1="128.5703" y2="1280.2266"/><line style="stroke:#181818;stroke-width:0.5;stroke-dasharray:5.0,5.0;" x1="410.5" x2="410.5" y1="128.5703" y2="1280.2266"/><line style="stroke:#181818;stroke-width:0.5;stroke-dasharray:5.0,5.0;" x1="537.5" x2="537.5" y1="128.5703" y2="1280.2266"/><line style="stroke:#181818;stroke-width:0.5;stroke-dasharray:5.0,5.0;" x1="690.5" x2="690.5" y1="128.5703" y2="1280.2266"/><line style="stroke:#181818;stroke-width:0.5;stroke-dasharray:5.0,5.0;" x1="835" x2="835" y1="128.5703" y2="1280.2266"/><line style="stroke:#181818;stroke-width:0.5;stroke-dasharray:5.0,5.0;" x1="929" x2="929" y1="128.5703" y2="1280.2266"/><line style="stroke:#181818;stroke-width:0.5;stroke-dasharray:5.0,5.0;" x1="1111.5" x2="1111.5" y1="128.5703" y2="1280.2266"/><line style="stroke:#181818;stroke-width:0.5;stroke-dasharray:5.0,5.0;" x1="1241.5" x2="1241.5" y1="128.5703" y2="1280.2266"/><rect fill="#E2E2F0" height="31.6094" rx="2.5" ry="2.5" style="stroke:#181818;stroke-width:0.5;" width="57" x="20" y="95.9609"/><text fill="#000000" font-family="sans-serif" font-size="14" lengthAdjust="spacing" textLength="43" x="27" y="117.4941">Trader</text><rect fill="#E2E2F0" height="31.6094" rx="2.5" ry="2.5" style="stroke:#181818;stroke-width:0.5;" width="57" x="20" y="1279.2266"/><text fill="#000000" font-family="sans-serif" font-size="14" lengthAdjust="spacing" textLength="43" x="27" y="1300.7598">Trader</text><rect fill="#E2E2F0" height="31.6094" rx="2.5" ry="2.5" style="stroke:#181818;stroke-width:0.5;" width="83" x="107" y="95.9609"/><text fill="#000000" font-family="sans-serif" font-size="14" lengthAdjust="spacing" textLength="69" x="114" y="117.4941">Web Client</text><rect fill="#E2E2F0" height="31.6094" rx="2.5" ry="2.5" style="stroke:#181818;stroke-width:0.5;" width="83" x="107" y="1279.2266"/><text fill="#000000" font-family="sans-serif" font-size="14" lengthAdjust="spacing" textLength="69" x="114" y="1300.7598">Web Client</text><rect fill="#E2E2F0" height="31.6094" rx="2.5" ry="2.5" style="stroke:#181818;stroke-width:0.5;" width="70" x="375.5" y="95.9609"/><text fill="#000000" font-family="sans-serif" font-size="14" lengthAdjust="spacing" textLength="56" x="382.5" y="117.4941">Web GUI</text><rect fill="#E2E2F0" height="31.6094" rx="2.5" ry="2.5" style="stroke:#181818;stroke-width:0.5;" width="70" x="375.5" y="1279.2266"/><text fill="#000000" font-family="sans-serif" font-size="14" lengthAdjust="spacing" textLength="56" x="382.5" y="1300.7598">Web GUI</text><rect fill="#E2E2F0" height="31.6094" rx="2.5" ry="2.5" style="stroke:#181818;stroke-width:0.5;" width="165" x="455.5" y="95.9609"/><text fill="#000000" font-family="sans-serif" font-size="14" lengthAdjust="spacing" textLength="151" x="462.5" y="117.4941">Reference Data Service</text><rect fill="#E2E2F0" height="31.6094" rx="2.5" ry="2.5" style="stroke:#181818;stroke-width:0.5;" width="165" x="455.5" y="1279.2266"/><text fill="#000000" font-family="sans-serif" font-size="14" lengthAdjust="spacing" textLength="151" x="462.5" y="1300.7598">Reference Data Service</text><rect fill="#E2E2F0" height="31.6094" rx="2.5" ry="2.5" style="stroke:#181818;stroke-width:0.5;" width="121" x="630.5" y="95.9609"/><text fill="#000000" font-family="sans-serif" font-size="14" lengthAdjust="spacing" textLength="107" x="637.5" y="117.4941">Trading Services</text><rect fill="#E2E2F0" height="31.6094" rx="2.5" ry="2.5" style="stroke:#181818;stroke-width:0.5;" width="121" x="630.5" y="1279.2266"/><text fill="#000000" font-family="sans-serif" font-size="14" lengthAdjust="spacing" textLength="107" x="637.5" y="1300.7598">Trading Services</text><text fill="#000000" font-family="sans-serif" font-size="14" lengthAdjust="spacing" textLength="74" x="795" y="125.4941">TraderX DB</text><path d="M817,74.9609 C817,64.9609 835,64.9609 835,64.9609 C835,64.9609 853,64.9609 853,74.9609 L853,100.9609 C853,110.9609 835,110.9609 835,110.9609 C835,110.9609 817,110.9609 817,100.9609 L817,74.9609 " fill="#E2E2F0" style="stroke:#181818;stroke-width:1.5;"/><path d="M817,74.9609 C817,84.9609 835,84.9609 835,84.9609 C835,84.9609 853,84.9609 853,74.9609 " fill="none" style="stroke:#181818;stroke-width:1.5;"/><text fill="#000000" font-family="sans-serif" font-size="14" lengthAdjust="spacing" textLength="74" x="795" y="1293.7598">TraderX DB</text><path d="M817,1306.8359 C817,1296.8359 835,1296.8359 835,1296.8359 C835,1296.8359 853,1296.8359 853,1306.8359 L853,1332.8359 C853,1342.8359 835,1342.8359 835,1342.8359 C835,1342.8359 817,1342.8359 817,1332.8359 L817,1306.8359 " fill="#E2E2F0" style="stroke:#181818;stroke-width:1.5;"/><path d="M817,1306.8359 C817,1316.8359 835,1316.8359 835,1316.8359 C835,1316.8359 853,1316.8359 853,1306.8359 " fill="none" style="stroke:#181818;stroke-width:1.5;"/><rect fill="#E2E2F0" height="31.6094" rx="2.5" ry="2.5" style="stroke:#181818;stroke-width:0.5;" width="89" x="885" y="95.9609"/><text fill="#000000" font-family="sans-serif" font-size="14" lengthAdjust="spacing" textLength="75" x="892" y="117.4941">Trade Feed</text><rect fill="#E2E2F0" height="31.6094" rx="2.5" ry="2.5" style="stroke:#181818;stroke-width:0.5;" width="89" x="885" y="1279.2266"/><text fill="#000000" font-family="sans-serif" font-size="14" lengthAdjust="spacing" textLength="75" x="892" y="1300.7598">Trade Feed</text><rect fill="#E2E2F0" height="31.6094" rx="2.5" ry="2.5" style="stroke:#181818;stroke-width:0.5;" width="120" x="1051.5" y="95.9609"/><text fill="#000000" font-family="sans-serif" font-size="14" lengthAdjust="spacing" textLength="106" x="1058.5" y="117.4941">Trade Processor</text><rect fill="#E2E2F0" height="31.6094" rx="2.5" ry="2.5" style="stroke:#181818;stroke-width:0.5;" width="120" x="1051.5" y="1279.2266"/><text fill="#000000" font-family="sans-serif" font-size="14" lengthAdjust="spacing" textLength="106" x="1058.5" y="1300.7598">Trade Processor</text><rect fill="#E2E2F0" height="31.6094" rx="2.5" ry="2.5" style="stroke:#181818;stroke-width:0.5;" width="120" x="1181.5" y="95.9609"/><text fill="#000000" font-family="sans-serif" font-size="14" lengthAdjust="spacing" textLength="106" x="1188.5" y="117.4941">External Process</text><rect fill="#E2E2F0" height="31.6094" rx="2.5" ry="2.5" style="stroke:#181818;stroke-width:0.5;" width="120" x="1181.5" y="1279.2266"/><text fill="#000000" font-family="sans-serif" font-size="14" lengthAdjust="spacing" textLength="106" x="1188.5" y="1300.7598">External Process</text><path d="M10,145.5703 L247,145.5703 L247,153.9219 L237,163.9219 L10,163.9219 L10,145.5703 " fill="#EEEEEE" style="stroke:#000000;stroke-width:1.5;"/><rect fill="none" height="297.5156" style="stroke:#000000;stroke-width:1.5;" width="1004" x="10" y="145.5703"/><text fill="#000000" font-family="sans-serif" font-size="13" font-weight="bold" lengthAdjust="spacing" textLength="192" x="25" y="160.0654">Trader - Create Trade Request</text><polygon fill="#181818" points="136.5,182.2734,146.5,186.2734,136.5,190.2734,140.5,186.2734" style="stroke:#181818;stroke-width:1.0;"/><line style="stroke:#181818;stroke-width:1.0;" x1="48.5" x2="142.5" y1="186.2734" y2="186.2734"/><text fill="#000000" font-family="sans-serif" font-size="13" lengthAdjust="spacing" textLength="74" x="55.5" y="181.417">Create Trade</text><path d="M97,201.2734 L225,201.2734 L225,209.625 L215,219.625 L97,219.625 L97,201.2734 " fill="#EEEEEE" style="stroke:#000000;stroke-width:1.5;"/><rect fill="none" height="234.8125" style="stroke:#000000;stroke-width:1.5;" width="907" x="97" y="201.2734"/><text fill="#000000" font-family="sans-serif" font-size="13" font-weight="bold" lengthAdjust="spacing" textLength="83" x="112" y="215.7686">Create Trade</text><polygon fill="#181818" points="398.5,237.9766,408.5,241.9766,398.5,245.9766,402.5,241.9766" style="stroke:#181818;stroke-width:1.0;"/><line style="stroke:#181818;stroke-width:1.0;" x1="148.5" x2="404.5" y1="241.9766" y2="241.9766"/><text fill="#000000" font-family="sans-serif" font-size="13" lengthAdjust="spacing" textLength="74" x="155.5" y="237.1201">Create Trade</text><path d="M365.5,256.9766 L493.5,256.9766 L493.5,265.3281 L483.5,275.3281 L365.5,275.3281 L365.5,256.9766 " fill="#EEEEEE" style="stroke:#000000;stroke-width:1.5;"/><rect fill="none" height="172.1094" style="stroke:#000000;stroke-width:1.5;" width="628.5" x="365.5" y="256.9766"/><text fill="#000000" font-family="sans-serif" font-size="13" font-weight="bold" lengthAdjust="spacing" textLength="83" x="380.5" y="271.4717">Create Trade</text><polygon fill="#181818" points="526,293.6797,536,297.6797,526,301.6797,530,297.6797" style="stroke:#181818;stroke-width:1.0;"/><line style="stroke:#181818;stroke-width:1.0;" x1="410.5" x2="532" y1="297.6797" y2="297.6797"/><text fill="#000000" font-family="sans-serif" font-size="13" lengthAdjust="spacing" textLength="83" x="417.5" y="292.8232">Get Securities</text><polygon fill="#181818" points="679,324.0313,689,328.0313,679,332.0313,683,328.0313" style="stroke:#181818;stroke-width:1.0;"/><line style="stroke:#181818;stroke-width:1.0;" x1="410.5" x2="685" y1="328.0313" y2="328.0313"/><text fill="#000000" font-family="sans-serif" font-size="13" lengthAdjust="spacing" textLength="74" x="417.5" y="323.1748">Create Trade</text><path d="M620.5,343.0313 L748.5,343.0313 L748.5,351.3828 L738.5,361.3828 L620.5,361.3828 L620.5,343.0313 " fill="#EEEEEE" style="stroke:#000000;stroke-width:1.5;"/><rect fill="none" height="79.0547" style="stroke:#000000;stroke-width:1.5;" width="363.5" x="620.5" y="343.0313"/><text fill="#000000" font-family="sans-serif" font-size="13" font-weight="bold" lengthAdjust="spacing" textLength="83" x="635.5" y="357.5264">Create Trade</text><polygon fill="#181818" points="823,379.7344,833,383.7344,823,387.7344,827,383.7344" style="stroke:#181818;stroke-width:1.0;"/><line style="stroke:#181818;stroke-width:1.0;" x1="691" x2="829" y1="383.7344" y2="383.7344"/><text fill="#000000" font-family="sans-serif" font-size="13" lengthAdjust="spacing" textLength="120" x="698" y="378.8779">Insert Trade Request</text><polygon fill="#181818" points="917.5,410.0859,927.5,414.0859,917.5,418.0859,921.5,414.0859" style="stroke:#181818;stroke-width:1.0;"/><line style="stroke:#181818;stroke-width:1.0;" x1="691" x2="923.5" y1="414.0859" y2="414.0859"/><text fill="#000000" font-family="sans-serif" font-size="13" lengthAdjust="spacing" textLength="118" x="698" y="409.2295">Send Trade Request</text><path d="M775,457.0859 L1083,457.0859 L1083,465.4375 L1073,475.4375 L775,475.4375 L775,457.0859 " fill="#EEEEEE" style="stroke:#000000;stroke-width:1.5;"/><rect fill="none" height="263.1641" style="stroke:#000000;stroke-width:1.5;" width="536.5" x="775" y="457.0859"/><text fill="#000000" font-family="sans-serif" font-size="13" font-weight="bold" lengthAdjust="spacing" textLength="263" x="790" y="471.5811">External Process - Process Trade Request</text><polygon fill="#181818" points="1122.5,493.7891,1112.5,497.7891,1122.5,501.7891,1118.5,497.7891" style="stroke:#181818;stroke-width:1.0;"/><line style="stroke:#181818;stroke-width:1.0;" x1="1116.5" x2="1240.5" y1="497.7891" y2="497.7891"/><text fill="#000000" font-family="sans-serif" font-size="13" lengthAdjust="spacing" textLength="28" x="1128.5" y="492.9326">Start</text><path d="M785,512.7891 L860,512.7891 L860,521.1406 L850,531.1406 L785,531.1406 L785,512.7891 " fill="#EEEEEE" style="stroke:#000000;stroke-width:1.5;"/><rect fill="none" height="200.4609" style="stroke:#000000;stroke-width:1.5;" width="396.5" x="785" y="512.7891"/><text fill="#000000" font-family="sans-serif" font-size="13" font-weight="bold" lengthAdjust="spacing" textLength="30" x="800" y="527.2842">Start</text><polygon fill="#181818" points="940.5,549.4922,930.5,553.4922,940.5,557.4922,936.5,553.4922" style="stroke:#181818;stroke-width:1.0;"/><line style="stroke:#181818;stroke-width:1.0;" x1="934.5" x2="1110.5" y1="553.4922" y2="553.4922"/><text fill="#000000" font-family="sans-serif" font-size="13" lengthAdjust="spacing" textLength="133" x="946.5" y="548.6357">Receive Trade Request</text><polygon fill="#181818" points="846,579.8438,836,583.8438,846,587.8438,842,583.8438" style="stroke:#181818;stroke-width:1.0;"/><line style="stroke:#181818;stroke-width:1.0;" x1="840" x2="1110.5" y1="583.8438" y2="583.8438"/><text fill="#000000" font-family="sans-serif" font-size="13" lengthAdjust="spacing" textLength="141" x="852" y="578.9873">Select Current Positions</text><polygon fill="#181818" points="846,610.1953,836,614.1953,846,618.1953,842,614.1953" style="stroke:#181818;stroke-width:1.0;"/><line style="stroke:#181818;stroke-width:1.0;" x1="840" x2="1110.5" y1="614.1953" y2="614.1953"/><text fill="#000000" font-family="sans-serif" font-size="13" lengthAdjust="spacing" textLength="99" x="852" y="609.3389">Save Trade State</text><polygon fill="#181818" points="846,640.5469,836,644.5469,846,648.5469,842,644.5469" style="stroke:#181818;stroke-width:1.0;"/><line style="stroke:#181818;stroke-width:1.0;" x1="840" x2="1110.5" y1="644.5469" y2="644.5469"/><text fill="#000000" font-family="sans-serif" font-size="13" lengthAdjust="spacing" textLength="114" x="852" y="639.6904">Save Position State</text><polygon fill="#181818" points="940.5,670.8984,930.5,674.8984,940.5,678.8984,936.5,674.8984" style="stroke:#181818;stroke-width:1.0;"/><line style="stroke:#181818;stroke-width:1.0;" x1="934.5" x2="1110.5" y1="674.8984" y2="674.8984"/><text fill="#000000" font-family="sans-serif" font-size="13" lengthAdjust="spacing" textLength="143" x="946.5" y="670.042">Send Updates To Trades</text><polygon fill="#181818" points="940.5,701.25,930.5,705.25,940.5,709.25,936.5,705.25" style="stroke:#181818;stroke-width:1.0;"/><line style="stroke:#181818;stroke-width:1.0;" x1="934.5" x2="1110.5" y1="705.25" y2="705.25"/><text fill="#000000" font-family="sans-serif" font-size="13" lengthAdjust="spacing" textLength="158" x="946.5" y="700.3936">Send Updates To Positions</text><path d="M77,734.25 L362,734.25 L362,742.6016 L352,752.6016 L77,752.6016 L77,734.25 " fill="#EEEEEE" style="stroke:#000000;stroke-width:1.5;"/><rect fill="none" height="247.8125" style="stroke:#000000;stroke-width:1.5;" width="1234.5" x="77" y="734.25"/><text fill="#000000" font-family="sans-serif" font-size="13" font-weight="bold" lengthAdjust="spacing" textLength="240" x="92" y="748.7451">External Process - Refresh Web Client</text><polygon fill="#181818" points="421.5,770.9531,411.5,774.9531,421.5,778.9531,417.5,774.9531" style="stroke:#181818;stroke-width:1.0;"/><line style="stroke:#181818;stroke-width:1.0;" x1="415.5" x2="1240.5" y1="774.9531" y2="774.9531"/><text fill="#000000" font-family="sans-serif" font-size="13" lengthAdjust="spacing" textLength="28" x="427.5" y="770.0967">Start</text><path d="M87,789.9531 L162,789.9531 L162,798.3047 L152,808.3047 L87,808.3047 L87,789.9531 " fill="#EEEEEE" style="stroke:#000000;stroke-width:1.5;"/><rect fill="none" height="185.1094" style="stroke:#000000;stroke-width:1.5;" width="897" x="87" y="789.9531"/><text fill="#000000" font-family="sans-serif" font-size="13" font-weight="bold" lengthAdjust="spacing" textLength="30" x="102" y="804.4482">Start</text><polygon fill="#181818" points="917.5,826.6563,927.5,830.6563,917.5,834.6563,921.5,830.6563" style="stroke:#181818;stroke-width:1.0;"/><line style="stroke:#181818;stroke-width:1.0;" x1="410.5" x2="923.5" y1="830.6563" y2="830.6563"/><text fill="#000000" font-family="sans-serif" font-size="13" lengthAdjust="spacing" textLength="158" x="417.5" y="825.7998">Receive Updates To Trades</text><polygon fill="#181818" points="917.5,857.0078,927.5,861.0078,917.5,865.0078,921.5,861.0078" style="stroke:#181818;stroke-width:1.0;"/><line style="stroke:#181818;stroke-width:1.0;" x1="410.5" x2="923.5" y1="861.0078" y2="861.0078"/><text fill="#000000" font-family="sans-serif" font-size="13" lengthAdjust="spacing" textLength="173" x="417.5" y="856.1514">Receive Updates To Positions</text><polygon fill="#181818" points="159.5,887.3594,149.5,891.3594,159.5,895.3594,155.5,891.3594" style="stroke:#181818;stroke-width:1.0;"/><line style="stroke:#181818;stroke-width:1.0;" x1="153.5" x2="409.5" y1="891.3594" y2="891.3594"/><text fill="#000000" font-family="sans-serif" font-size="13" lengthAdjust="spacing" textLength="238" x="165.5" y="886.5029">Send Trade And Position Status Updates</text><path d="M97,906.3594 L398,906.3594 L398,914.7109 L388,924.7109 L97,924.7109 L97,906.3594 " fill="#EEEEEE" style="stroke:#000000;stroke-width:1.5;"/><rect fill="none" height="61.7031" style="stroke:#000000;stroke-width:1.5;" width="306" x="97" y="906.3594"/><text fill="#000000" font-family="sans-serif" font-size="13" font-weight="bold" lengthAdjust="spacing" textLength="256" x="112" y="920.8545">Send Trade And Position Status Updates</text><line style="stroke:#181818;stroke-width:1.0;" x1="148.5" x2="190.5" y1="947.0625" y2="947.0625"/><line style="stroke:#181818;stroke-width:1.0;" x1="190.5" x2="190.5" y1="947.0625" y2="960.0625"/><line style="stroke:#181818;stroke-width:1.0;" x1="149.5" x2="190.5" y1="960.0625" y2="960.0625"/><polygon fill="#181818" points="159.5,956.0625,149.5,960.0625,159.5,964.0625,155.5,960.0625" style="stroke:#181818;stroke-width:1.0;"/><text fill="#000000" font-family="sans-serif" font-size="13" lengthAdjust="spacing" textLength="229" x="155.5" y="942.2061">Update Trade And Position Status View</text><path d="M10,996.0625 L194,996.0625 L194,1004.4141 L184,1014.4141 L10,1014.4141 L10,996.0625 " fill="#EEEEEE" style="stroke:#000000;stroke-width:1.5;"/><rect fill="none" height="267.1641" style="stroke:#000000;stroke-width:1.5;" width="1004" x="10" y="996.0625"/><text fill="#000000" font-family="sans-serif" font-size="13" font-weight="bold" lengthAdjust="spacing" textLength="139" x="25" y="1010.5576">Trader - Cancel Trade</text><polygon fill="#181818" points="136.5,1032.7656,146.5,1036.7656,136.5,1040.7656,140.5,1036.7656" style="stroke:#181818;stroke-width:1.0;"/><line style="stroke:#181818;stroke-width:1.0;" x1="48.5" x2="142.5" y1="1036.7656" y2="1036.7656"/><text fill="#000000" font-family="sans-serif" font-size="13" lengthAdjust="spacing" textLength="76" x="55.5" y="1031.9092">Cancel Trade</text><path d="M97,1051.7656 L227,1051.7656 L227,1060.1172 L217,1070.1172 L97,1070.1172 L97,1051.7656 " fill="#EEEEEE" style="stroke:#000000;stroke-width:1.5;"/><rect fill="none" height="204.4609" style="stroke:#000000;stroke-width:1.5;" width="907" x="97" y="1051.7656"/><text fill="#000000" font-family="sans-serif" font-size="13" font-weight="bold" lengthAdjust="spacing" textLength="85" x="112" y="1066.2607">Cancel Trade</text><polygon fill="#181818" points="398.5,1088.4688,408.5,1092.4688,398.5,1096.4688,402.5,1092.4688" style="stroke:#181818;stroke-width:1.0;"/><line style="stroke:#181818;stroke-width:1.0;" x1="148.5" x2="404.5" y1="1092.4688" y2="1092.4688"/><text fill="#000000" font-family="sans-serif" font-size="13" lengthAdjust="spacing" textLength="76" x="155.5" y="1087.6123">Cancel Trade</text><path d="M365.5,1107.4688 L495.5,1107.4688 L495.5,1115.8203 L485.5,1125.8203 L365.5,1125.8203 L365.5,1107.4688 " fill="#EEEEEE" style="stroke:#000000;stroke-width:1.5;"/><rect fill="none" height="141.7578" style="stroke:#000000;stroke-width:1.5;" width="628.5" x="365.5" y="1107.4688"/><text fill="#000000" font-family="sans-serif" font-size="13" font-weight="bold" lengthAdjust="spacing" textLength="85" x="380.5" y="1121.9639">Cancel Trade</text><polygon fill="#181818" points="679,1144.1719,689,1148.1719,679,1152.1719,683,1148.1719" style="stroke:#181818;stroke-width:1.0;"/><line style="stroke:#181818;stroke-width:1.0;" x1="410.5" x2="685" y1="1148.1719" y2="1148.1719"/><text fill="#000000" font-family="sans-serif" font-size="13" lengthAdjust="spacing" textLength="76" x="417.5" y="1143.3154">Cancel Trade</text><path d="M620.5,1163.1719 L750.5,1163.1719 L750.5,1171.5234 L740.5,1181.5234 L620.5,1181.5234 L620.5,1163.1719 " fill="#EEEEEE" style="stroke:#000000;stroke-width:1.5;"/><rect fill="none" height="79.0547" style="stroke:#000000;stroke-width:1.5;" width="363.5" x="620.5" y="1163.1719"/><text fill="#000000" font-family="sans-serif" font-size="13" font-weight="bold" lengthAdjust="spacing" textLength="85" x="635.5" y="1177.667">Cancel Trade</text><polygon fill="#181818" points="823,1199.875,833,1203.875,823,1207.875,827,1203.875" style="stroke:#181818;stroke-width:1.0;"/><line style="stroke:#181818;stroke-width:1.0;" x1="691" x2="829" y1="1203.875" y2="1203.875"/><text fill="#000000" font-family="sans-serif" font-size="13" lengthAdjust="spacing" textLength="119" x="698" y="1199.0186">Update Trade Status</text><polygon fill="#181818" points="917.5,1230.2266,927.5,1234.2266,917.5,1238.2266,921.5,1234.2266" style="stroke:#181818;stroke-width:1.0;"/><line style="stroke:#181818;stroke-width:1.0;" x1="691" x2="923.5" y1="1234.2266" y2="1234.2266"/><text fill="#000000" font-family="sans-serif" font-size="13" lengthAdjust="spacing" textLength="143" x="698" y="1229.3701">Send Updates To Trades</text><!--SRC=[pLR1Rk8m4BtxAxpikNp07bPgWQrwgw3TSZLXIYq5EsjFAFtx7HCxa93DLd52GK9A7FlDytZU-7tBZDXi1K_5XywHsosWK88nb9W2Vp9Y3MOvsujjHgytVBQ794V_mTB00lxae1BtRQ8L2gd0y1Hsa3AM2OCoaPbGo4S5r8WBMqCTtoQeZHqNeuojz3xCNexuzvStYS0u_IfmBx3YarI2mYR8XNx5Ts5WyM4HjW5xEIufsZ415EkRiU-V7xe3q-9pr3cyWZcaQYfGKEBCJYRGCKW9vh0yr7b8jr2gJOXbEmRpC07b46TDSLV2GdbKV7eN0Kz3qxlc3G3_1R2EmNRh_uNzQ3HjoMeJ4w04OQ3Md0guLlkpFO9H8WtHMbGGflgPZ6sCpZC_sOdCW0ZwutCdFekiJL3yvcUCElYFIaXFfp8KWzwL72biA6OEkXEj9aqIoNj04c2I6ucIn7DPJZNf3fApUepEH0zDW2W-A0i6sslyehnS0o5U2wVkAYiQgVoBXDRrJheDJvyHRgq7H10l6vDZZzIIFC7YEHeqEgDpI43ke9UZxeMNhy05f90Wd-J6k2xrg2s9Lojx3TH4cIywHOHheHHozFMiJjNwd95H8Uq_QMzPhv3OiRh-sqNeYZ5Wt_ZH_GxPGifxje_M4NkBrLj67oSx8AUObX53wzIudTnNj_HKKMXk0zjmhf-R_1LchznGGQA5vMy9xmttyT4z2x9dQRFJwTirduRoFgib-YLTyn3C-dIelVFhtQ5M2h6elQingEUDiMvIsLy0]--></g></svg>