<?xml version="1.0" encoding="us-ascii" standalone="no"?><svg xmlns="http://www.w3.org/2000/svg" xmlns:xlink="http://www.w3.org/1999/xlink" contentStyleType="text/css" height="938px" preserveAspectRatio="none" style="width:920px;height:938px;background:#FFFFFF;" version="1.1" viewBox="0 0 920 938" width="920px" zoomAndPan="magnify"><defs/><g><text fill="#000000" font-family="sans-serif" font-size="14" font-weight="bold" lengthAdjust="spacing" textLength="431" x="237" y="24.5332">TraderXExample - Execute Trades - C4 Static - Container level</text><!--cluster TraderXExample.SoftwareSystems.TraderX--><g id="cluster_TraderXExample.SoftwareSystems.TraderX"><rect fill="none" height="621" rx="2.5" ry="2.5" style="stroke:#444444;stroke-width:1.0;stroke-dasharray:7.0,7.0;" width="742" x="14" y="181.6094"/><text fill="#444444" font-family="sans-serif" font-size="16" font-weight="bold" lengthAdjust="spacing" textLength="61" x="354.5" y="200.2188">TraderX</text><text fill="#444444" font-family="sans-serif" font-size="12" font-weight="bold" lengthAdjust="spacing" textLength="51" x="359.5" y="216.1914">[System]</text></g><!--entity TraderXExample.Actors.Trader--><g id="elem_TraderXExample.Actors.Trader"><ellipse cx="330" cy="59.1094" fill="#08427B" rx="16" ry="16" style="stroke:#073B6F;stroke-width:0.5;"/><path d="M330,79.1094 C334,79.1094 337,79.1094 341,75.1094 C349,75.1094 357,83.1094 357,91.1094 L357,95.1094 C357,99.1094 353,103.1094 349,103.1094 L311,103.1094 C307,103.1094 303,99.1094 303,95.1094 L303,91.1094 C303,83.1094 311,75.1094 319,75.1094 C323,79.1094 326,79.1094 330,79.1094 " fill="#08427B" style="stroke:#073B6F;stroke-width:0.5;"/><text fill="#08427B" font-family="sans-serif" font-size="16" font-weight="bold" lengthAdjust="spacing" textLength="50" x="305" y="120.2188">Trader</text></g><!--entity TraderXExample.Actors.ExternalProcess--><g id="elem_TraderXExample.Actors.ExternalProcess"><rect fill="#1168BD" height="40.125" rx="2.5" ry="2.5" style="stroke:#3C7FC0;stroke-width:0.5;" width="150" x="764" y="254.1094"/><text fill="#FFFFFF" font-family="sans-serif" font-size="16" font-weight="bold" lengthAdjust="spacing" textLength="63" x="774" y="280.7188">External</text><text fill="#FFFFFF" font-family="sans-serif" font-size="16" font-weight="bold" lengthAdjust="spacing" textLength="4" x="837" y="280.7188">&#160;</text><text fill="#FFFFFF" font-family="sans-serif" font-size="16" font-weight="bold" lengthAdjust="spacing" textLength="63" x="841" y="280.7188">Process</text></g><!--entity TraderXExample.SoftwareSystems.TraderX.Containers.WebClient--><g id="elem_TraderXExample.SoftwareSystems.TraderX.Containers.WebClient"><rect fill="#438DD5" height="92.9531" rx="2.5" ry="2.5" style="stroke:#3C7FC0;stroke-width:0.5;" width="202" x="229" y="227.6094"/><text fill="#FFFFFF" font-family="sans-serif" font-size="16" font-weight="bold" lengthAdjust="spacing" textLength="34" x="289" y="254.2188">Web</text><text fill="#FFFFFF" font-family="sans-serif" font-size="16" font-weight="bold" lengthAdjust="spacing" textLength="4" x="323" y="254.2188">&#160;</text><text fill="#FFFFFF" font-family="sans-serif" font-size="16" font-weight="bold" lengthAdjust="spacing" textLength="44" x="327" y="254.2188">Client</text><text fill="#FFFFFF" font-family="sans-serif" font-size="14" lengthAdjust="spacing" textLength="4" x="328" y="272.2676">&#160;</text><text fill="#FFFFFF" font-family="sans-serif" font-size="14" lengthAdjust="spacing" textLength="51" x="239" y="289.877">Browser</text><text fill="#FFFFFF" font-family="sans-serif" font-size="14" lengthAdjust="spacing" textLength="4" x="290" y="289.877">&#160;</text><text fill="#FFFFFF" font-family="sans-serif" font-size="14" lengthAdjust="spacing" textLength="39" x="294" y="289.877">based</text><text fill="#FFFFFF" font-family="sans-serif" font-size="14" lengthAdjust="spacing" textLength="4" x="333" y="289.877">&#160;</text><text fill="#FFFFFF" font-family="sans-serif" font-size="14" lengthAdjust="spacing" textLength="25" x="337" y="289.877">web</text><text fill="#FFFFFF" font-family="sans-serif" font-size="14" lengthAdjust="spacing" textLength="4" x="362" y="289.877">&#160;</text><text fill="#FFFFFF" font-family="sans-serif" font-size="14" lengthAdjust="spacing" textLength="55" x="366" y="289.877">interface</text><text fill="#FFFFFF" font-family="sans-serif" font-size="14" lengthAdjust="spacing" textLength="17" x="294" y="307.4863">for</text><text fill="#FFFFFF" font-family="sans-serif" font-size="14" lengthAdjust="spacing" textLength="4" x="311" y="307.4863">&#160;</text><text fill="#FFFFFF" font-family="sans-serif" font-size="14" lengthAdjust="spacing" textLength="51" x="315" y="307.4863">TraderX</text></g><!--entity TraderXExample.SoftwareSystems.TraderX.Containers.WebGUI--><g id="elem_TraderXExample.SoftwareSystems.TraderX.Containers.WebGUI"><rect fill="#438DD5" height="92.9531" rx="2.5" ry="2.5" style="stroke:#3C7FC0;stroke-width:0.5;" width="202" x="229" y="388.6094"/><text fill="#FFFFFF" font-family="sans-serif" font-size="16" font-weight="bold" lengthAdjust="spacing" textLength="34" x="297" y="415.2188">Web</text><text fill="#FFFFFF" font-family="sans-serif" font-size="16" font-weight="bold" lengthAdjust="spacing" textLength="4" x="331" y="415.2188">&#160;</text><text fill="#FFFFFF" font-family="sans-serif" font-size="16" font-weight="bold" lengthAdjust="spacing" textLength="28" x="335" y="415.2188">GUI</text><text fill="#FFFFFF" font-family="sans-serif" font-size="14" lengthAdjust="spacing" textLength="4" x="328" y="433.2676">&#160;</text><text fill="#FFFFFF" font-family="sans-serif" font-size="14" lengthAdjust="spacing" textLength="39" x="239" y="450.877">Allows</text><text fill="#FFFFFF" font-family="sans-serif" font-size="14" lengthAdjust="spacing" textLength="4" x="278" y="450.877">&#160;</text><text fill="#FFFFFF" font-family="sans-serif" font-size="14" lengthAdjust="spacing" textLength="68" x="282" y="450.877">employees</text><text fill="#FFFFFF" font-family="sans-serif" font-size="14" lengthAdjust="spacing" textLength="4" x="350" y="450.877">&#160;</text><text fill="#FFFFFF" font-family="sans-serif" font-size="14" lengthAdjust="spacing" textLength="12" x="354" y="450.877">to</text><text fill="#FFFFFF" font-family="sans-serif" font-size="14" lengthAdjust="spacing" textLength="4" x="366" y="450.877">&#160;</text><text fill="#FFFFFF" font-family="sans-serif" font-size="14" lengthAdjust="spacing" textLength="51" x="370" y="450.877">manage</text><text fill="#FFFFFF" font-family="sans-serif" font-size="14" lengthAdjust="spacing" textLength="57" x="248" y="468.4863">accounts</text><text fill="#FFFFFF" font-family="sans-serif" font-size="14" lengthAdjust="spacing" textLength="4" x="305" y="468.4863">&#160;</text><text fill="#FFFFFF" font-family="sans-serif" font-size="14" lengthAdjust="spacing" textLength="24" x="309" y="468.4863">and</text><text fill="#FFFFFF" font-family="sans-serif" font-size="14" lengthAdjust="spacing" textLength="4" x="333" y="468.4863">&#160;</text><text fill="#FFFFFF" font-family="sans-serif" font-size="14" lengthAdjust="spacing" textLength="31" x="337" y="468.4863">book</text><text fill="#FFFFFF" font-family="sans-serif" font-size="14" lengthAdjust="spacing" textLength="4" x="368" y="468.4863">&#160;</text><text fill="#FFFFFF" font-family="sans-serif" font-size="14" lengthAdjust="spacing" textLength="40" x="372" y="468.4863">trades</text></g><!--entity TraderXExample.SoftwareSystems.TraderX.Containers.ReferenceDataService--><g id="elem_TraderXExample.SoftwareSystems.TraderX.Containers.ReferenceDataService"><rect fill="#438DD5" height="92.9531" rx="2.5" ry="2.5" style="stroke:#3C7FC0;stroke-width:0.5;" width="198" x="364" y="549.6094"/><text fill="#FFFFFF" font-family="sans-serif" font-size="16" font-weight="bold" lengthAdjust="spacing" textLength="78" x="374" y="576.2188">Reference</text><text fill="#FFFFFF" font-family="sans-serif" font-size="16" font-weight="bold" lengthAdjust="spacing" textLength="4" x="452" y="576.2188">&#160;</text><text fill="#FFFFFF" font-family="sans-serif" font-size="16" font-weight="bold" lengthAdjust="spacing" textLength="35" x="456" y="576.2188">Data</text><text fill="#FFFFFF" font-family="sans-serif" font-size="16" font-weight="bold" lengthAdjust="spacing" textLength="4" x="491" y="576.2188">&#160;</text><text fill="#FFFFFF" font-family="sans-serif" font-size="16" font-weight="bold" lengthAdjust="spacing" textLength="57" x="495" y="576.2188">Service</text><text fill="#FFFFFF" font-family="sans-serif" font-size="14" lengthAdjust="spacing" textLength="4" x="461" y="594.2676">&#160;</text><text fill="#FFFFFF" font-family="sans-serif" font-size="14" lengthAdjust="spacing" textLength="47" x="391" y="611.877">Service</text><text fill="#FFFFFF" font-family="sans-serif" font-size="14" lengthAdjust="spacing" textLength="4" x="438" y="611.877">&#160;</text><text fill="#FFFFFF" font-family="sans-serif" font-size="14" lengthAdjust="spacing" textLength="35" x="442" y="611.877">which</text><text fill="#FFFFFF" font-family="sans-serif" font-size="14" lengthAdjust="spacing" textLength="4" x="477" y="611.877">&#160;</text><text fill="#FFFFFF" font-family="sans-serif" font-size="14" lengthAdjust="spacing" textLength="54" x="481" y="611.877">provides</text><text fill="#FFFFFF" font-family="sans-serif" font-size="14" lengthAdjust="spacing" textLength="61" x="416.5" y="629.4863">reference</text><text fill="#FFFFFF" font-family="sans-serif" font-size="14" lengthAdjust="spacing" textLength="4" x="477.5" y="629.4863">&#160;</text><text fill="#FFFFFF" font-family="sans-serif" font-size="14" lengthAdjust="spacing" textLength="28" x="481.5" y="629.4863">data</text></g><!--entity TraderXExample.SoftwareSystems.TraderX.Containers.TradingServices--><g id="elem_TraderXExample.SoftwareSystems.TraderX.Containers.TradingServices"><rect fill="#438DD5" height="92.9531" rx="2.5" ry="2.5" style="stroke:#3C7FC0;stroke-width:0.5;" width="212" x="134" y="549.6094"/><text fill="#FFFFFF" font-family="sans-serif" font-size="16" font-weight="bold" lengthAdjust="spacing" textLength="59" x="175.5" y="576.2188">Trading</text><text fill="#FFFFFF" font-family="sans-serif" font-size="16" font-weight="bold" lengthAdjust="spacing" textLength="4" x="234.5" y="576.2188">&#160;</text><text fill="#FFFFFF" font-family="sans-serif" font-size="16" font-weight="bold" lengthAdjust="spacing" textLength="66" x="238.5" y="576.2188">Services</text><text fill="#FFFFFF" font-family="sans-serif" font-size="14" lengthAdjust="spacing" textLength="4" x="238" y="594.2676">&#160;</text><text fill="#FFFFFF" font-family="sans-serif" font-size="14" lengthAdjust="spacing" textLength="47" x="144" y="611.877">Service</text><text fill="#FFFFFF" font-family="sans-serif" font-size="14" lengthAdjust="spacing" textLength="4" x="191" y="611.877">&#160;</text><text fill="#FFFFFF" font-family="sans-serif" font-size="14" lengthAdjust="spacing" textLength="35" x="195" y="611.877">which</text><text fill="#FFFFFF" font-family="sans-serif" font-size="14" lengthAdjust="spacing" textLength="4" x="230" y="611.877">&#160;</text><text fill="#FFFFFF" font-family="sans-serif" font-size="14" lengthAdjust="spacing" textLength="54" x="234" y="611.877">provides</text><text fill="#FFFFFF" font-family="sans-serif" font-size="14" lengthAdjust="spacing" textLength="4" x="288" y="611.877">&#160;</text><text fill="#FFFFFF" font-family="sans-serif" font-size="14" lengthAdjust="spacing" textLength="44" x="292" y="611.877">trading</text><text fill="#FFFFFF" font-family="sans-serif" font-size="14" lengthAdjust="spacing" textLength="52" x="214" y="629.4863">services</text></g><!--entity TraderXExample.SoftwareSystems.TraderX.Containers.TraderXDB--><g id="elem_TraderXExample.SoftwareSystems.TraderX.Containers.TraderXDB"><path d="M414.5,720.6094 C414.5,710.6094 523,710.6094 523,710.6094 C523,710.6094 631.5,710.6094 631.5,720.6094 L631.5,784.9531 C631.5,794.9531 523,794.9531 523,794.9531 C523,794.9531 414.5,794.9531 414.5,784.9531 L414.5,720.6094 " fill="#438DD5" style="stroke:#3C7FC0;stroke-width:0.5;"/><path d="M414.5,720.6094 C414.5,730.6094 523,730.6094 523,730.6094 C523,730.6094 631.5,730.6094 631.5,720.6094 " fill="none" style="stroke:#3C7FC0;stroke-width:0.5;"/><text fill="#FFFFFF" font-family="sans-serif" font-size="16" font-weight="bold" lengthAdjust="spacing" textLength="61" x="478.5" y="751.2188">TraderX</text><text fill="#FFFFFF" font-family="sans-serif" font-size="16" font-weight="bold" lengthAdjust="spacing" textLength="4" x="539.5" y="751.2188">&#160;</text><text fill="#FFFFFF" font-family="sans-serif" font-size="16" font-weight="bold" lengthAdjust="spacing" textLength="24" x="543.5" y="751.2188">DB</text><text fill="#FFFFFF" font-family="sans-serif" font-size="14" lengthAdjust="spacing" textLength="4" x="521" y="769.2676">&#160;</text><text fill="#FFFFFF" font-family="sans-serif" font-size="14" lengthAdjust="spacing" textLength="61" x="424.5" y="786.877">Database</text><text fill="#FFFFFF" font-family="sans-serif" font-size="14" lengthAdjust="spacing" textLength="4" x="485.5" y="786.877">&#160;</text><text fill="#FFFFFF" font-family="sans-serif" font-size="14" lengthAdjust="spacing" textLength="35" x="489.5" y="786.877">which</text><text fill="#FFFFFF" font-family="sans-serif" font-size="14" lengthAdjust="spacing" textLength="4" x="524.5" y="786.877">&#160;</text><text fill="#FFFFFF" font-family="sans-serif" font-size="14" lengthAdjust="spacing" textLength="39" x="528.5" y="786.877">stores</text><text fill="#FFFFFF" font-family="sans-serif" font-size="14" lengthAdjust="spacing" textLength="4" x="567.5" y="786.877">&#160;</text><text fill="#FFFFFF" font-family="sans-serif" font-size="14" lengthAdjust="spacing" textLength="50" x="571.5" y="786.877">account</text></g><!--entity TraderXExample.SoftwareSystems.TraderX.Containers.TradeFeed--><g id="elem_TraderXExample.SoftwareSystems.TraderX.Containers.TradeFeed"><path d="M135.5,711.1094 L344.5,711.1094 C349.5,711.1094 349.5,752.5859 349.5,752.5859 C349.5,752.5859 349.5,794.0625 344.5,794.0625 L135.5,794.0625 C130.5,794.0625 130.5,752.5859 130.5,752.5859 C130.5,752.5859 130.5,711.1094 135.5,711.1094 " fill="#438DD5" style="stroke:#3C7FC0;stroke-width:0.5;"/><path d="M344.5,711.1094 C339.5,711.1094 339.5,752.5859 339.5,752.5859 C339.5,794.0625 344.5,794.0625 344.5,794.0625 " fill="none" style="stroke:#3C7FC0;stroke-width:0.5;"/><text fill="#FFFFFF" font-family="sans-serif" font-size="16" font-weight="bold" lengthAdjust="spacing" textLength="44" x="192" y="732.7188">Trade</text><text fill="#FFFFFF" font-family="sans-serif" font-size="16" font-weight="bold" lengthAdjust="spacing" textLength="4" x="236" y="732.7188">&#160;</text><text fill="#FFFFFF" font-family="sans-serif" font-size="16" font-weight="bold" lengthAdjust="spacing" textLength="38" x="240" y="732.7188">Feed</text><text fill="#FFFFFF" font-family="sans-serif" font-size="14" lengthAdjust="spacing" textLength="4" x="233" y="750.7676">&#160;</text><text fill="#FFFFFF" font-family="sans-serif" font-size="14" lengthAdjust="spacing" textLength="57" x="149.5" y="768.377">Message</text><text fill="#FFFFFF" font-family="sans-serif" font-size="14" lengthAdjust="spacing" textLength="4" x="206.5" y="768.377">&#160;</text><text fill="#FFFFFF" font-family="sans-serif" font-size="14" lengthAdjust="spacing" textLength="23" x="210.5" y="768.377">bus</text><text fill="#FFFFFF" font-family="sans-serif" font-size="14" lengthAdjust="spacing" textLength="4" x="233.5" y="768.377">&#160;</text><text fill="#FFFFFF" font-family="sans-serif" font-size="14" lengthAdjust="spacing" textLength="17" x="237.5" y="768.377">for</text><text fill="#FFFFFF" font-family="sans-serif" font-size="14" lengthAdjust="spacing" textLength="4" x="254.5" y="768.377">&#160;</text><text fill="#FFFFFF" font-family="sans-serif" font-size="14" lengthAdjust="spacing" textLength="62" x="258.5" y="768.377">streaming</text><text fill="#FFFFFF" font-family="sans-serif" font-size="14" lengthAdjust="spacing" textLength="51" x="135.5" y="785.9863">updates</text><text fill="#FFFFFF" font-family="sans-serif" font-size="14" lengthAdjust="spacing" textLength="4" x="186.5" y="785.9863">&#160;</text><text fill="#FFFFFF" font-family="sans-serif" font-size="14" lengthAdjust="spacing" textLength="12" x="190.5" y="785.9863">to</text><text fill="#FFFFFF" font-family="sans-serif" font-size="14" lengthAdjust="spacing" textLength="4" x="202.5" y="785.9863">&#160;</text><text fill="#FFFFFF" font-family="sans-serif" font-size="14" lengthAdjust="spacing" textLength="40" x="206.5" y="785.9863">trades</text><text fill="#FFFFFF" font-family="sans-serif" font-size="14" lengthAdjust="spacing" textLength="4" x="246.5" y="785.9863">&#160;</text><text fill="#FFFFFF" font-family="sans-serif" font-size="14" lengthAdjust="spacing" textLength="24" x="250.5" y="785.9863">and</text><text fill="#FFFFFF" font-family="sans-serif" font-size="14" lengthAdjust="spacing" textLength="4" x="274.5" y="785.9863">&#160;</text><text fill="#FFFFFF" font-family="sans-serif" font-size="14" lengthAdjust="spacing" textLength="56" x="278.5" y="785.9863">positions</text></g><!--entity TraderXExample.SoftwareSystems.TraderX.Containers.TradeProcessor--><g id="elem_TraderXExample.SoftwareSystems.TraderX.Containers.TradeProcessor"><rect fill="#438DD5" height="92.9531" rx="2.5" ry="2.5" style="stroke:#3C7FC0;stroke-width:0.5;" width="168" x="580" y="549.6094"/><text fill="#FFFFFF" font-family="sans-serif" font-size="16" font-weight="bold" lengthAdjust="spacing" textLength="44" x="600.5" y="576.2188">Trade</text><text fill="#FFFFFF" font-family="sans-serif" font-size="16" font-weight="bold" lengthAdjust="spacing" textLength="4" x="644.5" y="576.2188">&#160;</text><text fill="#FFFFFF" font-family="sans-serif" font-size="16" font-weight="bold" lengthAdjust="spacing" textLength="79" x="648.5" y="576.2188">Processor</text><text fill="#FFFFFF" font-family="sans-serif" font-size="14" lengthAdjust="spacing" textLength="4" x="662" y="594.2676">&#160;</text><text fill="#FFFFFF" font-family="sans-serif" font-size="14" lengthAdjust="spacing" textLength="51" x="590" y="611.877">Process</text><text fill="#FFFFFF" font-family="sans-serif" font-size="14" lengthAdjust="spacing" textLength="4" x="641" y="611.877">&#160;</text><text fill="#FFFFFF" font-family="sans-serif" font-size="14" lengthAdjust="spacing" textLength="56" x="645" y="611.877">incoming</text><text fill="#FFFFFF" font-family="sans-serif" font-size="14" lengthAdjust="spacing" textLength="4" x="701" y="611.877">&#160;</text><text fill="#FFFFFF" font-family="sans-serif" font-size="14" lengthAdjust="spacing" textLength="33" x="705" y="611.877">trade</text><text fill="#FFFFFF" font-family="sans-serif" font-size="14" lengthAdjust="spacing" textLength="55" x="636.5" y="629.4863">requests</text></g><polygon fill="none" points="330,227.561,333,219.561,327,219.561,330,227.561" style="stroke:#666666;stroke-width:1.0;"/><path d="M330,123.73 C330,154.0383 330,187.8721 330,219.561 " fill="none" style="stroke:#666666;stroke-width:1.0;"/><text fill="#666666" font-family="sans-serif" font-size="12" font-weight="bold" lengthAdjust="spacing" textLength="29" x="339.5" y="155.0664">Uses</text><text fill="#666666" font-family="sans-serif" font-size="12" font-weight="bold" lengthAdjust="spacing" textLength="46" x="331" y="170.1602">[HTTPS]</text><polygon fill="none" points="301.3712,388.4149,300.843,379.8872,295.366,382.3372,301.3712,388.4149" style="stroke:#666666;stroke-width:1.0;"/><path d="M301.3712,320.8039 C298.7682,326.6227 296.5372,332.6359 295,338.6094 C291.4555,352.3828 291.4555,356.8359 295,370.6094 C296.5372,376.5829 295.5016,375.2934 298.1045,381.1122 " fill="none" style="stroke:#666666;stroke-width:1.0;"/><text fill="#666666" font-family="sans-serif" font-size="12" font-weight="bold" lengthAdjust="spacing" textLength="29" x="304.5" y="352.0664">Uses</text><text fill="#666666" font-family="sans-serif" font-size="12" font-weight="bold" lengthAdjust="spacing" textLength="46" x="296" y="367.1602">[HTTPS]</text><polygon fill="none" points="424.882,549.5397,422.0502,541.4786,417.448,545.3283,424.882,549.5397" style="stroke:#666666;stroke-width:1.0;"/><path d="M368.1125,481.6724 C385.9208,502.9621 401.94,522.1129 419.7491,543.4034 " fill="none" style="stroke:#666666;stroke-width:1.0;"/><text fill="#666666" font-family="sans-serif" font-size="12" font-weight="bold" lengthAdjust="spacing" textLength="29" x="417.5" y="513.0664">Uses</text><text fill="#666666" font-family="sans-serif" font-size="12" font-weight="bold" lengthAdjust="spacing" textLength="46" x="409" y="528.1602">[HTTPS]</text><polygon fill="none" points="265.7942,549.5397,272.3457,544.0554,267.1242,541.0999,265.7942,549.5397" style="stroke:#666666;stroke-width:1.0;"/><path d="M304.2096,481.6724 C292.1588,502.9621 281.7862,521.2871 269.7349,542.5776 " fill="none" style="stroke:#666666;stroke-width:1.0;"/><text fill="#666666" font-family="sans-serif" font-size="12" font-weight="bold" lengthAdjust="spacing" textLength="29" x="302.5" y="513.0664">Uses</text><text fill="#666666" font-family="sans-serif" font-size="12" font-weight="bold" lengthAdjust="spacing" textLength="46" x="294" y="528.1602">[HTTPS]</text><polygon fill="none" points="447.4517,710.3648,441.8675,703.8982,438.9924,709.1645,447.4517,710.3648" style="stroke:#666666;stroke-width:1.0;"/><path d="M323.3787,642.6288 C362.672,664.0805 402.181,685.6499 440.4299,706.5314 " fill="none" style="stroke:#666666;stroke-width:1.0;"/><text fill="#666666" font-family="sans-serif" font-size="12" font-weight="bold" lengthAdjust="spacing" textLength="29" x="412" y="674.0664">Uses</text><text fill="#666666" font-family="sans-serif" font-size="12" font-weight="bold" lengthAdjust="spacing" textLength="39" x="407" y="689.1602">[JDBC]</text><polygon fill="none" points="240,710.8837,243,702.8837,237,702.8837,240,710.8837" style="stroke:#666666;stroke-width:1.0;"/><path d="M240,642.6288 C240,664.2585 240,681.9052 240,702.8837 " fill="none" style="stroke:#666666;stroke-width:1.0;"/><text fill="#666666" font-family="sans-serif" font-size="12" font-weight="bold" lengthAdjust="spacing" textLength="29" x="256.5" y="674.0664">Uses</text><text fill="#666666" font-family="sans-serif" font-size="12" font-weight="bold" lengthAdjust="spacing" textLength="60" x="241" y="689.1602">[SocketIO]</text><polygon fill="none" points="688.989,549.4153,695.4596,543.8358,690.1953,540.9569,688.989,549.4153" style="stroke:#666666;stroke-width:1.0;"/><path d="M828.577,294.1685 C801.4251,343.8178 731.7652,471.1959 692.8275,542.3963 " fill="none" style="stroke:#666666;stroke-width:1.0;"/><text fill="#666666" font-family="sans-serif" font-size="12" font-weight="bold" lengthAdjust="spacing" textLength="29" x="775" y="440.0664">Uses</text><polygon fill="none" points="349.756,723.6544,358.2665,724.4098,356.6647,718.6276,349.756,723.6544" style="stroke:#666666;stroke-width:1.0;"/><path d="M579.958,638.5078 C576.9407,639.9045 573.9477,641.2756 571,642.6094 C557.84,648.5638 464.6475,687.8779 451,692.6094 C418.4756,703.8853 390.2873,712.4265 357.4656,721.5187 " fill="none" style="stroke:#666666;stroke-width:1.0;"/><text fill="#666666" font-family="sans-serif" font-size="12" font-weight="bold" lengthAdjust="spacing" textLength="29" x="543.5" y="674.0664">Uses</text><text fill="#666666" font-family="sans-serif" font-size="12" font-weight="bold" lengthAdjust="spacing" textLength="60" x="528" y="689.1602">[SocketIO]</text><polygon fill="none" points="576.324,710.5824,584.3008,707.5215,580.3212,703.0312,576.324,710.5824" style="stroke:#666666;stroke-width:1.0;"/><path d="M634.6548,642.7124 C623.1557,659.1676 609.2976,677.4148 595,692.6094 C589.2412,698.7295 588.8382,699.4916 582.311,705.2763 " fill="none" style="stroke:#666666;stroke-width:1.0;"/><text fill="#666666" font-family="sans-serif" font-size="12" font-weight="bold" lengthAdjust="spacing" textLength="29" x="625" y="674.0664">Uses</text><text fill="#666666" font-family="sans-serif" font-size="12" font-weight="bold" lengthAdjust="spacing" textLength="39" x="620" y="689.1602">[JDBC]</text><polygon fill="none" points="431.1547,408.9045,439.6445,409.8653,438.1829,404.046,431.1547,408.9045" style="stroke:#666666;stroke-width:1.0;"/><path d="M809.9374,294.3253 C795.4057,303.2813 777.2718,313.5035 760,320.6094 C729.5199,333.1493 556.161,377.506 438.9137,406.9557 " fill="none" style="stroke:#666666;stroke-width:1.0;"/><text fill="#666666" font-family="sans-serif" font-size="12" font-weight="bold" lengthAdjust="spacing" textLength="29" x="698" y="359.5664">Uses</text><polygon fill="none" points="130.2497,713.8489,124.5487,707.485,121.77,712.8027,130.2497,713.8489" style="stroke:#666666;stroke-width:1.0;"/><path d="M228.6837,448.5182 C165.5383,462.0685 88.9423,490.3985 49,549.6094 C25.885,583.8752 28.2436,606.8656 49,642.6094 C67.2619,674.0575 91.2854,693.4883 123.1594,710.1438 " fill="none" style="stroke:#666666;stroke-width:1.0;"/><text fill="#666666" font-family="sans-serif" font-size="12" font-weight="bold" lengthAdjust="spacing" textLength="29" x="72.5" y="593.5664">Uses</text><text fill="#666666" font-family="sans-serif" font-size="12" font-weight="bold" lengthAdjust="spacing" textLength="74" x="50" y="608.6602">[WebSocket]</text><polygon fill="none" points="340.4852,320.7232,338.8963,329.1181,344.8081,328.0929,340.4852,320.7232" style="stroke:#666666;stroke-width:1.0;"/><path d="M340.4852,388.4956 C341.5236,382.5078 342.4102,376.4311 343,370.6094 C344.4335,356.4596 344.4335,352.7592 343,338.6094 C342.4102,332.7876 342.8906,334.5933 341.8522,328.6055 " fill="none" style="stroke:#666666;stroke-width:1.0;"/><text fill="#666666" font-family="sans-serif" font-size="12" font-weight="bold" lengthAdjust="spacing" textLength="29" x="367.5" y="352.0664">Uses</text><text fill="#666666" font-family="sans-serif" font-size="12" font-weight="bold" lengthAdjust="spacing" textLength="74" x="345" y="367.1602">[WebSocket]</text><rect fill="none" height="17.6094" style="stroke:none;stroke-width:1.0;" width="182" x="706" y="823.6094"/><text fill="#000000" font-family="sans-serif" font-size="14" font-weight="bold" lengthAdjust="spacing" textLength="53" x="706" y="838.1426">Legend</text><text fill="#FFFFFF" font-family="sans-serif" font-size="14" lengthAdjust="spacing" textLength="4" x="759" y="838.1426">&#160;</text><rect fill="#08427B" height="17.6094" style="stroke:none;stroke-width:1.0;" width="182" x="706" y="841.2188"/><text fill="#073B6F" font-family="sans-serif" font-size="14" lengthAdjust="spacing" textLength="14" x="710" y="855.752">&#9647;</text><text fill="#FFFFFF" font-family="sans-serif" font-size="14" lengthAdjust="spacing" textLength="4" x="724" y="855.752">&#160;</text><text fill="#FFFFFF" font-family="sans-serif" font-size="14" lengthAdjust="spacing" textLength="44" x="732" y="855.752">person</text><text fill="#FFFFFF" font-family="sans-serif" font-size="14" lengthAdjust="spacing" textLength="4" x="780" y="855.752">&#160;</text><rect fill="#1168BD" height="17.6094" style="stroke:none;stroke-width:1.0;" width="182" x="706" y="858.8281"/><text fill="#3C7FC0" font-family="sans-serif" font-size="14" lengthAdjust="spacing" textLength="14" x="710" y="873.3613">&#9647;</text><text fill="#FFFFFF" font-family="sans-serif" font-size="14" lengthAdjust="spacing" textLength="4" x="724" y="873.3613">&#160;</text><text fill="#FFFFFF" font-family="sans-serif" font-size="14" lengthAdjust="spacing" textLength="44" x="732" y="873.3613">system</text><text fill="#FFFFFF" font-family="sans-serif" font-size="14" lengthAdjust="spacing" textLength="4" x="780" y="873.3613">&#160;</text><rect fill="#438DD5" height="17.6094" style="stroke:none;stroke-width:1.0;" width="182" x="706" y="876.4375"/><text fill="#3C7FC0" font-family="sans-serif" font-size="14" lengthAdjust="spacing" textLength="14" x="710" y="890.9707">&#9647;</text><text fill="#FFFFFF" font-family="sans-serif" font-size="14" lengthAdjust="spacing" textLength="4" x="724" y="890.9707">&#160;</text><text fill="#FFFFFF" font-family="sans-serif" font-size="14" lengthAdjust="spacing" textLength="59" x="732" y="890.9707">container</text><text fill="#FFFFFF" font-family="sans-serif" font-size="14" lengthAdjust="spacing" textLength="4" x="795" y="890.9707">&#160;</text><rect fill="none" height="17.6094" style="stroke:none;stroke-width:1.0;" width="182" x="706" y="894.0469"/><text fill="#444444" font-family="sans-serif" font-size="14" lengthAdjust="spacing" textLength="14" x="710" y="908.5801">&#9647;</text><text fill="#FFFFFF" font-family="sans-serif" font-size="14" lengthAdjust="spacing" textLength="4" x="724" y="908.5801">&#160;</text><text fill="#444444" font-family="sans-serif" font-size="14" lengthAdjust="spacing" textLength="108" x="732" y="908.5801">system boundary</text><text fill="#444444" font-family="sans-serif" font-size="10" lengthAdjust="spacing" textLength="40" x="844" y="909.459">(dashed)</text><text fill="#FFFFFF" font-family="sans-serif" font-size="14" lengthAdjust="spacing" textLength="4" x="884" y="908.5801">&#160;</text><line style="stroke:none;stroke-width:1.0;" x1="706" x2="888" y1="823.6094" y2="823.6094"/><line style="stroke:none;stroke-width:1.0;" x1="706" x2="888" y1="841.2188" y2="841.2188"/><line style="stroke:none;stroke-width:1.0;" x1="706" x2="888" y1="858.8281" y2="858.8281"/><line style="stroke:none;stroke-width:1.0;" x1="706" x2="888" y1="876.4375" y2="876.4375"/><line style="stroke:none;stroke-width:1.0;" x1="706" x2="888" y1="894.0469" y2="894.0469"/><line style="stroke:none;stroke-width:1.0;" x1="706" x2="888" y1="911.6563" y2="911.6563"/><line style="stroke:none;stroke-width:1.0;" x1="706" x2="706" y1="823.6094" y2="911.6563"/><line style="stroke:none;stroke-width:1.0;" x1="888" x2="888" y1="823.6094" y2="911.6563"/><!--SRC=[pPTRRzem5CVV-HHkDcaWTJpnLAaFt7gPkiA0gftM2Hdd05aTExCTBfhstNUSEE5IAbYXOmYa-CJvdr_EEVa39v6Yev0IJkSoDaI7OAYWXPD0C1xxGChbH_Tc5VrOh_JhKXWQ253bA0vveL3r_IQ748JfqL7HOvL06513BgTdF1W2cpCEPmActYbvFnZL9PVgVAG01Aw7g9L6tWsJbzqZbGzgTPyUKrzE0p4wzouer-2LTalBnbICm5zEBPKDxP0xt_ZQv0f2ELbDhi3V8NEwQqDQcxS3V7kT3SpCQWKvTcmfKjekjLIxXLnUb8LU6jf1SAaU2y7qNXTgkCRxx5wrxlljPgVRkkstMvrUfthTAvOADzMlhRjUlzTgznkj-rkC5FHJ82AgQ4YiXfb7G2B9vtPHA9Z0S20zHR6q3yqP3IDSVYJD6R3Ok1CQ0_KAwHfg0cQFi_4c72Q0yzq6fQKehggKgyn8fSjfz9HuwG7UcsVxr9rh0s6_9cFXKpLVlxWhXsPA5QJRCfM7NER1Av5V1OAld6P7YN9-WIxVmw3E0vnHrCLZaYuIHFpKb9nglCi1rU2JAPvFUqOPaA5K92Sv1CVbtRM3mAECeCfnFZG1r95pm4OOIKBqdX4GoXYMpcX2XKy6KZuHa_Jg03GT6882mQ113Us2cWGCvzdBmyJ6YJkHeRebcOu3DYQHafF0JexAB_BneWF0sH0-yIwTTWE1aGn8Ro4oRhlEjgynDGQlfC9GexOOKDAePIIsNdQ878h6vm91N0VNyt-98ORN8bo0DOiKWTX5Xl0PjBPZCuXrChlQAA2XhKCSOMVIqKedA9ceIEh015Be0xKCsafYiRNCdO3aaOpH1V0fOp91ItXmX7x6e8qb-UriumMhQSxmyHIKEo6Kp29Piinzq8QtsDL-PdAdGJ-ARrUzNhlxFR5pEjBd7t08ZMIIdusDYVI7qYQElykqXzUyEMEIvc3syx_YFZUajoLzbcy_jtAmdngr-YRM7_w07HtLkPf3xKhs1EQwjGbN9-S2kHdv9PiuWALPDc-VEYsh7RbC_uvutnayN4DNND4xZekiDH35qXvkgWd-6asRU0J7s_15jpEh- -DoqxnitZQAfJy0]--></g></svg>