<?xml version="1.0" encoding="us-ascii" standalone="no"?><svg xmlns="http://www.w3.org/2000/svg" xmlns:xlink="http://www.w3.org/1999/xlink" contentStyleType="text/css" height="383px" preserveAspectRatio="none" style="width:455px;height:383px;background:#FFFFFF;" version="1.1" viewBox="0 0 455 383" width="455px" zoomAndPan="magnify"><defs/><g><text fill="#000000" font-family="sans-serif" font-size="14" font-weight="bold" lengthAdjust="spacing" textLength="427" x="10" y="29.5332">TraderXExample - Execute Trades - Sequence - Context level</text><rect fill="none" height="48.7031" style="stroke:#000000;stroke-width:1.5;" width="242" x="19.5" y="93.2188"/><rect fill="none" height="48.7031" style="stroke:#000000;stroke-width:1.5;" width="313" x="115.5" y="155.9219"/><rect fill="none" height="48.7031" style="stroke:#000000;stroke-width:1.5;" width="290" x="115.5" y="218.625"/><rect fill="none" height="48.7031" style="stroke:#000000;stroke-width:1.5;" width="189" x="19.5" y="281.3281"/><line style="stroke:#181818;stroke-width:0.5;stroke-dasharray:5.0,5.0;" x1="57.5" x2="57.5" y1="76.2188" y2="347.0313"/><line style="stroke:#181818;stroke-width:0.5;stroke-dasharray:5.0,5.0;" x1="157.5" x2="157.5" y1="76.2188" y2="347.0313"/><line style="stroke:#181818;stroke-width:0.5;stroke-dasharray:5.0,5.0;" x1="260.5" x2="260.5" y1="76.2188" y2="347.0313"/><rect fill="#E2E2F0" height="31.6094" rx="2.5" ry="2.5" style="stroke:#181818;stroke-width:0.5;" width="57" x="29.5" y="43.6094"/><text fill="#000000" font-family="sans-serif" font-size="14" lengthAdjust="spacing" textLength="43" x="36.5" y="65.1426">Trader</text><rect fill="#E2E2F0" height="31.6094" rx="2.5" ry="2.5" style="stroke:#181818;stroke-width:0.5;" width="57" x="29.5" y="346.0313"/><text fill="#000000" font-family="sans-serif" font-size="14" lengthAdjust="spacing" textLength="43" x="36.5" y="367.5645">Trader</text><rect fill="#E2E2F0" height="31.6094" rx="2.5" ry="2.5" style="stroke:#181818;stroke-width:0.5;" width="65" x="125.5" y="43.6094"/><text fill="#000000" font-family="sans-serif" font-size="14" lengthAdjust="spacing" textLength="51" x="132.5" y="65.1426">TraderX</text><rect fill="#E2E2F0" height="31.6094" rx="2.5" ry="2.5" style="stroke:#181818;stroke-width:0.5;" width="65" x="125.5" y="346.0313"/><text fill="#000000" font-family="sans-serif" font-size="14" lengthAdjust="spacing" textLength="51" x="132.5" y="367.5645">TraderX</text><rect fill="#E2E2F0" height="31.6094" rx="2.5" ry="2.5" style="stroke:#181818;stroke-width:0.5;" width="120" x="200.5" y="43.6094"/><text fill="#000000" font-family="sans-serif" font-size="14" lengthAdjust="spacing" textLength="106" x="207.5" y="65.1426">External Process</text><rect fill="#E2E2F0" height="31.6094" rx="2.5" ry="2.5" style="stroke:#181818;stroke-width:0.5;" width="120" x="200.5" y="346.0313"/><text fill="#000000" font-family="sans-serif" font-size="14" lengthAdjust="spacing" textLength="106" x="207.5" y="367.5645">External Process</text><path d="M19.5,93.2188 L256.5,93.2188 L256.5,101.5703 L246.5,111.5703 L19.5,111.5703 L19.5,93.2188 " fill="#EEEEEE" style="stroke:#000000;stroke-width:1.5;"/><rect fill="none" height="48.7031" style="stroke:#000000;stroke-width:1.5;" width="242" x="19.5" y="93.2188"/><text fill="#000000" font-family="sans-serif" font-size="13" font-weight="bold" lengthAdjust="spacing" textLength="192" x="34.5" y="107.7139">Trader - Create Trade Request</text><polygon fill="#181818" points="146,129.9219,156,133.9219,146,137.9219,150,133.9219" style="stroke:#181818;stroke-width:1.0;"/><line style="stroke:#181818;stroke-width:1.0;" x1="58" x2="152" y1="133.9219" y2="133.9219"/><text fill="#000000" font-family="sans-serif" font-size="13" lengthAdjust="spacing" textLength="74" x="65" y="129.0654">Create Trade</text><path d="M115.5,155.9219 L423.5,155.9219 L423.5,164.2734 L413.5,174.2734 L115.5,174.2734 L115.5,155.9219 " fill="#EEEEEE" style="stroke:#000000;stroke-width:1.5;"/><rect fill="none" height="48.7031" style="stroke:#000000;stroke-width:1.5;" width="313" x="115.5" y="155.9219"/><text fill="#000000" font-family="sans-serif" font-size="13" font-weight="bold" lengthAdjust="spacing" textLength="263" x="130.5" y="170.417">External Process - Process Trade Request</text><polygon fill="#181818" points="169,192.625,159,196.625,169,200.625,165,196.625" style="stroke:#181818;stroke-width:1.0;"/><line style="stroke:#181818;stroke-width:1.0;" x1="163" x2="259.5" y1="196.625" y2="196.625"/><text fill="#000000" font-family="sans-serif" font-size="13" lengthAdjust="spacing" textLength="28" x="175" y="191.7686">Start</text><path d="M115.5,218.625 L400.5,218.625 L400.5,226.9766 L390.5,236.9766 L115.5,236.9766 L115.5,218.625 " fill="#EEEEEE" style="stroke:#000000;stroke-width:1.5;"/><rect fill="none" height="48.7031" style="stroke:#000000;stroke-width:1.5;" width="290" x="115.5" y="218.625"/><text fill="#000000" font-family="sans-serif" font-size="13" font-weight="bold" lengthAdjust="spacing" textLength="240" x="130.5" y="233.1201">External Process - Refresh Web Client</text><polygon fill="#181818" points="169,255.3281,159,259.3281,169,263.3281,165,259.3281" style="stroke:#181818;stroke-width:1.0;"/><line style="stroke:#181818;stroke-width:1.0;" x1="163" x2="259.5" y1="259.3281" y2="259.3281"/><text fill="#000000" font-family="sans-serif" font-size="13" lengthAdjust="spacing" textLength="28" x="175" y="254.4717">Start</text><path d="M19.5,281.3281 L203.5,281.3281 L203.5,289.6797 L193.5,299.6797 L19.5,299.6797 L19.5,281.3281 " fill="#EEEEEE" style="stroke:#000000;stroke-width:1.5;"/><rect fill="none" height="48.7031" style="stroke:#000000;stroke-width:1.5;" width="189" x="19.5" y="281.3281"/><text fill="#000000" font-family="sans-serif" font-size="13" font-weight="bold" lengthAdjust="spacing" textLength="139" x="34.5" y="295.8232">Trader - Cancel Trade</text><polygon fill="#181818" points="146,318.0313,156,322.0313,146,326.0313,150,322.0313" style="stroke:#181818;stroke-width:1.0;"/><line style="stroke:#181818;stroke-width:1.0;" x1="58" x2="152" y1="322.0313" y2="322.0313"/><text fill="#000000" font-family="sans-serif" font-size="13" lengthAdjust="spacing" textLength="76" x="65" y="317.1748">Cancel Trade</text><!--SRC=[lLBBJiCm4BpxAvRUsm_WW8Igt563HAwBEosH7DkiDv3-FOxg21fLKP4GD-zZPcTsVHU5ZnsJurFebL87PS_6QAiEz2oyXpJLm5tCuPgg0RRNKaWvKUEzXxTZRHkyOb1o-80p9h9eQzl8Ncbr9beHfnddvj5gaBGvPw-1cckeEXpqamNrAIcw2TvSugj18PuTFKcmI6bX_DHQEeqvIkXZQHwz2NYoJRlHSrApv8JM3pTgfliBTWE_BzFd-hEEwNMBa9cdNocgDIzoMSeE1q5wenUyqjQryF-Xu_iWd3-TAolxkqFyP1sdcYy0]--></g></svg>