<?xml version="1.0" encoding="us-ascii" standalone="no"?><svg xmlns="http://www.w3.org/2000/svg" xmlns:xlink="http://www.w3.org/1999/xlink" contentStyleType="text/css" height="367px" preserveAspectRatio="none" style="width:445px;height:367px;background:#FFFFFF;" version="1.1" viewBox="0 0 445 367" width="445px" zoomAndPan="magnify"><defs/><g><text fill="#000000" font-family="sans-serif" font-size="14" font-weight="bold" lengthAdjust="spacing" textLength="417" x="10" y="24.5332">TraderXExample - Execute Trades - C4 Static - Context level</text><!--entity TraderXExample.Actors.Trader--><g id="elem_TraderXExample.Actors.Trader"><ellipse cx="137.75" cy="67.1094" fill="#08427B" rx="16" ry="16" style="stroke:#073B6F;stroke-width:0.5;"/><path d="M137.75,87.1094 C141.75,87.1094 144.75,87.1094 148.75,83.1094 C156.75,83.1094 164.75,91.1094 164.75,99.1094 L164.75,103.1094 C164.75,107.1094 160.75,111.1094 156.75,111.1094 L118.75,111.1094 C114.75,111.1094 110.75,107.1094 110.75,103.1094 L110.75,99.1094 C110.75,91.1094 118.75,83.1094 126.75,83.1094 C130.75,87.1094 133.75,87.1094 137.75,87.1094 " fill="#08427B" style="stroke:#073B6F;stroke-width:0.5;"/><text fill="#08427B" font-family="sans-serif" font-size="16" font-weight="bold" lengthAdjust="spacing" textLength="50" x="112.75" y="128.2188">Trader</text></g><!--entity TraderXExample.SoftwareSystems.TraderX--><g id="elem_TraderXExample.SoftwareSystems.TraderX"><rect fill="#1168BD" height="75.3438" rx="2.5" ry="2.5" style="stroke:#3C7FC0;stroke-width:0.5;" width="81" x="157.25" y="199.6094"/><text fill="#FFFFFF" font-family="sans-serif" font-size="16" font-weight="bold" lengthAdjust="spacing" textLength="61" x="167.25" y="226.2188">TraderX</text><text fill="#FFFFFF" font-family="sans-serif" font-size="14" lengthAdjust="spacing" textLength="4" x="195.75" y="244.2676">&#160;</text><text fill="#FFFFFF" font-family="sans-serif" font-size="14" lengthAdjust="spacing" textLength="51" x="172.25" y="261.877">TraderX</text></g><!--entity TraderXExample.Actors.ExternalProcess--><g id="elem_TraderXExample.Actors.ExternalProcess"><rect fill="#1168BD" height="40.125" rx="2.5" ry="2.5" style="stroke:#3C7FC0;stroke-width:0.5;" width="150" x="183.75" y="71.1094"/><text fill="#FFFFFF" font-family="sans-serif" font-size="16" font-weight="bold" lengthAdjust="spacing" textLength="63" x="193.75" y="97.7188">External</text><text fill="#FFFFFF" font-family="sans-serif" font-size="16" font-weight="bold" lengthAdjust="spacing" textLength="4" x="256.75" y="97.7188">&#160;</text><text fill="#FFFFFF" font-family="sans-serif" font-size="16" font-weight="bold" lengthAdjust="spacing" textLength="63" x="260.75" y="97.7188">Process</text></g><polygon fill="none" points="182.484,199.4709,182.1763,190.9324,176.6378,193.2401,182.484,199.4709" style="stroke:#666666;stroke-width:1.0;"/><path d="M154.3041,131.8392 C163.1145,152.9843 170.7989,171.4267 179.407,192.0863 " fill="none" style="stroke:#666666;stroke-width:1.0;"/><text fill="#666666" font-family="sans-serif" font-size="12" font-weight="bold" lengthAdjust="spacing" textLength="29" x="185.25" y="163.0664">Uses</text><text fill="#666666" font-family="sans-serif" font-size="12" font-weight="bold" lengthAdjust="spacing" textLength="46" x="176.75" y="178.1602">[HTTPS]</text><polygon fill="none" points="218.9493,199.6007,225.3305,193.9191,220.0213,191.1242,218.9493,199.6007" style="stroke:#666666;stroke-width:1.0;"/><path d="M253.1327,111.3275 C247.5209,129.7012 238.2374,158.0186 227.75,181.6094 C225.1175,187.531 225.7977,186.5915 222.6759,192.5217 " fill="none" style="stroke:#666666;stroke-width:1.0;"/><text fill="#666666" font-family="sans-serif" font-size="12" font-weight="bold" lengthAdjust="spacing" textLength="29" x="241.75" y="170.5664">Uses</text><rect fill="none" height="17.6094" style="stroke:none;stroke-width:1.0;" width="78" x="237.75" y="287.6094"/><text fill="#000000" font-family="sans-serif" font-size="14" font-weight="bold" lengthAdjust="spacing" textLength="53" x="237.75" y="302.1426">Legend</text><text fill="#FFFFFF" font-family="sans-serif" font-size="14" lengthAdjust="spacing" textLength="4" x="290.75" y="302.1426">&#160;</text><rect fill="#08427B" height="17.6094" style="stroke:none;stroke-width:1.0;" width="78" x="237.75" y="305.2188"/><text fill="#073B6F" font-family="sans-serif" font-size="14" lengthAdjust="spacing" textLength="14" x="241.75" y="319.752">&#9647;</text><text fill="#FFFFFF" font-family="sans-serif" font-size="14" lengthAdjust="spacing" textLength="4" x="255.75" y="319.752">&#160;</text><text fill="#FFFFFF" font-family="sans-serif" font-size="14" lengthAdjust="spacing" textLength="44" x="263.75" y="319.752">person</text><text fill="#FFFFFF" font-family="sans-serif" font-size="14" lengthAdjust="spacing" textLength="4" x="311.75" y="319.752">&#160;</text><rect fill="#1168BD" height="17.6094" style="stroke:none;stroke-width:1.0;" width="78" x="237.75" y="322.8281"/><text fill="#3C7FC0" font-family="sans-serif" font-size="14" lengthAdjust="spacing" textLength="14" x="241.75" y="337.3613">&#9647;</text><text fill="#FFFFFF" font-family="sans-serif" font-size="14" lengthAdjust="spacing" textLength="4" x="255.75" y="337.3613">&#160;</text><text fill="#FFFFFF" font-family="sans-serif" font-size="14" lengthAdjust="spacing" textLength="44" x="263.75" y="337.3613">system</text><text fill="#FFFFFF" font-family="sans-serif" font-size="14" lengthAdjust="spacing" textLength="4" x="311.75" y="337.3613">&#160;</text><line style="stroke:none;stroke-width:1.0;" x1="237.75" x2="315.75" y1="287.6094" y2="287.6094"/><line style="stroke:none;stroke-width:1.0;" x1="237.75" x2="315.75" y1="305.2188" y2="305.2188"/><line style="stroke:none;stroke-width:1.0;" x1="237.75" x2="315.75" y1="322.8281" y2="322.8281"/><line style="stroke:none;stroke-width:1.0;" x1="237.75" x2="315.75" y1="340.4375" y2="340.4375"/><line style="stroke:none;stroke-width:1.0;" x1="237.75" x2="237.75" y1="287.6094" y2="340.4375"/><line style="stroke:none;stroke-width:1.0;" x1="315.75" x2="315.75" y1="287.6094" y2="340.4375"/><!--SRC=[dL9HRvim47xdLxXqKeFKyPIdI7c8KhPEgW8AL4srLEXc3e9gR6GxJVZtCpLDoDekR8W7t-UxxxlxpXUrXA82mg0HMqrKXHeuE1SbfsoR8V7zTVVJiLhFn-bSS8rxxTVRYZdEBCi2XXLodK0nSkcuDBSoPs8tOMMEjA4C9nntxZNvygkO2oRaj928tCIvORB8PVxwjJb2PYXFyzG6Ch4hUJ5rlm5Jw7h3PEa6U85PNrh85XgWVKZyNt69bNWv5PUO3L2sMH_8jhfBPETzRjTpwY0hEVOGxpnLpxiZtS6K8v-51X3s_3WIsbcFR2OsSyQtuKCQ1SiuNAHHk4oMin_9o7FkPe_XVP8cOPJUX0yBWpZgkUGrIAX8ow6R6aajMDC6ZgDBpP0a4eorgs0FLMt2hoJO8ztgxa8PO3uciGPTqlPi7pTX-8BcTKSebU2ZKmv_HhMGohVeDN7jmKpccYt5ZT9O_LaIYrplGAAzVQjT7OfNRk_u6Kcd6-oDknnO90L5fKpX6q8wg6l5CHivq_lWDkyLgZN_UPiaKVpqkaGerFIgba8BAjXaetMjhho_IBvh-v-qst7imxWBlWUBcv7t6m00]--></g></svg>