<?xml version="1.0" encoding="us-ascii" standalone="no"?><svg xmlns="http://www.w3.org/2000/svg" xmlns:xlink="http://www.w3.org/1999/xlink" contentStyleType="text/css" height="396px" preserveAspectRatio="none" style="width:445px;height:396px;background:#FFFFFF;" version="1.1" viewBox="0 0 445 396" width="445px" zoomAndPan="magnify"><defs/><g><text fill="#000000" font-family="sans-serif" font-size="14" font-weight="bold" lengthAdjust="spacing" textLength="417" x="10" y="24.5332">TraderXExample - Execute Trades - C4 Static - Context level</text><!--entity TraderXExample.Actors.Trader--><g id="elem_TraderXExample.Actors.Trader"><ellipse cx="132.5" cy="60.6094" fill="#08427B" rx="16" ry="16" style="stroke:#073B6F;stroke-width:0.5;"/><path d="M132.5,80.6094 C136.5,80.6094 139.5,80.6094 143.5,76.6094 C151.5,76.6094 159.5,84.6094 159.5,92.6094 L159.5,96.6094 C159.5,100.6094 155.5,104.6094 151.5,104.6094 L113.5,104.6094 C109.5,104.6094 105.5,100.6094 105.5,96.6094 L105.5,92.6094 C105.5,84.6094 113.5,76.6094 121.5,76.6094 C125.5,80.6094 128.5,80.6094 132.5,80.6094 " fill="#08427B" style="stroke:#073B6F;stroke-width:0.5;"/><text fill="#08427B" font-family="sans-serif" font-size="16" font-weight="bold" lengthAdjust="spacing" textLength="50" x="107.5" y="121.7188">Trader</text></g><!--entity TraderXExample.SoftwareSystems.TraderX--><g id="elem_TraderXExample.SoftwareSystems.TraderX"><rect fill="#1168BD" height="75.3438" rx="2.5" ry="2.5" style="stroke:#3C7FC0;stroke-width:0.5;" width="81" x="161" y="217.1094"/><text fill="#FFFFFF" font-family="sans-serif" font-size="16" font-weight="bold" lengthAdjust="spacing" textLength="61" x="171" y="243.7188">TraderX</text><text fill="#FFFFFF" font-family="sans-serif" font-size="14" lengthAdjust="spacing" textLength="4" x="199.5" y="261.7676">&#160;</text><text fill="#FFFFFF" font-family="sans-serif" font-size="14" lengthAdjust="spacing" textLength="51" x="176" y="279.377">TraderX</text></g><!--entity TraderXExample.Actors.ExternalProcess--><g id="elem_TraderXExample.Actors.ExternalProcess"><rect fill="#1168BD" height="40.125" rx="2.5" ry="2.5" style="stroke:#3C7FC0;stroke-width:0.5;" width="150" x="195.5" y="64.6094"/><text fill="#FFFFFF" font-family="sans-serif" font-size="16" font-weight="bold" lengthAdjust="spacing" textLength="63" x="205.5" y="91.2188">External</text><text fill="#FFFFFF" font-family="sans-serif" font-size="16" font-weight="bold" lengthAdjust="spacing" textLength="4" x="268.5" y="91.2188">&#160;</text><text fill="#FFFFFF" font-family="sans-serif" font-size="16" font-weight="bold" lengthAdjust="spacing" textLength="63" x="272.5" y="91.2188">Process</text></g><!--link TraderXExample.Actors.Trader to TraderXExample.SoftwareSystems.TraderX--><g id="link_TraderXExample.Actors.Trader_TraderXExample.SoftwareSystems.TraderX"><path d="M148.85,125.4194 C160.25,153.1694 172.301,182.5191 183.401,209.5491 " fill="none" id="TraderXExample.Actors.Trader-to-TraderXExample.SoftwareSystems.TraderX" style="stroke:#666666;stroke-width:1.0;"/><polygon fill="#666666" points="186.44,216.9494,186.1761,208.4094,180.6259,210.6887,186.44,216.9494" style="stroke:#666666;stroke-width:1.0;"/><text fill="#666666" font-family="sans-serif" font-size="12" font-weight="bold" lengthAdjust="spacing" textLength="29" x="183" y="168.5664">Uses</text><text fill="#666666" font-family="sans-serif" font-size="12" font-weight="bold" lengthAdjust="spacing" textLength="46" x="174.5" y="183.6602">[HTTPS]</text></g><!--link TraderXExample.Actors.ExternalProcess to TraderXExample.SoftwareSystems.TraderX--><g id="link_TraderXExample.Actors.ExternalProcess_TraderXExample.SoftwareSystems.TraderX"><path d="M262.79,104.6994 C250.91,134.0994 229.5,187.1094 229.5,187.1094 C229.5,187.1094 226.5562,194.107 220.0762,209.487 " fill="none" id="TraderXExample.Actors.ExternalProcess-to-TraderXExample.SoftwareSystems.TraderX" style="stroke:#666666;stroke-width:1.0;"/><polygon fill="#666666" points="216.97,216.8594,222.8408,210.6518,217.3115,208.3222,216.97,216.8594" style="stroke:#666666;stroke-width:1.0;"/><text fill="#666666" font-family="sans-serif" font-size="12" font-weight="bold" lengthAdjust="spacing" textLength="29" x="242.5" y="176.0664">Uses</text></g><rect fill="none" height="17.6094" style="stroke:none;stroke-width:1.0;" width="78" x="242.5" y="316.4531"/><text fill="#000000" font-family="sans-serif" font-size="14" font-weight="bold" lengthAdjust="spacing" textLength="53" x="242.5" y="330.9863">Legend</text><text fill="#FFFFFF" font-family="sans-serif" font-size="14" lengthAdjust="spacing" textLength="4" x="295.5" y="330.9863">&#160;</text><rect fill="#08427B" height="17.6094" style="stroke:none;stroke-width:1.0;" width="78" x="242.5" y="334.0625"/><text fill="#073B6F" font-family="sans-serif" font-size="14" lengthAdjust="spacing" textLength="14" x="246.5" y="348.5957">&#9647;</text><text fill="#FFFFFF" font-family="sans-serif" font-size="14" lengthAdjust="spacing" textLength="4" x="260.5" y="348.5957">&#160;</text><text fill="#FFFFFF" font-family="sans-serif" font-size="14" lengthAdjust="spacing" textLength="44" x="268.5" y="348.5957">person</text><text fill="#FFFFFF" font-family="sans-serif" font-size="14" lengthAdjust="spacing" textLength="4" x="316.5" y="348.5957">&#160;</text><rect fill="#1168BD" height="17.6094" style="stroke:none;stroke-width:1.0;" width="78" x="242.5" y="351.6719"/><text fill="#3C7FC0" font-family="sans-serif" font-size="14" lengthAdjust="spacing" textLength="14" x="246.5" y="366.2051">&#9647;</text><text fill="#FFFFFF" font-family="sans-serif" font-size="14" lengthAdjust="spacing" textLength="4" x="260.5" y="366.2051">&#160;</text><text fill="#FFFFFF" font-family="sans-serif" font-size="14" lengthAdjust="spacing" textLength="44" x="268.5" y="366.2051">system</text><text fill="#FFFFFF" font-family="sans-serif" font-size="14" lengthAdjust="spacing" textLength="4" x="316.5" y="366.2051">&#160;</text><line style="stroke:none;stroke-width:1.0;" x1="242.5" x2="320.5" y1="316.4531" y2="316.4531"/><line style="stroke:none;stroke-width:1.0;" x1="242.5" x2="320.5" y1="334.0625" y2="334.0625"/><line style="stroke:none;stroke-width:1.0;" x1="242.5" x2="320.5" y1="351.6719" y2="351.6719"/><line style="stroke:none;stroke-width:1.0;" x1="242.5" x2="320.5" y1="369.2813" y2="369.2813"/><line style="stroke:none;stroke-width:1.0;" x1="242.5" x2="242.5" y1="316.4531" y2="369.2813"/><line style="stroke:none;stroke-width:1.0;" x1="320.5" x2="320.5" y1="316.4531" y2="369.2813"/><!--SRC=[dLBBReCm4Bpp5Iwjb22rd7AAb4EKqeSK1HI8cggfa6iMWcfiP3kllw-fQKBw2YtYu1tlpkpE-YndXAuIGAwxg7_IaujHBnvnfc2ht79LKCiQ9eb7eG2c8fnrRTBBzQr8AT_qQPu2sH4AVGOR-n9Tl6GZJhaOP0A0wJZLJ0OvJz-_AeUB1CHndbpYX6zobWti6qmbs4uxMRB4B8EaASr51RNGtYV-Lrn0mTV7uWAI5iecwnlPIdSAzBJFrNgE7QGvWmRYdAPgU7UWsvjou3DG2yA67mT2C-k1JSTwpl3EVuW3RnhwapZmfz5qU1zr7MiyVFHdKHpvGNpjFqmqOidNd9LOu09L76fN0YevtLM1PQbSKK2HmDhQkRV5HQd3A-HjWQnKVI4rCEgXK66La-fi7ZUYi0RzkWCGahFkCOSx98eBwHhq4jdce2UpzPR2dLHGV2u9UQesM82v_QYTxuldTkFu4qcjwssrkmpJG702Kkh23mJLKDsAfJToelVMRSuao0LxkekY87n-NoBEvA1J2guuuRI_LAgK7USNoIzj_qcx6iSyZB5twqskkyuR]--></g></svg>