<?xml version="1.0" encoding="us-ascii" standalone="no"?><svg xmlns="http://www.w3.org/2000/svg" xmlns:xlink="http://www.w3.org/1999/xlink" contentStyleType="text/css" height="446px" preserveAspectRatio="none" style="width:853px;height:446px;background:#FFFFFF;" version="1.1" viewBox="0 0 853 446" width="853px" zoomAndPan="magnify"><defs/><g><text fill="#000000" font-family="sans-serif" font-size="14" font-weight="bold" lengthAdjust="spacing" textLength="825" x="10" y="29.5332">E Commerce Platform - Generate Demand - Storefront - Storefront App - Search Products - Sequence - Container level</text><rect fill="#FFFFFF" height="389.0313" style="stroke:#181818;stroke-width:0.5;" width="175.5" x="507" y="44.6094"/><text fill="#000000" font-family="sans-serif" font-size="13" font-weight="bold" lengthAdjust="spacing" textLength="97" x="546.25" y="58.1045">Search Service</text><rect fill="none" height="174.1094" style="stroke:#000000;stroke-width:1.5;" width="485.5" x="223" y="175.9219"/><rect fill="none" height="111.4063" style="stroke:#000000;stroke-width:1.5;" width="350.5" x="348" y="231.625"/><rect fill="none" height="48.7031" style="stroke:#000000;stroke-width:1.5;" width="187.5" x="501" y="287.3281"/><line style="stroke:#181818;stroke-width:0.5;stroke-dasharray:5.0,5.0;" x1="164.5" x2="164.5" y1="128.5703" y2="367.0313"/><line style="stroke:#181818;stroke-width:0.5;stroke-dasharray:5.0,5.0;" x1="286" x2="286" y1="128.5703" y2="367.0313"/><line style="stroke:#181818;stroke-width:0.5;stroke-dasharray:5.0,5.0;" x1="407" x2="407" y1="128.5703" y2="367.0313"/><line style="stroke:#181818;stroke-width:0.5;stroke-dasharray:5.0,5.0;" x1="528" x2="528" y1="128.5703" y2="367.0313"/><line style="stroke:#181818;stroke-width:0.5;stroke-dasharray:5.0,5.0;" x1="644.5" x2="644.5" y1="128.5703" y2="367.0313"/><rect fill="#E2E2F0" height="31.6094" rx="2.5" ry="2.5" style="stroke:#181818;stroke-width:0.5;" width="65" x="132.5" y="95.9609"/><text fill="#000000" font-family="sans-serif" font-size="14" lengthAdjust="spacing" textLength="51" x="139.5" y="117.4941">External</text><rect fill="#E2E2F0" height="31.6094" rx="2.5" ry="2.5" style="stroke:#181818;stroke-width:0.5;" width="65" x="132.5" y="366.0313"/><text fill="#000000" font-family="sans-serif" font-size="14" lengthAdjust="spacing" textLength="51" x="139.5" y="387.5645">External</text><rect fill="#E2E2F0" height="31.6094" rx="2.5" ry="2.5" style="stroke:#181818;stroke-width:0.5;" width="106" x="233" y="95.9609"/><text fill="#000000" font-family="sans-serif" font-size="14" lengthAdjust="spacing" textLength="92" x="240" y="117.4941">Storefront App</text><rect fill="#E2E2F0" height="31.6094" rx="2.5" ry="2.5" style="stroke:#181818;stroke-width:0.5;" width="106" x="233" y="366.0313"/><text fill="#000000" font-family="sans-serif" font-size="14" lengthAdjust="spacing" textLength="92" x="240" y="387.5645">Storefront App</text><rect fill="#E2E2F0" height="31.6094" rx="2.5" ry="2.5" style="stroke:#181818;stroke-width:0.5;" width="98" x="358" y="95.9609"/><text fill="#000000" font-family="sans-serif" font-size="14" lengthAdjust="spacing" textLength="84" x="365" y="117.4941">Storefront Bff</text><rect fill="#E2E2F0" height="31.6094" rx="2.5" ry="2.5" style="stroke:#181818;stroke-width:0.5;" width="98" x="358" y="366.0313"/><text fill="#000000" font-family="sans-serif" font-size="14" lengthAdjust="spacing" textLength="84" x="365" y="387.5645">Storefront Bff</text><rect fill="#E2E2F0" height="31.6094" rx="2.5" ry="2.5" style="stroke:#181818;stroke-width:0.5;" width="34" x="511" y="95.9609"/><text fill="#000000" font-family="sans-serif" font-size="14" lengthAdjust="spacing" textLength="20" x="518" y="117.4941">Api</text><rect fill="#E2E2F0" height="31.6094" rx="2.5" ry="2.5" style="stroke:#181818;stroke-width:0.5;" width="34" x="511" y="366.0313"/><text fill="#000000" font-family="sans-serif" font-size="14" lengthAdjust="spacing" textLength="20" x="518" y="387.5645">Api</text><text fill="#000000" font-family="sans-serif" font-size="14" lengthAdjust="spacing" textLength="61" x="611.5" y="125.4941">Database</text><path d="M627,74.9609 C627,64.9609 645,64.9609 645,64.9609 C645,64.9609 663,64.9609 663,74.9609 L663,100.9609 C663,110.9609 645,110.9609 645,110.9609 C645,110.9609 627,110.9609 627,100.9609 L627,74.9609 " fill="#E2E2F0" style="stroke:#181818;stroke-width:1.5;"/><path d="M627,74.9609 C627,84.9609 645,84.9609 645,84.9609 C645,84.9609 663,84.9609 663,74.9609 " fill="none" style="stroke:#181818;stroke-width:1.5;"/><text fill="#000000" font-family="sans-serif" font-size="14" lengthAdjust="spacing" textLength="61" x="611.5" y="380.5645">Database</text><path d="M627,393.6406 C627,383.6406 645,383.6406 645,383.6406 C645,383.6406 663,383.6406 663,393.6406 L663,419.6406 C663,429.6406 645,429.6406 645,429.6406 C645,429.6406 627,429.6406 627,419.6406 L627,393.6406 " fill="#E2E2F0" style="stroke:#181818;stroke-width:1.5;"/><path d="M627,393.6406 C627,403.6406 645,403.6406 645,403.6406 C645,403.6406 663,403.6406 663,393.6406 " fill="none" style="stroke:#181818;stroke-width:1.5;"/><polygon fill="#181818" points="274,156.9219,284,160.9219,274,164.9219,278,160.9219" style="stroke:#181818;stroke-width:1.0;"/><line style="stroke:#181818;stroke-width:1.0;" x1="165" x2="280" y1="160.9219" y2="160.9219"/><text fill="#000000" font-family="sans-serif" font-size="13" lengthAdjust="spacing" textLength="97" x="172" y="156.0654">Search Products</text><path d="M223,175.9219 L372,175.9219 L372,184.2734 L362,194.2734 L223,194.2734 L223,175.9219 " fill="#EEEEEE" style="stroke:#000000;stroke-width:1.5;"/><rect fill="none" height="174.1094" style="stroke:#000000;stroke-width:1.5;" width="485.5" x="223" y="175.9219"/><text fill="#000000" font-family="sans-serif" font-size="13" font-weight="bold" lengthAdjust="spacing" textLength="104" x="238" y="190.417">Search Products</text><polygon fill="#181818" points="395,212.625,405,216.625,395,220.625,399,216.625" style="stroke:#181818;stroke-width:1.0;"/><line style="stroke:#181818;stroke-width:1.0;" x1="286" x2="401" y1="216.625" y2="216.625"/><text fill="#000000" font-family="sans-serif" font-size="13" lengthAdjust="spacing" textLength="97" x="293" y="211.7686">Search Products</text><path d="M348,231.625 L497,231.625 L497,239.9766 L487,249.9766 L348,249.9766 L348,231.625 " fill="#EEEEEE" style="stroke:#000000;stroke-width:1.5;"/><rect fill="none" height="111.4063" style="stroke:#000000;stroke-width:1.5;" width="350.5" x="348" y="231.625"/><text fill="#000000" font-family="sans-serif" font-size="13" font-weight="bold" lengthAdjust="spacing" textLength="104" x="363" y="246.1201">Search Products</text><polygon fill="#181818" points="516,268.3281,526,272.3281,516,276.3281,520,272.3281" style="stroke:#181818;stroke-width:1.0;"/><line style="stroke:#181818;stroke-width:1.0;" x1="407" x2="522" y1="272.3281" y2="272.3281"/><text fill="#000000" font-family="sans-serif" font-size="13" lengthAdjust="spacing" textLength="97" x="414" y="267.4717">Search Products</text><path d="M501,287.3281 L650,287.3281 L650,295.6797 L640,305.6797 L501,305.6797 L501,287.3281 " fill="#EEEEEE" style="stroke:#000000;stroke-width:1.5;"/><rect fill="none" height="48.7031" style="stroke:#000000;stroke-width:1.5;" width="187.5" x="501" y="287.3281"/><text fill="#000000" font-family="sans-serif" font-size="13" font-weight="bold" lengthAdjust="spacing" textLength="104" x="516" y="301.8232">Search Products</text><polygon fill="#181818" points="633,324.0313,643,328.0313,633,332.0313,637,328.0313" style="stroke:#181818;stroke-width:1.0;"/><line style="stroke:#181818;stroke-width:1.0;" x1="528" x2="639" y1="328.0313" y2="328.0313"/><text fill="#000000" font-family="sans-serif" font-size="13" lengthAdjust="spacing" textLength="93" x="535" y="323.1748">Select Products</text><!--SRC=[lPDFRy8m3CNl-HHMTwQddNQOLFuCxORKmywcTKUaDEaSGzctdoaKrA59I9HLgjGupVkzbpXYnH4iO1RgchWWM3cKAd0D4rYI9qOXc5EDljHABe6fuk1bECYQvb0Wv683Amxbjf3OLRwsv5LreW0lQ5KG7Et86TCWYoriWxe-MUo5sADB02FCdj-z3jzSQDCyLD8YK_uTXUgOzZyUnqEHeQ5EQj7dwcEbVQXZflIovWfrcLArFqdJgXgHf6h6hCDU4SVDp8btjg04dZusLiY0FWChMMDlv7U2cI-d7Df8roQw-HClFHzNJ9NGOKiKN6CaIEQdhmU3UumXRJxT56FCxQq1azVnJXzUVZUt-UImRQwgun57iwyjzS_s3yIRxD_HaID6kiV5GsFs_TzbTLJ89PNUYFDhVW00]--></g></svg>