<?xml version="1.0" encoding="us-ascii" standalone="no"?><svg xmlns="http://www.w3.org/2000/svg" xmlns:xlink="http://www.w3.org/1999/xlink" contentStyleType="text/css" height="364px" preserveAspectRatio="none" style="width:839px;height:364px;background:#FFFFFF;" version="1.1" viewBox="0 0 839 364" width="839px" zoomAndPan="magnify"><defs/><g><text fill="#000000" font-family="sans-serif" font-size="14" font-weight="bold" lengthAdjust="spacing" textLength="811" x="10" y="29.5332">E Commerce Platform - Generate Demand - Storefront - Storefront App - Search Products - Sequence - Context level</text><rect fill="none" height="187.1094" style="stroke:#000000;stroke-width:1.5;" width="437" x="240.25" y="123.5703"/><rect fill="none" height="124.4063" style="stroke:#000000;stroke-width:1.5;" width="302" x="365.25" y="179.2734"/><rect fill="none" height="61.7031" style="stroke:#000000;stroke-width:1.5;" width="177" x="480.25" y="234.9766"/><line style="stroke:#181818;stroke-width:0.5;stroke-dasharray:5.0,5.0;" x1="181.75" x2="181.75" y1="76.2188" y2="327.6797"/><line style="stroke:#181818;stroke-width:0.5;stroke-dasharray:5.0,5.0;" x1="303.25" x2="303.25" y1="76.2188" y2="327.6797"/><line style="stroke:#181818;stroke-width:0.5;stroke-dasharray:5.0,5.0;" x1="424.25" x2="424.25" y1="76.2188" y2="327.6797"/><line style="stroke:#181818;stroke-width:0.5;stroke-dasharray:5.0,5.0;" x1="545.25" x2="545.25" y1="76.2188" y2="327.6797"/><rect fill="#E2E2F0" height="31.6094" rx="2.5" ry="2.5" style="stroke:#181818;stroke-width:0.5;" width="65" x="149.75" y="43.6094"/><text fill="#000000" font-family="sans-serif" font-size="14" lengthAdjust="spacing" textLength="51" x="156.75" y="65.1426">External</text><rect fill="#E2E2F0" height="31.6094" rx="2.5" ry="2.5" style="stroke:#181818;stroke-width:0.5;" width="65" x="149.75" y="326.6797"/><text fill="#000000" font-family="sans-serif" font-size="14" lengthAdjust="spacing" textLength="51" x="156.75" y="348.2129">External</text><rect fill="#E2E2F0" height="31.6094" rx="2.5" ry="2.5" style="stroke:#181818;stroke-width:0.5;" width="106" x="250.25" y="43.6094"/><text fill="#000000" font-family="sans-serif" font-size="14" lengthAdjust="spacing" textLength="92" x="257.25" y="65.1426">Storefront App</text><rect fill="#E2E2F0" height="31.6094" rx="2.5" ry="2.5" style="stroke:#181818;stroke-width:0.5;" width="106" x="250.25" y="326.6797"/><text fill="#000000" font-family="sans-serif" font-size="14" lengthAdjust="spacing" textLength="92" x="257.25" y="348.2129">Storefront App</text><rect fill="#E2E2F0" height="31.6094" rx="2.5" ry="2.5" style="stroke:#181818;stroke-width:0.5;" width="98" x="375.25" y="43.6094"/><text fill="#000000" font-family="sans-serif" font-size="14" lengthAdjust="spacing" textLength="84" x="382.25" y="65.1426">Storefront Bff</text><rect fill="#E2E2F0" height="31.6094" rx="2.5" ry="2.5" style="stroke:#181818;stroke-width:0.5;" width="98" x="375.25" y="326.6797"/><text fill="#000000" font-family="sans-serif" font-size="14" lengthAdjust="spacing" textLength="84" x="382.25" y="348.2129">Storefront Bff</text><rect fill="#E2E2F0" height="31.6094" rx="2.5" ry="2.5" style="stroke:#181818;stroke-width:0.5;" width="110" x="490.25" y="43.6094"/><text fill="#000000" font-family="sans-serif" font-size="14" lengthAdjust="spacing" textLength="96" x="497.25" y="65.1426">Search Service</text><rect fill="#E2E2F0" height="31.6094" rx="2.5" ry="2.5" style="stroke:#181818;stroke-width:0.5;" width="110" x="490.25" y="326.6797"/><text fill="#000000" font-family="sans-serif" font-size="14" lengthAdjust="spacing" textLength="96" x="497.25" y="348.2129">Search Service</text><polygon fill="#181818" points="291.25,104.5703,301.25,108.5703,291.25,112.5703,295.25,108.5703" style="stroke:#181818;stroke-width:1.0;"/><line style="stroke:#181818;stroke-width:1.0;" x1="182.25" x2="297.25" y1="108.5703" y2="108.5703"/><text fill="#000000" font-family="sans-serif" font-size="13" lengthAdjust="spacing" textLength="97" x="189.25" y="103.7139">Search Products</text><path d="M240.25,123.5703 L389.25,123.5703 L389.25,131.9219 L379.25,141.9219 L240.25,141.9219 L240.25,123.5703 " fill="#EEEEEE" style="stroke:#000000;stroke-width:1.5;"/><rect fill="none" height="187.1094" style="stroke:#000000;stroke-width:1.5;" width="437" x="240.25" y="123.5703"/><text fill="#000000" font-family="sans-serif" font-size="13" font-weight="bold" lengthAdjust="spacing" textLength="104" x="255.25" y="138.0654">Search Products</text><polygon fill="#181818" points="412.25,160.2734,422.25,164.2734,412.25,168.2734,416.25,164.2734" style="stroke:#181818;stroke-width:1.0;"/><line style="stroke:#181818;stroke-width:1.0;" x1="303.25" x2="418.25" y1="164.2734" y2="164.2734"/><text fill="#000000" font-family="sans-serif" font-size="13" lengthAdjust="spacing" textLength="97" x="310.25" y="159.417">Search Products</text><path d="M365.25,179.2734 L514.25,179.2734 L514.25,187.625 L504.25,197.625 L365.25,197.625 L365.25,179.2734 " fill="#EEEEEE" style="stroke:#000000;stroke-width:1.5;"/><rect fill="none" height="124.4063" style="stroke:#000000;stroke-width:1.5;" width="302" x="365.25" y="179.2734"/><text fill="#000000" font-family="sans-serif" font-size="13" font-weight="bold" lengthAdjust="spacing" textLength="104" x="380.25" y="193.7686">Search Products</text><polygon fill="#181818" points="533.25,215.9766,543.25,219.9766,533.25,223.9766,537.25,219.9766" style="stroke:#181818;stroke-width:1.0;"/><line style="stroke:#181818;stroke-width:1.0;" x1="424.25" x2="539.25" y1="219.9766" y2="219.9766"/><text fill="#000000" font-family="sans-serif" font-size="13" lengthAdjust="spacing" textLength="97" x="431.25" y="215.1201">Search Products</text><path d="M480.25,234.9766 L629.25,234.9766 L629.25,243.3281 L619.25,253.3281 L480.25,253.3281 L480.25,234.9766 " fill="#EEEEEE" style="stroke:#000000;stroke-width:1.5;"/><rect fill="none" height="61.7031" style="stroke:#000000;stroke-width:1.5;" width="177" x="480.25" y="234.9766"/><text fill="#000000" font-family="sans-serif" font-size="13" font-weight="bold" lengthAdjust="spacing" textLength="104" x="495.25" y="249.4717">Search Products</text><line style="stroke:#181818;stroke-width:1.0;" x1="545.25" x2="587.25" y1="275.6797" y2="275.6797"/><line style="stroke:#181818;stroke-width:1.0;" x1="587.25" x2="587.25" y1="275.6797" y2="288.6797"/><line style="stroke:#181818;stroke-width:1.0;" x1="546.25" x2="587.25" y1="288.6797" y2="288.6797"/><polygon fill="#181818" points="556.25,284.6797,546.25,288.6797,556.25,292.6797,552.25,288.6797" style="stroke:#181818;stroke-width:1.0;"/><text fill="#000000" font-family="sans-serif" font-size="13" lengthAdjust="spacing" textLength="93" x="552.25" y="270.8232">Select Products</text><!--SRC=[lPB1ReCm44Jl_efLxd3ggOTAIKghtYBn1POPMYHZasK9oT_7WL94K2KYqHvyyDexRsPjASI24jhxiWGRqC5goJsN5D4x75WBw1MbTbcefE8PENidqyssgcu5Q3PVT62VDKRghd9iu89g501ES1QoEC4gLMcMmXIL3jsRv2nWf-s6T4txfuzmaz-iR-FKvz9gHdgf1MKT3nVx_LHaQgUJIePKGwXuYDGdYiUU6Mey2cg_adPvlY8fgDsH-eccu5DXi93KzMnTjcFVrfZZklDlIQMMZvkYb_KcIi_ttqLzic-gMNKzuchsmpFzi_qRSP7zHzv-nGmFOVycY8MHqJ9SzhFK5G00]--></g></svg>