<?xml version="1.0" encoding="us-ascii" standalone="no"?><svg xmlns="http://www.w3.org/2000/svg" xmlns:xlink="http://www.w3.org/1999/xlink" contentStyleType="text/css" height="314px" preserveAspectRatio="none" style="width:688px;height:314px;background:#FFFFFF;" version="1.1" viewBox="0 0 688 314" width="688px" zoomAndPan="magnify"><defs/><g><text fill="#000000" font-family="sans-serif" font-size="14" font-weight="bold" lengthAdjust="spacing" textLength="660" x="10" y="29.5332">TraderXExample - TraderX - Web GUI - Type Ahead People Search - Sequence - Container level</text><rect fill="#FFFFFF" height="264.3281" style="stroke:#181818;stroke-width:0.5;" width="217.5" x="242.25" y="44.6094"/><text fill="#000000" font-family="sans-serif" font-size="13" font-weight="bold" lengthAdjust="spacing" textLength="51" x="325.5" y="58.1045">TraderX</text><rect fill="none" height="111.4063" style="stroke:#000000;stroke-width:1.5;" width="373" x="236.25" y="144.9219"/><rect fill="none" height="48.7031" style="stroke:#000000;stroke-width:1.5;" width="262.5" x="336.75" y="200.625"/><line style="stroke:#181818;stroke-width:0.5;stroke-dasharray:5.0,5.0;" x1="98.75" x2="98.75" y1="97.5703" y2="273.3281"/><line style="stroke:#181818;stroke-width:0.5;stroke-dasharray:5.0,5.0;" x1="281.25" x2="281.25" y1="97.5703" y2="273.3281"/><line style="stroke:#181818;stroke-width:0.5;stroke-dasharray:5.0,5.0;" x1="400.75" x2="400.75" y1="97.5703" y2="273.3281"/><line style="stroke:#181818;stroke-width:0.5;stroke-dasharray:5.0,5.0;" x1="537.25" x2="537.25" y1="97.5703" y2="273.3281"/><rect fill="#E2E2F0" height="31.6094" rx="2.5" ry="2.5" style="stroke:#181818;stroke-width:0.5;" width="65" x="66.75" y="64.9609"/><text fill="#000000" font-family="sans-serif" font-size="14" lengthAdjust="spacing" textLength="51" x="73.75" y="86.4941">External</text><rect fill="#E2E2F0" height="31.6094" rx="2.5" ry="2.5" style="stroke:#181818;stroke-width:0.5;" width="65" x="66.75" y="272.3281"/><text fill="#000000" font-family="sans-serif" font-size="14" lengthAdjust="spacing" textLength="51" x="73.75" y="293.8613">External</text><rect fill="#E2E2F0" height="31.6094" rx="2.5" ry="2.5" style="stroke:#181818;stroke-width:0.5;" width="70" x="246.25" y="64.9609"/><text fill="#000000" font-family="sans-serif" font-size="14" lengthAdjust="spacing" textLength="56" x="253.25" y="86.4941">Web GUI</text><rect fill="#E2E2F0" height="31.6094" rx="2.5" ry="2.5" style="stroke:#181818;stroke-width:0.5;" width="70" x="246.25" y="272.3281"/><text fill="#000000" font-family="sans-serif" font-size="14" lengthAdjust="spacing" textLength="56" x="253.25" y="293.8613">Web GUI</text><rect fill="#E2E2F0" height="31.6094" rx="2.5" ry="2.5" style="stroke:#181818;stroke-width:0.5;" width="109" x="346.75" y="64.9609"/><text fill="#000000" font-family="sans-serif" font-size="14" lengthAdjust="spacing" textLength="95" x="353.75" y="86.4941">People Service</text><rect fill="#E2E2F0" height="31.6094" rx="2.5" ry="2.5" style="stroke:#181818;stroke-width:0.5;" width="109" x="346.75" y="272.3281"/><text fill="#000000" font-family="sans-serif" font-size="14" lengthAdjust="spacing" textLength="95" x="353.75" y="293.8613">People Service</text><rect fill="#E2E2F0" height="31.6094" rx="2.5" ry="2.5" style="stroke:#181818;stroke-width:0.5;" width="104" x="485.25" y="64.9609"/><text fill="#000000" font-family="sans-serif" font-size="14" lengthAdjust="spacing" textLength="90" x="492.25" y="86.4941">User Directory</text><rect fill="#E2E2F0" height="31.6094" rx="2.5" ry="2.5" style="stroke:#181818;stroke-width:0.5;" width="104" x="485.25" y="272.3281"/><text fill="#000000" font-family="sans-serif" font-size="14" lengthAdjust="spacing" textLength="90" x="492.25" y="293.8613">User Directory</text><polygon fill="#181818" points="269.25,125.9219,279.25,129.9219,269.25,133.9219,273.25,129.9219" style="stroke:#181818;stroke-width:1.0;"/><line style="stroke:#181818;stroke-width:1.0;" x1="99.25" x2="275.25" y1="129.9219" y2="129.9219"/><text fill="#000000" font-family="sans-serif" font-size="13" lengthAdjust="spacing" textLength="158" x="106.25" y="125.0654">Type Ahead People Search</text><path d="M236.25,144.9219 L455.25,144.9219 L455.25,153.2734 L445.25,163.2734 L236.25,163.2734 L236.25,144.9219 " fill="#EEEEEE" style="stroke:#000000;stroke-width:1.5;"/><rect fill="none" height="111.4063" style="stroke:#000000;stroke-width:1.5;" width="373" x="236.25" y="144.9219"/><text fill="#000000" font-family="sans-serif" font-size="13" font-weight="bold" lengthAdjust="spacing" textLength="174" x="251.25" y="159.417">Type Ahead People Search</text><polygon fill="#181818" points="389.25,181.625,399.25,185.625,389.25,189.625,393.25,185.625" style="stroke:#181818;stroke-width:1.0;"/><line style="stroke:#181818;stroke-width:1.0;" x1="281.25" x2="395.25" y1="185.625" y2="185.625"/><text fill="#000000" font-family="sans-serif" font-size="13" lengthAdjust="spacing" textLength="96" x="288.25" y="180.7686">Get People Data</text><path d="M336.75,200.625 L485.75,200.625 L485.75,208.9766 L475.75,218.9766 L336.75,218.9766 L336.75,200.625 " fill="#EEEEEE" style="stroke:#000000;stroke-width:1.5;"/><rect fill="none" height="48.7031" style="stroke:#000000;stroke-width:1.5;" width="262.5" x="336.75" y="200.625"/><text fill="#000000" font-family="sans-serif" font-size="13" font-weight="bold" lengthAdjust="spacing" textLength="104" x="351.75" y="215.1201">Get People Data</text><polygon fill="#181818" points="525.25,237.3281,535.25,241.3281,525.25,245.3281,529.25,241.3281" style="stroke:#181818;stroke-width:1.0;"/><line style="stroke:#181818;stroke-width:1.0;" x1="401.25" x2="531.25" y1="241.3281" y2="241.3281"/><text fill="#000000" font-family="sans-serif" font-size="13" lengthAdjust="spacing" textLength="112" x="408.25" y="236.4717">Select People Data</text><!--SRC=[fLB1Ri8m3BtdAxpkJ4-STfWq0KFS9dM8NKthqKXfagKkj7y_5zfA1Q6XBbAasCvxVdx9amzuA10CDgvYA0jYjAWKQpO4dm4p2b-h6WiluQnFo6b7UrXlDsskyGHlEM467-JQUmbXI7Cf9VHJaKrRvC9PHcqfWA4Z6QKy1jQfzcWPebND52oQ2B24nNnZ9NmtxXGdxfjF62XfIgQYZFkBbrYflQiXwbH5yBpBDPC2MIFwJkoPVJpJJOEk70zworZG0hvb7QODHvtIHF8BISUXo6OW8rsviot5jgKEbB8BpIEDMiG0KEfnHs7sEjaXUBdx5zGXkChVBqzkEKdko7DHlIRkzIoHiHDxdVrldx-bZbvDT2Lav3mI8H_alDKl]--></g></svg>