<?xml version="1.0" encoding="us-ascii" standalone="no"?><svg xmlns="http://www.w3.org/2000/svg" xmlns:xlink="http://www.w3.org/1999/xlink" contentStyleType="text/css" height="414px" preserveAspectRatio="none" style="width:794px;height:414px;background:#FFFFFF;" version="1.1" viewBox="0 0 794 414" width="794px" zoomAndPan="magnify"><defs/><g><text fill="#000000" font-family="sans-serif" font-size="14" font-weight="bold" lengthAdjust="spacing" textLength="766" x="10" y="29.5332">dotnet - eShop - Architecture - Catalog Api - Api - Catalog Api - Get Items By Ids - Sequence - Component level</text><rect fill="#FFFFFF" height="364.0313" style="stroke:#181818;stroke-width:0.5;" width="95" x="293" y="44.6094"/><text fill="#000000" font-family="sans-serif" font-size="13" font-weight="bold" lengthAdjust="spacing" textLength="21" x="330" y="58.1045">Api</text><rect fill="#FFFFFF" height="364.0313" style="stroke:#181818;stroke-width:0.5;" width="123" x="467" y="44.6094"/><text fill="#000000" font-family="sans-serif" font-size="13" font-weight="bold" lengthAdjust="spacing" textLength="84" x="486.5" y="58.1045">Infrastructure</text><rect fill="none" height="211.1094" style="stroke:#000000;stroke-width:1.5;" width="319" x="277" y="144.9219"/><rect fill="none" height="61.7031" style="stroke:#000000;stroke-width:1.5;" width="202" x="287" y="243.9766"/><line style="stroke:#181818;stroke-width:0.5;stroke-dasharray:5.0,5.0;" x1="218" x2="218" y1="97.5703" y2="373.0313"/><line style="stroke:#181818;stroke-width:0.5;stroke-dasharray:5.0,5.0;" x1="340" x2="340" y1="97.5703" y2="373.0313"/><line style="stroke:#181818;stroke-width:0.5;stroke-dasharray:5.0,5.0;" x1="528" x2="528" y1="97.5703" y2="373.0313"/><rect fill="#E2E2F0" height="31.6094" rx="2.5" ry="2.5" style="stroke:#181818;stroke-width:0.5;" width="65" x="186" y="64.9609"/><text fill="#000000" font-family="sans-serif" font-size="14" lengthAdjust="spacing" textLength="51" x="193" y="86.4941">External</text><rect fill="#E2E2F0" height="31.6094" rx="2.5" ry="2.5" style="stroke:#181818;stroke-width:0.5;" width="65" x="186" y="372.0313"/><text fill="#000000" font-family="sans-serif" font-size="14" lengthAdjust="spacing" textLength="51" x="193" y="393.5645">External</text><rect fill="#E2E2F0" height="31.6094" rx="2.5" ry="2.5" style="stroke:#181818;stroke-width:0.5;" width="87" x="297" y="64.9609"/><text fill="#000000" font-family="sans-serif" font-size="14" lengthAdjust="spacing" textLength="73" x="304" y="86.4941">Catalog Api</text><rect fill="#E2E2F0" height="31.6094" rx="2.5" ry="2.5" style="stroke:#181818;stroke-width:0.5;" width="87" x="297" y="372.0313"/><text fill="#000000" font-family="sans-serif" font-size="14" lengthAdjust="spacing" textLength="73" x="304" y="393.5645">Catalog Api</text><rect fill="#E2E2F0" height="31.6094" rx="2.5" ry="2.5" style="stroke:#181818;stroke-width:0.5;" width="115" x="471" y="64.9609"/><text fill="#000000" font-family="sans-serif" font-size="14" lengthAdjust="spacing" textLength="101" x="478" y="86.4941">Catalog Context</text><rect fill="#E2E2F0" height="31.6094" rx="2.5" ry="2.5" style="stroke:#181818;stroke-width:0.5;" width="115" x="471" y="372.0313"/><text fill="#000000" font-family="sans-serif" font-size="14" lengthAdjust="spacing" textLength="101" x="478" y="393.5645">Catalog Context</text><polygon fill="#181818" points="328.5,125.9219,338.5,129.9219,328.5,133.9219,332.5,129.9219" style="stroke:#181818;stroke-width:1.0;"/><line style="stroke:#181818;stroke-width:1.0;" x1="218.5" x2="334.5" y1="129.9219" y2="129.9219"/><text fill="#000000" font-family="sans-serif" font-size="13" lengthAdjust="spacing" textLength="98" x="225.5" y="125.0654">Get Items By Ids</text><path d="M277,144.9219 L424,144.9219 L424,153.2734 L414,163.2734 L277,163.2734 L277,144.9219 " fill="#EEEEEE" style="stroke:#000000;stroke-width:1.5;"/><rect fill="none" height="211.1094" style="stroke:#000000;stroke-width:1.5;" width="319" x="277" y="144.9219"/><text fill="#000000" font-family="sans-serif" font-size="13" font-weight="bold" lengthAdjust="spacing" textLength="102" x="292" y="159.417">Get Items By Ids</text><polygon fill="#181818" points="516.5,181.625,526.5,185.625,516.5,189.625,520.5,185.625" style="stroke:#181818;stroke-width:1.0;"/><line style="stroke:#181818;stroke-width:1.0;" x1="340.5" x2="522.5" y1="185.625" y2="185.625"/><text fill="#000000" font-family="sans-serif" font-size="13" lengthAdjust="spacing" textLength="164" x="347.5" y="180.7686">Catalog Items To List Async</text><line style="stroke:#181818;stroke-width:1.0;" x1="340.5" x2="382.5" y1="215.9766" y2="215.9766"/><line style="stroke:#181818;stroke-width:1.0;" x1="382.5" x2="382.5" y1="215.9766" y2="228.9766"/><line style="stroke:#181818;stroke-width:1.0;" x1="341.5" x2="382.5" y1="228.9766" y2="228.9766"/><polygon fill="#181818" points="351.5,224.9766,341.5,228.9766,351.5,232.9766,347.5,228.9766" style="stroke:#181818;stroke-width:1.0;"/><text fill="#000000" font-family="sans-serif" font-size="13" lengthAdjust="spacing" textLength="136" x="347.5" y="211.1201">Change Uri Placeholder</text><path d="M287,243.9766 L484,243.9766 L484,252.3281 L474,262.3281 L287,262.3281 L287,243.9766 " fill="#EEEEEE" style="stroke:#000000;stroke-width:1.5;"/><rect fill="none" height="61.7031" style="stroke:#000000;stroke-width:1.5;" width="202" x="287" y="243.9766"/><text fill="#000000" font-family="sans-serif" font-size="13" font-weight="bold" lengthAdjust="spacing" textLength="152" x="302" y="258.4717">Change Uri Placeholder</text><line style="stroke:#181818;stroke-width:1.0;" x1="340.5" x2="382.5" y1="284.6797" y2="284.6797"/><line style="stroke:#181818;stroke-width:1.0;" x1="382.5" x2="382.5" y1="284.6797" y2="297.6797"/><line style="stroke:#181818;stroke-width:1.0;" x1="341.5" x2="382.5" y1="297.6797" y2="297.6797"/><polygon fill="#181818" points="351.5,293.6797,341.5,297.6797,351.5,301.6797,347.5,297.6797" style="stroke:#181818;stroke-width:1.0;"/><text fill="#000000" font-family="sans-serif" font-size="13" lengthAdjust="spacing" textLength="82" x="347.5" y="279.8232">Return (items)</text><line style="stroke:#181818;stroke-width:1.0;" x1="340.5" x2="382.5" y1="335.0313" y2="335.0313"/><line style="stroke:#181818;stroke-width:1.0;" x1="382.5" x2="382.5" y1="335.0313" y2="348.0313"/><line style="stroke:#181818;stroke-width:1.0;" x1="341.5" x2="382.5" y1="348.0313" y2="348.0313"/><polygon fill="#181818" points="351.5,344.0313,341.5,348.0313,351.5,352.0313,347.5,348.0313" style="stroke:#181818;stroke-width:1.0;"/><text fill="#000000" font-family="sans-serif" font-size="13" lengthAdjust="spacing" textLength="150" x="347.5" y="330.1748">Return (TypedResults.Ok)</text><!--SRC=[rLCzJyCm4DtzAuwomD1CJ0n89G8K2GdK534VoJMnSEnWNsZpxt4-W8JoqQ6LQ8OaT-VdzzwTVLHQp0e4XRMf65n1Z1g5OCcA83MiYM4A5EUczD-PJNB9b71boOSXCYgJmQoKJR5zZtCt7Xun5GukQuXIvrCnlLIaanPlYj9eqWoANaa9KQ9bcSWIVMfojMQo6jK4q45u5caVNYkp2cApv1LQYclNR1syB-nY8PxC6YO37HCuVcna2_1FL_sQ7H6Fe9wxQqFGDY4Ojc13IO_qm20qcb5giYxemjxgS94WdOBN8mRA8hsqwDXMBSFV8XiUMlDEX8wvlz7Sattg_lWHsmy8fXVxQocSRvmvaLbJbPlf_MdOWS5jH-7zlf-4pjp2mArq33DNw-H_U_njY66EEYDui1Bk5IQK6vMIxKVvG_5WpSx9RwJXH3Ruq-PI7RwNHLrIEYTNAR_Yxhbp9Tu0]--></g></svg>