<?xml version="1.0" encoding="us-ascii" standalone="no"?><svg xmlns="http://www.w3.org/2000/svg" xmlns:xlink="http://www.w3.org/1999/xlink" contentStyleType="text/css" height="400px" preserveAspectRatio="none" style="width:706px;height:400px;background:#FFFFFF;" version="1.1" viewBox="0 0 706 400" width="706px" zoomAndPan="magnify"><defs/><g><text fill="#000000" font-family="sans-serif" font-size="14" font-weight="bold" lengthAdjust="spacing" textLength="678" x="10" y="29.5332">Big Bank Plc - Internet Banking - API Application - Change Password - Sequence - Container level</text><rect fill="#FFFFFF" height="343.0313" style="stroke:#181818;stroke-width:0.5;" width="252.5" x="199.5" y="44.6094"/><text fill="#000000" font-family="sans-serif" font-size="13" font-weight="bold" lengthAdjust="spacing" textLength="105" x="273.25" y="58.1045">Internet Banking</text><rect fill="none" height="111.7578" style="stroke:#000000;stroke-width:1.5;" width="404.5" x="193.5" y="192.2734"/><line style="stroke:#181818;stroke-width:0.5;stroke-dasharray:5.0,5.0;" x1="128" x2="128" y1="128.5703" y2="321.0313"/><line style="stroke:#181818;stroke-width:0.5;stroke-dasharray:5.0,5.0;" x1="257.5" x2="257.5" y1="128.5703" y2="321.0313"/><line style="stroke:#181818;stroke-width:0.5;stroke-dasharray:5.0,5.0;" x1="414" x2="414" y1="128.5703" y2="321.0313"/><line style="stroke:#181818;stroke-width:0.5;stroke-dasharray:5.0,5.0;" x1="536" x2="536" y1="128.5703" y2="321.0313"/><rect fill="#E2E2F0" height="31.6094" rx="2.5" ry="2.5" style="stroke:#181818;stroke-width:0.5;" width="65" x="96" y="95.9609"/><text fill="#000000" font-family="sans-serif" font-size="14" lengthAdjust="spacing" textLength="51" x="103" y="117.4941">External</text><rect fill="#E2E2F0" height="31.6094" rx="2.5" ry="2.5" style="stroke:#181818;stroke-width:0.5;" width="65" x="96" y="320.0313"/><text fill="#000000" font-family="sans-serif" font-size="14" lengthAdjust="spacing" textLength="51" x="103" y="341.5645">External</text><rect fill="#E2E2F0" height="31.6094" rx="2.5" ry="2.5" style="stroke:#181818;stroke-width:0.5;" width="108" x="203.5" y="95.9609"/><text fill="#000000" font-family="sans-serif" font-size="14" lengthAdjust="spacing" textLength="94" x="210.5" y="117.4941">API Application</text><rect fill="#E2E2F0" height="31.6094" rx="2.5" ry="2.5" style="stroke:#181818;stroke-width:0.5;" width="108" x="203.5" y="320.0313"/><text fill="#000000" font-family="sans-serif" font-size="14" lengthAdjust="spacing" textLength="94" x="210.5" y="341.5645">API Application</text><text fill="#000000" font-family="sans-serif" font-size="14" lengthAdjust="spacing" textLength="61" x="381" y="125.4941">Database</text><path d="M396.5,74.9609 C396.5,64.9609 414.5,64.9609 414.5,64.9609 C414.5,64.9609 432.5,64.9609 432.5,74.9609 L432.5,100.9609 C432.5,110.9609 414.5,110.9609 414.5,110.9609 C414.5,110.9609 396.5,110.9609 396.5,100.9609 L396.5,74.9609 " fill="#E2E2F0" style="stroke:#181818;stroke-width:1.5;"/><path d="M396.5,74.9609 C396.5,84.9609 414.5,84.9609 414.5,84.9609 C414.5,84.9609 432.5,84.9609 432.5,74.9609 " fill="none" style="stroke:#181818;stroke-width:1.5;"/><text fill="#000000" font-family="sans-serif" font-size="14" lengthAdjust="spacing" textLength="61" x="381" y="334.5645">Database</text><path d="M396.5,347.6406 C396.5,337.6406 414.5,337.6406 414.5,337.6406 C414.5,337.6406 432.5,337.6406 432.5,347.6406 L432.5,373.6406 C432.5,383.6406 414.5,383.6406 414.5,383.6406 C414.5,383.6406 396.5,383.6406 396.5,373.6406 L396.5,347.6406 " fill="#E2E2F0" style="stroke:#181818;stroke-width:1.5;"/><path d="M396.5,347.6406 C396.5,357.6406 414.5,357.6406 414.5,357.6406 C414.5,357.6406 432.5,357.6406 432.5,347.6406 " fill="none" style="stroke:#181818;stroke-width:1.5;"/><rect fill="#E2E2F0" height="31.6094" rx="2.5" ry="2.5" style="stroke:#181818;stroke-width:0.5;" width="103" x="485" y="95.9609"/><text fill="#000000" font-family="sans-serif" font-size="14" lengthAdjust="spacing" textLength="89" x="492" y="117.4941">E-Mail System</text><rect fill="#E2E2F0" height="31.6094" rx="2.5" ry="2.5" style="stroke:#181818;stroke-width:0.5;" width="103" x="485" y="320.0313"/><text fill="#000000" font-family="sans-serif" font-size="14" lengthAdjust="spacing" textLength="89" x="492" y="341.5645">E-Mail System</text><polygon fill="#181818" points="245.5,173.2734,255.5,177.2734,245.5,181.2734,249.5,177.2734" style="stroke:#181818;stroke-width:1.0;"/><line style="stroke:#181818;stroke-width:1.0;" x1="128.5" x2="251.5" y1="177.2734" y2="177.2734"/><text fill="#000000" font-family="sans-serif" font-size="13" lengthAdjust="spacing" textLength="105" x="135.5" y="156.0654">Change Password</text><text fill="#000000" font-family="sans-serif" font-size="13" lengthAdjust="spacing" textLength="49" x="135.5" y="172.417">[HTTPS]</text><path d="M193.5,192.2734 L352.5,192.2734 L352.5,200.625 L342.5,210.625 L193.5,210.625 L193.5,192.2734 " fill="#EEEEEE" style="stroke:#000000;stroke-width:1.5;"/><rect fill="none" height="111.7578" style="stroke:#000000;stroke-width:1.5;" width="404.5" x="193.5" y="192.2734"/><text fill="#000000" font-family="sans-serif" font-size="13" font-weight="bold" lengthAdjust="spacing" textLength="114" x="208.5" y="206.7686">Change Password</text><polygon fill="#181818" points="402.5,245.3281,412.5,249.3281,402.5,253.3281,406.5,249.3281" style="stroke:#181818;stroke-width:1.0;"/><line style="stroke:#181818;stroke-width:1.0;" x1="257.5" x2="408.5" y1="249.3281" y2="249.3281"/><text fill="#000000" font-family="sans-serif" font-size="13" lengthAdjust="spacing" textLength="133" x="264.5" y="228.1201">Update User Password</text><text fill="#000000" font-family="sans-serif" font-size="13" lengthAdjust="spacing" textLength="83" x="264.5" y="244.4717">[TCP/IP, SQL]</text><polygon fill="#181818" points="524.5,292.0313,534.5,296.0313,524.5,300.0313,528.5,296.0313" style="stroke:#181818;stroke-width:1.0;"/><line style="stroke:#181818;stroke-width:1.0;" x1="257.5" x2="530.5" y1="296.0313" y2="296.0313"/><text fill="#000000" font-family="sans-serif" font-size="13" lengthAdjust="spacing" textLength="255" x="264.5" y="274.8232">Send Password Changed Notification E-Mail</text><text fill="#000000" font-family="sans-serif" font-size="13" lengthAdjust="spacing" textLength="44" x="264.5" y="291.1748">[SMTP]</text><!--SRC=[lLEnJiCm4Dtz5QUmqh0mCI2rfOX851av5GDqk2RNrCBO8NPf-NikILELC82WmfDzjjzxz_mST3048rt02EqpI9F1018RgB8Kcfgs1PU6Ce5XMHgTOT3EScMyGbiGIFH-uwgSAufUrsGpgZUT3QWjLM3eZOmG9LP1Pxf46o2QR6jyD16WX_5vGtTjt2PMRXasM95wzu5UVDmTRDT2BDmMehww24uULZgG01wVU7gY6pfkjRx7ZNvXwu1tkF6-2HypqW5GmvHZm0LwWkXgD_i3VWSXoER0NVOD6qnH6sY1lgEPr6SxntxkBWmkZs8ENFIZyMGVRz9KghaeAhSk-zlYAAo_LjzPpxfd9JygmSnpRW_4fsDvbiXJKFUty_yGU_20B4hLaTZ_ijQx7EvSqCiEheq7ArNJLCxh30dn0G00]--></g></svg>