<?xml version="1.0" encoding="us-ascii" standalone="no"?><svg xmlns="http://www.w3.org/2000/svg" xmlns:xlink="http://www.w3.org/1999/xlink" contentStyleType="text/css" height="351px" preserveAspectRatio="none" style="width:706px;height:351px;background:#FFFFFF;" version="1.1" viewBox="0 0 706 351" width="706px" zoomAndPan="magnify"><defs/><g><text fill="#000000" font-family="sans-serif" font-size="14" font-weight="bold" lengthAdjust="spacing" textLength="678" x="10" y="29.5332">Big Bank Plc - Internet Banking - API Application - Change Password - Sequence - Container level</text><rect fill="#FFFFFF" height="293.9766" style="stroke:#181818;stroke-width:0.5;" width="252.5" x="199.5" y="44.6094"/><text fill="#000000" font-family="sans-serif" font-size="13" font-weight="bold" lengthAdjust="spacing" textLength="105" x="273.25" y="58.1045">Internet Banking</text><rect fill="none" height="79.0547" style="stroke:#000000;stroke-width:1.5;" width="404.5" x="193.5" y="175.9219"/><line style="stroke:#181818;stroke-width:0.5;stroke-dasharray:5.0,5.0;" x1="128" x2="128" y1="128.5703" y2="271.9766"/><line style="stroke:#181818;stroke-width:0.5;stroke-dasharray:5.0,5.0;" x1="257.5" x2="257.5" y1="128.5703" y2="271.9766"/><line style="stroke:#181818;stroke-width:0.5;stroke-dasharray:5.0,5.0;" x1="414" x2="414" y1="128.5703" y2="271.9766"/><line style="stroke:#181818;stroke-width:0.5;stroke-dasharray:5.0,5.0;" x1="536" x2="536" y1="128.5703" y2="271.9766"/><rect fill="#E2E2F0" height="31.6094" rx="2.5" ry="2.5" style="stroke:#181818;stroke-width:0.5;" width="65" x="96" y="95.9609"/><text fill="#000000" font-family="sans-serif" font-size="14" lengthAdjust="spacing" textLength="51" x="103" y="117.4941">External</text><rect fill="#E2E2F0" height="31.6094" rx="2.5" ry="2.5" style="stroke:#181818;stroke-width:0.5;" width="65" x="96" y="270.9766"/><text fill="#000000" font-family="sans-serif" font-size="14" lengthAdjust="spacing" textLength="51" x="103" y="292.5098">External</text><rect fill="#E2E2F0" height="31.6094" rx="2.5" ry="2.5" style="stroke:#181818;stroke-width:0.5;" width="108" x="203.5" y="95.9609"/><text fill="#000000" font-family="sans-serif" font-size="14" lengthAdjust="spacing" textLength="94" x="210.5" y="117.4941">API Application</text><rect fill="#E2E2F0" height="31.6094" rx="2.5" ry="2.5" style="stroke:#181818;stroke-width:0.5;" width="108" x="203.5" y="270.9766"/><text fill="#000000" font-family="sans-serif" font-size="14" lengthAdjust="spacing" textLength="94" x="210.5" y="292.5098">API Application</text><text fill="#000000" font-family="sans-serif" font-size="14" lengthAdjust="spacing" textLength="61" x="381" y="125.4941">Database</text><path d="M396.5,74.9609 C396.5,64.9609 414.5,64.9609 414.5,64.9609 C414.5,64.9609 432.5,64.9609 432.5,74.9609 L432.5,100.9609 C432.5,110.9609 414.5,110.9609 414.5,110.9609 C414.5,110.9609 396.5,110.9609 396.5,100.9609 L396.5,74.9609 " fill="#E2E2F0" style="stroke:#181818;stroke-width:1.5;"/><path d="M396.5,74.9609 C396.5,84.9609 414.5,84.9609 414.5,84.9609 C414.5,84.9609 432.5,84.9609 432.5,74.9609 " fill="none" style="stroke:#181818;stroke-width:1.5;"/><text fill="#000000" font-family="sans-serif" font-size="14" lengthAdjust="spacing" textLength="61" x="381" y="285.5098">Database</text><path d="M396.5,298.5859 C396.5,288.5859 414.5,288.5859 414.5,288.5859 C414.5,288.5859 432.5,288.5859 432.5,298.5859 L432.5,324.5859 C432.5,334.5859 414.5,334.5859 414.5,334.5859 C414.5,334.5859 396.5,334.5859 396.5,324.5859 L396.5,298.5859 " fill="#E2E2F0" style="stroke:#181818;stroke-width:1.5;"/><path d="M396.5,298.5859 C396.5,308.5859 414.5,308.5859 414.5,308.5859 C414.5,308.5859 432.5,308.5859 432.5,298.5859 " fill="none" style="stroke:#181818;stroke-width:1.5;"/><rect fill="#E2E2F0" height="31.6094" rx="2.5" ry="2.5" style="stroke:#181818;stroke-width:0.5;" width="103" x="485" y="95.9609"/><text fill="#000000" font-family="sans-serif" font-size="14" lengthAdjust="spacing" textLength="89" x="492" y="117.4941">E-Mail System</text><rect fill="#E2E2F0" height="31.6094" rx="2.5" ry="2.5" style="stroke:#181818;stroke-width:0.5;" width="103" x="485" y="270.9766"/><text fill="#000000" font-family="sans-serif" font-size="14" lengthAdjust="spacing" textLength="89" x="492" y="292.5098">E-Mail System</text><polygon fill="#181818" points="245.5,156.9219,255.5,160.9219,245.5,164.9219,249.5,160.9219" style="stroke:#181818;stroke-width:1.0;"/><line style="stroke:#181818;stroke-width:1.0;" x1="128.5" x2="251.5" y1="160.9219" y2="160.9219"/><text fill="#000000" font-family="sans-serif" font-size="13" lengthAdjust="spacing" textLength="105" x="135.5" y="156.0654">Change Password</text><path d="M193.5,175.9219 L352.5,175.9219 L352.5,184.2734 L342.5,194.2734 L193.5,194.2734 L193.5,175.9219 " fill="#EEEEEE" style="stroke:#000000;stroke-width:1.5;"/><rect fill="none" height="79.0547" style="stroke:#000000;stroke-width:1.5;" width="404.5" x="193.5" y="175.9219"/><text fill="#000000" font-family="sans-serif" font-size="13" font-weight="bold" lengthAdjust="spacing" textLength="114" x="208.5" y="190.417">Change Password</text><polygon fill="#181818" points="402.5,212.625,412.5,216.625,402.5,220.625,406.5,216.625" style="stroke:#181818;stroke-width:1.0;"/><line style="stroke:#181818;stroke-width:1.0;" x1="257.5" x2="408.5" y1="216.625" y2="216.625"/><text fill="#000000" font-family="sans-serif" font-size="13" lengthAdjust="spacing" textLength="133" x="264.5" y="211.7686">Update User Password</text><polygon fill="#181818" points="524.5,242.9766,534.5,246.9766,524.5,250.9766,528.5,246.9766" style="stroke:#181818;stroke-width:1.0;"/><line style="stroke:#181818;stroke-width:1.0;" x1="257.5" x2="530.5" y1="246.9766" y2="246.9766"/><text fill="#000000" font-family="sans-serif" font-size="13" lengthAdjust="spacing" textLength="255" x="264.5" y="242.1201">Send Password Changed Notification E-Mail</text><!--SRC=[lLEnJiCm4Dtz5QSmDnCJ0r9RYjG152cgcA_9DRKmjeclfFmzvwIkIZg0e6ecv_dothjt5zPi26QwWHdQLoXC1HDOMgRM4lUOjer0qs89K- -Dhf2riuBCjsWRWW93w5nR2rBI-uviHV7IMKPjgGL37sIKyjYohhH7ov0jzf4VJGOOO7xRopqQr-Mbst27BPMVWUajvAbmU5TgxVQGZTrbSFEorKmAvFccCpBToqchyJjfz4mj4HzuysCJ8HUc4w9UgKR6DGQ2xE5m-WT_eb1aQv0knu5Ddb0R68X-abd4sfJOxzE5oVr5me6xyMgefdKxVuPUHEpFfbFYOdVbPPO4go3hUart9uCI5sKS_V5l6iAguTcntYIwOGtYZYZr1G00]--></g></svg>