<?xml version="1.0" encoding="us-ascii" standalone="no"?><svg xmlns="http://www.w3.org/2000/svg" xmlns:xlink="http://www.w3.org/1999/xlink" contentStyleType="text/css" height="258.75px" preserveAspectRatio="none" style="width:407px;height:258px;background:#FFFFFF;" version="1.1" viewBox="0 0 407 258" width="407.5px" zoomAndPan="magnify"><defs/><g><text fill="#000000" font-family="sans-serif" font-size="8.75" font-weight="bold" lengthAdjust="spacing" textLength="323.125" x="43.125" y="18.4583">Internet Banking - Single-Page App - Change Password - CONTAINER level</text><rect fill="#FFFFFF" height="222.9248" style="stroke:#181818;stroke-width:0.3125;" width="242.1875" x="64.0625" y="27.8809"/><text fill="#000000" font-family="sans-serif" font-size="8.125" font-weight="bold" lengthAdjust="spacing" textLength="65.625" x="152.3438" y="36.3153">Internet Banking</text><rect fill="none" height="88.5986" style="stroke:#000000;stroke-width:0.9375;" width="343.4375" x="60.3125" y="109.9512"/><rect fill="none" height="49.4092" style="stroke:#000000;stroke-width:0.9375;" width="252.8125" x="144.6875" y="144.7656"/><line style="stroke:#181818;stroke-width:0.3125;stroke-dasharray:5.0,5.0;" x1="23.125" x2="23.125" y1="80.3564" y2="209.1748"/><line style="stroke:#181818;stroke-width:0.3125;stroke-dasharray:5.0,5.0;" x1="104.0625" x2="104.0625" y1="80.3564" y2="209.1748"/><line style="stroke:#181818;stroke-width:0.3125;stroke-dasharray:5.0,5.0;" x1="184.6875" x2="184.6875" y1="80.3564" y2="209.1748"/><line style="stroke:#181818;stroke-width:0.3125;stroke-dasharray:5.0,5.0;" x1="282.5" x2="282.5" y1="80.3564" y2="209.1748"/><line style="stroke:#181818;stroke-width:0.3125;stroke-dasharray:5.0,5.0;" x1="358.75" x2="358.75" y1="80.3564" y2="209.1748"/><rect fill="#E2E2F0" height="19.7559" rx="1.5625" ry="1.5625" style="stroke:#181818;stroke-width:0.3125;" width="40.625" x="3.125" y="59.9756"/><text fill="#000000" font-family="sans-serif" font-size="8.75" lengthAdjust="spacing" textLength="31.875" x="7.5" y="73.4338">External</text><rect fill="#E2E2F0" height="19.7559" rx="1.5625" ry="1.5625" style="stroke:#181818;stroke-width:0.3125;" width="40.625" x="3.125" y="208.5498"/><text fill="#000000" font-family="sans-serif" font-size="8.75" lengthAdjust="spacing" textLength="31.875" x="7.5" y="222.0081">External</text><rect fill="#E2E2F0" height="19.7559" rx="1.5625" ry="1.5625" style="stroke:#181818;stroke-width:0.3125;" width="75" x="66.5625" y="59.9756"/><text fill="#000000" font-family="sans-serif" font-size="8.75" lengthAdjust="spacing" textLength="66.25" x="70.9375" y="73.4338">Single-Page App</text><rect fill="#E2E2F0" height="19.7559" rx="1.5625" ry="1.5625" style="stroke:#181818;stroke-width:0.3125;" width="75" x="66.5625" y="208.5498"/><text fill="#000000" font-family="sans-serif" font-size="8.75" lengthAdjust="spacing" textLength="66.25" x="70.9375" y="222.0081">Single-Page App</text><rect fill="#E2E2F0" height="19.7559" rx="1.5625" ry="1.5625" style="stroke:#181818;stroke-width:0.3125;" width="67.5" x="150.9375" y="59.9756"/><text fill="#000000" font-family="sans-serif" font-size="8.75" lengthAdjust="spacing" textLength="58.75" x="155.3125" y="73.4338">API Application</text><rect fill="#E2E2F0" height="19.7559" rx="1.5625" ry="1.5625" style="stroke:#181818;stroke-width:0.3125;" width="67.5" x="150.9375" y="208.5498"/><text fill="#000000" font-family="sans-serif" font-size="8.75" lengthAdjust="spacing" textLength="58.75" x="155.3125" y="222.0081">API Application</text><text fill="#000000" font-family="sans-serif" font-size="8.75" lengthAdjust="spacing" textLength="38.125" x="261.875" y="78.4338">Database</text><path d="M271.5625,46.8506 C271.5625,40.6006 282.8125,40.6006 282.8125,40.6006 C282.8125,40.6006 294.0625,40.6006 294.0625,46.8506 L294.0625,63.1006 C294.0625,69.3506 282.8125,69.3506 282.8125,69.3506 C282.8125,69.3506 271.5625,69.3506 271.5625,63.1006 L271.5625,46.8506 " fill="#E2E2F0" style="stroke:#181818;stroke-width:0.9375;"/><path d="M271.5625,46.8506 C271.5625,53.1006 282.8125,53.1006 282.8125,53.1006 C282.8125,53.1006 294.0625,53.1006 294.0625,46.8506 " fill="none" style="stroke:#181818;stroke-width:0.9375;"/><text fill="#000000" font-family="sans-serif" font-size="8.75" lengthAdjust="spacing" textLength="38.125" x="261.875" y="217.6331">Database</text><path d="M271.5625,225.8057 C271.5625,219.5557 282.8125,219.5557 282.8125,219.5557 C282.8125,219.5557 294.0625,219.5557 294.0625,225.8057 L294.0625,242.0557 C294.0625,248.3057 282.8125,248.3057 282.8125,248.3057 C282.8125,248.3057 271.5625,248.3057 271.5625,242.0557 L271.5625,225.8057 " fill="#E2E2F0" style="stroke:#181818;stroke-width:0.9375;"/><path d="M271.5625,225.8057 C271.5625,232.0557 282.8125,232.0557 282.8125,232.0557 C282.8125,232.0557 294.0625,232.0557 294.0625,225.8057 " fill="none" style="stroke:#181818;stroke-width:0.9375;"/><rect fill="#E2E2F0" height="19.7559" rx="1.5625" ry="1.5625" style="stroke:#181818;stroke-width:0.3125;" width="64.375" x="326.875" y="59.9756"/><text fill="#000000" font-family="sans-serif" font-size="8.75" lengthAdjust="spacing" textLength="55.625" x="331.25" y="73.4338">E-Mail System</text><rect fill="#E2E2F0" height="19.7559" rx="1.5625" ry="1.5625" style="stroke:#181818;stroke-width:0.3125;" width="64.375" x="326.875" y="208.5498"/><text fill="#000000" font-family="sans-serif" font-size="8.75" lengthAdjust="spacing" textLength="55.625" x="331.25" y="222.0081">E-Mail System</text><polygon fill="#181818" points="96.5625,98.0762,102.8125,100.5762,96.5625,103.0762,99.0625,100.5762" style="stroke:#181818;stroke-width:0.625;"/><line style="stroke:#181818;stroke-width:0.625;" x1="23.4375" x2="100.3125" y1="100.5762" y2="100.5762"/><text fill="#000000" font-family="sans-serif" font-size="8.125" lengthAdjust="spacing" textLength="65.625" x="27.8125" y="97.5409">Change Password</text><path d="M60.3125,109.9512 L159.6875,109.9512 L159.6875,115.1709 L153.4375,121.4209 L60.3125,121.4209 L60.3125,109.9512 " fill="#EEEEEE" style="stroke:#000000;stroke-width:0.9375;"/><rect fill="none" height="88.5986" style="stroke:#000000;stroke-width:0.9375;" width="343.4375" x="60.3125" y="109.9512"/><text fill="#000000" font-family="sans-serif" font-size="8.125" font-weight="bold" lengthAdjust="spacing" textLength="71.25" x="69.6875" y="119.0106">Change Password</text><polygon fill="#181818" points="177.1875,132.8906,183.4375,135.3906,177.1875,137.8906,179.6875,135.3906" style="stroke:#181818;stroke-width:0.625;"/><line style="stroke:#181818;stroke-width:0.625;" x1="104.0625" x2="180.9375" y1="135.3906" y2="135.3906"/><text fill="#000000" font-family="sans-serif" font-size="8.125" lengthAdjust="spacing" textLength="65.625" x="108.4375" y="132.3553">Change Password</text><path d="M144.6875,144.7656 L244.0625,144.7656 L244.0625,149.9854 L237.8125,156.2354 L144.6875,156.2354 L144.6875,144.7656 " fill="#EEEEEE" style="stroke:#000000;stroke-width:0.9375;"/><rect fill="none" height="49.4092" style="stroke:#000000;stroke-width:0.9375;" width="252.8125" x="144.6875" y="144.7656"/><text fill="#000000" font-family="sans-serif" font-size="8.125" font-weight="bold" lengthAdjust="spacing" textLength="71.25" x="154.0625" y="153.8251">Change Password</text><polygon fill="#181818" points="275.3125,167.7051,281.5625,170.2051,275.3125,172.7051,277.8125,170.2051" style="stroke:#181818;stroke-width:0.625;"/><line style="stroke:#181818;stroke-width:0.625;" x1="184.6875" x2="279.0625" y1="170.2051" y2="170.2051"/><text fill="#000000" font-family="sans-serif" font-size="8.125" lengthAdjust="spacing" textLength="83.125" x="189.0625" y="167.1698">Update User Password</text><polygon fill="#181818" points="351.5625,186.6748,357.8125,189.1748,351.5625,191.6748,354.0625,189.1748" style="stroke:#181818;stroke-width:0.625;"/><line style="stroke:#181818;stroke-width:0.625;" x1="184.6875" x2="355.3125" y1="189.1748" y2="189.1748"/><text fill="#000000" font-family="sans-serif" font-size="8.125" lengthAdjust="spacing" textLength="159.375" x="189.0625" y="186.1395">Send Password Changed Notification E-Mail</text><!--SRC=[lPJ1Jy8m5CRl_IkUyppYmNZmO0A82GTnSHBF3_OOZLtRj0-1_zvsOmR6GGFeacRhozll-zBtfLVMOLaXADoQ5OElY56Zy1zIMtHOGM4btDq8mP8LmLWpEKqC0zIXfOGKyl1Ib6PO4lIj3PNX4dNOPEZzshWYLbucR_tnPFGAYZv92H7OBEVIecP8Hfi8HPK0UXZUrXfFognxkLdm6XtbMyzK-LxRsEo5c9aD95rB2Lo_BoMJWF0Sw7ISrd83MSR_CZK_Kcl1EsvlQ3IZrEHyho55KE0S2_MpSHHGSeuiZJv3A93sGBLIWOmpz0J9u-xh37wB4AGB2CVPdKpwZ5910_f9PXHxsz7yVeoGFbnY2d3VpPqedLdPe-ebj4wsV3ZFF_RS4JlPT1kIO7TgG_m8ffxSlxhRorPmaSUqVbylpM4LC34i5oskIMwCTRt45m00]--></g></svg>