<?xml version="1.0" encoding="us-ascii" standalone="no"?><svg xmlns="http://www.w3.org/2000/svg" xmlns:xlink="http://www.w3.org/1999/xlink" contentStyleType="text/css" height="414px" preserveAspectRatio="none" style="width:551px;height:414px;background:#FFFFFF;" version="1.1" viewBox="0 0 551 414" width="551px" zoomAndPan="magnify"><defs/><g><text fill="#000000" font-family="sans-serif" font-size="14" font-weight="bold" lengthAdjust="spacing" textLength="438" x="58" y="29.5332">TraderX - Web GUI - Cancel Trade - Sequence - Container level</text><rect fill="#FFFFFF" height="356.6797" style="stroke:#181818;stroke-width:0.5;" width="430.5" x="98.5" y="44.6094"/><text fill="#000000" font-family="sans-serif" font-size="13" font-weight="bold" lengthAdjust="spacing" textLength="51" x="288.25" y="58.1045">TraderX</text><rect fill="none" height="141.7578" style="stroke:#000000;stroke-width:1.5;" width="452.5" x="92.5" y="175.9219"/><rect fill="none" height="79.0547" style="stroke:#000000;stroke-width:1.5;" width="362.5" x="172.5" y="231.625"/><line style="stroke:#181818;stroke-width:0.5;stroke-dasharray:5.0,5.0;" x1="37" x2="37" y1="128.5703" y2="334.6797"/><line style="stroke:#181818;stroke-width:0.5;stroke-dasharray:5.0,5.0;" x1="137.5" x2="137.5" y1="128.5703" y2="334.6797"/><line style="stroke:#181818;stroke-width:0.5;stroke-dasharray:5.0,5.0;" x1="242.5" x2="242.5" y1="128.5703" y2="334.6797"/><line style="stroke:#181818;stroke-width:0.5;stroke-dasharray:5.0,5.0;" x1="386" x2="386" y1="128.5703" y2="334.6797"/><line style="stroke:#181818;stroke-width:0.5;stroke-dasharray:5.0,5.0;" x1="480" x2="480" y1="128.5703" y2="334.6797"/><rect fill="#E2E2F0" height="31.6094" rx="2.5" ry="2.5" style="stroke:#181818;stroke-width:0.5;" width="65" x="5" y="95.9609"/><text fill="#000000" font-family="sans-serif" font-size="14" lengthAdjust="spacing" textLength="51" x="12" y="117.4941">External</text><rect fill="#E2E2F0" height="31.6094" rx="2.5" ry="2.5" style="stroke:#181818;stroke-width:0.5;" width="65" x="5" y="333.6797"/><text fill="#000000" font-family="sans-serif" font-size="14" lengthAdjust="spacing" textLength="51" x="12" y="355.2129">External</text><rect fill="#E2E2F0" height="31.6094" rx="2.5" ry="2.5" style="stroke:#181818;stroke-width:0.5;" width="70" x="102.5" y="95.9609"/><text fill="#000000" font-family="sans-serif" font-size="14" lengthAdjust="spacing" textLength="56" x="109.5" y="117.4941">Web GUI</text><rect fill="#E2E2F0" height="31.6094" rx="2.5" ry="2.5" style="stroke:#181818;stroke-width:0.5;" width="70" x="102.5" y="333.6797"/><text fill="#000000" font-family="sans-serif" font-size="14" lengthAdjust="spacing" textLength="56" x="109.5" y="355.2129">Web GUI</text><rect fill="#E2E2F0" height="31.6094" rx="2.5" ry="2.5" style="stroke:#181818;stroke-width:0.5;" width="121" x="182.5" y="95.9609"/><text fill="#000000" font-family="sans-serif" font-size="14" lengthAdjust="spacing" textLength="107" x="189.5" y="117.4941">Trading Services</text><rect fill="#E2E2F0" height="31.6094" rx="2.5" ry="2.5" style="stroke:#181818;stroke-width:0.5;" width="121" x="182.5" y="333.6797"/><text fill="#000000" font-family="sans-serif" font-size="14" lengthAdjust="spacing" textLength="107" x="189.5" y="355.2129">Trading Services</text><text fill="#000000" font-family="sans-serif" font-size="14" lengthAdjust="spacing" textLength="74" x="346" y="125.4941">TraderX DB</text><path d="M368,74.9609 C368,64.9609 386,64.9609 386,64.9609 C386,64.9609 404,64.9609 404,74.9609 L404,100.9609 C404,110.9609 386,110.9609 386,110.9609 C386,110.9609 368,110.9609 368,100.9609 L368,74.9609 " fill="#E2E2F0" style="stroke:#181818;stroke-width:1.5;"/><path d="M368,74.9609 C368,84.9609 386,84.9609 386,84.9609 C386,84.9609 404,84.9609 404,74.9609 " fill="none" style="stroke:#181818;stroke-width:1.5;"/><text fill="#000000" font-family="sans-serif" font-size="14" lengthAdjust="spacing" textLength="74" x="346" y="348.2129">TraderX DB</text><path d="M368,361.2891 C368,351.2891 386,351.2891 386,351.2891 C386,351.2891 404,351.2891 404,361.2891 L404,387.2891 C404,397.2891 386,397.2891 386,397.2891 C386,397.2891 368,397.2891 368,387.2891 L368,361.2891 " fill="#E2E2F0" style="stroke:#181818;stroke-width:1.5;"/><path d="M368,361.2891 C368,371.2891 386,371.2891 386,371.2891 C386,371.2891 404,371.2891 404,361.2891 " fill="none" style="stroke:#181818;stroke-width:1.5;"/><rect fill="#E2E2F0" height="31.6094" rx="2.5" ry="2.5" style="stroke:#181818;stroke-width:0.5;" width="89" x="436" y="95.9609"/><text fill="#000000" font-family="sans-serif" font-size="14" lengthAdjust="spacing" textLength="75" x="443" y="117.4941">Trade Feed</text><rect fill="#E2E2F0" height="31.6094" rx="2.5" ry="2.5" style="stroke:#181818;stroke-width:0.5;" width="89" x="436" y="333.6797"/><text fill="#000000" font-family="sans-serif" font-size="14" lengthAdjust="spacing" textLength="75" x="443" y="355.2129">Trade Feed</text><polygon fill="#181818" points="125.5,156.9219,135.5,160.9219,125.5,164.9219,129.5,160.9219" style="stroke:#181818;stroke-width:1.0;"/><line style="stroke:#181818;stroke-width:1.0;" x1="37.5" x2="131.5" y1="160.9219" y2="160.9219"/><text fill="#000000" font-family="sans-serif" font-size="13" lengthAdjust="spacing" textLength="76" x="44.5" y="156.0654">Cancel Trade</text><path d="M92.5,175.9219 L222.5,175.9219 L222.5,184.2734 L212.5,194.2734 L92.5,194.2734 L92.5,175.9219 " fill="#EEEEEE" style="stroke:#000000;stroke-width:1.5;"/><rect fill="none" height="141.7578" style="stroke:#000000;stroke-width:1.5;" width="452.5" x="92.5" y="175.9219"/><text fill="#000000" font-family="sans-serif" font-size="13" font-weight="bold" lengthAdjust="spacing" textLength="85" x="107.5" y="190.417">Cancel Trade</text><polygon fill="#181818" points="231,212.625,241,216.625,231,220.625,235,216.625" style="stroke:#181818;stroke-width:1.0;"/><line style="stroke:#181818;stroke-width:1.0;" x1="137.5" x2="237" y1="216.625" y2="216.625"/><text fill="#000000" font-family="sans-serif" font-size="13" lengthAdjust="spacing" textLength="76" x="144.5" y="211.7686">Cancel Trade</text><path d="M172.5,231.625 L302.5,231.625 L302.5,239.9766 L292.5,249.9766 L172.5,249.9766 L172.5,231.625 " fill="#EEEEEE" style="stroke:#000000;stroke-width:1.5;"/><rect fill="none" height="79.0547" style="stroke:#000000;stroke-width:1.5;" width="362.5" x="172.5" y="231.625"/><text fill="#000000" font-family="sans-serif" font-size="13" font-weight="bold" lengthAdjust="spacing" textLength="85" x="187.5" y="246.1201">Cancel Trade</text><polygon fill="#181818" points="374,268.3281,384,272.3281,374,276.3281,378,272.3281" style="stroke:#181818;stroke-width:1.0;"/><line style="stroke:#181818;stroke-width:1.0;" x1="243" x2="380" y1="272.3281" y2="272.3281"/><text fill="#000000" font-family="sans-serif" font-size="13" lengthAdjust="spacing" textLength="119" x="250" y="267.4717">Update Trade Status</text><polygon fill="#181818" points="468.5,298.6797,478.5,302.6797,468.5,306.6797,472.5,302.6797" style="stroke:#181818;stroke-width:1.0;"/><line style="stroke:#181818;stroke-width:1.0;" x1="243" x2="474.5" y1="302.6797" y2="302.6797"/><text fill="#000000" font-family="sans-serif" font-size="13" lengthAdjust="spacing" textLength="143" x="250" y="297.8232">Send Updates To Trades</text><!--SRC=[lPDDRy8m38Rl_XLUTuRJJZli00p4kKFiQbgFHGf9bxXy_Fiv_K02TbZHj4gLQiT- -oH-yr05sku8BPryBHXtBEG8G8nOnhT09OTt7E6QDxXOBVLhIgvWsovfcFDNpPf9Azu96SS1BU_P0bGKn1Ic8YUOlHw5WoER8KMSFYsTXdFh3-FSVyY10kUdABoBuxwmZG4s_eXPHvBXu_hJ20FgSo7V0JRgNV6DSfy_WyQnjcdNhLmgDMwhsmjxKt0Sgjlrz-tD3qeIsb3aysvmDhb7LrEpoS_8Z7FcyYxHr0ZiIjJp1e3VJmX7ByDF79ylZ0JRuElgCZLSSnZ8rOZ-bkXQV3XQCsM5MbNgc-ugOYuaTVndaEGC1ScJELeQTPTlPMAoJFF2Dm00]--></g></svg>