<?xml version="1.0" encoding="us-ascii" standalone="no"?><svg xmlns="http://www.w3.org/2000/svg" xmlns:xlink="http://www.w3.org/1999/xlink" contentStyleType="text/css" height="431px" preserveAspectRatio="none" style="width:799px;height:431px;background:#FFFFFF;" version="1.1" viewBox="0 0 799 431" width="799px" zoomAndPan="magnify"><defs/><g><text fill="#000000" font-family="sans-serif" font-size="14" font-weight="bold" lengthAdjust="spacing" textLength="771" x="10" y="29.5332">dotnet - eShop - Architecture - Catalog Api - Api - Catalog Api - Delete Item By Id - Sequence - Component level</text><rect fill="#FFFFFF" height="381.3828" style="stroke:#181818;stroke-width:0.5;" width="95" x="286.5" y="44.6094"/><text fill="#000000" font-family="sans-serif" font-size="13" font-weight="bold" lengthAdjust="spacing" textLength="21" x="323.5" y="58.1045">Api</text><rect fill="#FFFFFF" height="381.3828" style="stroke:#181818;stroke-width:0.5;" width="123" x="480.5" y="44.6094"/><text fill="#000000" font-family="sans-serif" font-size="13" font-weight="bold" lengthAdjust="spacing" textLength="84" x="500" y="58.1045">Infrastructure</text><rect fill="none" height="228.4609" style="stroke:#000000;stroke-width:1.5;" width="339" x="270.5" y="144.9219"/><rect fill="none" height="61.7031" style="stroke:#000000;stroke-width:1.5;" width="261.5" x="280.5" y="200.625"/><line style="stroke:#181818;stroke-width:0.5;stroke-dasharray:5.0,5.0;" x1="209.5" x2="209.5" y1="97.5703" y2="390.3828"/><line style="stroke:#181818;stroke-width:0.5;stroke-dasharray:5.0,5.0;" x1="333.5" x2="333.5" y1="97.5703" y2="390.3828"/><line style="stroke:#181818;stroke-width:0.5;stroke-dasharray:5.0,5.0;" x1="541.5" x2="541.5" y1="97.5703" y2="390.3828"/><rect fill="#E2E2F0" height="31.6094" rx="2.5" ry="2.5" style="stroke:#181818;stroke-width:0.5;" width="65" x="177.5" y="64.9609"/><text fill="#000000" font-family="sans-serif" font-size="14" lengthAdjust="spacing" textLength="51" x="184.5" y="86.4941">External</text><rect fill="#E2E2F0" height="31.6094" rx="2.5" ry="2.5" style="stroke:#181818;stroke-width:0.5;" width="65" x="177.5" y="389.3828"/><text fill="#000000" font-family="sans-serif" font-size="14" lengthAdjust="spacing" textLength="51" x="184.5" y="410.916">External</text><rect fill="#E2E2F0" height="31.6094" rx="2.5" ry="2.5" style="stroke:#181818;stroke-width:0.5;" width="87" x="290.5" y="64.9609"/><text fill="#000000" font-family="sans-serif" font-size="14" lengthAdjust="spacing" textLength="73" x="297.5" y="86.4941">Catalog Api</text><rect fill="#E2E2F0" height="31.6094" rx="2.5" ry="2.5" style="stroke:#181818;stroke-width:0.5;" width="87" x="290.5" y="389.3828"/><text fill="#000000" font-family="sans-serif" font-size="14" lengthAdjust="spacing" textLength="73" x="297.5" y="410.916">Catalog Api</text><rect fill="#E2E2F0" height="31.6094" rx="2.5" ry="2.5" style="stroke:#181818;stroke-width:0.5;" width="115" x="484.5" y="64.9609"/><text fill="#000000" font-family="sans-serif" font-size="14" lengthAdjust="spacing" textLength="101" x="491.5" y="86.4941">Catalog Context</text><rect fill="#E2E2F0" height="31.6094" rx="2.5" ry="2.5" style="stroke:#181818;stroke-width:0.5;" width="115" x="484.5" y="389.3828"/><text fill="#000000" font-family="sans-serif" font-size="14" lengthAdjust="spacing" textLength="101" x="491.5" y="410.916">Catalog Context</text><polygon fill="#181818" points="322,125.9219,332,129.9219,322,133.9219,326,129.9219" style="stroke:#181818;stroke-width:1.0;"/><line style="stroke:#181818;stroke-width:1.0;" x1="210" x2="328" y1="129.9219" y2="129.9219"/><text fill="#000000" font-family="sans-serif" font-size="13" lengthAdjust="spacing" textLength="100" x="217" y="125.0654">Delete Item By Id</text><path d="M270.5,144.9219 L424.5,144.9219 L424.5,153.2734 L414.5,163.2734 L270.5,163.2734 L270.5,144.9219 " fill="#EEEEEE" style="stroke:#000000;stroke-width:1.5;"/><rect fill="none" height="228.4609" style="stroke:#000000;stroke-width:1.5;" width="339" x="270.5" y="144.9219"/><text fill="#000000" font-family="sans-serif" font-size="13" font-weight="bold" lengthAdjust="spacing" textLength="109" x="285.5" y="159.417">Delete Item By Id</text><polygon fill="#181818" points="530,181.625,540,185.625,530,189.625,534,185.625" style="stroke:#181818;stroke-width:1.0;"/><line style="stroke:#181818;stroke-width:1.0;" x1="334" x2="536" y1="185.625" y2="185.625"/><text fill="#000000" font-family="sans-serif" font-size="13" lengthAdjust="spacing" textLength="182" x="341" y="180.7686">Catalog Items Single Or Default</text><path d="M280.5,200.625 L341.5,200.625 L341.5,208.9766 L331.5,218.9766 L280.5,218.9766 L280.5,200.625 " fill="#EEEEEE" style="stroke:#000000;stroke-width:1.5;"/><rect fill="none" height="61.7031" style="stroke:#000000;stroke-width:1.5;" width="261.5" x="280.5" y="200.625"/><text fill="#000000" font-family="sans-serif" font-size="13" font-weight="bold" lengthAdjust="spacing" textLength="16" x="295.5" y="215.1201">alt</text><text fill="#000000" font-family="sans-serif" font-size="11" font-weight="bold" lengthAdjust="spacing" textLength="69" x="356.5" y="214.0439">[item is null]</text><line style="stroke:#181818;stroke-width:1.0;" x1="334" x2="376" y1="241.3281" y2="241.3281"/><line style="stroke:#181818;stroke-width:1.0;" x1="376" x2="376" y1="241.3281" y2="254.3281"/><line style="stroke:#181818;stroke-width:1.0;" x1="335" x2="376" y1="254.3281" y2="254.3281"/><polygon fill="#181818" points="345,250.3281,335,254.3281,345,258.3281,341,254.3281" style="stroke:#181818;stroke-width:1.0;"/><text fill="#000000" font-family="sans-serif" font-size="13" lengthAdjust="spacing" textLength="189" x="341" y="236.4717">Return (TypedResults.NotFound)</text><polygon fill="#181818" points="530,287.6797,540,291.6797,530,295.6797,534,291.6797" style="stroke:#181818;stroke-width:1.0;"/><line style="stroke:#181818;stroke-width:1.0;" x1="334" x2="536" y1="291.6797" y2="291.6797"/><text fill="#000000" font-family="sans-serif" font-size="13" lengthAdjust="spacing" textLength="130" x="341" y="286.8232">Catalog Items Remove</text><polygon fill="#181818" points="530,318.0313,540,322.0313,530,326.0313,534,322.0313" style="stroke:#181818;stroke-width:1.0;"/><line style="stroke:#181818;stroke-width:1.0;" x1="334" x2="536" y1="322.0313" y2="322.0313"/><text fill="#000000" font-family="sans-serif" font-size="13" lengthAdjust="spacing" textLength="124" x="341" y="317.1748">Save Changes Async</text><line style="stroke:#181818;stroke-width:1.0;" x1="334" x2="376" y1="352.3828" y2="352.3828"/><line style="stroke:#181818;stroke-width:1.0;" x1="376" x2="376" y1="352.3828" y2="365.3828"/><line style="stroke:#181818;stroke-width:1.0;" x1="335" x2="376" y1="365.3828" y2="365.3828"/><polygon fill="#181818" points="345,361.3828,335,365.3828,345,369.3828,341,365.3828" style="stroke:#181818;stroke-width:1.0;"/><text fill="#000000" font-family="sans-serif" font-size="13" lengthAdjust="spacing" textLength="194" x="341" y="347.5264">Return (TypedResults.NoContent)</text><!--SRC=[tLF1JiCm3BtdAyoum64zSUA0D0QJUW5fHU9iMg-Bb3ebSRVrxqdR3Lg6O8TDGikXgPtOxptRkIWTvWM2mTfM0huWGKQbH8iXoAmm2Oo1agKjmpvnwL8BfL8v2kOK1OtDOLBgvh3z3dqFP4W8Og42xck8i-1BwBqYJji4jYWj4miOMf5HgaGdEjKb1jVeSIFa6Cq8qCFq9kPWpenTHubTo1eT9RKFYNsqkzZPIhtP3OnwH4Pm-ThmLX1MT_hTEm0UX0RihWvHMuMeNuCz9jl841XDBGjg9kUZpjnAxLzIn1a4Fgh7BEQ5Go-kQX7-9jdWq4QEGdI8_GFdBTWNxyyVTNY3O7ntkfB2xVxGgTpPglp1VpeMHv1uQ3E2ujqiDD8y99hpy7gVNL2ymCg8GYEW6zdQ0rV6_6_Xl_LsJY4HmzLBNL8s9n_K-UZ9oinMd5qtutYcJPrJOLTqDk8IN15CbyWvUPZucjEpcybMB4itbEe3]--></g></svg>