<?xml version="1.0" encoding="us-ascii" standalone="no"?><svg xmlns="http://www.w3.org/2000/svg" xmlns:xlink="http://www.w3.org/1999/xlink" contentStyleType="text/css" height="318px" preserveAspectRatio="none" style="width:1071px;height:318px;background:#FFFFFF;" version="1.1" viewBox="0 0 1071 318" width="1071px" zoomAndPan="magnify"><defs/><g><text fill="#000000" font-family="sans-serif" font-size="14" font-weight="bold" lengthAdjust="spacing" textLength="1043" x="10" y="29.5332">ECommercePlatform - CreateProduct - BuyingAndMerchandising - Buying And Merchandising App - Update Product Prices - Sequence - Context level</text><rect fill="none" height="141.7578" style="stroke:#000000;stroke-width:1.5;" width="589" x="271" y="123.5703"/><rect fill="none" height="79.0547" style="stroke:#000000;stroke-width:1.5;" width="358" x="492" y="179.2734"/><line style="stroke:#181818;stroke-width:0.5;stroke-dasharray:5.0,5.0;" x1="231" x2="231" y1="76.2188" y2="282.3281"/><line style="stroke:#181818;stroke-width:0.5;stroke-dasharray:5.0,5.0;" x1="386" x2="386" y1="76.2188" y2="282.3281"/><line style="stroke:#181818;stroke-width:0.5;stroke-dasharray:5.0,5.0;" x1="556" x2="556" y1="76.2188" y2="282.3281"/><line style="stroke:#181818;stroke-width:0.5;stroke-dasharray:5.0,5.0;" x1="784" x2="784" y1="76.2188" y2="282.3281"/><rect fill="#E2E2F0" height="31.6094" rx="2.5" ry="2.5" style="stroke:#181818;stroke-width:0.5;" width="65" x="199" y="43.6094"/><text fill="#000000" font-family="sans-serif" font-size="14" lengthAdjust="spacing" textLength="51" x="206" y="65.1426">External</text><rect fill="#E2E2F0" height="31.6094" rx="2.5" ry="2.5" style="stroke:#181818;stroke-width:0.5;" width="65" x="199" y="281.3281"/><text fill="#000000" font-family="sans-serif" font-size="14" lengthAdjust="spacing" textLength="51" x="206" y="302.8613">External</text><rect fill="#E2E2F0" height="31.6094" rx="2.5" ry="2.5" style="stroke:#181818;stroke-width:0.5;" width="211" x="281" y="43.6094"/><text fill="#000000" font-family="sans-serif" font-size="14" lengthAdjust="spacing" textLength="197" x="288" y="65.1426">Buying And Merchandising App</text><rect fill="#E2E2F0" height="31.6094" rx="2.5" ry="2.5" style="stroke:#181818;stroke-width:0.5;" width="211" x="281" y="281.3281"/><text fill="#000000" font-family="sans-serif" font-size="14" lengthAdjust="spacing" textLength="197" x="288" y="302.8613">Buying And Merchandising App</text><rect fill="#E2E2F0" height="31.6094" rx="2.5" ry="2.5" style="stroke:#181818;stroke-width:0.5;" width="108" x="502" y="43.6094"/><text fill="#000000" font-family="sans-serif" font-size="14" lengthAdjust="spacing" textLength="94" x="509" y="65.1426">Pricing Service</text><rect fill="#E2E2F0" height="31.6094" rx="2.5" ry="2.5" style="stroke:#181818;stroke-width:0.5;" width="108" x="502" y="281.3281"/><text fill="#000000" font-family="sans-serif" font-size="14" lengthAdjust="spacing" textLength="94" x="509" y="302.8613">Pricing Service</text><rect fill="#E2E2F0" height="31.6094" rx="2.5" ry="2.5" style="stroke:#181818;stroke-width:0.5;" width="112" x="728" y="43.6094"/><text fill="#000000" font-family="sans-serif" font-size="14" lengthAdjust="spacing" textLength="98" x="735" y="65.1426">..PricingService</text><rect fill="#E2E2F0" height="31.6094" rx="2.5" ry="2.5" style="stroke:#181818;stroke-width:0.5;" width="112" x="728" y="281.3281"/><text fill="#000000" font-family="sans-serif" font-size="14" lengthAdjust="spacing" textLength="98" x="735" y="302.8613">..PricingService</text><polygon fill="#181818" points="374.5,104.5703,384.5,108.5703,374.5,112.5703,378.5,108.5703" style="stroke:#181818;stroke-width:1.0;"/><line style="stroke:#181818;stroke-width:1.0;" x1="231.5" x2="380.5" y1="108.5703" y2="108.5703"/><text fill="#000000" font-family="sans-serif" font-size="13" lengthAdjust="spacing" textLength="131" x="238.5" y="103.7139">Update Product Prices</text><path d="M271,123.5703 L457,123.5703 L457,131.9219 L447,141.9219 L271,141.9219 L271,123.5703 " fill="#EEEEEE" style="stroke:#000000;stroke-width:1.5;"/><rect fill="none" height="141.7578" style="stroke:#000000;stroke-width:1.5;" width="589" x="271" y="123.5703"/><text fill="#000000" font-family="sans-serif" font-size="13" font-weight="bold" lengthAdjust="spacing" textLength="141" x="286" y="138.0654">Update Product Prices</text><polygon fill="#181818" points="772,160.2734,782,164.2734,772,168.2734,776,164.2734" style="stroke:#181818;stroke-width:1.0;"/><line style="stroke:#181818;stroke-width:1.0;" x1="386.5" x2="778" y1="164.2734" y2="164.2734"/><text fill="#000000" font-family="sans-serif" font-size="13" lengthAdjust="spacing" textLength="131" x="393.5" y="159.417">Update Product Prices</text><path d="M492,179.2734 L678,179.2734 L678,187.625 L668,197.625 L492,197.625 L492,179.2734 " fill="#EEEEEE" style="stroke:#000000;stroke-width:1.5;"/><rect fill="none" height="79.0547" style="stroke:#000000;stroke-width:1.5;" width="358" x="492" y="179.2734"/><text fill="#000000" font-family="sans-serif" font-size="13" font-weight="bold" lengthAdjust="spacing" textLength="141" x="507" y="193.7686">Update Product Prices</text><polygon fill="#181818" points="567,215.9766,557,219.9766,567,223.9766,563,219.9766" style="stroke:#181818;stroke-width:1.0;"/><line style="stroke:#181818;stroke-width:1.0;" x1="561" x2="783" y1="219.9766" y2="219.9766"/><text fill="#000000" font-family="sans-serif" font-size="13" lengthAdjust="spacing" textLength="131" x="573" y="215.1201">Update Product Prices</text><polygon fill="#181818" points="567,246.3281,557,250.3281,567,254.3281,563,250.3281" style="stroke:#181818;stroke-width:1.0;"/><line style="stroke:#181818;stroke-width:1.0;" x1="561" x2="783" y1="250.3281" y2="250.3281"/><text fill="#000000" font-family="sans-serif" font-size="13" lengthAdjust="spacing" textLength="204" x="573" y="245.4717">Send Product Price Changed Event</text><!--SRC=[lLEzQiCm4Dxr54VsUEhKeP0O5pe43AOF8EoBAv0bvNnsahVFsKqAgftY5jB1m_axlZz9RDWYPAbl6gGISwjvxwc1DQI4cZ4dNtKboxpjpiRL6rVjPF53kygqCdy180Z4q2O4WTz39Jnm8yh9bDZA_m8F7ReI1odl64yC5dkqIWLDR4eJj6DOPIT6SjgkGBUGFht99hrQVqmAl-UZ9YpEBMFJ9hV5ppac-SdYI3mf88dY9_FX9nxcrqGajZDqCAWNIBsqiSZ1sDjEErrZWuudqbVEAwLIowk2zSl3yyFp_3rGDVaktC4URag29z-A-vFH2Sc2HdztddTj_OjqWV9m8c58fSWQAyXwOL22Zv-w0000]--></g></svg>