<?xml version="1.0" encoding="us-ascii" standalone="no"?><svg xmlns="http://www.w3.org/2000/svg" xmlns:xlink="http://www.w3.org/1999/xlink" contentStyleType="text/css" height="780px" preserveAspectRatio="none" style="width:805px;height:780px;background:#FFFFFF;" version="1.1" viewBox="0 0 805 780" width="805px" zoomAndPan="magnify"><defs/><g><text fill="#000000" font-family="sans-serif" font-size="14" font-weight="bold" lengthAdjust="spacing" textLength="777" x="10" y="29.5332">DotNetEShop - Catalog Api - Api - Catalog Api - Get Items By Semantic Relevance - Sequence - Component level</text><rect fill="#FFFFFF" height="729.5469" style="stroke:#181818;stroke-width:0.5;" width="95" x="332" y="44.6094"/><text fill="#000000" font-family="sans-serif" font-size="13" font-weight="bold" lengthAdjust="spacing" textLength="21" x="369" y="58.1045">Api</text><rect fill="#FFFFFF" height="729.5469" style="stroke:#181818;stroke-width:0.5;" width="123" x="506" y="44.6094"/><text fill="#000000" font-family="sans-serif" font-size="13" font-weight="bold" lengthAdjust="spacing" textLength="84" x="525.5" y="58.1045">Infrastructure</text><rect fill="none" height="576.625" style="stroke:#000000;stroke-width:1.5;" width="373" x="296" y="144.9219"/><rect fill="none" height="286.8125" style="stroke:#000000;stroke-width:1.5;" width="339" x="306" y="170.2734"/><rect fill="none" height="211.1094" style="stroke:#000000;stroke-width:1.5;" width="319" x="316" y="238.9766"/><rect fill="none" height="61.7031" style="stroke:#000000;stroke-width:1.5;" width="202" x="326" y="338.0313"/><rect fill="none" height="81.0547" style="stroke:#000000;stroke-width:1.5;" width="333" x="326" y="471.0859"/><rect fill="none" height="61.7031" style="stroke:#000000;stroke-width:1.5;" width="202" x="326" y="609.4922"/><line style="stroke:#181818;stroke-width:0.5;stroke-dasharray:5.0,5.0;" x1="156" x2="156" y1="97.5703" y2="738.5469"/><line style="stroke:#181818;stroke-width:0.5;stroke-dasharray:5.0,5.0;" x1="379" x2="379" y1="97.5703" y2="738.5469"/><line style="stroke:#181818;stroke-width:0.5;stroke-dasharray:5.0,5.0;" x1="567" x2="567" y1="97.5703" y2="738.5469"/><rect fill="#E2E2F0" height="31.6094" rx="2.5" ry="2.5" style="stroke:#181818;stroke-width:0.5;" width="65" x="124" y="64.9609"/><text fill="#000000" font-family="sans-serif" font-size="14" lengthAdjust="spacing" textLength="51" x="131" y="86.4941">External</text><rect fill="#E2E2F0" height="31.6094" rx="2.5" ry="2.5" style="stroke:#181818;stroke-width:0.5;" width="65" x="124" y="737.5469"/><text fill="#000000" font-family="sans-serif" font-size="14" lengthAdjust="spacing" textLength="51" x="131" y="759.0801">External</text><rect fill="#E2E2F0" height="31.6094" rx="2.5" ry="2.5" style="stroke:#181818;stroke-width:0.5;" width="87" x="336" y="64.9609"/><text fill="#000000" font-family="sans-serif" font-size="14" lengthAdjust="spacing" textLength="73" x="343" y="86.4941">Catalog Api</text><rect fill="#E2E2F0" height="31.6094" rx="2.5" ry="2.5" style="stroke:#181818;stroke-width:0.5;" width="87" x="336" y="737.5469"/><text fill="#000000" font-family="sans-serif" font-size="14" lengthAdjust="spacing" textLength="73" x="343" y="759.0801">Catalog Api</text><rect fill="#E2E2F0" height="31.6094" rx="2.5" ry="2.5" style="stroke:#181818;stroke-width:0.5;" width="115" x="510" y="64.9609"/><text fill="#000000" font-family="sans-serif" font-size="14" lengthAdjust="spacing" textLength="101" x="517" y="86.4941">Catalog Context</text><rect fill="#E2E2F0" height="31.6094" rx="2.5" ry="2.5" style="stroke:#181818;stroke-width:0.5;" width="115" x="510" y="737.5469"/><text fill="#000000" font-family="sans-serif" font-size="14" lengthAdjust="spacing" textLength="101" x="517" y="759.0801">Catalog Context</text><polygon fill="#181818" points="367.5,125.9219,377.5,129.9219,367.5,133.9219,371.5,129.9219" style="stroke:#181818;stroke-width:1.0;"/><line style="stroke:#181818;stroke-width:1.0;" x1="156.5" x2="373.5" y1="129.9219" y2="129.9219"/><text fill="#000000" font-family="sans-serif" font-size="13" lengthAdjust="spacing" textLength="199" x="163.5" y="125.0654">Get Items By Semantic Relevance</text><path d="M296,144.9219 L556,144.9219 L556,153.2734 L546,163.2734 L296,163.2734 L296,144.9219 " fill="#EEEEEE" style="stroke:#000000;stroke-width:1.5;"/><rect fill="none" height="576.625" style="stroke:#000000;stroke-width:1.5;" width="373" x="296" y="144.9219"/><text fill="#000000" font-family="sans-serif" font-size="13" font-weight="bold" lengthAdjust="spacing" textLength="215" x="311" y="159.417">Get Items By Semantic Relevance</text><path d="M306,170.2734 L367,170.2734 L367,178.625 L357,188.625 L306,188.625 L306,170.2734 " fill="#EEEEEE" style="stroke:#000000;stroke-width:1.5;"/><rect fill="none" height="286.8125" style="stroke:#000000;stroke-width:1.5;" width="339" x="306" y="170.2734"/><text fill="#000000" font-family="sans-serif" font-size="13" font-weight="bold" lengthAdjust="spacing" textLength="16" x="321" y="184.7686">alt</text><text fill="#000000" font-family="sans-serif" font-size="11" font-weight="bold" lengthAdjust="spacing" textLength="170" x="382" y="183.6924">[!services.CatalogAI.IsEnabled]</text><line style="stroke:#181818;stroke-width:1.0;" x1="379.5" x2="421.5" y1="210.9766" y2="210.9766"/><line style="stroke:#181818;stroke-width:1.0;" x1="421.5" x2="421.5" y1="210.9766" y2="223.9766"/><line style="stroke:#181818;stroke-width:1.0;" x1="380.5" x2="421.5" y1="223.9766" y2="223.9766"/><polygon fill="#181818" points="390.5,219.9766,380.5,223.9766,390.5,227.9766,386.5,223.9766" style="stroke:#181818;stroke-width:1.0;"/><text fill="#000000" font-family="sans-serif" font-size="13" lengthAdjust="spacing" textLength="115" x="386.5" y="206.1201">Get Items By Name</text><path d="M316,238.9766 L482,238.9766 L482,247.3281 L472,257.3281 L316,257.3281 L316,238.9766 " fill="#EEEEEE" style="stroke:#000000;stroke-width:1.5;"/><rect fill="none" height="211.1094" style="stroke:#000000;stroke-width:1.5;" width="319" x="316" y="238.9766"/><text fill="#000000" font-family="sans-serif" font-size="13" font-weight="bold" lengthAdjust="spacing" textLength="121" x="331" y="253.4717">Get Items By Name</text><polygon fill="#181818" points="555.5,275.6797,565.5,279.6797,555.5,283.6797,559.5,279.6797" style="stroke:#181818;stroke-width:1.0;"/><line style="stroke:#181818;stroke-width:1.0;" x1="379.5" x2="561.5" y1="279.6797" y2="279.6797"/><text fill="#000000" font-family="sans-serif" font-size="13" lengthAdjust="spacing" textLength="164" x="386.5" y="274.8232">Catalog Items To List Async</text><line style="stroke:#181818;stroke-width:1.0;" x1="379.5" x2="421.5" y1="310.0313" y2="310.0313"/><line style="stroke:#181818;stroke-width:1.0;" x1="421.5" x2="421.5" y1="310.0313" y2="323.0313"/><line style="stroke:#181818;stroke-width:1.0;" x1="380.5" x2="421.5" y1="323.0313" y2="323.0313"/><polygon fill="#181818" points="390.5,319.0313,380.5,323.0313,390.5,327.0313,386.5,323.0313" style="stroke:#181818;stroke-width:1.0;"/><text fill="#000000" font-family="sans-serif" font-size="13" lengthAdjust="spacing" textLength="136" x="386.5" y="305.1748">Change Uri Placeholder</text><path d="M326,338.0313 L523,338.0313 L523,346.3828 L513,356.3828 L326,356.3828 L326,338.0313 " fill="#EEEEEE" style="stroke:#000000;stroke-width:1.5;"/><rect fill="none" height="61.7031" style="stroke:#000000;stroke-width:1.5;" width="202" x="326" y="338.0313"/><text fill="#000000" font-family="sans-serif" font-size="13" font-weight="bold" lengthAdjust="spacing" textLength="152" x="341" y="352.5264">Change Uri Placeholder</text><line style="stroke:#181818;stroke-width:1.0;" x1="379.5" x2="421.5" y1="378.7344" y2="378.7344"/><line style="stroke:#181818;stroke-width:1.0;" x1="421.5" x2="421.5" y1="378.7344" y2="391.7344"/><line style="stroke:#181818;stroke-width:1.0;" x1="380.5" x2="421.5" y1="391.7344" y2="391.7344"/><polygon fill="#181818" points="390.5,387.7344,380.5,391.7344,390.5,395.7344,386.5,391.7344" style="stroke:#181818;stroke-width:1.0;"/><text fill="#000000" font-family="sans-serif" font-size="13" lengthAdjust="spacing" textLength="82" x="386.5" y="373.8779">Return (items)</text><line style="stroke:#181818;stroke-width:1.0;" x1="379.5" x2="421.5" y1="429.0859" y2="429.0859"/><line style="stroke:#181818;stroke-width:1.0;" x1="421.5" x2="421.5" y1="429.0859" y2="442.0859"/><line style="stroke:#181818;stroke-width:1.0;" x1="380.5" x2="421.5" y1="442.0859" y2="442.0859"/><polygon fill="#181818" points="390.5,438.0859,380.5,442.0859,390.5,446.0859,386.5,442.0859" style="stroke:#181818;stroke-width:1.0;"/><text fill="#000000" font-family="sans-serif" font-size="13" lengthAdjust="spacing" textLength="150" x="386.5" y="424.2295">Return (TypedResults.Ok)</text><path d="M326,471.0859 L387,471.0859 L387,479.4375 L377,489.4375 L326,489.4375 L326,471.0859 " fill="#EEEEEE" style="stroke:#000000;stroke-width:1.5;"/><rect fill="none" height="81.0547" style="stroke:#000000;stroke-width:1.5;" width="333" x="326" y="471.0859"/><text fill="#000000" font-family="sans-serif" font-size="13" font-weight="bold" lengthAdjust="spacing" textLength="16" x="341" y="485.5811">alt</text><text fill="#000000" font-family="sans-serif" font-size="11" font-weight="bold" lengthAdjust="spacing" textLength="252" x="402" y="484.5049">[services.Logger.IsEnabled(LogLevel.Debug)]</text><polygon fill="#181818" points="555.5,507.7891,565.5,511.7891,555.5,515.7891,559.5,511.7891" style="stroke:#181818;stroke-width:1.0;"/><line style="stroke:#181818;stroke-width:1.0;" x1="379.5" x2="561.5" y1="511.7891" y2="511.7891"/><text fill="#000000" font-family="sans-serif" font-size="13" lengthAdjust="spacing" textLength="164" x="386.5" y="506.9326">Catalog Items To List Async</text><line style="stroke:#000000;stroke-width:1.0;stroke-dasharray:2.0,2.0;" x1="326" x2="659" y1="520.7891" y2="520.7891"/><polygon fill="#181818" points="555.5,540.1406,565.5,544.1406,555.5,548.1406,559.5,544.1406" style="stroke:#181818;stroke-width:1.0;"/><line style="stroke:#181818;stroke-width:1.0;" x1="379.5" x2="561.5" y1="544.1406" y2="544.1406"/><text fill="#000000" font-family="sans-serif" font-size="13" lengthAdjust="spacing" textLength="164" x="386.5" y="539.2842">Catalog Items To List Async</text><line style="stroke:#181818;stroke-width:1.0;" x1="379.5" x2="421.5" y1="581.4922" y2="581.4922"/><line style="stroke:#181818;stroke-width:1.0;" x1="421.5" x2="421.5" y1="581.4922" y2="594.4922"/><line style="stroke:#181818;stroke-width:1.0;" x1="380.5" x2="421.5" y1="594.4922" y2="594.4922"/><polygon fill="#181818" points="390.5,590.4922,380.5,594.4922,390.5,598.4922,386.5,594.4922" style="stroke:#181818;stroke-width:1.0;"/><text fill="#000000" font-family="sans-serif" font-size="13" lengthAdjust="spacing" textLength="136" x="386.5" y="576.6357">Change Uri Placeholder</text><path d="M326,609.4922 L523,609.4922 L523,617.8438 L513,627.8438 L326,627.8438 L326,609.4922 " fill="#EEEEEE" style="stroke:#000000;stroke-width:1.5;"/><rect fill="none" height="61.7031" style="stroke:#000000;stroke-width:1.5;" width="202" x="326" y="609.4922"/><text fill="#000000" font-family="sans-serif" font-size="13" font-weight="bold" lengthAdjust="spacing" textLength="152" x="341" y="623.9873">Change Uri Placeholder</text><line style="stroke:#181818;stroke-width:1.0;" x1="379.5" x2="421.5" y1="650.1953" y2="650.1953"/><line style="stroke:#181818;stroke-width:1.0;" x1="421.5" x2="421.5" y1="650.1953" y2="663.1953"/><line style="stroke:#181818;stroke-width:1.0;" x1="380.5" x2="421.5" y1="663.1953" y2="663.1953"/><polygon fill="#181818" points="390.5,659.1953,380.5,663.1953,390.5,667.1953,386.5,663.1953" style="stroke:#181818;stroke-width:1.0;"/><text fill="#000000" font-family="sans-serif" font-size="13" lengthAdjust="spacing" textLength="82" x="386.5" y="645.3389">Return (items)</text><line style="stroke:#181818;stroke-width:1.0;" x1="379.5" x2="421.5" y1="700.5469" y2="700.5469"/><line style="stroke:#181818;stroke-width:1.0;" x1="421.5" x2="421.5" y1="700.5469" y2="713.5469"/><line style="stroke:#181818;stroke-width:1.0;" x1="380.5" x2="421.5" y1="713.5469" y2="713.5469"/><polygon fill="#181818" points="390.5,709.5469,380.5,713.5469,390.5,717.5469,386.5,713.5469" style="stroke:#181818;stroke-width:1.0;"/><text fill="#000000" font-family="sans-serif" font-size="13" lengthAdjust="spacing" textLength="150" x="386.5" y="695.6904">Return (TypedResults.Ok)</text><!--SRC=[xLLDJyCm3BtdLvXnsGxhYHC7fD4DL6aQQ1tYdBLU6v4b9N7tyUz9QVTH6Dg4XXWJbLh5palVSsmd94WYT3KDa7fXgZDeWy-9Ivr09nFEAhzrtpqI18HJ2xTB277A5Oa8XYXnnbM43X7YQuxbqDVJJ2jK16uQ9MCPDmukChSA6hq5eL5SDe1RyAy2vSmxgUTUg2SqvmR3fIsOl1Mmj1aRwmKqjcGruF8v5OGCt5FEVlJMY6jB7VVM7dpYhh0EwlbQ4HSAZVLAimfk6yHGnU0Ki2qjWPeORida4UK6zyigU711tvHMPzkXilhzHkbwm0vF0hHlZhbjSBsli5XYT9xjHN59S67Hp4I46uB02snFyR74c1rJzSzkme1FTuRzxl_rC0wjCnVLgh3B24OQ-i8ITEnIHQUT3Z_bAa5uCW8U9OymrJ96K-NaYycJ3cY8BbaAcg9Otoew_s_e7IqpZ8TeS-aG3o-byk8j-dtTxdsT96WslTvqZdvnyNXT7ET9wsoQ1gL5E9zeJhqA_u-1Kpu6s1i0]--></g></svg>