<?xml version="1.0" encoding="us-ascii" standalone="no"?><svg xmlns="http://www.w3.org/2000/svg" xmlns:xlink="http://www.w3.org/1999/xlink" contentStyleType="text/css" height="448px" preserveAspectRatio="none" style="width:376px;height:448px;background:#FFFFFF;" version="1.1" viewBox="0 0 376 448" width="376px" zoomAndPan="magnify"><defs/><g><text fill="#000000" font-family="sans-serif" font-size="14" font-weight="bold" lengthAdjust="spacing" textLength="348" x="10" y="24.5332">Complete (End-To-End) - C4 Static - Context level)</text><!--entity BigBankPlc.Actors.Customer--><g id="elem_BigBankPlc.Actors.Customer"><ellipse cx="252" cy="67.1094" fill="#08427B" rx="16" ry="16" style="stroke:#073B6F;stroke-width:0.5;"/><path d="M252,87.1094 C256,87.1094 259,87.1094 263,83.1094 C271,83.1094 279,91.1094 279,99.1094 L279,103.1094 C279,107.1094 275,111.1094 271,111.1094 L233,111.1094 C229,111.1094 225,107.1094 225,103.1094 L225,99.1094 C225,91.1094 233,83.1094 241,83.1094 C245,87.1094 248,87.1094 252,87.1094 " fill="#08427B" style="stroke:#073B6F;stroke-width:0.5;"/><text fill="#08427B" font-family="sans-serif" font-size="16" font-weight="bold" lengthAdjust="spacing" textLength="75" x="214.5" y="128.2188">Customer</text></g><!--entity BigBankPlc.SoftwareSystems.InternetBanking--><g id="elem_BigBankPlc.SoftwareSystems.InternetBanking"><rect fill="#1168BD" height="40.125" rx="2.5" ry="2.5" style="stroke:#3C7FC0;stroke-width:0.5;" width="146" x="98" y="184.6094"/><text fill="#FFFFFF" font-family="sans-serif" font-size="16" font-weight="bold" lengthAdjust="spacing" textLength="58" x="108" y="211.2188">Internet</text><text fill="#FFFFFF" font-family="sans-serif" font-size="16" font-weight="bold" lengthAdjust="spacing" textLength="4" x="166" y="211.2188">&#160;</text><text fill="#FFFFFF" font-family="sans-serif" font-size="16" font-weight="bold" lengthAdjust="spacing" textLength="64" x="170" y="211.2188">Banking</text></g><!--entity BigBankPlc.SoftwareSystems.MainframeBankingSystem--><g id="elem_BigBankPlc.SoftwareSystems.MainframeBankingSystem"><rect fill="#999999" height="60.25" rx="2.5" ry="2.5" style="stroke:#8A8A8A;stroke-width:0.5;" width="167" x="31.5" y="277.6094"/><text fill="#FFFFFF" font-family="sans-serif" font-size="16" font-weight="bold" lengthAdjust="spacing" textLength="79" x="41.5" y="304.2188">Mainframe</text><text fill="#FFFFFF" font-family="sans-serif" font-size="16" font-weight="bold" lengthAdjust="spacing" textLength="4" x="120.5" y="304.2188">&#160;</text><text fill="#FFFFFF" font-family="sans-serif" font-size="16" font-weight="bold" lengthAdjust="spacing" textLength="64" x="124.5" y="304.2188">Banking</text><text fill="#FFFFFF" font-family="sans-serif" font-size="16" font-weight="bold" lengthAdjust="spacing" textLength="57" x="86.5" y="324.3438">System</text></g><!--entity BigBankPlc.SoftwareSystems.EMailSystem--><g id="elem_BigBankPlc.SoftwareSystems.EMailSystem"><rect fill="#999999" height="40.125" rx="2.5" ry="2.5" style="stroke:#8A8A8A;stroke-width:0.5;" width="127" x="216.5" y="287.6094"/><text fill="#FFFFFF" font-family="sans-serif" font-size="16" font-weight="bold" lengthAdjust="spacing" textLength="46" x="226.5" y="314.2188">E-Mail</text><text fill="#FFFFFF" font-family="sans-serif" font-size="16" font-weight="bold" lengthAdjust="spacing" textLength="4" x="272.5" y="314.2188">&#160;</text><text fill="#FFFFFF" font-family="sans-serif" font-size="16" font-weight="bold" lengthAdjust="spacing" textLength="57" x="276.5" y="314.2188">System</text></g><polygon fill="none" points="184.9374,184.424,192.0664,179.7148,187.2121,176.1884,184.9374,184.424" style="stroke:#666666;stroke-width:1.0;"/><path d="M223.2144,131.7341 C210.2093,149.636 200.143,163.4928 189.6393,177.9516 " fill="none" style="stroke:#666666;stroke-width:1.0;"/><text fill="#666666" font-family="sans-serif" font-size="12" font-weight="bold" lengthAdjust="spacing" textLength="29" x="211" y="163.0664">Uses</text><polygon fill="none" points="130.7585,277.5639,137.2234,271.9778,131.9562,269.1042,130.7585,277.5639" style="stroke:#666666;stroke-width:1.0;"/><path d="M160.0429,224.7806 C156.7916,230.5054 153.2355,236.8024 150,242.6094 C143.6512,254.0041 140.5767,259.567 134.5898,270.541 " fill="none" style="stroke:#666666;stroke-width:1.0;"/><text fill="#666666" font-family="sans-serif" font-size="12" font-weight="bold" lengthAdjust="spacing" textLength="29" x="151" y="256.0664">Uses</text><polygon fill="none" points="259.3187,287.4459,255.4896,279.808,251.4115,284.2091,259.3187,287.4459" style="stroke:#666666;stroke-width:1.0;"/><path d="M191.7586,224.8444 C211.1539,242.8162 234.0803,264.06 253.4506,282.0085 " fill="none" style="stroke:#666666;stroke-width:1.0;"/><text fill="#666666" font-family="sans-serif" font-size="12" font-weight="bold" lengthAdjust="spacing" textLength="29" x="230" y="256.0664">Uses</text><polygon fill="none" points="277.4991,287.4509,279.4384,279.1299,273.4889,279.9065,277.4991,287.4509" style="stroke:#666666;stroke-width:1.0;"/><path d="M257.1683,131.702 C263.2045,177.9438 271.9075,244.6147 276.4636,279.5182 " fill="none" style="stroke:#666666;stroke-width:1.0;"/><text fill="#666666" font-family="sans-serif" font-size="12" font-weight="bold" lengthAdjust="spacing" textLength="29" x="270" y="209.5664">Uses</text><rect fill="none" height="17.6094" style="stroke:none;stroke-width:1.0;" width="136" x="189.5" y="350.6094"/><text fill="#000000" font-family="sans-serif" font-size="14" font-weight="bold" lengthAdjust="spacing" textLength="53" x="189.5" y="365.1426">Legend</text><text fill="#FFFFFF" font-family="sans-serif" font-size="14" lengthAdjust="spacing" textLength="4" x="242.5" y="365.1426">&#160;</text><rect fill="#08427B" height="17.6094" style="stroke:none;stroke-width:1.0;" width="136" x="189.5" y="368.2188"/><text fill="#073B6F" font-family="sans-serif" font-size="14" lengthAdjust="spacing" textLength="14" x="193.5" y="382.752">&#9647;</text><text fill="#FFFFFF" font-family="sans-serif" font-size="14" lengthAdjust="spacing" textLength="4" x="207.5" y="382.752">&#160;</text><text fill="#FFFFFF" font-family="sans-serif" font-size="14" lengthAdjust="spacing" textLength="44" x="215.5" y="382.752">person</text><text fill="#FFFFFF" font-family="sans-serif" font-size="14" lengthAdjust="spacing" textLength="4" x="263.5" y="382.752">&#160;</text><rect fill="#1168BD" height="17.6094" style="stroke:none;stroke-width:1.0;" width="136" x="189.5" y="385.8281"/><text fill="#3C7FC0" font-family="sans-serif" font-size="14" lengthAdjust="spacing" textLength="14" x="193.5" y="400.3613">&#9647;</text><text fill="#FFFFFF" font-family="sans-serif" font-size="14" lengthAdjust="spacing" textLength="4" x="207.5" y="400.3613">&#160;</text><text fill="#FFFFFF" font-family="sans-serif" font-size="14" lengthAdjust="spacing" textLength="44" x="215.5" y="400.3613">system</text><text fill="#FFFFFF" font-family="sans-serif" font-size="14" lengthAdjust="spacing" textLength="4" x="263.5" y="400.3613">&#160;</text><rect fill="#999999" height="17.6094" style="stroke:none;stroke-width:1.0;" width="136" x="189.5" y="403.4375"/><text fill="#8A8A8A" font-family="sans-serif" font-size="14" lengthAdjust="spacing" textLength="14" x="193.5" y="417.9707">&#9647;</text><text fill="#FFFFFF" font-family="sans-serif" font-size="14" lengthAdjust="spacing" textLength="4" x="207.5" y="417.9707">&#160;</text><text fill="#FFFFFF" font-family="sans-serif" font-size="14" lengthAdjust="spacing" textLength="102" x="215.5" y="417.9707">external_system</text><text fill="#FFFFFF" font-family="sans-serif" font-size="14" lengthAdjust="spacing" textLength="4" x="321.5" y="417.9707">&#160;</text><line style="stroke:none;stroke-width:1.0;" x1="189.5" x2="325.5" y1="350.6094" y2="350.6094"/><line style="stroke:none;stroke-width:1.0;" x1="189.5" x2="325.5" y1="368.2188" y2="368.2188"/><line style="stroke:none;stroke-width:1.0;" x1="189.5" x2="325.5" y1="385.8281" y2="385.8281"/><line style="stroke:none;stroke-width:1.0;" x1="189.5" x2="325.5" y1="403.4375" y2="403.4375"/><line style="stroke:none;stroke-width:1.0;" x1="189.5" x2="325.5" y1="421.0469" y2="421.0469"/><line style="stroke:none;stroke-width:1.0;" x1="189.5" x2="189.5" y1="350.6094" y2="421.0469"/><line style="stroke:none;stroke-width:1.0;" x1="325.5" x2="325.5" y1="350.6094" y2="421.0469"/><!--SRC=[hLDTQwD057ttLqpTFYWqFkMfq8VKkcsX6oKQIY4WKxsnqlcGcKdJ_Fkzi-P3Dz9DoehWt8zpphr7lMWKhJWbZ6xaoX3DmL11dOjQ56nL0Wc2XRsBiLw4upoKmi2d2PeLPuupASk80GTXCbfvhZRKmBM0jNj5Bb-hK3AfRYe5831U8hBD_5Z-kMoFL2MeVfz-ewLSrwAwSNzIfi7rXsMADoegABjIKjdK2LhxnbF5573vqHTJK9wWr7ODo5YT6R1ZtwozVKTOBQ2JyO-X7IyEyFsI1toR6Y3ex7SWQ6S_e376kTE7-3bFebaQJ_CadcMpoMFc-SxJv2MUPtaM9_bT_3p5ZAFVQz5GHJcn76RJ06aaszZ0SKnj691GyeQ10U95eXnbSeGFdun8E2Of3bONzjn-SeJ11p2aJK1fARpRkhgbuZrXHJ0fZ5Gw25VQI0xgYhYx8oxaejdfHXlWNKWgbsPD5RGL7JoYXi8XRHtV4y9s6R9DzQZowDDyHVUBrcA9cyCMtEQHOL_OqPAsT1PxX2niJncDRDZdSV3rVkdGMLRCDMWa_OlpdxZl-FF_fVfc3VEVOyyWt_QtU8hke-cTv_y6]--></g></svg>