<?xml version="1.0" encoding="us-ascii" standalone="no"?><svg xmlns="http://www.w3.org/2000/svg" xmlns:xlink="http://www.w3.org/1999/xlink" contentStyleType="text/css" height="806px" preserveAspectRatio="none" style="width:851px;height:806px;background:#FFFFFF;" version="1.1" viewBox="0 0 851 806" width="851px" zoomAndPan="magnify"><defs/><g><text fill="#000000" font-family="sans-serif" font-size="14" font-weight="bold" lengthAdjust="spacing" textLength="300" x="271.5" y="24.5332">Complete (End-To-End) - CONTAINER level)</text><!--cluster BigBankPlc.SoftwareSystems.InternetBanking--><g id="cluster_BigBankPlc.SoftwareSystems.InternetBanking"><rect fill="none" height="503.5" rx="2.5" ry="2.5" style="stroke:#444444;stroke-width:1.0;stroke-dasharray:7.0,7.0;" width="355" x="313.5" y="166.6094"/><text fill="#444444" font-family="sans-serif" font-size="16" font-weight="bold" lengthAdjust="spacing" textLength="126" x="428" y="185.2188">Internet Banking</text><text fill="#444444" font-family="sans-serif" font-size="12" font-weight="bold" lengthAdjust="spacing" textLength="51" x="465.5" y="201.1914">[System]</text></g><!--entity BigBankPlc.Actors.Customer--><g id="elem_BigBankPlc.Actors.Customer"><ellipse cx="225.5" cy="59.1094" fill="#08427B" rx="16" ry="16" style="stroke:#073B6F;stroke-width:0.5;"/><path d="M225.5,79.1094 C229.5,79.1094 232.5,79.1094 236.5,75.1094 C244.5,75.1094 252.5,83.1094 252.5,91.1094 L252.5,95.1094 C252.5,99.1094 248.5,103.1094 244.5,103.1094 L206.5,103.1094 C202.5,103.1094 198.5,99.1094 198.5,95.1094 L198.5,91.1094 C198.5,83.1094 206.5,75.1094 214.5,75.1094 C218.5,79.1094 221.5,79.1094 225.5,79.1094 " fill="#08427B" style="stroke:#073B6F;stroke-width:0.5;"/><text fill="#08427B" font-family="sans-serif" font-size="16" font-weight="bold" lengthAdjust="spacing" textLength="75" x="188" y="120.2188">Customer</text></g><!--entity BigBankPlc.SoftwareSystems.MainframeBankingSystem--><g id="elem_BigBankPlc.SoftwareSystems.MainframeBankingSystem"><rect fill="#999999" height="60.25" rx="2.5" ry="2.5" style="stroke:#8A8A8A;stroke-width:0.5;" width="167" x="677" y="607.6094"/><text fill="#FFFFFF" font-family="sans-serif" font-size="16" font-weight="bold" lengthAdjust="spacing" textLength="79" x="687" y="634.2188">Mainframe</text><text fill="#FFFFFF" font-family="sans-serif" font-size="16" font-weight="bold" lengthAdjust="spacing" textLength="4" x="766" y="634.2188">&#160;</text><text fill="#FFFFFF" font-family="sans-serif" font-size="16" font-weight="bold" lengthAdjust="spacing" textLength="64" x="770" y="634.2188">Banking</text><text fill="#FFFFFF" font-family="sans-serif" font-size="16" font-weight="bold" lengthAdjust="spacing" textLength="57" x="732" y="654.3438">System</text></g><!--entity BigBankPlc.SoftwareSystems.EMailSystem--><g id="elem_BigBankPlc.SoftwareSystems.EMailSystem"><rect fill="#999999" height="40.125" rx="2.5" ry="2.5" style="stroke:#8A8A8A;stroke-width:0.5;" width="127" x="6" y="617.6094"/><text fill="#FFFFFF" font-family="sans-serif" font-size="16" font-weight="bold" lengthAdjust="spacing" textLength="46" x="16" y="644.2188">E-Mail</text><text fill="#FFFFFF" font-family="sans-serif" font-size="16" font-weight="bold" lengthAdjust="spacing" textLength="4" x="62" y="644.2188">&#160;</text><text fill="#FFFFFF" font-family="sans-serif" font-size="16" font-weight="bold" lengthAdjust="spacing" textLength="57" x="66" y="644.2188">System</text></g><!--entity BigBankPlc.SoftwareSystems.InternetBanking.Containers.WebApplication--><g id="elem_BigBankPlc.SoftwareSystems.InternetBanking.Containers.WebApplication"><rect fill="#438DD5" height="40.125" rx="2.5" ry="2.5" style="stroke:#3C7FC0;stroke-width:0.5;" width="144" x="498.5" y="212.6094"/><text fill="#FFFFFF" font-family="sans-serif" font-size="16" font-weight="bold" lengthAdjust="spacing" textLength="34" x="508.5" y="239.2188">Web</text><text fill="#FFFFFF" font-family="sans-serif" font-size="16" font-weight="bold" lengthAdjust="spacing" textLength="4" x="542.5" y="239.2188">&#160;</text><text fill="#FFFFFF" font-family="sans-serif" font-size="16" font-weight="bold" lengthAdjust="spacing" textLength="86" x="546.5" y="239.2188">Application</text></g><!--entity BigBankPlc.SoftwareSystems.InternetBanking.Containers.SinglePageApp--><g id="elem_BigBankPlc.SoftwareSystems.InternetBanking.Containers.SinglePageApp"><rect fill="#438DD5" height="40.125" rx="2.5" ry="2.5" style="stroke:#3C7FC0;stroke-width:0.5;" width="147" x="445" y="316.6094"/><text fill="#FFFFFF" font-family="sans-serif" font-size="16" font-weight="bold" lengthAdjust="spacing" textLength="92" x="455" y="343.2188">Single-Page</text><text fill="#FFFFFF" font-family="sans-serif" font-size="16" font-weight="bold" lengthAdjust="spacing" textLength="4" x="547" y="343.2188">&#160;</text><text fill="#FFFFFF" font-family="sans-serif" font-size="16" font-weight="bold" lengthAdjust="spacing" textLength="31" x="551" y="343.2188">App</text></g><!--entity BigBankPlc.SoftwareSystems.InternetBanking.Containers.APIApplication--><g id="elem_BigBankPlc.SoftwareSystems.InternetBanking.Containers.APIApplication"><rect fill="#438DD5" height="40.125" rx="2.5" ry="2.5" style="stroke:#3C7FC0;stroke-width:0.5;" width="136" x="382.5" y="469.6094"/><text fill="#FFFFFF" font-family="sans-serif" font-size="16" font-weight="bold" lengthAdjust="spacing" textLength="26" x="392.5" y="496.2188">API</text><text fill="#FFFFFF" font-family="sans-serif" font-size="16" font-weight="bold" lengthAdjust="spacing" textLength="4" x="418.5" y="496.2188">&#160;</text><text fill="#FFFFFF" font-family="sans-serif" font-size="16" font-weight="bold" lengthAdjust="spacing" textLength="86" x="422.5" y="496.2188">Application</text></g><!--entity BigBankPlc.SoftwareSystems.InternetBanking.Containers.Database--><g id="elem_BigBankPlc.SoftwareSystems.InternetBanking.Containers.Database"><path d="M404.5,623.1094 C404.5,613.1094 450.5,613.1094 450.5,613.1094 C450.5,613.1094 496.5,613.1094 496.5,623.1094 L496.5,652.2344 C496.5,662.2344 450.5,662.2344 450.5,662.2344 C450.5,662.2344 404.5,662.2344 404.5,652.2344 L404.5,623.1094 " fill="#438DD5" style="stroke:#3C7FC0;stroke-width:0.5;"/><path d="M404.5,623.1094 C404.5,633.1094 450.5,633.1094 450.5,633.1094 C450.5,633.1094 496.5,633.1094 496.5,623.1094 " fill="none" style="stroke:#3C7FC0;stroke-width:0.5;"/><text fill="#FFFFFF" font-family="sans-serif" font-size="16" font-weight="bold" lengthAdjust="spacing" textLength="72" x="414.5" y="653.7188">Database</text></g><!--entity BigBankPlc.SoftwareSystems.InternetBanking.Containers.MobileApp--><g id="elem_BigBankPlc.SoftwareSystems.InternetBanking.Containers.MobileApp"><rect fill="#438DD5" height="40.125" rx="2.5" ry="2.5" style="stroke:#3C7FC0;stroke-width:0.5;" width="105" x="322" y="316.6094"/><text fill="#FFFFFF" font-family="sans-serif" font-size="16" font-weight="bold" lengthAdjust="spacing" textLength="50" x="332" y="343.2188">Mobile</text><text fill="#FFFFFF" font-family="sans-serif" font-size="16" font-weight="bold" lengthAdjust="spacing" textLength="4" x="382" y="343.2188">&#160;</text><text fill="#FFFFFF" font-family="sans-serif" font-size="16" font-weight="bold" lengthAdjust="spacing" textLength="31" x="386" y="343.2188">App</text></g><polygon fill="none" points="549.6077,212.5838,545.5003,205.0919,541.5869,209.64,549.6077,212.5838" style="stroke:#666666;stroke-width:1.0;"/><path d="M263.0802,91.8571 C314.9074,103.4659 410.3255,128.2013 484.5,166.6094 C508.5983,179.0876 526.9238,193.0656 543.5436,207.3659 " fill="none" style="stroke:#666666;stroke-width:1.0;"/><text fill="#666666" font-family="sans-serif" font-size="12" font-weight="bold" lengthAdjust="spacing" textLength="49" x="466.5" y="155.0664">Navigate</text><polygon fill="none" points="528.2369,316.51,534.5432,310.7453,529.1977,308.0202,528.2369,316.51" style="stroke:#666666;stroke-width:1.0;"/><path d="M560.7192,252.7948 C551.4224,271.0308 541.1527,291.1752 531.8704,309.3827 " fill="none" style="stroke:#666666;stroke-width:1.0;"/><text fill="#666666" font-family="sans-serif" font-size="12" font-weight="bold" lengthAdjust="spacing" textLength="84" x="545.5" y="295.0664">Load And Start</text><polygon fill="none" points="451.3376,316.4841,444.5894,311.2437,442.8076,316.973,451.3376,316.4841" style="stroke:#666666;stroke-width:1.0;"/><path d="M263.1648,118.788 C276.4437,132.6151 290.5317,149.3427 300.5,166.6094 C323.1285,205.8056 300.4417,230.6886 331.5,263.6094 C348.5692,281.7022 397.2789,299.6721 443.6985,314.1084 " fill="none" style="stroke:#666666;stroke-width:1.0;"/><text fill="#666666" font-family="sans-serif" font-size="12" font-weight="bold" lengthAdjust="spacing" textLength="38" x="391.5" y="215.0664">Sign In</text><text fill="#666666" font-family="sans-serif" font-size="12" font-weight="bold" lengthAdjust="spacing" textLength="129" x="346" y="230.1602">View Customer Details</text><text fill="#666666" font-family="sans-serif" font-size="12" font-weight="bold" lengthAdjust="spacing" textLength="156" x="332.5" y="245.2539">View Account Transactions</text><text fill="#666666" font-family="sans-serif" font-size="12" font-weight="bold" lengthAdjust="spacing" textLength="88" x="366.5" y="260.3477">Create Account</text><polygon fill="none" points="475.0987,469.3235,482.9272,465.9009,478.7464,461.5973,475.0987,469.3235" style="stroke:#666666;stroke-width:1.0;"/><path d="M516.8746,357.0043 C514.1708,380.7407 507.1663,421.4859 489.5,451.6094 C485.7228,458.05 486.236,458.5041 480.8368,463.7491 " fill="none" style="stroke:#666666;stroke-width:1.0;"/><text fill="#666666" font-family="sans-serif" font-size="12" font-weight="bold" lengthAdjust="spacing" textLength="38" x="569" y="388.0664">Sign In</text><text fill="#666666" font-family="sans-serif" font-size="12" font-weight="bold" lengthAdjust="spacing" textLength="78" x="549" y="403.1602">Get Customer</text><text fill="#666666" font-family="sans-serif" font-size="12" font-weight="bold" lengthAdjust="spacing" textLength="135" x="520.5" y="418.2539">Get Customer Accounts</text><text fill="#666666" font-family="sans-serif" font-size="12" font-weight="bold" lengthAdjust="spacing" textLength="147" x="514.5" y="433.3477">Get Account Transactions</text><text fill="#666666" font-family="sans-serif" font-size="12" font-weight="bold" lengthAdjust="spacing" textLength="88" x="544" y="448.4414">Create Account</text><polygon fill="none" points="450.5,612.9211,453.5,604.9211,447.5,604.9211,450.5,612.9211" style="stroke:#666666;stroke-width:1.0;"/><path d="M450.5,509.6963 C450.5,536.2085 450.5,576.1565 450.5,604.9211 " fill="none" style="stroke:#666666;stroke-width:1.0;"/><text fill="#666666" font-family="sans-serif" font-size="12" font-weight="bold" lengthAdjust="spacing" textLength="102" x="451.5" y="563.5664">Authenticate User</text><polygon fill="none" points="711.8285,607.4016,706.4237,600.7843,703.4053,605.9698,711.8285,607.4016" style="stroke:#666666;stroke-width:1.0;"/><path d="M511.7206,509.6238 C527.1789,514.9572 543.6106,521.0947 558.5,527.6094 C612.5314,551.2503 664.6892,579.9628 704.9145,603.3771 " fill="none" style="stroke:#666666;stroke-width:1.0;"/><text fill="#666666" font-family="sans-serif" font-size="12" font-weight="bold" lengthAdjust="spacing" textLength="78" x="715" y="541.0664">Get Customer</text><text fill="#666666" font-family="sans-serif" font-size="12" font-weight="bold" lengthAdjust="spacing" textLength="135" x="686.5" y="556.1602">Get Customer Accounts</text><text fill="#666666" font-family="sans-serif" font-size="12" font-weight="bold" lengthAdjust="spacing" textLength="147" x="680.5" y="571.2539">Get Account Transactions</text><text fill="#666666" font-family="sans-serif" font-size="12" font-weight="bold" lengthAdjust="spacing" textLength="88" x="710" y="586.3477">Create Account</text><polygon fill="none" points="83.5521,617.4817,90.8407,613.0233,86.112,609.3302,83.5521,617.4817" style="stroke:#666666;stroke-width:1.0;"/><path d="M382.3498,495.4166 C315.6452,500.9577 219.281,511.4364 185.5,527.6094 C141.6313,548.6119 108.1781,585.9506 88.4763,611.1768 " fill="none" style="stroke:#666666;stroke-width:1.0;"/><text fill="#666666" font-family="sans-serif" font-size="12" font-weight="bold" lengthAdjust="spacing" textLength="259" x="186.5" y="563.5664">Send New Account Created Notification E-Mail</text><polygon fill="none" points="321.7854,320.0896,314.9668,314.9413,313.2628,320.6942,321.7854,320.0896" style="stroke:#666666;stroke-width:1.0;"/><path d="M187.6086,110.5234 C170.3736,124.8902 151.786,144.2864 142.5,166.6094 C125.9419,206.4139 116.9296,228.9003 142.5,263.6094 C145.2554,267.3496 246.5141,297.7958 314.1148,317.8178 " fill="none" style="stroke:#666666;stroke-width:1.0;"/><text fill="#666666" font-family="sans-serif" font-size="12" font-weight="bold" lengthAdjust="spacing" textLength="38" x="203.5" y="222.5664">Sign In</text><text fill="#666666" font-family="sans-serif" font-size="12" font-weight="bold" lengthAdjust="spacing" textLength="129" x="158" y="237.6602">View Customer Details</text><text fill="#666666" font-family="sans-serif" font-size="12" font-weight="bold" lengthAdjust="spacing" textLength="156" x="144.5" y="252.7539">View Account Transactions</text><polygon fill="none" points="382.4531,481.1318,375.6715,475.9347,373.9264,481.6753,382.4531,481.1318" style="stroke:#666666;stroke-width:1.0;"/><path d="M348.9839,356.8007 C343.9113,361.9727 339.2927,367.9924 336.5,374.6094 C323.1932,406.1386 316.3802,423.9263 336.5,451.6094 C347.4489,466.6741 357.0218,473.4008 374.799,478.805 " fill="none" style="stroke:#666666;stroke-width:1.0;"/><text fill="#666666" font-family="sans-serif" font-size="12" font-weight="bold" lengthAdjust="spacing" textLength="38" x="392" y="395.5664">Sign In</text><text fill="#666666" font-family="sans-serif" font-size="12" font-weight="bold" lengthAdjust="spacing" textLength="78" x="372" y="410.6602">Get Customer</text><text fill="#666666" font-family="sans-serif" font-size="12" font-weight="bold" lengthAdjust="spacing" textLength="135" x="343.5" y="425.7539">Get Customer Accounts</text><text fill="#666666" font-family="sans-serif" font-size="12" font-weight="bold" lengthAdjust="spacing" textLength="147" x="337.5" y="440.8477">Get Account Transactions</text><polygon fill="none" points="59.9569,617.3064,59.3287,608.7856,53.8808,611.2997,59.9569,617.3064" style="stroke:#666666;stroke-width:1.0;"/><path d="M187.6012,93.6324 C129.8632,110.6756 26.5,152.2667 26.5,231.6094 C26.5,231.6094 26.5,231.6094 26.5,490.6094 C26.5,537.6436 43.9366,582.5921 56.6047,610.0426 " fill="none" style="stroke:#666666;stroke-width:1.0;"/><text fill="#666666" font-family="sans-serif" font-size="12" font-weight="bold" lengthAdjust="spacing" textLength="263" x="33.5" y="334.0664">Receive Password Changed Notification E-Mail</text><text fill="#666666" font-family="sans-serif" font-size="12" font-weight="bold" lengthAdjust="spacing" textLength="275" x="27.5" y="349.1602">Receive New Account Created Notification E-Mail</text><rect fill="none" height="17.6094" style="stroke:none;stroke-width:1.0;" width="182" x="644" y="691.1094"/><text fill="#000000" font-family="sans-serif" font-size="14" font-weight="bold" lengthAdjust="spacing" textLength="53" x="644" y="705.6426">Legend</text><text fill="#FFFFFF" font-family="sans-serif" font-size="14" lengthAdjust="spacing" textLength="4" x="697" y="705.6426">&#160;</text><rect fill="#08427B" height="17.6094" style="stroke:none;stroke-width:1.0;" width="182" x="644" y="708.7188"/><text fill="#073B6F" font-family="sans-serif" font-size="14" lengthAdjust="spacing" textLength="14" x="648" y="723.252">&#9647;</text><text fill="#FFFFFF" font-family="sans-serif" font-size="14" lengthAdjust="spacing" textLength="4" x="662" y="723.252">&#160;</text><text fill="#FFFFFF" font-family="sans-serif" font-size="14" lengthAdjust="spacing" textLength="44" x="670" y="723.252">person</text><text fill="#FFFFFF" font-family="sans-serif" font-size="14" lengthAdjust="spacing" textLength="4" x="718" y="723.252">&#160;</text><rect fill="#438DD5" height="17.6094" style="stroke:none;stroke-width:1.0;" width="182" x="644" y="726.3281"/><text fill="#3C7FC0" font-family="sans-serif" font-size="14" lengthAdjust="spacing" textLength="14" x="648" y="740.8613">&#9647;</text><text fill="#FFFFFF" font-family="sans-serif" font-size="14" lengthAdjust="spacing" textLength="4" x="662" y="740.8613">&#160;</text><text fill="#FFFFFF" font-family="sans-serif" font-size="14" lengthAdjust="spacing" textLength="59" x="670" y="740.8613">container</text><text fill="#FFFFFF" font-family="sans-serif" font-size="14" lengthAdjust="spacing" textLength="4" x="733" y="740.8613">&#160;</text><rect fill="#999999" height="17.6094" style="stroke:none;stroke-width:1.0;" width="182" x="644" y="743.9375"/><text fill="#8A8A8A" font-family="sans-serif" font-size="14" lengthAdjust="spacing" textLength="14" x="648" y="758.4707">&#9647;</text><text fill="#FFFFFF" font-family="sans-serif" font-size="14" lengthAdjust="spacing" textLength="4" x="662" y="758.4707">&#160;</text><text fill="#FFFFFF" font-family="sans-serif" font-size="14" lengthAdjust="spacing" textLength="102" x="670" y="758.4707">external_system</text><text fill="#FFFFFF" font-family="sans-serif" font-size="14" lengthAdjust="spacing" textLength="4" x="776" y="758.4707">&#160;</text><rect fill="none" height="17.6094" style="stroke:none;stroke-width:1.0;" width="182" x="644" y="761.5469"/><text fill="#444444" font-family="sans-serif" font-size="14" lengthAdjust="spacing" textLength="14" x="648" y="776.0801">&#9647;</text><text fill="#FFFFFF" font-family="sans-serif" font-size="14" lengthAdjust="spacing" textLength="4" x="662" y="776.0801">&#160;</text><text fill="#444444" font-family="sans-serif" font-size="14" lengthAdjust="spacing" textLength="108" x="670" y="776.0801">system boundary</text><text fill="#444444" font-family="sans-serif" font-size="10" lengthAdjust="spacing" textLength="40" x="782" y="776.959">(dashed)</text><text fill="#FFFFFF" font-family="sans-serif" font-size="14" lengthAdjust="spacing" textLength="4" x="822" y="776.0801">&#160;</text><line style="stroke:none;stroke-width:1.0;" x1="644" x2="826" y1="691.1094" y2="691.1094"/><line style="stroke:none;stroke-width:1.0;" x1="644" x2="826" y1="708.7188" y2="708.7188"/><line style="stroke:none;stroke-width:1.0;" x1="644" x2="826" y1="726.3281" y2="726.3281"/><line style="stroke:none;stroke-width:1.0;" x1="644" x2="826" y1="743.9375" y2="743.9375"/><line style="stroke:none;stroke-width:1.0;" x1="644" x2="826" y1="761.5469" y2="761.5469"/><line style="stroke:none;stroke-width:1.0;" x1="644" x2="826" y1="779.1563" y2="779.1563"/><line style="stroke:none;stroke-width:1.0;" x1="644" x2="644" y1="691.1094" y2="779.1563"/><line style="stroke:none;stroke-width:1.0;" x1="826" x2="826" y1="691.1094" y2="779.1563"/><!--SRC=[rLPHRvim47xdLtXi3udKyDIdINsWX7MHMa21hfeKANBWGb6DZMmdQJJjl-ye8O4agxA6JXkA5FpP_hwxyztX3uMaQKu9esknq4Jbe2cdneUCnsoH0B6iIVcBBzN4kPmwWckQSP1MiSYPOTX9uZB8WUk8fZrJQQhXCuULUK4-pL97C26lKWd0SJp7lHNoSVxob6k4J42srwb7ceXLnjChymjb2ip-SPduaV8KagQKa2LqWjPsuQbY4dAnR8j9I4vGgbOTaIbrni0EuwRXMRSZmZ3Y3QH_kBKHYztshPEx_HLqXA3XtuwWidst6yTeT_ZLVvW6xZZqlMdWZwEnFOfwVUFM_kxVHzF83wP3_y53n51F6I-ef3afEVIw0588jYu7Xg4ppO0u8YyOQ20zboU3I0pmhqy6nF6zo1vvxfWmM093iW2a4hntdQNNb3y5BBRiM0kfB6UXjCX1NX2pVaKtp3B4uLffoAVNOi4JAjVDpQ6OwnMLK2rHreXha6XaEO_dX0GrGZQGsIS_38BFjWZ-WC_QRbBM0ypiec1PJ7Kcy7nD14W3UR6-yg0BkH3730AQ0ceWRJKUb42fsh6Q7OpQpY5mYdF3sHi5XrJJ6LMOvsRzsh5BTsAMiKtmglUzkFsi4yrzrgzft27X7Ci1DY8LNhBM4tMkaMfgmtyQkuiiR4lf3ifXcyV0cd-rW3hAPuykinIx2ahkAPx1satotmgQ49id9DHKwaC3Emh9OSsbd8puX7_BO4LgTZB4Zst6r0QsunWRbIOHDcb5uz9jd78aO2ZhoRD2kcTLHmM-zUq6UsNjMdjKMwyg-DqTtRVnxCvYB_GZNWXAGY3t2hymVycytxQC_pBOxHOL0jQXrqZyoYZ4XCxc6pvIDR9tgzHcStzpbPuLluO5_rH5dXVozb6F8OPi2IIWIgtmTaoSwi9wxAWdl5vzUcviRgMtxeth3NlzNm00]--></g></svg>