<?xml version="1.0" encoding="us-ascii" standalone="no"?><svg xmlns="http://www.w3.org/2000/svg" xmlns:xlink="http://www.w3.org/1999/xlink" contentStyleType="text/css" height="448px" preserveAspectRatio="none" style="width:325px;height:448px;background:#FFFFFF;" version="1.1" viewBox="0 0 325 448" width="325px" zoomAndPan="magnify"><defs/><g><text fill="#000000" font-family="sans-serif" font-size="14" font-weight="bold" lengthAdjust="spacing" textLength="284" x="16.5" y="24.5332">Complete (End-To-End) - CONTEXT level)</text><!--entity BigBankPlc.Actors.Customer--><g id="elem_BigBankPlc.Actors.Customer"><ellipse cx="226.5" cy="67.1094" fill="#08427B" rx="16" ry="16" style="stroke:#073B6F;stroke-width:0.5;"/><path d="M226.5,87.1094 C230.5,87.1094 233.5,87.1094 237.5,83.1094 C245.5,83.1094 253.5,91.1094 253.5,99.1094 L253.5,103.1094 C253.5,107.1094 249.5,111.1094 245.5,111.1094 L207.5,111.1094 C203.5,111.1094 199.5,107.1094 199.5,103.1094 L199.5,99.1094 C199.5,91.1094 207.5,83.1094 215.5,83.1094 C219.5,87.1094 222.5,87.1094 226.5,87.1094 " fill="#08427B" style="stroke:#073B6F;stroke-width:0.5;"/><text fill="#08427B" font-family="sans-serif" font-size="16" font-weight="bold" lengthAdjust="spacing" textLength="75" x="189" y="128.2188">Customer</text></g><!--entity BigBankPlc.SoftwareSystems.InternetBanking--><g id="elem_BigBankPlc.SoftwareSystems.InternetBanking"><rect fill="#1168BD" height="40.125" rx="2.5" ry="2.5" style="stroke:#3C7FC0;stroke-width:0.5;" width="146" x="72.5" y="184.6094"/><text fill="#FFFFFF" font-family="sans-serif" font-size="16" font-weight="bold" lengthAdjust="spacing" textLength="58" x="82.5" y="211.2188">Internet</text><text fill="#FFFFFF" font-family="sans-serif" font-size="16" font-weight="bold" lengthAdjust="spacing" textLength="4" x="140.5" y="211.2188">&#160;</text><text fill="#FFFFFF" font-family="sans-serif" font-size="16" font-weight="bold" lengthAdjust="spacing" textLength="64" x="144.5" y="211.2188">Banking</text></g><!--entity BigBankPlc.SoftwareSystems.MainframeBankingSystem--><g id="elem_BigBankPlc.SoftwareSystems.MainframeBankingSystem"><rect fill="#999999" height="60.25" rx="2.5" ry="2.5" style="stroke:#8A8A8A;stroke-width:0.5;" width="167" x="6" y="277.6094"/><text fill="#FFFFFF" font-family="sans-serif" font-size="16" font-weight="bold" lengthAdjust="spacing" textLength="79" x="16" y="304.2188">Mainframe</text><text fill="#FFFFFF" font-family="sans-serif" font-size="16" font-weight="bold" lengthAdjust="spacing" textLength="4" x="95" y="304.2188">&#160;</text><text fill="#FFFFFF" font-family="sans-serif" font-size="16" font-weight="bold" lengthAdjust="spacing" textLength="64" x="99" y="304.2188">Banking</text><text fill="#FFFFFF" font-family="sans-serif" font-size="16" font-weight="bold" lengthAdjust="spacing" textLength="57" x="61" y="324.3438">System</text></g><!--entity BigBankPlc.SoftwareSystems.EMailSystem--><g id="elem_BigBankPlc.SoftwareSystems.EMailSystem"><rect fill="#999999" height="40.125" rx="2.5" ry="2.5" style="stroke:#8A8A8A;stroke-width:0.5;" width="127" x="191" y="287.6094"/><text fill="#FFFFFF" font-family="sans-serif" font-size="16" font-weight="bold" lengthAdjust="spacing" textLength="46" x="201" y="314.2188">E-Mail</text><text fill="#FFFFFF" font-family="sans-serif" font-size="16" font-weight="bold" lengthAdjust="spacing" textLength="4" x="247" y="314.2188">&#160;</text><text fill="#FFFFFF" font-family="sans-serif" font-size="16" font-weight="bold" lengthAdjust="spacing" textLength="57" x="251" y="314.2188">System</text></g><polygon fill="none" points="159.4374,184.424,166.5664,179.7148,161.7121,176.1884,159.4374,184.424" style="stroke:#666666;stroke-width:1.0;"/><path d="M197.7144,131.7341 C184.7093,149.636 174.643,163.4928 164.1393,177.9516 " fill="none" style="stroke:#666666;stroke-width:1.0;"/><text fill="#666666" font-family="sans-serif" font-size="12" font-weight="bold" lengthAdjust="spacing" textLength="29" x="185.5" y="163.0664">Uses</text><polygon fill="none" points="105.2585,277.5639,111.7234,271.9778,106.4562,269.1042,105.2585,277.5639" style="stroke:#666666;stroke-width:1.0;"/><path d="M134.5429,224.7806 C131.2916,230.5054 127.7355,236.8024 124.5,242.6094 C118.1512,254.0041 115.0767,259.567 109.0898,270.541 " fill="none" style="stroke:#666666;stroke-width:1.0;"/><text fill="#666666" font-family="sans-serif" font-size="12" font-weight="bold" lengthAdjust="spacing" textLength="29" x="125.5" y="256.0664">Uses</text><polygon fill="none" points="233.8187,287.4459,229.9896,279.808,225.9115,284.2091,233.8187,287.4459" style="stroke:#666666;stroke-width:1.0;"/><path d="M166.2586,224.8444 C185.6539,242.8162 208.5803,264.06 227.9506,282.0085 " fill="none" style="stroke:#666666;stroke-width:1.0;"/><text fill="#666666" font-family="sans-serif" font-size="12" font-weight="bold" lengthAdjust="spacing" textLength="29" x="204.5" y="256.0664">Uses</text><polygon fill="none" points="251.9991,287.4509,253.9384,279.1299,247.9889,279.9065,251.9991,287.4509" style="stroke:#666666;stroke-width:1.0;"/><path d="M231.6683,131.702 C237.7045,177.9438 246.4075,244.6147 250.9636,279.5182 " fill="none" style="stroke:#666666;stroke-width:1.0;"/><text fill="#666666" font-family="sans-serif" font-size="12" font-weight="bold" lengthAdjust="spacing" textLength="29" x="244.5" y="209.5664">Uses</text><rect fill="none" height="17.6094" style="stroke:none;stroke-width:1.0;" width="136" x="164" y="350.6094"/><text fill="#000000" font-family="sans-serif" font-size="14" font-weight="bold" lengthAdjust="spacing" textLength="53" x="164" y="365.1426">Legend</text><text fill="#FFFFFF" font-family="sans-serif" font-size="14" lengthAdjust="spacing" textLength="4" x="217" y="365.1426">&#160;</text><rect fill="#08427B" height="17.6094" style="stroke:none;stroke-width:1.0;" width="136" x="164" y="368.2188"/><text fill="#073B6F" font-family="sans-serif" font-size="14" lengthAdjust="spacing" textLength="14" x="168" y="382.752">&#9647;</text><text fill="#FFFFFF" font-family="sans-serif" font-size="14" lengthAdjust="spacing" textLength="4" x="182" y="382.752">&#160;</text><text fill="#FFFFFF" font-family="sans-serif" font-size="14" lengthAdjust="spacing" textLength="44" x="190" y="382.752">person</text><text fill="#FFFFFF" font-family="sans-serif" font-size="14" lengthAdjust="spacing" textLength="4" x="238" y="382.752">&#160;</text><rect fill="#1168BD" height="17.6094" style="stroke:none;stroke-width:1.0;" width="136" x="164" y="385.8281"/><text fill="#3C7FC0" font-family="sans-serif" font-size="14" lengthAdjust="spacing" textLength="14" x="168" y="400.3613">&#9647;</text><text fill="#FFFFFF" font-family="sans-serif" font-size="14" lengthAdjust="spacing" textLength="4" x="182" y="400.3613">&#160;</text><text fill="#FFFFFF" font-family="sans-serif" font-size="14" lengthAdjust="spacing" textLength="44" x="190" y="400.3613">system</text><text fill="#FFFFFF" font-family="sans-serif" font-size="14" lengthAdjust="spacing" textLength="4" x="238" y="400.3613">&#160;</text><rect fill="#999999" height="17.6094" style="stroke:none;stroke-width:1.0;" width="136" x="164" y="403.4375"/><text fill="#8A8A8A" font-family="sans-serif" font-size="14" lengthAdjust="spacing" textLength="14" x="168" y="417.9707">&#9647;</text><text fill="#FFFFFF" font-family="sans-serif" font-size="14" lengthAdjust="spacing" textLength="4" x="182" y="417.9707">&#160;</text><text fill="#FFFFFF" font-family="sans-serif" font-size="14" lengthAdjust="spacing" textLength="102" x="190" y="417.9707">external_system</text><text fill="#FFFFFF" font-family="sans-serif" font-size="14" lengthAdjust="spacing" textLength="4" x="296" y="417.9707">&#160;</text><line style="stroke:none;stroke-width:1.0;" x1="164" x2="300" y1="350.6094" y2="350.6094"/><line style="stroke:none;stroke-width:1.0;" x1="164" x2="300" y1="368.2188" y2="368.2188"/><line style="stroke:none;stroke-width:1.0;" x1="164" x2="300" y1="385.8281" y2="385.8281"/><line style="stroke:none;stroke-width:1.0;" x1="164" x2="300" y1="403.4375" y2="403.4375"/><line style="stroke:none;stroke-width:1.0;" x1="164" x2="300" y1="421.0469" y2="421.0469"/><line style="stroke:none;stroke-width:1.0;" x1="164" x2="164" y1="350.6094" y2="421.0469"/><line style="stroke:none;stroke-width:1.0;" x1="300" x2="300" y1="350.6094" y2="421.0469"/><!--SRC=[hLDTJwD057tdLupiFa1YUV9f4nygZgw9MqXBevkOa15kaJWVP6PgxR_VEz8FM8csHa82zzmvvymz0oUDPfLWXBErMbfY15WccNTIou8lIo1HzE3kuimyn6TvhAI5LnirIy4zRroMb8C0QJDM1RwnpC8l2Il_bFnyh6B5bJwlD834Ue7C5lcnUBlS6gLBqFrrvecLQbNBwjo_Ojo07mxR54zCLb1shPHsq05UkuM7ccaGwgLlfg4ymAbTDM3ZVAR0t-Vcukqdmci97IHyJ-raiQVlXjppMsX0e3FVNg3T-vwDDUvxzZkvorCwdIMJF4scsNHyamMXTpl-cyopF4lI_3Avco3YcUTQDampGPo6NJT06iNNhl0yMriE95QYuM2115IMeqoDy16I4OcJIKRlCyBX1JXAfQ2Dai55NLqm-Ppo8XeNLcaJnKjZbG1zIlpjAmxXOy2pjR4WkfIPMjWLqz1sJ7I3dxB6ZRa-dWtIjWZPG3sfdBxQZ-J-i5ekS5hOa5iS5NQDhInfMqUfKrJXEqawScLVnyCZ_J2XewAO6p0e-f_cfxolvFFzLlsmXlMFYMTGR_ChtD9hEhaCmdy0]--></g></svg>