<?xml version="1.0" encoding="us-ascii" standalone="no"?><svg xmlns="http://www.w3.org/2000/svg" xmlns:xlink="http://www.w3.org/1999/xlink" contentStyleType="text/css" height="448px" preserveAspectRatio="none" style="width:371px;height:448px;background:#FFFFFF;" version="1.1" viewBox="0 0 371 448" width="371px" zoomAndPan="magnify"><defs/><g><text fill="#000000" font-family="sans-serif" font-size="14" font-weight="bold" lengthAdjust="spacing" textLength="343" x="10" y="24.5332">Complete (End-To-End) - C4 Static - Context level</text><!--entity BigBankPlc.Actors.Customer--><g id="elem_BigBankPlc.Actors.Customer"><ellipse cx="249.5" cy="67.1094" fill="#08427B" rx="16" ry="16" style="stroke:#073B6F;stroke-width:0.5;"/><path d="M249.5,87.1094 C253.5,87.1094 256.5,87.1094 260.5,83.1094 C268.5,83.1094 276.5,91.1094 276.5,99.1094 L276.5,103.1094 C276.5,107.1094 272.5,111.1094 268.5,111.1094 L230.5,111.1094 C226.5,111.1094 222.5,107.1094 222.5,103.1094 L222.5,99.1094 C222.5,91.1094 230.5,83.1094 238.5,83.1094 C242.5,87.1094 245.5,87.1094 249.5,87.1094 " fill="#08427B" style="stroke:#073B6F;stroke-width:0.5;"/><text fill="#08427B" font-family="sans-serif" font-size="16" font-weight="bold" lengthAdjust="spacing" textLength="75" x="212" y="128.2188">Customer</text></g><!--entity BigBankPlc.SoftwareSystems.InternetBanking--><g id="elem_BigBankPlc.SoftwareSystems.InternetBanking"><rect fill="#1168BD" height="40.125" rx="2.5" ry="2.5" style="stroke:#3C7FC0;stroke-width:0.5;" width="146" x="95.5" y="184.6094"/><text fill="#FFFFFF" font-family="sans-serif" font-size="16" font-weight="bold" lengthAdjust="spacing" textLength="58" x="105.5" y="211.2188">Internet</text><text fill="#FFFFFF" font-family="sans-serif" font-size="16" font-weight="bold" lengthAdjust="spacing" textLength="4" x="163.5" y="211.2188">&#160;</text><text fill="#FFFFFF" font-family="sans-serif" font-size="16" font-weight="bold" lengthAdjust="spacing" textLength="64" x="167.5" y="211.2188">Banking</text></g><!--entity BigBankPlc.SoftwareSystems.MainframeBankingSystem--><g id="elem_BigBankPlc.SoftwareSystems.MainframeBankingSystem"><rect fill="#999999" height="60.25" rx="2.5" ry="2.5" style="stroke:#8A8A8A;stroke-width:0.5;" width="167" x="29" y="277.6094"/><text fill="#FFFFFF" font-family="sans-serif" font-size="16" font-weight="bold" lengthAdjust="spacing" textLength="79" x="39" y="304.2188">Mainframe</text><text fill="#FFFFFF" font-family="sans-serif" font-size="16" font-weight="bold" lengthAdjust="spacing" textLength="4" x="118" y="304.2188">&#160;</text><text fill="#FFFFFF" font-family="sans-serif" font-size="16" font-weight="bold" lengthAdjust="spacing" textLength="64" x="122" y="304.2188">Banking</text><text fill="#FFFFFF" font-family="sans-serif" font-size="16" font-weight="bold" lengthAdjust="spacing" textLength="57" x="84" y="324.3438">System</text></g><!--entity BigBankPlc.SoftwareSystems.EMailSystem--><g id="elem_BigBankPlc.SoftwareSystems.EMailSystem"><rect fill="#999999" height="40.125" rx="2.5" ry="2.5" style="stroke:#8A8A8A;stroke-width:0.5;" width="127" x="214" y="287.6094"/><text fill="#FFFFFF" font-family="sans-serif" font-size="16" font-weight="bold" lengthAdjust="spacing" textLength="46" x="224" y="314.2188">E-Mail</text><text fill="#FFFFFF" font-family="sans-serif" font-size="16" font-weight="bold" lengthAdjust="spacing" textLength="4" x="270" y="314.2188">&#160;</text><text fill="#FFFFFF" font-family="sans-serif" font-size="16" font-weight="bold" lengthAdjust="spacing" textLength="57" x="274" y="314.2188">System</text></g><polygon fill="none" points="182.4374,184.424,189.5664,179.7148,184.7121,176.1884,182.4374,184.424" style="stroke:#666666;stroke-width:1.0;"/><path d="M220.7144,131.7341 C207.7093,149.636 197.643,163.4928 187.1393,177.9516 " fill="none" style="stroke:#666666;stroke-width:1.0;"/><text fill="#666666" font-family="sans-serif" font-size="12" font-weight="bold" lengthAdjust="spacing" textLength="29" x="208.5" y="163.0664">Uses</text><polygon fill="none" points="128.2585,277.5639,134.7234,271.9778,129.4562,269.1042,128.2585,277.5639" style="stroke:#666666;stroke-width:1.0;"/><path d="M157.5429,224.7806 C154.2916,230.5054 150.7355,236.8024 147.5,242.6094 C141.1512,254.0041 138.0767,259.567 132.0898,270.541 " fill="none" style="stroke:#666666;stroke-width:1.0;"/><text fill="#666666" font-family="sans-serif" font-size="12" font-weight="bold" lengthAdjust="spacing" textLength="29" x="148.5" y="256.0664">Uses</text><polygon fill="none" points="256.8187,287.4459,252.9896,279.808,248.9115,284.2091,256.8187,287.4459" style="stroke:#666666;stroke-width:1.0;"/><path d="M189.2586,224.8444 C208.6539,242.8162 231.5803,264.06 250.9506,282.0085 " fill="none" style="stroke:#666666;stroke-width:1.0;"/><text fill="#666666" font-family="sans-serif" font-size="12" font-weight="bold" lengthAdjust="spacing" textLength="29" x="227.5" y="256.0664">Uses</text><polygon fill="none" points="274.9991,287.4509,276.9384,279.1299,270.9889,279.9065,274.9991,287.4509" style="stroke:#666666;stroke-width:1.0;"/><path d="M254.6683,131.702 C260.7045,177.9438 269.4075,244.6147 273.9636,279.5182 " fill="none" style="stroke:#666666;stroke-width:1.0;"/><text fill="#666666" font-family="sans-serif" font-size="12" font-weight="bold" lengthAdjust="spacing" textLength="29" x="267.5" y="209.5664">Uses</text><rect fill="none" height="17.6094" style="stroke:none;stroke-width:1.0;" width="136" x="187" y="350.6094"/><text fill="#000000" font-family="sans-serif" font-size="14" font-weight="bold" lengthAdjust="spacing" textLength="53" x="187" y="365.1426">Legend</text><text fill="#FFFFFF" font-family="sans-serif" font-size="14" lengthAdjust="spacing" textLength="4" x="240" y="365.1426">&#160;</text><rect fill="#08427B" height="17.6094" style="stroke:none;stroke-width:1.0;" width="136" x="187" y="368.2188"/><text fill="#073B6F" font-family="sans-serif" font-size="14" lengthAdjust="spacing" textLength="14" x="191" y="382.752">&#9647;</text><text fill="#FFFFFF" font-family="sans-serif" font-size="14" lengthAdjust="spacing" textLength="4" x="205" y="382.752">&#160;</text><text fill="#FFFFFF" font-family="sans-serif" font-size="14" lengthAdjust="spacing" textLength="44" x="213" y="382.752">person</text><text fill="#FFFFFF" font-family="sans-serif" font-size="14" lengthAdjust="spacing" textLength="4" x="261" y="382.752">&#160;</text><rect fill="#1168BD" height="17.6094" style="stroke:none;stroke-width:1.0;" width="136" x="187" y="385.8281"/><text fill="#3C7FC0" font-family="sans-serif" font-size="14" lengthAdjust="spacing" textLength="14" x="191" y="400.3613">&#9647;</text><text fill="#FFFFFF" font-family="sans-serif" font-size="14" lengthAdjust="spacing" textLength="4" x="205" y="400.3613">&#160;</text><text fill="#FFFFFF" font-family="sans-serif" font-size="14" lengthAdjust="spacing" textLength="44" x="213" y="400.3613">system</text><text fill="#FFFFFF" font-family="sans-serif" font-size="14" lengthAdjust="spacing" textLength="4" x="261" y="400.3613">&#160;</text><rect fill="#999999" height="17.6094" style="stroke:none;stroke-width:1.0;" width="136" x="187" y="403.4375"/><text fill="#8A8A8A" font-family="sans-serif" font-size="14" lengthAdjust="spacing" textLength="14" x="191" y="417.9707">&#9647;</text><text fill="#FFFFFF" font-family="sans-serif" font-size="14" lengthAdjust="spacing" textLength="4" x="205" y="417.9707">&#160;</text><text fill="#FFFFFF" font-family="sans-serif" font-size="14" lengthAdjust="spacing" textLength="102" x="213" y="417.9707">external_system</text><text fill="#FFFFFF" font-family="sans-serif" font-size="14" lengthAdjust="spacing" textLength="4" x="319" y="417.9707">&#160;</text><line style="stroke:none;stroke-width:1.0;" x1="187" x2="323" y1="350.6094" y2="350.6094"/><line style="stroke:none;stroke-width:1.0;" x1="187" x2="323" y1="368.2188" y2="368.2188"/><line style="stroke:none;stroke-width:1.0;" x1="187" x2="323" y1="385.8281" y2="385.8281"/><line style="stroke:none;stroke-width:1.0;" x1="187" x2="323" y1="403.4375" y2="403.4375"/><line style="stroke:none;stroke-width:1.0;" x1="187" x2="323" y1="421.0469" y2="421.0469"/><line style="stroke:none;stroke-width:1.0;" x1="187" x2="187" y1="350.6094" y2="421.0469"/><line style="stroke:none;stroke-width:1.0;" x1="323" x2="323" y1="350.6094" y2="421.0469"/><!--SRC=[hLDDRwCm4BtpAros1v0QJZbLwY6bR5kf6r0WgYf5GYvCAAe_aEqqpR_VyP8FsA1kKYr2mZFZzzxCixbe5Aqu9OnkvCeGpS5GGPsBMXHiLG89WeLzYx5UXECybCB0fmcQ5MUECodBY047OJ9QUQusrC2rWBLxHIvVgr0ogMug1I0mNYAopVnO_ddi7gbAKFrz-esMSbsBwiRzIPa6rn-MATwegA3iIabbKoTexJUUAgQ0ou- -c8Bo1ALsru2CrPa1E_RDsjjtXDK2EXd_6DhnuW3V3td0jwa1Wivy1uAszmCQO-mxVOYVyoIQfV4qJ-9PDfiyPfxlF4rUudcMPt6ItyNFKymu-hqM3LMK4yjXDWsGHhAD3Hp7r8O12ILl61WWNYJAKIP7-F79Y8HZac9ZTM7NxPKZ33u0xrm2IalXtTRLBHNl2Ik2IM6aqa6uqaPoK5V4tIrn7XUzJZVQ0Ez2KhaqQwgWhUZW4IKKzcZhU4m8ssN8DjMZogDFynNTBrgB9GuEMt2RHuPzOKTBsj9Px16oi3rbDB9XdyV1q_tIeREic6lGIFeNvpznt_7d_qlrpHhcFyUUGRxjN_4KtKVJEy__3G00]--></g></svg>