<?xml version="1.0" encoding="us-ascii" standalone="no"?><svg xmlns="http://www.w3.org/2000/svg" xmlns:xlink="http://www.w3.org/1999/xlink" contentStyleType="text/css" height="553px" preserveAspectRatio="none" style="width:845px;height:553px;background:#FFFFFF;" version="1.1" viewBox="0 0 845 553" width="845px" zoomAndPan="magnify"><defs/><g><text fill="#000000" font-family="sans-serif" font-size="14" font-weight="bold" lengthAdjust="spacing" textLength="300" x="81" y="24.5332">Complete (End-To-End) - C4 - Context level</text><!--entity BigBankPlc.Actors.Customer--><g id="elem_BigBankPlc.Actors.Customer"><ellipse cx="425.5" cy="67.1094" fill="#08427B" rx="16" ry="16" style="stroke:#073B6F;stroke-width:0.5;"/><path d="M425.5,87.1094 C429.5,87.1094 432.5,87.1094 436.5,83.1094 C444.5,83.1094 452.5,91.1094 452.5,99.1094 L452.5,103.1094 C452.5,107.1094 448.5,111.1094 444.5,111.1094 L406.5,111.1094 C402.5,111.1094 398.5,107.1094 398.5,103.1094 L398.5,99.1094 C398.5,91.1094 406.5,83.1094 414.5,83.1094 C418.5,87.1094 421.5,87.1094 425.5,87.1094 " fill="#08427B" style="stroke:#073B6F;stroke-width:0.5;"/><text fill="#08427B" font-family="sans-serif" font-size="16" font-weight="bold" lengthAdjust="spacing" textLength="75" x="388" y="128.2188">Customer</text></g><!--entity BigBankPlc.SoftwareSystems.InternetBanking--><g id="elem_BigBankPlc.SoftwareSystems.InternetBanking"><rect fill="#1168BD" height="40.125" rx="2.5" ry="2.5" style="stroke:#3C7FC0;stroke-width:0.5;" width="146" x="188.5" y="244.6094"/><text fill="#FFFFFF" font-family="sans-serif" font-size="16" font-weight="bold" lengthAdjust="spacing" textLength="58" x="198.5" y="271.2188">Internet</text><text fill="#FFFFFF" font-family="sans-serif" font-size="16" font-weight="bold" lengthAdjust="spacing" textLength="4" x="256.5" y="271.2188">&#160;</text><text fill="#FFFFFF" font-family="sans-serif" font-size="16" font-weight="bold" lengthAdjust="spacing" textLength="64" x="260.5" y="271.2188">Banking</text></g><!--entity BigBankPlc.SoftwareSystems.MainframeBankingSystem--><g id="elem_BigBankPlc.SoftwareSystems.MainframeBankingSystem"><rect fill="#999999" height="60.25" rx="2.5" ry="2.5" style="stroke:#8A8A8A;stroke-width:0.5;" width="167" x="6" y="382.6094"/><text fill="#FFFFFF" font-family="sans-serif" font-size="16" font-weight="bold" lengthAdjust="spacing" textLength="79" x="16" y="409.2188">Mainframe</text><text fill="#FFFFFF" font-family="sans-serif" font-size="16" font-weight="bold" lengthAdjust="spacing" textLength="4" x="95" y="409.2188">&#160;</text><text fill="#FFFFFF" font-family="sans-serif" font-size="16" font-weight="bold" lengthAdjust="spacing" textLength="64" x="99" y="409.2188">Banking</text><text fill="#FFFFFF" font-family="sans-serif" font-size="16" font-weight="bold" lengthAdjust="spacing" textLength="57" x="61" y="429.3438">System</text></g><!--entity BigBankPlc.SoftwareSystems.EMailSystem--><g id="elem_BigBankPlc.SoftwareSystems.EMailSystem"><rect fill="#999999" height="40.125" rx="2.5" ry="2.5" style="stroke:#8A8A8A;stroke-width:0.5;" width="127" x="336" y="392.6094"/><text fill="#FFFFFF" font-family="sans-serif" font-size="16" font-weight="bold" lengthAdjust="spacing" textLength="46" x="346" y="419.2188">E-Mail</text><text fill="#FFFFFF" font-family="sans-serif" font-size="16" font-weight="bold" lengthAdjust="spacing" textLength="4" x="392" y="419.2188">&#160;</text><text fill="#FFFFFF" font-family="sans-serif" font-size="16" font-weight="bold" lengthAdjust="spacing" textLength="57" x="396" y="419.2188">System</text></g><polygon fill="none" points="278.4147,244.2873,285.9575,240.2739,281.4587,236.3039,278.4147,244.2873" style="stroke:#666666;stroke-width:1.0;"/><path d="M387.9935,127.3073 C380.4548,134.5897 372.6539,142.2776 365.5,149.6094 C333.8811,182.0147 303.9785,215.3184 283.7081,238.2889 " fill="none" style="stroke:#666666;stroke-width:1.0;"/><text fill="#666666" font-family="sans-serif" font-size="12" font-weight="bold" lengthAdjust="spacing" textLength="49" x="420" y="163.0664">Navigate</text><text fill="#666666" font-family="sans-serif" font-size="12" font-weight="bold" lengthAdjust="spacing" textLength="38" x="425.5" y="178.1602">Sign In</text><text fill="#666666" font-family="sans-serif" font-size="12" font-weight="bold" lengthAdjust="spacing" textLength="129" x="380" y="193.2539">View Customer Details</text><text fill="#666666" font-family="sans-serif" font-size="12" font-weight="bold" lengthAdjust="spacing" textLength="156" x="366.5" y="208.3477">View Account Transactions</text><text fill="#666666" font-family="sans-serif" font-size="12" font-weight="bold" lengthAdjust="spacing" textLength="88" x="400.5" y="223.4414">Create Account</text><polygon fill="none" points="83.3134,382.5673,85.1867,374.2312,79.2435,375.0549,83.3134,382.5673" style="stroke:#666666;stroke-width:1.0;"/><path d="M188.2476,273.7269 C150.7908,279.4805 110.5807,288.6953 98.5,302.6094 C79.7026,324.2596 78.8507,350.3679 82.2151,374.643 " fill="none" style="stroke:#666666;stroke-width:1.0;"/><text fill="#666666" font-family="sans-serif" font-size="12" font-weight="bold" lengthAdjust="spacing" textLength="78" x="134" y="316.0664">Get Customer</text><text fill="#666666" font-family="sans-serif" font-size="12" font-weight="bold" lengthAdjust="spacing" textLength="135" x="105.5" y="331.1602">Get Customer Accounts</text><text fill="#666666" font-family="sans-serif" font-size="12" font-weight="bold" lengthAdjust="spacing" textLength="147" x="99.5" y="346.2539">Get Account Transactions</text><text fill="#666666" font-family="sans-serif" font-size="12" font-weight="bold" lengthAdjust="spacing" textLength="88" x="129" y="361.3477">Create Account</text><polygon fill="none" points="335.6477,405.8025,328.4821,401.1491,327.1892,407.0081,335.6477,405.8025" style="stroke:#666666;stroke-width:1.0;"/><path d="M255.687,284.747 C250.3933,306.2964 245.7002,341.3345 262.5,364.6094 C279.3507,387.9548 300.7222,398.0952 327.8356,404.0786 " fill="none" style="stroke:#666666;stroke-width:1.0;"/><text fill="#666666" font-family="sans-serif" font-size="12" font-weight="bold" lengthAdjust="spacing" textLength="259" x="263.5" y="338.5664">Send New Account Created Notification E-Mail</text><polygon fill="none" points="463.0467,402.7948,471.5641,403.4688,469.9071,397.7021,463.0467,402.7948" style="stroke:#666666;stroke-width:1.0;"/><path d="M463.0958,103.608 C484.909,112.4324 510.5598,127.0137 523.5,149.6094 C570.9874,232.5299 577.7892,285.9739 523.5,364.6094 C509.6352,384.6919 493.6816,393.9923 470.7356,400.5855 " fill="none" style="stroke:#666666;stroke-width:1.0;"/><text fill="#666666" font-family="sans-serif" font-size="12" font-weight="bold" lengthAdjust="spacing" textLength="263" x="568.5" y="262.0664">Receive Password Changed Notification E-Mail</text><text fill="#666666" font-family="sans-serif" font-size="12" font-weight="bold" lengthAdjust="spacing" textLength="275" x="562.5" y="277.1602">Receive New Account Created Notification E-Mail</text><rect fill="none" height="17.6094" style="stroke:none;stroke-width:1.0;" width="136" x="309" y="455.6094"/><text fill="#000000" font-family="sans-serif" font-size="14" font-weight="bold" lengthAdjust="spacing" textLength="53" x="309" y="470.1426">Legend</text><text fill="#FFFFFF" font-family="sans-serif" font-size="14" lengthAdjust="spacing" textLength="4" x="362" y="470.1426">&#160;</text><rect fill="#08427B" height="17.6094" style="stroke:none;stroke-width:1.0;" width="136" x="309" y="473.2188"/><text fill="#073B6F" font-family="sans-serif" font-size="14" lengthAdjust="spacing" textLength="14" x="313" y="487.752">&#9647;</text><text fill="#FFFFFF" font-family="sans-serif" font-size="14" lengthAdjust="spacing" textLength="4" x="327" y="487.752">&#160;</text><text fill="#FFFFFF" font-family="sans-serif" font-size="14" lengthAdjust="spacing" textLength="44" x="335" y="487.752">person</text><text fill="#FFFFFF" font-family="sans-serif" font-size="14" lengthAdjust="spacing" textLength="4" x="383" y="487.752">&#160;</text><rect fill="#1168BD" height="17.6094" style="stroke:none;stroke-width:1.0;" width="136" x="309" y="490.8281"/><text fill="#3C7FC0" font-family="sans-serif" font-size="14" lengthAdjust="spacing" textLength="14" x="313" y="505.3613">&#9647;</text><text fill="#FFFFFF" font-family="sans-serif" font-size="14" lengthAdjust="spacing" textLength="4" x="327" y="505.3613">&#160;</text><text fill="#FFFFFF" font-family="sans-serif" font-size="14" lengthAdjust="spacing" textLength="44" x="335" y="505.3613">system</text><text fill="#FFFFFF" font-family="sans-serif" font-size="14" lengthAdjust="spacing" textLength="4" x="383" y="505.3613">&#160;</text><rect fill="#999999" height="17.6094" style="stroke:none;stroke-width:1.0;" width="136" x="309" y="508.4375"/><text fill="#8A8A8A" font-family="sans-serif" font-size="14" lengthAdjust="spacing" textLength="14" x="313" y="522.9707">&#9647;</text><text fill="#FFFFFF" font-family="sans-serif" font-size="14" lengthAdjust="spacing" textLength="4" x="327" y="522.9707">&#160;</text><text fill="#FFFFFF" font-family="sans-serif" font-size="14" lengthAdjust="spacing" textLength="102" x="335" y="522.9707">external_system</text><text fill="#FFFFFF" font-family="sans-serif" font-size="14" lengthAdjust="spacing" textLength="4" x="441" y="522.9707">&#160;</text><line style="stroke:none;stroke-width:1.0;" x1="309" x2="445" y1="455.6094" y2="455.6094"/><line style="stroke:none;stroke-width:1.0;" x1="309" x2="445" y1="473.2188" y2="473.2188"/><line style="stroke:none;stroke-width:1.0;" x1="309" x2="445" y1="490.8281" y2="490.8281"/><line style="stroke:none;stroke-width:1.0;" x1="309" x2="445" y1="508.4375" y2="508.4375"/><line style="stroke:none;stroke-width:1.0;" x1="309" x2="445" y1="526.0469" y2="526.0469"/><line style="stroke:none;stroke-width:1.0;" x1="309" x2="309" y1="455.6094" y2="526.0469"/><line style="stroke:none;stroke-width:1.0;" x1="445" x2="445" y1="455.6094" y2="526.0469"/><!--SRC=[lLJ1Zfim4Btp5LxQGo9jEEsfqXwoX6uZRGCAjAjAICY52MkjiP7j99k_xxWE2JJHDkcXA8BC6yzxppEMRrf5wuOIJdToROXkm511lHicIhwkW0H1Rd_bdSx3koAKmi2R2TfrmprlMbKHXmQ4oMWzyhMX1Zu9sFgtvEFFEfHSgljQ0GYCLrZfa0-htuzT8rK5QhXElz1ARfcex_tFb6lmn-TboXSgQgZwKb9Pw0Ajmy9BnHGqSZCKKr1TeEHMdP6nEalWftspxHrsX3C1FMHyMjhhnR7yiCbZlOFE4FJsToHmte_L6AFlz4lyN2JHCeqNHH8li-Lqdet6tjFqH_mjAx8uAMRnym8HJxyoqL956s8vpAu5qag-iu7d6MOua50sBGS3P1I9QfB92Nx6P4B2E_joPurms00UjWIKbcBqmEe7AbuJNWRJqaYbWt2jZMn0tHA_-uiRyR79wKuRQFebgLoPBLNWCZgOeuH2SpQFyy6o3Y5xQ41LH6_cFRglb8aLxXZsnGv7XaEYeoKkTHLxX2pyG1bDR3ZayN2ixtRegbOiw8RLU3noaR9QaBd8nNS6MzBHaHdU5OphFJmjIxaMXcHuoZGj3PC2Kw42fEYIwF4FYt-ryI_jViJvTIvpqOyw8zh1_z_pS8WfY8eiUirpqeX9mrQifDOHSQC-zN7DU8UwIoY1RO0aLEijtbSaT5V8ETrSTAilDxg_9vwYnsWn6ur_0G00]--></g></svg>