<?xml version="1.0" encoding="us-ascii" standalone="no"?><svg xmlns="http://www.w3.org/2000/svg" xmlns:xlink="http://www.w3.org/1999/xlink" contentStyleType="text/css" height="1785px" preserveAspectRatio="none" style="width:1065px;height:1785px;background:#FFFFFF;" version="1.1" viewBox="0 0 1065 1785" width="1065px" zoomAndPan="magnify"><defs/><g><text fill="#000000" font-family="sans-serif" font-size="14" font-weight="bold" lengthAdjust="spacing" textLength="300" x="384.25" y="29.5332">Complete (End-To-End) - CONTAINER level)</text><rect fill="#FFFFFF" height="1728.1484" style="stroke:#181818;stroke-width:0.5;" width="624.5" x="101" y="44.6094"/><text fill="#000000" font-family="sans-serif" font-size="13" font-weight="bold" lengthAdjust="spacing" textLength="105" x="360.75" y="58.1045">Internet Banking</text><rect fill="none" height="857.8438" style="stroke:#000000;stroke-width:1.5;" width="1049.5" x="10" y="145.5703"/><rect fill="none" height="48.7031" style="stroke:#000000;stroke-width:1.5;" width="266" x="95" y="201.2734"/><rect fill="none" height="111.4063" style="stroke:#000000;stroke-width:1.5;" width="426.5" x="221" y="294.3281"/><rect fill="none" height="48.7031" style="stroke:#000000;stroke-width:1.5;" width="235.5" x="402" y="350.0313"/><rect fill="none" height="204.4609" style="stroke:#000000;stroke-width:1.5;" width="715.5" x="221" y="450.0859"/><rect fill="none" height="48.7031" style="stroke:#000000;stroke-width:1.5;" width="524.5" x="402" y="505.7891"/><rect fill="none" height="48.7031" style="stroke:#000000;stroke-width:1.5;" width="524.5" x="402" y="598.8438"/><rect fill="none" height="111.4063" style="stroke:#000000;stroke-width:1.5;" width="715.5" x="221" y="698.8984"/><rect fill="none" height="48.7031" style="stroke:#000000;stroke-width:1.5;" width="524.5" x="402" y="754.6016"/><rect fill="none" height="141.7578" style="stroke:#000000;stroke-width:1.5;" width="828.5" x="221" y="854.6563"/><rect fill="none" height="79.0547" style="stroke:#000000;stroke-width:1.5;" width="637.5" x="402" y="910.3594"/><rect fill="none" height="578.6797" style="stroke:#000000;stroke-width:1.5;" width="936.5" x="10" y="1017.4141"/><rect fill="none" height="111.4063" style="stroke:#000000;stroke-width:1.5;" width="339.5" x="392" y="1073.1172"/><rect fill="none" height="48.7031" style="stroke:#000000;stroke-width:1.5;" width="235.5" x="402" y="1128.8203"/><rect fill="none" height="204.4609" style="stroke:#000000;stroke-width:1.5;" width="544.5" x="392" y="1228.875"/><rect fill="none" height="48.7031" style="stroke:#000000;stroke-width:1.5;" width="524.5" x="402" y="1284.5781"/><rect fill="none" height="48.7031" style="stroke:#000000;stroke-width:1.5;" width="524.5" x="402" y="1377.6328"/><rect fill="none" height="111.4063" style="stroke:#000000;stroke-width:1.5;" width="544.5" x="392" y="1477.6875"/><rect fill="none" height="48.7031" style="stroke:#000000;stroke-width:1.5;" width="524.5" x="402" y="1533.3906"/><rect fill="none" height="79.0547" style="stroke:#000000;stroke-width:1.5;" width="1029.5" x="10" y="1610.0938"/><line style="stroke:#181818;stroke-width:0.5;stroke-dasharray:5.0,5.0;" x1="57" x2="57" y1="128.5703" y2="1706.1484"/><line style="stroke:#181818;stroke-width:0.5;stroke-dasharray:5.0,5.0;" x1="163" x2="163" y1="128.5703" y2="1706.1484"/><line style="stroke:#181818;stroke-width:0.5;stroke-dasharray:5.0,5.0;" x1="291" x2="291" y1="128.5703" y2="1706.1484"/><line style="stroke:#181818;stroke-width:0.5;stroke-dasharray:5.0,5.0;" x1="466" x2="466" y1="128.5703" y2="1706.1484"/><line style="stroke:#181818;stroke-width:0.5;stroke-dasharray:5.0,5.0;" x1="593.5" x2="593.5" y1="128.5703" y2="1706.1484"/><line style="stroke:#181818;stroke-width:0.5;stroke-dasharray:5.0,5.0;" x1="679.5" x2="679.5" y1="128.5703" y2="1706.1484"/><line style="stroke:#181818;stroke-width:0.5;stroke-dasharray:5.0,5.0;" x1="823.5" x2="823.5" y1="128.5703" y2="1706.1484"/><line style="stroke:#181818;stroke-width:0.5;stroke-dasharray:5.0,5.0;" x1="977.5" x2="977.5" y1="128.5703" y2="1706.1484"/><rect fill="#E2E2F0" height="31.6094" rx="2.5" ry="2.5" style="stroke:#181818;stroke-width:0.5;" width="75" x="20" y="95.9609"/><text fill="#000000" font-family="sans-serif" font-size="14" lengthAdjust="spacing" textLength="61" x="27" y="117.4941">Customer</text><rect fill="#E2E2F0" height="31.6094" rx="2.5" ry="2.5" style="stroke:#181818;stroke-width:0.5;" width="75" x="20" y="1705.1484"/><text fill="#000000" font-family="sans-serif" font-size="14" lengthAdjust="spacing" textLength="61" x="27" y="1726.6816">Customer</text><rect fill="#E2E2F0" height="31.6094" rx="2.5" ry="2.5" style="stroke:#181818;stroke-width:0.5;" width="116" x="105" y="95.9609"/><text fill="#000000" font-family="sans-serif" font-size="14" lengthAdjust="spacing" textLength="102" x="112" y="117.4941">Web Application</text><rect fill="#E2E2F0" height="31.6094" rx="2.5" ry="2.5" style="stroke:#181818;stroke-width:0.5;" width="116" x="105" y="1705.1484"/><text fill="#000000" font-family="sans-serif" font-size="14" lengthAdjust="spacing" textLength="102" x="112" y="1726.6816">Web Application</text><rect fill="#E2E2F0" height="31.6094" rx="2.5" ry="2.5" style="stroke:#181818;stroke-width:0.5;" width="120" x="231" y="95.9609"/><text fill="#000000" font-family="sans-serif" font-size="14" lengthAdjust="spacing" textLength="106" x="238" y="117.4941">Single-Page App</text><rect fill="#E2E2F0" height="31.6094" rx="2.5" ry="2.5" style="stroke:#181818;stroke-width:0.5;" width="120" x="231" y="1705.1484"/><text fill="#000000" font-family="sans-serif" font-size="14" lengthAdjust="spacing" textLength="106" x="238" y="1726.6816">Single-Page App</text><rect fill="#E2E2F0" height="31.6094" rx="2.5" ry="2.5" style="stroke:#181818;stroke-width:0.5;" width="108" x="412" y="95.9609"/><text fill="#000000" font-family="sans-serif" font-size="14" lengthAdjust="spacing" textLength="94" x="419" y="117.4941">API Application</text><rect fill="#E2E2F0" height="31.6094" rx="2.5" ry="2.5" style="stroke:#181818;stroke-width:0.5;" width="108" x="412" y="1705.1484"/><text fill="#000000" font-family="sans-serif" font-size="14" lengthAdjust="spacing" textLength="94" x="419" y="1726.6816">API Application</text><text fill="#000000" font-family="sans-serif" font-size="14" lengthAdjust="spacing" textLength="61" x="560.5" y="125.4941">Database</text><path d="M576,74.9609 C576,64.9609 594,64.9609 594,64.9609 C594,64.9609 612,64.9609 612,74.9609 L612,100.9609 C612,110.9609 594,110.9609 594,110.9609 C594,110.9609 576,110.9609 576,100.9609 L576,74.9609 " fill="#E2E2F0" style="stroke:#181818;stroke-width:1.5;"/><path d="M576,74.9609 C576,84.9609 594,84.9609 594,84.9609 C594,84.9609 612,84.9609 612,74.9609 " fill="none" style="stroke:#181818;stroke-width:1.5;"/><text fill="#000000" font-family="sans-serif" font-size="14" lengthAdjust="spacing" textLength="61" x="560.5" y="1719.6816">Database</text><path d="M576,1732.7578 C576,1722.7578 594,1722.7578 594,1722.7578 C594,1722.7578 612,1722.7578 612,1732.7578 L612,1758.7578 C612,1768.7578 594,1768.7578 594,1768.7578 C594,1768.7578 576,1768.7578 576,1758.7578 L576,1732.7578 " fill="#E2E2F0" style="stroke:#181818;stroke-width:1.5;"/><path d="M576,1732.7578 C576,1742.7578 594,1742.7578 594,1742.7578 C594,1742.7578 612,1742.7578 612,1732.7578 " fill="none" style="stroke:#181818;stroke-width:1.5;"/><rect fill="#E2E2F0" height="31.6094" rx="2.5" ry="2.5" style="stroke:#181818;stroke-width:0.5;" width="84" x="637.5" y="95.9609"/><text fill="#000000" font-family="sans-serif" font-size="14" lengthAdjust="spacing" textLength="70" x="644.5" y="117.4941">Mobile App</text><rect fill="#E2E2F0" height="31.6094" rx="2.5" ry="2.5" style="stroke:#181818;stroke-width:0.5;" width="84" x="637.5" y="1705.1484"/><text fill="#000000" font-family="sans-serif" font-size="14" lengthAdjust="spacing" textLength="70" x="644.5" y="1726.6816">Mobile App</text><rect fill="#E2E2F0" height="31.6094" rx="2.5" ry="2.5" style="stroke:#181818;stroke-width:0.5;" width="185" x="731.5" y="95.9609"/><text fill="#000000" font-family="sans-serif" font-size="14" lengthAdjust="spacing" textLength="171" x="738.5" y="117.4941">Mainframe Banking System</text><rect fill="#E2E2F0" height="31.6094" rx="2.5" ry="2.5" style="stroke:#181818;stroke-width:0.5;" width="185" x="731.5" y="1705.1484"/><text fill="#000000" font-family="sans-serif" font-size="14" lengthAdjust="spacing" textLength="171" x="738.5" y="1726.6816">Mainframe Banking System</text><rect fill="#E2E2F0" height="31.6094" rx="2.5" ry="2.5" style="stroke:#181818;stroke-width:0.5;" width="103" x="926.5" y="95.9609"/><text fill="#000000" font-family="sans-serif" font-size="14" lengthAdjust="spacing" textLength="89" x="933.5" y="117.4941">E-Mail System</text><rect fill="#E2E2F0" height="31.6094" rx="2.5" ry="2.5" style="stroke:#181818;stroke-width:0.5;" width="103" x="926.5" y="1705.1484"/><text fill="#000000" font-family="sans-serif" font-size="14" lengthAdjust="spacing" textLength="89" x="933.5" y="1726.6816">E-Mail System</text><path d="M10,145.5703 L264,145.5703 L264,153.9219 L254,163.9219 L10,163.9219 L10,145.5703 " fill="#EEEEEE" style="stroke:#000000;stroke-width:1.5;"/><rect fill="none" height="857.8438" style="stroke:#000000;stroke-width:1.5;" width="1049.5" x="10" y="145.5703"/><text fill="#000000" font-family="sans-serif" font-size="13" font-weight="bold" lengthAdjust="spacing" textLength="209" x="25" y="160.0654">Customer - Banking via Web App</text><polygon fill="#181818" points="151,182.2734,161,186.2734,151,190.2734,155,186.2734" style="stroke:#181818;stroke-width:1.0;"/><line style="stroke:#181818;stroke-width:1.0;" x1="57.5" x2="157" y1="186.2734" y2="186.2734"/><text fill="#000000" font-family="sans-serif" font-size="13" lengthAdjust="spacing" textLength="49" x="64.5" y="181.417">Navigate</text><path d="M95,201.2734 L196,201.2734 L196,209.625 L186,219.625 L95,219.625 L95,201.2734 " fill="#EEEEEE" style="stroke:#000000;stroke-width:1.5;"/><rect fill="none" height="48.7031" style="stroke:#000000;stroke-width:1.5;" width="266" x="95" y="201.2734"/><text fill="#000000" font-family="sans-serif" font-size="13" font-weight="bold" lengthAdjust="spacing" textLength="56" x="110" y="215.7686">Navigate</text><polygon fill="#181818" points="279,237.9766,289,241.9766,279,245.9766,283,241.9766" style="stroke:#181818;stroke-width:1.0;"/><line style="stroke:#181818;stroke-width:1.0;" x1="163" x2="285" y1="241.9766" y2="241.9766"/><text fill="#000000" font-family="sans-serif" font-size="13" lengthAdjust="spacing" textLength="87" x="170" y="237.1201">Load And Start</text><polygon fill="#181818" points="279,275.3281,289,279.3281,279,283.3281,283,279.3281" style="stroke:#181818;stroke-width:1.0;"/><line style="stroke:#181818;stroke-width:1.0;" x1="57.5" x2="285" y1="279.3281" y2="279.3281"/><text fill="#000000" font-family="sans-serif" font-size="13" lengthAdjust="spacing" textLength="40" x="64.5" y="274.4717">Sign In</text><path d="M221,294.3281 L311,294.3281 L311,302.6797 L301,312.6797 L221,312.6797 L221,294.3281 " fill="#EEEEEE" style="stroke:#000000;stroke-width:1.5;"/><rect fill="none" height="111.4063" style="stroke:#000000;stroke-width:1.5;" width="426.5" x="221" y="294.3281"/><text fill="#000000" font-family="sans-serif" font-size="13" font-weight="bold" lengthAdjust="spacing" textLength="45" x="236" y="308.8232">Sign In</text><polygon fill="#181818" points="454,331.0313,464,335.0313,454,339.0313,458,335.0313" style="stroke:#181818;stroke-width:1.0;"/><line style="stroke:#181818;stroke-width:1.0;" x1="291" x2="460" y1="335.0313" y2="335.0313"/><text fill="#000000" font-family="sans-serif" font-size="13" lengthAdjust="spacing" textLength="40" x="298" y="330.1748">Sign In</text><path d="M402,350.0313 L492,350.0313 L492,358.3828 L482,368.3828 L402,368.3828 L402,350.0313 " fill="#EEEEEE" style="stroke:#000000;stroke-width:1.5;"/><rect fill="none" height="48.7031" style="stroke:#000000;stroke-width:1.5;" width="235.5" x="402" y="350.0313"/><text fill="#000000" font-family="sans-serif" font-size="13" font-weight="bold" lengthAdjust="spacing" textLength="45" x="417" y="364.5264">Sign In</text><polygon fill="#181818" points="582,386.7344,592,390.7344,582,394.7344,586,390.7344" style="stroke:#181818;stroke-width:1.0;"/><line style="stroke:#181818;stroke-width:1.0;" x1="466" x2="588" y1="390.7344" y2="390.7344"/><text fill="#000000" font-family="sans-serif" font-size="13" lengthAdjust="spacing" textLength="104" x="473" y="385.8779">Authenticate User</text><polygon fill="#181818" points="279,431.0859,289,435.0859,279,439.0859,283,435.0859" style="stroke:#181818;stroke-width:1.0;"/><line style="stroke:#181818;stroke-width:1.0;" x1="57.5" x2="285" y1="435.0859" y2="435.0859"/><text fill="#000000" font-family="sans-serif" font-size="13" lengthAdjust="spacing" textLength="132" x="64.5" y="430.2295">View Customer Details</text><path d="M221,450.0859 L409,450.0859 L409,458.4375 L399,468.4375 L221,468.4375 L221,450.0859 " fill="#EEEEEE" style="stroke:#000000;stroke-width:1.5;"/><rect fill="none" height="204.4609" style="stroke:#000000;stroke-width:1.5;" width="715.5" x="221" y="450.0859"/><text fill="#000000" font-family="sans-serif" font-size="13" font-weight="bold" lengthAdjust="spacing" textLength="143" x="236" y="464.5811">View Customer Details</text><polygon fill="#181818" points="454,486.7891,464,490.7891,454,494.7891,458,490.7891" style="stroke:#181818;stroke-width:1.0;"/><line style="stroke:#181818;stroke-width:1.0;" x1="291" x2="460" y1="490.7891" y2="490.7891"/><text fill="#000000" font-family="sans-serif" font-size="13" lengthAdjust="spacing" textLength="81" x="298" y="485.9326">Get Customer</text><path d="M402,505.7891 L533,505.7891 L533,514.1406 L523,524.1406 L402,524.1406 L402,505.7891 " fill="#EEEEEE" style="stroke:#000000;stroke-width:1.5;"/><rect fill="none" height="48.7031" style="stroke:#000000;stroke-width:1.5;" width="524.5" x="402" y="505.7891"/><text fill="#000000" font-family="sans-serif" font-size="13" font-weight="bold" lengthAdjust="spacing" textLength="86" x="417" y="520.2842">Get Customer</text><polygon fill="#181818" points="812,542.4922,822,546.4922,812,550.4922,816,546.4922" style="stroke:#181818;stroke-width:1.0;"/><line style="stroke:#181818;stroke-width:1.0;" x1="466" x2="818" y1="546.4922" y2="546.4922"/><text fill="#000000" font-family="sans-serif" font-size="13" lengthAdjust="spacing" textLength="81" x="473" y="541.6357">Get Customer</text><polygon fill="#181818" points="454,579.8438,464,583.8438,454,587.8438,458,583.8438" style="stroke:#181818;stroke-width:1.0;"/><line style="stroke:#181818;stroke-width:1.0;" x1="291" x2="460" y1="583.8438" y2="583.8438"/><text fill="#000000" font-family="sans-serif" font-size="13" lengthAdjust="spacing" textLength="140" x="298" y="578.9873">Get Customer Accounts</text><path d="M402,598.8438 L594,598.8438 L594,607.1953 L584,617.1953 L402,617.1953 L402,598.8438 " fill="#EEEEEE" style="stroke:#000000;stroke-width:1.5;"/><rect fill="none" height="48.7031" style="stroke:#000000;stroke-width:1.5;" width="524.5" x="402" y="598.8438"/><text fill="#000000" font-family="sans-serif" font-size="13" font-weight="bold" lengthAdjust="spacing" textLength="147" x="417" y="613.3389">Get Customer Accounts</text><polygon fill="#181818" points="812,635.5469,822,639.5469,812,643.5469,816,639.5469" style="stroke:#181818;stroke-width:1.0;"/><line style="stroke:#181818;stroke-width:1.0;" x1="466" x2="818" y1="639.5469" y2="639.5469"/><text fill="#000000" font-family="sans-serif" font-size="13" lengthAdjust="spacing" textLength="140" x="473" y="634.6904">Get Customer Accounts</text><polygon fill="#181818" points="279,679.8984,289,683.8984,279,687.8984,283,683.8984" style="stroke:#181818;stroke-width:1.0;"/><line style="stroke:#181818;stroke-width:1.0;" x1="57.5" x2="285" y1="683.8984" y2="683.8984"/><text fill="#000000" font-family="sans-serif" font-size="13" lengthAdjust="spacing" textLength="158" x="64.5" y="679.042">View Account Transactions</text><path d="M221,698.8984 L437,698.8984 L437,707.25 L427,717.25 L221,717.25 L221,698.8984 " fill="#EEEEEE" style="stroke:#000000;stroke-width:1.5;"/><rect fill="none" height="111.4063" style="stroke:#000000;stroke-width:1.5;" width="715.5" x="221" y="698.8984"/><text fill="#000000" font-family="sans-serif" font-size="13" font-weight="bold" lengthAdjust="spacing" textLength="171" x="236" y="713.3936">View Account Transactions</text><polygon fill="#181818" points="454,735.6016,464,739.6016,454,743.6016,458,739.6016" style="stroke:#181818;stroke-width:1.0;"/><line style="stroke:#181818;stroke-width:1.0;" x1="291" x2="460" y1="739.6016" y2="739.6016"/><text fill="#000000" font-family="sans-serif" font-size="13" lengthAdjust="spacing" textLength="151" x="298" y="734.7451">Get Account Transactions</text><path d="M402,754.6016 L608,754.6016 L608,762.9531 L598,772.9531 L402,772.9531 L402,754.6016 " fill="#EEEEEE" style="stroke:#000000;stroke-width:1.5;"/><rect fill="none" height="48.7031" style="stroke:#000000;stroke-width:1.5;" width="524.5" x="402" y="754.6016"/><text fill="#000000" font-family="sans-serif" font-size="13" font-weight="bold" lengthAdjust="spacing" textLength="161" x="417" y="769.0967">Get Account Transactions</text><polygon fill="#181818" points="812,791.3047,822,795.3047,812,799.3047,816,795.3047" style="stroke:#181818;stroke-width:1.0;"/><line style="stroke:#181818;stroke-width:1.0;" x1="466" x2="818" y1="795.3047" y2="795.3047"/><text fill="#000000" font-family="sans-serif" font-size="13" lengthAdjust="spacing" textLength="151" x="473" y="790.4482">Get Account Transactions</text><polygon fill="#181818" points="279,835.6563,289,839.6563,279,843.6563,283,839.6563" style="stroke:#181818;stroke-width:1.0;"/><line style="stroke:#181818;stroke-width:1.0;" x1="57.5" x2="285" y1="839.6563" y2="839.6563"/><text fill="#000000" font-family="sans-serif" font-size="13" lengthAdjust="spacing" textLength="90" x="64.5" y="834.7998">Create Account</text><path d="M221,854.6563 L363,854.6563 L363,863.0078 L353,873.0078 L221,873.0078 L221,854.6563 " fill="#EEEEEE" style="stroke:#000000;stroke-width:1.5;"/><rect fill="none" height="141.7578" style="stroke:#000000;stroke-width:1.5;" width="828.5" x="221" y="854.6563"/><text fill="#000000" font-family="sans-serif" font-size="13" font-weight="bold" lengthAdjust="spacing" textLength="97" x="236" y="869.1514">Create Account</text><polygon fill="#181818" points="454,891.3594,464,895.3594,454,899.3594,458,895.3594" style="stroke:#181818;stroke-width:1.0;"/><line style="stroke:#181818;stroke-width:1.0;" x1="291" x2="460" y1="895.3594" y2="895.3594"/><text fill="#000000" font-family="sans-serif" font-size="13" lengthAdjust="spacing" textLength="90" x="298" y="890.5029">Create Account</text><path d="M402,910.3594 L544,910.3594 L544,918.7109 L534,928.7109 L402,928.7109 L402,910.3594 " fill="#EEEEEE" style="stroke:#000000;stroke-width:1.5;"/><rect fill="none" height="79.0547" style="stroke:#000000;stroke-width:1.5;" width="637.5" x="402" y="910.3594"/><text fill="#000000" font-family="sans-serif" font-size="13" font-weight="bold" lengthAdjust="spacing" textLength="97" x="417" y="924.8545">Create Account</text><polygon fill="#181818" points="812,947.0625,822,951.0625,812,955.0625,816,951.0625" style="stroke:#181818;stroke-width:1.0;"/><line style="stroke:#181818;stroke-width:1.0;" x1="466" x2="818" y1="951.0625" y2="951.0625"/><text fill="#000000" font-family="sans-serif" font-size="13" lengthAdjust="spacing" textLength="90" x="473" y="946.2061">Create Account</text><polygon fill="#181818" points="966,977.4141,976,981.4141,966,985.4141,970,981.4141" style="stroke:#181818;stroke-width:1.0;"/><line style="stroke:#181818;stroke-width:1.0;" x1="466" x2="972" y1="981.4141" y2="981.4141"/><text fill="#000000" font-family="sans-serif" font-size="13" lengthAdjust="spacing" textLength="269" x="473" y="976.5576">Send New Account Created Notification E-Mail</text><path d="M10,1017.4141 L278,1017.4141 L278,1025.7656 L268,1035.7656 L10,1035.7656 L10,1017.4141 " fill="#EEEEEE" style="stroke:#000000;stroke-width:1.5;"/><rect fill="none" height="578.6797" style="stroke:#000000;stroke-width:1.5;" width="936.5" x="10" y="1017.4141"/><text fill="#000000" font-family="sans-serif" font-size="13" font-weight="bold" lengthAdjust="spacing" textLength="223" x="25" y="1031.9092">Customer - Banking via Mobile App</text><polygon fill="#181818" points="667.5,1054.1172,677.5,1058.1172,667.5,1062.1172,671.5,1058.1172" style="stroke:#181818;stroke-width:1.0;"/><line style="stroke:#181818;stroke-width:1.0;" x1="57.5" x2="673.5" y1="1058.1172" y2="1058.1172"/><text fill="#000000" font-family="sans-serif" font-size="13" lengthAdjust="spacing" textLength="40" x="64.5" y="1053.2607">Sign In</text><path d="M392,1073.1172 L482,1073.1172 L482,1081.4688 L472,1091.4688 L392,1091.4688 L392,1073.1172 " fill="#EEEEEE" style="stroke:#000000;stroke-width:1.5;"/><rect fill="none" height="111.4063" style="stroke:#000000;stroke-width:1.5;" width="339.5" x="392" y="1073.1172"/><text fill="#000000" font-family="sans-serif" font-size="13" font-weight="bold" lengthAdjust="spacing" textLength="45" x="407" y="1087.6123">Sign In</text><polygon fill="#181818" points="477,1109.8203,467,1113.8203,477,1117.8203,473,1113.8203" style="stroke:#181818;stroke-width:1.0;"/><line style="stroke:#181818;stroke-width:1.0;" x1="471" x2="678.5" y1="1113.8203" y2="1113.8203"/><text fill="#000000" font-family="sans-serif" font-size="13" lengthAdjust="spacing" textLength="40" x="483" y="1108.9639">Sign In</text><path d="M402,1128.8203 L492,1128.8203 L492,1137.1719 L482,1147.1719 L402,1147.1719 L402,1128.8203 " fill="#EEEEEE" style="stroke:#000000;stroke-width:1.5;"/><rect fill="none" height="48.7031" style="stroke:#000000;stroke-width:1.5;" width="235.5" x="402" y="1128.8203"/><text fill="#000000" font-family="sans-serif" font-size="13" font-weight="bold" lengthAdjust="spacing" textLength="45" x="417" y="1143.3154">Sign In</text><polygon fill="#181818" points="582,1165.5234,592,1169.5234,582,1173.5234,586,1169.5234" style="stroke:#181818;stroke-width:1.0;"/><line style="stroke:#181818;stroke-width:1.0;" x1="466" x2="588" y1="1169.5234" y2="1169.5234"/><text fill="#000000" font-family="sans-serif" font-size="13" lengthAdjust="spacing" textLength="104" x="473" y="1164.667">Authenticate User</text><polygon fill="#181818" points="667.5,1209.875,677.5,1213.875,667.5,1217.875,671.5,1213.875" style="stroke:#181818;stroke-width:1.0;"/><line style="stroke:#181818;stroke-width:1.0;" x1="57.5" x2="673.5" y1="1213.875" y2="1213.875"/><text fill="#000000" font-family="sans-serif" font-size="13" lengthAdjust="spacing" textLength="132" x="64.5" y="1209.0186">View Customer Details</text><path d="M392,1228.875 L580,1228.875 L580,1237.2266 L570,1247.2266 L392,1247.2266 L392,1228.875 " fill="#EEEEEE" style="stroke:#000000;stroke-width:1.5;"/><rect fill="none" height="204.4609" style="stroke:#000000;stroke-width:1.5;" width="544.5" x="392" y="1228.875"/><text fill="#000000" font-family="sans-serif" font-size="13" font-weight="bold" lengthAdjust="spacing" textLength="143" x="407" y="1243.3701">View Customer Details</text><polygon fill="#181818" points="477,1265.5781,467,1269.5781,477,1273.5781,473,1269.5781" style="stroke:#181818;stroke-width:1.0;"/><line style="stroke:#181818;stroke-width:1.0;" x1="471" x2="678.5" y1="1269.5781" y2="1269.5781"/><text fill="#000000" font-family="sans-serif" font-size="13" lengthAdjust="spacing" textLength="81" x="483" y="1264.7217">Get Customer</text><path d="M402,1284.5781 L533,1284.5781 L533,1292.9297 L523,1302.9297 L402,1302.9297 L402,1284.5781 " fill="#EEEEEE" style="stroke:#000000;stroke-width:1.5;"/><rect fill="none" height="48.7031" style="stroke:#000000;stroke-width:1.5;" width="524.5" x="402" y="1284.5781"/><text fill="#000000" font-family="sans-serif" font-size="13" font-weight="bold" lengthAdjust="spacing" textLength="86" x="417" y="1299.0732">Get Customer</text><polygon fill="#181818" points="812,1321.2813,822,1325.2813,812,1329.2813,816,1325.2813" style="stroke:#181818;stroke-width:1.0;"/><line style="stroke:#181818;stroke-width:1.0;" x1="466" x2="818" y1="1325.2813" y2="1325.2813"/><text fill="#000000" font-family="sans-serif" font-size="13" lengthAdjust="spacing" textLength="81" x="473" y="1320.4248">Get Customer</text><polygon fill="#181818" points="477,1358.6328,467,1362.6328,477,1366.6328,473,1362.6328" style="stroke:#181818;stroke-width:1.0;"/><line style="stroke:#181818;stroke-width:1.0;" x1="471" x2="678.5" y1="1362.6328" y2="1362.6328"/><text fill="#000000" font-family="sans-serif" font-size="13" lengthAdjust="spacing" textLength="140" x="483" y="1357.7764">Get Customer Accounts</text><path d="M402,1377.6328 L594,1377.6328 L594,1385.9844 L584,1395.9844 L402,1395.9844 L402,1377.6328 " fill="#EEEEEE" style="stroke:#000000;stroke-width:1.5;"/><rect fill="none" height="48.7031" style="stroke:#000000;stroke-width:1.5;" width="524.5" x="402" y="1377.6328"/><text fill="#000000" font-family="sans-serif" font-size="13" font-weight="bold" lengthAdjust="spacing" textLength="147" x="417" y="1392.1279">Get Customer Accounts</text><polygon fill="#181818" points="812,1414.3359,822,1418.3359,812,1422.3359,816,1418.3359" style="stroke:#181818;stroke-width:1.0;"/><line style="stroke:#181818;stroke-width:1.0;" x1="466" x2="818" y1="1418.3359" y2="1418.3359"/><text fill="#000000" font-family="sans-serif" font-size="13" lengthAdjust="spacing" textLength="140" x="473" y="1413.4795">Get Customer Accounts</text><polygon fill="#181818" points="667.5,1458.6875,677.5,1462.6875,667.5,1466.6875,671.5,1462.6875" style="stroke:#181818;stroke-width:1.0;"/><line style="stroke:#181818;stroke-width:1.0;" x1="57.5" x2="673.5" y1="1462.6875" y2="1462.6875"/><text fill="#000000" font-family="sans-serif" font-size="13" lengthAdjust="spacing" textLength="158" x="64.5" y="1457.8311">View Account Transactions</text><path d="M392,1477.6875 L608,1477.6875 L608,1486.0391 L598,1496.0391 L392,1496.0391 L392,1477.6875 " fill="#EEEEEE" style="stroke:#000000;stroke-width:1.5;"/><rect fill="none" height="111.4063" style="stroke:#000000;stroke-width:1.5;" width="544.5" x="392" y="1477.6875"/><text fill="#000000" font-family="sans-serif" font-size="13" font-weight="bold" lengthAdjust="spacing" textLength="171" x="407" y="1492.1826">View Account Transactions</text><polygon fill="#181818" points="477,1514.3906,467,1518.3906,477,1522.3906,473,1518.3906" style="stroke:#181818;stroke-width:1.0;"/><line style="stroke:#181818;stroke-width:1.0;" x1="471" x2="678.5" y1="1518.3906" y2="1518.3906"/><text fill="#000000" font-family="sans-serif" font-size="13" lengthAdjust="spacing" textLength="151" x="483" y="1513.5342">Get Account Transactions</text><path d="M402,1533.3906 L608,1533.3906 L608,1541.7422 L598,1551.7422 L402,1551.7422 L402,1533.3906 " fill="#EEEEEE" style="stroke:#000000;stroke-width:1.5;"/><rect fill="none" height="48.7031" style="stroke:#000000;stroke-width:1.5;" width="524.5" x="402" y="1533.3906"/><text fill="#000000" font-family="sans-serif" font-size="13" font-weight="bold" lengthAdjust="spacing" textLength="161" x="417" y="1547.8857">Get Account Transactions</text><polygon fill="#181818" points="812,1570.0938,822,1574.0938,812,1578.0938,816,1574.0938" style="stroke:#181818;stroke-width:1.0;"/><line style="stroke:#181818;stroke-width:1.0;" x1="466" x2="818" y1="1574.0938" y2="1574.0938"/><text fill="#000000" font-family="sans-serif" font-size="13" lengthAdjust="spacing" textLength="151" x="473" y="1569.2373">Get Account Transactions</text><path d="M10,1610.0938 L303,1610.0938 L303,1618.4453 L293,1628.4453 L10,1628.4453 L10,1610.0938 " fill="#EEEEEE" style="stroke:#000000;stroke-width:1.5;"/><rect fill="none" height="79.0547" style="stroke:#000000;stroke-width:1.5;" width="1029.5" x="10" y="1610.0938"/><text fill="#000000" font-family="sans-serif" font-size="13" font-weight="bold" lengthAdjust="spacing" textLength="248" x="25" y="1624.5889">Customer - Receive E-Mail Notifications</text><polygon fill="#181818" points="966,1646.7969,976,1650.7969,966,1654.7969,970,1650.7969" style="stroke:#181818;stroke-width:1.0;"/><line style="stroke:#181818;stroke-width:1.0;" x1="57.5" x2="972" y1="1650.7969" y2="1650.7969"/><text fill="#000000" font-family="sans-serif" font-size="13" lengthAdjust="spacing" textLength="270" x="64.5" y="1645.9404">Receive Password Changed Notification E-Mail</text><polygon fill="#181818" points="966,1677.1484,976,1681.1484,966,1685.1484,970,1681.1484" style="stroke:#181818;stroke-width:1.0;"/><line style="stroke:#181818;stroke-width:1.0;" x1="57.5" x2="972" y1="1681.1484" y2="1681.1484"/><text fill="#000000" font-family="sans-serif" font-size="13" lengthAdjust="spacing" textLength="284" x="64.5" y="1676.292">Receive New Account Created Notification E-Mail</text><!--SRC=[xLR1Zjem4BtdAwRqqZs43-YXKZQBAgGkHGljdeSm1AkE7Ta6kdzVMubX4y9s2qcAsaL2aDXvypnl9lFUvGhJ387ZazmOq1aP51W4XXbE4CiivsG8Fep4CfpBqFxSG0Znryay6az63y1fI_mc279KXYKiHs5W46-qaHcf0Q26MvRUelWnvSamIenKUkYNWs0XVy9WB0mfGGRSDYRI0Rn_N3D30TXF1VUH5X3bEMS96YP57NucLsQ7YcPFsb2cXnwun1t6KXXaWYm5Y_GCw3ZIpExd54un9HVnWaW5aWEoECU1ekcufIDPfFgHbcXmWPfWS5V-km3VGnoVuLuk6ByqJmM8on699TZ2gDNKlTstKfYHBnCeG7yNSlzS-LXnluez2kqk_ah0aTjReWIfafiSV47Rpl3ajWoXBDVWT0T0-AcL0eQFCC4jIz5sJK5fVzaA_DaqAzLlMNwHk8J82ZmpLW0dTIVPgOUTiLJ0M9IvyLTjO9zDiTgkBNEiWPzDqlUyfHTjp9g4SP04txHzUpln-XBmEwFTeStkx91YN9UfQbwxBd4_s_6s7ti5xSgj7cHkVX7MkTK4lRBKGPGaSYECRiZXOUrQadbWr7khb95Xhb1eJDo9AktIk7vzkhzmZ9FBVrlzHb9z5a2ioBsZInxUebHlNfVKtJ5kHzR-gJmpcSuQE4iyUTQs1I5xJngsyeY5YzsNclk-Q4yFjhsJijmR-fQzpG7tpNjrBbnVlgiBKVy3pzLrsjxyrYlQeqUlrPNU_vpFQXn-3vGGsr8vA2l3KvzVAjLHxMDCKUkTL4k8roZI4wEwvPX_uX22Nm00]--></g></svg>