<?xml version="1.0" encoding="us-ascii" standalone="no"?><svg xmlns="http://www.w3.org/2000/svg" xmlns:xlink="http://www.w3.org/1999/xlink" contentStyleType="text/css" height="364px" preserveAspectRatio="none" style="width:823px;height:364px;background:#FFFFFF;" version="1.1" viewBox="0 0 823 364" width="823px" zoomAndPan="magnify"><defs/><g><text fill="#000000" font-family="sans-serif" font-size="14" font-weight="bold" lengthAdjust="spacing" textLength="795" x="10" y="29.5332">E Commerce Platform - Generate Demand - Storefront - Storefront App - View Products - Sequence - Context level</text><rect fill="none" height="187.1094" style="stroke:#000000;stroke-width:1.5;" width="423" x="232.75" y="123.5703"/><rect fill="none" height="124.4063" style="stroke:#000000;stroke-width:1.5;" width="297" x="348.75" y="179.2734"/><rect fill="none" height="61.7031" style="stroke:#000000;stroke-width:1.5;" width="179" x="456.75" y="234.9766"/><line style="stroke:#181818;stroke-width:0.5;stroke-dasharray:5.0,5.0;" x1="187.25" x2="187.25" y1="76.2188" y2="327.6797"/><line style="stroke:#181818;stroke-width:0.5;stroke-dasharray:5.0,5.0;" x1="295.75" x2="295.75" y1="76.2188" y2="327.6797"/><line style="stroke:#181818;stroke-width:0.5;stroke-dasharray:5.0,5.0;" x1="407.75" x2="407.75" y1="76.2188" y2="327.6797"/><line style="stroke:#181818;stroke-width:0.5;stroke-dasharray:5.0,5.0;" x1="523.75" x2="523.75" y1="76.2188" y2="327.6797"/><rect fill="#E2E2F0" height="31.6094" rx="2.5" ry="2.5" style="stroke:#181818;stroke-width:0.5;" width="65" x="155.25" y="43.6094"/><text fill="#000000" font-family="sans-serif" font-size="14" lengthAdjust="spacing" textLength="51" x="162.25" y="65.1426">External</text><rect fill="#E2E2F0" height="31.6094" rx="2.5" ry="2.5" style="stroke:#181818;stroke-width:0.5;" width="65" x="155.25" y="326.6797"/><text fill="#000000" font-family="sans-serif" font-size="14" lengthAdjust="spacing" textLength="51" x="162.25" y="348.2129">External</text><rect fill="#E2E2F0" height="31.6094" rx="2.5" ry="2.5" style="stroke:#181818;stroke-width:0.5;" width="106" x="242.75" y="43.6094"/><text fill="#000000" font-family="sans-serif" font-size="14" lengthAdjust="spacing" textLength="92" x="249.75" y="65.1426">Storefront App</text><rect fill="#E2E2F0" height="31.6094" rx="2.5" ry="2.5" style="stroke:#181818;stroke-width:0.5;" width="106" x="242.75" y="326.6797"/><text fill="#000000" font-family="sans-serif" font-size="14" lengthAdjust="spacing" textLength="92" x="249.75" y="348.2129">Storefront App</text><rect fill="#E2E2F0" height="31.6094" rx="2.5" ry="2.5" style="stroke:#181818;stroke-width:0.5;" width="98" x="358.75" y="43.6094"/><text fill="#000000" font-family="sans-serif" font-size="14" lengthAdjust="spacing" textLength="84" x="365.75" y="65.1426">Storefront Bff</text><rect fill="#E2E2F0" height="31.6094" rx="2.5" ry="2.5" style="stroke:#181818;stroke-width:0.5;" width="98" x="358.75" y="326.6797"/><text fill="#000000" font-family="sans-serif" font-size="14" lengthAdjust="spacing" textLength="84" x="365.75" y="348.2129">Storefront Bff</text><rect fill="#E2E2F0" height="31.6094" rx="2.5" ry="2.5" style="stroke:#181818;stroke-width:0.5;" width="114" x="466.75" y="43.6094"/><text fill="#000000" font-family="sans-serif" font-size="14" lengthAdjust="spacing" textLength="100" x="473.75" y="65.1426">Product Service</text><rect fill="#E2E2F0" height="31.6094" rx="2.5" ry="2.5" style="stroke:#181818;stroke-width:0.5;" width="114" x="466.75" y="326.6797"/><text fill="#000000" font-family="sans-serif" font-size="14" lengthAdjust="spacing" textLength="100" x="473.75" y="348.2129">Product Service</text><polygon fill="#181818" points="283.75,104.5703,293.75,108.5703,283.75,112.5703,287.75,108.5703" style="stroke:#181818;stroke-width:1.0;"/><line style="stroke:#181818;stroke-width:1.0;" x1="187.75" x2="289.75" y1="108.5703" y2="108.5703"/><text fill="#000000" font-family="sans-serif" font-size="13" lengthAdjust="spacing" textLength="84" x="194.75" y="103.7139">View Products</text><path d="M232.75,123.5703 L368.75,123.5703 L368.75,131.9219 L358.75,141.9219 L232.75,141.9219 L232.75,123.5703 " fill="#EEEEEE" style="stroke:#000000;stroke-width:1.5;"/><rect fill="none" height="187.1094" style="stroke:#000000;stroke-width:1.5;" width="423" x="232.75" y="123.5703"/><text fill="#000000" font-family="sans-serif" font-size="13" font-weight="bold" lengthAdjust="spacing" textLength="91" x="247.75" y="138.0654">View Products</text><polygon fill="#181818" points="395.75,160.2734,405.75,164.2734,395.75,168.2734,399.75,164.2734" style="stroke:#181818;stroke-width:1.0;"/><line style="stroke:#181818;stroke-width:1.0;" x1="295.75" x2="401.75" y1="164.2734" y2="164.2734"/><text fill="#000000" font-family="sans-serif" font-size="13" lengthAdjust="spacing" textLength="77" x="302.75" y="159.417">Get Products</text><path d="M348.75,179.2734 L474.75,179.2734 L474.75,187.625 L464.75,197.625 L348.75,197.625 L348.75,179.2734 " fill="#EEEEEE" style="stroke:#000000;stroke-width:1.5;"/><rect fill="none" height="124.4063" style="stroke:#000000;stroke-width:1.5;" width="297" x="348.75" y="179.2734"/><text fill="#000000" font-family="sans-serif" font-size="13" font-weight="bold" lengthAdjust="spacing" textLength="81" x="363.75" y="193.7686">Get Products</text><polygon fill="#181818" points="511.75,215.9766,521.75,219.9766,511.75,223.9766,515.75,219.9766" style="stroke:#181818;stroke-width:1.0;"/><line style="stroke:#181818;stroke-width:1.0;" x1="407.75" x2="517.75" y1="219.9766" y2="219.9766"/><text fill="#000000" font-family="sans-serif" font-size="13" lengthAdjust="spacing" textLength="77" x="414.75" y="215.1201">Get Products</text><path d="M456.75,234.9766 L582.75,234.9766 L582.75,243.3281 L572.75,253.3281 L456.75,253.3281 L456.75,234.9766 " fill="#EEEEEE" style="stroke:#000000;stroke-width:1.5;"/><rect fill="none" height="61.7031" style="stroke:#000000;stroke-width:1.5;" width="179" x="456.75" y="234.9766"/><text fill="#000000" font-family="sans-serif" font-size="13" font-weight="bold" lengthAdjust="spacing" textLength="81" x="471.75" y="249.4717">Get Products</text><line style="stroke:#181818;stroke-width:1.0;" x1="523.75" x2="565.75" y1="275.6797" y2="275.6797"/><line style="stroke:#181818;stroke-width:1.0;" x1="565.75" x2="565.75" y1="275.6797" y2="288.6797"/><line style="stroke:#181818;stroke-width:1.0;" x1="524.75" x2="565.75" y1="288.6797" y2="288.6797"/><polygon fill="#181818" points="534.75,284.6797,524.75,288.6797,534.75,292.6797,530.75,288.6797" style="stroke:#181818;stroke-width:1.0;"/><text fill="#000000" font-family="sans-serif" font-size="13" lengthAdjust="spacing" textLength="93" x="530.75" y="270.8232">Select Products</text><!--SRC=[jPBDQiCm48JlVWgHkttggOT2wxeXXqB0qBjmna6W7sUzZjEtxwQncofDe1JrO8HMg_bcLcR35gfIPN0Er42jhUOsa5EvMiA3D4Czmsc_aKhDWT1Iy1nl7hjE2cy6erfJs0mDzyS6x0PuqSn5tZCEh2psi5dMQMBJc4xBtKLrO93NTg5qhygxbNJIYmrZKOUMHqsettk6wukvyRIFHM8pdrBLd6cELCo1JdcAyvqVgFEHgDqaFRLjGfAenQHfb397sfi6Dr0bGK1JRp6jAtyyqso2VzLUR-5mXJqrJ_fPzllXg_mXtNpLVVphP5iAGtTHIqTBPbqUJAmlmPVEer8wrbNZoPx_Jr7IqVyzN0sBvbiO-CtNbtq0]--></g></svg>