<?xml version="1.0" encoding="us-ascii" standalone="no"?><svg xmlns="http://www.w3.org/2000/svg" xmlns:xlink="http://www.w3.org/1999/xlink" contentStyleType="text/css" height="446px" preserveAspectRatio="none" style="width:837px;height:446px;background:#FFFFFF;" version="1.1" viewBox="0 0 837 446" width="837px" zoomAndPan="magnify"><defs/><g><text fill="#000000" font-family="sans-serif" font-size="14" font-weight="bold" lengthAdjust="spacing" textLength="809" x="10" y="29.5332">E Commerce Platform - Generate Demand - Storefront - Storefront App - View Products - Sequence - Container level</text><rect fill="#FFFFFF" height="389.0313" style="stroke:#181818;stroke-width:0.5;" width="175.5" x="478" y="44.6094"/><text fill="#000000" font-family="sans-serif" font-size="13" font-weight="bold" lengthAdjust="spacing" textLength="101" x="515.25" y="58.1045">Product Service</text><rect fill="none" height="174.1094" style="stroke:#000000;stroke-width:1.5;" width="456.5" x="223" y="175.9219"/><rect fill="none" height="111.4063" style="stroke:#000000;stroke-width:1.5;" width="330.5" x="339" y="231.625"/><rect fill="none" height="48.7031" style="stroke:#000000;stroke-width:1.5;" width="187.5" x="472" y="287.3281"/><line style="stroke:#181818;stroke-width:0.5;stroke-dasharray:5.0,5.0;" x1="177.5" x2="177.5" y1="128.5703" y2="367.0313"/><line style="stroke:#181818;stroke-width:0.5;stroke-dasharray:5.0,5.0;" x1="286" x2="286" y1="128.5703" y2="367.0313"/><line style="stroke:#181818;stroke-width:0.5;stroke-dasharray:5.0,5.0;" x1="398" x2="398" y1="128.5703" y2="367.0313"/><line style="stroke:#181818;stroke-width:0.5;stroke-dasharray:5.0,5.0;" x1="499" x2="499" y1="128.5703" y2="367.0313"/><line style="stroke:#181818;stroke-width:0.5;stroke-dasharray:5.0,5.0;" x1="615.5" x2="615.5" y1="128.5703" y2="367.0313"/><rect fill="#E2E2F0" height="31.6094" rx="2.5" ry="2.5" style="stroke:#181818;stroke-width:0.5;" width="65" x="145.5" y="95.9609"/><text fill="#000000" font-family="sans-serif" font-size="14" lengthAdjust="spacing" textLength="51" x="152.5" y="117.4941">External</text><rect fill="#E2E2F0" height="31.6094" rx="2.5" ry="2.5" style="stroke:#181818;stroke-width:0.5;" width="65" x="145.5" y="366.0313"/><text fill="#000000" font-family="sans-serif" font-size="14" lengthAdjust="spacing" textLength="51" x="152.5" y="387.5645">External</text><rect fill="#E2E2F0" height="31.6094" rx="2.5" ry="2.5" style="stroke:#181818;stroke-width:0.5;" width="106" x="233" y="95.9609"/><text fill="#000000" font-family="sans-serif" font-size="14" lengthAdjust="spacing" textLength="92" x="240" y="117.4941">Storefront App</text><rect fill="#E2E2F0" height="31.6094" rx="2.5" ry="2.5" style="stroke:#181818;stroke-width:0.5;" width="106" x="233" y="366.0313"/><text fill="#000000" font-family="sans-serif" font-size="14" lengthAdjust="spacing" textLength="92" x="240" y="387.5645">Storefront App</text><rect fill="#E2E2F0" height="31.6094" rx="2.5" ry="2.5" style="stroke:#181818;stroke-width:0.5;" width="98" x="349" y="95.9609"/><text fill="#000000" font-family="sans-serif" font-size="14" lengthAdjust="spacing" textLength="84" x="356" y="117.4941">Storefront Bff</text><rect fill="#E2E2F0" height="31.6094" rx="2.5" ry="2.5" style="stroke:#181818;stroke-width:0.5;" width="98" x="349" y="366.0313"/><text fill="#000000" font-family="sans-serif" font-size="14" lengthAdjust="spacing" textLength="84" x="356" y="387.5645">Storefront Bff</text><rect fill="#E2E2F0" height="31.6094" rx="2.5" ry="2.5" style="stroke:#181818;stroke-width:0.5;" width="34" x="482" y="95.9609"/><text fill="#000000" font-family="sans-serif" font-size="14" lengthAdjust="spacing" textLength="20" x="489" y="117.4941">Api</text><rect fill="#E2E2F0" height="31.6094" rx="2.5" ry="2.5" style="stroke:#181818;stroke-width:0.5;" width="34" x="482" y="366.0313"/><text fill="#000000" font-family="sans-serif" font-size="14" lengthAdjust="spacing" textLength="20" x="489" y="387.5645">Api</text><text fill="#000000" font-family="sans-serif" font-size="14" lengthAdjust="spacing" textLength="61" x="582.5" y="125.4941">Database</text><path d="M598,74.9609 C598,64.9609 616,64.9609 616,64.9609 C616,64.9609 634,64.9609 634,74.9609 L634,100.9609 C634,110.9609 616,110.9609 616,110.9609 C616,110.9609 598,110.9609 598,100.9609 L598,74.9609 " fill="#E2E2F0" style="stroke:#181818;stroke-width:1.5;"/><path d="M598,74.9609 C598,84.9609 616,84.9609 616,84.9609 C616,84.9609 634,84.9609 634,74.9609 " fill="none" style="stroke:#181818;stroke-width:1.5;"/><text fill="#000000" font-family="sans-serif" font-size="14" lengthAdjust="spacing" textLength="61" x="582.5" y="380.5645">Database</text><path d="M598,393.6406 C598,383.6406 616,383.6406 616,383.6406 C616,383.6406 634,383.6406 634,393.6406 L634,419.6406 C634,429.6406 616,429.6406 616,429.6406 C616,429.6406 598,429.6406 598,419.6406 L598,393.6406 " fill="#E2E2F0" style="stroke:#181818;stroke-width:1.5;"/><path d="M598,393.6406 C598,403.6406 616,403.6406 616,403.6406 C616,403.6406 634,403.6406 634,393.6406 " fill="none" style="stroke:#181818;stroke-width:1.5;"/><polygon fill="#181818" points="274,156.9219,284,160.9219,274,164.9219,278,160.9219" style="stroke:#181818;stroke-width:1.0;"/><line style="stroke:#181818;stroke-width:1.0;" x1="178" x2="280" y1="160.9219" y2="160.9219"/><text fill="#000000" font-family="sans-serif" font-size="13" lengthAdjust="spacing" textLength="84" x="185" y="156.0654">View Products</text><path d="M223,175.9219 L359,175.9219 L359,184.2734 L349,194.2734 L223,194.2734 L223,175.9219 " fill="#EEEEEE" style="stroke:#000000;stroke-width:1.5;"/><rect fill="none" height="174.1094" style="stroke:#000000;stroke-width:1.5;" width="456.5" x="223" y="175.9219"/><text fill="#000000" font-family="sans-serif" font-size="13" font-weight="bold" lengthAdjust="spacing" textLength="91" x="238" y="190.417">View Products</text><polygon fill="#181818" points="386,212.625,396,216.625,386,220.625,390,216.625" style="stroke:#181818;stroke-width:1.0;"/><line style="stroke:#181818;stroke-width:1.0;" x1="286" x2="392" y1="216.625" y2="216.625"/><text fill="#000000" font-family="sans-serif" font-size="13" lengthAdjust="spacing" textLength="77" x="293" y="211.7686">Get Products</text><path d="M339,231.625 L465,231.625 L465,239.9766 L455,249.9766 L339,249.9766 L339,231.625 " fill="#EEEEEE" style="stroke:#000000;stroke-width:1.5;"/><rect fill="none" height="111.4063" style="stroke:#000000;stroke-width:1.5;" width="330.5" x="339" y="231.625"/><text fill="#000000" font-family="sans-serif" font-size="13" font-weight="bold" lengthAdjust="spacing" textLength="81" x="354" y="246.1201">Get Products</text><polygon fill="#181818" points="487,268.3281,497,272.3281,487,276.3281,491,272.3281" style="stroke:#181818;stroke-width:1.0;"/><line style="stroke:#181818;stroke-width:1.0;" x1="398" x2="493" y1="272.3281" y2="272.3281"/><text fill="#000000" font-family="sans-serif" font-size="13" lengthAdjust="spacing" textLength="77" x="405" y="267.4717">Get Products</text><path d="M472,287.3281 L598,287.3281 L598,295.6797 L588,305.6797 L472,305.6797 L472,287.3281 " fill="#EEEEEE" style="stroke:#000000;stroke-width:1.5;"/><rect fill="none" height="48.7031" style="stroke:#000000;stroke-width:1.5;" width="187.5" x="472" y="287.3281"/><text fill="#000000" font-family="sans-serif" font-size="13" font-weight="bold" lengthAdjust="spacing" textLength="81" x="487" y="301.8232">Get Products</text><polygon fill="#181818" points="604,324.0313,614,328.0313,604,332.0313,608,328.0313" style="stroke:#181818;stroke-width:1.0;"/><line style="stroke:#181818;stroke-width:1.0;" x1="499" x2="610" y1="328.0313" y2="328.0313"/><text fill="#000000" font-family="sans-serif" font-size="13" lengthAdjust="spacing" textLength="93" x="506" y="323.1748">Select Products</text><!--SRC=[lLDBRy8m3BxdLrZTcPnsuZ29GOSuJ4Agj9rDSLcaFBhK1VRlPw25bO4qJOLALMF7-HwkmuOjGGhZu1p5d61kaOiG7GnWIfuYCi647FgbP38EaOeOF7U3KLbAuitG1kOnBEkSgrq1VTRa1NCWy9xH21nOMfDLgiJ89ZSbokaatJ95ZpO1h63yEFCIljYmqLaeU8EHig-AoLMwBJp4NP2kd3rKshfgJUdMqi6HFftvHNNQ4hIhJCz5qIEJe2cr25j8cYvA2-FQv9J0m_k7OL8WJqVBg3HN18mZ2Nq3f9llpE_sa4tmh-XnHOukA6gA6t9z_7cL5hgzXYKoBh0YI2RDwfugMav5CfNIBwNKtwS61a_z3GOCkrElLZ7KvLckFxRUfCkaYVGfyRdoJge_hel2RpMX_t9sCp7tizvU2_6VaQNyXr-vACTNVGC0]--></g></svg>