<?xml version="1.0" encoding="us-ascii" standalone="no"?><svg xmlns="http://www.w3.org/2000/svg" xmlns:xlink="http://www.w3.org/1999/xlink" contentStyleType="text/css" height="414px" preserveAspectRatio="none" style="width:595px;height:414px;background:#FFFFFF;" version="1.1" viewBox="0 0 595 414" width="595px" zoomAndPan="magnify"><defs/><g><text fill="#000000" font-family="sans-serif" font-size="14" font-weight="bold" lengthAdjust="spacing" textLength="567" x="10" y="29.5332">Catalog Api - Api - Catalog Api - Get Items By Name - Sequence - Component level</text><rect fill="#FFFFFF" height="364.0313" style="stroke:#181818;stroke-width:0.5;" width="95" x="202" y="44.6094"/><text fill="#000000" font-family="sans-serif" font-size="13" font-weight="bold" lengthAdjust="spacing" textLength="21" x="239" y="58.1045">Api</text><rect fill="#FFFFFF" height="364.0313" style="stroke:#181818;stroke-width:0.5;" width="123" x="376" y="44.6094"/><text fill="#000000" font-family="sans-serif" font-size="13" font-weight="bold" lengthAdjust="spacing" textLength="84" x="395.5" y="58.1045">Infrastructure</text><rect fill="none" height="211.1094" style="stroke:#000000;stroke-width:1.5;" width="319" x="186" y="144.9219"/><rect fill="none" height="61.7031" style="stroke:#000000;stroke-width:1.5;" width="202" x="196" y="243.9766"/><line style="stroke:#181818;stroke-width:0.5;stroke-dasharray:5.0,5.0;" x1="110" x2="110" y1="97.5703" y2="373.0313"/><line style="stroke:#181818;stroke-width:0.5;stroke-dasharray:5.0,5.0;" x1="249" x2="249" y1="97.5703" y2="373.0313"/><line style="stroke:#181818;stroke-width:0.5;stroke-dasharray:5.0,5.0;" x1="437" x2="437" y1="97.5703" y2="373.0313"/><rect fill="#E2E2F0" height="31.6094" rx="2.5" ry="2.5" style="stroke:#181818;stroke-width:0.5;" width="65" x="78" y="64.9609"/><text fill="#000000" font-family="sans-serif" font-size="14" lengthAdjust="spacing" textLength="51" x="85" y="86.4941">External</text><rect fill="#E2E2F0" height="31.6094" rx="2.5" ry="2.5" style="stroke:#181818;stroke-width:0.5;" width="65" x="78" y="372.0313"/><text fill="#000000" font-family="sans-serif" font-size="14" lengthAdjust="spacing" textLength="51" x="85" y="393.5645">External</text><rect fill="#E2E2F0" height="31.6094" rx="2.5" ry="2.5" style="stroke:#181818;stroke-width:0.5;" width="87" x="206" y="64.9609"/><text fill="#000000" font-family="sans-serif" font-size="14" lengthAdjust="spacing" textLength="73" x="213" y="86.4941">Catalog Api</text><rect fill="#E2E2F0" height="31.6094" rx="2.5" ry="2.5" style="stroke:#181818;stroke-width:0.5;" width="87" x="206" y="372.0313"/><text fill="#000000" font-family="sans-serif" font-size="14" lengthAdjust="spacing" textLength="73" x="213" y="393.5645">Catalog Api</text><rect fill="#E2E2F0" height="31.6094" rx="2.5" ry="2.5" style="stroke:#181818;stroke-width:0.5;" width="115" x="380" y="64.9609"/><text fill="#000000" font-family="sans-serif" font-size="14" lengthAdjust="spacing" textLength="101" x="387" y="86.4941">Catalog Context</text><rect fill="#E2E2F0" height="31.6094" rx="2.5" ry="2.5" style="stroke:#181818;stroke-width:0.5;" width="115" x="380" y="372.0313"/><text fill="#000000" font-family="sans-serif" font-size="14" lengthAdjust="spacing" textLength="101" x="387" y="393.5645">Catalog Context</text><polygon fill="#181818" points="237.5,125.9219,247.5,129.9219,237.5,133.9219,241.5,129.9219" style="stroke:#181818;stroke-width:1.0;"/><line style="stroke:#181818;stroke-width:1.0;" x1="110.5" x2="243.5" y1="129.9219" y2="129.9219"/><text fill="#000000" font-family="sans-serif" font-size="13" lengthAdjust="spacing" textLength="115" x="117.5" y="125.0654">Get Items By Name</text><path d="M186,144.9219 L352,144.9219 L352,153.2734 L342,163.2734 L186,163.2734 L186,144.9219 " fill="#EEEEEE" style="stroke:#000000;stroke-width:1.5;"/><rect fill="none" height="211.1094" style="stroke:#000000;stroke-width:1.5;" width="319" x="186" y="144.9219"/><text fill="#000000" font-family="sans-serif" font-size="13" font-weight="bold" lengthAdjust="spacing" textLength="121" x="201" y="159.417">Get Items By Name</text><polygon fill="#181818" points="425.5,181.625,435.5,185.625,425.5,189.625,429.5,185.625" style="stroke:#181818;stroke-width:1.0;"/><line style="stroke:#181818;stroke-width:1.0;" x1="249.5" x2="431.5" y1="185.625" y2="185.625"/><text fill="#000000" font-family="sans-serif" font-size="13" lengthAdjust="spacing" textLength="164" x="256.5" y="180.7686">Catalog Items To List Async</text><line style="stroke:#181818;stroke-width:1.0;" x1="249.5" x2="291.5" y1="215.9766" y2="215.9766"/><line style="stroke:#181818;stroke-width:1.0;" x1="291.5" x2="291.5" y1="215.9766" y2="228.9766"/><line style="stroke:#181818;stroke-width:1.0;" x1="250.5" x2="291.5" y1="228.9766" y2="228.9766"/><polygon fill="#181818" points="260.5,224.9766,250.5,228.9766,260.5,232.9766,256.5,228.9766" style="stroke:#181818;stroke-width:1.0;"/><text fill="#000000" font-family="sans-serif" font-size="13" lengthAdjust="spacing" textLength="136" x="256.5" y="211.1201">Change Uri Placeholder</text><path d="M196,243.9766 L393,243.9766 L393,252.3281 L383,262.3281 L196,262.3281 L196,243.9766 " fill="#EEEEEE" style="stroke:#000000;stroke-width:1.5;"/><rect fill="none" height="61.7031" style="stroke:#000000;stroke-width:1.5;" width="202" x="196" y="243.9766"/><text fill="#000000" font-family="sans-serif" font-size="13" font-weight="bold" lengthAdjust="spacing" textLength="152" x="211" y="258.4717">Change Uri Placeholder</text><line style="stroke:#181818;stroke-width:1.0;" x1="249.5" x2="291.5" y1="284.6797" y2="284.6797"/><line style="stroke:#181818;stroke-width:1.0;" x1="291.5" x2="291.5" y1="284.6797" y2="297.6797"/><line style="stroke:#181818;stroke-width:1.0;" x1="250.5" x2="291.5" y1="297.6797" y2="297.6797"/><polygon fill="#181818" points="260.5,293.6797,250.5,297.6797,260.5,301.6797,256.5,297.6797" style="stroke:#181818;stroke-width:1.0;"/><text fill="#000000" font-family="sans-serif" font-size="13" lengthAdjust="spacing" textLength="78" x="256.5" y="279.8232">Retun (items)</text><line style="stroke:#181818;stroke-width:1.0;" x1="249.5" x2="291.5" y1="335.0313" y2="335.0313"/><line style="stroke:#181818;stroke-width:1.0;" x1="291.5" x2="291.5" y1="335.0313" y2="348.0313"/><line style="stroke:#181818;stroke-width:1.0;" x1="250.5" x2="291.5" y1="348.0313" y2="348.0313"/><polygon fill="#181818" points="260.5,344.0313,250.5,348.0313,260.5,352.0313,256.5,348.0313" style="stroke:#181818;stroke-width:1.0;"/><text fill="#000000" font-family="sans-serif" font-size="13" lengthAdjust="spacing" textLength="146" x="256.5" y="330.1748">Retun (TypedResults.Ok)</text><!--SRC=[rLEnJiCm4Dtz5KTPO6Wc9WQa4W6gX00rHSn7Saqi7DlO5zhyFGv9eQ45EhGIpH3vdk_blPUpZwp3l4HGM9kAmPV4g548bgm8OcHK9eUHbJ3itdtiXXZ6JAM7onhkiAI09VHQaKwRPMnAQpHf1aLlf8Imw5YcqcA01bSB9gTH3G0zn6TZ7SfhPUPHOcOyHqT9xPjlHyl6jXRYsInWi69a0CTFXMGI49vszplQ4-vHWtPcM1D7b1J6HYENDgoKAqThJZfc84QnqOnIa_DHMtPHLvi4wGo27x7YRAnd3ZsxwaFXRvED3Yru9qRxsXiyTs9VlZyNOli1mV1YVxyKpjSFdSYTgUm6V7ykTX1nss64nCkpqAQR6hYLdc7aQvt-xuo_ZJ4kKES4Zqx2WyAK2gCoSjqiVzWysB0Juah3YMpefysjElWeqzfIDY5VgT1m_zA64ky0]--></g></svg>