<?xml version="1.0" encoding="us-ascii" standalone="no"?><svg xmlns="http://www.w3.org/2000/svg" xmlns:xlink="http://www.w3.org/1999/xlink" contentStyleType="text/css" height="258.75px" preserveAspectRatio="none" style="width:325px;height:258px;background:#FFFFFF;" version="1.1" viewBox="0 0 325 258" width="325.625px" zoomAndPan="magnify"><defs/><g><text fill="#000000" font-family="sans-serif" font-size="8.75" font-weight="bold" lengthAdjust="spacing" textLength="308.125" x="6.25" y="18.4583">Catalog Api - Api - Catalog Api - Get Items By Name - COMPONENT level</text><rect fill="#FFFFFF" height="227.5195" style="stroke:#181818;stroke-width:0.3125;" width="59.375" x="103.125" y="27.8809"/><text fill="#000000" font-family="sans-serif" font-size="8.125" font-weight="bold" lengthAdjust="spacing" textLength="13.125" x="126.25" y="36.3153">Api</text><rect fill="#FFFFFF" height="227.5195" style="stroke:#181818;stroke-width:0.3125;" width="76.875" x="211.875" y="27.8809"/><text fill="#000000" font-family="sans-serif" font-size="8.125" font-weight="bold" lengthAdjust="spacing" textLength="52.5" x="224.0625" y="36.3153">Infrastructure</text><rect fill="none" height="131.9434" style="stroke:#000000;stroke-width:0.9375;" width="199.375" x="93.125" y="90.5762"/><rect fill="none" height="38.5645" style="stroke:#000000;stroke-width:0.9375;" width="126.25" x="99.375" y="152.4854"/><line style="stroke:#181818;stroke-width:0.3125;stroke-dasharray:5.0,5.0;" x1="45.625" x2="45.625" y1="60.9814" y2="233.1445"/><line style="stroke:#181818;stroke-width:0.3125;stroke-dasharray:5.0,5.0;" x1="132.5" x2="132.5" y1="60.9814" y2="233.1445"/><line style="stroke:#181818;stroke-width:0.3125;stroke-dasharray:5.0,5.0;" x1="250" x2="250" y1="60.9814" y2="233.1445"/><rect fill="#E2E2F0" height="19.7559" rx="1.5625" ry="1.5625" style="stroke:#181818;stroke-width:0.3125;" width="40.625" x="25.625" y="40.6006"/><text fill="#000000" font-family="sans-serif" font-size="8.75" lengthAdjust="spacing" textLength="31.875" x="30" y="54.0588">External</text><rect fill="#E2E2F0" height="19.7559" rx="1.5625" ry="1.5625" style="stroke:#181818;stroke-width:0.3125;" width="40.625" x="25.625" y="232.5195"/><text fill="#000000" font-family="sans-serif" font-size="8.75" lengthAdjust="spacing" textLength="31.875" x="30" y="245.9778">External</text><rect fill="#E2E2F0" height="19.7559" rx="1.5625" ry="1.5625" style="stroke:#181818;stroke-width:0.3125;" width="54.375" x="105.625" y="40.6006"/><text fill="#000000" font-family="sans-serif" font-size="8.75" lengthAdjust="spacing" textLength="45.625" x="110" y="54.0588">Catalog Api</text><rect fill="#E2E2F0" height="19.7559" rx="1.5625" ry="1.5625" style="stroke:#181818;stroke-width:0.3125;" width="54.375" x="105.625" y="232.5195"/><text fill="#000000" font-family="sans-serif" font-size="8.75" lengthAdjust="spacing" textLength="45.625" x="110" y="245.9778">Catalog Api</text><rect fill="#E2E2F0" height="19.7559" rx="1.5625" ry="1.5625" style="stroke:#181818;stroke-width:0.3125;" width="71.875" x="214.375" y="40.6006"/><text fill="#000000" font-family="sans-serif" font-size="8.75" lengthAdjust="spacing" textLength="63.125" x="218.75" y="54.0588">Catalog Context</text><rect fill="#E2E2F0" height="19.7559" rx="1.5625" ry="1.5625" style="stroke:#181818;stroke-width:0.3125;" width="71.875" x="214.375" y="232.5195"/><text fill="#000000" font-family="sans-serif" font-size="8.75" lengthAdjust="spacing" textLength="63.125" x="218.75" y="245.9778">Catalog Context</text><polygon fill="#181818" points="125.3125,78.7012,131.5625,81.2012,125.3125,83.7012,127.8125,81.2012" style="stroke:#181818;stroke-width:0.625;"/><line style="stroke:#181818;stroke-width:0.625;" x1="45.9375" x2="129.0625" y1="81.2012" y2="81.2012"/><text fill="#000000" font-family="sans-serif" font-size="8.125" lengthAdjust="spacing" textLength="71.875" x="50.3125" y="78.1659">Get Items By Name</text><path d="M93.125,90.5762 L196.875,90.5762 L196.875,95.7959 L190.625,102.0459 L93.125,102.0459 L93.125,90.5762 " fill="#EEEEEE" style="stroke:#000000;stroke-width:0.9375;"/><rect fill="none" height="131.9434" style="stroke:#000000;stroke-width:0.9375;" width="199.375" x="93.125" y="90.5762"/><text fill="#000000" font-family="sans-serif" font-size="8.125" font-weight="bold" lengthAdjust="spacing" textLength="75.625" x="102.5" y="99.6356">Get Items By Name</text><polygon fill="#181818" points="242.8125,113.5156,249.0625,116.0156,242.8125,118.5156,245.3125,116.0156" style="stroke:#181818;stroke-width:0.625;"/><line style="stroke:#181818;stroke-width:0.625;" x1="132.8125" x2="246.5625" y1="116.0156" y2="116.0156"/><text fill="#000000" font-family="sans-serif" font-size="8.125" lengthAdjust="spacing" textLength="102.5" x="137.1875" y="112.9803">Catalog Items To List Async</text><line style="stroke:#181818;stroke-width:0.625;" x1="132.8125" x2="159.0625" y1="134.9854" y2="134.9854"/><line style="stroke:#181818;stroke-width:0.625;" x1="159.0625" x2="159.0625" y1="134.9854" y2="143.1104"/><line style="stroke:#181818;stroke-width:0.625;" x1="133.4375" x2="159.0625" y1="143.1104" y2="143.1104"/><polygon fill="#181818" points="139.6875,140.6104,133.4375,143.1104,139.6875,145.6104,137.1875,143.1104" style="stroke:#181818;stroke-width:0.625;"/><text fill="#000000" font-family="sans-serif" font-size="8.125" lengthAdjust="spacing" textLength="85" x="137.1875" y="131.9501">Change Uri Placeholder</text><path d="M99.375,152.4854 L222.5,152.4854 L222.5,157.7051 L216.25,163.9551 L99.375,163.9551 L99.375,152.4854 " fill="#EEEEEE" style="stroke:#000000;stroke-width:0.9375;"/><rect fill="none" height="38.5645" style="stroke:#000000;stroke-width:0.9375;" width="126.25" x="99.375" y="152.4854"/><text fill="#000000" font-family="sans-serif" font-size="8.125" font-weight="bold" lengthAdjust="spacing" textLength="95" x="108.75" y="161.5448">Change Uri Placeholder</text><line style="stroke:#181818;stroke-width:0.625;" x1="132.8125" x2="159.0625" y1="177.9248" y2="177.9248"/><line style="stroke:#181818;stroke-width:0.625;" x1="159.0625" x2="159.0625" y1="177.9248" y2="186.0498"/><line style="stroke:#181818;stroke-width:0.625;" x1="133.4375" x2="159.0625" y1="186.0498" y2="186.0498"/><polygon fill="#181818" points="139.6875,183.5498,133.4375,186.0498,139.6875,188.5498,137.1875,186.0498" style="stroke:#181818;stroke-width:0.625;"/><text fill="#000000" font-family="sans-serif" font-size="8.125" lengthAdjust="spacing" textLength="48.75" x="137.1875" y="174.8895">Retun (items)</text><line style="stroke:#181818;stroke-width:0.625;" x1="132.8125" x2="159.0625" y1="209.3945" y2="209.3945"/><line style="stroke:#181818;stroke-width:0.625;" x1="159.0625" x2="159.0625" y1="209.3945" y2="217.5195"/><line style="stroke:#181818;stroke-width:0.625;" x1="133.4375" x2="159.0625" y1="217.5195" y2="217.5195"/><polygon fill="#181818" points="139.6875,215.0195,133.4375,217.5195,139.6875,220.0195,137.1875,217.5195" style="stroke:#181818;stroke-width:0.625;"/><text fill="#000000" font-family="sans-serif" font-size="8.125" lengthAdjust="spacing" textLength="91.25" x="137.1875" y="206.3593">Retun (TypedResults.Ok)</text><!--SRC=[rLEnJiCm4Dtz5KTPO6Z4W1WOa4fKK2LegxQ8-KYkYLN7ZkmBRVuUXmHeQ84EhKGzMBxpFR_tVFP9RZ7941IMfc1m6J5g56uXTOuMCuXp2LSNGh1aHH0Yep89z7ossypjt3qn39Wo1xSb336ZgcBqE1uD-yCPA7eb9OG_ccKaSzGCdVwAoMfK7K07uUL0-_1EcMKmDNDUegLfwQe3Wu_2EXRYnQoWiyRUWTFdL389yAFU_Pvj4RUWdZish8a3cgOc3tesgb0H5vOsb3H83mn2encb9kk2EinoeqdpUf4W7OFN8zQK3VJSecDRl3FyBRBYeHNlHMYRUulcXknBz-T2xDuWwDuSxahXUlEbYSIQ8j-IFvoAFLZSjHdUySTRgDtD33n8nz1pfOx-jyVVsXYcg1E29ojXh32YrAYORDFB7pQFrko4kD1m9YluUVMhZjxAhCmfdf0hb2yOBMfJuWq0]--></g></svg>