<?xml version="1.0" encoding="us-ascii" standalone="no"?><svg xmlns="http://www.w3.org/2000/svg" xmlns:xlink="http://www.w3.org/1999/xlink" contentStyleType="text/css" height="383px" preserveAspectRatio="none" style="width:633px;height:383px;background:#FFFFFF;" version="1.1" viewBox="0 0 633 383" width="633px" zoomAndPan="magnify"><defs/><g><text fill="#000000" font-family="sans-serif" font-size="14" font-weight="bold" lengthAdjust="spacing" textLength="605" x="10" y="29.5332">To Do App Example - To Do App - Mobile App - View Tasks - Sequence - Container level</text><rect fill="#FFFFFF" height="326.3281" style="stroke:#181818;stroke-width:0.5;" width="269" x="206.75" y="44.6094"/><text fill="#000000" font-family="sans-serif" font-size="13" font-weight="bold" lengthAdjust="spacing" textLength="66" x="308.25" y="58.1045">To Do App</text><rect fill="none" height="111.4063" style="stroke:#000000;stroke-width:1.5;" width="291" x="200.75" y="175.9219"/><rect fill="none" height="48.7031" style="stroke:#000000;stroke-width:1.5;" width="187" x="294.75" y="231.625"/><line style="stroke:#181818;stroke-width:0.5;stroke-dasharray:5.0,5.0;" x1="161.25" x2="161.25" y1="128.5703" y2="304.3281"/><line style="stroke:#181818;stroke-width:0.5;stroke-dasharray:5.0,5.0;" x1="252.75" x2="252.75" y1="128.5703" y2="304.3281"/><line style="stroke:#181818;stroke-width:0.5;stroke-dasharray:5.0,5.0;" x1="337.75" x2="337.75" y1="128.5703" y2="304.3281"/><line style="stroke:#181818;stroke-width:0.5;stroke-dasharray:5.0,5.0;" x1="437.75" x2="437.75" y1="128.5703" y2="304.3281"/><rect fill="#E2E2F0" height="31.6094" rx="2.5" ry="2.5" style="stroke:#181818;stroke-width:0.5;" width="65" x="129.25" y="95.9609"/><text fill="#000000" font-family="sans-serif" font-size="14" lengthAdjust="spacing" textLength="51" x="136.25" y="117.4941">External</text><rect fill="#E2E2F0" height="31.6094" rx="2.5" ry="2.5" style="stroke:#181818;stroke-width:0.5;" width="65" x="129.25" y="303.3281"/><text fill="#000000" font-family="sans-serif" font-size="14" lengthAdjust="spacing" textLength="51" x="136.25" y="324.8613">External</text><rect fill="#E2E2F0" height="31.6094" rx="2.5" ry="2.5" style="stroke:#181818;stroke-width:0.5;" width="84" x="210.75" y="95.9609"/><text fill="#000000" font-family="sans-serif" font-size="14" lengthAdjust="spacing" textLength="70" x="217.75" y="117.4941">Mobile App</text><rect fill="#E2E2F0" height="31.6094" rx="2.5" ry="2.5" style="stroke:#181818;stroke-width:0.5;" width="84" x="210.75" y="303.3281"/><text fill="#000000" font-family="sans-serif" font-size="14" lengthAdjust="spacing" textLength="70" x="217.75" y="324.8613">Mobile App</text><rect fill="#E2E2F0" height="31.6094" rx="2.5" ry="2.5" style="stroke:#181818;stroke-width:0.5;" width="67" x="304.75" y="95.9609"/><text fill="#000000" font-family="sans-serif" font-size="14" lengthAdjust="spacing" textLength="53" x="311.75" y="117.4941">Web Api</text><rect fill="#E2E2F0" height="31.6094" rx="2.5" ry="2.5" style="stroke:#181818;stroke-width:0.5;" width="67" x="304.75" y="303.3281"/><text fill="#000000" font-family="sans-serif" font-size="14" lengthAdjust="spacing" textLength="53" x="311.75" y="324.8613">Web Api</text><text fill="#000000" font-family="sans-serif" font-size="14" lengthAdjust="spacing" textLength="61" x="404.75" y="125.4941">Database</text><path d="M420.25,74.9609 C420.25,64.9609 438.25,64.9609 438.25,64.9609 C438.25,64.9609 456.25,64.9609 456.25,74.9609 L456.25,100.9609 C456.25,110.9609 438.25,110.9609 438.25,110.9609 C438.25,110.9609 420.25,110.9609 420.25,100.9609 L420.25,74.9609 " fill="#E2E2F0" style="stroke:#181818;stroke-width:1.5;"/><path d="M420.25,74.9609 C420.25,84.9609 438.25,84.9609 438.25,84.9609 C438.25,84.9609 456.25,84.9609 456.25,74.9609 " fill="none" style="stroke:#181818;stroke-width:1.5;"/><text fill="#000000" font-family="sans-serif" font-size="14" lengthAdjust="spacing" textLength="61" x="404.75" y="317.8613">Database</text><path d="M420.25,330.9375 C420.25,320.9375 438.25,320.9375 438.25,320.9375 C438.25,320.9375 456.25,320.9375 456.25,330.9375 L456.25,356.9375 C456.25,366.9375 438.25,366.9375 438.25,366.9375 C438.25,366.9375 420.25,366.9375 420.25,356.9375 L420.25,330.9375 " fill="#E2E2F0" style="stroke:#181818;stroke-width:1.5;"/><path d="M420.25,330.9375 C420.25,340.9375 438.25,340.9375 438.25,340.9375 C438.25,340.9375 456.25,340.9375 456.25,330.9375 " fill="none" style="stroke:#181818;stroke-width:1.5;"/><polygon fill="#181818" points="240.75,156.9219,250.75,160.9219,240.75,164.9219,244.75,160.9219" style="stroke:#181818;stroke-width:1.0;"/><line style="stroke:#181818;stroke-width:1.0;" x1="161.75" x2="246.75" y1="160.9219" y2="160.9219"/><text fill="#000000" font-family="sans-serif" font-size="13" lengthAdjust="spacing" textLength="67" x="168.75" y="156.0654">View Tasks</text><path d="M200.75,175.9219 L316.75,175.9219 L316.75,184.2734 L306.75,194.2734 L200.75,194.2734 L200.75,175.9219 " fill="#EEEEEE" style="stroke:#000000;stroke-width:1.5;"/><rect fill="none" height="111.4063" style="stroke:#000000;stroke-width:1.5;" width="291" x="200.75" y="175.9219"/><text fill="#000000" font-family="sans-serif" font-size="13" font-weight="bold" lengthAdjust="spacing" textLength="71" x="215.75" y="190.417">View Tasks</text><polygon fill="#181818" points="326.25,212.625,336.25,216.625,326.25,220.625,330.25,216.625" style="stroke:#181818;stroke-width:1.0;"/><line style="stroke:#181818;stroke-width:1.0;" x1="252.75" x2="332.25" y1="216.625" y2="216.625"/><text fill="#000000" font-family="sans-serif" font-size="13" lengthAdjust="spacing" textLength="60" x="259.75" y="211.7686">Get Tasks</text><path d="M294.75,231.625 L400.75,231.625 L400.75,239.9766 L390.75,249.9766 L294.75,249.9766 L294.75,231.625 " fill="#EEEEEE" style="stroke:#000000;stroke-width:1.5;"/><rect fill="none" height="48.7031" style="stroke:#000000;stroke-width:1.5;" width="187" x="294.75" y="231.625"/><text fill="#000000" font-family="sans-serif" font-size="13" font-weight="bold" lengthAdjust="spacing" textLength="61" x="309.75" y="246.1201">Get Tasks</text><polygon fill="#181818" points="426.25,268.3281,436.25,272.3281,426.25,276.3281,430.25,272.3281" style="stroke:#181818;stroke-width:1.0;"/><line style="stroke:#181818;stroke-width:1.0;" x1="338.25" x2="432.25" y1="272.3281" y2="272.3281"/><text fill="#000000" font-family="sans-serif" font-size="13" lengthAdjust="spacing" textLength="76" x="345.25" y="267.4717">Select Tasks</text><!--SRC=[fP9FJyCm3CNl_XHMTsvFd3XCGkj073YrOcUtCn2H9Q7nQFdscFxPEks2kagHybxhvr-SYX7BM7hCFJw4WDkE3a6TTEQb-E8he-OWNWstM5ByZ2eA_Zgog_yADju96SSDMlvc2n2e4LERG4umsNR2ZIER84NSt3qxbO_MjrdXtwIbXekVA7o8sVJXe04gts5oWabmjVimme3wN3GuC_OjIfzxtO_dkUeolivEq34R0jIypjvnfS5cOR1MQt6VkYUXYY9Zae-xXPbJER3Reuu80Fu_L4pNjym7xsV_0Bmt_XZcnYt9Yy26-IhL4yi5r5al3bq4D5sE8XLikPuezAxw1Ry0]--></g></svg>