<?xml version="1.0" encoding="us-ascii" standalone="no"?><svg xmlns="http://www.w3.org/2000/svg" xmlns:xlink="http://www.w3.org/1999/xlink" contentStyleType="text/css" height="407px" preserveAspectRatio="none" style="width:764px;height:407px;background:#FFFFFF;" version="1.1" viewBox="0 0 764 407" width="764px" zoomAndPan="magnify"><defs/><g><text fill="#000000" font-family="sans-serif" font-size="14" font-weight="bold" lengthAdjust="spacing" textLength="736" x="10" y="29.5332">Product Service - Message Handler - Handle Purchase Order Created Event - Sequence - Container level</text><rect fill="#FFFFFF" height="357.3828" style="stroke:#181818;stroke-width:0.5;" width="316.5" x="271" y="44.6094"/><text fill="#000000" font-family="sans-serif" font-size="13" font-weight="bold" lengthAdjust="spacing" textLength="101" x="378.75" y="58.1045">Product Service</text><rect fill="#FFFFFF" height="357.3828" style="stroke:#181818;stroke-width:0.5;" width="102" x="589.5" y="44.6094"/><text fill="#000000" font-family="sans-serif" font-size="13" font-weight="bold" lengthAdjust="spacing" textLength="96" x="592.5" y="58.1045">Buying Service</text><rect fill="none" height="204.4609" style="stroke:#000000;stroke-width:1.5;" width="446.5" x="245" y="144.9219"/><rect fill="none" height="141.7578" style="stroke:#000000;stroke-width:1.5;" width="348.5" x="255" y="200.625"/><rect fill="none" height="79.0547" style="stroke:#000000;stroke-width:1.5;" width="328.5" x="265" y="256.3281"/><line style="stroke:#181818;stroke-width:0.5;stroke-dasharray:5.0,5.0;" x1="92.5" x2="92.5" y1="97.5703" y2="366.3828"/><line style="stroke:#181818;stroke-width:0.5;stroke-dasharray:5.0,5.0;" x1="337" x2="337" y1="97.5703" y2="366.3828"/><line style="stroke:#181818;stroke-width:0.5;stroke-dasharray:5.0,5.0;" x1="453.5" x2="453.5" y1="97.5703" y2="366.3828"/><line style="stroke:#181818;stroke-width:0.5;stroke-dasharray:5.0,5.0;" x1="542.5" x2="542.5" y1="97.5703" y2="366.3828"/><line style="stroke:#181818;stroke-width:0.5;stroke-dasharray:5.0,5.0;" x1="640.5" x2="640.5" y1="97.5703" y2="366.3828"/><rect fill="#E2E2F0" height="31.6094" rx="2.5" ry="2.5" style="stroke:#181818;stroke-width:0.5;" width="65" x="60.5" y="64.9609"/><text fill="#000000" font-family="sans-serif" font-size="14" lengthAdjust="spacing" textLength="51" x="67.5" y="86.4941">External</text><rect fill="#E2E2F0" height="31.6094" rx="2.5" ry="2.5" style="stroke:#181818;stroke-width:0.5;" width="65" x="60.5" y="365.3828"/><text fill="#000000" font-family="sans-serif" font-size="14" lengthAdjust="spacing" textLength="51" x="67.5" y="386.916">External</text><rect fill="#E2E2F0" height="31.6094" rx="2.5" ry="2.5" style="stroke:#181818;stroke-width:0.5;" width="124" x="275" y="64.9609"/><text fill="#000000" font-family="sans-serif" font-size="14" lengthAdjust="spacing" textLength="110" x="282" y="86.4941">Message Handler</text><rect fill="#E2E2F0" height="31.6094" rx="2.5" ry="2.5" style="stroke:#181818;stroke-width:0.5;" width="124" x="275" y="365.3828"/><text fill="#000000" font-family="sans-serif" font-size="14" lengthAdjust="spacing" textLength="110" x="282" y="386.916">Message Handler</text><rect fill="#E2E2F0" height="31.6094" rx="2.5" ry="2.5" style="stroke:#181818;stroke-width:0.5;" width="75" x="416.5" y="64.9609"/><text fill="#000000" font-family="sans-serif" font-size="14" lengthAdjust="spacing" textLength="61" x="423.5" y="86.4941">Database</text><rect fill="#E2E2F0" height="31.6094" rx="2.5" ry="2.5" style="stroke:#181818;stroke-width:0.5;" width="75" x="416.5" y="365.3828"/><text fill="#000000" font-family="sans-serif" font-size="14" lengthAdjust="spacing" textLength="61" x="423.5" y="386.916">Database</text><rect fill="#E2E2F0" height="31.6094" rx="2.5" ry="2.5" style="stroke:#181818;stroke-width:0.5;" width="82" x="501.5" y="64.9609"/><text fill="#000000" font-family="sans-serif" font-size="14" lengthAdjust="spacing" textLength="68" x="508.5" y="86.4941">Messaging</text><rect fill="#E2E2F0" height="31.6094" rx="2.5" ry="2.5" style="stroke:#181818;stroke-width:0.5;" width="82" x="501.5" y="365.3828"/><text fill="#000000" font-family="sans-serif" font-size="14" lengthAdjust="spacing" textLength="68" x="508.5" y="386.916">Messaging</text><rect fill="#E2E2F0" height="31.6094" rx="2.5" ry="2.5" style="stroke:#181818;stroke-width:0.5;" width="82" x="599.5" y="64.9609"/><text fill="#000000" font-family="sans-serif" font-size="14" lengthAdjust="spacing" textLength="68" x="606.5" y="86.4941">Messaging</text><rect fill="#E2E2F0" height="31.6094" rx="2.5" ry="2.5" style="stroke:#181818;stroke-width:0.5;" width="82" x="599.5" y="365.3828"/><text fill="#000000" font-family="sans-serif" font-size="14" lengthAdjust="spacing" textLength="68" x="606.5" y="386.916">Messaging</text><polygon fill="#181818" points="325,125.9219,335,129.9219,325,133.9219,329,129.9219" style="stroke:#181818;stroke-width:1.0;"/><line style="stroke:#181818;stroke-width:1.0;" x1="93" x2="331" y1="129.9219" y2="129.9219"/><text fill="#000000" font-family="sans-serif" font-size="13" lengthAdjust="spacing" textLength="220" x="100" y="125.0654">Handle Purchase Order Created Event</text><path d="M245,144.9219 L531,144.9219 L531,153.2734 L521,163.2734 L245,163.2734 L245,144.9219 " fill="#EEEEEE" style="stroke:#000000;stroke-width:1.5;"/><rect fill="none" height="204.4609" style="stroke:#000000;stroke-width:1.5;" width="446.5" x="245" y="144.9219"/><text fill="#000000" font-family="sans-serif" font-size="13" font-weight="bold" lengthAdjust="spacing" textLength="241" x="260" y="159.417">Handle Purchase Order Created Event</text><polygon fill="#181818" points="628.5,181.625,638.5,185.625,628.5,189.625,632.5,185.625" style="stroke:#181818;stroke-width:1.0;"/><line style="stroke:#181818;stroke-width:1.0;" x1="337" x2="634.5" y1="185.625" y2="185.625"/><text fill="#000000" font-family="sans-serif" font-size="13" lengthAdjust="spacing" textLength="225" x="344" y="180.7686">Receive Purchase Order Created Event</text><path d="M255,200.625 L328,200.625 L328,208.9766 L318,218.9766 L255,218.9766 L255,200.625 " fill="#EEEEEE" style="stroke:#000000;stroke-width:1.5;"/><rect fill="none" height="141.7578" style="stroke:#000000;stroke-width:1.5;" width="348.5" x="255" y="200.625"/><text fill="#000000" font-family="sans-serif" font-size="13" font-weight="bold" lengthAdjust="spacing" textLength="28" x="270" y="215.1201">loop</text><text fill="#000000" font-family="sans-serif" font-size="11" font-weight="bold" lengthAdjust="spacing" textLength="204" x="343" y="214.0439">[For each Product in Purchase Order]</text><polygon fill="#181818" points="442,237.3281,452,241.3281,442,245.3281,446,241.3281" style="stroke:#181818;stroke-width:1.0;"/><line style="stroke:#181818;stroke-width:1.0;" x1="337" x2="448" y1="241.3281" y2="241.3281"/><text fill="#000000" font-family="sans-serif" font-size="13" lengthAdjust="spacing" textLength="93" x="344" y="236.4717">Select Products</text><path d="M265,256.3281 L326,256.3281 L326,264.6797 L316,274.6797 L265,274.6797 L265,256.3281 " fill="#EEEEEE" style="stroke:#000000;stroke-width:1.5;"/><rect fill="none" height="79.0547" style="stroke:#000000;stroke-width:1.5;" width="328.5" x="265" y="256.3281"/><text fill="#000000" font-family="sans-serif" font-size="13" font-weight="bold" lengthAdjust="spacing" textLength="16" x="280" y="270.8232">alt</text><text fill="#000000" font-family="sans-serif" font-size="11" font-weight="bold" lengthAdjust="spacing" textLength="109" x="341" y="269.7471">[Product Not Found]</text><polygon fill="#181818" points="442,293.0313,452,297.0313,442,301.0313,446,297.0313" style="stroke:#181818;stroke-width:1.0;"/><line style="stroke:#181818;stroke-width:1.0;" x1="337" x2="448" y1="297.0313" y2="297.0313"/><text fill="#000000" font-family="sans-serif" font-size="13" lengthAdjust="spacing" textLength="81" x="344" y="292.1748">Insert Product</text><polygon fill="#181818" points="530.5,323.3828,540.5,327.3828,530.5,331.3828,534.5,327.3828" style="stroke:#181818;stroke-width:1.0;"/><line style="stroke:#181818;stroke-width:1.0;" x1="337" x2="536.5" y1="327.3828" y2="327.3828"/><text fill="#000000" font-family="sans-serif" font-size="13" lengthAdjust="spacing" textLength="164" x="344" y="322.5264">Send Product Created Event</text><!--SRC=[pLInJiCm4Dtz5KUOcuc9WO7GYWv0HGRcQt9DBJbsi2zf-_SSRHhHLgYMg50ZHOelB-_UUpdxfl5OrGW6Dwvb23KnMbIADHk2cNTbMp3av3jT48pWXKB0Yk0PRMd8IsNt1BFM5qiC16- -b7hc2PbA67TaML0vVRPajnIPiupQ2iXGHqQf1ZthGZSeo6IyPl8MJG8O8BkRMbbEZ5kbkLlm2Ztbcy1KXtGFtAsLchir94U24xZzM6ec1N8Tj3doiUqspbnTaozePf0NpjSdFNlwdZqTd8Iqv-lfJliz8UDSulbpeptHRvQqhIvaHfWKsH8aMDN7-zXkf1gRRhoK7M-aalYXWD731NygtCVCkggyQviev0MbHHazdx9OVAU2T7T6kN6kWOdpG5WiXrD2swEl_jtX-MqZ3dCo96fxR51eXWMyEXPVhIslK_hK1lA3sYlI-7E2yk-jkW_qS6xapN2hBm00]--></g></svg>