<?xml version="1.0" encoding="us-ascii" standalone="no"?><svg xmlns="http://www.w3.org/2000/svg" xmlns:xlink="http://www.w3.org/1999/xlink" contentStyleType="text/css" height="383px" preserveAspectRatio="none" style="width:689px;height:383px;background:#FFFFFF;" version="1.1" viewBox="0 0 689 383" width="689px" zoomAndPan="magnify"><defs/><g><text fill="#000000" font-family="sans-serif" font-size="14" font-weight="bold" lengthAdjust="spacing" textLength="661" x="10" y="29.5332">To Do App Example - To Do App - Mobile App - Mark Task As Done - Sequence - Container level</text><rect fill="#FFFFFF" height="326.3281" style="stroke:#181818;stroke-width:0.5;" width="319.5" x="233.5" y="44.6094"/><text fill="#000000" font-family="sans-serif" font-size="13" font-weight="bold" lengthAdjust="spacing" textLength="66" x="360.25" y="58.1045">To Do App</text><rect fill="none" height="111.4063" style="stroke:#000000;stroke-width:1.5;" width="341.5" x="227.5" y="175.9219"/><rect fill="none" height="48.7031" style="stroke:#000000;stroke-width:1.5;" width="184" x="375" y="231.625"/><line style="stroke:#181818;stroke-width:0.5;stroke-dasharray:5.0,5.0;" x1="140" x2="140" y1="128.5703" y2="304.3281"/><line style="stroke:#181818;stroke-width:0.5;stroke-dasharray:5.0,5.0;" x1="279.5" x2="279.5" y1="128.5703" y2="304.3281"/><line style="stroke:#181818;stroke-width:0.5;stroke-dasharray:5.0,5.0;" x1="418" x2="418" y1="128.5703" y2="304.3281"/><line style="stroke:#181818;stroke-width:0.5;stroke-dasharray:5.0,5.0;" x1="515" x2="515" y1="128.5703" y2="304.3281"/><rect fill="#E2E2F0" height="31.6094" rx="2.5" ry="2.5" style="stroke:#181818;stroke-width:0.5;" width="65" x="108" y="95.9609"/><text fill="#000000" font-family="sans-serif" font-size="14" lengthAdjust="spacing" textLength="51" x="115" y="117.4941">External</text><rect fill="#E2E2F0" height="31.6094" rx="2.5" ry="2.5" style="stroke:#181818;stroke-width:0.5;" width="65" x="108" y="303.3281"/><text fill="#000000" font-family="sans-serif" font-size="14" lengthAdjust="spacing" textLength="51" x="115" y="324.8613">External</text><rect fill="#E2E2F0" height="31.6094" rx="2.5" ry="2.5" style="stroke:#181818;stroke-width:0.5;" width="84" x="237.5" y="95.9609"/><text fill="#000000" font-family="sans-serif" font-size="14" lengthAdjust="spacing" textLength="70" x="244.5" y="117.4941">Mobile App</text><rect fill="#E2E2F0" height="31.6094" rx="2.5" ry="2.5" style="stroke:#181818;stroke-width:0.5;" width="84" x="237.5" y="303.3281"/><text fill="#000000" font-family="sans-serif" font-size="14" lengthAdjust="spacing" textLength="70" x="244.5" y="324.8613">Mobile App</text><rect fill="#E2E2F0" height="31.6094" rx="2.5" ry="2.5" style="stroke:#181818;stroke-width:0.5;" width="67" x="385" y="95.9609"/><text fill="#000000" font-family="sans-serif" font-size="14" lengthAdjust="spacing" textLength="53" x="392" y="117.4941">Web Api</text><rect fill="#E2E2F0" height="31.6094" rx="2.5" ry="2.5" style="stroke:#181818;stroke-width:0.5;" width="67" x="385" y="303.3281"/><text fill="#000000" font-family="sans-serif" font-size="14" lengthAdjust="spacing" textLength="53" x="392" y="324.8613">Web Api</text><text fill="#000000" font-family="sans-serif" font-size="14" lengthAdjust="spacing" textLength="61" x="482" y="125.4941">Database</text><path d="M497.5,74.9609 C497.5,64.9609 515.5,64.9609 515.5,64.9609 C515.5,64.9609 533.5,64.9609 533.5,74.9609 L533.5,100.9609 C533.5,110.9609 515.5,110.9609 515.5,110.9609 C515.5,110.9609 497.5,110.9609 497.5,100.9609 L497.5,74.9609 " fill="#E2E2F0" style="stroke:#181818;stroke-width:1.5;"/><path d="M497.5,74.9609 C497.5,84.9609 515.5,84.9609 515.5,84.9609 C515.5,84.9609 533.5,84.9609 533.5,74.9609 " fill="none" style="stroke:#181818;stroke-width:1.5;"/><text fill="#000000" font-family="sans-serif" font-size="14" lengthAdjust="spacing" textLength="61" x="482" y="317.8613">Database</text><path d="M497.5,330.9375 C497.5,320.9375 515.5,320.9375 515.5,320.9375 C515.5,320.9375 533.5,320.9375 533.5,330.9375 L533.5,356.9375 C533.5,366.9375 515.5,366.9375 515.5,366.9375 C515.5,366.9375 497.5,366.9375 497.5,356.9375 L497.5,330.9375 " fill="#E2E2F0" style="stroke:#181818;stroke-width:1.5;"/><path d="M497.5,330.9375 C497.5,340.9375 515.5,340.9375 515.5,340.9375 C515.5,340.9375 533.5,340.9375 533.5,330.9375 " fill="none" style="stroke:#181818;stroke-width:1.5;"/><polygon fill="#181818" points="267.5,156.9219,277.5,160.9219,267.5,164.9219,271.5,160.9219" style="stroke:#181818;stroke-width:1.0;"/><line style="stroke:#181818;stroke-width:1.0;" x1="140.5" x2="273.5" y1="160.9219" y2="160.9219"/><text fill="#000000" font-family="sans-serif" font-size="13" lengthAdjust="spacing" textLength="115" x="147.5" y="156.0654">Mark Task As Done</text><path d="M227.5,175.9219 L392.5,175.9219 L392.5,184.2734 L382.5,194.2734 L227.5,194.2734 L227.5,175.9219 " fill="#EEEEEE" style="stroke:#000000;stroke-width:1.5;"/><rect fill="none" height="111.4063" style="stroke:#000000;stroke-width:1.5;" width="341.5" x="227.5" y="175.9219"/><text fill="#000000" font-family="sans-serif" font-size="13" font-weight="bold" lengthAdjust="spacing" textLength="120" x="242.5" y="190.417">Mark Task As Done</text><polygon fill="#181818" points="406.5,212.625,416.5,216.625,406.5,220.625,410.5,216.625" style="stroke:#181818;stroke-width:1.0;"/><line style="stroke:#181818;stroke-width:1.0;" x1="279.5" x2="412.5" y1="216.625" y2="216.625"/><text fill="#000000" font-family="sans-serif" font-size="13" lengthAdjust="spacing" textLength="115" x="286.5" y="211.7686">Mark Task As Done</text><path d="M375,231.625 L540,231.625 L540,239.9766 L530,249.9766 L375,249.9766 L375,231.625 " fill="#EEEEEE" style="stroke:#000000;stroke-width:1.5;"/><rect fill="none" height="48.7031" style="stroke:#000000;stroke-width:1.5;" width="184" x="375" y="231.625"/><text fill="#000000" font-family="sans-serif" font-size="13" font-weight="bold" lengthAdjust="spacing" textLength="120" x="390" y="246.1201">Mark Task As Done</text><polygon fill="#181818" points="503.5,268.3281,513.5,272.3281,503.5,276.3281,507.5,272.3281" style="stroke:#181818;stroke-width:1.0;"/><line style="stroke:#181818;stroke-width:1.0;" x1="418.5" x2="509.5" y1="272.3281" y2="272.3281"/><text fill="#000000" font-family="sans-serif" font-size="13" lengthAdjust="spacing" textLength="73" x="425.5" y="267.4717">Update Task</text><!--SRC=[jLB1JiCm3BtxAwnmRa-SE4oQrY5nsAcTTdOt0z6w92GPAt-FswO3L0we4v4YsI_sUozEeeuDOsMniBXq3jSjdPmWsJSimusjjO0f8N_4Yi8Hbq5AJ5TSyjkPpRuBLzP4qeOzDlpE3O0Z7_LUEp8HrRgDx0qr2YdWwlx9IFhOs4jUskTu8S_bHuXy2lbOEEG0jMrHNJqflDkzwiY0idu8V5dj9IfRM8dJjIOgwJY_cWxvG23Wb7l7jH3hcSJIBSqzwu4YrHGOLP6YcPnZEx0ve8m80Fu-LCmMjym77wPV0LwyFRjVy5jqPjaSfltF7fF8B8FZqud5hPCFmRsPxY7x3Py0]--></g></svg>