<?xml version="1.0" encoding="us-ascii" standalone="no"?><svg xmlns="http://www.w3.org/2000/svg" xmlns:xlink="http://www.w3.org/1999/xlink" contentStyleType="text/css" height="305px" preserveAspectRatio="none" style="width:396px;height:305px;background:#FFFFFF;" version="1.1" viewBox="0 0 396 305" width="396.25px" zoomAndPan="magnify"><defs/><g><text fill="#000000" font-family="sans-serif" font-size="8.75" font-weight="bold" lengthAdjust="spacing" textLength="378.75" x="6.25" y="18.4583">Basket Api - Data - Redis Basket Repository - Update Basket Async - COMPONENT level</text><rect fill="#FFFFFF" height="273.584" style="stroke:#181818;stroke-width:0.3125;" width="224.375" x="106.875" y="27.8809"/><text fill="#000000" font-family="sans-serif" font-size="8.125" font-weight="bold" lengthAdjust="spacing" textLength="18.125" x="210" y="36.3153">Data</text><rect fill="none" height="178.0078" style="stroke:#000000;stroke-width:0.9375;" width="244.375" x="96.875" y="90.5762"/><rect fill="none" height="84.6289" style="stroke:#000000;stroke-width:0.9375;" width="231.875" x="103.125" y="179.5801"/><line style="stroke:#181818;stroke-width:0.3125;stroke-dasharray:5.0,5.0;" x1="67.5" x2="67.5" y1="60.9814" y2="279.209"/><line style="stroke:#181818;stroke-width:0.3125;stroke-dasharray:5.0,5.0;" x1="161.875" x2="161.875" y1="60.9814" y2="279.209"/><line style="stroke:#181818;stroke-width:0.3125;stroke-dasharray:5.0,5.0;" x1="292.5" x2="292.5" y1="60.9814" y2="279.209"/><rect fill="#E2E2F0" height="19.7559" rx="1.5625" ry="1.5625" style="stroke:#181818;stroke-width:0.3125;" width="40.625" x="47.5" y="40.6006"/><text fill="#000000" font-family="sans-serif" font-size="8.75" lengthAdjust="spacing" textLength="31.875" x="51.875" y="54.0588">External</text><rect fill="#E2E2F0" height="19.7559" rx="1.5625" ry="1.5625" style="stroke:#181818;stroke-width:0.3125;" width="40.625" x="47.5" y="278.584"/><text fill="#000000" font-family="sans-serif" font-size="8.75" lengthAdjust="spacing" textLength="31.875" x="51.875" y="292.0422">External</text><rect fill="#E2E2F0" height="19.7559" rx="1.5625" ry="1.5625" style="stroke:#181818;stroke-width:0.3125;" width="105.625" x="109.375" y="40.6006"/><text fill="#000000" font-family="sans-serif" font-size="8.75" lengthAdjust="spacing" textLength="96.875" x="113.75" y="54.0588">Redis Basket Repository</text><rect fill="#E2E2F0" height="19.7559" rx="1.5625" ry="1.5625" style="stroke:#181818;stroke-width:0.3125;" width="105.625" x="109.375" y="278.584"/><text fill="#000000" font-family="sans-serif" font-size="8.75" lengthAdjust="spacing" textLength="96.875" x="113.75" y="292.0422">Redis Basket Repository</text><rect fill="#E2E2F0" height="19.7559" rx="1.5625" ry="1.5625" style="stroke:#181818;stroke-width:0.3125;" width="71.875" x="256.875" y="40.6006"/><text fill="#000000" font-family="sans-serif" font-size="8.75" lengthAdjust="spacing" textLength="63.125" x="261.25" y="54.0588">Redis Database</text><rect fill="#E2E2F0" height="19.7559" rx="1.5625" ry="1.5625" style="stroke:#181818;stroke-width:0.3125;" width="71.875" x="256.875" y="278.584"/><text fill="#000000" font-family="sans-serif" font-size="8.75" lengthAdjust="spacing" textLength="63.125" x="261.25" y="292.0422">Redis Database</text><polygon fill="#181818" points="154.6875,78.7012,160.9375,81.2012,154.6875,83.7012,157.1875,81.2012" style="stroke:#181818;stroke-width:0.625;"/><line style="stroke:#181818;stroke-width:0.625;" x1="67.8125" x2="158.4375" y1="81.2012" y2="81.2012"/><text fill="#000000" font-family="sans-serif" font-size="8.125" lengthAdjust="spacing" textLength="79.375" x="72.1875" y="78.1659">Update Basket Async</text><path d="M96.875,90.5762 L207.5,90.5762 L207.5,95.7959 L201.25,102.0459 L96.875,102.0459 L96.875,90.5762 " fill="#EEEEEE" style="stroke:#000000;stroke-width:0.9375;"/><rect fill="none" height="178.0078" style="stroke:#000000;stroke-width:0.9375;" width="244.375" x="96.875" y="90.5762"/><text fill="#000000" font-family="sans-serif" font-size="8.125" font-weight="bold" lengthAdjust="spacing" textLength="82.5" x="106.25" y="99.6356">Update Basket Async</text><polygon fill="#181818" points="285.3125,113.5156,291.5625,116.0156,285.3125,118.5156,287.8125,116.0156" style="stroke:#181818;stroke-width:0.625;"/><line style="stroke:#181818;stroke-width:0.625;" x1="162.1875" x2="289.0625" y1="116.0156" y2="116.0156"/><text fill="#000000" font-family="sans-serif" font-size="8.125" lengthAdjust="spacing" textLength="61.875" x="166.5625" y="112.9803">String Set Async</text><line style="stroke:#181818;stroke-width:0.625;" x1="162.1875" x2="188.4375" y1="134.9854" y2="134.9854"/><line style="stroke:#181818;stroke-width:0.625;" x1="188.4375" x2="188.4375" y1="134.9854" y2="143.1104"/><line style="stroke:#181818;stroke-width:0.625;" x1="162.8125" x2="188.4375" y1="143.1104" y2="143.1104"/><polygon fill="#181818" points="169.0625,140.6104,162.8125,143.1104,169.0625,145.6104,166.5625,143.1104" style="stroke:#181818;stroke-width:0.625;"/><text fill="#000000" font-family="sans-serif" font-size="8.125" lengthAdjust="spacing" textLength="58.125" x="166.5625" y="131.9501">Get Basket Key</text><line style="stroke:#181818;stroke-width:0.625;" x1="162.1875" x2="188.4375" y1="162.0801" y2="162.0801"/><line style="stroke:#181818;stroke-width:0.625;" x1="188.4375" x2="188.4375" y1="162.0801" y2="170.2051"/><line style="stroke:#181818;stroke-width:0.625;" x1="162.8125" x2="188.4375" y1="170.2051" y2="170.2051"/><polygon fill="#181818" points="169.0625,167.7051,162.8125,170.2051,169.0625,172.7051,166.5625,170.2051" style="stroke:#181818;stroke-width:0.625;"/><text fill="#000000" font-family="sans-serif" font-size="8.125" lengthAdjust="spacing" textLength="66.875" x="166.5625" y="159.0448">Get Basket Async</text><path d="M103.125,179.5801 L199.375,179.5801 L199.375,184.7998 L193.125,191.0498 L103.125,191.0498 L103.125,179.5801 " fill="#EEEEEE" style="stroke:#000000;stroke-width:0.9375;"/><rect fill="none" height="84.6289" style="stroke:#000000;stroke-width:0.9375;" width="231.875" x="103.125" y="179.5801"/><text fill="#000000" font-family="sans-serif" font-size="8.125" font-weight="bold" lengthAdjust="spacing" textLength="68.125" x="112.5" y="188.6395">Get Basket Async</text><polygon fill="#181818" points="285.3125,202.5195,291.5625,205.0195,285.3125,207.5195,287.8125,205.0195" style="stroke:#181818;stroke-width:0.625;"/><line style="stroke:#181818;stroke-width:0.625;" x1="162.1875" x2="289.0625" y1="205.0195" y2="205.0195"/><text fill="#000000" font-family="sans-serif" font-size="8.125" lengthAdjust="spacing" textLength="86.875" x="166.5625" y="201.9843">String Get Lease Async</text><line style="stroke:#181818;stroke-width:0.625;" x1="162.1875" x2="188.4375" y1="223.9893" y2="223.9893"/><line style="stroke:#181818;stroke-width:0.625;" x1="188.4375" x2="188.4375" y1="223.9893" y2="232.1143"/><line style="stroke:#181818;stroke-width:0.625;" x1="162.8125" x2="188.4375" y1="232.1143" y2="232.1143"/><polygon fill="#181818" points="169.0625,229.6143,162.8125,232.1143,169.0625,234.6143,166.5625,232.1143" style="stroke:#181818;stroke-width:0.625;"/><text fill="#000000" font-family="sans-serif" font-size="8.125" lengthAdjust="spacing" textLength="58.125" x="166.5625" y="220.954">Get Basket Key</text><line style="stroke:#181818;stroke-width:0.625;" x1="162.1875" x2="188.4375" y1="251.084" y2="251.084"/><line style="stroke:#181818;stroke-width:0.625;" x1="188.4375" x2="188.4375" y1="251.084" y2="259.209"/><line style="stroke:#181818;stroke-width:0.625;" x1="162.8125" x2="188.4375" y1="259.209" y2="259.209"/><polygon fill="#181818" points="169.0625,256.709,162.8125,259.209,169.0625,261.709,166.5625,259.209" style="stroke:#181818;stroke-width:0.625;"/><text fill="#000000" font-family="sans-serif" font-size="8.125" lengthAdjust="spacing" textLength="121.875" x="166.5625" y="248.0487">Retun (JsonSerializer.Deserialize)</text><!--SRC=[xLLDJy904BtlhnZhHGziF1WF7amGqFW5Xcey3tI43UtkPdSgr5_lbjfK0YHU897OPDFEcvrzx-rCqYFhS98Xf5YOdC5dnAXH-9dI5Xrca5W55sT2iEAKu1hzZ1ZQ0Mn15nd3QqY9ydLcIDPunSOL8VDg4-Ico1Tw7D3EuEbvqE_rNo2b3qg524IinigYPeXw2oQdCOq0FNJExtG8Rr8pbx5vvpawYWlFb7bPRwnY8KPc0L6ZBuBZjwbY4X2UAbdgNO5NYBVOMEf836jYIV7KMDbsu_A4CUUErbHLzO5VTencL9gSboLnY3DhD6dsSabLxMo8jYagYqVeQMT2QW91Ee5mKQBv4Bzl0BIkzd9DSBbfhCJ4cTnkpEn5r8xCrwq9fcDsIayWFWXV6vfw6unzz-s1YWDsztDUr-336jRItYELqF_8_ZbtG-9SmyczDpecfp1Ld-HabtmTd9R_YUKINm00]--></g></svg>