<?xml version="1.0" encoding="us-ascii" standalone="no"?><svg xmlns="http://www.w3.org/2000/svg" xmlns:xlink="http://www.w3.org/1999/xlink" contentStyleType="text/css" height="488px" preserveAspectRatio="none" style="width:634px;height:488px;background:#FFFFFF;" version="1.1" viewBox="0 0 634 488" width="634px" zoomAndPan="magnify"><defs/><g><text fill="#000000" font-family="sans-serif" font-size="14" font-weight="bold" lengthAdjust="spacing" textLength="606" x="10" y="29.5332">Basket Api - Data - Redis Basket Repository - Update Basket Async - COMPONENT level</text><rect fill="#FFFFFF" height="437.7344" style="stroke:#181818;stroke-width:0.5;" width="359" x="171" y="44.6094"/><text fill="#000000" font-family="sans-serif" font-size="13" font-weight="bold" lengthAdjust="spacing" textLength="29" x="336" y="58.1045">Data</text><rect fill="none" height="284.8125" style="stroke:#000000;stroke-width:1.5;" width="391" x="155" y="144.9219"/><rect fill="none" height="135.4063" style="stroke:#000000;stroke-width:1.5;" width="371" x="165" y="287.3281"/><line style="stroke:#181818;stroke-width:0.5;stroke-dasharray:5.0,5.0;" x1="108" x2="108" y1="97.5703" y2="446.7344"/><line style="stroke:#181818;stroke-width:0.5;stroke-dasharray:5.0,5.0;" x1="259" x2="259" y1="97.5703" y2="446.7344"/><line style="stroke:#181818;stroke-width:0.5;stroke-dasharray:5.0,5.0;" x1="468" x2="468" y1="97.5703" y2="446.7344"/><rect fill="#E2E2F0" height="31.6094" rx="2.5" ry="2.5" style="stroke:#181818;stroke-width:0.5;" width="65" x="76" y="64.9609"/><text fill="#000000" font-family="sans-serif" font-size="14" lengthAdjust="spacing" textLength="51" x="83" y="86.4941">External</text><rect fill="#E2E2F0" height="31.6094" rx="2.5" ry="2.5" style="stroke:#181818;stroke-width:0.5;" width="65" x="76" y="445.7344"/><text fill="#000000" font-family="sans-serif" font-size="14" lengthAdjust="spacing" textLength="51" x="83" y="467.2676">External</text><rect fill="#E2E2F0" height="31.6094" rx="2.5" ry="2.5" style="stroke:#181818;stroke-width:0.5;" width="169" x="175" y="64.9609"/><text fill="#000000" font-family="sans-serif" font-size="14" lengthAdjust="spacing" textLength="155" x="182" y="86.4941">Redis Basket Repository</text><rect fill="#E2E2F0" height="31.6094" rx="2.5" ry="2.5" style="stroke:#181818;stroke-width:0.5;" width="169" x="175" y="445.7344"/><text fill="#000000" font-family="sans-serif" font-size="14" lengthAdjust="spacing" textLength="155" x="182" y="467.2676">Redis Basket Repository</text><rect fill="#E2E2F0" height="31.6094" rx="2.5" ry="2.5" style="stroke:#181818;stroke-width:0.5;" width="115" x="411" y="64.9609"/><text fill="#000000" font-family="sans-serif" font-size="14" lengthAdjust="spacing" textLength="101" x="418" y="86.4941">Redis Database</text><rect fill="#E2E2F0" height="31.6094" rx="2.5" ry="2.5" style="stroke:#181818;stroke-width:0.5;" width="115" x="411" y="445.7344"/><text fill="#000000" font-family="sans-serif" font-size="14" lengthAdjust="spacing" textLength="101" x="418" y="467.2676">Redis Database</text><polygon fill="#181818" points="247.5,125.9219,257.5,129.9219,247.5,133.9219,251.5,129.9219" style="stroke:#181818;stroke-width:1.0;"/><line style="stroke:#181818;stroke-width:1.0;" x1="108.5" x2="253.5" y1="129.9219" y2="129.9219"/><text fill="#000000" font-family="sans-serif" font-size="13" lengthAdjust="spacing" textLength="127" x="115.5" y="125.0654">Update Basket Async</text><path d="M155,144.9219 L332,144.9219 L332,153.2734 L322,163.2734 L155,163.2734 L155,144.9219 " fill="#EEEEEE" style="stroke:#000000;stroke-width:1.5;"/><rect fill="none" height="284.8125" style="stroke:#000000;stroke-width:1.5;" width="391" x="155" y="144.9219"/><text fill="#000000" font-family="sans-serif" font-size="13" font-weight="bold" lengthAdjust="spacing" textLength="132" x="170" y="159.417">Update Basket Async</text><polygon fill="#181818" points="456.5,181.625,466.5,185.625,456.5,189.625,460.5,185.625" style="stroke:#181818;stroke-width:1.0;"/><line style="stroke:#181818;stroke-width:1.0;" x1="259.5" x2="462.5" y1="185.625" y2="185.625"/><text fill="#000000" font-family="sans-serif" font-size="13" lengthAdjust="spacing" textLength="99" x="266.5" y="180.7686">String Set Async</text><line style="stroke:#181818;stroke-width:1.0;" x1="259.5" x2="301.5" y1="215.9766" y2="215.9766"/><line style="stroke:#181818;stroke-width:1.0;" x1="301.5" x2="301.5" y1="215.9766" y2="228.9766"/><line style="stroke:#181818;stroke-width:1.0;" x1="260.5" x2="301.5" y1="228.9766" y2="228.9766"/><polygon fill="#181818" points="270.5,224.9766,260.5,228.9766,270.5,232.9766,266.5,228.9766" style="stroke:#181818;stroke-width:1.0;"/><text fill="#000000" font-family="sans-serif" font-size="13" lengthAdjust="spacing" textLength="93" x="266.5" y="211.1201">Get Basket Key</text><line style="stroke:#181818;stroke-width:1.0;" x1="259.5" x2="301.5" y1="259.3281" y2="259.3281"/><line style="stroke:#181818;stroke-width:1.0;" x1="301.5" x2="301.5" y1="259.3281" y2="272.3281"/><line style="stroke:#181818;stroke-width:1.0;" x1="260.5" x2="301.5" y1="272.3281" y2="272.3281"/><polygon fill="#181818" points="270.5,268.3281,260.5,272.3281,270.5,276.3281,266.5,272.3281" style="stroke:#181818;stroke-width:1.0;"/><text fill="#000000" font-family="sans-serif" font-size="13" lengthAdjust="spacing" textLength="107" x="266.5" y="254.4717">Get Basket Async</text><path d="M165,287.3281 L319,287.3281 L319,295.6797 L309,305.6797 L165,305.6797 L165,287.3281 " fill="#EEEEEE" style="stroke:#000000;stroke-width:1.5;"/><rect fill="none" height="135.4063" style="stroke:#000000;stroke-width:1.5;" width="371" x="165" y="287.3281"/><text fill="#000000" font-family="sans-serif" font-size="13" font-weight="bold" lengthAdjust="spacing" textLength="109" x="180" y="301.8232">Get Basket Async</text><polygon fill="#181818" points="456.5,324.0313,466.5,328.0313,456.5,332.0313,460.5,328.0313" style="stroke:#181818;stroke-width:1.0;"/><line style="stroke:#181818;stroke-width:1.0;" x1="259.5" x2="462.5" y1="328.0313" y2="328.0313"/><text fill="#000000" font-family="sans-serif" font-size="13" lengthAdjust="spacing" textLength="139" x="266.5" y="323.1748">String Get Lease Async</text><line style="stroke:#181818;stroke-width:1.0;" x1="259.5" x2="301.5" y1="358.3828" y2="358.3828"/><line style="stroke:#181818;stroke-width:1.0;" x1="301.5" x2="301.5" y1="358.3828" y2="371.3828"/><line style="stroke:#181818;stroke-width:1.0;" x1="260.5" x2="301.5" y1="371.3828" y2="371.3828"/><polygon fill="#181818" points="270.5,367.3828,260.5,371.3828,270.5,375.3828,266.5,371.3828" style="stroke:#181818;stroke-width:1.0;"/><text fill="#000000" font-family="sans-serif" font-size="13" lengthAdjust="spacing" textLength="93" x="266.5" y="353.5264">Get Basket Key</text><line style="stroke:#181818;stroke-width:1.0;" x1="259.5" x2="301.5" y1="401.7344" y2="401.7344"/><line style="stroke:#181818;stroke-width:1.0;" x1="301.5" x2="301.5" y1="401.7344" y2="414.7344"/><line style="stroke:#181818;stroke-width:1.0;" x1="260.5" x2="301.5" y1="414.7344" y2="414.7344"/><polygon fill="#181818" points="270.5,410.7344,260.5,414.7344,270.5,418.7344,266.5,414.7344" style="stroke:#181818;stroke-width:1.0;"/><text fill="#000000" font-family="sans-serif" font-size="13" lengthAdjust="spacing" textLength="195" x="266.5" y="396.8779">Retun (JsonSerializer.Deserialize)</text><!--SRC=[xLLDJyCm3BtdLvXoWSDouiG1QMm3yRMX5SJPQyqMqIPHuhALNq-wKdNJDedB9Z4HAKfintdlnPPoOXrESuGCIrCm-9mODGh1YZE2Q_GVnD2r2ZhGHyQmZ2bLlecCoHglsBWoH5vjYjmc-L8dmTiRFJsFXeFX2sJqIPaG5XshH5dK3D5WmUGqPX6WXzx5dGxcJMRcCZRlF4T7SUcPSY-RWxKjnCGi86hvHN3wDbDC0iAeWnNVDVSQy0uPInwfOKqiAPuPAxikgMv8k72qmQhE3_YoPpIZqkIyh823dLkZIRENIwZwP0kqYr6LF45FUoFI00ZIAOI74kr6_Bu0qBawo3F1vRQs4bDd2hirSX1IUnBVb2Q8ZjafFONuA7HjAUfj4FPJjmSgZrZTQhzkk8-hMIjvZrIv_blspwaR4nSQpkwzqJ4vXPdw8YVxv1lZlFedbbDy0m00]--></g></svg>