<?xml version="1.0" encoding="us-ascii" standalone="no"?><svg xmlns="http://www.w3.org/2000/svg" xmlns:xlink="http://www.w3.org/1999/xlink" contentStyleType="text/css" height="1158px" preserveAspectRatio="none" style="width:676px;height:1158px;background:#FFFFFF;" version="1.1" viewBox="0 0 676 1158" width="676px" zoomAndPan="magnify"><defs/><g><text fill="#000000" font-family="sans-serif" font-size="14" font-weight="bold" lengthAdjust="spacing" textLength="465" x="101.5" y="29.5332">Trader X Example - Manage Accounts - Sequence - Container level</text><rect fill="#FFFFFF" height="1107.5781" style="stroke:#181818;stroke-width:0.5;" width="538" x="105" y="44.6094"/><text fill="#000000" font-family="sans-serif" font-size="13" font-weight="bold" lengthAdjust="spacing" textLength="51" x="348.5" y="58.1045">TraderX</text><rect fill="none" height="395.625" style="stroke:#000000;stroke-width:1.5;" width="560" x="99" y="205.625"/><rect fill="none" height="65.0547" style="stroke:#000000;stroke-width:1.5;" width="233.5" x="290.5" y="277.6797"/><rect fill="none" height="65.0547" style="stroke:#000000;stroke-width:1.5;" width="358.5" x="290.5" y="403.4375"/><rect fill="none" height="65.0547" style="stroke:#000000;stroke-width:1.5;" width="358.5" x="290.5" y="529.1953"/><rect fill="none" height="144.1094" style="stroke:#000000;stroke-width:1.5;" width="435" x="99" y="706.3047"/><rect fill="none" height="65.0547" style="stroke:#000000;stroke-width:1.5;" width="233.5" x="290.5" y="778.3594"/><rect fill="none" height="144.1094" style="stroke:#000000;stroke-width:1.5;" width="435" x="99" y="955.4688"/><rect fill="none" height="65.0547" style="stroke:#000000;stroke-width:1.5;" width="233.5" x="290.5" y="1027.5234"/><line style="stroke:#181818;stroke-width:0.5;stroke-dasharray:5.0,5.0;" x1="33" x2="33" y1="97.5703" y2="1116.5781"/><line style="stroke:#181818;stroke-width:0.5;stroke-dasharray:5.0,5.0;" x1="150" x2="150" y1="97.5703" y2="1116.5781"/><line style="stroke:#181818;stroke-width:0.5;stroke-dasharray:5.0,5.0;" x1="335.5" x2="335.5" y1="97.5703" y2="1116.5781"/><line style="stroke:#181818;stroke-width:0.5;stroke-dasharray:5.0,5.0;" x1="452" x2="452" y1="97.5703" y2="1116.5781"/><line style="stroke:#181818;stroke-width:0.5;stroke-dasharray:5.0,5.0;" x1="581" x2="581" y1="97.5703" y2="1116.5781"/><rect fill="#E2E2F0" height="31.6094" rx="2.5" ry="2.5" style="stroke:#181818;stroke-width:0.5;" width="57" x="5" y="64.9609"/><text fill="#000000" font-family="sans-serif" font-size="14" lengthAdjust="spacing" textLength="43" x="12" y="86.4941">Trader</text><rect fill="#E2E2F0" height="31.6094" rx="2.5" ry="2.5" style="stroke:#181818;stroke-width:0.5;" width="57" x="5" y="1115.5781"/><text fill="#000000" font-family="sans-serif" font-size="14" lengthAdjust="spacing" textLength="43" x="12" y="1137.1113">Trader</text><rect fill="#E2E2F0" height="31.6094" rx="2.5" ry="2.5" style="stroke:#181818;stroke-width:0.5;" width="83" x="109" y="64.9609"/><text fill="#000000" font-family="sans-serif" font-size="14" lengthAdjust="spacing" textLength="69" x="116" y="86.4941">Web Client</text><rect fill="#E2E2F0" height="31.6094" rx="2.5" ry="2.5" style="stroke:#181818;stroke-width:0.5;" width="83" x="109" y="1115.5781"/><text fill="#000000" font-family="sans-serif" font-size="14" lengthAdjust="spacing" textLength="69" x="116" y="1137.1113">Web Client</text><rect fill="#E2E2F0" height="31.6094" rx="2.5" ry="2.5" style="stroke:#181818;stroke-width:0.5;" width="70" x="300.5" y="64.9609"/><text fill="#000000" font-family="sans-serif" font-size="14" lengthAdjust="spacing" textLength="56" x="307.5" y="86.4941">Web GUI</text><rect fill="#E2E2F0" height="31.6094" rx="2.5" ry="2.5" style="stroke:#181818;stroke-width:0.5;" width="70" x="300.5" y="1115.5781"/><text fill="#000000" font-family="sans-serif" font-size="14" lengthAdjust="spacing" textLength="56" x="307.5" y="1137.1113">Web GUI</text><rect fill="#E2E2F0" height="31.6094" rx="2.5" ry="2.5" style="stroke:#181818;stroke-width:0.5;" width="123" x="391" y="64.9609"/><text fill="#000000" font-family="sans-serif" font-size="14" lengthAdjust="spacing" textLength="109" x="398" y="86.4941">Accounts Service</text><rect fill="#E2E2F0" height="31.6094" rx="2.5" ry="2.5" style="stroke:#181818;stroke-width:0.5;" width="123" x="391" y="1115.5781"/><text fill="#000000" font-family="sans-serif" font-size="14" lengthAdjust="spacing" textLength="109" x="398" y="1137.1113">Accounts Service</text><rect fill="#E2E2F0" height="31.6094" rx="2.5" ry="2.5" style="stroke:#181818;stroke-width:0.5;" width="115" x="524" y="64.9609"/><text fill="#000000" font-family="sans-serif" font-size="14" lengthAdjust="spacing" textLength="101" x="531" y="86.4941">Position Service</text><rect fill="#E2E2F0" height="31.6094" rx="2.5" ry="2.5" style="stroke:#181818;stroke-width:0.5;" width="115" x="524" y="1115.5781"/><text fill="#000000" font-family="sans-serif" font-size="14" lengthAdjust="spacing" textLength="101" x="531" y="1137.1113">Position Service</text><rect fill="#EEEEEE" height="3" style="stroke:#EEEEEE;stroke-width:1.0;" width="669" x="0" y="128.7461"/><line style="stroke:#000000;stroke-width:1.0;" x1="0" x2="669" y1="128.7461" y2="128.7461"/><line style="stroke:#000000;stroke-width:1.0;" x1="0" x2="669" y1="131.7461" y2="131.7461"/><rect fill="#EEEEEE" height="24.3516" style="stroke:#000000;stroke-width:2.0;" width="159" x="255" y="117.5703"/><text fill="#000000" font-family="sans-serif" font-size="13" font-weight="bold" lengthAdjust="spacing" textLength="141" x="261" y="135.0654">Trader - View Account</text><polygon fill="#181818" points="138.5,186.625,148.5,190.625,138.5,194.625,142.5,190.625" style="stroke:#181818;stroke-width:1.0;"/><line style="stroke:#181818;stroke-width:1.0;" x1="33.5" x2="144.5" y1="190.625" y2="190.625"/><text fill="#000000" font-family="sans-serif" font-size="13" lengthAdjust="spacing" textLength="80" x="40.5" y="169.417">View Account</text><text fill="#000000" font-family="sans-serif" font-size="13" lengthAdjust="spacing" textLength="49" x="40.5" y="185.7686">[HTTPS]</text><path d="M99,205.625 L231,205.625 L231,213.9766 L221,223.9766 L99,223.9766 L99,205.625 " fill="#EEEEEE" style="stroke:#000000;stroke-width:1.5;"/><rect fill="none" height="395.625" style="stroke:#000000;stroke-width:1.5;" width="560" x="99" y="205.625"/><text fill="#000000" font-family="sans-serif" font-size="13" font-weight="bold" lengthAdjust="spacing" textLength="87" x="114" y="220.1201">View Account</text><polygon fill="#181818" points="323.5,258.6797,333.5,262.6797,323.5,266.6797,327.5,262.6797" style="stroke:#181818;stroke-width:1.0;"/><line style="stroke:#181818;stroke-width:1.0;" x1="150.5" x2="329.5" y1="262.6797" y2="262.6797"/><text fill="#000000" font-family="sans-serif" font-size="13" lengthAdjust="spacing" textLength="80" x="157.5" y="241.4717">Load Account</text><text fill="#000000" font-family="sans-serif" font-size="13" lengthAdjust="spacing" textLength="49" x="157.5" y="257.8232">[HTTPS]</text><path d="M290.5,277.6797 L422.5,277.6797 L422.5,286.0313 L412.5,296.0313 L290.5,296.0313 L290.5,277.6797 " fill="#EEEEEE" style="stroke:#000000;stroke-width:1.5;"/><rect fill="none" height="65.0547" style="stroke:#000000;stroke-width:1.5;" width="233.5" x="290.5" y="277.6797"/><text fill="#000000" font-family="sans-serif" font-size="13" font-weight="bold" lengthAdjust="spacing" textLength="87" x="305.5" y="292.1748">Load Account</text><polygon fill="#181818" points="440.5,330.7344,450.5,334.7344,440.5,338.7344,444.5,334.7344" style="stroke:#181818;stroke-width:1.0;"/><line style="stroke:#181818;stroke-width:1.0;" x1="335.5" x2="446.5" y1="334.7344" y2="334.7344"/><text fill="#000000" font-family="sans-serif" font-size="13" lengthAdjust="spacing" textLength="80" x="342.5" y="313.5264">Get Accounts</text><text fill="#000000" font-family="sans-serif" font-size="13" lengthAdjust="spacing" textLength="49" x="342.5" y="329.8779">[HTTPS]</text><polygon fill="#181818" points="323.5,384.4375,333.5,388.4375,323.5,392.4375,327.5,388.4375" style="stroke:#181818;stroke-width:1.0;"/><line style="stroke:#181818;stroke-width:1.0;" x1="150.5" x2="329.5" y1="388.4375" y2="388.4375"/><text fill="#000000" font-family="sans-serif" font-size="13" lengthAdjust="spacing" textLength="146" x="157.5" y="367.2295">Load Trades For Account</text><text fill="#000000" font-family="sans-serif" font-size="13" lengthAdjust="spacing" textLength="49" x="157.5" y="383.5811">[HTTPS]</text><path d="M290.5,403.4375 L494.5,403.4375 L494.5,411.7891 L484.5,421.7891 L290.5,421.7891 L290.5,403.4375 " fill="#EEEEEE" style="stroke:#000000;stroke-width:1.5;"/><rect fill="none" height="65.0547" style="stroke:#000000;stroke-width:1.5;" width="358.5" x="290.5" y="403.4375"/><text fill="#000000" font-family="sans-serif" font-size="13" font-weight="bold" lengthAdjust="spacing" textLength="159" x="305.5" y="417.9326">Load Trades For Account</text><polygon fill="#181818" points="569.5,456.4922,579.5,460.4922,569.5,464.4922,573.5,460.4922" style="stroke:#181818;stroke-width:1.0;"/><line style="stroke:#181818;stroke-width:1.0;" x1="335.5" x2="575.5" y1="460.4922" y2="460.4922"/><text fill="#000000" font-family="sans-serif" font-size="13" lengthAdjust="spacing" textLength="139" x="342.5" y="439.2842">Get Trades For Account</text><text fill="#000000" font-family="sans-serif" font-size="13" lengthAdjust="spacing" textLength="49" x="342.5" y="455.6357">[HTTPS]</text><polygon fill="#181818" points="323.5,510.1953,333.5,514.1953,323.5,518.1953,327.5,514.1953" style="stroke:#181818;stroke-width:1.0;"/><line style="stroke:#181818;stroke-width:1.0;" x1="150.5" x2="329.5" y1="514.1953" y2="514.1953"/><text fill="#000000" font-family="sans-serif" font-size="13" lengthAdjust="spacing" textLength="161" x="157.5" y="492.9873">Load Positions For Account</text><text fill="#000000" font-family="sans-serif" font-size="13" lengthAdjust="spacing" textLength="49" x="157.5" y="509.3389">[HTTPS]</text><path d="M290.5,529.1953 L508.5,529.1953 L508.5,537.5469 L498.5,547.5469 L290.5,547.5469 L290.5,529.1953 " fill="#EEEEEE" style="stroke:#000000;stroke-width:1.5;"/><rect fill="none" height="65.0547" style="stroke:#000000;stroke-width:1.5;" width="358.5" x="290.5" y="529.1953"/><text fill="#000000" font-family="sans-serif" font-size="13" font-weight="bold" lengthAdjust="spacing" textLength="173" x="305.5" y="543.6904">Load Positions For Account</text><polygon fill="#181818" points="569.5,582.25,579.5,586.25,569.5,590.25,573.5,586.25" style="stroke:#181818;stroke-width:1.0;"/><line style="stroke:#181818;stroke-width:1.0;" x1="335.5" x2="575.5" y1="586.25" y2="586.25"/><text fill="#000000" font-family="sans-serif" font-size="13" lengthAdjust="spacing" textLength="154" x="342.5" y="565.042">Get Positions For Account</text><text fill="#000000" font-family="sans-serif" font-size="13" lengthAdjust="spacing" textLength="49" x="342.5" y="581.3936">[HTTPS]</text><rect fill="#EEEEEE" height="3" style="stroke:#EEEEEE;stroke-width:1.0;" width="669" x="0" y="629.4258"/><line style="stroke:#000000;stroke-width:1.0;" x1="0" x2="669" y1="629.4258" y2="629.4258"/><line style="stroke:#000000;stroke-width:1.0;" x1="0" x2="669" y1="632.4258" y2="632.4258"/><rect fill="#EEEEEE" height="24.3516" style="stroke:#000000;stroke-width:2.0;" width="169" x="250" y="618.25"/><text fill="#000000" font-family="sans-serif" font-size="13" font-weight="bold" lengthAdjust="spacing" textLength="151" x="256" y="635.7451">Trader - Create Account</text><polygon fill="#181818" points="138.5,687.3047,148.5,691.3047,138.5,695.3047,142.5,691.3047" style="stroke:#181818;stroke-width:1.0;"/><line style="stroke:#181818;stroke-width:1.0;" x1="33.5" x2="144.5" y1="691.3047" y2="691.3047"/><text fill="#000000" font-family="sans-serif" font-size="13" lengthAdjust="spacing" textLength="90" x="40.5" y="670.0967">Create Account</text><text fill="#000000" font-family="sans-serif" font-size="13" lengthAdjust="spacing" textLength="49" x="40.5" y="686.4482">[HTTPS]</text><path d="M99,706.3047 L241,706.3047 L241,714.6563 L231,724.6563 L99,724.6563 L99,706.3047 " fill="#EEEEEE" style="stroke:#000000;stroke-width:1.5;"/><rect fill="none" height="144.1094" style="stroke:#000000;stroke-width:1.5;" width="435" x="99" y="706.3047"/><text fill="#000000" font-family="sans-serif" font-size="13" font-weight="bold" lengthAdjust="spacing" textLength="97" x="114" y="720.7998">Create Account</text><polygon fill="#181818" points="323.5,759.3594,333.5,763.3594,323.5,767.3594,327.5,763.3594" style="stroke:#181818;stroke-width:1.0;"/><line style="stroke:#181818;stroke-width:1.0;" x1="150.5" x2="329.5" y1="763.3594" y2="763.3594"/><text fill="#000000" font-family="sans-serif" font-size="13" lengthAdjust="spacing" textLength="90" x="157.5" y="742.1514">Create Account</text><text fill="#000000" font-family="sans-serif" font-size="13" lengthAdjust="spacing" textLength="49" x="157.5" y="758.5029">[HTTPS]</text><path d="M290.5,778.3594 L432.5,778.3594 L432.5,786.7109 L422.5,796.7109 L290.5,796.7109 L290.5,778.3594 " fill="#EEEEEE" style="stroke:#000000;stroke-width:1.5;"/><rect fill="none" height="65.0547" style="stroke:#000000;stroke-width:1.5;" width="233.5" x="290.5" y="778.3594"/><text fill="#000000" font-family="sans-serif" font-size="13" font-weight="bold" lengthAdjust="spacing" textLength="97" x="305.5" y="792.8545">Create Account</text><polygon fill="#181818" points="440.5,831.4141,450.5,835.4141,440.5,839.4141,444.5,835.4141" style="stroke:#181818;stroke-width:1.0;"/><line style="stroke:#181818;stroke-width:1.0;" x1="335.5" x2="446.5" y1="835.4141" y2="835.4141"/><text fill="#000000" font-family="sans-serif" font-size="13" lengthAdjust="spacing" textLength="90" x="342.5" y="814.2061">Create Account</text><text fill="#000000" font-family="sans-serif" font-size="13" lengthAdjust="spacing" textLength="49" x="342.5" y="830.5576">[HTTPS]</text><rect fill="#EEEEEE" height="3" style="stroke:#EEEEEE;stroke-width:1.0;" width="669" x="0" y="878.5898"/><line style="stroke:#000000;stroke-width:1.0;" x1="0" x2="669" y1="878.5898" y2="878.5898"/><line style="stroke:#000000;stroke-width:1.0;" x1="0" x2="669" y1="881.5898" y2="881.5898"/><rect fill="#EEEEEE" height="24.3516" style="stroke:#000000;stroke-width:2.0;" width="172" x="248.5" y="867.4141"/><text fill="#000000" font-family="sans-serif" font-size="13" font-weight="bold" lengthAdjust="spacing" textLength="154" x="254.5" y="884.9092">Trader - Update Account</text><polygon fill="#181818" points="138.5,936.4688,148.5,940.4688,138.5,944.4688,142.5,940.4688" style="stroke:#181818;stroke-width:1.0;"/><line style="stroke:#181818;stroke-width:1.0;" x1="33.5" x2="144.5" y1="940.4688" y2="940.4688"/><text fill="#000000" font-family="sans-serif" font-size="13" lengthAdjust="spacing" textLength="93" x="40.5" y="919.2607">Update Account</text><text fill="#000000" font-family="sans-serif" font-size="13" lengthAdjust="spacing" textLength="49" x="40.5" y="935.6123">[HTTPS]</text><path d="M99,955.4688 L244,955.4688 L244,963.8203 L234,973.8203 L99,973.8203 L99,955.4688 " fill="#EEEEEE" style="stroke:#000000;stroke-width:1.5;"/><rect fill="none" height="144.1094" style="stroke:#000000;stroke-width:1.5;" width="435" x="99" y="955.4688"/><text fill="#000000" font-family="sans-serif" font-size="13" font-weight="bold" lengthAdjust="spacing" textLength="100" x="114" y="969.9639">Update Account</text><polygon fill="#181818" points="323.5,1008.5234,333.5,1012.5234,323.5,1016.5234,327.5,1012.5234" style="stroke:#181818;stroke-width:1.0;"/><line style="stroke:#181818;stroke-width:1.0;" x1="150.5" x2="329.5" y1="1012.5234" y2="1012.5234"/><text fill="#000000" font-family="sans-serif" font-size="13" lengthAdjust="spacing" textLength="93" x="157.5" y="991.3154">Update Account</text><text fill="#000000" font-family="sans-serif" font-size="13" lengthAdjust="spacing" textLength="49" x="157.5" y="1007.667">[HTTPS]</text><path d="M290.5,1027.5234 L435.5,1027.5234 L435.5,1035.875 L425.5,1045.875 L290.5,1045.875 L290.5,1027.5234 " fill="#EEEEEE" style="stroke:#000000;stroke-width:1.5;"/><rect fill="none" height="65.0547" style="stroke:#000000;stroke-width:1.5;" width="233.5" x="290.5" y="1027.5234"/><text fill="#000000" font-family="sans-serif" font-size="13" font-weight="bold" lengthAdjust="spacing" textLength="100" x="305.5" y="1042.0186">Update Account</text><polygon fill="#181818" points="440.5,1080.5781,450.5,1084.5781,440.5,1088.5781,444.5,1084.5781" style="stroke:#181818;stroke-width:1.0;"/><line style="stroke:#181818;stroke-width:1.0;" x1="335.5" x2="446.5" y1="1084.5781" y2="1084.5781"/><text fill="#000000" font-family="sans-serif" font-size="13" lengthAdjust="spacing" textLength="93" x="342.5" y="1063.3701">Update Account</text><text fill="#000000" font-family="sans-serif" font-size="13" lengthAdjust="spacing" textLength="49" x="342.5" y="1079.7217">[HTTPS]</text><!--SRC=[pLHTQy8m57tFhxYuP_i31Xs8R6wmWL2TXMqFiRrpWPfqoVLZ_tvnDixKgb0_2tt9lJddv9oRaA0CeQTvYXfYk9_pSMuNcl329HyXj994JIGPknBXzmHbiYYsbIGkfDsIuHGpndAkIIGYvvAWiKHh03S5S5p01gs4b3R1SfMnePgxxhW1DuClGSZ0VXxS08VGpWHAgeACr2VDkCRenn2E7NOSh2IQm08izrTZT_fFzO7jvatKbMaHwgb8i2QyWobGDdcwoWWIIXx8us0S3yeKR3ICiJ1qez64Lu4pDmuGXcnNjD2yEoGdkFNOtkNROw_NZJxOIAj9xjNO8JHrLThGhSHdnTDj4jThh3P7BNsbgR52EqYhU_mlrAPyQVF-6WmyABtJnyssCrjQkY25fRlKNu6vJlH-VoixhyBYFMTOkBpurv-fjaPEUBw7okSh- -jNBpWIfvTvn0ThczYglFjvUjQyVRwoaNxrWdcVNkOHyzucrkNDVW40]--></g></svg>