<?xml version="1.0" encoding="us-ascii" standalone="no"?><svg xmlns="http://www.w3.org/2000/svg" xmlns:xlink="http://www.w3.org/1999/xlink" contentStyleType="text/css" height="400px" preserveAspectRatio="none" style="width:659px;height:400px;background:#FFFFFF;" version="1.1" viewBox="0 0 659 400" width="659px" zoomAndPan="magnify"><defs/><g><text fill="#000000" font-family="sans-serif" font-size="14" font-weight="bold" lengthAdjust="spacing" textLength="631" x="10" y="29.5332">Trader X Example - TraderX - Trading Services - Create Trade - Sequence - Container level</text><rect fill="#FFFFFF" height="343.0313" style="stroke:#181818;stroke-width:0.5;" width="357.5" x="177.25" y="44.6094"/><text fill="#000000" font-family="sans-serif" font-size="13" font-weight="bold" lengthAdjust="spacing" textLength="51" x="330.5" y="58.1045">TraderX</text><rect fill="none" height="111.7578" style="stroke:#000000;stroke-width:1.5;" width="369.5" x="171.25" y="192.2734"/><line style="stroke:#181818;stroke-width:0.5;stroke-dasharray:5.0,5.0;" x1="138.25" x2="138.25" y1="128.5703" y2="321.0313"/><line style="stroke:#181818;stroke-width:0.5;stroke-dasharray:5.0,5.0;" x1="241.25" x2="241.25" y1="128.5703" y2="321.0313"/><line style="stroke:#181818;stroke-width:0.5;stroke-dasharray:5.0,5.0;" x1="385.75" x2="385.75" y1="128.5703" y2="321.0313"/><line style="stroke:#181818;stroke-width:0.5;stroke-dasharray:5.0,5.0;" x1="482.75" x2="482.75" y1="128.5703" y2="321.0313"/><rect fill="#E2E2F0" height="31.6094" rx="2.5" ry="2.5" style="stroke:#181818;stroke-width:0.5;" width="65" x="106.25" y="95.9609"/><text fill="#000000" font-family="sans-serif" font-size="14" lengthAdjust="spacing" textLength="51" x="113.25" y="117.4941">External</text><rect fill="#E2E2F0" height="31.6094" rx="2.5" ry="2.5" style="stroke:#181818;stroke-width:0.5;" width="65" x="106.25" y="320.0313"/><text fill="#000000" font-family="sans-serif" font-size="14" lengthAdjust="spacing" textLength="51" x="113.25" y="341.5645">External</text><rect fill="#E2E2F0" height="31.6094" rx="2.5" ry="2.5" style="stroke:#181818;stroke-width:0.5;" width="121" x="181.25" y="95.9609"/><text fill="#000000" font-family="sans-serif" font-size="14" lengthAdjust="spacing" textLength="107" x="188.25" y="117.4941">Trading Services</text><rect fill="#E2E2F0" height="31.6094" rx="2.5" ry="2.5" style="stroke:#181818;stroke-width:0.5;" width="121" x="181.25" y="320.0313"/><text fill="#000000" font-family="sans-serif" font-size="14" lengthAdjust="spacing" textLength="107" x="188.25" y="341.5645">Trading Services</text><text fill="#000000" font-family="sans-serif" font-size="14" lengthAdjust="spacing" textLength="74" x="345.75" y="125.4941">TraderX DB</text><path d="M367.75,74.9609 C367.75,64.9609 385.75,64.9609 385.75,64.9609 C385.75,64.9609 403.75,64.9609 403.75,74.9609 L403.75,100.9609 C403.75,110.9609 385.75,110.9609 385.75,110.9609 C385.75,110.9609 367.75,110.9609 367.75,100.9609 L367.75,74.9609 " fill="#E2E2F0" style="stroke:#181818;stroke-width:1.5;"/><path d="M367.75,74.9609 C367.75,84.9609 385.75,84.9609 385.75,84.9609 C385.75,84.9609 403.75,84.9609 403.75,74.9609 " fill="none" style="stroke:#181818;stroke-width:1.5;"/><text fill="#000000" font-family="sans-serif" font-size="14" lengthAdjust="spacing" textLength="74" x="345.75" y="334.5645">TraderX DB</text><path d="M367.75,347.6406 C367.75,337.6406 385.75,337.6406 385.75,337.6406 C385.75,337.6406 403.75,337.6406 403.75,347.6406 L403.75,373.6406 C403.75,383.6406 385.75,383.6406 385.75,383.6406 C385.75,383.6406 367.75,383.6406 367.75,373.6406 L367.75,347.6406 " fill="#E2E2F0" style="stroke:#181818;stroke-width:1.5;"/><path d="M367.75,347.6406 C367.75,357.6406 385.75,357.6406 385.75,357.6406 C385.75,357.6406 403.75,357.6406 403.75,347.6406 " fill="none" style="stroke:#181818;stroke-width:1.5;"/><path d="M440.75,100.9609 L525.75,100.9609 C530.75,100.9609 530.75,114.7656 530.75,114.7656 C530.75,114.7656 530.75,128.5703 525.75,128.5703 L440.75,128.5703 C435.75,128.5703 435.75,114.7656 435.75,114.7656 C435.75,114.7656 435.75,100.9609 440.75,100.9609 " fill="#E2E2F0" style="stroke:#181818;stroke-width:0.5;"/><path d="M525.75,100.9609 C520.75,100.9609 520.75,114.7656 520.75,114.7656 C520.75,128.5703 525.75,128.5703 525.75,128.5703 " fill="none" style="stroke:#181818;stroke-width:0.5;"/><text fill="#000000" font-family="sans-serif" font-size="14" lengthAdjust="spacing" textLength="75" x="440.75" y="120.4941">Trade Feed</text><path d="M440.75,320.0313 L525.75,320.0313 C530.75,320.0313 530.75,333.8359 530.75,333.8359 C530.75,333.8359 530.75,347.6406 525.75,347.6406 L440.75,347.6406 C435.75,347.6406 435.75,333.8359 435.75,333.8359 C435.75,333.8359 435.75,320.0313 440.75,320.0313 " fill="#E2E2F0" style="stroke:#181818;stroke-width:0.5;"/><path d="M525.75,320.0313 C520.75,320.0313 520.75,333.8359 520.75,333.8359 C520.75,347.6406 525.75,347.6406 525.75,347.6406 " fill="none" style="stroke:#181818;stroke-width:0.5;"/><text fill="#000000" font-family="sans-serif" font-size="14" lengthAdjust="spacing" textLength="75" x="440.75" y="339.5645">Trade Feed</text><polygon fill="#181818" points="229.75,173.2734,239.75,177.2734,229.75,181.2734,233.75,177.2734" style="stroke:#181818;stroke-width:1.0;"/><line style="stroke:#181818;stroke-width:1.0;" x1="138.75" x2="235.75" y1="177.2734" y2="177.2734"/><text fill="#000000" font-family="sans-serif" font-size="13" lengthAdjust="spacing" textLength="74" x="145.75" y="156.0654">Create Trade</text><text fill="#000000" font-family="sans-serif" font-size="13" lengthAdjust="spacing" textLength="49" x="145.75" y="172.417">[HTTPS]</text><path d="M171.25,192.2734 L299.25,192.2734 L299.25,200.625 L289.25,210.625 L171.25,210.625 L171.25,192.2734 " fill="#EEEEEE" style="stroke:#000000;stroke-width:1.5;"/><rect fill="none" height="111.7578" style="stroke:#000000;stroke-width:1.5;" width="369.5" x="171.25" y="192.2734"/><text fill="#000000" font-family="sans-serif" font-size="13" font-weight="bold" lengthAdjust="spacing" textLength="83" x="186.25" y="206.7686">Create Trade</text><polygon fill="#181818" points="373.75,245.3281,383.75,249.3281,373.75,253.3281,377.75,249.3281" style="stroke:#181818;stroke-width:1.0;"/><line style="stroke:#181818;stroke-width:1.0;" x1="241.75" x2="379.75" y1="249.3281" y2="249.3281"/><text fill="#000000" font-family="sans-serif" font-size="13" lengthAdjust="spacing" textLength="120" x="248.75" y="228.1201">Insert Trade Request</text><text fill="#000000" font-family="sans-serif" font-size="13" lengthAdjust="spacing" textLength="41" x="248.75" y="244.4717">[JDBC]</text><polygon fill="#181818" points="471.25,292.0313,481.25,296.0313,471.25,300.0313,475.25,296.0313" style="stroke:#181818;stroke-width:1.0;"/><line style="stroke:#181818;stroke-width:1.0;" x1="241.75" x2="477.25" y1="296.0313" y2="296.0313"/><text fill="#000000" font-family="sans-serif" font-size="13" lengthAdjust="spacing" textLength="118" x="248.75" y="274.8232">Send Trade Request</text><text fill="#000000" font-family="sans-serif" font-size="13" lengthAdjust="spacing" textLength="62" x="248.75" y="291.1748">[SocketIO]</text><!--SRC=[nPAnJiD038PtFuKLvdPYOc18qegoWBX8L88EryIK4-abt3bjU7kSz58fPK5a8DFvl_ZtTxRPS4cOELsGmpKkMhslHPW5QHrEnkvGaJkOdBn8YIFD8Kr2HPyDsRmx9fLbRQoObNIW4g3MZarkQcqPeqNBvAmk8zGUa-kLbN1PLiUvgjxug1sfBy-qz_FXnrCCiArQZ09IX5VFxuO9KBwH_ILfNoPaXPVzg1IkvsVmaoGsWqjVfz2ijzhJcGBJU8AzI6dS6qldci4LbqJ55DSk7yWMAFq2WDzt66Utqnk5DwF5UBKlTrdsg3QmSrLJZ-vWUh4_4_Uz5zQLzUGuBF5JjyAUXVa-ZPFDl_9rKnG-rGtoaavL-GVnwc7JZHdW6m00]--></g></svg>