<?xml version="1.0" encoding="us-ascii" standalone="no"?><svg xmlns="http://www.w3.org/2000/svg" xmlns:xlink="http://www.w3.org/1999/xlink" contentStyleType="text/css" height="411px" preserveAspectRatio="none" style="width:771px;height:411px;background:#FFFFFF;" version="1.1" viewBox="0 0 771 411" width="771px" zoomAndPan="magnify"><defs/><g><text fill="#000000" font-family="sans-serif" font-size="14" font-weight="bold" lengthAdjust="spacing" textLength="743" x="10" y="29.5332">ECommercePlatform - GenerateDemand - Storefront - Storefront Bff - Checkout - Sequence - Context level</text><rect fill="none" height="234.8125" style="stroke:#000000;stroke-width:1.5;" width="596" x="114" y="123.5703"/><rect fill="none" height="79.0547" style="stroke:#000000;stroke-width:1.5;" width="356" x="222" y="179.2734"/><rect fill="none" height="48.7031" style="stroke:#000000;stroke-width:1.5;" width="366" x="334" y="302.6797"/><line style="stroke:#181818;stroke-width:0.5;stroke-dasharray:5.0,5.0;" x1="81" x2="81" y1="76.2188" y2="375.3828"/><line style="stroke:#181818;stroke-width:0.5;stroke-dasharray:5.0,5.0;" x1="173" x2="173" y1="76.2188" y2="375.3828"/><line style="stroke:#181818;stroke-width:0.5;stroke-dasharray:5.0,5.0;" x1="283" x2="283" y1="76.2188" y2="375.3828"/><line style="stroke:#181818;stroke-width:0.5;stroke-dasharray:5.0,5.0;" x1="398" x2="398" y1="76.2188" y2="375.3828"/><line style="stroke:#181818;stroke-width:0.5;stroke-dasharray:5.0,5.0;" x1="515" x2="515" y1="76.2188" y2="375.3828"/><line style="stroke:#181818;stroke-width:0.5;stroke-dasharray:5.0,5.0;" x1="634" x2="634" y1="76.2188" y2="375.3828"/><rect fill="#E2E2F0" height="31.6094" rx="2.5" ry="2.5" style="stroke:#181818;stroke-width:0.5;" width="65" x="49" y="43.6094"/><text fill="#000000" font-family="sans-serif" font-size="14" lengthAdjust="spacing" textLength="51" x="56" y="65.1426">External</text><rect fill="#E2E2F0" height="31.6094" rx="2.5" ry="2.5" style="stroke:#181818;stroke-width:0.5;" width="65" x="49" y="374.3828"/><text fill="#000000" font-family="sans-serif" font-size="14" lengthAdjust="spacing" textLength="51" x="56" y="395.916">External</text><rect fill="#E2E2F0" height="31.6094" rx="2.5" ry="2.5" style="stroke:#181818;stroke-width:0.5;" width="98" x="124" y="43.6094"/><text fill="#000000" font-family="sans-serif" font-size="14" lengthAdjust="spacing" textLength="84" x="131" y="65.1426">Storefront Bff</text><rect fill="#E2E2F0" height="31.6094" rx="2.5" ry="2.5" style="stroke:#181818;stroke-width:0.5;" width="98" x="124" y="374.3828"/><text fill="#000000" font-family="sans-serif" font-size="14" lengthAdjust="spacing" textLength="84" x="131" y="395.916">Storefront Bff</text><rect fill="#E2E2F0" height="31.6094" rx="2.5" ry="2.5" style="stroke:#181818;stroke-width:0.5;" width="102" x="232" y="43.6094"/><text fill="#000000" font-family="sans-serif" font-size="14" lengthAdjust="spacing" textLength="88" x="239" y="65.1426">Order Service</text><rect fill="#E2E2F0" height="31.6094" rx="2.5" ry="2.5" style="stroke:#181818;stroke-width:0.5;" width="102" x="232" y="374.3828"/><text fill="#000000" font-family="sans-serif" font-size="14" lengthAdjust="spacing" textLength="88" x="239" y="395.916">Order Service</text><rect fill="#E2E2F0" height="31.6094" rx="2.5" ry="2.5" style="stroke:#181818;stroke-width:0.5;" width="108" x="344" y="43.6094"/><text fill="#000000" font-family="sans-serif" font-size="14" lengthAdjust="spacing" textLength="94" x="351" y="65.1426">Basket Service</text><rect fill="#E2E2F0" height="31.6094" rx="2.5" ry="2.5" style="stroke:#181818;stroke-width:0.5;" width="108" x="344" y="374.3828"/><text fill="#000000" font-family="sans-serif" font-size="14" lengthAdjust="spacing" textLength="94" x="351" y="395.916">Basket Service</text><rect fill="#E2E2F0" height="31.6094" rx="2.5" ry="2.5" style="stroke:#181818;stroke-width:0.5;" width="106" x="462" y="43.6094"/><text fill="#000000" font-family="sans-serif" font-size="14" lengthAdjust="spacing" textLength="92" x="469" y="65.1426">..OrderService</text><rect fill="#E2E2F0" height="31.6094" rx="2.5" ry="2.5" style="stroke:#181818;stroke-width:0.5;" width="106" x="462" y="374.3828"/><text fill="#000000" font-family="sans-serif" font-size="14" lengthAdjust="spacing" textLength="92" x="469" y="395.916">..OrderService</text><rect fill="#E2E2F0" height="31.6094" rx="2.5" ry="2.5" style="stroke:#181818;stroke-width:0.5;" width="112" x="578" y="43.6094"/><text fill="#000000" font-family="sans-serif" font-size="14" lengthAdjust="spacing" textLength="98" x="585" y="65.1426">..BasketService</text><rect fill="#E2E2F0" height="31.6094" rx="2.5" ry="2.5" style="stroke:#181818;stroke-width:0.5;" width="112" x="578" y="374.3828"/><text fill="#000000" font-family="sans-serif" font-size="14" lengthAdjust="spacing" textLength="98" x="585" y="395.916">..BasketService</text><polygon fill="#181818" points="161,104.5703,171,108.5703,161,112.5703,165,108.5703" style="stroke:#181818;stroke-width:1.0;"/><line style="stroke:#181818;stroke-width:1.0;" x1="81.5" x2="167" y1="108.5703" y2="108.5703"/><text fill="#000000" font-family="sans-serif" font-size="13" lengthAdjust="spacing" textLength="55" x="88.5" y="103.7139">Checkout</text><path d="M114,123.5703 L218,123.5703 L218,131.9219 L208,141.9219 L114,141.9219 L114,123.5703 " fill="#EEEEEE" style="stroke:#000000;stroke-width:1.5;"/><rect fill="none" height="234.8125" style="stroke:#000000;stroke-width:1.5;" width="596" x="114" y="123.5703"/><text fill="#000000" font-family="sans-serif" font-size="13" font-weight="bold" lengthAdjust="spacing" textLength="59" x="129" y="138.0654">Checkout</text><polygon fill="#181818" points="503,160.2734,513,164.2734,503,168.2734,507,164.2734" style="stroke:#181818;stroke-width:1.0;"/><line style="stroke:#181818;stroke-width:1.0;" x1="173" x2="509" y1="164.2734" y2="164.2734"/><text fill="#000000" font-family="sans-serif" font-size="13" lengthAdjust="spacing" textLength="74" x="180" y="159.417">Create Order</text><path d="M222,179.2734 L349,179.2734 L349,187.625 L339,197.625 L222,197.625 L222,179.2734 " fill="#EEEEEE" style="stroke:#000000;stroke-width:1.5;"/><rect fill="none" height="79.0547" style="stroke:#000000;stroke-width:1.5;" width="356" x="222" y="179.2734"/><text fill="#000000" font-family="sans-serif" font-size="13" font-weight="bold" lengthAdjust="spacing" textLength="82" x="237" y="193.7686">Create Order</text><polygon fill="#181818" points="294,215.9766,284,219.9766,294,223.9766,290,219.9766" style="stroke:#181818;stroke-width:1.0;"/><line style="stroke:#181818;stroke-width:1.0;" x1="288" x2="514" y1="219.9766" y2="219.9766"/><text fill="#000000" font-family="sans-serif" font-size="13" lengthAdjust="spacing" textLength="68" x="300" y="215.1201">Insert Order</text><polygon fill="#181818" points="294,246.3281,284,250.3281,294,254.3281,290,250.3281" style="stroke:#181818;stroke-width:1.0;"/><line style="stroke:#181818;stroke-width:1.0;" x1="288" x2="514" y1="250.3281" y2="250.3281"/><text fill="#000000" font-family="sans-serif" font-size="13" lengthAdjust="spacing" textLength="151" x="300" y="245.4717">Send Order Created Event</text><polygon fill="#181818" points="622,283.6797,632,287.6797,622,291.6797,626,287.6797" style="stroke:#181818;stroke-width:1.0;"/><line style="stroke:#181818;stroke-width:1.0;" x1="173" x2="628" y1="287.6797" y2="287.6797"/><text fill="#000000" font-family="sans-serif" font-size="13" lengthAdjust="spacing" textLength="82" x="180" y="282.8232">Delete Basket</text><path d="M334,302.6797 L466,302.6797 L466,311.0313 L456,321.0313 L334,321.0313 L334,302.6797 " fill="#EEEEEE" style="stroke:#000000;stroke-width:1.5;"/><rect fill="none" height="48.7031" style="stroke:#000000;stroke-width:1.5;" width="366" x="334" y="302.6797"/><text fill="#000000" font-family="sans-serif" font-size="13" font-weight="bold" lengthAdjust="spacing" textLength="87" x="349" y="317.1748">Delete Basket</text><polygon fill="#181818" points="409,339.3828,399,343.3828,409,347.3828,405,343.3828" style="stroke:#181818;stroke-width:1.0;"/><line style="stroke:#181818;stroke-width:1.0;" x1="403" x2="633" y1="343.3828" y2="343.3828"/><text fill="#000000" font-family="sans-serif" font-size="13" lengthAdjust="spacing" textLength="82" x="415" y="338.5264">Delete Basket</text><!--SRC=[lPCnRuCm48LtVeMLFKoTEdG8eLM6gfNu1HOyKXHZq-CWwR_l0Q7KeGEHK0S6F_lTvti-k6035KUkB44ftetct56fjke55gGPUvJQPY8ax0WvESl-OfVd8aGVI4-kwVVmsS2cw5GvW0ihWnOc22fDNAH5fSMsYIyCijfibAvLz72Ga_Hit3bCNCvdJKY-QaPPX-F1OUqNyU_Hbver4_gjX9DdXfgsf9fFUgCC9BrHMwHO1kejhzhg8qhyGUlthnLzs4xN9_1zjC4pWmpoI0cM1wssJ-jbgHv_9YGuackgQRaUGouSUg5sL89KKhqwadzBDuObFT_ph7A3Wwr1_6-u1FAt3iCwD9gfk1LV8FhQMNkp9Umz32JPGRwcxMktdYK1B1di6Rphjlk2Rm00]--></g></svg>