<?xml version="1.0" encoding="us-ascii" standalone="no"?><svg xmlns="http://www.w3.org/2000/svg" xmlns:xlink="http://www.w3.org/1999/xlink" contentStyleType="text/css" height="438px" preserveAspectRatio="none" style="width:785px;height:438px;background:#FFFFFF;" version="1.1" viewBox="0 0 785 438" width="785px" zoomAndPan="magnify"><defs/><g><text fill="#000000" font-family="sans-serif" font-size="14" font-weight="bold" lengthAdjust="spacing" textLength="757" x="10" y="29.5332">ECommercePlatform - GenerateDemand - Storefront - Storefront Bff - Checkout - Sequence - Container level</text><rect fill="#FFFFFF" height="387.7344" style="stroke:#181818;stroke-width:0.5;" width="246.5" x="270.5" y="44.6094"/><text fill="#000000" font-family="sans-serif" font-size="13" font-weight="bold" lengthAdjust="spacing" textLength="88" x="349.75" y="58.1045">Order Service</text><rect fill="#FFFFFF" height="387.7344" style="stroke:#181818;stroke-width:0.5;" width="168.5" x="519" y="44.6094"/><text fill="#000000" font-family="sans-serif" font-size="13" font-weight="bold" lengthAdjust="spacing" textLength="94" x="556.25" y="58.1045">Basket Service</text><rect fill="none" height="234.8125" style="stroke:#000000;stroke-width:1.5;" width="569" x="134.5" y="144.9219"/><rect fill="none" height="79.0547" style="stroke:#000000;stroke-width:1.5;" width="258.5" x="264.5" y="200.625"/><rect fill="none" height="48.7031" style="stroke:#000000;stroke-width:1.5;" width="180.5" x="513" y="324.0313"/><line style="stroke:#181818;stroke-width:0.5;stroke-dasharray:5.0,5.0;" x1="101.5" x2="101.5" y1="97.5703" y2="396.7344"/><line style="stroke:#181818;stroke-width:0.5;stroke-dasharray:5.0,5.0;" x1="193.5" x2="193.5" y1="97.5703" y2="396.7344"/><line style="stroke:#181818;stroke-width:0.5;stroke-dasharray:5.0,5.0;" x1="291.5" x2="291.5" y1="97.5703" y2="396.7344"/><line style="stroke:#181818;stroke-width:0.5;stroke-dasharray:5.0,5.0;" x1="383" x2="383" y1="97.5703" y2="396.7344"/><line style="stroke:#181818;stroke-width:0.5;stroke-dasharray:5.0,5.0;" x1="472" x2="472" y1="97.5703" y2="396.7344"/><line style="stroke:#181818;stroke-width:0.5;stroke-dasharray:5.0,5.0;" x1="540" x2="540" y1="97.5703" y2="396.7344"/><line style="stroke:#181818;stroke-width:0.5;stroke-dasharray:5.0,5.0;" x1="645.5" x2="645.5" y1="97.5703" y2="396.7344"/><rect fill="#E2E2F0" height="31.6094" rx="2.5" ry="2.5" style="stroke:#181818;stroke-width:0.5;" width="65" x="69.5" y="64.9609"/><text fill="#000000" font-family="sans-serif" font-size="14" lengthAdjust="spacing" textLength="51" x="76.5" y="86.4941">External</text><rect fill="#E2E2F0" height="31.6094" rx="2.5" ry="2.5" style="stroke:#181818;stroke-width:0.5;" width="65" x="69.5" y="395.7344"/><text fill="#000000" font-family="sans-serif" font-size="14" lengthAdjust="spacing" textLength="51" x="76.5" y="417.2676">External</text><rect fill="#E2E2F0" height="31.6094" rx="2.5" ry="2.5" style="stroke:#181818;stroke-width:0.5;" width="98" x="144.5" y="64.9609"/><text fill="#000000" font-family="sans-serif" font-size="14" lengthAdjust="spacing" textLength="84" x="151.5" y="86.4941">Storefront Bff</text><rect fill="#E2E2F0" height="31.6094" rx="2.5" ry="2.5" style="stroke:#181818;stroke-width:0.5;" width="98" x="144.5" y="395.7344"/><text fill="#000000" font-family="sans-serif" font-size="14" lengthAdjust="spacing" textLength="84" x="151.5" y="417.2676">Storefront Bff</text><rect fill="#E2E2F0" height="31.6094" rx="2.5" ry="2.5" style="stroke:#181818;stroke-width:0.5;" width="34" x="274.5" y="64.9609"/><text fill="#000000" font-family="sans-serif" font-size="14" lengthAdjust="spacing" textLength="20" x="281.5" y="86.4941">Api</text><rect fill="#E2E2F0" height="31.6094" rx="2.5" ry="2.5" style="stroke:#181818;stroke-width:0.5;" width="34" x="274.5" y="395.7344"/><text fill="#000000" font-family="sans-serif" font-size="14" lengthAdjust="spacing" textLength="20" x="281.5" y="417.2676">Api</text><rect fill="#E2E2F0" height="31.6094" rx="2.5" ry="2.5" style="stroke:#181818;stroke-width:0.5;" width="75" x="346" y="64.9609"/><text fill="#000000" font-family="sans-serif" font-size="14" lengthAdjust="spacing" textLength="61" x="353" y="86.4941">Database</text><rect fill="#E2E2F0" height="31.6094" rx="2.5" ry="2.5" style="stroke:#181818;stroke-width:0.5;" width="75" x="346" y="395.7344"/><text fill="#000000" font-family="sans-serif" font-size="14" lengthAdjust="spacing" textLength="61" x="353" y="417.2676">Database</text><rect fill="#E2E2F0" height="31.6094" rx="2.5" ry="2.5" style="stroke:#181818;stroke-width:0.5;" width="82" x="431" y="64.9609"/><text fill="#000000" font-family="sans-serif" font-size="14" lengthAdjust="spacing" textLength="68" x="438" y="86.4941">Messaging</text><rect fill="#E2E2F0" height="31.6094" rx="2.5" ry="2.5" style="stroke:#181818;stroke-width:0.5;" width="82" x="431" y="395.7344"/><text fill="#000000" font-family="sans-serif" font-size="14" lengthAdjust="spacing" textLength="68" x="438" y="417.2676">Messaging</text><rect fill="#E2E2F0" height="31.6094" rx="2.5" ry="2.5" style="stroke:#181818;stroke-width:0.5;" width="34" x="523" y="64.9609"/><text fill="#000000" font-family="sans-serif" font-size="14" lengthAdjust="spacing" textLength="20" x="530" y="86.4941">Api</text><rect fill="#E2E2F0" height="31.6094" rx="2.5" ry="2.5" style="stroke:#181818;stroke-width:0.5;" width="34" x="523" y="395.7344"/><text fill="#000000" font-family="sans-serif" font-size="14" lengthAdjust="spacing" textLength="20" x="530" y="417.2676">Api</text><rect fill="#E2E2F0" height="31.6094" rx="2.5" ry="2.5" style="stroke:#181818;stroke-width:0.5;" width="75" x="608.5" y="64.9609"/><text fill="#000000" font-family="sans-serif" font-size="14" lengthAdjust="spacing" textLength="61" x="615.5" y="86.4941">Database</text><rect fill="#E2E2F0" height="31.6094" rx="2.5" ry="2.5" style="stroke:#181818;stroke-width:0.5;" width="75" x="608.5" y="395.7344"/><text fill="#000000" font-family="sans-serif" font-size="14" lengthAdjust="spacing" textLength="61" x="615.5" y="417.2676">Database</text><polygon fill="#181818" points="181.5,125.9219,191.5,129.9219,181.5,133.9219,185.5,129.9219" style="stroke:#181818;stroke-width:1.0;"/><line style="stroke:#181818;stroke-width:1.0;" x1="102" x2="187.5" y1="129.9219" y2="129.9219"/><text fill="#000000" font-family="sans-serif" font-size="13" lengthAdjust="spacing" textLength="55" x="109" y="125.0654">Checkout</text><path d="M134.5,144.9219 L238.5,144.9219 L238.5,153.2734 L228.5,163.2734 L134.5,163.2734 L134.5,144.9219 " fill="#EEEEEE" style="stroke:#000000;stroke-width:1.5;"/><rect fill="none" height="234.8125" style="stroke:#000000;stroke-width:1.5;" width="569" x="134.5" y="144.9219"/><text fill="#000000" font-family="sans-serif" font-size="13" font-weight="bold" lengthAdjust="spacing" textLength="59" x="149.5" y="159.417">Checkout</text><polygon fill="#181818" points="279.5,181.625,289.5,185.625,279.5,189.625,283.5,185.625" style="stroke:#181818;stroke-width:1.0;"/><line style="stroke:#181818;stroke-width:1.0;" x1="193.5" x2="285.5" y1="185.625" y2="185.625"/><text fill="#000000" font-family="sans-serif" font-size="13" lengthAdjust="spacing" textLength="74" x="200.5" y="180.7686">Create Order</text><path d="M264.5,200.625 L391.5,200.625 L391.5,208.9766 L381.5,218.9766 L264.5,218.9766 L264.5,200.625 " fill="#EEEEEE" style="stroke:#000000;stroke-width:1.5;"/><rect fill="none" height="79.0547" style="stroke:#000000;stroke-width:1.5;" width="258.5" x="264.5" y="200.625"/><text fill="#000000" font-family="sans-serif" font-size="13" font-weight="bold" lengthAdjust="spacing" textLength="82" x="279.5" y="215.1201">Create Order</text><polygon fill="#181818" points="371.5,237.3281,381.5,241.3281,371.5,245.3281,375.5,241.3281" style="stroke:#181818;stroke-width:1.0;"/><line style="stroke:#181818;stroke-width:1.0;" x1="291.5" x2="377.5" y1="241.3281" y2="241.3281"/><text fill="#000000" font-family="sans-serif" font-size="13" lengthAdjust="spacing" textLength="68" x="298.5" y="236.4717">Insert Order</text><polygon fill="#181818" points="460,267.6797,470,271.6797,460,275.6797,464,271.6797" style="stroke:#181818;stroke-width:1.0;"/><line style="stroke:#181818;stroke-width:1.0;" x1="291.5" x2="466" y1="271.6797" y2="271.6797"/><text fill="#000000" font-family="sans-serif" font-size="13" lengthAdjust="spacing" textLength="151" x="298.5" y="266.8232">Send Order Created Event</text><polygon fill="#181818" points="528,305.0313,538,309.0313,528,313.0313,532,309.0313" style="stroke:#181818;stroke-width:1.0;"/><line style="stroke:#181818;stroke-width:1.0;" x1="193.5" x2="534" y1="309.0313" y2="309.0313"/><text fill="#000000" font-family="sans-serif" font-size="13" lengthAdjust="spacing" textLength="82" x="200.5" y="304.1748">Delete Basket</text><path d="M513,324.0313 L645,324.0313 L645,332.3828 L635,342.3828 L513,342.3828 L513,324.0313 " fill="#EEEEEE" style="stroke:#000000;stroke-width:1.5;"/><rect fill="none" height="48.7031" style="stroke:#000000;stroke-width:1.5;" width="180.5" x="513" y="324.0313"/><text fill="#000000" font-family="sans-serif" font-size="13" font-weight="bold" lengthAdjust="spacing" textLength="87" x="528" y="338.5264">Delete Basket</text><polygon fill="#181818" points="634,360.7344,644,364.7344,634,368.7344,638,364.7344" style="stroke:#181818;stroke-width:1.0;"/><line style="stroke:#181818;stroke-width:1.0;" x1="540" x2="640" y1="364.7344" y2="364.7344"/><text fill="#000000" font-family="sans-serif" font-size="13" lengthAdjust="spacing" textLength="82" x="547" y="359.8779">Delete Basket</text><!--SRC=[rLGzJyCm4DtzAwmmDnCJ0nBz07MeGCh0V4rVWjN43hRxmR_daZH9ep0KQ928bE7Ev_Vk-JwyyXdaOcRo73R6IqO-CJQN4_a43KiUS-IaD-o8lB58hD6-RqoJX1spDyHRiwlEyBw3Zb5wEO0K0yaCUsH256IzYbL1V35O73sifYoGvEJiTgdPVCpC8OnCuWza4NquZzo5JM1jzq7wcLHG0pbXNqpOtHbGTKUC9iJQ76NmR3Ui88BTgnY1l7bzKnv2yjVBvA5Gbz5NU2lIb2B75pbKvoUwi7r25pB1a7LEdjRaC2vrmpBaNy4vIfLEnqsWfH7WRkIoY5DnfkIsy5UiJWquIAnsZrELxrAsrUZUulBnaPFxwqs8l6idNwJMx8hEl1x79Gd_OgPA3HOC9QkWHiUvQrJwCUKrdS8Qbzh1-lykgDq3h2WgsxzUpdMrDdAnPx1oBFwu_NwmD5Z071cun-geKz_rVQCGZo7ehD7w2ifQbB_u1000]--></g></svg>