<?xml version="1.0" encoding="us-ascii" standalone="no"?><svg xmlns="http://www.w3.org/2000/svg" xmlns:xlink="http://www.w3.org/1999/xlink" contentStyleType="text/css" height="909px" preserveAspectRatio="none" style="width:690px;height:909px;background:#FFFFFF;" version="1.1" viewBox="0 0 690 909" width="690px" zoomAndPan="magnify"><defs/><g><text fill="#000000" font-family="sans-serif" font-size="14" font-weight="bold" lengthAdjust="spacing" textLength="335" x="179" y="29.5332">Manage Accounts - Sequence - Container level)</text><rect fill="#FFFFFF" height="859.0078" style="stroke:#181818;stroke-width:0.5;" width="538" x="120" y="44.6094"/><text fill="#000000" font-family="sans-serif" font-size="13" font-weight="bold" lengthAdjust="spacing" textLength="51" x="363.5" y="58.1045">TraderX</text><rect fill="none" height="360.2188" style="stroke:#000000;stroke-width:1.5;" width="674" x="10" y="114.5703"/><rect fill="none" height="297.5156" style="stroke:#000000;stroke-width:1.5;" width="560" x="114" y="170.2734"/><rect fill="none" height="48.7031" style="stroke:#000000;stroke-width:1.5;" width="233.5" x="305.5" y="225.9766"/><rect fill="none" height="48.7031" style="stroke:#000000;stroke-width:1.5;" width="358.5" x="305.5" y="319.0313"/><rect fill="none" height="48.7031" style="stroke:#000000;stroke-width:1.5;" width="358.5" x="305.5" y="412.0859"/><rect fill="none" height="174.1094" style="stroke:#000000;stroke-width:1.5;" width="549" x="10" y="488.7891"/><rect fill="none" height="111.4063" style="stroke:#000000;stroke-width:1.5;" width="435" x="114" y="544.4922"/><rect fill="none" height="48.7031" style="stroke:#000000;stroke-width:1.5;" width="233.5" x="305.5" y="600.1953"/><rect fill="none" height="174.1094" style="stroke:#000000;stroke-width:1.5;" width="549" x="10" y="676.8984"/><rect fill="none" height="111.4063" style="stroke:#000000;stroke-width:1.5;" width="435" x="114" y="732.6016"/><rect fill="none" height="48.7031" style="stroke:#000000;stroke-width:1.5;" width="233.5" x="305.5" y="788.3047"/><line style="stroke:#181818;stroke-width:0.5;stroke-dasharray:5.0,5.0;" x1="48" x2="48" y1="97.5703" y2="868.0078"/><line style="stroke:#181818;stroke-width:0.5;stroke-dasharray:5.0,5.0;" x1="165" x2="165" y1="97.5703" y2="868.0078"/><line style="stroke:#181818;stroke-width:0.5;stroke-dasharray:5.0,5.0;" x1="350.5" x2="350.5" y1="97.5703" y2="868.0078"/><line style="stroke:#181818;stroke-width:0.5;stroke-dasharray:5.0,5.0;" x1="467" x2="467" y1="97.5703" y2="868.0078"/><line style="stroke:#181818;stroke-width:0.5;stroke-dasharray:5.0,5.0;" x1="596" x2="596" y1="97.5703" y2="868.0078"/><rect fill="#E2E2F0" height="31.6094" rx="2.5" ry="2.5" style="stroke:#181818;stroke-width:0.5;" width="57" x="20" y="64.9609"/><text fill="#000000" font-family="sans-serif" font-size="14" lengthAdjust="spacing" textLength="43" x="27" y="86.4941">Trader</text><rect fill="#E2E2F0" height="31.6094" rx="2.5" ry="2.5" style="stroke:#181818;stroke-width:0.5;" width="57" x="20" y="867.0078"/><text fill="#000000" font-family="sans-serif" font-size="14" lengthAdjust="spacing" textLength="43" x="27" y="888.541">Trader</text><rect fill="#E2E2F0" height="31.6094" rx="2.5" ry="2.5" style="stroke:#181818;stroke-width:0.5;" width="83" x="124" y="64.9609"/><text fill="#000000" font-family="sans-serif" font-size="14" lengthAdjust="spacing" textLength="69" x="131" y="86.4941">Web Client</text><rect fill="#E2E2F0" height="31.6094" rx="2.5" ry="2.5" style="stroke:#181818;stroke-width:0.5;" width="83" x="124" y="867.0078"/><text fill="#000000" font-family="sans-serif" font-size="14" lengthAdjust="spacing" textLength="69" x="131" y="888.541">Web Client</text><rect fill="#E2E2F0" height="31.6094" rx="2.5" ry="2.5" style="stroke:#181818;stroke-width:0.5;" width="70" x="315.5" y="64.9609"/><text fill="#000000" font-family="sans-serif" font-size="14" lengthAdjust="spacing" textLength="56" x="322.5" y="86.4941">Web GUI</text><rect fill="#E2E2F0" height="31.6094" rx="2.5" ry="2.5" style="stroke:#181818;stroke-width:0.5;" width="70" x="315.5" y="867.0078"/><text fill="#000000" font-family="sans-serif" font-size="14" lengthAdjust="spacing" textLength="56" x="322.5" y="888.541">Web GUI</text><rect fill="#E2E2F0" height="31.6094" rx="2.5" ry="2.5" style="stroke:#181818;stroke-width:0.5;" width="123" x="406" y="64.9609"/><text fill="#000000" font-family="sans-serif" font-size="14" lengthAdjust="spacing" textLength="109" x="413" y="86.4941">Accounts Service</text><rect fill="#E2E2F0" height="31.6094" rx="2.5" ry="2.5" style="stroke:#181818;stroke-width:0.5;" width="123" x="406" y="867.0078"/><text fill="#000000" font-family="sans-serif" font-size="14" lengthAdjust="spacing" textLength="109" x="413" y="888.541">Accounts Service</text><rect fill="#E2E2F0" height="31.6094" rx="2.5" ry="2.5" style="stroke:#181818;stroke-width:0.5;" width="115" x="539" y="64.9609"/><text fill="#000000" font-family="sans-serif" font-size="14" lengthAdjust="spacing" textLength="101" x="546" y="86.4941">Position Service</text><rect fill="#E2E2F0" height="31.6094" rx="2.5" ry="2.5" style="stroke:#181818;stroke-width:0.5;" width="115" x="539" y="867.0078"/><text fill="#000000" font-family="sans-serif" font-size="14" lengthAdjust="spacing" textLength="101" x="546" y="888.541">Position Service</text><path d="M10,114.5703 L196,114.5703 L196,122.9219 L186,132.9219 L10,132.9219 L10,114.5703 " fill="#EEEEEE" style="stroke:#000000;stroke-width:1.5;"/><rect fill="none" height="360.2188" style="stroke:#000000;stroke-width:1.5;" width="674" x="10" y="114.5703"/><text fill="#000000" font-family="sans-serif" font-size="13" font-weight="bold" lengthAdjust="spacing" textLength="141" x="25" y="129.0654">Trader - View Account</text><polygon fill="#181818" points="153.5,151.2734,163.5,155.2734,153.5,159.2734,157.5,155.2734" style="stroke:#181818;stroke-width:1.0;"/><line style="stroke:#181818;stroke-width:1.0;" x1="48.5" x2="159.5" y1="155.2734" y2="155.2734"/><text fill="#000000" font-family="sans-serif" font-size="13" lengthAdjust="spacing" textLength="80" x="55.5" y="150.417">View Account</text><path d="M114,170.2734 L246,170.2734 L246,178.625 L236,188.625 L114,188.625 L114,170.2734 " fill="#EEEEEE" style="stroke:#000000;stroke-width:1.5;"/><rect fill="none" height="297.5156" style="stroke:#000000;stroke-width:1.5;" width="560" x="114" y="170.2734"/><text fill="#000000" font-family="sans-serif" font-size="13" font-weight="bold" lengthAdjust="spacing" textLength="87" x="129" y="184.7686">View Account</text><polygon fill="#181818" points="338.5,206.9766,348.5,210.9766,338.5,214.9766,342.5,210.9766" style="stroke:#181818;stroke-width:1.0;"/><line style="stroke:#181818;stroke-width:1.0;" x1="165.5" x2="344.5" y1="210.9766" y2="210.9766"/><text fill="#000000" font-family="sans-serif" font-size="13" lengthAdjust="spacing" textLength="80" x="172.5" y="206.1201">Load Account</text><path d="M305.5,225.9766 L437.5,225.9766 L437.5,234.3281 L427.5,244.3281 L305.5,244.3281 L305.5,225.9766 " fill="#EEEEEE" style="stroke:#000000;stroke-width:1.5;"/><rect fill="none" height="48.7031" style="stroke:#000000;stroke-width:1.5;" width="233.5" x="305.5" y="225.9766"/><text fill="#000000" font-family="sans-serif" font-size="13" font-weight="bold" lengthAdjust="spacing" textLength="87" x="320.5" y="240.4717">Load Account</text><polygon fill="#181818" points="455.5,262.6797,465.5,266.6797,455.5,270.6797,459.5,266.6797" style="stroke:#181818;stroke-width:1.0;"/><line style="stroke:#181818;stroke-width:1.0;" x1="350.5" x2="461.5" y1="266.6797" y2="266.6797"/><text fill="#000000" font-family="sans-serif" font-size="13" lengthAdjust="spacing" textLength="80" x="357.5" y="261.8232">Get Accounts</text><polygon fill="#181818" points="338.5,300.0313,348.5,304.0313,338.5,308.0313,342.5,304.0313" style="stroke:#181818;stroke-width:1.0;"/><line style="stroke:#181818;stroke-width:1.0;" x1="165.5" x2="344.5" y1="304.0313" y2="304.0313"/><text fill="#000000" font-family="sans-serif" font-size="13" lengthAdjust="spacing" textLength="146" x="172.5" y="299.1748">Load Trades For Account</text><path d="M305.5,319.0313 L509.5,319.0313 L509.5,327.3828 L499.5,337.3828 L305.5,337.3828 L305.5,319.0313 " fill="#EEEEEE" style="stroke:#000000;stroke-width:1.5;"/><rect fill="none" height="48.7031" style="stroke:#000000;stroke-width:1.5;" width="358.5" x="305.5" y="319.0313"/><text fill="#000000" font-family="sans-serif" font-size="13" font-weight="bold" lengthAdjust="spacing" textLength="159" x="320.5" y="333.5264">Load Trades For Account</text><polygon fill="#181818" points="584.5,355.7344,594.5,359.7344,584.5,363.7344,588.5,359.7344" style="stroke:#181818;stroke-width:1.0;"/><line style="stroke:#181818;stroke-width:1.0;" x1="350.5" x2="590.5" y1="359.7344" y2="359.7344"/><text fill="#000000" font-family="sans-serif" font-size="13" lengthAdjust="spacing" textLength="139" x="357.5" y="354.8779">Get Trades For Account</text><polygon fill="#181818" points="338.5,393.0859,348.5,397.0859,338.5,401.0859,342.5,397.0859" style="stroke:#181818;stroke-width:1.0;"/><line style="stroke:#181818;stroke-width:1.0;" x1="165.5" x2="344.5" y1="397.0859" y2="397.0859"/><text fill="#000000" font-family="sans-serif" font-size="13" lengthAdjust="spacing" textLength="161" x="172.5" y="392.2295">Load Positions For Account</text><path d="M305.5,412.0859 L523.5,412.0859 L523.5,420.4375 L513.5,430.4375 L305.5,430.4375 L305.5,412.0859 " fill="#EEEEEE" style="stroke:#000000;stroke-width:1.5;"/><rect fill="none" height="48.7031" style="stroke:#000000;stroke-width:1.5;" width="358.5" x="305.5" y="412.0859"/><text fill="#000000" font-family="sans-serif" font-size="13" font-weight="bold" lengthAdjust="spacing" textLength="173" x="320.5" y="426.5811">Load Positions For Account</text><polygon fill="#181818" points="584.5,448.7891,594.5,452.7891,584.5,456.7891,588.5,452.7891" style="stroke:#181818;stroke-width:1.0;"/><line style="stroke:#181818;stroke-width:1.0;" x1="350.5" x2="590.5" y1="452.7891" y2="452.7891"/><text fill="#000000" font-family="sans-serif" font-size="13" lengthAdjust="spacing" textLength="154" x="357.5" y="447.9326">Get Positions For Account</text><path d="M10,488.7891 L206,488.7891 L206,497.1406 L196,507.1406 L10,507.1406 L10,488.7891 " fill="#EEEEEE" style="stroke:#000000;stroke-width:1.5;"/><rect fill="none" height="174.1094" style="stroke:#000000;stroke-width:1.5;" width="549" x="10" y="488.7891"/><text fill="#000000" font-family="sans-serif" font-size="13" font-weight="bold" lengthAdjust="spacing" textLength="151" x="25" y="503.2842">Trader - Create Account</text><polygon fill="#181818" points="153.5,525.4922,163.5,529.4922,153.5,533.4922,157.5,529.4922" style="stroke:#181818;stroke-width:1.0;"/><line style="stroke:#181818;stroke-width:1.0;" x1="48.5" x2="159.5" y1="529.4922" y2="529.4922"/><text fill="#000000" font-family="sans-serif" font-size="13" lengthAdjust="spacing" textLength="90" x="55.5" y="524.6357">Create Account</text><path d="M114,544.4922 L256,544.4922 L256,552.8438 L246,562.8438 L114,562.8438 L114,544.4922 " fill="#EEEEEE" style="stroke:#000000;stroke-width:1.5;"/><rect fill="none" height="111.4063" style="stroke:#000000;stroke-width:1.5;" width="435" x="114" y="544.4922"/><text fill="#000000" font-family="sans-serif" font-size="13" font-weight="bold" lengthAdjust="spacing" textLength="97" x="129" y="558.9873">Create Account</text><polygon fill="#181818" points="338.5,581.1953,348.5,585.1953,338.5,589.1953,342.5,585.1953" style="stroke:#181818;stroke-width:1.0;"/><line style="stroke:#181818;stroke-width:1.0;" x1="165.5" x2="344.5" y1="585.1953" y2="585.1953"/><text fill="#000000" font-family="sans-serif" font-size="13" lengthAdjust="spacing" textLength="90" x="172.5" y="580.3389">Create Account</text><path d="M305.5,600.1953 L447.5,600.1953 L447.5,608.5469 L437.5,618.5469 L305.5,618.5469 L305.5,600.1953 " fill="#EEEEEE" style="stroke:#000000;stroke-width:1.5;"/><rect fill="none" height="48.7031" style="stroke:#000000;stroke-width:1.5;" width="233.5" x="305.5" y="600.1953"/><text fill="#000000" font-family="sans-serif" font-size="13" font-weight="bold" lengthAdjust="spacing" textLength="97" x="320.5" y="614.6904">Create Account</text><polygon fill="#181818" points="455.5,636.8984,465.5,640.8984,455.5,644.8984,459.5,640.8984" style="stroke:#181818;stroke-width:1.0;"/><line style="stroke:#181818;stroke-width:1.0;" x1="350.5" x2="461.5" y1="640.8984" y2="640.8984"/><text fill="#000000" font-family="sans-serif" font-size="13" lengthAdjust="spacing" textLength="90" x="357.5" y="636.042">Create Account</text><path d="M10,676.8984 L209,676.8984 L209,685.25 L199,695.25 L10,695.25 L10,676.8984 " fill="#EEEEEE" style="stroke:#000000;stroke-width:1.5;"/><rect fill="none" height="174.1094" style="stroke:#000000;stroke-width:1.5;" width="549" x="10" y="676.8984"/><text fill="#000000" font-family="sans-serif" font-size="13" font-weight="bold" lengthAdjust="spacing" textLength="154" x="25" y="691.3936">Trader - Update Account</text><polygon fill="#181818" points="153.5,713.6016,163.5,717.6016,153.5,721.6016,157.5,717.6016" style="stroke:#181818;stroke-width:1.0;"/><line style="stroke:#181818;stroke-width:1.0;" x1="48.5" x2="159.5" y1="717.6016" y2="717.6016"/><text fill="#000000" font-family="sans-serif" font-size="13" lengthAdjust="spacing" textLength="93" x="55.5" y="712.7451">Update Account</text><path d="M114,732.6016 L259,732.6016 L259,740.9531 L249,750.9531 L114,750.9531 L114,732.6016 " fill="#EEEEEE" style="stroke:#000000;stroke-width:1.5;"/><rect fill="none" height="111.4063" style="stroke:#000000;stroke-width:1.5;" width="435" x="114" y="732.6016"/><text fill="#000000" font-family="sans-serif" font-size="13" font-weight="bold" lengthAdjust="spacing" textLength="100" x="129" y="747.0967">Update Account</text><polygon fill="#181818" points="338.5,769.3047,348.5,773.3047,338.5,777.3047,342.5,773.3047" style="stroke:#181818;stroke-width:1.0;"/><line style="stroke:#181818;stroke-width:1.0;" x1="165.5" x2="344.5" y1="773.3047" y2="773.3047"/><text fill="#000000" font-family="sans-serif" font-size="13" lengthAdjust="spacing" textLength="93" x="172.5" y="768.4482">Update Account</text><path d="M305.5,788.3047 L450.5,788.3047 L450.5,796.6563 L440.5,806.6563 L305.5,806.6563 L305.5,788.3047 " fill="#EEEEEE" style="stroke:#000000;stroke-width:1.5;"/><rect fill="none" height="48.7031" style="stroke:#000000;stroke-width:1.5;" width="233.5" x="305.5" y="788.3047"/><text fill="#000000" font-family="sans-serif" font-size="13" font-weight="bold" lengthAdjust="spacing" textLength="100" x="320.5" y="802.7998">Update Account</text><polygon fill="#181818" points="455.5,825.0078,465.5,829.0078,455.5,833.0078,459.5,829.0078" style="stroke:#181818;stroke-width:1.0;"/><line style="stroke:#181818;stroke-width:1.0;" x1="350.5" x2="461.5" y1="829.0078" y2="829.0078"/><text fill="#000000" font-family="sans-serif" font-size="13" lengthAdjust="spacing" textLength="93" x="357.5" y="824.1514">Update Account</text><!--SRC=[nPHHQy8m58NVyolktDCUx0_Omq24oM23GUVqzThUkK1DkkHMvxzVN8siCGugjGg5jCtzpk6ScflIu7A5KE1MLmnsHOmAXM391S6BMoy9HbccAyKMXf3ILqKg8xSSQyKe5HaeQ4t5dH0b6fQPB54n3DuCvcG6W1RgvJmPPQoDJUfR8HRwss-R3-1szYcP1BXVWpEZ1OmBIOeRh5H_y0ODfLlBjFBGUN9mPHCtMG_6ePFfqnb4DtMCEmIKabdBZDfo_Vn-_5ZWLLl9Kgjp1Voy5o2LWujV2B4qkYhtA5VgkwIDxrj4UuFXmrabm7qJNWj7zLfXMzjn3Jelpnhpm4lZKNjcEoD1vSxHXFZmJziLr7ySlniiF6eJIoRozj8X1P_jFgI8aQl4vTsTJ2o-uJgXnRtiSlDNS1AC3I7JnSw205-Bdz3iez7k_NHn9WG6_gbhMkQNh2l0r-8dDFkegti_NTGL6FXRb_W1]--></g></svg>