<?xml version="1.0" encoding="us-ascii" standalone="no"?><svg xmlns="http://www.w3.org/2000/svg" xmlns:xlink="http://www.w3.org/1999/xlink" contentStyleType="text/css" height="383px" preserveAspectRatio="none" style="width:431px;height:383px;background:#FFFFFF;" version="1.1" viewBox="0 0 431 383" width="431px" zoomAndPan="magnify"><defs/><g><text fill="#000000" font-family="sans-serif" font-size="14" font-weight="bold" lengthAdjust="spacing" textLength="403" x="10" y="29.5332">Internet Banking - Mobile App - Sign In - CONTAINER level</text><rect fill="#FFFFFF" height="326.3281" style="stroke:#181818;stroke-width:0.5;" width="317.5" x="78.25" y="44.6094"/><text fill="#000000" font-family="sans-serif" font-size="13" font-weight="bold" lengthAdjust="spacing" textLength="105" x="184.5" y="58.1045">Internet Banking</text><rect fill="none" height="111.4063" style="stroke:#000000;stroke-width:1.5;" width="339.5" x="72.25" y="175.9219"/><rect fill="none" height="48.7031" style="stroke:#000000;stroke-width:1.5;" width="235.5" x="166.25" y="231.625"/><line style="stroke:#181818;stroke-width:0.5;stroke-dasharray:5.0,5.0;" x1="39.25" x2="39.25" y1="128.5703" y2="304.3281"/><line style="stroke:#181818;stroke-width:0.5;stroke-dasharray:5.0,5.0;" x1="124.25" x2="124.25" y1="128.5703" y2="304.3281"/><line style="stroke:#181818;stroke-width:0.5;stroke-dasharray:5.0,5.0;" x1="230.25" x2="230.25" y1="128.5703" y2="304.3281"/><line style="stroke:#181818;stroke-width:0.5;stroke-dasharray:5.0,5.0;" x1="357.75" x2="357.75" y1="128.5703" y2="304.3281"/><rect fill="#E2E2F0" height="31.6094" rx="2.5" ry="2.5" style="stroke:#181818;stroke-width:0.5;" width="65" x="7.25" y="95.9609"/><text fill="#000000" font-family="sans-serif" font-size="14" lengthAdjust="spacing" textLength="51" x="14.25" y="117.4941">External</text><rect fill="#E2E2F0" height="31.6094" rx="2.5" ry="2.5" style="stroke:#181818;stroke-width:0.5;" width="65" x="7.25" y="303.3281"/><text fill="#000000" font-family="sans-serif" font-size="14" lengthAdjust="spacing" textLength="51" x="14.25" y="324.8613">External</text><rect fill="#E2E2F0" height="31.6094" rx="2.5" ry="2.5" style="stroke:#181818;stroke-width:0.5;" width="84" x="82.25" y="95.9609"/><text fill="#000000" font-family="sans-serif" font-size="14" lengthAdjust="spacing" textLength="70" x="89.25" y="117.4941">Mobile App</text><rect fill="#E2E2F0" height="31.6094" rx="2.5" ry="2.5" style="stroke:#181818;stroke-width:0.5;" width="84" x="82.25" y="303.3281"/><text fill="#000000" font-family="sans-serif" font-size="14" lengthAdjust="spacing" textLength="70" x="89.25" y="324.8613">Mobile App</text><rect fill="#E2E2F0" height="31.6094" rx="2.5" ry="2.5" style="stroke:#181818;stroke-width:0.5;" width="108" x="176.25" y="95.9609"/><text fill="#000000" font-family="sans-serif" font-size="14" lengthAdjust="spacing" textLength="94" x="183.25" y="117.4941">API Application</text><rect fill="#E2E2F0" height="31.6094" rx="2.5" ry="2.5" style="stroke:#181818;stroke-width:0.5;" width="108" x="176.25" y="303.3281"/><text fill="#000000" font-family="sans-serif" font-size="14" lengthAdjust="spacing" textLength="94" x="183.25" y="324.8613">API Application</text><text fill="#000000" font-family="sans-serif" font-size="14" lengthAdjust="spacing" textLength="61" x="324.75" y="125.4941">Database</text><path d="M340.25,74.9609 C340.25,64.9609 358.25,64.9609 358.25,64.9609 C358.25,64.9609 376.25,64.9609 376.25,74.9609 L376.25,100.9609 C376.25,110.9609 358.25,110.9609 358.25,110.9609 C358.25,110.9609 340.25,110.9609 340.25,100.9609 L340.25,74.9609 " fill="#E2E2F0" style="stroke:#181818;stroke-width:1.5;"/><path d="M340.25,74.9609 C340.25,84.9609 358.25,84.9609 358.25,84.9609 C358.25,84.9609 376.25,84.9609 376.25,74.9609 " fill="none" style="stroke:#181818;stroke-width:1.5;"/><text fill="#000000" font-family="sans-serif" font-size="14" lengthAdjust="spacing" textLength="61" x="324.75" y="317.8613">Database</text><path d="M340.25,330.9375 C340.25,320.9375 358.25,320.9375 358.25,320.9375 C358.25,320.9375 376.25,320.9375 376.25,330.9375 L376.25,356.9375 C376.25,366.9375 358.25,366.9375 358.25,366.9375 C358.25,366.9375 340.25,366.9375 340.25,356.9375 L340.25,330.9375 " fill="#E2E2F0" style="stroke:#181818;stroke-width:1.5;"/><path d="M340.25,330.9375 C340.25,340.9375 358.25,340.9375 358.25,340.9375 C358.25,340.9375 376.25,340.9375 376.25,330.9375 " fill="none" style="stroke:#181818;stroke-width:1.5;"/><polygon fill="#181818" points="112.25,156.9219,122.25,160.9219,112.25,164.9219,116.25,160.9219" style="stroke:#181818;stroke-width:1.0;"/><line style="stroke:#181818;stroke-width:1.0;" x1="39.75" x2="118.25" y1="160.9219" y2="160.9219"/><text fill="#000000" font-family="sans-serif" font-size="13" lengthAdjust="spacing" textLength="40" x="46.75" y="156.0654">Sign In</text><path d="M72.25,175.9219 L162.25,175.9219 L162.25,184.2734 L152.25,194.2734 L72.25,194.2734 L72.25,175.9219 " fill="#EEEEEE" style="stroke:#000000;stroke-width:1.5;"/><rect fill="none" height="111.4063" style="stroke:#000000;stroke-width:1.5;" width="339.5" x="72.25" y="175.9219"/><text fill="#000000" font-family="sans-serif" font-size="13" font-weight="bold" lengthAdjust="spacing" textLength="45" x="87.25" y="190.417">Sign In</text><polygon fill="#181818" points="218.25,212.625,228.25,216.625,218.25,220.625,222.25,216.625" style="stroke:#181818;stroke-width:1.0;"/><line style="stroke:#181818;stroke-width:1.0;" x1="124.25" x2="224.25" y1="216.625" y2="216.625"/><text fill="#000000" font-family="sans-serif" font-size="13" lengthAdjust="spacing" textLength="40" x="131.25" y="211.7686">Sign In</text><path d="M166.25,231.625 L256.25,231.625 L256.25,239.9766 L246.25,249.9766 L166.25,249.9766 L166.25,231.625 " fill="#EEEEEE" style="stroke:#000000;stroke-width:1.5;"/><rect fill="none" height="48.7031" style="stroke:#000000;stroke-width:1.5;" width="235.5" x="166.25" y="231.625"/><text fill="#000000" font-family="sans-serif" font-size="13" font-weight="bold" lengthAdjust="spacing" textLength="45" x="181.25" y="246.1201">Sign In</text><polygon fill="#181818" points="346.25,268.3281,356.25,272.3281,346.25,276.3281,350.25,272.3281" style="stroke:#181818;stroke-width:1.0;"/><line style="stroke:#181818;stroke-width:1.0;" x1="230.25" x2="352.25" y1="272.3281" y2="272.3281"/><text fill="#000000" font-family="sans-serif" font-size="13" lengthAdjust="spacing" textLength="104" x="237.25" y="267.4717">Authenticate User</text><!--SRC=[hP8nJyCm48Nt-nL7c9k9YG4f3KNAGAa8YFdI7gc5OrlsXRR_7YTjWBOBQh1aoIUVl_VqpbVEKzqGQjhPLZ0qB6G8G9Heni88UyE2Kp8VojGumKTRgNYJEHUBKjKcDiLJ_ZH_oOhvx1arVx86SEH5BPKZ8vZCjXs7T88KCB_fiG_QRjBIlik6F9Ux8Do4T6ZSrm2LtM9owYB1wxUr4WQCwqZdnrolD5LrzsIXbsT20_E0J7DhX9HX7z8z93BE-TcYwE1QBKcKDID48kaNg5TQaL15WJ6vFvn6y0S4i5bXJ140_fuxJkx6PeUtm-U0sjlMVLTZkHTREqxyd_sTm2ysEOmjsijQMREH3idu6jXte-mtV040]--></g></svg>