<?xml version="1.0" encoding="us-ascii" standalone="no"?><svg xmlns="http://www.w3.org/2000/svg" xmlns:xlink="http://www.w3.org/1999/xlink" contentStyleType="text/css" height="383px" preserveAspectRatio="none" style="width:463px;height:383px;background:#FFFFFF;" version="1.1" viewBox="0 0 463 383" width="463px" zoomAndPan="magnify"><defs/><g><text fill="#000000" font-family="sans-serif" font-size="14" font-weight="bold" lengthAdjust="spacing" textLength="435" x="10" y="29.5332">Trader X Example - Execute Trades - Sequence - Context level</text><rect fill="none" height="48.7031" style="stroke:#000000;stroke-width:1.5;" width="242" x="23.5" y="93.2188"/><rect fill="none" height="48.7031" style="stroke:#000000;stroke-width:1.5;" width="313" x="119.5" y="155.9219"/><rect fill="none" height="48.7031" style="stroke:#000000;stroke-width:1.5;" width="290" x="119.5" y="218.625"/><rect fill="none" height="48.7031" style="stroke:#000000;stroke-width:1.5;" width="189" x="23.5" y="281.3281"/><line style="stroke:#181818;stroke-width:0.5;stroke-dasharray:5.0,5.0;" x1="61.5" x2="61.5" y1="76.2188" y2="347.0313"/><line style="stroke:#181818;stroke-width:0.5;stroke-dasharray:5.0,5.0;" x1="161.5" x2="161.5" y1="76.2188" y2="347.0313"/><line style="stroke:#181818;stroke-width:0.5;stroke-dasharray:5.0,5.0;" x1="264.5" x2="264.5" y1="76.2188" y2="347.0313"/><rect fill="#E2E2F0" height="31.6094" rx="2.5" ry="2.5" style="stroke:#181818;stroke-width:0.5;" width="57" x="33.5" y="43.6094"/><text fill="#000000" font-family="sans-serif" font-size="14" lengthAdjust="spacing" textLength="43" x="40.5" y="65.1426">Trader</text><rect fill="#E2E2F0" height="31.6094" rx="2.5" ry="2.5" style="stroke:#181818;stroke-width:0.5;" width="57" x="33.5" y="346.0313"/><text fill="#000000" font-family="sans-serif" font-size="14" lengthAdjust="spacing" textLength="43" x="40.5" y="367.5645">Trader</text><rect fill="#E2E2F0" height="31.6094" rx="2.5" ry="2.5" style="stroke:#181818;stroke-width:0.5;" width="65" x="129.5" y="43.6094"/><text fill="#000000" font-family="sans-serif" font-size="14" lengthAdjust="spacing" textLength="51" x="136.5" y="65.1426">TraderX</text><rect fill="#E2E2F0" height="31.6094" rx="2.5" ry="2.5" style="stroke:#181818;stroke-width:0.5;" width="65" x="129.5" y="346.0313"/><text fill="#000000" font-family="sans-serif" font-size="14" lengthAdjust="spacing" textLength="51" x="136.5" y="367.5645">TraderX</text><rect fill="#E2E2F0" height="31.6094" rx="2.5" ry="2.5" style="stroke:#181818;stroke-width:0.5;" width="120" x="204.5" y="43.6094"/><text fill="#000000" font-family="sans-serif" font-size="14" lengthAdjust="spacing" textLength="106" x="211.5" y="65.1426">External Process</text><rect fill="#E2E2F0" height="31.6094" rx="2.5" ry="2.5" style="stroke:#181818;stroke-width:0.5;" width="120" x="204.5" y="346.0313"/><text fill="#000000" font-family="sans-serif" font-size="14" lengthAdjust="spacing" textLength="106" x="211.5" y="367.5645">External Process</text><path d="M23.5,93.2188 L260.5,93.2188 L260.5,101.5703 L250.5,111.5703 L23.5,111.5703 L23.5,93.2188 " fill="#EEEEEE" style="stroke:#000000;stroke-width:1.5;"/><rect fill="none" height="48.7031" style="stroke:#000000;stroke-width:1.5;" width="242" x="23.5" y="93.2188"/><text fill="#000000" font-family="sans-serif" font-size="13" font-weight="bold" lengthAdjust="spacing" textLength="192" x="38.5" y="107.7139">Trader - Create Trade Request</text><polygon fill="#181818" points="150,129.9219,160,133.9219,150,137.9219,154,133.9219" style="stroke:#181818;stroke-width:1.0;"/><line style="stroke:#181818;stroke-width:1.0;" x1="62" x2="156" y1="133.9219" y2="133.9219"/><text fill="#000000" font-family="sans-serif" font-size="13" lengthAdjust="spacing" textLength="74" x="69" y="129.0654">Create Trade</text><path d="M119.5,155.9219 L427.5,155.9219 L427.5,164.2734 L417.5,174.2734 L119.5,174.2734 L119.5,155.9219 " fill="#EEEEEE" style="stroke:#000000;stroke-width:1.5;"/><rect fill="none" height="48.7031" style="stroke:#000000;stroke-width:1.5;" width="313" x="119.5" y="155.9219"/><text fill="#000000" font-family="sans-serif" font-size="13" font-weight="bold" lengthAdjust="spacing" textLength="263" x="134.5" y="170.417">External Process - Process Trade Request</text><polygon fill="#181818" points="173,192.625,163,196.625,173,200.625,169,196.625" style="stroke:#181818;stroke-width:1.0;"/><line style="stroke:#181818;stroke-width:1.0;" x1="167" x2="263.5" y1="196.625" y2="196.625"/><text fill="#000000" font-family="sans-serif" font-size="13" lengthAdjust="spacing" textLength="28" x="179" y="191.7686">Start</text><path d="M119.5,218.625 L404.5,218.625 L404.5,226.9766 L394.5,236.9766 L119.5,236.9766 L119.5,218.625 " fill="#EEEEEE" style="stroke:#000000;stroke-width:1.5;"/><rect fill="none" height="48.7031" style="stroke:#000000;stroke-width:1.5;" width="290" x="119.5" y="218.625"/><text fill="#000000" font-family="sans-serif" font-size="13" font-weight="bold" lengthAdjust="spacing" textLength="240" x="134.5" y="233.1201">External Process - Refresh Web Client</text><polygon fill="#181818" points="173,255.3281,163,259.3281,173,263.3281,169,259.3281" style="stroke:#181818;stroke-width:1.0;"/><line style="stroke:#181818;stroke-width:1.0;" x1="167" x2="263.5" y1="259.3281" y2="259.3281"/><text fill="#000000" font-family="sans-serif" font-size="13" lengthAdjust="spacing" textLength="28" x="179" y="254.4717">Start</text><path d="M23.5,281.3281 L207.5,281.3281 L207.5,289.6797 L197.5,299.6797 L23.5,299.6797 L23.5,281.3281 " fill="#EEEEEE" style="stroke:#000000;stroke-width:1.5;"/><rect fill="none" height="48.7031" style="stroke:#000000;stroke-width:1.5;" width="189" x="23.5" y="281.3281"/><text fill="#000000" font-family="sans-serif" font-size="13" font-weight="bold" lengthAdjust="spacing" textLength="139" x="38.5" y="295.8232">Trader - Cancel Trade</text><polygon fill="#181818" points="150,318.0313,160,322.0313,150,326.0313,154,322.0313" style="stroke:#181818;stroke-width:1.0;"/><line style="stroke:#181818;stroke-width:1.0;" x1="62" x2="156" y1="322.0313" y2="322.0313"/><text fill="#000000" font-family="sans-serif" font-size="13" lengthAdjust="spacing" textLength="76" x="69" y="317.1748">Cancel Trade</text><!--SRC=[lLB1QW913BtFLmJl-W4U117lnIsurtHyjWlZp3QJrUtVTnPdQ5raiL2yXIJlvRqasgW3lGeV85JJjkTJcnBp5C5scain9IfyTl1sg6s2L_HA3cSuOreMRMpJibUQNQbcn36prfbpiROQ92wksNkW-Xwg2aUziA3wYefJWTUt-6sl4C-ENYHOn3WnlhJcJcFU9NHjsK3o9k1YctQ3vwXcoWdDLmzgfkKDku4_vEbZ_Kb7YHuHClBq9qMLfaLEIzdXA8WVjCSRRLm3_mmTFmVXz7Gkh-p_3l6RTPXglW40]--></g></svg>