<?xml version="1.0" encoding="us-ascii" standalone="no"?><svg xmlns="http://www.w3.org/2000/svg" xmlns:xlink="http://www.w3.org/1999/xlink" contentStyleType="text/css" height="1777px" preserveAspectRatio="none" style="width:1186px;height:1777px;background:#FFFFFF;" version="1.1" viewBox="0 0 1186 1777" width="1186px" zoomAndPan="magnify"><defs/><g><text fill="#000000" font-family="sans-serif" font-size="14" font-weight="bold" lengthAdjust="spacing" textLength="449" x="364.75" y="29.5332">Trader X Example - Execute Trades - Sequence - Container level</text><rect fill="#FFFFFF" height="1719.6094" style="stroke:#181818;stroke-width:0.5;" width="1075.5" x="88" y="44.6094"/><text fill="#000000" font-family="sans-serif" font-size="13" font-weight="bold" lengthAdjust="spacing" textLength="51" x="600.25" y="58.1045">TraderX</text><rect fill="none" height="316.5703" style="stroke:#000000;stroke-width:1.5;" width="913" x="82" y="236.625"/><rect fill="none" height="237.5156" style="stroke:#000000;stroke-width:1.5;" width="634.5" x="350.5" y="308.6797"/><rect fill="none" height="111.7578" style="stroke:#000000;stroke-width:1.5;" width="369.5" x="605.5" y="427.4375"/><rect fill="none" height="298.5703" style="stroke:#000000;stroke-width:1.5;" width="399.5" x="770" y="654.8984"/><rect fill="none" height="250.5156" style="stroke:#000000;stroke-width:1.5;" width="903" x="72" y="1055.1719"/><rect fill="none" height="78.0547" style="stroke:#000000;stroke-width:1.5;" width="306" x="82" y="1220.6328"/><rect fill="none" height="269.8672" style="stroke:#000000;stroke-width:1.5;" width="913" x="82" y="1410.7422"/><rect fill="none" height="190.8125" style="stroke:#000000;stroke-width:1.5;" width="634.5" x="350.5" y="1482.7969"/><rect fill="none" height="111.7578" style="stroke:#000000;stroke-width:1.5;" width="369.5" x="605.5" y="1554.8516"/><line style="stroke:#181818;stroke-width:0.5;stroke-dasharray:5.0,5.0;" x1="33" x2="33" y1="128.5703" y2="1697.6094"/><line style="stroke:#181818;stroke-width:0.5;stroke-dasharray:5.0,5.0;" x1="133" x2="133" y1="128.5703" y2="1697.6094"/><line style="stroke:#181818;stroke-width:0.5;stroke-dasharray:5.0,5.0;" x1="395.5" x2="395.5" y1="128.5703" y2="1697.6094"/><line style="stroke:#181818;stroke-width:0.5;stroke-dasharray:5.0,5.0;" x1="522.5" x2="522.5" y1="128.5703" y2="1697.6094"/><line style="stroke:#181818;stroke-width:0.5;stroke-dasharray:5.0,5.0;" x1="675.5" x2="675.5" y1="128.5703" y2="1697.6094"/><line style="stroke:#181818;stroke-width:0.5;stroke-dasharray:5.0,5.0;" x1="820" x2="820" y1="128.5703" y2="1697.6094"/><line style="stroke:#181818;stroke-width:0.5;stroke-dasharray:5.0,5.0;" x1="917" x2="917" y1="128.5703" y2="1697.6094"/><line style="stroke:#181818;stroke-width:0.5;stroke-dasharray:5.0,5.0;" x1="1099.5" x2="1099.5" y1="128.5703" y2="1697.6094"/><rect fill="#E2E2F0" height="31.6094" rx="2.5" ry="2.5" style="stroke:#181818;stroke-width:0.5;" width="57" x="5" y="95.9609"/><text fill="#000000" font-family="sans-serif" font-size="14" lengthAdjust="spacing" textLength="43" x="12" y="117.4941">Trader</text><rect fill="#E2E2F0" height="31.6094" rx="2.5" ry="2.5" style="stroke:#181818;stroke-width:0.5;" width="57" x="5" y="1696.6094"/><text fill="#000000" font-family="sans-serif" font-size="14" lengthAdjust="spacing" textLength="43" x="12" y="1718.1426">Trader</text><rect fill="#E2E2F0" height="31.6094" rx="2.5" ry="2.5" style="stroke:#181818;stroke-width:0.5;" width="83" x="92" y="95.9609"/><text fill="#000000" font-family="sans-serif" font-size="14" lengthAdjust="spacing" textLength="69" x="99" y="117.4941">Web Client</text><rect fill="#E2E2F0" height="31.6094" rx="2.5" ry="2.5" style="stroke:#181818;stroke-width:0.5;" width="83" x="92" y="1696.6094"/><text fill="#000000" font-family="sans-serif" font-size="14" lengthAdjust="spacing" textLength="69" x="99" y="1718.1426">Web Client</text><rect fill="#E2E2F0" height="31.6094" rx="2.5" ry="2.5" style="stroke:#181818;stroke-width:0.5;" width="70" x="360.5" y="95.9609"/><text fill="#000000" font-family="sans-serif" font-size="14" lengthAdjust="spacing" textLength="56" x="367.5" y="117.4941">Web GUI</text><rect fill="#E2E2F0" height="31.6094" rx="2.5" ry="2.5" style="stroke:#181818;stroke-width:0.5;" width="70" x="360.5" y="1696.6094"/><text fill="#000000" font-family="sans-serif" font-size="14" lengthAdjust="spacing" textLength="56" x="367.5" y="1718.1426">Web GUI</text><rect fill="#E2E2F0" height="31.6094" rx="2.5" ry="2.5" style="stroke:#181818;stroke-width:0.5;" width="165" x="440.5" y="95.9609"/><text fill="#000000" font-family="sans-serif" font-size="14" lengthAdjust="spacing" textLength="151" x="447.5" y="117.4941">Reference Data Service</text><rect fill="#E2E2F0" height="31.6094" rx="2.5" ry="2.5" style="stroke:#181818;stroke-width:0.5;" width="165" x="440.5" y="1696.6094"/><text fill="#000000" font-family="sans-serif" font-size="14" lengthAdjust="spacing" textLength="151" x="447.5" y="1718.1426">Reference Data Service</text><rect fill="#E2E2F0" height="31.6094" rx="2.5" ry="2.5" style="stroke:#181818;stroke-width:0.5;" width="121" x="615.5" y="95.9609"/><text fill="#000000" font-family="sans-serif" font-size="14" lengthAdjust="spacing" textLength="107" x="622.5" y="117.4941">Trading Services</text><rect fill="#E2E2F0" height="31.6094" rx="2.5" ry="2.5" style="stroke:#181818;stroke-width:0.5;" width="121" x="615.5" y="1696.6094"/><text fill="#000000" font-family="sans-serif" font-size="14" lengthAdjust="spacing" textLength="107" x="622.5" y="1718.1426">Trading Services</text><text fill="#000000" font-family="sans-serif" font-size="14" lengthAdjust="spacing" textLength="74" x="780" y="125.4941">TraderX DB</text><path d="M802,74.9609 C802,64.9609 820,64.9609 820,64.9609 C820,64.9609 838,64.9609 838,74.9609 L838,100.9609 C838,110.9609 820,110.9609 820,110.9609 C820,110.9609 802,110.9609 802,100.9609 L802,74.9609 " fill="#E2E2F0" style="stroke:#181818;stroke-width:1.5;"/><path d="M802,74.9609 C802,84.9609 820,84.9609 820,84.9609 C820,84.9609 838,84.9609 838,74.9609 " fill="none" style="stroke:#181818;stroke-width:1.5;"/><text fill="#000000" font-family="sans-serif" font-size="14" lengthAdjust="spacing" textLength="74" x="780" y="1711.1426">TraderX DB</text><path d="M802,1724.2188 C802,1714.2188 820,1714.2188 820,1714.2188 C820,1714.2188 838,1714.2188 838,1724.2188 L838,1750.2188 C838,1760.2188 820,1760.2188 820,1760.2188 C820,1760.2188 802,1760.2188 802,1750.2188 L802,1724.2188 " fill="#E2E2F0" style="stroke:#181818;stroke-width:1.5;"/><path d="M802,1724.2188 C802,1734.2188 820,1734.2188 820,1734.2188 C820,1734.2188 838,1734.2188 838,1724.2188 " fill="none" style="stroke:#181818;stroke-width:1.5;"/><path d="M875,100.9609 L960,100.9609 C965,100.9609 965,114.7656 965,114.7656 C965,114.7656 965,128.5703 960,128.5703 L875,128.5703 C870,128.5703 870,114.7656 870,114.7656 C870,114.7656 870,100.9609 875,100.9609 " fill="#E2E2F0" style="stroke:#181818;stroke-width:0.5;"/><path d="M960,100.9609 C955,100.9609 955,114.7656 955,114.7656 C955,128.5703 960,128.5703 960,128.5703 " fill="none" style="stroke:#181818;stroke-width:0.5;"/><text fill="#000000" font-family="sans-serif" font-size="14" lengthAdjust="spacing" textLength="75" x="875" y="120.4941">Trade Feed</text><path d="M875,1696.6094 L960,1696.6094 C965,1696.6094 965,1710.4141 965,1710.4141 C965,1710.4141 965,1724.2188 960,1724.2188 L875,1724.2188 C870,1724.2188 870,1710.4141 870,1710.4141 C870,1710.4141 870,1696.6094 875,1696.6094 " fill="#E2E2F0" style="stroke:#181818;stroke-width:0.5;"/><path d="M960,1696.6094 C955,1696.6094 955,1710.4141 955,1710.4141 C955,1724.2188 960,1724.2188 960,1724.2188 " fill="none" style="stroke:#181818;stroke-width:0.5;"/><text fill="#000000" font-family="sans-serif" font-size="14" lengthAdjust="spacing" textLength="75" x="875" y="1716.1426">Trade Feed</text><rect fill="#E2E2F0" height="31.6094" rx="2.5" ry="2.5" style="stroke:#181818;stroke-width:0.5;" width="120" x="1039.5" y="95.9609"/><text fill="#000000" font-family="sans-serif" font-size="14" lengthAdjust="spacing" textLength="106" x="1046.5" y="117.4941">Trade Processor</text><rect fill="#E2E2F0" height="31.6094" rx="2.5" ry="2.5" style="stroke:#181818;stroke-width:0.5;" width="120" x="1039.5" y="1696.6094"/><text fill="#000000" font-family="sans-serif" font-size="14" lengthAdjust="spacing" textLength="106" x="1046.5" y="1718.1426">Trade Processor</text><rect fill="#EEEEEE" height="3" style="stroke:#EEEEEE;stroke-width:1.0;" width="1179.5" x="0" y="159.7461"/><line style="stroke:#000000;stroke-width:1.0;" x1="0" x2="1179.5" y1="159.7461" y2="159.7461"/><line style="stroke:#000000;stroke-width:1.0;" x1="0" x2="1179.5" y1="162.7461" y2="162.7461"/><rect fill="#EEEEEE" height="24.3516" style="stroke:#000000;stroke-width:2.0;" width="210" x="484.75" y="148.5703"/><text fill="#000000" font-family="sans-serif" font-size="13" font-weight="bold" lengthAdjust="spacing" textLength="192" x="490.75" y="166.0654">Trader - Create Trade Request</text><polygon fill="#181818" points="121.5,217.625,131.5,221.625,121.5,225.625,125.5,221.625" style="stroke:#181818;stroke-width:1.0;"/><line style="stroke:#181818;stroke-width:1.0;" x1="33.5" x2="127.5" y1="221.625" y2="221.625"/><text fill="#000000" font-family="sans-serif" font-size="13" lengthAdjust="spacing" textLength="74" x="40.5" y="200.417">Create Trade</text><text fill="#000000" font-family="sans-serif" font-size="13" lengthAdjust="spacing" textLength="49" x="40.5" y="216.7686">[HTTPS]</text><path d="M82,236.625 L210,236.625 L210,244.9766 L200,254.9766 L82,254.9766 L82,236.625 " fill="#EEEEEE" style="stroke:#000000;stroke-width:1.5;"/><rect fill="none" height="316.5703" style="stroke:#000000;stroke-width:1.5;" width="913" x="82" y="236.625"/><text fill="#000000" font-family="sans-serif" font-size="13" font-weight="bold" lengthAdjust="spacing" textLength="83" x="97" y="251.1201">Create Trade</text><polygon fill="#181818" points="383.5,289.6797,393.5,293.6797,383.5,297.6797,387.5,293.6797" style="stroke:#181818;stroke-width:1.0;"/><line style="stroke:#181818;stroke-width:1.0;" x1="133.5" x2="389.5" y1="293.6797" y2="293.6797"/><text fill="#000000" font-family="sans-serif" font-size="13" lengthAdjust="spacing" textLength="74" x="140.5" y="272.4717">Create Trade</text><text fill="#000000" font-family="sans-serif" font-size="13" lengthAdjust="spacing" textLength="49" x="140.5" y="288.8232">[HTTPS]</text><path d="M350.5,308.6797 L478.5,308.6797 L478.5,317.0313 L468.5,327.0313 L350.5,327.0313 L350.5,308.6797 " fill="#EEEEEE" style="stroke:#000000;stroke-width:1.5;"/><rect fill="none" height="237.5156" style="stroke:#000000;stroke-width:1.5;" width="634.5" x="350.5" y="308.6797"/><text fill="#000000" font-family="sans-serif" font-size="13" font-weight="bold" lengthAdjust="spacing" textLength="83" x="365.5" y="323.1748">Create Trade</text><polygon fill="#181818" points="511,361.7344,521,365.7344,511,369.7344,515,365.7344" style="stroke:#181818;stroke-width:1.0;"/><line style="stroke:#181818;stroke-width:1.0;" x1="395.5" x2="517" y1="365.7344" y2="365.7344"/><text fill="#000000" font-family="sans-serif" font-size="13" lengthAdjust="spacing" textLength="83" x="402.5" y="344.5264">Get Securities</text><text fill="#000000" font-family="sans-serif" font-size="13" lengthAdjust="spacing" textLength="49" x="402.5" y="360.8779">[HTTPS]</text><polygon fill="#181818" points="664,408.4375,674,412.4375,664,416.4375,668,412.4375" style="stroke:#181818;stroke-width:1.0;"/><line style="stroke:#181818;stroke-width:1.0;" x1="395.5" x2="670" y1="412.4375" y2="412.4375"/><text fill="#000000" font-family="sans-serif" font-size="13" lengthAdjust="spacing" textLength="74" x="402.5" y="391.2295">Create Trade</text><text fill="#000000" font-family="sans-serif" font-size="13" lengthAdjust="spacing" textLength="49" x="402.5" y="407.5811">[HTTPS]</text><path d="M605.5,427.4375 L733.5,427.4375 L733.5,435.7891 L723.5,445.7891 L605.5,445.7891 L605.5,427.4375 " fill="#EEEEEE" style="stroke:#000000;stroke-width:1.5;"/><rect fill="none" height="111.7578" style="stroke:#000000;stroke-width:1.5;" width="369.5" x="605.5" y="427.4375"/><text fill="#000000" font-family="sans-serif" font-size="13" font-weight="bold" lengthAdjust="spacing" textLength="83" x="620.5" y="441.9326">Create Trade</text><polygon fill="#181818" points="808,480.4922,818,484.4922,808,488.4922,812,484.4922" style="stroke:#181818;stroke-width:1.0;"/><line style="stroke:#181818;stroke-width:1.0;" x1="676" x2="814" y1="484.4922" y2="484.4922"/><text fill="#000000" font-family="sans-serif" font-size="13" lengthAdjust="spacing" textLength="120" x="683" y="463.2842">Insert Trade Request</text><text fill="#000000" font-family="sans-serif" font-size="13" lengthAdjust="spacing" textLength="41" x="683" y="479.6357">[JDBC]</text><polygon fill="#181818" points="905.5,527.1953,915.5,531.1953,905.5,535.1953,909.5,531.1953" style="stroke:#181818;stroke-width:1.0;"/><line style="stroke:#181818;stroke-width:1.0;" x1="676" x2="911.5" y1="531.1953" y2="531.1953"/><text fill="#000000" font-family="sans-serif" font-size="13" lengthAdjust="spacing" textLength="118" x="683" y="509.9873">Send Trade Request</text><text fill="#000000" font-family="sans-serif" font-size="13" lengthAdjust="spacing" textLength="62" x="683" y="526.3389">[SocketIO]</text><rect fill="#EEEEEE" height="3" style="stroke:#EEEEEE;stroke-width:1.0;" width="1179.5" x="0" y="581.3711"/><line style="stroke:#000000;stroke-width:1.0;" x1="0" x2="1179.5" y1="581.3711" y2="581.3711"/><line style="stroke:#000000;stroke-width:1.0;" x1="0" x2="1179.5" y1="584.3711" y2="584.3711"/><rect fill="#EEEEEE" height="24.3516" style="stroke:#000000;stroke-width:2.0;" width="278" x="450.75" y="570.1953"/><text fill="#000000" font-family="sans-serif" font-size="13" font-weight="bold" lengthAdjust="spacing" textLength="260" x="456.75" y="587.6904">Trade Processor - Process Trade Request</text><line style="stroke:#181818;stroke-width:1.0;" x1="1099.5" x2="1141.5" y1="626.8984" y2="626.8984"/><line style="stroke:#181818;stroke-width:1.0;" x1="1141.5" x2="1141.5" y1="626.8984" y2="639.8984"/><line style="stroke:#181818;stroke-width:1.0;" x1="1100.5" x2="1141.5" y1="639.8984" y2="639.8984"/><polygon fill="#181818" points="1110.5,635.8984,1100.5,639.8984,1110.5,643.8984,1106.5,639.8984" style="stroke:#181818;stroke-width:1.0;"/><text fill="#000000" font-family="sans-serif" font-size="13" lengthAdjust="spacing" textLength="28" x="1106.5" y="622.042">Start</text><path d="M770,654.8984 L845,654.8984 L845,663.25 L835,673.25 L770,673.25 L770,654.8984 " fill="#EEEEEE" style="stroke:#000000;stroke-width:1.5;"/><rect fill="none" height="298.5703" style="stroke:#000000;stroke-width:1.5;" width="399.5" x="770" y="654.8984"/><text fill="#000000" font-family="sans-serif" font-size="13" font-weight="bold" lengthAdjust="spacing" textLength="30" x="785" y="669.3936">Start</text><polygon fill="#181818" points="928.5,707.9531,918.5,711.9531,928.5,715.9531,924.5,711.9531" style="stroke:#181818;stroke-width:1.0;"/><line style="stroke:#181818;stroke-width:1.0;" x1="922.5" x2="1098.5" y1="711.9531" y2="711.9531"/><text fill="#000000" font-family="sans-serif" font-size="13" lengthAdjust="spacing" textLength="133" x="934.5" y="690.7451">Receive Trade Request</text><text fill="#000000" font-family="sans-serif" font-size="13" lengthAdjust="spacing" textLength="62" x="934.5" y="707.0967">[SocketIO]</text><polygon fill="#181818" points="831,754.6563,821,758.6563,831,762.6563,827,758.6563" style="stroke:#181818;stroke-width:1.0;"/><line style="stroke:#181818;stroke-width:1.0;" x1="825" x2="1098.5" y1="758.6563" y2="758.6563"/><text fill="#000000" font-family="sans-serif" font-size="13" lengthAdjust="spacing" textLength="141" x="837" y="737.4482">Select Current Positions</text><text fill="#000000" font-family="sans-serif" font-size="13" lengthAdjust="spacing" textLength="41" x="837" y="753.7998">[JDBC]</text><polygon fill="#181818" points="831,801.3594,821,805.3594,831,809.3594,827,805.3594" style="stroke:#181818;stroke-width:1.0;"/><line style="stroke:#181818;stroke-width:1.0;" x1="825" x2="1098.5" y1="805.3594" y2="805.3594"/><text fill="#000000" font-family="sans-serif" font-size="13" lengthAdjust="spacing" textLength="99" x="837" y="784.1514">Save Trade State</text><text fill="#000000" font-family="sans-serif" font-size="13" lengthAdjust="spacing" textLength="41" x="837" y="800.5029">[JDBC]</text><polygon fill="#181818" points="831,848.0625,821,852.0625,831,856.0625,827,852.0625" style="stroke:#181818;stroke-width:1.0;"/><line style="stroke:#181818;stroke-width:1.0;" x1="825" x2="1098.5" y1="852.0625" y2="852.0625"/><text fill="#000000" font-family="sans-serif" font-size="13" lengthAdjust="spacing" textLength="114" x="837" y="830.8545">Save Position State</text><text fill="#000000" font-family="sans-serif" font-size="13" lengthAdjust="spacing" textLength="41" x="837" y="847.2061">[JDBC]</text><polygon fill="#181818" points="928.5,894.7656,918.5,898.7656,928.5,902.7656,924.5,898.7656" style="stroke:#181818;stroke-width:1.0;"/><line style="stroke:#181818;stroke-width:1.0;" x1="922.5" x2="1098.5" y1="898.7656" y2="898.7656"/><text fill="#000000" font-family="sans-serif" font-size="13" lengthAdjust="spacing" textLength="143" x="934.5" y="877.5576">Send Updates To Trades</text><text fill="#000000" font-family="sans-serif" font-size="13" lengthAdjust="spacing" textLength="62" x="934.5" y="893.9092">[SocketIO]</text><polygon fill="#181818" points="928.5,941.4688,918.5,945.4688,928.5,949.4688,924.5,945.4688" style="stroke:#181818;stroke-width:1.0;"/><line style="stroke:#181818;stroke-width:1.0;" x1="922.5" x2="1098.5" y1="945.4688" y2="945.4688"/><text fill="#000000" font-family="sans-serif" font-size="13" lengthAdjust="spacing" textLength="158" x="934.5" y="924.2607">Send Updates To Positions</text><text fill="#000000" font-family="sans-serif" font-size="13" lengthAdjust="spacing" textLength="62" x="934.5" y="940.6123">[SocketIO]</text><rect fill="#EEEEEE" height="3" style="stroke:#EEEEEE;stroke-width:1.0;" width="1179.5" x="0" y="981.6445"/><line style="stroke:#000000;stroke-width:1.0;" x1="0" x2="1179.5" y1="981.6445" y2="981.6445"/><line style="stroke:#000000;stroke-width:1.0;" x1="0" x2="1179.5" y1="984.6445" y2="984.6445"/><rect fill="#EEEEEE" height="24.3516" style="stroke:#000000;stroke-width:2.0;" width="208" x="485.75" y="970.4688"/><text fill="#000000" font-family="sans-serif" font-size="13" font-weight="bold" lengthAdjust="spacing" textLength="190" x="491.75" y="987.9639">Web GUI - Refresh Web Client</text><line style="stroke:#181818;stroke-width:1.0;" x1="395.5" x2="437.5" y1="1027.1719" y2="1027.1719"/><line style="stroke:#181818;stroke-width:1.0;" x1="437.5" x2="437.5" y1="1027.1719" y2="1040.1719"/><line style="stroke:#181818;stroke-width:1.0;" x1="396.5" x2="437.5" y1="1040.1719" y2="1040.1719"/><polygon fill="#181818" points="406.5,1036.1719,396.5,1040.1719,406.5,1044.1719,402.5,1040.1719" style="stroke:#181818;stroke-width:1.0;"/><text fill="#000000" font-family="sans-serif" font-size="13" lengthAdjust="spacing" textLength="28" x="402.5" y="1022.3154">Start</text><path d="M72,1055.1719 L147,1055.1719 L147,1063.5234 L137,1073.5234 L72,1073.5234 L72,1055.1719 " fill="#EEEEEE" style="stroke:#000000;stroke-width:1.5;"/><rect fill="none" height="250.5156" style="stroke:#000000;stroke-width:1.5;" width="903" x="72" y="1055.1719"/><text fill="#000000" font-family="sans-serif" font-size="13" font-weight="bold" lengthAdjust="spacing" textLength="30" x="87" y="1069.667">Start</text><polygon fill="#181818" points="905.5,1108.2266,915.5,1112.2266,905.5,1116.2266,909.5,1112.2266" style="stroke:#181818;stroke-width:1.0;"/><line style="stroke:#181818;stroke-width:1.0;" x1="395.5" x2="911.5" y1="1112.2266" y2="1112.2266"/><text fill="#000000" font-family="sans-serif" font-size="13" lengthAdjust="spacing" textLength="158" x="402.5" y="1091.0186">Receive Updates To Trades</text><text fill="#000000" font-family="sans-serif" font-size="13" lengthAdjust="spacing" textLength="76" x="402.5" y="1107.3701">[WebSocket]</text><polygon fill="#181818" points="905.5,1154.9297,915.5,1158.9297,905.5,1162.9297,909.5,1158.9297" style="stroke:#181818;stroke-width:1.0;"/><line style="stroke:#181818;stroke-width:1.0;" x1="395.5" x2="911.5" y1="1158.9297" y2="1158.9297"/><text fill="#000000" font-family="sans-serif" font-size="13" lengthAdjust="spacing" textLength="173" x="402.5" y="1137.7217">Receive Updates To Positions</text><text fill="#000000" font-family="sans-serif" font-size="13" lengthAdjust="spacing" textLength="76" x="402.5" y="1154.0732">[WebSocket]</text><polygon fill="#181818" points="144.5,1201.6328,134.5,1205.6328,144.5,1209.6328,140.5,1205.6328" style="stroke:#181818;stroke-width:1.0;"/><line style="stroke:#181818;stroke-width:1.0;" x1="138.5" x2="394.5" y1="1205.6328" y2="1205.6328"/><text fill="#000000" font-family="sans-serif" font-size="13" lengthAdjust="spacing" textLength="238" x="150.5" y="1184.4248">Send Trade And Position Status Updates</text><text fill="#000000" font-family="sans-serif" font-size="13" lengthAdjust="spacing" textLength="76" x="150.5" y="1200.7764">[WebSocket]</text><path d="M82,1220.6328 L383,1220.6328 L383,1228.9844 L373,1238.9844 L82,1238.9844 L82,1220.6328 " fill="#EEEEEE" style="stroke:#000000;stroke-width:1.5;"/><rect fill="none" height="78.0547" style="stroke:#000000;stroke-width:1.5;" width="306" x="82" y="1220.6328"/><text fill="#000000" font-family="sans-serif" font-size="13" font-weight="bold" lengthAdjust="spacing" textLength="256" x="97" y="1235.1279">Send Trade And Position Status Updates</text><line style="stroke:#181818;stroke-width:1.0;" x1="133.5" x2="175.5" y1="1277.6875" y2="1277.6875"/><line style="stroke:#181818;stroke-width:1.0;" x1="175.5" x2="175.5" y1="1277.6875" y2="1290.6875"/><line style="stroke:#181818;stroke-width:1.0;" x1="134.5" x2="175.5" y1="1290.6875" y2="1290.6875"/><polygon fill="#181818" points="144.5,1286.6875,134.5,1290.6875,144.5,1294.6875,140.5,1290.6875" style="stroke:#181818;stroke-width:1.0;"/><text fill="#000000" font-family="sans-serif" font-size="13" lengthAdjust="spacing" textLength="229" x="140.5" y="1256.4795">Update Trade And Position Status View</text><text fill="#000000" font-family="sans-serif" font-size="13" lengthAdjust="spacing" textLength="49" x="140.5" y="1272.8311">[HTTPS]</text><rect fill="#EEEEEE" height="3" style="stroke:#EEEEEE;stroke-width:1.0;" width="1179.5" x="0" y="1333.8633"/><line style="stroke:#000000;stroke-width:1.0;" x1="0" x2="1179.5" y1="1333.8633" y2="1333.8633"/><line style="stroke:#000000;stroke-width:1.0;" x1="0" x2="1179.5" y1="1336.8633" y2="1336.8633"/><rect fill="#EEEEEE" height="24.3516" style="stroke:#000000;stroke-width:2.0;" width="157" x="511.25" y="1322.6875"/><text fill="#000000" font-family="sans-serif" font-size="13" font-weight="bold" lengthAdjust="spacing" textLength="139" x="517.25" y="1340.1826">Trader - Cancel Trade</text><polygon fill="#181818" points="121.5,1391.7422,131.5,1395.7422,121.5,1399.7422,125.5,1395.7422" style="stroke:#181818;stroke-width:1.0;"/><line style="stroke:#181818;stroke-width:1.0;" x1="33.5" x2="127.5" y1="1395.7422" y2="1395.7422"/><text fill="#000000" font-family="sans-serif" font-size="13" lengthAdjust="spacing" textLength="76" x="40.5" y="1374.5342">Cancel Trade</text><text fill="#000000" font-family="sans-serif" font-size="13" lengthAdjust="spacing" textLength="49" x="40.5" y="1390.8857">[HTTPS]</text><path d="M82,1410.7422 L212,1410.7422 L212,1419.0938 L202,1429.0938 L82,1429.0938 L82,1410.7422 " fill="#EEEEEE" style="stroke:#000000;stroke-width:1.5;"/><rect fill="none" height="269.8672" style="stroke:#000000;stroke-width:1.5;" width="913" x="82" y="1410.7422"/><text fill="#000000" font-family="sans-serif" font-size="13" font-weight="bold" lengthAdjust="spacing" textLength="85" x="97" y="1425.2373">Cancel Trade</text><polygon fill="#181818" points="383.5,1463.7969,393.5,1467.7969,383.5,1471.7969,387.5,1467.7969" style="stroke:#181818;stroke-width:1.0;"/><line style="stroke:#181818;stroke-width:1.0;" x1="133.5" x2="389.5" y1="1467.7969" y2="1467.7969"/><text fill="#000000" font-family="sans-serif" font-size="13" lengthAdjust="spacing" textLength="76" x="140.5" y="1446.5889">Cancel Trade</text><text fill="#000000" font-family="sans-serif" font-size="13" lengthAdjust="spacing" textLength="49" x="140.5" y="1462.9404">[HTTPS]</text><path d="M350.5,1482.7969 L480.5,1482.7969 L480.5,1491.1484 L470.5,1501.1484 L350.5,1501.1484 L350.5,1482.7969 " fill="#EEEEEE" style="stroke:#000000;stroke-width:1.5;"/><rect fill="none" height="190.8125" style="stroke:#000000;stroke-width:1.5;" width="634.5" x="350.5" y="1482.7969"/><text fill="#000000" font-family="sans-serif" font-size="13" font-weight="bold" lengthAdjust="spacing" textLength="85" x="365.5" y="1497.292">Cancel Trade</text><polygon fill="#181818" points="664,1535.8516,674,1539.8516,664,1543.8516,668,1539.8516" style="stroke:#181818;stroke-width:1.0;"/><line style="stroke:#181818;stroke-width:1.0;" x1="395.5" x2="670" y1="1539.8516" y2="1539.8516"/><text fill="#000000" font-family="sans-serif" font-size="13" lengthAdjust="spacing" textLength="76" x="402.5" y="1518.6436">Cancel Trade</text><text fill="#000000" font-family="sans-serif" font-size="13" lengthAdjust="spacing" textLength="49" x="402.5" y="1534.9951">[HTTPS]</text><path d="M605.5,1554.8516 L735.5,1554.8516 L735.5,1563.2031 L725.5,1573.2031 L605.5,1573.2031 L605.5,1554.8516 " fill="#EEEEEE" style="stroke:#000000;stroke-width:1.5;"/><rect fill="none" height="111.7578" style="stroke:#000000;stroke-width:1.5;" width="369.5" x="605.5" y="1554.8516"/><text fill="#000000" font-family="sans-serif" font-size="13" font-weight="bold" lengthAdjust="spacing" textLength="85" x="620.5" y="1569.3467">Cancel Trade</text><polygon fill="#181818" points="808,1607.9063,818,1611.9063,808,1615.9063,812,1611.9063" style="stroke:#181818;stroke-width:1.0;"/><line style="stroke:#181818;stroke-width:1.0;" x1="676" x2="814" y1="1611.9063" y2="1611.9063"/><text fill="#000000" font-family="sans-serif" font-size="13" lengthAdjust="spacing" textLength="119" x="683" y="1590.6982">Update Trade Status</text><text fill="#000000" font-family="sans-serif" font-size="13" lengthAdjust="spacing" textLength="41" x="683" y="1607.0498">[JDBC]</text><polygon fill="#181818" points="905.5,1654.6094,915.5,1658.6094,905.5,1662.6094,909.5,1658.6094" style="stroke:#181818;stroke-width:1.0;"/><line style="stroke:#181818;stroke-width:1.0;" x1="676" x2="911.5" y1="1658.6094" y2="1658.6094"/><text fill="#000000" font-family="sans-serif" font-size="13" lengthAdjust="spacing" textLength="143" x="683" y="1637.4014">Send Updates To Trades</text><text fill="#000000" font-family="sans-serif" font-size="13" lengthAdjust="spacing" textLength="62" x="683" y="1653.7529">[SocketIO]</text><!--SRC=[pLPTRzem57tthx3OS_a1avXKOElOon2XAzB6WmcthRNKpco7Tlz-ryJE5nbR4z84AP9butEFh- -vFeQR2EXQiJqekg4VNzXJZ1DNE88mCMv9uqG0ln8GeLsRIM4O5xWZWWD4XCHC6Hxoc0b3HodOY3BjS3SETNmT6gdqE9qbP2TV_Byt8_hkxf4R81H_9RWxsD5Pn46OEiX0tfjdfY3uhGqyUUpDEAEenmYGxg_7lhbTD0V6pQUeAxW7TKpLd1c6YLC77aB381cOnN9Gfo7jHYuUV2pTC9Y3yIZ7E7kCksCQigkYysaBU9oQJu_0M4w9HwMV0FPjKEt- -hG0NIg9Xz5IjGcGWH0GUugbImYPJBnoK1CAc9SBNLcjQ4Cd4t9E0lJgGvjwfkzBKN-8xv_NwsMm9GzA9d5fZRG9qvGbYgDpYZP68tvrkaAsDs1GH66YkE6WSxvlIwwYmswpM0tMcF5HsiXr8JGeKvO2SluodywslVApJGBv1LR1LNQ137-2MNpTMdrddrTutaDGwcxyJws_khMqE5gEWUSps0DTRQJZ7ecvdAyW17w0CsdlaQEhsm0Y20sT9KhPjhUK6fk05BfbxLwK8ijoY3ThO6ZKVCw6mwwe-TiOpGnsaBLqjdOe1VWNaiKABFSdx4lEks8_mgTCWNwakLDkrepQl5ZPSt-9vjFswQmsdRfxnnXfIhV38bYyyzuu5YrcuRMynb59uOdsrCjitVN_ryvUh6bskfJ46PRVE3pdXglg2uxEdw6BZ1n4zuw_4Et421RM-dJydLAyfAdkZkZ5JNMfKDFQ79odFl- -5dqr-GC0]--></g></svg>