<?xml version="1.0" encoding="us-ascii" standalone="no"?><svg xmlns="http://www.w3.org/2000/svg" xmlns:xlink="http://www.w3.org/1999/xlink" contentStyleType="text/css" height="383px" preserveAspectRatio="none" style="width:638px;height:383px;background:#FFFFFF;" version="1.1" viewBox="0 0 638 383" width="638px" zoomAndPan="magnify"><defs/><g><text fill="#000000" font-family="sans-serif" font-size="14" font-weight="bold" lengthAdjust="spacing" textLength="610" x="10" y="29.5332">To Do App Example - To Do App - Mobile App - Delete Task - Sequence - Container level</text><rect fill="#FFFFFF" height="326.3281" style="stroke:#181818;stroke-width:0.5;" width="269.5" x="210" y="44.6094"/><text fill="#000000" font-family="sans-serif" font-size="13" font-weight="bold" lengthAdjust="spacing" textLength="66" x="311.75" y="58.1045">To Do App</text><rect fill="none" height="111.4063" style="stroke:#000000;stroke-width:1.5;" width="291.5" x="204" y="175.9219"/><rect fill="none" height="48.7031" style="stroke:#000000;stroke-width:1.5;" width="180" x="305.5" y="231.625"/><line style="stroke:#181818;stroke-width:0.5;stroke-dasharray:5.0,5.0;" x1="162.5" x2="162.5" y1="128.5703" y2="304.3281"/><line style="stroke:#181818;stroke-width:0.5;stroke-dasharray:5.0,5.0;" x1="256" x2="256" y1="128.5703" y2="304.3281"/><line style="stroke:#181818;stroke-width:0.5;stroke-dasharray:5.0,5.0;" x1="348.5" x2="348.5" y1="128.5703" y2="304.3281"/><line style="stroke:#181818;stroke-width:0.5;stroke-dasharray:5.0,5.0;" x1="441.5" x2="441.5" y1="128.5703" y2="304.3281"/><rect fill="#E2E2F0" height="31.6094" rx="2.5" ry="2.5" style="stroke:#181818;stroke-width:0.5;" width="65" x="130.5" y="95.9609"/><text fill="#000000" font-family="sans-serif" font-size="14" lengthAdjust="spacing" textLength="51" x="137.5" y="117.4941">External</text><rect fill="#E2E2F0" height="31.6094" rx="2.5" ry="2.5" style="stroke:#181818;stroke-width:0.5;" width="65" x="130.5" y="303.3281"/><text fill="#000000" font-family="sans-serif" font-size="14" lengthAdjust="spacing" textLength="51" x="137.5" y="324.8613">External</text><rect fill="#E2E2F0" height="31.6094" rx="2.5" ry="2.5" style="stroke:#181818;stroke-width:0.5;" width="84" x="214" y="95.9609"/><text fill="#000000" font-family="sans-serif" font-size="14" lengthAdjust="spacing" textLength="70" x="221" y="117.4941">Mobile App</text><rect fill="#E2E2F0" height="31.6094" rx="2.5" ry="2.5" style="stroke:#181818;stroke-width:0.5;" width="84" x="214" y="303.3281"/><text fill="#000000" font-family="sans-serif" font-size="14" lengthAdjust="spacing" textLength="70" x="221" y="324.8613">Mobile App</text><rect fill="#E2E2F0" height="31.6094" rx="2.5" ry="2.5" style="stroke:#181818;stroke-width:0.5;" width="67" x="315.5" y="95.9609"/><text fill="#000000" font-family="sans-serif" font-size="14" lengthAdjust="spacing" textLength="53" x="322.5" y="117.4941">Web Api</text><rect fill="#E2E2F0" height="31.6094" rx="2.5" ry="2.5" style="stroke:#181818;stroke-width:0.5;" width="67" x="315.5" y="303.3281"/><text fill="#000000" font-family="sans-serif" font-size="14" lengthAdjust="spacing" textLength="53" x="322.5" y="324.8613">Web Api</text><text fill="#000000" font-family="sans-serif" font-size="14" lengthAdjust="spacing" textLength="61" x="408.5" y="125.4941">Database</text><path d="M424,74.9609 C424,64.9609 442,64.9609 442,64.9609 C442,64.9609 460,64.9609 460,74.9609 L460,100.9609 C460,110.9609 442,110.9609 442,110.9609 C442,110.9609 424,110.9609 424,100.9609 L424,74.9609 " fill="#E2E2F0" style="stroke:#181818;stroke-width:1.5;"/><path d="M424,74.9609 C424,84.9609 442,84.9609 442,84.9609 C442,84.9609 460,84.9609 460,74.9609 " fill="none" style="stroke:#181818;stroke-width:1.5;"/><text fill="#000000" font-family="sans-serif" font-size="14" lengthAdjust="spacing" textLength="61" x="408.5" y="317.8613">Database</text><path d="M424,330.9375 C424,320.9375 442,320.9375 442,320.9375 C442,320.9375 460,320.9375 460,330.9375 L460,356.9375 C460,366.9375 442,366.9375 442,366.9375 C442,366.9375 424,366.9375 424,356.9375 L424,330.9375 " fill="#E2E2F0" style="stroke:#181818;stroke-width:1.5;"/><path d="M424,330.9375 C424,340.9375 442,340.9375 442,340.9375 C442,340.9375 460,340.9375 460,330.9375 " fill="none" style="stroke:#181818;stroke-width:1.5;"/><polygon fill="#181818" points="244,156.9219,254,160.9219,244,164.9219,248,160.9219" style="stroke:#181818;stroke-width:1.0;"/><line style="stroke:#181818;stroke-width:1.0;" x1="163" x2="250" y1="160.9219" y2="160.9219"/><text fill="#000000" font-family="sans-serif" font-size="13" lengthAdjust="spacing" textLength="69" x="170" y="156.0654">Delete Task</text><path d="M204,175.9219 L323,175.9219 L323,184.2734 L313,194.2734 L204,194.2734 L204,175.9219 " fill="#EEEEEE" style="stroke:#000000;stroke-width:1.5;"/><rect fill="none" height="111.4063" style="stroke:#000000;stroke-width:1.5;" width="291.5" x="204" y="175.9219"/><text fill="#000000" font-family="sans-serif" font-size="13" font-weight="bold" lengthAdjust="spacing" textLength="74" x="219" y="190.417">Delete Task</text><polygon fill="#181818" points="337,212.625,347,216.625,337,220.625,341,216.625" style="stroke:#181818;stroke-width:1.0;"/><line style="stroke:#181818;stroke-width:1.0;" x1="256" x2="343" y1="216.625" y2="216.625"/><text fill="#000000" font-family="sans-serif" font-size="13" lengthAdjust="spacing" textLength="69" x="263" y="211.7686">Delete Task</text><path d="M305.5,231.625 L424.5,231.625 L424.5,239.9766 L414.5,249.9766 L305.5,249.9766 L305.5,231.625 " fill="#EEEEEE" style="stroke:#000000;stroke-width:1.5;"/><rect fill="none" height="48.7031" style="stroke:#000000;stroke-width:1.5;" width="180" x="305.5" y="231.625"/><text fill="#000000" font-family="sans-serif" font-size="13" font-weight="bold" lengthAdjust="spacing" textLength="74" x="320.5" y="246.1201">Delete Task</text><polygon fill="#181818" points="430,268.3281,440,272.3281,430,276.3281,434,272.3281" style="stroke:#181818;stroke-width:1.0;"/><line style="stroke:#181818;stroke-width:1.0;" x1="349" x2="436" y1="272.3281" y2="272.3281"/><text fill="#000000" font-family="sans-serif" font-size="13" lengthAdjust="spacing" textLength="69" x="356" y="267.4717">Delete Task</text><!--SRC=[jL8zJmCn3DtzAwmmtqrC34YeLoI6JbUfiwyr494c8N7Rwx_7t4TfwOAk8b8a-oNl-SMEM76Cou1LmASOSTxIDYfId645Ba9Z5UoJYXsBSYX_Q5Rpvuxz-fin2rx8UaxeUCyE858IkxQHlA2PjyB9apD86MVtBrxJPnSEPHrUvK29wsCMtkPolDZd04reqPpS6BnRlLjXG5qN1NvCTYMMeGeQ3m-wgZ8SboVJkUm55BpMNd6ZmdQYiBALtAbkIAYXp6Yg8PgeETA1_GQrHG3mzwPYyNXBV_3X_1F0MmgxU87SeZt9Mj_XV_0r24yoDOxeboqTMBVX2m00]--></g></svg>