<?xml version="1.0" encoding="us-ascii" standalone="no"?><svg xmlns="http://www.w3.org/2000/svg" xmlns:xlink="http://www.w3.org/1999/xlink" contentStyleType="text/css" height="427px" preserveAspectRatio="none" style="width:832px;height:427px;background:#FFFFFF;" version="1.1" viewBox="0 0 832 427" width="832px" zoomAndPan="magnify"><defs/><g><text fill="#000000" font-family="sans-serif" font-size="14" font-weight="bold" lengthAdjust="spacing" textLength="804" x="10" y="29.5332">dotnet - eShop - Architecture - Catalog Api - Api - Catalog Api - Get Item Picture By Id - Sequence - Component level</text><rect fill="#FFFFFF" height="377.0313" style="stroke:#181818;stroke-width:0.5;" width="95" x="301.75" y="44.6094"/><text fill="#000000" font-family="sans-serif" font-size="13" font-weight="bold" lengthAdjust="spacing" textLength="21" x="338.75" y="58.1045">Api</text><rect fill="none" height="224.1094" style="stroke:#000000;stroke-width:1.5;" width="370.5" x="285.75" y="144.9219"/><rect fill="none" height="61.7031" style="stroke:#000000;stroke-width:1.5;" width="261.5" x="295.75" y="170.2734"/><line style="stroke:#181818;stroke-width:0.5;stroke-dasharray:5.0,5.0;" x1="195.75" x2="195.75" y1="97.5703" y2="386.0313"/><line style="stroke:#181818;stroke-width:0.5;stroke-dasharray:5.0,5.0;" x1="348.75" x2="348.75" y1="97.5703" y2="386.0313"/><rect fill="#E2E2F0" height="31.6094" rx="2.5" ry="2.5" style="stroke:#181818;stroke-width:0.5;" width="65" x="163.75" y="64.9609"/><text fill="#000000" font-family="sans-serif" font-size="14" lengthAdjust="spacing" textLength="51" x="170.75" y="86.4941">External</text><rect fill="#E2E2F0" height="31.6094" rx="2.5" ry="2.5" style="stroke:#181818;stroke-width:0.5;" width="65" x="163.75" y="385.0313"/><text fill="#000000" font-family="sans-serif" font-size="14" lengthAdjust="spacing" textLength="51" x="170.75" y="406.5645">External</text><rect fill="#E2E2F0" height="31.6094" rx="2.5" ry="2.5" style="stroke:#181818;stroke-width:0.5;" width="87" x="305.75" y="64.9609"/><text fill="#000000" font-family="sans-serif" font-size="14" lengthAdjust="spacing" textLength="73" x="312.75" y="86.4941">Catalog Api</text><rect fill="#E2E2F0" height="31.6094" rx="2.5" ry="2.5" style="stroke:#181818;stroke-width:0.5;" width="87" x="305.75" y="385.0313"/><text fill="#000000" font-family="sans-serif" font-size="14" lengthAdjust="spacing" textLength="73" x="312.75" y="406.5645">Catalog Api</text><polygon fill="#181818" points="337.25,125.9219,347.25,129.9219,337.25,133.9219,341.25,129.9219" style="stroke:#181818;stroke-width:1.0;"/><line style="stroke:#181818;stroke-width:1.0;" x1="196.25" x2="343.25" y1="129.9219" y2="129.9219"/><text fill="#000000" font-family="sans-serif" font-size="13" lengthAdjust="spacing" textLength="129" x="203.25" y="125.0654">Get Item Picture By Id</text><path d="M285.75,144.9219 L469.75,144.9219 L469.75,153.2734 L459.75,163.2734 L285.75,163.2734 L285.75,144.9219 " fill="#EEEEEE" style="stroke:#000000;stroke-width:1.5;"/><rect fill="none" height="224.1094" style="stroke:#000000;stroke-width:1.5;" width="370.5" x="285.75" y="144.9219"/><text fill="#000000" font-family="sans-serif" font-size="13" font-weight="bold" lengthAdjust="spacing" textLength="139" x="300.75" y="159.417">Get Item Picture By Id</text><path d="M295.75,170.2734 L356.75,170.2734 L356.75,178.625 L346.75,188.625 L295.75,188.625 L295.75,170.2734 " fill="#EEEEEE" style="stroke:#000000;stroke-width:1.5;"/><rect fill="none" height="61.7031" style="stroke:#000000;stroke-width:1.5;" width="261.5" x="295.75" y="170.2734"/><text fill="#000000" font-family="sans-serif" font-size="13" font-weight="bold" lengthAdjust="spacing" textLength="16" x="310.75" y="184.7686">alt</text><text fill="#000000" font-family="sans-serif" font-size="11" font-weight="bold" lengthAdjust="spacing" textLength="69" x="371.75" y="183.6924">[item is null]</text><line style="stroke:#181818;stroke-width:1.0;" x1="349.25" x2="391.25" y1="210.9766" y2="210.9766"/><line style="stroke:#181818;stroke-width:1.0;" x1="391.25" x2="391.25" y1="210.9766" y2="223.9766"/><line style="stroke:#181818;stroke-width:1.0;" x1="350.25" x2="391.25" y1="223.9766" y2="223.9766"/><polygon fill="#181818" points="360.25,219.9766,350.25,223.9766,360.25,227.9766,356.25,223.9766" style="stroke:#181818;stroke-width:1.0;"/><text fill="#000000" font-family="sans-serif" font-size="13" lengthAdjust="spacing" textLength="189" x="356.25" y="206.1201">Return (TypedResults.NotFound)</text><line style="stroke:#181818;stroke-width:1.0;" x1="349.25" x2="391.25" y1="261.3281" y2="261.3281"/><line style="stroke:#181818;stroke-width:1.0;" x1="391.25" x2="391.25" y1="261.3281" y2="274.3281"/><line style="stroke:#181818;stroke-width:1.0;" x1="350.25" x2="391.25" y1="274.3281" y2="274.3281"/><polygon fill="#181818" points="360.25,270.3281,350.25,274.3281,360.25,278.3281,356.25,274.3281" style="stroke:#181818;stroke-width:1.0;"/><text fill="#000000" font-family="sans-serif" font-size="13" lengthAdjust="spacing" textLength="77" x="356.25" y="256.4717">Get Full Path</text><line style="stroke:#181818;stroke-width:1.0;" x1="349.25" x2="391.25" y1="304.6797" y2="304.6797"/><line style="stroke:#181818;stroke-width:1.0;" x1="391.25" x2="391.25" y1="304.6797" y2="317.6797"/><line style="stroke:#181818;stroke-width:1.0;" x1="350.25" x2="391.25" y1="317.6797" y2="317.6797"/><polygon fill="#181818" points="360.25,313.6797,350.25,317.6797,360.25,321.6797,356.25,317.6797" style="stroke:#181818;stroke-width:1.0;"/><text fill="#000000" font-family="sans-serif" font-size="13" lengthAdjust="spacing" textLength="288" x="356.25" y="299.8232">Get Image Mime Type From Image File Extension</text><line style="stroke:#181818;stroke-width:1.0;" x1="349.25" x2="391.25" y1="348.0313" y2="348.0313"/><line style="stroke:#181818;stroke-width:1.0;" x1="391.25" x2="391.25" y1="348.0313" y2="361.0313"/><line style="stroke:#181818;stroke-width:1.0;" x1="350.25" x2="391.25" y1="361.0313" y2="361.0313"/><polygon fill="#181818" points="360.25,357.0313,350.25,361.0313,360.25,365.0313,356.25,361.0313" style="stroke:#181818;stroke-width:1.0;"/><text fill="#000000" font-family="sans-serif" font-size="13" lengthAdjust="spacing" textLength="204" x="356.25" y="343.1748">Return (TypedResults.PhysicalFile)</text><!--SRC=[tLGzJyCm4DtzAuwmmD1CJ0n8fI8e0wXga9YFv4WiEJvZNsZpxx6R8beG4ak7ai7nVJpVUtTEpfp7jaSmEF8W47eIjAYKQ3443OibWHbGrR6BxxclEorKo-0fcWiKDDp2tEaKtAw7lli8BuLwMEe9T3j2sSH0HMy3sNfx2lUEBLa1G-zab7BeHTVQONHbTniXRz5aW04MLwMDPc5udLVyAclqL8qX5WZvP-9aA_N26yZss6Hm_fp8AuZF5FtkFIXy08srfsRasrRa-utumMI7ZC1ymLPGM_8XdyoTrFqaHRQ1o4TzRTJVXSBivdZKuFgN2QhMy-1-2w8HqCcj0zZ167KyWaTMlw9ua8MBfz5Hiw8mc9Zno5BmO9lBDB3JrPQ6LyJfm1AbEsqPPOyjmOFk2TAaeF3Sxvo5ZZ-ozCdOeDd-ivkuxCQWQpH9v7GRrGS0]--></g></svg>