<?xml version="1.0" encoding="us-ascii" standalone="no"?><svg xmlns="http://www.w3.org/2000/svg" xmlns:xlink="http://www.w3.org/1999/xlink" contentStyleType="text/css" height="488px" preserveAspectRatio="none" style="width:814px;height:488px;background:#FFFFFF;" version="1.1" viewBox="0 0 814 488" width="814px" zoomAndPan="magnify"><defs/><g><text fill="#000000" font-family="sans-serif" font-size="14" font-weight="bold" lengthAdjust="spacing" textLength="786" x="10" y="29.5332">DotNetEShop - Basket Api - Data - Redis Basket Repository - Update Basket Async - Sequence - Component level</text><rect fill="#FFFFFF" height="437.7344" style="stroke:#181818;stroke-width:0.5;" width="363" x="259" y="44.6094"/><text fill="#000000" font-family="sans-serif" font-size="13" font-weight="bold" lengthAdjust="spacing" textLength="29" x="426" y="58.1045">Data</text><rect fill="none" height="284.8125" style="stroke:#000000;stroke-width:1.5;" width="395" x="243" y="144.9219"/><rect fill="none" height="135.4063" style="stroke:#000000;stroke-width:1.5;" width="375" x="253" y="287.3281"/><line style="stroke:#181818;stroke-width:0.5;stroke-dasharray:5.0,5.0;" x1="196" x2="196" y1="97.5703" y2="446.7344"/><line style="stroke:#181818;stroke-width:0.5;stroke-dasharray:5.0,5.0;" x1="347" x2="347" y1="97.5703" y2="446.7344"/><line style="stroke:#181818;stroke-width:0.5;stroke-dasharray:5.0,5.0;" x1="560" x2="560" y1="97.5703" y2="446.7344"/><rect fill="#E2E2F0" height="31.6094" rx="2.5" ry="2.5" style="stroke:#181818;stroke-width:0.5;" width="65" x="164" y="64.9609"/><text fill="#000000" font-family="sans-serif" font-size="14" lengthAdjust="spacing" textLength="51" x="171" y="86.4941">External</text><rect fill="#E2E2F0" height="31.6094" rx="2.5" ry="2.5" style="stroke:#181818;stroke-width:0.5;" width="65" x="164" y="445.7344"/><text fill="#000000" font-family="sans-serif" font-size="14" lengthAdjust="spacing" textLength="51" x="171" y="467.2676">External</text><rect fill="#E2E2F0" height="31.6094" rx="2.5" ry="2.5" style="stroke:#181818;stroke-width:0.5;" width="169" x="263" y="64.9609"/><text fill="#000000" font-family="sans-serif" font-size="14" lengthAdjust="spacing" textLength="155" x="270" y="86.4941">Redis Basket Repository</text><rect fill="#E2E2F0" height="31.6094" rx="2.5" ry="2.5" style="stroke:#181818;stroke-width:0.5;" width="169" x="263" y="445.7344"/><text fill="#000000" font-family="sans-serif" font-size="14" lengthAdjust="spacing" textLength="155" x="270" y="467.2676">Redis Basket Repository</text><rect fill="#E2E2F0" height="31.6094" rx="2.5" ry="2.5" style="stroke:#181818;stroke-width:0.5;" width="115" x="503" y="64.9609"/><text fill="#000000" font-family="sans-serif" font-size="14" lengthAdjust="spacing" textLength="101" x="510" y="86.4941">Redis Database</text><rect fill="#E2E2F0" height="31.6094" rx="2.5" ry="2.5" style="stroke:#181818;stroke-width:0.5;" width="115" x="503" y="445.7344"/><text fill="#000000" font-family="sans-serif" font-size="14" lengthAdjust="spacing" textLength="101" x="510" y="467.2676">Redis Database</text><polygon fill="#181818" points="335.5,125.9219,345.5,129.9219,335.5,133.9219,339.5,129.9219" style="stroke:#181818;stroke-width:1.0;"/><line style="stroke:#181818;stroke-width:1.0;" x1="196.5" x2="341.5" y1="129.9219" y2="129.9219"/><text fill="#000000" font-family="sans-serif" font-size="13" lengthAdjust="spacing" textLength="127" x="203.5" y="125.0654">Update Basket Async</text><path d="M243,144.9219 L420,144.9219 L420,153.2734 L410,163.2734 L243,163.2734 L243,144.9219 " fill="#EEEEEE" style="stroke:#000000;stroke-width:1.5;"/><rect fill="none" height="284.8125" style="stroke:#000000;stroke-width:1.5;" width="395" x="243" y="144.9219"/><text fill="#000000" font-family="sans-serif" font-size="13" font-weight="bold" lengthAdjust="spacing" textLength="132" x="258" y="159.417">Update Basket Async</text><line style="stroke:#181818;stroke-width:1.0;" x1="347.5" x2="389.5" y1="185.625" y2="185.625"/><line style="stroke:#181818;stroke-width:1.0;" x1="389.5" x2="389.5" y1="185.625" y2="198.625"/><line style="stroke:#181818;stroke-width:1.0;" x1="348.5" x2="389.5" y1="198.625" y2="198.625"/><polygon fill="#181818" points="358.5,194.625,348.5,198.625,358.5,202.625,354.5,198.625" style="stroke:#181818;stroke-width:1.0;"/><text fill="#000000" font-family="sans-serif" font-size="13" lengthAdjust="spacing" textLength="93" x="354.5" y="180.7686">Get Basket Key</text><polygon fill="#181818" points="548.5,224.9766,558.5,228.9766,548.5,232.9766,552.5,228.9766" style="stroke:#181818;stroke-width:1.0;"/><line style="stroke:#181818;stroke-width:1.0;" x1="347.5" x2="554.5" y1="228.9766" y2="228.9766"/><text fill="#000000" font-family="sans-serif" font-size="13" lengthAdjust="spacing" textLength="99" x="354.5" y="224.1201">String Set Async</text><line style="stroke:#181818;stroke-width:1.0;" x1="347.5" x2="389.5" y1="259.3281" y2="259.3281"/><line style="stroke:#181818;stroke-width:1.0;" x1="389.5" x2="389.5" y1="259.3281" y2="272.3281"/><line style="stroke:#181818;stroke-width:1.0;" x1="348.5" x2="389.5" y1="272.3281" y2="272.3281"/><polygon fill="#181818" points="358.5,268.3281,348.5,272.3281,358.5,276.3281,354.5,272.3281" style="stroke:#181818;stroke-width:1.0;"/><text fill="#000000" font-family="sans-serif" font-size="13" lengthAdjust="spacing" textLength="107" x="354.5" y="254.4717">Get Basket Async</text><path d="M253,287.3281 L407,287.3281 L407,295.6797 L397,305.6797 L253,305.6797 L253,287.3281 " fill="#EEEEEE" style="stroke:#000000;stroke-width:1.5;"/><rect fill="none" height="135.4063" style="stroke:#000000;stroke-width:1.5;" width="375" x="253" y="287.3281"/><text fill="#000000" font-family="sans-serif" font-size="13" font-weight="bold" lengthAdjust="spacing" textLength="109" x="268" y="301.8232">Get Basket Async</text><line style="stroke:#181818;stroke-width:1.0;" x1="347.5" x2="389.5" y1="328.0313" y2="328.0313"/><line style="stroke:#181818;stroke-width:1.0;" x1="389.5" x2="389.5" y1="328.0313" y2="341.0313"/><line style="stroke:#181818;stroke-width:1.0;" x1="348.5" x2="389.5" y1="341.0313" y2="341.0313"/><polygon fill="#181818" points="358.5,337.0313,348.5,341.0313,358.5,345.0313,354.5,341.0313" style="stroke:#181818;stroke-width:1.0;"/><text fill="#000000" font-family="sans-serif" font-size="13" lengthAdjust="spacing" textLength="93" x="354.5" y="323.1748">Get Basket Key</text><polygon fill="#181818" points="548.5,367.3828,558.5,371.3828,548.5,375.3828,552.5,371.3828" style="stroke:#181818;stroke-width:1.0;"/><line style="stroke:#181818;stroke-width:1.0;" x1="347.5" x2="554.5" y1="371.3828" y2="371.3828"/><text fill="#000000" font-family="sans-serif" font-size="13" lengthAdjust="spacing" textLength="139" x="354.5" y="366.5264">String Get Lease Async</text><line style="stroke:#181818;stroke-width:1.0;" x1="347.5" x2="389.5" y1="401.7344" y2="401.7344"/><line style="stroke:#181818;stroke-width:1.0;" x1="389.5" x2="389.5" y1="401.7344" y2="414.7344"/><line style="stroke:#181818;stroke-width:1.0;" x1="348.5" x2="389.5" y1="414.7344" y2="414.7344"/><polygon fill="#181818" points="358.5,410.7344,348.5,414.7344,358.5,418.7344,354.5,414.7344" style="stroke:#181818;stroke-width:1.0;"/><text fill="#000000" font-family="sans-serif" font-size="13" lengthAdjust="spacing" textLength="199" x="354.5" y="396.8779">Return (JsonSerializer.Deserialize)</text><!--SRC=[xLHDJm8n4BttLqpMYnxeoPC74mKqViG36-Evm1CQbxQsWx3-UcTP5p10ua6C6ZTfjZFJcNbl-dRPSW7gUBu3T_En3zIYSvEUm7GMh1WTmqPUFGnjQY8z19yi-rXAv3uC3MEPb4et46-EvodS0B9j-qdm3ewfm0iAfOA9R0Ss675btJaZEbDaP1ArZw-Sc1U5d-dSF_BCHEHbOaoIRWxMjb9zFwTi1JMZWuUnPIYIfmvMq3-uFpJUmMY1OsqU6pZg3EceszwniGunwQgLNX9DUb6yFhaglGj3bTmt2L_OkYcfu8Oamr2hZVhyaAbrkgTHqCastQXHzDEmDR8d6FiaU2dWtpdSeFpn31h92FASetKZ-OR_nlJNjRNX_XVMzmkh8d2BolLhxw07daP7XzV9knpHciA-8keEKcCSLR_SnL9l]--></g></svg>