<?xml version="1.0" encoding="us-ascii" standalone="no"?><svg xmlns="http://www.w3.org/2000/svg" xmlns:xlink="http://www.w3.org/1999/xlink" contentStyleType="text/css" height="487.5px" preserveAspectRatio="none" style="width:390px;height:487px;background:#FFFFFF;" version="1.1" viewBox="0 0 390 487" width="390.625px" zoomAndPan="magnify"><defs/><g><text fill="#000000" font-family="sans-serif" font-size="8.75" font-weight="bold" lengthAdjust="spacing" textLength="373.125" x="6.25" y="18.4583">Catalog Api - Api - Catalog Api - Get Items By Semantic Relevance - COMPONENT level</text><rect fill="#FFFFFF" height="455.9668" style="stroke:#181818;stroke-width:0.3125;" width="59.375" x="151.25" y="27.8809"/><text fill="#000000" font-family="sans-serif" font-size="8.125" font-weight="bold" lengthAdjust="spacing" textLength="13.125" x="174.375" y="36.3153">Api</text><rect fill="#FFFFFF" height="455.9668" style="stroke:#181818;stroke-width:0.3125;" width="76.875" x="260" y="27.8809"/><text fill="#000000" font-family="sans-serif" font-size="8.125" font-weight="bold" lengthAdjust="spacing" textLength="52.5" x="272.1875" y="36.3153">Infrastructure</text><rect fill="none" height="360.3906" style="stroke:#000000;stroke-width:0.9375;" width="233.125" x="128.75" y="90.5762"/><rect fill="none" height="179.2578" style="stroke:#000000;stroke-width:0.9375;" width="211.875" x="135" y="106.4209"/><rect fill="none" height="131.9434" style="stroke:#000000;stroke-width:0.9375;" width="199.375" x="141.25" y="149.3604"/><rect fill="none" height="38.5645" style="stroke:#000000;stroke-width:0.9375;" width="126.25" x="147.5" y="211.2695"/><rect fill="none" height="50.6592" style="stroke:#000000;stroke-width:0.9375;" width="208.125" x="147.5" y="294.4287"/><rect fill="none" height="38.5645" style="stroke:#000000;stroke-width:0.9375;" width="126.25" x="147.5" y="380.9326"/><line style="stroke:#181818;stroke-width:0.3125;stroke-dasharray:5.0,5.0;" x1="41.25" x2="41.25" y1="60.9814" y2="461.5918"/><line style="stroke:#181818;stroke-width:0.3125;stroke-dasharray:5.0,5.0;" x1="180.625" x2="180.625" y1="60.9814" y2="461.5918"/><line style="stroke:#181818;stroke-width:0.3125;stroke-dasharray:5.0,5.0;" x1="298.125" x2="298.125" y1="60.9814" y2="461.5918"/><rect fill="#E2E2F0" height="19.7559" rx="1.5625" ry="1.5625" style="stroke:#181818;stroke-width:0.3125;" width="40.625" x="21.25" y="40.6006"/><text fill="#000000" font-family="sans-serif" font-size="8.75" lengthAdjust="spacing" textLength="31.875" x="25.625" y="54.0588">External</text><rect fill="#E2E2F0" height="19.7559" rx="1.5625" ry="1.5625" style="stroke:#181818;stroke-width:0.3125;" width="40.625" x="21.25" y="460.9668"/><text fill="#000000" font-family="sans-serif" font-size="8.75" lengthAdjust="spacing" textLength="31.875" x="25.625" y="474.425">External</text><rect fill="#E2E2F0" height="19.7559" rx="1.5625" ry="1.5625" style="stroke:#181818;stroke-width:0.3125;" width="54.375" x="153.75" y="40.6006"/><text fill="#000000" font-family="sans-serif" font-size="8.75" lengthAdjust="spacing" textLength="45.625" x="158.125" y="54.0588">Catalog Api</text><rect fill="#E2E2F0" height="19.7559" rx="1.5625" ry="1.5625" style="stroke:#181818;stroke-width:0.3125;" width="54.375" x="153.75" y="460.9668"/><text fill="#000000" font-family="sans-serif" font-size="8.75" lengthAdjust="spacing" textLength="45.625" x="158.125" y="474.425">Catalog Api</text><rect fill="#E2E2F0" height="19.7559" rx="1.5625" ry="1.5625" style="stroke:#181818;stroke-width:0.3125;" width="71.875" x="262.5" y="40.6006"/><text fill="#000000" font-family="sans-serif" font-size="8.75" lengthAdjust="spacing" textLength="63.125" x="266.875" y="54.0588">Catalog Context</text><rect fill="#E2E2F0" height="19.7559" rx="1.5625" ry="1.5625" style="stroke:#181818;stroke-width:0.3125;" width="71.875" x="262.5" y="460.9668"/><text fill="#000000" font-family="sans-serif" font-size="8.75" lengthAdjust="spacing" textLength="63.125" x="266.875" y="474.425">Catalog Context</text><polygon fill="#181818" points="173.4375,78.7012,179.6875,81.2012,173.4375,83.7012,175.9375,81.2012" style="stroke:#181818;stroke-width:0.625;"/><line style="stroke:#181818;stroke-width:0.625;" x1="41.5625" x2="177.1875" y1="81.2012" y2="81.2012"/><text fill="#000000" font-family="sans-serif" font-size="8.125" lengthAdjust="spacing" textLength="124.375" x="45.9375" y="78.1659">Get Items By Semantic Relevance</text><path d="M128.75,90.5762 L291.25,90.5762 L291.25,95.7959 L285,102.0459 L128.75,102.0459 L128.75,90.5762 " fill="#EEEEEE" style="stroke:#000000;stroke-width:0.9375;"/><rect fill="none" height="360.3906" style="stroke:#000000;stroke-width:0.9375;" width="233.125" x="128.75" y="90.5762"/><text fill="#000000" font-family="sans-serif" font-size="8.125" font-weight="bold" lengthAdjust="spacing" textLength="134.375" x="138.125" y="99.6356">Get Items By Semantic Relevance</text><path d="M135,106.4209 L173.125,106.4209 L173.125,111.6406 L166.875,117.8906 L135,117.8906 L135,106.4209 " fill="#EEEEEE" style="stroke:#000000;stroke-width:0.9375;"/><rect fill="none" height="179.2578" style="stroke:#000000;stroke-width:0.9375;" width="211.875" x="135" y="106.4209"/><text fill="#000000" font-family="sans-serif" font-size="8.125" font-weight="bold" lengthAdjust="spacing" textLength="10" x="144.375" y="115.4803">alt</text><text fill="#000000" font-family="sans-serif" font-size="6.875" font-weight="bold" lengthAdjust="spacing" textLength="106.25" x="182.5" y="114.8077">[!services.CatalogAI.IsEnabled]</text><line style="stroke:#181818;stroke-width:0.625;" x1="180.9375" x2="207.1875" y1="131.8604" y2="131.8604"/><line style="stroke:#181818;stroke-width:0.625;" x1="207.1875" x2="207.1875" y1="131.8604" y2="139.9854"/><line style="stroke:#181818;stroke-width:0.625;" x1="181.5625" x2="207.1875" y1="139.9854" y2="139.9854"/><polygon fill="#181818" points="187.8125,137.4854,181.5625,139.9854,187.8125,142.4854,185.3125,139.9854" style="stroke:#181818;stroke-width:0.625;"/><text fill="#000000" font-family="sans-serif" font-size="8.125" lengthAdjust="spacing" textLength="71.875" x="185.3125" y="128.8251">Get Items By Name</text><path d="M141.25,149.3604 L245,149.3604 L245,154.5801 L238.75,160.8301 L141.25,160.8301 L141.25,149.3604 " fill="#EEEEEE" style="stroke:#000000;stroke-width:0.9375;"/><rect fill="none" height="131.9434" style="stroke:#000000;stroke-width:0.9375;" width="199.375" x="141.25" y="149.3604"/><text fill="#000000" font-family="sans-serif" font-size="8.125" font-weight="bold" lengthAdjust="spacing" textLength="75.625" x="150.625" y="158.4198">Get Items By Name</text><polygon fill="#181818" points="290.9375,172.2998,297.1875,174.7998,290.9375,177.2998,293.4375,174.7998" style="stroke:#181818;stroke-width:0.625;"/><line style="stroke:#181818;stroke-width:0.625;" x1="180.9375" x2="294.6875" y1="174.7998" y2="174.7998"/><text fill="#000000" font-family="sans-serif" font-size="8.125" lengthAdjust="spacing" textLength="102.5" x="185.3125" y="171.7645">Catalog Items To List Async</text><line style="stroke:#181818;stroke-width:0.625;" x1="180.9375" x2="207.1875" y1="193.7695" y2="193.7695"/><line style="stroke:#181818;stroke-width:0.625;" x1="207.1875" x2="207.1875" y1="193.7695" y2="201.8945"/><line style="stroke:#181818;stroke-width:0.625;" x1="181.5625" x2="207.1875" y1="201.8945" y2="201.8945"/><polygon fill="#181818" points="187.8125,199.3945,181.5625,201.8945,187.8125,204.3945,185.3125,201.8945" style="stroke:#181818;stroke-width:0.625;"/><text fill="#000000" font-family="sans-serif" font-size="8.125" lengthAdjust="spacing" textLength="85" x="185.3125" y="190.7343">Change Uri Placeholder</text><path d="M147.5,211.2695 L270.625,211.2695 L270.625,216.4893 L264.375,222.7393 L147.5,222.7393 L147.5,211.2695 " fill="#EEEEEE" style="stroke:#000000;stroke-width:0.9375;"/><rect fill="none" height="38.5645" style="stroke:#000000;stroke-width:0.9375;" width="126.25" x="147.5" y="211.2695"/><text fill="#000000" font-family="sans-serif" font-size="8.125" font-weight="bold" lengthAdjust="spacing" textLength="95" x="156.875" y="220.329">Change Uri Placeholder</text><line style="stroke:#181818;stroke-width:0.625;" x1="180.9375" x2="207.1875" y1="236.709" y2="236.709"/><line style="stroke:#181818;stroke-width:0.625;" x1="207.1875" x2="207.1875" y1="236.709" y2="244.834"/><line style="stroke:#181818;stroke-width:0.625;" x1="181.5625" x2="207.1875" y1="244.834" y2="244.834"/><polygon fill="#181818" points="187.8125,242.334,181.5625,244.834,187.8125,247.334,185.3125,244.834" style="stroke:#181818;stroke-width:0.625;"/><text fill="#000000" font-family="sans-serif" font-size="8.125" lengthAdjust="spacing" textLength="48.75" x="185.3125" y="233.6737">Retun (items)</text><line style="stroke:#181818;stroke-width:0.625;" x1="180.9375" x2="207.1875" y1="268.1787" y2="268.1787"/><line style="stroke:#181818;stroke-width:0.625;" x1="207.1875" x2="207.1875" y1="268.1787" y2="276.3037"/><line style="stroke:#181818;stroke-width:0.625;" x1="181.5625" x2="207.1875" y1="276.3037" y2="276.3037"/><polygon fill="#181818" points="187.8125,273.8037,181.5625,276.3037,187.8125,278.8037,185.3125,276.3037" style="stroke:#181818;stroke-width:0.625;"/><text fill="#000000" font-family="sans-serif" font-size="8.125" lengthAdjust="spacing" textLength="91.25" x="185.3125" y="265.1434">Retun (TypedResults.Ok)</text><path d="M147.5,294.4287 L185.625,294.4287 L185.625,299.6484 L179.375,305.8984 L147.5,305.8984 L147.5,294.4287 " fill="#EEEEEE" style="stroke:#000000;stroke-width:0.9375;"/><rect fill="none" height="50.6592" style="stroke:#000000;stroke-width:0.9375;" width="208.125" x="147.5" y="294.4287"/><text fill="#000000" font-family="sans-serif" font-size="8.125" font-weight="bold" lengthAdjust="spacing" textLength="10" x="156.875" y="303.4882">alt</text><text fill="#000000" font-family="sans-serif" font-size="6.875" font-weight="bold" lengthAdjust="spacing" textLength="157.5" x="195" y="302.8156">[services.Logger.IsEnabled(LogLevel.Debug)]</text><polygon fill="#181818" points="290.9375,317.3682,297.1875,319.8682,290.9375,322.3682,293.4375,319.8682" style="stroke:#181818;stroke-width:0.625;"/><line style="stroke:#181818;stroke-width:0.625;" x1="180.9375" x2="294.6875" y1="319.8682" y2="319.8682"/><text fill="#000000" font-family="sans-serif" font-size="8.125" lengthAdjust="spacing" textLength="102.5" x="185.3125" y="316.8329">Catalog Items To List Async</text><line style="stroke:#000000;stroke-width:0.625;stroke-dasharray:2.0,2.0;" x1="147.5" x2="355.625" y1="325.4932" y2="325.4932"/><polygon fill="#181818" points="290.9375,337.5879,297.1875,340.0879,290.9375,342.5879,293.4375,340.0879" style="stroke:#181818;stroke-width:0.625;"/><line style="stroke:#181818;stroke-width:0.625;" x1="180.9375" x2="294.6875" y1="340.0879" y2="340.0879"/><text fill="#000000" font-family="sans-serif" font-size="8.125" lengthAdjust="spacing" textLength="102.5" x="185.3125" y="337.0526">Catalog Items To List Async</text><line style="stroke:#181818;stroke-width:0.625;" x1="180.9375" x2="207.1875" y1="363.4326" y2="363.4326"/><line style="stroke:#181818;stroke-width:0.625;" x1="207.1875" x2="207.1875" y1="363.4326" y2="371.5576"/><line style="stroke:#181818;stroke-width:0.625;" x1="181.5625" x2="207.1875" y1="371.5576" y2="371.5576"/><polygon fill="#181818" points="187.8125,369.0576,181.5625,371.5576,187.8125,374.0576,185.3125,371.5576" style="stroke:#181818;stroke-width:0.625;"/><text fill="#000000" font-family="sans-serif" font-size="8.125" lengthAdjust="spacing" textLength="85" x="185.3125" y="360.3973">Change Uri Placeholder</text><path d="M147.5,380.9326 L270.625,380.9326 L270.625,386.1523 L264.375,392.4023 L147.5,392.4023 L147.5,380.9326 " fill="#EEEEEE" style="stroke:#000000;stroke-width:0.9375;"/><rect fill="none" height="38.5645" style="stroke:#000000;stroke-width:0.9375;" width="126.25" x="147.5" y="380.9326"/><text fill="#000000" font-family="sans-serif" font-size="8.125" font-weight="bold" lengthAdjust="spacing" textLength="95" x="156.875" y="389.9921">Change Uri Placeholder</text><line style="stroke:#181818;stroke-width:0.625;" x1="180.9375" x2="207.1875" y1="406.3721" y2="406.3721"/><line style="stroke:#181818;stroke-width:0.625;" x1="207.1875" x2="207.1875" y1="406.3721" y2="414.4971"/><line style="stroke:#181818;stroke-width:0.625;" x1="181.5625" x2="207.1875" y1="414.4971" y2="414.4971"/><polygon fill="#181818" points="187.8125,411.9971,181.5625,414.4971,187.8125,416.9971,185.3125,414.4971" style="stroke:#181818;stroke-width:0.625;"/><text fill="#000000" font-family="sans-serif" font-size="8.125" lengthAdjust="spacing" textLength="48.75" x="185.3125" y="403.3368">Retun (items)</text><line style="stroke:#181818;stroke-width:0.625;" x1="180.9375" x2="207.1875" y1="437.8418" y2="437.8418"/><line style="stroke:#181818;stroke-width:0.625;" x1="207.1875" x2="207.1875" y1="437.8418" y2="445.9668"/><line style="stroke:#181818;stroke-width:0.625;" x1="181.5625" x2="207.1875" y1="445.9668" y2="445.9668"/><polygon fill="#181818" points="187.8125,443.4668,181.5625,445.9668,187.8125,448.4668,185.3125,445.9668" style="stroke:#181818;stroke-width:0.625;"/><text fill="#000000" font-family="sans-serif" font-size="8.125" lengthAdjust="spacing" textLength="91.25" x="185.3125" y="434.8065">Retun (TypedResults.Ok)</text><!--SRC=[xLN1JkCm4BtxAuPoWGFH7X27FQnKIbb5AYrgkzhpD1bI2sSSsHDe_dvjKcYxWCe140KY9Oh7R_BUiyUJlSfXKI8OR6mju4iIP5J-MdE53al8AmqdFvGIBOQWXuB65j0DqQFbSpFscmHIeTB3QGCJAf55Pp0cGpV86KNywE9oDEmFfn1YP9GAH06Zgm25JdyXv1XD1z13xpZbC3mtzZQPs2kvHKUJniVF9_V0TgpKp2wWiwQb0_j_vrf8GRZQsV-Z6yGRgO4xjy8a2KtcjagwBejPcTIE7YbPPeR4f6TPK3CvdxJ3ih9CBEiWHPn3qAFMbALyvT2Bg-yOjekCFBIGLn6woVs4vYNPIlV3Ythv1i7HhxTRKlYvhUvKuMnTRKMX4TZpv6vqHYk2D4bzdt5cA5Tlv-4z5sY8vPDBSXV_q1PVMgt1yVrXQTrDBGoq5-ZwXhFTtSRU7BaW-ECqN1hCQ6vDJcwvbyzCxgpPCKdDSA1Z-c5iEpjlPTfKb8_9roO0HjUjgNZ7plFGU0QsACYjkiv120pYpp8verbT77w98qh64tmDfxjSsDyDwVCr9FKF]--></g></svg>