<?xml version="1.0" encoding="us-ascii" standalone="no"?><svg xmlns="http://www.w3.org/2000/svg" xmlns:xlink="http://www.w3.org/1999/xlink" contentStyleType="text/css" height="780px" preserveAspectRatio="none" style="width:625px;height:780px;background:#FFFFFF;" version="1.1" viewBox="0 0 625 780" width="625px" zoomAndPan="magnify"><defs/><g><text fill="#000000" font-family="sans-serif" font-size="14" font-weight="bold" lengthAdjust="spacing" textLength="597" x="10" y="29.5332">Catalog Api - Api - Catalog Api - Get Items By Semantic Relevance - COMPONENT level</text><rect fill="#FFFFFF" height="729.5469" style="stroke:#181818;stroke-width:0.5;" width="95" x="242" y="44.6094"/><text fill="#000000" font-family="sans-serif" font-size="13" font-weight="bold" lengthAdjust="spacing" textLength="21" x="279" y="58.1045">Api</text><rect fill="#FFFFFF" height="729.5469" style="stroke:#181818;stroke-width:0.5;" width="123" x="416" y="44.6094"/><text fill="#000000" font-family="sans-serif" font-size="13" font-weight="bold" lengthAdjust="spacing" textLength="84" x="435.5" y="58.1045">Infrastructure</text><rect fill="none" height="576.625" style="stroke:#000000;stroke-width:1.5;" width="373" x="206" y="144.9219"/><rect fill="none" height="286.8125" style="stroke:#000000;stroke-width:1.5;" width="339" x="216" y="170.2734"/><rect fill="none" height="211.1094" style="stroke:#000000;stroke-width:1.5;" width="319" x="226" y="238.9766"/><rect fill="none" height="61.7031" style="stroke:#000000;stroke-width:1.5;" width="202" x="236" y="338.0313"/><rect fill="none" height="81.0547" style="stroke:#000000;stroke-width:1.5;" width="333" x="236" y="471.0859"/><rect fill="none" height="61.7031" style="stroke:#000000;stroke-width:1.5;" width="202" x="236" y="609.4922"/><line style="stroke:#181818;stroke-width:0.5;stroke-dasharray:5.0,5.0;" x1="66" x2="66" y1="97.5703" y2="738.5469"/><line style="stroke:#181818;stroke-width:0.5;stroke-dasharray:5.0,5.0;" x1="289" x2="289" y1="97.5703" y2="738.5469"/><line style="stroke:#181818;stroke-width:0.5;stroke-dasharray:5.0,5.0;" x1="477" x2="477" y1="97.5703" y2="738.5469"/><rect fill="#E2E2F0" height="31.6094" rx="2.5" ry="2.5" style="stroke:#181818;stroke-width:0.5;" width="65" x="34" y="64.9609"/><text fill="#000000" font-family="sans-serif" font-size="14" lengthAdjust="spacing" textLength="51" x="41" y="86.4941">External</text><rect fill="#E2E2F0" height="31.6094" rx="2.5" ry="2.5" style="stroke:#181818;stroke-width:0.5;" width="65" x="34" y="737.5469"/><text fill="#000000" font-family="sans-serif" font-size="14" lengthAdjust="spacing" textLength="51" x="41" y="759.0801">External</text><rect fill="#E2E2F0" height="31.6094" rx="2.5" ry="2.5" style="stroke:#181818;stroke-width:0.5;" width="87" x="246" y="64.9609"/><text fill="#000000" font-family="sans-serif" font-size="14" lengthAdjust="spacing" textLength="73" x="253" y="86.4941">Catalog Api</text><rect fill="#E2E2F0" height="31.6094" rx="2.5" ry="2.5" style="stroke:#181818;stroke-width:0.5;" width="87" x="246" y="737.5469"/><text fill="#000000" font-family="sans-serif" font-size="14" lengthAdjust="spacing" textLength="73" x="253" y="759.0801">Catalog Api</text><rect fill="#E2E2F0" height="31.6094" rx="2.5" ry="2.5" style="stroke:#181818;stroke-width:0.5;" width="115" x="420" y="64.9609"/><text fill="#000000" font-family="sans-serif" font-size="14" lengthAdjust="spacing" textLength="101" x="427" y="86.4941">Catalog Context</text><rect fill="#E2E2F0" height="31.6094" rx="2.5" ry="2.5" style="stroke:#181818;stroke-width:0.5;" width="115" x="420" y="737.5469"/><text fill="#000000" font-family="sans-serif" font-size="14" lengthAdjust="spacing" textLength="101" x="427" y="759.0801">Catalog Context</text><polygon fill="#181818" points="277.5,125.9219,287.5,129.9219,277.5,133.9219,281.5,129.9219" style="stroke:#181818;stroke-width:1.0;"/><line style="stroke:#181818;stroke-width:1.0;" x1="66.5" x2="283.5" y1="129.9219" y2="129.9219"/><text fill="#000000" font-family="sans-serif" font-size="13" lengthAdjust="spacing" textLength="199" x="73.5" y="125.0654">Get Items By Semantic Relevance</text><path d="M206,144.9219 L466,144.9219 L466,153.2734 L456,163.2734 L206,163.2734 L206,144.9219 " fill="#EEEEEE" style="stroke:#000000;stroke-width:1.5;"/><rect fill="none" height="576.625" style="stroke:#000000;stroke-width:1.5;" width="373" x="206" y="144.9219"/><text fill="#000000" font-family="sans-serif" font-size="13" font-weight="bold" lengthAdjust="spacing" textLength="215" x="221" y="159.417">Get Items By Semantic Relevance</text><path d="M216,170.2734 L277,170.2734 L277,178.625 L267,188.625 L216,188.625 L216,170.2734 " fill="#EEEEEE" style="stroke:#000000;stroke-width:1.5;"/><rect fill="none" height="286.8125" style="stroke:#000000;stroke-width:1.5;" width="339" x="216" y="170.2734"/><text fill="#000000" font-family="sans-serif" font-size="13" font-weight="bold" lengthAdjust="spacing" textLength="16" x="231" y="184.7686">alt</text><text fill="#000000" font-family="sans-serif" font-size="11" font-weight="bold" lengthAdjust="spacing" textLength="170" x="292" y="183.6924">[!services.CatalogAI.IsEnabled]</text><line style="stroke:#181818;stroke-width:1.0;" x1="289.5" x2="331.5" y1="210.9766" y2="210.9766"/><line style="stroke:#181818;stroke-width:1.0;" x1="331.5" x2="331.5" y1="210.9766" y2="223.9766"/><line style="stroke:#181818;stroke-width:1.0;" x1="290.5" x2="331.5" y1="223.9766" y2="223.9766"/><polygon fill="#181818" points="300.5,219.9766,290.5,223.9766,300.5,227.9766,296.5,223.9766" style="stroke:#181818;stroke-width:1.0;"/><text fill="#000000" font-family="sans-serif" font-size="13" lengthAdjust="spacing" textLength="115" x="296.5" y="206.1201">Get Items By Name</text><path d="M226,238.9766 L392,238.9766 L392,247.3281 L382,257.3281 L226,257.3281 L226,238.9766 " fill="#EEEEEE" style="stroke:#000000;stroke-width:1.5;"/><rect fill="none" height="211.1094" style="stroke:#000000;stroke-width:1.5;" width="319" x="226" y="238.9766"/><text fill="#000000" font-family="sans-serif" font-size="13" font-weight="bold" lengthAdjust="spacing" textLength="121" x="241" y="253.4717">Get Items By Name</text><polygon fill="#181818" points="465.5,275.6797,475.5,279.6797,465.5,283.6797,469.5,279.6797" style="stroke:#181818;stroke-width:1.0;"/><line style="stroke:#181818;stroke-width:1.0;" x1="289.5" x2="471.5" y1="279.6797" y2="279.6797"/><text fill="#000000" font-family="sans-serif" font-size="13" lengthAdjust="spacing" textLength="164" x="296.5" y="274.8232">Catalog Items To List Async</text><line style="stroke:#181818;stroke-width:1.0;" x1="289.5" x2="331.5" y1="310.0313" y2="310.0313"/><line style="stroke:#181818;stroke-width:1.0;" x1="331.5" x2="331.5" y1="310.0313" y2="323.0313"/><line style="stroke:#181818;stroke-width:1.0;" x1="290.5" x2="331.5" y1="323.0313" y2="323.0313"/><polygon fill="#181818" points="300.5,319.0313,290.5,323.0313,300.5,327.0313,296.5,323.0313" style="stroke:#181818;stroke-width:1.0;"/><text fill="#000000" font-family="sans-serif" font-size="13" lengthAdjust="spacing" textLength="136" x="296.5" y="305.1748">Change Uri Placeholder</text><path d="M236,338.0313 L433,338.0313 L433,346.3828 L423,356.3828 L236,356.3828 L236,338.0313 " fill="#EEEEEE" style="stroke:#000000;stroke-width:1.5;"/><rect fill="none" height="61.7031" style="stroke:#000000;stroke-width:1.5;" width="202" x="236" y="338.0313"/><text fill="#000000" font-family="sans-serif" font-size="13" font-weight="bold" lengthAdjust="spacing" textLength="152" x="251" y="352.5264">Change Uri Placeholder</text><line style="stroke:#181818;stroke-width:1.0;" x1="289.5" x2="331.5" y1="378.7344" y2="378.7344"/><line style="stroke:#181818;stroke-width:1.0;" x1="331.5" x2="331.5" y1="378.7344" y2="391.7344"/><line style="stroke:#181818;stroke-width:1.0;" x1="290.5" x2="331.5" y1="391.7344" y2="391.7344"/><polygon fill="#181818" points="300.5,387.7344,290.5,391.7344,300.5,395.7344,296.5,391.7344" style="stroke:#181818;stroke-width:1.0;"/><text fill="#000000" font-family="sans-serif" font-size="13" lengthAdjust="spacing" textLength="78" x="296.5" y="373.8779">Retun (items)</text><line style="stroke:#181818;stroke-width:1.0;" x1="289.5" x2="331.5" y1="429.0859" y2="429.0859"/><line style="stroke:#181818;stroke-width:1.0;" x1="331.5" x2="331.5" y1="429.0859" y2="442.0859"/><line style="stroke:#181818;stroke-width:1.0;" x1="290.5" x2="331.5" y1="442.0859" y2="442.0859"/><polygon fill="#181818" points="300.5,438.0859,290.5,442.0859,300.5,446.0859,296.5,442.0859" style="stroke:#181818;stroke-width:1.0;"/><text fill="#000000" font-family="sans-serif" font-size="13" lengthAdjust="spacing" textLength="146" x="296.5" y="424.2295">Retun (TypedResults.Ok)</text><path d="M236,471.0859 L297,471.0859 L297,479.4375 L287,489.4375 L236,489.4375 L236,471.0859 " fill="#EEEEEE" style="stroke:#000000;stroke-width:1.5;"/><rect fill="none" height="81.0547" style="stroke:#000000;stroke-width:1.5;" width="333" x="236" y="471.0859"/><text fill="#000000" font-family="sans-serif" font-size="13" font-weight="bold" lengthAdjust="spacing" textLength="16" x="251" y="485.5811">alt</text><text fill="#000000" font-family="sans-serif" font-size="11" font-weight="bold" lengthAdjust="spacing" textLength="252" x="312" y="484.5049">[services.Logger.IsEnabled(LogLevel.Debug)]</text><polygon fill="#181818" points="465.5,507.7891,475.5,511.7891,465.5,515.7891,469.5,511.7891" style="stroke:#181818;stroke-width:1.0;"/><line style="stroke:#181818;stroke-width:1.0;" x1="289.5" x2="471.5" y1="511.7891" y2="511.7891"/><text fill="#000000" font-family="sans-serif" font-size="13" lengthAdjust="spacing" textLength="164" x="296.5" y="506.9326">Catalog Items To List Async</text><line style="stroke:#000000;stroke-width:1.0;stroke-dasharray:2.0,2.0;" x1="236" x2="569" y1="520.7891" y2="520.7891"/><polygon fill="#181818" points="465.5,540.1406,475.5,544.1406,465.5,548.1406,469.5,544.1406" style="stroke:#181818;stroke-width:1.0;"/><line style="stroke:#181818;stroke-width:1.0;" x1="289.5" x2="471.5" y1="544.1406" y2="544.1406"/><text fill="#000000" font-family="sans-serif" font-size="13" lengthAdjust="spacing" textLength="164" x="296.5" y="539.2842">Catalog Items To List Async</text><line style="stroke:#181818;stroke-width:1.0;" x1="289.5" x2="331.5" y1="581.4922" y2="581.4922"/><line style="stroke:#181818;stroke-width:1.0;" x1="331.5" x2="331.5" y1="581.4922" y2="594.4922"/><line style="stroke:#181818;stroke-width:1.0;" x1="290.5" x2="331.5" y1="594.4922" y2="594.4922"/><polygon fill="#181818" points="300.5,590.4922,290.5,594.4922,300.5,598.4922,296.5,594.4922" style="stroke:#181818;stroke-width:1.0;"/><text fill="#000000" font-family="sans-serif" font-size="13" lengthAdjust="spacing" textLength="136" x="296.5" y="576.6357">Change Uri Placeholder</text><path d="M236,609.4922 L433,609.4922 L433,617.8438 L423,627.8438 L236,627.8438 L236,609.4922 " fill="#EEEEEE" style="stroke:#000000;stroke-width:1.5;"/><rect fill="none" height="61.7031" style="stroke:#000000;stroke-width:1.5;" width="202" x="236" y="609.4922"/><text fill="#000000" font-family="sans-serif" font-size="13" font-weight="bold" lengthAdjust="spacing" textLength="152" x="251" y="623.9873">Change Uri Placeholder</text><line style="stroke:#181818;stroke-width:1.0;" x1="289.5" x2="331.5" y1="650.1953" y2="650.1953"/><line style="stroke:#181818;stroke-width:1.0;" x1="331.5" x2="331.5" y1="650.1953" y2="663.1953"/><line style="stroke:#181818;stroke-width:1.0;" x1="290.5" x2="331.5" y1="663.1953" y2="663.1953"/><polygon fill="#181818" points="300.5,659.1953,290.5,663.1953,300.5,667.1953,296.5,663.1953" style="stroke:#181818;stroke-width:1.0;"/><text fill="#000000" font-family="sans-serif" font-size="13" lengthAdjust="spacing" textLength="78" x="296.5" y="645.3389">Retun (items)</text><line style="stroke:#181818;stroke-width:1.0;" x1="289.5" x2="331.5" y1="700.5469" y2="700.5469"/><line style="stroke:#181818;stroke-width:1.0;" x1="331.5" x2="331.5" y1="700.5469" y2="713.5469"/><line style="stroke:#181818;stroke-width:1.0;" x1="290.5" x2="331.5" y1="713.5469" y2="713.5469"/><polygon fill="#181818" points="300.5,709.5469,290.5,713.5469,300.5,717.5469,296.5,713.5469" style="stroke:#181818;stroke-width:1.0;"/><text fill="#000000" font-family="sans-serif" font-size="13" lengthAdjust="spacing" textLength="146" x="296.5" y="695.6904">Retun (TypedResults.Ok)</text><!--SRC=[xLLDKy8m4BtdLonuqOCzUVBW328wdK5m0CVpqYubOvfqaYtGVsz2KS2FmOCw8dQcdMRpjk-zPBDj51Qp745XPKe6bnEZHY5OiY9e8wCo6RGA2QUhvtRiXXXYfjp1PGL3ob6pJ610YcQe4mhu_krTlzVfZS37I0bHeFKOMNWeD3iB9gjHDG4TjCzYxOVNoioZePdm72qDAnS-7pq3wx4GOxE0veQM9XmzJ2MJ07_Liw-ZMyHRgPuxDQo98nfEJH6rR1Ao4YujlL6oolI9KTjeHgd9kgWUveNHf7aJ94YduFM83MMndbXqRCibmswHWOSM_2L2jxdVqRmYM-j-UH6Vto0ulVY-9ONpNNKdCclAOYSA5KF3aPt9XDO4SHIxZiQnebHyduUVNA0UvkykoJB-gor-jbgzu-V3KhiR6UXAnz1obKxsTnlRKzGPmRsLSASmeQbHATdLNdumkRTc1yIbXcCPqaz2szbxAwEge7H0hbGUq7-iJOKxT9wNnjCrMKPstNMEVQ0RVfRH5OtBxEGWZYWfHt0OJlUviFyRqjzhIE89]--></g></svg>