<?xml version="1.0" encoding="us-ascii" standalone="no"?><svg xmlns="http://www.w3.org/2000/svg" xmlns:xlink="http://www.w3.org/1999/xlink" contentStyleType="text/css" height="407px" preserveAspectRatio="none" style="width:699px;height:407px;background:#FFFFFF;" version="1.1" viewBox="0 0 699 407" width="699px" zoomAndPan="magnify"><defs/><g><text fill="#000000" font-family="sans-serif" font-size="14" font-weight="bold" lengthAdjust="spacing" textLength="587" x="57.5" y="29.5332">TraderX - Web Client - View Trade Status And Positions - Sequence - Container level</text><rect fill="#FFFFFF" height="357.3828" style="stroke:#181818;stroke-width:0.5;" width="470" x="207" y="44.6094"/><text fill="#000000" font-family="sans-serif" font-size="13" font-weight="bold" lengthAdjust="spacing" textLength="51" x="416.5" y="58.1045">TraderX</text><rect fill="none" height="204.4609" style="stroke:#000000;stroke-width:1.5;" width="492" x="201" y="144.9219"/><rect fill="none" height="48.7031" style="stroke:#000000;stroke-width:1.5;" width="290.5" x="392.5" y="200.625"/><rect fill="none" height="48.7031" style="stroke:#000000;stroke-width:1.5;" width="290.5" x="392.5" y="293.6797"/><line style="stroke:#181818;stroke-width:0.5;stroke-dasharray:5.0,5.0;" x1="37" x2="37" y1="97.5703" y2="366.3828"/><line style="stroke:#181818;stroke-width:0.5;stroke-dasharray:5.0,5.0;" x1="252" x2="252" y1="97.5703" y2="366.3828"/><line style="stroke:#181818;stroke-width:0.5;stroke-dasharray:5.0,5.0;" x1="437.5" x2="437.5" y1="97.5703" y2="366.3828"/><line style="stroke:#181818;stroke-width:0.5;stroke-dasharray:5.0,5.0;" x1="615" x2="615" y1="97.5703" y2="366.3828"/><rect fill="#E2E2F0" height="31.6094" rx="2.5" ry="2.5" style="stroke:#181818;stroke-width:0.5;" width="65" x="5" y="64.9609"/><text fill="#000000" font-family="sans-serif" font-size="14" lengthAdjust="spacing" textLength="51" x="12" y="86.4941">External</text><rect fill="#E2E2F0" height="31.6094" rx="2.5" ry="2.5" style="stroke:#181818;stroke-width:0.5;" width="65" x="5" y="365.3828"/><text fill="#000000" font-family="sans-serif" font-size="14" lengthAdjust="spacing" textLength="51" x="12" y="386.916">External</text><rect fill="#E2E2F0" height="31.6094" rx="2.5" ry="2.5" style="stroke:#181818;stroke-width:0.5;" width="83" x="211" y="64.9609"/><text fill="#000000" font-family="sans-serif" font-size="14" lengthAdjust="spacing" textLength="69" x="218" y="86.4941">Web Client</text><rect fill="#E2E2F0" height="31.6094" rx="2.5" ry="2.5" style="stroke:#181818;stroke-width:0.5;" width="83" x="211" y="365.3828"/><text fill="#000000" font-family="sans-serif" font-size="14" lengthAdjust="spacing" textLength="69" x="218" y="386.916">Web Client</text><rect fill="#E2E2F0" height="31.6094" rx="2.5" ry="2.5" style="stroke:#181818;stroke-width:0.5;" width="70" x="402.5" y="64.9609"/><text fill="#000000" font-family="sans-serif" font-size="14" lengthAdjust="spacing" textLength="56" x="409.5" y="86.4941">Web GUI</text><rect fill="#E2E2F0" height="31.6094" rx="2.5" ry="2.5" style="stroke:#181818;stroke-width:0.5;" width="70" x="402.5" y="365.3828"/><text fill="#000000" font-family="sans-serif" font-size="14" lengthAdjust="spacing" textLength="56" x="409.5" y="386.916">Web GUI</text><rect fill="#E2E2F0" height="31.6094" rx="2.5" ry="2.5" style="stroke:#181818;stroke-width:0.5;" width="115" x="558" y="64.9609"/><text fill="#000000" font-family="sans-serif" font-size="14" lengthAdjust="spacing" textLength="101" x="565" y="86.4941">Position Service</text><rect fill="#E2E2F0" height="31.6094" rx="2.5" ry="2.5" style="stroke:#181818;stroke-width:0.5;" width="115" x="558" y="365.3828"/><text fill="#000000" font-family="sans-serif" font-size="14" lengthAdjust="spacing" textLength="101" x="565" y="386.916">Position Service</text><polygon fill="#181818" points="240.5,125.9219,250.5,129.9219,240.5,133.9219,244.5,129.9219" style="stroke:#181818;stroke-width:1.0;"/><line style="stroke:#181818;stroke-width:1.0;" x1="37.5" x2="246.5" y1="129.9219" y2="129.9219"/><text fill="#000000" font-family="sans-serif" font-size="13" lengthAdjust="spacing" textLength="191" x="44.5" y="125.0654">View Trade Status And Positions</text><path d="M201,144.9219 L452,144.9219 L452,153.2734 L442,163.2734 L201,163.2734 L201,144.9219 " fill="#EEEEEE" style="stroke:#000000;stroke-width:1.5;"/><rect fill="none" height="204.4609" style="stroke:#000000;stroke-width:1.5;" width="492" x="201" y="144.9219"/><text fill="#000000" font-family="sans-serif" font-size="13" font-weight="bold" lengthAdjust="spacing" textLength="206" x="216" y="159.417">View Trade Status And Positions</text><polygon fill="#181818" points="425.5,181.625,435.5,185.625,425.5,189.625,429.5,185.625" style="stroke:#181818;stroke-width:1.0;"/><line style="stroke:#181818;stroke-width:1.0;" x1="252.5" x2="431.5" y1="185.625" y2="185.625"/><text fill="#000000" font-family="sans-serif" font-size="13" lengthAdjust="spacing" textLength="146" x="259.5" y="180.7686">Load Trades For Account</text><path d="M392.5,200.625 L596.5,200.625 L596.5,208.9766 L586.5,218.9766 L392.5,218.9766 L392.5,200.625 " fill="#EEEEEE" style="stroke:#000000;stroke-width:1.5;"/><rect fill="none" height="48.7031" style="stroke:#000000;stroke-width:1.5;" width="290.5" x="392.5" y="200.625"/><text fill="#000000" font-family="sans-serif" font-size="13" font-weight="bold" lengthAdjust="spacing" textLength="159" x="407.5" y="215.1201">Load Trades For Account</text><polygon fill="#181818" points="603.5,237.3281,613.5,241.3281,603.5,245.3281,607.5,241.3281" style="stroke:#181818;stroke-width:1.0;"/><line style="stroke:#181818;stroke-width:1.0;" x1="437.5" x2="609.5" y1="241.3281" y2="241.3281"/><text fill="#000000" font-family="sans-serif" font-size="13" lengthAdjust="spacing" textLength="139" x="444.5" y="236.4717">Get Trades For Account</text><polygon fill="#181818" points="425.5,274.6797,435.5,278.6797,425.5,282.6797,429.5,278.6797" style="stroke:#181818;stroke-width:1.0;"/><line style="stroke:#181818;stroke-width:1.0;" x1="252.5" x2="431.5" y1="278.6797" y2="278.6797"/><text fill="#000000" font-family="sans-serif" font-size="13" lengthAdjust="spacing" textLength="161" x="259.5" y="273.8232">Load Positions For Account</text><path d="M392.5,293.6797 L610.5,293.6797 L610.5,302.0313 L600.5,312.0313 L392.5,312.0313 L392.5,293.6797 " fill="#EEEEEE" style="stroke:#000000;stroke-width:1.5;"/><rect fill="none" height="48.7031" style="stroke:#000000;stroke-width:1.5;" width="290.5" x="392.5" y="293.6797"/><text fill="#000000" font-family="sans-serif" font-size="13" font-weight="bold" lengthAdjust="spacing" textLength="173" x="407.5" y="308.1748">Load Positions For Account</text><polygon fill="#181818" points="603.5,330.3828,613.5,334.3828,603.5,338.3828,607.5,334.3828" style="stroke:#181818;stroke-width:1.0;"/><line style="stroke:#181818;stroke-width:1.0;" x1="437.5" x2="609.5" y1="334.3828" y2="334.3828"/><text fill="#000000" font-family="sans-serif" font-size="13" lengthAdjust="spacing" textLength="154" x="444.5" y="329.5264">Get Positions For Account</text><!--SRC=[nPC_JyD03CLtVmeJvcPYOa2gAbfLOa0AK5OtDUr9bxjmv_JFjySb3HKqLKa6Y1Gfplaz__ISN9M1bWMXfPsl16F1Geu0n8XbV0gquF2A0vpn74VMi1CjNWnlwZFCXAIAE7GBVFJHYF4kQaV6xnMxdFLnv9sGSHpGyfejG4b1J6vAKg_aVYiS7Da4AUBePkgq75k_IJF_9XiAdEsYS17Jfh6k0UP-Yyc1By7hsSe80-hrpVw8_JdWq7zYthp_OesfAcjXk-daUTh3KLMdTark6bfOcvox-ZRwWnnOTw7f0C3lyyJ1NQzmyFRInm3BuAloObUluPsXDNybVl2qg8KHnpxWCCzzfOkkIS-TTf_K3U_76fLpmj86ellz-xYEF_UPnDeR_YUqTfPzRliRFW00]--></g></svg>