<?xml version="1.0" encoding="us-ascii" standalone="no"?><svg xmlns="http://www.w3.org/2000/svg" xmlns:xlink="http://www.w3.org/1999/xlink" contentStyleType="text/css" height="416px" preserveAspectRatio="none" style="width:667px;height:416px;background:#FFFFFF;" version="1.1" viewBox="0 0 667 416" width="667px" zoomAndPan="magnify"><defs/><g><text fill="#000000" font-family="sans-serif" font-size="14" font-weight="bold" lengthAdjust="spacing" textLength="639" x="10" y="29.5332">DotNetEShop - Catalog Api - Api - Catalog Api - Get Item By Id - Sequence - Component level</text><rect fill="#FFFFFF" height="366.0313" style="stroke:#181818;stroke-width:0.5;" width="95" x="233.75" y="44.6094"/><text fill="#000000" font-family="sans-serif" font-size="13" font-weight="bold" lengthAdjust="spacing" textLength="21" x="270.75" y="58.1045">Api</text><rect fill="none" height="213.1094" style="stroke:#000000;stroke-width:1.5;" width="296.5" x="217.75" y="144.9219"/><rect fill="none" height="61.7031" style="stroke:#000000;stroke-width:1.5;" width="276.5" x="227.75" y="170.2734"/><rect fill="none" height="61.7031" style="stroke:#000000;stroke-width:1.5;" width="261.5" x="227.75" y="245.9766"/><line style="stroke:#181818;stroke-width:0.5;stroke-dasharray:5.0,5.0;" x1="172.75" x2="172.75" y1="97.5703" y2="375.0313"/><line style="stroke:#181818;stroke-width:0.5;stroke-dasharray:5.0,5.0;" x1="280.75" x2="280.75" y1="97.5703" y2="375.0313"/><rect fill="#E2E2F0" height="31.6094" rx="2.5" ry="2.5" style="stroke:#181818;stroke-width:0.5;" width="65" x="140.75" y="64.9609"/><text fill="#000000" font-family="sans-serif" font-size="14" lengthAdjust="spacing" textLength="51" x="147.75" y="86.4941">External</text><rect fill="#E2E2F0" height="31.6094" rx="2.5" ry="2.5" style="stroke:#181818;stroke-width:0.5;" width="65" x="140.75" y="374.0313"/><text fill="#000000" font-family="sans-serif" font-size="14" lengthAdjust="spacing" textLength="51" x="147.75" y="395.5645">External</text><rect fill="#E2E2F0" height="31.6094" rx="2.5" ry="2.5" style="stroke:#181818;stroke-width:0.5;" width="87" x="237.75" y="64.9609"/><text fill="#000000" font-family="sans-serif" font-size="14" lengthAdjust="spacing" textLength="73" x="244.75" y="86.4941">Catalog Api</text><rect fill="#E2E2F0" height="31.6094" rx="2.5" ry="2.5" style="stroke:#181818;stroke-width:0.5;" width="87" x="237.75" y="374.0313"/><text fill="#000000" font-family="sans-serif" font-size="14" lengthAdjust="spacing" textLength="73" x="244.75" y="395.5645">Catalog Api</text><polygon fill="#181818" points="269.25,125.9219,279.25,129.9219,269.25,133.9219,273.25,129.9219" style="stroke:#181818;stroke-width:1.0;"/><line style="stroke:#181818;stroke-width:1.0;" x1="173.25" x2="275.25" y1="129.9219" y2="129.9219"/><text fill="#000000" font-family="sans-serif" font-size="13" lengthAdjust="spacing" textLength="84" x="180.25" y="125.0654">Get Item By Id</text><path d="M217.75,144.9219 L352.75,144.9219 L352.75,153.2734 L342.75,163.2734 L217.75,163.2734 L217.75,144.9219 " fill="#EEEEEE" style="stroke:#000000;stroke-width:1.5;"/><rect fill="none" height="213.1094" style="stroke:#000000;stroke-width:1.5;" width="296.5" x="217.75" y="144.9219"/><text fill="#000000" font-family="sans-serif" font-size="13" font-weight="bold" lengthAdjust="spacing" textLength="90" x="232.75" y="159.417">Get Item By Id</text><path d="M227.75,170.2734 L288.75,170.2734 L288.75,178.625 L278.75,188.625 L227.75,188.625 L227.75,170.2734 " fill="#EEEEEE" style="stroke:#000000;stroke-width:1.5;"/><rect fill="none" height="61.7031" style="stroke:#000000;stroke-width:1.5;" width="276.5" x="227.75" y="170.2734"/><text fill="#000000" font-family="sans-serif" font-size="13" font-weight="bold" lengthAdjust="spacing" textLength="16" x="242.75" y="184.7686">alt</text><text fill="#000000" font-family="sans-serif" font-size="11" font-weight="bold" lengthAdjust="spacing" textLength="42" x="303.75" y="183.6924">[id &lt;= 0]</text><line style="stroke:#181818;stroke-width:1.0;" x1="281.25" x2="323.25" y1="210.9766" y2="210.9766"/><line style="stroke:#181818;stroke-width:1.0;" x1="323.25" x2="323.25" y1="210.9766" y2="223.9766"/><line style="stroke:#181818;stroke-width:1.0;" x1="282.25" x2="323.25" y1="223.9766" y2="223.9766"/><polygon fill="#181818" points="292.25,219.9766,282.25,223.9766,292.25,227.9766,288.25,223.9766" style="stroke:#181818;stroke-width:1.0;"/><text fill="#000000" font-family="sans-serif" font-size="13" lengthAdjust="spacing" textLength="204" x="288.25" y="206.1201">Return (TypedResults.BadRequest)</text><path d="M227.75,245.9766 L288.75,245.9766 L288.75,254.3281 L278.75,264.3281 L227.75,264.3281 L227.75,245.9766 " fill="#EEEEEE" style="stroke:#000000;stroke-width:1.5;"/><rect fill="none" height="61.7031" style="stroke:#000000;stroke-width:1.5;" width="261.5" x="227.75" y="245.9766"/><text fill="#000000" font-family="sans-serif" font-size="13" font-weight="bold" lengthAdjust="spacing" textLength="16" x="242.75" y="260.4717">alt</text><text fill="#000000" font-family="sans-serif" font-size="11" font-weight="bold" lengthAdjust="spacing" textLength="71" x="303.75" y="259.3955">[item == null]</text><line style="stroke:#181818;stroke-width:1.0;" x1="281.25" x2="323.25" y1="286.6797" y2="286.6797"/><line style="stroke:#181818;stroke-width:1.0;" x1="323.25" x2="323.25" y1="286.6797" y2="299.6797"/><line style="stroke:#181818;stroke-width:1.0;" x1="282.25" x2="323.25" y1="299.6797" y2="299.6797"/><polygon fill="#181818" points="292.25,295.6797,282.25,299.6797,292.25,303.6797,288.25,299.6797" style="stroke:#181818;stroke-width:1.0;"/><text fill="#000000" font-family="sans-serif" font-size="13" lengthAdjust="spacing" textLength="189" x="288.25" y="281.8232">Return (TypedResults.NotFound)</text><line style="stroke:#181818;stroke-width:1.0;" x1="281.25" x2="323.25" y1="337.0313" y2="337.0313"/><line style="stroke:#181818;stroke-width:1.0;" x1="323.25" x2="323.25" y1="337.0313" y2="350.0313"/><line style="stroke:#181818;stroke-width:1.0;" x1="282.25" x2="323.25" y1="350.0313" y2="350.0313"/><polygon fill="#181818" points="292.25,346.0313,282.25,350.0313,292.25,354.0313,288.25,350.0313" style="stroke:#181818;stroke-width:1.0;"/><text fill="#000000" font-family="sans-serif" font-size="13" lengthAdjust="spacing" textLength="150" x="288.25" y="332.1748">Return (TypedResults.Ok)</text><!--SRC=[rLAnJiCm4Dtz5QUmmD28WGaH91fQbAL83HApQOxMmhMDVQRDttEHYqZ2mf2b7gnxpy- -zsoJ8etmQ6c5jAXtri4CIabIsoqyECKepKFk2GagmZtCMwWQ9chyZ6Wss2djtbc3Xa3Z5seXdFIaDif9fhB5aT0RgJEG0SgRoZ1SQdl8Q_jE1-cnRWCV7F8VOS92lDaZP3qN6LoyxXIX01vfTSmE6W-sSkzUv3-zJrgMvgKr99L17_84J-7w8e6c0NOWVWln_sWmkv_I3DoENaTilOrkJ4fDe1guA-1QJDbzyZ1hfEWDNBwq3firXgXPCPTSyeyBTDNTUKhJXIiAC57hCuoqihIqqJGfqFdvV_v8piKt]--></g></svg>