<?xml version="1.0" encoding="us-ascii" standalone="no"?><svg xmlns="http://www.w3.org/2000/svg" xmlns:xlink="http://www.w3.org/1999/xlink" contentStyleType="text/css" height="390px" preserveAspectRatio="none" style="width:596px;height:390px;background:#FFFFFF;" version="1.1" viewBox="0 0 596 390" width="596px" zoomAndPan="magnify"><defs/><g><text fill="#000000" font-family="sans-serif" font-size="14" font-weight="bold" lengthAdjust="spacing" textLength="568" x="10" y="29.5332">Basket Api - Grpc - Basket Service - Delete Basket - Sequence - Component level</text><rect fill="#FFFFFF" height="340.0313" style="stroke:#181818;stroke-width:0.5;" width="116" x="110.5" y="44.6094"/><text fill="#000000" font-family="sans-serif" font-size="13" font-weight="bold" lengthAdjust="spacing" textLength="30" x="153.5" y="58.1045">Grpc</text><rect fill="#FFFFFF" height="340.0313" style="stroke:#181818;stroke-width:0.5;" width="302" x="236" y="44.6094"/><text fill="#000000" font-family="sans-serif" font-size="13" font-weight="bold" lengthAdjust="spacing" textLength="29" x="372.5" y="58.1045">Data</text><rect fill="none" height="187.1094" style="stroke:#000000;stroke-width:1.5;" width="459.5" x="94.5" y="144.9219"/><rect fill="none" height="61.7031" style="stroke:#000000;stroke-width:1.5;" width="246" x="104.5" y="170.2734"/><rect fill="none" height="48.7031" style="stroke:#000000;stroke-width:1.5;" width="314" x="230" y="276.3281"/><line style="stroke:#181818;stroke-width:0.5;stroke-dasharray:5.0,5.0;" x1="62" x2="62" y1="97.5703" y2="349.0313"/><line style="stroke:#181818;stroke-width:0.5;stroke-dasharray:5.0,5.0;" x1="168.5" x2="168.5" y1="97.5703" y2="349.0313"/><line style="stroke:#181818;stroke-width:0.5;stroke-dasharray:5.0,5.0;" x1="324" x2="324" y1="97.5703" y2="349.0313"/><line style="stroke:#181818;stroke-width:0.5;stroke-dasharray:5.0,5.0;" x1="476" x2="476" y1="97.5703" y2="349.0313"/><rect fill="#E2E2F0" height="31.6094" rx="2.5" ry="2.5" style="stroke:#181818;stroke-width:0.5;" width="65" x="30" y="64.9609"/><text fill="#000000" font-family="sans-serif" font-size="14" lengthAdjust="spacing" textLength="51" x="37" y="86.4941">External</text><rect fill="#E2E2F0" height="31.6094" rx="2.5" ry="2.5" style="stroke:#181818;stroke-width:0.5;" width="65" x="30" y="348.0313"/><text fill="#000000" font-family="sans-serif" font-size="14" lengthAdjust="spacing" textLength="51" x="37" y="369.5645">External</text><rect fill="#E2E2F0" height="31.6094" rx="2.5" ry="2.5" style="stroke:#181818;stroke-width:0.5;" width="108" x="114.5" y="64.9609"/><text fill="#000000" font-family="sans-serif" font-size="14" lengthAdjust="spacing" textLength="94" x="121.5" y="86.4941">Basket Service</text><rect fill="#E2E2F0" height="31.6094" rx="2.5" ry="2.5" style="stroke:#181818;stroke-width:0.5;" width="108" x="114.5" y="348.0313"/><text fill="#000000" font-family="sans-serif" font-size="14" lengthAdjust="spacing" textLength="94" x="121.5" y="369.5645">Basket Service</text><rect fill="#E2E2F0" height="31.6094" rx="2.5" ry="2.5" style="stroke:#181818;stroke-width:0.5;" width="169" x="240" y="64.9609"/><text fill="#000000" font-family="sans-serif" font-size="14" lengthAdjust="spacing" textLength="155" x="247" y="86.4941">Redis Basket Repository</text><rect fill="#E2E2F0" height="31.6094" rx="2.5" ry="2.5" style="stroke:#181818;stroke-width:0.5;" width="169" x="240" y="348.0313"/><text fill="#000000" font-family="sans-serif" font-size="14" lengthAdjust="spacing" textLength="155" x="247" y="369.5645">Redis Basket Repository</text><rect fill="#E2E2F0" height="31.6094" rx="2.5" ry="2.5" style="stroke:#181818;stroke-width:0.5;" width="115" x="419" y="64.9609"/><text fill="#000000" font-family="sans-serif" font-size="14" lengthAdjust="spacing" textLength="101" x="426" y="86.4941">Redis Database</text><rect fill="#E2E2F0" height="31.6094" rx="2.5" ry="2.5" style="stroke:#181818;stroke-width:0.5;" width="115" x="419" y="348.0313"/><text fill="#000000" font-family="sans-serif" font-size="14" lengthAdjust="spacing" textLength="101" x="426" y="369.5645">Redis Database</text><polygon fill="#181818" points="156.5,125.9219,166.5,129.9219,156.5,133.9219,160.5,129.9219" style="stroke:#181818;stroke-width:1.0;"/><line style="stroke:#181818;stroke-width:1.0;" x1="62.5" x2="162.5" y1="129.9219" y2="129.9219"/><text fill="#000000" font-family="sans-serif" font-size="13" lengthAdjust="spacing" textLength="82" x="69.5" y="125.0654">Delete Basket</text><path d="M94.5,144.9219 L226.5,144.9219 L226.5,153.2734 L216.5,163.2734 L94.5,163.2734 L94.5,144.9219 " fill="#EEEEEE" style="stroke:#000000;stroke-width:1.5;"/><rect fill="none" height="187.1094" style="stroke:#000000;stroke-width:1.5;" width="459.5" x="94.5" y="144.9219"/><text fill="#000000" font-family="sans-serif" font-size="13" font-weight="bold" lengthAdjust="spacing" textLength="87" x="109.5" y="159.417">Delete Basket</text><path d="M104.5,170.2734 L165.5,170.2734 L165.5,178.625 L155.5,188.625 L104.5,188.625 L104.5,170.2734 " fill="#EEEEEE" style="stroke:#000000;stroke-width:1.5;"/><rect fill="none" height="61.7031" style="stroke:#000000;stroke-width:1.5;" width="246" x="104.5" y="170.2734"/><text fill="#000000" font-family="sans-serif" font-size="13" font-weight="bold" lengthAdjust="spacing" textLength="16" x="119.5" y="184.7686">alt</text><text fill="#000000" font-family="sans-serif" font-size="11" font-weight="bold" lengthAdjust="spacing" textLength="165" x="180.5" y="183.6924">[string.IsNullOrEmpty(userId)]</text><line style="stroke:#181818;stroke-width:1.0;" x1="168.5" x2="210.5" y1="210.9766" y2="210.9766"/><line style="stroke:#181818;stroke-width:1.0;" x1="210.5" x2="210.5" y1="210.9766" y2="223.9766"/><line style="stroke:#181818;stroke-width:1.0;" x1="169.5" x2="210.5" y1="223.9766" y2="223.9766"/><polygon fill="#181818" points="179.5,219.9766,169.5,223.9766,179.5,227.9766,175.5,223.9766" style="stroke:#181818;stroke-width:1.0;"/><text fill="#000000" font-family="sans-serif" font-size="13" lengthAdjust="spacing" textLength="142" x="175.5" y="206.1201">Throw Not Authenticated</text><polygon fill="#181818" points="312.5,257.3281,322.5,261.3281,312.5,265.3281,316.5,261.3281" style="stroke:#181818;stroke-width:1.0;"/><line style="stroke:#181818;stroke-width:1.0;" x1="168.5" x2="318.5" y1="261.3281" y2="261.3281"/><text fill="#000000" font-family="sans-serif" font-size="13" lengthAdjust="spacing" textLength="123" x="175.5" y="256.4717">Delete Basket Async</text><path d="M230,276.3281 L403,276.3281 L403,284.6797 L393,294.6797 L230,294.6797 L230,276.3281 " fill="#EEEEEE" style="stroke:#000000;stroke-width:1.5;"/><rect fill="none" height="48.7031" style="stroke:#000000;stroke-width:1.5;" width="314" x="230" y="276.3281"/><text fill="#000000" font-family="sans-serif" font-size="13" font-weight="bold" lengthAdjust="spacing" textLength="128" x="245" y="290.8232">Delete Basket Async</text><polygon fill="#181818" points="464.5,313.0313,474.5,317.0313,464.5,321.0313,468.5,317.0313" style="stroke:#181818;stroke-width:1.0;"/><line style="stroke:#181818;stroke-width:1.0;" x1="324.5" x2="470.5" y1="317.0313" y2="317.0313"/><text fill="#000000" font-family="sans-serif" font-size="13" lengthAdjust="spacing" textLength="105" x="331.5" y="312.1748">Key Delete Async</text><!--SRC=[pPF1JiCm38RlUGfJBd1OJvmu88rje0bfI2iIPwyrQqIQXCJTrhSdNTTj1IRjG16LgZQse__xu_Z2EbmM20ehKpBuWXWr2i6I5S4z-dTY65e90tXqDWsVNImXjv8fXS2O5F6-TX0o7oNfRMfa2ciqQGP5Ar92M7GiKsanXAB9XibfL16WXz7DL8VbWpBhE35ll4P7IUMP2X-tXSrQY8NPG7HWY-3oDPTC0iBJ96lMJhWZtBMmbSyCQ-AOajpOUEZIUcFAfQDlCCtc81kFZ6QKcfoFQxruxxOjsWa8qXa4B744E4R6qu1pogHlJtHErdZ9nbM_GLeB7vDkfPhAWz0fedhp0Ztr1j8A78vi_oFElo4mkEkreN3RlVHYwKnflyHGXN5Y9_KodlfPgTIpcnIMgwlIavjcrw9NmlvFu2LtPWqp4qQmv3oKo1IPihfX_ztQMJFmjSamz9LEVshrBlCdK3sPR-Skc7wYghNN-AeRMh_Y4m00]--></g></svg>