<?xml version="1.0" encoding="us-ascii" standalone="no"?><svg xmlns="http://www.w3.org/2000/svg" xmlns:xlink="http://www.w3.org/1999/xlink" contentStyleType="text/css" height="390px" preserveAspectRatio="none" style="width:813px;height:390px;background:#FFFFFF;" version="1.1" viewBox="0 0 813 390" width="813px" zoomAndPan="magnify"><defs/><g><text fill="#000000" font-family="sans-serif" font-size="14" font-weight="bold" lengthAdjust="spacing" textLength="785" x="10" y="29.5332">dotnet - eShop - Architecture - Basket Api - Grpc - Basket Service - Delete Basket - Sequence - Component level</text><rect fill="#FFFFFF" height="340.0313" style="stroke:#181818;stroke-width:0.5;" width="116" x="219" y="44.6094"/><text fill="#000000" font-family="sans-serif" font-size="13" font-weight="bold" lengthAdjust="spacing" textLength="30" x="262" y="58.1045">Grpc</text><rect fill="#FFFFFF" height="340.0313" style="stroke:#181818;stroke-width:0.5;" width="302" x="344.5" y="44.6094"/><text fill="#000000" font-family="sans-serif" font-size="13" font-weight="bold" lengthAdjust="spacing" textLength="29" x="481" y="58.1045">Data</text><rect fill="none" height="187.1094" style="stroke:#000000;stroke-width:1.5;" width="459.5" x="203" y="144.9219"/><rect fill="none" height="61.7031" style="stroke:#000000;stroke-width:1.5;" width="246" x="213" y="170.2734"/><rect fill="none" height="48.7031" style="stroke:#000000;stroke-width:1.5;" width="314" x="338.5" y="276.3281"/><line style="stroke:#181818;stroke-width:0.5;stroke-dasharray:5.0,5.0;" x1="170.5" x2="170.5" y1="97.5703" y2="349.0313"/><line style="stroke:#181818;stroke-width:0.5;stroke-dasharray:5.0,5.0;" x1="277" x2="277" y1="97.5703" y2="349.0313"/><line style="stroke:#181818;stroke-width:0.5;stroke-dasharray:5.0,5.0;" x1="432.5" x2="432.5" y1="97.5703" y2="349.0313"/><line style="stroke:#181818;stroke-width:0.5;stroke-dasharray:5.0,5.0;" x1="584.5" x2="584.5" y1="97.5703" y2="349.0313"/><rect fill="#E2E2F0" height="31.6094" rx="2.5" ry="2.5" style="stroke:#181818;stroke-width:0.5;" width="65" x="138.5" y="64.9609"/><text fill="#000000" font-family="sans-serif" font-size="14" lengthAdjust="spacing" textLength="51" x="145.5" y="86.4941">External</text><rect fill="#E2E2F0" height="31.6094" rx="2.5" ry="2.5" style="stroke:#181818;stroke-width:0.5;" width="65" x="138.5" y="348.0313"/><text fill="#000000" font-family="sans-serif" font-size="14" lengthAdjust="spacing" textLength="51" x="145.5" y="369.5645">External</text><rect fill="#E2E2F0" height="31.6094" rx="2.5" ry="2.5" style="stroke:#181818;stroke-width:0.5;" width="108" x="223" y="64.9609"/><text fill="#000000" font-family="sans-serif" font-size="14" lengthAdjust="spacing" textLength="94" x="230" y="86.4941">Basket Service</text><rect fill="#E2E2F0" height="31.6094" rx="2.5" ry="2.5" style="stroke:#181818;stroke-width:0.5;" width="108" x="223" y="348.0313"/><text fill="#000000" font-family="sans-serif" font-size="14" lengthAdjust="spacing" textLength="94" x="230" y="369.5645">Basket Service</text><rect fill="#E2E2F0" height="31.6094" rx="2.5" ry="2.5" style="stroke:#181818;stroke-width:0.5;" width="169" x="348.5" y="64.9609"/><text fill="#000000" font-family="sans-serif" font-size="14" lengthAdjust="spacing" textLength="155" x="355.5" y="86.4941">Redis Basket Repository</text><rect fill="#E2E2F0" height="31.6094" rx="2.5" ry="2.5" style="stroke:#181818;stroke-width:0.5;" width="169" x="348.5" y="348.0313"/><text fill="#000000" font-family="sans-serif" font-size="14" lengthAdjust="spacing" textLength="155" x="355.5" y="369.5645">Redis Basket Repository</text><rect fill="#E2E2F0" height="31.6094" rx="2.5" ry="2.5" style="stroke:#181818;stroke-width:0.5;" width="115" x="527.5" y="64.9609"/><text fill="#000000" font-family="sans-serif" font-size="14" lengthAdjust="spacing" textLength="101" x="534.5" y="86.4941">Redis Database</text><rect fill="#E2E2F0" height="31.6094" rx="2.5" ry="2.5" style="stroke:#181818;stroke-width:0.5;" width="115" x="527.5" y="348.0313"/><text fill="#000000" font-family="sans-serif" font-size="14" lengthAdjust="spacing" textLength="101" x="534.5" y="369.5645">Redis Database</text><polygon fill="#181818" points="265,125.9219,275,129.9219,265,133.9219,269,129.9219" style="stroke:#181818;stroke-width:1.0;"/><line style="stroke:#181818;stroke-width:1.0;" x1="171" x2="271" y1="129.9219" y2="129.9219"/><text fill="#000000" font-family="sans-serif" font-size="13" lengthAdjust="spacing" textLength="82" x="178" y="125.0654">Delete Basket</text><path d="M203,144.9219 L335,144.9219 L335,153.2734 L325,163.2734 L203,163.2734 L203,144.9219 " fill="#EEEEEE" style="stroke:#000000;stroke-width:1.5;"/><rect fill="none" height="187.1094" style="stroke:#000000;stroke-width:1.5;" width="459.5" x="203" y="144.9219"/><text fill="#000000" font-family="sans-serif" font-size="13" font-weight="bold" lengthAdjust="spacing" textLength="87" x="218" y="159.417">Delete Basket</text><path d="M213,170.2734 L274,170.2734 L274,178.625 L264,188.625 L213,188.625 L213,170.2734 " fill="#EEEEEE" style="stroke:#000000;stroke-width:1.5;"/><rect fill="none" height="61.7031" style="stroke:#000000;stroke-width:1.5;" width="246" x="213" y="170.2734"/><text fill="#000000" font-family="sans-serif" font-size="13" font-weight="bold" lengthAdjust="spacing" textLength="16" x="228" y="184.7686">alt</text><text fill="#000000" font-family="sans-serif" font-size="11" font-weight="bold" lengthAdjust="spacing" textLength="165" x="289" y="183.6924">[string.IsNullOrEmpty(userId)]</text><line style="stroke:#181818;stroke-width:1.0;" x1="277" x2="319" y1="210.9766" y2="210.9766"/><line style="stroke:#181818;stroke-width:1.0;" x1="319" x2="319" y1="210.9766" y2="223.9766"/><line style="stroke:#181818;stroke-width:1.0;" x1="278" x2="319" y1="223.9766" y2="223.9766"/><polygon fill="#181818" points="288,219.9766,278,223.9766,288,227.9766,284,223.9766" style="stroke:#181818;stroke-width:1.0;"/><text fill="#000000" font-family="sans-serif" font-size="13" lengthAdjust="spacing" textLength="142" x="284" y="206.1201">Throw Not Authenticated</text><polygon fill="#181818" points="421,257.3281,431,261.3281,421,265.3281,425,261.3281" style="stroke:#181818;stroke-width:1.0;"/><line style="stroke:#181818;stroke-width:1.0;" x1="277" x2="427" y1="261.3281" y2="261.3281"/><text fill="#000000" font-family="sans-serif" font-size="13" lengthAdjust="spacing" textLength="123" x="284" y="256.4717">Delete Basket Async</text><path d="M338.5,276.3281 L511.5,276.3281 L511.5,284.6797 L501.5,294.6797 L338.5,294.6797 L338.5,276.3281 " fill="#EEEEEE" style="stroke:#000000;stroke-width:1.5;"/><rect fill="none" height="48.7031" style="stroke:#000000;stroke-width:1.5;" width="314" x="338.5" y="276.3281"/><text fill="#000000" font-family="sans-serif" font-size="13" font-weight="bold" lengthAdjust="spacing" textLength="128" x="353.5" y="290.8232">Delete Basket Async</text><polygon fill="#181818" points="573,313.0313,583,317.0313,573,321.0313,577,317.0313" style="stroke:#181818;stroke-width:1.0;"/><line style="stroke:#181818;stroke-width:1.0;" x1="433" x2="579" y1="317.0313" y2="317.0313"/><text fill="#000000" font-family="sans-serif" font-size="13" lengthAdjust="spacing" textLength="105" x="440" y="312.1748">Key Delete Async</text><!--SRC=[pLCxJyCm4DxzAqnOO6Wc9WQaqXPK8HMfGMA-9aTZuTZ6lhJDlyTEcgO1AdKWY4XHSW_hUvplmbXO5y0bLBeaxWeaKC0O2PB8CqqAYOyu9has_ZksQIu8Koej-l0UtBklZutmmQCrQPTBq6v46fgcA96mpOzyvQD4LPSckZ1QeI8kSOEICGEMH2eC-5Gqsn5Q1JBYuFZaPgvy-23rDaxq6st1Ob8vmiB5RMCJCxRIEnvrt29- -HfOC-wVfXYuzj8zuBw46hvn8gvzY8zT-4QcEUnXuubM14AXTN70YmzgswOz04ELSK-B7H6S0i5fWalCX6iTNQBHJf2srMym3S37J6kefhC3EiKe75w1my68j02TPOSVTluDuQExGGVAR_kNdgsjBisN74Y_RcI5MiTpjoYbVBQpmb1rLJgqy-oQ3SfmU0TUSgktVA7z2fQK-nQH0c4M1lRVfPsr0r-7pCUkKkbFezvN_eJKGEBRlVEYdx1gvJMwma33opu1]--></g></svg>