<?xml version="1.0" encoding="us-ascii" standalone="no"?><svg xmlns="http://www.w3.org/2000/svg" xmlns:xlink="http://www.w3.org/1999/xlink" contentStyleType="text/css" height="258px" preserveAspectRatio="none" style="width:989px;height:258px;background:#FFFFFF;" version="1.1" viewBox="0 0 989 258" width="989px" zoomAndPan="magnify"><defs/><g><text fill="#000000" font-family="sans-serif" font-size="14" font-weight="bold" lengthAdjust="spacing" textLength="961" x="10" y="29.5332">E Commerce Platform - Generate Demand - Search And Browse - Search Service - Database - Delete Product - Sequence - Container level</text><rect fill="#FFFFFF" height="200.9219" style="stroke:#181818;stroke-width:0.5;" width="103" x="494" y="44.6094"/><text fill="#000000" font-family="sans-serif" font-size="13" font-weight="bold" lengthAdjust="spacing" textLength="97" x="497" y="58.1045">Search Service</text><line style="stroke:#181818;stroke-width:0.5;stroke-dasharray:5.0,5.0;" x1="421" x2="421" y1="128.5703" y2="178.9219"/><line style="stroke:#181818;stroke-width:0.5;stroke-dasharray:5.0,5.0;" x1="545" x2="545" y1="128.5703" y2="178.9219"/><rect fill="#E2E2F0" height="31.6094" rx="2.5" ry="2.5" style="stroke:#181818;stroke-width:0.5;" width="65" x="389" y="95.9609"/><text fill="#000000" font-family="sans-serif" font-size="14" lengthAdjust="spacing" textLength="51" x="396" y="117.4941">External</text><rect fill="#E2E2F0" height="31.6094" rx="2.5" ry="2.5" style="stroke:#181818;stroke-width:0.5;" width="65" x="389" y="177.9219"/><text fill="#000000" font-family="sans-serif" font-size="14" lengthAdjust="spacing" textLength="51" x="396" y="199.4551">External</text><text fill="#000000" font-family="sans-serif" font-size="14" lengthAdjust="spacing" textLength="61" x="512" y="125.4941">Database</text><path d="M527.5,74.9609 C527.5,64.9609 545.5,64.9609 545.5,64.9609 C545.5,64.9609 563.5,64.9609 563.5,74.9609 L563.5,100.9609 C563.5,110.9609 545.5,110.9609 545.5,110.9609 C545.5,110.9609 527.5,110.9609 527.5,100.9609 L527.5,74.9609 " fill="#E2E2F0" style="stroke:#181818;stroke-width:1.5;"/><path d="M527.5,74.9609 C527.5,84.9609 545.5,84.9609 545.5,84.9609 C545.5,84.9609 563.5,84.9609 563.5,74.9609 " fill="none" style="stroke:#181818;stroke-width:1.5;"/><text fill="#000000" font-family="sans-serif" font-size="14" lengthAdjust="spacing" textLength="61" x="512" y="192.4551">Database</text><path d="M527.5,205.5313 C527.5,195.5313 545.5,195.5313 545.5,195.5313 C545.5,195.5313 563.5,195.5313 563.5,205.5313 L563.5,231.5313 C563.5,241.5313 545.5,241.5313 545.5,241.5313 C545.5,241.5313 527.5,241.5313 527.5,231.5313 L527.5,205.5313 " fill="#E2E2F0" style="stroke:#181818;stroke-width:1.5;"/><path d="M527.5,205.5313 C527.5,215.5313 545.5,215.5313 545.5,215.5313 C545.5,215.5313 563.5,215.5313 563.5,205.5313 " fill="none" style="stroke:#181818;stroke-width:1.5;"/><polygon fill="#181818" points="533.5,156.9219,543.5,160.9219,533.5,164.9219,537.5,160.9219" style="stroke:#181818;stroke-width:1.0;"/><line style="stroke:#181818;stroke-width:1.0;" x1="421.5" x2="539.5" y1="160.9219" y2="160.9219"/><text fill="#000000" font-family="sans-serif" font-size="13" lengthAdjust="spacing" textLength="86" x="428.5" y="156.0654">Delete Product</text><!--SRC=[lP4_JmCn3CLtVmhhc9k9YG49xWx4Lka6PZVdgf7ofpXkhtnxmeM0W8M9RCzsyjxFKQUUSSG-XS1Y6RUUT9yau0OVERAGCWuSACwbCZ69FU1T4VUIbinVjOdbxEnxOI2b7QszWJsN-rj9yydgElnouhYEzIagkUA0di_i0OuawgmxKbJinekoHF8TKiR- -YaM-U3JOgQqruM4fzUi7B9fWrK3xD85k- -PEhnwFZXbm7BcbgvhELUBiIsWyPj6N-5DVRAGL_1VEMh_mz5ymcNJR83Braew0FWx3svk_o4QtlpuAO0t]--></g></svg>