<?xml version="1.0" encoding="us-ascii" standalone="no"?><svg xmlns="http://www.w3.org/2000/svg" xmlns:xlink="http://www.w3.org/1999/xlink" contentStyleType="text/css" height="526px" preserveAspectRatio="none" style="width:725px;height:526px;background:#FFFFFF;" version="1.1" viewBox="0 0 725 526" width="725px" zoomAndPan="magnify"><defs/><g><text fill="#000000" font-family="sans-serif" font-size="14" font-weight="bold" lengthAdjust="spacing" textLength="572" x="78" y="29.5332">Trader X Example - TraderX - Web GUI - Create Trade - Sequence - Container level</text><rect fill="#FFFFFF" height="468.7891" style="stroke:#181818;stroke-width:0.5;" width="606.5" x="96.5" y="44.6094"/><text fill="#000000" font-family="sans-serif" font-size="13" font-weight="bold" lengthAdjust="spacing" textLength="51" x="374.25" y="58.1045">TraderX</text><rect fill="none" height="237.5156" style="stroke:#000000;stroke-width:1.5;" width="628.5" x="90.5" y="192.2734"/><rect fill="none" height="111.7578" style="stroke:#000000;stroke-width:1.5;" width="363.5" x="345.5" y="311.0313"/><line style="stroke:#181818;stroke-width:0.5;stroke-dasharray:5.0,5.0;" x1="37" x2="37" y1="128.5703" y2="446.7891"/><line style="stroke:#181818;stroke-width:0.5;stroke-dasharray:5.0,5.0;" x1="135.5" x2="135.5" y1="128.5703" y2="446.7891"/><line style="stroke:#181818;stroke-width:0.5;stroke-dasharray:5.0,5.0;" x1="262.5" x2="262.5" y1="128.5703" y2="446.7891"/><line style="stroke:#181818;stroke-width:0.5;stroke-dasharray:5.0,5.0;" x1="415.5" x2="415.5" y1="128.5703" y2="446.7891"/><line style="stroke:#181818;stroke-width:0.5;stroke-dasharray:5.0,5.0;" x1="560" x2="560" y1="128.5703" y2="446.7891"/><line style="stroke:#181818;stroke-width:0.5;stroke-dasharray:5.0,5.0;" x1="654" x2="654" y1="128.5703" y2="446.7891"/><rect fill="#E2E2F0" height="31.6094" rx="2.5" ry="2.5" style="stroke:#181818;stroke-width:0.5;" width="65" x="5" y="95.9609"/><text fill="#000000" font-family="sans-serif" font-size="14" lengthAdjust="spacing" textLength="51" x="12" y="117.4941">External</text><rect fill="#E2E2F0" height="31.6094" rx="2.5" ry="2.5" style="stroke:#181818;stroke-width:0.5;" width="65" x="5" y="445.7891"/><text fill="#000000" font-family="sans-serif" font-size="14" lengthAdjust="spacing" textLength="51" x="12" y="467.3223">External</text><rect fill="#E2E2F0" height="31.6094" rx="2.5" ry="2.5" style="stroke:#181818;stroke-width:0.5;" width="70" x="100.5" y="95.9609"/><text fill="#000000" font-family="sans-serif" font-size="14" lengthAdjust="spacing" textLength="56" x="107.5" y="117.4941">Web GUI</text><rect fill="#E2E2F0" height="31.6094" rx="2.5" ry="2.5" style="stroke:#181818;stroke-width:0.5;" width="70" x="100.5" y="445.7891"/><text fill="#000000" font-family="sans-serif" font-size="14" lengthAdjust="spacing" textLength="56" x="107.5" y="467.3223">Web GUI</text><rect fill="#E2E2F0" height="31.6094" rx="2.5" ry="2.5" style="stroke:#181818;stroke-width:0.5;" width="165" x="180.5" y="95.9609"/><text fill="#000000" font-family="sans-serif" font-size="14" lengthAdjust="spacing" textLength="151" x="187.5" y="117.4941">Reference Data Service</text><rect fill="#E2E2F0" height="31.6094" rx="2.5" ry="2.5" style="stroke:#181818;stroke-width:0.5;" width="165" x="180.5" y="445.7891"/><text fill="#000000" font-family="sans-serif" font-size="14" lengthAdjust="spacing" textLength="151" x="187.5" y="467.3223">Reference Data Service</text><rect fill="#E2E2F0" height="31.6094" rx="2.5" ry="2.5" style="stroke:#181818;stroke-width:0.5;" width="121" x="355.5" y="95.9609"/><text fill="#000000" font-family="sans-serif" font-size="14" lengthAdjust="spacing" textLength="107" x="362.5" y="117.4941">Trading Services</text><rect fill="#E2E2F0" height="31.6094" rx="2.5" ry="2.5" style="stroke:#181818;stroke-width:0.5;" width="121" x="355.5" y="445.7891"/><text fill="#000000" font-family="sans-serif" font-size="14" lengthAdjust="spacing" textLength="107" x="362.5" y="467.3223">Trading Services</text><text fill="#000000" font-family="sans-serif" font-size="14" lengthAdjust="spacing" textLength="74" x="520" y="125.4941">TraderX DB</text><path d="M542,74.9609 C542,64.9609 560,64.9609 560,64.9609 C560,64.9609 578,64.9609 578,74.9609 L578,100.9609 C578,110.9609 560,110.9609 560,110.9609 C560,110.9609 542,110.9609 542,100.9609 L542,74.9609 " fill="#E2E2F0" style="stroke:#181818;stroke-width:1.5;"/><path d="M542,74.9609 C542,84.9609 560,84.9609 560,84.9609 C560,84.9609 578,84.9609 578,74.9609 " fill="none" style="stroke:#181818;stroke-width:1.5;"/><text fill="#000000" font-family="sans-serif" font-size="14" lengthAdjust="spacing" textLength="74" x="520" y="460.3223">TraderX DB</text><path d="M542,473.3984 C542,463.3984 560,463.3984 560,463.3984 C560,463.3984 578,463.3984 578,473.3984 L578,499.3984 C578,509.3984 560,509.3984 560,509.3984 C560,509.3984 542,509.3984 542,499.3984 L542,473.3984 " fill="#E2E2F0" style="stroke:#181818;stroke-width:1.5;"/><path d="M542,473.3984 C542,483.3984 560,483.3984 560,483.3984 C560,483.3984 578,483.3984 578,473.3984 " fill="none" style="stroke:#181818;stroke-width:1.5;"/><rect fill="#E2E2F0" height="31.6094" rx="2.5" ry="2.5" style="stroke:#181818;stroke-width:0.5;" width="89" x="610" y="95.9609"/><text fill="#000000" font-family="sans-serif" font-size="14" lengthAdjust="spacing" textLength="75" x="617" y="117.4941">Trade Feed</text><rect fill="#E2E2F0" height="31.6094" rx="2.5" ry="2.5" style="stroke:#181818;stroke-width:0.5;" width="89" x="610" y="445.7891"/><text fill="#000000" font-family="sans-serif" font-size="14" lengthAdjust="spacing" textLength="75" x="617" y="467.3223">Trade Feed</text><polygon fill="#181818" points="123.5,173.2734,133.5,177.2734,123.5,181.2734,127.5,177.2734" style="stroke:#181818;stroke-width:1.0;"/><line style="stroke:#181818;stroke-width:1.0;" x1="37.5" x2="129.5" y1="177.2734" y2="177.2734"/><text fill="#000000" font-family="sans-serif" font-size="13" lengthAdjust="spacing" textLength="74" x="44.5" y="156.0654">Create Trade</text><text fill="#000000" font-family="sans-serif" font-size="13" lengthAdjust="spacing" textLength="49" x="44.5" y="172.417">[HTTPS]</text><path d="M90.5,192.2734 L218.5,192.2734 L218.5,200.625 L208.5,210.625 L90.5,210.625 L90.5,192.2734 " fill="#EEEEEE" style="stroke:#000000;stroke-width:1.5;"/><rect fill="none" height="237.5156" style="stroke:#000000;stroke-width:1.5;" width="628.5" x="90.5" y="192.2734"/><text fill="#000000" font-family="sans-serif" font-size="13" font-weight="bold" lengthAdjust="spacing" textLength="83" x="105.5" y="206.7686">Create Trade</text><polygon fill="#181818" points="251,245.3281,261,249.3281,251,253.3281,255,249.3281" style="stroke:#181818;stroke-width:1.0;"/><line style="stroke:#181818;stroke-width:1.0;" x1="135.5" x2="257" y1="249.3281" y2="249.3281"/><text fill="#000000" font-family="sans-serif" font-size="13" lengthAdjust="spacing" textLength="83" x="142.5" y="228.1201">Get Securities</text><text fill="#000000" font-family="sans-serif" font-size="13" lengthAdjust="spacing" textLength="49" x="142.5" y="244.4717">[HTTPS]</text><polygon fill="#181818" points="404,292.0313,414,296.0313,404,300.0313,408,296.0313" style="stroke:#181818;stroke-width:1.0;"/><line style="stroke:#181818;stroke-width:1.0;" x1="135.5" x2="410" y1="296.0313" y2="296.0313"/><text fill="#000000" font-family="sans-serif" font-size="13" lengthAdjust="spacing" textLength="74" x="142.5" y="274.8232">Create Trade</text><text fill="#000000" font-family="sans-serif" font-size="13" lengthAdjust="spacing" textLength="49" x="142.5" y="291.1748">[HTTPS]</text><path d="M345.5,311.0313 L473.5,311.0313 L473.5,319.3828 L463.5,329.3828 L345.5,329.3828 L345.5,311.0313 " fill="#EEEEEE" style="stroke:#000000;stroke-width:1.5;"/><rect fill="none" height="111.7578" style="stroke:#000000;stroke-width:1.5;" width="363.5" x="345.5" y="311.0313"/><text fill="#000000" font-family="sans-serif" font-size="13" font-weight="bold" lengthAdjust="spacing" textLength="83" x="360.5" y="325.5264">Create Trade</text><polygon fill="#181818" points="548,364.0859,558,368.0859,548,372.0859,552,368.0859" style="stroke:#181818;stroke-width:1.0;"/><line style="stroke:#181818;stroke-width:1.0;" x1="416" x2="554" y1="368.0859" y2="368.0859"/><text fill="#000000" font-family="sans-serif" font-size="13" lengthAdjust="spacing" textLength="120" x="423" y="346.8779">Insert Trade Request</text><text fill="#000000" font-family="sans-serif" font-size="13" lengthAdjust="spacing" textLength="41" x="423" y="363.2295">[JDBC]</text><polygon fill="#181818" points="642.5,410.7891,652.5,414.7891,642.5,418.7891,646.5,414.7891" style="stroke:#181818;stroke-width:1.0;"/><line style="stroke:#181818;stroke-width:1.0;" x1="416" x2="648.5" y1="414.7891" y2="414.7891"/><text fill="#000000" font-family="sans-serif" font-size="13" lengthAdjust="spacing" textLength="118" x="423" y="393.5811">Send Trade Request</text><text fill="#000000" font-family="sans-serif" font-size="13" lengthAdjust="spacing" textLength="62" x="423" y="409.9326">[SocketIO]</text><!--SRC=[nLGzJyCm4DtzAqvXRYOc1eOcRGaBg0bg9UZW9jTYaJh1lhJbttCERb4_1fGAY6J97tVllNFUcHIL29cH1HgOmc0hLpLlzFpMb6SJdCFeAU5PP52IZ-PbYkyDwjnDeqgJL9enIbnZAKGj3QbSrL8J18CjeT6o341QYAuJpSjXMMt2j5hGHXfCFopXoeQxmA-r4FDg2u5N4i3Lv5KH2k3l0DuBRD5ziA_ZXC0VXtkzDkHiJZv57UC2JLjUB4boiMQjSkn8iWTpM1xgbD8bAhtSSTcEP1vcXzBo5CmxbnRtrmbn_m9utehxvmj0628Mbs2xV86w0FxzGeYV6mPwjvqD03S7zdxHptTPzfZEnD9KJNrm9ZfpTD9tpZkiTeJ4HiaReqYX_TRxj-AElFQxjtXCrbbnQr_MccYBXlo3DdRFcINMV1_tezc_wdCjmFfIrmN7wj8gVqDA7cQkHzeXFW40]--></g></svg>