<?xml version="1.0" encoding="us-ascii" standalone="no"?><svg xmlns="http://www.w3.org/2000/svg" xmlns:xlink="http://www.w3.org/1999/xlink" contentStyleType="text/css" height="414px" preserveAspectRatio="none" style="width:667px;height:414px;background:#FFFFFF;" version="1.1" viewBox="0 0 667 414" width="667px" zoomAndPan="magnify"><defs/><g><text fill="#000000" font-family="sans-serif" font-size="14" font-weight="bold" lengthAdjust="spacing" textLength="639" x="10" y="29.5332">E Commerce Platform - Deliver - Fulfilment - WMS - Ship Order - Sequence - Container level</text><rect fill="#FFFFFF" height="356.6797" style="stroke:#181818;stroke-width:0.5;" width="299.5" x="305.5" y="44.6094"/><text fill="#000000" font-family="sans-serif" font-size="13" font-weight="bold" lengthAdjust="spacing" textLength="116" x="397.25" y="58.1045">Fulfilment Service</text><rect fill="none" height="141.7578" style="stroke:#000000;stroke-width:1.5;" width="502" x="119" y="175.9219"/><rect fill="none" height="79.0547" style="stroke:#000000;stroke-width:1.5;" width="311.5" x="299.5" y="231.625"/><line style="stroke:#181818;stroke-width:0.5;stroke-dasharray:5.0,5.0;" x1="66" x2="66" y1="128.5703" y2="334.6797"/><line style="stroke:#181818;stroke-width:0.5;stroke-dasharray:5.0,5.0;" x1="152" x2="152" y1="128.5703" y2="334.6797"/><line style="stroke:#181818;stroke-width:0.5;stroke-dasharray:5.0,5.0;" x1="326.5" x2="326.5" y1="128.5703" y2="334.6797"/><line style="stroke:#181818;stroke-width:0.5;stroke-dasharray:5.0,5.0;" x1="469" x2="469" y1="128.5703" y2="334.6797"/><line style="stroke:#181818;stroke-width:0.5;stroke-dasharray:5.0,5.0;" x1="557" x2="557" y1="128.5703" y2="334.6797"/><rect fill="#E2E2F0" height="31.6094" rx="2.5" ry="2.5" style="stroke:#181818;stroke-width:0.5;" width="65" x="34" y="95.9609"/><text fill="#000000" font-family="sans-serif" font-size="14" lengthAdjust="spacing" textLength="51" x="41" y="117.4941">External</text><rect fill="#E2E2F0" height="31.6094" rx="2.5" ry="2.5" style="stroke:#181818;stroke-width:0.5;" width="65" x="34" y="333.6797"/><text fill="#000000" font-family="sans-serif" font-size="14" lengthAdjust="spacing" textLength="51" x="41" y="355.2129">External</text><rect fill="#E2E2F0" height="31.6094" rx="2.5" ry="2.5" style="stroke:#181818;stroke-width:0.5;" width="47" x="129" y="95.9609"/><text fill="#000000" font-family="sans-serif" font-size="14" lengthAdjust="spacing" textLength="33" x="136" y="117.4941">WMS</text><rect fill="#E2E2F0" height="31.6094" rx="2.5" ry="2.5" style="stroke:#181818;stroke-width:0.5;" width="47" x="129" y="333.6797"/><text fill="#000000" font-family="sans-serif" font-size="14" lengthAdjust="spacing" textLength="33" x="136" y="355.2129">WMS</text><rect fill="#E2E2F0" height="31.6094" rx="2.5" ry="2.5" style="stroke:#181818;stroke-width:0.5;" width="34" x="309.5" y="95.9609"/><text fill="#000000" font-family="sans-serif" font-size="14" lengthAdjust="spacing" textLength="20" x="316.5" y="117.4941">Api</text><rect fill="#E2E2F0" height="31.6094" rx="2.5" ry="2.5" style="stroke:#181818;stroke-width:0.5;" width="34" x="309.5" y="333.6797"/><text fill="#000000" font-family="sans-serif" font-size="14" lengthAdjust="spacing" textLength="20" x="316.5" y="355.2129">Api</text><text fill="#000000" font-family="sans-serif" font-size="14" lengthAdjust="spacing" textLength="61" x="436" y="125.4941">Database</text><path d="M451.5,74.9609 C451.5,64.9609 469.5,64.9609 469.5,64.9609 C469.5,64.9609 487.5,64.9609 487.5,74.9609 L487.5,100.9609 C487.5,110.9609 469.5,110.9609 469.5,110.9609 C469.5,110.9609 451.5,110.9609 451.5,100.9609 L451.5,74.9609 " fill="#E2E2F0" style="stroke:#181818;stroke-width:1.5;"/><path d="M451.5,74.9609 C451.5,84.9609 469.5,84.9609 469.5,84.9609 C469.5,84.9609 487.5,84.9609 487.5,74.9609 " fill="none" style="stroke:#181818;stroke-width:1.5;"/><text fill="#000000" font-family="sans-serif" font-size="14" lengthAdjust="spacing" textLength="61" x="436" y="348.2129">Database</text><path d="M451.5,361.2891 C451.5,351.2891 469.5,351.2891 469.5,351.2891 C469.5,351.2891 487.5,351.2891 487.5,361.2891 L487.5,387.2891 C487.5,397.2891 469.5,397.2891 469.5,397.2891 C469.5,397.2891 451.5,397.2891 451.5,387.2891 L451.5,361.2891 " fill="#E2E2F0" style="stroke:#181818;stroke-width:1.5;"/><path d="M451.5,361.2891 C451.5,371.2891 469.5,371.2891 469.5,371.2891 C469.5,371.2891 487.5,371.2891 487.5,361.2891 " fill="none" style="stroke:#181818;stroke-width:1.5;"/><path d="M518,100.9609 L596,100.9609 C601,100.9609 601,114.7656 601,114.7656 C601,114.7656 601,128.5703 596,128.5703 L518,128.5703 C513,128.5703 513,114.7656 513,114.7656 C513,114.7656 513,100.9609 518,100.9609 " fill="#E2E2F0" style="stroke:#181818;stroke-width:0.5;"/><path d="M596,100.9609 C591,100.9609 591,114.7656 591,114.7656 C591,128.5703 596,128.5703 596,128.5703 " fill="none" style="stroke:#181818;stroke-width:0.5;"/><text fill="#000000" font-family="sans-serif" font-size="14" lengthAdjust="spacing" textLength="68" x="518" y="120.4941">Messaging</text><path d="M518,333.6797 L596,333.6797 C601,333.6797 601,347.4844 601,347.4844 C601,347.4844 601,361.2891 596,361.2891 L518,361.2891 C513,361.2891 513,347.4844 513,347.4844 C513,347.4844 513,333.6797 518,333.6797 " fill="#E2E2F0" style="stroke:#181818;stroke-width:0.5;"/><path d="M596,333.6797 C591,333.6797 591,347.4844 591,347.4844 C591,361.2891 596,361.2891 596,361.2891 " fill="none" style="stroke:#181818;stroke-width:0.5;"/><text fill="#000000" font-family="sans-serif" font-size="14" lengthAdjust="spacing" textLength="68" x="518" y="353.2129">Messaging</text><polygon fill="#181818" points="140.5,156.9219,150.5,160.9219,140.5,164.9219,144.5,160.9219" style="stroke:#181818;stroke-width:1.0;"/><line style="stroke:#181818;stroke-width:1.0;" x1="66.5" x2="146.5" y1="160.9219" y2="160.9219"/><text fill="#000000" font-family="sans-serif" font-size="13" lengthAdjust="spacing" textLength="62" x="73.5" y="156.0654">Ship Order</text><path d="M119,175.9219 L233,175.9219 L233,184.2734 L223,194.2734 L119,194.2734 L119,175.9219 " fill="#EEEEEE" style="stroke:#000000;stroke-width:1.5;"/><rect fill="none" height="141.7578" style="stroke:#000000;stroke-width:1.5;" width="502" x="119" y="175.9219"/><text fill="#000000" font-family="sans-serif" font-size="13" font-weight="bold" lengthAdjust="spacing" textLength="69" x="134" y="190.417">Ship Order</text><polygon fill="#181818" points="314.5,212.625,324.5,216.625,314.5,220.625,318.5,216.625" style="stroke:#181818;stroke-width:1.0;"/><line style="stroke:#181818;stroke-width:1.0;" x1="152.5" x2="320.5" y1="216.625" y2="216.625"/><text fill="#000000" font-family="sans-serif" font-size="13" lengthAdjust="spacing" textLength="150" x="159.5" y="211.7686">Post Order Shipped Event</text><path d="M299.5,231.625 L507.5,231.625 L507.5,239.9766 L497.5,249.9766 L299.5,249.9766 L299.5,231.625 " fill="#EEEEEE" style="stroke:#000000;stroke-width:1.5;"/><rect fill="none" height="79.0547" style="stroke:#000000;stroke-width:1.5;" width="311.5" x="299.5" y="231.625"/><text fill="#000000" font-family="sans-serif" font-size="13" font-weight="bold" lengthAdjust="spacing" textLength="163" x="314.5" y="246.1201">Post Order Shipped Event</text><polygon fill="#181818" points="457.5,268.3281,467.5,272.3281,457.5,276.3281,461.5,272.3281" style="stroke:#181818;stroke-width:1.0;"/><line style="stroke:#181818;stroke-width:1.0;" x1="326.5" x2="463.5" y1="272.3281" y2="272.3281"/><text fill="#000000" font-family="sans-serif" font-size="13" lengthAdjust="spacing" textLength="119" x="333.5" y="267.4717">Update Order Status</text><polygon fill="#181818" points="545,298.6797,555,302.6797,545,306.6797,549,302.6797" style="stroke:#181818;stroke-width:1.0;"/><line style="stroke:#181818;stroke-width:1.0;" x1="326.5" x2="551" y1="302.6797" y2="302.6797"/><text fill="#000000" font-family="sans-serif" font-size="13" lengthAdjust="spacing" textLength="153" x="333.5" y="297.8232">Send Order Shipped Event</text><!--SRC=[rLF1ReCm3BtdAonsXjDEEqoQMYhjKAqIcdfEmT188SaIGxk_ds50MstJ9YGEGmB53dxlENuXHHeXXPMjQ_GvmavBAgsl8OOrQjMYvzMcqQNIDHhYOB_D-9iTbOCNN_Jx6RurQBWwPY13KXbEQsnH2-6a9vKh9xauIi-4taWTWGomkdys76wqFIMPBUaaFMRlWR0EoVZZPtmBmWBw-dGKFMfE1iN9HUyNO2uMuc3F45qrbQ5lLOuHtEsFYb00FpUKJqxDfxni3Jp9T4WXOUIUhf0a3p8WHEjXjH3X2D-pyjWQfjnY2B9Ifbg8Sy8NQ0hWqnT2_7tw43_EdZKyN3bLLDusxZen6tQkfD-ym7ftDj1mipgb3Wj8MouOrF-ulOoUHHeTFSZTlZfsFeuDaQGc_ATE9cTtHklC_TraED-_uWC0]--></g></svg>