<?xml version="1.0" encoding="us-ascii" standalone="no"?><svg xmlns="http://www.w3.org/2000/svg" xmlns:xlink="http://www.w3.org/1999/xlink" contentStyleType="text/css" height="414px" preserveAspectRatio="none" style="width:667px;height:414px;background:#FFFFFF;" version="1.1" viewBox="0 0 667 414" width="667px" zoomAndPan="magnify"><defs/><g><text fill="#000000" font-family="sans-serif" font-size="14" font-weight="bold" lengthAdjust="spacing" textLength="639" x="10" y="29.5332">E Commerce Platform - Deliver - Fulfilment - WMS - Ship Order - Sequence - Container level</text><rect fill="#FFFFFF" height="356.6797" style="stroke:#181818;stroke-width:0.5;" width="293.5" x="308.5" y="44.6094"/><text fill="#000000" font-family="sans-serif" font-size="13" font-weight="bold" lengthAdjust="spacing" textLength="116" x="397.25" y="58.1045">Fulfilment Service</text><rect fill="none" height="141.7578" style="stroke:#000000;stroke-width:1.5;" width="496" x="122" y="175.9219"/><rect fill="none" height="79.0547" style="stroke:#000000;stroke-width:1.5;" width="305.5" x="302.5" y="231.625"/><line style="stroke:#181818;stroke-width:0.5;stroke-dasharray:5.0,5.0;" x1="69" x2="69" y1="128.5703" y2="334.6797"/><line style="stroke:#181818;stroke-width:0.5;stroke-dasharray:5.0,5.0;" x1="155" x2="155" y1="128.5703" y2="334.6797"/><line style="stroke:#181818;stroke-width:0.5;stroke-dasharray:5.0,5.0;" x1="329.5" x2="329.5" y1="128.5703" y2="334.6797"/><line style="stroke:#181818;stroke-width:0.5;stroke-dasharray:5.0,5.0;" x1="472" x2="472" y1="128.5703" y2="334.6797"/><line style="stroke:#181818;stroke-width:0.5;stroke-dasharray:5.0,5.0;" x1="557" x2="557" y1="128.5703" y2="334.6797"/><rect fill="#E2E2F0" height="31.6094" rx="2.5" ry="2.5" style="stroke:#181818;stroke-width:0.5;" width="65" x="37" y="95.9609"/><text fill="#000000" font-family="sans-serif" font-size="14" lengthAdjust="spacing" textLength="51" x="44" y="117.4941">External</text><rect fill="#E2E2F0" height="31.6094" rx="2.5" ry="2.5" style="stroke:#181818;stroke-width:0.5;" width="65" x="37" y="333.6797"/><text fill="#000000" font-family="sans-serif" font-size="14" lengthAdjust="spacing" textLength="51" x="44" y="355.2129">External</text><rect fill="#E2E2F0" height="31.6094" rx="2.5" ry="2.5" style="stroke:#181818;stroke-width:0.5;" width="47" x="132" y="95.9609"/><text fill="#000000" font-family="sans-serif" font-size="14" lengthAdjust="spacing" textLength="33" x="139" y="117.4941">WMS</text><rect fill="#E2E2F0" height="31.6094" rx="2.5" ry="2.5" style="stroke:#181818;stroke-width:0.5;" width="47" x="132" y="333.6797"/><text fill="#000000" font-family="sans-serif" font-size="14" lengthAdjust="spacing" textLength="33" x="139" y="355.2129">WMS</text><rect fill="#E2E2F0" height="31.6094" rx="2.5" ry="2.5" style="stroke:#181818;stroke-width:0.5;" width="34" x="312.5" y="95.9609"/><text fill="#000000" font-family="sans-serif" font-size="14" lengthAdjust="spacing" textLength="20" x="319.5" y="117.4941">Api</text><rect fill="#E2E2F0" height="31.6094" rx="2.5" ry="2.5" style="stroke:#181818;stroke-width:0.5;" width="34" x="312.5" y="333.6797"/><text fill="#000000" font-family="sans-serif" font-size="14" lengthAdjust="spacing" textLength="20" x="319.5" y="355.2129">Api</text><text fill="#000000" font-family="sans-serif" font-size="14" lengthAdjust="spacing" textLength="61" x="439" y="125.4941">Database</text><path d="M454.5,74.9609 C454.5,64.9609 472.5,64.9609 472.5,64.9609 C472.5,64.9609 490.5,64.9609 490.5,74.9609 L490.5,100.9609 C490.5,110.9609 472.5,110.9609 472.5,110.9609 C472.5,110.9609 454.5,110.9609 454.5,100.9609 L454.5,74.9609 " fill="#E2E2F0" style="stroke:#181818;stroke-width:1.5;"/><path d="M454.5,74.9609 C454.5,84.9609 472.5,84.9609 472.5,84.9609 C472.5,84.9609 490.5,84.9609 490.5,74.9609 " fill="none" style="stroke:#181818;stroke-width:1.5;"/><text fill="#000000" font-family="sans-serif" font-size="14" lengthAdjust="spacing" textLength="61" x="439" y="348.2129">Database</text><path d="M454.5,361.2891 C454.5,351.2891 472.5,351.2891 472.5,351.2891 C472.5,351.2891 490.5,351.2891 490.5,361.2891 L490.5,387.2891 C490.5,397.2891 472.5,397.2891 472.5,397.2891 C472.5,397.2891 454.5,397.2891 454.5,387.2891 L454.5,361.2891 " fill="#E2E2F0" style="stroke:#181818;stroke-width:1.5;"/><path d="M454.5,361.2891 C454.5,371.2891 472.5,371.2891 472.5,371.2891 C472.5,371.2891 490.5,371.2891 490.5,361.2891 " fill="none" style="stroke:#181818;stroke-width:1.5;"/><rect fill="#E2E2F0" height="31.6094" rx="2.5" ry="2.5" style="stroke:#181818;stroke-width:0.5;" width="82" x="516" y="95.9609"/><text fill="#000000" font-family="sans-serif" font-size="14" lengthAdjust="spacing" textLength="68" x="523" y="117.4941">Messaging</text><rect fill="#E2E2F0" height="31.6094" rx="2.5" ry="2.5" style="stroke:#181818;stroke-width:0.5;" width="82" x="516" y="333.6797"/><text fill="#000000" font-family="sans-serif" font-size="14" lengthAdjust="spacing" textLength="68" x="523" y="355.2129">Messaging</text><polygon fill="#181818" points="143.5,156.9219,153.5,160.9219,143.5,164.9219,147.5,160.9219" style="stroke:#181818;stroke-width:1.0;"/><line style="stroke:#181818;stroke-width:1.0;" x1="69.5" x2="149.5" y1="160.9219" y2="160.9219"/><text fill="#000000" font-family="sans-serif" font-size="13" lengthAdjust="spacing" textLength="62" x="76.5" y="156.0654">Ship Order</text><path d="M122,175.9219 L236,175.9219 L236,184.2734 L226,194.2734 L122,194.2734 L122,175.9219 " fill="#EEEEEE" style="stroke:#000000;stroke-width:1.5;"/><rect fill="none" height="141.7578" style="stroke:#000000;stroke-width:1.5;" width="496" x="122" y="175.9219"/><text fill="#000000" font-family="sans-serif" font-size="13" font-weight="bold" lengthAdjust="spacing" textLength="69" x="137" y="190.417">Ship Order</text><polygon fill="#181818" points="317.5,212.625,327.5,216.625,317.5,220.625,321.5,216.625" style="stroke:#181818;stroke-width:1.0;"/><line style="stroke:#181818;stroke-width:1.0;" x1="155.5" x2="323.5" y1="216.625" y2="216.625"/><text fill="#000000" font-family="sans-serif" font-size="13" lengthAdjust="spacing" textLength="150" x="162.5" y="211.7686">Post Order Shipped Event</text><path d="M302.5,231.625 L510.5,231.625 L510.5,239.9766 L500.5,249.9766 L302.5,249.9766 L302.5,231.625 " fill="#EEEEEE" style="stroke:#000000;stroke-width:1.5;"/><rect fill="none" height="79.0547" style="stroke:#000000;stroke-width:1.5;" width="305.5" x="302.5" y="231.625"/><text fill="#000000" font-family="sans-serif" font-size="13" font-weight="bold" lengthAdjust="spacing" textLength="163" x="317.5" y="246.1201">Post Order Shipped Event</text><polygon fill="#181818" points="460.5,268.3281,470.5,272.3281,460.5,276.3281,464.5,272.3281" style="stroke:#181818;stroke-width:1.0;"/><line style="stroke:#181818;stroke-width:1.0;" x1="329.5" x2="466.5" y1="272.3281" y2="272.3281"/><text fill="#000000" font-family="sans-serif" font-size="13" lengthAdjust="spacing" textLength="119" x="336.5" y="267.4717">Update Order Status</text><polygon fill="#181818" points="545,298.6797,555,302.6797,545,306.6797,549,302.6797" style="stroke:#181818;stroke-width:1.0;"/><line style="stroke:#181818;stroke-width:1.0;" x1="329.5" x2="551" y1="302.6797" y2="302.6797"/><text fill="#000000" font-family="sans-serif" font-size="13" lengthAdjust="spacing" textLength="153" x="336.5" y="297.8232">Send Order Shipped Event</text><!--SRC=[rLF1QeD04BtlLmpshAUUUYYKn40F8G4fEM_YQ1RMtUtkQDA_xsZL9AIbHV1GGTcPSTvxupn9aKP8OM6h2lq1OQib5TPN4CCIjMhGysbLwqBf2Wrni5jd_CoEoi76vrqzm_SQ3NV736H8AiDfZGrg8Ppqf0xAIMwEqZEXDr9780Ci7byDXojjJqbc2pf9Zzb78An2Chpu5T-2i82kFnr43vgJNd5oqNi7pCr2xEqPegkXClIDEc043xkZ8XJ0rmtbYrFJAI-bdYSPFr986BcZooN9lGm8qR8_pKGumDyFkSOGPAbCEHFpY2_GvC0x44BytGCGFq_UE3nT-LMKtjRkEZ4PTggatnp1UhSsKFz_jKeTvf0stD2h_x4yZvvP1XsSoDE-EVO_3WEHf3hyfqb6PxT6QytztMOutztY4m00]--></g></svg>