<?xml version="1.0" encoding="us-ascii" standalone="no"?><svg xmlns="http://www.w3.org/2000/svg" xmlns:xlink="http://www.w3.org/1999/xlink" contentStyleType="text/css" height="414px" preserveAspectRatio="none" style="width:673px;height:414px;background:#FFFFFF;" version="1.1" viewBox="0 0 673 414" width="673px" zoomAndPan="magnify"><defs/><g><text fill="#000000" font-family="sans-serif" font-size="14" font-weight="bold" lengthAdjust="spacing" textLength="645" x="10" y="29.5332">BigBankPlc - Internet Banking - Mobile App - Change Password - Sequence - Container level</text><rect fill="#FFFFFF" height="356.6797" style="stroke:#181818;stroke-width:0.5;" width="369.5" x="125.5" y="44.6094"/><text fill="#000000" font-family="sans-serif" font-size="13" font-weight="bold" lengthAdjust="spacing" textLength="105" x="257.75" y="58.1045">Internet Banking</text><rect fill="none" height="141.7578" style="stroke:#000000;stroke-width:1.5;" width="531.5" x="119.5" y="175.9219"/><rect fill="none" height="79.0547" style="stroke:#000000;stroke-width:1.5;" width="404.5" x="236.5" y="231.625"/><line style="stroke:#181818;stroke-width:0.5;stroke-dasharray:5.0,5.0;" x1="42" x2="42" y1="128.5703" y2="334.6797"/><line style="stroke:#181818;stroke-width:0.5;stroke-dasharray:5.0,5.0;" x1="171.5" x2="171.5" y1="128.5703" y2="334.6797"/><line style="stroke:#181818;stroke-width:0.5;stroke-dasharray:5.0,5.0;" x1="300.5" x2="300.5" y1="128.5703" y2="334.6797"/><line style="stroke:#181818;stroke-width:0.5;stroke-dasharray:5.0,5.0;" x1="457" x2="457" y1="128.5703" y2="334.6797"/><line style="stroke:#181818;stroke-width:0.5;stroke-dasharray:5.0,5.0;" x1="579" x2="579" y1="128.5703" y2="334.6797"/><rect fill="#E2E2F0" height="31.6094" rx="2.5" ry="2.5" style="stroke:#181818;stroke-width:0.5;" width="65" x="10" y="95.9609"/><text fill="#000000" font-family="sans-serif" font-size="14" lengthAdjust="spacing" textLength="51" x="17" y="117.4941">External</text><rect fill="#E2E2F0" height="31.6094" rx="2.5" ry="2.5" style="stroke:#181818;stroke-width:0.5;" width="65" x="10" y="333.6797"/><text fill="#000000" font-family="sans-serif" font-size="14" lengthAdjust="spacing" textLength="51" x="17" y="355.2129">External</text><rect fill="#E2E2F0" height="31.6094" rx="2.5" ry="2.5" style="stroke:#181818;stroke-width:0.5;" width="84" x="129.5" y="95.9609"/><text fill="#000000" font-family="sans-serif" font-size="14" lengthAdjust="spacing" textLength="70" x="136.5" y="117.4941">Mobile App</text><rect fill="#E2E2F0" height="31.6094" rx="2.5" ry="2.5" style="stroke:#181818;stroke-width:0.5;" width="84" x="129.5" y="333.6797"/><text fill="#000000" font-family="sans-serif" font-size="14" lengthAdjust="spacing" textLength="70" x="136.5" y="355.2129">Mobile App</text><rect fill="#E2E2F0" height="31.6094" rx="2.5" ry="2.5" style="stroke:#181818;stroke-width:0.5;" width="108" x="246.5" y="95.9609"/><text fill="#000000" font-family="sans-serif" font-size="14" lengthAdjust="spacing" textLength="94" x="253.5" y="117.4941">API Application</text><rect fill="#E2E2F0" height="31.6094" rx="2.5" ry="2.5" style="stroke:#181818;stroke-width:0.5;" width="108" x="246.5" y="333.6797"/><text fill="#000000" font-family="sans-serif" font-size="14" lengthAdjust="spacing" textLength="94" x="253.5" y="355.2129">API Application</text><text fill="#000000" font-family="sans-serif" font-size="14" lengthAdjust="spacing" textLength="61" x="424" y="125.4941">Database</text><path d="M439.5,74.9609 C439.5,64.9609 457.5,64.9609 457.5,64.9609 C457.5,64.9609 475.5,64.9609 475.5,74.9609 L475.5,100.9609 C475.5,110.9609 457.5,110.9609 457.5,110.9609 C457.5,110.9609 439.5,110.9609 439.5,100.9609 L439.5,74.9609 " fill="#E2E2F0" style="stroke:#181818;stroke-width:1.5;"/><path d="M439.5,74.9609 C439.5,84.9609 457.5,84.9609 457.5,84.9609 C457.5,84.9609 475.5,84.9609 475.5,74.9609 " fill="none" style="stroke:#181818;stroke-width:1.5;"/><text fill="#000000" font-family="sans-serif" font-size="14" lengthAdjust="spacing" textLength="61" x="424" y="348.2129">Database</text><path d="M439.5,361.2891 C439.5,351.2891 457.5,351.2891 457.5,351.2891 C457.5,351.2891 475.5,351.2891 475.5,361.2891 L475.5,387.2891 C475.5,397.2891 457.5,397.2891 457.5,397.2891 C457.5,397.2891 439.5,397.2891 439.5,387.2891 L439.5,361.2891 " fill="#E2E2F0" style="stroke:#181818;stroke-width:1.5;"/><path d="M439.5,361.2891 C439.5,371.2891 457.5,371.2891 457.5,371.2891 C457.5,371.2891 475.5,371.2891 475.5,361.2891 " fill="none" style="stroke:#181818;stroke-width:1.5;"/><rect fill="#E2E2F0" height="31.6094" rx="2.5" ry="2.5" style="stroke:#181818;stroke-width:0.5;" width="103" x="528" y="95.9609"/><text fill="#000000" font-family="sans-serif" font-size="14" lengthAdjust="spacing" textLength="89" x="535" y="117.4941">E-Mail System</text><rect fill="#E2E2F0" height="31.6094" rx="2.5" ry="2.5" style="stroke:#181818;stroke-width:0.5;" width="103" x="528" y="333.6797"/><text fill="#000000" font-family="sans-serif" font-size="14" lengthAdjust="spacing" textLength="89" x="535" y="355.2129">E-Mail System</text><polygon fill="#181818" points="159.5,156.9219,169.5,160.9219,159.5,164.9219,163.5,160.9219" style="stroke:#181818;stroke-width:1.0;"/><line style="stroke:#181818;stroke-width:1.0;" x1="42.5" x2="165.5" y1="160.9219" y2="160.9219"/><text fill="#000000" font-family="sans-serif" font-size="13" lengthAdjust="spacing" textLength="105" x="49.5" y="156.0654">Change Password</text><path d="M119.5,175.9219 L278.5,175.9219 L278.5,184.2734 L268.5,194.2734 L119.5,194.2734 L119.5,175.9219 " fill="#EEEEEE" style="stroke:#000000;stroke-width:1.5;"/><rect fill="none" height="141.7578" style="stroke:#000000;stroke-width:1.5;" width="531.5" x="119.5" y="175.9219"/><text fill="#000000" font-family="sans-serif" font-size="13" font-weight="bold" lengthAdjust="spacing" textLength="114" x="134.5" y="190.417">Change Password</text><polygon fill="#181818" points="288.5,212.625,298.5,216.625,288.5,220.625,292.5,216.625" style="stroke:#181818;stroke-width:1.0;"/><line style="stroke:#181818;stroke-width:1.0;" x1="171.5" x2="294.5" y1="216.625" y2="216.625"/><text fill="#000000" font-family="sans-serif" font-size="13" lengthAdjust="spacing" textLength="105" x="178.5" y="211.7686">Change Password</text><path d="M236.5,231.625 L395.5,231.625 L395.5,239.9766 L385.5,249.9766 L236.5,249.9766 L236.5,231.625 " fill="#EEEEEE" style="stroke:#000000;stroke-width:1.5;"/><rect fill="none" height="79.0547" style="stroke:#000000;stroke-width:1.5;" width="404.5" x="236.5" y="231.625"/><text fill="#000000" font-family="sans-serif" font-size="13" font-weight="bold" lengthAdjust="spacing" textLength="114" x="251.5" y="246.1201">Change Password</text><polygon fill="#181818" points="445.5,268.3281,455.5,272.3281,445.5,276.3281,449.5,272.3281" style="stroke:#181818;stroke-width:1.0;"/><line style="stroke:#181818;stroke-width:1.0;" x1="300.5" x2="451.5" y1="272.3281" y2="272.3281"/><text fill="#000000" font-family="sans-serif" font-size="13" lengthAdjust="spacing" textLength="133" x="307.5" y="267.4717">Update User Password</text><polygon fill="#181818" points="567.5,298.6797,577.5,302.6797,567.5,306.6797,571.5,302.6797" style="stroke:#181818;stroke-width:1.0;"/><line style="stroke:#181818;stroke-width:1.0;" x1="300.5" x2="573.5" y1="302.6797" y2="302.6797"/><text fill="#000000" font-family="sans-serif" font-size="13" lengthAdjust="spacing" textLength="255" x="307.5" y="297.8232">Send Password Changed Notification E-Mail</text><!--SRC=[lPG_RuCm4CLtVueJdM7grA5IagPIXbH8AEfym8LOTMrgNqhwxMj3o1yOMWMrI4ZuEFtUm_SmIrO4SrdDKR-bge0OLfh9Qc889QahNrgRNFgsMLtxnMA7kY98qRd6sD9NClhOaouel3IQKMgoeEYJb10rMfQ5h54pHCj3GAEA01qixbkbPsMQ93DRRj1IzkMOtbtIDtPh8N9pW6XeB8Axrvra4k2lAvsptrRf_7aZePvvH2Od_oxf89unvi_ILO0hMI1BeoU8UD85g5KgaJ57Hn0z7Pycy7k485s2tyNXGE8rIWKTw2UPPUZj9_BxwK7yE7K2y31CdQYisTUZwbITcwrUp_6F_Gx4RZRTXyFRtTG-TWGRv__S_tHtaIdl8WifFHqitMQLy69ORdjSbzWGv_OMtm00]--></g></svg>