<?xml version="1.0" encoding="us-ascii" standalone="no"?><svg xmlns="http://www.w3.org/2000/svg" xmlns:xlink="http://www.w3.org/1999/xlink" contentStyleType="text/css" height="571px" preserveAspectRatio="none" style="width:598px;height:571px;background:#FFFFFF;" version="1.1" viewBox="0 0 598 571" width="598px" zoomAndPan="magnify"><defs/><g><text fill="#000000" font-family="sans-serif" font-size="14" font-weight="bold" lengthAdjust="spacing" textLength="570" x="10" y="29.5332">Trader X Example - TraderX - Trade Processor - Start - Sequence - Container level</text><rect fill="#FFFFFF" height="513.4922" style="stroke:#181818;stroke-width:0.5;" width="384.5" x="133.25" y="44.6094"/><text fill="#000000" font-family="sans-serif" font-size="13" font-weight="bold" lengthAdjust="spacing" textLength="51" x="300" y="58.1045">TraderX</text><rect fill="none" height="298.5703" style="stroke:#000000;stroke-width:1.5;" width="396.5" x="127.25" y="175.9219"/><line style="stroke:#181818;stroke-width:0.5;stroke-dasharray:5.0,5.0;" x1="94.25" x2="94.25" y1="128.5703" y2="491.4922"/><line style="stroke:#181818;stroke-width:0.5;stroke-dasharray:5.0,5.0;" x1="197.25" x2="197.25" y1="128.5703" y2="491.4922"/><line style="stroke:#181818;stroke-width:0.5;stroke-dasharray:5.0,5.0;" x1="378.75" x2="378.75" y1="128.5703" y2="491.4922"/><line style="stroke:#181818;stroke-width:0.5;stroke-dasharray:5.0,5.0;" x1="473.75" x2="473.75" y1="128.5703" y2="491.4922"/><rect fill="#E2E2F0" height="31.6094" rx="2.5" ry="2.5" style="stroke:#181818;stroke-width:0.5;" width="65" x="62.25" y="95.9609"/><text fill="#000000" font-family="sans-serif" font-size="14" lengthAdjust="spacing" textLength="51" x="69.25" y="117.4941">External</text><rect fill="#E2E2F0" height="31.6094" rx="2.5" ry="2.5" style="stroke:#181818;stroke-width:0.5;" width="65" x="62.25" y="490.4922"/><text fill="#000000" font-family="sans-serif" font-size="14" lengthAdjust="spacing" textLength="51" x="69.25" y="512.0254">External</text><rect fill="#E2E2F0" height="31.6094" rx="2.5" ry="2.5" style="stroke:#181818;stroke-width:0.5;" width="120" x="137.25" y="95.9609"/><text fill="#000000" font-family="sans-serif" font-size="14" lengthAdjust="spacing" textLength="106" x="144.25" y="117.4941">Trade Processor</text><rect fill="#E2E2F0" height="31.6094" rx="2.5" ry="2.5" style="stroke:#181818;stroke-width:0.5;" width="120" x="137.25" y="490.4922"/><text fill="#000000" font-family="sans-serif" font-size="14" lengthAdjust="spacing" textLength="106" x="144.25" y="512.0254">Trade Processor</text><rect fill="#E2E2F0" height="31.6094" rx="2.5" ry="2.5" style="stroke:#181818;stroke-width:0.5;" width="89" x="334.75" y="95.9609"/><text fill="#000000" font-family="sans-serif" font-size="14" lengthAdjust="spacing" textLength="75" x="341.75" y="117.4941">Trade Feed</text><rect fill="#E2E2F0" height="31.6094" rx="2.5" ry="2.5" style="stroke:#181818;stroke-width:0.5;" width="89" x="334.75" y="490.4922"/><text fill="#000000" font-family="sans-serif" font-size="14" lengthAdjust="spacing" textLength="75" x="341.75" y="512.0254">Trade Feed</text><text fill="#000000" font-family="sans-serif" font-size="14" lengthAdjust="spacing" textLength="74" x="433.75" y="125.4941">TraderX DB</text><path d="M455.75,74.9609 C455.75,64.9609 473.75,64.9609 473.75,64.9609 C473.75,64.9609 491.75,64.9609 491.75,74.9609 L491.75,100.9609 C491.75,110.9609 473.75,110.9609 473.75,110.9609 C473.75,110.9609 455.75,110.9609 455.75,100.9609 L455.75,74.9609 " fill="#E2E2F0" style="stroke:#181818;stroke-width:1.5;"/><path d="M455.75,74.9609 C455.75,84.9609 473.75,84.9609 473.75,84.9609 C473.75,84.9609 491.75,84.9609 491.75,74.9609 " fill="none" style="stroke:#181818;stroke-width:1.5;"/><text fill="#000000" font-family="sans-serif" font-size="14" lengthAdjust="spacing" textLength="74" x="433.75" y="505.0254">TraderX DB</text><path d="M455.75,518.1016 C455.75,508.1016 473.75,508.1016 473.75,508.1016 C473.75,508.1016 491.75,508.1016 491.75,518.1016 L491.75,544.1016 C491.75,554.1016 473.75,554.1016 473.75,554.1016 C473.75,554.1016 455.75,554.1016 455.75,544.1016 L455.75,518.1016 " fill="#E2E2F0" style="stroke:#181818;stroke-width:1.5;"/><path d="M455.75,518.1016 C455.75,528.1016 473.75,528.1016 473.75,528.1016 C473.75,528.1016 491.75,528.1016 491.75,518.1016 " fill="none" style="stroke:#181818;stroke-width:1.5;"/><polygon fill="#181818" points="185.25,156.9219,195.25,160.9219,185.25,164.9219,189.25,160.9219" style="stroke:#181818;stroke-width:1.0;"/><line style="stroke:#181818;stroke-width:1.0;" x1="94.75" x2="191.25" y1="160.9219" y2="160.9219"/><text fill="#000000" font-family="sans-serif" font-size="13" lengthAdjust="spacing" textLength="28" x="101.75" y="156.0654">Start</text><path d="M127.25,175.9219 L202.25,175.9219 L202.25,184.2734 L192.25,194.2734 L127.25,194.2734 L127.25,175.9219 " fill="#EEEEEE" style="stroke:#000000;stroke-width:1.5;"/><rect fill="none" height="298.5703" style="stroke:#000000;stroke-width:1.5;" width="396.5" x="127.25" y="175.9219"/><text fill="#000000" font-family="sans-serif" font-size="13" font-weight="bold" lengthAdjust="spacing" textLength="30" x="142.25" y="190.417">Start</text><polygon fill="#181818" points="367.25,228.9766,377.25,232.9766,367.25,236.9766,371.25,232.9766" style="stroke:#181818;stroke-width:1.0;"/><line style="stroke:#181818;stroke-width:1.0;" x1="197.25" x2="373.25" y1="232.9766" y2="232.9766"/><text fill="#000000" font-family="sans-serif" font-size="13" lengthAdjust="spacing" textLength="133" x="204.25" y="211.7686">Receive Trade Request</text><text fill="#000000" font-family="sans-serif" font-size="13" lengthAdjust="spacing" textLength="62" x="204.25" y="228.1201">[SocketIO]</text><polygon fill="#181818" points="461.75,275.6797,471.75,279.6797,461.75,283.6797,465.75,279.6797" style="stroke:#181818;stroke-width:1.0;"/><line style="stroke:#181818;stroke-width:1.0;" x1="197.25" x2="467.75" y1="279.6797" y2="279.6797"/><text fill="#000000" font-family="sans-serif" font-size="13" lengthAdjust="spacing" textLength="141" x="204.25" y="258.4717">Select Current Positions</text><text fill="#000000" font-family="sans-serif" font-size="13" lengthAdjust="spacing" textLength="41" x="204.25" y="274.8232">[JDBC]</text><polygon fill="#181818" points="461.75,322.3828,471.75,326.3828,461.75,330.3828,465.75,326.3828" style="stroke:#181818;stroke-width:1.0;"/><line style="stroke:#181818;stroke-width:1.0;" x1="197.25" x2="467.75" y1="326.3828" y2="326.3828"/><text fill="#000000" font-family="sans-serif" font-size="13" lengthAdjust="spacing" textLength="99" x="204.25" y="305.1748">Save Trade State</text><text fill="#000000" font-family="sans-serif" font-size="13" lengthAdjust="spacing" textLength="41" x="204.25" y="321.5264">[JDBC]</text><polygon fill="#181818" points="461.75,369.0859,471.75,373.0859,461.75,377.0859,465.75,373.0859" style="stroke:#181818;stroke-width:1.0;"/><line style="stroke:#181818;stroke-width:1.0;" x1="197.25" x2="467.75" y1="373.0859" y2="373.0859"/><text fill="#000000" font-family="sans-serif" font-size="13" lengthAdjust="spacing" textLength="114" x="204.25" y="351.8779">Save Position State</text><text fill="#000000" font-family="sans-serif" font-size="13" lengthAdjust="spacing" textLength="41" x="204.25" y="368.2295">[JDBC]</text><polygon fill="#181818" points="367.25,415.7891,377.25,419.7891,367.25,423.7891,371.25,419.7891" style="stroke:#181818;stroke-width:1.0;"/><line style="stroke:#181818;stroke-width:1.0;" x1="197.25" x2="373.25" y1="419.7891" y2="419.7891"/><text fill="#000000" font-family="sans-serif" font-size="13" lengthAdjust="spacing" textLength="143" x="204.25" y="398.5811">Send Updates To Trades</text><text fill="#000000" font-family="sans-serif" font-size="13" lengthAdjust="spacing" textLength="62" x="204.25" y="414.9326">[SocketIO]</text><polygon fill="#181818" points="367.25,462.4922,377.25,466.4922,367.25,470.4922,371.25,466.4922" style="stroke:#181818;stroke-width:1.0;"/><line style="stroke:#181818;stroke-width:1.0;" x1="197.25" x2="373.25" y1="466.4922" y2="466.4922"/><text fill="#000000" font-family="sans-serif" font-size="13" lengthAdjust="spacing" textLength="158" x="204.25" y="445.2842">Send Updates To Positions</text><text fill="#000000" font-family="sans-serif" font-size="13" lengthAdjust="spacing" textLength="62" x="204.25" y="461.6357">[SocketIO]</text><!--SRC=[pLCzJyCm4DtzAqvXRYOc1eOahLGMAW8Y4Z2uoG4MgHtiIrl-FUV62L-gXCX0ijXtERzxVdv7Ycg4Qoihj530V2yt3ITc8LNqErXPKw9pnd8c9sd9h_ZQeYvzUMeqIQKPfCOjra8qNA9ArKXD4CttX5RBEWBf83rTQWuNjTd5kNcadRIOlpd2ZOlxmYuMOcts40Kg4PpSFYj20VnzWV_6yD0b70eN-j4e_8u7tY4rW1phia2inZJmvm_ObIIvbWw7-q6MZ06sHPO8r1MmPaA8twiCi_FHQi5PPmhnP4tRXFreqByJyoepfoiiKMs3lpbYkpgwrtUvAL-GbfSF_ydHFvZN3Mii2TBMMcIRhOnJf8nsJFCYIz99K9I3XlooX5EZrcis7NR1VxcVnvk6Hnrvhas7vgPYm2CaFplmWoSN2V4E]--></g></svg>