<?xml version="1.0" encoding="us-ascii" standalone="no"?><svg xmlns="http://www.w3.org/2000/svg" xmlns:xlink="http://www.w3.org/1999/xlink" contentStyleType="text/css" height="472px" preserveAspectRatio="none" style="width:598px;height:472px;background:#FFFFFF;" version="1.1" viewBox="0 0 598 472" width="598px" zoomAndPan="magnify"><defs/><g><text fill="#000000" font-family="sans-serif" font-size="14" font-weight="bold" lengthAdjust="spacing" textLength="570" x="10" y="29.5332">Trader X Example - TraderX - Trade Processor - Start - Sequence - Container level</text><rect fill="#FFFFFF" height="415.3828" style="stroke:#181818;stroke-width:0.5;" width="384.5" x="133.25" y="44.6094"/><text fill="#000000" font-family="sans-serif" font-size="13" font-weight="bold" lengthAdjust="spacing" textLength="51" x="300" y="58.1045">TraderX</text><rect fill="none" height="200.4609" style="stroke:#000000;stroke-width:1.5;" width="396.5" x="127.25" y="175.9219"/><line style="stroke:#181818;stroke-width:0.5;stroke-dasharray:5.0,5.0;" x1="94.25" x2="94.25" y1="128.5703" y2="393.3828"/><line style="stroke:#181818;stroke-width:0.5;stroke-dasharray:5.0,5.0;" x1="197.25" x2="197.25" y1="128.5703" y2="393.3828"/><line style="stroke:#181818;stroke-width:0.5;stroke-dasharray:5.0,5.0;" x1="378.75" x2="378.75" y1="128.5703" y2="393.3828"/><line style="stroke:#181818;stroke-width:0.5;stroke-dasharray:5.0,5.0;" x1="473.75" x2="473.75" y1="128.5703" y2="393.3828"/><rect fill="#E2E2F0" height="31.6094" rx="2.5" ry="2.5" style="stroke:#181818;stroke-width:0.5;" width="65" x="62.25" y="95.9609"/><text fill="#000000" font-family="sans-serif" font-size="14" lengthAdjust="spacing" textLength="51" x="69.25" y="117.4941">External</text><rect fill="#E2E2F0" height="31.6094" rx="2.5" ry="2.5" style="stroke:#181818;stroke-width:0.5;" width="65" x="62.25" y="392.3828"/><text fill="#000000" font-family="sans-serif" font-size="14" lengthAdjust="spacing" textLength="51" x="69.25" y="413.916">External</text><rect fill="#E2E2F0" height="31.6094" rx="2.5" ry="2.5" style="stroke:#181818;stroke-width:0.5;" width="120" x="137.25" y="95.9609"/><text fill="#000000" font-family="sans-serif" font-size="14" lengthAdjust="spacing" textLength="106" x="144.25" y="117.4941">Trade Processor</text><rect fill="#E2E2F0" height="31.6094" rx="2.5" ry="2.5" style="stroke:#181818;stroke-width:0.5;" width="120" x="137.25" y="392.3828"/><text fill="#000000" font-family="sans-serif" font-size="14" lengthAdjust="spacing" textLength="106" x="144.25" y="413.916">Trade Processor</text><rect fill="#E2E2F0" height="31.6094" rx="2.5" ry="2.5" style="stroke:#181818;stroke-width:0.5;" width="89" x="334.75" y="95.9609"/><text fill="#000000" font-family="sans-serif" font-size="14" lengthAdjust="spacing" textLength="75" x="341.75" y="117.4941">Trade Feed</text><rect fill="#E2E2F0" height="31.6094" rx="2.5" ry="2.5" style="stroke:#181818;stroke-width:0.5;" width="89" x="334.75" y="392.3828"/><text fill="#000000" font-family="sans-serif" font-size="14" lengthAdjust="spacing" textLength="75" x="341.75" y="413.916">Trade Feed</text><text fill="#000000" font-family="sans-serif" font-size="14" lengthAdjust="spacing" textLength="74" x="433.75" y="125.4941">TraderX DB</text><path d="M455.75,74.9609 C455.75,64.9609 473.75,64.9609 473.75,64.9609 C473.75,64.9609 491.75,64.9609 491.75,74.9609 L491.75,100.9609 C491.75,110.9609 473.75,110.9609 473.75,110.9609 C473.75,110.9609 455.75,110.9609 455.75,100.9609 L455.75,74.9609 " fill="#E2E2F0" style="stroke:#181818;stroke-width:1.5;"/><path d="M455.75,74.9609 C455.75,84.9609 473.75,84.9609 473.75,84.9609 C473.75,84.9609 491.75,84.9609 491.75,74.9609 " fill="none" style="stroke:#181818;stroke-width:1.5;"/><text fill="#000000" font-family="sans-serif" font-size="14" lengthAdjust="spacing" textLength="74" x="433.75" y="406.916">TraderX DB</text><path d="M455.75,419.9922 C455.75,409.9922 473.75,409.9922 473.75,409.9922 C473.75,409.9922 491.75,409.9922 491.75,419.9922 L491.75,445.9922 C491.75,455.9922 473.75,455.9922 473.75,455.9922 C473.75,455.9922 455.75,455.9922 455.75,445.9922 L455.75,419.9922 " fill="#E2E2F0" style="stroke:#181818;stroke-width:1.5;"/><path d="M455.75,419.9922 C455.75,429.9922 473.75,429.9922 473.75,429.9922 C473.75,429.9922 491.75,429.9922 491.75,419.9922 " fill="none" style="stroke:#181818;stroke-width:1.5;"/><polygon fill="#181818" points="185.25,156.9219,195.25,160.9219,185.25,164.9219,189.25,160.9219" style="stroke:#181818;stroke-width:1.0;"/><line style="stroke:#181818;stroke-width:1.0;" x1="94.75" x2="191.25" y1="160.9219" y2="160.9219"/><text fill="#000000" font-family="sans-serif" font-size="13" lengthAdjust="spacing" textLength="28" x="101.75" y="156.0654">Start</text><path d="M127.25,175.9219 L202.25,175.9219 L202.25,184.2734 L192.25,194.2734 L127.25,194.2734 L127.25,175.9219 " fill="#EEEEEE" style="stroke:#000000;stroke-width:1.5;"/><rect fill="none" height="200.4609" style="stroke:#000000;stroke-width:1.5;" width="396.5" x="127.25" y="175.9219"/><text fill="#000000" font-family="sans-serif" font-size="13" font-weight="bold" lengthAdjust="spacing" textLength="30" x="142.25" y="190.417">Start</text><polygon fill="#181818" points="367.25,212.625,377.25,216.625,367.25,220.625,371.25,216.625" style="stroke:#181818;stroke-width:1.0;"/><line style="stroke:#181818;stroke-width:1.0;" x1="197.25" x2="373.25" y1="216.625" y2="216.625"/><text fill="#000000" font-family="sans-serif" font-size="13" lengthAdjust="spacing" textLength="133" x="204.25" y="211.7686">Receive Trade Request</text><polygon fill="#181818" points="461.75,242.9766,471.75,246.9766,461.75,250.9766,465.75,246.9766" style="stroke:#181818;stroke-width:1.0;"/><line style="stroke:#181818;stroke-width:1.0;" x1="197.25" x2="467.75" y1="246.9766" y2="246.9766"/><text fill="#000000" font-family="sans-serif" font-size="13" lengthAdjust="spacing" textLength="141" x="204.25" y="242.1201">Select Current Positions</text><polygon fill="#181818" points="461.75,273.3281,471.75,277.3281,461.75,281.3281,465.75,277.3281" style="stroke:#181818;stroke-width:1.0;"/><line style="stroke:#181818;stroke-width:1.0;" x1="197.25" x2="467.75" y1="277.3281" y2="277.3281"/><text fill="#000000" font-family="sans-serif" font-size="13" lengthAdjust="spacing" textLength="99" x="204.25" y="272.4717">Save Trade State</text><polygon fill="#181818" points="461.75,303.6797,471.75,307.6797,461.75,311.6797,465.75,307.6797" style="stroke:#181818;stroke-width:1.0;"/><line style="stroke:#181818;stroke-width:1.0;" x1="197.25" x2="467.75" y1="307.6797" y2="307.6797"/><text fill="#000000" font-family="sans-serif" font-size="13" lengthAdjust="spacing" textLength="114" x="204.25" y="302.8232">Save Position State</text><polygon fill="#181818" points="367.25,334.0313,377.25,338.0313,367.25,342.0313,371.25,338.0313" style="stroke:#181818;stroke-width:1.0;"/><line style="stroke:#181818;stroke-width:1.0;" x1="197.25" x2="373.25" y1="338.0313" y2="338.0313"/><text fill="#000000" font-family="sans-serif" font-size="13" lengthAdjust="spacing" textLength="143" x="204.25" y="333.1748">Send Updates To Trades</text><polygon fill="#181818" points="367.25,364.3828,377.25,368.3828,367.25,372.3828,371.25,368.3828" style="stroke:#181818;stroke-width:1.0;"/><line style="stroke:#181818;stroke-width:1.0;" x1="197.25" x2="373.25" y1="368.3828" y2="368.3828"/><text fill="#000000" font-family="sans-serif" font-size="13" lengthAdjust="spacing" textLength="158" x="204.25" y="363.5264">Send Updates To Positions</text><!--SRC=[pLEnJiCm4DtlAqvXRYOc1eQchSHM4H1PtUG0IwuTx4iR_fvpumG1Ga9aQBF4Tpw_Utv-nveDuODN3NciSDshVIk9HKfLumgttjKKWlEIALbvZdzwwyZMiRnmbfMs0cBeG0QWbH9TwrPPncpTCtchJ8OgO75zPoNS67VCI_VCH-MfV0zC-v2FXKCCi7CzPebAXbTFhve9KBulyDyOdhgaG-b2FngbxNpYdL8Jo6zTDaJDd0Rn_0cxKQnsAj1qFrmjvm3xQhK4iWsAPW3mTvLnSJjRBRmPJ04ltdLjMiy6_J-ngB9mkgUQz27vMoAnQpWhh_X8KIioL3CMdVSarjgwe5ax6ow1cfhqabUKQRiGIgD6vsULl5N6MNjiPOn9PjODQE42YNswIpO0FW00]--></g></svg>