<?xml version="1.0" encoding="us-ascii" standalone="no"?><svg xmlns="http://www.w3.org/2000/svg" xmlns:xlink="http://www.w3.org/1999/xlink" contentStyleType="text/css" height="347px" preserveAspectRatio="none" style="width:672px;height:347px;background:#FFFFFF;" version="1.1" viewBox="0 0 672 347" width="672px" zoomAndPan="magnify"><defs/><g><text fill="#000000" font-family="sans-serif" font-size="14" font-weight="bold" lengthAdjust="spacing" textLength="644" x="10" y="29.5332">To Do App Example - To Do App - Web App - Mark Task As Done - Sequence - Container level</text><rect fill="#FFFFFF" height="296.6797" style="stroke:#181818;stroke-width:0.5;" width="359.5" x="202" y="44.6094"/><text fill="#000000" font-family="sans-serif" font-size="13" font-weight="bold" lengthAdjust="spacing" textLength="66" x="348.75" y="58.1045">To Do App</text><rect fill="none" height="143.7578" style="stroke:#000000;stroke-width:1.5;" width="393.5" x="196" y="144.9219"/><rect fill="none" height="81.0547" style="stroke:#000000;stroke-width:1.5;" width="252" x="327.5" y="200.625"/><rect fill="none" height="48.7031" style="stroke:#000000;stroke-width:1.5;" width="232" x="337.5" y="225.9766"/><line style="stroke:#181818;stroke-width:0.5;stroke-dasharray:5.0,5.0;" x1="102.5" x2="102.5" y1="97.5703" y2="305.6797"/><line style="stroke:#181818;stroke-width:0.5;stroke-dasharray:5.0,5.0;" x1="242" x2="242" y1="97.5703" y2="305.6797"/><line style="stroke:#181818;stroke-width:0.5;stroke-dasharray:5.0,5.0;" x1="380.5" x2="380.5" y1="97.5703" y2="305.6797"/><line style="stroke:#181818;stroke-width:0.5;stroke-dasharray:5.0,5.0;" x1="519.5" x2="519.5" y1="97.5703" y2="305.6797"/><rect fill="#E2E2F0" height="31.6094" rx="2.5" ry="2.5" style="stroke:#181818;stroke-width:0.5;" width="65" x="70.5" y="64.9609"/><text fill="#000000" font-family="sans-serif" font-size="14" lengthAdjust="spacing" textLength="51" x="77.5" y="86.4941">External</text><rect fill="#E2E2F0" height="31.6094" rx="2.5" ry="2.5" style="stroke:#181818;stroke-width:0.5;" width="65" x="70.5" y="304.6797"/><text fill="#000000" font-family="sans-serif" font-size="14" lengthAdjust="spacing" textLength="51" x="77.5" y="326.2129">External</text><rect fill="#E2E2F0" height="31.6094" rx="2.5" ry="2.5" style="stroke:#181818;stroke-width:0.5;" width="72" x="206" y="64.9609"/><text fill="#000000" font-family="sans-serif" font-size="14" lengthAdjust="spacing" textLength="58" x="213" y="86.4941">Web App</text><rect fill="#E2E2F0" height="31.6094" rx="2.5" ry="2.5" style="stroke:#181818;stroke-width:0.5;" width="72" x="206" y="304.6797"/><text fill="#000000" font-family="sans-serif" font-size="14" lengthAdjust="spacing" textLength="58" x="213" y="326.2129">Web App</text><rect fill="#E2E2F0" height="31.6094" rx="2.5" ry="2.5" style="stroke:#181818;stroke-width:0.5;" width="67" x="347.5" y="64.9609"/><text fill="#000000" font-family="sans-serif" font-size="14" lengthAdjust="spacing" textLength="53" x="354.5" y="86.4941">Web Api</text><rect fill="#E2E2F0" height="31.6094" rx="2.5" ry="2.5" style="stroke:#181818;stroke-width:0.5;" width="67" x="347.5" y="304.6797"/><text fill="#000000" font-family="sans-serif" font-size="14" lengthAdjust="spacing" textLength="53" x="354.5" y="326.2129">Web Api</text><rect fill="#E2E2F0" height="31.6094" rx="2.5" ry="2.5" style="stroke:#181818;stroke-width:0.5;" width="75" x="482.5" y="64.9609"/><text fill="#000000" font-family="sans-serif" font-size="14" lengthAdjust="spacing" textLength="61" x="489.5" y="86.4941">Database</text><rect fill="#E2E2F0" height="31.6094" rx="2.5" ry="2.5" style="stroke:#181818;stroke-width:0.5;" width="75" x="482.5" y="304.6797"/><text fill="#000000" font-family="sans-serif" font-size="14" lengthAdjust="spacing" textLength="61" x="489.5" y="326.2129">Database</text><polygon fill="#181818" points="230,125.9219,240,129.9219,230,133.9219,234,129.9219" style="stroke:#181818;stroke-width:1.0;"/><line style="stroke:#181818;stroke-width:1.0;" x1="103" x2="236" y1="129.9219" y2="129.9219"/><text fill="#000000" font-family="sans-serif" font-size="13" lengthAdjust="spacing" textLength="115" x="110" y="125.0654">Mark Task As Done</text><path d="M196,144.9219 L361,144.9219 L361,153.2734 L351,163.2734 L196,163.2734 L196,144.9219 " fill="#EEEEEE" style="stroke:#000000;stroke-width:1.5;"/><rect fill="none" height="143.7578" style="stroke:#000000;stroke-width:1.5;" width="393.5" x="196" y="144.9219"/><text fill="#000000" font-family="sans-serif" font-size="13" font-weight="bold" lengthAdjust="spacing" textLength="120" x="211" y="159.417">Mark Task As Done</text><polygon fill="#181818" points="369,181.625,379,185.625,369,189.625,373,185.625" style="stroke:#181818;stroke-width:1.0;"/><line style="stroke:#181818;stroke-width:1.0;" x1="242" x2="375" y1="185.625" y2="185.625"/><text fill="#000000" font-family="sans-serif" font-size="13" lengthAdjust="spacing" textLength="115" x="249" y="180.7686">Mark Task As Done</text><path d="M327.5,200.625 L492.5,200.625 L492.5,208.9766 L482.5,218.9766 L327.5,218.9766 L327.5,200.625 " fill="#EEEEEE" style="stroke:#000000;stroke-width:1.5;"/><rect fill="none" height="81.0547" style="stroke:#000000;stroke-width:1.5;" width="252" x="327.5" y="200.625"/><text fill="#000000" font-family="sans-serif" font-size="13" font-weight="bold" lengthAdjust="spacing" textLength="120" x="342.5" y="215.1201">Mark Task As Done</text><path d="M337.5,225.9766 L398.5,225.9766 L398.5,234.3281 L388.5,244.3281 L337.5,244.3281 L337.5,225.9766 " fill="#EEEEEE" style="stroke:#000000;stroke-width:1.5;"/><rect fill="none" height="48.7031" style="stroke:#000000;stroke-width:1.5;" width="232" x="337.5" y="225.9766"/><text fill="#000000" font-family="sans-serif" font-size="13" font-weight="bold" lengthAdjust="spacing" textLength="16" x="352.5" y="240.4717">alt</text><text fill="#000000" font-family="sans-serif" font-size="11" font-weight="bold" lengthAdjust="spacing" textLength="151" x="413.5" y="239.3955">[Task is not in Done status]</text><polygon fill="#181818" points="508,262.6797,518,266.6797,508,270.6797,512,266.6797" style="stroke:#181818;stroke-width:1.0;"/><line style="stroke:#181818;stroke-width:1.0;" x1="381" x2="514" y1="266.6797" y2="266.6797"/><text fill="#000000" font-family="sans-serif" font-size="13" lengthAdjust="spacing" textLength="115" x="388" y="261.8232">Update Task Status</text><!--SRC=[fPB1JiCm38RlVWghdDiJ9mv8qpea3ZkrQ6TtCn0jIqBYilBsPAIjG0K9GgH8pf_uznSdeaGpjXPhYoldS3FGoKMb_AILkEDkZBRaZzXIEE8gn7rpETdmIyzcVmdNrWWfmnurlx86SEH5xPKZ8rXi1c5lI1T80TVNzoOkxxGzLurzb3DvRjw2y2bKqy6q1kZiWCKCLE3Lxba90yRnfS38-U7Vsjh6UBpGeiIuNSt4eOhPKVd9LVt7LIrTQnBgA72cxPGER0uO-mC0l-yebhVP_S6RvIU09szxzusUNIGVKFq9aBGaGGKqLb2PzAk3aFG1iXco-AStZJTuS0SIJcXDOeaFFKzu1m00]--></g></svg>