<?xml version="1.0" encoding="us-ascii" standalone="no"?><svg xmlns="http://www.w3.org/2000/svg" xmlns:xlink="http://www.w3.org/1999/xlink" contentStyleType="text/css" height="252px" preserveAspectRatio="none" style="width:640px;height:252px;background:#FFFFFF;" version="1.1" viewBox="0 0 640 252" width="640px" zoomAndPan="magnify"><defs/><g><text fill="#000000" font-family="sans-serif" font-size="14" font-weight="bold" lengthAdjust="spacing" textLength="612" x="10" y="29.5332">ECommercePlatform - Basket Service - Api - Delete Basket - Sequence - Container level</text><rect fill="#FFFFFF" height="201.625" style="stroke:#181818;stroke-width:0.5;" width="168.5" x="285.5" y="44.6094"/><text fill="#000000" font-family="sans-serif" font-size="13" font-weight="bold" lengthAdjust="spacing" textLength="94" x="322.75" y="58.1045">Basket Service</text><rect fill="none" height="48.7031" style="stroke:#000000;stroke-width:1.5;" width="180.5" x="279.5" y="144.9219"/><line style="stroke:#181818;stroke-width:0.5;stroke-dasharray:5.0,5.0;" x1="200" x2="200" y1="97.5703" y2="210.625"/><line style="stroke:#181818;stroke-width:0.5;stroke-dasharray:5.0,5.0;" x1="306.5" x2="306.5" y1="97.5703" y2="210.625"/><line style="stroke:#181818;stroke-width:0.5;stroke-dasharray:5.0,5.0;" x1="412" x2="412" y1="97.5703" y2="210.625"/><rect fill="#E2E2F0" height="31.6094" rx="2.5" ry="2.5" style="stroke:#181818;stroke-width:0.5;" width="65" x="168" y="64.9609"/><text fill="#000000" font-family="sans-serif" font-size="14" lengthAdjust="spacing" textLength="51" x="175" y="86.4941">External</text><rect fill="#E2E2F0" height="31.6094" rx="2.5" ry="2.5" style="stroke:#181818;stroke-width:0.5;" width="65" x="168" y="209.625"/><text fill="#000000" font-family="sans-serif" font-size="14" lengthAdjust="spacing" textLength="51" x="175" y="231.1582">External</text><rect fill="#E2E2F0" height="31.6094" rx="2.5" ry="2.5" style="stroke:#181818;stroke-width:0.5;" width="34" x="289.5" y="64.9609"/><text fill="#000000" font-family="sans-serif" font-size="14" lengthAdjust="spacing" textLength="20" x="296.5" y="86.4941">Api</text><rect fill="#E2E2F0" height="31.6094" rx="2.5" ry="2.5" style="stroke:#181818;stroke-width:0.5;" width="34" x="289.5" y="209.625"/><text fill="#000000" font-family="sans-serif" font-size="14" lengthAdjust="spacing" textLength="20" x="296.5" y="231.1582">Api</text><rect fill="#E2E2F0" height="31.6094" rx="2.5" ry="2.5" style="stroke:#181818;stroke-width:0.5;" width="75" x="375" y="64.9609"/><text fill="#000000" font-family="sans-serif" font-size="14" lengthAdjust="spacing" textLength="61" x="382" y="86.4941">Database</text><rect fill="#E2E2F0" height="31.6094" rx="2.5" ry="2.5" style="stroke:#181818;stroke-width:0.5;" width="75" x="375" y="209.625"/><text fill="#000000" font-family="sans-serif" font-size="14" lengthAdjust="spacing" textLength="61" x="382" y="231.1582">Database</text><polygon fill="#181818" points="294.5,125.9219,304.5,129.9219,294.5,133.9219,298.5,129.9219" style="stroke:#181818;stroke-width:1.0;"/><line style="stroke:#181818;stroke-width:1.0;" x1="200.5" x2="300.5" y1="129.9219" y2="129.9219"/><text fill="#000000" font-family="sans-serif" font-size="13" lengthAdjust="spacing" textLength="82" x="207.5" y="125.0654">Delete Basket</text><path d="M279.5,144.9219 L411.5,144.9219 L411.5,153.2734 L401.5,163.2734 L279.5,163.2734 L279.5,144.9219 " fill="#EEEEEE" style="stroke:#000000;stroke-width:1.5;"/><rect fill="none" height="48.7031" style="stroke:#000000;stroke-width:1.5;" width="180.5" x="279.5" y="144.9219"/><text fill="#000000" font-family="sans-serif" font-size="13" font-weight="bold" lengthAdjust="spacing" textLength="87" x="294.5" y="159.417">Delete Basket</text><polygon fill="#181818" points="400.5,181.625,410.5,185.625,400.5,189.625,404.5,185.625" style="stroke:#181818;stroke-width:1.0;"/><line style="stroke:#181818;stroke-width:1.0;" x1="306.5" x2="406.5" y1="185.625" y2="185.625"/><text fill="#000000" font-family="sans-serif" font-size="13" lengthAdjust="spacing" textLength="82" x="313.5" y="180.7686">Delete Basket</text><!--SRC=[fL4xQyCm4DxlLnpER4-TEWGQ9uLi1G-TBywNLbIMNEdowB_FaSG5rql16WxkmVUIElNWJHsx3gd5cnSznDHnoIl9Nr1ka4wkXGrUUcTr3G_5i2rj_tr4k1tKCQYuWCGU9tYYNfAwrlKIb8lDHP62-88bS_sq3TQ- -dYkcdZGioGqFrdHvMeulFT4ktZXOgocuCNxfrCGsnkncCWRmSJHXEQE-02iVhNdoY2ck6jHsKd6NF01Xn3sRCw8wFzPSBcSQOoVnnz87oaU-p-pcHJpH0u1JPHQO4HN]--></g></svg>