<?xml version="1.0" encoding="us-ascii" standalone="no"?><svg xmlns="http://www.w3.org/2000/svg" xmlns:xlink="http://www.w3.org/1999/xlink" contentStyleType="text/css" height="345.625px" preserveAspectRatio="none" style="width:406px;height:345px;background:#FFFFFF;" version="1.1" viewBox="0 0 406 345" width="406.25px" zoomAndPan="magnify"><defs/><g><text fill="#000000" font-family="sans-serif" font-size="8.75" font-weight="bold" lengthAdjust="spacing" textLength="295.625" x="56.4063" y="18.4583">Basket Api - Grpc - Basket Service - Get Basket - COMPONENT level</text><rect fill="#FFFFFF" height="314.0234" style="stroke:#181818;stroke-width:0.3125;" width="72.5" x="47.5" y="27.8809"/><text fill="#000000" font-family="sans-serif" font-size="8.125" font-weight="bold" lengthAdjust="spacing" textLength="18.75" x="74.375" y="36.3153">Grpc</text><rect fill="#FFFFFF" height="314.0234" style="stroke:#181818;stroke-width:0.3125;" width="224.375" x="168.4375" y="27.8809"/><text fill="#000000" font-family="sans-serif" font-size="8.125" font-weight="bold" lengthAdjust="spacing" textLength="18.125" x="271.5625" y="36.3153">Data</text><rect fill="none" height="218.4473" style="stroke:#000000;stroke-width:0.9375;" width="371.5625" x="31.25" y="90.5762"/><rect fill="none" height="84.6289" style="stroke:#000000;stroke-width:0.9375;" width="231.875" x="164.6875" y="125.3906"/><rect fill="none" height="85.8789" style="stroke:#000000;stroke-width:0.9375;" width="189.375" x="37.5" y="218.7695"/><rect fill="none" height="38.5645" style="stroke:#000000;stroke-width:0.9375;" width="170" x="43.75" y="261.709"/><line style="stroke:#181818;stroke-width:0.3125;stroke-dasharray:5.0,5.0;" x1="23.125" x2="23.125" y1="60.9814" y2="319.6484"/><line style="stroke:#181818;stroke-width:0.3125;stroke-dasharray:5.0,5.0;" x1="83.75" x2="83.75" y1="60.9814" y2="319.6484"/><line style="stroke:#181818;stroke-width:0.3125;stroke-dasharray:5.0,5.0;" x1="223.4375" x2="223.4375" y1="60.9814" y2="319.6484"/><line style="stroke:#181818;stroke-width:0.3125;stroke-dasharray:5.0,5.0;" x1="354.0625" x2="354.0625" y1="60.9814" y2="319.6484"/><rect fill="#E2E2F0" height="19.7559" rx="1.5625" ry="1.5625" style="stroke:#181818;stroke-width:0.3125;" width="40.625" x="3.125" y="40.6006"/><text fill="#000000" font-family="sans-serif" font-size="8.75" lengthAdjust="spacing" textLength="31.875" x="7.5" y="54.0588">External</text><rect fill="#E2E2F0" height="19.7559" rx="1.5625" ry="1.5625" style="stroke:#181818;stroke-width:0.3125;" width="40.625" x="3.125" y="319.0234"/><text fill="#000000" font-family="sans-serif" font-size="8.75" lengthAdjust="spacing" textLength="31.875" x="7.5" y="332.4817">External</text><rect fill="#E2E2F0" height="19.7559" rx="1.5625" ry="1.5625" style="stroke:#181818;stroke-width:0.3125;" width="67.5" x="50" y="40.6006"/><text fill="#000000" font-family="sans-serif" font-size="8.75" lengthAdjust="spacing" textLength="58.75" x="54.375" y="54.0588">Basket Service</text><rect fill="#E2E2F0" height="19.7559" rx="1.5625" ry="1.5625" style="stroke:#181818;stroke-width:0.3125;" width="67.5" x="50" y="319.0234"/><text fill="#000000" font-family="sans-serif" font-size="8.75" lengthAdjust="spacing" textLength="58.75" x="54.375" y="332.4817">Basket Service</text><rect fill="#E2E2F0" height="19.7559" rx="1.5625" ry="1.5625" style="stroke:#181818;stroke-width:0.3125;" width="105.625" x="170.9375" y="40.6006"/><text fill="#000000" font-family="sans-serif" font-size="8.75" lengthAdjust="spacing" textLength="96.875" x="175.3125" y="54.0588">Redis Basket Repository</text><rect fill="#E2E2F0" height="19.7559" rx="1.5625" ry="1.5625" style="stroke:#181818;stroke-width:0.3125;" width="105.625" x="170.9375" y="319.0234"/><text fill="#000000" font-family="sans-serif" font-size="8.75" lengthAdjust="spacing" textLength="96.875" x="175.3125" y="332.4817">Redis Basket Repository</text><rect fill="#E2E2F0" height="19.7559" rx="1.5625" ry="1.5625" style="stroke:#181818;stroke-width:0.3125;" width="71.875" x="318.4375" y="40.6006"/><text fill="#000000" font-family="sans-serif" font-size="8.75" lengthAdjust="spacing" textLength="63.125" x="322.8125" y="54.0588">Redis Database</text><rect fill="#E2E2F0" height="19.7559" rx="1.5625" ry="1.5625" style="stroke:#181818;stroke-width:0.3125;" width="71.875" x="318.4375" y="319.0234"/><text fill="#000000" font-family="sans-serif" font-size="8.75" lengthAdjust="spacing" textLength="63.125" x="322.8125" y="332.4817">Redis Database</text><polygon fill="#181818" points="76.25,78.7012,82.5,81.2012,76.25,83.7012,78.75,81.2012" style="stroke:#181818;stroke-width:0.625;"/><line style="stroke:#181818;stroke-width:0.625;" x1="23.4375" x2="80" y1="81.2012" y2="81.2012"/><text fill="#000000" font-family="sans-serif" font-size="8.125" lengthAdjust="spacing" textLength="41.25" x="27.8125" y="78.1659">Get Basket</text><path d="M31.25,90.5762 L101.875,90.5762 L101.875,95.7959 L95.625,102.0459 L31.25,102.0459 L31.25,90.5762 " fill="#EEEEEE" style="stroke:#000000;stroke-width:0.9375;"/><rect fill="none" height="218.4473" style="stroke:#000000;stroke-width:0.9375;" width="371.5625" x="31.25" y="90.5762"/><text fill="#000000" font-family="sans-serif" font-size="8.125" font-weight="bold" lengthAdjust="spacing" textLength="42.5" x="40.625" y="99.6356">Get Basket</text><polygon fill="#181818" points="216.25,113.5156,222.5,116.0156,216.25,118.5156,218.75,116.0156" style="stroke:#181818;stroke-width:0.625;"/><line style="stroke:#181818;stroke-width:0.625;" x1="83.75" x2="220" y1="116.0156" y2="116.0156"/><text fill="#000000" font-family="sans-serif" font-size="8.125" lengthAdjust="spacing" textLength="66.875" x="88.125" y="112.9803">Get Basket Async</text><path d="M164.6875,125.3906 L260.9375,125.3906 L260.9375,130.6104 L254.6875,136.8604 L164.6875,136.8604 L164.6875,125.3906 " fill="#EEEEEE" style="stroke:#000000;stroke-width:0.9375;"/><rect fill="none" height="84.6289" style="stroke:#000000;stroke-width:0.9375;" width="231.875" x="164.6875" y="125.3906"/><text fill="#000000" font-family="sans-serif" font-size="8.125" font-weight="bold" lengthAdjust="spacing" textLength="68.125" x="174.0625" y="134.4501">Get Basket Async</text><polygon fill="#181818" points="346.875,148.3301,353.125,150.8301,346.875,153.3301,349.375,150.8301" style="stroke:#181818;stroke-width:0.625;"/><line style="stroke:#181818;stroke-width:0.625;" x1="223.75" x2="350.625" y1="150.8301" y2="150.8301"/><text fill="#000000" font-family="sans-serif" font-size="8.125" lengthAdjust="spacing" textLength="86.875" x="228.125" y="147.7948">String Get Lease Async</text><line style="stroke:#181818;stroke-width:0.625;" x1="223.75" x2="250" y1="169.7998" y2="169.7998"/><line style="stroke:#181818;stroke-width:0.625;" x1="250" x2="250" y1="169.7998" y2="177.9248"/><line style="stroke:#181818;stroke-width:0.625;" x1="224.375" x2="250" y1="177.9248" y2="177.9248"/><polygon fill="#181818" points="230.625,175.4248,224.375,177.9248,230.625,180.4248,228.125,177.9248" style="stroke:#181818;stroke-width:0.625;"/><text fill="#000000" font-family="sans-serif" font-size="8.125" lengthAdjust="spacing" textLength="58.125" x="228.125" y="166.7645">Get Basket Key</text><line style="stroke:#181818;stroke-width:0.625;" x1="223.75" x2="250" y1="196.8945" y2="196.8945"/><line style="stroke:#181818;stroke-width:0.625;" x1="250" x2="250" y1="196.8945" y2="205.0195"/><line style="stroke:#181818;stroke-width:0.625;" x1="224.375" x2="250" y1="205.0195" y2="205.0195"/><polygon fill="#181818" points="230.625,202.5195,224.375,205.0195,230.625,207.5195,228.125,205.0195" style="stroke:#181818;stroke-width:0.625;"/><text fill="#000000" font-family="sans-serif" font-size="8.125" lengthAdjust="spacing" textLength="121.875" x="228.125" y="193.8593">Retun (JsonSerializer.Deserialize)</text><path d="M37.5,218.7695 L75.625,218.7695 L75.625,223.9893 L69.375,230.2393 L37.5,230.2393 L37.5,218.7695 " fill="#EEEEEE" style="stroke:#000000;stroke-width:0.9375;"/><rect fill="none" height="85.8789" style="stroke:#000000;stroke-width:0.9375;" width="189.375" x="37.5" y="218.7695"/><text fill="#000000" font-family="sans-serif" font-size="8.125" font-weight="bold" lengthAdjust="spacing" textLength="10" x="46.875" y="227.829">alt</text><text fill="#000000" font-family="sans-serif" font-size="6.875" font-weight="bold" lengthAdjust="spacing" textLength="55" x="85" y="227.1564">[data is not null]</text><line style="stroke:#181818;stroke-width:0.625;" x1="83.75" x2="110" y1="244.209" y2="244.209"/><line style="stroke:#181818;stroke-width:0.625;" x1="110" x2="110" y1="244.209" y2="252.334"/><line style="stroke:#181818;stroke-width:0.625;" x1="84.375" x2="110" y1="252.334" y2="252.334"/><polygon fill="#181818" points="90.625,249.834,84.375,252.334,90.625,254.834,88.125,252.334" style="stroke:#181818;stroke-width:0.625;"/><text fill="#000000" font-family="sans-serif" font-size="8.125" lengthAdjust="spacing" textLength="131.25" x="88.125" y="241.1737">Map To Customer Basket Response</text><path d="M43.75,261.709 L210.625,261.709 L210.625,266.9287 L204.375,273.1787 L43.75,273.1787 L43.75,261.709 " fill="#EEEEEE" style="stroke:#000000;stroke-width:0.9375;"/><rect fill="none" height="38.5645" style="stroke:#000000;stroke-width:0.9375;" width="170" x="43.75" y="261.709"/><text fill="#000000" font-family="sans-serif" font-size="8.125" font-weight="bold" lengthAdjust="spacing" textLength="138.75" x="53.125" y="270.7684">Map To Customer Basket Response</text><line style="stroke:#181818;stroke-width:0.625;" x1="83.75" x2="110" y1="287.1484" y2="287.1484"/><line style="stroke:#181818;stroke-width:0.625;" x1="110" x2="110" y1="287.1484" y2="295.2734"/><line style="stroke:#181818;stroke-width:0.625;" x1="84.375" x2="110" y1="295.2734" y2="295.2734"/><polygon fill="#181818" points="90.625,292.7734,84.375,295.2734,90.625,297.7734,88.125,295.2734" style="stroke:#181818;stroke-width:0.625;"/><text fill="#000000" font-family="sans-serif" font-size="8.125" lengthAdjust="spacing" textLength="61.875" x="88.125" y="284.1132">Retun (response)</text><!--SRC=[tLLBJyCm3BxdLvXnWSCg3eW31wGn7kADracSJMj6HEf4YGkKNq-wjcmJuY71452fQktQ-RulTjmLvt5I81YiR2aG2X9aLE5EiqEF1UHEmzQ6KgB54EnYk2E1GNJsuT2xB3vQNqh-NcTK-wFLEliml3Yxl3ZVFn-3eNioIiLbHMVQ8GlqzX-5FAFf0GOORXvnD0-CVKXIUoCFw2cjWb0HaYwmiPMwje_Gcx7fmUhLhHPI4A_cOyrkmRq0l4Xw2fzROPA4qblhae7FwiHCIa-lo3J94JOPMXRKJ3uaDLwq2sUPMBgW5a0Hvn1fgJc2UoZuDi4HvJfqspWYPuCMwwllO5e3ppETGZMHCw2t6DN9rnXeQKGwWDcMlRoeptS8z7UMMb3OdcjpDV6sTFEEfK9_NTgdEc118Wn2nTaheQtxH-WiINRNRr5kAbxpP2hlb6hNtrVtVb5FgFflwaOa9SFQSR0Spuj6ev_89tiKEcEzdYSAZK0UbuGuqjWAS6dCRp-r7msaCtGmjZ0iWzY2_Epd4M967AZDuVqewezlGbj_tyffgjtTwXa0]--></g></svg>