<?xml version="1.0" encoding="us-ascii" standalone="no"?><svg xmlns="http://www.w3.org/2000/svg" xmlns:xlink="http://www.w3.org/1999/xlink" contentStyleType="text/css" height="553px" preserveAspectRatio="none" style="width:650px;height:553px;background:#FFFFFF;" version="1.1" viewBox="0 0 650 553" width="650px" zoomAndPan="magnify"><defs/><g><text fill="#000000" font-family="sans-serif" font-size="14" font-weight="bold" lengthAdjust="spacing" textLength="473" x="90.25" y="29.5332">Basket Api - Grpc - Basket Service - Get Basket - COMPONENT level</text><rect fill="#FFFFFF" height="502.4375" style="stroke:#181818;stroke-width:0.5;" width="116" x="76" y="44.6094"/><text fill="#000000" font-family="sans-serif" font-size="13" font-weight="bold" lengthAdjust="spacing" textLength="30" x="119" y="58.1045">Grpc</text><rect fill="#FFFFFF" height="502.4375" style="stroke:#181818;stroke-width:0.5;" width="359" x="269.5" y="44.6094"/><text fill="#000000" font-family="sans-serif" font-size="13" font-weight="bold" lengthAdjust="spacing" textLength="29" x="434.5" y="58.1045">Data</text><rect fill="none" height="349.5156" style="stroke:#000000;stroke-width:1.5;" width="594.5" x="50" y="144.9219"/><rect fill="none" height="135.4063" style="stroke:#000000;stroke-width:1.5;" width="371" x="263.5" y="200.625"/><rect fill="none" height="137.4063" style="stroke:#000000;stroke-width:1.5;" width="303" x="60" y="350.0313"/><rect fill="none" height="61.7031" style="stroke:#000000;stroke-width:1.5;" width="272" x="70" y="418.7344"/><line style="stroke:#181818;stroke-width:0.5;stroke-dasharray:5.0,5.0;" x1="37" x2="37" y1="97.5703" y2="511.4375"/><line style="stroke:#181818;stroke-width:0.5;stroke-dasharray:5.0,5.0;" x1="134" x2="134" y1="97.5703" y2="511.4375"/><line style="stroke:#181818;stroke-width:0.5;stroke-dasharray:5.0,5.0;" x1="357.5" x2="357.5" y1="97.5703" y2="511.4375"/><line style="stroke:#181818;stroke-width:0.5;stroke-dasharray:5.0,5.0;" x1="566.5" x2="566.5" y1="97.5703" y2="511.4375"/><rect fill="#E2E2F0" height="31.6094" rx="2.5" ry="2.5" style="stroke:#181818;stroke-width:0.5;" width="65" x="5" y="64.9609"/><text fill="#000000" font-family="sans-serif" font-size="14" lengthAdjust="spacing" textLength="51" x="12" y="86.4941">External</text><rect fill="#E2E2F0" height="31.6094" rx="2.5" ry="2.5" style="stroke:#181818;stroke-width:0.5;" width="65" x="5" y="510.4375"/><text fill="#000000" font-family="sans-serif" font-size="14" lengthAdjust="spacing" textLength="51" x="12" y="531.9707">External</text><rect fill="#E2E2F0" height="31.6094" rx="2.5" ry="2.5" style="stroke:#181818;stroke-width:0.5;" width="108" x="80" y="64.9609"/><text fill="#000000" font-family="sans-serif" font-size="14" lengthAdjust="spacing" textLength="94" x="87" y="86.4941">Basket Service</text><rect fill="#E2E2F0" height="31.6094" rx="2.5" ry="2.5" style="stroke:#181818;stroke-width:0.5;" width="108" x="80" y="510.4375"/><text fill="#000000" font-family="sans-serif" font-size="14" lengthAdjust="spacing" textLength="94" x="87" y="531.9707">Basket Service</text><rect fill="#E2E2F0" height="31.6094" rx="2.5" ry="2.5" style="stroke:#181818;stroke-width:0.5;" width="169" x="273.5" y="64.9609"/><text fill="#000000" font-family="sans-serif" font-size="14" lengthAdjust="spacing" textLength="155" x="280.5" y="86.4941">Redis Basket Repository</text><rect fill="#E2E2F0" height="31.6094" rx="2.5" ry="2.5" style="stroke:#181818;stroke-width:0.5;" width="169" x="273.5" y="510.4375"/><text fill="#000000" font-family="sans-serif" font-size="14" lengthAdjust="spacing" textLength="155" x="280.5" y="531.9707">Redis Basket Repository</text><rect fill="#E2E2F0" height="31.6094" rx="2.5" ry="2.5" style="stroke:#181818;stroke-width:0.5;" width="115" x="509.5" y="64.9609"/><text fill="#000000" font-family="sans-serif" font-size="14" lengthAdjust="spacing" textLength="101" x="516.5" y="86.4941">Redis Database</text><rect fill="#E2E2F0" height="31.6094" rx="2.5" ry="2.5" style="stroke:#181818;stroke-width:0.5;" width="115" x="509.5" y="510.4375"/><text fill="#000000" font-family="sans-serif" font-size="14" lengthAdjust="spacing" textLength="101" x="516.5" y="531.9707">Redis Database</text><polygon fill="#181818" points="122,125.9219,132,129.9219,122,133.9219,126,129.9219" style="stroke:#181818;stroke-width:1.0;"/><line style="stroke:#181818;stroke-width:1.0;" x1="37.5" x2="128" y1="129.9219" y2="129.9219"/><text fill="#000000" font-family="sans-serif" font-size="13" lengthAdjust="spacing" textLength="66" x="44.5" y="125.0654">Get Basket</text><path d="M50,144.9219 L163,144.9219 L163,153.2734 L153,163.2734 L50,163.2734 L50,144.9219 " fill="#EEEEEE" style="stroke:#000000;stroke-width:1.5;"/><rect fill="none" height="349.5156" style="stroke:#000000;stroke-width:1.5;" width="594.5" x="50" y="144.9219"/><text fill="#000000" font-family="sans-serif" font-size="13" font-weight="bold" lengthAdjust="spacing" textLength="68" x="65" y="159.417">Get Basket</text><polygon fill="#181818" points="346,181.625,356,185.625,346,189.625,350,185.625" style="stroke:#181818;stroke-width:1.0;"/><line style="stroke:#181818;stroke-width:1.0;" x1="134" x2="352" y1="185.625" y2="185.625"/><text fill="#000000" font-family="sans-serif" font-size="13" lengthAdjust="spacing" textLength="107" x="141" y="180.7686">Get Basket Async</text><path d="M263.5,200.625 L417.5,200.625 L417.5,208.9766 L407.5,218.9766 L263.5,218.9766 L263.5,200.625 " fill="#EEEEEE" style="stroke:#000000;stroke-width:1.5;"/><rect fill="none" height="135.4063" style="stroke:#000000;stroke-width:1.5;" width="371" x="263.5" y="200.625"/><text fill="#000000" font-family="sans-serif" font-size="13" font-weight="bold" lengthAdjust="spacing" textLength="109" x="278.5" y="215.1201">Get Basket Async</text><polygon fill="#181818" points="555,237.3281,565,241.3281,555,245.3281,559,241.3281" style="stroke:#181818;stroke-width:1.0;"/><line style="stroke:#181818;stroke-width:1.0;" x1="358" x2="561" y1="241.3281" y2="241.3281"/><text fill="#000000" font-family="sans-serif" font-size="13" lengthAdjust="spacing" textLength="139" x="365" y="236.4717">String Get Lease Async</text><line style="stroke:#181818;stroke-width:1.0;" x1="358" x2="400" y1="271.6797" y2="271.6797"/><line style="stroke:#181818;stroke-width:1.0;" x1="400" x2="400" y1="271.6797" y2="284.6797"/><line style="stroke:#181818;stroke-width:1.0;" x1="359" x2="400" y1="284.6797" y2="284.6797"/><polygon fill="#181818" points="369,280.6797,359,284.6797,369,288.6797,365,284.6797" style="stroke:#181818;stroke-width:1.0;"/><text fill="#000000" font-family="sans-serif" font-size="13" lengthAdjust="spacing" textLength="93" x="365" y="266.8232">Get Basket Key</text><line style="stroke:#181818;stroke-width:1.0;" x1="358" x2="400" y1="315.0313" y2="315.0313"/><line style="stroke:#181818;stroke-width:1.0;" x1="400" x2="400" y1="315.0313" y2="328.0313"/><line style="stroke:#181818;stroke-width:1.0;" x1="359" x2="400" y1="328.0313" y2="328.0313"/><polygon fill="#181818" points="369,324.0313,359,328.0313,369,332.0313,365,328.0313" style="stroke:#181818;stroke-width:1.0;"/><text fill="#000000" font-family="sans-serif" font-size="13" lengthAdjust="spacing" textLength="195" x="365" y="310.1748">Retun (JsonSerializer.Deserialize)</text><path d="M60,350.0313 L121,350.0313 L121,358.3828 L111,368.3828 L60,368.3828 L60,350.0313 " fill="#EEEEEE" style="stroke:#000000;stroke-width:1.5;"/><rect fill="none" height="137.4063" style="stroke:#000000;stroke-width:1.5;" width="303" x="60" y="350.0313"/><text fill="#000000" font-family="sans-serif" font-size="13" font-weight="bold" lengthAdjust="spacing" textLength="16" x="75" y="364.5264">alt</text><text fill="#000000" font-family="sans-serif" font-size="11" font-weight="bold" lengthAdjust="spacing" textLength="88" x="136" y="363.4502">[data is not null]</text><line style="stroke:#181818;stroke-width:1.0;" x1="134" x2="176" y1="390.7344" y2="390.7344"/><line style="stroke:#181818;stroke-width:1.0;" x1="176" x2="176" y1="390.7344" y2="403.7344"/><line style="stroke:#181818;stroke-width:1.0;" x1="135" x2="176" y1="403.7344" y2="403.7344"/><polygon fill="#181818" points="145,399.7344,135,403.7344,145,407.7344,141,403.7344" style="stroke:#181818;stroke-width:1.0;"/><text fill="#000000" font-family="sans-serif" font-size="13" lengthAdjust="spacing" textLength="210" x="141" y="385.8779">Map To Customer Basket Response</text><path d="M70,418.7344 L337,418.7344 L337,427.0859 L327,437.0859 L70,437.0859 L70,418.7344 " fill="#EEEEEE" style="stroke:#000000;stroke-width:1.5;"/><rect fill="none" height="61.7031" style="stroke:#000000;stroke-width:1.5;" width="272" x="70" y="418.7344"/><text fill="#000000" font-family="sans-serif" font-size="13" font-weight="bold" lengthAdjust="spacing" textLength="222" x="85" y="433.2295">Map To Customer Basket Response</text><line style="stroke:#181818;stroke-width:1.0;" x1="134" x2="176" y1="459.4375" y2="459.4375"/><line style="stroke:#181818;stroke-width:1.0;" x1="176" x2="176" y1="459.4375" y2="472.4375"/><line style="stroke:#181818;stroke-width:1.0;" x1="135" x2="176" y1="472.4375" y2="472.4375"/><polygon fill="#181818" points="145,468.4375,135,472.4375,145,476.4375,141,472.4375" style="stroke:#181818;stroke-width:1.0;"/><text fill="#000000" font-family="sans-serif" font-size="13" lengthAdjust="spacing" textLength="99" x="141" y="454.5811">Retun (response)</text><!--SRC=[tLLDJyCm3BtdLvXnWSDwuiG1QMm3yR4DhKYSlSwCY3I94dTR-VMaQyiw8TWa608gLQrTk- -zs74EhCDPYg0mDnc3JubHen0iMH6SetycXewLq8PBPvFmg7mnkRbCgF07gtAseJiQt8s6_U4zA9gJ4iAYOvb8YvgXrLyoEOsg1UYXUtAbWtcXp2AApIClq56SUwRKHtLWQGinCKjehTcquF3XIJ8925VviM2tuTu0tYIzWfyQriGHnK_6HXsN58a9PuxUaIcJ0spKDPfHQd8-Al22dLgZINCTL048qbC8j4I3O0yPFoOufgdqzJAEoHelsRZyEvWMm4scAwWoSWtq4QCYUOAUzaQa1bWlsTkBsBr3e7ssruB2QQFDnSoPp3OTUuN-khITEc138dHyhfDtGYltZz3Pa-owtuBSc9tKivMyMofSVr_TvqMzeVo_gHiJPngEhhtHORz8LFA5NDGZNnl7nJmHg1YcuPSGHfes33fJwhVlscq3QO0MxWrqCyyc9RS-F7p820ErtBpRelxu8bJrTvMSijhrBLu1]--></g></svg>