<?xml version="1.0" encoding="us-ascii" standalone="no"?><svg xmlns="http://www.w3.org/2000/svg" xmlns:xlink="http://www.w3.org/1999/xlink" contentStyleType="text/css" height="414px" preserveAspectRatio="none" style="width:681px;height:414px;background:#FFFFFF;" version="1.1" viewBox="0 0 681 414" width="681px" zoomAndPan="magnify"><defs/><g><text fill="#000000" font-family="sans-serif" font-size="14" font-weight="bold" lengthAdjust="spacing" textLength="653" x="10" y="29.5332">Big Bank Plc - Internet Banking - Mobile App - Change Password - Sequence - Container level</text><rect fill="#FFFFFF" height="356.6797" style="stroke:#181818;stroke-width:0.5;" width="369.5" x="129.5" y="44.6094"/><text fill="#000000" font-family="sans-serif" font-size="13" font-weight="bold" lengthAdjust="spacing" textLength="105" x="261.75" y="58.1045">Internet Banking</text><rect fill="none" height="141.7578" style="stroke:#000000;stroke-width:1.5;" width="531.5" x="123.5" y="175.9219"/><rect fill="none" height="79.0547" style="stroke:#000000;stroke-width:1.5;" width="404.5" x="240.5" y="231.625"/><line style="stroke:#181818;stroke-width:0.5;stroke-dasharray:5.0,5.0;" x1="46" x2="46" y1="128.5703" y2="334.6797"/><line style="stroke:#181818;stroke-width:0.5;stroke-dasharray:5.0,5.0;" x1="175.5" x2="175.5" y1="128.5703" y2="334.6797"/><line style="stroke:#181818;stroke-width:0.5;stroke-dasharray:5.0,5.0;" x1="304.5" x2="304.5" y1="128.5703" y2="334.6797"/><line style="stroke:#181818;stroke-width:0.5;stroke-dasharray:5.0,5.0;" x1="461" x2="461" y1="128.5703" y2="334.6797"/><line style="stroke:#181818;stroke-width:0.5;stroke-dasharray:5.0,5.0;" x1="583" x2="583" y1="128.5703" y2="334.6797"/><rect fill="#E2E2F0" height="31.6094" rx="2.5" ry="2.5" style="stroke:#181818;stroke-width:0.5;" width="65" x="14" y="95.9609"/><text fill="#000000" font-family="sans-serif" font-size="14" lengthAdjust="spacing" textLength="51" x="21" y="117.4941">External</text><rect fill="#E2E2F0" height="31.6094" rx="2.5" ry="2.5" style="stroke:#181818;stroke-width:0.5;" width="65" x="14" y="333.6797"/><text fill="#000000" font-family="sans-serif" font-size="14" lengthAdjust="spacing" textLength="51" x="21" y="355.2129">External</text><rect fill="#E2E2F0" height="31.6094" rx="2.5" ry="2.5" style="stroke:#181818;stroke-width:0.5;" width="84" x="133.5" y="95.9609"/><text fill="#000000" font-family="sans-serif" font-size="14" lengthAdjust="spacing" textLength="70" x="140.5" y="117.4941">Mobile App</text><rect fill="#E2E2F0" height="31.6094" rx="2.5" ry="2.5" style="stroke:#181818;stroke-width:0.5;" width="84" x="133.5" y="333.6797"/><text fill="#000000" font-family="sans-serif" font-size="14" lengthAdjust="spacing" textLength="70" x="140.5" y="355.2129">Mobile App</text><rect fill="#E2E2F0" height="31.6094" rx="2.5" ry="2.5" style="stroke:#181818;stroke-width:0.5;" width="108" x="250.5" y="95.9609"/><text fill="#000000" font-family="sans-serif" font-size="14" lengthAdjust="spacing" textLength="94" x="257.5" y="117.4941">API Application</text><rect fill="#E2E2F0" height="31.6094" rx="2.5" ry="2.5" style="stroke:#181818;stroke-width:0.5;" width="108" x="250.5" y="333.6797"/><text fill="#000000" font-family="sans-serif" font-size="14" lengthAdjust="spacing" textLength="94" x="257.5" y="355.2129">API Application</text><text fill="#000000" font-family="sans-serif" font-size="14" lengthAdjust="spacing" textLength="61" x="428" y="125.4941">Database</text><path d="M443.5,74.9609 C443.5,64.9609 461.5,64.9609 461.5,64.9609 C461.5,64.9609 479.5,64.9609 479.5,74.9609 L479.5,100.9609 C479.5,110.9609 461.5,110.9609 461.5,110.9609 C461.5,110.9609 443.5,110.9609 443.5,100.9609 L443.5,74.9609 " fill="#E2E2F0" style="stroke:#181818;stroke-width:1.5;"/><path d="M443.5,74.9609 C443.5,84.9609 461.5,84.9609 461.5,84.9609 C461.5,84.9609 479.5,84.9609 479.5,74.9609 " fill="none" style="stroke:#181818;stroke-width:1.5;"/><text fill="#000000" font-family="sans-serif" font-size="14" lengthAdjust="spacing" textLength="61" x="428" y="348.2129">Database</text><path d="M443.5,361.2891 C443.5,351.2891 461.5,351.2891 461.5,351.2891 C461.5,351.2891 479.5,351.2891 479.5,361.2891 L479.5,387.2891 C479.5,397.2891 461.5,397.2891 461.5,397.2891 C461.5,397.2891 443.5,397.2891 443.5,387.2891 L443.5,361.2891 " fill="#E2E2F0" style="stroke:#181818;stroke-width:1.5;"/><path d="M443.5,361.2891 C443.5,371.2891 461.5,371.2891 461.5,371.2891 C461.5,371.2891 479.5,371.2891 479.5,361.2891 " fill="none" style="stroke:#181818;stroke-width:1.5;"/><rect fill="#E2E2F0" height="31.6094" rx="2.5" ry="2.5" style="stroke:#181818;stroke-width:0.5;" width="103" x="532" y="95.9609"/><text fill="#000000" font-family="sans-serif" font-size="14" lengthAdjust="spacing" textLength="89" x="539" y="117.4941">E-Mail System</text><rect fill="#E2E2F0" height="31.6094" rx="2.5" ry="2.5" style="stroke:#181818;stroke-width:0.5;" width="103" x="532" y="333.6797"/><text fill="#000000" font-family="sans-serif" font-size="14" lengthAdjust="spacing" textLength="89" x="539" y="355.2129">E-Mail System</text><polygon fill="#181818" points="163.5,156.9219,173.5,160.9219,163.5,164.9219,167.5,160.9219" style="stroke:#181818;stroke-width:1.0;"/><line style="stroke:#181818;stroke-width:1.0;" x1="46.5" x2="169.5" y1="160.9219" y2="160.9219"/><text fill="#000000" font-family="sans-serif" font-size="13" lengthAdjust="spacing" textLength="105" x="53.5" y="156.0654">Change Password</text><path d="M123.5,175.9219 L282.5,175.9219 L282.5,184.2734 L272.5,194.2734 L123.5,194.2734 L123.5,175.9219 " fill="#EEEEEE" style="stroke:#000000;stroke-width:1.5;"/><rect fill="none" height="141.7578" style="stroke:#000000;stroke-width:1.5;" width="531.5" x="123.5" y="175.9219"/><text fill="#000000" font-family="sans-serif" font-size="13" font-weight="bold" lengthAdjust="spacing" textLength="114" x="138.5" y="190.417">Change Password</text><polygon fill="#181818" points="292.5,212.625,302.5,216.625,292.5,220.625,296.5,216.625" style="stroke:#181818;stroke-width:1.0;"/><line style="stroke:#181818;stroke-width:1.0;" x1="175.5" x2="298.5" y1="216.625" y2="216.625"/><text fill="#000000" font-family="sans-serif" font-size="13" lengthAdjust="spacing" textLength="105" x="182.5" y="211.7686">Change Password</text><path d="M240.5,231.625 L399.5,231.625 L399.5,239.9766 L389.5,249.9766 L240.5,249.9766 L240.5,231.625 " fill="#EEEEEE" style="stroke:#000000;stroke-width:1.5;"/><rect fill="none" height="79.0547" style="stroke:#000000;stroke-width:1.5;" width="404.5" x="240.5" y="231.625"/><text fill="#000000" font-family="sans-serif" font-size="13" font-weight="bold" lengthAdjust="spacing" textLength="114" x="255.5" y="246.1201">Change Password</text><polygon fill="#181818" points="449.5,268.3281,459.5,272.3281,449.5,276.3281,453.5,272.3281" style="stroke:#181818;stroke-width:1.0;"/><line style="stroke:#181818;stroke-width:1.0;" x1="304.5" x2="455.5" y1="272.3281" y2="272.3281"/><text fill="#000000" font-family="sans-serif" font-size="13" lengthAdjust="spacing" textLength="133" x="311.5" y="267.4717">Update User Password</text><polygon fill="#181818" points="571.5,298.6797,581.5,302.6797,571.5,306.6797,575.5,302.6797" style="stroke:#181818;stroke-width:1.0;"/><line style="stroke:#181818;stroke-width:1.0;" x1="304.5" x2="577.5" y1="302.6797" y2="302.6797"/><text fill="#000000" font-family="sans-serif" font-size="13" lengthAdjust="spacing" textLength="255" x="311.5" y="297.8232">Send Password Changed Notification E-Mail</text><!--SRC=[lPGnRuCm48Lt_ueJdSFKgKEb94sb3AcGKDJvW0knwjeKNvhqt_SC8KrWQ1NK827XmtplsVSmQpO4Crt23EqR92Q72ImjKss9cvgsfPHMBjCoSLfLCfXlqPO42Ng_TtKXbPG-TcHp2Y-TPTIMQZ3qIKQf2clMkQxGCaIBGq2ZYG0zpEyRfMVZzd7gDhp7cj8lp_JkusvYErOgSmU8-iOYk7lTQYO5Sbte_FXjb6I1uHDPta2eOnwHySc_Zrk8C8RyQR8CSADpPEti214XdO4QfG8PC_G4qTFnQGI_GoYo1SWkzXioMQ4sq89-arc4kLr7_juzc3oExG0yz5Edojhjga5rhCxLLY_x-Cz-Us9Nc-x28NRNbSIEOEtbpxsbkxDCYOiqfFHqiBIRLS2BOxtfS6rYGvoRMtq3]--></g></svg>