<?xml version="1.0" encoding="us-ascii" standalone="no"?><svg xmlns="http://www.w3.org/2000/svg" xmlns:xlink="http://www.w3.org/1999/xlink" contentStyleType="text/css" height="383px" preserveAspectRatio="none" style="width:503px;height:383px;background:#FFFFFF;" version="1.1" viewBox="0 0 503 383" width="503px" zoomAndPan="magnify"><defs/><g><text fill="#000000" font-family="sans-serif" font-size="14" font-weight="bold" lengthAdjust="spacing" textLength="475" x="10" y="29.5332">Internet Banking - Mobile App - Sign In - Sequence - Container level</text><rect fill="#FFFFFF" height="326.3281" style="stroke:#181818;stroke-width:0.5;" width="317.5" x="114.25" y="44.6094"/><text fill="#000000" font-family="sans-serif" font-size="13" font-weight="bold" lengthAdjust="spacing" textLength="105" x="220.5" y="58.1045">Internet Banking</text><rect fill="none" height="111.4063" style="stroke:#000000;stroke-width:1.5;" width="339.5" x="108.25" y="175.9219"/><rect fill="none" height="48.7031" style="stroke:#000000;stroke-width:1.5;" width="235.5" x="202.25" y="231.625"/><line style="stroke:#181818;stroke-width:0.5;stroke-dasharray:5.0,5.0;" x1="75.25" x2="75.25" y1="128.5703" y2="304.3281"/><line style="stroke:#181818;stroke-width:0.5;stroke-dasharray:5.0,5.0;" x1="160.25" x2="160.25" y1="128.5703" y2="304.3281"/><line style="stroke:#181818;stroke-width:0.5;stroke-dasharray:5.0,5.0;" x1="266.25" x2="266.25" y1="128.5703" y2="304.3281"/><line style="stroke:#181818;stroke-width:0.5;stroke-dasharray:5.0,5.0;" x1="393.75" x2="393.75" y1="128.5703" y2="304.3281"/><rect fill="#E2E2F0" height="31.6094" rx="2.5" ry="2.5" style="stroke:#181818;stroke-width:0.5;" width="65" x="43.25" y="95.9609"/><text fill="#000000" font-family="sans-serif" font-size="14" lengthAdjust="spacing" textLength="51" x="50.25" y="117.4941">External</text><rect fill="#E2E2F0" height="31.6094" rx="2.5" ry="2.5" style="stroke:#181818;stroke-width:0.5;" width="65" x="43.25" y="303.3281"/><text fill="#000000" font-family="sans-serif" font-size="14" lengthAdjust="spacing" textLength="51" x="50.25" y="324.8613">External</text><rect fill="#E2E2F0" height="31.6094" rx="2.5" ry="2.5" style="stroke:#181818;stroke-width:0.5;" width="84" x="118.25" y="95.9609"/><text fill="#000000" font-family="sans-serif" font-size="14" lengthAdjust="spacing" textLength="70" x="125.25" y="117.4941">Mobile App</text><rect fill="#E2E2F0" height="31.6094" rx="2.5" ry="2.5" style="stroke:#181818;stroke-width:0.5;" width="84" x="118.25" y="303.3281"/><text fill="#000000" font-family="sans-serif" font-size="14" lengthAdjust="spacing" textLength="70" x="125.25" y="324.8613">Mobile App</text><rect fill="#E2E2F0" height="31.6094" rx="2.5" ry="2.5" style="stroke:#181818;stroke-width:0.5;" width="108" x="212.25" y="95.9609"/><text fill="#000000" font-family="sans-serif" font-size="14" lengthAdjust="spacing" textLength="94" x="219.25" y="117.4941">API Application</text><rect fill="#E2E2F0" height="31.6094" rx="2.5" ry="2.5" style="stroke:#181818;stroke-width:0.5;" width="108" x="212.25" y="303.3281"/><text fill="#000000" font-family="sans-serif" font-size="14" lengthAdjust="spacing" textLength="94" x="219.25" y="324.8613">API Application</text><text fill="#000000" font-family="sans-serif" font-size="14" lengthAdjust="spacing" textLength="61" x="360.75" y="125.4941">Database</text><path d="M376.25,74.9609 C376.25,64.9609 394.25,64.9609 394.25,64.9609 C394.25,64.9609 412.25,64.9609 412.25,74.9609 L412.25,100.9609 C412.25,110.9609 394.25,110.9609 394.25,110.9609 C394.25,110.9609 376.25,110.9609 376.25,100.9609 L376.25,74.9609 " fill="#E2E2F0" style="stroke:#181818;stroke-width:1.5;"/><path d="M376.25,74.9609 C376.25,84.9609 394.25,84.9609 394.25,84.9609 C394.25,84.9609 412.25,84.9609 412.25,74.9609 " fill="none" style="stroke:#181818;stroke-width:1.5;"/><text fill="#000000" font-family="sans-serif" font-size="14" lengthAdjust="spacing" textLength="61" x="360.75" y="317.8613">Database</text><path d="M376.25,330.9375 C376.25,320.9375 394.25,320.9375 394.25,320.9375 C394.25,320.9375 412.25,320.9375 412.25,330.9375 L412.25,356.9375 C412.25,366.9375 394.25,366.9375 394.25,366.9375 C394.25,366.9375 376.25,366.9375 376.25,356.9375 L376.25,330.9375 " fill="#E2E2F0" style="stroke:#181818;stroke-width:1.5;"/><path d="M376.25,330.9375 C376.25,340.9375 394.25,340.9375 394.25,340.9375 C394.25,340.9375 412.25,340.9375 412.25,330.9375 " fill="none" style="stroke:#181818;stroke-width:1.5;"/><polygon fill="#181818" points="148.25,156.9219,158.25,160.9219,148.25,164.9219,152.25,160.9219" style="stroke:#181818;stroke-width:1.0;"/><line style="stroke:#181818;stroke-width:1.0;" x1="75.75" x2="154.25" y1="160.9219" y2="160.9219"/><text fill="#000000" font-family="sans-serif" font-size="13" lengthAdjust="spacing" textLength="40" x="82.75" y="156.0654">Sign In</text><path d="M108.25,175.9219 L198.25,175.9219 L198.25,184.2734 L188.25,194.2734 L108.25,194.2734 L108.25,175.9219 " fill="#EEEEEE" style="stroke:#000000;stroke-width:1.5;"/><rect fill="none" height="111.4063" style="stroke:#000000;stroke-width:1.5;" width="339.5" x="108.25" y="175.9219"/><text fill="#000000" font-family="sans-serif" font-size="13" font-weight="bold" lengthAdjust="spacing" textLength="45" x="123.25" y="190.417">Sign In</text><polygon fill="#181818" points="254.25,212.625,264.25,216.625,254.25,220.625,258.25,216.625" style="stroke:#181818;stroke-width:1.0;"/><line style="stroke:#181818;stroke-width:1.0;" x1="160.25" x2="260.25" y1="216.625" y2="216.625"/><text fill="#000000" font-family="sans-serif" font-size="13" lengthAdjust="spacing" textLength="40" x="167.25" y="211.7686">Sign In</text><path d="M202.25,231.625 L292.25,231.625 L292.25,239.9766 L282.25,249.9766 L202.25,249.9766 L202.25,231.625 " fill="#EEEEEE" style="stroke:#000000;stroke-width:1.5;"/><rect fill="none" height="48.7031" style="stroke:#000000;stroke-width:1.5;" width="235.5" x="202.25" y="231.625"/><text fill="#000000" font-family="sans-serif" font-size="13" font-weight="bold" lengthAdjust="spacing" textLength="45" x="217.25" y="246.1201">Sign In</text><polygon fill="#181818" points="382.25,268.3281,392.25,272.3281,382.25,276.3281,386.25,272.3281" style="stroke:#181818;stroke-width:1.0;"/><line style="stroke:#181818;stroke-width:1.0;" x1="266.25" x2="388.25" y1="272.3281" y2="272.3281"/><text fill="#000000" font-family="sans-serif" font-size="13" lengthAdjust="spacing" textLength="104" x="273.25" y="267.4717">Authenticate User</text><!--SRC=[hP91JyCm38Nl_XMcdDSJ9mv8tG1f1wH95UBiTQQBI9sIk6pxzoJTEjXsGIkH8jbAyhsdvzoqdkg6qDBETOgXOIKX03Lg6UUYx8KLfoGVHcgSu8jRcdXIj6riIbDBl9Gg_knOAexbp8cI4VPe-OijG4jUJMLQ4iNiQPkGP3EaWBExNk7PkarUkdVTaETo5vIRa0yNzpt0qcqnEpUKuUtRsYW3ndMYy-EpLvgQEZrPsEf2Q60UaFdHVyZtaCYuv1UBUO9RKv4Q9oD48kaNg5TQaTAI0cFsUAX6y0S4iAmmfWW0VyyT9mzZiyFxuPz0xLtN7hkntAkjdIR-p_xEu5UR7COMxHMThbaq8HbV0_iqodx3Dm00]--></g></svg>