<?xml version="1.0" encoding="us-ascii" standalone="no"?><svg xmlns="http://www.w3.org/2000/svg" xmlns:xlink="http://www.w3.org/1999/xlink" contentStyleType="text/css" height="258px" preserveAspectRatio="none" style="width:676px;height:258px;background:#FFFFFF;" version="1.1" viewBox="0 0 676 258" width="676px" zoomAndPan="magnify"><defs/><g><text fill="#000000" font-family="sans-serif" font-size="14" font-weight="bold" lengthAdjust="spacing" textLength="648" x="10" y="29.5332">Trader X Example - TraderX - TraderX DB - Insert Trade Request - Sequence - Container level</text><rect fill="#FFFFFF" height="200.9219" style="stroke:#181818;stroke-width:0.5;" width="88" x="358.75" y="44.6094"/><text fill="#000000" font-family="sans-serif" font-size="13" font-weight="bold" lengthAdjust="spacing" textLength="51" x="377.25" y="58.1045">TraderX</text><line style="stroke:#181818;stroke-width:0.5;stroke-dasharray:5.0,5.0;" x1="258.25" x2="258.25" y1="128.5703" y2="178.9219"/><line style="stroke:#181818;stroke-width:0.5;stroke-dasharray:5.0,5.0;" x1="402.75" x2="402.75" y1="128.5703" y2="178.9219"/><rect fill="#E2E2F0" height="31.6094" rx="2.5" ry="2.5" style="stroke:#181818;stroke-width:0.5;" width="65" x="226.25" y="95.9609"/><text fill="#000000" font-family="sans-serif" font-size="14" lengthAdjust="spacing" textLength="51" x="233.25" y="117.4941">External</text><rect fill="#E2E2F0" height="31.6094" rx="2.5" ry="2.5" style="stroke:#181818;stroke-width:0.5;" width="65" x="226.25" y="177.9219"/><text fill="#000000" font-family="sans-serif" font-size="14" lengthAdjust="spacing" textLength="51" x="233.25" y="199.4551">External</text><text fill="#000000" font-family="sans-serif" font-size="14" lengthAdjust="spacing" textLength="74" x="362.75" y="125.4941">TraderX DB</text><path d="M384.75,74.9609 C384.75,64.9609 402.75,64.9609 402.75,64.9609 C402.75,64.9609 420.75,64.9609 420.75,74.9609 L420.75,100.9609 C420.75,110.9609 402.75,110.9609 402.75,110.9609 C402.75,110.9609 384.75,110.9609 384.75,100.9609 L384.75,74.9609 " fill="#E2E2F0" style="stroke:#181818;stroke-width:1.5;"/><path d="M384.75,74.9609 C384.75,84.9609 402.75,84.9609 402.75,84.9609 C402.75,84.9609 420.75,84.9609 420.75,74.9609 " fill="none" style="stroke:#181818;stroke-width:1.5;"/><text fill="#000000" font-family="sans-serif" font-size="14" lengthAdjust="spacing" textLength="74" x="362.75" y="192.4551">TraderX DB</text><path d="M384.75,205.5313 C384.75,195.5313 402.75,195.5313 402.75,195.5313 C402.75,195.5313 420.75,195.5313 420.75,205.5313 L420.75,231.5313 C420.75,241.5313 402.75,241.5313 402.75,241.5313 C402.75,241.5313 384.75,241.5313 384.75,231.5313 L384.75,205.5313 " fill="#E2E2F0" style="stroke:#181818;stroke-width:1.5;"/><path d="M384.75,205.5313 C384.75,215.5313 402.75,215.5313 402.75,215.5313 C402.75,215.5313 420.75,215.5313 420.75,205.5313 " fill="none" style="stroke:#181818;stroke-width:1.5;"/><polygon fill="#181818" points="390.75,156.9219,400.75,160.9219,390.75,164.9219,394.75,160.9219" style="stroke:#181818;stroke-width:1.0;"/><line style="stroke:#181818;stroke-width:1.0;" x1="258.75" x2="396.75" y1="160.9219" y2="160.9219"/><text fill="#000000" font-family="sans-serif" font-size="13" lengthAdjust="spacing" textLength="120" x="265.75" y="156.0654">Insert Trade Request</text><!--SRC=[fP0n3u8m48Nt-nKNd65oSd1GC64L4rbFE6EJKh0z1V-zHIinqS74JlU-Q- -zgoZHZ3jBDLiiCHkewJo80ohVgdJbHMuSMtaotFBvmauyBiRALEF3TMk4bF7ZD5zP0tHaHLMg8oCOPOEmDQGZ98VhUMwytEYsJuhsA3rPBcvEk779w-9J0npQ0QCG9SBP_gI40VsfIUX0ZgUk3_gO7cHOwSCWj9CfxuJI5R2fqJi2mEyPCLx-uucBhvyBS0S0]--></g></svg>