<?xml version="1.0" encoding="us-ascii" standalone="no"?><svg xmlns="http://www.w3.org/2000/svg" xmlns:xlink="http://www.w3.org/1999/xlink" contentStyleType="text/css" height="570px" preserveAspectRatio="none" style="width:804px;height:570px;background:#FFFFFF;" version="1.1" viewBox="0 0 804 570" width="804px" zoomAndPan="magnify"><defs/><g><text fill="#000000" font-family="sans-serif" font-size="14" font-weight="bold" lengthAdjust="spacing" textLength="776" x="10" y="29.5332">E Commerce Platform - Generate Demand - Storefront - Storefront App - Checkout - Sequence - Container level</text><rect fill="#FFFFFF" height="512.4375" style="stroke:#181818;stroke-width:0.5;" width="242.5" x="337" y="44.6094"/><text fill="#000000" font-family="sans-serif" font-size="13" font-weight="bold" lengthAdjust="spacing" textLength="88" x="414.25" y="58.1045">Order Service</text><rect fill="#FFFFFF" height="512.4375" style="stroke:#181818;stroke-width:0.5;" width="164.5" x="581.5" y="44.6094"/><text fill="#000000" font-family="sans-serif" font-size="13" font-weight="bold" lengthAdjust="spacing" textLength="94" x="616.75" y="58.1045">Basket Service</text><rect fill="none" height="297.5156" style="stroke:#000000;stroke-width:1.5;" width="687" x="85" y="175.9219"/><rect fill="none" height="234.8125" style="stroke:#000000;stroke-width:1.5;" width="561" x="201" y="231.625"/><rect fill="none" height="79.0547" style="stroke:#000000;stroke-width:1.5;" width="254.5" x="331" y="287.3281"/><rect fill="none" height="48.7031" style="stroke:#000000;stroke-width:1.5;" width="176.5" x="575.5" y="410.7344"/><line style="stroke:#181818;stroke-width:0.5;stroke-dasharray:5.0,5.0;" x1="52" x2="52" y1="128.5703" y2="490.4375"/><line style="stroke:#181818;stroke-width:0.5;stroke-dasharray:5.0,5.0;" x1="148" x2="148" y1="128.5703" y2="490.4375"/><line style="stroke:#181818;stroke-width:0.5;stroke-dasharray:5.0,5.0;" x1="260" x2="260" y1="128.5703" y2="490.4375"/><line style="stroke:#181818;stroke-width:0.5;stroke-dasharray:5.0,5.0;" x1="358" x2="358" y1="128.5703" y2="490.4375"/><line style="stroke:#181818;stroke-width:0.5;stroke-dasharray:5.0,5.0;" x1="449.5" x2="449.5" y1="128.5703" y2="490.4375"/><line style="stroke:#181818;stroke-width:0.5;stroke-dasharray:5.0,5.0;" x1="534.5" x2="534.5" y1="128.5703" y2="490.4375"/><line style="stroke:#181818;stroke-width:0.5;stroke-dasharray:5.0,5.0;" x1="602.5" x2="602.5" y1="128.5703" y2="490.4375"/><line style="stroke:#181818;stroke-width:0.5;stroke-dasharray:5.0,5.0;" x1="708" x2="708" y1="128.5703" y2="490.4375"/><rect fill="#E2E2F0" height="31.6094" rx="2.5" ry="2.5" style="stroke:#181818;stroke-width:0.5;" width="65" x="20" y="95.9609"/><text fill="#000000" font-family="sans-serif" font-size="14" lengthAdjust="spacing" textLength="51" x="27" y="117.4941">External</text><rect fill="#E2E2F0" height="31.6094" rx="2.5" ry="2.5" style="stroke:#181818;stroke-width:0.5;" width="65" x="20" y="489.4375"/><text fill="#000000" font-family="sans-serif" font-size="14" lengthAdjust="spacing" textLength="51" x="27" y="510.9707">External</text><rect fill="#E2E2F0" height="31.6094" rx="2.5" ry="2.5" style="stroke:#181818;stroke-width:0.5;" width="106" x="95" y="95.9609"/><text fill="#000000" font-family="sans-serif" font-size="14" lengthAdjust="spacing" textLength="92" x="102" y="117.4941">Storefront App</text><rect fill="#E2E2F0" height="31.6094" rx="2.5" ry="2.5" style="stroke:#181818;stroke-width:0.5;" width="106" x="95" y="489.4375"/><text fill="#000000" font-family="sans-serif" font-size="14" lengthAdjust="spacing" textLength="92" x="102" y="510.9707">Storefront App</text><rect fill="#E2E2F0" height="31.6094" rx="2.5" ry="2.5" style="stroke:#181818;stroke-width:0.5;" width="98" x="211" y="95.9609"/><text fill="#000000" font-family="sans-serif" font-size="14" lengthAdjust="spacing" textLength="84" x="218" y="117.4941">Storefront Bff</text><rect fill="#E2E2F0" height="31.6094" rx="2.5" ry="2.5" style="stroke:#181818;stroke-width:0.5;" width="98" x="211" y="489.4375"/><text fill="#000000" font-family="sans-serif" font-size="14" lengthAdjust="spacing" textLength="84" x="218" y="510.9707">Storefront Bff</text><rect fill="#E2E2F0" height="31.6094" rx="2.5" ry="2.5" style="stroke:#181818;stroke-width:0.5;" width="34" x="341" y="95.9609"/><text fill="#000000" font-family="sans-serif" font-size="14" lengthAdjust="spacing" textLength="20" x="348" y="117.4941">Api</text><rect fill="#E2E2F0" height="31.6094" rx="2.5" ry="2.5" style="stroke:#181818;stroke-width:0.5;" width="34" x="341" y="489.4375"/><text fill="#000000" font-family="sans-serif" font-size="14" lengthAdjust="spacing" textLength="20" x="348" y="510.9707">Api</text><text fill="#000000" font-family="sans-serif" font-size="14" lengthAdjust="spacing" textLength="61" x="416.5" y="125.4941">Database</text><path d="M432,74.9609 C432,64.9609 450,64.9609 450,64.9609 C450,64.9609 468,64.9609 468,74.9609 L468,100.9609 C468,110.9609 450,110.9609 450,110.9609 C450,110.9609 432,110.9609 432,100.9609 L432,74.9609 " fill="#E2E2F0" style="stroke:#181818;stroke-width:1.5;"/><path d="M432,74.9609 C432,84.9609 450,84.9609 450,84.9609 C450,84.9609 468,84.9609 468,74.9609 " fill="none" style="stroke:#181818;stroke-width:1.5;"/><text fill="#000000" font-family="sans-serif" font-size="14" lengthAdjust="spacing" textLength="61" x="416.5" y="503.9707">Database</text><path d="M432,517.0469 C432,507.0469 450,507.0469 450,507.0469 C450,507.0469 468,507.0469 468,517.0469 L468,543.0469 C468,553.0469 450,553.0469 450,553.0469 C450,553.0469 432,553.0469 432,543.0469 L432,517.0469 " fill="#E2E2F0" style="stroke:#181818;stroke-width:1.5;"/><path d="M432,517.0469 C432,527.0469 450,527.0469 450,527.0469 C450,527.0469 468,527.0469 468,517.0469 " fill="none" style="stroke:#181818;stroke-width:1.5;"/><rect fill="#E2E2F0" height="31.6094" rx="2.5" ry="2.5" style="stroke:#181818;stroke-width:0.5;" width="82" x="493.5" y="95.9609"/><text fill="#000000" font-family="sans-serif" font-size="14" lengthAdjust="spacing" textLength="68" x="500.5" y="117.4941">Messaging</text><rect fill="#E2E2F0" height="31.6094" rx="2.5" ry="2.5" style="stroke:#181818;stroke-width:0.5;" width="82" x="493.5" y="489.4375"/><text fill="#000000" font-family="sans-serif" font-size="14" lengthAdjust="spacing" textLength="68" x="500.5" y="510.9707">Messaging</text><rect fill="#E2E2F0" height="31.6094" rx="2.5" ry="2.5" style="stroke:#181818;stroke-width:0.5;" width="34" x="585.5" y="95.9609"/><text fill="#000000" font-family="sans-serif" font-size="14" lengthAdjust="spacing" textLength="20" x="592.5" y="117.4941">Api</text><rect fill="#E2E2F0" height="31.6094" rx="2.5" ry="2.5" style="stroke:#181818;stroke-width:0.5;" width="34" x="585.5" y="489.4375"/><text fill="#000000" font-family="sans-serif" font-size="14" lengthAdjust="spacing" textLength="20" x="592.5" y="510.9707">Api</text><text fill="#000000" font-family="sans-serif" font-size="14" lengthAdjust="spacing" textLength="61" x="675" y="125.4941">Database</text><path d="M690.5,74.9609 C690.5,64.9609 708.5,64.9609 708.5,64.9609 C708.5,64.9609 726.5,64.9609 726.5,74.9609 L726.5,100.9609 C726.5,110.9609 708.5,110.9609 708.5,110.9609 C708.5,110.9609 690.5,110.9609 690.5,100.9609 L690.5,74.9609 " fill="#E2E2F0" style="stroke:#181818;stroke-width:1.5;"/><path d="M690.5,74.9609 C690.5,84.9609 708.5,84.9609 708.5,84.9609 C708.5,84.9609 726.5,84.9609 726.5,74.9609 " fill="none" style="stroke:#181818;stroke-width:1.5;"/><text fill="#000000" font-family="sans-serif" font-size="14" lengthAdjust="spacing" textLength="61" x="675" y="503.9707">Database</text><path d="M690.5,517.0469 C690.5,507.0469 708.5,507.0469 708.5,507.0469 C708.5,507.0469 726.5,507.0469 726.5,517.0469 L726.5,543.0469 C726.5,553.0469 708.5,553.0469 708.5,553.0469 C708.5,553.0469 690.5,553.0469 690.5,543.0469 L690.5,517.0469 " fill="#E2E2F0" style="stroke:#181818;stroke-width:1.5;"/><path d="M690.5,517.0469 C690.5,527.0469 708.5,527.0469 708.5,527.0469 C708.5,527.0469 726.5,527.0469 726.5,517.0469 " fill="none" style="stroke:#181818;stroke-width:1.5;"/><polygon fill="#181818" points="136,156.9219,146,160.9219,136,164.9219,140,160.9219" style="stroke:#181818;stroke-width:1.0;"/><line style="stroke:#181818;stroke-width:1.0;" x1="52.5" x2="142" y1="160.9219" y2="160.9219"/><text fill="#000000" font-family="sans-serif" font-size="13" lengthAdjust="spacing" textLength="55" x="59.5" y="156.0654">Checkout</text><path d="M85,175.9219 L189,175.9219 L189,184.2734 L179,194.2734 L85,194.2734 L85,175.9219 " fill="#EEEEEE" style="stroke:#000000;stroke-width:1.5;"/><rect fill="none" height="297.5156" style="stroke:#000000;stroke-width:1.5;" width="687" x="85" y="175.9219"/><text fill="#000000" font-family="sans-serif" font-size="13" font-weight="bold" lengthAdjust="spacing" textLength="59" x="100" y="190.417">Checkout</text><polygon fill="#181818" points="248,212.625,258,216.625,248,220.625,252,216.625" style="stroke:#181818;stroke-width:1.0;"/><line style="stroke:#181818;stroke-width:1.0;" x1="148" x2="254" y1="216.625" y2="216.625"/><text fill="#000000" font-family="sans-serif" font-size="13" lengthAdjust="spacing" textLength="55" x="155" y="211.7686">Checkout</text><path d="M201,231.625 L305,231.625 L305,239.9766 L295,249.9766 L201,249.9766 L201,231.625 " fill="#EEEEEE" style="stroke:#000000;stroke-width:1.5;"/><rect fill="none" height="234.8125" style="stroke:#000000;stroke-width:1.5;" width="561" x="201" y="231.625"/><text fill="#000000" font-family="sans-serif" font-size="13" font-weight="bold" lengthAdjust="spacing" textLength="59" x="216" y="246.1201">Checkout</text><polygon fill="#181818" points="346,268.3281,356,272.3281,346,276.3281,350,272.3281" style="stroke:#181818;stroke-width:1.0;"/><line style="stroke:#181818;stroke-width:1.0;" x1="260" x2="352" y1="272.3281" y2="272.3281"/><text fill="#000000" font-family="sans-serif" font-size="13" lengthAdjust="spacing" textLength="74" x="267" y="267.4717">Create Order</text><path d="M331,287.3281 L458,287.3281 L458,295.6797 L448,305.6797 L331,305.6797 L331,287.3281 " fill="#EEEEEE" style="stroke:#000000;stroke-width:1.5;"/><rect fill="none" height="79.0547" style="stroke:#000000;stroke-width:1.5;" width="254.5" x="331" y="287.3281"/><text fill="#000000" font-family="sans-serif" font-size="13" font-weight="bold" lengthAdjust="spacing" textLength="82" x="346" y="301.8232">Create Order</text><polygon fill="#181818" points="438,324.0313,448,328.0313,438,332.0313,442,328.0313" style="stroke:#181818;stroke-width:1.0;"/><line style="stroke:#181818;stroke-width:1.0;" x1="358" x2="444" y1="328.0313" y2="328.0313"/><text fill="#000000" font-family="sans-serif" font-size="13" lengthAdjust="spacing" textLength="68" x="365" y="323.1748">Insert Order</text><polygon fill="#181818" points="522.5,354.3828,532.5,358.3828,522.5,362.3828,526.5,358.3828" style="stroke:#181818;stroke-width:1.0;"/><line style="stroke:#181818;stroke-width:1.0;" x1="358" x2="528.5" y1="358.3828" y2="358.3828"/><text fill="#000000" font-family="sans-serif" font-size="13" lengthAdjust="spacing" textLength="151" x="365" y="353.5264">Send Order Created Event</text><polygon fill="#181818" points="590.5,391.7344,600.5,395.7344,590.5,399.7344,594.5,395.7344" style="stroke:#181818;stroke-width:1.0;"/><line style="stroke:#181818;stroke-width:1.0;" x1="260" x2="596.5" y1="395.7344" y2="395.7344"/><text fill="#000000" font-family="sans-serif" font-size="13" lengthAdjust="spacing" textLength="82" x="267" y="390.8779">Delete Basket</text><path d="M575.5,410.7344 L707.5,410.7344 L707.5,419.0859 L697.5,429.0859 L575.5,429.0859 L575.5,410.7344 " fill="#EEEEEE" style="stroke:#000000;stroke-width:1.5;"/><rect fill="none" height="48.7031" style="stroke:#000000;stroke-width:1.5;" width="176.5" x="575.5" y="410.7344"/><text fill="#000000" font-family="sans-serif" font-size="13" font-weight="bold" lengthAdjust="spacing" textLength="87" x="590.5" y="425.2295">Delete Basket</text><polygon fill="#181818" points="696.5,447.4375,706.5,451.4375,696.5,455.4375,700.5,451.4375" style="stroke:#181818;stroke-width:1.0;"/><line style="stroke:#181818;stroke-width:1.0;" x1="602.5" x2="702.5" y1="451.4375" y2="451.4375"/><text fill="#000000" font-family="sans-serif" font-size="13" lengthAdjust="spacing" textLength="82" x="609.5" y="446.5811">Delete Basket</text><!--SRC=[rLLBRuCm3BxdLrZiN4uxxJ2f3pRrK6qIXvrJC2mg92n97_ltCuz0KJUfsyYa8I5Xn_a-VzXEhB05GWHBLPQe4uJdWjjCwH9cy8WIDRS8AoovJCaJMwKnqqhQiJ6lAd8iNp7PgNspXczxb0H7NWhWWf2Wm0CMZ5LSMv68YjF683fPr98N0N03ozkr9FEXKCSmLfazSetnkx5Ocj05jlOOP9n90nKvGKvFwDIqOi9XpmNLi4HeNp8jicn29a9ZRAjE43pfbFvLZFeW4WpWvkLLM6H0poYJUIMkes_mDbpo74ly98TclQCB-sAPa0WQrfHRlkK68LXrNtvv7Skbv0qQmtCXSxy9z3GCgUcf9gohp8AR7Te9IzC2NYJMkZsKvBjyVIc67t7zYCBiVhefXBl-T66vLljgCAVZc2nX6cRl2TSSroJyY_6lDMYiBu0coEauTtcbzodFjJPfN4k3slvtGVsfHOhYUbxRUwIjLWhHWS3gEVxZzll14KS2LbWWzLWRrVNTsEU5s8UWiqORAwXhuLxs0G00]--></g></svg>