<?xml version="1.0" encoding="us-ascii" standalone="no"?><svg xmlns="http://www.w3.org/2000/svg" xmlns:xlink="http://www.w3.org/1999/xlink" contentStyleType="text/css" height="570px" preserveAspectRatio="none" style="width:804px;height:570px;background:#FFFFFF;" version="1.1" viewBox="0 0 804 570" width="804px" zoomAndPan="magnify"><defs/><g><text fill="#000000" font-family="sans-serif" font-size="14" font-weight="bold" lengthAdjust="spacing" textLength="776" x="10" y="29.5332">E Commerce Platform - Generate Demand - Storefront - Storefront App - Checkout - Sequence - Container level</text><rect fill="#FFFFFF" height="512.4375" style="stroke:#181818;stroke-width:0.5;" width="248.5" x="334" y="44.6094"/><text fill="#000000" font-family="sans-serif" font-size="13" font-weight="bold" lengthAdjust="spacing" textLength="88" x="414.25" y="58.1045">Order Service</text><rect fill="#FFFFFF" height="512.4375" style="stroke:#181818;stroke-width:0.5;" width="164.5" x="584.5" y="44.6094"/><text fill="#000000" font-family="sans-serif" font-size="13" font-weight="bold" lengthAdjust="spacing" textLength="94" x="619.75" y="58.1045">Basket Service</text><rect fill="none" height="297.5156" style="stroke:#000000;stroke-width:1.5;" width="693" x="82" y="175.9219"/><rect fill="none" height="234.8125" style="stroke:#000000;stroke-width:1.5;" width="567" x="198" y="231.625"/><rect fill="none" height="79.0547" style="stroke:#000000;stroke-width:1.5;" width="260.5" x="328" y="287.3281"/><rect fill="none" height="48.7031" style="stroke:#000000;stroke-width:1.5;" width="176.5" x="578.5" y="410.7344"/><line style="stroke:#181818;stroke-width:0.5;stroke-dasharray:5.0,5.0;" x1="49" x2="49" y1="128.5703" y2="490.4375"/><line style="stroke:#181818;stroke-width:0.5;stroke-dasharray:5.0,5.0;" x1="145" x2="145" y1="128.5703" y2="490.4375"/><line style="stroke:#181818;stroke-width:0.5;stroke-dasharray:5.0,5.0;" x1="257" x2="257" y1="128.5703" y2="490.4375"/><line style="stroke:#181818;stroke-width:0.5;stroke-dasharray:5.0,5.0;" x1="355" x2="355" y1="128.5703" y2="490.4375"/><line style="stroke:#181818;stroke-width:0.5;stroke-dasharray:5.0,5.0;" x1="446.5" x2="446.5" y1="128.5703" y2="490.4375"/><line style="stroke:#181818;stroke-width:0.5;stroke-dasharray:5.0,5.0;" x1="534.5" x2="534.5" y1="128.5703" y2="490.4375"/><line style="stroke:#181818;stroke-width:0.5;stroke-dasharray:5.0,5.0;" x1="605.5" x2="605.5" y1="128.5703" y2="490.4375"/><line style="stroke:#181818;stroke-width:0.5;stroke-dasharray:5.0,5.0;" x1="711" x2="711" y1="128.5703" y2="490.4375"/><rect fill="#E2E2F0" height="31.6094" rx="2.5" ry="2.5" style="stroke:#181818;stroke-width:0.5;" width="65" x="17" y="95.9609"/><text fill="#000000" font-family="sans-serif" font-size="14" lengthAdjust="spacing" textLength="51" x="24" y="117.4941">External</text><rect fill="#E2E2F0" height="31.6094" rx="2.5" ry="2.5" style="stroke:#181818;stroke-width:0.5;" width="65" x="17" y="489.4375"/><text fill="#000000" font-family="sans-serif" font-size="14" lengthAdjust="spacing" textLength="51" x="24" y="510.9707">External</text><rect fill="#E2E2F0" height="31.6094" rx="2.5" ry="2.5" style="stroke:#181818;stroke-width:0.5;" width="106" x="92" y="95.9609"/><text fill="#000000" font-family="sans-serif" font-size="14" lengthAdjust="spacing" textLength="92" x="99" y="117.4941">Storefront App</text><rect fill="#E2E2F0" height="31.6094" rx="2.5" ry="2.5" style="stroke:#181818;stroke-width:0.5;" width="106" x="92" y="489.4375"/><text fill="#000000" font-family="sans-serif" font-size="14" lengthAdjust="spacing" textLength="92" x="99" y="510.9707">Storefront App</text><rect fill="#E2E2F0" height="31.6094" rx="2.5" ry="2.5" style="stroke:#181818;stroke-width:0.5;" width="98" x="208" y="95.9609"/><text fill="#000000" font-family="sans-serif" font-size="14" lengthAdjust="spacing" textLength="84" x="215" y="117.4941">Storefront Bff</text><rect fill="#E2E2F0" height="31.6094" rx="2.5" ry="2.5" style="stroke:#181818;stroke-width:0.5;" width="98" x="208" y="489.4375"/><text fill="#000000" font-family="sans-serif" font-size="14" lengthAdjust="spacing" textLength="84" x="215" y="510.9707">Storefront Bff</text><rect fill="#E2E2F0" height="31.6094" rx="2.5" ry="2.5" style="stroke:#181818;stroke-width:0.5;" width="34" x="338" y="95.9609"/><text fill="#000000" font-family="sans-serif" font-size="14" lengthAdjust="spacing" textLength="20" x="345" y="117.4941">Api</text><rect fill="#E2E2F0" height="31.6094" rx="2.5" ry="2.5" style="stroke:#181818;stroke-width:0.5;" width="34" x="338" y="489.4375"/><text fill="#000000" font-family="sans-serif" font-size="14" lengthAdjust="spacing" textLength="20" x="345" y="510.9707">Api</text><text fill="#000000" font-family="sans-serif" font-size="14" lengthAdjust="spacing" textLength="61" x="413.5" y="125.4941">Database</text><path d="M429,74.9609 C429,64.9609 447,64.9609 447,64.9609 C447,64.9609 465,64.9609 465,74.9609 L465,100.9609 C465,110.9609 447,110.9609 447,110.9609 C447,110.9609 429,110.9609 429,100.9609 L429,74.9609 " fill="#E2E2F0" style="stroke:#181818;stroke-width:1.5;"/><path d="M429,74.9609 C429,84.9609 447,84.9609 447,84.9609 C447,84.9609 465,84.9609 465,74.9609 " fill="none" style="stroke:#181818;stroke-width:1.5;"/><text fill="#000000" font-family="sans-serif" font-size="14" lengthAdjust="spacing" textLength="61" x="413.5" y="503.9707">Database</text><path d="M429,517.0469 C429,507.0469 447,507.0469 447,507.0469 C447,507.0469 465,507.0469 465,517.0469 L465,543.0469 C465,553.0469 447,553.0469 447,553.0469 C447,553.0469 429,553.0469 429,543.0469 L429,517.0469 " fill="#E2E2F0" style="stroke:#181818;stroke-width:1.5;"/><path d="M429,517.0469 C429,527.0469 447,527.0469 447,527.0469 C447,527.0469 465,527.0469 465,517.0469 " fill="none" style="stroke:#181818;stroke-width:1.5;"/><path d="M495.5,100.9609 L573.5,100.9609 C578.5,100.9609 578.5,114.7656 578.5,114.7656 C578.5,114.7656 578.5,128.5703 573.5,128.5703 L495.5,128.5703 C490.5,128.5703 490.5,114.7656 490.5,114.7656 C490.5,114.7656 490.5,100.9609 495.5,100.9609 " fill="#E2E2F0" style="stroke:#181818;stroke-width:0.5;"/><path d="M573.5,100.9609 C568.5,100.9609 568.5,114.7656 568.5,114.7656 C568.5,128.5703 573.5,128.5703 573.5,128.5703 " fill="none" style="stroke:#181818;stroke-width:0.5;"/><text fill="#000000" font-family="sans-serif" font-size="14" lengthAdjust="spacing" textLength="68" x="495.5" y="120.4941">Messaging</text><path d="M495.5,489.4375 L573.5,489.4375 C578.5,489.4375 578.5,503.2422 578.5,503.2422 C578.5,503.2422 578.5,517.0469 573.5,517.0469 L495.5,517.0469 C490.5,517.0469 490.5,503.2422 490.5,503.2422 C490.5,503.2422 490.5,489.4375 495.5,489.4375 " fill="#E2E2F0" style="stroke:#181818;stroke-width:0.5;"/><path d="M573.5,489.4375 C568.5,489.4375 568.5,503.2422 568.5,503.2422 C568.5,517.0469 573.5,517.0469 573.5,517.0469 " fill="none" style="stroke:#181818;stroke-width:0.5;"/><text fill="#000000" font-family="sans-serif" font-size="14" lengthAdjust="spacing" textLength="68" x="495.5" y="508.9707">Messaging</text><rect fill="#E2E2F0" height="31.6094" rx="2.5" ry="2.5" style="stroke:#181818;stroke-width:0.5;" width="34" x="588.5" y="95.9609"/><text fill="#000000" font-family="sans-serif" font-size="14" lengthAdjust="spacing" textLength="20" x="595.5" y="117.4941">Api</text><rect fill="#E2E2F0" height="31.6094" rx="2.5" ry="2.5" style="stroke:#181818;stroke-width:0.5;" width="34" x="588.5" y="489.4375"/><text fill="#000000" font-family="sans-serif" font-size="14" lengthAdjust="spacing" textLength="20" x="595.5" y="510.9707">Api</text><text fill="#000000" font-family="sans-serif" font-size="14" lengthAdjust="spacing" textLength="61" x="678" y="125.4941">Database</text><path d="M693.5,74.9609 C693.5,64.9609 711.5,64.9609 711.5,64.9609 C711.5,64.9609 729.5,64.9609 729.5,74.9609 L729.5,100.9609 C729.5,110.9609 711.5,110.9609 711.5,110.9609 C711.5,110.9609 693.5,110.9609 693.5,100.9609 L693.5,74.9609 " fill="#E2E2F0" style="stroke:#181818;stroke-width:1.5;"/><path d="M693.5,74.9609 C693.5,84.9609 711.5,84.9609 711.5,84.9609 C711.5,84.9609 729.5,84.9609 729.5,74.9609 " fill="none" style="stroke:#181818;stroke-width:1.5;"/><text fill="#000000" font-family="sans-serif" font-size="14" lengthAdjust="spacing" textLength="61" x="678" y="503.9707">Database</text><path d="M693.5,517.0469 C693.5,507.0469 711.5,507.0469 711.5,507.0469 C711.5,507.0469 729.5,507.0469 729.5,517.0469 L729.5,543.0469 C729.5,553.0469 711.5,553.0469 711.5,553.0469 C711.5,553.0469 693.5,553.0469 693.5,543.0469 L693.5,517.0469 " fill="#E2E2F0" style="stroke:#181818;stroke-width:1.5;"/><path d="M693.5,517.0469 C693.5,527.0469 711.5,527.0469 711.5,527.0469 C711.5,527.0469 729.5,527.0469 729.5,517.0469 " fill="none" style="stroke:#181818;stroke-width:1.5;"/><polygon fill="#181818" points="133,156.9219,143,160.9219,133,164.9219,137,160.9219" style="stroke:#181818;stroke-width:1.0;"/><line style="stroke:#181818;stroke-width:1.0;" x1="49.5" x2="139" y1="160.9219" y2="160.9219"/><text fill="#000000" font-family="sans-serif" font-size="13" lengthAdjust="spacing" textLength="55" x="56.5" y="156.0654">Checkout</text><path d="M82,175.9219 L186,175.9219 L186,184.2734 L176,194.2734 L82,194.2734 L82,175.9219 " fill="#EEEEEE" style="stroke:#000000;stroke-width:1.5;"/><rect fill="none" height="297.5156" style="stroke:#000000;stroke-width:1.5;" width="693" x="82" y="175.9219"/><text fill="#000000" font-family="sans-serif" font-size="13" font-weight="bold" lengthAdjust="spacing" textLength="59" x="97" y="190.417">Checkout</text><polygon fill="#181818" points="245,212.625,255,216.625,245,220.625,249,216.625" style="stroke:#181818;stroke-width:1.0;"/><line style="stroke:#181818;stroke-width:1.0;" x1="145" x2="251" y1="216.625" y2="216.625"/><text fill="#000000" font-family="sans-serif" font-size="13" lengthAdjust="spacing" textLength="55" x="152" y="211.7686">Checkout</text><path d="M198,231.625 L302,231.625 L302,239.9766 L292,249.9766 L198,249.9766 L198,231.625 " fill="#EEEEEE" style="stroke:#000000;stroke-width:1.5;"/><rect fill="none" height="234.8125" style="stroke:#000000;stroke-width:1.5;" width="567" x="198" y="231.625"/><text fill="#000000" font-family="sans-serif" font-size="13" font-weight="bold" lengthAdjust="spacing" textLength="59" x="213" y="246.1201">Checkout</text><polygon fill="#181818" points="343,268.3281,353,272.3281,343,276.3281,347,272.3281" style="stroke:#181818;stroke-width:1.0;"/><line style="stroke:#181818;stroke-width:1.0;" x1="257" x2="349" y1="272.3281" y2="272.3281"/><text fill="#000000" font-family="sans-serif" font-size="13" lengthAdjust="spacing" textLength="74" x="264" y="267.4717">Create Order</text><path d="M328,287.3281 L455,287.3281 L455,295.6797 L445,305.6797 L328,305.6797 L328,287.3281 " fill="#EEEEEE" style="stroke:#000000;stroke-width:1.5;"/><rect fill="none" height="79.0547" style="stroke:#000000;stroke-width:1.5;" width="260.5" x="328" y="287.3281"/><text fill="#000000" font-family="sans-serif" font-size="13" font-weight="bold" lengthAdjust="spacing" textLength="82" x="343" y="301.8232">Create Order</text><polygon fill="#181818" points="435,324.0313,445,328.0313,435,332.0313,439,328.0313" style="stroke:#181818;stroke-width:1.0;"/><line style="stroke:#181818;stroke-width:1.0;" x1="355" x2="441" y1="328.0313" y2="328.0313"/><text fill="#000000" font-family="sans-serif" font-size="13" lengthAdjust="spacing" textLength="68" x="362" y="323.1748">Insert Order</text><polygon fill="#181818" points="522.5,354.3828,532.5,358.3828,522.5,362.3828,526.5,358.3828" style="stroke:#181818;stroke-width:1.0;"/><line style="stroke:#181818;stroke-width:1.0;" x1="355" x2="528.5" y1="358.3828" y2="358.3828"/><text fill="#000000" font-family="sans-serif" font-size="13" lengthAdjust="spacing" textLength="151" x="362" y="353.5264">Send Order Created Event</text><polygon fill="#181818" points="593.5,391.7344,603.5,395.7344,593.5,399.7344,597.5,395.7344" style="stroke:#181818;stroke-width:1.0;"/><line style="stroke:#181818;stroke-width:1.0;" x1="257" x2="599.5" y1="395.7344" y2="395.7344"/><text fill="#000000" font-family="sans-serif" font-size="13" lengthAdjust="spacing" textLength="82" x="264" y="390.8779">Delete Basket</text><path d="M578.5,410.7344 L710.5,410.7344 L710.5,419.0859 L700.5,429.0859 L578.5,429.0859 L578.5,410.7344 " fill="#EEEEEE" style="stroke:#000000;stroke-width:1.5;"/><rect fill="none" height="48.7031" style="stroke:#000000;stroke-width:1.5;" width="176.5" x="578.5" y="410.7344"/><text fill="#000000" font-family="sans-serif" font-size="13" font-weight="bold" lengthAdjust="spacing" textLength="87" x="593.5" y="425.2295">Delete Basket</text><polygon fill="#181818" points="699.5,447.4375,709.5,451.4375,699.5,455.4375,703.5,451.4375" style="stroke:#181818;stroke-width:1.0;"/><line style="stroke:#181818;stroke-width:1.0;" x1="605.5" x2="705.5" y1="451.4375" y2="451.4375"/><text fill="#000000" font-family="sans-serif" font-size="13" lengthAdjust="spacing" textLength="82" x="612.5" y="446.5811">Delete Basket</text><!--SRC=[rPLDJyCm38Rl-HLMEQydJXoGzb7G3XD8FN3EMdT4QvEIfDluzxWVQLSDf04D4fCcBKxwFdvhExF2vWWHB5LHe4uGddDkCwKBcC4ZIjJS8gomu3AbI6oLnamhQSUBULbIOFcAoLvLpHw-LIX9Zg9qW0jIWXmFc3DMScr58afE3mRHoQAMF0-06rZUhYKj7t9r36ELsIFN6ByRYuK9tS5sFHOPPz98HSwGynCwDwsPS7Zc0ZLiaTgNf4MMJKWYDSQswWJ1aqxfNSMe3oB106vUNeL51lGPPJ8lnNNuHc_39TzXWP_aqEntkB0lbWa9q51JRlcM6uHWrVtootMK1avTL15vWyRmdP0xl-WUmv3QdQh1kfeikDcZdR0ehU15OctOGp6-o-kBCBo8wuSJPlVJpH_SzVSAssbLbSDoEiPa2TCOUq-uPboJy2y6l_QWiRxwcqFEntd8AzwdFTVQv74j3MhxtmtrjnOvYkjvRVz1scgb41r8h9xZFsw_7rnnP625ELAFjQUwlXl7l81z63fhjB63kXRkopu0]--></g></svg>