<?xml version="1.0" encoding="us-ascii" standalone="no"?><svg xmlns="http://www.w3.org/2000/svg" xmlns:xlink="http://www.w3.org/1999/xlink" contentStyleType="text/css" height="513px" preserveAspectRatio="none" style="width:790px;height:513px;background:#FFFFFF;" version="1.1" viewBox="0 0 790 513" width="790px" zoomAndPan="magnify"><defs/><g><text fill="#000000" font-family="sans-serif" font-size="14" font-weight="bold" lengthAdjust="spacing" textLength="762" x="10" y="29.5332">E Commerce Platform - Generate Demand - Storefront - Storefront App - Checkout - Sequence - Context level</text><rect fill="none" height="336.5156" style="stroke:#000000;stroke-width:1.5;" width="571" x="136" y="123.5703"/><rect fill="none" height="273.8125" style="stroke:#000000;stroke-width:1.5;" width="445" x="252" y="179.2734"/><rect fill="none" height="105.0547" style="stroke:#000000;stroke-width:1.5;" width="231" x="360" y="234.9766"/><rect fill="none" height="61.7031" style="stroke:#000000;stroke-width:1.5;" width="165" x="522" y="384.3828"/><line style="stroke:#181818;stroke-width:0.5;stroke-dasharray:5.0,5.0;" x1="103" x2="103" y1="76.2188" y2="477.0859"/><line style="stroke:#181818;stroke-width:0.5;stroke-dasharray:5.0,5.0;" x1="199" x2="199" y1="76.2188" y2="477.0859"/><line style="stroke:#181818;stroke-width:0.5;stroke-dasharray:5.0,5.0;" x1="311" x2="311" y1="76.2188" y2="477.0859"/><line style="stroke:#181818;stroke-width:0.5;stroke-dasharray:5.0,5.0;" x1="421" x2="421" y1="76.2188" y2="477.0859"/><line style="stroke:#181818;stroke-width:0.5;stroke-dasharray:5.0,5.0;" x1="586" x2="586" y1="76.2188" y2="477.0859"/><rect fill="#E2E2F0" height="31.6094" rx="2.5" ry="2.5" style="stroke:#181818;stroke-width:0.5;" width="65" x="71" y="43.6094"/><text fill="#000000" font-family="sans-serif" font-size="14" lengthAdjust="spacing" textLength="51" x="78" y="65.1426">External</text><rect fill="#E2E2F0" height="31.6094" rx="2.5" ry="2.5" style="stroke:#181818;stroke-width:0.5;" width="65" x="71" y="476.0859"/><text fill="#000000" font-family="sans-serif" font-size="14" lengthAdjust="spacing" textLength="51" x="78" y="497.6191">External</text><rect fill="#E2E2F0" height="31.6094" rx="2.5" ry="2.5" style="stroke:#181818;stroke-width:0.5;" width="106" x="146" y="43.6094"/><text fill="#000000" font-family="sans-serif" font-size="14" lengthAdjust="spacing" textLength="92" x="153" y="65.1426">Storefront App</text><rect fill="#E2E2F0" height="31.6094" rx="2.5" ry="2.5" style="stroke:#181818;stroke-width:0.5;" width="106" x="146" y="476.0859"/><text fill="#000000" font-family="sans-serif" font-size="14" lengthAdjust="spacing" textLength="92" x="153" y="497.6191">Storefront App</text><rect fill="#E2E2F0" height="31.6094" rx="2.5" ry="2.5" style="stroke:#181818;stroke-width:0.5;" width="98" x="262" y="43.6094"/><text fill="#000000" font-family="sans-serif" font-size="14" lengthAdjust="spacing" textLength="84" x="269" y="65.1426">Storefront Bff</text><rect fill="#E2E2F0" height="31.6094" rx="2.5" ry="2.5" style="stroke:#181818;stroke-width:0.5;" width="98" x="262" y="476.0859"/><text fill="#000000" font-family="sans-serif" font-size="14" lengthAdjust="spacing" textLength="84" x="269" y="497.6191">Storefront Bff</text><rect fill="#E2E2F0" height="31.6094" rx="2.5" ry="2.5" style="stroke:#181818;stroke-width:0.5;" width="102" x="370" y="43.6094"/><text fill="#000000" font-family="sans-serif" font-size="14" lengthAdjust="spacing" textLength="88" x="377" y="65.1426">Order Service</text><rect fill="#E2E2F0" height="31.6094" rx="2.5" ry="2.5" style="stroke:#181818;stroke-width:0.5;" width="102" x="370" y="476.0859"/><text fill="#000000" font-family="sans-serif" font-size="14" lengthAdjust="spacing" textLength="88" x="377" y="497.6191">Order Service</text><rect fill="#E2E2F0" height="31.6094" rx="2.5" ry="2.5" style="stroke:#181818;stroke-width:0.5;" width="108" x="532" y="43.6094"/><text fill="#000000" font-family="sans-serif" font-size="14" lengthAdjust="spacing" textLength="94" x="539" y="65.1426">Basket Service</text><rect fill="#E2E2F0" height="31.6094" rx="2.5" ry="2.5" style="stroke:#181818;stroke-width:0.5;" width="108" x="532" y="476.0859"/><text fill="#000000" font-family="sans-serif" font-size="14" lengthAdjust="spacing" textLength="94" x="539" y="497.6191">Basket Service</text><polygon fill="#181818" points="187,104.5703,197,108.5703,187,112.5703,191,108.5703" style="stroke:#181818;stroke-width:1.0;"/><line style="stroke:#181818;stroke-width:1.0;" x1="103.5" x2="193" y1="108.5703" y2="108.5703"/><text fill="#000000" font-family="sans-serif" font-size="13" lengthAdjust="spacing" textLength="55" x="110.5" y="103.7139">Checkout</text><path d="M136,123.5703 L240,123.5703 L240,131.9219 L230,141.9219 L136,141.9219 L136,123.5703 " fill="#EEEEEE" style="stroke:#000000;stroke-width:1.5;"/><rect fill="none" height="336.5156" style="stroke:#000000;stroke-width:1.5;" width="571" x="136" y="123.5703"/><text fill="#000000" font-family="sans-serif" font-size="13" font-weight="bold" lengthAdjust="spacing" textLength="59" x="151" y="138.0654">Checkout</text><polygon fill="#181818" points="299,160.2734,309,164.2734,299,168.2734,303,164.2734" style="stroke:#181818;stroke-width:1.0;"/><line style="stroke:#181818;stroke-width:1.0;" x1="199" x2="305" y1="164.2734" y2="164.2734"/><text fill="#000000" font-family="sans-serif" font-size="13" lengthAdjust="spacing" textLength="55" x="206" y="159.417">Checkout</text><path d="M252,179.2734 L356,179.2734 L356,187.625 L346,197.625 L252,197.625 L252,179.2734 " fill="#EEEEEE" style="stroke:#000000;stroke-width:1.5;"/><rect fill="none" height="273.8125" style="stroke:#000000;stroke-width:1.5;" width="445" x="252" y="179.2734"/><text fill="#000000" font-family="sans-serif" font-size="13" font-weight="bold" lengthAdjust="spacing" textLength="59" x="267" y="193.7686">Checkout</text><polygon fill="#181818" points="409,215.9766,419,219.9766,409,223.9766,413,219.9766" style="stroke:#181818;stroke-width:1.0;"/><line style="stroke:#181818;stroke-width:1.0;" x1="311" x2="415" y1="219.9766" y2="219.9766"/><text fill="#000000" font-family="sans-serif" font-size="13" lengthAdjust="spacing" textLength="74" x="318" y="215.1201">Create Order</text><path d="M360,234.9766 L487,234.9766 L487,243.3281 L477,253.3281 L360,253.3281 L360,234.9766 " fill="#EEEEEE" style="stroke:#000000;stroke-width:1.5;"/><rect fill="none" height="105.0547" style="stroke:#000000;stroke-width:1.5;" width="231" x="360" y="234.9766"/><text fill="#000000" font-family="sans-serif" font-size="13" font-weight="bold" lengthAdjust="spacing" textLength="82" x="375" y="249.4717">Create Order</text><line style="stroke:#181818;stroke-width:1.0;" x1="421" x2="463" y1="275.6797" y2="275.6797"/><line style="stroke:#181818;stroke-width:1.0;" x1="463" x2="463" y1="275.6797" y2="288.6797"/><line style="stroke:#181818;stroke-width:1.0;" x1="422" x2="463" y1="288.6797" y2="288.6797"/><polygon fill="#181818" points="432,284.6797,422,288.6797,432,292.6797,428,288.6797" style="stroke:#181818;stroke-width:1.0;"/><text fill="#000000" font-family="sans-serif" font-size="13" lengthAdjust="spacing" textLength="68" x="428" y="270.8232">Insert Order</text><line style="stroke:#181818;stroke-width:1.0;" x1="421" x2="463" y1="319.0313" y2="319.0313"/><line style="stroke:#181818;stroke-width:1.0;" x1="463" x2="463" y1="319.0313" y2="332.0313"/><line style="stroke:#181818;stroke-width:1.0;" x1="422" x2="463" y1="332.0313" y2="332.0313"/><polygon fill="#181818" points="432,328.0313,422,332.0313,432,336.0313,428,332.0313" style="stroke:#181818;stroke-width:1.0;"/><text fill="#000000" font-family="sans-serif" font-size="13" lengthAdjust="spacing" textLength="151" x="428" y="314.1748">Send Order Created Event</text><polygon fill="#181818" points="574,365.3828,584,369.3828,574,373.3828,578,369.3828" style="stroke:#181818;stroke-width:1.0;"/><line style="stroke:#181818;stroke-width:1.0;" x1="311" x2="580" y1="369.3828" y2="369.3828"/><text fill="#000000" font-family="sans-serif" font-size="13" lengthAdjust="spacing" textLength="82" x="318" y="364.5264">Delete Basket</text><path d="M522,384.3828 L654,384.3828 L654,392.7344 L644,402.7344 L522,402.7344 L522,384.3828 " fill="#EEEEEE" style="stroke:#000000;stroke-width:1.5;"/><rect fill="none" height="61.7031" style="stroke:#000000;stroke-width:1.5;" width="165" x="522" y="384.3828"/><text fill="#000000" font-family="sans-serif" font-size="13" font-weight="bold" lengthAdjust="spacing" textLength="87" x="537" y="398.8779">Delete Basket</text><line style="stroke:#181818;stroke-width:1.0;" x1="586" x2="628" y1="425.0859" y2="425.0859"/><line style="stroke:#181818;stroke-width:1.0;" x1="628" x2="628" y1="425.0859" y2="438.0859"/><line style="stroke:#181818;stroke-width:1.0;" x1="587" x2="628" y1="438.0859" y2="438.0859"/><polygon fill="#181818" points="597,434.0859,587,438.0859,597,442.0859,593,438.0859" style="stroke:#181818;stroke-width:1.0;"/><text fill="#000000" font-family="sans-serif" font-size="13" lengthAdjust="spacing" textLength="82" x="593" y="420.2295">Delete Basket</text><!--SRC=[rPHDReCm48NtdCBAFgowwg9IGsYLHTLAdC22HufYR39CVdhx3ZXkYj9AH2ALkc3XDvxvtjY3kM83bQh4rJKeXtepcaj7jPghPrYGPgWbQcqBKJ9sX9ASvU7YiMb4IDwHRzokZs6xWvLoeie675aPx66YgD74LLurMj9cwP51LfkPqgrAxbQoavwCEyIPA_cW2Tb7owZRE6pqws6HeO- -L1hQ2Tt4eHVVIdpEkK2TGrBjLzAYB2SaIRKXwPKAa9mYxQiSuq1zoeksUeqQFz3w-AdY4BRGxGPy7StdN42y72ZH-2jLyuVfRatTVyrYj2QtQyxBwHYJ6PRBlxdXZZ76y3L3r9acTEz3hmRZtwLfUJTeO6LR4FyNjnda5VPFWp_cGgLxoOj4_-D16VF_Y-Cb36GQl7oQaA4s3UbcbhkJ3L_q2G00]--></g></svg>