<?xml version="1.0" encoding="us-ascii" standalone="no"?><svg xmlns="http://www.w3.org/2000/svg" xmlns:xlink="http://www.w3.org/1999/xlink" contentStyleType="text/css" height="501px" preserveAspectRatio="none" style="width:804px;height:501px;background:#FFFFFF;" version="1.1" viewBox="0 0 804 501" width="804px" zoomAndPan="magnify"><defs/><g><text fill="#000000" font-family="sans-serif" font-size="14" font-weight="bold" lengthAdjust="spacing" textLength="776" x="10" y="29.5332">E Commerce Platform - Generate Demand - Storefront - Storefront App - Checkout - Sequence - Container level</text><rect fill="#FFFFFF" height="450.4375" style="stroke:#181818;stroke-width:0.5;" width="246.5" x="333" y="44.6094"/><text fill="#000000" font-family="sans-serif" font-size="13" font-weight="bold" lengthAdjust="spacing" textLength="88" x="412.25" y="58.1045">Order Service</text><rect fill="#FFFFFF" height="450.4375" style="stroke:#181818;stroke-width:0.5;" width="168.5" x="581.5" y="44.6094"/><text fill="#000000" font-family="sans-serif" font-size="13" font-weight="bold" lengthAdjust="spacing" textLength="94" x="618.75" y="58.1045">Basket Service</text><rect fill="none" height="297.5156" style="stroke:#000000;stroke-width:1.5;" width="695" x="81" y="144.9219"/><rect fill="none" height="234.8125" style="stroke:#000000;stroke-width:1.5;" width="569" x="197" y="200.625"/><rect fill="none" height="79.0547" style="stroke:#000000;stroke-width:1.5;" width="258.5" x="327" y="256.3281"/><rect fill="none" height="48.7031" style="stroke:#000000;stroke-width:1.5;" width="180.5" x="575.5" y="379.7344"/><line style="stroke:#181818;stroke-width:0.5;stroke-dasharray:5.0,5.0;" x1="48" x2="48" y1="97.5703" y2="459.4375"/><line style="stroke:#181818;stroke-width:0.5;stroke-dasharray:5.0,5.0;" x1="144" x2="144" y1="97.5703" y2="459.4375"/><line style="stroke:#181818;stroke-width:0.5;stroke-dasharray:5.0,5.0;" x1="256" x2="256" y1="97.5703" y2="459.4375"/><line style="stroke:#181818;stroke-width:0.5;stroke-dasharray:5.0,5.0;" x1="354" x2="354" y1="97.5703" y2="459.4375"/><line style="stroke:#181818;stroke-width:0.5;stroke-dasharray:5.0,5.0;" x1="445.5" x2="445.5" y1="97.5703" y2="459.4375"/><line style="stroke:#181818;stroke-width:0.5;stroke-dasharray:5.0,5.0;" x1="534.5" x2="534.5" y1="97.5703" y2="459.4375"/><line style="stroke:#181818;stroke-width:0.5;stroke-dasharray:5.0,5.0;" x1="602.5" x2="602.5" y1="97.5703" y2="459.4375"/><line style="stroke:#181818;stroke-width:0.5;stroke-dasharray:5.0,5.0;" x1="708" x2="708" y1="97.5703" y2="459.4375"/><rect fill="#E2E2F0" height="31.6094" rx="2.5" ry="2.5" style="stroke:#181818;stroke-width:0.5;" width="65" x="16" y="64.9609"/><text fill="#000000" font-family="sans-serif" font-size="14" lengthAdjust="spacing" textLength="51" x="23" y="86.4941">External</text><rect fill="#E2E2F0" height="31.6094" rx="2.5" ry="2.5" style="stroke:#181818;stroke-width:0.5;" width="65" x="16" y="458.4375"/><text fill="#000000" font-family="sans-serif" font-size="14" lengthAdjust="spacing" textLength="51" x="23" y="479.9707">External</text><rect fill="#E2E2F0" height="31.6094" rx="2.5" ry="2.5" style="stroke:#181818;stroke-width:0.5;" width="106" x="91" y="64.9609"/><text fill="#000000" font-family="sans-serif" font-size="14" lengthAdjust="spacing" textLength="92" x="98" y="86.4941">Storefront App</text><rect fill="#E2E2F0" height="31.6094" rx="2.5" ry="2.5" style="stroke:#181818;stroke-width:0.5;" width="106" x="91" y="458.4375"/><text fill="#000000" font-family="sans-serif" font-size="14" lengthAdjust="spacing" textLength="92" x="98" y="479.9707">Storefront App</text><rect fill="#E2E2F0" height="31.6094" rx="2.5" ry="2.5" style="stroke:#181818;stroke-width:0.5;" width="98" x="207" y="64.9609"/><text fill="#000000" font-family="sans-serif" font-size="14" lengthAdjust="spacing" textLength="84" x="214" y="86.4941">Storefront Bff</text><rect fill="#E2E2F0" height="31.6094" rx="2.5" ry="2.5" style="stroke:#181818;stroke-width:0.5;" width="98" x="207" y="458.4375"/><text fill="#000000" font-family="sans-serif" font-size="14" lengthAdjust="spacing" textLength="84" x="214" y="479.9707">Storefront Bff</text><rect fill="#E2E2F0" height="31.6094" rx="2.5" ry="2.5" style="stroke:#181818;stroke-width:0.5;" width="34" x="337" y="64.9609"/><text fill="#000000" font-family="sans-serif" font-size="14" lengthAdjust="spacing" textLength="20" x="344" y="86.4941">Api</text><rect fill="#E2E2F0" height="31.6094" rx="2.5" ry="2.5" style="stroke:#181818;stroke-width:0.5;" width="34" x="337" y="458.4375"/><text fill="#000000" font-family="sans-serif" font-size="14" lengthAdjust="spacing" textLength="20" x="344" y="479.9707">Api</text><rect fill="#E2E2F0" height="31.6094" rx="2.5" ry="2.5" style="stroke:#181818;stroke-width:0.5;" width="75" x="408.5" y="64.9609"/><text fill="#000000" font-family="sans-serif" font-size="14" lengthAdjust="spacing" textLength="61" x="415.5" y="86.4941">Database</text><rect fill="#E2E2F0" height="31.6094" rx="2.5" ry="2.5" style="stroke:#181818;stroke-width:0.5;" width="75" x="408.5" y="458.4375"/><text fill="#000000" font-family="sans-serif" font-size="14" lengthAdjust="spacing" textLength="61" x="415.5" y="479.9707">Database</text><rect fill="#E2E2F0" height="31.6094" rx="2.5" ry="2.5" style="stroke:#181818;stroke-width:0.5;" width="82" x="493.5" y="64.9609"/><text fill="#000000" font-family="sans-serif" font-size="14" lengthAdjust="spacing" textLength="68" x="500.5" y="86.4941">Messaging</text><rect fill="#E2E2F0" height="31.6094" rx="2.5" ry="2.5" style="stroke:#181818;stroke-width:0.5;" width="82" x="493.5" y="458.4375"/><text fill="#000000" font-family="sans-serif" font-size="14" lengthAdjust="spacing" textLength="68" x="500.5" y="479.9707">Messaging</text><rect fill="#E2E2F0" height="31.6094" rx="2.5" ry="2.5" style="stroke:#181818;stroke-width:0.5;" width="34" x="585.5" y="64.9609"/><text fill="#000000" font-family="sans-serif" font-size="14" lengthAdjust="spacing" textLength="20" x="592.5" y="86.4941">Api</text><rect fill="#E2E2F0" height="31.6094" rx="2.5" ry="2.5" style="stroke:#181818;stroke-width:0.5;" width="34" x="585.5" y="458.4375"/><text fill="#000000" font-family="sans-serif" font-size="14" lengthAdjust="spacing" textLength="20" x="592.5" y="479.9707">Api</text><rect fill="#E2E2F0" height="31.6094" rx="2.5" ry="2.5" style="stroke:#181818;stroke-width:0.5;" width="75" x="671" y="64.9609"/><text fill="#000000" font-family="sans-serif" font-size="14" lengthAdjust="spacing" textLength="61" x="678" y="86.4941">Database</text><rect fill="#E2E2F0" height="31.6094" rx="2.5" ry="2.5" style="stroke:#181818;stroke-width:0.5;" width="75" x="671" y="458.4375"/><text fill="#000000" font-family="sans-serif" font-size="14" lengthAdjust="spacing" textLength="61" x="678" y="479.9707">Database</text><polygon fill="#181818" points="132,125.9219,142,129.9219,132,133.9219,136,129.9219" style="stroke:#181818;stroke-width:1.0;"/><line style="stroke:#181818;stroke-width:1.0;" x1="48.5" x2="138" y1="129.9219" y2="129.9219"/><text fill="#000000" font-family="sans-serif" font-size="13" lengthAdjust="spacing" textLength="55" x="55.5" y="125.0654">Checkout</text><path d="M81,144.9219 L185,144.9219 L185,153.2734 L175,163.2734 L81,163.2734 L81,144.9219 " fill="#EEEEEE" style="stroke:#000000;stroke-width:1.5;"/><rect fill="none" height="297.5156" style="stroke:#000000;stroke-width:1.5;" width="695" x="81" y="144.9219"/><text fill="#000000" font-family="sans-serif" font-size="13" font-weight="bold" lengthAdjust="spacing" textLength="59" x="96" y="159.417">Checkout</text><polygon fill="#181818" points="244,181.625,254,185.625,244,189.625,248,185.625" style="stroke:#181818;stroke-width:1.0;"/><line style="stroke:#181818;stroke-width:1.0;" x1="144" x2="250" y1="185.625" y2="185.625"/><text fill="#000000" font-family="sans-serif" font-size="13" lengthAdjust="spacing" textLength="55" x="151" y="180.7686">Checkout</text><path d="M197,200.625 L301,200.625 L301,208.9766 L291,218.9766 L197,218.9766 L197,200.625 " fill="#EEEEEE" style="stroke:#000000;stroke-width:1.5;"/><rect fill="none" height="234.8125" style="stroke:#000000;stroke-width:1.5;" width="569" x="197" y="200.625"/><text fill="#000000" font-family="sans-serif" font-size="13" font-weight="bold" lengthAdjust="spacing" textLength="59" x="212" y="215.1201">Checkout</text><polygon fill="#181818" points="342,237.3281,352,241.3281,342,245.3281,346,241.3281" style="stroke:#181818;stroke-width:1.0;"/><line style="stroke:#181818;stroke-width:1.0;" x1="256" x2="348" y1="241.3281" y2="241.3281"/><text fill="#000000" font-family="sans-serif" font-size="13" lengthAdjust="spacing" textLength="74" x="263" y="236.4717">Create Order</text><path d="M327,256.3281 L454,256.3281 L454,264.6797 L444,274.6797 L327,274.6797 L327,256.3281 " fill="#EEEEEE" style="stroke:#000000;stroke-width:1.5;"/><rect fill="none" height="79.0547" style="stroke:#000000;stroke-width:1.5;" width="258.5" x="327" y="256.3281"/><text fill="#000000" font-family="sans-serif" font-size="13" font-weight="bold" lengthAdjust="spacing" textLength="82" x="342" y="270.8232">Create Order</text><polygon fill="#181818" points="434,293.0313,444,297.0313,434,301.0313,438,297.0313" style="stroke:#181818;stroke-width:1.0;"/><line style="stroke:#181818;stroke-width:1.0;" x1="354" x2="440" y1="297.0313" y2="297.0313"/><text fill="#000000" font-family="sans-serif" font-size="13" lengthAdjust="spacing" textLength="68" x="361" y="292.1748">Insert Order</text><polygon fill="#181818" points="522.5,323.3828,532.5,327.3828,522.5,331.3828,526.5,327.3828" style="stroke:#181818;stroke-width:1.0;"/><line style="stroke:#181818;stroke-width:1.0;" x1="354" x2="528.5" y1="327.3828" y2="327.3828"/><text fill="#000000" font-family="sans-serif" font-size="13" lengthAdjust="spacing" textLength="151" x="361" y="322.5264">Send Order Created Event</text><polygon fill="#181818" points="590.5,360.7344,600.5,364.7344,590.5,368.7344,594.5,364.7344" style="stroke:#181818;stroke-width:1.0;"/><line style="stroke:#181818;stroke-width:1.0;" x1="256" x2="596.5" y1="364.7344" y2="364.7344"/><text fill="#000000" font-family="sans-serif" font-size="13" lengthAdjust="spacing" textLength="82" x="263" y="359.8779">Delete Basket</text><path d="M575.5,379.7344 L707.5,379.7344 L707.5,388.0859 L697.5,398.0859 L575.5,398.0859 L575.5,379.7344 " fill="#EEEEEE" style="stroke:#000000;stroke-width:1.5;"/><rect fill="none" height="48.7031" style="stroke:#000000;stroke-width:1.5;" width="180.5" x="575.5" y="379.7344"/><text fill="#000000" font-family="sans-serif" font-size="13" font-weight="bold" lengthAdjust="spacing" textLength="87" x="590.5" y="394.2295">Delete Basket</text><polygon fill="#181818" points="696.5,416.4375,706.5,420.4375,696.5,424.4375,700.5,420.4375" style="stroke:#181818;stroke-width:1.0;"/><line style="stroke:#181818;stroke-width:1.0;" x1="602.5" x2="702.5" y1="420.4375" y2="420.4375"/><text fill="#000000" font-family="sans-serif" font-size="13" lengthAdjust="spacing" textLength="82" x="609.5" y="415.5811">Delete Basket</text><!--SRC=[rLKxRuCm4DxzAomwXwbJXqfvq2f3r4eCdI_a85R0fhRpwB_l0J44qKffWoiLYS7dy_VTvtlO2fiZZ_XS5GNg1Fbh3ZPLkk0J_emIDLZa2on0RiWIMwKnrKhQ_c9QbcIORp7PgNszX-zxb0H7Ld80GKWynmFcZ9MWhKX42NGmY4uMjOGyu63u_7ufQVcKgsCOgzGUGMFyOImM9dIEpReFqe-aXegS8ASdT6eQCM5tPa3LRH7QjqopD1sHYT0OMwiJ3rxqXkugHdqG2GRyxcqhB39ENo-IQIckew_nLY0XmmA_YA7UFzE5RR9CI0H3rWLOM8D1lzIEPSY_GcCW4pBp6q1Bmv3gdjB2picPWTcX7J4x3U0WiCRi9oi_fMopqTt5zOtA9u_ZzI9_Q6SCoxJQbzroF8xH0gQMzXvmnN5Dm3SCWKg3nkePg9sSZakJLtgVybnfayQbDAZjVnVK3YvI55VzshmcJROsF3eGMDN7Vrn-lvXo9621ELADDLxdkklRl13x47HHQ7q5LIxSppu1]--></g></svg>