<?xml version="1.0" encoding="us-ascii" standalone="no"?><svg xmlns="http://www.w3.org/2000/svg" xmlns:xlink="http://www.w3.org/1999/xlink" contentStyleType="text/css" height="312px" preserveAspectRatio="none" style="width:842px;height:312px;background:#FFFFFF;" version="1.1" viewBox="0 0 842 312" width="842px" zoomAndPan="magnify"><defs/><g><text fill="#000000" font-family="sans-serif" font-size="14" font-weight="bold" lengthAdjust="spacing" textLength="814" x="10" y="29.5332">ECommercePlatform - Order Service - Message Handler - Handle Payment Result Event - Sequence - Container level</text><rect fill="#FFFFFF" height="262.3281" style="stroke:#181818;stroke-width:0.5;" width="342.5" x="270.5" y="44.6094"/><text fill="#000000" font-family="sans-serif" font-size="13" font-weight="bold" lengthAdjust="spacing" textLength="88" x="397.75" y="58.1045">Order Service</text><rect fill="#FFFFFF" height="262.3281" style="stroke:#181818;stroke-width:0.5;" width="114" x="615" y="44.6094"/><text fill="#000000" font-family="sans-serif" font-size="13" font-weight="bold" lengthAdjust="spacing" textLength="108" x="618" y="58.1045">Payment Service</text><rect fill="none" height="109.4063" style="stroke:#000000;stroke-width:1.5;" width="458.5" x="264.5" y="144.9219"/><line style="stroke:#181818;stroke-width:0.5;stroke-dasharray:5.0,5.0;" x1="139" x2="139" y1="97.5703" y2="271.3281"/><line style="stroke:#181818;stroke-width:0.5;stroke-dasharray:5.0,5.0;" x1="336.5" x2="336.5" y1="97.5703" y2="271.3281"/><line style="stroke:#181818;stroke-width:0.5;stroke-dasharray:5.0,5.0;" x1="479" x2="479" y1="97.5703" y2="271.3281"/><line style="stroke:#181818;stroke-width:0.5;stroke-dasharray:5.0,5.0;" x1="568" x2="568" y1="97.5703" y2="271.3281"/><line style="stroke:#181818;stroke-width:0.5;stroke-dasharray:5.0,5.0;" x1="672" x2="672" y1="97.5703" y2="271.3281"/><rect fill="#E2E2F0" height="31.6094" rx="2.5" ry="2.5" style="stroke:#181818;stroke-width:0.5;" width="65" x="107" y="64.9609"/><text fill="#000000" font-family="sans-serif" font-size="14" lengthAdjust="spacing" textLength="51" x="114" y="86.4941">External</text><rect fill="#E2E2F0" height="31.6094" rx="2.5" ry="2.5" style="stroke:#181818;stroke-width:0.5;" width="65" x="107" y="270.3281"/><text fill="#000000" font-family="sans-serif" font-size="14" lengthAdjust="spacing" textLength="51" x="114" y="291.8613">External</text><rect fill="#E2E2F0" height="31.6094" rx="2.5" ry="2.5" style="stroke:#181818;stroke-width:0.5;" width="124" x="274.5" y="64.9609"/><text fill="#000000" font-family="sans-serif" font-size="14" lengthAdjust="spacing" textLength="110" x="281.5" y="86.4941">Message Handler</text><rect fill="#E2E2F0" height="31.6094" rx="2.5" ry="2.5" style="stroke:#181818;stroke-width:0.5;" width="124" x="274.5" y="270.3281"/><text fill="#000000" font-family="sans-serif" font-size="14" lengthAdjust="spacing" textLength="110" x="281.5" y="291.8613">Message Handler</text><rect fill="#E2E2F0" height="31.6094" rx="2.5" ry="2.5" style="stroke:#181818;stroke-width:0.5;" width="75" x="442" y="64.9609"/><text fill="#000000" font-family="sans-serif" font-size="14" lengthAdjust="spacing" textLength="61" x="449" y="86.4941">Database</text><rect fill="#E2E2F0" height="31.6094" rx="2.5" ry="2.5" style="stroke:#181818;stroke-width:0.5;" width="75" x="442" y="270.3281"/><text fill="#000000" font-family="sans-serif" font-size="14" lengthAdjust="spacing" textLength="61" x="449" y="291.8613">Database</text><rect fill="#E2E2F0" height="31.6094" rx="2.5" ry="2.5" style="stroke:#181818;stroke-width:0.5;" width="82" x="527" y="64.9609"/><text fill="#000000" font-family="sans-serif" font-size="14" lengthAdjust="spacing" textLength="68" x="534" y="86.4941">Messaging</text><rect fill="#E2E2F0" height="31.6094" rx="2.5" ry="2.5" style="stroke:#181818;stroke-width:0.5;" width="82" x="527" y="270.3281"/><text fill="#000000" font-family="sans-serif" font-size="14" lengthAdjust="spacing" textLength="68" x="534" y="291.8613">Messaging</text><rect fill="#E2E2F0" height="31.6094" rx="2.5" ry="2.5" style="stroke:#181818;stroke-width:0.5;" width="82" x="631" y="64.9609"/><text fill="#000000" font-family="sans-serif" font-size="14" lengthAdjust="spacing" textLength="68" x="638" y="86.4941">Messaging</text><rect fill="#E2E2F0" height="31.6094" rx="2.5" ry="2.5" style="stroke:#181818;stroke-width:0.5;" width="82" x="631" y="270.3281"/><text fill="#000000" font-family="sans-serif" font-size="14" lengthAdjust="spacing" textLength="68" x="638" y="291.8613">Messaging</text><polygon fill="#181818" points="324.5,125.9219,334.5,129.9219,324.5,133.9219,328.5,129.9219" style="stroke:#181818;stroke-width:1.0;"/><line style="stroke:#181818;stroke-width:1.0;" x1="139.5" x2="330.5" y1="129.9219" y2="129.9219"/><text fill="#000000" font-family="sans-serif" font-size="13" lengthAdjust="spacing" textLength="173" x="146.5" y="125.0654">Handle Payment Result Event</text><path d="M264.5,144.9219 L496.5,144.9219 L496.5,153.2734 L486.5,163.2734 L264.5,163.2734 L264.5,144.9219 " fill="#EEEEEE" style="stroke:#000000;stroke-width:1.5;"/><rect fill="none" height="109.4063" style="stroke:#000000;stroke-width:1.5;" width="458.5" x="264.5" y="144.9219"/><text fill="#000000" font-family="sans-serif" font-size="13" font-weight="bold" lengthAdjust="spacing" textLength="187" x="279.5" y="159.417">Handle Payment Result Event</text><polygon fill="#181818" points="660,181.625,670,185.625,660,189.625,664,185.625" style="stroke:#181818;stroke-width:1.0;"/><line style="stroke:#181818;stroke-width:1.0;" x1="336.5" x2="666" y1="185.625" y2="185.625"/><text fill="#000000" font-family="sans-serif" font-size="13" lengthAdjust="spacing" textLength="178" x="343.5" y="180.7686">Receive Payment Result Event</text><polygon fill="#181818" points="467.5,211.9766,477.5,215.9766,467.5,219.9766,471.5,215.9766" style="stroke:#181818;stroke-width:1.0;"/><line style="stroke:#181818;stroke-width:1.0;" x1="336.5" x2="473.5" y1="215.9766" y2="215.9766"/><text fill="#000000" font-family="sans-serif" font-size="13" lengthAdjust="spacing" textLength="119" x="343.5" y="211.1201">Update Order Status</text><polygon fill="#181818" points="556,242.3281,566,246.3281,556,250.3281,560,246.3281" style="stroke:#181818;stroke-width:1.0;"/><line style="stroke:#181818;stroke-width:1.0;" x1="336.5" x2="562" y1="246.3281" y2="246.3281"/><text fill="#000000" font-family="sans-serif" font-size="13" lengthAdjust="spacing" textLength="199" x="343.5" y="241.4717">Send Order Status Changed Event</text><!--SRC=[pLGxJyCm4DxzAuum9nCJ0qieeWEYQeIOhyarjUH7i2zfy-znWuDQAaeaEZIJJxxxNZxbfd5OQmI5lMqPl2P6WqAmP4KmowtMv4fQAEIrTHfIU7KLEIZ8TRAaKB-GzrWJFAEfLBX9umaMs6io34lohMAOTViY3PCVBPbXDBU6KPemfAWZ9KI3ZcKf6moToMp7v0og1D13VZSteNnITfiLTirRT5JqdadxR6pygeLOsHqaHp8Jk7tVI2O1uJiY-Q5-u3fnVS8uW4VixDk5po9Q13jbUqJ65Nhw9yq8yviTQUgB60auWam58L0HOnqVTMAmqvL4u8bQfgy3f0yNUr2uFxVRedQsRSvsN4p895CJ8WsEbbIIxAv2y5_x7jI-DHKoZJyXHcxzbOWypBJOR-gXHiWtQ6ggOgpXMeXF]--></g></svg>