<?xml version="1.0" encoding="us-ascii" standalone="no"?><svg xmlns="http://www.w3.org/2000/svg" xmlns:xlink="http://www.w3.org/1999/xlink" contentStyleType="text/css" height="312px" preserveAspectRatio="none" style="width:687px;height:312px;background:#FFFFFF;" version="1.1" viewBox="0 0 687 312" width="687px" zoomAndPan="magnify"><defs/><g><text fill="#000000" font-family="sans-serif" font-size="14" font-weight="bold" lengthAdjust="spacing" textLength="659" x="10" y="29.5332">Order Service - Message Handler - Handle Payment Result Event - Sequence - Container level</text><rect fill="#FFFFFF" height="262.3281" style="stroke:#181818;stroke-width:0.5;" width="342.5" x="193" y="44.6094"/><text fill="#000000" font-family="sans-serif" font-size="13" font-weight="bold" lengthAdjust="spacing" textLength="88" x="320.25" y="58.1045">Order Service</text><rect fill="#FFFFFF" height="262.3281" style="stroke:#181818;stroke-width:0.5;" width="114" x="537.5" y="44.6094"/><text fill="#000000" font-family="sans-serif" font-size="13" font-weight="bold" lengthAdjust="spacing" textLength="108" x="540.5" y="58.1045">Payment Service</text><rect fill="none" height="109.4063" style="stroke:#000000;stroke-width:1.5;" width="458.5" x="187" y="144.9219"/><line style="stroke:#181818;stroke-width:0.5;stroke-dasharray:5.0,5.0;" x1="61.5" x2="61.5" y1="97.5703" y2="271.3281"/><line style="stroke:#181818;stroke-width:0.5;stroke-dasharray:5.0,5.0;" x1="259" x2="259" y1="97.5703" y2="271.3281"/><line style="stroke:#181818;stroke-width:0.5;stroke-dasharray:5.0,5.0;" x1="401.5" x2="401.5" y1="97.5703" y2="271.3281"/><line style="stroke:#181818;stroke-width:0.5;stroke-dasharray:5.0,5.0;" x1="490.5" x2="490.5" y1="97.5703" y2="271.3281"/><line style="stroke:#181818;stroke-width:0.5;stroke-dasharray:5.0,5.0;" x1="594.5" x2="594.5" y1="97.5703" y2="271.3281"/><rect fill="#E2E2F0" height="31.6094" rx="2.5" ry="2.5" style="stroke:#181818;stroke-width:0.5;" width="65" x="29.5" y="64.9609"/><text fill="#000000" font-family="sans-serif" font-size="14" lengthAdjust="spacing" textLength="51" x="36.5" y="86.4941">External</text><rect fill="#E2E2F0" height="31.6094" rx="2.5" ry="2.5" style="stroke:#181818;stroke-width:0.5;" width="65" x="29.5" y="270.3281"/><text fill="#000000" font-family="sans-serif" font-size="14" lengthAdjust="spacing" textLength="51" x="36.5" y="291.8613">External</text><rect fill="#E2E2F0" height="31.6094" rx="2.5" ry="2.5" style="stroke:#181818;stroke-width:0.5;" width="124" x="197" y="64.9609"/><text fill="#000000" font-family="sans-serif" font-size="14" lengthAdjust="spacing" textLength="110" x="204" y="86.4941">Message Handler</text><rect fill="#E2E2F0" height="31.6094" rx="2.5" ry="2.5" style="stroke:#181818;stroke-width:0.5;" width="124" x="197" y="270.3281"/><text fill="#000000" font-family="sans-serif" font-size="14" lengthAdjust="spacing" textLength="110" x="204" y="291.8613">Message Handler</text><rect fill="#E2E2F0" height="31.6094" rx="2.5" ry="2.5" style="stroke:#181818;stroke-width:0.5;" width="75" x="364.5" y="64.9609"/><text fill="#000000" font-family="sans-serif" font-size="14" lengthAdjust="spacing" textLength="61" x="371.5" y="86.4941">Database</text><rect fill="#E2E2F0" height="31.6094" rx="2.5" ry="2.5" style="stroke:#181818;stroke-width:0.5;" width="75" x="364.5" y="270.3281"/><text fill="#000000" font-family="sans-serif" font-size="14" lengthAdjust="spacing" textLength="61" x="371.5" y="291.8613">Database</text><rect fill="#E2E2F0" height="31.6094" rx="2.5" ry="2.5" style="stroke:#181818;stroke-width:0.5;" width="82" x="449.5" y="64.9609"/><text fill="#000000" font-family="sans-serif" font-size="14" lengthAdjust="spacing" textLength="68" x="456.5" y="86.4941">Messaging</text><rect fill="#E2E2F0" height="31.6094" rx="2.5" ry="2.5" style="stroke:#181818;stroke-width:0.5;" width="82" x="449.5" y="270.3281"/><text fill="#000000" font-family="sans-serif" font-size="14" lengthAdjust="spacing" textLength="68" x="456.5" y="291.8613">Messaging</text><rect fill="#E2E2F0" height="31.6094" rx="2.5" ry="2.5" style="stroke:#181818;stroke-width:0.5;" width="82" x="553.5" y="64.9609"/><text fill="#000000" font-family="sans-serif" font-size="14" lengthAdjust="spacing" textLength="68" x="560.5" y="86.4941">Messaging</text><rect fill="#E2E2F0" height="31.6094" rx="2.5" ry="2.5" style="stroke:#181818;stroke-width:0.5;" width="82" x="553.5" y="270.3281"/><text fill="#000000" font-family="sans-serif" font-size="14" lengthAdjust="spacing" textLength="68" x="560.5" y="291.8613">Messaging</text><polygon fill="#181818" points="247,125.9219,257,129.9219,247,133.9219,251,129.9219" style="stroke:#181818;stroke-width:1.0;"/><line style="stroke:#181818;stroke-width:1.0;" x1="62" x2="253" y1="129.9219" y2="129.9219"/><text fill="#000000" font-family="sans-serif" font-size="13" lengthAdjust="spacing" textLength="173" x="69" y="125.0654">Handle Payment Result Event</text><path d="M187,144.9219 L419,144.9219 L419,153.2734 L409,163.2734 L187,163.2734 L187,144.9219 " fill="#EEEEEE" style="stroke:#000000;stroke-width:1.5;"/><rect fill="none" height="109.4063" style="stroke:#000000;stroke-width:1.5;" width="458.5" x="187" y="144.9219"/><text fill="#000000" font-family="sans-serif" font-size="13" font-weight="bold" lengthAdjust="spacing" textLength="187" x="202" y="159.417">Handle Payment Result Event</text><polygon fill="#181818" points="582.5,181.625,592.5,185.625,582.5,189.625,586.5,185.625" style="stroke:#181818;stroke-width:1.0;"/><line style="stroke:#181818;stroke-width:1.0;" x1="259" x2="588.5" y1="185.625" y2="185.625"/><text fill="#000000" font-family="sans-serif" font-size="13" lengthAdjust="spacing" textLength="178" x="266" y="180.7686">Receive Payment Result Event</text><polygon fill="#181818" points="390,211.9766,400,215.9766,390,219.9766,394,215.9766" style="stroke:#181818;stroke-width:1.0;"/><line style="stroke:#181818;stroke-width:1.0;" x1="259" x2="396" y1="215.9766" y2="215.9766"/><text fill="#000000" font-family="sans-serif" font-size="13" lengthAdjust="spacing" textLength="119" x="266" y="211.1201">Update Order Status</text><polygon fill="#181818" points="478.5,242.3281,488.5,246.3281,478.5,250.3281,482.5,246.3281" style="stroke:#181818;stroke-width:1.0;"/><line style="stroke:#181818;stroke-width:1.0;" x1="259" x2="484.5" y1="246.3281" y2="246.3281"/><text fill="#000000" font-family="sans-serif" font-size="13" lengthAdjust="spacing" textLength="199" x="266" y="241.4717">Send Order Status Changed Event</text><!--SRC=[pLGxJyCm4DxzAuum9nCJ0qieWW5HDKBCr-IQMl8Zs9Uq-VUumQrQAaeaCZIJJxxxNZxbfd5OQmI5lMqPl2P6WqAmP4NmvYfoK93hP4cGmYjvZpN1CvfAXPiqdc2ElIR3i23VAePPjolICFdPaXb6SsiOfGb3YZfIGZJeM9QomT2PpBPCpg1A03taToycb4_ARhB2hdY3ZehUCscVxHk_Qo6MTWl9YSm4RZ_Maab0-4v8VgWVk6QvrPfSINE5lB9Edp4Eu14xExZmMKIBOETiZyYuH4__fDd3_6P7cdeI8m57aAaW12fYhFj77HdiU2KHUAIMyUi0wSDa3mhtbtPRrCwspSMEoOICCZKYqk1eGIN9xYe4_xNlGUrxKo4VVaACtFeh4NcSQR7Rr6EDaA_Hr5J5MCEr45y0]--></g></svg>