<?xml version="1.0" encoding="us-ascii" standalone="no"?><svg xmlns="http://www.w3.org/2000/svg" xmlns:xlink="http://www.w3.org/1999/xlink" contentStyleType="text/css" height="390px" preserveAspectRatio="none" style="width:535px;height:390px;background:#FFFFFF;" version="1.1" viewBox="0 0 535 390" width="535px" zoomAndPan="magnify"><defs/><g><text fill="#000000" font-family="sans-serif" font-size="14" font-weight="bold" lengthAdjust="spacing" textLength="494" x="22" y="29.5332">Basket Api - Grpc - Basket Service - Delete Basket - COMPONENT level</text><rect fill="#FFFFFF" height="340.0313" style="stroke:#181818;stroke-width:0.5;" width="116" x="85.5" y="44.6094"/><text fill="#000000" font-family="sans-serif" font-size="13" font-weight="bold" lengthAdjust="spacing" textLength="30" x="128.5" y="58.1045">Grpc</text><rect fill="#FFFFFF" height="340.0313" style="stroke:#181818;stroke-width:0.5;" width="302" x="211" y="44.6094"/><text fill="#000000" font-family="sans-serif" font-size="13" font-weight="bold" lengthAdjust="spacing" textLength="29" x="347.5" y="58.1045">Data</text><rect fill="none" height="187.1094" style="stroke:#000000;stroke-width:1.5;" width="459.5" x="69.5" y="144.9219"/><rect fill="none" height="61.7031" style="stroke:#000000;stroke-width:1.5;" width="246" x="79.5" y="170.2734"/><rect fill="none" height="48.7031" style="stroke:#000000;stroke-width:1.5;" width="314" x="205" y="276.3281"/><line style="stroke:#181818;stroke-width:0.5;stroke-dasharray:5.0,5.0;" x1="37" x2="37" y1="97.5703" y2="349.0313"/><line style="stroke:#181818;stroke-width:0.5;stroke-dasharray:5.0,5.0;" x1="143.5" x2="143.5" y1="97.5703" y2="349.0313"/><line style="stroke:#181818;stroke-width:0.5;stroke-dasharray:5.0,5.0;" x1="299" x2="299" y1="97.5703" y2="349.0313"/><line style="stroke:#181818;stroke-width:0.5;stroke-dasharray:5.0,5.0;" x1="451" x2="451" y1="97.5703" y2="349.0313"/><rect fill="#E2E2F0" height="31.6094" rx="2.5" ry="2.5" style="stroke:#181818;stroke-width:0.5;" width="65" x="5" y="64.9609"/><text fill="#000000" font-family="sans-serif" font-size="14" lengthAdjust="spacing" textLength="51" x="12" y="86.4941">External</text><rect fill="#E2E2F0" height="31.6094" rx="2.5" ry="2.5" style="stroke:#181818;stroke-width:0.5;" width="65" x="5" y="348.0313"/><text fill="#000000" font-family="sans-serif" font-size="14" lengthAdjust="spacing" textLength="51" x="12" y="369.5645">External</text><rect fill="#E2E2F0" height="31.6094" rx="2.5" ry="2.5" style="stroke:#181818;stroke-width:0.5;" width="108" x="89.5" y="64.9609"/><text fill="#000000" font-family="sans-serif" font-size="14" lengthAdjust="spacing" textLength="94" x="96.5" y="86.4941">Basket Service</text><rect fill="#E2E2F0" height="31.6094" rx="2.5" ry="2.5" style="stroke:#181818;stroke-width:0.5;" width="108" x="89.5" y="348.0313"/><text fill="#000000" font-family="sans-serif" font-size="14" lengthAdjust="spacing" textLength="94" x="96.5" y="369.5645">Basket Service</text><rect fill="#E2E2F0" height="31.6094" rx="2.5" ry="2.5" style="stroke:#181818;stroke-width:0.5;" width="169" x="215" y="64.9609"/><text fill="#000000" font-family="sans-serif" font-size="14" lengthAdjust="spacing" textLength="155" x="222" y="86.4941">Redis Basket Repository</text><rect fill="#E2E2F0" height="31.6094" rx="2.5" ry="2.5" style="stroke:#181818;stroke-width:0.5;" width="169" x="215" y="348.0313"/><text fill="#000000" font-family="sans-serif" font-size="14" lengthAdjust="spacing" textLength="155" x="222" y="369.5645">Redis Basket Repository</text><rect fill="#E2E2F0" height="31.6094" rx="2.5" ry="2.5" style="stroke:#181818;stroke-width:0.5;" width="115" x="394" y="64.9609"/><text fill="#000000" font-family="sans-serif" font-size="14" lengthAdjust="spacing" textLength="101" x="401" y="86.4941">Redis Database</text><rect fill="#E2E2F0" height="31.6094" rx="2.5" ry="2.5" style="stroke:#181818;stroke-width:0.5;" width="115" x="394" y="348.0313"/><text fill="#000000" font-family="sans-serif" font-size="14" lengthAdjust="spacing" textLength="101" x="401" y="369.5645">Redis Database</text><polygon fill="#181818" points="131.5,125.9219,141.5,129.9219,131.5,133.9219,135.5,129.9219" style="stroke:#181818;stroke-width:1.0;"/><line style="stroke:#181818;stroke-width:1.0;" x1="37.5" x2="137.5" y1="129.9219" y2="129.9219"/><text fill="#000000" font-family="sans-serif" font-size="13" lengthAdjust="spacing" textLength="82" x="44.5" y="125.0654">Delete Basket</text><path d="M69.5,144.9219 L201.5,144.9219 L201.5,153.2734 L191.5,163.2734 L69.5,163.2734 L69.5,144.9219 " fill="#EEEEEE" style="stroke:#000000;stroke-width:1.5;"/><rect fill="none" height="187.1094" style="stroke:#000000;stroke-width:1.5;" width="459.5" x="69.5" y="144.9219"/><text fill="#000000" font-family="sans-serif" font-size="13" font-weight="bold" lengthAdjust="spacing" textLength="87" x="84.5" y="159.417">Delete Basket</text><path d="M79.5,170.2734 L140.5,170.2734 L140.5,178.625 L130.5,188.625 L79.5,188.625 L79.5,170.2734 " fill="#EEEEEE" style="stroke:#000000;stroke-width:1.5;"/><rect fill="none" height="61.7031" style="stroke:#000000;stroke-width:1.5;" width="246" x="79.5" y="170.2734"/><text fill="#000000" font-family="sans-serif" font-size="13" font-weight="bold" lengthAdjust="spacing" textLength="16" x="94.5" y="184.7686">alt</text><text fill="#000000" font-family="sans-serif" font-size="11" font-weight="bold" lengthAdjust="spacing" textLength="165" x="155.5" y="183.6924">[string.IsNullOrEmpty(userId)]</text><line style="stroke:#181818;stroke-width:1.0;" x1="143.5" x2="185.5" y1="210.9766" y2="210.9766"/><line style="stroke:#181818;stroke-width:1.0;" x1="185.5" x2="185.5" y1="210.9766" y2="223.9766"/><line style="stroke:#181818;stroke-width:1.0;" x1="144.5" x2="185.5" y1="223.9766" y2="223.9766"/><polygon fill="#181818" points="154.5,219.9766,144.5,223.9766,154.5,227.9766,150.5,223.9766" style="stroke:#181818;stroke-width:1.0;"/><text fill="#000000" font-family="sans-serif" font-size="13" lengthAdjust="spacing" textLength="142" x="150.5" y="206.1201">Throw Not Authenticated</text><polygon fill="#181818" points="287.5,257.3281,297.5,261.3281,287.5,265.3281,291.5,261.3281" style="stroke:#181818;stroke-width:1.0;"/><line style="stroke:#181818;stroke-width:1.0;" x1="143.5" x2="293.5" y1="261.3281" y2="261.3281"/><text fill="#000000" font-family="sans-serif" font-size="13" lengthAdjust="spacing" textLength="123" x="150.5" y="256.4717">Delete Basket Async</text><path d="M205,276.3281 L378,276.3281 L378,284.6797 L368,294.6797 L205,294.6797 L205,276.3281 " fill="#EEEEEE" style="stroke:#000000;stroke-width:1.5;"/><rect fill="none" height="48.7031" style="stroke:#000000;stroke-width:1.5;" width="314" x="205" y="276.3281"/><text fill="#000000" font-family="sans-serif" font-size="13" font-weight="bold" lengthAdjust="spacing" textLength="128" x="220" y="290.8232">Delete Basket Async</text><polygon fill="#181818" points="439.5,313.0313,449.5,317.0313,439.5,321.0313,443.5,317.0313" style="stroke:#181818;stroke-width:1.0;"/><line style="stroke:#181818;stroke-width:1.0;" x1="299.5" x2="445.5" y1="317.0313" y2="317.0313"/><text fill="#000000" font-family="sans-serif" font-size="13" lengthAdjust="spacing" textLength="105" x="306.5" y="312.1748">Key Delete Async</text><!--SRC=[pPDDJyCm38Rl-HMcNE2mdZXnG1hRG1EYGziapbvhjeWqYH9tM_yzwRhk2oRjG16LgjQEhVUn7LzPX_CSGM5f2WQV4wD68LYo8dX4_qaCNIkX0y_Efk6pzKt8BMLAmT4dHRoBxK1lzFesIWR951GjIGbXqR5CfKND40tMJ4wZYW0zzEw6EfXFogpYYVdW5JgQb9ufzt4JMDj2pCmQeZrG1DVl2yaa83prOGLuv3uIFkRUo6U6DN5CauMnSTUbLMBAXQDlC7Loa8rxHZDAJSx7bLwmSsiqQMw2jWA2T0O1Inm0zf7nFE2OCkcRDex96Y_PkF8tI2lXGzADL1sv5pf7L2NFq5Dh88t0lcMx7t7v3O7EGwi3XVlZcoxcpXJsn8Sgx10xgUVnq2U5KYCto2sNDuKdDynkHQk4xNTWkd1c1Oa9ArZm8eJ859coQc3_lRIBTk1qoD3rfKv_6lNsv4-WMYg-sRjGz0kLJNbrNTL0grTy0G00]--></g></svg>