<?xml version="1.0" encoding="us-ascii" standalone="no"?><svg xmlns="http://www.w3.org/2000/svg" xmlns:xlink="http://www.w3.org/1999/xlink" contentStyleType="text/css" height="243.75px" preserveAspectRatio="none" style="width:334px;height:243px;background:#FFFFFF;" version="1.1" viewBox="0 0 334 243" width="334.375px" zoomAndPan="magnify"><defs/><g><text fill="#000000" font-family="sans-serif" font-size="8.75" font-weight="bold" lengthAdjust="spacing" textLength="308.75" x="13.75" y="18.4583">Basket Api - Grpc - Basket Service - Delete Basket - COMPONENT level</text><rect fill="#FFFFFF" height="212.5195" style="stroke:#181818;stroke-width:0.3125;" width="72.5" x="53.4375" y="27.8809"/><text fill="#000000" font-family="sans-serif" font-size="8.125" font-weight="bold" lengthAdjust="spacing" textLength="18.75" x="80.3125" y="36.3153">Grpc</text><rect fill="#FFFFFF" height="212.5195" style="stroke:#181818;stroke-width:0.3125;" width="188.75" x="131.875" y="27.8809"/><text fill="#000000" font-family="sans-serif" font-size="8.125" font-weight="bold" lengthAdjust="spacing" textLength="18.125" x="217.1875" y="36.3153">Data</text><rect fill="none" height="116.9434" style="stroke:#000000;stroke-width:0.9375;" width="287.1875" x="43.4375" y="90.5762"/><rect fill="none" height="38.5645" style="stroke:#000000;stroke-width:0.9375;" width="153.75" x="49.6875" y="106.4209"/><rect fill="none" height="30.4395" style="stroke:#000000;stroke-width:0.9375;" width="196.25" x="128.125" y="172.7051"/><line style="stroke:#181818;stroke-width:0.3125;stroke-dasharray:5.0,5.0;" x1="23.125" x2="23.125" y1="60.9814" y2="218.1445"/><line style="stroke:#181818;stroke-width:0.3125;stroke-dasharray:5.0,5.0;" x1="89.6875" x2="89.6875" y1="60.9814" y2="218.1445"/><line style="stroke:#181818;stroke-width:0.3125;stroke-dasharray:5.0,5.0;" x1="186.875" x2="186.875" y1="60.9814" y2="218.1445"/><line style="stroke:#181818;stroke-width:0.3125;stroke-dasharray:5.0,5.0;" x1="281.875" x2="281.875" y1="60.9814" y2="218.1445"/><rect fill="#E2E2F0" height="19.7559" rx="1.5625" ry="1.5625" style="stroke:#181818;stroke-width:0.3125;" width="40.625" x="3.125" y="40.6006"/><text fill="#000000" font-family="sans-serif" font-size="8.75" lengthAdjust="spacing" textLength="31.875" x="7.5" y="54.0588">External</text><rect fill="#E2E2F0" height="19.7559" rx="1.5625" ry="1.5625" style="stroke:#181818;stroke-width:0.3125;" width="40.625" x="3.125" y="217.5195"/><text fill="#000000" font-family="sans-serif" font-size="8.75" lengthAdjust="spacing" textLength="31.875" x="7.5" y="230.9778">External</text><rect fill="#E2E2F0" height="19.7559" rx="1.5625" ry="1.5625" style="stroke:#181818;stroke-width:0.3125;" width="67.5" x="55.9375" y="40.6006"/><text fill="#000000" font-family="sans-serif" font-size="8.75" lengthAdjust="spacing" textLength="58.75" x="60.3125" y="54.0588">Basket Service</text><rect fill="#E2E2F0" height="19.7559" rx="1.5625" ry="1.5625" style="stroke:#181818;stroke-width:0.3125;" width="67.5" x="55.9375" y="217.5195"/><text fill="#000000" font-family="sans-serif" font-size="8.75" lengthAdjust="spacing" textLength="58.75" x="60.3125" y="230.9778">Basket Service</text><rect fill="#E2E2F0" height="19.7559" rx="1.5625" ry="1.5625" style="stroke:#181818;stroke-width:0.3125;" width="105.625" x="134.375" y="40.6006"/><text fill="#000000" font-family="sans-serif" font-size="8.75" lengthAdjust="spacing" textLength="96.875" x="138.75" y="54.0588">Redis Basket Repository</text><rect fill="#E2E2F0" height="19.7559" rx="1.5625" ry="1.5625" style="stroke:#181818;stroke-width:0.3125;" width="105.625" x="134.375" y="217.5195"/><text fill="#000000" font-family="sans-serif" font-size="8.75" lengthAdjust="spacing" textLength="96.875" x="138.75" y="230.9778">Redis Basket Repository</text><rect fill="#E2E2F0" height="19.7559" rx="1.5625" ry="1.5625" style="stroke:#181818;stroke-width:0.3125;" width="71.875" x="246.25" y="40.6006"/><text fill="#000000" font-family="sans-serif" font-size="8.75" lengthAdjust="spacing" textLength="63.125" x="250.625" y="54.0588">Redis Database</text><rect fill="#E2E2F0" height="19.7559" rx="1.5625" ry="1.5625" style="stroke:#181818;stroke-width:0.3125;" width="71.875" x="246.25" y="217.5195"/><text fill="#000000" font-family="sans-serif" font-size="8.75" lengthAdjust="spacing" textLength="63.125" x="250.625" y="230.9778">Redis Database</text><polygon fill="#181818" points="82.1875,78.7012,88.4375,81.2012,82.1875,83.7012,84.6875,81.2012" style="stroke:#181818;stroke-width:0.625;"/><line style="stroke:#181818;stroke-width:0.625;" x1="23.4375" x2="85.9375" y1="81.2012" y2="81.2012"/><text fill="#000000" font-family="sans-serif" font-size="8.125" lengthAdjust="spacing" textLength="51.25" x="27.8125" y="78.1659">Delete Basket</text><path d="M43.4375,90.5762 L125.9375,90.5762 L125.9375,95.7959 L119.6875,102.0459 L43.4375,102.0459 L43.4375,90.5762 " fill="#EEEEEE" style="stroke:#000000;stroke-width:0.9375;"/><rect fill="none" height="116.9434" style="stroke:#000000;stroke-width:0.9375;" width="287.1875" x="43.4375" y="90.5762"/><text fill="#000000" font-family="sans-serif" font-size="8.125" font-weight="bold" lengthAdjust="spacing" textLength="54.375" x="52.8125" y="99.6356">Delete Basket</text><path d="M49.6875,106.4209 L87.8125,106.4209 L87.8125,111.6406 L81.5625,117.8906 L49.6875,117.8906 L49.6875,106.4209 " fill="#EEEEEE" style="stroke:#000000;stroke-width:0.9375;"/><rect fill="none" height="38.5645" style="stroke:#000000;stroke-width:0.9375;" width="153.75" x="49.6875" y="106.4209"/><text fill="#000000" font-family="sans-serif" font-size="8.125" font-weight="bold" lengthAdjust="spacing" textLength="10" x="59.0625" y="115.4803">alt</text><text fill="#000000" font-family="sans-serif" font-size="6.875" font-weight="bold" lengthAdjust="spacing" textLength="103.125" x="97.1875" y="114.8077">[string.IsNullOrEmpty(userId)]</text><line style="stroke:#181818;stroke-width:0.625;" x1="89.6875" x2="115.9375" y1="131.8604" y2="131.8604"/><line style="stroke:#181818;stroke-width:0.625;" x1="115.9375" x2="115.9375" y1="131.8604" y2="139.9854"/><line style="stroke:#181818;stroke-width:0.625;" x1="90.3125" x2="115.9375" y1="139.9854" y2="139.9854"/><polygon fill="#181818" points="96.5625,137.4854,90.3125,139.9854,96.5625,142.4854,94.0625,139.9854" style="stroke:#181818;stroke-width:0.625;"/><text fill="#000000" font-family="sans-serif" font-size="8.125" lengthAdjust="spacing" textLength="88.75" x="94.0625" y="128.8251">Throw Not Authenticated</text><polygon fill="#181818" points="179.6875,160.8301,185.9375,163.3301,179.6875,165.8301,182.1875,163.3301" style="stroke:#181818;stroke-width:0.625;"/><line style="stroke:#181818;stroke-width:0.625;" x1="89.6875" x2="183.4375" y1="163.3301" y2="163.3301"/><text fill="#000000" font-family="sans-serif" font-size="8.125" lengthAdjust="spacing" textLength="76.875" x="94.0625" y="160.2948">Delete Basket Async</text><path d="M128.125,172.7051 L236.25,172.7051 L236.25,177.9248 L230,184.1748 L128.125,184.1748 L128.125,172.7051 " fill="#EEEEEE" style="stroke:#000000;stroke-width:0.9375;"/><rect fill="none" height="30.4395" style="stroke:#000000;stroke-width:0.9375;" width="196.25" x="128.125" y="172.7051"/><text fill="#000000" font-family="sans-serif" font-size="8.125" font-weight="bold" lengthAdjust="spacing" textLength="80" x="137.5" y="181.7645">Delete Basket Async</text><polygon fill="#181818" points="274.6875,195.6445,280.9375,198.1445,274.6875,200.6445,277.1875,198.1445" style="stroke:#181818;stroke-width:0.625;"/><line style="stroke:#181818;stroke-width:0.625;" x1="187.1875" x2="278.4375" y1="198.1445" y2="198.1445"/><text fill="#000000" font-family="sans-serif" font-size="8.125" lengthAdjust="spacing" textLength="65.625" x="191.5625" y="195.1093">Key Delete Async</text><!--SRC=[pPDHJy8m4CVV-obEVD475X-C3pwO8A0XHZ10ulEndT3GjKrx0_RjxHWJXfBmu8nBblMkT_l_hjUxi0xdAOB2t6GCFYL6ZS8lfRReC8N4IhYx4O8bAu97z4jYw0Hd6vwTZSDdvvkGMycOWgD7YlWhjWtTqUlRQDWVJa7HYfGGuSyiOsbHCxJw6oQdKRK0FNHl1pgOJygieudvu3KwckIUAVLH5LZQGipC1bfxe1PSlYyaau3mb9i5OCrT4wvpR-KJmveueid2sAZZuY8nvipHDvWoESX6NQCPfIRdeq8lsAarcZHNGJi1GJg1W2KE07l8U1fmJ8dqrJ6EoHelsRZyDqWBuKFIhLGPkHSwHLGapz1JOo2LmFx8lXRY_1i2xOT66mhtzPikvivaziY7AWmLEwddqS0FCwL6hfzQpgyoJswGN8j62Pi_WUd2cJKCJHZ1Z1SXHCR8b1GD- - -bdJK3nqs6Zizr_5EhTpj_0jLGyTNSXQ9VAA_AA-ig6bgyuXC0]--></g></svg>