<?xml version="1.0" encoding="us-ascii" standalone="no"?><svg xmlns="http://www.w3.org/2000/svg" xmlns:xlink="http://www.w3.org/1999/xlink" contentStyleType="text/css" height="375px" preserveAspectRatio="none" style="width:919px;height:375px;background:#FFFFFF;" version="1.1" viewBox="0 0 919 375" width="919px" zoomAndPan="magnify"><defs/><g><text fill="#000000" font-family="sans-serif" font-size="14" font-weight="bold" lengthAdjust="spacing" textLength="891" x="10" y="29.5332">ECommercePlatform - Fulfilment Service - Message Handler - Handle Order Status Changed Event - Sequence - Container level</text><rect fill="#FFFFFF" height="325.0313" style="stroke:#181818;stroke-width:0.5;" width="250.5" x="340.25" y="44.6094"/><text fill="#000000" font-family="sans-serif" font-size="13" font-weight="bold" lengthAdjust="spacing" textLength="116" x="407.5" y="58.1045">Fulfilment Service</text><rect fill="#FFFFFF" height="325.0313" style="stroke:#181818;stroke-width:0.5;" width="94" x="599.25" y="44.6094"/><text fill="#000000" font-family="sans-serif" font-size="13" font-weight="bold" lengthAdjust="spacing" textLength="88" x="602.25" y="58.1045">Order Service</text><rect fill="none" height="172.1094" style="stroke:#000000;stroke-width:1.5;" width="442" x="324.25" y="144.9219"/><rect fill="none" height="109.4063" style="stroke:#000000;stroke-width:1.5;" width="422" x="334.25" y="200.625"/><line style="stroke:#181818;stroke-width:0.5;stroke-dasharray:5.0,5.0;" x1="172.75" x2="172.75" y1="97.5703" y2="334.0313"/><line style="stroke:#181818;stroke-width:0.5;stroke-dasharray:5.0,5.0;" x1="406.25" x2="406.25" y1="97.5703" y2="334.0313"/><line style="stroke:#181818;stroke-width:0.5;stroke-dasharray:5.0,5.0;" x1="548.75" x2="548.75" y1="97.5703" y2="334.0313"/><line style="stroke:#181818;stroke-width:0.5;stroke-dasharray:5.0,5.0;" x1="646.25" x2="646.25" y1="97.5703" y2="334.0313"/><line style="stroke:#181818;stroke-width:0.5;stroke-dasharray:5.0,5.0;" x1="722.25" x2="722.25" y1="97.5703" y2="334.0313"/><rect fill="#E2E2F0" height="31.6094" rx="2.5" ry="2.5" style="stroke:#181818;stroke-width:0.5;" width="65" x="140.75" y="64.9609"/><text fill="#000000" font-family="sans-serif" font-size="14" lengthAdjust="spacing" textLength="51" x="147.75" y="86.4941">External</text><rect fill="#E2E2F0" height="31.6094" rx="2.5" ry="2.5" style="stroke:#181818;stroke-width:0.5;" width="65" x="140.75" y="333.0313"/><text fill="#000000" font-family="sans-serif" font-size="14" lengthAdjust="spacing" textLength="51" x="147.75" y="354.5645">External</text><rect fill="#E2E2F0" height="31.6094" rx="2.5" ry="2.5" style="stroke:#181818;stroke-width:0.5;" width="124" x="344.25" y="64.9609"/><text fill="#000000" font-family="sans-serif" font-size="14" lengthAdjust="spacing" textLength="110" x="351.25" y="86.4941">Message Handler</text><rect fill="#E2E2F0" height="31.6094" rx="2.5" ry="2.5" style="stroke:#181818;stroke-width:0.5;" width="124" x="344.25" y="333.0313"/><text fill="#000000" font-family="sans-serif" font-size="14" lengthAdjust="spacing" textLength="110" x="351.25" y="354.5645">Message Handler</text><rect fill="#E2E2F0" height="31.6094" rx="2.5" ry="2.5" style="stroke:#181818;stroke-width:0.5;" width="75" x="511.75" y="64.9609"/><text fill="#000000" font-family="sans-serif" font-size="14" lengthAdjust="spacing" textLength="61" x="518.75" y="86.4941">Database</text><rect fill="#E2E2F0" height="31.6094" rx="2.5" ry="2.5" style="stroke:#181818;stroke-width:0.5;" width="75" x="511.75" y="333.0313"/><text fill="#000000" font-family="sans-serif" font-size="14" lengthAdjust="spacing" textLength="61" x="518.75" y="354.5645">Database</text><rect fill="#E2E2F0" height="31.6094" rx="2.5" ry="2.5" style="stroke:#181818;stroke-width:0.5;" width="82" x="605.25" y="64.9609"/><text fill="#000000" font-family="sans-serif" font-size="14" lengthAdjust="spacing" textLength="68" x="612.25" y="86.4941">Messaging</text><rect fill="#E2E2F0" height="31.6094" rx="2.5" ry="2.5" style="stroke:#181818;stroke-width:0.5;" width="82" x="605.25" y="333.0313"/><text fill="#000000" font-family="sans-serif" font-size="14" lengthAdjust="spacing" textLength="68" x="612.25" y="354.5645">Messaging</text><rect fill="#E2E2F0" height="31.6094" rx="2.5" ry="2.5" style="stroke:#181818;stroke-width:0.5;" width="47" x="699.25" y="64.9609"/><text fill="#000000" font-family="sans-serif" font-size="14" lengthAdjust="spacing" textLength="33" x="706.25" y="86.4941">WMS</text><rect fill="#E2E2F0" height="31.6094" rx="2.5" ry="2.5" style="stroke:#181818;stroke-width:0.5;" width="47" x="699.25" y="333.0313"/><text fill="#000000" font-family="sans-serif" font-size="14" lengthAdjust="spacing" textLength="33" x="706.25" y="354.5645">WMS</text><polygon fill="#181818" points="394.25,125.9219,404.25,129.9219,394.25,133.9219,398.25,129.9219" style="stroke:#181818;stroke-width:1.0;"/><line style="stroke:#181818;stroke-width:1.0;" x1="173.25" x2="400.25" y1="129.9219" y2="129.9219"/><text fill="#000000" font-family="sans-serif" font-size="13" lengthAdjust="spacing" textLength="209" x="180.25" y="125.0654">Handle Order Status Changed Event</text><path d="M324.25,144.9219 L597.25,144.9219 L597.25,153.2734 L587.25,163.2734 L324.25,163.2734 L324.25,144.9219 " fill="#EEEEEE" style="stroke:#000000;stroke-width:1.5;"/><rect fill="none" height="172.1094" style="stroke:#000000;stroke-width:1.5;" width="442" x="324.25" y="144.9219"/><text fill="#000000" font-family="sans-serif" font-size="13" font-weight="bold" lengthAdjust="spacing" textLength="228" x="339.25" y="159.417">Handle Order Status Changed Event</text><polygon fill="#181818" points="634.25,181.625,644.25,185.625,634.25,189.625,638.25,185.625" style="stroke:#181818;stroke-width:1.0;"/><line style="stroke:#181818;stroke-width:1.0;" x1="406.25" x2="640.25" y1="185.625" y2="185.625"/><text fill="#000000" font-family="sans-serif" font-size="13" lengthAdjust="spacing" textLength="214" x="413.25" y="180.7686">Receive Order Status Changed Event</text><path d="M334.25,200.625 L395.25,200.625 L395.25,208.9766 L385.25,218.9766 L334.25,218.9766 L334.25,200.625 " fill="#EEEEEE" style="stroke:#000000;stroke-width:1.5;"/><rect fill="none" height="109.4063" style="stroke:#000000;stroke-width:1.5;" width="422" x="334.25" y="200.625"/><text fill="#000000" font-family="sans-serif" font-size="13" font-weight="bold" lengthAdjust="spacing" textLength="16" x="349.25" y="215.1201">alt</text><text fill="#000000" font-family="sans-serif" font-size="11" font-weight="bold" lengthAdjust="spacing" textLength="201" x="410.25" y="214.0439">[Order Status is 'Pending Shipment']</text><polygon fill="#181818" points="537.25,237.3281,547.25,241.3281,537.25,245.3281,541.25,241.3281" style="stroke:#181818;stroke-width:1.0;"/><line style="stroke:#181818;stroke-width:1.0;" x1="406.25" x2="543.25" y1="241.3281" y2="241.3281"/><text fill="#000000" font-family="sans-serif" font-size="13" lengthAdjust="spacing" textLength="68" x="413.25" y="236.4717">Insert Order</text><polygon fill="#181818" points="710.75,267.6797,720.75,271.6797,710.75,275.6797,714.75,271.6797" style="stroke:#181818;stroke-width:1.0;"/><line style="stroke:#181818;stroke-width:1.0;" x1="406.25" x2="716.75" y1="271.6797" y2="271.6797"/><text fill="#000000" font-family="sans-serif" font-size="13" lengthAdjust="spacing" textLength="62" x="413.25" y="266.8232">Ship Order</text><polygon fill="#181818" points="537.25,298.0313,547.25,302.0313,537.25,306.0313,541.25,302.0313" style="stroke:#181818;stroke-width:1.0;"/><line style="stroke:#181818;stroke-width:1.0;" x1="406.25" x2="543.25" y1="302.0313" y2="302.0313"/><text fill="#000000" font-family="sans-serif" font-size="13" lengthAdjust="spacing" textLength="119" x="413.25" y="297.1748">Update Order Status</text><!--SRC=[nLEzRi8m4Dxz5DTqO29JfmvTAAWCgAXHnNmaHx3asAbz2V3slOHGHAEM34X4ifIppz_FtVcXz9WN20OFhc881J5QL8er6uBfn1K5-PIM1ddZV05Zc5Lceqr1bY4XN-kKP7D18M1Ey8OsC-Hbv_W7xpwJC67aAi1aYpQd3APrStiizxygiYt0n5b6RINNK4r6gH8zwrINA9dHTC_aBPe8K52UvbR2cN6xE74Rtg6dv12OYX2V4e-nKcktXwYlE8B7rLOpAP3lWkcNaPQmLuKUxPcX8uX__8IuW-mG-vIloBZ6GBVWEc4fiXc8UTMLe6l3CFVQvWErjB1_MXQSiuuBdjKY6SWWcKeDxpYCNsxRBdY-Fiagzwug1-JTLjaWgrSx90O_A2LT_wiS3LyUwm2ZfJItGKYskcmaZ-vXSD1p49Dp6yXt9kwXKmPPL3Ibkf-6eRNwB3Faotbe7dAxr3S0]--></g></svg>