<?xml version="1.0" encoding="us-ascii" standalone="no"?><svg xmlns="http://www.w3.org/2000/svg" xmlns:xlink="http://www.w3.org/1999/xlink" contentStyleType="text/css" height="780px" preserveAspectRatio="none" style="width:817px;height:780px;background:#FFFFFF;" version="1.1" viewBox="0 0 817 780" width="817px" zoomAndPan="magnify"><defs/><g><text fill="#000000" font-family="sans-serif" font-size="14" font-weight="bold" lengthAdjust="spacing" textLength="789" x="10" y="29.5332">Dot Net E Shop - Catalog Api - Api - Catalog Api - Get Items By Semantic Relevance - Sequence - Component level</text><rect fill="#FFFFFF" height="729.5469" style="stroke:#181818;stroke-width:0.5;" width="95" x="338" y="44.6094"/><text fill="#000000" font-family="sans-serif" font-size="13" font-weight="bold" lengthAdjust="spacing" textLength="21" x="375" y="58.1045">Api</text><rect fill="#FFFFFF" height="729.5469" style="stroke:#181818;stroke-width:0.5;" width="123" x="512" y="44.6094"/><text fill="#000000" font-family="sans-serif" font-size="13" font-weight="bold" lengthAdjust="spacing" textLength="84" x="531.5" y="58.1045">Infrastructure</text><rect fill="none" height="576.625" style="stroke:#000000;stroke-width:1.5;" width="373" x="302" y="144.9219"/><rect fill="none" height="286.8125" style="stroke:#000000;stroke-width:1.5;" width="339" x="312" y="170.2734"/><rect fill="none" height="211.1094" style="stroke:#000000;stroke-width:1.5;" width="319" x="322" y="238.9766"/><rect fill="none" height="61.7031" style="stroke:#000000;stroke-width:1.5;" width="202" x="332" y="338.0313"/><rect fill="none" height="81.0547" style="stroke:#000000;stroke-width:1.5;" width="333" x="332" y="471.0859"/><rect fill="none" height="61.7031" style="stroke:#000000;stroke-width:1.5;" width="202" x="332" y="609.4922"/><line style="stroke:#181818;stroke-width:0.5;stroke-dasharray:5.0,5.0;" x1="162" x2="162" y1="97.5703" y2="738.5469"/><line style="stroke:#181818;stroke-width:0.5;stroke-dasharray:5.0,5.0;" x1="385" x2="385" y1="97.5703" y2="738.5469"/><line style="stroke:#181818;stroke-width:0.5;stroke-dasharray:5.0,5.0;" x1="573" x2="573" y1="97.5703" y2="738.5469"/><rect fill="#E2E2F0" height="31.6094" rx="2.5" ry="2.5" style="stroke:#181818;stroke-width:0.5;" width="65" x="130" y="64.9609"/><text fill="#000000" font-family="sans-serif" font-size="14" lengthAdjust="spacing" textLength="51" x="137" y="86.4941">External</text><rect fill="#E2E2F0" height="31.6094" rx="2.5" ry="2.5" style="stroke:#181818;stroke-width:0.5;" width="65" x="130" y="737.5469"/><text fill="#000000" font-family="sans-serif" font-size="14" lengthAdjust="spacing" textLength="51" x="137" y="759.0801">External</text><rect fill="#E2E2F0" height="31.6094" rx="2.5" ry="2.5" style="stroke:#181818;stroke-width:0.5;" width="87" x="342" y="64.9609"/><text fill="#000000" font-family="sans-serif" font-size="14" lengthAdjust="spacing" textLength="73" x="349" y="86.4941">Catalog Api</text><rect fill="#E2E2F0" height="31.6094" rx="2.5" ry="2.5" style="stroke:#181818;stroke-width:0.5;" width="87" x="342" y="737.5469"/><text fill="#000000" font-family="sans-serif" font-size="14" lengthAdjust="spacing" textLength="73" x="349" y="759.0801">Catalog Api</text><rect fill="#E2E2F0" height="31.6094" rx="2.5" ry="2.5" style="stroke:#181818;stroke-width:0.5;" width="115" x="516" y="64.9609"/><text fill="#000000" font-family="sans-serif" font-size="14" lengthAdjust="spacing" textLength="101" x="523" y="86.4941">Catalog Context</text><rect fill="#E2E2F0" height="31.6094" rx="2.5" ry="2.5" style="stroke:#181818;stroke-width:0.5;" width="115" x="516" y="737.5469"/><text fill="#000000" font-family="sans-serif" font-size="14" lengthAdjust="spacing" textLength="101" x="523" y="759.0801">Catalog Context</text><polygon fill="#181818" points="373.5,125.9219,383.5,129.9219,373.5,133.9219,377.5,129.9219" style="stroke:#181818;stroke-width:1.0;"/><line style="stroke:#181818;stroke-width:1.0;" x1="162.5" x2="379.5" y1="129.9219" y2="129.9219"/><text fill="#000000" font-family="sans-serif" font-size="13" lengthAdjust="spacing" textLength="199" x="169.5" y="125.0654">Get Items By Semantic Relevance</text><path d="M302,144.9219 L562,144.9219 L562,153.2734 L552,163.2734 L302,163.2734 L302,144.9219 " fill="#EEEEEE" style="stroke:#000000;stroke-width:1.5;"/><rect fill="none" height="576.625" style="stroke:#000000;stroke-width:1.5;" width="373" x="302" y="144.9219"/><text fill="#000000" font-family="sans-serif" font-size="13" font-weight="bold" lengthAdjust="spacing" textLength="215" x="317" y="159.417">Get Items By Semantic Relevance</text><path d="M312,170.2734 L373,170.2734 L373,178.625 L363,188.625 L312,188.625 L312,170.2734 " fill="#EEEEEE" style="stroke:#000000;stroke-width:1.5;"/><rect fill="none" height="286.8125" style="stroke:#000000;stroke-width:1.5;" width="339" x="312" y="170.2734"/><text fill="#000000" font-family="sans-serif" font-size="13" font-weight="bold" lengthAdjust="spacing" textLength="16" x="327" y="184.7686">alt</text><text fill="#000000" font-family="sans-serif" font-size="11" font-weight="bold" lengthAdjust="spacing" textLength="170" x="388" y="183.6924">[!services.CatalogAI.IsEnabled]</text><line style="stroke:#181818;stroke-width:1.0;" x1="385.5" x2="427.5" y1="210.9766" y2="210.9766"/><line style="stroke:#181818;stroke-width:1.0;" x1="427.5" x2="427.5" y1="210.9766" y2="223.9766"/><line style="stroke:#181818;stroke-width:1.0;" x1="386.5" x2="427.5" y1="223.9766" y2="223.9766"/><polygon fill="#181818" points="396.5,219.9766,386.5,223.9766,396.5,227.9766,392.5,223.9766" style="stroke:#181818;stroke-width:1.0;"/><text fill="#000000" font-family="sans-serif" font-size="13" lengthAdjust="spacing" textLength="115" x="392.5" y="206.1201">Get Items By Name</text><path d="M322,238.9766 L488,238.9766 L488,247.3281 L478,257.3281 L322,257.3281 L322,238.9766 " fill="#EEEEEE" style="stroke:#000000;stroke-width:1.5;"/><rect fill="none" height="211.1094" style="stroke:#000000;stroke-width:1.5;" width="319" x="322" y="238.9766"/><text fill="#000000" font-family="sans-serif" font-size="13" font-weight="bold" lengthAdjust="spacing" textLength="121" x="337" y="253.4717">Get Items By Name</text><polygon fill="#181818" points="561.5,275.6797,571.5,279.6797,561.5,283.6797,565.5,279.6797" style="stroke:#181818;stroke-width:1.0;"/><line style="stroke:#181818;stroke-width:1.0;" x1="385.5" x2="567.5" y1="279.6797" y2="279.6797"/><text fill="#000000" font-family="sans-serif" font-size="13" lengthAdjust="spacing" textLength="164" x="392.5" y="274.8232">Catalog Items To List Async</text><line style="stroke:#181818;stroke-width:1.0;" x1="385.5" x2="427.5" y1="310.0313" y2="310.0313"/><line style="stroke:#181818;stroke-width:1.0;" x1="427.5" x2="427.5" y1="310.0313" y2="323.0313"/><line style="stroke:#181818;stroke-width:1.0;" x1="386.5" x2="427.5" y1="323.0313" y2="323.0313"/><polygon fill="#181818" points="396.5,319.0313,386.5,323.0313,396.5,327.0313,392.5,323.0313" style="stroke:#181818;stroke-width:1.0;"/><text fill="#000000" font-family="sans-serif" font-size="13" lengthAdjust="spacing" textLength="136" x="392.5" y="305.1748">Change Uri Placeholder</text><path d="M332,338.0313 L529,338.0313 L529,346.3828 L519,356.3828 L332,356.3828 L332,338.0313 " fill="#EEEEEE" style="stroke:#000000;stroke-width:1.5;"/><rect fill="none" height="61.7031" style="stroke:#000000;stroke-width:1.5;" width="202" x="332" y="338.0313"/><text fill="#000000" font-family="sans-serif" font-size="13" font-weight="bold" lengthAdjust="spacing" textLength="152" x="347" y="352.5264">Change Uri Placeholder</text><line style="stroke:#181818;stroke-width:1.0;" x1="385.5" x2="427.5" y1="378.7344" y2="378.7344"/><line style="stroke:#181818;stroke-width:1.0;" x1="427.5" x2="427.5" y1="378.7344" y2="391.7344"/><line style="stroke:#181818;stroke-width:1.0;" x1="386.5" x2="427.5" y1="391.7344" y2="391.7344"/><polygon fill="#181818" points="396.5,387.7344,386.5,391.7344,396.5,395.7344,392.5,391.7344" style="stroke:#181818;stroke-width:1.0;"/><text fill="#000000" font-family="sans-serif" font-size="13" lengthAdjust="spacing" textLength="82" x="392.5" y="373.8779">Return (items)</text><line style="stroke:#181818;stroke-width:1.0;" x1="385.5" x2="427.5" y1="429.0859" y2="429.0859"/><line style="stroke:#181818;stroke-width:1.0;" x1="427.5" x2="427.5" y1="429.0859" y2="442.0859"/><line style="stroke:#181818;stroke-width:1.0;" x1="386.5" x2="427.5" y1="442.0859" y2="442.0859"/><polygon fill="#181818" points="396.5,438.0859,386.5,442.0859,396.5,446.0859,392.5,442.0859" style="stroke:#181818;stroke-width:1.0;"/><text fill="#000000" font-family="sans-serif" font-size="13" lengthAdjust="spacing" textLength="150" x="392.5" y="424.2295">Return (TypedResults.Ok)</text><path d="M332,471.0859 L393,471.0859 L393,479.4375 L383,489.4375 L332,489.4375 L332,471.0859 " fill="#EEEEEE" style="stroke:#000000;stroke-width:1.5;"/><rect fill="none" height="81.0547" style="stroke:#000000;stroke-width:1.5;" width="333" x="332" y="471.0859"/><text fill="#000000" font-family="sans-serif" font-size="13" font-weight="bold" lengthAdjust="spacing" textLength="16" x="347" y="485.5811">alt</text><text fill="#000000" font-family="sans-serif" font-size="11" font-weight="bold" lengthAdjust="spacing" textLength="252" x="408" y="484.5049">[services.Logger.IsEnabled(LogLevel.Debug)]</text><polygon fill="#181818" points="561.5,507.7891,571.5,511.7891,561.5,515.7891,565.5,511.7891" style="stroke:#181818;stroke-width:1.0;"/><line style="stroke:#181818;stroke-width:1.0;" x1="385.5" x2="567.5" y1="511.7891" y2="511.7891"/><text fill="#000000" font-family="sans-serif" font-size="13" lengthAdjust="spacing" textLength="164" x="392.5" y="506.9326">Catalog Items To List Async</text><line style="stroke:#000000;stroke-width:1.0;stroke-dasharray:2.0,2.0;" x1="332" x2="665" y1="520.7891" y2="520.7891"/><polygon fill="#181818" points="561.5,540.1406,571.5,544.1406,561.5,548.1406,565.5,544.1406" style="stroke:#181818;stroke-width:1.0;"/><line style="stroke:#181818;stroke-width:1.0;" x1="385.5" x2="567.5" y1="544.1406" y2="544.1406"/><text fill="#000000" font-family="sans-serif" font-size="13" lengthAdjust="spacing" textLength="164" x="392.5" y="539.2842">Catalog Items To List Async</text><line style="stroke:#181818;stroke-width:1.0;" x1="385.5" x2="427.5" y1="581.4922" y2="581.4922"/><line style="stroke:#181818;stroke-width:1.0;" x1="427.5" x2="427.5" y1="581.4922" y2="594.4922"/><line style="stroke:#181818;stroke-width:1.0;" x1="386.5" x2="427.5" y1="594.4922" y2="594.4922"/><polygon fill="#181818" points="396.5,590.4922,386.5,594.4922,396.5,598.4922,392.5,594.4922" style="stroke:#181818;stroke-width:1.0;"/><text fill="#000000" font-family="sans-serif" font-size="13" lengthAdjust="spacing" textLength="136" x="392.5" y="576.6357">Change Uri Placeholder</text><path d="M332,609.4922 L529,609.4922 L529,617.8438 L519,627.8438 L332,627.8438 L332,609.4922 " fill="#EEEEEE" style="stroke:#000000;stroke-width:1.5;"/><rect fill="none" height="61.7031" style="stroke:#000000;stroke-width:1.5;" width="202" x="332" y="609.4922"/><text fill="#000000" font-family="sans-serif" font-size="13" font-weight="bold" lengthAdjust="spacing" textLength="152" x="347" y="623.9873">Change Uri Placeholder</text><line style="stroke:#181818;stroke-width:1.0;" x1="385.5" x2="427.5" y1="650.1953" y2="650.1953"/><line style="stroke:#181818;stroke-width:1.0;" x1="427.5" x2="427.5" y1="650.1953" y2="663.1953"/><line style="stroke:#181818;stroke-width:1.0;" x1="386.5" x2="427.5" y1="663.1953" y2="663.1953"/><polygon fill="#181818" points="396.5,659.1953,386.5,663.1953,396.5,667.1953,392.5,663.1953" style="stroke:#181818;stroke-width:1.0;"/><text fill="#000000" font-family="sans-serif" font-size="13" lengthAdjust="spacing" textLength="82" x="392.5" y="645.3389">Return (items)</text><line style="stroke:#181818;stroke-width:1.0;" x1="385.5" x2="427.5" y1="700.5469" y2="700.5469"/><line style="stroke:#181818;stroke-width:1.0;" x1="427.5" x2="427.5" y1="700.5469" y2="713.5469"/><line style="stroke:#181818;stroke-width:1.0;" x1="386.5" x2="427.5" y1="713.5469" y2="713.5469"/><polygon fill="#181818" points="396.5,709.5469,386.5,713.5469,396.5,717.5469,392.5,713.5469" style="stroke:#181818;stroke-width:1.0;"/><text fill="#000000" font-family="sans-serif" font-size="13" lengthAdjust="spacing" textLength="150" x="392.5" y="695.6904">Return (TypedResults.Ok)</text><!--SRC=[xLLBJy904BxlhnZn0WTwykJ110kQ9WGDnNXUob0sBhjrTyhZtpkrF1K3CHYHsAJDpkot_RvvjQH88pGjGGS9MX2FR0Pr22L9RLDeP8gjyhdjksTuH3ZsS3k76CVIa4gWYnedqYJ8Y1XVSooNeHrdrg0Xu6tKGcJICLnbV0eghHcXCr9NG7e8hoB3vfssqo2sGvfAX_7S5qp14bZQGlJj32eRiYfm-JnIX0BuAdS_UhU8juuoDwU1iz0gSl29Uu5bQ11QGr8PT3uepKLmco21PW2iG6neYSpGIKykJoXtk5zMmOCp-gQqRROTAXUlNojTBSJXHO3wpJ7J1jVx6akapkRPNfJK11SUtKGbk2Q8WiYtZEnh78XZglxP97JaU6VOx_vV3-FGFkEeberTHj2pq5QUeE7d9ZdjSeGZQLA49wVWKSi4HrOFq2rgyiNcIGVKHIwMWQegpjUAoVyRUdlp30TTzBbcnCDBgRouYtbVZNlRfYcwzQnNsT4kVZn14_jvMZkReK7j4SudcbFlml_Fm2b_1iGR]--></g></svg>