<?xml version="1.0" encoding="us-ascii" standalone="no"?><svg xmlns="http://www.w3.org/2000/svg" xmlns:xlink="http://www.w3.org/1999/xlink" contentStyleType="text/css" height="542px" preserveAspectRatio="none" style="width:817px;height:542px;background:#FFFFFF;" version="1.1" viewBox="0 0 817 542" width="817px" zoomAndPan="magnify"><defs/><g><text fill="#000000" font-family="sans-serif" font-size="14" font-weight="bold" lengthAdjust="spacing" textLength="789" x="10" y="29.5332">Dot Net E Shop - Catalog Api - Api - Catalog Api - Get Items By Semantic Relevance - Sequence - Component level</text><rect fill="#FFFFFF" height="491.4375" style="stroke:#181818;stroke-width:0.5;" width="95" x="338" y="44.6094"/><text fill="#000000" font-family="sans-serif" font-size="13" font-weight="bold" lengthAdjust="spacing" textLength="21" x="375" y="58.1045">Api</text><rect fill="#FFFFFF" height="491.4375" style="stroke:#181818;stroke-width:0.5;" width="123" x="512" y="44.6094"/><text fill="#000000" font-family="sans-serif" font-size="13" font-weight="bold" lengthAdjust="spacing" textLength="84" x="531.5" y="58.1045">Infrastructure</text><rect fill="none" height="338.5156" style="stroke:#000000;stroke-width:1.5;" width="363" x="312" y="144.9219"/><rect fill="none" height="167.7578" style="stroke:#000000;stroke-width:1.5;" width="329" x="322" y="170.2734"/><rect fill="none" height="92.0547" style="stroke:#000000;stroke-width:1.5;" width="309" x="332" y="238.9766"/><rect fill="none" height="81.0547" style="stroke:#000000;stroke-width:1.5;" width="333" x="332" y="352.0313"/><line style="stroke:#181818;stroke-width:0.5;stroke-dasharray:5.0,5.0;" x1="162" x2="162" y1="97.5703" y2="500.4375"/><line style="stroke:#181818;stroke-width:0.5;stroke-dasharray:5.0,5.0;" x1="385" x2="385" y1="97.5703" y2="500.4375"/><line style="stroke:#181818;stroke-width:0.5;stroke-dasharray:5.0,5.0;" x1="573" x2="573" y1="97.5703" y2="500.4375"/><rect fill="#E2E2F0" height="31.6094" rx="2.5" ry="2.5" style="stroke:#181818;stroke-width:0.5;" width="65" x="130" y="64.9609"/><text fill="#000000" font-family="sans-serif" font-size="14" lengthAdjust="spacing" textLength="51" x="137" y="86.4941">External</text><rect fill="#E2E2F0" height="31.6094" rx="2.5" ry="2.5" style="stroke:#181818;stroke-width:0.5;" width="65" x="130" y="499.4375"/><text fill="#000000" font-family="sans-serif" font-size="14" lengthAdjust="spacing" textLength="51" x="137" y="520.9707">External</text><rect fill="#E2E2F0" height="31.6094" rx="2.5" ry="2.5" style="stroke:#181818;stroke-width:0.5;" width="87" x="342" y="64.9609"/><text fill="#000000" font-family="sans-serif" font-size="14" lengthAdjust="spacing" textLength="73" x="349" y="86.4941">Catalog Api</text><rect fill="#E2E2F0" height="31.6094" rx="2.5" ry="2.5" style="stroke:#181818;stroke-width:0.5;" width="87" x="342" y="499.4375"/><text fill="#000000" font-family="sans-serif" font-size="14" lengthAdjust="spacing" textLength="73" x="349" y="520.9707">Catalog Api</text><rect fill="#E2E2F0" height="31.6094" rx="2.5" ry="2.5" style="stroke:#181818;stroke-width:0.5;" width="115" x="516" y="64.9609"/><text fill="#000000" font-family="sans-serif" font-size="14" lengthAdjust="spacing" textLength="101" x="523" y="86.4941">Catalog Context</text><rect fill="#E2E2F0" height="31.6094" rx="2.5" ry="2.5" style="stroke:#181818;stroke-width:0.5;" width="115" x="516" y="499.4375"/><text fill="#000000" font-family="sans-serif" font-size="14" lengthAdjust="spacing" textLength="101" x="523" y="520.9707">Catalog Context</text><polygon fill="#181818" points="373.5,125.9219,383.5,129.9219,373.5,133.9219,377.5,129.9219" style="stroke:#181818;stroke-width:1.0;"/><line style="stroke:#181818;stroke-width:1.0;" x1="162.5" x2="379.5" y1="129.9219" y2="129.9219"/><text fill="#000000" font-family="sans-serif" font-size="13" lengthAdjust="spacing" textLength="199" x="169.5" y="125.0654">Get Items By Semantic Relevance</text><path d="M312,144.9219 L572,144.9219 L572,153.2734 L562,163.2734 L312,163.2734 L312,144.9219 " fill="#EEEEEE" style="stroke:#000000;stroke-width:1.5;"/><rect fill="none" height="338.5156" style="stroke:#000000;stroke-width:1.5;" width="363" x="312" y="144.9219"/><text fill="#000000" font-family="sans-serif" font-size="13" font-weight="bold" lengthAdjust="spacing" textLength="215" x="327" y="159.417">Get Items By Semantic Relevance</text><path d="M322,170.2734 L383,170.2734 L383,178.625 L373,188.625 L322,188.625 L322,170.2734 " fill="#EEEEEE" style="stroke:#000000;stroke-width:1.5;"/><rect fill="none" height="167.7578" style="stroke:#000000;stroke-width:1.5;" width="329" x="322" y="170.2734"/><text fill="#000000" font-family="sans-serif" font-size="13" font-weight="bold" lengthAdjust="spacing" textLength="16" x="337" y="184.7686">alt</text><text fill="#000000" font-family="sans-serif" font-size="11" font-weight="bold" lengthAdjust="spacing" textLength="170" x="398" y="183.6924">[!services.CatalogAI.IsEnabled]</text><line style="stroke:#181818;stroke-width:1.0;" x1="385.5" x2="427.5" y1="210.9766" y2="210.9766"/><line style="stroke:#181818;stroke-width:1.0;" x1="427.5" x2="427.5" y1="210.9766" y2="223.9766"/><line style="stroke:#181818;stroke-width:1.0;" x1="386.5" x2="427.5" y1="223.9766" y2="223.9766"/><polygon fill="#181818" points="396.5,219.9766,386.5,223.9766,396.5,227.9766,392.5,223.9766" style="stroke:#181818;stroke-width:1.0;"/><text fill="#000000" font-family="sans-serif" font-size="13" lengthAdjust="spacing" textLength="115" x="392.5" y="206.1201">Get Items By Name</text><path d="M332,238.9766 L498,238.9766 L498,247.3281 L488,257.3281 L332,257.3281 L332,238.9766 " fill="#EEEEEE" style="stroke:#000000;stroke-width:1.5;"/><rect fill="none" height="92.0547" style="stroke:#000000;stroke-width:1.5;" width="309" x="332" y="238.9766"/><text fill="#000000" font-family="sans-serif" font-size="13" font-weight="bold" lengthAdjust="spacing" textLength="121" x="347" y="253.4717">Get Items By Name</text><polygon fill="#181818" points="561.5,275.6797,571.5,279.6797,561.5,283.6797,565.5,279.6797" style="stroke:#181818;stroke-width:1.0;"/><line style="stroke:#181818;stroke-width:1.0;" x1="385.5" x2="567.5" y1="279.6797" y2="279.6797"/><text fill="#000000" font-family="sans-serif" font-size="13" lengthAdjust="spacing" textLength="164" x="392.5" y="274.8232">Catalog Items To List Async</text><line style="stroke:#181818;stroke-width:1.0;" x1="385.5" x2="427.5" y1="310.0313" y2="310.0313"/><line style="stroke:#181818;stroke-width:1.0;" x1="427.5" x2="427.5" y1="310.0313" y2="323.0313"/><line style="stroke:#181818;stroke-width:1.0;" x1="386.5" x2="427.5" y1="323.0313" y2="323.0313"/><polygon fill="#181818" points="396.5,319.0313,386.5,323.0313,396.5,327.0313,392.5,323.0313" style="stroke:#181818;stroke-width:1.0;"/><text fill="#000000" font-family="sans-serif" font-size="13" lengthAdjust="spacing" textLength="150" x="392.5" y="305.1748">Return (TypedResults.Ok)</text><path d="M332,352.0313 L393,352.0313 L393,360.3828 L383,370.3828 L332,370.3828 L332,352.0313 " fill="#EEEEEE" style="stroke:#000000;stroke-width:1.5;"/><rect fill="none" height="81.0547" style="stroke:#000000;stroke-width:1.5;" width="333" x="332" y="352.0313"/><text fill="#000000" font-family="sans-serif" font-size="13" font-weight="bold" lengthAdjust="spacing" textLength="16" x="347" y="366.5264">alt</text><text fill="#000000" font-family="sans-serif" font-size="11" font-weight="bold" lengthAdjust="spacing" textLength="252" x="408" y="365.4502">[services.Logger.IsEnabled(LogLevel.Debug)]</text><polygon fill="#181818" points="561.5,388.7344,571.5,392.7344,561.5,396.7344,565.5,392.7344" style="stroke:#181818;stroke-width:1.0;"/><line style="stroke:#181818;stroke-width:1.0;" x1="385.5" x2="567.5" y1="392.7344" y2="392.7344"/><text fill="#000000" font-family="sans-serif" font-size="13" lengthAdjust="spacing" textLength="164" x="392.5" y="387.8779">Catalog Items To List Async</text><line style="stroke:#000000;stroke-width:1.0;stroke-dasharray:2.0,2.0;" x1="332" x2="665" y1="401.7344" y2="401.7344"/><polygon fill="#181818" points="561.5,421.0859,571.5,425.0859,561.5,429.0859,565.5,425.0859" style="stroke:#181818;stroke-width:1.0;"/><line style="stroke:#181818;stroke-width:1.0;" x1="385.5" x2="567.5" y1="425.0859" y2="425.0859"/><text fill="#000000" font-family="sans-serif" font-size="13" lengthAdjust="spacing" textLength="164" x="392.5" y="420.2295">Catalog Items To List Async</text><line style="stroke:#181818;stroke-width:1.0;" x1="385.5" x2="427.5" y1="462.4375" y2="462.4375"/><line style="stroke:#181818;stroke-width:1.0;" x1="427.5" x2="427.5" y1="462.4375" y2="475.4375"/><line style="stroke:#181818;stroke-width:1.0;" x1="386.5" x2="427.5" y1="475.4375" y2="475.4375"/><polygon fill="#181818" points="396.5,471.4375,386.5,475.4375,396.5,479.4375,392.5,475.4375" style="stroke:#181818;stroke-width:1.0;"/><text fill="#000000" font-family="sans-serif" font-size="13" lengthAdjust="spacing" textLength="150" x="392.5" y="457.5811">Return (TypedResults.Ok)</text><!--SRC=[tLHDRu904BtlhvZIYnxar5CFJQpIXiJOH4nwNd54qcMNxWug_xw3-4Lhecbisae2sPbzotipyu1IKWXzGp14WW2YkScX0pr9Kfa4kddAKVrivfuP7X9c3XvBY32Jcj8OHgXm8NMCZ8ZmlS1wsJDPRZHg0jv69KGkBSFJd4-15wm8hPRA0-cWTnTg3f-KMVgHcT5IMenALp7vMs0T2p4nA_0EP7bm-pfF2GNmLUz-pZQ86qUPczl0NGYg7dpXtc0PwlUC9fbgjCwlmqrnXo21UWgiG1ne2VNCIaUsYAcmU5fMnOCh-gQq9jiHbPlNxvNk5kBy8K3duP9jW_jJnXA9DKL-4YKLmOr3kqXZt1E4VkW2BISAf-AIgd-s2KEP7IrxdV_rCixr6LUrDNPTmTZ087K4NLVg-6-FOuHScuRMkCnnEa9NA4QylBMhJsPzLtRRkMrWaWJjtcejJWog_vxVnqcHjAzcPgWSmlLKewV_s8NY0m00]--></g></svg>