<?xml version="1.0" encoding="us-ascii" standalone="no"?><svg xmlns="http://www.w3.org/2000/svg" xmlns:xlink="http://www.w3.org/1999/xlink" contentStyleType="text/css" height="430px" preserveAspectRatio="none" style="width:828px;height:430px;background:#FFFFFF;" version="1.1" viewBox="0 0 828 430" width="828px" zoomAndPan="magnify"><defs/><g><text fill="#000000" font-family="sans-serif" font-size="14" font-weight="bold" lengthAdjust="spacing" textLength="634" x="90" y="24.5332">E Commerce Platform - Generate Demand - Order Management - C4 Static - Container level</text><!--cluster ECommercePlatform.GenerateDemand.OrderManagement.SoftwareSystems.OrderService--><g id="cluster_ECommercePlatform.GenerateDemand.OrderManagement.SoftwareSystems.OrderService"><rect fill="none" height="281.5" rx="2.5" ry="2.5" style="stroke:#444444;stroke-width:1.0;stroke-dasharray:7.0,7.0;" width="311" x="7" y="45.6094"/><text fill="#444444" font-family="sans-serif" font-size="16" font-weight="bold" lengthAdjust="spacing" textLength="104" x="110.5" y="64.2188">Order Service</text><text fill="#444444" font-family="sans-serif" font-size="12" font-weight="bold" lengthAdjust="spacing" textLength="51" x="137" y="80.1914">[System]</text></g><!--cluster ECommercePlatform.Deliver.FraudManagement.SoftwareSystems.FraudService--><g id="cluster_ECommercePlatform.Deliver.FraudManagement.SoftwareSystems.FraudService"><rect fill="none" height="115" rx="2.5" ry="2.5" style="stroke:#444444;stroke-width:1.0;stroke-dasharray:7.0,7.0;" width="136" x="342" y="202.6094"/><text fill="#444444" font-family="sans-serif" font-size="16" font-weight="bold" lengthAdjust="spacing" textLength="106" x="357" y="221.2188">Fraud Service</text><text fill="#444444" font-family="sans-serif" font-size="12" font-weight="bold" lengthAdjust="spacing" textLength="51" x="384.5" y="237.1914">[System]</text></g><!--cluster ECommercePlatform.Deliver.Payments.SoftwareSystems.PaymentService--><g id="cluster_ECommercePlatform.Deliver.Payments.SoftwareSystems.PaymentService"><rect fill="none" height="115" rx="2.5" ry="2.5" style="stroke:#444444;stroke-width:1.0;stroke-dasharray:7.0,7.0;" width="144" x="502" y="202.6094"/><text fill="#444444" font-family="sans-serif" font-size="16" font-weight="bold" lengthAdjust="spacing" textLength="128" x="510" y="221.2188">Payment Service</text><text fill="#444444" font-family="sans-serif" font-size="12" font-weight="bold" lengthAdjust="spacing" textLength="51" x="548.5" y="237.1914">[System]</text></g><!--cluster ECommercePlatform.Deliver.Fulfilment.SoftwareSystems.FulfilmentService--><g id="cluster_ECommercePlatform.Deliver.Fulfilment.SoftwareSystems.FulfilmentService"><rect fill="none" height="115" rx="2.5" ry="2.5" style="stroke:#444444;stroke-width:1.0;stroke-dasharray:7.0,7.0;" width="152" x="670" y="202.6094"/><text fill="#444444" font-family="sans-serif" font-size="16" font-weight="bold" lengthAdjust="spacing" textLength="136" x="678" y="221.2188">Fulfilment Service</text><text fill="#444444" font-family="sans-serif" font-size="12" font-weight="bold" lengthAdjust="spacing" textLength="51" x="720.5" y="237.1914">[System]</text></g><!--entity ECommercePlatform.GenerateDemand.OrderManagement.SoftwareSystems.OrderService.Containers.Api--><g id="elem_ECommercePlatform.GenerateDemand.OrderManagement.SoftwareSystems.OrderService.Containers.Api"><rect fill="#438DD5" height="40.125" rx="2.5" ry="2.5" style="stroke:#3C7FC0;stroke-width:0.5;" width="45" x="52.5" y="99.6094"/><text fill="#FFFFFF" font-family="sans-serif" font-size="16" font-weight="bold" lengthAdjust="spacing" textLength="25" x="62.5" y="126.2188">Api</text></g><!--entity ECommercePlatform.GenerateDemand.OrderManagement.SoftwareSystems.OrderService.Containers.Database--><g id="elem_ECommercePlatform.GenerateDemand.OrderManagement.SoftwareSystems.OrderService.Containers.Database"><path d="M47,257.1094 C47,247.1094 93,247.1094 93,247.1094 C93,247.1094 139,247.1094 139,257.1094 L139,301.3281 C139,311.3281 93,311.3281 93,311.3281 C93,311.3281 47,311.3281 47,301.3281 L47,257.1094 " fill="#438DD5" style="stroke:#3C7FC0;stroke-width:0.5;"/><path d="M47,257.1094 C47,267.1094 93,267.1094 93,267.1094 C93,267.1094 139,267.1094 139,257.1094 " fill="none" style="stroke:#3C7FC0;stroke-width:0.5;"/><text fill="#FFFFFF" font-family="sans-serif" font-size="16" font-weight="bold" lengthAdjust="spacing" textLength="72" x="57" y="287.7188">Database</text><text fill="#FFFFFF" font-family="sans-serif" font-size="12" font-style="italic" lengthAdjust="spacing" textLength="60" x="63" y="303.6914">[Database]</text></g><!--entity ECommercePlatform.GenerateDemand.OrderManagement.SoftwareSystems.OrderService.Containers.Messaging--><g id="elem_ECommercePlatform.GenerateDemand.OrderManagement.SoftwareSystems.OrderService.Containers.Messaging"><path d="M191.5,256.6094 L284.5,256.6094 C289.5,256.6094 289.5,279.2188 289.5,279.2188 C289.5,279.2188 289.5,301.8281 284.5,301.8281 L191.5,301.8281 C186.5,301.8281 186.5,279.2188 186.5,279.2188 C186.5,279.2188 186.5,256.6094 191.5,256.6094 " fill="#438DD5" style="stroke:#3C7FC0;stroke-width:0.5;"/><path d="M284.5,256.6094 C279.5,256.6094 279.5,279.2188 279.5,279.2188 C279.5,301.8281 284.5,301.8281 284.5,301.8281 " fill="none" style="stroke:#3C7FC0;stroke-width:0.5;"/><text fill="#FFFFFF" font-family="sans-serif" font-size="16" font-weight="bold" lengthAdjust="spacing" textLength="83" x="191.5" y="278.2188">Messaging</text><text fill="#FFFFFF" font-family="sans-serif" font-size="12" font-style="italic" lengthAdjust="spacing" textLength="36" x="215" y="294.1914">[Topic]</text></g><!--entity ECommercePlatform.GenerateDemand.OrderManagement.SoftwareSystems.OrderService.Containers.MessageHandler--><g id="elem_ECommercePlatform.GenerateDemand.OrderManagement.SoftwareSystems.OrderService.Containers.MessageHandler"><rect fill="#438DD5" height="40.125" rx="2.5" ry="2.5" style="stroke:#3C7FC0;stroke-width:0.5;" width="152" x="150" y="99.6094"/><text fill="#FFFFFF" font-family="sans-serif" font-size="16" font-weight="bold" lengthAdjust="spacing" textLength="68" x="160" y="126.2188">Message</text><text fill="#FFFFFF" font-family="sans-serif" font-size="16" font-weight="bold" lengthAdjust="spacing" textLength="4" x="228" y="126.2188">&#160;</text><text fill="#FFFFFF" font-family="sans-serif" font-size="16" font-weight="bold" lengthAdjust="spacing" textLength="60" x="232" y="126.2188">Handler</text></g><!--entity ECommercePlatform.Deliver.FraudManagement.SoftwareSystems.FraudService.Containers.Messaging--><g id="elem_ECommercePlatform.Deliver.FraudManagement.SoftwareSystems.FraudService.Containers.Messaging"><path d="M363.5,256.6094 L456.5,256.6094 C461.5,256.6094 461.5,279.2188 461.5,279.2188 C461.5,279.2188 461.5,301.8281 456.5,301.8281 L363.5,301.8281 C358.5,301.8281 358.5,279.2188 358.5,279.2188 C358.5,279.2188 358.5,256.6094 363.5,256.6094 " fill="#438DD5" style="stroke:#3C7FC0;stroke-width:0.5;"/><path d="M456.5,256.6094 C451.5,256.6094 451.5,279.2188 451.5,279.2188 C451.5,301.8281 456.5,301.8281 456.5,301.8281 " fill="none" style="stroke:#3C7FC0;stroke-width:0.5;"/><text fill="#FFFFFF" font-family="sans-serif" font-size="16" font-weight="bold" lengthAdjust="spacing" textLength="83" x="363.5" y="278.2188">Messaging</text><text fill="#FFFFFF" font-family="sans-serif" font-size="12" font-style="italic" lengthAdjust="spacing" textLength="36" x="387" y="294.1914">[Topic]</text></g><!--entity ECommercePlatform.Deliver.Payments.SoftwareSystems.PaymentService.Containers.Messaging--><g id="elem_ECommercePlatform.Deliver.Payments.SoftwareSystems.PaymentService.Containers.Messaging"><path d="M523.5,256.6094 L616.5,256.6094 C621.5,256.6094 621.5,279.2188 621.5,279.2188 C621.5,279.2188 621.5,301.8281 616.5,301.8281 L523.5,301.8281 C518.5,301.8281 518.5,279.2188 518.5,279.2188 C518.5,279.2188 518.5,256.6094 523.5,256.6094 " fill="#438DD5" style="stroke:#3C7FC0;stroke-width:0.5;"/><path d="M616.5,256.6094 C611.5,256.6094 611.5,279.2188 611.5,279.2188 C611.5,301.8281 616.5,301.8281 616.5,301.8281 " fill="none" style="stroke:#3C7FC0;stroke-width:0.5;"/><text fill="#FFFFFF" font-family="sans-serif" font-size="16" font-weight="bold" lengthAdjust="spacing" textLength="83" x="523.5" y="278.2188">Messaging</text><text fill="#FFFFFF" font-family="sans-serif" font-size="12" font-style="italic" lengthAdjust="spacing" textLength="36" x="547" y="294.1914">[Topic]</text></g><!--entity ECommercePlatform.Deliver.Fulfilment.SoftwareSystems.FulfilmentService.Containers.Messaging--><g id="elem_ECommercePlatform.Deliver.Fulfilment.SoftwareSystems.FulfilmentService.Containers.Messaging"><path d="M691.5,256.6094 L784.5,256.6094 C789.5,256.6094 789.5,279.2188 789.5,279.2188 C789.5,279.2188 789.5,301.8281 784.5,301.8281 L691.5,301.8281 C686.5,301.8281 686.5,279.2188 686.5,279.2188 C686.5,279.2188 686.5,256.6094 691.5,256.6094 " fill="#438DD5" style="stroke:#3C7FC0;stroke-width:0.5;"/><path d="M784.5,256.6094 C779.5,256.6094 779.5,279.2188 779.5,279.2188 C779.5,301.8281 784.5,301.8281 784.5,301.8281 " fill="none" style="stroke:#3C7FC0;stroke-width:0.5;"/><text fill="#FFFFFF" font-family="sans-serif" font-size="16" font-weight="bold" lengthAdjust="spacing" textLength="83" x="691.5" y="278.2188">Messaging</text><text fill="#FFFFFF" font-family="sans-serif" font-size="12" font-style="italic" lengthAdjust="spacing" textLength="36" x="715" y="294.1914">[Topic]</text></g><!--link ECommercePlatform.GenerateDemand.OrderManagement.SoftwareSystems.OrderService.Containers.Api to ECommercePlatform.GenerateDemand.OrderManagement.SoftwareSystems.OrderService.Containers.Database--><g id="link_ECommercePlatform.GenerateDemand.OrderManagement.SoftwareSystems.OrderService.Containers.Api_ECommercePlatform.GenerateDemand.OrderManagement.SoftwareSystems.OrderService.Containers.Database"><path d="M67.21,139.6894 C61.59,153.4494 55,169.6094 55,169.6094 C55,169.6094 55,186.6094 55,186.6094 C55,186.6094 65.9516,212.9812 76.9616,239.4912 " fill="none" id="ECommercePlatform.GenerateDemand.OrderManagement.SoftwareSystems.OrderService.Containers.Api-to-ECommercePlatform.GenerateDemand.OrderManagement.SoftwareSystems.OrderService.Containers.Database" style="stroke:#666666;stroke-width:1.0;"/><polygon fill="#666666" points="80.03,246.8794,79.7321,238.3406,74.191,240.6419,80.03,246.8794" style="stroke:#666666;stroke-width:1.0;"/><text fill="#666666" font-family="sans-serif" font-size="12" font-weight="bold" lengthAdjust="spacing" textLength="29" x="56" y="183.0664">Uses</text></g><!--link ECommercePlatform.GenerateDemand.OrderManagement.SoftwareSystems.OrderService.Containers.Api to ECommercePlatform.GenerateDemand.OrderManagement.SoftwareSystems.OrderService.Containers.Messaging--><g id="link_ECommercePlatform.GenerateDemand.OrderManagement.SoftwareSystems.OrderService.Containers.Api_ECommercePlatform.GenerateDemand.OrderManagement.SoftwareSystems.OrderService.Containers.Messaging"><path d="M91.78,139.6994 C108.91,159.1894 133,186.6094 133,186.6094 C133,186.6094 156,194.6094 156,194.6094 C156,194.6094 186.9853,226.1608 211.2753,250.9008 " fill="none" id="ECommercePlatform.GenerateDemand.OrderManagement.SoftwareSystems.OrderService.Containers.Api-to-ECommercePlatform.GenerateDemand.OrderManagement.SoftwareSystems.OrderService.Containers.Messaging" style="stroke:#666666;stroke-width:1.0;"/><polygon fill="#666666" points="216.88,256.6094,213.416,248.7991,209.1346,253.0026,216.88,256.6094" style="stroke:#666666;stroke-width:1.0;"/><text fill="#666666" font-family="sans-serif" font-size="12" font-weight="bold" lengthAdjust="spacing" textLength="29" x="134" y="183.0664">Uses</text></g><!--link ECommercePlatform.GenerateDemand.OrderManagement.SoftwareSystems.OrderService.Containers.MessageHandler to ECommercePlatform.Deliver.FraudManagement.SoftwareSystems.FraudService.Containers.Messaging--><g id="link_ECommercePlatform.GenerateDemand.OrderManagement.SoftwareSystems.OrderService.Containers.MessageHandler_ECommercePlatform.Deliver.FraudManagement.SoftwareSystems.FraudService.Containers.Messaging"><path d="M249.69,139.6694 C276.95,161.5894 318,194.6094 318,194.6094 C318,194.6094 353.126,226.493 380.386,251.233 " fill="none" id="ECommercePlatform.GenerateDemand.OrderManagement.SoftwareSystems.OrderService.Containers.MessageHandler-to-ECommercePlatform.Deliver.FraudManagement.SoftwareSystems.FraudService.Containers.Messaging" style="stroke:#666666;stroke-width:1.0;"/><polygon fill="#666666" points="386.31,256.6094,382.4021,249.0115,378.3698,253.4545,386.31,256.6094" style="stroke:#666666;stroke-width:1.0;"/><text fill="#666666" font-family="sans-serif" font-size="12" font-weight="bold" lengthAdjust="spacing" textLength="29" x="308" y="183.0664">Uses</text></g><!--link ECommercePlatform.GenerateDemand.OrderManagement.SoftwareSystems.OrderService.Containers.MessageHandler to ECommercePlatform.GenerateDemand.OrderManagement.SoftwareSystems.OrderService.Containers.Database--><g id="link_ECommercePlatform.GenerateDemand.OrderManagement.SoftwareSystems.OrderService.Containers.MessageHandler_ECommercePlatform.GenerateDemand.OrderManagement.SoftwareSystems.OrderService.Containers.Database"><path d="M209.69,139.9194 C187.15,166.6194 151.371,208.9868 124.471,240.8468 " fill="none" id="ECommercePlatform.GenerateDemand.OrderManagement.SoftwareSystems.OrderService.Containers.MessageHandler-to-ECommercePlatform.GenerateDemand.OrderManagement.SoftwareSystems.OrderService.Containers.Database" style="stroke:#666666;stroke-width:1.0;"/><polygon fill="#666666" points="119.31,246.9594,126.7632,242.7821,122.1788,238.9114,119.31,246.9594" style="stroke:#666666;stroke-width:1.0;"/><text fill="#666666" font-family="sans-serif" font-size="12" font-weight="bold" lengthAdjust="spacing" textLength="29" x="184" y="183.0664">Uses</text></g><!--link ECommercePlatform.GenerateDemand.OrderManagement.SoftwareSystems.OrderService.Containers.MessageHandler to ECommercePlatform.GenerateDemand.OrderManagement.SoftwareSystems.OrderService.Containers.Messaging--><g id="link_ECommercePlatform.GenerateDemand.OrderManagement.SoftwareSystems.OrderService.Containers.MessageHandler_ECommercePlatform.GenerateDemand.OrderManagement.SoftwareSystems.OrderService.Containers.Messaging"><path d="M228.34,139.6894 C230.02,153.4494 232,169.6094 232,169.6094 C232,169.6094 234.6085,216.7616 236.3585,248.4216 " fill="none" id="ECommercePlatform.GenerateDemand.OrderManagement.SoftwareSystems.OrderService.Containers.MessageHandler-to-ECommercePlatform.GenerateDemand.OrderManagement.SoftwareSystems.OrderService.Containers.Messaging" style="stroke:#666666;stroke-width:1.0;"/><polygon fill="#666666" points="236.8,256.4094,239.3539,248.256,233.363,248.5871,236.8,256.4094" style="stroke:#666666;stroke-width:1.0;"/><text fill="#666666" font-family="sans-serif" font-size="12" font-weight="bold" lengthAdjust="spacing" textLength="29" x="234" y="183.0664">Uses</text></g><!--link ECommercePlatform.GenerateDemand.OrderManagement.SoftwareSystems.OrderService.Containers.MessageHandler to ECommercePlatform.Deliver.Payments.SoftwareSystems.PaymentService.Containers.Messaging--><g id="link_ECommercePlatform.GenerateDemand.OrderManagement.SoftwareSystems.OrderService.Containers.MessageHandler_ECommercePlatform.Deliver.Payments.SoftwareSystems.PaymentService.Containers.Messaging"><path d="M290.9,139.6694 C365.56,161.5894 478,194.6094 478,194.6094 C478,194.6094 513.126,226.493 540.386,251.233 " fill="none" id="ECommercePlatform.GenerateDemand.OrderManagement.SoftwareSystems.OrderService.Containers.MessageHandler-to-ECommercePlatform.Deliver.Payments.SoftwareSystems.PaymentService.Containers.Messaging" style="stroke:#666666;stroke-width:1.0;"/><polygon fill="#666666" points="546.31,256.6094,542.4021,249.0115,538.3698,253.4545,546.31,256.6094" style="stroke:#666666;stroke-width:1.0;"/><text fill="#666666" font-family="sans-serif" font-size="12" font-weight="bold" lengthAdjust="spacing" textLength="29" x="448" y="183.0664">Uses</text></g><!--link ECommercePlatform.GenerateDemand.OrderManagement.SoftwareSystems.OrderService.Containers.MessageHandler to ECommercePlatform.Deliver.Fulfilment.SoftwareSystems.FulfilmentService.Containers.Messaging--><g id="link_ECommercePlatform.GenerateDemand.OrderManagement.SoftwareSystems.OrderService.Containers.MessageHandler_ECommercePlatform.Deliver.Fulfilment.SoftwareSystems.FulfilmentService.Containers.Messaging"><path d="M302.05,134.2694 C421.09,155.6494 638,194.6094 638,194.6094 C638,194.6094 676.4792,226.742 706.1092,251.482 " fill="none" id="ECommercePlatform.GenerateDemand.OrderManagement.SoftwareSystems.OrderService.Containers.MessageHandler-to-ECommercePlatform.Deliver.Fulfilment.SoftwareSystems.FulfilmentService.Containers.Messaging" style="stroke:#666666;stroke-width:1.0;"/><polygon fill="#666666" points="712.25,256.6094,708.0319,249.1792,704.1864,253.7848,712.25,256.6094" style="stroke:#666666;stroke-width:1.0;"/><text fill="#666666" font-family="sans-serif" font-size="12" font-weight="bold" lengthAdjust="spacing" textLength="29" x="587" y="183.0664">Uses</text></g><rect fill="none" height="17.6094" style="stroke:none;stroke-width:1.0;" width="182" x="615" y="351.1094"/><text fill="#000000" font-family="sans-serif" font-size="14" font-weight="bold" lengthAdjust="spacing" textLength="53" x="615" y="365.6426">Legend</text><text fill="#FFFFFF" font-family="sans-serif" font-size="14" lengthAdjust="spacing" textLength="4" x="668" y="365.6426">&#160;</text><rect fill="#438DD5" height="17.6094" style="stroke:none;stroke-width:1.0;" width="182" x="615" y="368.7188"/><text fill="#3C7FC0" font-family="sans-serif" font-size="14" lengthAdjust="spacing" textLength="14" x="619" y="383.252">&#9647;</text><text fill="#FFFFFF" font-family="sans-serif" font-size="14" lengthAdjust="spacing" textLength="4" x="633" y="383.252">&#160;</text><text fill="#FFFFFF" font-family="sans-serif" font-size="14" lengthAdjust="spacing" textLength="59" x="641" y="383.252">container</text><text fill="#FFFFFF" font-family="sans-serif" font-size="14" lengthAdjust="spacing" textLength="4" x="704" y="383.252">&#160;</text><rect fill="none" height="17.6094" style="stroke:none;stroke-width:1.0;" width="182" x="615" y="386.3281"/><text fill="#444444" font-family="sans-serif" font-size="14" lengthAdjust="spacing" textLength="14" x="619" y="400.8613">&#9647;</text><text fill="#FFFFFF" font-family="sans-serif" font-size="14" lengthAdjust="spacing" textLength="4" x="633" y="400.8613">&#160;</text><text fill="#444444" font-family="sans-serif" font-size="14" lengthAdjust="spacing" textLength="108" x="641" y="400.8613">system boundary</text><text fill="#444444" font-family="sans-serif" font-size="10" lengthAdjust="spacing" textLength="40" x="753" y="401.7402">(dashed)</text><text fill="#FFFFFF" font-family="sans-serif" font-size="14" lengthAdjust="spacing" textLength="4" x="793" y="400.8613">&#160;</text><line style="stroke:none;stroke-width:1.0;" x1="615" x2="797" y1="351.1094" y2="351.1094"/><line style="stroke:none;stroke-width:1.0;" x1="615" x2="797" y1="368.7188" y2="368.7188"/><line style="stroke:none;stroke-width:1.0;" x1="615" x2="797" y1="386.3281" y2="386.3281"/><line style="stroke:none;stroke-width:1.0;" x1="615" x2="797" y1="403.9375" y2="403.9375"/><line style="stroke:none;stroke-width:1.0;" x1="615" x2="615" y1="351.1094" y2="403.9375"/><line style="stroke:none;stroke-width:1.0;" x1="797" x2="797" y1="351.1094" y2="403.9375"/><!--SRC=[rLRTRzem47_FN-5bUo3IbYUUAlM1aT1EQWa3gcfI9MIIIshDiIFRWQ5f__kS3vB0w1feKr44o3vRlu-xoy47mdoQ1e1i-w5- -ttvCEmlXfmfJ1W8EqbZQXY3870fnC3K74Szq-yJfa24bAylA0d1t_WKBXYipS_eqp8QSih5PIG0cDw76gk8V0ppLtQ7Ym34xZtvY0E-9YowD4UOIZ2jThJ-8sOH14rgBh9G2-xgugda0cA-sYKN4BHWBcuTeCrufq2VpxE2NsetWrHNh16ndeTgvAw6gv9IunMX5e2DVDI0XTSQJU-rpzcrTx-OkDEPDrvClEbyElWsxrd6pU27TpTVpBt9ml7knpfYo9-49LZW66KOQfC0IZZTP1l3K4HHG2uQyZW6uGEQKAn2BcBq1Ls1Rc6i03aGOnReY9TL0DrYXgEyj3eqxAEPmehusNhRzuZ22dJZ6xEDL10lllAK1LXiUkwMPqjZRqaA3Zjdg0di6G_L6WieW6HnFWEn8hxEiLa8AlUcXNuRIByg7Q_BPrUuqXuaHDFhRrqhC_zOkzJEiZjo1okyn39Bm7PfxgttvNnF8ONk5Ds2b3ZIJwAchjQPZZbFY7z8KDTQu5fZK12L841bf56nFsqwr05ALdgMZmHEW__eoS_hriotJxVcKmKvXUteIXpbUu8tcGBvZuJoeBPS1auttPAgMx-Zb8Q47avwTTIeSnLxGR6Fe3p5lFxLwNWKliMikvCWjPztRAPPhxTmipyAknqtv-7eVVRTc_awtnPyuV0_i-Vf5IPwwQZyht_ZNhbZfsVz1G00]--></g></svg>