<?xml version="1.0" encoding="us-ascii" standalone="no"?><svg xmlns="http://www.w3.org/2000/svg" xmlns:xlink="http://www.w3.org/1999/xlink" contentStyleType="text/css" height="288px" preserveAspectRatio="none" style="width:481px;height:288px;background:#FFFFFF;" version="1.1" viewBox="0 0 481 288" width="481px" zoomAndPan="magnify"><defs/><g><text fill="#000000" font-family="sans-serif" font-size="14" font-weight="bold" lengthAdjust="spacing" textLength="423" x="30.75" y="29.5332">Storefront App - Search Products - Sequence - Context level</text><rect fill="none" height="111.4063" style="stroke:#000000;stroke-width:1.5;" width="380" x="95.5" y="123.5703"/><rect fill="none" height="48.7031" style="stroke:#000000;stroke-width:1.5;" width="245" x="220.5" y="179.2734"/><line style="stroke:#181818;stroke-width:0.5;stroke-dasharray:5.0,5.0;" x1="37" x2="37" y1="76.2188" y2="251.9766"/><line style="stroke:#181818;stroke-width:0.5;stroke-dasharray:5.0,5.0;" x1="158.5" x2="158.5" y1="76.2188" y2="251.9766"/><line style="stroke:#181818;stroke-width:0.5;stroke-dasharray:5.0,5.0;" x1="279.5" x2="279.5" y1="76.2188" y2="251.9766"/><line style="stroke:#181818;stroke-width:0.5;stroke-dasharray:5.0,5.0;" x1="400.5" x2="400.5" y1="76.2188" y2="251.9766"/><rect fill="#E2E2F0" height="31.6094" rx="2.5" ry="2.5" style="stroke:#181818;stroke-width:0.5;" width="65" x="5" y="43.6094"/><text fill="#000000" font-family="sans-serif" font-size="14" lengthAdjust="spacing" textLength="51" x="12" y="65.1426">External</text><rect fill="#E2E2F0" height="31.6094" rx="2.5" ry="2.5" style="stroke:#181818;stroke-width:0.5;" width="65" x="5" y="250.9766"/><text fill="#000000" font-family="sans-serif" font-size="14" lengthAdjust="spacing" textLength="51" x="12" y="272.5098">External</text><rect fill="#E2E2F0" height="31.6094" rx="2.5" ry="2.5" style="stroke:#181818;stroke-width:0.5;" width="106" x="105.5" y="43.6094"/><text fill="#000000" font-family="sans-serif" font-size="14" lengthAdjust="spacing" textLength="92" x="112.5" y="65.1426">Storefront App</text><rect fill="#E2E2F0" height="31.6094" rx="2.5" ry="2.5" style="stroke:#181818;stroke-width:0.5;" width="106" x="105.5" y="250.9766"/><text fill="#000000" font-family="sans-serif" font-size="14" lengthAdjust="spacing" textLength="92" x="112.5" y="272.5098">Storefront App</text><rect fill="#E2E2F0" height="31.6094" rx="2.5" ry="2.5" style="stroke:#181818;stroke-width:0.5;" width="98" x="230.5" y="43.6094"/><text fill="#000000" font-family="sans-serif" font-size="14" lengthAdjust="spacing" textLength="84" x="237.5" y="65.1426">Storefront Bff</text><rect fill="#E2E2F0" height="31.6094" rx="2.5" ry="2.5" style="stroke:#181818;stroke-width:0.5;" width="98" x="230.5" y="250.9766"/><text fill="#000000" font-family="sans-serif" font-size="14" lengthAdjust="spacing" textLength="84" x="237.5" y="272.5098">Storefront Bff</text><rect fill="#E2E2F0" height="31.6094" rx="2.5" ry="2.5" style="stroke:#181818;stroke-width:0.5;" width="110" x="345.5" y="43.6094"/><text fill="#000000" font-family="sans-serif" font-size="14" lengthAdjust="spacing" textLength="96" x="352.5" y="65.1426">Search Service</text><rect fill="#E2E2F0" height="31.6094" rx="2.5" ry="2.5" style="stroke:#181818;stroke-width:0.5;" width="110" x="345.5" y="250.9766"/><text fill="#000000" font-family="sans-serif" font-size="14" lengthAdjust="spacing" textLength="96" x="352.5" y="272.5098">Search Service</text><polygon fill="#181818" points="146.5,104.5703,156.5,108.5703,146.5,112.5703,150.5,108.5703" style="stroke:#181818;stroke-width:1.0;"/><line style="stroke:#181818;stroke-width:1.0;" x1="37.5" x2="152.5" y1="108.5703" y2="108.5703"/><text fill="#000000" font-family="sans-serif" font-size="13" lengthAdjust="spacing" textLength="97" x="44.5" y="103.7139">Search Products</text><path d="M95.5,123.5703 L244.5,123.5703 L244.5,131.9219 L234.5,141.9219 L95.5,141.9219 L95.5,123.5703 " fill="#EEEEEE" style="stroke:#000000;stroke-width:1.5;"/><rect fill="none" height="111.4063" style="stroke:#000000;stroke-width:1.5;" width="380" x="95.5" y="123.5703"/><text fill="#000000" font-family="sans-serif" font-size="13" font-weight="bold" lengthAdjust="spacing" textLength="104" x="110.5" y="138.0654">Search Products</text><polygon fill="#181818" points="267.5,160.2734,277.5,164.2734,267.5,168.2734,271.5,164.2734" style="stroke:#181818;stroke-width:1.0;"/><line style="stroke:#181818;stroke-width:1.0;" x1="158.5" x2="273.5" y1="164.2734" y2="164.2734"/><text fill="#000000" font-family="sans-serif" font-size="13" lengthAdjust="spacing" textLength="97" x="165.5" y="159.417">Search Products</text><path d="M220.5,179.2734 L369.5,179.2734 L369.5,187.625 L359.5,197.625 L220.5,197.625 L220.5,179.2734 " fill="#EEEEEE" style="stroke:#000000;stroke-width:1.5;"/><rect fill="none" height="48.7031" style="stroke:#000000;stroke-width:1.5;" width="245" x="220.5" y="179.2734"/><text fill="#000000" font-family="sans-serif" font-size="13" font-weight="bold" lengthAdjust="spacing" textLength="104" x="235.5" y="193.7686">Search Products</text><polygon fill="#181818" points="388.5,215.9766,398.5,219.9766,388.5,223.9766,392.5,219.9766" style="stroke:#181818;stroke-width:1.0;"/><line style="stroke:#181818;stroke-width:1.0;" x1="279.5" x2="394.5" y1="219.9766" y2="219.9766"/><text fill="#000000" font-family="sans-serif" font-size="13" lengthAdjust="spacing" textLength="97" x="286.5" y="215.1201">Search Products</text><!--SRC=[jP7DRW8n38JlUGgNEvnwub09LbJg3IbFO0M7hfJ4gUFbv-qR5X05Mcdtq4Ean9hvD9wyPC5jH0Xuv4wXH59CQ8os6WYiif0NJWgBd64Abb3S9wo5DvtJqa- -EagEwhMfEZee1DfHC2QZQElQZDKzMHsK966O01PeNZ-gKju3xsUMlUvHo1wBKYopg_3yleVSn-bHguPZ976q3gYU9Ju1RwRg-PEtz7uqhteUUETsBCckTJIKrvik7cE6TmFJjx7hm_pn1yrMkCjFqx7SaL5gS_yIvSGT5kLdwRz4eRJfZ_a6]--></g></svg>