<?xml version="1.0" encoding="us-ascii" standalone="no"?><svg xmlns="http://www.w3.org/2000/svg" xmlns:xlink="http://www.w3.org/1999/xlink" contentStyleType="text/css" height="351px" preserveAspectRatio="none" style="width:796px;height:351px;background:#FFFFFF;" version="1.1" viewBox="0 0 796 351" width="796px" zoomAndPan="magnify"><defs/><g><text fill="#000000" font-family="sans-serif" font-size="14" font-weight="bold" lengthAdjust="spacing" textLength="768" x="10" y="29.5332">ECommercePlatform - GenerateDemand - Storefront - Storefront App - View Basket - Sequence - Context level</text><rect fill="none" height="174.1094" style="stroke:#000000;stroke-width:1.5;" width="494" x="178.25" y="123.5703"/><rect fill="none" height="111.4063" style="stroke:#000000;stroke-width:1.5;" width="368" x="294.25" y="179.2734"/><rect fill="none" height="48.7031" style="stroke:#000000;stroke-width:1.5;" width="250" x="402.25" y="234.9766"/><line style="stroke:#181818;stroke-width:0.5;stroke-dasharray:5.0,5.0;" x1="143.75" x2="143.75" y1="76.2188" y2="314.6797"/><line style="stroke:#181818;stroke-width:0.5;stroke-dasharray:5.0,5.0;" x1="241.25" x2="241.25" y1="76.2188" y2="314.6797"/><line style="stroke:#181818;stroke-width:0.5;stroke-dasharray:5.0,5.0;" x1="353.25" x2="353.25" y1="76.2188" y2="314.6797"/><line style="stroke:#181818;stroke-width:0.5;stroke-dasharray:5.0,5.0;" x1="466.25" x2="466.25" y1="76.2188" y2="314.6797"/><line style="stroke:#181818;stroke-width:0.5;stroke-dasharray:5.0,5.0;" x1="586.25" x2="586.25" y1="76.2188" y2="314.6797"/><rect fill="#E2E2F0" height="31.6094" rx="2.5" ry="2.5" style="stroke:#181818;stroke-width:0.5;" width="65" x="111.75" y="43.6094"/><text fill="#000000" font-family="sans-serif" font-size="14" lengthAdjust="spacing" textLength="51" x="118.75" y="65.1426">External</text><rect fill="#E2E2F0" height="31.6094" rx="2.5" ry="2.5" style="stroke:#181818;stroke-width:0.5;" width="65" x="111.75" y="313.6797"/><text fill="#000000" font-family="sans-serif" font-size="14" lengthAdjust="spacing" textLength="51" x="118.75" y="335.2129">External</text><rect fill="#E2E2F0" height="31.6094" rx="2.5" ry="2.5" style="stroke:#181818;stroke-width:0.5;" width="106" x="188.25" y="43.6094"/><text fill="#000000" font-family="sans-serif" font-size="14" lengthAdjust="spacing" textLength="92" x="195.25" y="65.1426">Storefront App</text><rect fill="#E2E2F0" height="31.6094" rx="2.5" ry="2.5" style="stroke:#181818;stroke-width:0.5;" width="106" x="188.25" y="313.6797"/><text fill="#000000" font-family="sans-serif" font-size="14" lengthAdjust="spacing" textLength="92" x="195.25" y="335.2129">Storefront App</text><rect fill="#E2E2F0" height="31.6094" rx="2.5" ry="2.5" style="stroke:#181818;stroke-width:0.5;" width="98" x="304.25" y="43.6094"/><text fill="#000000" font-family="sans-serif" font-size="14" lengthAdjust="spacing" textLength="84" x="311.25" y="65.1426">Storefront Bff</text><rect fill="#E2E2F0" height="31.6094" rx="2.5" ry="2.5" style="stroke:#181818;stroke-width:0.5;" width="98" x="304.25" y="313.6797"/><text fill="#000000" font-family="sans-serif" font-size="14" lengthAdjust="spacing" textLength="84" x="311.25" y="335.2129">Storefront Bff</text><rect fill="#E2E2F0" height="31.6094" rx="2.5" ry="2.5" style="stroke:#181818;stroke-width:0.5;" width="108" x="412.25" y="43.6094"/><text fill="#000000" font-family="sans-serif" font-size="14" lengthAdjust="spacing" textLength="94" x="419.25" y="65.1426">Basket Service</text><rect fill="#E2E2F0" height="31.6094" rx="2.5" ry="2.5" style="stroke:#181818;stroke-width:0.5;" width="108" x="412.25" y="313.6797"/><text fill="#000000" font-family="sans-serif" font-size="14" lengthAdjust="spacing" textLength="94" x="419.25" y="335.2129">Basket Service</text><rect fill="#E2E2F0" height="31.6094" rx="2.5" ry="2.5" style="stroke:#181818;stroke-width:0.5;" width="112" x="530.25" y="43.6094"/><text fill="#000000" font-family="sans-serif" font-size="14" lengthAdjust="spacing" textLength="98" x="537.25" y="65.1426">..BasketService</text><rect fill="#E2E2F0" height="31.6094" rx="2.5" ry="2.5" style="stroke:#181818;stroke-width:0.5;" width="112" x="530.25" y="313.6797"/><text fill="#000000" font-family="sans-serif" font-size="14" lengthAdjust="spacing" textLength="98" x="537.25" y="335.2129">..BasketService</text><polygon fill="#181818" points="229.25,104.5703,239.25,108.5703,229.25,112.5703,233.25,108.5703" style="stroke:#181818;stroke-width:1.0;"/><line style="stroke:#181818;stroke-width:1.0;" x1="144.25" x2="235.25" y1="108.5703" y2="108.5703"/><text fill="#000000" font-family="sans-serif" font-size="13" lengthAdjust="spacing" textLength="73" x="151.25" y="103.7139">View Basket</text><path d="M178.25,123.5703 L301.25,123.5703 L301.25,131.9219 L291.25,141.9219 L178.25,141.9219 L178.25,123.5703 " fill="#EEEEEE" style="stroke:#000000;stroke-width:1.5;"/><rect fill="none" height="174.1094" style="stroke:#000000;stroke-width:1.5;" width="494" x="178.25" y="123.5703"/><text fill="#000000" font-family="sans-serif" font-size="13" font-weight="bold" lengthAdjust="spacing" textLength="78" x="193.25" y="138.0654">View Basket</text><polygon fill="#181818" points="341.25,160.2734,351.25,164.2734,341.25,168.2734,345.25,164.2734" style="stroke:#181818;stroke-width:1.0;"/><line style="stroke:#181818;stroke-width:1.0;" x1="241.25" x2="347.25" y1="164.2734" y2="164.2734"/><text fill="#000000" font-family="sans-serif" font-size="13" lengthAdjust="spacing" textLength="66" x="248.25" y="159.417">Get Basket</text><path d="M294.25,179.2734 L407.25,179.2734 L407.25,187.625 L397.25,197.625 L294.25,197.625 L294.25,179.2734 " fill="#EEEEEE" style="stroke:#000000;stroke-width:1.5;"/><rect fill="none" height="111.4063" style="stroke:#000000;stroke-width:1.5;" width="368" x="294.25" y="179.2734"/><text fill="#000000" font-family="sans-serif" font-size="13" font-weight="bold" lengthAdjust="spacing" textLength="68" x="309.25" y="193.7686">Get Basket</text><polygon fill="#181818" points="574.25,215.9766,584.25,219.9766,574.25,223.9766,578.25,219.9766" style="stroke:#181818;stroke-width:1.0;"/><line style="stroke:#181818;stroke-width:1.0;" x1="353.25" x2="580.25" y1="219.9766" y2="219.9766"/><text fill="#000000" font-family="sans-serif" font-size="13" lengthAdjust="spacing" textLength="57" x="360.25" y="215.1201">Get Items</text><path d="M402.25,234.9766 L507.25,234.9766 L507.25,243.3281 L497.25,253.3281 L402.25,253.3281 L402.25,234.9766 " fill="#EEEEEE" style="stroke:#000000;stroke-width:1.5;"/><rect fill="none" height="48.7031" style="stroke:#000000;stroke-width:1.5;" width="250" x="402.25" y="234.9766"/><text fill="#000000" font-family="sans-serif" font-size="13" font-weight="bold" lengthAdjust="spacing" textLength="60" x="417.25" y="249.4717">Get Items</text><polygon fill="#181818" points="477.25,271.6797,467.25,275.6797,477.25,279.6797,473.25,275.6797" style="stroke:#181818;stroke-width:1.0;"/><line style="stroke:#181818;stroke-width:1.0;" x1="471.25" x2="585.25" y1="275.6797" y2="275.6797"/><text fill="#000000" font-family="sans-serif" font-size="13" lengthAdjust="spacing" textLength="73" x="483.25" y="270.8232">Select Items</text><!--SRC=[hP8zJyCm48Pt_mghUpCnCI3HKAfkI9ROBVSDYd3iz79joh_dQ58Q4o5by639Txvxd_imr-oXjsLi6f33cxTSHMhqMkyGG9RnWiQ6WpWCHq95CN1gFBUjEDvhz7fZkqzSdt4y8JZ8jPGON5XxdE6LQYrnxUhMIkPgUs5Gi7wbRQVBXxr4qgkFVM5YnRqbcA-EqNJ5BN2mKv6qbAlKh9yYxQQuvynGzoTH-vUqgQgC955BIUCW3UXSEomZ3Japok0UbPHQFcMzVietIFqu_I7gW-AfJJpvIDdAbgr8sJlPGrBrn96F8qKNwQf6zFudU48UxB-nItfUyZy4Qk3XRXo4m-zHtm00]--></g></svg>