<?xml version="1.0" encoding="us-ascii" standalone="no"?><svg xmlns="http://www.w3.org/2000/svg" xmlns:xlink="http://www.w3.org/1999/xlink" contentStyleType="text/css" height="383px" preserveAspectRatio="none" style="width:639px;height:383px;background:#FFFFFF;" version="1.1" viewBox="0 0 639 383" width="639px" zoomAndPan="magnify"><defs/><g><text fill="#000000" font-family="sans-serif" font-size="14" font-weight="bold" lengthAdjust="spacing" textLength="611" x="10" y="29.5332">Big Bank Plc - Internet Banking - Single-Page App - Sign In - Sequence - Container level</text><rect fill="#FFFFFF" height="326.3281" style="stroke:#181818;stroke-width:0.5;" width="353.5" x="164.25" y="44.6094"/><text fill="#000000" font-family="sans-serif" font-size="13" font-weight="bold" lengthAdjust="spacing" textLength="105" x="288.5" y="58.1045">Internet Banking</text><rect fill="none" height="111.4063" style="stroke:#000000;stroke-width:1.5;" width="375.5" x="158.25" y="175.9219"/><rect fill="none" height="48.7031" style="stroke:#000000;stroke-width:1.5;" width="235.5" x="288.25" y="231.625"/><line style="stroke:#181818;stroke-width:0.5;stroke-dasharray:5.0,5.0;" x1="125.25" x2="125.25" y1="128.5703" y2="304.3281"/><line style="stroke:#181818;stroke-width:0.5;stroke-dasharray:5.0,5.0;" x1="228.25" x2="228.25" y1="128.5703" y2="304.3281"/><line style="stroke:#181818;stroke-width:0.5;stroke-dasharray:5.0,5.0;" x1="352.25" x2="352.25" y1="128.5703" y2="304.3281"/><line style="stroke:#181818;stroke-width:0.5;stroke-dasharray:5.0,5.0;" x1="479.75" x2="479.75" y1="128.5703" y2="304.3281"/><rect fill="#E2E2F0" height="31.6094" rx="2.5" ry="2.5" style="stroke:#181818;stroke-width:0.5;" width="65" x="93.25" y="95.9609"/><text fill="#000000" font-family="sans-serif" font-size="14" lengthAdjust="spacing" textLength="51" x="100.25" y="117.4941">External</text><rect fill="#E2E2F0" height="31.6094" rx="2.5" ry="2.5" style="stroke:#181818;stroke-width:0.5;" width="65" x="93.25" y="303.3281"/><text fill="#000000" font-family="sans-serif" font-size="14" lengthAdjust="spacing" textLength="51" x="100.25" y="324.8613">External</text><rect fill="#E2E2F0" height="31.6094" rx="2.5" ry="2.5" style="stroke:#181818;stroke-width:0.5;" width="120" x="168.25" y="95.9609"/><text fill="#000000" font-family="sans-serif" font-size="14" lengthAdjust="spacing" textLength="106" x="175.25" y="117.4941">Single-Page App</text><rect fill="#E2E2F0" height="31.6094" rx="2.5" ry="2.5" style="stroke:#181818;stroke-width:0.5;" width="120" x="168.25" y="303.3281"/><text fill="#000000" font-family="sans-serif" font-size="14" lengthAdjust="spacing" textLength="106" x="175.25" y="324.8613">Single-Page App</text><rect fill="#E2E2F0" height="31.6094" rx="2.5" ry="2.5" style="stroke:#181818;stroke-width:0.5;" width="108" x="298.25" y="95.9609"/><text fill="#000000" font-family="sans-serif" font-size="14" lengthAdjust="spacing" textLength="94" x="305.25" y="117.4941">API Application</text><rect fill="#E2E2F0" height="31.6094" rx="2.5" ry="2.5" style="stroke:#181818;stroke-width:0.5;" width="108" x="298.25" y="303.3281"/><text fill="#000000" font-family="sans-serif" font-size="14" lengthAdjust="spacing" textLength="94" x="305.25" y="324.8613">API Application</text><text fill="#000000" font-family="sans-serif" font-size="14" lengthAdjust="spacing" textLength="61" x="446.75" y="125.4941">Database</text><path d="M462.25,74.9609 C462.25,64.9609 480.25,64.9609 480.25,64.9609 C480.25,64.9609 498.25,64.9609 498.25,74.9609 L498.25,100.9609 C498.25,110.9609 480.25,110.9609 480.25,110.9609 C480.25,110.9609 462.25,110.9609 462.25,100.9609 L462.25,74.9609 " fill="#E2E2F0" style="stroke:#181818;stroke-width:1.5;"/><path d="M462.25,74.9609 C462.25,84.9609 480.25,84.9609 480.25,84.9609 C480.25,84.9609 498.25,84.9609 498.25,74.9609 " fill="none" style="stroke:#181818;stroke-width:1.5;"/><text fill="#000000" font-family="sans-serif" font-size="14" lengthAdjust="spacing" textLength="61" x="446.75" y="317.8613">Database</text><path d="M462.25,330.9375 C462.25,320.9375 480.25,320.9375 480.25,320.9375 C480.25,320.9375 498.25,320.9375 498.25,330.9375 L498.25,356.9375 C498.25,366.9375 480.25,366.9375 480.25,366.9375 C480.25,366.9375 462.25,366.9375 462.25,356.9375 L462.25,330.9375 " fill="#E2E2F0" style="stroke:#181818;stroke-width:1.5;"/><path d="M462.25,330.9375 C462.25,340.9375 480.25,340.9375 480.25,340.9375 C480.25,340.9375 498.25,340.9375 498.25,330.9375 " fill="none" style="stroke:#181818;stroke-width:1.5;"/><polygon fill="#181818" points="216.25,156.9219,226.25,160.9219,216.25,164.9219,220.25,160.9219" style="stroke:#181818;stroke-width:1.0;"/><line style="stroke:#181818;stroke-width:1.0;" x1="125.75" x2="222.25" y1="160.9219" y2="160.9219"/><text fill="#000000" font-family="sans-serif" font-size="13" lengthAdjust="spacing" textLength="40" x="132.75" y="156.0654">Sign In</text><path d="M158.25,175.9219 L248.25,175.9219 L248.25,184.2734 L238.25,194.2734 L158.25,194.2734 L158.25,175.9219 " fill="#EEEEEE" style="stroke:#000000;stroke-width:1.5;"/><rect fill="none" height="111.4063" style="stroke:#000000;stroke-width:1.5;" width="375.5" x="158.25" y="175.9219"/><text fill="#000000" font-family="sans-serif" font-size="13" font-weight="bold" lengthAdjust="spacing" textLength="45" x="173.25" y="190.417">Sign In</text><polygon fill="#181818" points="340.25,212.625,350.25,216.625,340.25,220.625,344.25,216.625" style="stroke:#181818;stroke-width:1.0;"/><line style="stroke:#181818;stroke-width:1.0;" x1="228.25" x2="346.25" y1="216.625" y2="216.625"/><text fill="#000000" font-family="sans-serif" font-size="13" lengthAdjust="spacing" textLength="40" x="235.25" y="211.7686">Sign In</text><path d="M288.25,231.625 L378.25,231.625 L378.25,239.9766 L368.25,249.9766 L288.25,249.9766 L288.25,231.625 " fill="#EEEEEE" style="stroke:#000000;stroke-width:1.5;"/><rect fill="none" height="48.7031" style="stroke:#000000;stroke-width:1.5;" width="235.5" x="288.25" y="231.625"/><text fill="#000000" font-family="sans-serif" font-size="13" font-weight="bold" lengthAdjust="spacing" textLength="45" x="303.25" y="246.1201">Sign In</text><polygon fill="#181818" points="468.25,268.3281,478.25,272.3281,468.25,276.3281,472.25,272.3281" style="stroke:#181818;stroke-width:1.0;"/><line style="stroke:#181818;stroke-width:1.0;" x1="352.25" x2="474.25" y1="272.3281" y2="272.3281"/><text fill="#000000" font-family="sans-serif" font-size="13" lengthAdjust="spacing" textLength="104" x="359.25" y="267.4717">Authenticate User</text><!--SRC=[hPB1JiCm38RlUGghdDiJ9mv8tG1fjqeLuknrfei8JaXSDjwU95idrbtGrafH7Ilv_jzsH8iXMEWU5iWVq9WEIbYna6UIdDFSnrGRVuRA1dk2shcSwJcUJ15z3SGTnN1fML0pUJ3qJKOfXrvqfnsoGF6yJrmq1M20vNsMUJ5sLxNsNNRegVq9Gf-X6WyUzagjxHwAgQi2xjwsMaX1_Cvq9cQpN2mntOi5NgYDu2EtEXKHgWCfWIBdKgXkLad0w0v5Mxv1A9B-WBBI1WNN60YAfsDq0tz4AE8Dn7OgfVu_02WVv-WVF8oFHlNU3kwqcuDzjSNppi_iSGA_skGulcYl7cHBB0b9y1h8fv7cfNu1]--></g></svg>