<?xml version="1.0" encoding="us-ascii" standalone="no"?><svg xmlns="http://www.w3.org/2000/svg" xmlns:xlink="http://www.w3.org/1999/xlink" contentStyleType="text/css" height="399px" preserveAspectRatio="none" style="width:1140px;height:399px;background:#FFFFFF;" version="1.1" viewBox="0 0 1140 399" width="1140px" zoomAndPan="magnify"><defs/><g><text fill="#000000" font-family="sans-serif" font-size="14" font-weight="bold" lengthAdjust="spacing" textLength="251" x="395" y="24.5332">Fraud Service - C4 - Container level</text><!--cluster ECommercePlatform.SoftwareSystems.FraudService--><g id="cluster_ECommercePlatform.SoftwareSystems.FraudService"><rect fill="none" height="238" rx="2.5" ry="2.5" style="stroke:#444444;stroke-width:1.0;stroke-dasharray:7.0,7.0;" width="762" x="14" y="42.6094"/><text fill="#444444" font-family="sans-serif" font-size="16" font-weight="bold" lengthAdjust="spacing" textLength="106" x="342" y="61.2188">Fraud Service</text><text fill="#444444" font-family="sans-serif" font-size="12" font-weight="bold" lengthAdjust="spacing" textLength="51" x="369.5" y="77.1914">[System]</text></g><!--cluster ECommercePlatform.SoftwareSystems.OrderService--><g id="cluster_ECommercePlatform.SoftwareSystems.OrderService"><rect fill="none" height="94" rx="2.5" ry="2.5" style="stroke:#444444;stroke-width:1.0;stroke-dasharray:7.0,7.0;" width="120" x="930" y="186.6094"/><text fill="#444444" font-family="sans-serif" font-size="16" font-weight="bold" lengthAdjust="spacing" textLength="104" x="938" y="205.2188">Order Service</text><text fill="#444444" font-family="sans-serif" font-size="12" font-weight="bold" lengthAdjust="spacing" textLength="51" x="964.5" y="221.1914">[System]</text></g><!--entity ECommercePlatform.SoftwareSystems.FraudEngine--><g id="elem_ECommercePlatform.SoftwareSystems.FraudEngine"><rect fill="#1168BD" height="40.125" rx="2.5" ry="2.5" style="stroke:#3C7FC0;stroke-width:0.5;" width="123" x="784.5" y="232.6094"/><text fill="#FFFFFF" font-family="sans-serif" font-size="16" font-weight="bold" lengthAdjust="spacing" textLength="45" x="794.5" y="259.2188">Fraud</text><text fill="#FFFFFF" font-family="sans-serif" font-size="16" font-weight="bold" lengthAdjust="spacing" textLength="4" x="839.5" y="259.2188">&#160;</text><text fill="#FFFFFF" font-family="sans-serif" font-size="16" font-weight="bold" lengthAdjust="spacing" textLength="54" x="843.5" y="259.2188">Engine</text></g><!--entity ECommercePlatform.SoftwareSystems.FraudService.Containers.Api--><g id="elem_ECommercePlatform.SoftwareSystems.FraudService.Containers.Api"><rect fill="#438DD5" height="40.125" rx="2.5" ry="2.5" style="stroke:#3C7FC0;stroke-width:0.5;" width="45" x="109.5" y="88.6094"/><text fill="#FFFFFF" font-family="sans-serif" font-size="16" font-weight="bold" lengthAdjust="spacing" textLength="25" x="119.5" y="115.2188">Api</text></g><!--entity ECommercePlatform.SoftwareSystems.FraudService.Containers.Database--><g id="elem_ECommercePlatform.SoftwareSystems.FraudService.Containers.Database"><rect fill="#438DD5" height="40.125" rx="2.5" ry="2.5" style="stroke:#3C7FC0;stroke-width:0.5;" width="92" x="206" y="232.6094"/><text fill="#FFFFFF" font-family="sans-serif" font-size="16" font-weight="bold" lengthAdjust="spacing" textLength="72" x="216" y="259.2188">Database</text></g><!--entity ECommercePlatform.SoftwareSystems.FraudService.Containers.Messaging--><g id="elem_ECommercePlatform.SoftwareSystems.FraudService.Containers.Messaging"><rect fill="#438DD5" height="40.125" rx="2.5" ry="2.5" style="stroke:#3C7FC0;stroke-width:0.5;" width="103" x="333.5" y="232.6094"/><text fill="#FFFFFF" font-family="sans-serif" font-size="16" font-weight="bold" lengthAdjust="spacing" textLength="83" x="343.5" y="259.2188">Messaging</text></g><!--entity ECommercePlatform.SoftwareSystems.FraudService.Containers.MessageHandler--><g id="elem_ECommercePlatform.SoftwareSystems.FraudService.Containers.MessageHandler"><rect fill="#438DD5" height="40.125" rx="2.5" ry="2.5" style="stroke:#3C7FC0;stroke-width:0.5;" width="152" x="565" y="88.6094"/><text fill="#FFFFFF" font-family="sans-serif" font-size="16" font-weight="bold" lengthAdjust="spacing" textLength="68" x="575" y="115.2188">Message</text><text fill="#FFFFFF" font-family="sans-serif" font-size="16" font-weight="bold" lengthAdjust="spacing" textLength="4" x="643" y="115.2188">&#160;</text><text fill="#FFFFFF" font-family="sans-serif" font-size="16" font-weight="bold" lengthAdjust="spacing" textLength="60" x="647" y="115.2188">Handler</text></g><!--entity ECommercePlatform.SoftwareSystems.OrderService.Containers.Messaging--><g id="elem_ECommercePlatform.SoftwareSystems.OrderService.Containers.Messaging"><rect fill="#438DD5" height="40.125" rx="2.5" ry="2.5" style="stroke:#3C7FC0;stroke-width:0.5;" width="103" x="938.5" y="232.6094"/><text fill="#FFFFFF" font-family="sans-serif" font-size="16" font-weight="bold" lengthAdjust="spacing" textLength="83" x="948.5" y="259.2188">Messaging</text></g><polygon fill="none" points="205.9407,250.3196,198.2174,246.6657,197.7193,252.645,205.9407,250.3196" style="stroke:#666666;stroke-width:1.0;"/><path d="M109.2265,111.8302 C87.5762,115.2874 56.1387,124.1118 41,146.6094 C33.06,158.4089 32.7496,167.0248 41,178.6094 C78.3271,231.0215 147.9927,245.4918 197.9684,249.6554 " fill="none" style="stroke:#666666;stroke-width:1.0;"/><text fill="#666666" font-family="sans-serif" font-size="12" font-weight="bold" lengthAdjust="spacing" textLength="135" x="51" y="160.0664">Select High Risk Orders</text><text fill="#666666" font-family="sans-serif" font-size="12" font-weight="bold" lengthAdjust="spacing" textLength="153" x="42" y="175.1602">Update Fraud Check Result</text><polygon fill="none" points="368.2289,232.3034,364.8905,224.4385,360.5423,228.5729,368.2289,232.3034" style="stroke:#666666;stroke-width:1.0;"/><path d="M154.5642,119.6873 C167.5728,126.1878 183.7279,135.4961 196,146.6094 C208.9825,158.3661 203.7928,169.9199 219,178.6094 C253.0983,198.0933 270.717,171.5805 307,186.6094 C331.2654,196.6604 348.1952,211.2332 362.7164,226.5057 " fill="none" style="stroke:#666666;stroke-width:1.0;"/><text fill="#666666" font-family="sans-serif" font-size="12" font-weight="bold" lengthAdjust="spacing" textLength="176" x="220" y="167.5664">Send Fraud Check Result Event</text><polygon fill="none" points="987.2282,232.5446,988.6804,224.1249,982.7861,225.2462,987.2282,232.5446" style="stroke:#666666;stroke-width:1.0;"/><path d="M717.185,110.5653 C794.7075,112.9832 908.2585,120.9627 943,146.6094 C970.9585,167.2488 981.1287,200.4798 985.7333,224.6855 " fill="none" style="stroke:#666666;stroke-width:1.0;"/><text fill="#666666" font-family="sans-serif" font-size="12" font-weight="bold" lengthAdjust="spacing" textLength="163" x="969" y="167.5664">Receive Order Created Event</text><polygon fill="none" points="267.2219,232.419,274.7396,228.3589,270.2163,224.4169,267.2219,232.419" style="stroke:#666666;stroke-width:1.0;"/><path d="M564.7224,115.2633 C509.2162,120.6398 439.7859,130.372 416,146.6094 C402.3393,155.9349 410.9068,169.6549 397,178.6094 C369.558,196.2791 353.7787,173.2485 324,186.6094 C301.1067,196.881 285.728,211.1842 272.4779,226.3879 " fill="none" style="stroke:#666666;stroke-width:1.0;"/><text fill="#666666" font-family="sans-serif" font-size="12" font-weight="bold" lengthAdjust="spacing" textLength="69" x="455.5" y="160.0664">Insert Order</text><text fill="#666666" font-family="sans-serif" font-size="12" font-weight="bold" lengthAdjust="spacing" textLength="146" x="417" y="175.1602">Insert Fraud Check Result</text><polygon fill="none" points="837.4386,232.2727,836.651,223.7651,831.2511,226.3807,837.4386,232.2727" style="stroke:#666666;stroke-width:1.0;"/><path d="M717.0018,121.7382 C736.1245,127.2116 755.7981,135.1384 772,146.6094 C803.3063,168.7743 822.4621,201.354 833.9511,225.0729 " fill="none" style="stroke:#666666;stroke-width:1.0;"/><text fill="#666666" font-family="sans-serif" font-size="12" font-weight="bold" lengthAdjust="spacing" textLength="132" x="806" y="167.5664">Get Fraud Check Result</text><polygon fill="none" points="436.5226,239.7977,445.0345,240.538,443.4224,234.7586,436.5226,239.7977" style="stroke:#666666;stroke-width:1.0;"/><path d="M611.024,128.7516 C603.7447,134.0826 596.2618,140.1869 590,146.6094 C577.9516,158.9671 581.4847,167.8372 568,178.6094 C529.2488,209.5656 483.392,226.7244 444.2284,237.6483 " fill="none" style="stroke:#666666;stroke-width:1.0;"/><text fill="#666666" font-family="sans-serif" font-size="12" font-weight="bold" lengthAdjust="spacing" textLength="176" x="591" y="167.5664">Send Fraud Check Result Event</text><rect fill="none" height="17.6094" style="stroke:none;stroke-width:1.0;" width="182" x="842" y="301.6094"/><text fill="#000000" font-family="sans-serif" font-size="14" font-weight="bold" lengthAdjust="spacing" textLength="53" x="842" y="316.1426">Legend</text><text fill="#FFFFFF" font-family="sans-serif" font-size="14" lengthAdjust="spacing" textLength="4" x="895" y="316.1426">&#160;</text><rect fill="#1168BD" height="17.6094" style="stroke:none;stroke-width:1.0;" width="182" x="842" y="319.2188"/><text fill="#3C7FC0" font-family="sans-serif" font-size="14" lengthAdjust="spacing" textLength="14" x="846" y="333.752">&#9647;</text><text fill="#FFFFFF" font-family="sans-serif" font-size="14" lengthAdjust="spacing" textLength="4" x="860" y="333.752">&#160;</text><text fill="#FFFFFF" font-family="sans-serif" font-size="14" lengthAdjust="spacing" textLength="44" x="868" y="333.752">system</text><text fill="#FFFFFF" font-family="sans-serif" font-size="14" lengthAdjust="spacing" textLength="4" x="916" y="333.752">&#160;</text><rect fill="#438DD5" height="17.6094" style="stroke:none;stroke-width:1.0;" width="182" x="842" y="336.8281"/><text fill="#3C7FC0" font-family="sans-serif" font-size="14" lengthAdjust="spacing" textLength="14" x="846" y="351.3613">&#9647;</text><text fill="#FFFFFF" font-family="sans-serif" font-size="14" lengthAdjust="spacing" textLength="4" x="860" y="351.3613">&#160;</text><text fill="#FFFFFF" font-family="sans-serif" font-size="14" lengthAdjust="spacing" textLength="59" x="868" y="351.3613">container</text><text fill="#FFFFFF" font-family="sans-serif" font-size="14" lengthAdjust="spacing" textLength="4" x="931" y="351.3613">&#160;</text><rect fill="none" height="17.6094" style="stroke:none;stroke-width:1.0;" width="182" x="842" y="354.4375"/><text fill="#444444" font-family="sans-serif" font-size="14" lengthAdjust="spacing" textLength="14" x="846" y="368.9707">&#9647;</text><text fill="#FFFFFF" font-family="sans-serif" font-size="14" lengthAdjust="spacing" textLength="4" x="860" y="368.9707">&#160;</text><text fill="#444444" font-family="sans-serif" font-size="14" lengthAdjust="spacing" textLength="108" x="868" y="368.9707">system boundary</text><text fill="#444444" font-family="sans-serif" font-size="10" lengthAdjust="spacing" textLength="40" x="980" y="369.8496">(dashed)</text><text fill="#FFFFFF" font-family="sans-serif" font-size="14" lengthAdjust="spacing" textLength="4" x="1020" y="368.9707">&#160;</text><line style="stroke:none;stroke-width:1.0;" x1="842" x2="1024" y1="301.6094" y2="301.6094"/><line style="stroke:none;stroke-width:1.0;" x1="842" x2="1024" y1="319.2188" y2="319.2188"/><line style="stroke:none;stroke-width:1.0;" x1="842" x2="1024" y1="336.8281" y2="336.8281"/><line style="stroke:none;stroke-width:1.0;" x1="842" x2="1024" y1="354.4375" y2="354.4375"/><line style="stroke:none;stroke-width:1.0;" x1="842" x2="1024" y1="372.0469" y2="372.0469"/><line style="stroke:none;stroke-width:1.0;" x1="842" x2="842" y1="301.6094" y2="372.0469"/><line style="stroke:none;stroke-width:1.0;" x1="1024" x2="1024" y1="301.6094" y2="372.0469"/><!--SRC=[pLLHRw9047xdLsovUv2anvDFb_J1GrgRzCI0JNE92Pco8nANNRAxwfbB__ijGW6lFjYgwH4bp6Jc-xwT_HQk2Wbf3eJ1LgmqKJbgu61TPJnXAuh4TMVbB-chcTUFFS4rP1obMwnoPba3Ids6EN8zXRHdAmqQltFSsDVawtFg2IRaJIeHkOddfhVAV9dlhh96I8folqujW8fDnjCR-nQOGjivJ9CiWAT8krH2bgaZk9h2OyaavcAzJoQH7i5KLHsWANb2P6_dfl6ttfy8CnFlP9othPrPjEtD8jl-AdK0eBE-5g3ItdQRsEYEHi5JFF73A1Z7ao2SXeFxQS-n7WQ_WiTfF0qcyJ1u6fkCfPOPBq12JaeClIsG589joy2oTAOPabi9AqeYbEiiGVADUFtozkeomd2DncPMj5KQy_Y7M74ASjlpFP7dA1ESCD1p8NCt4dEz0ObLfN9tm3NkDR7tU6o7_B68kHgYTmAwJQDo1qLcyCtTpCxU_PspOGz1mpEeSW6lZnTW-ObAGMhCQM2Rvulnu0WuPIWRCYHrfaFvyf4j3yfJrsxvBZnfoxk0xndOIot-s5dvt02qBgt26iiov_HKTvx5W14oJ3GPPUc2X9bQajrqr8m_5jIyGUgJx2qmMP8GrOffe_vJnNUtAK9E3qWa_jgyvqyM-g-ppsEj41FCrbWDcdWIpPZffoa-mYBtNA7KbTuPhwCB-EA3ufjZTeV_awmJdLj_a1_yEtyyx3b_0G00]--></g></svg>