<?xml version="1.0" encoding="us-ascii" standalone="no"?><svg xmlns="http://www.w3.org/2000/svg" xmlns:xlink="http://www.w3.org/1999/xlink" contentStyleType="text/css" height="258px" preserveAspectRatio="none" style="width:535px;height:258px;background:#FFFFFF;" version="1.1" viewBox="0 0 535 258" width="535px" zoomAndPan="magnify"><defs/><g><text fill="#000000" font-family="sans-serif" font-size="14" font-weight="bold" lengthAdjust="spacing" textLength="507" x="10" y="29.5332">TraderX - TraderX DB - Update Trade Status - Sequence - Container level</text><rect fill="#FFFFFF" height="200.9219" style="stroke:#181818;stroke-width:0.5;" width="88" x="287.75" y="44.6094"/><text fill="#000000" font-family="sans-serif" font-size="13" font-weight="bold" lengthAdjust="spacing" textLength="51" x="306.25" y="58.1045">TraderX</text><line style="stroke:#181818;stroke-width:0.5;stroke-dasharray:5.0,5.0;" x1="188.25" x2="188.25" y1="128.5703" y2="178.9219"/><line style="stroke:#181818;stroke-width:0.5;stroke-dasharray:5.0,5.0;" x1="331.75" x2="331.75" y1="128.5703" y2="178.9219"/><rect fill="#E2E2F0" height="31.6094" rx="2.5" ry="2.5" style="stroke:#181818;stroke-width:0.5;" width="65" x="156.25" y="95.9609"/><text fill="#000000" font-family="sans-serif" font-size="14" lengthAdjust="spacing" textLength="51" x="163.25" y="117.4941">External</text><rect fill="#E2E2F0" height="31.6094" rx="2.5" ry="2.5" style="stroke:#181818;stroke-width:0.5;" width="65" x="156.25" y="177.9219"/><text fill="#000000" font-family="sans-serif" font-size="14" lengthAdjust="spacing" textLength="51" x="163.25" y="199.4551">External</text><text fill="#000000" font-family="sans-serif" font-size="14" lengthAdjust="spacing" textLength="74" x="291.75" y="125.4941">TraderX DB</text><path d="M313.75,74.9609 C313.75,64.9609 331.75,64.9609 331.75,64.9609 C331.75,64.9609 349.75,64.9609 349.75,74.9609 L349.75,100.9609 C349.75,110.9609 331.75,110.9609 331.75,110.9609 C331.75,110.9609 313.75,110.9609 313.75,100.9609 L313.75,74.9609 " fill="#E2E2F0" style="stroke:#181818;stroke-width:1.5;"/><path d="M313.75,74.9609 C313.75,84.9609 331.75,84.9609 331.75,84.9609 C331.75,84.9609 349.75,84.9609 349.75,74.9609 " fill="none" style="stroke:#181818;stroke-width:1.5;"/><text fill="#000000" font-family="sans-serif" font-size="14" lengthAdjust="spacing" textLength="74" x="291.75" y="192.4551">TraderX DB</text><path d="M313.75,205.5313 C313.75,195.5313 331.75,195.5313 331.75,195.5313 C331.75,195.5313 349.75,195.5313 349.75,205.5313 L349.75,231.5313 C349.75,241.5313 331.75,241.5313 331.75,241.5313 C331.75,241.5313 313.75,241.5313 313.75,231.5313 L313.75,205.5313 " fill="#E2E2F0" style="stroke:#181818;stroke-width:1.5;"/><path d="M313.75,205.5313 C313.75,215.5313 331.75,215.5313 331.75,215.5313 C331.75,215.5313 349.75,215.5313 349.75,205.5313 " fill="none" style="stroke:#181818;stroke-width:1.5;"/><polygon fill="#181818" points="319.75,156.9219,329.75,160.9219,319.75,164.9219,323.75,160.9219" style="stroke:#181818;stroke-width:1.0;"/><line style="stroke:#181818;stroke-width:1.0;" x1="188.75" x2="325.75" y1="160.9219" y2="160.9219"/><text fill="#000000" font-family="sans-serif" font-size="13" lengthAdjust="spacing" textLength="119" x="195.75" y="156.0654">Update Trade Status</text><!--SRC=[dP0n3u9038Nt_egACqnE3WwW9iveT2rGzPBZ3k-AmB_teiYYWx5JtslJzwMpnj6b9jGqs5RGrona242KQCQzeuhT2UEfMwT179gAP9nYBYIj3sxEjvPDoQ7Dh15IXXrglhC6QCY9AbL3HZ3QzCBEa8wGF6QBdGbogssNvFOi7JdE1ozS- -Iz-D80XUqn6aaYd1-lIXWmLC2XWZnFqy3vl3xAZyjlVmATh7KAR2eCKG3mEnp6gx_2SFdjcm0F]--></g></svg>