<?xml version="1.0" encoding="us-ascii" standalone="no"?><svg xmlns="http://www.w3.org/2000/svg" xmlns:xlink="http://www.w3.org/1999/xlink" contentStyleType="text/css" height="410px" preserveAspectRatio="none" style="width:750px;height:410px;background:#FFFFFF;" version="1.1" viewBox="0 0 750 410" width="750px" zoomAndPan="magnify"><defs/><g><text fill="#000000" font-family="sans-serif" font-size="14" font-weight="bold" lengthAdjust="spacing" textLength="722" x="10" y="29.5332">Big Bank Plc - Internet Banking - Single-Page Application - Create Account - Sequence - Container level</text><rect fill="#FFFFFF" height="360.0859" style="stroke:#181818;stroke-width:0.5;" width="290" x="97.5" y="44.6094"/><text fill="#000000" font-family="sans-serif" font-size="13" font-weight="bold" lengthAdjust="spacing" textLength="105" x="190" y="58.1045">Internet Banking</text><rect fill="none" height="190.8125" style="stroke:#000000;stroke-width:1.5;" width="620" x="91.5" y="161.2734"/><rect fill="none" height="111.7578" style="stroke:#000000;stroke-width:1.5;" width="436" x="265.5" y="233.3281"/><line style="stroke:#181818;stroke-width:0.5;stroke-dasharray:5.0,5.0;" x1="58.5" x2="58.5" y1="97.5703" y2="369.0859"/><line style="stroke:#181818;stroke-width:0.5;stroke-dasharray:5.0,5.0;" x1="183.5" x2="183.5" y1="97.5703" y2="369.0859"/><line style="stroke:#181818;stroke-width:0.5;stroke-dasharray:5.0,5.0;" x1="329.5" x2="329.5" y1="97.5703" y2="369.0859"/><line style="stroke:#181818;stroke-width:0.5;stroke-dasharray:5.0,5.0;" x1="485.5" x2="485.5" y1="97.5703" y2="369.0859"/><line style="stroke:#181818;stroke-width:0.5;stroke-dasharray:5.0,5.0;" x1="639.5" x2="639.5" y1="97.5703" y2="369.0859"/><rect fill="#E2E2F0" height="31.6094" rx="2.5" ry="2.5" style="stroke:#181818;stroke-width:0.5;" width="65" x="26.5" y="64.9609"/><text fill="#000000" font-family="sans-serif" font-size="14" lengthAdjust="spacing" textLength="51" x="33.5" y="86.4941">External</text><rect fill="#E2E2F0" height="31.6094" rx="2.5" ry="2.5" style="stroke:#181818;stroke-width:0.5;" width="65" x="26.5" y="368.0859"/><text fill="#000000" font-family="sans-serif" font-size="14" lengthAdjust="spacing" textLength="51" x="33.5" y="389.6191">External</text><rect fill="#E2E2F0" height="31.6094" rx="2.5" ry="2.5" style="stroke:#181818;stroke-width:0.5;" width="164" x="101.5" y="64.9609"/><text fill="#000000" font-family="sans-serif" font-size="14" lengthAdjust="spacing" textLength="150" x="108.5" y="86.4941">Single-Page Application</text><rect fill="#E2E2F0" height="31.6094" rx="2.5" ry="2.5" style="stroke:#181818;stroke-width:0.5;" width="164" x="101.5" y="368.0859"/><text fill="#000000" font-family="sans-serif" font-size="14" lengthAdjust="spacing" textLength="150" x="108.5" y="389.6191">Single-Page Application</text><rect fill="#E2E2F0" height="31.6094" rx="2.5" ry="2.5" style="stroke:#181818;stroke-width:0.5;" width="108" x="275.5" y="64.9609"/><text fill="#000000" font-family="sans-serif" font-size="14" lengthAdjust="spacing" textLength="94" x="282.5" y="86.4941">API Application</text><rect fill="#E2E2F0" height="31.6094" rx="2.5" ry="2.5" style="stroke:#181818;stroke-width:0.5;" width="108" x="275.5" y="368.0859"/><text fill="#000000" font-family="sans-serif" font-size="14" lengthAdjust="spacing" textLength="94" x="282.5" y="389.6191">API Application</text><rect fill="#E2E2F0" height="31.6094" rx="2.5" ry="2.5" style="stroke:#181818;stroke-width:0.5;" width="185" x="393.5" y="64.9609"/><text fill="#000000" font-family="sans-serif" font-size="14" lengthAdjust="spacing" textLength="171" x="400.5" y="86.4941">Mainframe Banking System</text><rect fill="#E2E2F0" height="31.6094" rx="2.5" ry="2.5" style="stroke:#181818;stroke-width:0.5;" width="185" x="393.5" y="368.0859"/><text fill="#000000" font-family="sans-serif" font-size="14" lengthAdjust="spacing" textLength="171" x="400.5" y="389.6191">Mainframe Banking System</text><rect fill="#E2E2F0" height="31.6094" rx="2.5" ry="2.5" style="stroke:#181818;stroke-width:0.5;" width="103" x="588.5" y="64.9609"/><text fill="#000000" font-family="sans-serif" font-size="14" lengthAdjust="spacing" textLength="89" x="595.5" y="86.4941">E-Mail System</text><rect fill="#E2E2F0" height="31.6094" rx="2.5" ry="2.5" style="stroke:#181818;stroke-width:0.5;" width="103" x="588.5" y="368.0859"/><text fill="#000000" font-family="sans-serif" font-size="14" lengthAdjust="spacing" textLength="89" x="595.5" y="389.6191">E-Mail System</text><polygon fill="#181818" points="171.5,142.2734,181.5,146.2734,171.5,150.2734,175.5,146.2734" style="stroke:#181818;stroke-width:1.0;"/><line style="stroke:#181818;stroke-width:1.0;" x1="59" x2="177.5" y1="146.2734" y2="146.2734"/><text fill="#000000" font-family="sans-serif" font-size="13" lengthAdjust="spacing" textLength="90" x="66" y="125.0654">Create Account</text><text fill="#000000" font-family="sans-serif" font-size="13" lengthAdjust="spacing" textLength="49" x="66" y="141.417">[HTTPS]</text><path d="M91.5,161.2734 L233.5,161.2734 L233.5,169.625 L223.5,179.625 L91.5,179.625 L91.5,161.2734 " fill="#EEEEEE" style="stroke:#000000;stroke-width:1.5;"/><rect fill="none" height="190.8125" style="stroke:#000000;stroke-width:1.5;" width="620" x="91.5" y="161.2734"/><text fill="#000000" font-family="sans-serif" font-size="13" font-weight="bold" lengthAdjust="spacing" textLength="97" x="106.5" y="175.7686">Create Account</text><polygon fill="#181818" points="317.5,214.3281,327.5,218.3281,317.5,222.3281,321.5,218.3281" style="stroke:#181818;stroke-width:1.0;"/><line style="stroke:#181818;stroke-width:1.0;" x1="183.5" x2="323.5" y1="218.3281" y2="218.3281"/><text fill="#000000" font-family="sans-serif" font-size="13" lengthAdjust="spacing" textLength="90" x="190.5" y="197.1201">Create Account</text><text fill="#000000" font-family="sans-serif" font-size="13" lengthAdjust="spacing" textLength="49" x="190.5" y="213.4717">[HTTPS]</text><path d="M265.5,233.3281 L407.5,233.3281 L407.5,241.6797 L397.5,251.6797 L265.5,251.6797 L265.5,233.3281 " fill="#EEEEEE" style="stroke:#000000;stroke-width:1.5;"/><rect fill="none" height="111.7578" style="stroke:#000000;stroke-width:1.5;" width="436" x="265.5" y="233.3281"/><text fill="#000000" font-family="sans-serif" font-size="13" font-weight="bold" lengthAdjust="spacing" textLength="97" x="280.5" y="247.8232">Create Account</text><polygon fill="#181818" points="474,286.3828,484,290.3828,474,294.3828,478,290.3828" style="stroke:#181818;stroke-width:1.0;"/><line style="stroke:#181818;stroke-width:1.0;" x1="329.5" x2="480" y1="290.3828" y2="290.3828"/><text fill="#000000" font-family="sans-serif" font-size="13" lengthAdjust="spacing" textLength="90" x="336.5" y="269.1748">Create Account</text><text fill="#000000" font-family="sans-serif" font-size="13" lengthAdjust="spacing" textLength="78" x="336.5" y="285.5264">[XML/HTTPS]</text><polygon fill="#181818" points="628,333.0859,638,337.0859,628,341.0859,632,337.0859" style="stroke:#181818;stroke-width:1.0;"/><line style="stroke:#181818;stroke-width:1.0;" x1="329.5" x2="634" y1="337.0859" y2="337.0859"/><text fill="#000000" font-family="sans-serif" font-size="13" lengthAdjust="spacing" textLength="269" x="336.5" y="315.8779">Send New Account Created Notification E-Mail</text><text fill="#000000" font-family="sans-serif" font-size="13" lengthAdjust="spacing" textLength="44" x="336.5" y="332.2295">[SMTP]</text><!--SRC=[lLHDIyD04BtlhnZYEV7YoOFGbee58u4K5BI7DPt6nUrkt4nj_VVEveishLgaD112PcRVUxDlTacHHXYg78RIl4EYCmXXOWYTGQfYokGSIlcZCKnaZZ0e2gqoISeQpemSIk9WbjcL8L-A7oiq6VgSDIILGGSQFr4BKKX7AbE5vCfWlF4qKWSWInXTLQotsgwZr2veBHscNoNXiepQmlfVY5UxWQ0lCe2BnpT5A82V7PuVj5UqtBbVpttliRO43NxKDLD6DQ87PBnzma4oEH4H8sq12JHpuEPx-nXpySB99NP-rSX_yNRhccNDzkvw57ALFX9mx6jRauut5CARK_W0rxrPV37FTzDfaiv4xkogw6N5AIZ_hNpNsFD8xt7-hltmS1mI-XJVNpPYpw1hQyPOJEfFn0Ekk-kdLiSnIshH8jP3p5BJU9hC_2cgNl4D]--></g></svg>